<svg width="18" height="16" viewBox="0 0 18 16" fill="none" xmlns="http://www.w3.org/2000/svg">
<path fill-rule="evenodd" clip-rule="evenodd" d="M18 7.87554C18 8.17388 17.8815 8.45999 17.6705 8.67095C17.4596 8.8819 17.1735 9.00042 16.8751 9.00042H3.84233L8.67254 13.8284C8.77713 13.933 8.86009 14.0571 8.91669 14.1938C8.97329 14.3304 9.00243 14.4769 9.00243 14.6248C9.00243 14.7727 8.97329 14.9192 8.91669 15.0558C8.86009 15.1925 8.77713 15.3166 8.67254 15.4212C8.56796 15.5258 8.44379 15.6087 8.30715 15.6653C8.1705 15.722 8.02404 15.7511 7.87613 15.7511C7.72822 15.7511 7.58176 15.722 7.44512 15.6653C7.30847 15.6087 7.18431 15.5258 7.07972 15.4212L0.330474 8.67195C0.225718 8.56746 0.142606 8.44333 0.0858978 8.30667C0.0291896 8.17001 0 8.0235 0 7.87554C0 7.72758 0.0291896 7.58108 0.0858978 7.44441C0.142606 7.30775 0.225718 7.18362 0.330474 7.07913L7.07972 0.329885C7.29094 0.118663 7.57742 0 7.87613 0C8.17484 0 8.46132 0.118663 8.67254 0.329885C8.88376 0.541106 9.00243 0.827584 9.00243 1.1263C9.00243 1.42501 8.88376 1.71149 8.67254 1.92271L3.84233 6.75067H16.8751C17.1735 6.75067 17.4596 6.86918 17.6705 7.08014C17.8815 7.29109 18 7.57721 18 7.87554Z" fill="#252323"/>
</svg>
