<svg width="156" height="68" viewBox="0 0 156 68" fill="none" xmlns="http://www.w3.org/2000/svg">
<path fill-rule="evenodd" clip-rule="evenodd" d="M125.127 51.7018L131.341 51.6238L126.051 23.4633C125.644 21.2874 123.417 20.0537 121.203 20.0537H119.867C117.652 20.0537 115.491 21.3012 115.018 23.4633L108.832 51.7018H115.356L119.724 27.8341C119.851 27.141 121.249 27.2304 121.345 27.8341L125.127 51.7018V51.7018Z" fill="#2B2B2A"/>
<path d="M104.848 19.8455V51.7018H98.5442V38.4326C98.5442 38.1697 98.1675 38.0902 98.0916 38.3224L95.613 45.9291L91.4583 45.9486L88.6116 38.3866C88.4972 38.0829 88.1503 38.1128 88.1503 38.4773V51.7018H81.9941V19.8455H86.3683C87.4151 20.184 88.1303 20.64 88.5741 21.9101L93.0554 35.1605C93.1927 35.6639 93.7309 35.68 93.8908 35.1655C94.5293 33.117 97.5411 23.5143 98.1188 22.0845C98.688 20.9502 99.2558 20.2422 100.524 19.8455H104.848V19.8455Z" fill="#2B2B2A"/>
<path fill-rule="evenodd" clip-rule="evenodd" d="M147.09 51.7879H143.031C138.129 51.7879 134.143 47.8006 134.143 42.9005V28.778C134.143 23.8784 138.129 19.8918 143.031 19.8918H152.913V26.0145H143.031C141.506 26.0145 140.267 27.2544 140.267 28.778V42.9005C140.267 44.4241 141.506 45.664 143.031 45.664H147.09C148.613 45.664 149.854 44.4241 149.854 42.9005V41.6096L149.847 40.6486H146.997V35.4498L156.001 35.4513L155.976 42.9005C155.976 47.8006 151.989 51.7879 147.09 51.7879Z" fill="#2B2B2A"/>
<path d="M0 60.5526V7.42731H0.00234225C0.00234225 7.34541 0.0197614 7.26091 0.0569408 7.18057C0.0878804 7.11479 0.127658 6.93878 0.178617 6.7118C0.391554 5.76697 0.76621 4.10196 2.42499 2.46892C4.0952 0.826003 5.70692 0.498928 6.67671 0.301591C6.8873 0.258172 7.06098 0.223592 7.16628 0.186413C7.24324 0.149233 7.33008 0.128174 7.4203 0.128174H38.1064V0.130513C38.1807 0.130513 38.2553 0.144293 38.3284 0.174192C38.4236 0.213452 38.6149 0.253231 38.8541 0.30419C39.8372 0.511147 41.4887 0.858503 43.1441 2.51494C43.3895 2.76012 43.6971 3.13737 43.9823 3.54401C44.2464 3.9197 44.4978 4.32529 44.6726 4.68487C44.6726 4.69215 44.9271 5.24646 44.9557 5.31328C45.041 5.52518 45.1229 5.75371 45.1959 6.00513C45.2581 6.21729 45.3077 6.50224 45.3574 6.78278C45.4377 8.99691 45.4377 12.4874 45.4216 14.8393L38.6654 14.8232L38.6459 11.4258C38.6459 10.0697 38.9308 8.17974 37.8487 7.26845C37.4083 6.93774 36.7338 6.80982 35.9554 6.81372C35.1528 6.81606 34.3559 6.99208 33.8736 7.32929C33.2795 7.74347 33.1727 8.39216 33.0624 9.05905C32.9397 9.80784 32.8123 10.5766 32.181 11.2896C31.0974 12.5144 29.4955 12.4637 27.7556 12.4094C27.4385 12.399 27.1161 12.3893 26.7006 12.3893C26.0982 12.3893 25.7064 12.3917 25.2017 12.3956C22.0201 12.4177 15.5194 12.4624 14.845 12.2541C12.8129 11.627 12.5971 10.0707 12.4348 8.90175C12.3925 8.60249 12.3553 8.3373 12.2911 8.18364H12.2921L12.2911 8.18104C12.0415 7.58721 11.6322 7.21879 11.0857 7.02171C10.4719 6.79994 9.67317 6.77004 8.726 6.86416C8.02323 6.93488 7.54692 7.20397 7.24428 7.60203C6.86885 8.09446 6.72247 8.80477 6.72377 9.60062V56.6857H6.72636C6.72636 56.7959 6.72143 57.1144 6.71649 57.4267C6.69283 58.9386 6.67541 60.1348 7.75543 60.7671C8.33418 61.1056 8.82428 61.1007 9.55565 61.0931C9.78756 61.0918 9.86296 61.0895 9.94018 61.0895V61.0908L36.523 61.0931C38.5614 60.3693 38.2873 60.0641 38.6719 58.6383C38.6708 56.517 38.6708 55.0155 38.6693 52.8926C39.717 56.4002 43.5047 57.2756 44.3429 57.6214C44.6083 57.7304 44.88 57.8437 45.0472 57.9152C45.268 57.9982 45.4255 58.2116 45.4255 58.4633C45.4255 61.0001 45.1291 63.1315 43.9971 64.7334C42.849 66.3565 40.9879 67.4155 38.0827 67.7984H38.0793C38.0606 67.801 38.0406 67.8024 38.0219 67.8034C35.4853 67.8866 32.8755 67.8666 30.2877 67.8471C29.312 67.8393 28.3388 67.832 26.9341 67.832H10.4074C8.70156 67.832 6.66683 68.1383 5.09827 67.5109C2.64676 66.5289 0 63.1539 0 60.5526V60.5526Z" fill="#2B2B2A"/>
<path fill-rule="evenodd" clip-rule="evenodd" d="M64.1948 52.1145H60.1368C55.2343 52.1145 51.248 48.1272 51.248 43.227V29.105C51.248 24.2049 55.2343 20.2186 60.1368 20.2186H70.0185V26.341H60.1368C58.6119 26.341 57.372 27.5809 57.372 29.105V43.227C57.372 44.7511 58.6119 45.9908 60.1368 45.9908H64.1948C65.7187 45.9908 66.9599 44.7511 66.9599 43.227V41.9366L66.9523 40.9757H64.102V35.7768L73.1059 35.7778L73.0812 43.227C73.0812 48.1272 69.095 52.1145 64.1948 52.1145V52.1145Z" fill="#2B2B2A"/>
<path fill-rule="evenodd" clip-rule="evenodd" d="M38.666 46.1403C39.2029 49.5637 41.9552 51.5105 45.4457 52.1142V20.0957H38.666V46.1403Z" fill="#2B2B2A"/>
<path fill-rule="evenodd" clip-rule="evenodd" d="M11.7559 20.2213H21.7558C27.82 20.2213 32.529 22.0402 32.529 28.1317C32.529 30.9924 31.0635 34.0386 28.6803 35.0169V35.2127C31.6648 36.0585 33.9684 38.4601 33.9684 42.7191C33.9684 49.2073 28.9432 52.1151 22.5886 52.1151H20.0523C15.4704 52.1151 11.7559 48.4005 11.7559 43.8175V20.2213V20.2213ZM21.4493 32.9947C24.6545 32.9947 26.0718 31.5169 26.0718 29.1966C26.0718 26.7394 24.5752 25.7847 21.4977 25.7847H18.3611V32.9947H21.4493V32.9947ZM22.0507 46.5517C25.6514 46.5517 27.5114 45.1529 27.5114 42.2529C27.5114 39.4556 25.6823 38.3163 22.0507 38.3163H18.3611V44.0099C18.3611 45.4134 19.4991 46.5517 20.9028 46.5517H22.0507V46.5517Z" fill="#2B2B2A"/>
<path fill-rule="evenodd" clip-rule="evenodd" d="M38.666 46.1403C39.2029 49.5637 41.9552 51.5105 45.4457 52.1142V20.0957H38.666V46.1403Z" fill="#2B2B2A"/>
<path fill-rule="evenodd" clip-rule="evenodd" d="M113.738 40.6553H126.138V45.8006H113.738V40.6553Z" fill="#2B2B2A"/>
</svg>
