<svg xmlns="http://www.w3.org/2000/svg" fill="none" viewBox="0 0 190 94"><rect width="188" height="90.286" x="1" y="1.857" fill="#fff" stroke="#000" stroke-width="2" rx="11"/><path fill="#2B2B2A" fill-rule="evenodd" d="M135.701 62.288l5.367-.068L136.5 37.9c-.352-1.88-2.275-2.945-4.187-2.945h-1.154c-1.912 0-3.779 1.078-4.188 2.945l-5.342 24.388h5.635l3.772-20.613c.109-.599 1.317-.522 1.399 0l3.266 20.613z" clip-rule="evenodd"/><path fill="#2B2B2A" d="M118.188 34.776v27.512h-5.444v-11.46c0-.227-.325-.296-.391-.095l-2.14 6.57-3.588.016-2.459-6.53c-.099-.263-.398-.237-.398.078v11.42h-5.317V34.777h3.778c.904.292 1.522.686 1.905 1.783l3.87 11.443c.119.435.583.449.722.004.551-1.769 3.152-10.062 3.651-11.297.492-.98.982-1.59 2.078-1.934h3.733z"/><path fill="#2B2B2A" fill-rule="evenodd" d="M154.668 62.362h-3.505c-4.234 0-7.677-3.444-7.677-7.675V42.49c0-4.232 3.443-7.675 7.677-7.675h8.534v5.288h-8.534a2.39 2.39 0 0 0-2.388 2.387v12.197a2.39 2.39 0 0 0 2.388 2.386h3.505a2.39 2.39 0 0 0 2.388-2.386v-1.115l-.007-.83h-2.462v-4.49l7.777.001-.022 6.434c0 4.232-3.442 7.675-7.674 7.675z" clip-rule="evenodd"/><path fill="#2B2B2A" d="M27.637 69.932V24.05h.002c0-.071.015-.144.047-.213a3.01 3.01 0 0 0 .105-.405c.184-.816.507-2.254 1.94-3.665 1.442-1.418 2.834-1.7 3.672-1.871.182-.038.332-.068.423-.1a.505.505 0 0 1 .22-.05h26.5v.002c.065 0 .13.012.193.038.082.034.247.068.454.112.849.179 2.275.479 3.704 1.91.212.211.478.537.724.888.229.324.446.675.597.985 0 .007.22.485.244.543.074.183.144.38.208.598.053.183.096.429.139.671.07 1.912.07 4.927.056 6.958l-5.835-.014-.017-2.934c0-1.171.246-2.803-.689-3.59-.38-.286-.963-.397-1.635-.393-.693.002-1.381.154-1.798.445-.513.358-.605.918-.7 1.494-.106.647-.216 1.31-.762 1.926-.936 1.058-2.319 1.014-3.822.967a25.97 25.97 0 0 0-.91-.017c-.521 0-.86.002-1.295.006-2.748.019-8.362.057-8.945-.123-1.755-.541-1.941-1.885-2.081-2.895-.037-.258-.069-.487-.124-.62v-.002c-.216-.513-.57-.831-1.041-1.002-.53-.191-1.22-.217-2.038-.136-.607.061-1.019.294-1.28.638-.324.425-.45 1.038-.45 1.726v40.664h.003c0 .095-.004.37-.009.64-.02 1.306-.035 2.339.898 2.885.5.292.923.288 1.554.281.2 0 .266-.003.332-.003v.002l22.958.001c1.76-.625 1.524-.888 1.856-2.12 0-1.832 0-3.128-.002-4.962.905 3.03 4.176 3.786 4.9 4.084.23.094.464.192.608.254.19.072.327.256.327.473 0 2.191-.256 4.032-1.234 5.415-.991 1.402-2.599 2.317-5.108 2.647h-.003a.642.642 0 0 1-.05.005c-2.19.072-4.444.054-6.679.037-.842-.006-1.683-.013-2.896-.013H36.625c-1.473 0-3.23.265-4.585-.277-2.117-.848-4.403-3.763-4.403-6.01z"/><path fill="#2B2B2A" fill-rule="evenodd" d="M83.076 62.644H79.57c-4.234 0-7.677-3.443-7.677-7.675V42.772c0-4.231 3.443-7.674 7.677-7.674h8.534v5.287h-8.534a2.39 2.39 0 0 0-2.388 2.387V54.97a2.39 2.39 0 0 0 2.388 2.386h3.505a2.39 2.39 0 0 0 2.388-2.386v-1.115l-.007-.83h-2.461v-4.49l7.776.001-.022 6.434c0 4.232-3.442 7.675-7.674 7.675zM61.031 57.485c.464 2.956 2.84 4.638 5.855 5.16V34.991h-5.855v22.493zM37.79 35.1h8.635c5.238 0 9.305 1.571 9.305 6.832 0 2.47-1.266 5.101-3.324 5.946v.17c2.577.73 4.567 2.804 4.567 6.482 0 5.603-4.34 8.115-9.828 8.115h-2.19a7.165 7.165 0 0 1-7.166-7.166V35.1zm8.37 11.032c2.769 0 3.993-1.277 3.993-3.28 0-2.123-1.293-2.947-3.95-2.947h-2.71v6.227h2.668zm.52 11.708c3.11 0 4.716-1.208 4.716-3.713 0-2.416-1.58-3.4-4.716-3.4h-3.186v4.918c0 1.212.982 2.195 2.195 2.195h.991z" clip-rule="evenodd"/><path fill="#2B2B2A" fill-rule="evenodd" d="M61.031 57.485c.464 2.956 2.84 4.638 5.855 5.16V34.991h-5.855v22.493zM125.865 52.748h10.709v4.443h-10.709v-4.443z" clip-rule="evenodd"/></svg>