<svg width="212" height="632" viewBox="0 0 212 632" fill="none" xmlns="http://www.w3.org/2000/svg">
<path d="M48.5006 137.429L56.0046 138.811C56.3235 138.869 56.5573 139.15 56.5573 139.473V150.899V151.222C56.5892 152.699 56.0312 154.394 53.6078 155.786L48.5006 158.725V137.429Z" fill="#1A162C"/>
<path d="M37.6107 164.65H41.1875V152.795H37.6107V164.65Z" fill="#1A162C"/>
<path d="M91.6106 605.987L88.1934 607.945C87.848 608.146 87.2368 608.125 86.8329 607.893L83.6122 606.04C83.2083 605.807 83.1658 605.457 83.5166 605.257L86.9285 603.292C87.2793 603.091 87.8905 603.118 88.2944 603.349L91.5097 605.199C91.9136 605.43 91.9561 605.786 91.6106 605.987Z" fill="#1A162C"/>
<path d="M91.1849 615.365L87.7676 617.33C87.4222 617.53 86.811 617.503 86.4018 617.276L83.1864 615.422C82.7825 615.189 82.7401 614.839 83.0908 614.639L86.5027 612.674C86.8535 612.473 87.4647 612.5 87.8686 612.731L91.0839 614.58C91.4878 614.814 91.5303 615.162 91.1849 615.365Z" fill="#1A162C"/>
<path d="M99.552 610.552L96.1401 612.515C95.7893 612.717 95.1781 612.69 94.7742 612.463L91.5589 610.609C91.155 610.376 91.1072 610.026 91.4579 609.826L94.87 607.861C95.2207 607.66 95.8318 607.687 96.2357 607.918L99.4511 609.767C99.8603 609.999 99.9028 610.349 99.552 610.552Z" fill="#1A162C"/>
<path d="M99.1241 619.934L95.7122 621.899C95.3615 622.099 94.7503 622.072 94.3464 621.84L91.1259 619.991C90.7219 619.76 90.6793 619.41 91.0301 619.208L94.4421 617.245C94.7929 617.042 95.4039 617.069 95.8078 617.296L99.0232 619.15C99.4271 619.384 99.4749 619.733 99.1241 619.934Z" fill="#1A162C"/>
<path d="M107.489 615.12L104.077 617.085C103.726 617.286 103.115 617.259 102.711 617.027L99.496 615.178C99.0921 614.945 99.0495 614.597 99.3949 614.394L102.812 612.432C103.163 612.229 103.774 612.256 104.178 612.483L107.393 614.336C107.797 614.57 107.84 614.92 107.489 615.12Z" fill="#1A162C"/>
<path d="M107.528 624.768L104.116 626.733C103.765 626.933 103.154 626.908 102.75 626.674L99.535 624.825C99.1311 624.593 99.0886 624.244 99.434 624.043L102.851 622.078C103.197 621.878 103.808 621.902 104.212 622.13L107.432 623.983C107.836 624.217 107.879 624.567 107.528 624.768Z" fill="#1A162C"/>
<path d="M115.898 619.954L112.48 621.919C112.135 622.12 111.524 622.095 111.12 621.861L107.899 620.012C107.495 619.781 107.453 619.431 107.803 619.231L111.215 617.266C111.566 617.065 112.177 617.09 112.581 617.317L115.797 619.17C116.201 619.404 116.248 619.754 115.898 619.954Z" fill="#1A162C"/>
<path d="M115.474 629.338L112.057 631.301C111.711 631.504 111.1 631.477 110.696 631.243L107.476 629.396C107.072 629.162 107.029 628.809 107.38 628.606L110.792 626.644C111.143 626.441 111.754 626.468 112.158 626.701L115.373 628.555C115.777 628.786 115.819 629.136 115.474 629.338Z" fill="#1A162C"/>
<path d="M67.3216 592.013L63.9044 593.978C63.5536 594.179 62.9477 594.152 62.5438 593.921L59.3232 592.072C58.9193 591.84 58.8768 591.49 59.2275 591.283L62.6394 589.324C62.9902 589.122 63.6014 589.144 64.0053 589.376L67.2206 591.23C67.6245 591.463 67.667 591.813 67.3216 592.013Z" fill="#1A162C"/>
<path d="M66.8914 601.395L63.4795 603.36C63.1287 603.563 62.5175 603.536 62.1136 603.302L58.8982 601.455C58.4943 601.221 58.4519 600.866 58.8026 600.665L62.2145 598.706C62.5653 598.499 63.1765 598.526 63.5804 598.76L66.7957 600.613C67.1996 600.845 67.2421 601.194 66.8914 601.395Z" fill="#1A162C"/>
<path d="M75.2608 596.582L71.8489 598.547C71.4982 598.748 70.887 598.723 70.4831 598.489L67.2624 596.642C66.8638 596.408 66.816 596.053 67.1668 595.852L70.5787 593.887C70.9294 593.686 71.5407 593.713 71.9446 593.947L75.1599 595.8C75.5638 596.032 75.6116 596.381 75.2608 596.582Z" fill="#1A162C"/>
<path d="M74.8389 605.966L71.427 607.925C71.0763 608.125 70.4651 608.105 70.0612 607.871L66.8405 606.018C66.4366 605.786 66.3941 605.437 66.7449 605.234L70.1569 603.271C70.5077 603.068 71.1188 603.095 71.5227 603.329L74.738 605.176C75.1419 605.41 75.1897 605.766 74.8389 605.966Z" fill="#1A162C"/>
<path d="M83.2039 601.153L79.792 603.112C79.4412 603.319 78.83 603.292 78.4261 603.058L75.2108 601.205C74.8069 600.973 74.7644 600.624 75.1098 600.421L78.5272 598.458C78.8726 598.256 79.489 598.283 79.8876 598.516L83.1082 600.363C83.5121 600.597 83.5546 600.95 83.2039 601.153Z" fill="#1A162C"/>
<path d="M83.239 610.8L79.8271 612.759C79.4763 612.966 78.8651 612.939 78.4612 612.707L75.2458 610.854C74.8419 610.62 74.7994 610.271 75.1449 610.07L78.5621 608.105C78.9076 607.905 79.5188 607.932 79.9227 608.163L83.1434 610.012C83.5473 610.244 83.5898 610.6 83.239 610.8Z" fill="#1A162C"/>
<path d="M123.837 624.525L120.425 626.488C120.074 626.69 119.463 626.664 119.059 626.43L115.844 624.583C115.44 624.349 115.392 623.996 115.743 623.793L119.155 621.835C119.505 621.634 120.117 621.654 120.52 621.888L123.741 623.741C124.145 623.973 124.187 624.322 123.837 624.525Z" fill="#1A162C"/>
<path d="M132.204 619.712L128.792 621.675C128.441 621.878 127.83 621.851 127.426 621.617L124.211 619.77C123.807 619.537 123.764 619.183 124.115 618.98L127.527 617.021C127.878 616.821 128.489 616.841 128.893 617.075L132.108 618.928C132.512 619.16 132.555 619.51 132.204 619.712Z" fill="#1A162C"/>
<path d="M140.573 614.897L137.161 616.862C136.811 617.065 136.199 617.038 135.795 616.804L132.58 614.957C132.176 614.723 132.128 614.37 132.479 614.167L135.891 612.209C136.242 612.008 136.853 612.029 137.257 612.262L140.472 614.115C140.876 614.347 140.924 614.697 140.573 614.897Z" fill="#1A162C"/>
<path d="M131.778 629.094L128.366 631.059C128.015 631.253 127.404 631.233 127 630.999L123.785 629.146C123.381 628.914 123.339 628.564 123.689 628.364L127.101 626.399C127.452 626.197 128.063 626.224 128.467 626.457L131.682 628.304C132.086 628.538 132.129 628.894 131.778 629.094Z" fill="#1A162C"/>
<path d="M140.148 624.281L136.736 626.246C136.385 626.441 135.774 626.42 135.37 626.186L132.149 624.333C131.745 624.101 131.703 623.752 132.053 623.549L135.465 621.586C135.816 621.383 136.427 621.41 136.831 621.644L140.047 623.491C140.45 623.725 140.498 624.081 140.148 624.281Z" fill="#1A162C"/>
<path d="M156.494 580.391L153.076 582.356C152.725 582.557 152.114 582.53 151.716 582.298L148.495 580.449C148.091 580.215 148.049 579.866 148.399 579.665L151.811 577.7C152.162 577.5 152.773 577.527 153.177 577.76L156.392 579.607C156.796 579.841 156.839 580.19 156.494 580.391Z" fill="#1A162C"/>
<path d="M156.067 589.773L152.655 591.738C152.304 591.939 151.693 591.914 151.289 591.68L148.074 589.831C147.67 589.6 147.628 589.25 147.978 589.049L151.39 587.084C151.741 586.884 152.352 586.904 152.756 587.136L155.972 588.989C156.375 589.223 156.418 589.573 156.067 589.773Z" fill="#1A162C"/>
<path d="M164.437 584.96L161.025 586.926C160.674 587.126 160.063 587.099 159.659 586.867L156.438 585.018C156.034 584.787 155.992 584.431 156.343 584.23L159.754 582.271C160.105 582.069 160.716 582.091 161.12 582.323L164.336 584.176C164.74 584.41 164.787 584.76 164.437 584.96Z" fill="#1A162C"/>
<path d="M164.011 594.344L160.599 596.307C160.248 596.51 159.637 596.483 159.233 596.249L156.012 594.402C155.608 594.169 155.566 593.815 155.917 593.612L159.329 591.649C159.679 591.446 160.291 591.473 160.695 591.707L163.91 593.56C164.314 593.788 164.362 594.142 164.011 594.344Z" fill="#1A162C"/>
<path d="M172.376 589.532L168.964 591.495C168.613 591.697 168.002 591.67 167.598 591.436L164.383 589.589C163.979 589.356 163.936 589.002 164.282 588.799L167.699 586.834C168.044 586.634 168.656 586.661 169.059 586.894L172.28 588.748C172.684 588.975 172.726 589.329 172.376 589.532Z" fill="#1A162C"/>
<path d="M148.762 566.01L145.351 567.975C145 568.175 144.389 568.148 143.985 567.916L140.769 566.067C140.365 565.836 140.323 565.48 140.668 565.28L144.086 563.319C144.431 563.118 145.042 563.139 145.446 563.372L148.667 565.226C149.071 565.46 149.113 565.809 148.762 566.01Z" fill="#1A162C"/>
<path d="M148.337 575.392L144.925 577.357C144.574 577.557 143.963 577.533 143.559 577.299L140.344 575.445C139.94 575.212 139.892 574.862 140.243 574.662L143.66 572.697C144.005 572.496 144.616 572.523 145.02 572.754L148.241 574.604C148.645 574.838 148.687 575.191 148.337 575.392Z" fill="#1A162C"/>
<path d="M156.708 570.58L153.291 572.545C152.946 572.741 152.334 572.72 151.925 572.486L148.71 570.633C148.306 570.4 148.264 570.05 148.614 569.849L152.026 567.884C152.377 567.684 152.988 567.711 153.392 567.942L156.607 569.791C157.011 570.025 157.054 570.379 156.708 570.58Z" fill="#1A162C"/>
<path d="M164.648 575.15L161.236 577.109C160.885 577.31 160.274 577.289 159.87 577.055L156.654 575.202C156.251 574.97 156.203 574.621 156.554 574.418L159.966 572.455C160.316 572.252 160.927 572.279 161.331 572.513L164.547 574.36C164.951 574.594 164.998 574.948 164.648 575.15Z" fill="#1A162C"/>
<path d="M172.415 599.178L169.003 601.143C168.652 601.343 168.041 601.317 167.637 601.083L164.422 599.236C164.018 599.002 163.975 598.648 164.321 598.448L167.738 596.483C168.083 596.282 168.695 596.307 169.099 596.541L172.319 598.394C172.723 598.622 172.766 598.978 172.415 599.178Z" fill="#1A162C"/>
<path d="M180.783 594.365L177.365 596.33C177.02 596.53 176.409 596.504 176.005 596.27L172.784 594.417C172.38 594.189 172.338 593.836 172.688 593.635L176.1 591.67C176.451 591.467 177.062 591.494 177.466 591.728L180.682 593.581C181.085 593.815 181.128 594.165 180.783 594.365Z" fill="#1A162C"/>
<path d="M180.357 603.747L176.939 605.706C176.589 605.908 175.977 605.885 175.574 605.654L172.358 603.801C171.954 603.567 171.912 603.217 172.263 603.017L175.675 601.052C176.025 600.851 176.637 600.878 177.04 601.11L180.256 602.959C180.66 603.191 180.702 603.546 180.357 603.747Z" fill="#1A162C"/>
<path d="M188.721 598.934L185.309 600.893C184.959 601.096 184.347 601.073 183.944 600.841L180.728 598.988C180.324 598.754 180.276 598.405 180.627 598.204L184.039 596.239C184.39 596.038 185.001 596.065 185.405 596.297L188.626 598.146C189.024 598.378 189.072 598.733 188.721 598.934Z" fill="#1A162C"/>
<path d="M197.087 594.121L193.675 596.08C193.324 596.282 192.713 596.26 192.309 596.028L189.094 594.174C188.69 593.941 188.647 593.592 188.998 593.391L192.41 591.426C192.761 591.225 193.372 591.252 193.776 591.484L196.991 593.333C197.395 593.564 197.437 593.92 197.087 594.121Z" fill="#1A162C"/>
<path d="M205.46 589.308L202.048 591.266C201.697 591.467 201.086 591.446 200.682 591.214L197.462 589.361C197.058 589.128 197.015 588.778 197.366 588.578L200.778 586.613C201.129 586.412 201.74 586.437 202.144 586.67L205.359 588.52C205.763 588.751 205.811 589.107 205.46 589.308Z" fill="#1A162C"/>
<path d="M196.665 603.499L193.253 605.464C192.902 605.664 192.291 605.637 191.887 605.41L188.672 603.557C188.268 603.323 188.225 602.973 188.571 602.773L191.988 600.808C192.339 600.608 192.95 600.634 193.354 600.866L196.569 602.715C196.973 602.949 197.016 603.298 196.665 603.499Z" fill="#1A162C"/>
<path d="M205.034 598.686L201.622 600.651C201.272 600.852 200.66 600.824 200.257 600.597L197.036 598.743C196.632 598.51 196.589 598.16 196.94 597.96L200.352 595.995C200.703 595.794 201.314 595.821 201.718 596.052L204.933 597.901C205.337 598.136 205.385 598.485 205.034 598.686Z" fill="#1A162C"/>
<path d="M155.37 37.9478C161.407 43.4387 166.275 50.2108 168.582 58.0261C171.244 67.0487 172.01 78.957 164.394 90.484C151.054 110.684 133.038 105.029 128.786 103.319C128.25 103.107 127.936 102.551 128.026 101.979C128.568 98.4264 129.706 85.115 122.993 76.8337C116.6 68.9443 108.07 69.4049 106.146 69.5108C105.774 69.5267 105.498 69.4314 105.227 69.1773C102.708 66.8369 89.8146 53.7478 98.6368 38.9168C108.113 22.9843 131.699 14.8037 150.629 22.1795C151.155 22.386 151.145 23.1591 150.629 23.3815C148.514 24.3028 145.432 26.5319 148.87 31.0326C150.82 33.5795 153.207 35.9834 155.37 37.9478Z" fill="#1A162C"/>
<path d="M147.728 23.0475C146.692 23.8894 146.001 24.9008 145.703 26.0445C145.219 27.9189 145.804 29.9574 147.446 32.1124C149.195 34.3893 151.453 36.7985 154.164 39.2606C160.435 44.9632 164.83 51.6243 166.866 58.5289C170.246 69.9765 168.912 80.3969 162.906 89.4989C150.831 107.788 135.031 103.79 129.855 101.826C130.264 98.8021 131.688 84.7176 124.386 75.7109C119.938 70.2254 113.529 67.3979 106.274 67.7209C103.49 65.0734 92.2493 53.1545 100.173 39.8271C109.049 24.9007 130.36 17.5567 147.728 23.0475ZM139.506 107.094C147.313 107.099 157.539 104.108 165.893 91.458C172.414 81.583 173.939 69.8441 170.299 57.5228C168.077 49.9934 163.331 42.7712 156.571 36.629C154.02 34.3099 151.905 32.0595 150.295 29.9521C149.641 29.0996 148.918 27.8871 149.163 26.9393C149.413 25.9862 150.64 25.3243 151.347 25.0119C152.256 24.6148 152.83 23.7147 152.809 22.7192C152.787 21.7344 152.192 20.8766 151.283 20.5218C132.013 13.0083 107.199 21.0196 97.0961 38.0057C87.6043 53.9699 101.183 67.8585 104.005 70.4795C104.632 71.062 105.392 71.332 106.242 71.2896C112.445 70.972 117.791 73.2488 121.601 77.9507C127.113 84.7493 127.123 96.0858 126.257 101.709C126.044 103.107 126.81 104.447 128.122 104.971C129.696 105.606 133.995 107.094 139.506 107.094Z" fill="#1A162C"/>
<path d="M2.93339 73.7517L19.7115 160.519C20.4555 164.358 31.2813 170.267 34.672 168.292L75.9182 136.565C78.8678 134.85 80.425 131.477 79.8139 128.13L71.9749 42.6865C71.268 38.8159 58.7895 35.0141 55.3829 36.9944L6.81304 65.2375C3.83689 66.9689 2.27969 70.3789 2.93339 73.7517Z" fill="#1A162C"/>
<path d="M58.091 38.223C60.2275 38.223 63.6076 38.9272 66.5943 40.2933C69.3898 41.5746 70.1551 42.6866 70.2136 43.0043L78.0259 128.295C78.5255 131.054 77.3032 133.696 75.0126 135.025L33.5751 166.884C33.2456 167.064 31.3589 167.017 28.3242 165.645C24.5775 163.956 21.7024 161.409 21.4632 160.186L4.69046 73.413C4.18026 70.792 5.39738 68.1234 7.70921 66.7785L56.2788 38.5354C56.6402 38.3289 57.2779 38.223 58.091 38.223ZM32.9054 170.464C33.8727 170.464 34.7921 170.284 35.568 169.833L77.0109 137.974C80.4016 136.015 82.3149 131.885 81.5708 127.813L73.753 42.5225C73.3704 40.3939 71.4731 38.6095 68.0877 37.0581C64.5536 35.4378 57.7298 33.5687 54.4773 35.459L5.91283 63.6968C2.283 65.8095 0.380432 69.9819 1.17761 74.0908L17.9502 160.859C18.6252 164.332 23.86 167.541 26.8468 168.891C28.3508 169.569 30.7424 170.464 32.9054 170.464Z" fill="#1A162C"/>
<path d="M11.5194 76.9818L28.2975 163.75C29.0416 167.589 33.3676 169.548 36.7583 167.578L84.5043 139.795C87.4539 138.08 89.011 134.707 88.3998 131.361L72.4348 44.1109C71.728 40.2403 67.3754 38.2441 63.9688 40.2297L15.3991 68.4676C12.4229 70.199 10.871 73.6089 11.5194 76.9818Z" fill="#00AFEF"/>
<path d="M66.8318 41.2308C67.3845 41.2308 67.9371 41.3526 68.4633 41.5909C69.6378 42.1309 70.4404 43.1634 70.6742 44.4289L86.6337 131.684C87.112 134.284 85.8897 136.926 83.5991 138.255L35.8532 166.037C34.7425 166.683 33.4351 166.747 32.2712 166.223C31.102 165.693 30.2941 164.671 30.055 163.416L13.277 76.6432C12.7668 74.0222 13.9838 71.3536 16.301 70.0087L64.8653 41.7656C65.4818 41.4108 66.1515 41.2308 66.8318 41.2308ZM33.8816 170.13C35.1942 170.13 36.4962 169.791 37.6548 169.114L85.4062 141.337C88.9882 139.25 90.9014 135.115 90.1573 131.043L74.1924 43.7882C73.7566 41.4002 72.1729 39.3723 69.962 38.3557C67.7512 37.339 65.1736 37.4608 63.0637 38.6892L14.4993 66.927C10.8747 69.0397 8.97215 73.2121 9.75871 77.3157V77.321L26.5421 164.089C26.9992 166.456 28.5882 168.468 30.7938 169.463C31.777 169.908 32.8293 170.13 33.8816 170.13Z" fill="#1A162C"/>
<path d="M20.2819 77.1992L35.7525 155.993C35.9332 156.898 36.9536 157.359 37.7508 156.893L79.0557 132.865C79.704 132.483 80.0494 131.742 79.9112 131.006L65.105 51.8313C64.9349 50.9206 63.9092 50.4493 63.1067 50.9206L21.127 75.3248C20.4733 75.706 20.1331 76.4579 20.2819 77.1992Z" fill="white"/>
<path d="M63.4636 52.7735L78.153 131.334L37.3903 155.045L22.0367 76.8601L63.4636 52.7735ZM37.0767 158.857C37.6241 158.857 38.1663 158.714 38.6553 158.434L79.96 134.4C81.2567 133.648 81.9423 132.15 81.6659 130.683L66.8648 51.5027C66.6788 50.5073 66.0146 49.6601 65.0899 49.2365C64.1651 48.8182 63.0862 48.8658 62.2093 49.3794L20.2296 73.789C18.9222 74.5462 18.2367 76.0553 18.5237 77.5378V77.5431L33.9997 156.337C34.1964 157.322 34.8606 158.164 35.78 158.582C36.1946 158.767 36.6356 158.857 37.0767 158.857Z" fill="#1A162C"/>
<path d="M10.7281 73.2329L12.0195 70.8132L4.57376 66.874L3.28235 69.2937L10.7281 73.2329Z" fill="#00AFEF"/>
<path d="M59.6578 43.2112L60.9492 40.7914L53.4981 36.8518L52.212 39.2717L59.6578 43.2112Z" fill="#00AFEF"/>
<path d="M192.548 118.383C195.95 129.709 209.172 176.013 209.539 213.098C209.587 217.684 160.454 244.985 159.279 249.422C154.448 267.689 145.573 299.242 145.573 299.242L148.592 257.152L170.344 173.164L190.8 118.351C191.108 117.52 192.293 117.536 192.548 118.383Z" fill="#00AFEF"/>
<path d="M207.75 212.902C206.336 215.471 191.599 224.895 181.804 231.159C163.581 242.819 158.186 246.568 157.554 248.971C155.077 258.333 151.506 271.305 148.631 281.662L150.363 257.438L172.079 173.609L191.578 121.39C196.1 136.83 207.362 178.613 207.75 212.902ZM142.54 316.656L147.302 299.723C147.387 299.406 156.231 267.949 161.008 249.877C162.039 248.034 174.582 240.018 183.739 234.156C205.141 220.469 211.359 216.042 211.332 213.083C210.965 176.219 198.173 130.895 194.262 117.875C193.927 116.747 192.949 115.995 191.774 115.958C190.515 115.905 189.537 116.63 189.128 117.732L168.672 172.545L146.808 257.025L142.54 316.656Z" fill="#1A162C"/>
<path d="M132.425 577.527C132.425 577.527 137.347 588.242 136.661 601.54C136.496 604.775 134.232 607.548 131.113 608.465L120.579 611.577C117.343 612.531 113.835 611.615 111.486 609.194L107.272 604.859C105.002 602.518 102.053 600.95 98.8427 600.369C96.5256 599.951 94.3413 599.012 92.4387 597.637L72.3603 583.059C69.5861 581.047 68.757 577.109 70.8031 574.366C72.4613 572.141 75.2673 569.865 80.0185 568.715C91.0993 566.037 111.082 570.379 111.082 570.379L132.425 577.527Z" fill="#1A162C"/>
<path d="M131.092 578.956C132.113 581.487 135.434 590.648 134.876 601.449C134.754 603.91 133.038 606.04 130.609 606.76L120.07 609.867C117.461 610.64 114.665 609.91 112.778 607.956L108.553 603.62C106.013 600.998 102.766 599.266 99.1625 598.615C97.1217 598.245 95.1659 597.41 93.4919 596.198L73.4134 581.62C72.3877 580.877 71.6915 579.74 71.5055 578.501C71.3354 577.384 71.5959 576.288 72.239 575.425C74.0459 573.005 76.8041 571.326 80.4393 570.447C90.9993 567.9 110.504 572.079 110.7 572.116L131.092 578.956ZM117.987 613.733C119.023 613.733 120.065 613.585 121.09 613.284L131.624 610.175C135.503 609.031 138.246 605.6 138.448 601.635C139.144 588.052 134.26 577.235 134.053 576.78L133.734 576.081L111.652 568.688C110.637 568.457 90.9514 564.242 79.5942 566.984C75.1247 568.07 71.6862 570.188 69.369 573.301C68.1467 574.937 67.6525 576.97 67.966 579.04C68.3062 581.212 69.5232 583.202 71.3089 584.499L91.3873 599.072C93.4866 600.601 95.9578 601.656 98.5247 602.121C101.384 602.64 103.967 604.018 105.986 606.098L110.206 610.433C112.284 612.578 115.096 613.733 117.987 613.733Z" fill="#1A162C"/>
<path d="M193.49 541.552C193.49 541.552 198.363 563.532 200.452 570.246C201.451 573.454 201.074 576.943 199.702 580.015C198.911 581.79 197.327 583.093 195.424 583.52L182.887 586.375C179.688 587.105 176.382 585.717 174.666 582.937C171.264 577.998 167.156 572.697 162.299 568.599L149.538 557.851C149.538 557.851 143.868 552.647 146.621 545.122C147.997 541.362 155.161 539.732 161.98 539.037C168.793 538.351 175.266 538.603 175.266 538.603L193.49 541.552Z" fill="#1A162C"/>
<path d="M192.006 543.116C193.059 547.817 196.912 564.883 198.74 570.776C199.574 573.44 199.335 576.461 198.07 579.291C197.507 580.544 196.37 581.482 195.025 581.783L182.488 584.638C180.033 585.198 177.503 584.135 176.19 582.007C173.32 577.839 168.936 571.862 163.451 567.239L150.696 556.489C150.563 556.363 146.003 552.006 148.299 545.736C148.703 544.634 150.861 541.955 162.16 540.812C168.771 540.143 175.133 540.383 175.196 540.383L192.006 543.116ZM181.17 588.35C181.871 588.35 182.578 588.27 183.285 588.11L195.822 585.258C198.256 584.702 200.318 583.012 201.333 580.741C202.954 577.123 203.247 573.206 202.157 569.717C200.116 563.152 195.285 541.389 195.238 541.165L194.977 539.986L175.552 536.845C175.063 536.813 168.654 536.576 161.798 537.269C151.871 538.27 146.36 540.642 144.941 544.512C141.816 553.054 148.06 558.916 148.331 559.158L161.139 569.961C166.295 574.302 170.488 580.025 173.193 583.949C174.893 586.708 177.949 588.35 181.17 588.35Z" fill="#1A162C"/>
<path d="M75.4703 310.043C85.2013 301.264 109 316.503 125.331 329.031C129.705 299.432 190.552 323.895 190.552 323.895C190.552 323.895 184.079 403.239 186.433 424.34C188.787 445.435 199.374 458.914 198.789 505.214C198.322 541.827 198.609 556.082 198.747 560.45C198.779 561.519 198.279 562.477 197.365 563.04C193.666 565.305 183.436 570.215 173.348 562.864C172.689 562.382 172.259 561.635 172.147 560.827C170.813 550.973 160.562 485.798 154.078 470.637C149.22 459.286 147.924 445.334 147.626 436.661C147.424 430.851 146.462 425.118 144.692 419.574C143.103 414.582 141.631 401.365 140.191 400.591C138.31 403.965 138.23 407.994 137.969 411.887C137.119 424.561 136.285 435.422 135.642 440.574C133.489 457.745 139.962 474.153 142.019 495.836C143.826 514.846 137.231 569.88 135.578 583.175C135.328 585.188 134.201 586.931 132.437 587.936C128.095 590.404 119.156 593.877 109.271 588.36C107.182 587.196 105.843 585.024 105.827 582.641C105.742 568.715 105.12 516.641 100.55 499.94C95.2564 480.602 94.0765 457.158 94.0765 457.158C94.0765 457.158 78.8557 390.657 75.5819 340.685C74.9707 331.339 71.9149 313.252 75.4703 310.043Z" fill="white"/>
<path d="M139.483 398.192L138.628 399.729C136.725 403.133 136.486 406.972 136.252 410.683L136.183 411.764C135.221 426.145 134.44 435.765 133.866 440.357C132.5 451.249 134.541 461.954 136.699 473.301C138.059 480.433 139.462 487.808 140.238 496.006C142.045 515.026 135.194 571.776 133.802 582.96C133.621 584.431 132.798 585.68 131.549 586.389C127.451 588.72 119.224 591.877 110.142 586.803C108.595 585.94 107.628 584.342 107.617 582.631C107.522 567.361 106.857 516.232 102.271 499.474C97.0891 480.534 95.872 457.301 95.8614 457.067L95.8189 456.761C95.6647 456.099 80.5927 389.828 77.3667 340.574C77.2232 338.376 76.9469 335.702 76.6493 332.854C75.9372 325.991 74.6084 313.22 76.6705 311.361C83.3987 305.293 100.294 312.076 124.241 330.439L126.654 332.298L127.1 329.29C127.786 324.652 129.97 321.337 133.781 319.161C148.55 310.721 181.867 322.518 188.659 325.075C187.798 335.888 182.452 404.759 184.657 424.534C185.465 431.805 187.267 438.287 189.164 445.147C193.017 459.042 197.385 474.789 196.998 505.193C196.535 541.738 196.817 556.051 196.96 560.504C196.971 560.816 196.886 561.239 196.429 561.52C192.852 563.706 183.552 568.091 174.405 561.425C174.145 561.238 173.964 560.926 173.922 560.589C172.949 553.418 162.506 485.799 155.725 469.938C151.085 459.1 149.73 445.826 149.411 436.603C149.204 430.561 148.189 424.652 146.398 419.039C145.765 417.049 145.127 413.543 144.506 410.153C143.012 401.959 142.475 399.797 141.035 399.024L139.483 398.192ZM120.255 593.099C125.814 593.099 130.449 591.118 133.324 589.482C135.561 588.212 137.028 585.992 137.352 583.392C139.319 567.592 145.595 514.575 143.799 495.673C143.007 487.306 141.588 479.845 140.211 472.633C138.016 461.096 136.119 451.131 137.416 440.795C138.001 436.142 138.782 426.452 139.749 412.002L139.823 410.906C139.914 409.423 140.004 407.973 140.195 406.585C140.482 408.014 140.759 409.529 140.987 410.79C141.625 414.29 142.289 417.912 142.991 420.114C144.681 425.424 145.638 431.01 145.84 436.725C146.169 446.25 147.583 459.989 152.435 471.336C158.605 485.761 168.772 549.209 170.377 561.065C170.552 562.362 171.248 563.543 172.295 564.299C183.19 572.248 194.112 567.123 198.3 564.554C199.75 563.665 200.59 562.107 200.532 560.387C200.393 555.96 200.112 541.711 200.574 505.235C200.967 474.329 196.333 457.624 192.613 444.2C190.668 437.184 188.988 431.128 188.207 424.137C185.901 403.456 192.268 324.826 192.331 324.038L192.438 322.73L191.221 322.243C189.541 321.565 149.905 305.839 132 316.069C128.073 318.314 125.453 321.618 124.183 325.923C99.2043 307.157 82.4103 301.381 74.2684 308.719C71.1062 311.579 71.7492 320.278 73.0938 333.224C73.3808 336.02 73.6572 338.646 73.8007 340.801C76.9681 389.201 91.4875 453.832 92.2954 457.406C92.4176 459.503 93.7622 481.933 98.8217 500.407C103.297 516.751 103.95 567.487 104.04 582.652C104.056 585.643 105.725 588.423 108.393 589.912C112.586 592.251 116.62 593.099 120.255 593.099Z" fill="#1A162C"/>
<path d="M164.61 101.005C164.61 101.005 179.453 91.8762 188.722 108.137C197.985 124.403 194.898 164.84 190.928 201.762C187.367 234.844 199.394 300.75 201.934 314.099C202.21 315.539 201.482 316.947 200.164 317.609L181.648 326.896C160.162 337.121 136.655 342.421 112.846 342.421C104.444 342.421 96.1531 340.531 88.5851 336.888L86.9269 336.088C77.7487 331.672 70.489 324.08 66.5084 314.729C66.5084 314.729 89.8925 264.623 89.8925 230.772C89.8925 196.927 78.5459 135.305 100.086 123.513C121.631 111.722 141.513 119.569 141.513 119.569L164.61 101.005Z" fill="#1A162C"/>
<path d="M174.064 100.232C175.143 100.232 176.269 100.354 177.412 100.645C181.286 101.651 184.571 104.462 187.164 109.016C196.013 124.551 193.132 164.523 189.147 201.577C185.559 234.945 197.708 301.439 200.18 314.427C200.302 315.084 199.983 315.709 199.361 316.016L180.845 325.308C159.768 335.332 136.24 340.642 112.845 340.642C104.762 340.642 96.6467 338.789 89.3604 335.289L87.7075 334.49C79.1458 330.365 72.3432 323.381 68.4689 314.75C71.4663 308.2 91.6828 262.802 91.6828 230.773C91.6828 222.497 91.0133 212.638 90.3011 202.201C88.2231 171.576 85.6349 133.457 100.946 125.076C121.514 113.813 140.662 121.147 140.853 121.226L141.826 121.607L165.63 102.472C166.214 102.143 169.759 100.232 174.064 100.232ZM112.845 344.206C136.772 344.206 160.831 338.773 182.418 328.506L200.971 319.198C203.018 318.171 204.112 315.989 203.692 313.765C201.237 300.862 189.168 234.829 192.702 201.953C196.954 162.447 199.6 123.63 190.273 107.258C187.175 101.82 183.136 98.4316 178.268 97.1873C170.678 95.2599 163.956 99.3158 163.674 99.4852L163.488 99.6176L141.167 117.557C136.756 116.095 118.755 111.261 99.2243 121.952C81.9148 131.429 84.4764 169.156 86.7351 202.44C87.4366 212.818 88.1008 222.619 88.1008 230.773C88.1008 263.845 65.1207 313.485 64.8869 313.982L64.5521 314.697L64.8656 315.428C69.0163 325.176 76.5736 333.087 86.1451 337.693L87.8086 338.493C95.5732 342.231 104.231 344.206 112.845 344.206Z" fill="#1A162C"/>
<path d="M158.075 103.436C158.819 104.659 157.863 104.982 156.821 105.967C152.32 110.213 138.794 120.025 115.139 113.115L114.4 96.0809C114.4 95.8373 114.246 95.6203 114.012 95.5356L101.614 91.1248C101.614 91.1248 91.1067 77.0192 93.849 46.9917L97.0484 34.2522L123.988 32.4307L144.996 54.2722L148.616 76.8127C149.843 84.4585 154.036 96.8169 158.075 103.436Z" fill="white"/>
<path d="M156.341 104.018C156.325 104.034 156.304 104.05 156.288 104.06C156.07 104.246 155.831 104.442 155.592 104.669C151.191 108.815 138.723 117.674 116.865 111.754L116.184 96.0068C116.184 95.0855 115.552 94.1907 114.611 93.8571L102.765 89.6424C101.155 87.122 93.2732 73.297 95.617 47.2884L98.4602 35.9414L123.274 34.2629L143.315 55.0984L146.849 77.0934C148.024 84.4269 152.095 96.8805 156.341 104.018ZM130.895 117.303C145.457 117.303 154.343 110.753 158.047 107.258C158.233 107.084 158.408 106.941 158.573 106.803C159.301 106.205 160.997 104.796 159.604 102.509C155.501 95.7897 151.521 83.6485 150.378 76.5322L146.674 53.4411L124.698 30.5989L95.6276 32.5633L92.0669 46.8278C89.298 77.1835 99.7305 91.5856 100.172 92.1839L100.501 92.6181L112.645 96.944L113.405 114.465L114.632 114.825C120.68 116.593 126.096 117.303 130.895 117.303Z" fill="#1A162C"/>
<path d="M153.761 104.415C156.492 101.481 160.835 100.295 164.427 102.08C165.867 102.795 167.589 102.863 169.162 104.621C176.124 112.389 151.465 135.38 120.125 126.638C115.267 125.282 110.256 124.483 105.228 124.08L100.238 123.683C100.137 123.678 100.062 123.609 100.089 123.514C100.456 122.354 102.374 117.763 109.427 112.675C111.67 111.055 114.688 111.277 117.032 112.744C120.056 114.639 126.003 114.857 135.011 113.316C145.853 111.462 151.412 106.941 153.761 104.415Z" fill="#1A162C"/>
<path d="M160.799 103.023C161.782 103.023 162.744 103.234 163.626 103.674C164.126 103.923 164.652 104.108 165.2 104.293C166.225 104.648 167.033 104.923 167.825 105.808C169.499 107.671 167.862 110.774 167.081 112.024C161.522 120.903 142.91 131.149 120.6 124.922C115.944 123.62 110.821 122.741 105.368 122.307L102.722 122.095C103.806 120.252 106.043 117.313 110.47 114.115C111.99 113.019 114.19 113.078 116.077 114.253C119.537 116.424 125.829 116.694 135.31 115.074C146.668 113.13 152.567 108.323 155.07 105.628C156.638 103.939 158.753 103.023 160.799 103.023ZM134.179 130.371C151.584 130.371 165.274 121.65 170.115 113.909C172.666 109.832 172.805 106.014 170.493 103.436C169.079 101.858 167.575 101.339 166.363 100.926C165.965 100.793 165.582 100.666 165.221 100.486C161.091 98.432 155.846 99.5545 152.445 103.203C150.25 105.569 145.02 109.8 134.705 111.563C124.182 113.358 119.797 112.379 117.98 111.24C114.85 109.281 111.081 109.276 108.376 111.23C100.622 116.826 98.6879 121.999 98.3797 122.979L98.1193 123.805L99.1025 125.325L100.096 125.462L105.087 125.859C110.306 126.272 115.2 127.114 119.643 128.353C124.681 129.756 129.56 130.371 134.179 130.371Z" fill="#1A162C"/>
<path d="M157.239 332.732C170.296 314.74 165.976 279.486 165.79 277.993L162.239 278.443C162.287 278.792 166.566 313.792 154.337 330.646L157.239 332.732Z" fill="#00AFEF"/>
<path d="M19.1236 94.6193C22.493 88.4189 23.9225 85.0778 28.1848 87.5399L29.9439 89.9545C31.8678 92.6019 33.1911 95.6413 33.8183 98.85C34.1318 100.438 34.2647 102.053 34.2275 103.674L34.0467 111.118L31.9316 111.574L35.6252 110.774C35.6252 110.774 37.0974 104.33 40.9186 102.864C44.745 101.397 45.6538 107.555 45.6538 107.555L45.8398 112.066C45.234 118.69 43.5758 125.182 40.9186 131.287L21.5098 137.101C21.5098 137.101 18.5123 128.475 15.5733 122.91C12.6291 117.34 15.2971 101.651 19.1236 94.6193Z" fill="white"/>
<path d="M39.6067 129.825L22.6214 134.908C21.601 132.118 19.3848 126.299 17.158 122.079C14.607 117.255 17.089 102.101 20.6922 95.4667L21.3034 94.3389C22.8871 91.4055 24.2582 88.8692 25.3956 88.5462C25.7782 88.4456 26.2991 88.5621 26.9741 88.9116L28.4993 91.003C30.2584 93.4228 31.4967 96.2556 32.0654 99.1943C32.3523 100.656 32.4746 102.149 32.4427 103.626L32.2938 109.673L31.5499 109.832L32.3098 113.316L37.1142 112.278L37.3693 111.171C37.6988 109.736 39.1869 105.437 41.5625 104.526C42.0515 104.341 42.2534 104.452 42.3491 104.505C43.1569 104.976 43.7521 106.893 43.8903 107.814L44.055 112.135C43.497 118.092 41.9982 124.107 39.6067 129.825ZM20.384 139.303L42.2322 132.759L42.5616 131.996C45.2986 125.706 46.9993 119.055 47.6211 112.225L47.4457 107.481C47.3606 106.851 46.707 102.911 44.1507 101.429C43.3429 100.958 42.0195 100.534 40.2817 101.201C38.3737 101.932 36.9761 103.515 35.9823 105.167L36.014 103.716C36.0566 101.979 35.9132 100.227 35.573 98.5113C34.9087 95.0696 33.4578 91.7496 31.3904 88.9116L29.4134 86.19L29.084 85.9994C27.3674 85.0092 25.8474 84.7127 24.4231 85.1204C21.8243 85.8511 20.368 88.5568 18.1572 92.6551L17.5513 93.7723C13.7567 100.751 10.5892 117.298 13.9905 123.736C16.8338 129.121 19.7887 137.598 19.8206 137.683L20.384 139.303Z" fill="#1A162C"/>
<path d="M71.4335 105.374C64.3599 105.167 60.3049 107.137 60.2996 112.045L61.5166 114.772C62.8506 117.764 64.8222 120.427 67.2935 122.577C68.5158 123.641 65.8692 121.798 67.2935 122.577L76.7428 130.116C76.7428 130.116 70.4078 128.152 67.2138 130.709C64.0251 133.272 68.9144 137.148 68.9144 137.148L72.7356 139.568C78.7942 142.374 85.2567 144.196 91.8946 144.974L106.68 131.16C106.68 131.16 100.695 124.25 97.3367 118.923C93.9779 113.596 79.4585 105.606 71.4335 105.374Z" fill="white"/>
<path d="M104.223 131.022L91.282 143.105C85.1171 142.295 79.1382 140.563 73.4941 137.953L69.875 135.645C69.1841 135.073 67.9244 133.654 67.9244 132.764C67.9244 132.653 67.9245 132.431 68.339 132.097C70.3426 130.493 74.8069 131.382 76.2152 131.816L85.2553 134.623L68.4453 121.211C66.1972 119.252 64.369 116.774 63.152 114.052L62.0997 111.69C62.1635 110.542 62.5302 109.657 63.2158 108.995C64.5817 107.672 67.3824 107.026 71.3895 107.153C78.9841 107.375 92.855 115.153 95.8259 119.871C98.3716 123.906 102.31 128.74 104.223 131.022ZM92.5149 146.838L109.16 131.292L108.039 129.995C107.98 129.931 102.102 123.127 98.8553 117.976C95.0235 111.897 79.6802 103.833 71.4905 103.595C66.4257 103.473 62.8596 104.373 60.7285 106.438C59.2617 107.857 58.5177 109.742 58.5177 112.045V112.426L59.8836 115.497C61.1538 118.336 62.9873 120.946 65.2354 123.112C65.4001 123.445 65.6976 123.795 66.2025 124.144C66.4204 124.298 66.6331 124.419 66.8297 124.504L70.7837 127.649C69.1256 127.787 67.4408 128.248 66.0963 129.322C64.6507 130.487 64.3478 131.843 64.3531 132.775C64.3584 135.724 67.4515 138.26 67.8075 138.541L71.7775 141.072C78.2241 144.074 84.8566 145.943 91.6858 146.743L92.5149 146.838Z" fill="#1A162C"/>
<path d="M109.31 151.656C109.31 151.656 102.746 194.498 73.7288 233.987C68.3558 241.299 61.7285 247.627 54.4263 253.033C51.4236 255.257 47.156 254.468 45.1524 251.323L42.9255 249.199C38.7005 245.17 35.4161 240.267 33.3063 234.834C31.9192 231.271 31.0582 227.522 30.7499 223.71L20.9339 146.017C20.6842 142.936 22.5761 140.082 25.5203 139.107L38.2435 134.877C40.0133 134.294 41.8787 135.459 42.1019 137.307C43.1648 146.218 46.0293 160.509 49.7495 176.712C53.4218 192.708 53.2784 222.132 53.2784 222.132C53.2784 222.132 69.7801 144.561 87.3979 130.63C105.016 116.699 112.833 136.317 109.31 151.656Z" fill="#1A162C"/>
<path d="M98.3765 127.66C99.7158 127.66 101.039 127.988 102.277 128.766C107.316 131.927 109.686 142.019 107.565 151.259L107.539 151.386C107.475 151.81 100.694 194.28 72.2873 232.939C67.3076 239.716 60.9355 245.996 53.3622 251.603C52.31 252.382 51.0079 252.678 49.7377 252.44C48.4516 252.202 47.3567 251.465 46.6605 250.364L46.3842 250.036L44.1574 247.913C40.1502 244.084 36.9721 239.34 34.9738 234.193C33.6505 230.784 32.8268 227.204 32.5292 223.561L22.7079 145.795C22.5325 143.603 23.9196 141.516 26.0879 140.796L38.8109 136.571C39.2733 136.417 39.6241 136.576 39.7995 136.687C39.9696 136.799 40.2672 137.047 40.3256 137.519C41.3301 145.911 43.982 159.599 48.0051 177.109C51.5871 192.718 51.4915 221.83 51.4862 222.121L51.4065 239.52L55.0256 222.502C55.1904 221.729 71.5911 145.398 88.5073 132.023C91.2709 129.841 94.9008 127.66 98.3765 127.66ZM50.5774 256.077C52.3365 256.077 54.0691 255.516 55.4934 254.462C63.3589 248.643 69.9756 242.109 75.1732 235.041C103.569 196.393 110.744 153.981 111.068 151.995C113.183 142.681 111.493 130.339 104.185 125.753C100.757 123.598 94.8636 122.455 86.2859 129.232C72.8932 139.822 60.4837 184.49 54.7865 207.714C54.4039 197.913 53.527 185.184 51.4915 176.309C47.495 158.926 44.8642 145.366 43.8757 137.095C43.7056 135.687 42.9192 134.437 41.7128 133.68C40.5117 132.917 39.0395 132.743 37.679 133.187L24.956 137.413C21.2198 138.657 18.8335 142.252 19.1524 146.16L28.9737 223.932C29.2925 227.834 30.1907 231.747 31.6363 235.48C33.8259 241.114 37.3017 246.303 41.6862 250.486L43.7694 252.466C44.9971 254.282 46.921 255.543 49.084 255.94C49.5783 256.035 50.0779 256.077 50.5774 256.077Z" fill="#1A162C"/>
<path d="M153.93 21.1469C159.972 26.6378 164.835 33.4152 167.142 41.2252C169.81 50.253 170.569 62.156 162.959 73.683C149.614 93.8884 131.598 88.2282 127.352 86.5232C126.815 86.3061 126.501 85.7501 126.586 85.1836C127.134 81.6254 128.266 68.314 121.553 60.0328C115.16 52.1486 106.63 52.604 104.706 52.7099C104.334 52.7311 104.058 52.6358 103.787 52.3816C101.268 50.036 88.3746 36.9469 97.1967 22.1159C106.673 6.1888 130.259 -1.99711 149.194 5.384C149.721 5.58521 149.705 6.35827 149.189 6.58595C147.079 7.50726 143.991 9.73639 147.43 14.2318C149.38 16.7786 151.767 19.1825 153.93 21.1469Z" fill="#1A162C"/>
<path d="M146.292 6.24705C145.25 7.08894 144.559 8.10551 144.262 9.24921C143.778 11.1236 144.363 13.1622 146.01 15.3119C147.753 17.594 150.012 19.9979 152.722 22.4653C158.999 28.1679 163.389 34.8289 165.429 41.7282C168.809 53.1811 167.476 63.6014 161.465 72.7034C149.39 90.992 133.59 86.9943 128.414 85.0246C128.823 81.9906 130.242 67.9168 122.945 58.9154C118.497 53.4299 112.05 50.5972 104.833 50.9201C102.048 48.2674 90.813 36.3432 98.737 23.0266C107.612 8.10023 128.918 0.756233 146.292 6.24705ZM138.07 90.2983C145.872 90.2983 156.097 87.312 164.452 74.6625C170.973 64.7822 172.498 53.0487 168.857 40.7222C166.636 33.1981 161.89 25.9705 155.135 19.8284C152.584 17.5093 150.469 15.2642 148.853 13.1516C148.205 12.3044 147.477 11.0919 147.727 10.1441C147.976 9.18571 149.199 8.52384 149.906 8.21674C150.814 7.81962 151.388 6.9195 151.367 5.91876C151.351 4.93921 150.751 4.07613 149.842 3.72137C130.577 -3.7868 105.763 4.2191 95.66 21.2104C86.1735 37.1587 99.7469 51.0578 102.564 53.6841C103.191 54.2612 103.924 54.5471 104.801 54.4889C111.056 54.1447 116.355 56.4586 120.16 61.1499C125.671 67.9485 125.682 79.2849 124.821 84.9134C124.603 86.306 125.368 87.6456 126.681 88.1751C128.259 88.8052 132.559 90.2983 138.07 90.2983Z" fill="#1A162C"/>
<path d="M122.512 24.3662C126.226 16.3444 139.481 16.5986 145.003 17.0857L145.316 13.5381C137.52 12.8603 123.761 13.1622 119.265 22.873L122.512 24.3662Z" fill="#00AFEF"/>
<path d="M134.1 78.2952C148.167 78.2952 150.33 66.5246 150.352 66.3976L146.828 65.7939C146.748 66.2493 144.67 76.8338 129.752 74.3505L129.162 77.861C130.953 78.1628 132.59 78.2952 134.1 78.2952Z" fill="#00AFEF"/>
<path d="M151.622 86.9258C166.811 77.1673 169.549 64.6449 169.66 64.1207L166.158 63.3953C166.131 63.5117 163.538 75.0282 149.683 83.9342L151.622 86.9258Z" fill="#00AFEF"/>
<path d="M135.916 130.503C149.681 130.503 156.903 125.362 162.877 121.115C163.653 120.559 164.413 120.019 165.173 119.5C165.422 119.331 165.656 119.161 165.885 118.992C170.035 115.937 171.832 110.673 170.477 105.569L167.022 106.485C168 110.165 166.719 113.946 163.764 116.127L163.148 116.561C162.372 117.091 161.596 117.647 160.793 118.213C154.023 123.032 146.333 128.501 129.076 126.526C109.731 124.318 103.449 121.761 103.386 121.735L101.983 125.012C102.243 125.123 108.631 127.781 128.667 130.069C131.271 130.365 133.679 130.503 135.916 130.503Z" fill="#00AFEF"/>
<path d="M90.5918 210.25C91.3943 208.688 110.202 171.671 111.095 151.736C111.372 145.477 111.17 140.378 110.484 136.571L106.966 137.201C107.604 140.744 107.79 145.583 107.524 151.577C106.668 170.739 87.5997 208.259 87.4031 208.635L90.5918 210.25Z" fill="#00AFEF"/>
<path d="M55.1698 216.635C55.4621 208.942 57.0778 199.919 57.0938 199.829L53.5755 199.194C53.5064 199.575 51.8961 208.555 51.5985 216.498L55.1698 216.635Z" fill="#00AFEF"/>
<path d="M140.039 407.163C144.333 390.897 148.68 364.512 148.723 364.247L145.194 363.676C145.151 363.935 140.831 390.155 136.584 406.257L140.039 407.163Z" fill="#1A162C"/>
<path d="M24.8741 154.69L41.8594 149.798L40.8656 146.377L23.8804 151.265L24.8741 154.69Z" fill="#00AFEF"/>
<path d="M154.625 550.601C157.511 543.941 169.144 545.255 169.266 545.269L169.691 541.732C169.107 541.66 155.268 540.119 151.346 549.189L154.625 550.601Z" fill="#00AFEF"/>
<path d="M80.966 580.889C84.835 571.251 96.6652 572.31 96.7768 572.327L97.1328 568.784C92.1212 568.261 81.5294 569.886 77.6498 579.566L80.966 580.889Z" fill="#00AFEF"/>
<path d="M89.7135 381.889C93.439 381.889 96.7712 380.936 99.6836 379.025C110.403 371.993 111.184 354.653 111.211 353.917L107.639 353.785C107.634 353.944 106.89 370.04 97.7066 376.061C93.2477 378.977 87.3645 379.068 80.2164 376.33L78.9355 379.65C82.8205 381.143 86.4185 381.889 89.7135 381.889Z" fill="#1A162C"/>
<path d="M173.928 454.908C187.257 451.158 190.728 439.228 190.871 438.721L187.422 437.762C187.305 438.192 184.308 448.289 172.956 451.476L173.928 454.908Z" fill="#1A162C"/>
<path d="M116.526 478.359C137.561 476.51 138.082 461.822 138.082 461.674L134.505 461.595C134.489 462.071 133.931 473.254 116.207 474.812L116.526 478.359Z" fill="#1A162C"/>
<path d="M104.477 393.487C104.424 393.507 86.8753 400.231 85.4297 400.781C85.2809 400.839 85.1215 400.788 85.0258 400.655L71.1281 372.718C71.1122 372.691 71.091 372.671 71.0644 372.65L38.688 354.552C38.5871 354.473 38.5392 354.346 38.5605 354.219L48.3765 292.242C48.3924 292.146 48.3659 292.046 48.3128 291.972L43.7104 285.787C43.5669 285.597 43.6359 285.327 43.8591 285.242C45.6395 284.569 62.3645 278.184 62.5718 278.126L62.6355 278.11C63.8472 277.787 65.2024 277.967 66.3184 278.862L113.103 317.297C116.111 319.712 117.593 323.545 116.988 327.347L107.017 390.303C106.773 391.817 105.779 392.924 104.541 393.453L104.477 393.487Z" fill="white"/>
<path d="M103.827 391.828C103.62 391.909 90.323 397.001 86.0235 398.65L72.1631 371.248L40.4778 353.515L50.1396 292.517C50.2353 291.972 50.0918 291.379 49.7516 290.913L46.2653 286.232L49.1565 285.131C54.2159 283.203 62.6926 279.973 63.1496 279.815C63.5376 279.714 64.3986 279.608 65.1904 280.244L111.964 318.674C114.483 320.697 115.727 323.905 115.222 327.066L105.252 390.023C105.119 390.833 104.603 391.489 103.827 391.818L104.476 393.487L103.827 391.828ZM85.3008 402.587C85.5612 402.587 85.8269 402.54 86.082 402.439C87.5169 401.895 105.087 395.164 105.14 395.144L105.363 395.032C107.138 394.275 108.462 392.591 108.78 390.579L118.751 327.628C119.457 323.207 117.725 318.716 114.217 315.91L67.4491 277.485C65.9557 276.288 64.0372 275.896 62.1718 276.389C61.938 276.452 61.8582 276.474 47.8809 281.806L43.2253 283.579C42.5929 283.818 42.12 284.326 41.9339 284.972C41.7479 285.613 41.8754 286.317 42.2793 286.852L46.515 292.549L36.7948 353.938C36.6726 354.664 36.9542 355.431 37.5441 355.919L37.8152 356.104L69.7504 373.958L83.5947 401.725C84.0145 402.286 84.6471 402.587 85.3008 402.587Z" fill="#1A162C"/>
<path d="M85.0407 400.65L71.1432 372.715C71.1219 372.688 71.1007 372.667 71.0795 372.644L87.9532 332.367L116.285 321.518C117.045 323.328 117.321 325.335 117.002 327.342L107.027 390.297C106.788 391.814 105.789 392.914 104.551 393.45L104.492 393.481C104.439 393.501 86.8901 400.225 85.4446 400.778C85.2905 400.836 85.1363 400.782 85.0407 400.65Z" fill="#00AFEF"/>
<path d="M115.153 323.863C115.376 324.917 115.403 326.002 115.238 327.061L105.263 390.018C105.135 390.827 104.614 391.485 103.844 391.814C103.806 391.835 90.3659 396.987 86.0345 398.643L73.0564 372.549L89.3082 333.754L115.153 323.863ZM85.3329 402.583C85.588 402.583 85.8486 402.536 86.0983 402.434C87.528 401.889 104.981 395.202 105.13 395.148L105.411 395.012C107.155 394.269 108.473 392.585 108.791 390.575L118.767 327.622C119.134 325.346 118.847 322.995 117.938 320.829L117.263 319.235L86.5979 330.974L68.9004 373.217L69.7454 373.869L83.611 401.719C84.0256 402.275 84.6686 402.583 85.3329 402.583Z" fill="#1A162C"/>
<path d="M94.2465 324.716L47.2978 286.142C44.8 284.141 41.0584 285.576 40.5536 288.731L30.5517 351.894C29.9671 355.569 31.3966 359.275 34.309 361.605L81.2524 400.174C83.7556 402.18 87.4917 400.745 87.9965 397.59L98.0039 334.426C98.5885 330.752 97.1588 327.045 94.2465 324.716Z" fill="#1A162C"/>
<path d="M44.6976 286.999C45.2238 286.999 45.7393 287.179 46.1804 287.534L93.124 326.102C95.5262 328.03 96.7219 331.111 96.2382 334.151L86.231 397.309C86.0928 398.167 85.5454 398.844 84.7323 399.156C83.9138 399.468 83.0582 399.336 82.3726 398.786L35.445 360.228C33.0216 358.29 31.8311 355.209 32.3147 352.169L42.3221 289.011C42.4549 288.154 43.0077 287.476 43.8208 287.163C44.1078 287.052 44.4053 286.999 44.6976 286.999ZM83.8606 402.885C84.5834 402.885 85.3115 402.753 86.0183 402.482C88.0273 401.708 89.425 399.983 89.7598 397.865L99.7672 334.707C100.453 330.418 98.768 326.06 95.3773 323.333L48.4338 284.77C46.7491 283.415 44.5435 283.065 42.5346 283.844C40.5257 284.611 39.1281 286.338 38.7932 288.455L28.7859 351.613C28.1003 355.908 29.785 360.271 33.1864 362.992L80.1193 401.549C81.2141 402.428 82.5267 402.885 83.8606 402.885Z" fill="#1A162C"/>
<path d="M86.6373 381.106L88.3594 378.974L35.4743 336.581C34.7515 336.02 33.8586 336.322 33.4547 336.64L32.599 337.317L33.545 339.292L34.2678 339.133L86.6373 381.106Z" fill="#00AFEF"/>
<path d="M70.6852 342.893C72.9705 350.253 78.2796 355.151 82.5472 353.837C86.8095 352.519 88.4145 345.487 86.1239 338.133C83.8387 330.773 78.5295 325.875 74.2672 327.188C69.9996 328.507 68.3999 335.538 70.6852 342.893Z" fill="#00AFEF"/>
<path d="M75.6862 328.761C76.9191 328.761 78.3382 329.438 79.72 330.714C81.7342 332.573 83.4029 335.395 84.4179 338.657C85.433 341.924 85.6562 345.191 85.0503 347.854C84.5295 350.142 83.4188 351.698 82.0157 352.133C79.1831 352.99 74.5223 349.22 72.3912 342.369C71.3761 339.102 71.1528 335.835 71.7639 333.171C72.2848 330.884 73.3903 329.327 74.7933 328.893C75.075 328.803 75.3726 328.761 75.6862 328.761ZM81.1176 355.828C81.7766 355.828 82.4303 355.738 83.0733 355.537C85.7731 354.706 87.713 352.26 88.5367 348.648C89.2808 345.376 89.0309 341.458 87.8352 337.603C86.6341 333.754 84.6199 330.376 82.1539 328.099C79.4223 325.584 76.4356 324.662 73.7358 325.488C71.0413 326.32 69.1014 328.766 68.2777 332.377C67.5337 335.649 67.7833 339.568 68.9738 343.422C71.275 350.825 76.3345 355.828 81.1176 355.828Z" fill="#1A162C"/>
<path d="M47.4256 355.691C49.1901 361.362 53.2822 365.137 56.5719 364.126C59.8616 363.109 61.0946 357.693 59.3355 352.016C57.5711 346.346 53.4789 342.565 50.1892 343.582C46.8995 344.593 45.6665 350.015 47.4256 355.691Z" fill="#00AFEF"/>
<path d="M51.2935 345.196C53.3184 345.196 56.199 347.955 57.6233 352.546C58.3726 354.96 58.548 357.464 58.1015 359.424C57.7348 361.039 56.9855 362.135 56.0449 362.42C54.02 363.045 50.7037 360.218 49.1359 355.161C47.5628 350.11 48.7107 345.901 50.7143 345.281C50.9003 345.228 51.0916 345.196 51.2935 345.196ZM55.4815 366.069C56.0289 366.069 56.571 365.989 57.1025 365.825C59.3239 365.142 60.9236 363.146 61.5879 360.213C62.1832 357.623 61.9865 354.526 61.0405 351.487C58.9519 344.778 53.9562 340.563 49.6567 341.877C45.3626 343.206 43.6299 349.501 45.7185 356.215C47.5468 362.097 51.6125 366.069 55.4815 366.069Z" fill="#1A162C"/>
<path d="M57.5592 329.528C60.3068 337.741 66.5461 343.253 71.4887 341.844C76.4313 340.431 78.2118 332.631 75.4588 324.424C72.7112 316.212 66.4771 310.7 61.5345 312.108C56.5919 313.522 54.8116 321.321 57.5592 329.528Z" fill="white"/>
<path d="M63.1748 313.665C66.9641 313.665 71.5877 318.478 73.7667 324.986C75.3664 329.772 75.3717 334.622 73.772 337.651C73.0705 338.97 72.1405 339.806 71.0031 340.129C67.0332 341.283 61.6602 336.153 59.258 328.967C57.6583 324.181 57.6583 319.325 59.258 316.302C59.9596 314.983 60.8896 314.147 62.0269 313.824C62.3989 313.718 62.7815 313.665 63.1748 313.665ZM69.8925 343.846C70.5993 343.846 71.3008 343.751 71.9864 343.555C74.0697 342.962 75.781 341.495 76.9343 339.314C79.007 335.395 79.092 329.619 77.1575 323.858C74.0644 314.613 66.9907 308.704 61.0437 310.398C58.9603 310.991 57.249 312.458 56.0958 314.639C54.0231 318.558 53.9381 324.334 55.8673 330.095C58.6043 338.271 64.461 343.846 69.8925 343.846Z" fill="#1A162C"/>
<path d="M113.981 300.83C117.818 295.381 207.645 166.529 178.016 99.5806L174.747 101.016C203.563 166.132 111.982 297.468 111.052 298.786L113.981 300.83Z" fill="#00AFEF"/>
<path d="M109.527 305.881C112.466 307.767 116.383 306.925 118.28 303.991L122.069 298.13C123.961 295.202 123.116 291.299 120.172 289.409C117.233 287.524 113.316 288.366 111.419 291.299L107.629 297.161C105.737 300.089 106.588 303.996 109.527 305.881Z" fill="#1A162C"/>
<path d="M116.754 290.187C117.594 290.187 118.449 290.42 119.209 290.908C121.314 292.258 121.925 295.069 120.565 297.166L116.775 303.028C115.42 305.124 112.609 305.739 110.494 304.383C109.473 303.727 108.766 302.715 108.511 301.534C108.256 300.354 108.474 299.141 109.133 298.125L112.922 292.263C113.794 290.918 115.255 290.187 116.754 290.187ZM112.938 308.667C115.612 308.667 118.232 307.359 119.783 304.96L123.573 299.094C125.996 295.345 124.907 290.33 121.144 287.911C117.371 285.491 112.343 286.582 109.914 290.336L106.125 296.197C104.95 298.013 104.557 300.179 105.014 302.286C105.477 304.404 106.736 306.21 108.559 307.38C109.914 308.248 111.434 308.667 112.938 308.667Z" fill="#00AFEF"/>
<path d="M155.907 219.579C158.851 221.47 162.768 220.622 164.66 217.694L168.449 211.828C170.347 208.899 169.496 204.997 166.557 203.112C163.618 201.222 159.696 202.069 157.804 204.997L154.015 210.859C152.118 213.792 152.968 217.694 155.907 219.579Z" fill="#1A162C"/>
<path d="M163.135 203.885C163.98 203.885 164.83 204.118 165.59 204.606C167.695 205.961 168.306 208.767 166.946 210.864L163.162 216.731C161.801 218.828 158.979 219.431 156.88 218.086C155.854 217.43 155.153 216.418 154.897 215.232C154.637 214.052 154.86 212.844 155.514 211.828L159.309 205.961C160.175 204.621 161.642 203.885 163.135 203.885ZM159.319 222.37C159.898 222.37 160.478 222.306 161.057 222.185C163.178 221.724 164.99 220.474 166.164 218.658L169.954 212.797C171.128 210.981 171.521 208.815 171.064 206.702C170.607 204.59 169.348 202.784 167.525 201.614C163.757 199.194 158.724 200.285 156.3 204.034L152.511 209.895C151.337 211.711 150.943 213.877 151.4 215.99C151.863 218.102 153.117 219.908 154.94 221.078C156.269 221.93 157.778 222.37 159.319 222.37Z" fill="#00AFEF"/>
<path d="M169.909 185.925C173.321 186.693 176.712 184.564 177.482 181.165L185.757 144.81C186.527 141.41 184.391 138.032 180.979 137.259C177.567 136.491 174.176 138.62 173.4 142.019L165.131 178.374C164.361 181.774 166.497 185.152 169.909 185.925Z" fill="#1A162C"/>
<path d="M179.576 138.885C179.911 138.885 180.245 138.922 180.58 138.996C181.765 139.266 182.775 139.976 183.424 140.998C184.072 142.019 184.279 143.232 184.008 144.413L175.739 180.773C175.186 183.203 172.752 184.728 170.302 184.188C167.857 183.632 166.321 181.202 166.874 178.766L175.144 142.411C175.622 140.314 177.503 138.885 179.576 138.885ZM171.306 187.863C175.016 187.863 178.375 185.311 179.225 181.557L187.5 145.202C187.978 143.094 187.606 140.923 186.448 139.097C185.289 137.27 183.487 135.999 181.372 135.523C177.014 134.532 172.651 137.275 171.657 141.622L163.388 177.983C162.399 182.33 165.147 186.672 169.51 187.662C170.116 187.794 170.717 187.863 171.306 187.863Z" fill="#00AFEF"/>
<path d="M189.53 347.484L187.68 376.425C187.452 379.972 185.358 382.88 182.578 383.509L166.975 387.052C164.509 387.613 162.239 385.226 162.239 382.069V352.911C162.239 349.009 164.525 345.699 167.591 345.154L184.959 342.062C187.51 341.612 189.737 344.248 189.53 347.484Z" fill="#1A162C"/>
<path d="M185.528 343.793C185.916 343.793 186.293 343.952 186.644 344.264C187.404 344.942 187.824 346.128 187.744 347.373L185.894 376.314C185.719 379.031 184.162 381.323 182.185 381.774L166.576 385.315C166.119 385.422 165.662 385.301 165.237 384.961C164.493 384.374 164.03 383.261 164.03 382.07V352.911C164.03 349.882 165.694 347.298 167.905 346.907L185.273 343.814C185.358 343.804 185.443 343.793 185.528 343.793ZM166.247 388.916C166.619 388.916 166.996 388.875 167.373 388.79L182.977 385.247C186.516 384.448 189.184 380.862 189.461 376.543L191.315 347.595C191.464 345.254 190.609 343.015 189.025 341.612C187.771 340.489 186.208 340.023 184.646 340.309L167.278 343.396C163.324 344.1 160.454 348.098 160.454 352.911V382.07C160.454 384.358 161.405 386.476 163.005 387.747C163.972 388.519 165.093 388.916 166.247 388.916Z" fill="#1A162C"/>
<path d="M194.346 350.306L192.497 379.253C192.268 382.796 190.179 385.702 187.4 386.333L171.796 389.875C169.325 390.436 167.061 388.047 167.061 384.893V355.733C167.061 351.831 169.341 348.522 172.413 347.976L189.775 344.884C192.326 344.434 194.553 347.071 194.346 350.306Z" fill="#00AFEF"/>
<path d="M192.56 350.195L190.711 379.137C190.541 381.848 188.978 384.146 187.001 384.595L171.398 388.138C170.93 388.24 170.479 388.122 170.053 387.788C169.309 387.195 168.847 386.084 168.847 384.893V355.733C168.847 352.704 170.516 350.121 172.727 349.729L190.089 346.642C190.568 346.552 191.03 346.705 191.46 347.087C192.22 347.759 192.64 348.95 192.56 350.195ZM171.063 391.739C171.435 391.739 171.818 391.696 172.195 391.611L187.793 388.07C191.338 387.265 194.006 383.685 194.282 379.364L196.132 350.417C196.281 348.071 195.425 345.837 193.841 344.428C192.587 343.311 191.025 342.856 189.462 343.131L172.094 346.223C168.14 346.928 165.27 350.925 165.27 355.733V384.893C165.27 387.181 166.227 389.302 167.826 390.575C168.794 391.342 169.915 391.739 171.063 391.739Z" fill="#1A162C"/>
<path d="M162.364 351.73L163.039 348.235C162.63 348.156 153.005 346.165 151.926 337.158L148.376 337.582C149.487 346.88 158.012 350.904 162.364 351.73Z" fill="#1A162C"/>
<path d="M38.5115 314.628L39.957 305.489L36.4281 304.933L34.9825 314.077L38.5115 314.628Z" fill="#00AFEF"/>
</svg>
