<svg xmlns="http://www.w3.org/2000/svg" fill="none" viewBox="0 0 132 391"><path fill="#1A162C" d="M30.36 84.665l4.653.856a.42.42 0 0 1 .343.411v7.285c.02.917-.326 1.968-1.83 2.831L30.36 97.87V84.665M23.608 101.544h2.218v-7.351h-2.218v7.351zM57.093 375.218l-2.119 1.215c-.214.124-.593.111-.843-.033l-1.997-1.149c-.25-.145-.277-.361-.06-.486l2.116-1.218c.218-.125.597-.108.847.036l1.994 1.147c.25.143.277.364.063.488M56.83 381.033l-2.119 1.219c-.214.124-.593.107-.847-.034l-1.994-1.149c-.25-.145-.276-.361-.059-.486l2.116-1.218c.217-.125.596-.108.847.035l1.994 1.147c.25.145.276.361.062.486M62.017 378.049l-2.116 1.217c-.217.126-.596.109-.847-.032l-1.993-1.149c-.25-.145-.28-.362-.063-.486l2.116-1.219c.217-.124.596-.108.847.036l1.994 1.146c.253.144.28.361.062.487zM61.754 383.867l-2.116 1.218c-.218.124-.597.108-.847-.036l-1.997-1.147c-.25-.143-.277-.36-.06-.486l2.116-1.217c.218-.125.597-.109.847.032l1.994 1.149c.25.145.28.362.063.487M66.94 380.882l-2.115 1.218c-.218.125-.597.108-.847-.036l-1.994-1.146c-.25-.145-.277-.361-.063-.486l2.12-1.217c.217-.126.596-.109.846.031l1.994 1.15c.25.145.277.361.06.486M66.964 386.864l-2.116 1.219c-.217.124-.596.109-.847-.036l-1.994-1.147c-.25-.144-.276-.361-.062-.485l2.119-1.218c.214-.125.593-.109.844.032l1.997 1.149c.25.145.277.362.06.486M72.154 383.879l-2.119 1.219c-.214.124-.593.109-.843-.036l-1.997-1.147c-.25-.143-.277-.36-.06-.484l2.116-1.219c.218-.124.596-.109.847.032l1.994 1.149c.25.145.28.362.062.486M71.89 389.698l-2.119 1.217c-.214.126-.593.109-.843-.035l-1.997-1.146c-.25-.145-.277-.364-.06-.489l2.116-1.218c.218-.125.597-.109.847.036l1.994 1.149c.25.144.277.361.062.486M42.032 366.553l-2.119 1.219c-.217.124-.593.107-.843-.036l-1.998-1.147c-.25-.144-.276-.36-.059-.489l2.116-1.214c.217-.126.596-.112.847.032l1.994 1.149c.25.145.276.362.062.486M41.766 372.371l-2.115 1.218c-.218.126-.597.109-.847-.035l-1.994-1.146c-.25-.145-.277-.365-.06-.49l2.116-1.214c.218-.129.597-.112.847.033l1.994 1.149c.25.144.277.36.06.485zM46.956 369.386l-2.116 1.219c-.217.124-.596.109-.847-.036l-1.997-1.146c-.247-.144-.277-.365-.059-.489l2.116-1.219c.217-.124.596-.108.847.037l1.994 1.15c.25.143.28.36.062.484M46.693 375.205l-2.116 1.215c-.217.124-.596.111-.847-.034l-1.997-1.149c-.25-.143-.277-.36-.06-.486l2.116-1.217c.218-.126.597-.109.847.036l1.994 1.145c.25.145.28.366.063.49M51.88 372.221l-2.116 1.214c-.217.129-.596.112-.847-.033l-1.994-1.149c-.25-.144-.276-.36-.062-.486l2.119-1.217c.214-.126.596-.109.843.036l1.998 1.145c.25.145.276.364.059.49M51.903 378.203l-2.116 1.215c-.217.128-.596.111-.847-.033l-1.994-1.149c-.25-.145-.276-.361-.062-.486l2.119-1.218c.214-.124.593-.108.843.036l1.998 1.146c.25.144.276.365.059.489M77.078 386.714l-2.116 1.217c-.217.125-.596.109-.847-.036l-1.993-1.145c-.25-.145-.28-.364-.063-.49l2.116-1.215c.217-.124.596-.111.847.034l1.997 1.149c.25.143.277.36.06.486M82.265 383.729l-2.116 1.218c-.217.125-.596.109-.847-.037l-1.994-1.145c-.25-.145-.277-.364-.059-.49l2.116-1.214c.217-.125.596-.112.847.033l1.993 1.149c.251.144.277.361.06.486zM87.456 380.743l-2.116 1.219c-.218.126-.597.109-.847-.036l-1.994-1.145c-.25-.145-.28-.365-.063-.49l2.116-1.215c.218-.124.597-.111.847.033l1.994 1.15c.25.143.28.36.063.484zM82.002 389.547l-2.116 1.218c-.218.121-.597.108-.847-.037l-1.994-1.149c-.25-.144-.277-.361-.06-.485l2.117-1.218c.217-.126.596-.109.846.036l1.994 1.145c.25.145.277.366.06.49zM87.192 386.562l-2.116 1.219c-.217.121-.596.108-.847-.037l-1.997-1.15c-.25-.143-.277-.36-.06-.486l2.117-1.217c.217-.126.596-.109.846.036l1.994 1.145c.25.145.28.366.063.49M97.329 359.346l-2.12 1.219c-.217.124-.596.107-.843-.036l-1.997-1.147c-.25-.145-.277-.362-.06-.486l2.116-1.218c.218-.125.597-.108.847.037l1.994 1.145c.25.145.277.362.063.486M97.062 365.164l-2.115 1.219c-.218.124-.597.109-.847-.037l-1.994-1.146c-.25-.144-.277-.361-.06-.485l2.116-1.218c.218-.125.597-.112.847.032l1.994 1.149c.25.145.277.362.06.486zM102.253 362.18l-2.116 1.218c-.218.125-.597.108-.847-.036l-1.997-1.147c-.25-.143-.277-.364-.06-.488l2.116-1.215c.218-.126.597-.112.847.032l1.994 1.149c.25.145.28.362.063.487M101.989 367.999l-2.115 1.217c-.218.125-.597.109-.847-.036l-1.998-1.145c-.25-.145-.276-.365-.059-.49l2.116-1.218c.217-.125.596-.109.847.036l1.994 1.149c.25.142.28.361.062.487M107.176 365.014l-2.115 1.217c-.218.126-.597.109-.847-.036l-1.994-1.145c-.251-.145-.277-.364-.063-.49l2.119-1.218c.214-.125.593-.108.844.037l1.997 1.149c.25.141.277.361.059.486M92.534 350.428l-2.116 1.219c-.217.124-.596.107-.847-.036l-1.994-1.147c-.25-.143-.276-.364-.062-.489l2.119-1.215c.214-.125.593-.112.844.033l1.997 1.149c.25.145.276.362.059.486M92.27 356.246l-2.115 1.219c-.218.124-.597.109-.847-.036l-1.994-1.15c-.25-.144-.28-.361-.063-.486l2.12-1.218c.214-.125.593-.108.843.036l1.997 1.146c.25.145.277.365.06.489M97.461 353.262l-2.119 1.219c-.214.121-.593.109-.847-.037l-1.994-1.149c-.25-.145-.276-.361-.059-.486l2.116-1.218c.217-.125.596-.108.847.036l1.994 1.146c.25.145.276.365.062.489M102.385 356.096l-2.116 1.215c-.217.124-.596.112-.847-.034l-1.993-1.149c-.251-.143-.28-.36-.063-.486l2.116-1.217c.217-.126.596-.109.847.036l1.993 1.145c.251.145.28.365.063.49M107.199 370.996l-2.115 1.218c-.218.125-.597.108-.847-.037l-1.994-1.145c-.251-.145-.277-.364-.063-.489l2.119-1.218c.214-.125.593-.109.844.036l1.997 1.149c.25.141.277.362.059.486M112.389 368.012l-2.119 1.218c-.214.124-.593.108-.843-.037l-1.997-1.15c-.251-.14-.277-.36-.06-.484l2.116-1.219c.218-.125.597-.109.847.036l1.994 1.149c.25.145.277.362.062.487M112.126 373.829l-2.119 1.215c-.217.125-.596.111-.847-.032l-1.994-1.149c-.25-.145-.277-.362-.059-.487l2.116-1.218c.217-.124.596-.108.847.036l1.994 1.146c.25.144.276.365.062.489M117.313 370.845l-2.116 1.214c-.217.126-.596.112-.847-.032l-1.994-1.149c-.25-.145-.28-.362-.062-.486l2.116-1.219c.217-.124.596-.107.846.036l1.998 1.147c.247.144.276.364.059.489M122.501 367.86l-2.116 1.215c-.218.125-.597.111-.847-.033l-1.994-1.149c-.25-.144-.277-.361-.059-.486l2.116-1.218c.217-.124.596-.108.847.036l1.993 1.146c.251.144.277.365.06.489zM127.691 364.876l-2.116 1.214c-.217.125-.596.112-.847-.032l-1.997-1.149c-.25-.145-.277-.362-.059-.486l2.116-1.219c.217-.124.596-.109.847.036l1.993 1.147c.251.143.28.364.063.489M122.237 373.676l-2.116 1.218c-.217.124-.596.108-.847-.034l-1.994-1.149c-.25-.144-.276-.361-.062-.486l2.119-1.218c.217-.124.596-.108.847.036l1.994 1.146c.25.145.276.362.059.487M127.428 370.691l-2.116 1.218c-.218.125-.597.108-.847-.033l-1.997-1.149c-.25-.145-.277-.362-.059-.486l2.115-1.219c.218-.124.597-.108.847.036l1.994 1.147c.251.145.28.361.063.486M96.63 22.976c3.744 3.405 6.763 7.605 8.193 12.45 1.651 5.596 2.126 12.98-2.597 20.128-8.272 12.526-19.444 9.02-22.08 7.959a.762.762 0 0 1-.471-.83c.336-2.204 1.041-10.458-3.121-15.594-3.965-4.892-9.254-4.606-10.447-4.54a.72.72 0 0 1-.57-.207c-1.563-1.452-9.558-9.568-4.087-18.765 5.876-9.88 20.502-14.953 32.24-10.379.327.128.32.608 0 .745-1.311.572-3.222 1.954-1.09 4.745 1.21 1.58 2.689 3.07 4.03 4.288"/><path fill="#1A162C" d="M91.892 13.736c-.643.522-1.071 1.15-1.256 1.859-.3 1.162.063 2.426 1.081 3.763 1.085 1.411 2.485 2.905 4.166 4.432 3.889 3.536 6.614 7.667 7.876 11.948 2.096 7.1 1.269 13.56-2.455 19.205-7.487 11.34-17.285 8.862-20.495 7.644.254-1.875 1.137-10.609-3.391-16.194-2.759-3.402-6.733-5.155-11.232-4.955-1.726-1.641-8.697-9.032-3.783-17.297 5.504-9.255 18.719-13.81 29.489-10.405zm-5.098 52.118c4.84.003 11.181-1.852 16.362-9.696 4.044-6.124 4.99-13.403 2.732-21.043-1.377-4.67-4.32-9.148-8.512-12.957-1.582-1.438-2.894-2.833-3.892-4.14-.406-.529-.854-1.28-.702-1.868.155-.591.916-1.002 1.354-1.195a1.51 1.51 0 0 0 .906-1.422 1.485 1.485 0 0 0-.945-1.363c-11.95-4.659-27.337.309-33.602 10.842-5.886 9.9 2.534 18.512 4.284 20.137.39.361.86.529 1.388.502 3.846-.197 7.16 1.215 9.524 4.13 3.417 4.217 3.424 11.247 2.887 14.733a1.864 1.864 0 0 0 1.156 2.023c.976.394 3.642 1.317 7.06 1.317M2.104 45.178l10.404 53.805c.461 2.38 7.174 6.045 9.277 4.82l25.577-19.674a5.011 5.011 0 0 0 2.415-5.23l-4.86-52.985c-.439-2.4-8.177-4.757-10.29-3.53L4.51 39.899a5.006 5.006 0 0 0-2.405 5.28"/><path fill="#1A162C" d="M36.309 23.147c1.325 0 3.42.436 5.273 1.284 1.733.794 2.208 1.484 2.244 1.68l4.844 52.89c.31 1.71-.448 3.349-1.868 4.173L21.106 102.93c-.204.111-1.374.082-3.256-.769-2.323-1.047-4.106-2.626-4.254-3.385L3.195 44.968a3.906 3.906 0 0 1 1.872-4.114L35.185 23.34c.224-.128.62-.193 1.124-.193zM20.69 105.149c.6 0 1.17-.111 1.651-.39l25.699-19.757c2.103-1.214 3.289-3.775 2.828-6.3l-4.848-52.89c-.238-1.32-1.414-2.426-3.513-3.388-2.192-1.004-6.423-2.163-8.44-.991L3.953 38.943a6.117 6.117 0 0 0-2.936 6.445l10.4 53.805c.419 2.154 3.665 4.144 5.517 4.981.933.42 2.416.975 3.757.975"/><path fill="#00AFEF" d="M7.43 47.181l10.403 53.805c.462 2.381 3.144 3.595 5.247 2.374l29.607-17.228a5.011 5.011 0 0 0 2.416-5.23l-9.9-54.104c-.438-2.4-3.138-3.638-5.25-2.407L9.835 41.901a5.01 5.01 0 0 0-2.406 5.28"/><path fill="#1A162C" d="M41.73 25.012c.342 0 .685.075 1.011.223a2.39 2.39 0 0 1 1.371 1.76l9.896 54.107a3.908 3.908 0 0 1-1.881 4.075l-29.608 17.228c-.688.4-1.499.44-2.22.114a2.377 2.377 0 0 1-1.375-1.74L8.52 46.971a3.903 3.903 0 0 1 1.875-4.114L40.51 25.343c.382-.22.797-.331 1.22-.331zm-20.433 79.931c.814 0 1.621-.211 2.34-.631l29.61-17.224a6.135 6.135 0 0 0 2.947-6.383l-9.9-54.107a4.63 4.63 0 0 0-2.624-3.37 4.648 4.648 0 0 0-4.277.208L9.278 40.946a6.132 6.132 0 0 0-2.94 6.442v.003l10.408 53.805a4.64 4.64 0 0 0 4.551 3.747"/><path fill="#fff" d="M12.863 47.316l9.594 48.86a.835.835 0 0 0 1.239.558l25.613-14.9c.402-.236.616-.696.53-1.152l-9.18-49.097a.833.833 0 0 0-1.24-.565L13.387 46.154a1.096 1.096 0 0 0-.524 1.162"/><path fill="#1A162C" d="M39.64 32.17l9.109 48.715-25.277 14.703-9.52-48.482L39.64 32.169zM23.277 97.951c.34 0 .676-.088.98-.263L49.87 82.786a2.202 2.202 0 0 0 1.057-2.305l-9.178-49.1a1.943 1.943 0 0 0-2.887-1.316L12.831 45.2a2.206 2.206 0 0 0-1.058 2.325v.003l9.596 48.86c.122.611.534 1.133 1.104 1.392.258.115.531.171.805.171"/><path fill="#00AFEF" d="M6.938 44.856l.801-1.5-4.617-2.443-.8 1.5 4.616 2.443zM37.28 26.24l.802-1.5-4.62-2.443-.798 1.5 4.617 2.443zM119.686 72.854c2.109 7.023 10.309 35.736 10.536 58.733.03 2.844-30.438 19.773-31.166 22.524-2.996 11.328-8.5 30.894-8.5 30.894l1.873-26.1 13.488-52.081 12.685-33.99c.191-.515.926-.505 1.084.02"/><path fill="#1A162C" d="M129.112 131.466c-.877 1.592-10.015 7.437-16.089 11.321-11.301 7.23-14.645 9.555-15.038 11.045-1.535 5.805-3.75 13.85-5.533 20.272l1.074-15.022 13.466-51.982 12.091-32.38c2.805 9.573 9.788 35.483 10.029 56.746zm-40.437 64.338l2.953-10.5c.053-.197 5.537-19.704 8.499-30.91.64-1.143 8.417-6.114 14.096-9.749 13.271-8.487 17.127-11.232 17.11-13.067-.227-22.859-8.16-50.965-10.585-59.04a1.641 1.641 0 0 0-1.543-1.188c-.781-.032-1.387.417-1.641 1.1l-12.684 33.99-13.558 52.386-2.647 36.978M82.404 357.57s3.051 6.645 2.626 14.89c-.102 2.007-1.506 3.726-3.44 4.295l-6.532 1.93a5.642 5.642 0 0 1-5.639-1.478l-2.613-2.688a9.682 9.682 0 0 0-5.227-2.785 9.721 9.721 0 0 1-3.971-1.694l-12.45-9.039c-1.721-1.248-2.235-3.69-.967-5.391 1.029-1.38 2.769-2.791 5.715-3.504 6.871-1.661 19.262 1.031 19.262 1.031l13.236 4.433"/><path fill="#1A162C" d="M81.576 358.456c.633 1.57 2.692 7.251 2.346 13.948-.075 1.526-1.14 2.847-2.646 3.294l-6.535 1.926a4.489 4.489 0 0 1-4.522-1.185l-2.62-2.688a10.715 10.715 0 0 0-5.823-3.104 8.661 8.661 0 0 1-3.516-1.499l-12.45-9.04a2.945 2.945 0 0 1-1.184-1.934 2.529 2.529 0 0 1 .455-1.907c1.12-1.501 2.83-2.542 5.085-3.087 6.548-1.579 18.643 1.012 18.765 1.035l12.645 4.241zm-8.127 21.565a6.81 6.81 0 0 0 1.925-.278l6.531-1.928c2.406-.709 4.107-2.837 4.232-5.295.432-8.423-2.597-15.131-2.725-15.413l-.198-.434-13.693-4.584c-.63-.143-12.837-2.757-19.88-1.056-2.77.673-4.903 1.986-6.34 3.917-.758 1.014-1.064 2.275-.87 3.559a5.21 5.21 0 0 0 2.073 3.385l12.45 9.036a10.86 10.86 0 0 0 4.427 1.891 8.538 8.538 0 0 1 4.627 2.467l2.616 2.688a6.706 6.706 0 0 0 4.825 2.045M120.269 335.262s3.022 13.63 4.317 17.793c.62 1.989.386 4.153-.464 6.058a3.828 3.828 0 0 1-2.653 2.174l-7.774 1.77a4.752 4.752 0 0 1-5.099-2.132c-2.109-3.063-4.656-6.35-7.668-8.891l-7.913-6.665s-3.516-3.227-1.81-7.893c.854-2.332 5.297-3.343 9.525-3.774 4.225-.425 8.239-.269 8.239-.269l11.3 1.829z"/><path fill="#1A162C" d="M119.35 336.232c.653 2.915 3.042 13.497 4.176 17.152.517 1.651.369 3.525-.415 5.28a2.744 2.744 0 0 1-1.889 1.545l-7.774 1.771a3.636 3.636 0 0 1-3.905-1.632c-1.78-2.584-4.499-6.291-7.9-9.158l-7.909-6.665c-.082-.079-2.91-2.781-1.486-6.668.25-.684 1.588-2.345 8.595-3.054 4.099-.415 8.044-.266 8.084-.266l10.423 1.695zm-6.719 28.049c.435 0 .873-.049 1.311-.148l7.775-1.769a4.974 4.974 0 0 0 3.417-2.801c1.005-2.243 1.187-4.672.511-6.836-1.266-4.071-4.261-17.566-4.291-17.705l-.161-.731-12.046-1.948c-.303-.019-4.277-.167-8.529.263-6.156.62-9.573 2.092-10.453 4.491-1.938 5.297 1.934 8.932 2.102 9.082l7.943 6.699c3.196 2.692 5.797 6.241 7.474 8.674 1.055 1.711 2.95 2.729 4.947 2.729"/><path fill="#fff" d="M47.085 191.703c6.034-5.444 20.792 4.006 30.919 11.774 2.712-18.354 40.443-3.185 40.443-3.185s-4.014 49.202-2.554 62.286c1.46 13.081 8.025 21.44 7.662 50.151-.29 22.704-.112 31.543-.026 34.252.02.663-.29 1.257-.857 1.605-2.294 1.405-8.638 4.45-14.893-.109a1.885 1.885 0 0 1-.744-1.263c-.828-6.11-7.185-46.525-11.205-55.926-3.012-7.039-3.817-15.691-4.001-21.069a39.256 39.256 0 0 0-1.82-10.596c-.985-3.096-1.897-11.291-2.79-11.771-1.167 2.092-1.217 4.59-1.378 7.004-.527 7.86-1.045 14.594-1.444 17.789-1.334 10.648 2.68 20.823 3.955 34.268 1.12 11.788-2.97 45.915-3.994 54.159-.155 1.249-.854 2.33-1.948 2.953-2.692 1.53-8.235 3.684-14.365.263-1.295-.722-2.126-2.069-2.136-3.546-.052-8.636-.438-40.927-3.272-51.284-3.283-11.991-4.014-26.529-4.014-26.529s-9.439-41.237-11.469-72.225c-.379-5.795-2.274-17.011-.069-19.001"/><path fill="#1A162C" d="M86.78 246.364l-.53.953c-1.18 2.111-1.329 4.492-1.474 6.793l-.043.671c-.596 8.917-1.08 14.882-1.437 17.73-.847 6.754.419 13.392 1.757 20.429.844 4.422 1.714 8.996 2.195 14.079 1.12 11.794-3.128 46.985-3.991 53.921a2.809 2.809 0 0 1-1.397 2.126c-2.541 1.445-7.643 3.402-13.275.256-.959-.535-1.559-1.526-1.565-2.587-.06-9.469-.472-41.174-3.316-51.565-3.213-11.745-3.968-26.152-3.974-26.297l-.026-.19c-.096-.41-9.442-41.505-11.443-72.048-.089-1.363-.26-3.021-.445-4.787-.441-4.255-1.265-12.175.014-13.327 4.172-3.763 14.648.443 29.498 11.83l1.496 1.152.277-1.865c.425-2.876 1.78-4.932 4.143-6.281 9.158-5.234 29.818 2.082 34.03 3.668-.534 6.704-3.849 49.412-2.482 61.674.501 4.509 1.618 8.528 2.795 12.782 2.389 8.617 5.098 18.381 4.858 37.235-.287 22.662-.113 31.537-.024 34.298a.674.674 0 0 1-.329.63c-2.218 1.356-7.985 4.075-13.657-.059a.763.763 0 0 1-.3-.518c-.603-4.447-7.079-46.378-11.284-56.213-2.877-6.72-3.717-14.952-3.915-20.671a40.37 40.37 0 0 0-1.869-10.891c-.392-1.234-.787-3.408-1.173-5.511-.926-5.081-1.259-6.421-2.152-6.901l-.962-.516zM74.856 367.227c3.448 0 6.321-1.229 8.104-2.244 1.388-.787 2.297-2.163 2.498-3.776 1.22-9.797 5.112-42.673 3.998-54.395-.491-5.188-1.371-9.814-2.225-14.287-1.36-7.154-2.537-13.333-1.733-19.742.362-2.886.847-8.895 1.447-17.855l.046-.68c.056-.919.112-1.818.23-2.679.178.886.35 1.825.492 2.607.395 2.171.807 4.417 1.242 5.782a38.425 38.425 0 0 1 1.766 10.301c.205 5.906 1.081 14.426 4.09 21.462 3.826 8.945 10.131 48.289 11.126 55.641a2.973 2.973 0 0 0 1.19 2.006c6.756 4.929 13.528 1.751 16.125.158a2.882 2.882 0 0 0 1.384-2.585c-.086-2.744-.26-11.58.026-34.199.244-19.165-2.629-29.524-4.936-37.848-1.206-4.351-2.248-8.106-2.732-12.441-1.431-12.824 2.517-61.583 2.557-62.072l.066-.811-.755-.302c-1.041-.42-25.62-10.172-36.722-3.829-2.436 1.393-4.06 3.441-4.848 6.111-15.49-11.637-25.903-15.219-30.952-10.668-1.96 1.773-1.562 7.168-.728 15.196.178 1.733.349 3.362.438 4.698 1.964 30.013 10.968 70.091 11.469 72.307.075 1.301.91 15.209 4.047 26.665 2.774 10.135 3.18 41.596 3.236 51 .01 1.855 1.044 3.579 2.699 4.502 2.6 1.451 5.101 1.977 7.355 1.977"/><path fill="#1A162C" d="M102.362 62.078s9.204-5.66 14.952 4.422c5.744 10.087 3.829 35.162 1.367 58.057-2.208 20.515 5.25 61.383 6.825 69.661.172.893-.28 1.766-1.097 2.177l-11.482 5.759a99.293 99.293 0 0 1-42.664 9.627 34.682 34.682 0 0 1-15.044-3.432l-1.029-.495a26.017 26.017 0 0 1-12.661-13.246s14.5-31.07 14.5-52.061c0-20.987-7.036-59.2 6.321-66.512 13.36-7.312 25.69-2.446 25.69-2.446l14.322-11.511"/><path fill="#1A162C" d="M108.224 61.599c.669 0 1.368.075 2.076.256 2.403.623 4.439 2.367 6.048 5.19 5.487 9.634 3.701 34.42 1.229 57.398-2.225 20.691 5.309 61.924 6.841 69.978a.898.898 0 0 1-.507.985l-11.482 5.763c-13.07 6.215-27.66 9.508-42.167 9.508a33.831 33.831 0 0 1-14.563-3.319l-1.025-.496a24.91 24.91 0 0 1-11.93-12.24c1.86-4.062 14.395-32.214 14.395-52.075 0-5.132-.415-11.245-.856-17.717-1.289-18.991-2.894-42.628 6.6-47.826 12.755-6.984 24.628-2.436 24.747-2.387l.603.236 14.761-11.866c.362-.203 2.561-1.389 5.23-1.389zM70.262 212.887c14.837 0 29.756-3.369 43.143-9.735l11.504-5.772c1.269-.637 1.948-1.99 1.688-3.369-1.523-8.002-9.007-48.949-6.815-69.335 2.636-24.498 4.277-48.568-1.507-58.72-1.921-3.373-4.425-5.474-7.444-6.245-4.706-1.196-8.875 1.32-9.05 1.425l-.115.082-13.841 11.124c-2.736-.906-13.898-3.904-26.01 2.725-10.733 5.877-9.144 29.271-7.744 49.911.435 6.435.847 12.513.847 17.569 0 20.508-14.25 51.29-14.395 51.599l-.207.443.194.453a27.113 27.113 0 0 0 13.196 13.807l1.031.495a35.99 35.99 0 0 0 15.525 3.543z"/><path fill="#fff" d="M98.308 63.585c.461.759-.132.959-.778 1.57-2.791 2.633-11.178 8.717-25.847 4.432l-.458-10.562a.36.36 0 0 0-.24-.339l-7.69-2.735s-6.515-8.747-4.814-27.367l1.984-7.9 16.705-1.13L90.197 33.1l2.245 13.977c.761 4.742 3.361 12.405 5.866 16.51"/><path fill="#1A162C" d="M97.234 63.946a.237.237 0 0 1-.033.027c-.135.115-.284.236-.432.377-2.729 2.571-10.46 8.064-24.015 4.393l-.422-9.764c0-.572-.392-1.127-.975-1.334l-7.346-2.613c-.998-1.563-5.886-10.136-4.432-26.264l1.763-7.036 15.387-1.041 12.427 12.92 2.192 13.64c.728 4.547 3.253 12.27 5.886 16.695zm-15.78 8.238c9.03 0 14.54-4.061 16.838-6.228.115-.109.224-.197.326-.283.452-.37 1.503-1.244.64-2.663-2.545-4.166-5.013-11.695-5.722-16.108L91.24 32.583 77.612 18.42l-18.027 1.218-2.208 8.846c-1.717 18.823 4.752 27.754 5.026 28.125l.204.27 7.53 2.682.472 10.864.761.224c3.75 1.096 7.109 1.536 10.085 1.536"/><path fill="#1A162C" d="M95.632 64.192c1.694-1.819 4.387-2.554 6.614-1.447.894.443 1.961.485 2.937 1.575 4.317 4.817-10.975 19.074-30.408 13.653-3.013-.84-6.12-1.336-9.238-1.586l-3.094-.246c-.063-.004-.11-.046-.093-.105.228-.72 1.417-3.566 5.79-6.721 1.391-1.005 3.263-.867 4.717.042 1.875 1.176 5.563 1.31 11.148.355 6.723-1.15 10.17-3.953 11.627-5.52z"/><path fill="#1A162C" d="M99.999 63.329c.609 0 1.206.131 1.753.404.31.154.636.27.975.384.636.22 1.137.39 1.628.94 1.038 1.155.023 3.079-.461 3.854-3.447 5.506-14.988 11.86-28.823 7.998-2.887-.808-6.064-1.353-9.445-1.622l-1.641-.131c.672-1.143 2.06-2.965 4.805-4.948.942-.68 2.306-.644 3.476.085 2.146 1.346 6.048 1.514 11.927.509 7.043-1.205 10.7-4.186 12.253-5.858.972-1.047 2.284-1.615 3.553-1.615zM83.49 80.288c10.793 0 19.282-5.408 22.285-10.208 1.582-2.528 1.667-4.896.234-6.495-.877-.978-1.81-1.3-2.561-1.556-.247-.082-.484-.161-.709-.273-2.56-1.274-5.813-.578-7.922 1.685-1.361 1.467-4.604 4.09-11 5.184-6.526 1.113-9.245.506-10.372-.2-1.94-1.215-4.277-1.218-5.955-.007-4.808 3.47-6.008 6.679-6.199 7.286l-.161.512.61.943.616.085 3.094.246c3.236.256 6.272.778 9.027 1.547 3.124.87 6.15 1.25 9.013 1.25"/><path fill="#00AFEF" d="M97.79 205.772c8.098-11.157 5.418-33.018 5.303-33.943l-2.201.279c.029.216 2.682 21.92-4.9 32.371l1.798 1.293"/><path fill="#fff" d="M12.145 58.118c2.09-3.845 2.976-5.916 5.62-4.39l1.09 1.497a13.936 13.936 0 0 1 2.656 8.508l-.112 4.616-1.311.283 2.29-.496s.913-3.996 3.282-4.905c2.373-.91 2.937 2.909 2.937 2.909l.115 2.797a38.699 38.699 0 0 1-3.052 11.919L13.625 84.46s-1.859-5.349-3.681-8.8c-1.826-3.454-.171-13.183 2.201-17.543"/><path fill="#1A162C" d="M24.846 79.95L14.313 83.1c-.632-1.73-2.007-5.338-3.387-7.955-1.582-2.991-.043-12.388 2.191-16.502l.38-.7c.981-1.819 1.831-3.392 2.537-3.592.237-.062.56.01.979.227l.945 1.297a12.855 12.855 0 0 1 2.212 5.079c.178.906.253 1.832.234 2.748l-.093 3.75-.461.098.471 2.16 2.98-.643.158-.686c.204-.89 1.127-3.556 2.6-4.12.303-.115.428-.047.488-.014.5.292.87 1.481.955 2.052l.103 2.68a37.667 37.667 0 0 1-2.759 10.97zm-11.92 5.877l13.548-4.059.204-.472a39.69 39.69 0 0 0 3.138-12.26l-.109-2.942c-.053-.391-.458-2.834-2.043-3.753-.501-.293-1.322-.555-2.4-.142-1.183.454-2.05 1.435-2.665 2.46l.02-.9a15.017 15.017 0 0 0-2.867-9.18l-1.227-1.688-.204-.118c-1.065-.614-2.007-.798-2.89-.545-1.612.453-2.515 2.13-3.886 4.672l-.376.693C8.816 61.92 6.852 72.18 8.961 76.173c1.764 3.34 3.596 8.596 3.616 8.649l.349 1.005"/><path fill="#fff" d="M44.583 64.787c-4.386-.128-6.9 1.093-6.904 4.137l.755 1.69a13.938 13.938 0 0 0 3.582 4.84c.758.66-.883-.482 0 0l5.86 4.676s-3.929-1.218-5.91.368c-1.977 1.589 1.055 3.992 1.055 3.992l2.37 1.5a39.083 39.083 0 0 0 11.88 3.353l9.168-8.566s-3.71-4.285-5.793-7.588-11.087-8.258-16.063-8.402"/><path fill="#1A162C" d="M64.914 80.692l-8.025 7.492a38.045 38.045 0 0 1-11.03-3.194l-2.245-1.432c-.428-.355-1.209-1.235-1.209-1.786 0-.07 0-.207.257-.414 1.242-.995 4.01-.443 4.884-.174l5.606 1.74-10.424-8.317a12.924 12.924 0 0 1-3.282-4.439l-.653-1.464c.04-.712.267-1.26.692-1.671.847-.821 2.584-1.222 5.069-1.143 4.71.138 13.31 4.961 15.153 7.887 1.578 2.502 4.02 5.5 5.207 6.915zm-7.26 9.807l10.321-9.64-.695-.804c-.036-.04-3.681-4.259-5.695-7.454-2.376-3.769-11.89-8.77-16.969-8.917-3.14-.076-5.352.482-6.673 1.763-.91.88-1.371 2.049-1.371 3.477v.236l.847 1.905a15.226 15.226 0 0 0 3.319 4.721c.102.207.286.424.6.64a2.2 2.2 0 0 0 .388.224l2.452 1.95c-1.028.086-2.073.371-2.907 1.038-.896.722-1.084 1.563-1.08 2.14.003 1.83 1.92 3.402 2.142 3.576l2.461 1.57A40.094 40.094 0 0 0 57.14 90.44l.514.059"/><path fill="#1A162C" d="M68.068 93.487s-4.07 26.566-22.064 51.053c-3.332 4.535-7.441 8.458-11.97 11.811a4 4 0 0 1-5.75-1.061l-1.381-1.316a24.637 24.637 0 0 1-5.965-8.908 24.463 24.463 0 0 1-1.585-6.899L13.266 89.99a4.16 4.16 0 0 1 2.844-4.285L24 83.082a1.827 1.827 0 0 1 2.392 1.507c.66 5.526 2.436 14.388 4.742 24.435 2.278 9.919 2.189 28.165 2.189 28.165s10.233-48.102 21.157-56.74c10.925-8.639 15.773 3.526 13.588 13.038"/><path fill="#1A162C" d="M61.29 78.606c.83 0 1.65.204 2.418.687 3.124 1.96 4.594 8.218 3.28 13.947l-.017.08c-.04.262-4.245 26.598-21.86 50.57-3.088 4.203-7.04 8.097-11.735 11.574a2.87 2.87 0 0 1-2.248.519 2.846 2.846 0 0 1-1.908-1.287l-.171-.204-1.381-1.316a23.725 23.725 0 0 1-5.695-8.508 23.505 23.505 0 0 1-1.516-6.593l-6.09-48.223c-.109-1.36.751-2.653 2.096-3.1l7.89-2.62a.702.702 0 0 1 .612.073c.106.069.29.223.327.515.622 5.204 2.267 13.692 4.762 24.55 2.22 9.679 2.162 27.732 2.158 27.912l-.05 10.789 2.245-10.552c.102-.48 10.272-47.813 20.762-56.107 1.714-1.353 3.965-2.706 6.12-2.706zM31.648 158.24c1.09 0 2.165-.349 3.048-1.002 4.878-3.608 8.98-7.66 12.204-12.043 17.608-23.966 22.057-50.266 22.258-51.497 1.312-5.776.264-13.43-4.268-16.273-2.126-1.336-5.78-2.045-11.1 2.157-8.304 6.567-16 34.266-19.532 48.667-.237-6.078-.781-13.971-2.043-19.474-2.479-10.78-4.11-19.188-4.723-24.317a2.902 2.902 0 0 0-1.341-2.117 2.945 2.945 0 0 0-2.502-.306l-7.89 2.62a5.259 5.259 0 0 0-3.598 5.425l6.09 48.226c.198 2.42.755 4.846 1.651 7.161a25.927 25.927 0 0 0 6.232 9.305l1.292 1.228a5.1 5.1 0 0 0 4.222 2.24M95.737 12.558c3.747 3.405 6.763 7.607 8.193 12.45 1.654 5.599 2.126 12.98-2.594 20.128-8.275 12.529-19.447 9.019-22.08 7.962a.773.773 0 0 1-.474-.83c.34-2.207 1.041-10.462-3.121-15.597-3.965-4.889-9.254-4.607-10.447-4.54a.706.706 0 0 1-.57-.204c-1.563-1.455-9.558-9.572-4.087-18.768C66.433 3.282 81.06-1.794 92.801 2.783c.326.125.316.604-.003.746-1.309.57-3.223 1.953-1.091 4.74 1.21 1.58 2.689 3.07 4.03 4.289"/><path fill="#1A162C" d="M91.002 3.318c-.646.522-1.075 1.153-1.259 1.862-.3 1.162.063 2.426 1.084 3.76 1.081 1.415 2.482 2.905 4.163 4.435 3.892 3.537 6.614 7.667 7.879 11.945 2.096 7.102 1.269 13.564-2.458 19.208-7.488 11.34-17.286 8.862-20.496 7.64.254-1.88 1.134-10.608-3.39-16.19-2.759-3.401-6.757-5.158-11.232-4.958-1.727-1.645-8.694-9.039-3.78-17.297C67.017 4.468 80.23-.087 91.002 3.318zm-5.098 52.12c4.838 0 11.178-1.851 16.359-9.695 4.043-6.127 4.989-13.403 2.732-21.047-1.378-4.665-4.321-9.147-8.51-12.956-1.581-1.438-2.893-2.83-3.895-4.14-.402-.525-.853-1.277-.698-1.865.155-.594.913-1.005 1.35-1.195.564-.246.92-.805.907-1.425a1.484 1.484 0 0 0-.946-1.363c-11.946-4.656-27.333.309-33.598 10.845-5.883 9.89 2.534 18.509 4.28 20.137.39.358.845.535 1.388.5 3.88-.214 7.165 1.22 9.525 4.13 3.417 4.216 3.424 11.245 2.89 14.736a1.863 1.863 0 0 0 1.153 2.022c.979.39 3.645 1.317 7.063 1.317"/><path fill="#00AFEF" d="M76.254 14.554c2.304-4.974 10.523-4.817 13.947-4.514l.195-2.2c-4.835-.42-13.367-.233-16.155 5.788l2.013.926M83.442 47.996c8.723 0 10.064-7.3 10.077-7.378l-2.185-.374c-.049.282-1.338 6.845-10.588 5.306l-.366 2.176c1.11.188 2.126.27 3.062.27M94.307 53.347c9.419-6.05 11.116-13.816 11.185-14.141l-2.172-.45c-.016.072-1.624 7.214-10.216 12.736l1.203 1.855M84.569 80.37c8.535 0 13.014-3.189 16.718-5.822.481-.345.952-.68 1.424-1.001.154-.105.299-.21.441-.316 2.574-1.894 3.688-5.158 2.848-8.323l-2.143.568c.607 2.282-.187 4.626-2.02 5.98l-.382.269c-.481.328-.962.672-1.46 1.024-4.199 2.988-8.967 6.38-19.668 5.155-11.996-1.37-15.891-2.955-15.93-2.972l-.87 2.033c.16.069 4.122 1.717 16.546 3.135 1.615.184 3.108.27 4.496.27M56.46 129.821c.498-.969 12.161-23.923 12.715-36.285.171-3.88.046-7.043-.379-9.403l-2.182.39c.396 2.197.511 5.198.346 8.915-.53 11.882-12.355 35.148-12.477 35.381l1.978 1.002zM34.496 133.781c.181-4.771 1.183-10.366 1.193-10.422l-2.182-.394c-.043.236-1.041 5.805-1.226 10.73l2.215.086z"/><path fill="#1A162C" d="M87.123 251.927c2.663-10.086 5.358-26.448 5.385-26.612l-2.188-.355c-.027.161-2.706 16.42-5.34 26.405l2.143.562"/><path fill="#00AFEF" d="M15.71 95.368l10.533-3.033-.616-2.122-10.532 3.031.616 2.124zM96.169 340.874c1.79-4.13 9.003-3.316 9.079-3.307l.264-2.193c-.363-.045-8.945-1.001-11.377 4.624l2.034.876M50.493 359.655c2.399-5.976 9.735-5.32 9.804-5.309l.22-2.197c-3.107-.325-9.675.683-12.08 6.685l2.056.821z"/><path fill="#1A162C" d="M55.917 236.255c2.31 0 4.377-.591 6.183-1.776 6.647-4.361 7.132-15.113 7.148-15.57l-2.215-.082c-.003.099-.464 10.08-6.159 13.814-2.765 1.808-6.413 1.865-10.846.166l-.794 2.059c2.41.926 4.64 1.389 6.683 1.389M108.138 281.534c8.266-2.325 10.418-9.723 10.507-10.038l-2.139-.594c-.073.266-1.931 6.528-8.971 8.504l.603 2.128M72.544 296.076c13.044-1.147 13.367-10.254 13.367-10.347l-2.218-.048c-.01.294-.356 7.229-11.347 8.195l.198 2.2"/><path fill="#fff" d="M65.072 243.446c-.033.013-10.915 4.183-11.811 4.524a.21.21 0 0 1-.25-.078l-8.619-17.324a.136.136 0 0 0-.04-.042l-20.076-11.223a.216.216 0 0 1-.079-.207l6.087-38.432a.228.228 0 0 0-.04-.167l-2.854-3.835a.218.218 0 0 1 .093-.339c1.104-.417 11.475-4.376 11.603-4.412l.04-.01c.751-.201 1.592-.089 2.284.466l29.01 23.834a6.649 6.649 0 0 1 2.41 6.232l-6.183 39.039a2.55 2.55 0 0 1-1.535 1.954l-.04.02"/><path fill="#1A162C" d="M64.67 242.418l-11.04 4.23-8.595-16.992-19.648-10.996 5.99-37.825c.06-.338-.029-.706-.24-.995l-2.162-2.902 1.793-.683c3.138-1.195 8.394-3.198 8.678-3.297.24-.062.774-.128 1.265.266l29.004 23.831a5.56 5.56 0 0 1 2.02 5.204l-6.182 39.039c-.082.503-.402.91-.883 1.113l.402 1.036-.402-1.029zM53.18 249.09c.162 0 .327-.03.485-.092.89-.338 11.785-4.511 11.818-4.524l.138-.069c1.1-.47 1.921-1.514 2.12-2.762l6.182-39.036a7.754 7.754 0 0 0-2.811-7.266l-29.001-23.827a3.669 3.669 0 0 0-3.273-.68c-.145.039-.194.052-8.862 3.359l-2.887 1.1a1.302 1.302 0 0 0-.8.863 1.33 1.33 0 0 0 .214 1.166l2.626 3.533-6.027 38.067c-.076.45.099.926.464 1.228l.168.115 19.804 11.072 8.584 17.218c.26.348.653.535 1.058.535"/><path fill="#00AFEF" d="M53.02 247.888l-8.618-17.322c-.013-.017-.026-.03-.04-.044l10.464-24.976 17.569-6.728a6.63 6.63 0 0 1 .445 3.612l-6.186 39.039c-.148.94-.768 1.622-1.536 1.954l-.036.02c-.033.012-10.915 4.182-11.811 4.524a.208.208 0 0 1-.251-.079"/><path fill="#1A162C" d="M71.693 200.273c.139.653.155 1.326.053 1.983l-6.186 39.04c-.079.501-.402.909-.88 1.113-.023.013-8.357 3.208-11.043 4.235l-8.048-16.181 10.078-24.057 16.026-6.133zm-18.491 48.814c.158 0 .32-.029.474-.092.887-.339 11.71-4.485 11.802-4.519l.174-.084c1.081-.461 1.899-1.505 2.096-2.751l6.186-39.037a7.716 7.716 0 0 0-.514-4.213l-.419-.988-19.015 7.279-10.974 26.195.524.404 8.598 17.27a1.33 1.33 0 0 0 1.068.536"/><path fill="#1A162C" d="M58.728 200.801l-29.113-23.919c-1.549-1.241-3.87-.351-4.182 1.605l-6.202 39.168a6.418 6.418 0 0 0 2.33 6.022l29.11 23.916c1.551 1.244 3.868.354 4.181-1.602l6.206-39.168a6.417 6.417 0 0 0-2.33-6.022"/><path fill="#1A162C" d="M28.003 177.413c.327 0 .646.112.92.332l29.11 23.916a5.337 5.337 0 0 1 1.93 4.991l-6.205 39.164a1.448 1.448 0 0 1-.929 1.146 1.45 1.45 0 0 1-1.463-.23l-29.1-23.909a5.332 5.332 0 0 1-1.941-4.998l6.205-39.164c.083-.532.425-.952.93-1.146.178-.069.362-.102.543-.102zm24.285 71.861c.449 0 .9-.082 1.339-.25a3.647 3.647 0 0 0 2.32-2.863l6.205-39.164a7.545 7.545 0 0 0-2.722-7.053l-29.11-23.913a3.667 3.667 0 0 0-3.658-.575 3.642 3.642 0 0 0-2.32 2.86l-6.205 39.165a7.536 7.536 0 0 0 2.728 7.056l29.104 23.909a3.697 3.697 0 0 0 2.32.828z"/><path fill="#00AFEF" d="M54.009 235.769l1.068-1.322-32.794-26.288c-.449-.348-1.002-.161-1.253.036l-.53.421.586 1.224.448-.098 32.475 26.027M44.119 212.073c1.417 4.564 4.71 7.601 7.356 6.787 2.643-.818 3.638-5.178 2.218-9.739-1.418-4.564-4.71-7.601-7.353-6.787-2.646.818-3.638 5.178-2.221 9.739"/><path fill="#1A162C" d="M47.22 203.31c.764 0 1.644.42 2.501 1.211 1.25 1.153 2.284 2.903 2.914 4.925.629 2.026.767 4.052.392 5.704-.323 1.418-1.012 2.383-1.882 2.653-1.757.532-4.647-1.806-5.968-6.055-.63-2.026-.768-4.052-.39-5.703.324-1.419 1.01-2.384 1.88-2.653.174-.056.358-.082.553-.082zm3.368 16.784c.409 0 .814-.055 1.213-.18 1.674-.516 2.877-2.033 3.388-4.272.461-2.029.306-4.459-.435-6.849-.745-2.387-1.994-4.482-3.523-5.894-1.694-1.559-3.546-2.131-5.22-1.618-1.671.515-2.874 2.032-3.385 4.271-.462 2.029-.307 4.459.432 6.849 1.427 4.591 4.564 7.693 7.53 7.693"/><path fill="#00AFEF" d="M29.694 220.009c1.095 3.517 3.632 5.858 5.672 5.231 2.04-.631 2.804-3.99 1.714-7.509-1.094-3.517-3.632-5.861-5.672-5.231-2.04.627-2.805 3.99-1.714 7.509"/><path fill="#1A162C" d="M32.093 213.501c1.256 0 3.042 1.711 3.925 4.558.465 1.497.574 3.05.297 4.265-.227 1.001-.692 1.681-1.275 1.858-1.256.388-3.312-1.366-4.285-4.501-.975-3.133-.263-5.743.98-6.127.115-.033.233-.053.358-.053zm2.597 12.943c.34 0 .676-.049 1.006-.151 1.377-.423 2.369-1.661 2.781-3.48.37-1.606.247-3.526-.34-5.411-1.295-4.16-4.392-6.773-7.059-5.959-2.662.824-3.737 4.728-2.442 8.891 1.134 3.648 3.655 6.11 6.054 6.11"/><path fill="#fff" d="M35.979 203.786c1.703 5.092 5.572 8.51 8.637 7.637 3.065-.877 4.17-5.713 2.462-10.802-1.704-5.093-5.57-8.511-8.634-7.638-3.065.877-4.17 5.713-2.465 10.803z"/><path fill="#1A162C" d="M39.46 193.949c2.35 0 5.217 2.985 6.568 7.02.992 2.968.995 5.976.003 7.854-.435.817-1.012 1.336-1.717 1.536-2.462.716-5.794-2.465-7.283-6.921-.992-2.968-.992-5.979 0-7.854.435-.818 1.012-1.336 1.717-1.537.23-.065.468-.098.712-.098zm4.165 18.715a4.73 4.73 0 0 0 1.299-.18c1.292-.368 2.353-1.278 3.068-2.63 1.285-2.43 1.338-6.012.138-9.585-1.918-5.732-6.304-9.397-9.992-8.346-1.292.368-2.353 1.277-3.068 2.63-1.285 2.43-1.338 6.012-.142 9.584 1.698 5.07 5.33 8.527 8.697 8.527z"/><path fill="#00AFEF" d="M70.965 185.99c2.38-3.379 58.081-83.28 39.708-124.795l-2.027.89c17.869 40.379-38.92 121.82-39.497 122.637l1.816 1.268z"/><path fill="#1A162C" d="M68.203 189.122a3.935 3.935 0 0 0 5.428-1.172l2.35-3.635a3.903 3.903 0 0 0-1.177-5.407 3.935 3.935 0 0 0-5.428 1.172l-2.35 3.634a3.906 3.906 0 0 0 1.177 5.408z"/><path fill="#00AFEF" d="M72.685 179.39c.52 0 1.051.145 1.523.447a2.803 2.803 0 0 1 .84 3.881l-2.35 3.635a2.825 2.825 0 0 1-3.895.84 2.79 2.79 0 0 1-1.23-1.766 2.783 2.783 0 0 1 .386-2.115l2.35-3.635a2.821 2.821 0 0 1 2.376-1.287zm-2.366 11.459a5.045 5.045 0 0 0 4.245-2.298l2.35-3.638a5.014 5.014 0 0 0-1.507-6.935 5.053 5.053 0 0 0-6.963 1.504l-2.35 3.635a4.97 4.97 0 0 0-.689 3.776 4.996 4.996 0 0 0 2.198 3.159c.84.538 1.783.797 2.716.797"/><path fill="#1A162C" d="M96.963 135.606a3.933 3.933 0 0 0 5.428-1.169l2.35-3.638a3.899 3.899 0 0 0-1.173-5.404 3.933 3.933 0 0 0-5.428 1.169l-2.35 3.634a3.902 3.902 0 0 0 1.173 5.408z"/><path fill="#00AFEF" d="M101.445 125.874c.524 0 1.052.145 1.523.447a2.803 2.803 0 0 1 .84 3.881l-2.346 3.638a2.835 2.835 0 0 1-3.895.84 2.776 2.776 0 0 1-1.23-1.77 2.773 2.773 0 0 1 .382-2.111l2.354-3.638a2.825 2.825 0 0 1 2.372-1.287zm-2.366 11.462c.36 0 .719-.039 1.078-.114a5.01 5.01 0 0 0 3.167-2.187l2.35-3.635a4.974 4.974 0 0 0 .688-3.779 4.975 4.975 0 0 0-2.194-3.155 5.05 5.05 0 0 0-6.96 1.5l-2.35 3.635a4.976 4.976 0 0 0-.69 3.779 4.988 4.988 0 0 0 2.196 3.155c.823.529 1.76.801 2.715.801z"/><path fill="#1A162C" d="M105.647 114.737a3.926 3.926 0 0 0 4.696-2.952l5.131-22.544a3.916 3.916 0 0 0-2.963-4.682 3.93 3.93 0 0 0-4.699 2.952l-5.128 22.544a3.916 3.916 0 0 0 2.963 4.682z"/><path fill="#00AFEF" d="M111.642 85.567a2.812 2.812 0 0 1 2.386 1.31c.402.634.531 1.386.363 2.118l-5.128 22.547c-.343 1.507-1.852 2.453-3.372 2.118a2.815 2.815 0 0 1-2.125-3.362l5.128-22.544a2.823 2.823 0 0 1 2.748-2.187zm-5.128 30.372c2.301 0 4.383-1.583 4.911-3.911l5.131-22.544a4.97 4.97 0 0 0-.653-3.785 5.003 5.003 0 0 0-3.147-2.217c-2.702-.614-5.408 1.087-6.024 3.783l-5.128 22.547c-.613 2.696 1.091 5.388 3.796 6.002.376.082.748.125 1.114.125z"/><path fill="#1A162C" d="M117.814 214.92l-1.146 17.946c-.142 2.2-1.441 4.003-3.164 4.393l-9.676 2.197c-1.529.348-2.936-1.132-2.936-3.09v-18.081c0-2.42 1.417-4.472 3.318-4.81l10.77-1.917c1.582-.28 2.963 1.356 2.834 3.362z"/><path fill="#1A162C" d="M115.333 212.631c.24 0 .474.099.692.292.471.421.731 1.156.682 1.928l-1.147 17.946c-.109 1.686-1.074 3.107-2.3 3.386l-9.679 2.196c-.284.067-.567-.009-.831-.219-.461-.364-.748-1.055-.748-1.793v-18.082c0-1.878 1.032-3.48 2.403-3.723l10.77-1.918c.052-.006.105-.013.158-.013zm-11.956 27.981c.23 0 .464-.026.698-.078l9.676-2.197c2.195-.495 3.849-2.719 4.021-5.397l1.15-17.951c.092-1.452-.439-2.84-1.421-3.71-.777-.697-1.746-.986-2.715-.808l-10.77 1.914c-2.452.437-4.232 2.916-4.232 5.9v18.082c0 1.418.59 2.732 1.582 3.52a3.2 3.2 0 0 0 2.011.725"/><path fill="#00AFEF" d="M120.8 216.67l-1.146 17.95c-.142 2.197-1.437 3.999-3.161 4.39l-9.676 2.197c-1.532.348-2.936-1.134-2.936-3.09v-18.082c0-2.419 1.414-4.472 3.319-4.81l10.766-1.917c1.582-.279 2.963 1.356 2.834 3.362z"/><path fill="#1A162C" d="M119.693 216.601l-1.147 17.947c-.105 1.681-1.074 3.106-2.3 3.385l-9.676 2.197c-.29.063-.57-.011-.834-.217-.461-.368-.748-1.057-.748-1.796v-18.082c0-1.878 1.035-3.48 2.406-3.723l10.767-1.914c.296-.056.583.039.85.275.471.417.732 1.156.682 1.928zm-13.33 25.762c.23 0 .468-.027.702-.08l9.672-2.196c2.198-.499 3.852-2.719 4.024-5.398l1.147-17.95c.092-1.455-.439-2.84-1.421-3.714-.777-.693-1.746-.975-2.715-.804l-10.77 1.917c-2.452.437-4.232 2.916-4.232 5.897v18.082c0 1.419.594 2.735 1.586 3.524a3.215 3.215 0 0 0 2.007.722M100.967 217.553l.419-2.167c-.254-.049-6.222-1.284-6.891-6.869l-2.202.263c.69 5.765 5.975 8.261 8.674 8.773"/><path fill="#00AFEF" d="M24.167 194.546l.897-5.667-2.189-.345-.896 5.67 2.188.342z"/></svg>