<svg width="132" height="391" viewBox="0 0 132 391" fill="none" xmlns="http://www.w3.org/2000/svg">
<path d="M30.36 84.6646L35.0132 85.5215C35.2109 85.5577 35.356 85.7317 35.356 85.932V93.0175V93.2178C35.3757 94.1339 35.0297 95.1845 33.5269 96.0481L30.36 97.8704V84.6646" fill="#1A162C"/>
<path d="M23.6076 101.544H25.8256V94.1927H23.6076V101.544Z" fill="#1A162C"/>
<path d="M57.0935 375.218L54.9745 376.433C54.7603 376.557 54.3812 376.544 54.1308 376.4L52.1337 375.251C51.8832 375.106 51.8569 374.89 52.0744 374.765L54.1901 373.547C54.4076 373.422 54.7866 373.439 55.0371 373.583L57.0309 374.73C57.2814 374.873 57.3077 375.094 57.0935 375.218" fill="#1A162C"/>
<path d="M56.8302 381.033L54.7112 382.252C54.497 382.376 54.118 382.359 53.8642 382.218L51.8704 381.069C51.6199 380.924 51.5936 380.708 51.8111 380.583L53.9268 379.365C54.1443 379.24 54.5234 379.257 54.7738 379.4L56.7676 380.547C57.0181 380.692 57.0445 380.908 56.8302 381.033" fill="#1A162C"/>
<path d="M62.0172 378.049L59.9015 379.266C59.6839 379.392 59.3049 379.375 59.0545 379.234L57.0606 378.085C56.8102 377.94 56.7805 377.723 56.998 377.599L59.1138 376.38C59.3314 376.256 59.7103 376.272 59.9608 376.416L61.9546 377.562C62.2083 377.706 62.2347 377.923 62.0172 378.049Z" fill="#1A162C"/>
<path d="M61.7535 383.867L59.6377 385.085C59.4202 385.209 59.0412 385.193 58.7908 385.049L56.7937 383.902C56.5433 383.759 56.5168 383.542 56.7344 383.416L58.8501 382.199C59.0677 382.074 59.4466 382.09 59.697 382.231L61.6909 383.38C61.9413 383.525 61.971 383.742 61.7535 383.867" fill="#1A162C"/>
<path d="M66.9404 380.882L64.8246 382.1C64.6071 382.225 64.2281 382.208 63.9777 382.064L61.9839 380.918C61.7335 380.773 61.707 380.557 61.9212 380.432L64.0403 379.215C64.2578 379.089 64.6368 379.106 64.8872 379.246L66.8811 380.396C67.1315 380.541 67.1579 380.757 66.9404 380.882" fill="#1A162C"/>
<path d="M66.9641 386.864L64.8484 388.083C64.6309 388.207 64.2518 388.192 64.0014 388.047L62.0075 386.9C61.7571 386.756 61.7307 386.539 61.945 386.415L64.064 385.197C64.2782 385.072 64.6572 385.088 64.9077 385.229L66.9048 386.378C67.1552 386.523 67.1816 386.74 66.9641 386.864" fill="#1A162C"/>
<path d="M72.1544 383.879L70.0354 385.098C69.8212 385.222 69.4421 385.207 69.1917 385.062L67.1946 383.915C66.9441 383.772 66.9177 383.555 67.1353 383.431L69.251 382.212C69.4685 382.088 69.8475 382.103 70.098 382.244L72.0918 383.393C72.3423 383.538 72.3719 383.755 72.1544 383.879" fill="#1A162C"/>
<path d="M71.8904 389.698L69.7713 390.915C69.5571 391.041 69.1781 391.024 68.9276 390.88L66.9306 389.734C66.6801 389.589 66.6537 389.37 66.8712 389.245L68.987 388.027C69.2045 387.902 69.5835 387.918 69.8339 388.063L71.8278 389.212C72.0782 389.356 72.1046 389.573 71.8904 389.698" fill="#1A162C"/>
<path d="M42.0323 366.553L39.9133 367.772C39.6958 367.896 39.3201 367.879 39.0696 367.736L37.0725 366.589C36.822 366.445 36.7957 366.229 37.0132 366.1L39.1289 364.886C39.3464 364.76 39.7254 364.774 39.9759 364.918L41.9697 366.067C42.2202 366.212 42.2465 366.429 42.0323 366.553" fill="#1A162C"/>
<path d="M41.7663 372.371L39.6506 373.589C39.4331 373.715 39.0541 373.698 38.8036 373.554L36.8098 372.408C36.5593 372.263 36.533 372.043 36.7505 371.918L38.8662 370.704C39.0837 370.575 39.4627 370.592 39.7132 370.737L41.707 371.886C41.9575 372.03 41.9838 372.246 41.7663 372.371Z" fill="#1A162C"/>
<path d="M46.9561 369.386L44.8404 370.605C44.6229 370.729 44.2439 370.714 43.9934 370.569L41.9963 369.423C41.7491 369.279 41.7195 369.058 41.937 368.934L44.0527 367.715C44.2702 367.591 44.6492 367.607 44.8997 367.752L46.8935 368.902C47.144 369.045 47.1736 369.262 46.9561 369.386" fill="#1A162C"/>
<path d="M46.6929 375.205L44.5771 376.42C44.3596 376.544 43.9806 376.531 43.7301 376.386L41.733 375.237C41.4825 375.094 41.4562 374.877 41.6737 374.751L43.7895 373.534C44.007 373.408 44.386 373.425 44.6364 373.57L46.6303 374.715C46.8807 374.86 46.9104 375.081 46.6929 375.205" fill="#1A162C"/>
<path d="M51.8798 372.221L49.7641 373.435C49.5466 373.564 49.1676 373.547 48.9171 373.402L46.9233 372.253C46.6728 372.109 46.6465 371.893 46.8607 371.767L48.9798 370.55C49.194 370.424 49.5762 370.441 49.8234 370.586L51.8205 371.731C52.071 371.876 52.0973 372.095 51.8798 372.221" fill="#1A162C"/>
<path d="M51.9029 378.203L49.7872 379.418C49.5697 379.546 49.1906 379.529 48.9402 379.385L46.9463 378.236C46.6959 378.091 46.6695 377.875 46.8837 377.75L49.0028 376.532C49.217 376.408 49.596 376.424 49.8465 376.568L51.8436 377.714C52.0941 377.858 52.1204 378.079 51.9029 378.203" fill="#1A162C"/>
<path d="M77.0781 386.714L74.9624 387.931C74.7449 388.056 74.3659 388.04 74.1154 387.895L72.1217 386.75C71.8712 386.605 71.8415 386.386 72.059 386.26L74.1748 385.045C74.3923 384.921 74.7712 384.934 75.0217 385.079L77.0188 386.228C77.2693 386.371 77.2956 386.588 77.0781 386.714" fill="#1A162C"/>
<path d="M82.2649 383.729L80.1491 384.947C79.9316 385.072 79.5526 385.056 79.3021 384.91L77.3084 383.765C77.0579 383.62 77.0315 383.401 77.249 383.275L79.3648 382.061C79.5823 381.936 79.9612 381.949 80.2117 382.094L82.2055 383.243C82.456 383.387 82.4824 383.604 82.2649 383.729Z" fill="#1A162C"/>
<path d="M87.4558 380.743L85.3399 381.962C85.1224 382.088 84.7434 382.071 84.4929 381.926L82.4992 380.781C82.2487 380.636 82.219 380.416 82.4365 380.291L84.5523 379.076C84.7698 378.952 85.1488 378.965 85.3992 379.109L87.3931 380.259C87.6436 380.402 87.6733 380.619 87.4558 380.743Z" fill="#1A162C"/>
<path d="M82.0016 389.547L79.8858 390.765C79.6683 390.886 79.2894 390.873 79.0389 390.728L77.0451 389.579C76.7946 389.435 76.7683 389.218 76.9858 389.094L79.1015 387.876C79.319 387.75 79.698 387.767 79.9485 387.912L81.9422 389.057C82.1927 389.202 82.2191 389.423 82.0016 389.547Z" fill="#1A162C"/>
<path d="M87.192 386.562L85.0761 387.781C84.8586 387.902 84.4797 387.889 84.2292 387.744L82.2321 386.594C81.9816 386.451 81.9553 386.234 82.1728 386.108L84.2885 384.891C84.506 384.765 84.8851 384.782 85.1355 384.927L87.1293 386.072C87.3798 386.217 87.4095 386.438 87.192 386.562" fill="#1A162C"/>
<path d="M97.3289 359.346L95.2098 360.565C94.9922 360.689 94.6133 360.672 94.3662 360.529L92.369 359.382C92.1185 359.237 92.0922 359.02 92.3097 358.896L94.4254 357.678C94.643 357.553 95.022 357.57 95.2724 357.715L97.2662 358.86C97.5167 359.005 97.5431 359.222 97.3289 359.346" fill="#1A162C"/>
<path d="M97.0622 365.164L94.9465 366.383C94.729 366.507 94.35 366.492 94.0995 366.346L92.1057 365.2C91.8552 365.056 91.8289 364.839 92.0464 364.715L94.1621 363.497C94.3796 363.372 94.7586 363.385 95.0091 363.529L97.0029 364.678C97.2534 364.823 97.2797 365.04 97.0622 365.164Z" fill="#1A162C"/>
<path d="M102.253 362.18L100.137 363.398C99.9194 363.523 99.5404 363.506 99.2899 363.362L97.2928 362.215C97.0423 362.072 97.016 361.851 97.2335 361.727L99.3492 360.512C99.5667 360.386 99.9457 360.4 100.196 360.544L102.19 361.693C102.44 361.838 102.47 362.055 102.253 362.18" fill="#1A162C"/>
<path d="M101.989 367.999L99.8736 369.216C99.6561 369.341 99.277 369.325 99.0266 369.18L97.0295 368.035C96.779 367.89 96.7526 367.67 96.9702 367.545L99.0859 366.327C99.3034 366.202 99.6824 366.218 99.9329 366.363L101.927 367.512C102.177 367.654 102.207 367.873 101.989 367.999" fill="#1A162C"/>
<path d="M107.176 365.014L105.061 366.231C104.843 366.357 104.464 366.34 104.214 366.195L102.22 365.05C101.969 364.905 101.943 364.686 102.157 364.56L104.276 363.342C104.49 363.217 104.869 363.234 105.12 363.379L107.117 364.528C107.367 364.669 107.394 364.889 107.176 365.014" fill="#1A162C"/>
<path d="M92.5339 350.428L90.4182 351.647C90.2007 351.771 89.8217 351.754 89.5712 351.611L87.5774 350.464C87.3269 350.321 87.3006 350.1 87.5148 349.975L89.6338 348.76C89.848 348.635 90.227 348.648 90.4775 348.793L92.4746 349.942C92.7251 350.087 92.7514 350.304 92.5339 350.428" fill="#1A162C"/>
<path d="M92.2707 356.246L90.1549 357.465C89.9374 357.589 89.5584 357.574 89.3079 357.429L87.3141 356.279C87.0636 356.135 87.034 355.918 87.2515 355.793L89.3705 354.575C89.5848 354.45 89.9638 354.467 90.2142 354.611L92.2114 355.757C92.4618 355.902 92.4882 356.122 92.2707 356.246" fill="#1A162C"/>
<path d="M97.4612 353.262L95.3422 354.481C95.128 354.602 94.749 354.59 94.4952 354.444L92.5014 353.295C92.2509 353.15 92.2246 352.934 92.4421 352.809L94.5578 351.591C94.7753 351.466 95.1543 351.483 95.4048 351.627L97.3986 352.773C97.6491 352.918 97.6754 353.138 97.4612 353.262" fill="#1A162C"/>
<path d="M102.385 356.096L100.269 357.311C100.052 357.435 99.6728 357.423 99.4223 357.277L97.4285 356.128C97.178 355.985 97.1484 355.768 97.3659 355.642L99.4817 354.425C99.6992 354.299 100.078 354.316 100.329 354.461L102.322 355.606C102.573 355.751 102.602 355.971 102.385 356.096" fill="#1A162C"/>
<path d="M107.199 370.996L105.084 372.214C104.866 372.339 104.487 372.322 104.237 372.177L102.243 371.032C101.992 370.887 101.966 370.668 102.18 370.543L104.299 369.325C104.513 369.2 104.892 369.216 105.143 369.361L107.14 370.51C107.39 370.651 107.417 370.872 107.199 370.996" fill="#1A162C"/>
<path d="M112.389 368.012L110.27 369.23C110.056 369.354 109.677 369.338 109.427 369.193L107.43 368.043C107.179 367.903 107.153 367.683 107.37 367.559L109.486 366.34C109.704 366.215 110.083 366.231 110.333 366.376L112.327 367.525C112.577 367.67 112.604 367.887 112.389 368.012" fill="#1A162C"/>
<path d="M112.126 373.829L110.007 375.044C109.79 375.169 109.411 375.155 109.16 375.012L107.166 373.863C106.916 373.718 106.889 373.501 107.107 373.376L109.223 372.158C109.44 372.034 109.819 372.05 110.07 372.194L112.064 373.34C112.314 373.484 112.34 373.705 112.126 373.829" fill="#1A162C"/>
<path d="M117.313 370.845L115.197 372.059C114.98 372.185 114.601 372.171 114.35 372.027L112.356 370.878C112.106 370.733 112.076 370.516 112.294 370.392L114.41 369.173C114.627 369.049 115.006 369.066 115.256 369.209L117.254 370.356C117.501 370.5 117.53 370.72 117.313 370.845" fill="#1A162C"/>
<path d="M122.501 367.86L120.385 369.075C120.167 369.2 119.788 369.186 119.538 369.042L117.544 367.893C117.294 367.749 117.267 367.532 117.485 367.407L119.601 366.189C119.818 366.065 120.197 366.081 120.448 366.225L122.441 367.371C122.692 367.515 122.718 367.736 122.501 367.86Z" fill="#1A162C"/>
<path d="M127.691 364.876L125.575 366.09C125.358 366.215 124.979 366.202 124.728 366.058L122.731 364.909C122.481 364.764 122.454 364.547 122.672 364.423L124.788 363.204C125.005 363.08 125.384 363.095 125.635 363.24L127.628 364.387C127.879 364.53 127.908 364.751 127.691 364.876" fill="#1A162C"/>
<path d="M122.237 373.676L120.121 374.894C119.904 375.018 119.525 375.002 119.274 374.86L117.28 373.711C117.03 373.567 117.004 373.35 117.218 373.225L119.337 372.007C119.554 371.883 119.933 371.899 120.184 372.043L122.178 373.189C122.428 373.334 122.454 373.551 122.237 373.676" fill="#1A162C"/>
<path d="M127.428 370.691L125.312 371.909C125.094 372.034 124.715 372.017 124.465 371.876L122.468 370.727C122.218 370.582 122.191 370.365 122.409 370.241L124.524 369.022C124.742 368.898 125.121 368.914 125.371 369.058L127.365 370.205C127.616 370.35 127.645 370.566 127.428 370.691" fill="#1A162C"/>
<path d="M96.6303 22.9762C100.374 26.381 103.393 30.5805 104.823 35.4268C106.474 41.0217 106.949 48.406 102.226 55.554C93.9543 68.0801 82.7823 64.5734 80.1458 63.5129C79.813 63.3816 79.6186 63.0368 79.6746 62.6822C80.0107 60.479 80.716 52.2246 76.5537 47.0894C72.5891 42.1971 67.2997 42.4828 66.1067 42.5485C65.8761 42.5583 65.7047 42.4992 65.5366 42.3416C63.9745 40.8903 55.9794 32.7738 61.4501 23.577C67.3261 13.6973 81.9518 8.62444 93.6907 13.1982C94.0169 13.3263 94.0103 13.8056 93.6907 13.9435C92.379 14.5149 90.4676 15.8971 92.5998 18.688C93.8093 20.2673 95.289 21.758 96.6303 22.9762" fill="#1A162C"/>
<path d="M91.8919 13.7364C91.2493 14.2584 90.8208 14.8856 90.6363 15.5948C90.3364 16.7571 90.6989 18.0212 91.7172 19.3576C92.8015 20.7694 94.2021 22.2634 95.8828 23.7901C99.7716 27.3264 102.497 31.4569 103.759 35.7384C105.855 42.8371 105.028 49.2989 101.304 54.943C93.8165 66.2839 84.0188 63.8049 80.8089 62.5868C81.0626 60.712 81.9458 51.9781 77.4177 46.393C74.6593 42.9914 70.6849 41.2381 66.1865 41.4384C64.4596 39.7967 57.4895 32.4058 62.4032 24.1414C67.9068 14.8855 81.122 10.3315 91.8919 13.7364V13.7364ZM86.7937 65.8538C91.6349 65.857 97.9755 64.0019 103.156 56.1579C107.2 50.0343 108.146 42.755 105.888 35.1146C104.511 30.4456 101.568 25.967 97.3757 22.1583C95.7938 20.7202 94.4822 19.3247 93.4836 18.0179C93.0783 17.4893 92.6301 16.7374 92.7817 16.1497C92.9366 15.5587 93.6978 15.1482 94.1361 14.9545C94.6997 14.7083 95.0556 14.1501 95.0424 13.5328C95.0292 12.9221 94.6602 12.3902 94.0966 12.1702C82.1469 7.51105 66.7599 12.4788 60.495 23.012C54.6092 32.9114 63.0293 41.5238 64.7793 43.149C65.1682 43.5102 65.6394 43.6777 66.1667 43.6514C70.0126 43.4544 73.3279 44.8663 75.6909 47.7819C79.1084 51.9978 79.1149 59.0276 78.5778 62.5145C78.4459 63.3813 78.9205 64.2121 79.7345 64.5371C80.71 64.9311 83.3762 65.8538 86.7937 65.8538" fill="#1A162C"/>
<path d="M2.10358 45.1781L12.5077 98.9829C12.9691 101.363 19.6822 105.028 21.7848 103.803L47.3616 84.1289C49.1907 83.0651 50.1563 80.9736 49.7773 78.8985L44.9163 25.9144C44.478 23.5143 36.7401 21.1568 34.6276 22.3848L4.50936 39.8984C2.66385 40.972 1.69823 43.0866 2.10358 45.1781" fill="#1A162C"/>
<path d="M36.3088 23.1467C37.6336 23.1467 39.7296 23.5834 41.5817 24.4305C43.3152 25.2251 43.7897 25.9146 43.826 26.1116L48.6705 79.0005C48.9802 80.7111 48.2223 82.3495 46.8019 83.1737L21.1064 102.93C20.9021 103.041 19.7321 103.012 17.8503 102.161C15.527 101.114 13.7441 99.5348 13.5958 98.7763L3.19499 44.9681C2.87862 43.3429 3.63336 41.688 5.06693 40.854L35.185 23.3405C35.4091 23.2124 35.8046 23.1467 36.3088 23.1467V23.1467ZM20.6912 105.149C21.291 105.149 21.8611 105.038 22.3422 104.759L48.041 85.0025C50.1436 83.7876 51.33 81.2266 50.8687 78.7017L46.0208 25.8129C45.7835 24.4929 44.607 23.3864 42.5078 22.4244C40.3162 21.4197 36.0848 20.2606 34.0679 21.4328L3.95299 38.9431C1.70212 40.2532 0.522337 42.8405 1.01667 45.3884L11.4174 99.1933C11.8359 101.347 15.0821 103.337 16.9342 104.174C17.8668 104.594 19.3499 105.149 20.6912 105.149" fill="#1A162C"/>
<path d="M7.42915 47.1812L17.8333 100.986C18.2947 103.367 20.9772 104.581 23.0798 103.36L52.6872 86.132C54.5162 85.0682 55.4818 82.9767 55.1028 80.9016L45.2029 26.7979C44.7646 24.3977 42.0655 23.1598 39.9531 24.3911L9.83493 41.9015C7.98941 42.9751 7.02709 45.0896 7.42915 47.1812" fill="#00AFEF"/>
<path d="M41.7293 25.0117C42.0721 25.0117 42.4147 25.0873 42.741 25.235C43.4693 25.5699 43.967 26.2102 44.112 26.9949L54.0085 81.1019C54.3051 82.714 53.5472 84.3525 52.1268 85.1766L22.5195 102.405C21.8307 102.805 21.02 102.845 20.2982 102.519C19.5732 102.191 19.0722 101.557 18.9239 100.779L8.51989 46.9711C8.20352 45.3458 8.95819 43.6909 10.3951 42.857L40.5099 25.3434C40.8922 25.1234 41.3075 25.0117 41.7293 25.0117ZM21.2968 104.943C22.1108 104.943 22.9182 104.732 23.6366 104.312L53.2473 87.0875C55.4685 85.7939 56.6549 83.2295 56.1935 80.7046L46.2936 26.5976C46.0234 25.1168 45.0413 23.8593 43.6704 23.2289C42.2994 22.5985 40.7011 22.6739 39.3927 23.4357L9.27781 40.946C7.03023 42.2561 5.85045 44.8434 6.33819 47.388V47.3913L16.7456 101.196C17.029 102.664 18.0144 103.912 19.3821 104.529C19.9917 104.805 20.6443 104.943 21.2968 104.943" fill="#1A162C"/>
<path d="M12.8633 47.3159L22.4567 96.1759C22.5687 96.7374 23.2015 97.0231 23.6958 96.7341L49.309 81.8341C49.7111 81.5977 49.9253 81.1381 49.8396 80.6817L40.6582 31.5852C40.5527 31.0205 39.9167 30.7283 39.419 31.0205L13.3873 46.1536C12.982 46.39 12.771 46.8563 12.8633 47.3159" fill="white"/>
<path d="M39.6401 32.1695L48.749 80.8851L23.472 95.5881L13.9511 47.1056L39.6401 32.1695ZM23.2775 97.9521C23.617 97.9521 23.9532 97.8635 24.2564 97.6895L49.8695 82.7862C50.6736 82.3199 51.0987 81.3907 50.9274 80.4812L41.7492 31.3814C41.6338 30.7642 41.2219 30.2388 40.6485 29.9761C40.0751 29.7167 39.406 29.7463 38.8623 30.0648L12.8306 45.2012C12.0199 45.6707 11.5948 46.6065 11.7727 47.5259V47.5291L21.3695 96.3893C21.4914 97 21.9033 97.522 22.4734 97.7814C22.7305 97.8963 23.004 97.9521 23.2775 97.9521" fill="#1A162C"/>
<path d="M6.93827 44.8564L7.73907 43.356L3.12194 40.9133L2.32113 42.4137L6.93827 44.8564Z" fill="#00AFEF"/>
<path d="M37.2808 26.24L38.0816 24.7395L33.4612 22.2965L32.6637 23.7971L37.2808 26.24Z" fill="#00AFEF"/>
<path d="M119.686 72.8539C121.795 79.8771 129.995 108.59 130.222 131.587C130.252 134.431 99.7844 151.36 99.0561 154.111C96.0604 165.439 90.5568 185.005 90.5568 185.005L92.4287 158.905L105.917 106.824L118.602 72.8342C118.793 72.3187 119.528 72.3285 119.686 72.8539" fill="#00AFEF"/>
<path d="M129.112 131.466C128.235 133.058 119.097 138.903 113.023 142.787C101.722 150.017 98.3775 152.342 97.9853 153.832C96.4495 159.637 94.2349 167.682 92.452 174.104L93.5264 159.082L106.992 107.1L119.083 74.7191C121.888 84.2934 128.871 110.203 129.112 131.466ZM88.6753 195.804L91.6281 185.304C91.6809 185.107 97.1647 165.6 100.127 154.394C100.767 153.251 108.544 148.28 114.223 144.645C127.494 136.158 131.35 133.413 131.333 131.578C131.106 108.719 123.173 80.6127 120.748 72.5389C120.54 71.8395 119.934 71.3733 119.205 71.3503C118.424 71.3175 117.818 71.7673 117.564 72.4502L104.88 106.44L91.3217 158.826L88.6753 195.804" fill="#1A162C"/>
<path d="M82.4036 357.57C82.4036 357.57 85.4552 364.215 85.0301 372.46C84.928 374.467 83.5241 376.186 81.5896 376.755L75.0577 378.685C73.0507 379.276 70.8756 378.708 69.419 377.207L66.8056 374.519C65.3984 373.067 63.5694 372.095 61.5789 371.734C60.142 371.475 58.7875 370.893 57.6077 370.04L45.1571 361.001C43.4368 359.753 42.9227 357.311 44.1915 355.61C45.2197 354.23 46.9597 352.819 49.9059 352.106C56.7772 350.445 69.1685 353.137 69.1685 353.137L82.4036 357.57" fill="#1A162C"/>
<path d="M81.5759 358.456C82.2086 360.026 84.2683 365.707 83.9223 372.404C83.8465 373.93 82.7821 375.251 81.276 375.698L74.7409 377.624C73.1228 378.104 71.3893 377.651 70.2194 376.439L67.5994 373.751C66.0241 372.125 64.0105 371.051 61.7761 370.647C60.5106 370.418 59.2979 369.899 58.2598 369.148L45.8091 360.108C45.173 359.648 44.7413 358.942 44.626 358.174C44.5205 357.481 44.682 356.802 45.0808 356.267C46.2013 354.766 47.9117 353.725 50.1658 353.18C56.7141 351.601 68.8088 354.192 68.9308 354.215L81.5759 358.456ZM73.4491 380.021C74.0917 380.021 74.7376 379.93 75.3736 379.743L81.9054 377.815C84.3112 377.106 86.0118 374.978 86.137 372.52C86.5687 364.097 83.5401 357.389 83.4115 357.107L83.2138 356.673L69.5207 352.089C68.8912 351.946 56.6844 349.332 49.6418 351.033C46.8702 351.706 44.738 353.019 43.3011 354.95C42.5431 355.964 42.2367 357.225 42.4311 358.509C42.6421 359.856 43.3967 361.089 44.5041 361.894L56.9547 370.93C58.2565 371.878 59.7889 372.532 61.3806 372.821C63.1537 373.143 64.7553 373.997 66.0076 375.288L68.6243 377.976C69.9129 379.306 71.6563 380.021 73.4491 380.021" fill="#1A162C"/>
<path d="M120.269 335.262C120.269 335.262 123.291 348.892 124.586 353.055C125.206 355.044 124.972 357.208 124.122 359.113C123.631 360.213 122.649 361.021 121.469 361.287L113.695 363.057C111.711 363.51 109.661 362.649 108.596 360.925C106.487 357.862 103.94 354.575 100.928 352.034L93.0149 345.369C93.0149 345.369 89.4986 342.142 91.2057 337.476C92.0592 335.144 96.5016 334.133 100.73 333.702C104.955 333.277 108.969 333.433 108.969 333.433L120.269 335.262Z" fill="#1A162C"/>
<path d="M119.35 336.232C120.003 339.147 122.392 349.729 123.526 353.384C124.043 355.035 123.895 356.909 123.111 358.664C122.761 359.441 122.056 360.022 121.222 360.209L113.448 361.98C111.926 362.327 110.357 361.668 109.543 360.348C107.763 357.764 105.044 354.057 101.643 351.19L93.734 344.525C93.6516 344.446 90.824 341.744 92.2477 337.857C92.4981 337.173 93.8361 335.512 100.843 334.803C104.942 334.388 108.887 334.537 108.927 334.537L119.35 336.232ZM112.631 364.281C113.066 364.281 113.504 364.232 113.942 364.133L121.717 362.364C123.226 362.019 124.505 360.971 125.134 359.563C126.139 357.32 126.321 354.891 125.645 352.727C124.379 348.656 121.384 335.161 121.354 335.022L121.193 334.291L109.147 332.343C108.844 332.324 104.87 332.176 100.618 332.606C94.4623 333.226 91.0448 334.698 90.1649 337.097C88.2271 342.394 92.0994 346.029 92.2674 346.179L100.21 352.878C103.406 355.57 106.007 359.119 107.684 361.552C108.739 363.263 110.634 364.281 112.631 364.281" fill="#1A162C"/>
<path d="M47.085 191.703C53.1192 186.259 67.8767 195.709 78.004 203.477C80.7162 185.123 118.447 200.292 118.447 200.292C118.447 200.292 114.433 249.494 115.893 262.578C117.353 275.659 123.918 284.018 123.555 312.729C123.265 335.433 123.443 344.272 123.529 346.981C123.549 347.644 123.239 348.238 122.672 348.586C120.378 349.991 114.034 353.036 107.779 348.477C107.371 348.179 107.104 347.716 107.035 347.214C106.207 341.104 99.8503 300.689 95.8297 291.288C92.8176 284.249 92.0134 275.597 91.8289 270.219C91.7037 266.616 91.1072 263.061 90.0098 259.623C89.0244 256.527 88.1115 248.332 87.2184 247.852C86.0518 249.944 86.0023 252.442 85.8409 254.856C85.3136 262.716 84.7962 269.45 84.3974 272.645C83.0627 283.293 87.0767 293.468 88.3521 306.913C89.4726 318.701 85.3828 352.828 84.3579 361.072C84.203 362.321 83.5043 363.402 82.4102 364.025C79.7177 365.555 74.1746 367.709 68.0448 364.288C66.7496 363.566 65.9192 362.219 65.9093 360.742C65.8566 352.106 65.471 319.815 62.6368 309.458C59.3544 297.467 58.6227 282.929 58.6227 282.929C58.6227 282.929 49.1843 241.692 47.1542 210.704C46.7753 204.909 44.8803 193.693 47.085 191.703" fill="white"/>
<path d="M86.7799 246.364L86.2493 247.317C85.0695 249.428 84.9212 251.809 84.7762 254.11L84.7334 254.781C84.1369 263.698 83.6524 269.663 83.2965 272.511C82.4495 279.265 83.715 285.903 85.053 292.94C85.8967 297.362 86.7667 301.936 87.2479 307.019C88.3684 318.813 84.1203 354.004 83.2569 360.94C83.1448 361.851 82.634 362.626 81.8596 363.066C79.3187 364.511 74.2172 366.468 68.5851 363.322C67.6261 362.787 67.0263 361.796 67.0197 360.735C66.9604 351.266 66.5484 319.561 63.7043 309.17C60.4911 297.425 59.7364 283.018 59.7299 282.873L59.7035 282.683C59.6079 282.273 50.2617 241.178 48.2613 210.635C48.1723 209.272 48.001 207.614 47.8164 205.848C47.3748 201.593 46.5508 193.673 47.8295 192.521C52.0017 188.758 62.4783 192.964 77.3282 204.351L78.8244 205.503L79.1012 203.638C79.5263 200.762 80.8808 198.706 83.2438 197.357C92.4022 192.123 113.062 199.439 117.274 201.025C116.74 207.729 113.425 250.437 114.792 262.699C115.293 267.208 116.41 271.227 117.587 275.481C119.976 284.098 122.685 293.862 122.445 312.716C122.158 335.378 122.332 344.253 122.421 347.014C122.428 347.208 122.375 347.47 122.092 347.644C119.874 349 114.107 351.719 108.435 347.585C108.274 347.47 108.162 347.276 108.135 347.067C107.532 342.62 101.056 300.689 96.8511 290.854C93.9741 284.134 93.1337 275.902 92.936 270.183C92.8075 266.437 92.1781 262.772 91.0675 259.292C90.6753 258.058 90.2798 255.884 89.8942 253.781C88.9682 248.7 88.6353 247.36 87.7422 246.88L86.7799 246.364ZM74.8565 367.227C78.3036 367.227 81.1774 365.998 82.9603 364.983C84.3478 364.196 85.2574 362.82 85.4584 361.207C86.6777 351.41 90.5698 318.534 89.4559 306.812C88.9648 301.624 88.0849 296.998 87.2314 292.525C85.8703 285.371 84.6938 279.192 85.4979 272.783C85.8604 269.897 86.3449 263.888 86.9447 254.928L86.9908 254.248C87.0468 253.329 87.1028 252.43 87.2215 251.569C87.3994 252.455 87.5708 253.394 87.7125 254.176C88.108 256.347 88.5199 258.593 88.9549 259.958C90.0029 263.251 90.5962 266.715 90.7214 270.259C90.9257 276.165 91.8023 284.685 94.8112 291.721C98.6373 300.666 104.942 340.01 105.937 347.362C106.046 348.166 106.478 348.899 107.127 349.368C113.883 354.297 120.655 351.119 123.252 349.526C124.152 348.974 124.672 348.009 124.636 346.941C124.55 344.197 124.376 335.361 124.662 312.742C124.906 293.577 122.033 283.218 119.726 274.894C118.52 270.543 117.478 266.788 116.994 262.453C115.563 249.629 119.511 200.87 119.551 200.381L119.617 199.57L118.862 199.268C117.821 198.848 93.2425 189.096 82.1397 195.439C79.7043 196.832 78.0796 198.88 77.292 201.55C61.8028 189.913 51.3888 186.331 46.34 190.882C44.3791 192.655 44.7778 198.05 45.6116 206.078C45.7896 207.811 45.961 209.44 46.0499 210.776C48.0141 240.789 57.0176 280.867 57.5185 283.083C57.5943 284.384 58.4281 298.292 61.5655 309.748C64.3404 319.883 64.7457 351.344 64.8017 360.748C64.8116 362.603 65.8465 364.327 67.5008 365.25C70.101 366.701 72.6023 367.227 74.8565 367.227" fill="#1A162C"/>
<path d="M102.362 62.0777C102.362 62.0777 111.566 56.4171 117.314 66.5004C123.058 76.587 121.143 101.662 118.681 124.557C116.473 145.072 123.931 185.94 125.506 194.218C125.678 195.111 125.226 195.984 124.409 196.395L112.927 202.154C99.6033 208.494 85.027 211.781 70.2628 211.781C65.0525 211.781 59.9115 210.608 55.2186 208.349L54.1903 207.854C48.4989 205.115 43.9972 200.407 41.5288 194.608C41.5288 194.608 56.0293 163.538 56.0293 142.547C56.0293 121.56 48.9932 83.3475 62.3502 76.0354C75.7104 68.7233 88.0391 73.5892 88.0391 73.5892L102.362 62.0777" fill="#1A162C"/>
<path d="M108.224 61.5985C108.893 61.5985 109.592 61.674 110.3 61.8545C112.703 62.4784 114.739 64.2219 116.348 67.0456C121.835 76.6791 120.049 101.465 117.577 124.443C115.352 145.134 122.886 186.367 124.418 194.421C124.494 194.829 124.296 195.216 123.911 195.406L112.429 201.169C99.3589 207.384 84.7695 210.677 70.2624 210.677C65.2498 210.677 60.2175 209.528 55.6993 207.358L54.6743 206.862C49.3652 204.304 45.1469 199.974 42.7444 194.622C44.6031 190.56 57.1394 162.408 57.1394 142.547C57.1394 137.415 56.7242 131.302 56.2826 124.83C54.994 105.839 53.3891 82.2017 62.8836 77.0041C75.6375 70.0203 87.5113 74.5678 87.63 74.6171L88.2331 74.8535L102.994 62.9873C103.356 62.7838 105.555 61.5985 108.224 61.5985V61.5985ZM70.2624 212.887C85.099 212.887 100.018 209.518 113.405 203.152L124.909 197.38C126.178 196.743 126.857 195.39 126.597 194.011C125.074 186.009 117.59 145.062 119.782 124.676C122.418 100.178 124.059 76.1077 118.275 65.9555C116.354 62.5835 113.85 60.4821 110.831 59.7105C106.125 58.5154 101.956 61.0304 101.781 61.1355L101.666 61.2176L87.8245 72.3417C85.0891 71.4355 73.9271 68.4377 61.8159 75.0669C51.0822 80.9442 52.6707 104.338 54.0713 124.978C54.5063 131.413 54.9182 137.491 54.9182 142.547C54.9182 163.055 40.6682 193.837 40.5232 194.146L40.3156 194.589L40.51 195.042C43.0838 201.087 47.7701 205.992 53.7055 208.849L54.737 209.344C59.5518 211.663 64.9203 212.887 70.2624 212.887Z" fill="#1A162C"/>
<path d="M98.3078 63.5852C98.7692 64.3437 98.176 64.544 97.5301 65.1547C94.7387 67.7879 86.3515 73.8721 71.683 69.5872L71.2249 59.0246C71.2249 58.8735 71.1293 58.7389 70.9843 58.6864L63.2958 55.9513C63.2958 55.9513 56.7804 47.2044 58.4809 28.5843L60.4649 20.6844L77.1701 19.5549L90.1974 33.0989L92.4417 47.0763C93.203 51.8175 95.8032 59.481 98.3078 63.5852" fill="white"/>
<path d="M97.2338 63.9463C97.224 63.9561 97.2107 63.966 97.2009 63.9726C97.0657 64.0875 96.9174 64.209 96.7691 64.3502C94.0404 66.9211 86.309 72.4142 72.7544 68.7433L72.3325 58.9785C72.3325 58.4072 71.9404 57.8524 71.357 57.6455L64.0112 55.0319C63.0127 53.4691 58.1253 44.8961 59.5787 28.7682L61.3418 21.7319L76.7288 20.691L89.1564 33.6112L91.3479 47.2503C92.0763 51.7978 94.6007 59.5203 97.2338 63.9463V63.9463ZM81.4546 72.1843C90.4845 72.1843 95.9947 68.1228 98.2917 65.9557C98.4071 65.8474 98.5158 65.7587 98.618 65.6734C99.0695 65.3023 100.121 64.429 99.2573 63.0105C96.7131 58.8439 94.2448 51.3151 93.5362 46.9023L91.2392 32.5835L77.612 18.4189L59.5853 19.6371L57.3773 28.4825C55.6603 47.3061 62.1295 56.2369 62.403 56.6079L62.6073 56.8772L70.1377 59.5597L70.6089 70.4244L71.3702 70.6477C75.1206 71.7443 78.4787 72.1843 81.4546 72.1843" fill="#1A162C"/>
<path d="M95.6322 64.1924C97.3262 62.3734 100.019 61.638 102.246 62.7445C103.14 63.1878 104.207 63.2304 105.183 64.3205C109.5 69.1373 94.2085 83.3938 74.7746 77.9729C71.7624 77.1324 68.6548 76.6366 65.5372 76.387L62.4426 76.1408C62.38 76.1375 62.3338 76.0948 62.3503 76.0357C62.5777 75.3166 63.7674 72.4699 68.1406 69.3146C69.5314 68.3099 71.4033 68.4478 72.8566 69.3573C74.7318 70.5327 78.4195 70.6673 84.0055 69.7119C90.7284 68.5627 94.1756 65.7586 95.6322 64.1924Z" fill="#1A162C"/>
<path d="M99.9985 63.329C100.608 63.329 101.205 63.4604 101.752 63.7329C102.062 63.8872 102.388 64.0021 102.727 64.117C103.363 64.337 103.864 64.5078 104.355 65.0561C105.393 66.2118 104.378 68.1359 103.894 68.9107C100.447 74.4169 88.9057 80.7703 75.0709 76.909C72.184 76.1013 69.007 75.5563 65.6258 75.287L63.9846 75.1557C64.6569 74.0131 66.0443 72.1908 68.7896 70.2077C69.7321 69.528 71.0965 69.5642 72.2664 70.2931C74.4118 71.6392 78.3137 71.8067 84.193 70.802C91.2356 69.597 94.8937 66.6157 96.4459 64.9445C97.4181 63.8971 98.7297 63.329 99.9985 63.329V63.329ZM83.4911 80.2876C94.2841 80.2876 102.773 74.8799 105.776 70.0796C107.358 67.5515 107.443 65.1841 106.01 63.5851C105.133 62.6067 104.2 62.2849 103.449 62.0288C103.202 61.9467 102.965 61.868 102.74 61.7563C100.18 60.4824 96.9271 61.1785 94.8179 63.4407C93.4568 64.9084 90.214 67.5317 83.8174 68.6251C77.2921 69.7382 74.5733 69.1307 73.4462 68.4248C71.5051 67.21 69.1686 67.2067 67.4911 68.4182C62.6829 71.8888 61.4833 75.0966 61.2921 75.704L61.1307 76.2162L61.7404 77.1586L62.3566 77.2439L65.4512 77.4902C68.6874 77.7463 71.7226 78.2684 74.4777 79.0367C77.6019 79.9067 80.6273 80.2876 83.4911 80.2876" fill="#1A162C"/>
<path d="M97.7905 205.772C105.888 194.615 103.208 172.754 103.093 171.829L100.892 172.108C100.921 172.324 103.574 194.028 95.9912 204.479L97.7905 205.772" fill="#00AFEF"/>
<path d="M12.1454 58.1182C14.2348 54.2733 15.1212 52.2015 17.7643 53.7283L18.8551 55.2255C20.0481 56.8672 20.8687 58.7519 21.2576 60.7417C21.452 61.7267 21.5344 62.7281 21.5114 63.7328L21.3993 68.3493L20.0877 68.6316L22.3781 68.1358C22.3781 68.1358 23.291 64.14 25.6605 63.2305C28.0333 62.321 28.5968 66.1396 28.5968 66.1396L28.7122 68.937C28.3365 73.0445 27.3083 77.07 25.6605 80.8557L13.6251 84.4609C13.6251 84.4609 11.7664 79.1123 9.94391 75.6614C8.11816 72.2073 9.7726 62.4785 12.1454 58.1182" fill="white"/>
<path d="M24.8461 79.9494L14.3134 83.1015C13.6807 81.3711 12.3064 77.7627 10.9256 75.1458C9.34369 72.1547 10.8828 62.7576 13.1172 58.6435L13.4961 57.9442C14.4782 56.1252 15.3284 54.5524 16.0337 54.3521C16.271 54.2897 16.594 54.362 17.0126 54.5787L17.9583 55.8756C19.0492 57.3761 19.817 59.1327 20.1697 60.955C20.3476 61.8612 20.4234 62.7871 20.4036 63.7032L20.3113 67.4528L19.85 67.5514L20.3212 69.7118L23.3004 69.0683L23.4586 68.382C23.663 67.4922 24.5858 64.8261 26.0589 64.2614C26.3621 64.1465 26.4873 64.2154 26.5466 64.2483C27.0475 64.5405 27.4166 65.7291 27.5023 66.3004L27.6045 68.9796C27.2584 72.6734 26.3291 76.4034 24.8461 79.9494V79.9494ZM12.926 85.8267L26.4741 81.7684L26.6784 81.2956C28.3756 77.3949 29.4302 73.271 29.8158 69.0354L29.707 66.0935C29.6543 65.7028 29.2489 63.26 27.6638 62.3406C27.1629 62.0484 26.3422 61.7857 25.2646 62.1994C24.0815 62.6525 23.2148 63.6343 22.5985 64.6587L22.6182 63.759C22.6446 62.6821 22.5557 61.5953 22.3448 60.5315C21.9328 58.3973 21.0331 56.3386 19.7511 54.5787L18.5252 52.891L18.3209 52.7728C17.2564 52.1588 16.3139 51.975 15.4307 52.2278C13.8191 52.6809 12.9161 54.3587 11.5452 56.9L11.1694 57.5928C8.8164 61.9203 6.85225 72.1809 8.96142 76.1735C10.7245 79.5127 12.5569 84.7694 12.5766 84.822L12.926 85.8267" fill="#1A162C"/>
<path d="M44.583 64.7867C40.1966 64.6587 37.6821 65.8801 37.6788 68.9238L38.4335 70.6147C39.2607 72.4698 40.4833 74.1213 42.0157 75.4544C42.7737 76.1143 41.1325 74.9717 42.0157 75.4544L47.8753 80.1299C47.8753 80.1299 43.947 78.9118 41.9663 80.4976C39.989 82.0868 43.0209 84.4902 43.0209 84.4902L45.3904 85.9907C49.1473 87.7309 53.1548 88.8604 57.2709 89.343L66.4392 80.7767C66.4392 80.7767 62.7284 76.4919 60.6456 73.1889C58.5628 69.8858 49.5593 64.9312 44.583 64.7867" fill="white"/>
<path d="M64.9137 80.6916L56.8891 88.1843C53.0662 87.6819 49.3586 86.6083 45.8587 84.9896L43.6145 83.558C43.1861 83.2034 42.405 82.3234 42.405 81.7718C42.405 81.7029 42.405 81.565 42.6621 81.3581C43.9045 80.3633 46.6728 80.9149 47.5461 81.1841L53.1519 82.9243L42.728 74.6075C41.3339 73.3927 40.2003 71.8561 39.4456 70.1684L38.7931 68.7041C38.8326 67.9916 39.06 67.4432 39.4852 67.0328C40.3321 66.212 42.0689 65.8114 44.5537 65.8902C49.2631 66.0281 57.8645 70.8514 59.7067 73.7768C61.2853 76.2788 63.7273 79.2765 64.9137 80.6916V80.6916ZM57.6536 90.499L67.9753 80.8591L67.2799 80.0546C67.2437 80.0152 63.5989 75.7961 61.5853 72.6014C59.2092 68.8321 49.6948 63.8315 44.6163 63.6838C41.4756 63.6083 39.2643 64.1664 37.9428 65.4469C37.0332 66.3269 36.5719 67.4958 36.5719 68.924V69.1604L37.4188 71.0648C38.2065 72.8247 39.3435 74.4434 40.7375 75.7863C40.8397 75.9931 41.0242 76.2098 41.3372 76.4265C41.4724 76.5217 41.6042 76.5973 41.7262 76.6498L44.1781 78.6001C43.1498 78.6855 42.1051 78.9711 41.2713 79.6377C40.3749 80.36 40.1871 81.2005 40.1904 81.7784C40.1937 83.6073 42.1117 85.18 42.3325 85.354L44.7943 86.9235C48.7918 88.7851 52.9047 89.9442 57.1395 90.4399L57.6536 90.499" fill="#1A162C"/>
<path d="M68.068 93.4871C68.068 93.4871 63.998 120.053 46.0042 144.54C42.6723 149.075 38.5627 152.998 34.0346 156.351C32.1726 157.73 29.5263 157.241 28.2839 155.29L26.903 153.974C24.283 151.475 22.2464 148.435 20.938 145.066C20.0779 142.856 19.544 140.531 19.3528 138.167L13.2659 89.9902C13.111 88.0793 14.2842 86.3096 16.11 85.7054L23.9996 83.082C25.0971 82.7208 26.2538 83.4432 26.3922 84.5891C27.0513 90.115 28.8276 98.9769 31.1345 109.024C33.4117 118.943 33.3228 137.189 33.3228 137.189C33.3228 137.189 43.5555 89.0873 54.4804 80.4487C65.4052 71.8101 70.2529 83.9751 68.068 93.4871" fill="#1A162C"/>
<path d="M61.2891 78.6064C62.1196 78.6064 62.9402 78.81 63.7081 79.2926C66.8323 81.2528 68.3021 87.511 66.9872 93.2405L66.9707 93.3193C66.9311 93.582 62.726 119.918 45.1112 143.89C42.0232 148.093 38.0719 151.987 33.3757 155.464C32.7232 155.947 31.9157 156.131 31.1281 155.983C30.3306 155.835 29.6517 155.379 29.2199 154.696L29.0486 154.492L27.6677 153.176C25.1829 150.802 23.2121 147.86 21.973 144.668C21.1524 142.554 20.6416 140.334 20.4571 138.075L14.3669 89.852C14.2581 88.4927 15.1182 87.199 16.4628 86.7525L24.3524 84.1324C24.6391 84.0371 24.8566 84.1356 24.9654 84.2046C25.0708 84.2735 25.2554 84.4278 25.2916 84.7201C25.9145 89.9242 27.559 98.4118 30.0537 109.27C32.2749 118.949 32.2156 137.002 32.2123 137.182L32.1629 147.971L34.4072 137.419C34.5093 136.939 44.6794 89.6057 55.1692 81.3119C56.8829 79.9591 59.1338 78.6064 61.2891 78.6064V78.6064ZM31.6488 158.239C32.7396 158.239 33.814 157.89 34.6972 157.237C39.5746 153.629 43.6776 149.577 46.9007 145.194C64.5089 121.228 68.9579 94.9282 69.159 93.6969C70.4706 87.9214 69.4226 80.2678 64.8912 77.4244C62.7655 76.088 59.1107 75.3788 53.7917 79.5815C45.4869 86.1483 37.7917 113.847 34.2589 128.248C34.0216 122.17 33.4778 114.277 32.2156 108.774C29.7374 97.9948 28.106 89.5861 27.4931 84.4574C27.3876 83.584 26.8999 82.8091 26.1518 82.3396C25.407 81.8668 24.4941 81.7585 23.6505 82.0343L15.7609 84.6544C13.4441 85.426 11.9643 87.6554 12.1621 90.0786L18.2523 138.305C18.45 140.725 19.007 143.151 19.9034 145.466C21.2611 148.96 23.4165 152.177 26.1353 154.771L27.4272 155.999C28.1884 157.125 29.3814 157.907 30.7227 158.153C31.0292 158.212 31.339 158.239 31.6488 158.239" fill="#1A162C"/>
<path d="M95.7373 12.5578C99.4843 15.9627 102.5 20.1654 103.93 25.0084C105.584 30.6066 106.056 37.9876 101.336 45.1356C93.0613 57.665 81.8893 54.155 79.2562 53.0978C78.9233 52.9632 78.7289 52.6184 78.7816 52.2671C79.1211 50.0606 79.823 41.8062 75.6607 36.671C71.6962 31.782 66.4067 32.0644 65.2137 32.1301C64.983 32.1432 64.8117 32.0841 64.6436 31.9265C63.0815 30.472 55.0865 22.3554 60.5571 13.1587C66.4331 3.28227 81.0589 -1.79384 92.801 2.7832C93.1272 2.90797 93.1173 3.38735 92.7977 3.52854C91.4893 4.09985 89.5746 5.48213 91.7068 8.26973C92.9163 9.84903 94.396 11.3397 95.7373 12.5578" fill="#1A162C"/>
<path d="M91.0018 3.31835C90.3559 3.84041 89.9275 4.4708 89.743 5.18001C89.4431 6.34232 89.8056 7.60645 90.8272 8.9395C91.9082 10.3546 93.3087 11.8453 94.9895 13.3753C98.8815 16.9115 101.604 21.042 102.869 25.3203C104.965 32.4222 104.138 38.8839 100.411 44.5281C92.9231 55.8689 83.1254 53.3899 79.9155 52.1684C80.1693 50.2871 81.0492 41.5599 76.5244 35.9781C73.766 32.5765 69.7685 30.8199 65.2932 31.0202C63.5663 29.3753 56.5994 21.9811 61.5131 13.7234C67.0167 4.46752 80.2286 -0.0865097 91.0018 3.31835V3.31835ZM85.9036 55.4387C90.7415 55.4387 97.0822 53.5869 102.263 45.7429C106.306 39.6161 107.252 32.3401 104.995 24.6964C103.617 20.0308 100.674 15.5489 96.4857 11.7402C94.9038 10.3021 93.5921 8.90992 92.5903 7.59985C92.1882 7.07451 91.7368 6.32264 91.8917 5.73492C92.0466 5.14063 92.8045 4.7302 93.2428 4.53976C93.8064 4.29351 94.1623 3.73535 94.1491 3.11479C94.1392 2.50736 93.7668 1.97216 93.2033 1.75218C81.2569 -2.90366 65.8699 2.06082 59.605 12.5972C53.7224 22.4867 62.1393 31.1056 63.8859 32.7341C64.2748 33.092 64.7296 33.2693 65.2734 33.2332C69.1522 33.0198 72.4379 34.4546 74.7975 37.3637C78.215 41.5796 78.2216 48.6093 77.6877 52.0995C77.5526 52.963 78.0272 53.7937 78.8412 54.1221C79.82 54.5128 82.4861 55.4387 85.9036 55.4387" fill="#1A162C"/>
<path d="M76.2545 14.5542C78.5581 9.57988 86.7772 9.73748 90.2013 10.0395L90.3958 7.83966C85.5612 7.41939 77.029 7.60654 74.2409 13.6283L76.2545 14.5542" fill="#00AFEF"/>
<path d="M83.4415 47.9956C92.1649 47.9956 93.5062 40.6967 93.5194 40.6179L91.3344 40.2436C91.285 40.5259 89.9964 47.0894 80.7458 45.5495L80.3799 47.7264C81.4905 47.9135 82.5056 47.9956 83.4415 47.9956" fill="#00AFEF"/>
<path d="M94.3069 53.3474C103.726 47.2962 105.423 39.531 105.492 39.2059L103.32 38.7561C103.304 38.8283 101.696 45.9697 93.1041 51.4923L94.3069 53.3474" fill="#00AFEF"/>
<path d="M84.5685 80.3696C93.104 80.3696 97.5827 77.1815 101.287 74.5482C101.768 74.2034 102.239 73.8685 102.711 73.5468C102.865 73.4417 103.01 73.3366 103.152 73.2315C105.726 71.337 106.84 68.0733 106 64.9081L103.857 65.4761C104.464 67.7581 103.67 70.1024 101.837 71.4552L101.455 71.7245C100.974 72.0528 100.493 72.3975 99.995 72.7489C95.7965 75.7368 91.0278 79.1285 80.3271 77.9038C68.3312 76.5346 64.4358 74.9488 64.3963 74.9323L63.5263 76.9647C63.6878 77.0337 67.649 78.682 80.0733 80.1004C81.6881 80.2843 83.1811 80.3696 84.5685 80.3696" fill="#00AFEF"/>
<path d="M56.4608 129.821C56.9584 128.852 68.6213 105.898 69.175 93.5362C69.3463 89.6552 69.2211 86.4934 68.796 84.1326L66.6143 84.5233C67.0098 86.7199 67.1251 89.7209 66.9604 93.4377C66.4298 105.32 54.6054 128.586 54.4834 128.819L56.4608 129.821Z" fill="#00AFEF"/>
<path d="M34.4959 133.781C34.6771 129.01 35.679 123.415 35.6889 123.359L33.5072 122.965C33.4644 123.201 32.4658 128.77 32.2813 133.695L34.4959 133.781Z" fill="#00AFEF"/>
<path d="M87.1229 251.927C89.7857 241.841 92.4814 225.479 92.5078 225.315L90.3196 224.96C90.2932 225.121 87.6139 241.38 84.9808 251.365L87.1229 251.927" fill="#1A162C"/>
<path d="M15.7108 95.3684L26.2433 92.3345L25.6271 90.2134L15.0945 93.244L15.7108 95.3684Z" fill="#00AFEF"/>
<path d="M96.1687 340.874C97.9582 336.744 105.172 337.558 105.248 337.567L105.512 335.374C105.149 335.329 96.5674 334.373 94.1353 339.998L96.1687 340.874" fill="#00AFEF"/>
<path d="M50.4927 359.655C52.8919 353.679 60.2278 354.335 60.297 354.346L60.5178 352.149C57.4101 351.824 50.842 352.832 48.4363 358.834L50.4927 359.655Z" fill="#00AFEF"/>
<path d="M55.9174 236.255C58.2276 236.255 60.2939 235.664 62.0999 234.479C68.7471 230.118 69.2316 219.366 69.248 218.909L67.0334 218.827C67.0301 218.926 66.5687 228.907 60.874 232.641C58.109 234.449 54.4608 234.506 50.0283 232.807L49.234 234.866C51.6431 235.792 53.8742 236.255 55.9174 236.255" fill="#1A162C"/>
<path d="M108.138 281.534C116.404 279.209 118.556 271.811 118.645 271.496L116.506 270.902C116.433 271.168 114.575 277.43 107.535 279.406L108.138 281.534" fill="#1A162C"/>
<path d="M72.5438 296.076C85.5876 294.929 85.9105 285.822 85.9105 285.729L83.6926 285.681C83.6827 285.975 83.3367 292.91 72.346 293.876L72.5438 296.076" fill="#1A162C"/>
<path d="M65.0719 243.446C65.039 243.459 54.157 247.629 53.2607 247.97C53.1684 248.006 53.0695 247.974 53.0102 247.892L44.3922 230.568C44.3823 230.551 44.3692 230.538 44.3527 230.526L24.2761 219.303C24.2134 219.254 24.1838 219.175 24.197 219.096L30.2839 180.664C30.2938 180.605 30.2773 180.543 30.2444 180.497L27.3904 176.662C27.3015 176.543 27.3442 176.376 27.4826 176.323C28.5867 175.906 38.9579 171.947 39.0864 171.911L39.1259 171.901C39.8773 171.7 40.7176 171.812 41.4097 172.367L70.4206 196.201C72.2859 197.698 73.2054 200.075 72.8297 202.433L66.6472 241.472C66.4956 242.411 65.8794 243.097 65.1115 243.426L65.0719 243.446" fill="white"/>
<path d="M64.6697 242.418C64.5412 242.468 56.2957 245.626 53.6296 246.648L45.0347 229.656L25.3866 218.66L31.3779 180.835C31.4372 180.497 31.3483 180.129 31.1374 179.84L28.9754 176.938L30.7683 176.255C33.9057 175.06 39.162 173.057 39.4455 172.958C39.686 172.896 40.22 172.83 40.711 173.224L69.7153 197.055C71.2774 198.309 72.0485 200.299 71.7354 202.259L65.5529 241.298C65.4705 241.801 65.1509 242.208 64.6697 242.411L65.0718 243.447L64.6697 242.418ZM53.1814 249.09C53.3429 249.09 53.5077 249.06 53.6659 248.998C54.5557 248.66 65.4508 244.487 65.4837 244.474L65.6222 244.405C66.7229 243.935 67.5435 242.891 67.7412 241.643L73.9237 202.607C74.362 199.866 73.2877 197.081 71.1126 195.341L42.1116 171.514C41.1856 170.771 39.9959 170.528 38.8391 170.834C38.6941 170.873 38.6446 170.886 29.9773 174.193L27.0904 175.293C26.6982 175.44 26.4049 175.756 26.2896 176.156C26.1742 176.554 26.2533 176.99 26.5038 177.322L29.1303 180.855L23.1028 218.922C23.027 219.372 23.2016 219.848 23.5674 220.15L23.7355 220.265L43.5386 231.337L52.1235 248.555C52.3838 248.903 52.7761 249.09 53.1814 249.09" fill="#1A162C"/>
<path d="M53.02 247.888L44.4021 230.566C44.389 230.549 44.3758 230.536 44.3626 230.522L54.8261 205.546L72.3947 198.818C72.8659 199.941 73.0373 201.185 72.8396 202.43L66.6538 241.469C66.5055 242.409 65.886 243.091 65.1181 243.423L65.0818 243.443C65.0489 243.455 54.1669 247.625 53.2705 247.967C53.1749 248.004 53.0793 247.97 53.02 247.888" fill="#00AFEF"/>
<path d="M71.6932 200.273C71.8316 200.926 71.848 201.599 71.7459 202.256L65.5601 241.296C65.481 241.797 65.158 242.205 64.6802 242.409C64.6571 242.422 56.3226 245.617 53.6368 246.644L45.589 230.463L55.6668 206.406L71.6932 200.273ZM53.2017 249.087C53.3599 249.087 53.5214 249.058 53.6763 248.995C54.5628 248.656 65.3854 244.51 65.4777 244.476L65.6524 244.392C66.7333 243.931 67.5506 242.887 67.7484 241.641L73.9342 202.604C74.1616 201.192 73.9836 199.734 73.42 198.391L73.0015 197.403L53.9861 204.682L43.0119 230.877L43.5359 231.281L52.134 248.551C52.391 248.896 52.7898 249.087 53.2017 249.087" fill="#1A162C"/>
<path d="M58.7279 200.801L29.6149 176.882C28.066 175.641 25.7459 176.531 25.4328 178.487L19.2306 217.655C18.8681 219.934 19.7546 222.232 21.5605 223.677L50.6703 247.593C52.2225 248.837 54.5392 247.947 54.8523 245.991L61.0579 206.823C61.4204 204.544 60.5339 202.246 58.7279 200.801" fill="#1A162C"/>
<path d="M28.0034 177.413C28.3297 177.413 28.6494 177.525 28.9229 177.745L58.0327 201.661C59.5223 202.856 60.2638 204.767 59.9639 206.652L53.7584 245.816C53.6727 246.349 53.3332 246.768 52.829 246.962C52.3215 247.156 51.7909 247.074 51.3658 246.732L22.2659 222.823C20.7631 221.621 20.0249 219.71 20.3248 217.825L26.5303 178.661C26.6127 178.129 26.9555 177.709 27.4597 177.515C27.6377 177.446 27.8222 177.413 28.0034 177.413V177.413ZM52.2885 249.274C52.7367 249.274 53.1882 249.192 53.6265 249.024C54.8722 248.545 55.739 247.475 55.9466 246.161L62.1522 206.997C62.5773 204.337 61.5326 201.635 59.43 199.944L30.3202 176.031C29.2755 175.19 27.9078 174.974 26.6621 175.456C25.4164 175.933 24.5497 177.003 24.3421 178.316L18.1365 217.481C17.7114 220.143 18.7561 222.849 20.8653 224.537L49.9685 248.446C50.6473 248.991 51.4613 249.274 52.2885 249.274Z" fill="#1A162C"/>
<path d="M54.0088 235.769L55.0767 234.447L22.2825 208.159C21.8343 207.811 21.2806 207.998 21.0302 208.195L20.4995 208.616L21.0862 209.84L21.5344 209.742L54.0088 235.769" fill="#00AFEF"/>
<path d="M44.1189 212.073C45.536 216.637 48.8282 219.674 51.4746 218.86C54.1176 218.042 55.1129 213.682 53.6925 209.121C52.2754 204.557 48.9832 201.52 46.3401 202.334C43.6938 203.152 42.7018 207.512 44.1189 212.073" fill="#00AFEF"/>
<path d="M47.2199 203.31C47.9845 203.31 48.8644 203.73 49.7213 204.521C50.9703 205.674 52.0051 207.424 52.6345 209.446C53.264 211.472 53.4024 213.498 53.0267 215.15C52.7037 216.568 52.0149 217.533 51.1449 217.803C49.3884 218.335 46.4982 215.997 45.1767 211.748C44.5472 209.722 44.4088 207.696 44.7878 206.045C45.1107 204.626 45.7963 203.661 46.6663 203.392C46.841 203.336 47.0255 203.31 47.2199 203.31ZM50.588 220.094C50.9966 220.094 51.402 220.039 51.8007 219.914C53.4749 219.398 54.6778 217.881 55.1886 215.642C55.65 213.613 55.4951 211.183 54.7535 208.793C54.0087 206.406 52.7597 204.311 51.2306 202.899C49.5367 201.34 47.6846 200.768 46.0105 201.281C44.3396 201.796 43.1367 203.313 42.6259 205.552C42.1645 207.581 42.3194 210.011 43.0576 212.401C44.4846 216.992 47.622 220.094 50.588 220.094" fill="#1A162C"/>
<path d="M29.6944 220.009C30.7885 223.526 33.3261 225.867 35.366 225.24C37.406 224.609 38.1705 221.25 37.0797 217.731C35.9856 214.214 33.448 211.87 31.408 212.5C29.3681 213.127 28.6035 216.49 29.6944 220.009" fill="#00AFEF"/>
<path d="M32.0934 213.501C33.349 213.501 35.1353 215.212 36.0185 218.059C36.4831 219.556 36.5919 221.109 36.315 222.324C36.0876 223.325 35.623 224.005 35.0397 224.182C33.7841 224.57 31.7276 222.816 30.7554 219.681C29.7799 216.548 30.4918 213.938 31.7342 213.554C31.8496 213.521 31.9682 213.501 32.0934 213.501ZM34.6903 226.444C35.0298 226.444 35.366 226.395 35.6955 226.293C37.0731 225.87 38.065 224.632 38.477 222.813C38.8461 221.207 38.7241 219.287 38.1375 217.402C36.8423 213.242 33.7445 210.629 31.0784 211.443C28.4156 212.267 27.3412 216.171 28.6363 220.334C29.77 223.982 32.2912 226.444 34.6903 226.444" fill="#1A162C"/>
<path d="M35.9787 203.786C37.6825 208.878 41.5515 212.296 44.6164 211.423C47.6813 210.546 48.7854 205.71 47.0782 200.621C45.3744 195.528 41.5087 192.11 38.4438 192.983C35.3789 193.86 34.2749 198.696 35.9787 203.786Z" fill="white"/>
<path d="M39.4597 193.949C41.8095 193.949 44.6766 196.934 46.0278 200.969C47.0197 203.937 47.023 206.945 46.0311 208.823C45.596 209.64 45.0193 210.159 44.3141 210.359C41.8523 211.075 38.5205 207.894 37.0309 203.438C36.0389 200.47 36.0389 197.459 37.0309 195.584C37.4659 194.766 38.0426 194.248 38.7479 194.047C38.9786 193.982 39.2158 193.949 39.4597 193.949V193.949ZM43.6254 212.664C44.0637 212.664 44.4987 212.605 44.9238 212.484C46.2157 212.116 47.2769 211.206 47.992 209.854C49.2773 207.424 49.33 203.842 48.1304 200.269C46.2124 194.537 41.8259 190.872 38.1382 191.923C36.8463 192.291 35.7851 193.2 35.07 194.553C33.7847 196.983 33.732 200.565 34.9283 204.137C36.6255 209.207 40.2573 212.664 43.6254 212.664Z" fill="#1A162C"/>
<path d="M70.9647 185.99C73.3441 182.611 129.046 102.71 110.673 61.1947L108.646 62.0845C126.515 102.464 69.7255 183.905 69.1488 184.722L70.9647 185.99Z" fill="#00AFEF"/>
<path d="M68.2031 189.122C70.0256 190.291 72.4544 189.769 73.6309 187.95L75.9807 184.315C77.1539 182.5 76.6299 180.08 74.8041 178.908C72.9817 177.739 70.5529 178.261 69.3763 180.08L67.0266 183.714C65.8533 185.53 66.3807 187.953 68.2031 189.122Z" fill="#1A162C"/>
<path d="M72.685 179.39C73.2057 179.39 73.7363 179.535 74.2076 179.837C75.5126 180.674 75.8916 182.418 75.0479 183.718L72.6982 187.353C71.8579 188.653 70.1145 189.034 68.8029 188.193C68.1701 187.786 67.7318 187.159 67.5736 186.427C67.4154 185.694 67.5505 184.943 67.9592 184.312L70.309 180.677C70.8494 179.843 71.7557 179.39 72.685 179.39V179.39ZM70.3189 190.849C71.9765 190.849 73.6012 190.038 74.5635 188.551L76.9132 184.913C78.416 182.588 77.7404 179.479 75.4072 177.978C73.0673 176.478 69.9497 177.154 68.4436 179.482L66.0939 183.117C65.3656 184.243 65.1217 185.586 65.4051 186.893C65.6918 188.206 66.4729 189.326 67.6032 190.052C68.4436 190.59 69.3862 190.849 70.3189 190.849" fill="#00AFEF"/>
<path d="M96.9633 135.606C98.789 136.778 101.218 136.253 102.391 134.437L104.741 130.799C105.917 128.983 105.39 126.564 103.568 125.395C101.745 124.222 99.313 124.748 98.1398 126.564L95.79 130.198C94.6135 132.017 95.1408 134.437 96.9633 135.606Z" fill="#1A162C"/>
<path d="M101.445 125.874C101.969 125.874 102.497 126.019 102.968 126.321C104.273 127.161 104.652 128.901 103.808 130.202L101.462 133.84C100.618 135.14 98.8683 135.514 97.5665 134.68C96.9304 134.273 96.4954 133.646 96.3373 132.91C96.1758 132.178 96.3142 131.43 96.7195 130.799L99.0726 127.161C99.6098 126.331 100.519 125.874 101.445 125.874V125.874ZM99.0791 137.336C99.4383 137.336 99.7976 137.297 100.157 137.222C101.472 136.936 102.596 136.161 103.324 135.035L105.674 131.4C106.402 130.274 106.646 128.931 106.362 127.621C106.079 126.311 105.298 125.191 104.168 124.466C101.831 122.965 98.71 123.641 97.2072 125.966L94.8575 129.601C94.1292 130.727 93.8853 132.07 94.1687 133.38C94.4554 134.69 95.2332 135.81 96.3636 136.535C97.1875 137.064 98.1234 137.336 99.0791 137.336Z" fill="#00AFEF"/>
<path d="M105.647 114.737C107.762 115.213 109.865 113.893 110.343 111.785L115.474 89.2413C115.952 87.1333 114.627 85.0385 112.511 84.5591C110.396 84.0831 108.293 85.403 107.812 87.5109L102.684 110.055C102.206 112.163 103.531 114.257 105.647 114.737Z" fill="#1A162C"/>
<path d="M111.642 85.5673C111.85 85.5673 112.057 85.5903 112.265 85.6362C113 85.8037 113.626 86.2437 114.028 86.8774C114.43 87.5111 114.559 88.2629 114.391 88.9951L109.263 111.542C108.92 113.049 107.411 113.995 105.891 113.66C104.375 113.315 103.423 111.808 103.766 110.298L108.894 87.754C109.19 86.4538 110.357 85.5673 111.642 85.5673ZM106.514 115.939C108.815 115.939 110.897 114.356 111.425 112.028L116.556 89.4844C116.852 88.1776 116.622 86.8314 115.903 85.6986C115.185 84.5658 114.068 83.7778 112.756 83.4823C110.054 82.8683 107.348 84.5691 106.732 87.2648L101.604 109.812C100.991 112.508 102.695 115.2 105.4 115.814C105.776 115.896 106.148 115.939 106.514 115.939Z" fill="#00AFEF"/>
<path d="M117.814 214.92L116.668 232.866C116.526 235.066 115.227 236.869 113.504 237.259L103.828 239.456C102.299 239.804 100.892 238.324 100.892 236.366V218.285C100.892 215.865 102.309 213.813 104.21 213.475L114.98 211.558C116.562 211.278 117.943 212.914 117.814 214.92Z" fill="#1A162C"/>
<path d="M115.333 212.631C115.573 212.631 115.807 212.73 116.025 212.923C116.496 213.344 116.756 214.079 116.707 214.851L115.56 232.797C115.451 234.483 114.486 235.904 113.26 236.183L103.581 238.379C103.297 238.446 103.014 238.37 102.75 238.16C102.289 237.796 102.002 237.105 102.002 236.367V218.285C102.002 216.407 103.034 214.805 104.405 214.562L115.175 212.644C115.227 212.638 115.28 212.631 115.333 212.631V212.631ZM103.377 240.612C103.607 240.612 103.841 240.586 104.075 240.534L113.751 238.337C115.946 237.842 117.6 235.618 117.772 232.94L118.922 214.989C119.014 213.537 118.483 212.149 117.501 211.279C116.724 210.582 115.755 210.293 114.786 210.471L104.016 212.385C101.564 212.822 99.7844 215.301 99.7844 218.285V236.367C99.7844 237.785 100.374 239.099 101.366 239.887C101.966 240.366 102.661 240.612 103.377 240.612" fill="#1A162C"/>
<path d="M120.8 216.67L119.654 234.62C119.512 236.817 118.217 238.619 116.493 239.01L106.817 241.207C105.285 241.555 103.881 240.073 103.881 238.117V220.035C103.881 217.616 105.295 215.563 107.2 215.225L117.966 213.308C119.548 213.029 120.929 214.664 120.8 216.67Z" fill="#00AFEF"/>
<path d="M119.693 216.601L118.546 234.548C118.441 236.229 117.472 237.654 116.246 237.933L106.57 240.13C106.28 240.193 106 240.119 105.736 239.913C105.275 239.545 104.988 238.856 104.988 238.117V220.035C104.988 218.157 106.023 216.555 107.394 216.312L118.161 214.398C118.457 214.342 118.744 214.437 119.011 214.673C119.482 215.09 119.743 215.829 119.693 216.601ZM106.363 242.363C106.593 242.363 106.831 242.336 107.065 242.283L116.737 240.087C118.935 239.588 120.589 237.368 120.761 234.689L121.908 216.739C122 215.284 121.469 213.899 120.487 213.025C119.71 212.332 118.741 212.05 117.772 212.221L107.002 214.138C104.55 214.575 102.77 217.054 102.77 220.035V238.117C102.77 239.536 103.364 240.852 104.356 241.641C104.955 242.116 105.651 242.363 106.363 242.363" fill="#1A162C"/>
<path d="M100.967 217.553L101.386 215.386C101.132 215.337 95.1638 214.102 94.4948 208.517L92.2933 208.78C92.9821 214.545 98.2683 217.041 100.967 217.553" fill="#1A162C"/>
<path d="M24.1672 194.546L25.0636 188.879L22.8753 188.534L21.9789 194.204L24.1672 194.546Z" fill="#00AFEF"/>
</svg>
