<svg xmlns="http://www.w3.org/2000/svg" fill="none" viewBox="0 0 190 94"><rect width="188" height="91.643" x="1" y="1.179" fill="#fff" stroke="#000" stroke-width="2" rx="11"/><path fill="#2B2B2A" stroke="#2B2B2A" stroke-miterlimit="22.926" stroke-width=".169" d="M107.062 62.246c-.187-.187-.312-.499-.312-.873v-2.494c0-.757.407-1.496 1.247-1.496.374 0 .686.125.873.312.187.187.25.498.25.81l-.561.125c0-.25-.063-.374-.125-.499-.063-.124-.25-.188-.437-.188-.301 0-.561.175-.561.5v3.055c0 .256.23.498.499.498a.563.563 0 0 0 .436-.186c.063-.126.125-.312.125-.561l.561.124c0 .374-.124.623-.311.873-.397.397-1.293.392-1.684 0v0zm60.791-2.244v1.87c.642 0 1.146.07 1.201-.571.052-.615-.004-1.3-.764-1.3h-.437zm-18.829 0v1.87h.436c.187 0 .462 0 .525-.062.555-.278.571-1.46 0-1.746-.125-.062-.4-.062-.587-.062h-.374zm-102.317 0v1.87h.437c.187 0 .312 0 .374-.062.125-.063.187-.126.25-.187.062-.063.062-.187.124-.312v-.748c0-.125-.062-.187-.125-.312-.062-.062-.124-.125-.249-.187s-.25-.062-.437-.062h-.374v0zm14.777-1.809v3.367a.564.564 0 0 0 .437-.187.707.707 0 0 0 .187-.498v-1.996a.709.709 0 0 0-.187-.499.674.674 0 0 0-.437-.187v0zm-.623 0a.566.566 0 0 0-.437.187c-.124.125-.187.25-.187.499v1.995c0 .187.063.375.125.499.062.125.25.187.499.187v-3.367 0zm107.055-.25v1.622h.374c1.06 0 1.021-1.622 0-1.622h-.374zm-18.83 1.498h.062-.062zM28.252 62.433v-4.988h2.12v.498h-1.559v1.684h1.372v.5h-1.372v1.745h1.559v.499h-2.12v.062zm10.225 0h-.561v-4.49h-.873v-.56h2.245v.499h-.81v4.551zm8.792 0h-1.06v-4.988h.56v1.996h.437c.25 0 .5.061.686.124a.64.64 0 0 1 .374.312.674.674 0 0 1 .187.436c.063.187.063.374.063.561 0 .25 0 .437-.063.624-.062.186-.125.374-.187.498-.124.126-.25.25-.374.312a1.83 1.83 0 0 1-.623.125v0zm14.153 0h-.561v-.374c-.125 0-.312-.063-.437-.063a1.283 1.283 0 0 1-.374-.249c-.124-.124-.187-.187-.25-.374a1.174 1.174 0 0 1-.124-.498v-1.996c0-.187.063-.374.125-.499.062-.124.187-.249.25-.373.124-.125.249-.188.373-.25.125-.062.312-.062.437-.062v-.312h.561v.249c.125 0 .25.063.437.063.124.062.249.124.374.248.124.126.187.188.249.375.062.125.125.312.125.499v2.057h.062c0 .187-.062.375-.125.499-.062.125-.187.25-.311.374-.125.125-.25.188-.374.25-.125.062-.312.062-.437.062v.374zm10.724 0h-.561V58.88l-1.247 3.554h-.561v-4.988h.561V61l1.247-3.554h.561v4.988zm8.293 0h-.561v-4.49h-.873v-.56h2.244v.499h-.81v4.551zm9.477 0v-2.307h-1.122v2.307h-.561v-4.988h.56v2.182h1.185v-2.244h.562v4.988h-.624v.062zm7.856 0v-4.988h2.12v.498h-1.559v1.684h1.372v.5h-1.372v1.745h1.559v.499h-2.12v.062zm25.002 0h-.436l-.935-2.431-.499.935v1.434h-.561v-4.988h.561v2.494l1.184-2.494h.562l-.998 1.995 1.122 3.055v0zm26.811 0h-.998v-4.988h1.995v.498h-1.434v1.498c.399 0 .666-.009 1.06.124.842.28.856 2.32 0 2.743a1.83 1.83 0 0 1-.623.125v0zm18.705 0h-.935v-4.988h1.059c.437 0 .749.125.936.374.466.622.375 1.475-.312 1.933.49.121.615.81.615 1.238 0 .5-.178.82-.366 1.07-.187.248-.561.373-.997.373v0zm-38.657.063l-.25-.437c.18-.09.473-.382.561-.561.166-.333.188-.88.188-1.247v-2.868h2.119v4.988h-.561v-4.49h-.997v1.996c0 .803-.143 2.313-1.06 2.619zm9.976 0h-.312v-.437h.249c.433 0 .557-.6.624-.935l-1.06-3.679h.561l.748 2.744.686-2.806h.561l-.997 3.866c-.073.363-.23.793-.499 1.059-.101.102-.425.188-.561.188v0z"/><path fill="#2B2B2A" stroke="#2B2B2A" stroke-miterlimit="22.926" stroke-width=".169" d="M107.062 62.246c-.187-.187-.312-.499-.312-.873v-2.494c0-.757.406-1.496 1.247-1.496.374 0 .686.125.873.312.187.187.249.498.249.81l-.561.125c0-.388-.13-.687-.561-.687-.301 0-.561.175-.561.5v3.055c0 .256.23.498.499.498a.565.565 0 0 0 .436-.186c.062-.126.125-.312.125-.561l.561.124c0 .374-.125.623-.312.873-.396.397-1.292.392-1.683 0v0z"/><path fill="#2B2B2A" d="M155.883 35.249c0 .374.499.498.811.623.748.25 1.558.312 2.306.437 1.871.25 3.804.374 5.674.686.811.124 1.684.311 2.494.498.686.187 1.434.437 2.058.81 1.122.812 1.184 2.245.311 3.243-.81.873-2.369 1.434-3.616 1.683-1.496.312-3.055.375-4.551.437-3.118.125-6.235 0-9.353-.374-.81-.125-1.184-.187-1.184-.187l-1.06-1.684s.436.063 1.247.187c1.621.312 3.242.5 4.863.562 1.683.062 3.367.124 4.988-.063.935-.124 2.556-.311 2.681-1.496.187-1.31-1.372-1.621-2.307-1.808-2.993-.5-6.11-.437-9.103-1.247-1.122-.312-2.432-.811-2.556-2.12-.125-1.497 1.745-2.182 2.93-2.432 2.245-.498 4.552-.686 6.796-.686h.091c1.903.002 3.805.065 5.708.188 1.559.124 2.618.249 3.117.311l1.123 1.808-1.123-.187c-2.244-.436-4.489-.56-6.734-.56-1.122 0-2.244 0-3.429.124-.81.187-1.995.311-2.182 1.247zM19 43.666V32.443h19.291v1.496H25.51v3.056h10.724v1.434H25.51v5.237H19zm26.96 0v-6.921l-6.11 6.921h6.11zm2.494-9.727h6.796v9.727h6.173V33.94h7.357v-1.496H49.763l-1.309 1.496zm-8.604-1.496v7.17l6.11-7.17h-6.11zM141.729 39.8c0 .624-.187 2.494-4.613 2.494-4.49 0-4.614-1.87-4.614-2.494v-7.357h-6.111v7.295c0 1.933.562 3.928 10.662 3.928 9.103 0 10.6-2.182 10.6-4.053v-7.17h-5.986V39.8h.062zm-31.174-7.357h-.25l5.238 6.297h-8.979l-4.053 4.926h3.243l2.805-3.492h8.106l2.93 3.492h6.485l-9.478-11.223h-6.047zm-15.588 4.552h-8.978v-4.552h-6.173v11.223h6.173V38.43h8.978v5.237h6.048V32.443h-6.048v4.552z"/><path fill="#2B2B2A" fill-rule="evenodd" stroke="#2B2B2A" stroke-miterlimit="22.926" stroke-width=".339" d="M158.874 57.37h.333a.94.94 0 0 1 .938.937v3.276a.94.94 0 0 1-.938.938h-.333a.94.94 0 0 1-.938-.938v-3.276a.94.94 0 0 1 .938-.938zm.175.545h0c.351 0 .637.286.637.636v2.853c0 .35-.286.637-.637.637h0a.638.638 0 0 1-.636-.637v-2.853c0-.35.286-.636.636-.636z" clip-rule="evenodd"/><path fill="#2B2B2A" stroke="#2B2B2A" stroke-miterlimit="22.926" stroke-width=".169" d="M19.312 62.246c-.187-.187-.312-.499-.312-.873v-2.494c0-.757.406-1.496 1.247-1.496.374 0 .686.125.873.312.187.187.25.498.25.81l-.562.125c0-.388-.13-.687-.561-.687-.3 0-.561.175-.561.5v3.055c0 .256.23.498.499.498.451 0 .56-.36.56-.747l.562.124c0 .374-.125.623-.312.873-.396.397-1.292.392-1.683 0v0z"/></svg>