<svg width="176" height="36" viewBox="0 0 176 36" fill="none" xmlns="http://www.w3.org/2000/svg">
<path d="M102.967 34.6536C102.75 34.4368 102.606 34.076 102.606 33.642V30.7543C102.606 29.8785 103.076 29.0223 104.05 29.0223C104.483 29.0223 104.844 29.1668 105.06 29.3832C105.277 29.5998 105.349 29.9609 105.349 30.3218L104.7 30.4663C104.7 30.1773 104.627 30.0331 104.555 29.8886C104.483 29.7443 104.266 29.6712 104.05 29.6712C103.701 29.6712 103.4 29.874 103.4 30.2497V33.7872C103.4 34.0837 103.666 34.3639 103.978 34.3639C104.194 34.3639 104.338 34.2926 104.483 34.1481C104.555 34.003 104.627 33.7872 104.627 33.4985L105.277 33.642C105.277 34.076 105.133 34.3639 104.916 34.6536C104.457 35.1125 103.42 35.1067 102.967 34.6536V34.6536ZM173.357 32.0545V34.2204C174.1 34.2204 174.683 34.3011 174.747 33.5589C174.807 32.8467 174.742 32.0545 173.862 32.0545H173.357ZM151.554 32.0545V34.2204H152.059C152.276 34.2204 152.595 34.2204 152.667 34.1481C153.31 33.8261 153.328 32.458 152.667 32.1266C152.522 32.0545 152.204 32.0545 151.987 32.0545H151.554ZM33.0823 32.0545V34.2204H33.5879C33.8043 34.2204 33.9486 34.2204 34.0209 34.1481C34.1654 34.0759 34.2375 34.003 34.3097 33.9317C34.3818 33.8593 34.3818 33.7151 34.4542 33.5706V32.7043C34.4542 32.5593 34.3818 32.4875 34.3097 32.3433C34.2375 32.2711 34.1654 32.1988 34.0209 32.1266C33.8767 32.0545 33.7322 32.0545 33.5156 32.0545H33.0823V32.0545ZM50.1925 29.9609V33.8593C50.4091 33.8593 50.5534 33.7872 50.6979 33.642C50.8421 33.4985 50.9145 33.2811 50.9145 33.0652V30.7543C50.9145 30.5384 50.8421 30.3218 50.6979 30.1773C50.5534 30.0331 50.337 29.9609 50.1925 29.9609V29.9609ZM49.4707 29.9609C49.2539 29.9609 49.1096 30.0331 48.9652 30.1773C48.8209 30.3218 48.7487 30.4663 48.7487 30.7543V33.0652C48.7487 33.2811 48.8209 33.4985 48.893 33.642C48.9652 33.7872 49.182 33.8593 49.4707 33.8593V29.9609V29.9609ZM173.429 29.6712V31.5491H173.862C175.09 31.5491 175.045 29.6712 173.862 29.6712H173.429ZM151.626 31.4049H151.698H151.626ZM11.7129 34.8701V29.0945H14.1674V29.6712H12.3625V31.6213H13.9508V32.1988H12.3625V34.2204H14.1674V34.7979H11.7129V34.8701V34.8701ZM23.5526 34.8701H22.9028V29.6712H21.8923V29.0223H24.4914V29.5998H23.5526V34.8701ZM33.7322 34.8701H32.5048V29.0945H33.1547V31.4049H33.6598C33.9486 31.4049 34.2375 31.4762 34.4542 31.5491C34.6706 31.6213 34.815 31.7658 34.8874 31.91C35.0317 32.0545 35.1038 32.2711 35.1038 32.4156C35.1761 32.632 35.1761 32.8486 35.1761 33.0652C35.1761 33.3542 35.1761 33.5706 35.1038 33.7872C35.0316 34.003 34.9593 34.2204 34.8874 34.3639C34.7429 34.5092 34.5984 34.6536 34.4542 34.725C34.2375 34.7979 34.0209 34.8701 33.7322 34.8701V34.8701ZM50.1204 34.8701H49.4707V34.4368C49.3262 34.4368 49.1096 34.3639 48.9652 34.3639C48.8209 34.2926 48.6764 34.2204 48.5321 34.0759C48.3877 33.9317 48.3155 33.8593 48.2432 33.642C48.1712 33.4985 48.0989 33.2811 48.0989 33.0652V30.7543C48.0989 30.5384 48.1712 30.3218 48.2432 30.1773C48.3155 30.0331 48.46 29.8886 48.5321 29.7443C48.6764 29.5998 48.8209 29.5275 48.9652 29.4556C49.1096 29.3832 49.3262 29.3832 49.4707 29.3832V29.0223H50.1204V29.3105C50.2646 29.3105 50.4091 29.3832 50.6257 29.3832C50.7702 29.4556 50.9145 29.5275 51.0589 29.6712C51.2032 29.8166 51.2754 29.8886 51.3477 30.1054C51.4198 30.2497 51.492 30.4663 51.492 30.6829V33.0652H51.5641C51.5641 33.2811 51.492 33.4985 51.4198 33.642C51.3477 33.7872 51.2032 33.9317 51.0589 34.0759C50.9145 34.2204 50.7702 34.2926 50.6257 34.3639C50.4814 34.4368 50.2646 34.4368 50.1204 34.4368V34.8701ZM62.5378 34.8701H61.8879V30.7543L60.4442 34.8701H59.7944V29.0945H60.4442V33.2095L61.8879 29.0945H62.5378V34.8701ZM72.1396 34.8701H71.49V29.6712H70.4793V29.0223H73.0782V29.5998H72.1396V34.8701ZM83.1133 34.8701V32.1988H81.8138V34.8701H81.164V29.0945H81.8138V31.6213H83.1854V29.0223H83.8353V34.7979H83.1133V34.8701ZM92.2098 34.8701V29.0945H94.6645V29.6712H92.8595V31.6213H94.4479V32.1988H92.8595V34.2204H94.6645V34.7979H92.2098V34.8701V34.8701ZM121.16 34.8701H120.655L119.572 32.0545L118.994 33.1374V34.7979H118.344V29.0223H118.994V31.91L120.366 29.0223H121.015L119.86 31.3325L121.16 34.8701V34.8701ZM152.204 34.8701H151.048V29.0945H153.359V29.6712H151.698V31.4049C152.16 31.4049 152.469 31.3953 152.926 31.5491C153.9 31.8739 153.916 34.235 152.926 34.725C152.709 34.7979 152.492 34.8701 152.204 34.8701V34.8701ZM173.862 34.8701H172.779V29.0945H174.006C174.512 29.0945 174.873 29.2388 175.089 29.5275C175.629 30.2475 175.524 31.2347 174.728 31.7658C175.296 31.9061 175.44 32.7024 175.44 33.1992C175.44 33.7769 175.234 34.1481 175.017 34.4368C174.801 34.725 174.367 34.8701 173.862 34.8701V34.8701ZM129.101 34.9424L128.812 34.4368C129.02 34.332 129.359 33.9939 129.462 33.7872C129.654 33.402 129.679 32.7671 129.679 32.3433V29.0223H132.133V34.7979H131.484V29.5998H130.329V31.91C130.329 32.8405 130.163 34.5881 129.101 34.9424ZM140.652 34.9424H140.291V34.4368H140.58C141.081 34.4368 141.224 33.7423 141.302 33.3542L140.075 29.0945H140.725L141.591 32.2711L142.385 29.0223H143.035L141.88 33.4985C141.795 33.9192 141.613 34.4172 141.302 34.725C141.185 34.843 140.811 34.9424 140.652 34.9424V34.9424Z" fill="#2B2B2A" stroke="#2B2B2A" stroke-width="0.1693" stroke-miterlimit="22.9256"/>
<path d="M102.967 34.6536C102.75 34.4368 102.605 34.076 102.605 33.642V30.7543C102.605 29.8785 103.076 29.0223 104.049 29.0223C104.482 29.0223 104.844 29.1668 105.06 29.3832C105.277 29.5998 105.349 29.9609 105.349 30.3218L104.699 30.4663C104.699 30.0173 104.549 29.6712 104.049 29.6712C103.701 29.6712 103.4 29.874 103.4 30.2497V33.7872C103.4 34.0837 103.666 34.3639 103.977 34.3639C104.194 34.3639 104.338 34.2926 104.482 34.1481C104.555 34.003 104.627 33.7872 104.627 33.4985L105.277 33.642C105.277 34.076 105.132 34.3639 104.916 34.6536C104.457 35.1125 103.42 35.1067 102.967 34.6536V34.6536Z" fill="#2B2B2A" stroke="#2B2B2A" stroke-width="0.1693" stroke-miterlimit="22.9256"/>
<path d="M159.496 3.39325C159.496 3.82628 160.074 3.97075 160.435 4.11522C161.301 4.40397 162.239 4.47611 163.106 4.62059C165.272 4.90934 167.509 5.05381 169.676 5.4147C170.614 5.55898 171.625 5.77559 172.563 5.9922C173.357 6.20881 174.224 6.49756 174.946 6.93078C176.245 7.86937 176.317 9.52973 175.306 10.6847C174.368 11.6956 172.563 12.3453 171.119 12.634C169.387 12.9951 167.582 13.0673 165.849 13.1396C162.239 13.2839 158.63 13.1396 155.02 12.7064C154.081 12.5621 153.648 12.4898 153.648 12.4898L152.421 10.5405C152.421 10.5405 152.926 10.6128 153.865 10.7571C155.742 11.1181 157.619 11.3346 159.496 11.4069C161.445 11.479 163.394 11.5514 165.272 11.3346C166.354 11.1903 168.232 10.9739 168.376 9.60206C168.593 8.08578 166.788 7.72489 165.705 7.50828C162.239 6.93078 158.63 7.00292 155.164 6.06453C153.865 5.70345 152.349 5.12575 152.204 3.60967C152.06 1.87697 154.226 1.08306 155.598 0.794308C158.197 0.216808 160.868 0 163.467 0H163.572C165.775 0.00233333 167.978 0.0744727 170.181 0.216806C171.986 0.361084 173.213 0.505557 173.791 0.577502L175.09 2.67128L173.791 2.45467C171.191 1.94931 168.593 1.80503 165.994 1.80503C164.694 1.80503 163.394 1.80503 162.023 1.94931C161.084 2.16592 159.712 2.3102 159.496 3.39325V3.39325ZM1 13.1396V0.144473H23.337V1.87697H8.53706V5.4147H20.9545V7.07506H8.53706V13.1396H1ZM32.2169 13.1396V5.12575L25.1418 13.1396H32.2169ZM35.1046 1.87697H42.974V13.1396H50.1212V1.87697H58.64V0.144473H36.6207L35.1046 1.87697V1.87697ZM25.1418 0.144473V8.44687L32.2169 0.144473H25.1418ZM143.108 8.66348C143.108 9.38525 142.891 11.5514 137.765 11.5514C132.567 11.5514 132.423 9.38525 132.423 8.66348V0.144473H125.348V8.59134C125.348 10.8292 125.998 13.1396 137.693 13.1396C148.234 13.1396 149.966 10.6128 149.966 8.44687V0.144473H143.036V8.66348H143.108V8.66348ZM107.011 0.144473H106.722L112.786 7.43595H102.39L97.6975 13.1396H101.452L104.7 9.09651H114.086L117.479 13.1396H124.987L114.013 0.144473H107.011V0.144473ZM88.9618 5.4147H78.5659V0.144473H71.4185V13.1396H78.5659V7.07506H88.9618V13.1396H95.9648V0.144473H88.9618V5.4147Z" fill="#2B2B2A"/>
<path fill-rule="evenodd" clip-rule="evenodd" d="M162.959 29.0067H163.345C163.943 29.0067 164.431 29.4954 164.431 30.0927V33.8853C164.431 34.4827 163.943 34.9713 163.345 34.9713H162.959C162.362 34.9713 161.873 34.4827 161.873 33.8853V30.0927C161.873 29.4954 162.362 29.0067 162.959 29.0067ZM163.163 29.6381H163.163C163.568 29.6381 163.9 29.9696 163.9 30.375V33.6788C163.9 34.0842 163.568 34.416 163.163 34.416H163.163C162.757 34.416 162.426 34.0842 162.426 33.6788V30.375C162.426 29.9696 162.757 29.6381 163.163 29.6381Z" fill="#2B2B2A" stroke="#2B2B2A" stroke-width="0.3387" stroke-miterlimit="22.9256"/>
<path d="M1.36108 34.6536C1.14447 34.4368 1 34.076 1 33.642V30.7543C1 29.8785 1.47036 29.0223 2.44395 29.0223C2.87697 29.0223 3.23806 29.1668 3.45467 29.3832C3.67128 29.5998 3.74342 29.9609 3.74342 30.3218L3.09378 30.4663C3.09378 30.0173 2.94328 29.6712 2.44395 29.6712C2.0955 29.6712 1.79431 29.874 1.79431 30.2497V33.7872C1.79431 34.0837 2.06031 34.3639 2.37181 34.3639C2.89447 34.3639 3.02144 33.9472 3.02144 33.4985L3.67128 33.642C3.67128 34.076 3.52681 34.3639 3.3102 34.6536C2.85131 35.1125 1.81414 35.1067 1.36108 34.6536V34.6536Z" fill="#2B2B2A" stroke="#2B2B2A" stroke-width="0.1693" stroke-miterlimit="22.9256"/>
</svg>
