<svg xmlns="http://www.w3.org/2000/svg" fill="none" viewBox="0 0 30 30"><circle cx="15" cy="15" r="15" fill="#fff"/><circle cx="15" cy="15" r="12" fill="#333030"/><path fill="#fff" d="M8.653 10.212l1.81-1.808a1.373 1.373 0 0 1 1.948 0l1.947 1.947a1.373 1.373 0 0 1 0 1.95l-1.424 1.423a6.691 6.691 0 0 0 1.368 1.973 6.717 6.717 0 0 0 1.972 1.372l1.424-1.423a1.375 1.375 0 0 1 1.949 0l1.949 1.945a1.374 1.374 0 0 1 .404.975c0 .369-.144.716-.404.976l-1.806 1.806a2.233 2.233 0 0 1-1.936.621c-2.29-.377-4.561-1.595-6.395-3.427-1.831-1.83-3.048-4.1-3.43-6.396a2.236 2.236 0 0 1 .624-1.934z"/></svg>