<svg xmlns="http://www.w3.org/2000/svg" fill="none" viewBox="0 0 280 276"><g opacity=".29"><path fill="#252323" d="M200.76 266.497l-1.66.893c-.169.091-.466.08-.663-.025l-1.564-.842c-.195-.107-.218-.266-.047-.357l1.659-.895c.17-.091.467-.079.664.027l1.562.841c.197.106.218.266.049.358zM204.622 268.575l-1.659.895c-.17.091-.468.079-.663-.027l-1.565-.841c-.197-.106-.218-.266-.048-.359l1.659-.893c.171-.091.468-.079.665.025l1.563.843c.197.106.217.266.048.357zM200.553 270.766l-1.659.893c-.17.091-.468.081-.663-.026l-1.565-.841c-.195-.107-.218-.267-.048-.357l1.659-.894c.172-.093.468-.08.665.025l1.563.843c.197.104.218.266.048.357zM208.481 270.654l-1.659.893c-.171.093-.468.081-.665-.026l-1.563-.842c-.197-.105-.217-.264-.048-.356l1.659-.894c.17-.091.468-.08.663.025l1.565.843c.197.106.218.266.048.357zM204.415 272.845l-1.659.894c-.17.091-.468.078-.665-.026l-1.563-.843c-.197-.106-.218-.266-.048-.357l1.659-.893c.17-.092.468-.08.665.026l1.563.84c.197.107.217.267.048.359zM212.567 272.854l-1.659.893c-.17.093-.468.081-.665-.025l-1.563-.842c-.197-.105-.217-.266-.048-.357l1.659-.893c.17-.092.468-.081.663.025l1.565.842c.197.106.218.266.048.357zM208.499 275.046l-1.659.892c-.17.092-.468.08-.665-.025l-1.563-.842c-.197-.106-.218-.266-.048-.357l1.659-.895c.17-.091.468-.079.665.027l1.563.841c.197.106.217.266.048.359zM216.633 270.664l-1.659.894c-.171.091-.467.08-.664-.026l-1.563-.842c-.197-.106-.218-.266-.048-.357l1.659-.893c.17-.093.467-.081.663.025l1.564.842c.196.105.218.265.048.357zM220.702 268.473l-1.659.893c-.17.093-.466.081-.663-.025l-1.563-.841c-.197-.106-.218-.266-.048-.358l1.659-.894c.17-.091.468-.079.663.026l1.565.842c.195.106.217.266.046.357zM224.767 266.284l-1.66.893c-.169.091-.466.08-.662-.026l-1.564-.842c-.196-.106-.217-.266-.048-.357l1.66-.893c.169-.093.466-.081.663.025l1.564.843c.195.106.218.265.047.357zM228.836 264.094l-1.659.893c-.17.091-.466.079-.663-.025l-1.565-.843c-.195-.106-.218-.266-.046-.357l1.659-.894c.169-.092.466-.08.663.026l1.563.841c.197.106.217.266.048.359zM232.906 261.903l-1.659.893c-.17.092-.468.08-.663-.026l-1.565-.842c-.195-.105-.217-.266-.046-.357l1.659-.893c.17-.091.466-.081.663.025l1.563.843c.197.106.218.266.048.357zM236.975 259.713l-1.659.893c-.17.091-.468.081-.663-.025l-1.565-.842c-.195-.107-.218-.266-.048-.357l1.659-.894c.171-.092.468-.08.665.026l1.563.842c.197.105.217.265.048.357zM241.042 257.522l-1.66.893c-.169.093-.467.081-.662-.025l-1.565-.841c-.197-.106-.218-.266-.048-.359l1.659-.893c.17-.091.468-.079.665.025l1.563.843c.197.106.217.266.048.357zM245.108 255.332l-1.659.893c-.17.092-.468.081-.665-.025l-1.563-.842c-.197-.106-.217-.266-.048-.357l1.659-.894c.17-.092.468-.08.665.026l1.563.842c.197.106.218.266.048.357zM249.176 253.143l-1.659.893c-.171.091-.467.079-.664-.027l-1.563-.841c-.197-.106-.218-.266-.048-.357l1.659-.895c.169-.091.467-.079.663.027l1.564.841c.197.106.218.266.048.359zM216.429 274.934l-1.659.892c-.17.092-.466.081-.663-.025l-1.563-.842c-.197-.107-.218-.267-.048-.358l1.659-.893c.169-.092.467-.08.663.026l1.564.842c.196.106.218.266.047.358zM220.496 272.744l-1.659.892c-.17.092-.466.08-.663-.025l-1.565-.842c-.195-.106-.218-.266-.046-.357l1.659-.895c.17-.091.466-.079.663.027l1.564.841c.196.106.218.266.047.359zM224.562 270.552l-1.659.894c-.17.092-.467.08-.663-.026l-1.564-.842c-.196-.105-.218-.266-.047-.357l1.659-.893c.17-.091.466-.081.663.025l1.563.842c.197.107.218.266.048.357zM228.631 268.363l-1.659.893c-.17.091-.468.081-.663-.026l-1.565-.842c-.195-.106-.218-.266-.048-.357l1.659-.893c.172-.093.468-.081.665.025l1.563.843c.197.104.218.264.048.357zM232.7 266.172l-1.659.894c-.17.091-.468.079-.663-.027l-1.565-.84c-.197-.107-.218-.266-.048-.359l1.659-.893c.172-.091.468-.079.665.025l1.563.843c.197.106.218.266.048.357zM236.766 263.982l-1.659.893c-.17.091-.467.081-.664-.025l-1.563-.843c-.197-.106-.218-.266-.048-.357l1.659-.893c.169-.093.467-.081.664.025l1.563.843c.197.106.218.266.048.357zM240.833 261.792l-1.659.893c-.17.092-.468.08-.665-.025l-1.563-.842c-.197-.106-.218-.266-.048-.357l1.659-.895c.17-.091.468-.079.663.027l1.565.841c.197.106.217.266.048.358zM244.901 259.601l-1.659.893c-.171.093-.468.081-.665-.025l-1.563-.843c-.197-.104-.217-.266-.048-.357l1.659-.893c.17-.091.468-.081.663.026l1.565.842c.195.106.218.266.048.357zM248.968 257.411l-1.659.894c-.17.091-.466.08-.663-.026l-1.563-.842c-.197-.106-.218-.266-.048-.357l1.659-.893c.169-.093.467-.081.663.025l1.564.842c.196.105.218.265.047.357zM30.414 174.513l-1.659.894c-.17.091-.468.079-.663-.027l-1.564-.841c-.196-.106-.218-.265-.049-.358l1.66-.893c.17-.091.467-.079.664.025l1.563.843c.197.106.218.265.048.357zM34.276 176.592l-1.66.893c-.169.093-.467.081-.664-.025l-1.563-.843c-.197-.104-.217-.264-.048-.357l1.66-.893c.17-.091.467-.08.662.026l1.565.842c.197.106.218.266.048.357zM30.206 178.783l-1.66.893c-.17.091-.467.079-.662-.025l-1.565-.843c-.197-.106-.218-.266-.048-.357l1.659-.894c.17-.092.468-.08.665.026l1.563.841c.197.106.217.266.048.359zM38.132 178.671l-1.66.893c-.169.093-.465.081-.662-.025l-1.563-.843c-.197-.106-.218-.265-.048-.357l1.659-.893c.17-.091.467-.08.663.026l1.564.842c.196.106.218.266.047.357zM34.067 180.861l-1.66.894c-.17.091-.467.08-.664-.027l-1.563-.84c-.197-.107-.218-.266-.048-.359l1.66-.893c.17-.091.467-.079.662.025l1.565.843c.195.106.218.266.048.357zM42.22 180.871l-1.66.893c-.171.091-.467.081-.664-.025l-1.563-.843c-.197-.106-.218-.265-.048-.357l1.659-.893c.17-.092.467-.08.663.026l1.564.842c.196.106.218.266.048.357zM38.153 183.061l-1.66.893c-.17.093-.467.081-.664-.025l-1.563-.841c-.197-.106-.218-.266-.048-.359l1.66-.893c.17-.091.467-.079.662.025l1.565.843c.197.106.218.266.048.357zM46.284 178.681l-1.659.894c-.17.091-.466.079-.663-.026l-1.563-.842c-.197-.106-.218-.266-.048-.357l1.66-.895c.169-.091.467-.079.662.027l1.565.841c.195.106.218.266.046.358zM50.353 176.49l-1.659.893c-.17.093-.466.081-.663-.025l-1.564-.842c-.196-.105-.218-.266-.047-.357l1.66-.894c.169-.091.465-.08.662.026l1.565.842c.195.106.218.266.046.357zM54.422 174.301l-1.66.893c-.17.091-.467.08-.662-.026l-1.565-.842c-.195-.106-.218-.266-.046-.357l1.659-.893c.17-.093.466-.081.663.025l1.563.843c.197.104.217.264.048.357zM58.486 172.109l-1.659.894c-.17.092-.467.08-.663-.026l-1.564-.841c-.196-.106-.218-.266-.048-.358l1.659-.893c.171-.092.467-.08.664.025l1.563.842c.197.106.218.266.048.357zM62.557 169.92l-1.659.893c-.17.091-.468.081-.663-.025l-1.565-.843c-.196-.106-.217-.266-.047-.357l1.659-.893c.17-.093.467-.081.664.025l1.563.843c.197.106.218.266.048.357zM66.624 167.73l-1.66.893c-.17.091-.467.079-.664-.025l-1.563-.843c-.197-.106-.218-.266-.048-.358l1.659-.893c.17-.091.468-.08.665.027l1.563.84c.197.106.217.266.048.359zM46.08 182.95l-1.66.893c-.169.091-.465.081-.662-.025l-1.565-.842c-.195-.107-.218-.266-.046-.357l1.659-.894c.17-.092.466-.08.663.026l1.564.842c.196.105.217.265.047.357zM50.148 180.759l-1.659.895c-.17.091-.467.079-.663-.027l-1.564-.841c-.196-.106-.218-.266-.047-.358l1.66-.894c.169-.091.465-.079.662.026l1.563.842c.197.106.218.266.048.357zM54.215 178.569l-1.66.894c-.169.091-.467.08-.662-.026l-1.565-.842c-.195-.106-.218-.266-.048-.357l1.66-.893c.17-.093.467-.081.664.025l1.563.842c.197.106.218.266.048.357zM58.284 176.38l-1.66.893c-.17.091-.467.079-.662-.026l-1.565-.842c-.197-.106-.218-.266-.048-.357l1.66-.895c.17-.091.467-.079.664.027l1.563.841c.197.106.218.266.048.359zM62.35 174.188l-1.659.894c-.17.092-.468.08-.665-.026l-1.563-.842c-.197-.105-.217-.266-.047-.357l1.659-.893c.17-.091.467-.081.664.025l1.563.842c.197.107.218.266.048.357zM66.418 171.999l-1.659.893c-.17.091-.467.081-.664-.025l-1.563-.843c-.197-.106-.218-.266-.048-.357l1.659-.893c.17-.092.468-.081.663.026l1.565.842c.197.105.217.264.047.357zM169.153 234.5l-1.659.893c-.171.093-.468.081-.665-.025l-1.563-.842c-.197-.106-.218-.266-.048-.357l1.659-.894c.17-.091.468-.08.663.026l1.565.842c.195.106.218.266.048.357zM173.011 236.579l-1.659.894c-.169.091-.466.08-.663-.026l-1.564-.842c-.196-.106-.218-.266-.047-.357l1.659-.893c.17-.093.466-.081.663.025l1.565.842c.195.105.216.266.046.357zM168.946 238.769l-1.659.893c-.17.093-.466.081-.663-.025l-1.563-.842c-.197-.105-.218-.265-.048-.357l1.659-.894c.17-.091.468-.08.663.026l1.565.842c.195.106.218.266.046.357zM176.873 238.659l-1.659.893c-.17.091-.468.079-.663-.025l-1.565-.843c-.195-.106-.217-.266-.048-.357l1.659-.893c.172-.093.468-.081.665.025l1.563.841c.197.106.218.266.048.359zM172.806 240.848l-1.659.893c-.169.093-.467.081-.663-.025l-1.564-.842c-.196-.106-.218-.266-.047-.357l1.659-.894c.17-.091.466-.08.663.026l1.563.842c.197.106.218.266.048.357zM180.959 240.859l-1.659.893c-.17.091-.468.079-.663-.025l-1.565-.843c-.195-.106-.217-.266-.048-.357l1.659-.895c.172-.091.468-.079.665.027l1.563.841c.197.106.218.266.048.359zM176.892 243.049l-1.659.893c-.169.091-.467.08-.663-.026l-1.564-.842c-.196-.106-.218-.266-.047-.357l1.659-.893c.17-.093.466-.081.663.025l1.563.843c.197.106.218.265.048.357zM185.026 238.668l-1.659.893c-.17.092-.468.081-.663-.026l-1.565-.842c-.197-.104-.217-.266-.048-.357l1.659-.893c.172-.091.468-.081.665.025l1.563.843c.197.106.218.266.048.357zM189.094 236.478l-1.659.893c-.169.091-.467.081-.664-.025l-1.563-.843c-.197-.106-.218-.266-.048-.357l1.659-.893c.169-.092.467-.081.664.026l1.563.842c.197.104.218.264.048.357zM193.165 234.287l-1.659.894c-.17.091-.468.079-.665-.027l-1.563-.84c-.197-.107-.218-.266-.048-.359l1.659-.893c.17-.091.468-.079.663.025l1.565.843c.197.106.217.266.048.357zM197.229 232.097l-1.659.893c-.171.091-.468.081-.665-.025l-1.563-.843c-.197-.106-.217-.265-.048-.357l1.659-.893c.17-.092.468-.08.663.026l1.565.842c.197.106.218.266.048.357zM184.819 242.936l-1.659.895c-.17.091-.468.079-.665-.027l-1.563-.841c-.197-.106-.218-.266-.048-.358l1.659-.893c.17-.091.468-.08.665.025l1.563.842c.197.107.218.266.048.357zM188.887 240.747l-1.659.893c-.171.091-.467.081-.664-.025l-1.563-.843c-.197-.106-.218-.266-.048-.357l1.659-.893c.169-.091.467-.081.663.025l1.564.843c.197.106.218.266.048.357zM192.954 238.557l-1.659.893c-.172.091-.468.079-.665-.025l-1.563-.843c-.197-.106-.218-.266-.048-.357l1.659-.894c.17-.091.468-.08.663.027l1.565.84c.195.106.217.266.048.359zM197.02 236.366l-1.659.893c-.169.093-.466.081-.663-.025l-1.563-.843c-.197-.104-.217-.265-.048-.357l1.659-.893c.17-.091.468-.08.663.026l1.565.842c.195.106.218.266.046.357z"/><path fill="#01BBFF" d="M274.33 88.569c.075-.223-.032-.456-.253-.567l-13.362-6.725c-2.172-.873-4.87-.646-7.804.933l-6.997 3.769c-1.899 1.023-3.439 3.768-3.439 6.131v41.555c0 1.242.432 2.118 1.113 2.534l12.838 6.529a.538.538 0 0 0 .692-.167c1.637-2.486 10.55-16.063 10.312-16.29-.242-.228 5.939-34.805 6.9-37.702z"/><path fill="#252323" d="M258.042 81.572c-1.442 0-3.039.447-4.697 1.34l-6.996 3.767c-1.63.878-3.008 3.365-3.008 5.43v41.556c0 .887.269 1.581.721 1.858l12.49 6.348c4.656-7.079 9.733-14.955 10.042-15.776l.021.007c.032-1.28.656-5.105 2.958-17.816 1.489-8.239 3.246-17.517 3.85-19.694l-13.121-6.603a6.062 6.062 0 0 0-2.26-.417zm-1.364 62.027c-.226 0-.456-.053-.669-.16l-12.839-6.529c-1.03-.629-1.565-1.768-1.565-3.245V92.11c0-2.662 1.703-5.662 3.876-6.834l6.995-3.766c3.079-1.659 6.044-1.995 8.58-.977l13.431 6.757c.585.294.867.933.671 1.519-.959 2.887-6.847 36.139-6.868 37.413h-.016c-.107.953-1.951 3.897-10.417 16.761a1.4 1.4 0 0 1-1.179.616z"/><path fill="#fff" d="M258.359 101.04l13.71-7.383-20.207-10.88-5.948 3.201c-1.899 1.024-3.439 3.769-3.439 6.132v.375l15.884 8.555z"/><path fill="#252323" d="M243.341 92.019l15.019 8.086 11.973-6.448-18.472-9.947-5.512 2.969c-1.606.865-2.966 3.292-3.008 5.34zm15.019 9.955l-16.755-9.022v-.842c0-2.662 1.703-5.663 3.876-6.834l6.38-3.435 21.943 11.816-15.444 8.317z"/><path fill="#252323" d="M275.691 133.911l-16.527 8.899c-1.899 1.023-3.439-.063-3.439-2.426V98.828c0-2.363 1.54-5.108 3.439-6.131l6.997-3.767c7.163-3.858 12.97.237 12.97 9.145v29.704c0 2.363-1.539 5.109-3.44 6.132z"/><path fill="#252323" d="M271.314 88.294c-1.463 0-3.069.448-4.719 1.337l-6.998 3.768c-1.63.878-3.006 3.364-3.006 5.43v41.555c0 .931.282 1.639.754 1.894.444.239.996.039 1.384-.168l16.527-8.901c1.63-.878 3.007-3.365 3.007-5.429V98.076c0-4.387-1.476-7.697-4.05-9.083-.868-.468-1.846-.7-2.899-.7zm-13.519 55.713c-.467 0-.913-.109-1.318-.326-1.031-.557-1.623-1.758-1.623-3.297V98.828c0-2.66 1.702-5.66 3.875-6.832l6.998-3.768c3.398-1.83 6.721-2.057 9.354-.638 3.126 1.683 4.918 5.504 4.918 10.486v29.704c0 2.66-1.702 5.661-3.875 6.832l-16.527 8.899c-.613.33-1.224.496-1.802.496z"/><path fill="#01BBFF" d="M224.62 142.725V105.59l-48.159-4.995 1.888 24.892 39.765 16.306 6.506.932z"/><path fill="#252323" d="M218.362 141.009l5.393.774v-35.468l-46.353-4.807 1.779 23.434 39.181 16.067zm7.131 2.66l-7.725-1.135-40.244-16.503-1.999-26.347 49.968 5.182v38.803z"/><path fill="#252323" d="M217.332 121.642l-16.365-8.96.879-1.397 16.363 8.961-.877 1.396z"/><path fill="#01BBFF" d="M68.473 147.691c-.474-.203-1.094-.157-1.78.214l-7.188 3.87c-.787.424-1.538.671-2.236.775l1.275-86.38-5.611 1.492v-17.64l-6.047 3.125v98.213c0 3.894-2.957 8.672-6.573 10.618l-6.932 3.734c-1.29.695-2.287 1.812-2.705 3.146-.476 1.523-.14 2.56.597 2.929l8.043 4.065a.302.302 0 0 0 .293-.012l14.073-8.581 20.042-11.944 2.849-3.147c.118-.13.078-.327-.082-.41l-8.018-4.067z"/><path fill="#252323" d="M47.757 53.623v97.737c0 4.161-3.144 9.239-7.006 11.319l-6.933 3.734c-1.122.603-1.961 1.577-2.304 2.672-.356 1.129-.159 1.824.174 1.989l7.74 3.912 13.784-8.403L73.148 154.7l2.306-2.547-7.362-3.734c-.232-.087-.58-.021-.962.186l-7.189 3.872c-.847.454-1.697.748-2.532.872l-1.018.153.013-.962 1.258-85.293-5.597 1.487V51.396l-4.309 2.227zm-8.302 123.07c-.187 0-.374-.041-.546-.127l-8.045-4.067c-.93-.466-1.687-1.728-1.017-3.868.474-1.513 1.575-2.798 3.103-3.621l6.933-3.734c3.328-1.791 6.138-6.332 6.138-9.916V52.67l7.783-4.02v17.94l5.627-1.497-1.274 86.395c.302-.109.608-.248.916-.414l7.19-3.871c.903-.485 1.82-.574 2.578-.245l.05.024 8.018 4.067c.308.155.52.427.583.745.066.32-.027.646-.251.895l-3.048 3.309-20.04 11.944-14.065 8.575c-.19.118-.412.176-.633.176z"/><path fill="#fff" d="M53.15 162.393l-8.508-4.525-.014-.011c-1.16 1.727-2.662 3.228-4.321 4.121l-6.934 3.734c-.554.298-.92.746-1.344 1.183l7.895 4.179 2.487 1.439 5.405-1.679 4.15-2.53 1.184-5.911z"/><path fill="#252323" d="M33.407 166.695l6.946 3.676 2.17 1.254 4.913-1.526 3.744-2.284 1.005-5.003-7.281-3.875c-1.21 1.624-2.667 2.936-4.162 3.742l-6.934 3.734a2.12 2.12 0 0 0-.4.282zm8.891 6.706l-2.83-1.638-8.804-4.66.922-.961c.36-.382.77-.817 1.355-1.132l6.933-3.734c1.45-.78 2.876-2.146 4.02-3.849l.507-.757.757.546 8.96 4.759-1.367 6.817-4.66 2.81-5.793 1.799z"/><path fill="#fff" d="M68.475 147.665c-.474-.204-1.094-.157-1.78.213l-7.188 3.87c-.786.424-1.537.671-2.235.775l-.436 1.339 8.209 4.043L67 159.297l6.726-4.009 2.849-3.147c.118-.13.078-.327-.082-.409l-8.018-4.067z"/><path fill="#252323" d="M57.874 153.458l7.698 3.805 1.473 1.047 6.103-3.637 2.306-2.547-7.362-3.734c-.227-.088-.58-.02-.962.187l-7.189 3.87a8.133 8.133 0 0 1-1.989.769l-.078.24zm9.083 6.825l-2.381-1.693-8.781-4.324.804-2.463.536-.08c.623-.091 1.275-.318 1.936-.675l7.19-3.872c.902-.485 1.818-.572 2.578-.246l.05.023 8.02 4.068c.308.158.52.43.584.751.062.318-.03.644-.255.89l-3.046 3.309-7.235 4.312z"/><path fill="#252323" d="M61.066 152.356V54.142l-6.046 3.124v98.215c0 3.909-2.941 8.663-6.572 10.617l-7.189 3.871c-1.474.795-2.67 2.726-2.67 4.314 0 1.587 1.196 2.231 2.67 1.437l13.761-7.41 6.046-3.124 13.76-7.411c1.476-.793 2.672-2.724 2.672-4.314 0-1.587-1.196-2.231-2.671-1.437l-7.189 3.872c-3.629 1.954-6.572.369-6.572-3.54z"/><path fill="#252323" d="M55.891 57.743v97.738c0 4.23-3.078 9.202-7.006 11.318l-7.189 3.87c-1.212.653-2.235 2.308-2.235 3.614 0 .452.13.793.347.911.215.116.599.052 1.02-.175l13.761-7.41 6.058-3.131 13.75-7.404c1.212-.652 2.236-2.306 2.236-3.611 0-.454-.13-.795-.35-.913-.219-.118-.598-.052-1.018.175l-7.19 3.871c-2.036 1.095-3.993 1.249-5.514.429-1.523-.819-2.36-2.476-2.36-4.669v-96.84l-4.31 2.227zM40.064 176.867c-.403 0-.786-.09-1.124-.271-.773-.417-1.215-1.26-1.215-2.313 0-1.875 1.362-4.078 3.103-5.016l7.189-3.87c3.384-1.824 6.138-6.272 6.138-9.916V56.79l7.782-4.021v99.587c0 1.589.53 2.75 1.49 3.268.963.518 2.305.363 3.78-.43l7.19-3.87c.979-.527 1.983-.592 2.756-.175.772.417 1.216 1.259 1.216 2.314 0 1.874-1.363 4.076-3.104 5.014l-13.763 7.41-6.058 3.13-13.748 7.404c-.55.296-1.11.446-1.632.446z"/><path fill="#252323" d="M54.563 150.804l-8.133-4.729.919-1.374 8.132 4.729-.918 1.374zM54.563 130.322l-8.133-4.729.919-1.374 8.132 4.729-.918 1.374z"/><path fill="#01BBFF" d="M56.256 87.5l-.668-1.078 4.54-2.445.668 1.078-4.54 2.445zM79.638 20.343c-.354-.182-.838-.154-1.374.135L21.303 51.235c-1.302.702-2.537 1.995-3.361 3.526L1.687 84.933c-.53.984-.82 2.013-.82 2.915v6.555c0 .497.167.86.434 1.078l.05.039c.062.045 14.682 7.767 16.152 8.549.053.03.118.012.152-.035l5.44-8.048c.003-.008.01-.014.014-.02l43.76-40.813 24.442-16.83a.112.112 0 0 0 .019-.03l4.57-9.222a.104.104 0 0 0-.046-.14l-16.216-8.588z"/><path fill="#252323" d="M79.14 21.038c-.09 0-.243.036-.44.14L21.738 51.936c-1.148.62-2.278 1.81-3.019 3.19L2.463 85.295c-.468.87-.725 1.777-.725 2.553v6.554c0 .264.07.415.134.469.141.073 4.703 2.485 8.726 4.614l6.708 3.547 5.157-7.603 43.793-40.85 24.372-16.794 4.195-8.469-15.604-8.265a.177.177 0 0 0-.078-.014zm-61.582 83.856c-.165 0-.333-.039-.487-.121a3997.25 3997.25 0 0 0-7.328-3.879C.908 96.222.903 96.219.826 96.164.397 95.819 0 95.305 0 94.403v-6.554c0-1.022.325-2.187.911-3.279L17.167 54.4c.902-1.675 2.25-3.083 3.703-3.864l56.962-30.758c.774-.416 1.584-.47 2.225-.143l.01.005 16.217 8.59c.448.235.624.761.397 1.196l-4.856 9.549-24.44 16.83-43.602 40.68-5.394 7.981a.999.999 0 0 1-.831.429z"/><path fill="#252323" d="M1.301 95.481l.05.039c.062.045 14.682 7.767 16.152 8.549.053.03.118.012.152-.035l1.699-2.514c-1.225-2.112-2.173-3.69-2.173-3.69L.867 89.085v5.319c0 .497.167.86.434 1.078z"/><path fill="#252323" d="M1.866 94.866l.032.024c.115.055 4.677 2.467 8.7 4.596 2.779 1.469 5.451 2.882 6.708 3.549l1.045-1.546a348.514 348.514 0 0 0-1.81-3.068L1.738 90.483v3.92c0 .254.064.404.128.463zm15.692 10.028c-.165 0-.333-.039-.487-.121a3997.25 3997.25 0 0 0-7.328-3.879C.908 96.222.903 96.219.826 96.164L.73 96.09c-.333-.272-.73-.786-.73-1.688v-6.719l17.822 9.557.117.194s.95 1.582 2.18 3.7l.241.416-1.97 2.914a.999.999 0 0 1-.832.429z"/><path fill="#fff" d="M34.257 63.403l58.392-29.247-19.915-10.7-51.431 27.779c-1.302.702-2.537 1.995-3.362 3.526l16.316 8.642z"/><path fill="#252323" d="M19.119 54.454l15.15 8.025 56.595-28.348-18.128-9.741L21.74 51.935c-.96.517-1.903 1.431-2.62 2.519zm15.125 9.874l-17.447-9.242.37-.688c.901-1.674 2.25-3.083 3.702-3.864l51.864-28.013 21.7 11.66-60.189 30.147z"/><path fill="#252323" d="M94.58 63.403L19.15 104.105c-1.087.586-1.97.111-1.97-1.06v-6.553c0-.902.29-1.933.82-2.917l16.257-30.172c.823-1.53 2.057-2.824 3.36-3.525L94.58 29.121c1.087-.585 1.968-.112 1.968 1.06v30.043c0 1.17-.88 2.594-1.968 3.18z"/><path fill="#252323" d="M95.46 29.68c-.091 0-.247.035-.445.142L38.054 60.579c-1.15.618-2.28 1.81-3.02 3.19l-16.255 30.17c-.47.87-.729 1.777-.729 2.553v6.553c0 .3.088.458.143.488.054.029.245.021.524-.13l75.428-40.7c.818-.44 1.536-1.6 1.536-2.48V30.183c0-.3-.088-.458-.143-.488a.168.168 0 0 0-.078-.014zm-77.192 75.484c-.338 0-.658-.076-.943-.23-.642-.345-1.01-1.033-1.01-1.889v-6.553c0-1.024.325-2.19.912-3.28L33.482 63.04c.901-1.673 2.251-3.08 3.702-3.86L94.145 28.42c.794-.429 1.62-.475 2.26-.13.643.347 1.012 1.035 1.012 1.891v30.042c0 1.45-1.055 3.154-2.402 3.88l-75.429 40.702c-.442.237-.893.358-1.318.358z"/><path fill="#01BBFF" d="M17.851 103.045h-1.335V98.14h1.335v4.905z"/><path fill="#252323" d="M18.575 93.004L2.262 84.361l.858-1.407 16.312 8.644-.857 1.406zM30.786 70.392L14.473 61.75l.858-1.407 16.314 8.643-.859 1.407z"/><path fill="#01BBFF" d="M240.466 156.145c-.002-.03 0-4.304 0-4.304 0-.121-.095-.224-.223-.245l-9.407-1.458a.278.278 0 0 1-.088-.03L82.468 70.097c-1.462-.789-3.675-.874-4.942-.192L38.302 91.233a.266.266 0 0 1-.084.028l-10.623 1.832a.252.252 0 0 0-.217.243V97.662c-.013.545.208 1.168 1.159 1.682l156.8 84.6c1.463.787 3.675.873 4.942.191l49.344-26.777c.598-.322.867-.759.843-1.211v-.002z"/><path fill="#252323" d="M28.248 93.804l-.001 3.877c-.007.278.075.611.725.962l156.802 84.6c1.178.635 3.082.724 4.072.191l49.341-26.776c.161-.087.425-.26.414-.471v-.009c-.002-.021-.004-.045-.002-3.861l-9.064-1.406-.229-.107-148.27-80.007c-1.178-.636-3.084-.727-4.075-.191l-39.355 21.4-.238.053-10.12 1.745zm159.88 91.597c-1.121.002-2.29-.255-3.224-.757l-156.8-84.6c-1.347-.724-1.608-1.706-1.592-2.4v-4.308c0-.51.391-.948.93-1.04l10.516-1.813L77.09 69.206c1.533-.826 4.087-.742 5.813.19l148.188 79.961 9.296 1.441c.548.084.948.521.948 1.043 0 0-.002 4.011 0 4.283.034.774-.429 1.478-1.276 1.935l-49.342 26.775c-.706.38-1.63.567-2.589.567z"/><path fill="#252323" d="M30.498 92.501l-2.951.508a.253.253 0 0 0-.218.244v4.327c-.013.545.206 1.168 1.16 1.68l2.009 1.083v-7.842zM187.951 184.593c.87.024 1.71-.122 2.327-.455l49.345-26.777c.597-.322.866-.759.842-1.211-.002-.032 0-4.306 0-4.306 0-.121-.095-.224-.223-.245l-9.406-1.458a.284.284 0 0 1-.089-.03l-34.182-18.406-8.614-7.804v60.692z"/><path fill="#fff" d="M239.624 152.933l-49.345 26.778c-1.266.681-3.478.596-4.942-.192l-156.8-84.601c-1.462-.787-1.62-1.98-.354-2.66L77.526 65.48c1.267-.681 3.48-.596 4.942.19l156.8 84.602c1.464.788 1.623 1.979.356 2.661z"/><path fill="#252323" d="M79.66 65.832c-.65 0-1.265.114-1.701.35L28.618 92.957c-.13.069-.425.25-.425.455 0 .18.204.496.777.805l156.801 84.602c1.179.635 3.085.724 4.073.19l49.344-26.777c.127-.067.422-.248.422-.454 0-.179-.204-.497-.775-.805L82.033 66.371c-.66-.355-1.547-.539-2.373-.539zm108.466 115.145c-1.121 0-2.292-.255-3.224-.757l-156.8-84.602c-1.046-.561-1.643-1.366-1.643-2.206 0-.738.47-1.414 1.288-1.856l49.34-26.775c1.533-.825 4.088-.741 5.814.19l156.801 84.601c1.045.562 1.644 1.365 1.644 2.206 0 .738-.471 1.414-1.29 1.857l-49.341 26.775c-.706.381-1.63.567-2.589.567zM178.497 227.398l-.911-1.378 18.852-10.829a9.372 9.372 0 0 1 9.139 0l4.191 2.657c2.216 1.245 5.024 1.25 7.285-.014l6.433-3.595c7.618-4.255 17.148-4.37 24.875-.291l12.665 6.633c.934.49 2.041.484 2.961-.018.924-.502 1.474-1.396 1.474-2.393v-79.218h1.737v79.218c0 1.579-.874 2.997-2.335 3.793a4.954 4.954 0 0 1-4.689.027l-12.667-6.632c-7.185-3.792-16.048-3.689-23.129.27l-6.433 3.595a9.373 9.373 0 0 1-9.114-.014l-4.191-2.656c-2.221-1.247-5.033-1.253-7.299.019l-18.844 10.826z"/><path fill="#252323" d="M267.196 198.25h-1.737v-5.975c0-3.056.97-6.009 2.806-8.539 1.64-2.263 2.506-4.902 2.506-7.631v-40.013h1.737v40.013c0 3.053-.97 6.006-2.805 8.538-1.642 2.261-2.507 4.9-2.507 7.632v5.975z"/><path fill="#252323" d="M267.199 213.631h-1.737v-3.213c0-2.44-.815-4.77-2.359-6.741-1.765-2.247-2.697-4.909-2.697-7.695v-56.403h1.738v56.403c0 2.441.815 4.771 2.359 6.74 1.764 2.249 2.696 4.911 2.696 7.696v3.213z"/><path fill="#01BBFF" d="M194.879 221.827l-7.975-.684a.127.127 0 0 1-.038-.011l-1.922-.001c-2.303-1.24-3.197-.989-5.19.085l-1.842.995-.29-.009-9.938 1.562c-.043.008-.077.043-.077.085l-.011 4.973c0 .914.565 1.687 1.905 2.409l5.53 2.953c2.303 1.24 5.786 1.374 7.781.3l10.81-5.825c.854-.459 1.294-1.067 1.34-1.707v-5.04a.087.087 0 0 0-.083-.085z"/><path fill="#252323" d="M168.474 224.46l-.008 4.361c0 .426.167 1.007 1.47 1.709l5.527 2.95c2.029 1.093 5.193 1.228 6.916.303l10.811-5.825c.394-.212.872-.569.907-1.06l-.002-4.326-7.358-.63h-2.025l-.201-.109c-2.002-1.077-2.548-.871-4.323.083l-2.054 1.11-.452-.013-9.208 1.447zm10.951 11.559c-1.676 0-3.431-.382-4.827-1.133l-5.528-2.952c-1.576-.85-2.341-1.867-2.341-3.113l.012-5.653.793-.202 10.031-1.575.128.003 1.626-.879c2.109-1.133 3.326-1.502 5.853-.194l1.973.03 8.603.73.083.831v5.039c-.072.994-.7 1.832-1.773 2.408l-10.811 5.825c-1.041.56-2.404.835-3.822.835z"/><path fill="#252323" d="M179.195 235.199c1.352.032 2.657-.198 3.616-.715l8.55-4.674v-7.886l-4.458-.781a.105.105 0 0 1-.038-.012l-.217 1.738-7.453-.99v13.32z"/><path fill="#252323" d="M180.066 222.811v11.561c.91-.063 1.71-.265 2.313-.589l8.115-4.436v-6.751l-2.874-.503-.211 1.693-7.343-.975zm-.628 13.201a7.73 7.73 0 0 1-.262-.005l-.846-.019v-15.042l7.56 1.005.263-2.114 1.031.535 5.046.881v9.022l-8.979 4.908c-.999.538-2.344.829-3.813.829z"/><path fill="#01BBFF" d="M187.535 216.578l5.53 2.952c2.302 1.239 2.552 3.115.557 4.189l-10.81 5.825c-1.995 1.074-5.478.94-7.781-.3l-5.53-2.953c-2.303-1.239-2.554-3.115-.559-4.189l10.812-5.826c1.993-1.074 5.478-.939 7.781.302z"/><path fill="#252323" d="M183.122 216.362c-1.113 0-2.166.203-2.934.615l-10.811 5.824c-.416.225-.913.602-.913 1.12 0 .55.55 1.174 1.472 1.67l5.527 2.95c2.029 1.093 5.193 1.227 6.916.303l10.811-5.825c.415-.224.912-.601.912-1.119 0-.55-.55-1.174-1.472-1.67l-5.528-2.951c-1.123-.605-2.596-.917-3.98-.917zm-3.697 14.718c-1.676 0-3.431-.382-4.827-1.134l-5.528-2.951c-1.488-.804-2.341-1.923-2.341-3.073 0-1.008.63-1.903 1.78-2.521l10.811-5.825c2.268-1.223 6.063-1.092 8.646.3l5.53 2.95c1.49.802 2.342 1.922 2.342 3.074 0 1.007-.633 1.903-1.78 2.52l-10.811 5.825c-1.041.56-2.404.835-3.822.835z"/><path fill="#252323" d="M175.857 234.021h-1.738v-4.94h1.738v4.94z"/><path fill="#fff" d="M181.279 221.906c-.612 0-1.222.121-1.666.358-.301.165-.435.333-.435.431 0 .097.134.265.435.427.887.478 2.442.478 3.33 0 .301-.162.435-.33.435-.427 0-.098-.134-.266-.435-.429v-.002c-.444-.237-1.054-.358-1.664-.358zm0 3.192c-.911 0-1.823-.19-2.534-.574-.828-.445-1.302-1.113-1.302-1.829 0-.719.474-1.385 1.302-1.832 1.422-.764 3.645-.764 5.066.002v-.002c.828.447 1.303 1.113 1.303 1.832 0 .716-.475 1.384-1.303 1.829-.711.384-1.623.574-2.532.574z"/><path fill="#01BBFF" d="M267.5 137.209h-1.336v-23.031h1.336v23.031z"/><path fill="#252323" d="M270.054 116.226l-5.426 2.92c-1.204.65-2.181-.039-2.181-1.537v-5.115c0-1.499.977-3.239 2.181-3.888l5.426-2.921c1.204-.649 2.181.039 2.181 1.537v5.116c0 1.498-.977 3.238-2.181 3.888z"/><path fill="#01BBFF" d="M270.918 106.063c-.197 0-.405.093-.533.162l-5.424 2.92c-1.003.54-1.848 2.073-1.848 3.348v5.116c0 .648.216.996.419 1.106.244.131.58-.012.761-.108l5.424-2.922c1.003-.539 1.848-2.071 1.848-3.347v-5.116c0-.648-.216-.996-.419-1.105a.49.49 0 0 0-.228-.054zm-7.16 13.951a1.87 1.87 0 0 1-.893-.221c-.69-.372-1.088-1.168-1.088-2.184v-5.116c0-1.722 1.105-3.666 2.516-4.427l5.424-2.92c.738-.399 1.481-.439 2.096-.107.691.372 1.088 1.168 1.088 2.183v5.116c0 1.722-1.105 3.667-2.516 4.427l-5.424 2.92c-.407.22-.815.329-1.203.329z"/><path fill="#252323" d="M271.115 116.922l-5.426 2.922c-1.204.648-2.181-.04-2.181-1.539v-5.115c0-1.498.977-3.238 2.181-3.887l5.426-2.921c1.204-.648 2.181.04 2.181 1.538v5.116c0 1.498-.977 3.238-2.181 3.886z"/><path fill="#01BBFF" d="M271.979 106.761c-.197 0-.405.091-.533.16l-5.424 2.921c-1.003.54-1.848 2.072-1.848 3.348v5.115c0 .65.217.998.419 1.107.24.129.58-.01.761-.107l5.425-2.922c1.001-.539 1.847-2.072 1.847-3.347v-5.116c0-.65-.216-.996-.42-1.107a.485.485 0 0 0-.227-.052zm-7.158 13.951c-.318 0-.62-.074-.896-.221-.69-.372-1.087-1.17-1.087-2.186v-5.115c0-1.722 1.105-3.667 2.516-4.426l5.425-2.922c.737-.397 1.482-.437 2.095-.106.69.372 1.087 1.168 1.087 2.184v5.116c0 1.722-1.105 3.667-2.515 4.426l-5.424 2.921c-.407.22-.816.329-1.201.329z"/><path fill="#01BBFF" d="M270.973 135.228l-.026-18.763 1.336-.001.024 18.763-1.334.001zM261.941 140.307h-1.336v-3.303c0-2.757 1.043-5.444 2.934-7.565 1.695-1.897 2.627-4.3 2.627-6.768l.001-3.443h1.336l-.002 3.443c0 2.757-1.042 5.445-2.934 7.564-1.694 1.898-2.626 4.302-2.626 6.769v3.303zM194.202 129.711l-26.004 14.337-82.942-44.733 26.004-14.337 82.942 44.733z"/><path fill="#252323" d="M86.975 99.306l81.216 43.804 24.289-13.392-81.216-43.802-24.289 13.39zm81.226 45.679L83.535 99.323l27.718-15.283 84.665 45.663-27.717 15.282z"/><path fill="#252323" d="M189.525 116.953l-55.141-29.856-40.052 21.567 55.143 29.856 40.05-21.567z"/><path fill="#252323" d="M96.06 108.665l53.412 28.92 38.319-20.633-53.412-28.92-38.32 20.633zm53.411 30.79l-56.873-30.793 41.782-22.5 56.873 30.793-41.782 22.5z"/><path fill="#01BBFF" d="M164.974 127.263l-42.146-22.639.668-1.079 42.144 22.639-.666 1.079zM69.448 51.93c-1.95-1.308-5.264-.552-8.625 3.06-2.22 2.385-3.512 5.453-3.45 8.61.037 1.962.6 3.063 1.89 3.854l.213.14 148.89 79.945a.264.264 0 0 0 .349-.09l9.367-15.426a.229.229 0 0 0-.096-.324L69.448 51.931z"/><path fill="#252323" d="M67.369 52.154c-1.547 0-3.65.958-5.889 3.366-2.146 2.303-3.295 5.167-3.24 8.066.039 1.915.603 2.64 1.501 3.193l.237.154 148.288 79.617 8.762-14.433L68.943 52.59c-.417-.28-.951-.437-1.574-.437zm141.125 96.226c-.196 0-.386-.046-.559-.139L59.045 68.297l-.28-.18c-1.535-.942-2.217-2.292-2.259-4.503-.064-3.298 1.236-6.55 3.663-9.154 4.096-4.404 7.799-4.484 9.75-3.21l148.502 79.747c.533.282.722.923.416 1.425l-9.365 15.426a1.11 1.11 0 0 1-.684.495 1.185 1.185 0 0 1-.294.037z"/><path fill="#fff" d="M103.122 81.169l109.93 59.138 5.03-8.284a.23.23 0 0 0-.095-.324L69.447 51.931c-1.95-1.309-5.263-.553-8.625 3.059a13.467 13.467 0 0 0-1.734 2.337c-.008.048-.014.099-.035.133l23.432 12.605 20.637 11.104z"/><path fill="#252323" d="M213.374 141.417L102.687 81.87l.868-1.403 109.17 58.731 4.3-7.081L69.014 52.633c-1.526-1.017-4.394-.489-7.536 2.887a12.293 12.293 0 0 0-1.273 1.627l22.712 12.218-.87 1.402-24.166-13.002.447-.827a14.264 14.264 0 0 1 1.838-2.478c4.125-4.432 7.85-4.484 9.788-3.185l148.464 79.722c.532.282.721.921.418 1.423l-5.462 8.997z"/><path fill="#fff" d="M86.951 72.468l11.777 6.336-11.777-6.336z"/><path fill="#252323" d="M98.294 79.505L86.518 73.17l.867-1.402 11.777 6.337-.868 1.401zM59.26 67.366l.212.14 148.891 79.943a.265.265 0 0 0 .349-.088l1.611-2.654-3.571-1.198L57.719 63.698c.037 1.962.25 2.877 1.54 3.668z"/><path fill="#252323" d="M58.693 65.153c.134.791.427 1.159 1.044 1.536l.234.154 148.29 79.617.8-1.317-2.741-.932L58.693 65.152zm149.795 83.139c-.194 0-.388-.048-.561-.142L59.04 68.208l-.264-.168c-1.731-1.067-1.89-2.466-1.925-4.327l-.029-1.428 150.294 80.486 4.469 1.498-2.119 3.491c-.15.246-.394.421-.685.494a1.122 1.122 0 0 1-.293.038z"/><path fill="#01BBFF" d="M220.587 136.149c0 4.115-3.097 9.117-6.917 11.174-3.819 2.056-6.916.389-6.916-3.724 0-4.115 3.097-9.117 6.916-11.174 3.82-2.057 6.917-.39 6.917 3.724z"/><path fill="#252323" d="M216.756 132.35c-.793 0-1.696.262-2.651.775-3.574 1.926-6.482 6.623-6.482 10.474 0 1.688.565 2.921 1.592 3.474 1.028.556 2.454.391 4.022-.451 3.575-1.925 6.481-6.623 6.481-10.474 0-1.687-.563-2.921-1.592-3.474a2.855 2.855 0 0 0-1.37-.324zm-6.176 16.666a4.656 4.656 0 0 1-2.234-.541c-1.587-.854-2.459-2.587-2.459-4.876 0-4.441 3.228-9.655 7.35-11.875 2.13-1.145 4.174-1.307 5.757-.452 1.587.854 2.462 2.587 2.462 4.876 0 4.44-3.229 9.655-7.351 11.875-1.227.66-2.426.993-3.525.993z"/><path fill="#01BBFF" d="M65.373 71.44s-4.238-2.234-6.23-3.306c-2.288-1.23-2.378-3.582-2.381-3.68l1.335-.032-.668.015.668-.018c.002.072.085 1.761 1.712 2.636 1.99 1.07 6.22 3.301 6.22 3.301l-.656 1.083zM127.112.99c-.658-.3-1.531-.239-2.5.283l-18.075 9.732c-15.021 8.09-27.31 27.943-27.31 44.12v4c0 .958.326 1.65.852 2.055l116.986 62.677a.373.373 0 0 0 .473-.101l32.072-44.197a.384.384 0 0 1 .06-.064l12.173-9.876a.325.325 0 0 0 .097-.13l2.305-5.48a.323.323 0 0 0-.154-.41L127.112.99z"/><path fill="#252323" d="M80.587 60.517l116.502 62.417 31.87-43.917.149-.136 12.073-9.797 2.098-4.987-116.566-62.39c-.421-.179-1.011-.085-1.662.266l-18.077 9.734c-14.82 7.98-26.877 27.458-26.877 43.419v3.998c0 .625.173 1.118.49 1.392zm116.653 64.192a1.27 1.27 0 0 1-.603-.15L79.529 61.803c-.533-.411-1.168-1.209-1.168-2.679v-3.998c0-16.476 12.447-36.584 27.745-44.821L124.183.57c1.178-.635 2.355-.744 3.313-.308l.051.025 116.979 62.608c.529.285.753.875.53 1.405l-2.304 5.485a1.149 1.149 0 0 1-.349.453l-12.11 9.826-32.033 44.145a1.261 1.261 0 0 1-1.02.499z"/><path fill="#fff" d="M229.728 79.584l11.033-8.951-3.144-4.414L120.588 3.558l-13.993 7.537c-6.746 3.632-12.93 9.647-17.708 16.629l116.935 62.632 15.43.89 8.416-11.597a.281.281 0 0 1 .06-.065z"/><path fill="#252323" d="M206.079 89.56l14.733.849 8.348-11.436 10.457-8.485-2.609-3.663L120.592 4.493l-13.561 7.302c-6.13 3.3-12.112 8.84-16.916 15.65L206.079 89.56zm15.615 2.522l-16.126-.93-117.9-63.15.488-.715c5.034-7.351 11.428-13.351 18.007-16.894l14.425-7.769.434.233 117.207 62.756 3.678 5.163-11.557 9.377-8.656 11.928zM207.584 101.707l-25.125-13.458.863-1.403 25.125 13.457-.863 1.404zM177.92 85.819l-17.705-9.483.863-1.403 17.705 9.483-.863 1.403zM156.229 74.201L90.644 39.074l.864-1.405 65.584 35.128-.863 1.404zM196.338 115.107L79.334 52.395c-.055.785-.107 1.57-.107 2.34v3.998c0 .959.326 1.65.852 2.055l116.986 62.678a.371.371 0 0 0 .473-.102l1.359-1.873-2.559-6.384z"/><path fill="#252323" d="M196.268 117.589v4.188c0 2.2 1.655 3.09 3.697 1.991l20.961-11.286c2.042-1.101 3.696-.209 3.696 1.989v28.98c0 2.199 1.656 3.09 3.698 1.991l13.335-7.181c2.042-1.1 3.696-3.773 3.696-5.972V65.916c0-2.199-1.654-3.09-3.696-1.991l-18.253 9.83c-14.986 8.07-27.134 27.695-27.134 43.834z"/><path fill="#252323" d="M222.578 111.197c.499 0 .972.114 1.395.341.976.527 1.518 1.57 1.518 2.935v28.978c0 .751.235 1.31.647 1.531.414.224 1.05.134 1.745-.242l13.337-7.18c1.768-.953 3.264-3.368 3.264-5.273V65.916c0-.75-.237-1.308-.649-1.531-.412-.223-1.051-.133-1.747.242l-18.253 9.828c-14.722 7.928-26.699 27.277-26.699 43.134v4.189c0 .75.235 1.309.649 1.531.413.223 1.048.135 1.745-.242l20.959-11.287c.721-.387 1.431-.583 2.089-.583zm4.088 35.528c-.503 0-.972-.113-1.395-.341-.978-.527-1.518-1.568-1.518-2.933v-28.978c0-.752-.235-1.31-.648-1.533-.41-.222-1.049-.133-1.748.242l-20.959 11.288c-1.268.682-2.505.767-3.481.24-.979-.526-1.519-1.567-1.519-2.932v-4.189c0-16.372 12.368-36.35 27.567-44.535l18.255-9.83c1.267-.68 2.504-.767 3.481-.242.979.528 1.518 1.57 1.518 2.934v66.371c0 2.495-1.814 5.427-4.131 6.676l-13.335 7.18c-.721.388-1.43.582-2.087.582z"/><path fill="#01BBFF" d="M196.937 121.78l-1.335-.005.016-5.098 1.334.003-.015 5.1zM236.672 81.802a17.699 17.699 0 0 0-.365-.061c-.798-.076-1.813.32-2.896 1.483a5.862 5.862 0 0 0-1.321 2.25c-.414 1.342-.248 2.33.25 2.88 0 0 1.004 1.356 3.241 1.843a.279.279 0 0 0 .282-.107l3.33-4.936.142-1.778a.204.204 0 0 0-.059-.17c-.256-.257-1.113-1.123-2.604-1.404z"/><path fill="#01BBFF" d="M236.099 82.35c-.391 0-1.165.19-2.182 1.283a5.255 5.255 0 0 0-1.185 2.014c-.313 1.015-.269 1.877.119 2.307.069.087.863 1.109 2.607 1.57l3.083-4.57.117-1.454a4.198 4.198 0 0 0-2.111-1.087l-.351-.058a.958.958 0 0 0-.097-.005zm-.457 8.477c-.07 0-.141-.01-.211-.024-2.46-.535-3.591-2.03-3.639-2.094-.658-.722-.794-1.95-.342-3.407.278-.901.783-1.76 1.459-2.486 1.431-1.537 2.669-1.77 3.467-1.695l.43.07c1.123.212 2.118.745 2.955 1.586.178.18.259.405.242.646l-.157 1.933-3.417 5.066a.953.953 0 0 1-.787.405z"/><path fill="#252323" d="M240.27 85.091c0 1.761-1.324 3.902-2.959 4.781-1.633.88-2.959.168-2.959-1.593 0-1.76 1.326-3.9 2.959-4.781 1.635-.88 2.959-.166 2.959 1.593z"/><path fill="#01BBFF" d="M238.636 83.744c-.287 0-.626.1-.987.293-1.423.766-2.626 2.71-2.626 4.242 0 .61.194 1.065.533 1.247.342.185.859.112 1.426-.193 1.423-.768 2.626-2.71 2.626-4.242 0-.61-.195-1.065-.533-1.247a.914.914 0 0 0-.439-.1zm-2.644 7.13c-.396 0-.769-.09-1.103-.27-.774-.416-1.201-1.242-1.201-2.325 0-1.99 1.447-4.326 3.294-5.32 1.005-.544 1.985-.61 2.76-.193.774.416 1.2 1.242 1.2 2.325 0 1.988-1.446 4.326-3.293 5.32-.571.308-1.135.463-1.657.463zM236.672 93.523l-.365-.061c-.798-.075-1.813.32-2.896 1.484a5.838 5.838 0 0 0-1.321 2.25c-.414 1.341-.248 2.328.25 2.881 0 0 1.004 1.355 3.241 1.842a.277.277 0 0 0 .282-.108l3.33-4.935.142-1.779a.2.2 0 0 0-.059-.168c-.256-.258-1.113-1.124-2.604-1.406z"/><path fill="#01BBFF" d="M236.099 94.073c-.393 0-1.166.19-2.182 1.281-.55.59-.96 1.286-1.185 2.014-.313 1.015-.269 1.879.119 2.307.069.087.863 1.109 2.607 1.57l3.083-4.57.117-1.452a4.186 4.186 0 0 0-2.111-1.09l-.349-.056a.986.986 0 0 0-.099-.004zm-.457 8.475a.949.949 0 0 1-.211-.024c-2.46-.534-3.591-2.03-3.639-2.093-.658-.723-.794-1.95-.342-3.408.278-.901.783-1.76 1.459-2.486 1.43-1.537 2.669-1.768 3.467-1.694l.43.07c1.123.213 2.116.746 2.955 1.585.178.18.259.407.242.646l-.157 1.932-3.417 5.067a.954.954 0 0 1-.787.405z"/><path fill="#252323" d="M240.27 96.813c0 1.76-1.324 3.9-2.959 4.78-1.633.881-2.959.167-2.959-1.594 0-1.76 1.326-3.9 2.959-4.78 1.635-.88 2.959-.167 2.959 1.594z"/><path fill="#01BBFF" d="M238.636 95.466c-.287 0-.626.099-.987.293-1.423.766-2.626 2.708-2.626 4.242 0 .609.194 1.065.533 1.247.342.184.859.112 1.426-.194 1.423-.767 2.626-2.71 2.626-4.24 0-.612-.195-1.067-.533-1.25a.931.931 0 0 0-.439-.098zm-2.644 7.129c-.396 0-.769-.089-1.103-.269-.774-.416-1.201-1.242-1.201-2.325 0-1.99 1.447-4.326 3.294-5.32 1.005-.544 1.989-.613 2.76-.193.774.415 1.2 1.242 1.2 2.325 0 1.988-1.445 4.324-3.293 5.321-.571.307-1.135.461-1.657.461zM45.535 73.066c-1.952-1.31-5.263-.554-8.626 3.058-2.22 2.383-3.51 5.453-3.45 8.61.038 1.962.6 3.062 1.891 3.855l.213.14 148.889 79.944c.124.065.28.025.349-.09l9.367-15.426a.231.231 0 0 0-.094-.325L45.535 73.066z"/><path fill="#252323" d="M43.454 73.287c-1.548 0-3.651.96-5.891 3.367-2.143 2.303-3.293 5.168-3.237 8.065.037 1.915.602 2.643 1.5 3.194l.236.154 148.288 79.617 8.763-14.433L45.027 73.723c-.417-.28-.95-.436-1.573-.436zm141.122 96.226c-.194 0-.387-.047-.56-.141L35.128 89.43l-.28-.18c-1.53-.94-2.215-2.292-2.258-4.5-.064-3.302 1.238-6.552 3.661-9.158 4.1-4.4 7.805-4.484 9.751-3.209l148.503 79.747c.533.29.721.928.418 1.425l-9.367 15.427a1.106 1.106 0 0 1-.68.494 1.214 1.214 0 0 1-.3.037z"/><path fill="#fff" d="M162.328 147.019l26.808 14.421 5.03-8.283a.23.23 0 0 0-.094-.324L45.534 73.066c-1.953-1.31-5.264-.554-8.627 3.058-.671.72-1.245 1.508-1.735 2.337-.008.048-.012.099-.033.133l61.648 33.165 3.736 2.01 38.894 20.925 22.911 12.325z"/><path fill="#252323" d="M189.458 162.55l-27.567-14.83.868-1.403 26.05 14.015 4.3-7.081L45.096 73.768c-1.527-1.02-4.396-.487-7.537 2.886-.457.49-.883 1.035-1.272 1.625l103.561 55.713-.868 1.402L33.965 78.898l.443-.828c.54-.913 1.16-1.746 1.839-2.477 4.127-4.43 7.85-4.485 9.79-3.184L194.5 152.13c.533.29.721.928.418 1.425l-5.461 8.995z"/><path fill="#fff" d="M143.266 136.764l15.4 8.285-15.4-8.285z"/><path fill="#252323" d="M158.233 145.751l-15.401-8.285.868-1.403 15.401 8.286-.868 1.402zM35.343 88.5l.213.14 148.891 79.943c.123.066.28.027.349-.088l1.612-2.655-3.572-1.197L33.803 84.831c.038 1.963.251 2.877 1.54 3.669z"/><path fill="#252323" d="M34.777 86.286c.136.793.43 1.16 1.044 1.537l.237.157 148.288 79.614.801-1.317-2.741-.932L34.777 86.286zm149.795 83.139c-.193 0-.384-.047-.557-.14L35.125 89.342l-.266-.17c-1.728-1.065-1.887-2.465-1.922-4.326l-.029-1.428 150.293 80.487 4.47 1.498-2.119 3.491a1.114 1.114 0 0 1-.683.494 1.196 1.196 0 0 1-.297.037z"/><path fill="#01BBFF" d="M196.673 157.284c0 4.113-3.096 9.115-6.917 11.172-3.819 2.057-6.916.39-6.916-3.724 0-4.115 3.097-9.117 6.916-11.174 3.821-2.056 6.917-.389 6.917 3.726z"/><path fill="#252323" d="M192.841 153.484c-.793 0-1.696.261-2.652.775-3.574 1.925-6.481 6.623-6.481 10.473 0 1.688.564 2.922 1.592 3.475 1.027.552 2.457.392 4.021-.452 3.575-1.923 6.483-6.622 6.483-10.473 0-1.688-.566-2.922-1.59-3.474a2.858 2.858 0 0 0-1.373-.324zm-6.177 16.666a4.651 4.651 0 0 1-2.232-.541c-1.587-.854-2.461-2.587-2.461-4.877 0-4.439 3.228-9.655 7.35-11.874 2.13-1.147 4.173-1.306 5.759-.453 1.587.855 2.46 2.586 2.46 4.877 0 4.439-3.229 9.656-7.351 11.876-1.225.66-2.424.992-3.525.992z"/><path fill="#01BBFF" d="M34.337 88.636c-1.144-1.23-1.197-2.71-1.198-2.772v-.747h1.335v.732s.053 1.091.871 1.971l-1.008.816zM238.91 239.462c-.473-.204-1.092-.158-1.779.212l-7.189 3.872c-.786.423-1.536.671-2.236.774l1.277-86.379-5.613 1.492v-17.64l-6.046 3.123v98.215c0 3.892-2.958 8.67-6.572 10.616l-6.934 3.735c-1.289.694-2.287 1.813-2.703 3.147-.478 1.522-.143 2.558.595 2.929l8.043 4.064a.307.307 0 0 0 .294-.012l14.074-8.579 20.04-11.947 2.85-3.147a.258.258 0 0 0-.083-.408l-8.018-4.067z"/><path fill="#252323" d="M218.192 145.394v97.737c0 4.16-3.144 9.238-7.006 11.317l-6.935 3.734c-1.121.604-1.961 1.579-2.304 2.672-.354 1.131-.157 1.826.175 1.991l7.738 3.911 13.786-8.404 19.936-11.883 2.305-2.545-7.36-3.736c-.228-.088-.578-.019-.963.188l-7.189 3.869c-.847.457-1.699.751-2.533.874l-1.017.151.013-.961 1.26-85.293-5.597 1.489v-17.338l-4.309 2.227zm-8.302 123.07c-.187 0-.375-.043-.548-.128l-8.045-4.067c-.931-.466-1.686-1.728-1.015-3.867.472-1.513 1.574-2.799 3.102-3.621l6.932-3.734c3.328-1.792 6.138-6.333 6.138-9.916V144.44l7.783-4.021v17.942l5.629-1.499-1.274 86.396a7.04 7.04 0 0 0 .915-.413l7.189-3.871c.905-.487 1.82-.574 2.579-.246l.049.022 8.019 4.069c.304.152.518.425.584.746.064.32-.029.647-.256.897l-3.044 3.305-20.041 11.945-14.065 8.575c-.189.118-.41.177-.631.177z"/><path fill="#fff" d="M223.588 254.163l-8.507-4.526-.016-.009c-1.159 1.725-2.661 3.226-4.32 4.119l-6.933 3.734c-.554.299-.92.746-1.343 1.185l7.893 4.179 2.487 1.438 5.405-1.68 4.149-2.53 1.185-5.91z"/><path fill="#252323" d="M203.842 258.464l6.944 3.676 2.171 1.255 4.912-1.527 3.746-2.284 1.005-5.003-7.283-3.873c-1.215 1.638-2.644 2.923-4.16 3.74l-6.934 3.734a2.2 2.2 0 0 0-.401.282zm8.891 6.707l-2.833-1.639-8.804-4.66.929-.963c.36-.383.767-.814 1.351-1.13l6.931-3.732c1.449-.78 2.876-2.148 4.02-3.849l.523-.779.761.581 8.941 4.747-1.368 6.814-4.662 2.81-5.789 1.8z"/><path fill="#fff" d="M238.911 239.435c-.473-.204-1.093-.158-1.78.212l-7.188 3.872c-.787.423-1.536.671-2.234.774l-.438 1.339 8.211 4.044 1.954 1.39 6.726-4.009 2.85-3.147a.257.257 0 0 0-.083-.407l-8.018-4.068z"/><path fill="#252323" d="M228.309 245.228l7.698 3.804 1.472 1.048 6.103-3.638 2.304-2.545-7.36-3.736c-.227-.088-.578-.019-.962.188l-7.189 3.87a8.103 8.103 0 0 1-1.987.77l-.079.239zm9.08 6.824l-2.378-1.692-8.781-4.324.804-2.463.537-.08c.621-.092 1.273-.319 1.936-.675l7.189-3.871c.905-.486 1.816-.574 2.578-.247l.05.023 8.018 4.068c.304.153.519.426.585.747.064.321-.029.649-.257.896l-3.044 3.306-7.237 4.312z"/><path fill="#252323" d="M231.503 244.125v-98.213l-6.047 3.125v98.213c0 3.909-2.942 8.663-6.572 10.618l-7.189 3.87c-1.475.795-2.67 2.726-2.67 4.314s1.195 2.232 2.67 1.438l13.761-7.41 6.047-3.124 13.761-7.41c1.475-.795 2.669-2.726 2.669-4.314s-1.194-2.231-2.669-1.438l-7.189 3.871c-3.63 1.955-6.572.371-6.572-3.54z"/><path fill="#252323" d="M226.326 149.514v97.736c0 4.232-3.079 9.202-7.008 11.319l-7.187 3.87c-1.212.653-2.235 2.308-2.235 3.613 0 .454.128.795.346.911.217.12.6.051 1.021-.175l13.76-7.408 6.06-3.132 13.746-7.403c1.212-.654 2.237-2.309 2.237-3.613 0-.454-.129-.794-.349-.911-.216-.119-.599-.052-1.018.173l-7.189 3.872c-2.036 1.095-3.996 1.248-5.517.428-1.52-.818-2.359-2.476-2.359-4.667v-96.84l-4.308 2.227zm-15.828 119.124c-.404 0-.785-.092-1.123-.272-.773-.417-1.217-1.259-1.217-2.314 0-1.875 1.365-4.078 3.105-5.014l7.188-3.87c3.385-1.824 6.138-6.273 6.138-9.918v-98.691l7.783-4.021v99.589c0 1.589.528 2.748 1.489 3.266.961.517 2.304.365 3.781-.428l7.187-3.872c.98-.526 1.984-.59 2.756-.175.774.417 1.217 1.26 1.217 2.314 0 1.873-1.364 4.078-3.103 5.014l-13.761 7.41-6.06 3.132-13.747 7.401c-.552.298-1.111.449-1.633.449z"/><path fill="#252323" d="M224.999 242.574l-8.134-4.728.918-1.374 8.133 4.727-.917 1.375zM224.999 203.498l-8.134-4.727.918-1.374 8.133 4.727-.917 1.374z"/><path fill="#01BBFF" d="M226.691 179.27l-.668-1.079 4.54-2.445.668 1.079-4.54 2.445zM233.386 121.182c-.354-.182-.837-.154-1.374.134l-40.276 21.69c-1.301.7-2.535 1.995-3.359 3.525l-16.256 30.171c-.53.985-.82 2.015-.82 2.917v6.553c0 .499.166.86.434 1.078l.049.039c.063.045 14.684 7.767 16.152 8.551.053.029.12.012.152-.037l5.44-8.048c.005-.006.01-.013.016-.018l43.758-40.814 7.755-7.762a.09.09 0 0 0 .021-.028l4.571-9.225c.025-.049.005-.109-.047-.138l-16.216-8.588z"/><path fill="#252323" d="M232.889 121.877c-.093 0-.243.034-.44.14l-40.278 21.689c-1.146.617-2.275 1.809-3.018 3.188l-16.255 30.173c-.469.869-.728 1.776-.728 2.552v6.553c0 .263.07.415.137.469l9.207 4.869c2.604 1.376 5.043 2.666 6.225 3.294l5.191-7.64 43.759-40.812 7.653-7.661 4.231-8.535-15.606-8.266a.212.212 0 0 0-.078-.013zm-44.893 74.788c-.169 0-.341-.04-.498-.127-.615-.327-3.601-1.908-6.839-3.619-9.317-4.926-9.322-4.931-9.399-4.985-.565-.458-.826-1.057-.826-1.762v-6.553c0-1.024.325-2.189.912-3.28l16.255-30.173c.903-1.674 2.253-3.081 3.702-3.862l40.278-21.688c.773-.418 1.583-.47 2.224-.143l.011.004 16.216 8.59c.447.241.62.745.407 1.179l-4.766 9.487-7.735 7.742-43.725 40.782-5.389 7.978a.993.993 0 0 1-.828.43z"/><path fill="#252323" d="M171.735 187.25l.049.039c.063.045 14.684 7.767 16.152 8.551.053.029.12.012.152-.037l1.7-2.514c-1.226-2.112-2.172-3.688-2.172-3.688l-16.315-8.748v5.319c0 .499.166.86.434 1.078z"/><path fill="#252323" d="M172.302 186.638l.042.033c.112.049 5.134 2.705 9.17 4.839 2.602 1.376 5.043 2.666 6.225 3.294l1.044-1.546c-.855-1.471-1.544-2.626-1.807-3.067l-14.806-7.938v3.919c0 .258.068.409.132.466zm15.694 10.027c-.169 0-.341-.04-.498-.127-.615-.327-3.601-1.908-6.839-3.619-9.317-4.926-9.322-4.931-9.399-4.985l-.095-.073c-.47-.385-.731-.984-.731-1.689v-6.718l17.822 9.556.118.196s.948 1.58 2.177 3.698l.243.417-1.97 2.914a.993.993 0 0 1-.828.43z"/><path fill="#fff" d="M204.691 155.174l41.705-20.179-19.913-10.7-34.746 18.711c-1.302.7-2.535 1.995-3.36 3.525l16.314 8.643z"/><path fill="#252323" d="M189.558 146.223l15.154 8.03 39.882-19.295-18.106-9.73-34.313 18.478c-.956.514-1.9 1.428-2.617 2.517zm15.119 9.871l-17.443-9.241.37-.687c.903-1.674 2.253-3.081 3.703-3.862l35.181-18.944 21.72 11.673-43.531 21.061z"/><path fill="#252323" d="M248.329 164.242l-58.744 31.633c-1.087.585-1.968.112-1.968-1.061v-6.552c0-.902.288-1.933.819-2.916l16.256-30.171c.824-1.531 2.057-2.825 3.359-3.527l40.278-21.688c1.087-.585 1.968-.112 1.968 1.059v30.043c0 1.171-.881 2.595-1.968 3.18z"/><path fill="#252323" d="M249.208 130.519c-.091 0-.246.034-.445.142l-40.277 21.687c-1.147.619-2.276 1.811-3.019 3.189l-16.256 30.172c-.468.871-.725 1.777-.725 2.553v6.552c0 .3.088.459.142.49.055.025.245.02.524-.13l58.741-31.632c.819-.441 1.536-1.6 1.536-2.48v-30.043c0-.299-.088-.457-.142-.487a.17.17 0 0 0-.079-.013zm-60.505 66.415c-.338 0-.658-.075-.943-.229-.642-.346-1.012-1.035-1.012-1.891v-6.552c0-1.024.325-2.187.913-3.279l16.256-30.173c.901-1.673 2.25-3.081 3.701-3.863l40.275-21.689c.795-.426 1.618-.473 2.262-.128.642.346 1.01 1.035 1.01 1.889v30.043c0 1.451-1.055 3.156-2.402 3.882l-.436-.702.436.702-58.743 31.631a2.784 2.784 0 0 1-1.317.359z"/><path fill="#01BBFF" d="M188.287 194.814h-1.336v-4.903h1.336v4.903z"/><path fill="#252323" d="M189.011 184.774l-16.314-8.644.859-1.405 16.313 8.642-.858 1.407zM201.224 162.162l-16.314-8.643.857-1.407 16.314 8.643-.857 1.407z"/><path fill="#01BBFF" d="M238.387 145.119a18.817 18.817 0 0 0-.365-.061c-.798-.076-1.813.32-2.896 1.483a5.89 5.89 0 0 0-1.321 2.25c-.415 1.343-.248 2.33.25 2.882 0 0 1.004 1.355 3.243 1.841a.273.273 0 0 0 .28-.106l3.329-4.937.143-1.777a.206.206 0 0 0-.059-.171c-.255-.256-1.113-1.121-2.604-1.404z"/><path fill="#01BBFF" d="M237.811 145.669c-.394 0-1.167.19-2.182 1.282a5.272 5.272 0 0 0-1.186 2.013c-.312 1.014-.267 1.879.121 2.308.068.086.863 1.106 2.605 1.569l3.083-4.57.117-1.453a4.166 4.166 0 0 0-2.109-1.088l-.349-.057a1.03 1.03 0 0 0-.1-.004zm-.455 8.475a.987.987 0 0 1-.213-.024c-2.461-.535-3.592-2.03-3.64-2.093-.656-.723-.791-1.95-.342-3.408a6.505 6.505 0 0 1 1.459-2.486c1.43-1.536 2.672-1.769 3.467-1.693l.432.068c1.126.214 2.122.749 2.958 1.591a.808.808 0 0 1 .237.641l-.157 1.933-3.416 5.066a.946.946 0 0 1-.785.405z"/><path fill="#252323" d="M241.985 148.408c0 1.761-1.326 3.902-2.959 4.781-1.635.88-2.96.168-2.96-1.593 0-1.76 1.325-3.9 2.96-4.78 1.633-.881 2.959-.167 2.959 1.592z"/><path fill="#01BBFF" d="M240.347 147.061c-.288 0-.628.1-.988.294-1.424.767-2.627 2.708-2.627 4.241 0 .611.196 1.066.534 1.248.336.183.856.112 1.425-.194 1.424-.766 2.626-2.708 2.626-4.242 0-.609-.193-1.065-.533-1.247a.907.907 0 0 0-.437-.1zm-2.644 7.131a2.3 2.3 0 0 1-1.105-.271c-.774-.415-1.2-1.242-1.2-2.325 0-1.988 1.445-4.324 3.293-5.321 1.006-.54 1.987-.609 2.761-.192.773.416 1.201 1.242 1.201 2.325 0 1.99-1.448 4.326-3.294 5.321-.572.307-1.134.463-1.656.463zM230.657 155.93c-.192-.034-.365-.061-.365-.061-.797-.076-1.813.32-2.897 1.483a5.89 5.89 0 0 0-1.321 2.25c-.413 1.342-.248 2.33.251 2.881 0 0 1.003 1.356 3.242 1.842a.276.276 0 0 0 .28-.106l3.329-4.937.144-1.777a.209.209 0 0 0-.059-.171c-.256-.257-1.113-1.123-2.604-1.404z"/><path fill="#01BBFF" d="M230.073 156.478c-.618 0-1.396.45-2.171 1.283a5.25 5.25 0 0 0-1.184 2.014c-.314 1.014-.269 1.877.12 2.308.067.086.862 1.106 2.604 1.569l3.083-4.57.117-1.453a4.162 4.162 0 0 0-2.109-1.088l-.348-.058a1.399 1.399 0 0 0-.112-.005zm-.442 8.477a.99.99 0 0 1-.215-.024c-2.459-.535-3.592-2.03-3.638-2.094-.658-.723-.793-1.949-.343-3.407a6.49 6.49 0 0 1 1.458-2.486c1.431-1.537 2.672-1.77 3.468-1.695l.431.07c1.126.214 2.122.749 2.958 1.591.174.175.256.4.237.641l-.155 1.933-3.418 5.066a.942.942 0 0 1-.783.405z"/><path fill="#252323" d="M234.257 159.219c0 1.761-1.325 3.902-2.96 4.782-1.635.879-2.959.167-2.959-1.594 0-1.76 1.324-3.9 2.959-4.781 1.635-.88 2.96-.166 2.96 1.593z"/><path fill="#01BBFF" d="M232.619 157.872c-.289 0-.628.1-.988.293-1.422.768-2.625 2.709-2.625 4.242 0 .611.195 1.065.533 1.248.338.181.855.112 1.424-.194 1.425-.766 2.626-2.708 2.626-4.242 0-.609-.194-1.065-.533-1.247a.907.907 0 0 0-.437-.1zm-2.644 7.131a2.32 2.32 0 0 1-1.104-.269c-.773-.418-1.199-1.244-1.199-2.327 0-1.988 1.446-4.324 3.291-5.321 1.005-.54 1.987-.609 2.761-.192.775.416 1.201 1.242 1.201 2.325 0 1.99-1.448 4.326-3.294 5.321-.57.307-1.134.463-1.656.463z"/><path fill="#01BBFF" d="M229.768 160.017l-1.11-.69 8.092-11.338 1.112.688-8.094 11.34zM233.818 162.477l-1.111-.692 7.475-10.452 1.11.69-7.474 10.454zM81 92.416c-1.95-1.31-5.263-.554-8.624 3.058-2.22 2.385-3.513 5.453-3.45 8.61v66.919c0 .982.56 1.892 1.472 2.388l78.743 42.742c1.328.72 2.993-.173 2.993-1.606v-68.141c.351-2.523 1.526-4.916 3.331-6.853 3.362-3.612 6.675-4.207 8.625-2.898L81 92.416z"/><path fill="#252323" d="M78.92 92.639c-1.55 0-3.65.959-5.891 3.366-2.144 2.304-3.294 5.168-3.238 8.065l.002 66.933c0 .693.398 1.339 1.04 1.687l78.744 42.744c.506.275.956.094 1.126.003.168-.091.562-.363.562-.91v-68.141c.378-2.781 1.601-5.298 3.542-7.385 1.883-2.022 3.701-3.103 5.306-3.55l-79.62-42.378c-.416-.279-.95-.434-1.572-.434zm71.221 124.56a3.02 3.02 0 0 1-1.437-.365L69.961 174.09c-1.176-.636-1.906-1.819-1.906-3.087v-66.919c-.064-3.283 1.238-6.534 3.662-9.14 4.097-4.402 7.806-4.483 9.75-3.212l82.412 43.859c.258.109.498.241.718.387l-.937 1.359-.578-.307c-1.501-.59-4.031-.115-6.963 3.033-1.717 1.845-2.798 4.066-3.125 6.426l.008 68.038c0 .965-.536 1.83-1.433 2.313-.447.24-.937.359-1.428.359z"/><path fill="#252323" d="M133.096 207.388V138.23c-.061-3.157 1.232-6.226 3.451-8.61 3.362-3.612 6.673-4.368 8.626-3.058l-48.929-26.021c-1.952-1.31-5.263-.554-8.626 3.058-2.22 2.385-3.51 5.453-3.45 8.611v68.701l48.928 26.477z"/><path fill="#252323" d="M85.035 180.445l47.192 25.537v-67.753c-.063-3.284 1.238-6.535 3.664-9.14 1.934-2.08 3.784-3.196 5.4-3.659l-45.479-24.187c-1.524-1.015-4.397-.489-7.54 2.888-2.145 2.303-3.295 5.166-3.239 8.064l.002 68.25zm48.929 28.348l-50.667-27.416V112.21c-.062-3.283 1.238-6.535 3.663-9.141 4.125-4.429 7.85-4.484 9.789-3.185l48.254 25.657c.243.103.469.225.676.363l-.937 1.36-.533-.284c-1.555-.607-4.169.121-7.008 3.171-2.144 2.302-3.294 5.165-3.238 8.065l.001 70.577z"/><path fill="#01BBFF" d="M138.246 123.535l-28.476-15.41.671-1.077 28.476 15.41-.671 1.077zM76.295 107.587l67.937 36.382-67.937-36.382z"/><path fill="#252323" d="M143.802 144.671l-67.937-36.384.863-1.402 67.937 36.382-.863 1.404zM121.028 16.993l.519.28c.485.26.943.404 1.377.431.431.027.831-.058 1.198-.255.368-.199.541-.4.515-.604-.025-.204-.253-.422-.684-.654l-.717-.387-2.208 1.19zm4.74 1.283a4.888 4.888 0 0 1-2.585.584c-.925-.042-1.848-.31-2.77-.806l-.678-.365-2.644 1.425-1.575-.85 7.437-4.004 2.375 1.28c.901.485 1.393.959 1.474 1.42.08.463-.264.9-1.034 1.316zM127.767 20.409l.511.273c.498.27.948.423 1.353.46.402.04.781-.037 1.139-.23.352-.19.483-.388.389-.6-.095-.212-.397-.454-.902-.728l-.48-.258-2.01 1.083zm-1.283.69l-2.852 1.537-1.577-.85 7.437-4.004 2.168 1.166c1.009.545 1.574 1.047 1.691 1.507.117.459-.2.89-.948 1.294-.439.234-.948.38-1.529.433a6.068 6.068 0 0 1-1.824-.118 117.389 117.389 0 0 0-1.052 2.923l-1.751-.944 1.078-2.491-.841-.453zM128.932 25.49l7.435-4.004 1.579.848-7.437 4.005-1.577-.848zM138.979 30.9l-2.004-1.078 2.391-4.772-.046-.026c-.929.57-1.606.971-2.029 1.198l-3.499 1.885-1.411-.76 7.437-4.003 1.989 1.07-2.34 4.739.037.02a56.922 56.922 0 0 1 1.973-1.145l3.52-1.897 1.417.765-7.435 4.004zM143.722 33.453l-1.577-.848 6.123-3.298-2.019-1.088 1.312-.706 5.617 3.023-1.313.706-2.019-1.087-6.124 3.298z"/><path fill="#01BBFF" d="M100.262 171.878l-.008 16.375 31.783 17.199v-5.465l-25.352-13.669.007-10.973-6.43-3.467zM132.031 162.398l-9.501-5.123-22.25-27.031-.005 10.351 14.999 17.54-15.01 1.299-.008 10.414 22.517-2.895 9.258 4.991v-9.546zM87.449 19.848c4.82 1.108 4.82 4.602 0 5.712a9.113 9.113 0 0 1-4.066 0c-4.82-1.11-4.82-4.602 0-5.712a9.113 9.113 0 0 1 4.066 0z"/><path fill="#252323" d="M85.417 20.429c-.613 0-1.228.067-1.826.205-1.793.413-2.954 1.226-2.954 2.07 0 .844 1.16 1.656 2.954 2.07a8.189 8.189 0 0 0 3.652 0c1.795-.414 2.954-1.226 2.954-2.07 0-.844-1.16-1.657-2.953-2.07a8.173 8.173 0 0 0-1.827-.205zm0 6.169a9.994 9.994 0 0 1-2.24-.253c-2.638-.606-4.275-2.001-4.275-3.641 0-1.64 1.637-3.035 4.275-3.642a10.045 10.045 0 0 1 4.482 0c2.636.607 4.274 2.002 4.274 3.642 0 1.64-1.638 3.035-4.274 3.641a9.998 9.998 0 0 1-2.242.253z"/><path fill="#fff" d="M85.418 12.073c-2.013 0-3.645 1.522-3.645 3.4v4.817c0 .744.777 1.486 2.334 1.843a5.853 5.853 0 0 0 2.624 0c1.555-.357 2.334-1.1 2.334-1.843v-4.817c0-1.878-1.632-3.4-3.647-3.4z"/><path fill="#252323" d="M85.417 12.883c-1.53 0-2.777 1.162-2.777 2.59v4.817c0 .335.574.805 1.674 1.058a4.921 4.921 0 0 0 2.208 0c1.099-.253 1.672-.723 1.672-1.058v-4.817c0-1.428-1.244-2.59-2.777-2.59zm0 10.208c-.51 0-1.023-.057-1.521-.172-2.207-.508-2.992-1.691-2.992-2.629v-4.817c0-2.321 2.025-4.209 4.513-4.209 2.489 0 4.514 1.888 4.514 4.209v4.817c0 .938-.786 2.123-2.994 2.629a6.75 6.75 0 0 1-1.52.172z"/><path fill="#252323" d="M85.417 23.09c-.51 0-1.023-.056-1.521-.171-2.207-.506-2.992-1.691-2.992-2.629s.785-2.121 2.992-2.629l.418 1.572c-1.1.252-1.675.724-1.675 1.057 0 .335.575.805 1.673 1.058a4.95 4.95 0 0 0 2.21 0c1.099-.253 1.674-.723 1.674-1.058 0-.333-.575-.805-1.674-1.057l.416-1.572c2.207.508 2.993 1.691 2.993 2.629s-.786 2.123-2.994 2.629a6.75 6.75 0 0 1-1.52.172z"/><path fill="#01BBFF" d="M225.394 57.413c4.82 1.11 4.82 4.603 0 5.711a9.113 9.113 0 0 1-4.066 0c-4.82-1.108-4.82-4.602 0-5.711a9.113 9.113 0 0 1 4.066 0z"/><path fill="#252323" d="M223.362 57.992c-.615 0-1.23.069-1.827.206-1.794.414-2.955 1.226-2.955 2.07 0 .844 1.161 1.657 2.955 2.07a8.17 8.17 0 0 0 3.652 0c1.794-.413 2.955-1.226 2.955-2.07 0-.844-1.161-1.656-2.955-2.07a8.141 8.141 0 0 0-1.825-.206zm-.002 6.172c-.752 0-1.507-.085-2.24-.254-2.638-.607-4.274-2.002-4.274-3.642 0-1.64 1.636-3.035 4.274-3.641a10.069 10.069 0 0 1 4.482 0c2.638.606 4.274 2.001 4.274 3.641 0 1.64-1.636 3.035-4.272 3.642-.735.169-1.488.254-2.244.254z"/><path fill="#fff" d="M223.359 49.638c-2.014 0-3.646 1.522-3.646 3.4v4.817c0 .744.778 1.486 2.333 1.843a5.854 5.854 0 0 0 2.625 0c1.555-.357 2.333-1.1 2.333-1.843v-4.817c0-1.878-1.632-3.4-3.645-3.4z"/><path fill="#252323" d="M223.36 50.448c-1.531 0-2.776 1.162-2.776 2.59v4.817c0 .334.575.805 1.673 1.059a4.95 4.95 0 0 0 2.21-.002c1.097-.252 1.672-.723 1.672-1.057v-4.817c0-1.428-1.246-2.59-2.779-2.59zm0 10.207a6.83 6.83 0 0 1-1.518-.17c-2.208-.508-2.994-1.69-2.994-2.63v-4.817c0-2.321 2.024-4.21 4.512-4.21 2.489 0 4.516 1.889 4.516 4.21v4.817c0 .94-.787 2.122-2.994 2.63a6.852 6.852 0 0 1-1.522.17z"/><path fill="#252323" d="M223.36 60.655a6.83 6.83 0 0 1-1.518-.17c-2.208-.508-2.994-1.69-2.994-2.63 0-.938.786-2.121 2.993-2.629l.416 1.571c-1.098.253-1.673.725-1.673 1.058 0 .334.575.805 1.673 1.059a4.95 4.95 0 0 0 2.21-.002c1.097-.252 1.672-.723 1.672-1.057 0-.333-.575-.805-1.674-1.058l.417-1.571c2.207.508 2.993 1.69 2.993 2.629 0 .94-.786 2.122-2.993 2.63a6.852 6.852 0 0 1-1.522.17z"/><path fill="#252323" fill-rule="evenodd" d="M72.992 109.057l73.979 39.837v79.674l-73.979-39.837v-79.674z" clip-rule="evenodd"/><path fill="#EC268F" d="M106.795 141.854l.843.454v20.629l-1.21-.651v-20.63l.367.198z"/><path fill="#00AFEF" d="M83.166 149.362v-20.231l1.462.788 7.827 22.865 7.735-14.485 1.462.787v20.629l-1.21-.651v-18.102l-7.555 13.928-.403-.217-.023.048-.027-.075-.5-.269-7.558-22.067v18.102l-1.21-.651v-.399z"/><path fill="#FFF212" d="M115.078 143.4v-.896l9.348 5.034v1.294l-9.348-5.034v-.398z"/><path fill="#EC268F" d="M106.398 138.794v-.965l1.267.682v1.361l-1.267-.682v-.396z"/><path fill="#FEFEFE" d="M123.511 185.068l.699.749-7.079 12.897c-.432.775-.914 1.267-1.444 1.479-.559.225-1.166.143-1.823-.242a4.826 4.826 0 0 1-1.103-.709c-.376-.314-.77-.711-1.181-1.187l-.299-.349.506-.815.323.337c.39.404.733.726 1.026.964.27.215.492.357.669.427l.051.02c.411.222.787.255 1.127.101.37-.171.704-.561 1-1.167l.79-1.464-5.865-17.554 1.039-.001 5.522 16.549 5.702-10.403.34.368zM98.938 184.249v7.664l-1.213-.653v-20.119l1.213.653v2.852c.417-.514.905-.86 1.471-1.028.932-.285 2.059-.089 3.373.584l.033.017c1.879 1.155 3.32 2.68 4.323 4.572.982 1.855 1.524 4.049 1.621 6.571v.023c-.032 2.494-.532 4.13-1.503 4.905-.991.788-2.444.685-4.365-.314l-.011-.007c-1.347-.76-2.495-1.789-3.445-3.082a13.667 13.667 0 0 1-1.497-2.638zm4.968 4.431c1.515.781 2.655.859 3.418.231.784-.645 1.193-2.038 1.225-4.172-.092-2.178-.541-4.036-1.346-5.578-.781-1.498-1.921-2.717-3.412-3.651-1.524-.687-2.687-.711-3.486-.061-.817.666-1.275 2.029-1.367 4.099.124 2.116.6 3.934 1.432 5.456.82 1.493 1.998 2.72 3.536 3.676zM78.361 175.631v-20.234c1.853.997 3.702 1.987 5.555 2.994 3.338 1.836 5.862 4.052 7.566 6.65 1.714 2.611 2.587 5.577 2.616 8.891v.348c.015.444.018.87.003 1.276-.092 2.794-.9 4.532-2.418 5.216-1.509.678-3.71.302-6.599-1.125a28.361 28.361 0 0 1-1.606-.866l-5.117-2.752v-.398zm1.214-18.274v18.016l3.915 2.108c3.29 1.906 5.71 2.537 7.267 1.893 1.542-.636 2.252-2.545 2.13-5.72v-.016c0-3.054-.775-5.753-2.322-8.091-1.56-2.356-3.924-4.385-7.087-6.088l-3.903-2.102z"/><path fill="#FFF212" d="M127.196 153.235l-.003 41.333 12.834-6.411.902 1.458-8.001 3.895 8.67 15.951-.973.256-8.608-15.844-4.824 2.413v5.851l-1.21-.652c0-15.766-.003-31.536 0-47.301l-12.355 11.979-1.314-.708v-20.629l1.113.599v18.625l12.355-11.972 1.414.761v.396z"/></g></svg>