<svg width="280" height="276" viewBox="0 0 280 276" fill="none" xmlns="http://www.w3.org/2000/svg">
<g opacity="0.29">
<path d="M200.76 266.497L199.1 267.39C198.931 267.481 198.634 267.47 198.437 267.365L196.873 266.523C196.678 266.416 196.655 266.257 196.826 266.166L198.485 265.271C198.655 265.18 198.952 265.192 199.149 265.298L200.711 266.139C200.908 266.245 200.929 266.405 200.76 266.497Z" fill="#252323"/>
<path d="M204.622 268.575L202.963 269.47C202.793 269.561 202.495 269.549 202.3 269.443L200.735 268.602C200.538 268.496 200.517 268.336 200.687 268.243L202.346 267.35C202.517 267.259 202.814 267.271 203.011 267.375L204.574 268.218C204.771 268.324 204.791 268.484 204.622 268.575Z" fill="#252323"/>
<path d="M200.553 270.766L198.894 271.659C198.724 271.75 198.426 271.74 198.231 271.633L196.666 270.792C196.471 270.685 196.448 270.525 196.618 270.435L198.277 269.541C198.449 269.448 198.745 269.461 198.942 269.566L200.505 270.409C200.702 270.513 200.723 270.675 200.553 270.766Z" fill="#252323"/>
<path d="M208.481 270.654L206.822 271.547C206.651 271.64 206.354 271.628 206.157 271.521L204.594 270.679C204.397 270.574 204.377 270.415 204.546 270.323L206.205 269.429C206.375 269.338 206.673 269.349 206.868 269.454L208.433 270.297C208.63 270.403 208.651 270.563 208.481 270.654Z" fill="#252323"/>
<path d="M204.415 272.845L202.756 273.739C202.586 273.83 202.288 273.817 202.091 273.713L200.528 272.87C200.331 272.764 200.31 272.604 200.48 272.513L202.139 271.62C202.309 271.528 202.607 271.54 202.804 271.646L204.367 272.486C204.564 272.593 204.584 272.753 204.415 272.845Z" fill="#252323"/>
<path d="M212.567 272.854L210.908 273.747C210.738 273.84 210.44 273.828 210.243 273.722L208.68 272.88C208.483 272.775 208.463 272.614 208.632 272.523L210.291 271.63C210.461 271.538 210.759 271.549 210.954 271.655L212.519 272.497C212.716 272.603 212.737 272.763 212.567 272.854Z" fill="#252323"/>
<path d="M208.499 275.046L206.84 275.938C206.67 276.03 206.372 276.018 206.175 275.913L204.612 275.071C204.415 274.965 204.394 274.805 204.564 274.714L206.223 273.819C206.393 273.728 206.691 273.74 206.888 273.846L208.451 274.687C208.648 274.793 208.668 274.953 208.499 275.046Z" fill="#252323"/>
<path d="M216.633 270.664L214.974 271.558C214.803 271.649 214.507 271.638 214.31 271.532L212.747 270.69C212.55 270.584 212.529 270.424 212.699 270.333L214.358 269.44C214.528 269.347 214.825 269.359 215.021 269.465L216.585 270.307C216.781 270.412 216.803 270.572 216.633 270.664Z" fill="#252323"/>
<path d="M220.702 268.473L219.043 269.366C218.873 269.459 218.577 269.447 218.38 269.341L216.817 268.5C216.62 268.394 216.599 268.234 216.769 268.142L218.428 267.248C218.598 267.157 218.896 267.169 219.091 267.274L220.656 268.116C220.851 268.222 220.873 268.382 220.702 268.473Z" fill="#252323"/>
<path d="M224.767 266.284L223.107 267.177C222.938 267.268 222.641 267.257 222.445 267.151L220.881 266.309C220.685 266.203 220.664 266.043 220.833 265.952L222.493 265.059C222.662 264.966 222.959 264.978 223.156 265.084L224.72 265.927C224.915 266.033 224.938 266.192 224.767 266.284Z" fill="#252323"/>
<path d="M228.836 264.094L227.177 264.987C227.007 265.078 226.711 265.066 226.514 264.962L224.949 264.119C224.754 264.013 224.731 263.853 224.903 263.762L226.562 262.868C226.731 262.776 227.028 262.788 227.225 262.894L228.788 263.735C228.985 263.841 229.005 264.001 228.836 264.094Z" fill="#252323"/>
<path d="M232.906 261.903L231.247 262.796C231.077 262.888 230.779 262.876 230.584 262.77L229.019 261.928C228.824 261.823 228.802 261.662 228.973 261.571L230.632 260.678C230.802 260.587 231.098 260.597 231.295 260.703L232.858 261.546C233.055 261.652 233.076 261.812 232.906 261.903Z" fill="#252323"/>
<path d="M236.975 259.713L235.316 260.606C235.146 260.697 234.848 260.687 234.653 260.581L233.088 259.739C232.893 259.632 232.87 259.473 233.04 259.382L234.699 258.488C234.87 258.396 235.167 258.408 235.364 258.514L236.927 259.356C237.124 259.461 237.144 259.621 236.975 259.713Z" fill="#252323"/>
<path d="M241.042 257.522L239.382 258.415C239.213 258.508 238.915 258.496 238.72 258.39L237.155 257.549C236.958 257.443 236.937 257.283 237.107 257.19L238.766 256.297C238.936 256.206 239.234 256.218 239.431 256.322L240.994 257.165C241.191 257.271 241.211 257.431 241.042 257.522Z" fill="#252323"/>
<path d="M245.108 255.332L243.449 256.225C243.279 256.317 242.981 256.306 242.784 256.2L241.221 255.358C241.024 255.252 241.004 255.092 241.173 255.001L242.832 254.107C243.002 254.015 243.3 254.027 243.497 254.133L245.06 254.975C245.257 255.081 245.278 255.241 245.108 255.332Z" fill="#252323"/>
<path d="M249.176 253.143L247.517 254.036C247.346 254.127 247.05 254.115 246.853 254.009L245.29 253.168C245.093 253.062 245.072 252.902 245.242 252.811L246.901 251.916C247.07 251.825 247.368 251.837 247.564 251.943L249.128 252.784C249.325 252.89 249.346 253.05 249.176 253.143Z" fill="#252323"/>
<path d="M216.429 274.934L214.77 275.826C214.6 275.918 214.304 275.907 214.107 275.801L212.544 274.959C212.347 274.852 212.326 274.692 212.496 274.601L214.155 273.708C214.324 273.616 214.622 273.628 214.818 273.734L216.382 274.576C216.578 274.682 216.6 274.842 216.429 274.934Z" fill="#252323"/>
<path d="M220.496 272.744L218.837 273.636C218.667 273.728 218.371 273.716 218.174 273.611L216.609 272.769C216.414 272.663 216.391 272.503 216.563 272.412L218.222 271.517C218.392 271.426 218.688 271.438 218.885 271.544L220.449 272.385C220.645 272.491 220.667 272.651 220.496 272.744Z" fill="#252323"/>
<path d="M224.562 270.552L222.903 271.446C222.733 271.538 222.436 271.526 222.24 271.42L220.676 270.578C220.48 270.473 220.458 270.312 220.629 270.221L222.288 269.328C222.458 269.237 222.754 269.247 222.951 269.353L224.514 270.195C224.711 270.302 224.732 270.461 224.562 270.552Z" fill="#252323"/>
<path d="M228.631 268.363L226.972 269.256C226.802 269.347 226.504 269.337 226.309 269.23L224.744 268.388C224.549 268.282 224.526 268.122 224.696 268.031L226.355 267.138C226.527 267.045 226.823 267.057 227.02 267.163L228.583 268.006C228.78 268.11 228.801 268.27 228.631 268.363Z" fill="#252323"/>
<path d="M232.7 266.172L231.041 267.066C230.871 267.157 230.573 267.145 230.378 267.039L228.813 266.199C228.616 266.092 228.595 265.933 228.765 265.84L230.424 264.947C230.596 264.856 230.892 264.868 231.089 264.972L232.652 265.815C232.849 265.921 232.87 266.081 232.7 266.172Z" fill="#252323"/>
<path d="M236.766 263.982L235.107 264.875C234.937 264.966 234.64 264.956 234.443 264.85L232.88 264.007C232.683 263.901 232.662 263.741 232.832 263.65L234.491 262.757C234.66 262.664 234.958 262.676 235.155 262.782L236.718 263.625C236.915 263.731 236.936 263.891 236.766 263.982Z" fill="#252323"/>
<path d="M240.833 261.792L239.174 262.685C239.004 262.777 238.706 262.765 238.509 262.66L236.946 261.818C236.749 261.712 236.728 261.552 236.898 261.461L238.557 260.566C238.727 260.475 239.025 260.487 239.22 260.593L240.785 261.434C240.982 261.54 241.002 261.7 240.833 261.792Z" fill="#252323"/>
<path d="M244.901 259.601L243.242 260.494C243.071 260.587 242.774 260.575 242.577 260.469L241.014 259.626C240.817 259.522 240.797 259.36 240.966 259.269L242.625 258.376C242.795 258.285 243.093 258.295 243.288 258.402L244.853 259.244C245.048 259.35 245.071 259.51 244.901 259.601Z" fill="#252323"/>
<path d="M248.968 257.411L247.309 258.305C247.139 258.396 246.843 258.385 246.646 258.279L245.083 257.437C244.886 257.331 244.865 257.171 245.035 257.08L246.694 256.187C246.863 256.094 247.161 256.106 247.357 256.212L248.921 257.054C249.117 257.159 249.139 257.319 248.968 257.411Z" fill="#252323"/>
<path d="M30.4141 174.513L28.7551 175.407C28.5853 175.498 28.2874 175.486 28.092 175.38L26.5275 174.539C26.3321 174.433 26.3097 174.274 26.4794 174.181L28.1385 173.288C28.3098 173.197 28.6061 173.209 28.8031 173.313L30.3661 174.156C30.563 174.262 30.5839 174.421 30.4141 174.513Z" fill="#252323"/>
<path d="M34.276 176.592L32.6169 177.485C32.4471 177.578 32.1493 177.566 31.9523 177.46L30.3893 176.617C30.1923 176.513 30.1715 176.353 30.3413 176.26L32.0004 175.367C32.1701 175.276 32.468 175.287 32.6633 175.393L34.2279 176.235C34.4249 176.341 34.4457 176.501 34.276 176.592Z" fill="#252323"/>
<path d="M30.2056 178.783L28.5466 179.676C28.3768 179.767 28.079 179.755 27.8836 179.651L26.319 178.808C26.122 178.702 26.1012 178.542 26.271 178.451L27.93 177.557C28.0998 177.465 28.3977 177.477 28.5946 177.583L30.1576 178.424C30.3546 178.53 30.3754 178.69 30.2056 178.783Z" fill="#252323"/>
<path d="M38.1318 178.671L36.4727 179.564C36.303 179.657 36.0067 179.645 35.8097 179.539L34.2467 178.696C34.0497 178.59 34.029 178.431 34.1987 178.339L35.8578 177.446C36.0275 177.355 36.3254 177.366 36.5208 177.472L38.0853 178.314C38.2807 178.42 38.3031 178.58 38.1318 178.671Z" fill="#252323"/>
<path d="M34.067 180.861L32.4079 181.755C32.2365 181.846 31.9403 181.835 31.7433 181.728L30.1803 180.888C29.9834 180.781 29.9625 180.622 30.1323 180.529L31.7914 179.636C31.9611 179.545 32.259 179.557 32.4543 179.661L34.0189 180.504C34.2143 180.61 34.2367 180.77 34.067 180.861Z" fill="#252323"/>
<path d="M42.2193 180.871L40.5603 181.764C40.3889 181.855 40.0926 181.845 39.8957 181.739L38.3327 180.896C38.1357 180.79 38.1149 180.631 38.2846 180.539L39.9437 179.646C40.1135 179.554 40.4113 179.566 40.6067 179.672L42.1713 180.514C42.3667 180.62 42.3891 180.78 42.2193 180.871Z" fill="#252323"/>
<path d="M38.1529 183.061L36.4938 183.954C36.3225 184.047 36.0262 184.035 35.8293 183.929L34.2663 183.088C34.0693 182.982 34.0485 182.822 34.2182 182.729L35.8773 181.836C36.0471 181.745 36.3449 181.757 36.5403 181.861L38.1049 182.704C38.3018 182.81 38.3227 182.97 38.1529 183.061Z" fill="#252323"/>
<path d="M46.2841 178.681L44.625 179.575C44.4553 179.666 44.159 179.654 43.9621 179.549L42.3991 178.707C42.2021 178.601 42.1813 178.441 42.351 178.35L44.0101 177.455C44.1798 177.364 44.4777 177.376 44.6731 177.482L46.2377 178.323C46.4331 178.429 46.4555 178.589 46.2841 178.681Z" fill="#252323"/>
<path d="M50.3533 176.49L48.6942 177.383C48.5245 177.476 48.2282 177.464 48.0312 177.358L46.4666 176.516C46.2713 176.411 46.2488 176.25 46.4202 176.159L48.0793 175.265C48.249 175.174 48.5453 175.185 48.7423 175.291L50.3068 176.133C50.5022 176.239 50.5246 176.399 50.3533 176.49Z" fill="#252323"/>
<path d="M54.4216 174.301L52.7626 175.194C52.5928 175.285 52.2949 175.274 52.0996 175.168L50.535 174.326C50.3396 174.22 50.3172 174.06 50.4886 173.969L52.1476 173.076C52.3174 172.983 52.6136 172.995 52.8106 173.101L54.3736 173.944C54.5706 174.048 54.5914 174.208 54.4216 174.301Z" fill="#252323"/>
<path d="M58.4864 172.109L56.8273 173.003C56.6575 173.095 56.3597 173.083 56.1643 172.977L54.5997 172.136C54.4043 172.03 54.3819 171.87 54.5517 171.778L56.2108 170.885C56.3821 170.793 56.6784 170.805 56.8753 170.91L58.4383 171.752C58.6353 171.858 58.6561 172.018 58.4864 172.109Z" fill="#252323"/>
<path d="M62.5572 169.92L60.8981 170.813C60.7284 170.904 60.4305 170.894 60.2351 170.788L58.6705 169.945C58.4736 169.839 58.4528 169.679 58.6225 169.588L60.2816 168.695C60.4529 168.602 60.7492 168.614 60.9462 168.72L62.5091 169.563C62.7061 169.669 62.7269 169.829 62.5572 169.92Z" fill="#252323"/>
<path d="M66.6236 167.73L64.9645 168.623C64.7948 168.714 64.4969 168.702 64.3 168.598L62.737 167.755C62.54 167.649 62.5192 167.489 62.6889 167.397L64.348 166.504C64.5177 166.413 64.8156 166.424 65.0126 166.531L66.5756 167.371C66.7726 167.477 66.7934 167.637 66.6236 167.73Z" fill="#252323"/>
<path d="M46.0799 182.95L44.4208 183.843C44.251 183.934 43.9548 183.924 43.7578 183.818L42.1932 182.976C41.9978 182.869 41.9754 182.71 42.1468 182.619L43.8058 181.725C43.9756 181.633 44.2718 181.645 44.4688 181.751L46.0334 182.593C46.2288 182.698 46.2496 182.858 46.0799 182.95Z" fill="#252323"/>
<path d="M50.1482 180.759L48.4892 181.654C48.3194 181.745 48.0215 181.733 47.8262 181.627L46.2616 180.786C46.0662 180.68 46.0438 180.52 46.2151 180.428L47.8742 179.534C48.044 179.443 48.3402 179.455 48.5372 179.56L50.1002 180.402C50.2971 180.508 50.318 180.668 50.1482 180.759Z" fill="#252323"/>
<path d="M54.2149 178.569L52.5558 179.463C52.386 179.554 52.0882 179.543 51.8928 179.437L50.3282 178.595C50.1329 178.489 50.1104 178.329 50.2802 178.238L51.9392 177.345C52.1106 177.252 52.4069 177.264 52.6038 177.37L54.1668 178.212C54.3638 178.318 54.3846 178.478 54.2149 178.569Z" fill="#252323"/>
<path d="M58.2838 176.38L56.6247 177.273C56.4549 177.364 56.1571 177.352 55.9617 177.247L54.3971 176.405C54.2002 176.299 54.1793 176.139 54.3491 176.048L56.0082 175.153C56.1795 175.062 56.4758 175.074 56.6727 175.18L58.2357 176.021C58.4327 176.127 58.4535 176.287 58.2838 176.38Z" fill="#252323"/>
<path d="M62.3502 174.188L60.6911 175.082C60.5214 175.174 60.2235 175.162 60.0265 175.056L58.4635 174.214C58.2665 174.109 58.2458 173.948 58.4155 173.857L60.0746 172.964C60.2443 172.873 60.5422 172.883 60.7392 172.989L62.3022 173.831C62.4991 173.938 62.5199 174.097 62.3502 174.188Z" fill="#252323"/>
<path d="M66.4185 171.999L64.7595 172.892C64.5881 172.983 64.2919 172.973 64.0949 172.867L62.5319 172.024C62.3349 171.918 62.3141 171.758 62.4838 171.667L64.1429 170.774C64.3127 170.682 64.6105 170.693 64.8059 170.8L66.3705 171.642C66.5675 171.747 66.5883 171.906 66.4185 171.999Z" fill="#252323"/>
<path d="M169.153 234.5L167.494 235.393C167.323 235.486 167.026 235.474 166.829 235.368L165.266 234.526C165.069 234.42 165.048 234.26 165.218 234.169L166.877 233.275C167.047 233.184 167.345 233.195 167.54 233.301L169.105 234.143C169.3 234.249 169.323 234.409 169.153 234.5Z" fill="#252323"/>
<path d="M173.011 236.579L171.352 237.473C171.183 237.564 170.886 237.553 170.689 237.447L169.125 236.605C168.929 236.499 168.907 236.339 169.078 236.248L170.737 235.355C170.907 235.262 171.203 235.274 171.4 235.38L172.965 236.222C173.16 236.327 173.181 236.488 173.011 236.579Z" fill="#252323"/>
<path d="M168.946 238.769L167.287 239.662C167.117 239.755 166.821 239.743 166.624 239.637L165.061 238.795C164.864 238.69 164.843 238.53 165.013 238.438L166.672 237.544C166.842 237.453 167.14 237.464 167.335 237.57L168.9 238.412C169.095 238.518 169.118 238.678 168.946 238.769Z" fill="#252323"/>
<path d="M176.873 238.659L175.214 239.552C175.044 239.643 174.746 239.631 174.551 239.527L172.986 238.684C172.791 238.578 172.769 238.418 172.938 238.327L174.597 237.434C174.769 237.341 175.065 237.353 175.262 237.459L176.825 238.3C177.022 238.406 177.043 238.566 176.873 238.659Z" fill="#252323"/>
<path d="M172.806 240.848L171.147 241.741C170.978 241.834 170.68 241.822 170.484 241.716L168.92 240.874C168.724 240.768 168.702 240.608 168.873 240.517L170.532 239.623C170.702 239.532 170.998 239.543 171.195 239.649L172.758 240.491C172.955 240.597 172.976 240.757 172.806 240.848Z" fill="#252323"/>
<path d="M180.959 240.859L179.3 241.752C179.13 241.843 178.832 241.831 178.637 241.727L177.072 240.884C176.877 240.778 176.855 240.618 177.024 240.527L178.683 239.632C178.855 239.541 179.151 239.553 179.348 239.659L180.911 240.5C181.108 240.606 181.129 240.766 180.959 240.859Z" fill="#252323"/>
<path d="M176.892 243.049L175.233 243.942C175.064 244.033 174.766 244.022 174.57 243.916L173.006 243.074C172.81 242.968 172.788 242.808 172.959 242.717L174.618 241.824C174.788 241.731 175.084 241.743 175.281 241.849L176.844 242.692C177.041 242.798 177.062 242.957 176.892 243.049Z" fill="#252323"/>
<path d="M185.026 238.668L183.367 239.561C183.197 239.653 182.899 239.642 182.704 239.535L181.139 238.693C180.942 238.589 180.922 238.427 181.091 238.336L182.75 237.443C182.922 237.352 183.218 237.362 183.415 237.468L184.978 238.311C185.175 238.417 185.196 238.577 185.026 238.668Z" fill="#252323"/>
<path d="M189.094 236.478L187.435 237.371C187.266 237.462 186.968 237.452 186.771 237.346L185.208 236.503C185.011 236.397 184.99 236.237 185.16 236.146L186.819 235.253C186.988 235.161 187.286 235.172 187.483 235.279L189.046 236.121C189.243 236.225 189.264 236.385 189.094 236.478Z" fill="#252323"/>
<path d="M193.165 234.287L191.506 235.181C191.336 235.272 191.038 235.26 190.841 235.154L189.278 234.314C189.081 234.207 189.06 234.048 189.23 233.955L190.889 233.062C191.059 232.971 191.357 232.983 191.552 233.087L193.117 233.93C193.314 234.036 193.334 234.196 193.165 234.287Z" fill="#252323"/>
<path d="M197.229 232.097L195.57 232.99C195.399 233.081 195.102 233.071 194.905 232.965L193.342 232.122C193.145 232.016 193.125 231.857 193.294 231.765L194.953 230.872C195.123 230.78 195.421 230.792 195.616 230.898L197.181 231.74C197.378 231.846 197.399 232.006 197.229 232.097Z" fill="#252323"/>
<path d="M184.819 242.936L183.16 243.831C182.99 243.922 182.692 243.91 182.495 243.804L180.932 242.963C180.735 242.857 180.714 242.697 180.884 242.605L182.543 241.712C182.713 241.621 183.011 241.632 183.208 241.737L184.771 242.579C184.968 242.686 184.989 242.845 184.819 242.936Z" fill="#252323"/>
<path d="M188.887 240.747L187.228 241.64C187.057 241.731 186.761 241.721 186.564 241.615L185.001 240.772C184.804 240.666 184.783 240.506 184.953 240.415L186.612 239.522C186.781 239.431 187.079 239.441 187.275 239.547L188.839 240.39C189.036 240.496 189.057 240.656 188.887 240.747Z" fill="#252323"/>
<path d="M192.954 238.557L191.295 239.45C191.123 239.541 190.827 239.529 190.63 239.425L189.067 238.582C188.87 238.476 188.849 238.316 189.019 238.225L190.678 237.331C190.848 237.24 191.146 237.251 191.341 237.358L192.906 238.198C193.101 238.304 193.123 238.464 192.954 238.557Z" fill="#252323"/>
<path d="M197.02 236.366L195.361 237.259C195.192 237.352 194.895 237.34 194.698 237.234L193.135 236.391C192.938 236.287 192.918 236.126 193.087 236.034L194.746 235.141C194.916 235.05 195.214 235.061 195.409 235.167L196.974 236.009C197.169 236.115 197.192 236.275 197.02 236.366Z" fill="#252323"/>
<path d="M274.33 88.5686C274.405 88.346 274.298 88.113 274.077 88.0025L260.715 81.2766C258.543 80.4043 255.845 80.6314 252.911 82.2102L245.914 85.9786C244.015 87.0018 242.475 89.7471 242.475 92.11V133.665C242.475 134.907 242.907 135.783 243.588 136.199L256.426 142.728C256.671 142.852 256.972 142.782 257.118 142.561C258.755 140.075 267.668 126.498 267.43 126.271C267.188 126.043 273.369 91.4663 274.33 88.5686Z" fill="#01BBFF"/>
<path d="M258.042 81.5722C256.6 81.5722 255.003 82.0188 253.345 82.912L246.349 86.679C244.719 87.5572 243.341 90.0442 243.341 92.1099V133.665C243.341 134.552 243.61 135.246 244.062 135.523L256.552 141.871C261.208 134.792 266.285 126.916 266.594 126.095L266.615 126.102C266.647 124.822 267.271 120.997 269.573 108.286C271.062 100.047 272.819 90.7686 273.423 88.5923L260.302 81.9889C259.605 81.7111 258.848 81.5722 258.042 81.5722ZM256.678 143.599C256.452 143.599 256.222 143.546 256.009 143.439L243.17 136.91C242.14 136.281 241.605 135.142 241.605 133.665V92.1099C241.605 89.4482 243.308 86.4475 245.481 85.2765L252.476 81.5095C255.555 79.8515 258.52 79.5155 261.056 80.5326L274.487 87.2899C275.072 87.5841 275.354 88.2234 275.158 88.8089C274.199 91.6961 268.311 124.948 268.29 126.222H268.274C268.167 127.175 266.323 130.119 257.857 142.983C257.599 143.379 257.146 143.599 256.678 143.599Z" fill="#252323"/>
<path d="M258.359 101.04L272.069 93.6573L251.862 82.7761L245.914 85.9784C244.015 87.0016 242.475 89.7469 242.475 92.1098V92.4847L258.359 101.04Z" fill="white"/>
<path d="M243.341 92.0186L258.36 100.105L270.333 93.6572L251.861 83.7095L246.349 86.6789C244.743 87.5437 243.383 89.9708 243.341 92.0186ZM258.36 101.974L241.605 92.9522V92.1098C241.605 89.4481 243.308 86.4474 245.481 85.2763L251.861 81.841L273.804 93.6572L258.36 101.974Z" fill="#252323"/>
<path d="M275.691 133.911L259.164 142.81C257.265 143.833 255.725 142.747 255.725 140.384V98.8282C255.725 96.4652 257.265 93.7199 259.164 92.6968L266.161 88.9298C273.324 85.0717 279.131 89.1673 279.131 98.0754V127.779C279.131 130.142 277.592 132.888 275.691 133.911Z" fill="#252323"/>
<path d="M271.314 88.2937C269.851 88.2937 268.245 88.7417 266.595 89.6305L259.597 93.3989C257.967 94.2772 256.591 96.7626 256.591 98.8283V140.384C256.591 141.315 256.873 142.023 257.345 142.278C257.789 142.517 258.341 142.317 258.729 142.11L275.256 133.209C276.886 132.331 278.263 129.844 278.263 127.78V98.0755C278.263 93.6887 276.787 90.3788 274.213 88.9927C273.345 88.5252 272.367 88.2937 271.314 88.2937ZM257.795 144.007C257.328 144.007 256.882 143.898 256.477 143.681C255.446 143.124 254.854 141.923 254.854 140.384V98.8283C254.854 96.1681 256.556 93.1674 258.729 91.9964L265.727 88.228C269.125 86.3982 272.448 86.1712 275.081 87.5902C278.207 89.2735 279.999 93.0942 279.999 98.0755V127.78C279.999 130.44 278.297 133.441 276.124 134.612L259.597 143.511C258.984 143.841 258.373 144.007 257.795 144.007Z" fill="#252323"/>
<path d="M224.62 142.725V105.59L176.461 100.595L178.349 125.487L218.114 141.793L224.62 142.725Z" fill="#01BBFF"/>
<path d="M218.362 141.009L223.755 141.783V106.315L177.402 101.508L179.181 124.942L218.362 141.009ZM225.493 143.669L217.768 142.534L177.524 126.031L175.525 99.6843L225.493 104.866V143.669Z" fill="#252323"/>
<path d="M217.332 121.642L200.967 112.682L201.846 111.285L218.209 120.246L217.332 121.642Z" fill="#252323"/>
<path d="M68.4728 147.691C67.9988 147.488 67.379 147.534 66.6936 147.905L59.5048 151.775C58.7185 152.199 57.9675 152.446 57.2693 152.55L58.544 66.1697L52.9326 67.6619V50.0219L46.8857 53.1466V151.36C46.8857 155.254 43.9295 160.032 40.3134 161.978L33.3809 165.712C32.0901 166.407 31.094 167.524 30.6761 168.858C30.2004 170.381 30.5352 171.418 31.2734 171.787L39.3158 175.852C39.4086 175.899 39.5207 175.894 39.6088 175.84L53.6821 167.259L73.7239 155.315L76.5728 152.168C76.6913 152.038 76.6513 151.841 76.4912 151.758L68.4728 147.691Z" fill="#01BBFF"/>
<path d="M47.757 53.6233V151.36C47.757 155.521 44.6134 160.599 40.7508 162.679L33.8183 166.413C32.6957 167.016 31.8565 167.99 31.5138 169.085C31.1583 170.214 31.3553 170.909 31.6884 171.074L39.428 174.986L53.2115 166.583L73.1491 154.7L75.4552 152.153L68.0934 148.419C67.8612 148.332 67.5137 148.398 67.131 148.605L59.9422 152.477C59.0951 152.931 58.2447 153.225 57.4104 153.349L56.3919 153.502L56.4047 152.54L57.6634 67.2468L52.0664 68.7344V51.3962L47.757 53.6233ZM39.4552 176.693C39.2679 176.693 39.0805 176.652 38.9092 176.566L30.8636 172.499C29.9348 172.033 29.1773 170.771 29.8467 168.631C30.3207 167.118 31.4225 165.833 32.9503 165.01L39.8828 161.276C43.2106 159.485 46.0211 154.944 46.0211 151.36V52.6703L53.804 48.6494V66.5895L59.4314 65.0929L58.1566 151.488C58.4593 151.379 58.7652 151.24 59.0726 151.074L66.263 147.203C67.1662 146.718 68.0822 146.629 68.8413 146.958L68.891 146.982L76.9093 151.049C77.2168 151.204 77.4282 151.476 77.4922 151.794C77.5579 152.114 77.4649 152.44 77.2407 152.689L74.1933 155.998L54.1531 167.942L40.0878 176.517C39.8972 176.635 39.6762 176.693 39.4552 176.693Z" fill="#252323"/>
<path d="M53.1504 162.393L44.6421 157.868L44.6277 157.857C43.4682 159.584 41.9661 161.085 40.307 161.978L33.3729 165.712C32.8188 166.01 32.4537 166.458 32.0293 166.895L39.9243 171.074L42.4113 172.513L47.8161 170.834L51.9654 168.304L53.1504 162.393Z" fill="white"/>
<path d="M33.4073 166.695L40.3527 170.371L42.5226 171.625L47.4357 170.099L51.1798 167.815L52.1855 162.812L44.9039 158.937C43.6932 160.561 42.2375 161.873 40.7418 162.679L33.8076 166.413C33.6651 166.489 33.5338 166.584 33.4073 166.695ZM42.2984 173.401L39.4671 171.763L30.6641 167.103L31.5865 166.142C31.9468 165.76 32.3552 165.325 32.9413 165.01L39.8738 161.276C41.3231 160.496 42.75 159.13 43.8934 157.427L44.401 156.67L45.1585 157.216L54.1185 161.975L52.7508 168.792L48.0907 171.602L42.2984 173.401Z" fill="#252323"/>
<path d="M68.475 147.665C68.001 147.461 67.3813 147.508 66.6959 147.878L59.5071 151.748C58.7208 152.172 57.9697 152.419 57.2715 152.523L56.8359 153.862L65.0448 157.905L67.0001 159.297L73.7261 155.288L76.575 152.141C76.6935 152.011 76.6535 151.814 76.4934 151.732L68.475 147.665Z" fill="white"/>
<path d="M57.8736 153.458L65.5716 157.263L67.0449 158.31L73.1479 154.673L75.454 152.126L68.0922 148.392C67.8648 148.304 67.5125 148.372 67.1298 148.579L59.941 152.449C59.2764 152.806 58.6102 153.064 57.952 153.218L57.8736 153.458ZM66.9568 160.283L64.5755 158.59L55.7949 154.266L56.5988 151.803L57.1353 151.723C57.7583 151.632 58.41 151.405 59.0714 151.048L66.2618 147.176C67.1634 146.691 68.0794 146.604 68.8385 146.93L68.8897 146.953L76.9081 151.021C77.2171 151.179 77.4285 151.451 77.4926 151.772C77.555 152.09 77.4622 152.416 77.238 152.662L74.1921 155.971L66.9568 160.283Z" fill="#252323"/>
<path d="M61.0658 152.356V54.1416L55.0204 57.2663V155.481C55.0204 159.39 52.0786 164.144 48.4482 166.098L41.2594 169.969C39.7845 170.764 38.5898 172.695 38.5898 174.283C38.5898 175.87 39.7845 176.514 41.2594 175.72L55.0204 168.31L61.0658 165.186L74.8267 157.775C76.3017 156.982 77.4979 155.051 77.4979 153.461C77.4979 151.874 76.3017 151.23 74.8267 152.024L67.638 155.896C64.0092 157.85 61.0658 156.265 61.0658 152.356Z" fill="#252323"/>
<path d="M55.8911 57.7426V155.481C55.8911 159.711 52.8132 164.683 48.8849 166.799L41.6961 170.669C40.4838 171.322 39.4605 172.977 39.4605 174.283C39.4605 174.735 39.5902 175.076 39.808 175.194C40.0226 175.31 40.407 175.246 40.8281 175.019L54.5891 167.609L60.6473 164.478L74.3971 157.074C75.6094 156.422 76.6327 154.768 76.6327 153.463C76.6327 153.009 76.503 152.668 76.2836 152.55C76.0642 152.432 75.6847 152.498 75.2651 152.725L68.0747 156.596C66.0393 157.691 64.0824 157.845 62.561 157.025C61.0381 156.206 60.2005 154.549 60.2005 152.356V55.5155L55.8911 57.7426ZM40.0643 176.867C39.6607 176.867 39.278 176.777 38.9401 176.596C38.1666 176.179 37.7246 175.336 37.7246 174.283C37.7246 172.408 39.0874 170.205 40.8281 169.267L48.0169 165.397C51.4007 163.573 54.1552 159.125 54.1552 155.481V56.7896L61.9365 52.7688V152.356C61.9365 153.945 62.4665 155.106 63.4274 155.624C64.3899 156.142 65.7318 155.987 67.2067 155.194L74.3971 151.324C75.3756 150.797 76.3797 150.732 77.1532 151.149C77.925 151.566 78.3686 152.408 78.3686 153.463C78.3686 155.337 77.0058 157.539 75.2651 158.477L61.5025 165.887L55.4443 169.017L41.6961 176.421C41.1452 176.717 40.5863 176.867 40.0643 176.867Z" fill="#252323"/>
<path d="M54.5633 150.804L46.4297 146.075L47.3489 144.701L55.4809 149.43L54.5633 150.804Z" fill="#252323"/>
<path d="M54.5633 130.322L46.4297 125.593L47.3489 124.219L55.4809 128.948L54.5633 130.322Z" fill="#252323"/>
<path d="M56.2557 87.5005L55.5879 86.4221L60.1279 83.977L60.7957 85.0554L56.2557 87.5005Z" fill="#01BBFF"/>
<path d="M79.6378 20.3433C79.2839 20.1611 78.8003 20.1894 78.2638 20.4777L21.3029 51.2348C20.001 51.9368 18.7663 53.2303 17.9415 54.7613L1.68713 84.9328C1.15706 85.9172 0.867188 86.9463 0.867188 87.8484V94.4026C0.867188 94.8999 1.03373 95.2629 1.30117 95.481L1.35082 95.5198C1.41327 95.5646 16.0327 103.287 17.5028 104.069C17.5556 104.099 17.6213 104.081 17.6549 104.034L23.0949 95.9858C23.0981 95.9783 23.1045 95.9724 23.1093 95.9664L66.8681 55.1526L91.3106 38.3222C91.3186 38.3133 91.325 38.3043 91.3298 38.2939L95.9003 29.0706C95.9259 29.0198 95.9051 28.9601 95.8538 28.9317L79.6378 20.3433Z" fill="#01BBFF"/>
<path d="M79.1406 21.038C79.0493 21.038 78.8972 21.0739 78.7002 21.1785L21.7377 51.9355C20.5895 52.5554 19.4604 53.7458 18.719 55.1244L2.46297 85.296C1.99535 86.1668 1.73752 87.0735 1.73752 87.8487V94.4028C1.73752 94.6672 1.80799 94.818 1.87205 94.8718C2.01298 94.945 6.57542 97.3572 10.5982 99.4856C13.3767 100.955 16.0494 102.368 17.3065 103.033L22.4631 95.4304L66.2556 54.5808L90.6276 37.7863L94.8233 29.3173L79.2191 21.0515C79.2015 21.0425 79.1758 21.038 79.1406 21.038ZM17.558 104.894C17.393 104.894 17.2249 104.855 17.0711 104.773C16.4177 104.424 13.1621 102.701 9.74302 100.894C0.907981 96.222 0.903187 96.219 0.826319 96.1638C0.397138 95.8187 0 95.305 0 94.4028V87.8487C0 86.827 0.325079 85.662 0.911199 84.5701L17.1672 54.3985C18.0688 52.7242 19.4172 51.3157 20.8697 50.5345L77.8323 19.7774C78.6057 19.3607 79.4161 19.3069 80.0566 19.634L80.0678 19.6385L96.2838 28.2284C96.7322 28.4644 96.9083 28.9902 96.6809 29.4249L91.8254 38.9737L67.3846 55.8041L23.7827 96.4834L18.3891 104.465C18.2017 104.742 17.8846 104.894 17.558 104.894Z" fill="#252323"/>
<path d="M1.30117 95.481L1.35082 95.5198C1.41327 95.5646 16.0327 103.287 17.5028 104.069C17.5556 104.099 17.6213 104.081 17.6549 104.034L19.354 101.52C18.1289 99.4077 17.1809 97.8305 17.1809 97.8305L0.867188 89.0837V94.4026C0.867188 94.9 1.03373 95.2629 1.30117 95.481Z" fill="#252323"/>
<path d="M1.86564 94.8658L1.89766 94.8897C2.01296 94.945 6.57542 97.3572 10.5982 99.4856C13.3767 100.955 16.0494 102.368 17.3065 103.035L18.3507 101.489C17.4923 100.017 16.8053 98.8628 16.5411 98.4207L1.73752 90.4835V94.4028C1.73752 94.6567 1.80158 94.8075 1.86564 94.8658ZM17.558 104.894C17.393 104.894 17.2249 104.855 17.0711 104.773C16.4177 104.424 13.1621 102.701 9.74302 100.894C0.907981 96.222 0.903187 96.219 0.826319 96.1638L0.730257 96.0906C0.397162 95.8187 0 95.3049 0 94.4028V87.6844L17.8222 97.2407L17.9391 97.4349C17.9391 97.4349 18.8887 99.0166 20.1186 101.135L20.3604 101.551L18.3891 104.465C18.2017 104.742 17.8846 104.894 17.558 104.894Z" fill="#252323"/>
<path d="M34.2567 63.4034L92.6492 34.1564L72.734 23.456L21.3028 51.2347C20.0008 51.9367 18.7661 53.2302 17.9414 54.7612L34.2567 63.4034Z" fill="white"/>
<path d="M19.1189 54.4536L34.2684 62.479L90.8642 34.1312L72.7361 24.3896L21.7389 51.9354C20.7796 52.4522 19.8364 53.3663 19.1189 54.4536ZM34.2443 64.3281L16.7969 55.0855L17.1668 54.3984C18.0684 52.724 19.4168 51.3155 20.8693 50.5343L72.7329 22.5211L94.4337 34.1804L34.2443 64.3281Z" fill="#252323"/>
<path d="M94.5799 63.4034L19.1514 104.105C18.064 104.691 17.1816 104.216 17.1816 103.045V96.4921C17.1816 95.5899 17.4715 94.5593 18.0015 93.575L34.2576 63.4034C35.0807 61.8739 36.3154 60.5789 37.6173 59.8784L94.5799 29.1213C95.6673 28.5358 96.548 29.0093 96.548 30.1818V60.2235C96.548 61.3945 95.6673 62.8179 94.5799 63.4034Z" fill="#252323"/>
<path d="M95.4599 29.6801C95.3686 29.6801 95.2133 29.7145 95.0147 29.822L38.0537 60.5791C36.9039 61.1975 35.7749 62.3894 35.0335 63.7681L18.7791 93.9397C18.3098 94.809 18.0504 95.7156 18.0504 96.4923V103.045C18.0504 103.345 18.1385 103.503 18.1929 103.533C18.2474 103.562 18.4379 103.554 18.7166 103.403L94.1451 62.7031C94.9634 62.2625 95.6808 61.1034 95.6808 60.2236V30.182C95.6808 29.8818 95.5928 29.7235 95.5384 29.6936C95.5223 29.6846 95.4967 29.6801 95.4599 29.6801ZM18.2682 105.164C17.9303 105.164 17.61 105.088 17.325 104.934C16.6828 104.589 16.3145 103.901 16.3145 103.045V96.4923C16.3145 95.4677 16.6395 94.3026 17.2273 93.2122L33.4817 63.0392C34.3833 61.3663 35.7333 59.9593 37.1842 59.1781L94.1451 28.421C94.9394 27.9923 95.7641 27.946 96.4047 28.291C97.0484 28.6376 97.4168 29.3261 97.4168 30.182V60.2236C97.4168 61.674 96.3615 63.3782 95.0147 64.1041L19.5862 104.806C19.1442 105.043 18.6926 105.164 18.2682 105.164Z" fill="#252323"/>
<path d="M17.8512 103.045H16.5156V98.1396H17.8512V103.045Z" fill="#01BBFF"/>
<path d="M18.5754 93.0045L2.26172 84.3608L3.1201 82.9538L19.4321 91.5975L18.5754 93.0045Z" fill="#252323"/>
<path d="M30.7863 70.3923L14.4727 61.7486L15.331 60.3416L31.6447 68.9852L30.7863 70.3923Z" fill="#252323"/>
<path d="M240.466 156.145C240.464 156.115 240.466 151.841 240.466 151.841C240.466 151.72 240.371 151.617 240.243 151.596L230.836 150.138C230.806 150.133 230.775 150.123 230.748 150.108L82.4679 70.0966C81.0058 69.308 78.7927 69.2228 77.5259 69.9054L38.3024 91.2331C38.2767 91.2466 38.2479 91.2571 38.2175 91.2615L27.5952 93.0928C27.4687 93.1137 27.3775 93.2167 27.3775 93.3362V97.5438V97.6618C27.3647 98.207 27.5857 98.8298 28.5369 99.3436L185.337 183.944C186.8 184.731 189.012 184.817 190.279 184.135L239.623 157.358C240.221 157.036 240.49 156.599 240.466 156.147V156.145Z" fill="#01BBFF"/>
<path d="M28.2483 93.8036L28.2467 97.6811C28.2403 97.9589 28.322 98.292 28.9722 98.643L185.774 183.243C186.952 183.878 188.856 183.967 189.846 183.434L239.187 156.658C239.348 156.571 239.612 156.398 239.601 156.187V156.178C239.599 156.157 239.597 156.133 239.599 152.317L230.535 150.911L230.306 150.804L82.0352 70.797C80.8581 70.1607 78.9525 70.0696 77.9612 70.6058L38.6063 92.0052L38.3677 92.059L28.2483 93.8036ZM188.128 185.401C187.007 185.403 185.838 185.146 184.904 184.644L28.1042 100.044C26.7574 99.3196 26.4964 98.3383 26.5124 97.6437V93.3361C26.5124 92.8252 26.9031 92.3876 27.4412 92.2965L37.9577 90.4832L77.09 69.2063C78.6226 68.3803 81.1769 68.4639 82.9032 69.396L231.091 149.357L240.387 150.798C240.935 150.882 241.335 151.319 241.335 151.841C241.335 151.841 241.333 155.852 241.335 156.124C241.369 156.898 240.906 157.602 240.059 158.059L190.717 184.834C190.011 185.214 189.087 185.401 188.128 185.401Z" fill="#252323"/>
<path d="M30.4979 92.5013L27.5465 93.0091C27.4199 93.0315 27.3286 93.1331 27.3286 93.2526V97.4617V97.5797C27.3158 98.1249 27.5352 98.7477 28.4881 99.26L30.4979 100.343V92.5013Z" fill="#252323"/>
<path d="M187.951 184.593C188.821 184.617 189.661 184.471 190.278 184.138L239.623 157.361C240.22 157.039 240.489 156.602 240.465 156.15C240.463 156.118 240.465 151.844 240.465 151.844C240.465 151.723 240.37 151.62 240.242 151.599L230.836 150.141C230.805 150.136 230.775 150.126 230.747 150.111L196.565 131.705L187.951 123.901V184.593Z" fill="#252323"/>
<path d="M239.624 152.933L190.279 179.711C189.013 180.392 186.801 180.307 185.337 179.519L28.5374 94.918C27.0753 94.1308 26.9168 92.9389 28.1835 92.2578L77.5264 65.4797C78.7932 64.7986 81.0063 64.8838 82.4684 65.6709L239.268 150.272C240.732 151.06 240.891 152.251 239.624 152.933Z" fill="white"/>
<path d="M79.6598 65.8323C79.0096 65.8323 78.3946 65.9458 77.959 66.1818L28.6177 92.9568C28.488 93.0256 28.1933 93.2063 28.1933 93.4124C28.1933 93.5916 28.3967 93.9083 28.97 94.2175L185.771 178.819C186.95 179.454 188.856 179.543 189.844 179.009L239.188 152.232C239.315 152.165 239.61 151.984 239.61 151.778C239.61 151.599 239.406 151.281 238.835 150.973L82.033 66.3715C81.3733 66.016 80.4861 65.8323 79.6598 65.8323ZM188.126 180.977C187.005 180.977 185.834 180.722 184.902 180.22L28.102 95.6185C27.0563 95.0569 26.459 94.2518 26.459 93.4124C26.459 92.6745 26.9282 91.9979 27.7465 91.5558L77.0879 64.7808C78.6204 63.9563 81.1747 64.0399 82.9011 64.9705L239.702 149.572C240.747 150.134 241.346 150.937 241.346 151.778C241.346 152.516 240.875 153.192 240.056 153.635L190.715 180.41C190.009 180.791 189.085 180.977 188.126 180.977Z" fill="#252323"/>
<path d="M178.497 227.398L177.586 226.02L196.438 215.191C199.261 213.604 202.76 213.606 205.577 215.191L209.768 217.848C211.984 219.093 214.792 219.098 217.053 217.834L223.486 214.239C231.104 209.984 240.634 209.869 248.361 213.948L261.026 220.581C261.96 221.071 263.067 221.065 263.987 220.563C264.911 220.061 265.461 219.167 265.461 218.17V138.952H267.198V218.17C267.198 219.749 266.324 221.167 264.863 221.963C263.4 222.757 261.648 222.769 260.174 221.99L247.507 215.358C240.322 211.566 231.459 211.669 224.378 215.628L217.945 219.223C215.128 220.796 211.637 220.789 208.831 219.209L204.64 216.553C202.419 215.306 199.607 215.3 197.341 216.572L178.497 227.398Z" fill="#252323"/>
<path d="M267.196 198.25H265.459V192.275C265.459 189.219 266.429 186.266 268.265 183.736C269.905 181.473 270.771 178.834 270.771 176.105V136.092H272.508V176.105C272.508 179.158 271.538 182.111 269.703 184.643C268.061 186.904 267.196 189.543 267.196 192.275V198.25Z" fill="#252323"/>
<path d="M267.199 213.631H265.462V210.418C265.462 207.978 264.647 205.648 263.103 203.677C261.338 201.43 260.406 198.768 260.406 195.982V139.579H262.144V195.982C262.144 198.423 262.959 200.753 264.503 202.722C266.267 204.971 267.199 207.633 267.199 210.418V213.631Z" fill="#252323"/>
<path d="M194.879 221.827L186.904 221.143C186.891 221.141 186.878 221.138 186.866 221.132L184.944 221.131C182.641 219.891 181.747 220.142 179.754 221.216L177.912 222.211L177.622 222.202L167.684 223.764C167.641 223.772 167.607 223.807 167.607 223.849L167.596 228.822C167.596 229.736 168.161 230.509 169.501 231.231L175.031 234.184C177.334 235.424 180.817 235.558 182.812 234.484L193.622 228.659C194.476 228.2 194.916 227.592 194.962 226.952V221.912C194.962 221.867 194.926 221.83 194.879 221.827Z" fill="#01BBFF"/>
<path d="M168.474 224.46L168.466 228.821C168.466 229.247 168.633 229.828 169.936 230.53L175.463 233.48C177.492 234.573 180.656 234.708 182.379 233.783L193.19 227.958C193.584 227.746 194.062 227.389 194.097 226.898L194.095 222.572L186.737 221.942H184.712L184.511 221.833C182.509 220.756 181.963 220.962 180.188 221.916L178.134 223.026L177.682 223.013L168.474 224.46ZM179.425 236.019C177.749 236.019 175.994 235.637 174.598 234.886L169.07 231.934C167.494 231.084 166.729 230.067 166.729 228.821L166.741 223.168L167.534 222.966L177.565 221.391L177.693 221.394L179.319 220.515C181.428 219.382 182.645 219.013 185.172 220.321L187.145 220.351L195.748 221.081L195.831 221.912V226.951C195.759 227.945 195.131 228.783 194.058 229.359L183.247 235.184C182.206 235.744 180.843 236.019 179.425 236.019Z" fill="#252323"/>
<path d="M179.195 235.199C180.547 235.231 181.852 235.001 182.811 234.484L191.361 229.81V221.924L186.903 221.143C186.89 221.141 186.877 221.138 186.865 221.131L186.648 222.869L179.195 221.879V235.199Z" fill="#252323"/>
<path d="M180.066 222.811V234.372C180.976 234.309 181.776 234.107 182.379 233.783L190.494 229.347V222.596L187.62 222.093L187.409 223.786L180.066 222.811ZM179.438 236.012C179.352 236.012 179.264 236.01 179.176 236.007L178.33 235.988V220.946L185.89 221.951L186.153 219.837L187.184 220.372L192.23 221.253V230.275L183.251 235.183C182.252 235.721 180.907 236.012 179.438 236.012Z" fill="#252323"/>
<path d="M187.535 216.578L193.065 219.53C195.367 220.769 195.617 222.645 193.622 223.719L182.812 229.544C180.817 230.618 177.334 230.484 175.031 229.244L169.501 226.291C167.198 225.052 166.947 223.176 168.942 222.102L179.754 216.276C181.747 215.202 185.232 215.337 187.535 216.578Z" fill="#01BBFF"/>
<path d="M183.122 216.362C182.009 216.362 180.956 216.565 180.188 216.977L169.377 222.801C168.961 223.026 168.464 223.403 168.464 223.921C168.464 224.471 169.014 225.095 169.936 225.591L175.463 228.541C177.492 229.634 180.656 229.768 182.379 228.844L193.19 223.019C193.605 222.795 194.102 222.418 194.102 221.9C194.102 221.35 193.552 220.726 192.63 220.23L187.102 217.279C185.979 216.674 184.506 216.362 183.122 216.362ZM179.425 231.08C177.749 231.08 175.994 230.698 174.598 229.946L169.07 226.995C167.582 226.191 166.729 225.072 166.729 223.922C166.729 222.914 167.359 222.019 168.509 221.401L179.32 215.576C181.588 214.353 185.383 214.484 187.966 215.876L193.496 218.826C194.986 219.628 195.838 220.748 195.838 221.9C195.838 222.907 195.205 223.803 194.058 224.42L183.247 230.245C182.206 230.805 180.843 231.08 179.425 231.08Z" fill="#252323"/>
<path d="M175.857 234.021H174.119V229.081H175.857V234.021Z" fill="#252323"/>
<path d="M181.279 221.906C180.667 221.906 180.057 222.027 179.613 222.264C179.312 222.429 179.178 222.597 179.178 222.695C179.178 222.792 179.312 222.96 179.613 223.122C180.5 223.6 182.055 223.6 182.943 223.122C183.244 222.96 183.378 222.792 183.378 222.695C183.378 222.597 183.244 222.429 182.943 222.266V222.264C182.499 222.027 181.889 221.906 181.279 221.906ZM181.279 225.098C180.368 225.098 179.456 224.908 178.745 224.524C177.917 224.079 177.443 223.411 177.443 222.695C177.443 221.976 177.917 221.31 178.745 220.863C180.167 220.099 182.39 220.099 183.811 220.865V220.863C184.639 221.31 185.114 221.976 185.114 222.695C185.114 223.411 184.639 224.079 183.811 224.524C183.1 224.908 182.188 225.098 181.279 225.098Z" fill="white"/>
<path d="M267.5 137.209H266.164V114.178H267.5V137.209Z" fill="#01BBFF"/>
<path d="M270.054 116.226L264.628 119.146C263.424 119.796 262.447 119.107 262.447 117.609V112.494C262.447 110.995 263.424 109.255 264.628 108.606L270.054 105.685C271.258 105.036 272.235 105.724 272.235 107.222V112.338C272.235 113.836 271.258 115.576 270.054 116.226Z" fill="#252323"/>
<path d="M270.918 106.063C270.721 106.063 270.513 106.156 270.385 106.225L264.961 109.145C263.958 109.685 263.113 111.218 263.113 112.493V117.609C263.113 118.257 263.329 118.605 263.532 118.715C263.776 118.846 264.112 118.703 264.293 118.607L269.717 115.685C270.72 115.146 271.565 113.614 271.565 112.338V107.222C271.565 106.574 271.349 106.226 271.146 106.117C271.075 106.08 270.997 106.063 270.918 106.063ZM263.758 120.014C263.443 120.014 263.14 119.941 262.865 119.793C262.175 119.421 261.777 118.625 261.777 117.609V112.493C261.777 110.771 262.882 108.827 264.293 108.066L269.717 105.146C270.455 104.747 271.198 104.707 271.813 105.039C272.504 105.411 272.901 106.207 272.901 107.222V112.338C272.901 114.06 271.796 116.005 270.385 116.765L264.961 119.685C264.554 119.905 264.146 120.014 263.758 120.014Z" fill="#01BBFF"/>
<path d="M271.115 116.922L265.689 119.844C264.485 120.492 263.508 119.804 263.508 118.305V113.19C263.508 111.692 264.485 109.952 265.689 109.303L271.115 106.382C272.319 105.734 273.296 106.422 273.296 107.92V113.036C273.296 114.534 272.319 116.274 271.115 116.922Z" fill="#252323"/>
<path d="M271.979 106.761C271.782 106.761 271.574 106.852 271.446 106.921L266.022 109.842C265.019 110.382 264.174 111.914 264.174 113.19V118.305C264.174 118.955 264.391 119.303 264.593 119.412C264.833 119.541 265.173 119.402 265.354 119.305L270.779 116.383C271.78 115.844 272.626 114.311 272.626 113.036V107.92C272.626 107.27 272.41 106.924 272.206 106.813C272.136 106.776 272.057 106.761 271.979 106.761ZM264.821 120.712C264.503 120.712 264.201 120.638 263.925 120.491C263.235 120.119 262.838 119.321 262.838 118.305V113.19C262.838 111.468 263.943 109.523 265.354 108.764L270.779 105.842C271.516 105.445 272.261 105.405 272.874 105.736C273.564 106.108 273.961 106.904 273.961 107.92V113.036C273.961 114.758 272.856 116.703 271.446 117.462L266.022 120.383C265.615 120.603 265.206 120.712 264.821 120.712Z" fill="#01BBFF"/>
<path d="M270.973 135.228L270.947 116.465L272.283 116.464L272.307 135.227L270.973 135.228Z" fill="#01BBFF"/>
<path d="M261.941 140.307H260.605V137.004C260.605 134.247 261.648 131.56 263.539 129.439C265.234 127.542 266.166 125.139 266.166 122.671L266.167 119.228H267.503L267.501 122.671C267.501 125.428 266.459 128.116 264.567 130.235C262.873 132.133 261.941 134.537 261.941 137.004V140.307Z" fill="#01BBFF"/>
<path d="M194.202 129.711L168.198 144.048L85.2559 99.3153L111.26 84.9778L194.202 129.711Z" fill="#01BBFF"/>
<path d="M86.975 99.3062L168.191 143.11L192.48 129.718L111.264 85.9158L86.975 99.3062ZM168.201 144.985L83.5352 99.3227L111.253 84.0397L195.918 129.703L168.201 144.985Z" fill="#252323"/>
<path d="M189.525 116.953L134.384 87.0971L94.332 108.664L149.475 138.52L189.525 116.953Z" fill="#252323"/>
<path d="M96.0599 108.665L149.472 137.585L187.791 116.952L134.379 88.0322L96.0599 108.665ZM149.471 139.455L92.5977 108.662L134.38 86.1621L191.253 116.955L149.471 139.455Z" fill="#252323"/>
<path d="M164.974 127.263L122.828 104.624L123.496 103.545L165.64 126.184L164.974 127.263Z" fill="#01BBFF"/>
<path d="M69.4479 51.9308C67.4974 50.6224 64.1841 51.3781 60.8227 54.9898C58.6032 57.3751 57.3108 60.4431 57.3733 63.5991C57.4101 65.5618 57.9738 66.6626 59.2629 67.4542L59.4759 67.5946L208.366 147.539C208.49 147.605 208.647 147.564 208.715 147.449L218.082 132.023C218.151 131.908 218.109 131.763 217.986 131.699L69.4479 51.9308Z" fill="#01BBFF"/>
<path d="M67.3686 52.1535C65.8216 52.1535 63.719 53.1124 61.4802 55.5202C59.3343 57.8234 58.1845 60.6867 58.2405 63.5858C58.2789 65.5007 58.8427 66.2266 59.7411 66.7792L59.9781 66.9331L208.266 146.55L217.028 132.117L68.9428 52.5896C68.5264 52.3103 67.9916 52.1535 67.3686 52.1535ZM208.494 148.38C208.298 148.38 208.108 148.334 207.935 148.241L59.0444 68.2968L58.7642 68.1161C57.23 67.1751 56.5478 65.8248 56.5062 63.6142C56.4421 60.3163 57.7425 57.0646 60.1686 54.4597C64.2651 50.0564 67.9675 49.9758 69.9197 51.2498L218.421 130.997C218.954 131.279 219.143 131.92 218.837 132.422L209.472 147.848C209.32 148.095 209.08 148.269 208.788 148.343C208.691 148.368 208.591 148.38 208.494 148.38Z" fill="#252323"/>
<path d="M103.122 81.1689L213.052 140.307L218.082 132.023C218.151 131.908 218.109 131.763 217.987 131.699L69.4475 51.9308C67.497 50.6224 64.1837 51.3782 60.8223 54.9898C60.1513 55.7097 59.578 56.4984 59.088 57.3273C59.08 57.3751 59.0736 57.4259 59.0527 57.4603L82.4847 70.0651L103.122 81.1689Z" fill="white"/>
<path d="M213.374 141.417L102.687 81.8695L103.555 80.4669L212.725 139.198L217.025 132.117L69.0139 52.6329C67.4878 51.6157 64.6196 52.1445 61.4776 55.5201C61.0196 56.0115 60.5937 56.5552 60.2045 57.1467L82.9174 69.3647L82.0479 70.7672L57.8809 57.7651L58.3277 56.9376C58.8657 56.025 59.4855 55.19 60.1661 54.4596C64.2913 50.028 68.0162 49.9757 69.9539 51.2752L218.418 130.997C218.95 131.279 219.139 131.918 218.836 132.42L213.374 141.417Z" fill="#252323"/>
<path d="M86.9512 72.4684L98.728 78.8044L86.9512 72.4684Z" fill="white"/>
<path d="M98.2944 79.5051L86.5176 73.1691L87.3855 71.7666L99.1624 78.1041L98.2944 79.5051Z" fill="#252323"/>
<path d="M59.2593 67.3662L59.4723 67.5066L208.363 147.449C208.484 147.515 208.641 147.476 208.712 147.361L210.323 144.707L206.752 143.509L57.7188 63.6978C57.7556 65.6604 57.9686 66.5746 59.2593 67.3662Z" fill="#252323"/>
<path d="M58.6928 65.1525C58.8273 65.9441 59.1203 66.3116 59.7369 66.6895L59.9707 66.8433L208.261 146.46L209.061 145.143L206.32 144.211L58.6928 65.1525ZM208.488 148.292C208.294 148.292 208.1 148.244 207.927 148.15L59.0402 68.2085L58.776 68.0397C57.0449 66.9733 56.8864 65.5737 56.8511 63.7126L56.8223 62.2847L207.116 142.771L211.585 144.269L209.466 147.76C209.316 148.006 209.072 148.181 208.781 148.254C208.685 148.28 208.586 148.292 208.488 148.292Z" fill="#252323"/>
<path d="M220.587 136.149C220.587 140.264 217.49 145.266 213.67 147.323C209.851 149.379 206.754 147.712 206.754 143.599C206.754 139.484 209.851 134.482 213.67 132.425C217.49 130.368 220.587 132.035 220.587 136.149Z" fill="#01BBFF"/>
<path d="M216.756 132.35C215.963 132.35 215.06 132.612 214.105 133.125C210.531 135.051 207.623 139.748 207.623 143.599C207.623 145.287 208.188 146.52 209.215 147.073C210.243 147.629 211.669 147.464 213.237 146.622C216.812 144.697 219.718 139.999 219.718 136.148C219.718 134.461 219.155 133.227 218.126 132.674C217.726 132.458 217.263 132.35 216.756 132.35ZM210.58 149.016C209.772 149.016 209.017 148.837 208.346 148.475C206.759 147.621 205.887 145.888 205.887 143.599C205.887 139.158 209.115 133.944 213.237 131.724C215.367 130.579 217.411 130.417 218.994 131.272C220.581 132.126 221.456 133.859 221.456 136.148C221.456 140.588 218.227 145.803 214.105 148.023C212.878 148.683 211.679 149.016 210.58 149.016Z" fill="#252323"/>
<path d="M65.3726 71.4392C65.3726 71.4392 61.1352 69.2062 59.1431 68.1338C56.8546 66.9045 56.7649 64.552 56.7617 64.4535L58.0973 64.4221L57.4295 64.437L58.0973 64.4191C58.0989 64.4908 58.1822 66.1801 59.8092 67.0554C61.7982 68.1248 66.0292 70.3563 66.0292 70.3563L65.3726 71.4392Z" fill="#01BBFF"/>
<path d="M127.112 0.990288C126.454 0.690063 125.581 0.751328 124.612 1.27261L106.537 11.0052C91.5159 19.0947 79.2266 38.9482 79.2266 55.1259V59.1244C79.2266 60.0833 79.5532 60.7748 80.0785 61.1796L197.065 123.857C197.227 123.944 197.434 123.899 197.538 123.756L229.61 79.5589C229.627 79.535 229.648 79.5141 229.67 79.4947L241.843 69.6187C241.886 69.5829 241.92 69.5396 241.94 69.4888L244.245 64.0086C244.309 63.8548 244.243 63.6815 244.091 63.5993L127.112 0.990288Z" fill="#01BBFF"/>
<path d="M80.5873 60.5165L197.089 122.934L228.959 79.0168L229.108 78.8808L241.181 69.0841L243.279 64.0968L126.713 1.70729C126.292 1.52805 125.702 1.62216 125.051 1.97317L106.974 11.7072C92.1543 19.6863 80.0972 39.1649 80.0972 55.1259V59.1244C80.0972 59.7488 80.2702 60.2417 80.5873 60.5165ZM197.24 124.709C197.035 124.709 196.826 124.661 196.637 124.559L79.5288 61.8025C78.9955 61.3918 78.3613 60.5942 78.3613 59.1244V55.1259C78.3613 38.6496 90.8076 18.5422 106.106 10.3047L124.183 0.570618C125.361 -0.0641861 126.538 -0.173187 127.496 0.262955L127.547 0.28833L244.526 62.8959C245.055 63.1811 245.279 63.7712 245.056 64.3014L242.752 69.7861C242.677 69.9608 242.557 70.1191 242.403 70.2386L230.293 80.0653L198.26 124.21C198.024 124.533 197.635 124.709 197.24 124.709Z" fill="#252323"/>
<path d="M229.728 79.5843L240.761 70.6329L237.617 66.2192L120.588 3.55784L106.595 11.0948C99.8485 14.7273 93.6654 20.7422 88.8867 27.7235L205.822 90.3564L221.252 91.2451L229.668 79.6485C229.685 79.6246 229.704 79.6022 229.728 79.5843Z" fill="white"/>
<path d="M206.079 89.5602L220.812 90.4086L229.16 78.9733L239.617 70.4879L237.008 66.8254L120.592 4.49273L107.031 11.7952C100.901 15.0946 94.9192 20.6346 90.1149 27.4456L206.079 89.5602ZM221.694 92.0815L205.568 91.1524L87.668 28.0027L88.1564 27.2872C93.1896 19.9355 99.5842 13.9355 106.163 10.3926L120.588 2.62418L121.022 2.85719L238.229 65.6126L241.907 70.7761L230.35 80.1532L221.694 92.0815Z" fill="#252323"/>
<path d="M207.584 101.707L182.459 88.2488L183.322 86.8463L208.447 100.303L207.584 101.707Z" fill="#252323"/>
<path d="M177.92 85.8187L160.215 76.3356L161.078 74.9331L178.783 84.4162L177.92 85.8187Z" fill="#252323"/>
<path d="M156.229 74.201L90.6445 39.0735L91.5077 37.6694L157.092 72.7969L156.229 74.201Z" fill="#252323"/>
<path d="M196.338 115.107L79.3338 52.3954C79.2794 53.1796 79.2266 53.9652 79.2266 54.7344V58.7329C79.2266 59.6918 79.5532 60.3834 80.0785 60.7882L197.065 123.466C197.227 123.553 197.434 123.509 197.538 123.364L198.897 121.491L196.338 115.107Z" fill="#252323"/>
<path d="M196.268 117.589V121.777C196.268 123.977 197.923 124.867 199.965 123.768L220.926 112.482C222.968 111.381 224.622 112.273 224.622 114.471V143.451C224.622 145.65 226.278 146.541 228.32 145.442L241.655 138.261C243.697 137.161 245.351 134.488 245.351 132.289V65.916C245.351 63.7173 243.697 62.8257 241.655 63.925L223.402 73.7546C208.416 81.8248 196.268 101.45 196.268 117.589Z" fill="#252323"/>
<path d="M222.578 111.197C223.077 111.197 223.55 111.311 223.973 111.538C224.949 112.065 225.491 113.108 225.491 114.473V143.451C225.491 144.202 225.726 144.761 226.138 144.982C226.552 145.206 227.188 145.116 227.883 144.74L241.22 137.56C242.988 136.607 244.484 134.192 244.484 132.287V65.9159C244.484 65.1661 244.247 64.6075 243.835 64.385C243.423 64.1624 242.784 64.252 242.088 64.627L223.835 74.4551C209.113 82.3834 197.136 101.732 197.136 117.589V121.778C197.136 122.528 197.371 123.087 197.785 123.309C198.198 123.532 198.833 123.444 199.53 123.067L220.489 111.78C221.21 111.393 221.92 111.197 222.578 111.197ZM226.666 146.725C226.163 146.725 225.694 146.612 225.271 146.384C224.293 145.857 223.753 144.816 223.753 143.451V114.473C223.753 113.721 223.518 113.163 223.105 112.94C222.695 112.718 222.056 112.807 221.357 113.182L200.398 124.47C199.13 125.152 197.893 125.237 196.917 124.71C195.938 124.184 195.398 123.143 195.398 121.778V117.589C195.398 101.217 207.766 81.2392 222.965 73.0541L241.22 63.2244C242.487 62.5433 243.724 62.4567 244.701 62.9824C245.68 63.5097 246.219 64.5522 246.219 65.9159V132.287C246.219 134.782 244.405 137.714 242.088 138.963L228.753 146.143C228.032 146.531 227.323 146.725 226.666 146.725Z" fill="#252323"/>
<path d="M196.937 121.78L195.602 121.775L195.618 116.677L196.952 116.68L196.937 121.78Z" fill="#01BBFF"/>
<path d="M236.672 81.8022C236.48 81.7678 236.307 81.741 236.307 81.741C235.509 81.6648 234.494 82.0606 233.411 83.2241C232.805 83.8754 232.345 84.6461 232.09 85.4736C231.676 86.8164 231.842 87.8037 232.34 88.3548C232.34 88.3548 233.344 89.7095 235.581 90.1965C235.687 90.2189 235.806 90.1756 235.863 90.0904L239.193 85.1539L239.335 83.3765C239.34 83.3108 239.324 83.254 239.276 83.2062C239.02 82.9493 238.163 82.083 236.672 81.8022Z" fill="#01BBFF"/>
<path d="M236.099 82.3502C235.708 82.3502 234.934 82.5399 233.917 83.6333C233.367 84.2218 232.957 84.9193 232.732 85.6467C232.419 86.6624 232.463 87.5242 232.851 87.9544C232.92 88.041 233.714 89.0627 235.458 89.5242L238.541 84.9537L238.658 83.5004C238.329 83.1912 237.638 82.6206 236.547 82.413L236.196 82.3547C236.167 82.3517 236.134 82.3502 236.099 82.3502ZM235.642 90.8267C235.572 90.8267 235.501 90.8177 235.431 90.8028C232.971 90.2681 231.84 88.7729 231.792 88.7087C231.134 87.9873 230.998 86.7595 231.45 85.3017C231.728 84.401 232.233 83.5422 232.909 82.8163C234.34 81.2793 235.578 81.0463 236.376 81.121L236.806 81.1912C237.929 81.4033 238.924 81.9365 239.761 82.7774C239.939 82.9567 240.02 83.1822 240.003 83.4227L239.846 85.3555L236.429 90.4219C236.254 90.6773 235.956 90.8267 235.642 90.8267Z" fill="#01BBFF"/>
<path d="M240.27 85.0913C240.27 86.8523 238.946 88.9927 237.311 89.8724C235.678 90.7522 234.352 90.0397 234.352 88.2787C234.352 86.5192 235.678 84.3788 237.311 83.4975C238.946 82.6178 240.27 83.3317 240.27 85.0913Z" fill="#252323"/>
<path d="M238.636 83.7439C238.349 83.7439 238.01 83.844 237.649 84.0366C236.226 84.8029 235.023 86.7461 235.023 88.2786C235.023 88.8895 235.217 89.3436 235.556 89.5258C235.898 89.711 236.415 89.6378 236.982 89.3331C238.405 88.5654 239.608 86.6236 239.608 85.0912C239.608 84.4818 239.413 84.0262 239.075 83.844C238.95 83.7767 238.803 83.7439 238.636 83.7439ZM235.992 90.8745C235.596 90.8745 235.223 90.7849 234.889 90.6042C234.115 90.1875 233.688 89.3615 233.688 88.2786C233.688 86.2891 235.135 83.953 236.982 82.9582C237.987 82.4146 238.967 82.3488 239.742 82.7656C240.516 83.1823 240.942 84.0083 240.942 85.0912C240.942 87.0792 239.496 89.4167 237.649 90.4115C237.078 90.7192 236.514 90.8745 235.992 90.8745Z" fill="#01BBFF"/>
<path d="M236.672 93.5229C236.48 93.4901 236.307 93.4617 236.307 93.4617C235.509 93.387 234.494 93.7828 233.411 94.9464C232.805 95.5961 232.345 96.3668 232.09 97.1958C231.676 98.5371 231.842 99.5244 232.34 100.077C232.34 100.077 233.344 101.432 235.581 101.919C235.687 101.941 235.806 101.898 235.863 101.811L239.193 96.8761L239.335 95.0972C239.34 95.033 239.324 94.9748 239.276 94.9285C239.02 94.6715 238.163 93.8052 236.672 93.5229Z" fill="#01BBFF"/>
<path d="M236.099 94.0726C235.706 94.0726 234.933 94.2623 233.917 95.3542C233.367 95.9442 232.957 96.6402 232.732 97.3676C232.419 98.3833 232.463 99.2466 232.851 99.6753C232.92 99.7619 233.714 100.784 235.458 101.245L238.541 96.6746L238.658 95.2227C238.329 94.9121 237.638 94.3415 236.547 94.1339L236.198 94.0771C236.169 94.0741 236.135 94.0726 236.099 94.0726ZM235.642 102.548C235.572 102.548 235.501 102.54 235.431 102.524C232.971 101.99 231.84 100.494 231.792 100.431C231.134 99.7081 230.998 98.4818 231.45 97.0226C231.728 96.1219 232.233 95.2631 232.909 94.5371C234.339 93.0002 235.578 92.7687 236.376 92.8433L236.806 92.9135C237.929 93.1256 238.922 93.6589 239.761 94.4983C239.939 94.6775 240.02 94.9046 240.003 95.1436L239.846 97.0763L236.429 102.143C236.254 102.398 235.956 102.548 235.642 102.548Z" fill="#01BBFF"/>
<path d="M240.27 96.8132C240.27 98.5727 238.946 100.713 237.311 101.593C235.678 102.474 234.352 101.76 234.352 99.9992C234.352 98.2397 235.678 96.0993 237.311 95.2195C238.946 94.3398 240.27 95.0522 240.27 96.8132Z" fill="#252323"/>
<path d="M238.636 95.466C238.349 95.466 238.01 95.5646 237.649 95.7587C236.226 96.525 235.023 98.4667 235.023 100.001C235.023 100.61 235.217 101.066 235.556 101.248C235.898 101.432 236.415 101.36 236.982 101.054C238.405 100.287 239.608 98.3443 239.608 96.8133C239.608 96.2024 239.413 95.7468 239.075 95.5646C238.95 95.4988 238.803 95.466 238.636 95.466ZM235.992 102.595C235.596 102.595 235.223 102.506 234.889 102.326C234.115 101.91 233.688 101.084 233.688 100.001C233.688 98.0112 235.135 95.6751 236.982 94.6803C237.987 94.1367 238.971 94.0679 239.742 94.4877C240.516 94.9029 240.942 95.7304 240.942 96.8133C240.942 98.8013 239.497 101.137 237.649 102.134C237.078 102.441 236.514 102.595 235.992 102.595Z" fill="#01BBFF"/>
<path d="M45.5354 73.066C43.5833 71.7561 40.2715 72.5118 36.9086 76.1235C34.689 78.5073 33.3982 81.5768 33.4591 84.7343C33.4975 86.6955 34.0596 87.7963 35.3504 88.5894L35.5634 88.7283L184.452 168.673C184.576 168.738 184.732 168.698 184.801 168.583L194.168 153.157C194.237 153.042 194.195 152.897 194.074 152.832L45.5354 73.066Z" fill="#01BBFF"/>
<path d="M43.4542 73.287C41.9056 73.287 39.803 74.2474 37.5626 76.6537C35.4199 78.9568 34.27 81.8217 34.3261 84.7193C34.3629 86.6342 34.9282 87.3616 35.8266 87.9127L36.062 88.0666L184.35 167.684L193.113 153.251L45.0268 73.7231C44.6104 73.4423 44.0771 73.287 43.4542 73.287ZM184.576 169.513C184.382 169.513 184.189 169.466 184.016 169.372L35.1284 89.4303L34.8481 89.2496C33.3172 88.3101 32.6334 86.9583 32.5901 84.7492C32.5261 81.4482 33.828 78.1981 36.251 75.5917C40.3506 71.1914 44.0563 71.1077 46.002 72.3833L194.505 152.13C195.038 152.42 195.226 153.058 194.923 153.555L185.556 168.982C185.41 169.225 185.167 169.401 184.876 169.476C184.778 169.501 184.677 169.513 184.576 169.513Z" fill="#252323"/>
<path d="M162.328 147.019L189.136 161.44L194.166 153.157C194.235 153.042 194.193 152.897 194.072 152.833L45.5335 73.066C43.5813 71.7561 40.2696 72.5119 36.9066 76.1235C36.2357 76.8435 35.6623 77.6321 35.1723 78.4611C35.1643 78.5089 35.1595 78.5597 35.1387 78.594L96.7869 111.759L100.523 113.769L139.417 134.694L162.328 147.019Z" fill="white"/>
<path d="M189.458 162.55L161.891 147.72L162.759 146.317L188.809 160.332L193.109 153.251L45.0963 73.7679C43.5686 72.7477 40.7004 73.281 37.5585 76.6536C37.1021 77.1435 36.676 77.6887 36.2869 78.2787L139.848 133.992L138.98 135.394L33.9648 78.8985L34.4084 78.0696C34.9481 77.157 35.5679 76.3235 36.2469 75.5931C40.3737 71.1629 44.0971 71.1077 46.0364 72.4087L194.501 152.13C195.034 152.42 195.222 153.058 194.919 153.555L189.458 162.55Z" fill="#252323"/>
<path d="M143.266 136.764L158.666 145.049L143.266 136.764Z" fill="white"/>
<path d="M158.233 145.751L142.832 137.466L143.7 136.063L159.101 144.349L158.233 145.751Z" fill="#252323"/>
<path d="M35.3433 88.4996L35.5563 88.64L184.447 168.583C184.57 168.649 184.727 168.61 184.796 168.495L186.408 165.84L182.836 164.643L33.8027 84.8313C33.8412 86.7939 34.0542 87.708 35.3433 88.4996Z" fill="#252323"/>
<path d="M34.777 86.2862C34.9132 87.0794 35.2062 87.4453 35.8212 87.8232L36.0582 87.98L184.346 167.594L185.147 166.277L182.406 165.345L34.777 86.2862ZM184.572 169.425C184.379 169.425 184.188 169.378 184.015 169.285L35.1245 89.3422L34.8587 89.172C33.1308 88.107 32.9722 86.7075 32.937 84.8464L32.9082 83.4184L183.201 163.905L187.671 165.403L185.552 168.894C185.4 169.139 185.16 169.315 184.869 169.388C184.771 169.413 184.672 169.425 184.572 169.425Z" fill="#252323"/>
<path d="M196.673 157.284C196.673 161.397 193.577 166.399 189.756 168.456C185.937 170.513 182.84 168.846 182.84 164.732C182.84 160.617 185.937 155.615 189.756 153.558C193.577 151.502 196.673 153.169 196.673 157.284Z" fill="#01BBFF"/>
<path d="M192.841 153.484C192.048 153.484 191.145 153.745 190.189 154.259C186.615 156.184 183.708 160.882 183.708 164.732C183.708 166.42 184.272 167.654 185.3 168.207C186.327 168.759 187.757 168.599 189.321 167.755C192.896 165.832 195.804 161.133 195.804 157.282C195.804 155.594 195.238 154.36 194.214 153.808C193.812 153.591 193.349 153.484 192.841 153.484ZM186.664 170.15C185.857 170.15 185.103 169.971 184.432 169.609C182.845 168.755 181.971 167.022 181.971 164.732C181.971 160.293 185.199 155.077 189.321 152.858C191.451 151.711 193.494 151.552 195.08 152.405C196.667 153.26 197.54 154.991 197.54 157.282C197.54 161.721 194.311 166.938 190.189 169.158C188.964 169.818 187.765 170.15 186.664 170.15Z" fill="#252323"/>
<path d="M34.3365 88.6357C33.1931 87.4064 33.1403 85.9262 33.1387 85.8635V85.1167H34.4743V85.8486C34.4743 85.8486 34.5271 86.9404 35.3454 87.8202L34.3365 88.6357Z" fill="#01BBFF"/>
<path d="M238.91 239.462C238.437 239.258 237.818 239.304 237.131 239.674L229.942 243.546C229.156 243.969 228.406 244.217 227.706 244.32L228.983 157.941L223.37 159.433V141.793L217.324 144.916V243.131C217.324 247.023 214.366 251.801 210.752 253.747L203.818 257.482C202.529 258.176 201.531 259.295 201.115 260.629C200.637 262.151 200.972 263.187 201.71 263.558L209.753 267.622C209.846 267.668 209.958 267.664 210.047 267.61L224.121 259.031L244.161 247.084L247.011 243.937C247.128 243.807 247.088 243.61 246.928 243.529L238.91 239.462Z" fill="#01BBFF"/>
<path d="M218.192 145.394V243.131C218.192 247.291 215.048 252.369 211.186 254.448L204.251 258.182C203.13 258.786 202.29 259.761 201.947 260.854C201.593 261.985 201.79 262.68 202.122 262.845L209.86 266.756L223.646 258.352L243.582 246.469L245.887 243.924L238.527 240.188C238.299 240.1 237.949 240.169 237.564 240.376L230.375 244.245C229.528 244.702 228.676 244.996 227.842 245.119L226.825 245.27L226.838 244.309L228.098 159.016L222.501 160.505V143.167L218.192 145.394ZM209.89 268.464C209.703 268.464 209.515 268.421 209.342 268.336L201.297 264.269C200.366 263.803 199.611 262.541 200.282 260.402C200.754 258.889 201.856 257.603 203.384 256.781L210.316 253.047C213.644 251.255 216.454 246.714 216.454 243.131V144.44L224.237 140.419V158.361L229.866 156.862L228.592 243.258C228.893 243.149 229.198 243.01 229.507 242.845L236.696 238.974C237.601 238.487 238.516 238.4 239.275 238.728L239.324 238.75L247.343 242.819C247.647 242.971 247.861 243.244 247.927 243.565C247.991 243.885 247.898 244.212 247.671 244.462L244.627 247.767L224.586 259.712L210.521 268.287C210.332 268.405 210.111 268.464 209.89 268.464Z" fill="#252323"/>
<path d="M223.588 254.163L215.081 249.637L215.065 249.628C213.906 251.353 212.404 252.854 210.745 253.747L203.812 257.481C203.258 257.78 202.892 258.227 202.469 258.666L210.362 262.845L212.849 264.283L218.254 262.603L222.403 260.073L223.588 254.163Z" fill="white"/>
<path d="M203.842 258.464L210.786 262.14L212.957 263.395L217.869 261.868L221.615 259.584L222.62 254.581L215.337 250.708C214.122 252.346 212.693 253.631 211.177 254.448L204.243 258.182C204.098 258.26 203.969 258.354 203.842 258.464ZM212.733 265.171L209.9 263.532L201.096 258.872L202.025 257.909C202.385 257.526 202.792 257.095 203.376 256.779L210.307 253.047C211.756 252.267 213.183 250.899 214.327 249.198L214.85 248.419L215.611 249L224.552 253.747L223.184 260.561L218.522 263.371L212.733 265.171Z" fill="#252323"/>
<path d="M238.911 239.435C238.438 239.231 237.818 239.277 237.131 239.647L229.943 243.519C229.156 243.942 228.407 244.19 227.709 244.293L227.271 245.632L235.482 249.676L237.436 251.066L244.162 247.057L247.012 243.91C247.129 243.78 247.089 243.583 246.929 243.503L238.911 239.435Z" fill="white"/>
<path d="M228.309 245.228L236.007 249.032L237.479 250.08L243.582 246.442L245.886 243.897L238.526 240.161C238.299 240.073 237.948 240.142 237.564 240.349L230.375 244.219C229.712 244.576 229.046 244.835 228.388 244.989L228.309 245.228ZM237.389 252.052L235.011 250.36L226.23 246.036L227.034 243.573L227.571 243.493C228.192 243.401 228.844 243.174 229.507 242.818L236.696 238.947C237.601 238.461 238.512 238.373 239.274 238.7L239.324 238.723L247.342 242.791C247.646 242.944 247.861 243.217 247.927 243.538C247.991 243.859 247.898 244.187 247.67 244.434L244.626 247.74L237.389 252.052Z" fill="#252323"/>
<path d="M231.503 244.125V145.912L225.456 149.037V247.25C225.456 251.159 222.514 255.913 218.884 257.868L211.695 261.738C210.22 262.533 209.025 264.464 209.025 266.052C209.025 267.64 210.22 268.284 211.695 267.49L225.456 260.08L231.503 256.956L245.264 249.546C246.739 248.751 247.933 246.82 247.933 245.232C247.933 243.644 246.739 243.001 245.264 243.794L238.075 247.665C234.445 249.62 231.503 248.036 231.503 244.125Z" fill="#252323"/>
<path d="M226.326 149.514V247.25C226.326 251.482 223.247 256.452 219.318 258.569L212.131 262.439C210.919 263.092 209.896 264.747 209.896 266.052C209.896 266.506 210.024 266.847 210.242 266.963C210.459 267.083 210.842 267.014 211.263 266.788L225.023 259.38L231.083 256.248L244.829 248.845C246.041 248.191 247.066 246.536 247.066 245.232C247.066 244.778 246.937 244.438 246.717 244.321C246.501 244.202 246.118 244.269 245.699 244.494L238.51 248.366C236.474 249.461 234.514 249.614 232.993 248.794C231.473 247.976 230.634 246.318 230.634 244.127V147.287L226.326 149.514ZM210.498 268.638C210.094 268.638 209.713 268.546 209.375 268.366C208.602 267.949 208.158 267.107 208.158 266.052C208.158 264.177 209.523 261.974 211.263 261.038L218.451 257.168C221.836 255.344 224.589 250.895 224.589 247.25V148.559L232.372 144.538V244.127C232.372 245.716 232.9 246.875 233.861 247.393C234.822 247.91 236.165 247.758 237.642 246.965L244.829 243.093C245.809 242.567 246.813 242.503 247.585 242.918C248.359 243.335 248.802 244.178 248.802 245.232C248.802 247.105 247.438 249.31 245.699 250.246L231.938 257.656L225.878 260.788L212.131 268.189C211.579 268.487 211.02 268.638 210.498 268.638Z" fill="#252323"/>
<path d="M224.999 242.574L216.865 237.846L217.783 236.472L225.916 241.199L224.999 242.574Z" fill="#252323"/>
<path d="M224.999 203.498L216.865 198.771L217.783 197.397L225.916 202.124L224.999 203.498Z" fill="#252323"/>
<path d="M226.691 179.27L226.023 178.191L230.563 175.746L231.231 176.825L226.691 179.27Z" fill="#01BBFF"/>
<path d="M233.386 121.182C233.032 121 232.549 121.028 232.012 121.316L191.736 143.006C190.435 143.706 189.201 145.001 188.377 146.531L172.121 176.702C171.591 177.687 171.301 178.717 171.301 179.619V186.172C171.301 186.671 171.467 187.032 171.735 187.25L171.784 187.289C171.847 187.334 186.468 195.056 187.936 195.84C187.989 195.869 188.056 195.852 188.088 195.803L193.528 187.755C193.533 187.749 193.538 187.742 193.544 187.737L237.302 146.923L245.057 139.161C245.067 139.152 245.073 139.143 245.078 139.133L249.649 129.908C249.674 129.859 249.654 129.799 249.602 129.77L233.386 121.182Z" fill="#01BBFF"/>
<path d="M232.889 121.877C232.796 121.877 232.646 121.911 232.449 122.017L192.171 143.706C191.025 144.323 189.896 145.515 189.153 146.894L172.898 177.067C172.429 177.936 172.17 178.843 172.17 179.619V186.172C172.17 186.435 172.24 186.587 172.307 186.641C172.456 186.72 177.478 189.376 181.514 191.51C184.118 192.886 186.557 194.176 187.739 194.804L192.93 187.164L236.689 146.352L244.342 138.691L248.573 130.156L232.967 121.89C232.95 121.883 232.923 121.877 232.889 121.877ZM187.996 196.665C187.827 196.665 187.655 196.625 187.498 196.538C186.883 196.211 183.897 194.63 180.659 192.919C171.342 187.993 171.337 187.988 171.26 187.934C170.695 187.476 170.434 186.877 170.434 186.172V179.619C170.434 178.595 170.759 177.43 171.346 176.339L187.601 146.166C188.504 144.492 189.854 143.085 191.303 142.304L231.581 120.616C232.354 120.198 233.164 120.146 233.805 120.473L233.816 120.477L250.032 129.067C250.479 129.308 250.652 129.812 250.439 130.246L245.673 139.733L237.938 147.475L194.213 188.257L188.824 196.235C188.639 196.512 188.321 196.665 187.996 196.665Z" fill="#252323"/>
<path d="M171.735 187.25L171.784 187.289C171.847 187.334 186.468 195.056 187.936 195.84C187.989 195.869 188.056 195.852 188.088 195.803L189.788 193.289C188.562 191.177 187.616 189.601 187.616 189.601L171.301 180.853V186.172C171.301 186.671 171.467 187.032 171.735 187.25Z" fill="#252323"/>
<path d="M172.302 186.638L172.344 186.671C172.456 186.72 177.478 189.376 181.514 191.51C184.116 192.886 186.557 194.176 187.739 194.804L188.783 193.258C187.928 191.787 187.239 190.632 186.976 190.191L172.17 182.253V186.172C172.17 186.43 172.238 186.581 172.302 186.638ZM187.996 196.665C187.827 196.665 187.655 196.625 187.498 196.538C186.883 196.211 183.897 194.63 180.659 192.919C171.342 187.993 171.337 187.988 171.26 187.934L171.165 187.861C170.695 187.476 170.434 186.877 170.434 186.172V179.454L188.256 189.01L188.374 189.206C188.374 189.206 189.322 190.786 190.551 192.904L190.794 193.321L188.824 196.235C188.639 196.512 188.321 196.665 187.996 196.665Z" fill="#252323"/>
<path d="M204.691 155.174L246.396 134.995L226.483 124.295L191.737 143.006C190.435 143.706 189.202 145.001 188.377 146.531L204.691 155.174Z" fill="white"/>
<path d="M189.558 146.223L204.712 154.253L244.594 134.958L226.488 125.228L192.175 143.706C191.219 144.22 190.275 145.134 189.558 146.223ZM204.677 156.094L187.234 146.853L187.604 146.166C188.507 144.492 189.857 143.085 191.307 142.304L226.488 123.36L248.208 135.033L204.677 156.094Z" fill="#252323"/>
<path d="M248.329 164.242L189.585 195.875C188.498 196.46 187.617 195.987 187.617 194.814V188.262C187.617 187.36 187.905 186.329 188.436 185.346L204.692 155.175C205.516 153.644 206.749 152.35 208.051 151.648L248.329 129.96C249.416 129.375 250.297 129.848 250.297 131.019V161.062C250.297 162.233 249.416 163.657 248.329 164.242Z" fill="#252323"/>
<path d="M249.208 130.519C249.117 130.519 248.962 130.553 248.763 130.661L208.486 152.348C207.339 152.967 206.21 154.159 205.467 155.537L189.211 185.709C188.743 186.58 188.486 187.486 188.486 188.262V194.814C188.486 195.114 188.574 195.273 188.628 195.304C188.683 195.329 188.873 195.324 189.152 195.174L247.893 163.542C248.712 163.101 249.429 161.942 249.429 161.062V131.019C249.429 130.72 249.341 130.562 249.287 130.532C249.271 130.523 249.245 130.519 249.208 130.519ZM188.703 196.934C188.365 196.934 188.045 196.859 187.76 196.705C187.118 196.359 186.748 195.67 186.748 194.814V188.262C186.748 187.238 187.073 186.075 187.661 184.983L203.917 154.81C204.818 153.137 206.167 151.729 207.618 150.947L247.893 129.258C248.688 128.832 249.511 128.785 250.155 129.13C250.797 129.476 251.165 130.165 251.165 131.019V161.062C251.165 162.513 250.11 164.218 248.763 164.944L248.327 164.242L248.763 164.944L190.02 196.575C189.578 196.814 189.128 196.934 188.703 196.934Z" fill="#252323"/>
<path d="M188.287 194.814H186.951V189.911H188.287V194.814Z" fill="#01BBFF"/>
<path d="M189.011 184.774L172.697 176.13L173.556 174.725L189.869 183.367L189.011 184.774Z" fill="#252323"/>
<path d="M201.224 162.162L184.91 153.519L185.767 152.112L202.081 160.755L201.224 162.162Z" fill="#252323"/>
<path d="M238.387 145.119C238.196 145.085 238.022 145.058 238.022 145.058C237.224 144.982 236.209 145.378 235.126 146.541C234.521 147.193 234.061 147.963 233.805 148.791C233.39 150.134 233.557 151.121 234.055 151.673C234.055 151.673 235.059 153.028 237.298 153.514C237.404 153.538 237.52 153.493 237.578 153.408L240.907 148.471L241.05 146.694C241.055 146.629 241.039 146.571 240.991 146.523C240.736 146.267 239.878 145.402 238.387 145.119Z" fill="#01BBFF"/>
<path d="M237.811 145.669C237.417 145.669 236.644 145.859 235.629 146.951C235.078 147.542 234.668 148.238 234.443 148.964C234.131 149.978 234.176 150.843 234.564 151.272C234.632 151.358 235.427 152.378 237.169 152.841L240.252 148.271L240.369 146.818C240.044 146.508 239.353 145.939 238.26 145.73L237.911 145.673C237.882 145.67 237.846 145.669 237.811 145.669ZM237.356 154.144C237.286 154.144 237.216 154.136 237.143 154.12C234.682 153.585 233.551 152.09 233.503 152.027C232.847 151.304 232.712 150.077 233.161 148.619C233.439 147.721 233.942 146.861 234.62 146.133C236.05 144.597 237.292 144.364 238.087 144.44L238.519 144.508C239.645 144.722 240.641 145.257 241.477 146.099C241.65 146.274 241.733 146.501 241.714 146.74L241.557 148.673L238.141 153.739C237.971 153.993 237.67 154.144 237.356 154.144Z" fill="#01BBFF"/>
<path d="M241.985 148.408C241.985 150.169 240.659 152.31 239.026 153.189C237.391 154.069 236.066 153.357 236.066 151.596C236.066 149.836 237.391 147.696 239.026 146.816C240.659 145.935 241.985 146.649 241.985 148.408Z" fill="#252323"/>
<path d="M240.347 147.061C240.059 147.061 239.719 147.161 239.359 147.355C237.935 148.122 236.732 150.063 236.732 151.596C236.732 152.207 236.928 152.662 237.266 152.844C237.602 153.027 238.122 152.956 238.691 152.65C240.115 151.884 241.317 149.942 241.317 148.408C241.317 147.799 241.124 147.343 240.784 147.161C240.661 147.094 240.513 147.061 240.347 147.061ZM237.703 154.192C237.306 154.192 236.933 154.102 236.598 153.921C235.824 153.506 235.398 152.679 235.398 151.596C235.398 149.608 236.843 147.272 238.691 146.275C239.697 145.735 240.678 145.666 241.452 146.083C242.225 146.499 242.653 147.325 242.653 148.408C242.653 150.398 241.205 152.734 239.359 153.729C238.787 154.036 238.225 154.192 237.703 154.192Z" fill="#01BBFF"/>
<path d="M230.657 155.93C230.465 155.896 230.292 155.869 230.292 155.869C229.495 155.793 228.479 156.189 227.395 157.352C226.79 158.004 226.33 158.774 226.074 159.602C225.661 160.944 225.826 161.932 226.325 162.483C226.325 162.483 227.328 163.839 229.567 164.325C229.672 164.348 229.789 164.304 229.847 164.219L233.176 159.282L233.32 157.505C233.325 157.439 233.308 157.382 233.261 157.334C233.005 157.077 232.148 156.211 230.657 155.93Z" fill="#01BBFF"/>
<path d="M230.073 156.478C229.455 156.478 228.677 156.928 227.902 157.761C227.351 158.351 226.942 159.049 226.718 159.775C226.404 160.789 226.449 161.652 226.838 162.083C226.905 162.169 227.7 163.189 229.442 163.652L232.525 159.082L232.642 157.629C232.318 157.319 231.626 156.75 230.533 156.541L230.185 156.483C230.148 156.48 230.11 156.478 230.073 156.478ZM229.631 164.955C229.559 164.955 229.489 164.947 229.416 164.931C226.957 164.396 225.824 162.901 225.778 162.837C225.12 162.114 224.985 160.888 225.435 159.43C225.712 158.532 226.215 157.672 226.893 156.944C228.324 155.407 229.565 155.174 230.361 155.249L230.792 155.319C231.918 155.533 232.914 156.068 233.75 156.91C233.924 157.085 234.006 157.31 233.987 157.551L233.832 159.484L230.414 164.55C230.244 164.804 229.945 164.955 229.631 164.955Z" fill="#01BBFF"/>
<path d="M234.257 159.219C234.257 160.98 232.932 163.121 231.297 164.001C229.662 164.88 228.338 164.168 228.338 162.407C228.338 160.647 229.662 158.507 231.297 157.626C232.932 156.746 234.257 157.46 234.257 159.219Z" fill="#252323"/>
<path d="M232.619 157.872C232.33 157.872 231.991 157.972 231.631 158.165C230.209 158.933 229.006 160.874 229.006 162.407C229.006 163.018 229.201 163.472 229.539 163.655C229.877 163.836 230.394 163.767 230.963 163.461C232.388 162.695 233.589 160.753 233.589 159.219C233.589 158.61 233.395 158.154 233.056 157.972C232.933 157.905 232.785 157.872 232.619 157.872ZM229.975 165.003C229.579 165.003 229.206 164.913 228.871 164.734C228.098 164.316 227.672 163.49 227.672 162.407C227.672 160.419 229.118 158.083 230.963 157.086C231.968 156.546 232.95 156.477 233.724 156.894C234.499 157.31 234.925 158.136 234.925 159.219C234.925 161.209 233.477 163.545 231.631 164.54C231.061 164.847 230.497 165.003 229.975 165.003Z" fill="#01BBFF"/>
<path d="M229.768 160.017L228.658 159.327L236.75 147.989L237.862 148.677L229.768 160.017Z" fill="#01BBFF"/>
<path d="M233.818 162.477L232.707 161.785L240.182 151.333L241.292 152.023L233.818 162.477Z" fill="#01BBFF"/>
<path d="M81.0007 92.4162C79.0502 91.1062 75.7368 91.862 72.3755 95.4736C70.1559 97.859 68.8635 100.927 68.926 104.084V171.003C68.926 171.985 69.4865 172.895 70.3977 173.391L149.141 216.133C150.469 216.853 152.134 215.96 152.134 214.527V146.386C152.485 143.863 153.66 141.47 155.465 139.533C158.827 135.921 162.14 135.326 164.09 136.635L81.0007 92.4162Z" fill="#01BBFF"/>
<path d="M78.9206 92.6387C77.3705 92.6387 75.2694 93.5976 73.029 96.0054C70.8847 98.3086 69.7349 101.173 69.7909 104.07L69.7925 171.003C69.7925 171.696 70.1913 172.342 70.8335 172.69L149.577 215.434C150.083 215.709 150.533 215.528 150.703 215.437C150.871 215.346 151.265 215.074 151.265 214.527V146.386C151.643 143.605 152.866 141.088 154.807 139.001C156.69 136.979 158.508 135.898 160.113 135.451L80.4932 93.0734C80.0768 92.794 79.5436 92.6387 78.9206 92.6387ZM150.141 217.199C149.647 217.199 149.154 217.077 148.704 216.834L69.9607 174.09C68.7852 173.454 68.055 172.271 68.055 171.003V104.084C67.9909 100.801 69.2929 97.5498 71.7174 94.9434C75.8138 90.5416 79.5228 90.461 81.4669 91.7321L163.879 135.591C164.137 135.7 164.377 135.832 164.597 135.978L163.66 137.337L163.082 137.03C161.581 136.44 159.051 136.915 156.119 140.063C154.402 141.908 153.321 144.129 152.994 146.489L153.002 214.527C153.002 215.492 152.466 216.357 151.569 216.84C151.122 217.08 150.632 217.199 150.141 217.199Z" fill="#252323"/>
<path d="M133.096 207.388V138.23C133.035 135.073 134.328 132.004 136.547 129.62C139.909 126.008 143.22 125.252 145.173 126.562L96.2443 100.541C94.2922 99.2315 90.9805 99.9873 87.6175 103.599C85.398 105.984 84.1072 109.052 84.1681 112.21V180.911L133.096 207.388Z" fill="#252323"/>
<path d="M85.0346 180.445L132.227 205.982V138.229C132.164 134.945 133.465 131.694 135.891 129.089C137.825 127.009 139.675 125.893 141.291 125.43L95.8122 101.243C94.2876 100.228 91.4147 100.754 88.2711 104.131C86.1268 106.434 84.9769 109.297 85.033 112.195L85.0346 180.445ZM133.964 208.793L83.2971 181.377V112.21C83.2346 108.927 84.535 105.675 86.9595 103.069C91.0848 98.6401 94.8097 98.5848 96.749 99.8843L145.003 125.541C145.246 125.644 145.472 125.766 145.679 125.904L144.742 127.264L144.209 126.98C142.654 126.373 140.04 127.101 137.201 130.151C135.057 132.453 133.907 135.316 133.963 138.216L133.964 208.793Z" fill="#252323"/>
<path d="M138.246 123.535L109.77 108.125L110.441 107.048L138.917 122.458L138.246 123.535Z" fill="#01BBFF"/>
<path d="M76.2949 107.587L144.232 143.969L76.2949 107.587Z" fill="#01BBFF"/>
<path d="M143.802 144.671L75.8652 108.287L76.7284 106.885L144.665 143.267L143.802 144.671Z" fill="#252323"/>
<path d="M121.028 16.9931L121.547 17.2724C122.032 17.5338 122.49 17.6772 122.924 17.7041C123.355 17.731 123.755 17.6458 124.122 17.4486C124.49 17.25 124.663 17.0484 124.637 16.8452C124.612 16.6406 124.384 16.4225 123.953 16.191L123.236 15.8041L121.028 16.9931ZM125.768 18.2761C124.969 18.7063 124.107 18.902 123.183 18.8601C122.258 18.8183 121.335 18.5509 120.413 18.0536L119.735 17.6891L117.091 19.1141L115.516 18.2642L122.953 14.2597L125.328 15.5398C126.229 16.0252 126.721 16.4987 126.802 16.9602C126.882 17.4233 126.538 17.8609 125.768 18.2761Z" fill="#252323"/>
<path d="M127.767 20.409L128.278 20.6824C128.776 20.9512 129.226 21.1051 129.631 21.1424C130.033 21.1813 130.412 21.1051 130.77 20.9124C131.122 20.7227 131.253 20.524 131.159 20.3119C131.064 20.0998 130.762 19.8579 130.257 19.5845L129.777 19.3261L127.767 20.409ZM126.484 21.0991L123.632 22.6361L122.055 21.7862L129.492 17.7817L131.66 18.9482C132.669 19.4934 133.234 19.9953 133.351 20.4553C133.468 20.9139 133.151 21.3455 132.403 21.7488C131.964 21.9833 131.455 22.1282 130.874 22.182C130.292 22.2373 129.684 22.1969 129.05 22.064C128.496 23.5666 128.145 24.5405 127.998 24.9871L126.247 24.0431L127.325 21.5517L126.484 21.0991Z" fill="#252323"/>
<path d="M128.932 25.4906L136.367 21.4861L137.946 22.3345L130.509 26.3389L128.932 25.4906Z" fill="#252323"/>
<path d="M138.979 30.9003L136.975 29.8219L139.366 25.0497L139.32 25.0243C138.391 25.5949 137.714 25.9951 137.291 26.2222L133.792 28.1072L132.381 27.3469L139.818 23.344L141.807 24.4134L139.467 29.1527L139.504 29.1721C140.42 28.624 141.077 28.2431 141.477 28.028L144.997 26.1311L146.414 26.8958L138.979 30.9003Z" fill="#252323"/>
<path d="M143.722 33.4531L142.145 32.6047L148.268 29.3067L146.249 28.2194L147.561 27.5129L153.178 30.536L151.865 31.2425L149.846 30.1551L143.722 33.4531Z" fill="#252323"/>
<path d="M100.262 171.878L100.254 188.253L132.037 205.452V199.987L106.685 186.318L106.692 175.345L100.262 171.878Z" fill="#01BBFF"/>
<path d="M132.031 162.398L122.53 157.275L100.28 130.244L100.275 140.595L115.274 158.135L100.264 159.434L100.256 169.848L122.773 166.953L132.031 171.944V162.398Z" fill="#01BBFF"/>
<path d="M87.4488 19.8478C92.2691 20.9561 92.2691 24.4497 87.4488 25.5595C86.1196 25.8657 84.7104 25.8657 83.3828 25.5595C78.5625 24.4497 78.5625 20.9576 83.3828 19.8478C84.7104 19.5416 86.1196 19.5416 87.4488 19.8478Z" fill="#01BBFF"/>
<path d="M85.417 20.4288C84.8036 20.4288 84.1886 20.4961 83.5913 20.6335C81.7977 21.0472 80.6367 21.8598 80.6367 22.7037C80.6367 23.5476 81.7977 24.3601 83.5913 24.7739C84.786 25.0487 86.0479 25.0487 87.2426 24.7739C89.0377 24.3601 90.1972 23.5476 90.1972 22.7037C90.1972 21.8598 89.0377 21.0472 87.2442 20.6335C86.6452 20.4961 86.0319 20.4288 85.417 20.4288ZM85.417 26.5976C84.6643 26.5976 83.9084 26.514 83.1766 26.3452C80.539 25.7388 78.9023 24.3437 78.9023 22.7037C78.9023 21.0636 80.539 19.6686 83.1766 19.0622C84.6435 18.7246 86.1936 18.7246 87.6589 19.0622C90.2949 19.6686 91.9331 21.0636 91.9331 22.7037C91.9331 24.3437 90.2949 25.7388 87.6589 26.3452C86.9255 26.514 86.1728 26.5976 85.417 26.5976Z" fill="#252323"/>
<path d="M85.4183 12.0734C83.4053 12.0734 81.7734 13.5955 81.7734 15.473V20.29C81.7734 21.0338 82.5501 21.7762 84.1067 22.1331C84.9634 22.3318 85.8731 22.3318 86.7314 22.1331C88.2864 21.7762 89.0647 21.0338 89.0647 20.29V15.473C89.0647 13.5955 87.4329 12.0734 85.4183 12.0734Z" fill="white"/>
<path d="M85.4171 12.883C83.8862 12.883 82.6402 14.0451 82.6402 15.473V20.29C82.6402 20.6246 83.2136 21.0951 84.3137 21.3475C85.036 21.5148 85.7998 21.5148 86.5221 21.3475C87.6207 21.0951 88.194 20.6246 88.194 20.29V15.473C88.194 14.0451 86.9497 12.883 85.4171 12.883ZM85.4171 23.0906C84.9063 23.0906 84.3938 23.0339 83.8958 22.9189C81.689 22.411 80.9043 21.228 80.9043 20.29V15.473C80.9043 13.1519 82.9285 11.264 85.4171 11.264C87.9057 11.264 89.9315 13.1519 89.9315 15.473V20.29C89.9315 21.228 89.1452 22.4125 86.9369 22.9189C86.4404 23.0339 85.928 23.0906 85.4171 23.0906Z" fill="#252323"/>
<path d="M85.4171 23.0906C84.9063 23.0906 84.3938 23.0339 83.8958 22.9189C81.689 22.4125 80.9043 21.228 80.9043 20.29C80.9043 19.352 81.689 18.169 83.8958 17.6612L84.3137 19.2325C83.2136 19.4849 82.6386 19.9569 82.6386 20.29C82.6386 20.6246 83.2135 21.0951 84.3121 21.3475C85.036 21.5133 85.7998 21.5148 86.5221 21.3475C87.6207 21.0951 88.1956 20.6246 88.1956 20.29C88.1956 19.9569 87.6207 19.4849 86.5221 19.2325L86.9385 17.6612C89.1452 18.169 89.9315 19.352 89.9315 20.29C89.9315 21.228 89.1452 22.4125 86.9369 22.9189C86.4404 23.0339 85.928 23.0906 85.4171 23.0906Z" fill="#252323"/>
<path d="M225.394 57.4126C230.214 58.5223 230.214 62.016 225.394 63.1243C224.065 63.4305 222.657 63.4305 221.328 63.1243C216.508 62.016 216.508 58.5223 221.328 57.4126C222.657 57.1064 224.065 57.1064 225.394 57.4126Z" fill="#01BBFF"/>
<path d="M223.362 57.992C222.747 57.992 222.132 58.0607 221.535 58.1981C219.741 58.6119 218.58 59.4244 218.58 60.2684C218.58 61.1123 219.741 61.9248 221.535 62.3385C222.732 62.6148 223.996 62.6133 225.187 62.3385C226.981 61.9248 228.142 61.1123 228.142 60.2684C228.142 59.4244 226.981 58.6119 225.187 58.1981C224.59 58.0607 223.977 57.992 223.362 57.992ZM223.36 64.1637C222.608 64.1637 221.853 64.0786 221.12 63.9098C218.482 63.3034 216.846 61.9084 216.846 60.2684C216.846 58.6283 218.482 57.2333 221.12 56.6268C222.588 56.2893 224.139 56.2908 225.602 56.6268C228.24 57.2333 229.876 58.6283 229.876 60.2684C229.876 61.9084 228.24 63.3034 225.604 63.9098C224.869 64.0786 224.116 64.1637 223.36 64.1637Z" fill="#252323"/>
<path d="M223.359 49.6382C221.345 49.6382 219.713 51.1602 219.713 53.0377V57.8547C219.713 58.5986 220.491 59.3409 222.046 59.6979C222.904 59.8966 223.813 59.8966 224.671 59.6979C226.226 59.3409 227.004 58.5986 227.004 57.8547V53.0377C227.004 51.1602 225.372 49.6382 223.359 49.6382Z" fill="white"/>
<path d="M223.36 50.4478C221.829 50.4478 220.584 51.6098 220.584 53.0378V57.8548C220.584 58.1893 221.159 58.6599 222.257 58.9138C222.979 59.0796 223.745 59.0796 224.467 58.9123C225.564 58.6599 226.139 58.1893 226.139 57.8548V53.0378C226.139 51.6098 224.893 50.4478 223.36 50.4478ZM223.36 60.6553C222.85 60.6553 222.339 60.5986 221.842 60.4851C219.634 59.9773 218.848 58.7943 218.848 57.8548V53.0378C218.848 50.7166 220.872 48.8287 223.36 48.8287C225.849 48.8287 227.876 50.7166 227.876 53.0378V57.8548C227.876 58.7943 227.089 59.9773 224.882 60.4851C224.384 60.5986 223.873 60.6553 223.36 60.6553Z" fill="#252323"/>
<path d="M223.36 60.6553C222.85 60.6553 222.339 60.5986 221.842 60.4851C219.634 59.9773 218.848 58.7943 218.848 57.8548C218.848 56.9168 219.634 55.7338 221.841 55.226L222.257 56.7973C221.159 57.0497 220.584 57.5217 220.584 57.8548C220.584 58.1893 221.159 58.6599 222.257 58.9138C222.979 59.0796 223.745 59.0796 224.467 58.9123C225.564 58.6599 226.139 58.1893 226.139 57.8548C226.139 57.5217 225.564 57.0497 224.465 56.7973L224.882 55.226C227.089 55.7338 227.875 56.9168 227.875 57.8548C227.875 58.7943 227.089 59.9773 224.882 60.4851C224.384 60.5986 223.873 60.6553 223.36 60.6553Z" fill="#252323"/>
<path fill-rule="evenodd" clip-rule="evenodd" d="M72.9922 109.057L146.971 148.894L146.971 228.568L72.9922 188.731L72.9922 109.057Z" fill="#252323"/>
<path d="M106.795 141.854L107.638 142.308L107.638 162.937L106.428 162.286L106.428 141.656L106.795 141.854Z" fill="#EC268F"/>
<path d="M83.166 149.362L83.166 129.131L84.6278 129.919L92.4548 152.784L100.19 138.299L101.652 139.086L101.652 159.715L100.442 159.064L100.442 140.962L92.8868 154.89L92.4844 154.673L92.4607 154.721L92.4341 154.646L91.934 154.377L84.3763 132.31L84.3763 150.412L83.166 149.761L83.166 149.362Z" fill="#00AFEF"/>
<path d="M115.078 143.4L115.078 142.504L124.426 147.538L124.426 148.832L115.078 143.798L115.078 143.4Z" fill="#FFF212"/>
<path d="M106.398 138.794L106.398 137.829L107.665 138.511L107.665 139.872L106.398 139.19L106.398 138.794Z" fill="#EC268F"/>
<path d="M123.511 185.068L124.21 185.817L117.131 198.714C116.699 199.489 116.217 199.981 115.687 200.193C115.128 200.418 114.521 200.336 113.864 199.951C113.509 199.795 113.142 199.556 112.761 199.242C112.385 198.928 111.991 198.531 111.58 198.055L111.281 197.706L111.787 196.891L112.11 197.228C112.5 197.632 112.843 197.954 113.136 198.192C113.406 198.407 113.628 198.549 113.805 198.619L113.856 198.639C114.267 198.861 114.643 198.894 114.983 198.74C115.353 198.569 115.687 198.179 115.983 197.573L116.773 196.109L110.908 178.555L111.947 178.554L117.469 195.103L123.171 184.7L123.511 185.068Z" fill="#FEFEFE"/>
<path d="M98.9379 184.249L98.9379 191.913L97.7246 191.26L97.7246 171.141L98.9379 171.794L98.9379 174.646C99.3551 174.132 99.8434 173.786 100.409 173.618C101.341 173.333 102.468 173.529 103.782 174.202L103.815 174.219C105.694 175.374 107.135 176.899 108.138 178.791C109.12 180.646 109.662 182.84 109.759 185.362L109.759 185.385C109.727 187.879 109.227 189.515 108.256 190.29C107.265 191.078 105.812 190.975 103.891 189.976L103.88 189.969C102.533 189.209 101.385 188.18 100.435 186.887C99.8582 186.099 99.361 185.222 98.9379 184.249ZM103.906 188.68C105.421 189.461 106.561 189.539 107.324 188.911C108.108 188.266 108.517 186.873 108.549 184.739C108.457 182.561 108.008 180.703 107.203 179.161C106.422 177.663 105.282 176.444 103.791 175.51C102.267 174.823 101.104 174.799 100.305 175.449C99.4883 176.115 99.0296 177.478 98.9379 179.548C99.0621 181.664 99.5386 183.482 100.37 185.004C101.19 186.497 102.368 187.724 103.906 188.68Z" fill="#FEFEFE"/>
<path d="M78.3613 175.631L78.3613 155.397C80.2138 156.394 82.0632 157.384 83.9157 158.391C87.2536 160.227 89.7777 162.443 91.4822 165.041C93.1956 167.652 94.0685 170.618 94.0981 173.932L94.0981 174.28C94.1129 174.724 94.1159 175.15 94.1011 175.556C94.0093 178.35 93.2015 180.088 91.6834 180.772C90.1743 181.45 87.9727 181.074 85.0845 179.647C84.5726 179.393 84.037 179.105 83.4777 178.781L78.3613 176.029L78.3613 175.631ZM79.5746 157.357L79.5746 175.373L83.4895 177.481C86.7801 179.387 89.2007 180.018 90.7572 179.374C92.2989 178.738 93.0091 176.829 92.8878 173.654L92.8878 173.638C92.8878 170.584 92.1125 167.885 90.5649 165.547C89.0054 163.191 86.641 161.162 83.4777 159.459L79.5746 157.357Z" fill="#FEFEFE"/>
<path d="M127.196 153.235L127.193 194.568L140.027 188.157L140.929 189.615L132.928 193.51L141.598 209.461L140.625 209.717L132.017 193.873L127.193 196.286L127.193 202.137L125.983 201.485C125.983 185.719 125.98 169.949 125.983 154.184L113.628 166.163L112.314 165.455L112.314 144.826L113.427 145.425L113.427 164.05L125.782 152.078L127.196 152.839L127.196 153.235Z" fill="#FFF212"/>
</g>
</svg>
