<svg width="461" height="457" viewBox="0 0 461 457" fill="none" xmlns="http://www.w3.org/2000/svg">
<path d="M330.517 441.265L327.785 442.744C327.506 442.895 327.018 442.875 326.694 442.702L324.118 441.307C323.797 441.132 323.76 440.867 324.042 440.716L326.773 439.235C327.053 439.084 327.54 439.104 327.865 439.279L330.438 440.672C330.762 440.847 330.796 441.112 330.517 441.265Z" fill="#252323"/>
<path d="M336.874 444.705L334.142 446.187C333.863 446.337 333.372 446.318 333.051 446.142L330.475 444.75C330.151 444.574 330.116 444.31 330.396 444.156L333.127 442.677C333.409 442.527 333.897 442.546 334.221 442.719L336.794 444.114C337.119 444.29 337.153 444.555 336.874 444.705Z" fill="#252323"/>
<path d="M330.178 448.333L327.446 449.813C327.167 449.963 326.676 449.946 326.355 449.77L323.779 448.376C323.457 448.2 323.42 447.935 323.7 447.785L326.431 446.306C326.713 446.152 327.201 446.172 327.525 446.347L330.098 447.742C330.423 447.915 330.457 448.183 330.178 448.333Z" fill="#252323"/>
<path d="M343.229 448.148L340.498 449.627C340.216 449.781 339.728 449.76 339.404 449.584L336.83 448.19C336.506 448.016 336.472 447.753 336.751 447.599L339.483 446.12C339.762 445.969 340.253 445.987 340.574 446.162L343.15 447.557C343.474 447.733 343.509 447.997 343.229 448.148Z" fill="#252323"/>
<path d="M336.534 451.776L333.802 453.256C333.523 453.406 333.033 453.386 332.708 453.213L330.135 451.818C329.811 451.642 329.777 451.378 330.056 451.227L332.787 449.748C333.067 449.595 333.557 449.614 333.882 449.79L336.455 451.182C336.779 451.358 336.813 451.623 336.534 451.776Z" fill="#252323"/>
<path d="M349.956 451.791L347.224 453.27C346.945 453.424 346.454 453.404 346.13 453.228L343.557 451.834C343.233 451.66 343.198 451.393 343.478 451.242L346.209 449.764C346.489 449.613 346.979 449.63 347.301 449.805L349.877 451.2C350.201 451.376 350.235 451.64 349.956 451.791Z" fill="#252323"/>
<path d="M343.26 455.42L340.529 456.898C340.25 457.05 339.759 457.029 339.435 456.856L336.862 455.461C336.537 455.286 336.503 455.021 336.783 454.87L339.514 453.389C339.793 453.238 340.284 453.258 340.608 453.433L343.181 454.826C343.506 455.001 343.54 455.266 343.26 455.42Z" fill="#252323"/>
<path d="M356.651 448.165L353.92 449.644C353.638 449.795 353.15 449.778 352.825 449.602L350.252 448.208C349.928 448.032 349.894 447.767 350.173 447.617L352.905 446.137C353.184 445.984 353.674 446.004 353.996 446.179L356.572 447.574C356.894 447.747 356.931 448.012 356.651 448.165Z" fill="#252323"/>
<path d="M363.348 444.537L360.616 446.016C360.337 446.169 359.849 446.15 359.525 445.974L356.952 444.582C356.627 444.406 356.593 444.141 356.872 443.988L359.604 442.509C359.883 442.358 360.374 442.378 360.695 442.551L363.271 443.946C363.593 444.122 363.63 444.386 363.348 444.537Z" fill="#252323"/>
<path d="M370.043 440.912L367.311 442.391C367.032 442.541 366.544 442.524 366.22 442.348L363.647 440.954C363.323 440.778 363.288 440.513 363.568 440.363L366.299 438.884C366.579 438.73 367.066 438.75 367.391 438.926L369.966 440.321C370.288 440.496 370.325 440.761 370.043 440.912Z" fill="#252323"/>
<path d="M376.74 437.286L374.008 438.765C373.729 438.916 373.241 438.896 372.917 438.723L370.341 437.328C370.019 437.152 369.982 436.888 370.264 436.737L372.996 435.255C373.275 435.105 373.763 435.124 374.087 435.3L376.661 436.692C376.985 436.868 377.019 437.133 376.74 437.286Z" fill="#252323"/>
<path d="M383.439 433.658L380.707 435.137C380.428 435.29 379.938 435.27 379.616 435.095L377.04 433.7C376.718 433.527 376.682 433.26 376.964 433.109L379.695 431.63C379.975 431.479 380.462 431.496 380.786 431.672L383.36 433.067C383.684 433.242 383.718 433.507 383.439 433.658Z" fill="#252323"/>
<path d="M390.134 430.032L387.403 431.511C387.124 431.662 386.633 431.645 386.312 431.469L383.736 430.074C383.414 429.899 383.377 429.634 383.657 429.483L386.388 428.004C386.67 427.851 387.158 427.871 387.482 428.046L390.055 429.441C390.38 429.614 390.414 429.879 390.134 430.032Z" fill="#252323"/>
<path d="M396.831 426.404L394.099 427.883C393.82 428.036 393.33 428.016 393.008 427.841L390.432 426.448C390.108 426.273 390.073 426.008 390.353 425.855L393.084 424.376C393.364 424.225 393.854 424.245 394.178 424.418L396.752 425.813C397.076 425.988 397.11 426.253 396.831 426.404Z" fill="#252323"/>
<path d="M403.526 422.778L400.795 424.257C400.515 424.408 400.025 424.391 399.7 424.215L397.127 422.821C396.803 422.645 396.769 422.38 397.048 422.229L399.78 420.75C400.059 420.597 400.549 420.617 400.874 420.793L403.447 422.187C403.771 422.363 403.806 422.628 403.526 422.778Z" fill="#252323"/>
<path d="M410.221 419.153L407.49 420.632C407.208 420.782 406.72 420.763 406.396 420.587L403.823 419.195C403.498 419.019 403.464 418.754 403.744 418.604L406.475 417.122C406.754 416.971 407.245 416.991 407.566 417.167L410.142 418.559C410.467 418.735 410.501 418.999 410.221 419.153Z" fill="#252323"/>
<path d="M356.312 455.234L353.581 456.712C353.302 456.864 352.814 456.846 352.489 456.671L349.916 455.276C349.592 455.1 349.558 454.835 349.837 454.684L352.569 453.205C352.848 453.053 353.339 453.072 353.66 453.248L356.236 454.643C356.558 454.818 356.594 455.082 356.312 455.234Z" fill="#252323"/>
<path d="M363.009 451.608L360.278 453.086C359.998 453.238 359.51 453.218 359.186 453.045L356.61 451.65C356.289 451.474 356.252 451.209 356.534 451.059L359.265 449.578C359.545 449.427 360.033 449.446 360.357 449.622L362.933 451.014C363.254 451.19 363.291 451.455 363.009 451.608Z" fill="#252323"/>
<path d="M369.704 447.98L366.973 449.459C366.694 449.613 366.203 449.592 365.882 449.416L363.306 448.023C362.984 447.848 362.947 447.582 363.229 447.431L365.961 445.952C366.24 445.801 366.728 445.819 367.052 445.994L369.625 447.389C369.95 447.565 369.984 447.829 369.704 447.98Z" fill="#252323"/>
<path d="M376.4 444.354L373.669 445.833C373.389 445.984 372.899 445.967 372.577 445.791L370.001 444.396C369.68 444.221 369.643 443.956 369.922 443.805L372.654 442.326C372.936 442.173 373.424 442.193 373.748 442.368L376.321 443.763C376.645 443.936 376.68 444.201 376.4 444.354Z" fill="#252323"/>
<path d="M383.096 440.726L380.365 442.208C380.086 442.359 379.595 442.339 379.273 442.163L376.698 440.771C376.373 440.595 376.339 440.331 376.619 440.177L379.35 438.698C379.632 438.547 380.12 438.567 380.444 438.74L383.017 440.135C383.342 440.311 383.376 440.575 383.096 440.726Z" fill="#252323"/>
<path d="M389.792 437.1L387.06 438.579C386.781 438.73 386.29 438.713 385.966 438.537L383.393 437.142C383.069 436.967 383.034 436.702 383.314 436.551L386.045 435.072C386.325 434.919 386.815 434.939 387.139 435.114L389.713 436.509C390.037 436.685 390.071 436.949 389.792 437.1Z" fill="#252323"/>
<path d="M396.487 433.475L393.756 434.954C393.476 435.105 392.986 435.085 392.661 434.912L390.088 433.517C389.764 433.341 389.73 433.077 390.009 432.926L392.741 431.444C393.02 431.293 393.51 431.313 393.832 431.489L396.408 432.881C396.732 433.057 396.766 433.321 396.487 433.475Z" fill="#252323"/>
<path d="M403.186 429.846L400.455 431.325C400.173 431.479 399.685 431.459 399.361 431.283L396.788 429.889C396.463 429.715 396.429 429.448 396.708 429.297L399.44 427.818C399.719 427.668 400.21 427.685 400.531 427.86L403.107 429.255C403.429 429.431 403.466 429.696 403.186 429.846Z" fill="#252323"/>
<path d="M409.883 426.221L407.151 427.7C406.872 427.851 406.384 427.834 406.06 427.658L403.487 426.263C403.162 426.088 403.128 425.823 403.408 425.672L406.139 424.193C406.418 424.04 406.909 424.06 407.23 424.235L409.806 425.63C410.128 425.803 410.165 426.068 409.883 426.221Z" fill="#252323"/>
<path d="M50.072 288.957L47.3407 290.439C47.0612 290.59 46.5708 290.57 46.2491 290.394L43.6733 289.002C43.3517 288.826 43.3147 288.562 43.5942 288.408L46.3256 286.929C46.6077 286.779 47.0954 286.798 47.4197 286.971L49.9929 288.366C50.3172 288.542 50.3515 288.807 50.072 288.957Z" fill="#252323"/>
<path d="M56.4245 292.4L53.6931 293.879C53.4136 294.033 52.9232 294.013 52.599 293.837L50.0258 292.442C49.7015 292.269 49.6672 292.005 49.9467 291.851L52.6781 290.372C52.9575 290.222 53.4479 290.239 53.7695 290.414L56.3454 291.809C56.6696 291.985 56.7039 292.25 56.4245 292.4Z" fill="#252323"/>
<path d="M49.7291 296.028L46.9978 297.507C46.7183 297.658 46.2279 297.638 45.9062 297.465L43.3304 296.07C43.0061 295.895 42.9719 295.63 43.2514 295.479L45.9827 293.998C46.2622 293.847 46.7526 293.867 47.0769 294.042L49.65 295.435C49.9743 295.61 50.0086 295.875 49.7291 296.028Z" fill="#252323"/>
<path d="M62.7812 295.843L60.0498 297.322C59.7704 297.475 59.2826 297.455 58.9583 297.28L56.3851 295.885C56.0608 295.709 56.0266 295.445 56.3061 295.294L59.0374 293.815C59.3169 293.664 59.8073 293.681 60.1289 293.857L62.7047 295.252C63.0263 295.427 63.0633 295.692 62.7812 295.843Z" fill="#252323"/>
<path d="M56.0846 299.469L53.3532 300.95C53.0711 301.101 52.5834 301.081 52.2591 300.905L49.6859 299.513C49.3616 299.337 49.3274 299.073 49.6068 298.92L52.3382 297.441C52.6177 297.29 53.108 297.31 53.4297 297.483L56.0055 298.878C56.3272 299.053 56.3641 299.318 56.0846 299.469Z" fill="#252323"/>
<path d="M69.5065 299.486L66.7752 300.965C66.4931 301.116 66.0053 301.098 65.681 300.923L63.1078 299.528C62.7835 299.352 62.7492 299.088 63.0287 298.937L65.7601 297.458C66.0396 297.304 66.5299 297.324 66.8516 297.5L69.4274 298.895C69.749 299.07 69.786 299.335 69.5065 299.486Z" fill="#252323"/>
<path d="M62.8112 303.112L60.0798 304.591C59.7977 304.744 59.31 304.724 58.9857 304.549L56.4125 303.156C56.0882 302.981 56.0539 302.716 56.3334 302.563L59.0648 301.084C59.3442 300.933 59.8346 300.953 60.1563 301.126L62.7321 302.521C63.0564 302.696 63.0907 302.961 62.8112 303.112Z" fill="#252323"/>
<path d="M76.2031 295.86L73.4717 297.339C73.1922 297.49 72.7045 297.47 72.3802 297.297L69.807 295.902C69.4827 295.727 69.4484 295.462 69.7279 295.311L72.4593 293.83C72.7387 293.679 73.2291 293.699 73.5508 293.874L76.1266 295.267C76.4483 295.442 76.4852 295.707 76.2031 295.86Z" fill="#252323"/>
<path d="M82.8997 292.232L80.1683 293.711C79.8888 293.864 79.4011 293.844 79.0768 293.669L76.501 292.274C76.1794 292.101 76.1424 291.834 76.4245 291.683L79.1559 290.204C79.4354 290.053 79.9231 290.07 80.2474 290.246L82.8232 291.641C83.1449 291.816 83.1818 292.081 82.8997 292.232Z" fill="#252323"/>
<path d="M89.595 288.607L86.8636 290.085C86.5842 290.236 86.0937 290.219 85.7721 290.043L83.1963 288.649C82.8747 288.473 82.8378 288.208 83.1199 288.058L85.8512 286.579C86.1307 286.425 86.6184 286.445 86.9427 286.621L89.5159 288.015C89.8402 288.189 89.8744 288.453 89.595 288.607Z" fill="#252323"/>
<path d="M96.2908 284.978L93.5594 286.457C93.2799 286.61 92.7895 286.591 92.4679 286.415L89.8921 285.023C89.5704 284.847 89.5335 284.583 89.813 284.429L92.5444 282.95C92.8265 282.799 93.3142 282.819 93.6385 282.992L96.2117 284.387C96.5359 284.563 96.5702 284.827 96.2908 284.978Z" fill="#252323"/>
<path d="M102.987 281.353L100.256 282.832C99.9761 282.983 99.4857 282.965 99.1641 282.79L96.5882 281.395C96.2639 281.219 96.2297 280.955 96.5092 280.804L99.2405 279.325C99.5226 279.171 100.01 279.191 100.335 279.367L102.908 280.762C103.232 280.937 103.266 281.202 102.987 281.353Z" fill="#252323"/>
<path d="M109.682 277.727L106.951 279.206C106.671 279.357 106.181 279.337 105.857 279.164L103.284 277.769C102.959 277.593 102.925 277.329 103.204 277.175L105.936 275.696C106.215 275.545 106.706 275.565 107.03 275.741L109.603 277.133C109.927 277.309 109.962 277.573 109.682 277.727Z" fill="#252323"/>
<path d="M75.8606 302.928L73.1292 304.407C72.8498 304.558 72.3621 304.541 72.0378 304.365L69.4619 302.97C69.1403 302.795 69.1034 302.53 69.3855 302.379L72.1169 300.9C72.3963 300.747 72.8841 300.767 73.2084 300.942L75.7842 302.337C76.1058 302.51 76.1401 302.775 75.8606 302.928Z" fill="#252323"/>
<path d="M82.556 299.301L79.8246 300.782C79.5452 300.933 79.0547 300.913 78.7331 300.737L76.1573 299.345C75.8356 299.169 75.7987 298.905 76.0808 298.752L78.8122 297.273C79.0917 297.122 79.5794 297.142 79.9037 297.315L82.4769 298.71C82.8011 298.885 82.8354 299.15 82.556 299.301Z" fill="#252323"/>
<path d="M89.2556 295.675L86.5242 297.154C86.2447 297.304 85.7544 297.287 85.4327 297.112L82.8569 295.717C82.5353 295.541 82.4983 295.276 82.7778 295.126L85.5091 293.647C85.7912 293.493 86.279 293.513 86.6033 293.689L89.1765 295.084C89.5008 295.259 89.5351 295.524 89.2556 295.675Z" fill="#252323"/>
<path d="M95.9518 292.049L93.2204 293.528C92.9409 293.679 92.4506 293.659 92.1289 293.486L89.5531 292.091C89.2288 291.915 89.1945 291.651 89.474 291.5L92.2054 290.019C92.4875 289.868 92.9752 289.887 93.2995 290.063L95.8727 291.455C96.197 291.631 96.2313 291.896 95.9518 292.049Z" fill="#252323"/>
<path d="M102.651 288.421L99.9197 289.9C99.6402 290.053 99.1498 290.033 98.8255 289.858L96.2523 288.463C95.928 288.29 95.8938 288.023 96.1732 287.872L98.9046 286.393C99.1841 286.242 99.6745 286.259 99.9988 286.435L102.572 287.83C102.896 288.005 102.93 288.27 102.651 288.421Z" fill="#252323"/>
<path d="M109.346 284.795L106.615 286.274C106.333 286.425 105.845 286.408 105.521 286.232L102.948 284.837C102.623 284.662 102.589 284.397 102.869 284.246L105.6 282.767C105.879 282.614 106.37 282.634 106.691 282.809L109.267 284.204C109.592 284.377 109.626 284.642 109.346 284.795Z" fill="#252323"/>
<path d="M278.479 388.285L275.748 389.764C275.466 389.917 274.978 389.897 274.654 389.722L272.08 388.327C271.756 388.151 271.722 387.887 272.001 387.736L274.733 386.257C275.012 386.106 275.503 386.123 275.824 386.299L278.4 387.694C278.722 387.869 278.759 388.134 278.479 388.285Z" fill="#252323"/>
<path d="M284.837 391.727L282.106 393.206C281.826 393.357 281.339 393.34 281.014 393.164L278.439 391.769C278.117 391.594 278.08 391.329 278.362 391.178L281.093 389.699C281.373 389.546 281.861 389.566 282.185 389.741L284.761 391.136C285.082 391.309 285.117 391.577 284.837 391.727Z" fill="#252323"/>
<path d="M278.14 395.353L275.409 396.832C275.13 396.986 274.642 396.966 274.318 396.79L271.744 395.395C271.42 395.222 271.386 394.958 271.665 394.804L274.397 393.325C274.676 393.174 275.167 393.192 275.488 393.367L278.064 394.762C278.386 394.938 278.423 395.202 278.14 395.353Z" fill="#252323"/>
<path d="M291.189 395.17L288.458 396.649C288.178 396.8 287.688 396.78 287.366 396.607L284.79 395.212C284.469 395.037 284.432 394.772 284.711 394.621L287.443 393.142C287.725 392.989 288.213 393.009 288.537 393.184L291.11 394.577C291.434 394.752 291.469 395.017 291.189 395.17Z" fill="#252323"/>
<path d="M284.493 398.796L281.762 400.275C281.483 400.428 280.992 400.408 280.671 400.233L278.095 398.838C277.773 398.662 277.736 398.398 278.018 398.247L280.75 396.768C281.029 396.617 281.517 396.634 281.841 396.81L284.414 398.205C284.739 398.38 284.773 398.645 284.493 398.796Z" fill="#252323"/>
<path d="M297.916 398.813L295.184 400.292C294.905 400.443 294.415 400.423 294.093 400.25L291.517 398.855C291.195 398.68 291.159 398.415 291.438 398.264L294.169 396.783C294.451 396.632 294.939 396.652 295.264 396.827L297.837 398.22C298.161 398.395 298.195 398.66 297.916 398.813Z" fill="#252323"/>
<path d="M291.22 402.439L288.489 403.918C288.209 404.069 287.719 404.052 287.397 403.876L284.821 402.481C284.5 402.306 284.463 402.041 284.745 401.89L287.476 400.411C287.756 400.258 288.243 400.278 288.568 400.453L291.141 401.848C291.465 402.024 291.499 402.288 291.22 402.439Z" fill="#252323"/>
<path d="M304.612 395.185L301.881 396.664C301.601 396.818 301.111 396.798 300.789 396.622L298.213 395.227C297.889 395.054 297.855 394.787 298.134 394.636L300.866 393.157C301.148 393.006 301.635 393.024 301.96 393.199L304.533 394.594C304.857 394.77 304.891 395.034 304.612 395.185Z" fill="#252323"/>
<path d="M311.311 391.559L308.58 393.038C308.3 393.189 307.81 393.172 307.486 392.996L304.913 391.601C304.588 391.426 304.554 391.161 304.833 391.01L307.565 389.531C307.844 389.378 308.335 389.398 308.659 389.573L311.232 390.968C311.556 391.141 311.591 391.406 311.311 391.559Z" fill="#252323"/>
<path d="M318.01 387.931L315.279 389.413C315 389.563 314.509 389.544 314.185 389.368L311.612 387.976C311.287 387.8 311.253 387.535 311.533 387.382L314.264 385.903C314.543 385.752 315.034 385.772 315.355 385.945L317.931 387.34C318.256 387.516 318.29 387.78 318.01 387.931Z" fill="#252323"/>
<path d="M324.706 384.306L321.974 385.785C321.692 385.935 321.205 385.918 320.88 385.743L318.307 384.348C317.983 384.172 317.948 383.908 318.228 383.757L320.959 382.278C321.239 382.124 321.729 382.144 322.051 382.32L324.627 383.715C324.951 383.89 324.985 384.155 324.706 384.306Z" fill="#252323"/>
<path d="M304.276 402.253L301.545 403.735C301.265 403.886 300.775 403.866 300.45 403.69L297.877 402.298C297.553 402.122 297.519 401.858 297.798 401.704L300.53 400.225C300.809 400.075 301.299 400.094 301.624 400.268L304.197 401.662C304.521 401.838 304.556 402.103 304.276 402.253Z" fill="#252323"/>
<path d="M310.971 398.628L308.24 400.107C307.958 400.258 307.47 400.24 307.146 400.065L304.573 398.67C304.248 398.494 304.214 398.23 304.494 398.079L307.225 396.6C307.504 396.449 307.995 396.466 308.316 396.642L310.892 398.037C311.216 398.212 311.251 398.477 310.971 398.628Z" fill="#252323"/>
<path d="M317.667 395.002L314.935 396.481C314.653 396.632 314.165 396.612 313.841 396.439L311.268 395.044C310.944 394.868 310.909 394.604 311.189 394.453L313.92 392.971C314.2 392.821 314.69 392.84 315.012 393.016L317.588 394.408C317.909 394.584 317.946 394.849 317.667 395.002Z" fill="#252323"/>
<path d="M324.359 391.374L321.628 392.853C321.349 393.006 320.861 392.987 320.536 392.811L317.963 391.416C317.639 391.243 317.605 390.976 317.884 390.825L320.616 389.346C320.895 389.195 321.385 389.213 321.707 389.388L324.283 390.783C324.605 390.959 324.641 391.223 324.359 391.374Z" fill="#252323"/>
<path d="M451.632 146.652C451.756 146.283 451.579 145.897 451.215 145.714L429.217 134.578C425.642 133.133 421.199 133.509 416.369 136.123L404.851 142.363C401.724 144.057 399.188 148.603 399.188 152.516V221.322C399.188 223.379 399.899 224.829 401.02 225.519L422.156 236.329C422.56 236.534 423.055 236.418 423.295 236.052C425.99 231.936 440.664 209.455 440.272 209.079C439.873 208.701 450.05 151.45 451.632 146.652Z" fill="#01BBFF"/>
<path d="M424.822 135.067C422.447 135.067 419.818 135.807 417.09 137.286L405.571 143.523C402.887 144.977 400.62 149.095 400.62 152.515V221.321C400.62 222.79 401.063 223.94 401.806 224.398L422.368 234.909C430.035 223.189 438.392 210.148 438.901 208.787L438.935 208.8C438.988 206.68 440.016 200.346 443.805 179.3C446.257 165.658 449.149 150.294 450.143 146.691L428.542 135.757C427.396 135.297 426.149 135.067 424.822 135.067ZM422.576 237.77C422.204 237.77 421.825 237.684 421.474 237.506L400.338 226.696C398.642 225.654 397.762 223.767 397.762 221.321V152.515C397.762 148.108 400.564 143.14 404.142 141.201L415.658 134.963C420.728 132.218 425.608 131.662 429.784 133.346L451.896 144.534C452.859 145.022 453.323 146.08 453.001 147.05C451.422 151.83 441.727 206.888 441.693 208.998H441.667C441.49 210.575 438.456 215.45 424.517 236.751C424.092 237.407 423.346 237.77 422.576 237.77Z" fill="#252323"/>
<path d="M425.339 167.302L447.909 155.077L414.642 137.06L404.851 142.363C401.724 144.057 399.188 148.603 399.188 152.515V153.136L425.339 167.302Z" fill="white"/>
<path d="M400.62 152.364L425.344 165.754L445.057 155.077L414.646 138.606L405.571 143.523C402.927 144.955 400.688 148.973 400.62 152.364ZM425.344 168.848L397.762 153.91V152.515C397.762 148.108 400.564 143.139 404.142 141.2L414.646 135.512L450.77 155.077L425.344 168.848Z" fill="#252323"/>
<path d="M453.879 221.729L426.671 236.464C423.544 238.158 421.008 236.36 421.008 232.448V163.639C421.008 159.727 423.544 155.181 426.671 153.487L438.19 147.25C449.983 140.862 459.542 147.643 459.542 162.393V211.577C459.542 215.489 457.009 220.035 453.879 221.729Z" fill="#252323"/>
<path d="M446.674 146.196C444.265 146.196 441.62 146.938 438.905 148.41L427.383 154.65C424.699 156.104 422.435 160.219 422.435 163.64V232.448C422.435 233.989 422.899 235.161 423.676 235.584C424.407 235.98 425.316 235.648 425.954 235.305L453.163 220.567C455.847 219.113 458.114 214.995 458.114 211.577V162.393C458.114 155.129 455.683 149.649 451.446 147.354C450.017 146.58 448.406 146.196 446.674 146.196ZM424.417 238.446C423.647 238.446 422.915 238.265 422.248 237.906C420.55 236.984 419.574 234.996 419.574 232.448V163.64C419.574 159.235 422.377 154.266 425.954 152.327L437.476 146.088C443.07 143.058 448.541 142.682 452.875 145.032C458.022 147.819 460.972 154.145 460.972 162.393V211.577C460.972 215.982 458.169 220.95 454.592 222.889L427.383 237.625C426.374 238.171 425.369 238.446 424.417 238.446Z" fill="#252323"/>
<path d="M369.802 236.324V174.836L290.516 166.565L293.624 207.781L359.09 234.78L369.802 236.324Z" fill="#01BBFF"/>
<path d="M359.492 233.482L368.371 234.763V176.035L292.059 168.077L294.988 206.878L359.492 233.482ZM371.232 237.887L358.513 236.007L292.259 208.681L288.969 165.057L371.232 173.636V237.887Z" fill="#252323"/>
<path d="M357.801 201.415L330.859 186.578L332.307 184.266L359.246 199.102L357.801 201.415Z" fill="#252323"/>
<path d="M112.73 244.547C111.95 244.21 110.93 244.287 109.801 244.9L97.9661 251.308C96.6716 252.011 95.4351 252.419 94.2856 252.592L96.3842 109.564L87.1461 112.034V82.8262L77.1908 88V250.621C77.1908 257.068 72.3239 264.98 66.3707 268.203L54.9575 274.386C52.8325 275.536 51.1926 277.385 50.5044 279.594C49.7214 282.117 50.2725 283.833 51.4879 284.444L64.7282 291.176C64.8811 291.253 65.0656 291.245 65.2106 291.156L88.3799 276.948L121.375 257.17L126.066 251.959C126.261 251.744 126.195 251.417 125.931 251.281L112.73 244.547Z" fill="#01BBFF"/>
<path d="M78.6247 88.7892V250.621C78.6247 257.511 73.4493 265.92 67.0901 269.363L55.6769 275.546C53.8287 276.545 52.4472 278.157 51.883 279.97C51.2977 281.84 51.622 282.99 52.1704 283.264L64.9124 289.742L87.6045 275.828L120.428 256.151L124.225 251.934L112.105 245.751C111.723 245.608 111.151 245.717 110.521 246.061L98.6856 252.471C97.2909 253.223 95.8909 253.71 94.5173 253.915L92.8405 254.168L92.8616 252.575L94.9338 111.347L85.7194 113.81V85.1017L78.6247 88.7892ZM64.9572 292.569C64.6488 292.569 64.3403 292.499 64.0582 292.358L50.8126 285.624C49.2835 284.852 48.0364 282.762 49.1384 279.218C49.9188 276.713 51.7328 274.586 54.2479 273.223L65.6612 267.04C71.1398 264.075 75.7667 256.557 75.7667 250.621V87.2113L88.58 80.5536V110.259L97.8445 107.781L95.7459 250.834C96.2441 250.653 96.7477 250.423 97.2539 250.149L109.092 243.738C110.579 242.934 112.087 242.789 113.336 243.333L113.418 243.372L126.619 250.107C127.125 250.364 127.473 250.814 127.579 251.341C127.687 251.87 127.534 252.409 127.165 252.822L122.147 258.3L89.1547 278.078L65.9986 292.277C65.6849 292.472 65.3211 292.569 64.9572 292.569Z" fill="#252323"/>
<path d="M87.5067 268.891L73.4992 261.397L73.4754 261.38C71.5666 264.238 69.0936 266.724 66.3622 268.203L54.9463 274.386C54.0341 274.878 53.433 275.62 52.7344 276.345L65.7322 283.265L69.8265 285.646L78.7246 282.866L85.5557 278.677L87.5067 268.891Z" fill="white"/>
<path d="M55.0006 276.013L66.435 282.1L70.0074 284.177L78.0961 281.649L84.2601 277.868L85.9158 269.583L73.9278 263.167C71.9346 265.856 69.5381 268.03 67.0756 269.363L55.6597 275.546C55.4251 275.672 55.2089 275.83 55.0006 276.013ZM69.6383 287.118L64.977 284.405L50.4844 276.688L52.003 275.098C52.5962 274.465 53.2685 273.745 54.2334 273.223L65.6467 267.04C68.0327 265.749 70.3817 263.486 72.2642 260.667L73.1 259.413L74.347 260.318L89.098 268.198L86.8465 279.485L79.1744 284.137L69.6383 287.118Z" fill="#252323"/>
<path d="M112.732 244.503C111.952 244.166 110.931 244.243 109.803 244.856L97.9679 251.264C96.6734 251.967 95.4369 252.375 94.2874 252.548L93.5703 254.764L107.085 261.459L110.304 263.764L121.377 257.126L126.067 251.915C126.262 251.7 126.197 251.373 125.933 251.237L112.732 244.503Z" fill="white"/>
<path d="M95.2815 254.096L107.955 260.395L110.381 262.129L120.428 256.106L124.225 251.89L112.105 245.707C111.73 245.561 111.15 245.675 110.52 246.016L98.6852 252.424C97.5911 253.015 96.4943 253.443 95.4107 253.698L95.2815 254.096ZM110.236 265.396L106.315 262.594L91.8594 255.434L93.1829 251.356L94.0661 251.222C95.0917 251.071 96.1647 250.695 97.2536 250.104L109.091 243.694C110.576 242.89 112.084 242.746 113.333 243.286L113.418 243.325L126.619 250.06C127.127 250.322 127.475 250.772 127.581 251.304C127.684 251.83 127.531 252.37 127.162 252.778L122.147 258.256L110.236 265.396Z" fill="#252323"/>
<path d="M100.534 252.271V89.6474L90.5813 94.8213V257.445C90.5813 263.917 85.7382 271.789 79.7613 275.024L67.9262 281.434C65.498 282.75 63.5312 285.948 63.5312 288.577C63.5312 291.206 65.498 292.272 67.9262 290.956L90.5813 278.687L100.534 273.515L123.189 261.243C125.617 259.93 127.587 256.732 127.587 254.101C127.587 251.472 125.617 250.406 123.189 251.722L111.354 258.132C105.38 261.367 100.534 258.743 100.534 252.271Z" fill="#252323"/>
<path d="M92.0135 95.61V257.444C92.0135 264.448 86.9462 272.682 80.479 276.186L68.6438 282.594C66.648 283.675 64.9634 286.415 64.9634 288.577C64.9634 289.326 65.1769 289.89 65.5354 290.085C65.8887 290.278 66.5215 290.172 67.2149 289.796L89.87 277.526L99.8438 272.343L122.48 260.083C124.476 259.002 126.161 256.265 126.161 254.103C126.161 253.351 125.947 252.787 125.586 252.592C125.225 252.397 124.6 252.505 123.909 252.881L112.072 259.292C108.721 261.105 105.499 261.359 102.994 260.002C100.487 258.646 99.1082 255.901 99.1082 252.27V91.9225L92.0135 95.61ZM65.9573 292.855C65.2929 292.855 64.6628 292.707 64.1065 292.408C62.8331 291.718 62.1055 290.32 62.1055 288.577C62.1055 285.473 64.3491 281.825 67.2149 280.272L79.05 273.864C84.6208 270.844 89.1555 263.479 89.1555 257.444V94.0322L101.966 87.3744V252.27C101.966 254.902 102.839 256.824 104.421 257.682C106.005 258.54 108.215 258.283 110.643 256.969L122.48 250.561C124.091 249.688 125.744 249.582 127.018 250.272C128.289 250.962 129.019 252.357 129.019 254.103C129.019 257.207 126.775 260.852 123.909 262.406L101.252 274.675L91.2779 279.859L68.6438 292.118C67.7369 292.608 66.8168 292.855 65.9573 292.855Z" fill="#252323"/>
<path d="M89.8281 249.701L76.4375 241.871L77.9508 239.595L91.3388 247.425L89.8281 249.701Z" fill="#252323"/>
<path d="M89.8281 215.786L76.4375 207.956L77.9508 205.681L91.3388 213.511L89.8281 215.786Z" fill="#252323"/>
<path d="M92.6151 144.883L91.5156 143.097L98.99 139.049L100.089 140.834L92.6151 144.883Z" fill="#01BBFF"/>
<path d="M131.112 33.6843C130.529 33.3826 129.733 33.4296 128.85 33.9069L35.0736 84.8344C32.9302 85.9968 30.8975 88.1386 29.5397 90.6736L2.77959 140.632C1.90692 142.261 1.42969 143.965 1.42969 145.459V156.312C1.42969 157.135 1.70387 157.736 2.14416 158.097L2.2259 158.161C2.32873 158.236 26.397 171.022 28.8173 172.318C28.9043 172.367 29.0124 172.338 29.0678 172.259L38.0238 158.933C38.0291 158.921 38.0397 158.911 38.0476 158.901L110.089 91.3216L150.329 63.4538C150.342 63.439 150.353 63.4242 150.361 63.4069L157.885 48.1351C157.928 48.051 157.893 47.9521 157.809 47.9051L131.112 33.6843Z" fill="#01BBFF"/>
<path d="M130.291 34.8347C130.141 34.8347 129.891 34.8941 129.566 35.0672L35.7874 85.9947C33.897 87.021 32.0383 88.9921 30.8176 91.2749L4.05485 141.233C3.285 142.675 2.86053 144.176 2.86053 145.46V156.312C2.86053 156.75 2.97655 156.999 3.08201 157.088C3.31402 157.21 10.8253 161.204 17.4481 164.728C22.0224 167.162 26.4226 169.501 28.4922 170.602L36.9817 158.013L109.078 90.3746L149.203 62.5663L156.11 48.5435L130.421 34.8569C130.392 34.8421 130.349 34.8347 130.291 34.8347ZM28.9062 173.683C28.6346 173.683 28.3578 173.619 28.1047 173.483C27.029 172.904 21.6691 170.053 16.0402 167.06C1.49483 159.324 1.48694 159.319 1.36039 159.228C0.65382 158.656 0 157.806 0 156.312V145.46C0 143.768 0.535187 141.839 1.50013 140.031L28.2629 90.0729C29.7472 87.3005 31.9671 84.9683 34.3584 83.6748L128.137 32.7473C129.411 32.0573 130.745 31.9683 131.8 32.5099L131.818 32.5173L158.515 46.7405C159.253 47.1313 159.543 48.0019 159.169 48.7215L151.175 64.5325L110.937 92.4002L39.1541 159.757L30.2745 172.974C29.966 173.431 29.444 173.683 28.9062 173.683Z" fill="#252323"/>
<path d="M2.14416 158.097L2.2259 158.161C2.32873 158.236 26.397 171.022 28.8173 172.318C28.9043 172.367 29.0124 172.338 29.0678 172.259L31.865 168.096C29.8481 164.599 28.2874 161.987 28.2874 161.987L1.42969 147.505V156.312C1.42969 157.135 1.70387 157.736 2.14416 158.097Z" fill="#252323"/>
<path d="M3.07145 157.079L3.12417 157.118C3.314 157.21 10.8253 161.204 17.4481 164.728C22.0224 167.162 26.4226 169.501 28.4922 170.604L30.2112 168.045C28.7981 165.608 27.6671 163.697 27.232 162.965L2.86052 149.822V156.312C2.86052 156.732 2.966 156.982 3.07145 157.079ZM28.9062 173.683C28.6346 173.683 28.3578 173.619 28.1047 173.483C27.029 172.904 21.6691 170.053 16.0402 167.06C1.49483 159.324 1.48694 159.319 1.36039 159.228L1.20224 159.106C0.653859 158.656 0 157.806 0 156.312V145.188L29.3412 161.011L29.5337 161.332C29.5337 161.332 31.0971 163.951 33.1219 167.458L33.52 168.148L30.2745 172.974C29.966 173.431 29.444 173.683 28.9062 173.683Z" fill="#252323"/>
<path d="M56.3993 104.983L152.533 56.5561L119.746 38.8383L35.073 84.8343C32.9296 85.9967 30.8968 88.1384 29.5391 90.6734L56.3993 104.983Z" fill="white"/>
<path d="M31.4791 90.1641L56.4201 103.453L149.595 56.5142L119.751 40.3842L35.7924 85.9944C34.2132 86.8501 32.6603 88.3637 31.4791 90.1641ZM56.3805 106.514L27.6562 91.2104L28.2653 90.0727C29.7496 87.3002 31.9695 84.968 34.3608 83.6746L119.745 37.2903L155.472 56.5958L56.3805 106.514Z" fill="#252323"/>
<path d="M155.712 104.983L31.5319 172.377C29.7417 173.347 28.2891 172.56 28.2891 170.621V159.771C28.2891 158.278 28.7662 156.571 29.6389 154.941L56.4016 104.983C57.7568 102.451 59.7895 100.306 61.9329 99.1465L155.712 48.219C157.502 47.2495 158.952 48.0335 158.952 49.9749V99.7178C158.952 101.657 157.502 104.014 155.712 104.983Z" fill="#252323"/>
<path d="M157.159 49.1443C157.008 49.1443 156.753 49.2012 156.426 49.3792L62.6494 100.307C60.7564 101.331 58.8977 103.304 57.677 105.587L30.9169 155.545C30.1444 156.984 29.7173 158.486 29.7173 159.772V170.621C29.7173 171.119 29.8623 171.381 29.9519 171.43C30.0416 171.477 30.3553 171.465 30.8141 171.215L154.994 103.824C156.341 103.094 157.522 101.175 157.522 99.7181V49.9753C157.522 49.4781 157.378 49.216 157.288 49.1666C157.262 49.1517 157.219 49.1443 157.159 49.1443ZM30.0758 174.131C29.5196 174.131 28.9923 174.005 28.523 173.75C27.4658 173.179 26.8594 172.039 26.8594 170.621V159.772C26.8594 158.075 27.3946 156.146 28.3621 154.341L55.1223 104.38C56.6066 101.61 58.8292 99.2804 61.2178 97.9869L154.994 47.0594C156.302 46.3496 157.66 46.2729 158.714 46.8442C159.774 47.418 160.381 48.5581 160.381 49.9753V99.7181C160.381 102.12 158.643 104.941 156.426 106.143L32.2457 173.537C31.5181 173.931 30.7745 174.131 30.0758 174.131Z" fill="#252323"/>
<path d="M29.3863 170.621H27.1875V162.499H29.3863V170.621Z" fill="#01BBFF"/>
<path d="M30.5803 153.997L3.72266 139.684L5.13583 137.355L31.9908 151.667L30.5803 153.997Z" fill="#252323"/>
<path d="M50.6858 116.555L23.8281 102.243L25.2413 99.9134L52.0989 114.226L50.6858 116.555Z" fill="#252323"/>
<path d="M395.884 258.545C395.882 258.496 395.884 251.417 395.884 251.417C395.884 251.217 395.729 251.046 395.518 251.012L380.031 248.598C379.981 248.591 379.931 248.573 379.886 248.549L135.768 116.066C133.361 114.76 129.717 114.619 127.632 115.749L63.0571 151.064C63.0149 151.086 62.9675 151.103 62.9174 151.111L45.4297 154.143C45.2214 154.177 45.0712 154.348 45.0712 154.546V161.513V161.708C45.0501 162.611 45.4139 163.642 46.98 164.493L305.124 304.573C307.534 305.877 311.175 306.02 313.26 304.89L394.497 260.553C395.481 260.019 395.924 259.297 395.884 258.548V258.545Z" fill="#01BBFF"/>
<path d="M46.5074 155.32L46.5048 161.74C46.4943 162.2 46.6287 162.752 47.6991 163.333L305.846 303.413C307.786 304.464 310.921 304.613 312.55 303.73L393.782 259.393C394.046 259.25 394.481 258.963 394.463 258.614V258.599C394.46 258.565 394.457 258.525 394.46 252.206L379.538 249.879L379.161 249.701L135.058 117.225C133.12 116.172 129.983 116.021 128.351 116.909L63.5601 152.342L63.1672 152.431L46.5074 155.32ZM309.721 306.987C307.876 306.989 305.951 306.564 304.414 305.733L46.2702 165.653C44.0529 164.453 43.6232 162.828 43.6496 161.678V154.546C43.6496 153.7 44.2928 152.975 45.1786 152.824L62.4923 149.822L126.917 114.592C129.44 113.224 133.645 113.362 136.487 114.906L380.452 247.304L395.757 249.691C396.659 249.829 397.318 250.554 397.318 251.417C397.318 251.417 397.315 258.06 397.318 258.51C397.373 259.791 396.611 260.956 395.217 261.713L313.985 306.047C312.822 306.678 311.301 306.987 309.721 306.987Z" fill="#252323"/>
<path d="M50.2106 153.163L45.3516 154.004C45.1434 154.041 44.993 154.209 44.993 154.407V161.377V161.572C44.972 162.475 45.3331 163.506 46.9018 164.354L50.2106 166.148V153.163Z" fill="#252323"/>
<path d="M309.43 305.649C310.861 305.689 312.245 305.446 313.26 304.895L394.498 260.558C395.481 260.024 395.924 259.302 395.885 258.552C395.882 258.501 395.885 251.422 395.885 251.422C395.885 251.222 395.729 251.051 395.518 251.017L380.031 248.603C379.981 248.595 379.931 248.578 379.886 248.553L323.611 218.077L309.43 205.154V305.649Z" fill="#252323"/>
<path d="M394.501 253.225L313.263 297.564C311.178 298.692 307.537 298.551 305.127 297.248L46.983 157.165C44.576 155.861 44.315 153.888 46.4004 152.76L127.635 108.421C129.721 107.293 133.364 107.434 135.771 108.738L393.915 248.821C396.325 250.124 396.586 252.097 394.501 253.225Z" fill="white"/>
<path d="M131.148 109.005C130.078 109.005 129.066 109.193 128.349 109.584L47.1164 153.918C46.9029 154.031 46.4178 154.331 46.4178 154.672C46.4178 154.969 46.7526 155.493 47.6965 156.005L305.843 296.088C307.784 297.139 310.921 297.287 312.548 296.402L393.785 252.065C393.993 251.954 394.478 251.655 394.478 251.314C394.478 251.017 394.144 250.49 393.202 249.981L135.056 109.898C133.969 109.309 132.509 109.005 131.148 109.005ZM309.719 299.662C307.873 299.662 305.946 299.239 304.412 298.408L46.2675 158.325C44.5459 157.395 43.5625 156.062 43.5625 154.672C43.5625 153.45 44.335 152.33 45.6822 151.598L126.914 107.264C129.437 105.899 133.643 106.037 136.485 107.578L394.631 247.661C396.35 248.591 397.336 249.921 397.336 251.314C397.336 252.535 396.561 253.656 395.214 254.388L313.982 298.722C312.819 299.352 311.298 299.662 309.719 299.662Z" fill="#252323"/>
<path d="M293.867 376.525L292.367 374.242L323.404 356.312C328.052 353.685 333.812 353.688 338.45 356.312L345.35 360.712C348.998 362.774 353.62 362.782 357.343 360.689L367.933 354.737C380.475 347.691 396.165 347.5 408.886 354.254L429.737 365.238C431.274 366.049 433.096 366.039 434.612 365.208C436.134 364.377 437.038 362.896 437.038 361.246V230.076H439.898V361.246C439.898 363.86 438.459 366.207 436.054 367.525C433.645 368.841 430.76 368.861 428.335 367.57L407.48 356.589C395.651 350.31 381.06 350.48 369.402 357.037L358.811 362.99C354.174 365.594 348.426 365.581 343.807 362.965L336.908 358.568C333.251 356.502 328.621 356.493 324.891 358.6L293.867 376.525Z" fill="#252323"/>
<path d="M439.896 328.261H437.035V318.369C437.035 313.308 438.633 308.419 441.654 304.229C444.354 300.483 445.78 296.113 445.78 291.594V225.34H448.641V291.594C448.641 296.649 447.043 301.539 444.022 305.731C441.319 309.475 439.896 313.845 439.896 318.369V328.261Z" fill="#252323"/>
<path d="M439.895 353.73H437.034V348.41C437.034 344.369 435.692 340.511 433.151 337.249C430.245 333.526 428.711 329.119 428.711 324.507V231.115H431.572V324.507C431.572 328.548 432.913 332.406 435.455 335.666C438.36 339.39 439.895 343.797 439.895 348.41V353.73Z" fill="#252323"/>
<path d="M320.832 367.3L307.702 366.168C307.681 366.165 307.66 366.16 307.639 366.15L304.475 366.148C300.684 364.095 299.212 364.511 295.93 366.289L292.898 367.936L292.421 367.921L276.059 370.508C275.988 370.52 275.932 370.58 275.932 370.649L275.914 378.882C275.914 380.396 276.845 381.677 279.051 382.871L288.155 387.761C291.946 389.814 297.681 390.036 300.966 388.258L318.762 378.613C320.167 377.853 320.892 376.847 320.969 375.786V367.441C320.969 367.367 320.908 367.305 320.832 367.3Z" fill="#01BBFF"/>
<path d="M277.362 371.66L277.349 378.882C277.349 379.587 277.623 380.549 279.769 381.711L288.868 386.596C292.208 388.406 297.418 388.629 300.254 387.098L318.053 377.452C318.702 377.101 319.487 376.51 319.545 375.696L319.543 368.534L307.428 367.49H304.096L303.764 367.31C300.468 365.527 299.569 365.868 296.648 367.448L293.265 369.286L292.522 369.264L277.362 371.66ZM295.39 390.8C292.632 390.8 289.743 390.167 287.444 388.923L278.343 384.036C275.748 382.629 274.488 380.944 274.488 378.882L274.509 369.521L275.814 369.187L292.329 366.578L292.54 366.583L295.216 365.129C298.688 363.251 300.692 362.64 304.852 364.807L308.1 364.856L322.264 366.066L322.401 367.441V375.785C322.282 377.43 321.249 378.817 319.482 379.772L301.683 389.417C299.97 390.345 297.726 390.8 295.39 390.8Z" fill="#252323"/>
<path d="M295.016 389.442C297.241 389.494 299.39 389.113 300.969 388.258L315.045 380.519V367.461L307.705 366.167C307.684 366.165 307.663 366.16 307.642 366.147L307.286 369.026L295.016 367.386V389.442Z" fill="#252323"/>
<path d="M296.448 368.93V388.072C297.945 387.968 299.264 387.634 300.255 387.098L313.616 379.752V368.574L308.884 367.74L308.536 370.545L296.448 368.93ZM295.414 390.788C295.272 390.788 295.127 390.785 294.982 390.78L293.59 390.748V365.841L306.037 367.505L306.469 364.006L308.167 364.891L316.474 366.35V381.288L301.692 389.415C300.047 390.306 297.832 390.788 295.414 390.788Z" fill="#252323"/>
<path d="M308.74 358.609L317.844 363.496C321.636 365.549 322.047 368.655 318.762 370.434L300.966 380.079C297.681 381.857 291.946 381.635 288.155 379.582L279.051 374.692C275.26 372.64 274.846 369.533 278.131 367.755L295.93 358.11C299.212 356.332 304.949 356.554 308.74 358.609Z" fill="#01BBFF"/>
<path d="M301.478 358.251C299.645 358.251 297.911 358.587 296.648 359.27L278.849 368.913C278.164 369.286 277.346 369.909 277.346 370.768C277.346 371.678 278.25 372.712 279.769 373.533L288.868 378.417C292.208 380.227 297.418 380.45 300.254 378.919L318.053 369.274C318.736 368.903 319.553 368.28 319.553 367.421C319.553 366.511 318.649 365.478 317.13 364.656L308.029 359.769C306.181 358.768 303.756 358.251 301.478 358.251ZM295.39 382.622C292.632 382.622 289.743 381.988 287.444 380.744L278.343 375.857C275.893 374.527 274.488 372.674 274.488 370.77C274.488 369.101 275.527 367.619 277.42 366.595L295.219 356.95C298.952 354.924 305.2 355.142 309.453 357.447L318.557 362.332C321.009 363.66 322.411 365.515 322.411 367.421C322.411 369.088 321.37 370.572 319.482 371.594L301.683 381.239C299.97 382.166 297.726 382.622 295.39 382.622Z" fill="#252323"/>
<path d="M289.517 387.491H286.656V379.312H289.517V387.491Z" fill="#252323"/>
<path d="M298.447 367.431C297.44 367.431 296.435 367.631 295.705 368.025C295.21 368.297 294.988 368.576 294.988 368.737C294.988 368.898 295.21 369.177 295.705 369.444C297.166 370.236 299.726 370.236 301.186 369.444C301.682 369.177 301.904 368.898 301.904 368.737C301.904 368.576 301.682 368.297 301.186 368.027V368.025C300.456 367.631 299.452 367.431 298.447 367.431ZM298.447 372.716C296.947 372.716 295.447 372.402 294.276 371.767C292.913 371.03 292.133 369.924 292.133 368.737C292.133 367.547 292.913 366.444 294.276 365.705C296.617 364.439 300.277 364.439 302.615 365.707V365.705C303.978 366.444 304.761 367.547 304.761 368.737C304.761 369.924 303.978 371.03 302.615 371.767C301.445 372.402 299.945 372.716 298.447 372.716Z" fill="white"/>
<path d="M440.394 227.19H438.195V189.056H440.394V227.19Z" fill="#01BBFF"/>
<path d="M444.597 192.447L435.665 197.282C433.682 198.358 432.074 197.218 432.074 194.737V186.266C432.074 183.786 433.682 180.905 435.665 179.829L444.597 174.994C446.58 173.918 448.188 175.058 448.188 177.539V186.009C448.188 188.49 446.58 191.371 444.597 192.447Z" fill="#252323"/>
<path d="M446.026 175.619C445.701 175.619 445.358 175.773 445.148 175.886L436.218 180.722C434.567 181.617 433.175 184.154 433.175 186.266V194.737C433.175 195.81 433.531 196.387 433.866 196.567C434.267 196.785 434.821 196.547 435.118 196.389L444.048 191.552C445.699 190.659 447.091 188.121 447.091 186.009V177.539C447.091 176.465 446.735 175.889 446.4 175.708C446.284 175.647 446.155 175.619 446.026 175.619ZM434.238 198.719C433.719 198.719 433.22 198.598 432.767 198.353C431.63 197.737 430.977 196.419 430.977 194.737V186.266C430.977 183.415 432.796 180.195 435.118 178.936L444.048 174.101C445.264 173.441 446.487 173.374 447.499 173.923C448.636 174.539 449.289 175.857 449.289 177.539V186.009C449.289 188.861 447.47 192.081 445.148 193.34L436.218 198.175C435.548 198.538 434.876 198.719 434.238 198.719Z" fill="#01BBFF"/>
<path d="M446.344 193.6L437.411 198.437C435.429 199.511 433.82 198.37 433.82 195.89V187.419C433.82 184.939 435.429 182.057 437.411 180.984L446.344 176.147C448.326 175.073 449.934 176.213 449.934 178.694V187.165C449.934 189.645 448.326 192.526 446.344 193.6Z" fill="#252323"/>
<path d="M447.768 176.775C447.443 176.775 447.101 176.925 446.89 177.039L437.96 181.877C436.31 182.77 434.918 185.307 434.918 187.419V195.89C434.918 196.966 435.276 197.542 435.608 197.722C436.004 197.935 436.563 197.705 436.861 197.544L445.793 192.707C447.441 191.814 448.833 189.277 448.833 187.164V178.694C448.833 177.618 448.477 177.044 448.142 176.861C448.026 176.799 447.897 176.775 447.768 176.775ZM435.983 199.874C435.461 199.874 434.962 199.753 434.509 199.508C433.373 198.892 432.719 197.572 432.719 195.89V187.419C432.719 184.568 434.538 181.348 436.861 180.091L445.793 175.254C447.006 174.596 448.232 174.529 449.241 175.078C450.378 175.694 451.032 177.012 451.032 178.694V187.164C451.032 190.016 449.212 193.236 446.89 194.492L437.96 199.33C437.29 199.694 436.618 199.874 435.983 199.874Z" fill="#01BBFF"/>
<path d="M446.112 223.911L446.07 192.843L448.269 192.84L448.309 223.908L446.112 223.911Z" fill="#01BBFF"/>
<path d="M431.242 232.319H429.043V226.851C429.043 222.286 430.759 217.837 433.873 214.325C436.662 211.184 438.197 207.204 438.197 203.119L438.199 197.418H440.398L440.396 203.119C440.396 207.684 438.679 212.133 435.566 215.643C432.776 218.786 431.242 222.766 431.242 226.851V232.319Z" fill="#01BBFF"/>
<path d="M319.717 214.775L276.906 238.515L140.355 164.446L183.166 140.706L319.717 214.775Z" fill="#01BBFF"/>
<path d="M143.187 164.431L276.895 236.962L316.882 214.787L183.174 142.259L143.187 164.431ZM276.911 240.065L137.523 164.458L183.155 139.153L322.543 214.762L276.911 240.065Z" fill="#252323"/>
<path d="M312.016 193.651L221.235 144.215L155.297 179.925L246.081 229.361L312.016 193.651Z" fill="#252323"/>
<path d="M158.145 179.928L246.079 227.813L309.165 193.649L221.231 145.763L158.145 179.928ZM246.077 230.91L152.445 179.923L221.233 142.667L314.865 193.654L246.077 230.91Z" fill="#252323"/>
<path d="M271.597 210.721L202.211 173.235L203.31 171.45L272.694 208.936L271.597 210.721Z" fill="#01BBFF"/>
<path d="M114.336 85.9868C111.124 83.8204 105.67 85.0718 100.136 91.0519C96.4815 95.0015 94.3539 100.081 94.4567 105.307C94.5173 108.557 95.4454 110.38 97.5677 111.69L97.9183 111.923L343.041 244.294C343.244 244.403 343.502 244.336 343.616 244.146L359.036 218.603C359.15 218.413 359.081 218.173 358.878 218.066L114.336 85.9868Z" fill="#01BBFF"/>
<path d="M110.91 86.3556C108.363 86.3556 104.902 87.9434 101.216 91.9301C97.6832 95.7438 95.7902 100.485 95.8825 105.285C95.9457 108.456 96.8738 109.658 98.3529 110.573L98.7431 110.828L342.874 242.657L357.298 218.759L113.502 87.0777C112.816 86.6153 111.936 86.3556 110.91 86.3556ZM343.249 245.687C342.927 245.687 342.613 245.61 342.329 245.457L97.206 113.086L96.7446 112.786C94.2189 111.228 93.0957 108.993 93.0272 105.332C92.9217 99.8715 95.0625 94.4874 99.0568 90.1742C105.801 82.8833 111.896 82.7497 115.11 84.8593L359.592 216.904C360.47 217.372 360.781 218.433 360.278 219.264L344.86 244.807C344.609 245.215 344.214 245.504 343.734 245.625C343.573 245.667 343.409 245.687 343.249 245.687Z" fill="#252323"/>
<path d="M169.772 134.399L350.752 232.319L359.033 218.603C359.146 218.413 359.078 218.173 358.877 218.067L114.332 85.9869C111.121 83.8204 105.666 85.0718 100.132 91.052C99.0274 92.244 98.0835 93.5498 97.2767 94.9224C97.2636 95.0016 97.253 95.0857 97.2188 95.1426L135.795 116.014L169.772 134.399Z" fill="white"/>
<path d="M351.286 234.157L169.059 135.559L170.488 133.237L350.218 230.484L357.297 218.759L113.622 87.1494C111.109 85.4652 106.387 86.3407 101.214 91.9301C100.46 92.7438 99.7591 93.644 99.1185 94.6234L136.511 114.854L135.08 117.176L95.293 95.6473L96.0286 94.2771C96.9144 92.766 97.9347 91.3835 99.0552 90.1741C105.847 82.8362 111.979 82.7497 115.169 84.9014L359.591 216.904C360.466 217.372 360.777 218.43 360.279 219.261L351.286 234.157Z" fill="#252323"/>
<path d="M143.148 119.993L162.537 130.484L143.148 119.993Z" fill="white"/>
<path d="M161.826 131.644L142.438 121.153L143.866 118.831L163.255 129.324L161.826 131.644Z" fill="#252323"/>
<path d="M97.5597 111.545L97.9104 111.777L343.033 244.146C343.233 244.255 343.492 244.191 343.608 244L346.26 239.605L340.381 237.622L95.0234 105.471C95.0841 108.72 95.4348 110.234 97.5597 111.545Z" fill="#252323"/>
<path d="M96.6263 107.879C96.8478 109.19 97.3303 109.799 98.3453 110.424L98.7302 110.679L342.864 242.509L344.182 240.327L339.669 238.784L96.6263 107.879ZM343.238 245.541C342.919 245.541 342.6 245.462 342.316 245.306L97.1984 112.939L96.7634 112.66C93.9134 110.894 93.6524 108.577 93.5944 105.495L93.5469 103.131L340.979 236.4L348.337 238.881L344.849 244.66C344.601 245.068 344.201 245.358 343.721 245.479C343.563 245.521 343.399 245.541 343.238 245.541Z" fill="#252323"/>
<path d="M363.16 225.434C363.16 232.248 358.062 240.531 351.774 243.936C345.486 247.342 340.387 244.582 340.387 237.771C340.387 230.957 345.486 222.674 351.774 219.269C358.062 215.863 363.16 218.623 363.16 225.434Z" fill="#01BBFF"/>
<path d="M356.851 219.145C355.546 219.145 354.059 219.578 352.487 220.428C346.603 223.616 341.815 231.394 341.815 237.77C341.815 240.565 342.746 242.608 344.436 243.523C346.128 244.443 348.477 244.171 351.058 242.776C356.943 239.588 361.728 231.81 361.728 225.434C361.728 222.639 360.8 220.597 359.108 219.682C358.448 219.323 357.687 219.145 356.851 219.145ZM346.685 246.741C345.353 246.741 344.111 246.444 343.007 245.845C340.394 244.431 338.957 241.562 338.957 237.77C338.957 230.418 344.272 221.784 351.058 218.109C354.565 216.212 357.929 215.945 360.537 217.359C363.149 218.774 364.589 221.643 364.589 225.434C364.589 232.784 359.274 241.421 352.487 245.096C350.468 246.189 348.493 246.741 346.685 246.741Z" fill="#252323"/>
<path d="M107.622 118.289C107.622 118.289 100.646 114.591 97.3658 112.816C93.5983 110.78 93.4506 106.885 93.4453 106.722L95.6441 106.67L94.5447 106.695L95.6441 106.665C95.6468 106.784 95.7839 109.581 98.4625 111.03C101.737 112.801 108.703 116.496 108.703 116.496L107.622 118.289Z" fill="#01BBFF"/>
<path d="M209.269 1.63969C208.186 1.14259 206.749 1.24403 205.154 2.10716L175.396 18.2223C150.666 31.617 130.434 64.4903 130.434 91.2772V97.8979C130.434 99.4857 130.971 100.631 131.836 101.301L324.435 205.083C324.701 205.226 325.042 205.152 325.213 204.914L378.013 131.733C378.042 131.694 378.077 131.659 378.114 131.627L398.153 115.274C398.225 115.215 398.28 115.143 398.314 115.059L402.108 105.985C402.214 105.73 402.105 105.444 401.855 105.308L209.269 1.63969Z" fill="#01BBFF"/>
<path d="M132.672 100.203L324.473 203.554L376.941 130.836L377.186 130.611L397.062 114.389L400.516 106.131L208.61 2.82693C207.917 2.53015 206.947 2.68597 205.874 3.26717L176.113 19.3848C151.716 32.5965 131.866 64.8491 131.866 91.2773V97.898C131.866 98.9318 132.15 99.748 132.672 100.203ZM324.72 206.492C324.383 206.492 324.04 206.413 323.729 206.245L130.93 102.332C130.052 101.652 129.008 100.332 129.008 97.898V91.2773C129.008 63.9958 149.498 30.702 174.685 17.0625L204.445 0.944824C206.385 -0.106277 208.323 -0.286774 209.9 0.435394L209.984 0.477417L402.57 104.143C403.44 104.615 403.809 105.592 403.443 106.47L399.649 115.552C399.525 115.841 399.327 116.103 399.074 116.301L379.137 132.572L326.4 205.666C326.012 206.201 325.372 206.492 324.72 206.492Z" fill="#252323"/>
<path d="M378.212 131.775L396.374 116.954L391.199 109.645L198.531 5.89107L175.494 18.3707C164.386 24.3855 154.207 34.3449 146.34 45.9045L338.854 149.612L364.257 151.083L378.111 131.882C378.14 131.842 378.172 131.805 378.212 131.775Z" fill="white"/>
<path d="M339.271 148.294L363.526 149.698L377.27 130.764L394.486 116.714L390.191 110.649L198.531 7.43909L176.206 19.5304C166.113 24.9937 156.266 34.1667 148.357 45.4443L339.271 148.294ZM364.979 152.468L338.43 150.93L144.328 46.3668L145.132 45.1821C153.419 33.0092 163.946 23.0745 174.777 17.2081L198.526 4.34514L199.24 4.73097L392.201 108.641L398.257 117.191L379.229 132.717L364.979 152.468Z" fill="#252323"/>
<path d="M341.746 168.405L300.383 146.122L301.804 143.8L343.167 166.081L341.746 168.405Z" fill="#252323"/>
<path d="M292.914 142.098L263.766 126.396L265.187 124.074L294.335 139.776L292.914 142.098Z" fill="#252323"/>
<path d="M257.2 122.862L149.227 64.6977L150.648 62.373L258.621 120.537L257.2 122.862Z" fill="#252323"/>
<path d="M323.238 190.595L130.61 86.7561C130.521 88.0546 130.434 89.3554 130.434 90.6291V97.2498C130.434 98.8376 130.971 99.9826 131.836 100.653L324.435 204.434C324.701 204.578 325.042 204.506 325.213 204.266L327.451 201.165L323.238 190.595Z" fill="#252323"/>
<path d="M323.117 194.703V201.638C323.117 205.281 325.843 206.755 329.205 204.934L363.713 186.247C367.075 184.424 369.798 185.901 369.798 189.541V237.526C369.798 241.166 372.524 242.643 375.886 240.822L397.84 228.931C401.201 227.111 403.925 222.684 403.925 219.044V109.143C403.925 105.503 401.201 104.027 397.84 105.847L367.789 122.123C343.117 135.485 323.117 167.98 323.117 194.703Z" fill="#252323"/>
<path d="M366.437 184.12C367.26 184.12 368.038 184.308 368.734 184.684C370.342 185.557 371.233 187.283 371.233 189.544V237.526C371.233 238.77 371.621 239.695 372.298 240.061C372.981 240.432 374.028 240.283 375.172 239.66L397.129 227.772C400.039 226.194 402.502 222.195 402.502 219.041V109.143C402.502 107.902 402.111 106.977 401.434 106.608C400.756 106.24 399.704 106.388 398.557 107.009L368.507 123.283C344.27 136.41 324.552 168.448 324.552 194.703V201.64C324.552 202.882 324.94 203.807 325.62 204.175C326.3 204.544 327.347 204.398 328.493 203.774L362.999 185.085C364.186 184.444 365.354 184.12 366.437 184.12ZM373.168 242.947C372.341 242.947 371.568 242.759 370.872 242.383C369.261 241.51 368.373 239.786 368.373 237.526V189.544C368.373 188.3 367.985 187.375 367.305 187.006C366.63 186.638 365.578 186.786 364.428 187.407L329.922 206.097C327.834 207.227 325.799 207.368 324.191 206.495C322.58 205.624 321.691 203.901 321.691 201.64V194.703C321.691 167.594 342.053 134.516 367.075 120.963L397.129 104.687C399.214 103.559 401.252 103.416 402.86 104.286C404.471 105.159 405.359 106.885 405.359 109.143V219.041C405.359 223.171 402.372 228.026 398.557 230.094L376.604 241.982C375.417 242.625 374.249 242.947 373.168 242.947Z" fill="#252323"/>
<path d="M324.222 201.642L322.023 201.635L322.05 193.194L324.246 193.199L324.222 201.642Z" fill="#01BBFF"/>
<path d="M389.64 135.448C389.324 135.391 389.039 135.346 389.039 135.346C387.726 135.22 386.055 135.876 384.273 137.802C383.273 138.881 382.517 140.157 382.098 141.527C381.415 143.75 381.689 145.385 382.509 146.298C382.509 146.298 384.162 148.541 387.845 149.347C388.019 149.384 388.214 149.312 388.309 149.171L393.79 140.998L394.025 138.055C394.033 137.946 394.007 137.852 393.927 137.773C393.506 137.347 392.095 135.913 389.64 135.448Z" fill="#01BBFF"/>
<path d="M388.698 136.355C388.055 136.355 386.781 136.669 385.107 138.48C384.2 139.454 383.525 140.609 383.156 141.814C382.639 143.495 382.713 144.922 383.351 145.635C383.464 145.778 384.772 147.47 387.643 148.234L392.718 140.666L392.911 138.26C392.37 137.748 391.231 136.803 389.436 136.459L388.859 136.363C388.811 136.358 388.756 136.355 388.698 136.355ZM387.946 150.391C387.83 150.391 387.715 150.376 387.599 150.351C383.549 149.466 381.687 146.99 381.608 146.884C380.525 145.689 380.301 143.656 381.044 141.242C381.503 139.751 382.333 138.329 383.446 137.127C385.803 134.582 387.841 134.196 389.154 134.32L389.863 134.436C391.711 134.787 393.349 135.67 394.728 137.063C395.02 137.359 395.155 137.733 395.126 138.131L394.867 141.331L389.241 149.72C388.954 150.143 388.463 150.391 387.946 150.391Z" fill="#01BBFF"/>
<path d="M395.565 140.894C395.565 143.81 393.384 147.354 390.692 148.81C388.003 150.267 385.82 149.087 385.82 146.172C385.82 143.258 388.003 139.714 390.692 138.255C393.384 136.798 395.565 137.98 395.565 140.894Z" fill="#252323"/>
<path d="M392.869 138.663C392.398 138.663 391.839 138.829 391.245 139.148C388.902 140.416 386.922 143.634 386.922 146.171C386.922 147.183 387.241 147.935 387.8 148.237C388.361 148.543 389.213 148.422 390.146 147.917C392.49 146.646 394.47 143.431 394.47 140.894C394.47 139.885 394.148 139.13 393.592 138.829C393.386 138.717 393.144 138.663 392.869 138.663ZM388.517 150.47C387.865 150.47 387.251 150.321 386.7 150.022C385.427 149.332 384.723 147.965 384.723 146.171C384.723 142.877 387.106 139.009 390.146 137.362C391.802 136.462 393.415 136.353 394.691 137.043C395.965 137.733 396.666 139.101 396.666 140.894C396.666 144.186 394.285 148.056 391.245 149.703C390.304 150.213 389.376 150.47 388.517 150.47Z" fill="#01BBFF"/>
<path d="M389.64 154.855C389.324 154.801 389.039 154.754 389.039 154.754C387.726 154.63 386.055 155.285 384.273 157.212C383.273 158.288 382.517 159.564 382.098 160.937C381.415 163.157 381.689 164.792 382.509 165.707C382.509 165.707 384.162 167.95 387.845 168.757C388.019 168.794 388.214 168.722 388.309 168.579L393.79 160.407L394.025 157.462C394.033 157.355 394.007 157.259 393.927 157.182C393.506 156.757 392.095 155.322 389.64 154.855Z" fill="#01BBFF"/>
<path d="M388.698 155.765C388.052 155.765 386.779 156.079 385.107 157.887C384.2 158.864 383.525 160.017 383.156 161.221C382.639 162.903 382.713 164.332 383.351 165.042C383.464 165.185 384.772 166.877 387.643 167.641L392.718 160.073L392.911 157.67C392.37 157.155 391.231 156.21 389.436 155.867L388.861 155.773C388.814 155.768 388.759 155.765 388.698 155.765ZM387.946 169.798C387.83 169.798 387.715 169.786 387.599 169.758C383.549 168.875 381.687 166.397 381.608 166.293C380.525 165.096 380.301 163.066 381.044 160.65C381.503 159.158 382.333 157.736 383.446 156.534C385.8 153.989 387.841 153.606 389.154 153.73L389.863 153.846C391.711 154.197 393.346 155.08 394.728 156.47C395.02 156.767 395.155 157.143 395.126 157.538L394.867 160.739L389.241 169.128C388.954 169.551 388.463 169.798 387.946 169.798Z" fill="#01BBFF"/>
<path d="M395.565 160.303C395.565 163.216 393.384 166.761 390.692 168.217C388.003 169.676 385.82 168.494 385.82 165.578C385.82 162.665 388.003 159.121 390.692 157.664C393.384 156.208 395.565 157.387 395.565 160.303Z" fill="#252323"/>
<path d="M392.869 158.072C392.398 158.072 391.839 158.236 391.245 158.557C388.902 159.826 386.922 163.041 386.922 165.581C386.922 166.59 387.241 167.344 387.8 167.646C388.361 167.95 389.213 167.831 390.146 167.324C392.49 166.056 394.47 162.838 394.47 160.303C394.47 159.292 394.148 158.537 393.592 158.236C393.386 158.127 393.144 158.072 392.869 158.072ZM388.517 169.877C387.865 169.877 387.251 169.728 386.7 169.432C385.427 168.742 384.723 167.374 384.723 165.581C384.723 162.287 387.106 158.419 390.146 156.771C391.802 155.871 393.42 155.757 394.691 156.452C395.965 157.14 396.666 158.51 396.666 160.303C396.666 163.595 394.288 167.463 391.245 169.113C390.304 169.622 389.376 169.877 388.517 169.877Z" fill="#01BBFF"/>
<path d="M74.9631 120.982C71.7492 118.813 66.297 120.065 60.7605 126.045C57.1063 129.992 54.9813 135.075 55.0815 140.303C55.1448 143.55 56.0702 145.373 58.1952 146.686L58.5459 146.916L303.666 279.288C303.869 279.396 304.127 279.33 304.24 279.139L319.661 253.596C319.775 253.406 319.706 253.166 319.506 253.06L74.9631 120.982Z" fill="#01BBFF"/>
<path d="M71.5379 121.348C68.9884 121.348 65.5268 122.939 61.8384 126.923C58.3108 130.737 56.4178 135.48 56.51 140.278C56.5707 143.449 57.5014 144.653 58.9804 145.566L59.368 145.82L303.499 277.65L317.926 253.752L74.1269 122.071C73.4414 121.606 72.5635 121.348 71.5379 121.348ZM303.871 280.68C303.552 280.68 303.233 280.601 302.948 280.445L57.8309 148.078L57.3695 147.779C54.8491 146.224 53.7233 143.985 53.6522 140.327C53.5467 134.862 55.6901 129.48 59.6791 125.164C66.4284 117.878 72.5292 117.74 75.7325 119.852L320.217 251.897C321.095 252.377 321.404 253.433 320.905 254.257L305.485 279.799C305.245 280.203 304.844 280.494 304.364 280.618C304.203 280.66 304.037 280.68 303.871 280.68Z" fill="#252323"/>
<path d="M267.247 243.434L311.382 267.313L319.663 253.596C319.776 253.406 319.708 253.166 319.507 253.06L74.9648 120.983C71.751 118.814 66.2988 120.065 60.7622 126.045C59.6576 127.237 58.7137 128.543 57.9069 129.916C57.8937 129.995 57.8858 130.079 57.8516 130.136L159.345 185.05L165.496 188.379L229.528 223.026L267.247 243.434Z" fill="white"/>
<path d="M311.915 269.15L266.531 244.594L267.959 242.271L310.847 265.477L317.926 253.752L74.2479 122.145C71.7328 120.455 67.0109 121.338 61.8381 126.923C61.0868 127.734 60.3854 128.637 59.7447 129.614L230.24 221.863L228.811 224.185L55.9219 130.64L56.6522 129.267C57.5407 127.756 58.561 126.376 59.6788 125.167C66.473 117.831 72.6028 117.74 75.7956 119.894L320.217 251.897C321.095 252.377 321.403 253.433 320.905 254.256L311.915 269.15Z" fill="#252323"/>
<path d="M235.863 226.453L261.218 240.172L235.863 226.453Z" fill="white"/>
<path d="M260.503 241.334L235.148 227.616L236.577 225.293L261.932 239.012L260.503 241.334Z" fill="#252323"/>
<path d="M58.1887 146.537L58.5393 146.77L303.662 279.139C303.865 279.248 304.123 279.183 304.237 278.993L306.891 274.598L301.01 272.615L55.6523 140.463C55.7156 143.713 56.0663 145.227 58.1887 146.537Z" fill="#252323"/>
<path d="M57.2564 142.872C57.4805 144.186 57.963 144.792 58.9754 145.417L59.3656 145.677L303.497 277.502L304.815 275.321L300.301 273.777L57.2564 142.872ZM303.869 280.534C303.55 280.534 303.236 280.455 302.951 280.302L57.8285 147.933L57.3909 147.651C54.5461 145.887 54.2851 143.57 54.2271 140.488L54.1797 138.124L301.612 271.393L308.97 273.874L305.482 279.654C305.232 280.059 304.836 280.351 304.356 280.472C304.196 280.514 304.032 280.534 303.869 280.534Z" fill="#252323"/>
<path d="M323.789 260.43C323.789 267.241 318.693 275.523 312.402 278.929C306.115 282.334 301.016 279.574 301.016 272.763C301.016 265.95 306.115 257.667 312.402 254.262C318.693 250.856 323.789 253.616 323.789 260.43Z" fill="#01BBFF"/>
<path d="M317.482 254.138C316.177 254.138 314.69 254.571 313.116 255.421C307.232 258.609 302.447 266.388 302.447 272.763C302.447 275.558 303.375 277.601 305.067 278.516C306.757 279.431 309.111 279.166 311.687 277.769C317.572 274.584 322.36 266.803 322.36 260.427C322.36 257.633 321.429 255.59 319.742 254.675C319.08 254.316 318.318 254.138 317.482 254.138ZM307.313 281.734C305.985 281.734 304.743 281.437 303.638 280.838C301.025 279.424 299.586 276.555 299.586 272.763C299.586 265.413 304.901 256.777 311.687 253.102C315.194 251.202 318.558 250.94 321.168 252.352C323.781 253.767 325.218 256.633 325.218 260.427C325.218 267.777 319.902 276.416 313.116 280.091C311.099 281.185 309.125 281.734 307.313 281.734Z" fill="#252323"/>
<path d="M56.5268 146.763C54.6443 144.727 54.5573 142.276 54.5547 142.173V140.936H56.7535V142.148C56.7535 142.148 56.8405 143.956 58.1877 145.412L56.5268 146.763Z" fill="#01BBFF"/>
<path d="M393.323 396.501C392.545 396.162 391.525 396.239 390.394 396.852L378.559 403.263C377.264 403.963 376.031 404.373 374.878 404.544L376.98 261.518L367.739 263.989V234.78L357.786 239.952V402.575C357.786 409.02 352.917 416.932 346.966 420.154L335.55 426.337C333.428 427.487 331.786 429.34 331.1 431.548C330.314 434.068 330.865 435.785 332.081 436.398L345.321 443.128C345.474 443.204 345.659 443.197 345.806 443.108L368.975 428.902L401.968 409.122L406.661 403.911C406.853 403.695 406.788 403.369 406.524 403.235L393.323 396.501Z" fill="#01BBFF"/>
<path d="M359.213 240.743V402.575C359.213 409.463 354.037 417.872 347.678 421.314L336.262 427.497C334.417 428.496 333.032 430.111 332.468 431.922C331.886 433.794 332.21 434.944 332.756 435.219L345.495 441.693L368.192 427.779L401.014 408.103L404.808 403.888L392.69 397.703C392.316 397.557 391.739 397.671 391.106 398.015L379.271 404.42C377.876 405.177 376.474 405.664 375.1 405.867L373.426 406.117L373.447 404.527L375.522 263.299L366.307 265.764V237.056L359.213 240.743ZM345.545 444.523C345.237 444.523 344.928 444.451 344.644 444.31L331.398 437.575C329.866 436.804 328.622 434.714 329.726 431.172C330.504 428.667 332.318 426.538 334.833 425.177L346.247 418.995C351.725 416.027 356.352 408.508 356.352 402.575V239.163L369.165 232.505V262.213L378.432 259.732L376.334 402.785C376.83 402.605 377.333 402.375 377.842 402.103L389.677 395.692C391.167 394.886 392.672 394.743 393.922 395.284L394.003 395.321L407.204 402.058C407.705 402.311 408.058 402.763 408.166 403.295C408.272 403.824 408.119 404.366 407.745 404.779L402.733 410.252L369.74 430.03L346.584 444.228C346.273 444.424 345.909 444.523 345.545 444.523Z" fill="#252323"/>
<path d="M368.098 420.842L354.093 413.348L354.066 413.333C352.158 416.19 349.685 418.675 346.953 420.154L335.54 426.337C334.628 426.832 334.024 427.571 333.328 428.298L346.323 435.218L350.418 437.6L359.316 434.818L366.147 430.628L368.098 420.842Z" fill="white"/>
<path d="M335.592 427.964L347.024 434.051L350.599 436.128L358.685 433.601L364.851 429.819L366.507 421.534L354.516 415.121C352.515 417.834 350.164 419.961 347.667 421.314L336.251 427.497C336.014 427.626 335.8 427.781 335.592 427.964ZM350.23 439.069L345.566 436.356L331.07 428.64L332.6 427.044C333.193 426.411 333.862 425.696 334.825 425.175L346.235 418.994C348.621 417.703 350.97 415.438 352.853 412.621L353.715 411.332L354.967 412.294L369.687 420.154L367.435 431.437L359.76 436.089L350.23 439.069Z" fill="#252323"/>
<path d="M393.326 396.456C392.548 396.118 391.528 396.194 390.397 396.808L378.562 403.218C377.267 403.918 376.033 404.328 374.884 404.499L374.164 406.718L387.681 413.412L390.898 415.715L401.971 409.077L406.664 403.866C406.856 403.651 406.79 403.324 406.527 403.191L393.326 396.456Z" fill="white"/>
<path d="M375.875 406.047L388.549 412.346L390.972 414.082L401.019 408.058L404.813 403.844L392.696 397.658C392.321 397.512 391.744 397.626 391.111 397.97L379.276 404.378C378.185 404.969 377.088 405.397 376.004 405.651L375.875 406.047ZM390.824 417.347L386.909 414.545L372.453 407.385L373.777 403.307L374.66 403.176C375.683 403.022 376.756 402.647 377.847 402.058L389.682 395.647C391.172 394.844 392.672 394.698 393.927 395.239L394.009 395.276L407.21 402.013C407.711 402.266 408.064 402.718 408.172 403.25C408.277 403.782 408.124 404.323 407.75 404.734L402.738 410.207L390.824 417.347Z" fill="#252323"/>
<path d="M381.13 404.222V241.601L371.175 246.775V409.396C371.175 415.868 366.332 423.74 360.355 426.978L348.52 433.386C346.092 434.701 344.125 437.899 344.125 440.528C344.125 443.157 346.092 444.223 348.52 442.91L371.175 430.64L381.13 425.467L403.786 413.197C406.214 411.881 408.181 408.684 408.181 406.055C408.181 403.426 406.214 402.36 403.786 403.673L391.95 410.083C385.974 413.321 381.13 410.697 381.13 404.222Z" fill="#252323"/>
<path d="M372.606 247.564V409.396C372.606 416.402 367.536 424.633 361.069 428.138L349.236 434.546C347.241 435.626 345.556 438.367 345.556 440.528C345.556 441.28 345.767 441.844 346.125 442.037C346.484 442.235 347.114 442.121 347.807 441.747L370.46 429.481L380.436 424.294L403.068 412.037C405.063 410.954 406.751 408.214 406.751 406.055C406.751 405.303 406.537 404.739 406.176 404.546C405.82 404.348 405.19 404.459 404.499 404.833L392.664 411.243C389.313 413.056 386.086 413.311 383.582 411.953C381.08 410.598 379.698 407.853 379.698 404.225V243.877L372.606 247.564ZM346.547 444.809C345.883 444.809 345.255 444.658 344.699 444.359C343.426 443.669 342.695 442.274 342.695 440.528C342.695 437.424 344.941 433.776 347.807 432.226L359.64 425.818C365.213 422.798 369.745 415.43 369.745 409.396V245.984L382.559 239.326V404.225C382.559 406.856 383.429 408.775 385.011 409.633C386.592 410.489 388.804 410.237 391.235 408.924L403.068 402.513C404.681 401.643 406.334 401.536 407.605 402.224C408.878 402.914 409.609 404.309 409.609 406.055C409.609 409.156 407.362 412.806 404.499 414.357L381.844 426.626L371.868 431.813L349.236 444.067C348.327 444.559 347.407 444.809 346.547 444.809Z" fill="#252323"/>
<path d="M370.422 401.653L357.031 393.825L358.542 391.55L371.933 399.377L370.422 401.653Z" fill="#252323"/>
<path d="M370.422 336.952L357.031 329.124L358.542 326.849L371.933 334.677L370.422 336.952Z" fill="#252323"/>
<path d="M373.209 296.834L372.109 295.049L379.584 291L380.683 292.786L373.209 296.834Z" fill="#01BBFF"/>
<path d="M384.233 200.653C383.65 200.351 382.854 200.398 381.97 200.875L315.663 236.788C313.52 237.948 311.49 240.093 310.132 242.625L283.369 292.583C282.497 294.213 282.02 295.919 282.02 297.413V308.263C282.02 309.089 282.294 309.687 282.734 310.049L282.816 310.113C282.919 310.187 306.989 322.973 309.407 324.272C309.494 324.319 309.605 324.292 309.658 324.21L318.614 310.885C318.622 310.875 318.629 310.862 318.64 310.855L390.679 243.275L403.447 230.422C403.463 230.408 403.474 230.393 403.481 230.375L411.006 215.101C411.048 215.02 411.014 214.921 410.929 214.874L384.233 200.653Z" fill="#01BBFF"/>
<path d="M383.416 201.803C383.263 201.803 383.015 201.86 382.691 202.035L316.381 237.948C314.493 238.97 312.635 240.943 311.411 243.226L284.651 293.187C283.879 294.626 283.452 296.127 283.452 297.413V308.263C283.452 308.698 283.568 308.951 283.678 309.04C283.924 309.171 292.192 313.568 298.835 317.102C303.122 319.38 307.138 321.517 309.083 322.555L317.631 309.905L389.672 242.328L402.272 229.643L409.237 215.512L383.545 201.825C383.516 201.813 383.471 201.803 383.416 201.803ZM309.508 325.637C309.228 325.637 308.946 325.57 308.688 325.427C307.676 324.885 302.759 322.269 297.428 319.434C282.089 311.278 282.081 311.27 281.954 311.181C281.024 310.422 280.594 309.43 280.594 308.263V297.413C280.594 295.717 281.129 293.788 282.096 291.982L308.857 242.022C310.344 239.249 312.566 236.92 314.952 235.626L381.262 199.716C382.535 199.023 383.869 198.937 384.924 199.478L384.942 199.486L411.639 213.709C412.375 214.107 412.659 214.943 412.309 215.66L404.463 231.37L391.729 244.188L319.743 311.716L310.871 324.925C310.565 325.385 310.043 325.637 309.508 325.637Z" fill="#252323"/>
<path d="M282.734 310.049L282.816 310.113C282.919 310.187 306.989 322.973 309.407 324.272C309.494 324.319 309.605 324.292 309.658 324.21L312.455 320.048C310.438 316.551 308.88 313.941 308.88 313.941L282.02 299.456V308.263C282.02 309.089 282.294 309.687 282.734 310.049Z" fill="#252323"/>
<path d="M283.67 309.035L283.739 309.089C283.924 309.171 292.192 313.568 298.835 317.102C303.12 319.38 307.138 321.517 309.083 322.555L310.802 319.996C309.394 317.56 308.261 315.648 307.828 314.918L283.452 301.773V308.263C283.452 308.691 283.565 308.941 283.67 309.035ZM309.508 325.637C309.228 325.637 308.946 325.57 308.688 325.427C307.676 324.885 302.759 322.269 297.428 319.434C282.089 311.278 282.081 311.27 281.954 311.181L281.799 311.06C281.023 310.422 280.594 309.43 280.594 308.263V297.139L309.935 312.962L310.13 313.286C310.13 313.286 311.691 315.903 313.713 319.41L314.114 320.1L310.871 324.925C310.565 325.385 310.043 325.637 309.508 325.637Z" fill="#252323"/>
<path d="M336.991 256.937L405.652 223.525L372.868 205.807L315.664 236.788C313.521 237.948 311.491 240.093 310.133 242.625L336.991 256.937Z" fill="white"/>
<path d="M312.072 242.116L337.02 255.411L402.679 223.463L372.871 207.353L316.379 237.948C314.806 238.799 313.253 240.313 312.072 242.116ZM336.962 258.461L308.246 243.159L308.855 242.022C310.342 239.249 312.565 236.919 314.951 235.626L372.871 204.259L408.629 223.587L336.962 258.461Z" fill="#252323"/>
<path d="M408.83 271.952L312.119 324.329C310.329 325.298 308.879 324.514 308.879 322.573V311.723C308.879 310.229 309.354 308.523 310.226 306.896L336.989 256.938C338.347 254.403 340.377 252.261 342.52 251.098L408.83 215.188C410.62 214.218 412.07 215.002 412.07 216.941V266.687C412.07 268.626 410.62 270.983 408.83 271.952Z" fill="#252323"/>
<path d="M410.279 216.113C410.129 216.113 409.873 216.17 409.546 216.348L343.237 252.258C341.349 253.282 339.49 255.256 338.267 257.538L311.504 307.496C310.734 308.938 310.31 310.439 310.31 311.723V322.573C310.31 323.07 310.455 323.332 310.544 323.384C310.634 323.426 310.948 323.416 311.406 323.169L408.115 270.792C409.462 270.062 410.643 268.143 410.643 266.687V216.941C410.643 216.447 410.498 216.184 410.408 216.135C410.382 216.12 410.34 216.113 410.279 216.113ZM310.668 326.082C310.112 326.082 309.585 325.959 309.115 325.704C308.058 325.13 307.449 323.99 307.449 322.573V311.723C307.449 310.029 307.984 308.102 308.952 306.294L335.715 256.334C337.199 253.564 339.419 251.232 341.808 249.938L408.115 214.025C409.422 213.321 410.777 213.241 411.837 213.813C412.895 214.386 413.501 215.527 413.501 216.941V266.687C413.501 269.088 411.764 271.912 409.546 273.114L408.829 271.952L409.546 273.114L312.835 325.489C312.108 325.884 311.367 326.082 310.668 326.082Z" fill="#252323"/>
<path d="M309.98 322.573H307.781V314.454H309.98V322.573Z" fill="#01BBFF"/>
<path d="M311.17 305.948L284.312 291.636L285.726 289.309L312.583 303.619L311.17 305.948Z" fill="#252323"/>
<path d="M331.279 268.507L304.422 254.197L305.832 251.867L332.69 266.177L331.279 268.507Z" fill="#252323"/>
<path d="M392.461 240.288C392.147 240.231 391.86 240.187 391.86 240.187C390.547 240.061 388.875 240.716 387.093 242.643C386.096 243.721 385.34 244.997 384.918 246.367C384.235 248.591 384.509 250.225 385.329 251.141C385.329 251.141 386.982 253.384 390.668 254.187C390.842 254.227 391.034 254.153 391.129 254.012L396.611 245.838L396.845 242.895C396.853 242.789 396.827 242.692 396.748 242.613C396.329 242.188 394.915 240.756 392.461 240.288Z" fill="#01BBFF"/>
<path d="M391.518 241.198C390.869 241.198 389.596 241.512 387.924 243.32C387.017 244.3 386.342 245.452 385.973 246.654C385.459 248.333 385.533 249.765 386.171 250.475C386.284 250.619 387.592 252.308 390.46 253.074L395.536 245.506L395.728 243.1C395.193 242.588 394.057 241.646 392.256 241.3L391.681 241.206C391.634 241.201 391.576 241.198 391.518 241.198ZM390.769 255.231C390.653 255.231 390.537 255.219 390.418 255.191C386.366 254.306 384.505 251.83 384.426 251.726C383.345 250.529 383.123 248.497 383.861 246.083C384.32 244.596 385.148 243.172 386.263 241.967C388.618 239.422 390.663 239.037 391.971 239.163L392.683 239.277C394.536 239.63 396.176 240.516 397.553 241.91C397.837 242.2 397.974 242.576 397.943 242.971L397.684 246.172L392.061 254.561C391.781 254.981 391.286 255.231 390.769 255.231Z" fill="#01BBFF"/>
<path d="M398.385 245.734C398.385 248.65 396.202 252.194 393.513 253.65C390.821 255.107 388.641 253.927 388.641 251.012C388.641 248.098 390.821 244.554 393.513 243.097C396.202 241.638 398.385 242.82 398.385 245.734Z" fill="#252323"/>
<path d="M395.69 243.503C395.215 243.503 394.656 243.669 394.063 243.991C391.719 245.259 389.739 248.474 389.739 251.012C389.739 252.023 390.061 252.778 390.617 253.079C391.171 253.381 392.027 253.265 392.963 252.758C395.307 251.489 397.287 248.274 397.287 245.734C397.287 244.725 396.968 243.971 396.409 243.669C396.206 243.558 395.964 243.503 395.69 243.503ZM391.337 255.31C390.683 255.31 390.069 255.162 389.518 254.863C388.244 254.175 387.543 252.805 387.543 251.012C387.543 247.72 389.921 243.852 392.963 242.202C394.619 241.307 396.235 241.193 397.509 241.883C398.782 242.573 399.486 243.941 399.486 245.734C399.486 249.028 397.103 252.896 394.063 254.544C393.122 255.053 392.196 255.31 391.337 255.31Z" fill="#01BBFF"/>
<path d="M379.743 258.189C379.427 258.132 379.142 258.088 379.142 258.088C377.829 257.961 376.158 258.617 374.373 260.543C373.376 261.622 372.62 262.898 372.198 264.268C371.518 266.491 371.789 268.126 372.612 269.039C372.612 269.039 374.262 271.284 377.948 272.088C378.122 272.128 378.314 272.054 378.409 271.913L383.891 263.739L384.128 260.796C384.136 260.687 384.107 260.593 384.03 260.514C383.609 260.088 382.198 258.654 379.743 258.189Z" fill="#01BBFF"/>
<path d="M378.776 259.096C377.758 259.096 376.477 259.841 375.201 261.221C374.294 262.198 373.622 263.353 373.253 264.555C372.736 266.234 372.81 267.664 373.45 268.376C373.561 268.519 374.869 270.208 377.737 270.975L382.812 263.407L383.005 261.001C382.472 260.489 381.333 259.547 379.533 259.2L378.96 259.104C378.9 259.099 378.837 259.096 378.776 259.096ZM378.048 273.132C377.93 273.132 377.814 273.119 377.695 273.092C373.645 272.207 371.781 269.731 371.705 269.625C370.621 268.428 370.4 266.397 371.141 263.983C371.597 262.497 372.425 261.073 373.54 259.868C375.897 257.323 377.94 256.937 379.251 257.061L379.96 257.177C381.813 257.531 383.453 258.416 384.829 259.811C385.117 260.101 385.251 260.474 385.219 260.872L384.964 264.072L379.338 272.461C379.058 272.882 378.565 273.132 378.048 273.132Z" fill="#01BBFF"/>
<path d="M385.666 263.635C385.666 266.551 383.486 270.095 380.794 271.552C378.102 273.008 375.922 271.829 375.922 268.913C375.922 265.999 378.102 262.455 380.794 260.996C383.486 259.539 385.666 260.722 385.666 263.635Z" fill="#252323"/>
<path d="M382.968 261.404C382.494 261.404 381.935 261.57 381.342 261.889C379 263.16 377.02 266.375 377.02 268.913C377.02 269.924 377.342 270.676 377.898 270.98C378.455 271.279 379.306 271.166 380.242 270.659C382.589 269.39 384.566 266.175 384.566 263.635C384.566 262.626 384.247 261.871 383.688 261.57C383.485 261.458 383.242 261.404 382.968 261.404ZM378.615 273.211C377.964 273.211 377.35 273.063 376.799 272.766C375.526 272.073 374.824 270.706 374.824 268.913C374.824 265.621 377.205 261.753 380.242 260.103C381.898 259.208 383.514 259.094 384.787 259.784C386.063 260.474 386.765 261.842 386.765 263.635C386.765 266.929 384.381 270.797 381.342 272.444C380.403 272.954 379.475 273.211 378.615 273.211Z" fill="#01BBFF"/>
<path d="M378.28 264.955L376.453 263.813L389.775 245.039L391.605 246.179L378.28 264.955Z" fill="#01BBFF"/>
<path d="M384.939 269.029L383.109 267.884L395.416 250.577L397.243 251.719L384.939 269.029Z" fill="#01BBFF"/>
<path d="M133.351 153.022C130.14 150.853 124.685 152.105 119.151 158.085C115.497 162.035 113.369 167.115 113.472 172.343V283.146C113.472 284.773 114.395 286.279 115.895 287.1L245.533 357.873C247.718 359.065 250.46 357.586 250.46 355.214V242.385C251.038 238.208 252.973 234.246 255.944 231.039C261.478 225.058 266.933 224.072 270.144 226.241L133.351 153.022Z" fill="#01BBFF"/>
<path d="M129.927 153.391C127.375 153.391 123.916 154.979 120.228 158.965C116.698 162.779 114.805 167.523 114.897 172.318L114.899 283.146C114.899 284.293 115.556 285.364 116.613 285.94L246.251 356.715C247.084 357.17 247.825 356.871 248.104 356.72C248.381 356.569 249.03 356.119 249.03 355.214V242.385C249.652 237.78 251.666 233.613 254.861 230.158C257.962 226.809 260.954 225.019 263.596 224.279L132.516 154.111C131.831 153.648 130.953 153.391 129.927 153.391ZM247.179 359.638C246.367 359.638 245.555 359.436 244.814 359.032L115.176 288.258C113.241 287.204 112.039 285.245 112.039 283.146V172.343C111.933 166.907 114.077 161.523 118.068 157.207C124.813 149.919 130.919 149.785 134.119 151.89L269.797 224.512C270.221 224.692 270.617 224.91 270.978 225.152L269.436 227.403L268.484 226.894C266.014 225.917 261.848 226.703 257.021 231.917C254.194 234.971 252.415 238.648 251.877 242.556L251.89 355.214C251.89 356.812 251.007 358.244 249.53 359.042C248.795 359.441 247.988 359.638 247.179 359.638Z" fill="#252323"/>
<path d="M219.118 343.392V228.882C219.018 223.653 221.145 218.571 224.799 214.624C230.333 208.644 235.785 207.392 238.999 209.561L158.447 166.476C155.234 164.307 149.781 165.559 144.245 171.539C140.591 175.488 138.466 180.568 138.566 185.797V299.553L219.118 343.392Z" fill="#252323"/>
<path d="M139.997 298.781L217.691 341.065V228.879C217.588 223.441 219.729 218.059 223.723 213.746C226.908 210.301 229.953 208.453 232.613 207.687L157.74 167.639C155.23 165.957 150.501 166.827 145.325 172.419C141.795 176.233 139.902 180.974 139.994 185.772L139.997 298.781ZM220.551 345.719L137.136 300.324V185.797C137.034 180.361 139.174 174.977 143.166 170.661C149.958 163.328 156.09 163.236 159.283 165.388L238.725 207.87C239.125 208.04 239.497 208.243 239.837 208.471L238.295 210.724L237.417 210.254C234.857 209.247 230.554 210.454 225.88 215.504C222.35 219.316 220.456 224.057 220.549 228.857L220.551 345.719Z" fill="#252323"/>
<path d="M227.6 204.548L180.719 179.033L181.823 177.25L228.705 202.765L227.6 204.548Z" fill="#01BBFF"/>
<path d="M125.605 178.142L237.452 238.384L125.605 178.142Z" fill="#01BBFF"/>
<path d="M236.745 239.546L124.898 179.302L126.32 176.98L238.166 237.221L236.745 239.546Z" fill="#252323"/>
<path d="M199.25 28.1371L200.105 28.5996C200.903 29.0324 201.658 29.2698 202.372 29.3143C203.081 29.3589 203.74 29.2178 204.344 28.8914C204.95 28.5624 205.235 28.2286 205.193 27.8923C205.151 27.5534 204.777 27.1923 204.067 26.809L202.886 26.1684L199.25 28.1371ZM207.054 30.2615C205.739 30.9738 204.32 31.2978 202.799 31.2286C201.275 31.1593 199.757 30.7166 198.238 29.893L197.123 29.2896L192.77 31.649L190.176 30.2418L202.42 23.6112L206.329 25.7307C207.814 26.5345 208.623 27.3185 208.758 28.0827C208.889 28.8494 208.323 29.574 207.054 30.2615Z" fill="#252323"/>
<path d="M210.346 33.7932L211.187 34.2458C212.007 34.691 212.747 34.9457 213.414 35.0076C214.076 35.0719 214.701 34.9457 215.289 34.6267C215.869 34.3126 216.085 33.9837 215.93 33.6325C215.774 33.2813 215.276 32.8806 214.445 32.428L213.654 32.0002L210.346 33.7932ZM208.234 34.9358L203.538 37.4807L200.941 36.0735L213.185 29.4429L216.755 31.3744C218.416 32.2772 219.346 33.1082 219.539 33.8699C219.731 34.6292 219.209 35.3439 217.978 36.0116C217.256 36.3999 216.417 36.6399 215.46 36.7289C214.503 36.8204 213.501 36.7536 212.457 36.5335C211.545 39.0215 210.968 40.634 210.725 41.3735L207.844 39.8105L209.618 35.6852L208.234 34.9358Z" fill="#252323"/>
<path d="M212.266 42.2072L224.507 35.5766L227.106 36.9814L214.863 43.6119L212.266 42.2072Z" fill="#252323"/>
<path d="M228.808 51.1646L225.509 49.379L229.446 41.4772L229.369 41.4352C227.84 42.3799 226.725 43.0427 226.029 43.4186L220.268 46.5398L217.945 45.2809L230.189 38.6529L233.464 40.4236L229.612 48.271L229.672 48.3031C231.18 47.3955 232.261 46.7648 232.92 46.4087L238.715 43.2678L241.049 44.534L228.808 51.1646Z" fill="#252323"/>
<path d="M236.613 55.3915L234.016 53.9868L244.098 48.526L240.773 46.7255L242.932 45.5557L252.181 50.5614L250.019 51.7312L246.694 49.9307L236.613 55.3915Z" fill="#252323"/>
<path d="M165.064 284.595L165.051 311.708L217.377 340.187V331.137L175.639 308.505L175.649 290.335L165.064 284.595Z" fill="#01BBFF"/>
<path d="M217.367 268.898L201.725 260.415L165.094 215.658L165.086 232.797L189.78 261.839L165.068 263.991L165.055 281.234L202.126 276.441L217.367 284.704V268.898Z" fill="#01BBFF"/>
<path d="M143.97 32.864C151.906 34.699 151.906 40.4838 143.97 42.3213C141.782 42.8283 139.462 42.8283 137.276 42.3213C129.34 40.4838 129.34 34.7015 137.276 32.864C139.462 32.357 141.782 32.357 143.97 32.864Z" fill="#01BBFF"/>
<path d="M140.624 33.826C139.614 33.826 138.601 33.9373 137.618 34.1649C134.665 34.8499 132.754 36.1953 132.754 37.5927C132.754 38.99 134.665 40.3354 137.618 41.0205C139.585 41.4756 141.662 41.4756 143.629 41.0205C146.585 40.3354 148.493 38.99 148.493 37.5927C148.493 36.1953 146.585 34.8499 143.632 34.1649C142.646 33.9373 141.636 33.826 140.624 33.826ZM140.624 44.0402C139.384 44.0402 138.14 43.9017 136.935 43.6223C132.593 42.6182 129.898 40.3082 129.898 37.5927C129.898 34.8771 132.593 32.5672 136.935 31.5631C139.35 31.0042 141.902 31.0042 144.315 31.5631C148.654 32.5672 151.351 34.8771 151.351 37.5927C151.351 40.3082 148.654 42.6182 144.315 43.6223C143.107 43.9017 141.868 44.0402 140.624 44.0402Z" fill="#252323"/>
<path d="M140.626 19.9912C137.312 19.9912 134.625 22.5113 134.625 25.6201V33.5961C134.625 34.8277 135.904 36.0569 138.466 36.648C139.877 36.9769 141.374 36.9769 142.787 36.648C145.347 36.0569 146.629 34.8277 146.629 33.5961V25.6201C146.629 22.5113 143.942 19.9912 140.626 19.9912Z" fill="white"/>
<path d="M140.625 21.3317C138.104 21.3317 136.053 23.2558 136.053 25.6202V33.5961C136.053 34.1501 136.997 34.9292 138.808 35.3472C139.997 35.6242 141.255 35.6242 142.444 35.3472C144.253 34.9292 145.197 34.1501 145.197 33.5961V25.6202C145.197 23.2558 143.148 21.3317 140.625 21.3317ZM140.625 38.2333C139.784 38.2333 138.94 38.1394 138.12 37.9489C134.487 37.1081 133.195 35.1493 133.195 33.5961V25.6202C133.195 21.7769 136.528 18.6508 140.625 18.6508C144.722 18.6508 148.057 21.7769 148.057 25.6202V33.5961C148.057 35.1493 146.763 37.1105 143.127 37.9489C142.31 38.1394 141.466 38.2333 140.625 38.2333Z" fill="#252323"/>
<path d="M140.625 38.2333C139.784 38.2333 138.94 38.1394 138.12 37.9489C134.487 37.1105 133.195 35.1493 133.195 33.5961C133.195 32.043 134.487 30.0842 138.12 29.2433L138.808 31.8451C136.997 32.2631 136.051 33.0446 136.051 33.5961C136.051 34.1501 136.997 34.9292 138.806 35.3472C139.997 35.6217 141.255 35.6242 142.444 35.3472C144.253 34.9292 145.199 34.1501 145.199 33.5961C145.199 33.0446 144.253 32.2631 142.444 31.8451L143.13 29.2433C146.763 30.0842 148.057 32.043 148.057 33.5961C148.057 35.1493 146.763 37.1105 143.127 37.9489C142.31 38.1394 141.466 38.2333 140.625 38.2333Z" fill="#252323"/>
<path d="M371.072 95.0636C379.007 96.9011 379.007 102.686 371.072 104.521C368.883 105.028 366.566 105.028 364.378 104.521C356.442 102.686 356.442 96.9011 364.378 95.0636C366.566 94.5566 368.883 94.5566 371.072 95.0636Z" fill="#01BBFF"/>
<path d="M367.728 96.023C366.715 96.023 365.703 96.1368 364.72 96.3643C361.767 97.0494 359.855 98.3948 359.855 99.7922C359.855 101.189 361.767 102.535 364.72 103.22C366.692 103.677 368.772 103.675 370.733 103.22C373.686 102.535 375.598 101.189 375.598 99.7922C375.598 98.3948 373.686 97.0494 370.733 96.3643C369.75 96.1368 368.74 96.023 367.728 96.023ZM367.725 106.242C366.486 106.242 365.244 106.101 364.037 105.822C359.694 104.818 357 102.508 357 99.7922C357 97.0766 359.694 94.7666 364.037 93.7625C366.454 93.2036 369.006 93.2061 371.416 93.7625C375.758 94.7666 378.453 97.0766 378.453 99.7922C378.453 102.508 375.758 104.818 371.419 105.822C370.209 106.101 368.969 106.242 367.725 106.242Z" fill="#252323"/>
<path d="M367.726 82.1908C364.409 82.1908 361.723 84.711 361.723 87.8198V95.7957C361.723 97.0274 363.004 98.2566 365.564 98.8476C366.977 99.1766 368.472 99.1766 369.885 98.8476C372.445 98.2566 373.726 97.0274 373.726 95.7957V87.8198C373.726 84.711 371.04 82.1908 367.726 82.1908Z" fill="white"/>
<path d="M367.726 83.5314C365.206 83.5314 363.155 85.4555 363.155 87.8198V95.7958C363.155 96.3498 364.101 97.1288 365.91 97.5493C367.099 97.8238 368.359 97.8238 369.548 97.5468C371.354 97.1288 372.301 96.3498 372.301 95.7958V87.8198C372.301 85.4555 370.249 83.5314 367.726 83.5314ZM367.726 100.433C366.885 100.433 366.044 100.339 365.227 100.151C361.591 99.3102 360.297 97.3514 360.297 95.7958V87.8198C360.297 83.9765 363.629 80.8504 367.726 80.8504C371.823 80.8504 375.161 83.9765 375.161 87.8198V95.7958C375.161 97.3514 373.864 99.3102 370.231 100.151C369.411 100.339 368.57 100.433 367.726 100.433Z" fill="#252323"/>
<path d="M367.726 100.433C366.885 100.433 366.044 100.339 365.227 100.151C361.591 99.3102 360.297 97.3514 360.297 95.7958C360.297 94.2426 361.591 92.2839 365.224 91.443L365.91 94.0448C364.101 94.4628 363.155 95.2443 363.155 95.7958C363.155 96.3498 364.101 97.1288 365.91 97.5493C367.099 97.8238 368.359 97.8238 369.548 97.5468C371.354 97.1288 372.301 96.3498 372.301 95.7958C372.301 95.2443 371.354 94.4628 369.546 94.0448L370.231 91.443C373.864 92.2839 375.159 94.2426 375.159 95.7958C375.159 97.3514 373.864 99.3102 370.231 100.151C369.411 100.339 368.57 100.433 367.726 100.433Z" fill="#252323"/>
<path fill-rule="evenodd" clip-rule="evenodd" d="M122.164 181.576L243.958 247.538L243.958 379.463L122.164 313.5L122.164 181.576Z" fill="#252323"/>
<path d="M177.823 235.881L179.211 236.633L179.211 270.791L177.219 269.712L177.219 235.554L177.823 235.881Z" fill="#EC268F"/>
<path d="M138.922 248.314L138.922 214.816L141.329 216.119L154.214 253.979L166.949 229.995L169.356 231.298L169.356 265.456L167.363 264.377L167.363 234.404L154.926 257.467L154.263 257.108L154.224 257.187L154.18 257.063L153.357 256.617L140.914 220.079L140.914 250.053L138.922 248.973L138.922 248.314Z" fill="#00AFEF"/>
<path d="M191.461 238.441L191.461 236.958L206.851 245.293L206.851 247.435L191.461 239.1L191.461 238.441Z" fill="#FFF212"/>
<path d="M177.168 230.815L177.168 229.216L179.253 230.346L179.253 232.599L177.168 231.47L177.168 230.815Z" fill="#EC268F"/>
<path d="M205.342 307.435L206.492 308.675L194.839 330.031C194.128 331.313 193.334 332.128 192.462 332.479C191.541 332.851 190.542 332.717 189.461 332.078C188.876 331.819 188.272 331.424 187.643 330.904C187.025 330.384 186.377 329.727 185.7 328.938L185.208 328.36L186.041 327.012L186.572 327.569C187.215 328.239 187.78 328.772 188.262 329.165C188.705 329.521 189.071 329.756 189.363 329.872L189.446 329.907C190.123 330.273 190.742 330.329 191.302 330.073C191.911 329.79 192.462 329.144 192.949 328.141L194.25 325.717L184.594 296.651L186.304 296.648L195.394 324.052L204.782 306.825L205.342 307.435Z" fill="#FEFEFE"/>
<path d="M164.888 306.078L164.888 318.77L162.891 317.688L162.891 284.374L164.888 285.456L164.888 290.179C165.575 289.327 166.379 288.754 167.309 288.477C168.844 288.005 170.7 288.329 172.863 289.443L172.917 289.472C176.01 291.385 178.383 293.91 180.034 297.042C181.652 300.113 182.543 303.746 182.704 307.923L182.704 307.96C182.65 312.089 181.827 314.799 180.229 316.081C178.597 317.387 176.205 317.215 173.043 315.561L173.024 315.551C170.807 314.292 168.917 312.588 167.353 310.448C166.403 309.142 165.585 307.691 164.888 306.078ZM173.068 313.416C175.562 314.709 177.438 314.838 178.695 313.799C179.986 312.73 180.658 310.424 180.711 306.891C180.56 303.284 179.82 300.208 178.495 297.654C177.209 295.174 175.333 293.155 172.878 291.609C170.369 290.472 168.454 290.432 167.139 291.509C165.794 292.612 165.039 294.867 164.888 298.295C165.093 301.799 165.877 304.809 167.246 307.329C168.595 309.801 170.534 311.833 173.068 313.416Z" fill="#FEFEFE"/>
<path d="M131.008 291.809L131.008 258.306C134.058 259.958 137.102 261.596 140.152 263.264C145.647 266.303 149.803 269.973 152.609 274.274C155.43 278.598 156.867 283.509 156.916 288.997L156.916 289.572C156.94 290.308 156.945 291.013 156.921 291.685C156.77 296.311 155.44 299.189 152.94 300.321C150.456 301.445 146.831 300.822 142.076 298.458C141.234 298.039 140.352 297.561 139.431 297.026L131.008 292.469L131.008 291.809ZM133.005 261.551L133.005 291.382L139.451 294.873C144.868 298.028 148.853 299.073 151.416 298.007C153.954 296.954 155.123 293.794 154.923 288.535L154.923 288.509C154.923 283.453 153.647 278.984 151.099 275.113C148.531 271.211 144.639 267.852 139.431 265.031L133.005 261.551Z" fill="#FEFEFE"/>
<path d="M211.406 254.725L211.401 323.165L232.53 312.551L234.016 314.965L220.843 321.413L235.117 347.825L233.514 348.249L219.342 322.015L211.401 326.009L211.401 335.698L209.409 334.619C209.409 308.514 209.404 282.401 209.409 256.298L189.069 276.131L186.906 274.96L186.906 240.802L188.738 241.794L188.738 272.633L209.078 252.81L211.406 254.071L211.406 254.725Z" fill="#FFF212"/>
</svg>
