<svg xmlns="http://www.w3.org/2000/svg" fill="none" viewBox="0 0 260 258"><path fill="#252323" d="M186.421 248.885l-1.54.834c-.158.085-.433.074-.616-.024l-1.453-.786c-.181-.099-.202-.249-.043-.334l1.541-.835c.157-.085.432-.074.615.025l1.452.785c.182.099.202.248.044.335M190.005 250.825l-1.54.836c-.158.085-.434.074-.616-.025l-1.453-.786c-.183-.099-.202-.248-.044-.334l1.54-.835c.159-.085.435-.073.617.024l1.452.787c.183.099.202.248.044.333M186.229 252.872l-1.541.834c-.158.085-.434.075-.616-.024l-1.452-.786c-.182-.1-.203-.249-.045-.334l1.541-.834c.159-.087.434-.075.617.023l1.451.787c.183.098.202.249.045.334M193.591 252.767l-1.54.834c-.159.087-.435.075-.617-.024l-1.452-.786c-.183-.098-.202-.247-.044-.334l1.54-.834c.158-.085.434-.075.616.024l1.453.787c.183.099.202.248.044.333M189.814 254.814l-1.541.834c-.157.085-.434.073-.617-.024l-1.451-.787c-.183-.099-.203-.248-.045-.333l1.541-.835c.157-.086.434-.075.617.024l1.451.785c.183.1.202.249.045.336M197.384 254.822l-1.541.834c-.157.087-.434.075-.617-.024l-1.451-.786c-.183-.098-.202-.249-.045-.334l1.541-.834c.158-.085.434-.075.616.024l1.452.786c.183.1.203.249.045.334M193.608 256.869l-1.541.833c-.157.086-.434.074-.617-.023l-1.451-.787c-.183-.099-.203-.249-.045-.334l1.541-.835c.157-.085.434-.074.617.025l1.451.785c.183.099.202.249.045.336zM201.161 252.777l-1.54.834c-.159.085-.434.075-.617-.024l-1.452-.786c-.182-.099-.202-.249-.044-.334l1.54-.834c.158-.087.435-.075.616.023l1.453.787c.181.098.202.247.044.334M204.937 250.73l-1.54.834c-.158.087-.433.076-.616-.023l-1.451-.786c-.183-.099-.202-.248-.045-.334l1.541-.834c.157-.086.434-.074.615.023l1.453.787c.182.099.203.248.043.333M208.714 248.685l-1.541.835c-.157.085-.433.075-.615-.024l-1.452-.787c-.183-.099-.202-.248-.044-.333l1.54-.834c.158-.087.433-.076.616.023l1.453.787c.181.099.202.248.043.333M212.491 246.641l-1.541.834c-.157.085-.432.074-.615-.024l-1.453-.787c-.182-.099-.202-.248-.043-.333l1.54-.836c.158-.085.433-.074.616.025l1.451.786c.183.099.202.248.045.335zM216.268 244.594l-1.54.834c-.158.087-.435.076-.616-.023l-1.453-.787c-.181-.098-.202-.248-.043-.334l1.541-.834c.157-.085.432-.075.615.024l1.452.787c.183.099.202.248.044.333zM220.046 242.549l-1.541.834c-.157.086-.434.076-.615-.023l-1.453-.787c-.182-.099-.202-.248-.045-.333l1.541-.835c.159-.086.434-.075.617.024l1.451.787c.183.098.203.247.045.333M223.823 240.503l-1.541.834c-.157.086-.434.075-.615-.024l-1.453-.785c-.183-.099-.203-.248-.045-.335l1.541-.834c.157-.085.434-.074.617.024l1.451.786c.183.099.202.249.045.334M227.599 238.458l-1.541.834c-.157.085-.434.075-.617-.024l-1.451-.786c-.183-.099-.202-.249-.045-.334l1.541-.834c.158-.086.434-.075.617.024l1.451.787c.183.099.203.248.045.333zM231.376 236.413l-1.54.834c-.159.085-.434.074-.617-.025l-1.452-.785c-.182-.099-.202-.249-.044-.334l1.54-.835c.158-.085.435-.074.616.025l1.453.785c.183.099.202.248.044.335M200.968 256.764l-1.54.833c-.158.086-.433.076-.616-.023l-1.451-.787c-.183-.099-.203-.248-.045-.333l1.541-.834c.157-.087.434-.076.615.023l1.453.787c.182.099.202.248.043.334zM204.745 254.719l-1.54.833c-.158.086-.433.074-.616-.023l-1.453-.787c-.181-.099-.202-.248-.043-.333l1.541-.836c.157-.085.433-.074.615.025l1.453.786c.182.099.202.248.043.335zM208.522 252.672l-1.541.834c-.157.087-.434.076-.616-.024l-1.452-.786c-.182-.098-.203-.248-.043-.333l1.54-.835c.158-.085.433-.075.616.024l1.451.787c.183.099.202.248.045.333zM212.299 250.627l-1.54.834c-.158.085-.434.076-.616-.024l-1.453-.786c-.181-.099-.202-.248-.044-.333l1.54-.835c.159-.086.434-.075.617.024l1.452.787c.183.098.202.247.044.333M216.076 248.581l-1.54.836c-.158.085-.435.073-.616-.026l-1.453-.785c-.183-.099-.202-.248-.044-.335l1.54-.834c.159-.085.434-.074.617.024l1.452.787c.183.099.202.248.044.333M219.854 246.536l-1.541.834c-.158.085-.434.075-.617-.024l-1.451-.786c-.183-.099-.203-.249-.045-.334l1.541-.834c.157-.086.434-.075.617.024l1.451.786c.183.1.202.249.045.334zM223.63 244.491l-1.541.834c-.157.085-.434.074-.617-.024l-1.451-.786c-.183-.099-.202-.249-.045-.334l1.541-.835c.158-.085.434-.074.616.025l1.452.785c.183.099.203.248.045.335M227.407 242.444l-1.54.835c-.159.086-.434.075-.617-.024l-1.452-.787c-.183-.097-.202-.248-.044-.333l1.54-.834c.158-.085.434-.076.616.023l1.453.787c.181.099.202.248.044.333M231.183 240.4l-1.54.834c-.158.085-.433.075-.616-.024l-1.451-.787c-.183-.099-.202-.248-.045-.333l1.541-.834c.157-.087.434-.076.615.024l1.453.786c.182.098.202.247.043.334zM28.24 162.979l-1.54.836c-.157.085-.434.074-.615-.025l-1.453-.785c-.182-.1-.203-.249-.045-.335l1.54-.834c.16-.086.435-.074.618.023l1.451.787c.183.099.202.248.045.333M31.826 164.921l-1.54.835c-.158.086-.435.075-.618-.024l-1.451-.787c-.183-.098-.202-.247-.045-.333l1.54-.834c.159-.086.435-.076.616.023l1.453.787c.183.099.203.248.045.333M28.049 166.968l-1.541.834c-.158.085-.434.074-.616-.024l-1.453-.787c-.182-.099-.202-.248-.044-.333l1.54-.836c.158-.085.435-.074.618.025l1.45.786c.184.099.203.248.046.335M35.41 166.863l-1.541.834c-.158.087-.433.076-.616-.024l-1.451-.786c-.183-.099-.203-.249-.045-.334l1.54-.834c.158-.085.435-.075.616.024l1.453.787c.181.099.202.248.043.333M31.633 168.908l-1.54.836c-.16.085-.435.073-.617-.026l-1.452-.785c-.183-.099-.202-.248-.044-.335l1.54-.834c.158-.085.434-.074.616.024l1.453.787c.181.099.202.248.044.333M39.203 168.918l-1.54.834c-.16.085-.434.075-.617-.024l-1.452-.787c-.183-.099-.202-.248-.044-.333l1.54-.834c.158-.087.435-.075.616.024l1.453.786c.181.099.202.249.044.334M35.427 170.963l-1.54.834c-.16.086-.435.075-.618-.024l-1.45-.785c-.184-.099-.203-.248-.046-.335l1.541-.834c.158-.085.434-.074.616.024l1.453.786c.182.099.202.249.044.334M42.98 166.873l-1.541.834c-.158.085-.433.074-.616-.024l-1.451-.786c-.183-.1-.202-.249-.045-.334l1.54-.835c.158-.086.435-.074.616.025l1.453.785c.182.099.203.248.043.335M46.757 164.826l-1.541.835c-.158.086-.433.075-.616-.024l-1.453-.787c-.181-.098-.202-.248-.043-.333l1.54-.835c.159-.085.434-.075.617.024l1.452.787c.182.099.203.248.044.333zM50.534 162.782l-1.54.834c-.158.085-.435.075-.616-.024l-1.453-.787c-.182-.099-.202-.248-.043-.333l1.54-.834c.158-.087.433-.076.616.023l1.451.787c.183.098.203.247.045.334M54.31 160.735l-1.54.834c-.158.087-.434.076-.616-.023l-1.453-.786c-.181-.099-.202-.248-.044-.335l1.54-.834c.16-.085.435-.074.617.024l1.452.787c.183.099.202.248.044.333M58.088 158.69l-1.54.834c-.158.085-.434.076-.616-.023l-1.453-.787c-.182-.099-.202-.248-.044-.333l1.54-.835c.16-.086.434-.075.617.024l1.452.787c.183.099.202.248.044.333M61.865 156.645l-1.54.834c-.159.085-.435.074-.618-.024l-1.451-.786c-.183-.099-.203-.249-.045-.335l1.54-.834c.158-.085.435-.074.618.025l1.451.785c.183.099.202.249.045.335zM42.787 170.859l-1.54.835c-.158.085-.433.075-.616-.024l-1.453-.787c-.181-.099-.202-.248-.043-.333l1.54-.834c.158-.087.434-.076.616.023l1.453.787c.182.098.201.247.043.333zM46.565 168.813l-1.54.836c-.158.085-.435.074-.616-.025l-1.453-.786c-.182-.099-.203-.248-.043-.334l1.54-.835c.158-.085.433-.074.616.024l1.451.787c.183.099.202.248.045.333M50.343 166.768l-1.541.834c-.158.085-.434.076-.616-.023l-1.453-.787c-.181-.099-.202-.248-.044-.334l1.54-.834c.16-.086.435-.075.617.024l1.452.787c.183.099.202.248.044.333M54.12 164.723l-1.541.834c-.158.085-.434.074-.616-.023l-1.453-.787c-.183-.099-.202-.248-.044-.334l1.54-.835c.16-.085.434-.074.617.025l1.452.785c.183.099.202.249.044.335M57.897 162.677l-1.54.834c-.158.086-.435.075-.618-.024l-1.451-.787c-.183-.097-.202-.248-.045-.333l1.54-.834c.158-.085.435-.075.618.024l1.451.786c.183.099.202.249.045.334zM61.673 160.632l-1.54.834c-.16.085-.435.075-.618-.024l-1.451-.786c-.183-.099-.202-.249-.045-.334l1.541-.834c.158-.086.434-.075.616.024l1.453.787c.182.097.202.246.044.333M157.071 219.003l-1.541.834c-.159.086-.434.075-.617-.024l-1.451-.787c-.183-.099-.203-.248-.045-.333l1.54-.834c.158-.085.435-.076.616.023l1.453.787c.181.099.202.248.045.334M160.654 220.944l-1.54.835c-.158.085-.433.075-.616-.024l-1.453-.787c-.181-.099-.202-.248-.043-.333l1.541-.834c.157-.087.433-.076.615.023l1.453.787c.182.098.201.248.043.333zM156.877 222.989l-1.54.835c-.158.086-.433.075-.616-.024l-1.451-.787c-.183-.097-.202-.247-.045-.333l1.541-.834c.157-.085.434-.076.615.023l1.453.787c.182.099.202.248.043.333zM164.239 222.886l-1.54.834c-.158.086-.435.074-.616-.023l-1.453-.787c-.181-.099-.202-.248-.044-.333l1.54-.835c.159-.086.434-.075.617.024l1.452.786c.183.099.202.248.044.334M160.463 224.931l-1.541.834c-.158.087-.434.076-.615-.023l-1.453-.787c-.182-.099-.203-.248-.043-.334l1.54-.834c.158-.085.433-.075.616.024l1.451.787c.183.099.202.248.045.333zM168.033 224.941l-1.54.834c-.158.085-.435.074-.616-.024l-1.453-.786c-.181-.099-.202-.249-.044-.334l1.54-.835c.159-.085.434-.074.617.025l1.452.785c.183.099.202.248.044.335M164.257 226.986l-1.541.834c-.157.085-.434.076-.616-.023l-1.452-.787c-.182-.099-.203-.249-.043-.334l1.54-.834c.158-.086.433-.075.616.024l1.451.787c.183.099.202.248.045.333zM171.81 222.895l-1.541.834c-.157.086-.434.075-.615-.024l-1.453-.787c-.183-.097-.202-.248-.045-.333l1.541-.834c.159-.085.434-.075.617.024l1.451.786c.183.099.203.249.045.334M175.588 220.85l-1.541.834c-.158.085-.434.075-.617-.024l-1.451-.787c-.183-.099-.203-.248-.045-.333l1.541-.834c.157-.087.434-.076.617.023l1.451.787c.183.098.202.247.045.334zM179.365 218.803l-1.541.836c-.157.085-.434.074-.617-.025l-1.451-.786c-.183-.099-.202-.248-.045-.335l1.541-.834c.157-.085.434-.074.616.024l1.452.787c.183.099.203.248.045.333M183.141 216.758l-1.54.834c-.159.086-.434.076-.617-.023l-1.452-.787c-.183-.099-.202-.248-.044-.333l1.54-.835c.158-.086.434-.075.616.024l1.453.787c.183.099.202.248.044.333M171.618 226.881l-1.54.836c-.158.085-.434.074-.617-.025l-1.452-.786c-.182-.099-.202-.248-.044-.334l1.54-.835c.158-.085.435-.073.617.024l1.452.787c.183.099.202.248.044.333zM175.396 224.836l-1.541.835c-.159.085-.434.075-.617-.024l-1.451-.787c-.183-.099-.202-.248-.045-.333l1.541-.834c.157-.085.434-.076.615.023l1.453.787c.183.099.202.248.045.333M179.172 222.791l-1.54.834c-.16.086-.435.074-.618-.023l-1.451-.787c-.183-.099-.202-.248-.044-.333l1.54-.836c.158-.085.434-.074.616.025l1.453.785c.181.1.202.249.044.335M182.948 220.745l-1.54.834c-.158.087-.433.076-.616-.023l-1.451-.787c-.183-.098-.203-.249-.045-.334l1.541-.834c.157-.085.434-.075.615.024l1.453.787c.181.099.202.248.043.333z"/><path fill="#01BBFF" d="M254.733 82.715c.07-.208-.03-.425-.235-.528l-12.408-6.282c-2.016-.814-4.522-.602-7.246.872l-6.497 3.52c-1.763.955-3.194 3.519-3.194 5.726v38.808c0 1.161.402 1.978 1.034 2.367l11.921 6.097a.498.498 0 0 0 .643-.156c1.519-2.321 9.796-15.001 9.575-15.213-.225-.213 5.515-32.505 6.407-35.21"/><path fill="#252323" d="M239.611 76.181c-1.34 0-2.823.417-4.362 1.252l-6.497 3.518c-1.513.82-2.792 3.142-2.792 5.072v38.808c0 .829.25 1.477.669 1.735l11.597 5.929c4.325-6.611 9.039-13.966 9.326-14.734l.019.007c.03-1.195.61-4.767 2.746-16.638 1.383-7.695 3.015-16.36 3.575-18.392l-12.183-6.168a5.597 5.597 0 0 0-2.098-.389zm-1.267 57.928a1.37 1.37 0 0 1-.622-.15l-11.921-6.097c-.956-.587-1.453-1.651-1.453-3.031V86.023c0-2.486 1.581-5.289 3.598-6.382l6.496-3.518c2.859-1.549 5.612-1.863 7.967-.913l12.472 6.311c.543.275.805.872.623 1.419-.891 2.696-6.358 33.75-6.378 34.94h-.015c-.099.89-1.811 3.639-9.673 15.654-.239.37-.66.575-1.094.575"/><path fill="#fff" d="M239.903 94.363l12.731-6.895-18.764-10.162-5.523 2.99c-1.763.956-3.194 3.52-3.194 5.726v.35l14.75 7.99"/><path fill="#252323" d="M225.96 85.937l13.945 7.553 11.119-6.022-17.153-9.29-5.119 2.772c-1.491.808-2.754 3.075-2.792 4.987zm13.945 9.297l-15.557-8.425v-.787c0-2.485 1.581-5.288 3.598-6.381l5.925-3.209 20.375 11.036-14.341 7.766"/><path fill="#252323" d="M255.998 125.061l-15.346 8.311c-1.763.956-3.194-.059-3.194-2.265v-38.81c0-2.207 1.431-4.77 3.194-5.726l6.497-3.518c6.652-3.603 12.044.221 12.044 8.54v27.742c0 2.207-1.429 4.77-3.195 5.726"/><path fill="#252323" d="M251.936 82.459c-1.359 0-2.851.418-4.382 1.248l-6.499 3.52c-1.514.82-2.791 3.14-2.791 5.07v38.81c0 .869.262 1.53.7 1.769.412.223.925.036 1.285-.158l15.346-8.312c1.514-.821 2.793-3.143 2.793-5.071V91.594c0-4.097-1.371-7.188-3.761-8.483-.806-.436-1.714-.653-2.691-.653zm-12.554 52.03c-.434 0-.847-.101-1.224-.304-.957-.52-1.507-1.641-1.507-3.078v-38.81c0-2.484 1.58-5.287 3.598-6.38l6.499-3.52c3.155-1.709 6.241-1.92 8.685-.596 2.903 1.573 4.567 5.14 4.567 9.793v27.741c0 2.484-1.581 5.287-3.599 6.38l-15.346 8.311c-.569.309-1.136.463-1.673.463"/><path fill="#01BBFF" d="M208.578 133.293V98.612l-44.72-4.665 1.753 23.247 36.925 15.228 6.042.871"/><path fill="#252323" d="M202.764 131.69l5.008.722V99.288L164.73 94.8l1.652 21.886 36.382 15.005zm6.621 2.484l-7.173-1.06-37.369-15.412-1.856-24.606 46.398 4.84v36.238"/><path fill="#252323" d="M201.809 113.603l-15.196-8.368.817-1.304 15.194 8.368-.815 1.304"/><path fill="#01BBFF" d="M63.584 137.931c-.44-.19-1.016-.147-1.652.199l-6.675 3.614c-.73.397-1.428.627-2.076.724l1.183-80.671-5.21 1.393V46.716l-5.615 2.918v91.723c0 3.636-2.745 8.099-6.103 9.916l-6.438 3.488c-1.198.648-2.123 1.692-2.511 2.937-.442 1.423-.13 2.391.555 2.736l7.468 3.797c.086.043.19.039.272-.011l13.068-8.014 18.61-11.156 2.645-2.939c.11-.121.073-.305-.076-.382l-7.445-3.798"/><path fill="#252323" d="M44.345 50.08v91.277c0 3.886-2.919 8.629-6.505 10.571l-6.438 3.487c-1.042.563-1.822 1.473-2.14 2.495-.33 1.055-.147 1.704.162 1.858l7.187 3.654 12.8-7.848 18.513-11.098 2.141-2.379-6.836-3.487c-.215-.081-.538-.019-.894.174L55.66 142.4c-.786.424-1.576.699-2.35.815l-.947.142.012-.898 1.169-79.656-5.197 1.389V48l-4.002 2.08zm-7.709 114.936a1.14 1.14 0 0 1-.507-.118l-7.47-3.799c-.863-.435-1.566-1.614-.945-3.613.44-1.413 1.463-2.612 2.882-3.381l6.437-3.487c3.09-1.673 5.7-5.913 5.7-9.261V49.189l7.227-3.755V62.19l5.226-1.398-1.184 80.686c.281-.102.565-.232.85-.387l6.677-3.615c.84-.454 1.69-.536 2.394-.229l.047.022 7.445 3.799c.286.145.482.399.541.696a.957.957 0 0 1-.233.835l-2.83 3.09-18.608 11.155-13.061 8.009c-.177.11-.382.164-.587.164"/><path fill="#fff" d="M49.355 151.661l-7.9-4.226-.014-.01c-1.077 1.612-2.472 3.014-4.012 3.848l-6.439 3.488c-.514.277-.853.696-1.248 1.104l7.332 3.904 2.309 1.343 5.019-1.568 3.852-2.363 1.1-5.52"/><path fill="#252323" d="M31.02 155.678l6.45 3.433 2.015 1.172 4.562-1.425 3.477-2.133.934-4.673-6.762-3.619c-1.124 1.516-2.476 2.743-3.865 3.494l-6.439 3.488c-.132.071-.254.16-.371.263zm8.257 6.264l-2.63-1.531-8.174-4.352.857-.897c.335-.357.714-.763 1.258-1.057l6.437-3.487c1.346-.729 2.671-2.005 3.733-3.595l.471-.707.703.51 8.32 4.444-1.27 6.367-4.327 2.624-5.378 1.681"/><path fill="#fff" d="M63.584 137.906c-.44-.19-1.016-.147-1.652.199l-6.676 3.614c-.73.397-1.427.627-2.075.724l-.405 1.25 7.623 3.776 1.815 1.3 6.246-3.744 2.645-2.939c.11-.121.073-.305-.076-.382l-7.445-3.798"/><path fill="#252323" d="M53.74 143.317l7.148 3.552 1.368.978 5.667-3.396 2.142-2.379-6.836-3.487c-.211-.082-.538-.018-.894.174l-6.675 3.615a7.55 7.55 0 0 1-1.847.718l-.073.225zm8.435 6.373l-2.212-1.58-8.153-4.039.746-2.3.499-.075c.578-.085 1.183-.297 1.797-.631l6.677-3.616c.837-.453 1.688-.534 2.393-.23l.047.023 7.446 3.798c.287.148.483.402.543.702a.959.959 0 0 1-.237.831l-2.828 3.09-6.718 4.027z"/><path fill="#252323" d="M56.705 142.287V50.563l-5.614 2.919v91.723c0 3.651-2.731 8.091-6.102 9.916l-6.676 3.615c-1.37.742-2.479 2.546-2.479 4.029s1.11 2.084 2.48 1.342l12.777-6.921 5.614-2.916 12.778-6.922c1.37-.741 2.48-2.544 2.48-4.029 0-1.482-1.11-2.084-2.48-1.342l-6.675 3.616c-3.37 1.825-6.103.345-6.103-3.306"/><path fill="#252323" d="M51.898 53.926v91.279c0 3.951-2.858 8.594-6.506 10.571l-6.675 3.614c-1.126.61-2.076 2.155-2.076 3.375 0 .422.12.74.323.851.199.108.556.048.947-.164l12.778-6.92 5.626-2.924 12.767-6.914c1.126-.61 2.076-2.154 2.076-3.373 0-.424-.12-.742-.324-.853-.204-.11-.556-.048-.946.164l-6.677 3.615c-1.89 1.023-3.707 1.166-5.12.401-1.414-.765-2.191-2.313-2.191-4.361v-90.44l-4.002 2.08zM37.202 165.178c-.375 0-.73-.084-1.044-.253-.718-.389-1.129-1.177-1.129-2.16 0-1.751 1.265-3.809 2.882-4.685l6.675-3.614c3.142-1.703 5.7-5.857 5.7-9.261V53.037l7.225-3.756v93.006c0 1.484.493 2.568 1.385 3.052.894.484 2.14.339 3.51-.402l6.676-3.614c.909-.492 1.841-.552 2.56-.163.716.389 1.128 1.176 1.128 2.161 0 1.75-1.266 3.806-2.882 4.682l-12.78 6.921-5.625 2.924-12.766 6.914c-.512.276-1.03.416-1.515.416"/><path fill="#252323" d="M50.665 140.838l-7.552-4.417.853-1.283 7.551 4.416-.852 1.284zM50.665 121.709l-7.552-4.416.853-1.284 7.551 4.417-.852 1.283z"/><path fill="#01BBFF" d="M52.236 81.718l-.62-1.007 4.216-2.284.62 1.007-4.216 2.284zM73.95 18.999c-.328-.17-.777-.144-1.275.125L19.782 47.85c-1.209.655-2.355 1.863-3.12 3.293L1.567 79.32c-.492.92-.762 1.88-.762 2.723v6.12c0 .465.155.804.403 1.008l.046.036c.058.042 13.634 7.254 14.999 7.985.049.028.11.01.14-.034l5.052-7.516c.003-.007.01-.012.014-.018l40.633-38.116L84.79 35.79a.105.105 0 0 0 .017-.027l4.244-8.614a.098.098 0 0 0-.043-.13L73.951 19"/><path fill="#252323" d="M73.488 19.648c-.085 0-.226.033-.41.13L20.186 48.504c-1.066.58-2.115 1.69-2.803 2.978L2.287 79.66c-.434.813-.674 1.66-.674 2.384v6.12c0 .248.066.389.125.439.131.068 4.368 2.321 8.103 4.309l6.23 3.313 4.788-7.1 40.664-38.15 22.631-15.685 3.896-7.91-14.49-7.719a.165.165 0 0 0-.072-.012zM16.304 97.962a.955.955 0 0 1-.452-.113c-.607-.327-3.63-1.935-6.805-3.623C.843 89.863.84 89.86.767 89.808.37 89.486 0 89.006 0 88.164v-6.121c0-.954.302-2.042.846-3.062l15.095-28.177c.837-1.564 2.09-2.88 3.438-3.61L72.273 18.47c.718-.389 1.47-.44 2.065-.134l.01.005 15.058 8.022c.417.22.58.711.37 1.117l-4.51 8.918-22.695 15.718-40.487 37.991-5.008 7.455a.927.927 0 0 1-.772.4"/><path fill="#252323" d="M1.21 89.17l.045.037c.058.042 13.634 7.254 14.999 7.985.049.028.11.01.14-.034l1.579-2.347c-1.138-1.973-2.018-3.446-2.018-3.446L.806 83.196v4.968c0 .464.155.803.403 1.007"/><path fill="#252323" d="M1.732 88.596l.03.023c.107.051 4.344 2.304 8.08 4.292l6.228 3.314.97-1.444a337.586 337.586 0 0 0-1.68-2.865L1.613 84.504v3.66c0 .237.06.378.12.432zm14.572 9.366a.955.955 0 0 1-.452-.113c-.607-.327-3.63-1.935-6.805-3.623C.843 89.863.84 89.86.767 89.808l-.089-.068C.368 89.486 0 89.007 0 88.164v-6.275l16.55 8.925.108.182s.881 1.477 2.024 3.455l.224.389-1.83 2.722a.927.927 0 0 1-.772.4"/><path fill="#fff" d="M31.81 59.213L86.033 31.9 67.54 21.906 19.782 47.849c-1.209.655-2.355 1.863-3.121 3.293l15.15 8.071"/><path fill="#252323" d="M17.754 50.855L31.82 58.35l52.553-26.475-16.833-9.097-47.354 25.725c-.891.483-1.767 1.336-2.433 2.352zm14.045 9.222l-16.201-8.632.343-.642c.838-1.563 2.09-2.879 3.438-3.608l48.16-26.162 20.15 10.889L31.8 60.077"/><path fill="#252323" d="M87.825 59.213L17.784 97.225c-1.01.547-1.83.103-1.83-.99v-6.12c0-.842.27-1.805.762-2.724l15.095-28.178c.764-1.428 1.91-2.638 3.12-3.292l52.894-28.724c1.01-.547 1.827-.105 1.827.99v28.056c0 1.094-.818 2.423-1.828 2.97z"/><path fill="#252323" d="M88.64 27.719a.93.93 0 0 0-.413.132L35.335 56.576c-1.068.577-2.116 1.69-2.805 2.978L17.437 87.73c-.436.812-.677 1.659-.677 2.384v6.12c0 .28.082.428.133.456.05.026.227.02.486-.121l70.04-38.01c.76-.412 1.427-1.495 1.427-2.316V28.187c0-.28-.082-.428-.133-.456a.155.155 0 0 0-.072-.012zM16.963 98.214a1.82 1.82 0 0 1-.876-.215c-.597-.322-.939-.965-.939-1.764v-6.12c0-.957.302-2.045.848-3.063l15.093-28.179c.838-1.562 2.091-2.876 3.438-3.606L87.42 26.543c.737-.4 1.503-.444 2.098-.122.598.324.94.967.94 1.766v28.057c0 1.354-.98 2.946-2.23 3.624L18.185 97.879c-.41.222-.83.335-1.224.335"/><path fill="#01BBFF" d="M16.575 96.235h-1.24v-4.581h1.24v4.58z"/><path fill="#252323" d="M17.248 86.858L2.1 78.786l.797-1.314 15.147 8.072-.796 1.314M28.588 65.74L13.44 57.668l.797-1.314 15.148 8.072-.797 1.314z"/><path fill="#01BBFF" d="M223.29 145.826v-4.02a.239.239 0 0 0-.207-.229l-8.735-1.361a.26.26 0 0 1-.081-.028L76.577 65.464c-1.357-.736-3.412-.816-4.588-.178L35.567 85.204a.247.247 0 0 1-.079.026l-9.863 1.71a.235.235 0 0 0-.203.228v4.04c-.012.509.194 1.09 1.077 1.57l145.6 79.009c1.359.735 3.413.816 4.589.179l45.82-25.007c.555-.302.804-.709.782-1.132v-.001"/><path fill="#252323" d="M26.23 87.604l-.001 3.621c-.006.26.07.571.673.899l145.602 79.009c1.094.593 2.862.676 3.781.178l45.817-25.007c.149-.081.394-.242.384-.439v-.008c-.002-.02-.003-.042-.001-3.606l-8.417-1.313-.213-.1-137.68-74.72c-1.093-.594-2.862-.68-3.783-.178L35.848 85.925l-.221.05-9.397 1.63zm148.46 85.544c-1.041.002-2.127-.238-2.994-.707l-145.6-79.009c-1.25-.676-1.492-1.593-1.478-2.241v-4.023c0-.477.363-.886.863-.971l9.765-1.694 36.337-19.87c1.423-.772 3.795-.694 5.398.177l137.603 74.676 8.632 1.346c.509.078.88.487.88.974v4c.032.723-.398 1.38-1.185 1.807l-45.817 25.005c-.656.356-1.514.53-2.404.53"/><path fill="#252323" d="M28.319 86.388l-2.74.474a.236.236 0 0 0-.203.228v4.04c-.012.51.192 1.092 1.077 1.57l1.866 1.011v-7.323zM174.527 172.394c.808.022 1.589-.114 2.161-.426l45.82-25.006c.555-.302.805-.709.782-1.132v-4.021a.238.238 0 0 0-.207-.229l-8.734-1.362a.255.255 0 0 1-.082-.027l-31.741-17.19-7.999-7.289v56.682z"/><path fill="#fff" d="M222.507 142.826l-45.82 25.008c-1.176.636-3.229.556-4.589-.179l-145.6-79.01c-1.357-.735-1.504-1.848-.328-2.484l45.818-25.009c1.177-.636 3.232-.556 4.59.179l145.599 79.01c1.359.735 1.507 1.848.33 2.485z"/><path fill="#252323" d="M73.971 61.482c-.604 0-1.175.106-1.58.326L26.576 86.814c-.12.064-.394.233-.394.425 0 .167.189.463.721.752L172.503 167c1.095.593 2.864.677 3.782.177l45.82-25.007c.117-.062.391-.231.391-.424 0-.167-.189-.464-.72-.752L76.175 61.985c-.613-.332-1.437-.503-2.204-.503zM174.69 169.017c-1.041 0-2.128-.239-2.993-.707L26.096 89.3c-.971-.525-1.526-1.277-1.526-2.061 0-.69.436-1.321 1.196-1.734L71.583 60.5c1.423-.77 3.795-.692 5.398.177l145.601 79.01c.97.524 1.526 1.275 1.526 2.06 0 .689-.437 1.321-1.197 1.734l-45.817 25.006c-.656.355-1.514.53-2.405.53M165.748 212.37l-.847-1.288 17.506-10.113a8.662 8.662 0 0 1 8.486 0l3.892 2.482c2.058 1.163 4.665 1.167 6.764-.013l5.974-3.357c7.074-3.975 15.923-4.082 23.098-.272l11.761 6.194a2.894 2.894 0 0 0 2.749-.016c.858-.469 1.368-1.305 1.368-2.235v-73.983h1.614v73.983c0 1.474-.812 2.798-2.168 3.542a4.574 4.574 0 0 1-4.354.025l-11.763-6.194c-6.672-3.541-14.901-3.445-21.477.253l-5.973 3.357a8.661 8.661 0 0 1-8.463-.013l-3.892-2.481c-2.062-1.164-4.673-1.17-6.777.018l-17.498 10.111"/><path fill="#252323" d="M248.112 185.148h-1.613v-5.58c0-2.854.901-5.612 2.605-7.975 1.523-2.113 2.328-4.578 2.328-7.126v-37.369h1.613v37.369c0 2.851-.901 5.609-2.605 7.973-1.524 2.112-2.328 4.577-2.328 7.128v5.58z"/><path fill="#252323" d="M248.113 199.513H246.5v-3.001c0-2.279-.757-4.455-2.191-6.295-1.638-2.1-2.504-4.585-2.504-7.187v-52.675h1.614v52.675c0 2.279.756 4.456 2.19 6.294 1.639 2.101 2.504 4.587 2.504 7.188v3.001"/><path fill="#01BBFF" d="M180.958 207.167l-7.405-.639a.097.097 0 0 1-.036-.01l-1.784-.001c-2.139-1.158-2.968-.924-4.82.079l-1.71.929-.269-.008-9.229 1.459a.084.084 0 0 0-.071.08l-.01 4.643c0 .854.525 1.577 1.769 2.25l5.135 2.758c2.138 1.158 5.373 1.283 7.226.281l10.037-5.441c.793-.428 1.202-.996 1.245-1.594v-4.707c0-.041-.035-.076-.078-.079"/><path fill="#252323" d="M156.439 209.626l-.007 4.073c0 .398.155.94 1.365 1.596l5.132 2.755c1.884 1.021 4.822 1.147 6.422.283l10.039-5.44c.366-.198.809-.532.842-.991l-.002-4.039-6.833-.589h-1.879l-.187-.102c-1.859-1.006-2.366-.813-4.014.078l-1.908 1.037-.419-.013-8.551 1.352zm10.169 10.795c-1.556 0-3.186-.357-4.482-1.058l-5.134-2.757c-1.463-.794-2.174-1.744-2.174-2.907l.012-5.28.736-.188 9.315-1.472.119.003 1.509-.82c1.959-1.059 3.089-1.403 5.436-.181l1.832.027 7.988.683.077.775v4.707c-.067.927-.65 1.71-1.646 2.248l-10.039 5.441c-.966.523-2.232.779-3.549.779"/><path fill="#252323" d="M166.396 219.655c1.255.03 2.467-.185 3.358-.668l7.939-4.364v-7.366l-4.14-.729c-.011-.002-.023-.004-.035-.011l-.201 1.623-6.921-.925v12.44"/><path fill="#252323" d="M167.204 208.086v10.797c.845-.059 1.588-.247 2.147-.55l7.537-4.143v-6.305l-2.669-.47-.197 1.582-6.818-.911zm-.583 12.328c-.08 0-.162-.001-.244-.004l-.785-.018v-14.048l7.021.938.243-1.973.958.499 4.686.823v8.425l-8.338 4.584c-.928.502-2.177.774-3.541.774"/><path fill="#01BBFF" d="M174.139 202.265l5.134 2.756c2.139 1.158 2.371 2.91.518 3.913l-10.038 5.44c-1.852 1.003-5.087.878-7.225-.28l-5.135-2.758c-2.138-1.158-2.372-2.91-.519-3.913l10.039-5.44c1.852-1.003 5.087-.877 7.226.282z"/><path fill="#252323" d="M170.041 202.063c-1.033 0-2.012.189-2.724.574l-10.039 5.439c-.387.211-.848.562-.848 1.046 0 .514.51 1.097 1.367 1.56l5.132 2.755c1.884 1.021 4.822 1.147 6.422.283l10.039-5.44c.385-.209.846-.561.846-1.045 0-.513-.51-1.096-1.366-1.559l-5.134-2.757c-1.042-.565-2.41-.856-3.695-.856zm-3.433 13.745c-1.556 0-3.186-.357-4.482-1.058l-5.134-2.757c-1.381-.75-2.174-1.795-2.174-2.869 0-.942.586-1.777 1.654-2.355l10.039-5.44c2.106-1.142 5.63-1.02 8.028.28l5.135 2.755c1.383.749 2.174 1.796 2.174 2.871 0 .94-.587 1.777-1.652 2.353l-10.039 5.441c-.966.523-2.232.779-3.549.779"/><path fill="#252323" d="M163.296 218.555h-1.613v-4.613h1.613v4.613z"/><path fill="#fff" d="M168.331 207.241c-.568 0-1.135.113-1.547.334-.279.154-.404.311-.404.402 0 .091.125.248.404.399.824.446 2.268.446 3.092 0 .279-.151.404-.308.404-.399 0-.091-.125-.248-.404-.4v-.002c-.412-.221-.979-.334-1.545-.334zm0 2.981c-.846 0-1.692-.178-2.353-.536-.769-.416-1.209-1.039-1.209-1.709 0-.671.44-1.293 1.209-1.71 1.321-.714 3.385-.714 4.704.001v-.001c.769.417 1.21 1.039 1.21 1.71 0 .67-.441 1.293-1.21 1.709-.66.358-1.507.536-2.351.536z"/><path fill="#01BBFF" d="M248.393 128.141h-1.241v-21.508h1.241v21.508z"/><path fill="#252323" d="M250.764 108.545l-5.038 2.727c-1.118.607-2.025-.036-2.025-1.435v-4.778c0-1.399.907-3.024 2.025-3.631l5.038-2.727c1.119-.607 2.026.036 2.026 1.435v4.778c0 1.399-.907 3.024-2.026 3.631"/><path fill="#01BBFF" d="M251.569 99.054c-.183 0-.376.086-.495.15l-5.037 2.728c-.931.505-1.716 1.936-1.716 3.127v4.778c0 .605.201.93.39 1.032.226.123.538-.011.706-.1l5.037-2.729c.93-.504 1.716-1.935 1.716-3.126v-4.778c0-.605-.201-.93-.39-1.032a.445.445 0 0 0-.211-.05zm-6.649 13.029c-.293 0-.574-.069-.829-.207-.641-.347-1.01-1.091-1.01-2.039v-4.778c0-1.608 1.026-3.424 2.336-4.135l5.037-2.727c.685-.372 1.375-.41 1.946-.1.641.347 1.01 1.09 1.01 2.039v4.778c0 1.608-1.026 3.425-2.336 4.135l-5.037 2.727a2.35 2.35 0 0 1-1.117.307"/><path fill="#252323" d="M251.748 109.195l-5.038 2.729c-1.118.605-2.025-.038-2.025-1.437v-4.778c0-1.399.907-3.024 2.025-3.629l5.038-2.729c1.118-.605 2.025.038 2.025 1.437v4.778c0 1.399-.907 3.024-2.025 3.629z"/><path fill="#01BBFF" d="M252.553 99.706c-.183 0-.377.084-.496.149l-5.036 2.728c-.931.504-1.716 1.935-1.716 3.126v4.778c0 .607.202.932.389 1.034.223.119.539-.01.707-.101l5.038-2.728c.929-.504 1.714-1.935 1.714-3.126v-4.778c0-.607-.2-.93-.389-1.034a.449.449 0 0 0-.211-.049zm-6.647 13.028c-.295 0-.576-.068-.832-.206-.641-.348-1.009-1.093-1.009-2.041v-4.778c0-1.608 1.026-3.424 2.336-4.133l5.038-2.728c.684-.371 1.375-.41 1.945-.1.641.348 1.009 1.091 1.009 2.04v4.778c0 1.608-1.026 3.424-2.336 4.133l-5.036 2.728a2.349 2.349 0 0 1-1.115.307"/><path fill="#01BBFF" d="M251.62 126.292l-.024-17.524 1.24-.001.023 17.523-1.239.002zM243.232 131.034h-1.241v-3.084c0-2.575.968-5.085 2.725-7.065 1.573-1.772 2.438-4.016 2.438-6.321l.002-3.215h1.24l-.002 3.215c0 2.575-.968 5.085-2.724 7.064-1.573 1.773-2.438 4.017-2.438 6.322v3.084zM180.329 121.139l-24.147 13.39-77.018-41.777 24.147-13.39 77.018 41.777z"/><path fill="#252323" d="M80.762 92.743l75.415 40.909 22.554-12.506-75.415-40.908-22.554 12.505zm75.424 42.66L77.568 92.759l25.737-14.273 78.618 42.646-25.737 14.271"/><path fill="#252323" d="M175.986 109.224l-51.203-27.883-37.19 20.141 51.204 27.884 37.189-20.142z"/><path fill="#252323" d="M89.2 101.484l49.596 27.009 35.582-19.27-49.597-27.009-35.582 19.27zm49.595 28.755l-52.81-28.758 38.797-21.013 52.811 28.758-38.798 21.013"/><path fill="#01BBFF" d="M153.189 118.852l-39.136-21.143.62-1.007 39.135 21.143-.619 1.007zM64.487 48.499c-1.811-1.222-4.888-.516-8.009 2.857-2.061 2.227-3.261 5.093-3.203 8.04.034 1.833.558 2.861 1.755 3.6l.197.131 138.256 74.661c.114.062.26.024.324-.083l8.698-14.407a.214.214 0 0 0-.09-.303L64.487 48.499"/><path fill="#252323" d="M62.555 48.707c-1.436 0-3.389.895-5.468 3.144-1.992 2.151-3.06 4.825-3.008 7.533.036 1.788.56 2.466 1.393 2.982l.22.144 137.697 74.355 8.135-13.479L64.017 49.114c-.387-.26-.883-.407-1.462-.407zM193.6 138.574c-.181 0-.358-.043-.519-.13L54.826 63.784l-.26-.17c-1.425-.878-2.059-2.14-2.097-4.204-.06-3.08 1.148-6.117 3.4-8.55 3.804-4.112 7.242-4.187 9.055-2.997l137.894 74.477c.495.263.671.862.387 1.33l-8.696 14.407c-.142.23-.365.394-.635.462a1.073 1.073 0 0 1-.274.035z"/><path fill="#fff" d="M95.755 75.805l102.078 55.229 4.671-7.736a.215.215 0 0 0-.088-.303L64.486 48.499c-1.811-1.222-4.888-.516-8.009 2.857a12.576 12.576 0 0 0-1.61 2.183c-.008.044-.014.092-.033.124l21.758 11.772 19.163 10.37"/><path fill="#252323" d="M198.134 132.071L95.354 76.459l.805-1.31L197.532 130l3.993-6.613-137.44-74.231c-1.417-.95-4.08-.457-6.997 2.696-.426.459-.821.967-1.183 1.519l21.09 11.41-.806 1.31-22.441-12.143.415-.772c.5-.853 1.075-1.632 1.707-2.314 3.83-4.14 7.29-4.188 9.088-2.974l137.86 74.453c.494.263.669.86.388 1.329l-5.072 8.402"/><path fill="#fff" d="M80.74 67.68l10.936 5.916L80.74 67.68z"/><path fill="#252323" d="M91.273 74.25l-10.936-5.916.806-1.31 10.936 5.918-.806 1.309zM55.027 62.914l.198.131 138.256 74.66a.245.245 0 0 0 .324-.083l1.496-2.478-3.316-1.119L53.597 59.488c.034 1.833.232 2.687 1.43 3.426"/><path fill="#252323" d="M54.5 60.847c.126.739.398 1.082.97 1.435l.218.144 137.697 74.355.744-1.23-2.546-.871L54.501 60.847zm139.096 77.644c-.179 0-.359-.044-.52-.132L54.824 63.701l-.246-.158c-1.607-.996-1.755-2.303-1.787-4.041l-.027-1.334 139.558 75.168 4.15 1.399-1.967 3.26a1.03 1.03 0 0 1-.636.461 1.06 1.06 0 0 1-.273.035"/><path fill="#01BBFF" d="M204.832 127.151c0 3.843-2.876 8.514-6.423 10.435-3.546 1.921-6.422.364-6.422-3.477 0-3.843 2.876-8.515 6.422-10.436 3.547-1.921 6.423-.364 6.423 3.478z"/><path fill="#252323" d="M201.273 123.603c-.736 0-1.575.244-2.461.724-3.319 1.798-6.02 6.185-6.02 9.782 0 1.576.525 2.728 1.479 3.244.954.519 2.279.366 3.735-.421 3.319-1.798 6.018-6.185 6.018-9.781 0-1.577-.523-2.729-1.478-3.245a2.64 2.64 0 0 0-1.273-.303zm-5.734 15.565a4.3 4.3 0 0 1-2.074-.505c-1.474-.798-2.285-2.416-2.285-4.554 0-4.148 2.998-9.017 6.826-11.09 1.978-1.07 3.875-1.221 5.346-.423 1.474.798 2.285 2.416 2.285 4.555 0 4.145-2.997 9.016-6.825 11.089-1.139.617-2.253.928-3.273.928"/><path fill="#01BBFF" d="M60.702 66.718s-3.934-2.086-5.784-3.087c-2.125-1.148-2.208-3.345-2.211-3.437l1.24-.03-.62.014.62-.016c.001.067.079 1.644 1.59 2.462 1.846.999 5.775 3.083 5.775 3.083l-.61 1.011M118.033.925c-.611-.28-1.421-.223-2.321.263l-16.784 9.09c-13.949 7.555-25.36 26.096-25.36 41.205v3.734c0 .895.303 1.541.79 1.92l108.632 58.535c.15.081.342.039.438-.095l29.781-41.276a.4.4 0 0 1 .057-.06l11.303-9.223a.307.307 0 0 0 .09-.122l2.14-5.118a.3.3 0 0 0-.143-.382L118.033.925"/><path fill="#252323" d="M74.83 56.517l108.18 58.293 29.593-41.015.139-.127 11.21-9.15 1.948-4.657L117.661 1.594c-.391-.167-.939-.079-1.544.249l-16.785 9.09c-13.762 7.452-24.957 25.644-24.957 40.55v3.734c0 .583.16 1.043.455 1.3zm108.32 59.95c-.191 0-.384-.045-.56-.139L73.847 57.718c-.495-.384-1.084-1.128-1.084-2.501v-3.734c0-15.388 11.557-34.166 25.762-41.86l16.786-9.09c1.095-.593 2.188-.695 3.077-.287l.047.023 108.624 58.47c.49.267.699.818.492 1.313l-2.14 5.122c-.07.163-.181.311-.324.423l-11.245 9.177-29.745 41.227a1.17 1.17 0 0 1-.947.466z"/><path fill="#fff" d="M213.321 74.325l10.244-8.36-2.919-4.122-108.669-58.52-12.994 7.039c-6.265 3.392-12.006 9.01-16.444 15.53l108.584 58.493 14.327.83 7.815-10.83a.277.277 0 0 1 .056-.06"/><path fill="#252323" d="M191.359 83.641l13.68.793 7.752-10.68 9.711-7.925-2.423-3.42L111.978 4.196l-12.592 6.82c-5.693 3.081-11.247 8.255-15.708 14.616l107.681 58.01zm14.5 2.355l-14.975-.868L81.406 26.152l.453-.668c4.674-6.866 10.612-12.47 16.72-15.778l13.396-7.255.403.217 108.834 58.608 3.416 4.823-10.732 8.757-8.037 11.14M192.754 94.985l-23.33-12.568.801-1.31 23.33 12.567-.801 1.311M165.211 80.147l-16.44-8.856.801-1.31 16.441 8.856-.802 1.31zM145.069 69.297l-60.9-32.806.801-1.311 60.9 32.806-.801 1.311zM182.315 107.5L73.668 48.933c-.051.732-.1 1.466-.1 2.184v3.734c0 .896.303 1.542.79 1.92l108.632 58.535c.15.081.342.041.438-.095l1.263-1.749-2.376-5.962"/><path fill="#252323" d="M182.247 109.817v3.912c0 2.055 1.538 2.886 3.434 1.859l19.464-10.54c1.896-1.028 3.432-.195 3.432 1.858v27.065c0 2.053 1.537 2.886 3.433 1.859l12.383-6.707c1.896-1.026 3.432-3.523 3.432-5.577V61.56c0-2.054-1.536-2.886-3.432-1.86l-16.949 9.18c-13.916 7.537-25.197 25.865-25.197 40.937"/><path fill="#252323" d="M206.68 103.848a2.7 2.7 0 0 1 1.295.319c.907.492 1.41 1.466 1.41 2.741v27.063c0 .701.219 1.223.601 1.429.385.21.975.126 1.621-.226l12.384-6.705c1.641-.89 3.03-3.146 3.03-4.924V61.56c0-.7-.22-1.222-.602-1.43-.382-.208-.975-.124-1.622.226l-16.95 9.179c-13.67 7.404-24.791 25.474-24.791 40.282v3.913c0 .7.218 1.222.602 1.43.384.208.974.126 1.621-.226l19.462-10.542c.669-.361 1.328-.544 1.939-.544zm3.797 33.18c-.467 0-.903-.106-1.296-.318-.908-.492-1.409-1.464-1.409-2.739v-27.063c0-.702-.219-1.224-.603-1.432-.38-.207-.974-.124-1.622.226l-19.462 10.542c-1.178.637-2.326.717-3.233.224-.909-.491-1.41-1.463-1.41-2.738v-3.913c0-15.29 11.485-33.947 25.598-41.59l16.951-9.18c1.176-.637 2.325-.718 3.233-.227.908.492 1.409 1.466 1.409 2.74v61.985c0 2.329-1.685 5.068-3.836 6.234l-12.383 6.705c-.669.363-1.328.544-1.937.544"/><path fill="#01BBFF" d="M182.87 113.732l-1.24-.005.014-4.761 1.239.003-.013 4.763zM219.768 76.396c-.178-.032-.339-.057-.339-.057-.74-.071-1.683.298-2.688 1.385a5.455 5.455 0 0 0-1.227 2.1c-.385 1.255-.231 2.177.232 2.692 0 0 .932 1.265 3.01 1.72.098.02.208-.02.261-.1l3.092-4.61.132-1.66a.189.189 0 0 0-.055-.159c-.238-.24-1.033-1.049-2.418-1.31"/><path fill="#01BBFF" d="M219.234 76.908c-.362 0-1.081.177-2.025 1.198a4.897 4.897 0 0 0-1.1 1.88c-.292.95-.25 1.754.11 2.156.064.08.801 1.035 2.421 1.466l2.862-4.269.109-1.357a3.89 3.89 0 0 0-1.96-1.016l-.326-.054a.898.898 0 0 0-.091-.004zm-.423 7.916a.944.944 0 0 1-.197-.022c-2.284-.5-3.334-1.896-3.378-1.956-.611-.674-.738-1.82-.318-3.182a6.077 6.077 0 0 1 1.354-2.32c1.33-1.436 2.479-1.654 3.22-1.584l.4.065c1.042.198 1.966.697 2.743 1.482a.763.763 0 0 1 .225.602l-.146 1.805-3.173 4.732a.881.881 0 0 1-.73.378"/><path fill="#252323" d="M223.11 79.468c0 1.644-1.23 3.643-2.748 4.465-1.517.822-2.748.156-2.748-1.488s1.231-3.643 2.748-4.466c1.518-.821 2.748-.154 2.748 1.489z"/><path fill="#01BBFF" d="M221.588 78.21c-.266 0-.581.093-.916.273-1.322.715-2.438 2.53-2.438 3.962 0 .57.18.994.495 1.164.317.173.797.105 1.323-.18 1.322-.717 2.439-2.53 2.439-3.961 0-.57-.181-.995-.495-1.165a.847.847 0 0 0-.408-.093zm-2.455 6.659c-.367 0-.713-.084-1.024-.253-.718-.389-1.116-1.16-1.116-2.171 0-1.859 1.345-4.04 3.059-4.97.934-.507 1.844-.568 2.564-.18.718.39 1.114 1.161 1.114 2.173 0 1.856-1.343 4.04-3.058 4.968-.53.288-1.054.433-1.539.433M219.768 87.342l-.339-.057c-.74-.07-1.683.3-2.688 1.387a5.435 5.435 0 0 0-1.227 2.1c-.385 1.253-.231 2.175.232 2.691 0 0 .932 1.265 3.01 1.72.098.021.208-.02.261-.1l3.092-4.61.132-1.66a.186.186 0 0 0-.055-.158c-.238-.24-1.033-1.05-2.418-1.313"/><path fill="#01BBFF" d="M219.234 87.856c-.364 0-1.082.177-2.025 1.196a4.908 4.908 0 0 0-1.1 1.88c-.292.95-.25 1.756.11 2.156.064.08.801 1.035 2.421 1.466l2.862-4.268.109-1.356a3.878 3.878 0 0 0-1.96-1.017l-.324-.053a.912.912 0 0 0-.093-.004zm-.423 7.914a.86.86 0 0 1-.197-.022c-2.284-.498-3.334-1.896-3.378-1.954-.611-.675-.738-1.82-.318-3.183a6.077 6.077 0 0 1 1.354-2.322c1.328-1.435 2.479-1.651 3.22-1.581l.4.065c1.042.198 1.964.696 2.743 1.48.165.168.241.38.225.603l-.146 1.805-3.173 4.731a.882.882 0 0 1-.73.378"/><path fill="#252323" d="M223.11 90.415c0 1.643-1.23 3.642-2.748 4.464-1.517.823-2.748.156-2.748-1.489 0-1.643 1.231-3.642 2.748-4.463 1.518-.822 2.748-.157 2.748 1.488z"/><path fill="#01BBFF" d="M221.588 89.157c-.266 0-.581.092-.916.273-1.322.716-2.438 2.53-2.438 3.962 0 .569.18.994.495 1.165.317.171.797.104 1.323-.182 1.322-.715 2.439-2.53 2.439-3.96 0-.57-.181-.996-.495-1.166a.863.863 0 0 0-.408-.092zm-2.455 6.658a2.14 2.14 0 0 1-1.024-.251c-.718-.39-1.116-1.16-1.116-2.172 0-1.858 1.345-4.04 3.059-4.969.934-.508 1.847-.572 2.564-.18.718.388 1.114 1.16 1.114 2.172 0 1.857-1.342 4.038-3.058 4.969-.53.287-1.054.43-1.539.43M42.281 68.237c-1.813-1.223-4.888-.517-8.01 2.856-2.062 2.226-3.26 5.093-3.204 8.041.036 1.832.558 2.86 1.757 3.6l.197.13 138.254 74.661a.244.244 0 0 0 .324-.083l8.698-14.407a.215.215 0 0 0-.088-.303L42.281 68.237z"/><path fill="#252323" d="M40.35 68.444c-1.439 0-3.391.897-5.472 3.144-1.99 2.15-3.057 4.826-3.005 7.532.034 1.789.56 2.468 1.393 2.983l.22.143 137.695 74.356 8.137-13.479L41.809 68.851c-.386-.262-.881-.407-1.46-.407zM171.39 158.31c-.18 0-.36-.045-.52-.133L32.618 83.52l-.26-.169c-1.422-.877-2.057-2.14-2.097-4.203-.06-3.082 1.15-6.118 3.4-8.552 3.806-4.11 7.247-4.188 9.054-2.996l137.896 74.476c.495.271.669.867.388 1.331l-8.698 14.407a1.025 1.025 0 0 1-.632.462 1.133 1.133 0 0 1-.278.035"/><path fill="#fff" d="M150.733 137.303l24.893 13.468 4.671-7.736a.215.215 0 0 0-.088-.303L42.281 68.237c-1.813-1.223-4.888-.517-8.01 2.856a12.571 12.571 0 0 0-1.611 2.183c-.008.044-.012.092-.031.124l57.245 30.973 3.469 1.878 36.115 19.541 21.275 11.511"/><path fill="#252323" d="M175.928 151.807l-25.598-13.85.806-1.31 24.19 13.089 3.992-6.613-137.44-74.23c-1.419-.953-4.082-.455-7 2.695-.423.457-.82.966-1.18 1.517l96.163 52.031-.806 1.31-97.514-52.762.412-.774a13.46 13.46 0 0 1 1.707-2.313c3.833-4.137 7.29-4.189 9.09-2.974l137.861 74.453c.495.271.669.867.388 1.331l-5.071 8.4"/><path fill="#fff" d="M133.033 127.725l14.301 7.738-14.301-7.738z"/><path fill="#252323" d="M146.931 136.119l-14.301-7.738.806-1.31 14.301 7.738-.806 1.31zM32.82 82.65l.198.132 138.255 74.66c.115.061.26.025.324-.083l1.498-2.479-3.318-1.118L31.389 79.225c.036 1.833.234 2.687 1.43 3.426"/><path fill="#252323" d="M32.294 80.584c.127.74.399 1.082.97 1.435l.22.147 137.696 74.352.744-1.23-2.546-.871L32.294 80.584zm139.096 77.644c-.18 0-.357-.044-.518-.131L32.617 83.437l-.247-.158c-1.605-.995-1.752-2.302-1.784-4.04l-.027-1.334 139.558 75.168 4.15 1.399-1.967 3.26a1.04 1.04 0 0 1-.635.462 1.12 1.12 0 0 1-.275.034"/><path fill="#01BBFF" d="M182.624 146.889c0 3.842-2.874 8.513-6.422 10.434-3.547 1.921-6.423.364-6.423-3.477 0-3.844 2.876-8.515 6.423-10.436 3.548-1.921 6.422-.364 6.422 3.479z"/><path fill="#252323" d="M179.067 143.34c-.736 0-1.575.244-2.462.724-3.32 1.798-6.018 6.185-6.018 9.782 0 1.576.523 2.728 1.478 3.244.953.516 2.281.367 3.734-.421 3.319-1.797 6.019-6.185 6.019-9.781 0-1.577-.525-2.729-1.477-3.245a2.647 2.647 0 0 0-1.274-.303zm-5.735 15.565a4.3 4.3 0 0 1-2.073-.505c-1.474-.798-2.286-2.416-2.286-4.554 0-4.146 2.998-9.017 6.826-11.09 1.977-1.071 3.875-1.219 5.347-.423 1.474.798 2.284 2.415 2.284 4.555 0 4.145-2.998 9.018-6.825 11.091-1.138.616-2.252.926-3.273.926"/><path fill="#01BBFF" d="M31.883 82.778c-1.062-1.148-1.111-2.53-1.113-2.589v-.697h1.24v.683s.05 1.02.81 1.841l-.937.762zM221.844 223.637c-.438-.191-1.014-.148-1.652.198l-6.675 3.616c-.73.394-1.426.626-2.076.722l1.185-80.67-5.212 1.393v-16.474l-5.613 2.917v91.724c0 3.635-2.747 8.097-6.103 9.915l-6.439 3.487c-1.197.649-2.123 1.694-2.51 2.939-.443 1.422-.132 2.39.553 2.736l7.468 3.795c.086.044.19.04.274-.011l13.068-8.012 18.608-11.157 2.647-2.939a.241.241 0 0 0-.077-.381l-7.446-3.798"/><path fill="#252323" d="M202.606 135.785v91.278c0 3.885-2.919 8.627-6.506 10.569l-6.438 3.487c-1.041.564-1.822 1.475-2.14 2.496-.329 1.056-.146 1.705.162 1.859l7.185 3.652 12.802-7.847 18.512-11.099 2.14-2.377-6.834-3.488c-.212-.083-.537-.018-.894.176l-6.675 3.612c-.787.427-1.578.702-2.353.816l-.944.141.012-.897 1.17-79.656-5.197 1.391v-16.192l-4.002 2.079zm-7.709 114.937c-.173 0-.347-.04-.508-.12l-7.471-3.798c-.864-.435-1.566-1.614-.943-3.612.439-1.413 1.462-2.614 2.881-3.381l6.437-3.487c3.09-1.674 5.7-5.915 5.7-9.261v-92.169l7.227-3.755v16.756l5.227-1.399-1.184 80.685c.28-.102.564-.231.851-.385l6.675-3.615c.84-.455 1.689-.536 2.394-.23l.046.02 7.446 3.8c.282.143.482.398.543.698a.962.962 0 0 1-.238.837l-2.827 3.087-18.609 11.155-13.061 8.008c-.175.11-.38.166-.586.166"/><path fill="#fff" d="M207.615 237.366l-7.899-4.227-.015-.008c-1.076 1.611-2.471 3.013-4.012 3.847l-6.437 3.487c-.514.279-.855.696-1.247 1.106l7.329 3.903 2.309 1.344 5.019-1.57 3.853-2.363 1.1-5.519"/><path fill="#252323" d="M189.284 241.383l6.447 3.433 2.017 1.172 4.561-1.426 3.478-2.133.934-4.673-6.764-3.617c-1.128 1.53-2.455 2.73-3.863 3.493l-6.439 3.487a2.056 2.056 0 0 0-.371.264zm8.256 6.263l-2.631-1.53-8.176-4.352.863-.9c.334-.357.712-.76 1.255-1.055l6.436-3.485c1.345-.729 2.67-2.006 3.732-3.595l.486-.727.707.543 8.302 4.433-1.27 6.363-4.329 2.624-5.375 1.681"/><path fill="#fff" d="M221.845 223.612c-.439-.191-1.014-.148-1.652.198l-6.676 3.615c-.73.395-1.426.627-2.074.723l-.406 1.251 7.624 3.776 1.814 1.299 6.246-3.744 2.647-2.939a.242.242 0 0 0-.078-.381l-7.445-3.798"/><path fill="#252323" d="M212.002 229.021l7.148 3.553 1.367.979 5.667-3.398 2.14-2.377-6.835-3.489c-.211-.082-.536-.018-.893.176l-6.676 3.614a7.471 7.471 0 0 1-1.845.719l-.073.223zm8.432 6.373l-2.209-1.58-8.153-4.038.747-2.301.498-.073c.577-.087 1.182-.299 1.797-.631l6.676-3.616c.84-.453 1.686-.535 2.394-.23l.046.021 7.446 3.8c.282.142.481.397.542.697.06.3-.026.606-.238.837l-2.826 3.087-6.72 4.027"/><path fill="#252323" d="M214.967 227.992v-91.723l-5.615 2.919v91.722c0 3.65-2.731 8.09-6.102 9.916l-6.676 3.615c-1.369.742-2.479 2.545-2.479 4.028 0 1.483 1.11 2.084 2.479 1.344l12.778-6.921 5.615-2.918 12.778-6.92c1.37-.742 2.479-2.546 2.479-4.029s-1.109-2.084-2.479-1.343l-6.675 3.616c-3.371 1.826-6.103.346-6.103-3.306z"/><path fill="#252323" d="M210.159 139.632v91.278c0 3.952-2.859 8.594-6.507 10.571l-6.674 3.614c-1.125.609-2.076 2.155-2.076 3.374 0 .424.119.742.322.851.202.112.557.048.948-.163l12.777-6.919 5.627-2.925 12.765-6.913c1.125-.611 2.077-2.157 2.077-3.375 0-.424-.121-.742-.324-.851-.201-.111-.556-.048-.946.162l-6.675 3.616c-1.89 1.022-3.71 1.166-5.123.4-1.411-.764-2.19-2.313-2.19-4.359v-90.44l-4.001 2.079zm-14.697 111.252c-.375 0-.729-.085-1.043-.254-.718-.389-1.13-1.176-1.13-2.161 0-1.75 1.267-3.808 2.883-4.683l6.674-3.614c3.144-1.703 5.7-5.859 5.7-9.262v-92.169l7.227-3.755v93.007c0 1.484.491 2.567 1.383 3.051.892.482 2.14.34 3.511-.401l6.674-3.615c.91-.491 1.842-.551 2.559-.163.718.389 1.13 1.175 1.13 2.16 0 1.75-1.267 3.808-2.882 4.683l-12.778 6.92-5.627 2.925-12.765 6.912c-.513.278-1.032.419-1.516.419"/><path fill="#252323" d="M208.927 226.542l-7.552-4.415.852-1.283 7.553 4.415-.853 1.283zM208.927 190.05l-7.552-4.415.852-1.284 7.553 4.415-.853 1.284z"/><path fill="#01BBFF" d="M210.499 167.422l-.62-1.007 4.216-2.283.62 1.007-4.216 2.283zM216.717 113.173c-.329-.17-.778-.143-1.276.126l-37.399 20.256c-1.209.654-2.354 1.863-3.119 3.292l-15.095 28.177c-.493.92-.762 1.882-.762 2.725v6.119c0 .466.155.804.403 1.007l.046.037c.058.041 13.635 7.253 14.999 7.986a.108.108 0 0 0 .141-.035l5.051-7.516c.005-.006.009-.013.015-.017l40.632-38.116 7.202-7.25a.115.115 0 0 0 .019-.026l4.244-8.615c.024-.046.004-.102-.043-.129l-15.058-8.021"/><path fill="#252323" d="M216.255 113.822c-.086 0-.226.032-.409.131l-37.4 20.256c-1.065.576-2.113 1.689-2.803 2.977l-15.093 28.179c-.436.812-.677 1.658-.677 2.384v6.119c0 .246.065.388.128.438l8.549 4.548c2.418 1.285 4.682 2.49 5.78 3.076l4.821-7.135 40.633-38.116 7.107-7.154 3.928-7.971-14.491-7.719a.187.187 0 0 0-.073-.013zm-41.686 69.846a.95.95 0 0 1-.462-.119l-6.351-3.38c-8.652-4.6-8.656-4.604-8.728-4.655-.525-.428-.767-.987-.767-1.646v-6.119c0-.957.302-2.045.848-3.064l15.093-28.179c.839-1.563 2.092-2.877 3.438-3.607l37.4-20.254c.719-.391 1.471-.44 2.066-.134l.01.004 15.058 8.022c.415.225.575.696.378 1.101l-4.426 8.86-7.182 7.23-40.602 38.088-5.004 7.45a.92.92 0 0 1-.769.402"/><path fill="#252323" d="M159.469 174.875l.046.037c.058.041 13.635 7.253 14.999 7.986a.108.108 0 0 0 .141-.035l1.578-2.348a297.216 297.216 0 0 0-2.017-3.444l-15.15-8.17v4.967c0 .466.155.804.403 1.007"/><path fill="#252323" d="M159.996 174.304l.039.03c.104.046 4.767 2.526 8.515 4.52 2.416 1.285 4.682 2.49 5.78 3.076l.969-1.444c-.794-1.374-1.433-2.452-1.677-2.864l-13.749-7.414v3.66c0 .242.064.382.123.436zm14.573 9.364a.95.95 0 0 1-.462-.119l-6.351-3.38c-8.652-4.6-8.656-4.604-8.728-4.655l-.087-.068c-.438-.36-.68-.919-.68-1.578v-6.274l16.549 8.925.11.182s.881 1.476 2.021 3.454l.226.389-1.829 2.722a.92.92 0 0 1-.769.402"/><path fill="#fff" d="M190.071 144.919l38.727-18.845-18.491-9.994-32.264 17.475c-1.209.654-2.354 1.863-3.12 3.292l15.148 8.072"/><path fill="#252323" d="M176.016 136.559l14.072 7.5 37.033-18.02-16.812-9.087-31.863 17.257c-.888.48-1.763 1.333-2.43 2.35zm14.04 9.219l-16.197-8.63.343-.642c.839-1.563 2.092-2.877 3.438-3.607l32.669-17.692 20.169 10.902-40.422 19.669"/><path fill="#252323" d="M230.591 153.388l-54.548 29.542c-1.009.547-1.827.104-1.827-.991v-6.119c0-.843.267-1.805.76-2.723l15.094-28.178c.766-1.429 1.911-2.637 3.12-3.293l37.401-20.254c1.009-.547 1.827-.105 1.827.989v28.057c0 1.094-.818 2.423-1.827 2.97"/><path fill="#252323" d="M231.408 121.893a.923.923 0 0 0-.413.133l-37.401 20.254c-1.064.578-2.113 1.691-2.803 2.978l-15.095 28.178c-.434.813-.673 1.66-.673 2.384v6.119c0 .281.081.429.132.458.051.024.228.018.486-.121l54.546-29.542c.76-.412 1.426-1.494 1.426-2.316V122.36c0-.279-.082-.426-.132-.454a.148.148 0 0 0-.073-.013zm-56.183 62.026c-.314 0-.611-.07-.876-.214-.596-.323-.94-.966-.94-1.766v-6.119c0-.956.302-2.042.848-3.062l15.095-28.179c.837-1.562 2.089-2.878 3.436-3.607l37.399-20.256c.738-.398 1.502-.442 2.1-.12.596.323.938.967.938 1.764v28.058c0 1.355-.98 2.948-2.23 3.626l-.405-.656.405.656-54.548 29.54c-.41.223-.828.335-1.222.335"/><path fill="#01BBFF" d="M174.837 181.939h-1.24v-4.579h1.24v4.579z"/><path fill="#252323" d="M175.509 172.563l-15.148-8.073.797-1.312 15.148 8.071-.797 1.314zM186.85 151.445l-15.148-8.071.795-1.314 15.149 8.071-.796 1.314z"/><path fill="#01BBFF" d="M221.357 135.529c-.177-.032-.339-.057-.339-.057-.741-.072-1.683.298-2.689 1.385a5.504 5.504 0 0 0-1.227 2.101c-.385 1.254-.23 2.176.232 2.692 0 0 .933 1.265 3.012 1.718a.251.251 0 0 0 .26-.099l3.091-4.61.133-1.66a.197.197 0 0 0-.055-.159c-.237-.24-1.034-1.048-2.418-1.311"/><path fill="#01BBFF" d="M220.825 136.042c-.366 0-1.084.177-2.027 1.197a4.924 4.924 0 0 0-1.1 1.88c-.29.947-.249 1.755.111 2.155.064.081.802 1.034 2.42 1.466l2.862-4.268.109-1.357a3.863 3.863 0 0 0-1.959-1.016l-.324-.053a.866.866 0 0 0-.092-.004zm-.422 7.915a.897.897 0 0 1-.198-.022c-2.286-.5-3.335-1.896-3.38-1.955-.61-.675-.735-1.822-.318-3.183a6.082 6.082 0 0 1 1.354-2.321c1.328-1.436 2.482-1.653 3.22-1.582l.401.064c1.046.2 1.971.699 2.747 1.486.16.163.238.375.22.598l-.146 1.805-3.172 4.732a.875.875 0 0 1-.728.378"/><path fill="#252323" d="M224.699 138.6c0 1.645-1.231 3.644-2.748 4.465-1.518.822-2.748.157-2.748-1.488 0-1.643 1.23-3.642 2.748-4.464 1.517-.823 2.748-.156 2.748 1.487z"/><path fill="#01BBFF" d="M223.179 137.342c-.268 0-.583.094-.917.275-1.322.716-2.439 2.529-2.439 3.96 0 .571.181.996.495 1.166.312.17.796.105 1.324-.181 1.321-.716 2.438-2.529 2.438-3.962 0-.569-.18-.994-.495-1.164a.831.831 0 0 0-.406-.094zm-2.455 6.66c-.369 0-.715-.084-1.026-.253-.718-.388-1.114-1.161-1.114-2.172 0-1.857 1.341-4.038 3.058-4.969.933-.505 1.845-.569 2.563-.18.718.39 1.115 1.161 1.115 2.172 0 1.858-1.344 4.04-3.058 4.969-.531.287-1.053.433-1.538.433M214.184 145.625a17.69 17.69 0 0 0-.339-.057c-.741-.071-1.683.299-2.69 1.385a5.504 5.504 0 0 0-1.227 2.101c-.384 1.254-.23 2.176.234 2.691 0 0 .93 1.266 3.009 1.72a.254.254 0 0 0 .26-.099l3.092-4.611.134-1.66a.2.2 0 0 0-.055-.159c-.238-.239-1.034-1.049-2.418-1.311"/><path fill="#01BBFF" d="M213.639 146.137c-.574 0-1.296.42-2.016 1.198a4.905 4.905 0 0 0-1.099 1.881c-.291.947-.25 1.753.112 2.155.062.081.8 1.034 2.417 1.466l2.863-4.269.109-1.357a3.86 3.86 0 0 0-1.959-1.015l-.323-.055a1.19 1.19 0 0 0-.104-.004zm-.41 7.916a.899.899 0 0 1-.199-.022c-2.284-.499-3.336-1.896-3.379-1.956-.611-.675-.736-1.82-.318-3.182a6.074 6.074 0 0 1 1.353-2.321c1.33-1.435 2.482-1.653 3.221-1.583l.4.066c1.045.199 1.97.698 2.747 1.485a.749.749 0 0 1 .22.599l-.145 1.805-3.173 4.731a.873.873 0 0 1-.727.378"/><path fill="#252323" d="M217.525 148.697c0 1.645-1.23 3.643-2.748 4.465-1.519.822-2.748.156-2.748-1.488s1.229-3.642 2.748-4.465c1.518-.822 2.748-.155 2.748 1.488z"/><path fill="#01BBFF" d="M216.004 147.439c-.268 0-.583.093-.917.273-1.321.717-2.438 2.53-2.438 3.962 0 .57.182.994.495 1.166.314.169.794.104 1.322-.182 1.324-.715 2.439-2.529 2.439-3.961 0-.569-.18-.995-.495-1.165a.834.834 0 0 0-.406-.093zm-2.455 6.659c-.367 0-.714-.084-1.025-.251-.718-.391-1.113-1.162-1.113-2.173 0-1.857 1.342-4.039 3.055-4.969.934-.505 1.846-.569 2.564-.18.72.389 1.115 1.161 1.115 2.172 0 1.858-1.344 4.04-3.058 4.969-.53.287-1.053.432-1.538.432z"/><path fill="#01BBFF" d="M213.359 149.442l-1.031-.645 7.514-10.589 1.032.643-7.515 10.591M217.116 151.739l-1.032-.646 6.941-9.761 1.031.644-6.94 9.763M75.212 86.309c-1.81-1.224-4.888-.518-8.009 2.855-2.06 2.228-3.26 5.093-3.203 8.042V159.7c0 .918.52 1.768 1.367 2.231l73.119 39.917c1.232.673 2.779-.161 2.779-1.499v-63.638c.326-2.356 1.417-4.591 3.093-6.4 3.121-3.373 6.198-3.93 8.009-2.706L75.212 86.309"/><path fill="#252323" d="M73.282 86.516c-1.44 0-3.39.896-5.47 3.145-1.992 2.15-3.06 4.826-3.007 7.53l.001 62.51c0 .648.37 1.252.967 1.577l73.119 39.919c.47.256.887.087 1.045.002.156-.085.522-.339.522-.849v-63.638c.351-2.598 1.487-4.948 3.289-6.897 1.749-1.889 3.437-2.899 4.927-3.316L74.743 86.922c-.387-.26-.882-.406-1.46-.406zm66.133 116.329c-.458 0-.916-.114-1.334-.341l-73.119-39.919c-1.091-.594-1.77-1.699-1.77-2.884V97.206c-.059-3.066 1.15-6.103 3.402-8.537 3.803-4.111 7.248-4.186 9.053-3l76.525 40.961c.24.102.463.225.667.362l-.87 1.269-.537-.287c-1.393-.551-3.743-.108-6.466 2.833-1.594 1.723-2.598 3.797-2.901 6.001l.008 63.542c0 .901-.499 1.709-1.331 2.159-.415.225-.87.336-1.327.336"/><path fill="#252323" d="M123.589 193.682v-64.587c-.056-2.949 1.144-5.815 3.205-8.042 3.121-3.373 6.196-4.078 8.009-2.855L89.37 93.897c-1.813-1.224-4.888-.518-8.011 2.855-2.061 2.228-3.26 5.093-3.203 8.042v64.161l45.433 24.727"/><path fill="#252323" d="M78.962 168.52l43.821 23.849v-63.275c-.058-3.068 1.15-6.103 3.403-8.536 1.796-1.943 3.513-2.985 5.014-3.417L88.97 94.552c-1.416-.948-4.084-.457-7.003 2.697-1.991 2.15-3.059 4.825-3.007 7.531l.002 63.74zm45.435 26.475l-47.049-25.604v-64.597c-.058-3.066 1.15-6.103 3.401-8.537 3.83-4.136 7.29-4.187 9.09-2.974l44.808 23.961c.226.096.436.211.627.339l-.87 1.271-.495-.265c-1.444-.568-3.87.113-6.507 2.961-1.991 2.15-3.059 4.824-3.007 7.531l.002 65.914"/><path fill="#01BBFF" d="M128.372 115.371l-26.442-14.392.623-1.006 26.443 14.392-.624 1.006M70.845 100.477l63.084 33.977-63.084-33.977z"/><path fill="#252323" d="M133.53 135.11l-63.084-33.979.802-1.31 63.084 33.978-.802 1.311M112.382 15.87l.482.26c.451.245.876.379 1.279.404.4.025.772-.054 1.112-.238.342-.186.503-.374.479-.564-.024-.191-.235-.395-.635-.611l-.666-.361-2.051 1.11zm4.402 1.198a4.518 4.518 0 0 1-2.4.546c-.86-.04-1.716-.29-2.573-.754l-.629-.34-2.455 1.33-1.463-.793 6.906-3.74 2.205 1.196c.837.453 1.294.895 1.37 1.326.074.433-.246.841-.961 1.23M118.64 19.06l.475.256c.462.25.88.394 1.256.43.373.035.726-.036 1.058-.216.327-.177.449-.362.361-.56-.088-.198-.369-.424-.837-.68l-.446-.241-1.867 1.011zm-1.191.645l-2.648 1.435-1.465-.794 6.906-3.74 2.013 1.09c.937.51 1.462.978 1.571 1.407.108.429-.186.832-.881 1.208-.407.22-.88.355-1.42.405a5.602 5.602 0 0 1-1.694-.11c-.514 1.403-.84 2.313-.977 2.73l-1.625-.882 1.001-2.327-.781-.422M119.722 23.806l6.904-3.74 1.467.793-6.906 3.74-1.465-.793zM129.052 28.858l-1.86-1.007 2.22-4.457-.043-.023c-.862.532-1.491.906-1.884 1.118l-3.249 1.76-1.31-.71 6.905-3.738 1.847.999-2.172 4.426.034.018c.851-.512 1.46-.867 1.832-1.068l3.269-1.772 1.316.714-6.905 3.74M133.456 31.242l-1.465-.792 5.686-3.08-1.875-1.016 1.218-.66 5.216 2.824-1.219.66-1.875-1.016-5.686 3.08"/><path fill="#01BBFF" d="M93.1 160.519l-.007 15.292 29.513 16.063v-5.104l-23.541-12.765.006-10.249-5.97-3.237zM122.602 151.665l-8.823-4.784-20.66-25.244-.005 9.666 13.928 16.381-13.938 1.214-.008 9.725 20.909-2.703 8.597 4.66v-8.915M81.203 18.536c4.476 1.035 4.476 4.298 0 5.334a8.414 8.414 0 0 1-3.776 0c-4.476-1.036-4.476-4.297 0-5.334a8.417 8.417 0 0 1 3.776 0z"/><path fill="#252323" d="M79.315 19.079c-.57 0-1.14.063-1.695.19-1.665.387-2.744 1.146-2.744 1.934s1.079 1.547 2.744 1.934a7.56 7.56 0 0 0 3.39 0c1.667-.387 2.744-1.146 2.744-1.934s-1.077-1.547-2.742-1.933a7.542 7.542 0 0 0-1.697-.191zm0 5.76c-.699 0-1.4-.077-2.08-.235-2.45-.566-3.969-1.87-3.969-3.4 0-1.532 1.52-2.835 3.969-3.402a9.276 9.276 0 0 1 4.162 0c2.448.567 3.97 1.87 3.97 3.401 0 1.532-1.522 2.835-3.97 3.401a9.236 9.236 0 0 1-2.082.236z"/><path fill="#fff" d="M79.315 11.275c-1.869 0-3.384 1.422-3.384 3.175v4.5c0 .694.721 1.387 2.166 1.72.796.186 1.64.186 2.438 0 1.444-.333 2.166-1.026 2.166-1.72v-4.5c0-1.753-1.515-3.175-3.386-3.175z"/><path fill="#252323" d="M79.315 12.032c-1.422 0-2.578 1.085-2.578 2.418v4.5c0 .312.532.751 1.553.987.671.156 1.38.156 2.051 0 1.02-.236 1.553-.675 1.553-.988V14.45c0-1.333-1.156-2.418-2.579-2.418zm0 9.533c-.474 0-.95-.053-1.413-.16-2.049-.475-2.778-1.58-2.778-2.456V14.45c0-2.167 1.88-3.93 4.191-3.93 2.31 0 4.192 1.763 4.192 3.93v4.5c0 .875-.73 1.981-2.78 2.454-.462.108-.938.16-1.412.16"/><path fill="#252323" d="M79.315 21.565c-.474 0-.95-.053-1.413-.16-2.049-.474-2.778-1.58-2.778-2.456 0-.876.73-1.98 2.778-2.455l.388 1.468c-1.021.235-1.555.676-1.555.987 0 .313.534.752 1.554.988a4.57 4.57 0 0 0 2.052 0c1.02-.236 1.554-.675 1.554-.988 0-.311-.534-.752-1.554-.988l.387-1.467c2.049.474 2.779 1.58 2.779 2.455 0 .876-.73 1.982-2.78 2.455-.462.108-.938.16-1.412.16"/><path fill="#01BBFF" d="M209.294 53.618c4.476 1.037 4.476 4.3 0 5.334a8.416 8.416 0 0 1-3.776 0c-4.476-1.035-4.476-4.297 0-5.334a8.416 8.416 0 0 1 3.776 0z"/><path fill="#252323" d="M207.407 54.16c-.571 0-1.142.064-1.697.192-1.665.386-2.743 1.145-2.743 1.933 0 .789 1.078 1.547 2.743 1.934a7.546 7.546 0 0 0 3.392 0c1.665-.387 2.744-1.145 2.744-1.934 0-.788-1.079-1.547-2.744-1.933a7.521 7.521 0 0 0-1.695-.192zm-.002 5.763a9.24 9.24 0 0 1-2.08-.237c-2.449-.566-3.969-1.869-3.969-3.4 0-1.532 1.52-2.835 3.969-3.401a9.295 9.295 0 0 1 4.162 0c2.449.566 3.969 1.869 3.969 3.4 0 1.532-1.52 2.835-3.967 3.401a9.268 9.268 0 0 1-2.084.237"/><path fill="#fff" d="M207.407 46.358c-1.871 0-3.386 1.421-3.386 3.175v4.498c0 .695.723 1.388 2.166 1.722a5.41 5.41 0 0 0 2.438 0c1.444-.334 2.166-1.027 2.166-1.722v-4.498c0-1.754-1.515-3.175-3.384-3.175"/><path fill="#252323" d="M207.406 47.114c-1.422 0-2.579 1.085-2.579 2.419v4.498c0 .313.534.752 1.554.99a4.576 4.576 0 0 0 2.053-.002c1.018-.236 1.552-.675 1.552-.988v-4.498c0-1.334-1.157-2.42-2.58-2.42zm0 9.533c-.474 0-.949-.053-1.41-.16-2.05-.474-2.78-1.578-2.78-2.456v-4.498c0-2.168 1.879-3.931 4.19-3.931 2.311 0 4.193 1.763 4.193 3.93v4.5c0 .877-.731 1.982-2.78 2.456a6.331 6.331 0 0 1-1.413.159"/><path fill="#252323" d="M207.406 56.647c-.474 0-.949-.053-1.41-.16-2.05-.474-2.78-1.578-2.78-2.456 0-.876.73-1.98 2.779-2.455l.386 1.468c-1.02.235-1.554.676-1.554.987 0 .313.534.752 1.554.99a4.576 4.576 0 0 0 2.053-.002c1.018-.236 1.552-.675 1.552-.988 0-.31-.534-.752-1.554-.987l.387-1.468c2.049.474 2.779 1.58 2.779 2.455 0 .878-.73 1.983-2.779 2.457a6.331 6.331 0 0 1-1.413.159"/><path fill="#252323" fill-rule="evenodd" d="M68.905 102.413l68.694 37.205v74.409l-68.694-37.205v-74.409z" clip-rule="evenodd"/><path fill="#EC268F" d="M100.296 133.043l.783.424v19.266l-1.124-.608v-19.266l.341.184z"/><path fill="#00AFEF" d="M78.357 140.055v-18.893l1.357.735 7.268 21.354 7.183-13.528 1.357.735v19.266l-1.124-.609V132.21l-7.015 13.008-.374-.202-.022.044-.024-.07-.465-.251-7.017-20.609v16.906l-1.124-.609v-.372z"/><path fill="#FFF212" d="M107.989 134.487v-.837l8.68 4.701v1.209l-8.68-4.701v-.372z"/><path fill="#EC268F" d="M99.927 130.186v-.902l1.176.637v1.271l-1.176-.637v-.369z"/><path fill="#FEFEFE" d="M115.817 173.401l.649.699-6.573 12.046c-.401.723-.849 1.183-1.341 1.381-.519.21-1.082.134-1.692-.226a4.47 4.47 0 0 1-1.025-.663 9.683 9.683 0 0 1-1.097-1.108l-.277-.326.47-.761.299.314c.363.378.682.679.954.901.25.201.456.333.621.398l.046.02c.382.207.731.238 1.047.094.344-.16.654-.524.929-1.09l.734-1.367-5.446-16.394.964-.002 5.127 15.457 5.295-9.717.316.344zM93 172.636v7.158l-1.127-.61v-18.79l1.127.611v2.663c.387-.48.84-.803 1.366-.96.865-.266 1.912-.083 3.132.545l.03.017c1.745 1.078 3.083 2.503 4.015 4.269.912 1.732 1.415 3.782 1.506 6.137v.021c-.031 2.329-.495 3.858-1.396 4.581-.921.736-2.27.64-4.053-.293l-.011-.006a10.148 10.148 0 0 1-3.199-2.878 12.81 12.81 0 0 1-1.39-2.465zm4.614 4.139c1.406.729 2.464.802 3.173.216.728-.603 1.108-1.904 1.138-3.897-.085-2.034-.503-3.769-1.25-5.21-.726-1.399-1.784-2.537-3.169-3.409-1.415-.641-2.495-.664-3.237-.057-.758.622-1.184 1.895-1.269 3.828.115 1.976.558 3.674 1.33 5.095.761 1.395 1.855 2.541 3.284 3.434zM73.892 164.588v-18.897c1.72.932 3.437 1.856 5.157 2.796 3.1 1.715 5.444 3.785 7.026 6.211 1.591 2.439 2.402 5.208 2.43 8.304v.324c.013.415.016.813.002 1.192-.085 2.609-.835 4.232-2.245 4.871-1.401.634-3.445.283-6.127-1.051a25.829 25.829 0 0 1-1.492-.808l-4.751-2.57v-.372zm1.126-17.066v16.825l3.636 1.969c3.055 1.78 5.303 2.369 6.748 1.768 1.432-.594 2.091-2.377 1.979-5.343v-.015c0-2.851-.72-5.372-2.157-7.555-1.448-2.201-3.644-4.096-6.581-5.686l-3.625-1.963z"/><path fill="#FFF212" d="M119.239 143.672l-.003 38.601 11.917-5.986.838 1.361-7.43 3.637 8.051 14.897-.904.24-7.993-14.797-4.479 2.253v5.464l-1.124-.608c0-14.724-.003-29.453 0-44.175l-11.472 11.186-1.22-.661v-19.265l1.033.559v17.394l11.472-11.181 1.314.712v.369z"/></svg>