<svg width="360" height="357" viewBox="0 0 360 357" fill="none" xmlns="http://www.w3.org/2000/svg">
<path d="M258.122 344.61L255.988 345.765C255.77 345.883 255.389 345.867 255.136 345.732L253.124 344.643C252.873 344.506 252.844 344.299 253.065 344.181L255.198 343.024C255.416 342.906 255.797 342.922 256.05 343.059L258.06 344.146C258.313 344.284 258.34 344.49 258.122 344.61" fill="#252323"/>
<path d="M263.084 347.297L260.951 348.454C260.733 348.571 260.35 348.556 260.099 348.419L258.087 347.331C257.834 347.194 257.807 346.988 258.026 346.868L260.159 345.713C260.379 345.595 260.76 345.61 261.013 345.746L263.023 346.835C263.276 346.972 263.303 347.179 263.084 347.297" fill="#252323"/>
<path d="M257.855 350.13L255.722 351.285C255.504 351.403 255.121 351.389 254.87 351.252L252.858 350.163C252.607 350.026 252.578 349.819 252.796 349.701L254.929 348.546C255.15 348.426 255.53 348.442 255.784 348.579L257.793 349.668C258.046 349.803 258.073 350.012 257.855 350.13" fill="#252323"/>
<path d="M268.049 349.985L265.916 351.14C265.696 351.26 265.315 351.244 265.062 351.107L263.052 350.018C262.799 349.882 262.772 349.676 262.991 349.557L265.124 348.401C265.342 348.284 265.725 348.297 265.976 348.434L267.988 349.523C268.241 349.661 268.268 349.867 268.049 349.985" fill="#252323"/>
<path d="M262.819 352.819L260.686 353.974C260.468 354.092 260.085 354.076 259.831 353.941L257.822 352.851C257.569 352.714 257.542 352.507 257.76 352.39L259.893 351.234C260.111 351.115 260.494 351.13 260.748 351.268L262.757 352.355C263.011 352.492 263.037 352.699 262.819 352.819" fill="#252323"/>
<path d="M273.301 352.83L271.168 353.985C270.95 354.105 270.567 354.089 270.313 353.952L268.304 352.864C268.051 352.728 268.024 352.519 268.242 352.402L270.375 351.247C270.593 351.129 270.976 351.143 271.228 351.279L273.239 352.369C273.492 352.506 273.519 352.713 273.301 352.83" fill="#252323"/>
<path d="M268.072 355.664L265.939 356.818C265.721 356.937 265.338 356.921 265.085 356.786L263.075 355.697C262.822 355.559 262.795 355.352 263.013 355.235L265.146 354.078C265.365 353.96 265.748 353.976 266.001 354.113L268.01 355.2C268.264 355.337 268.29 355.544 268.072 355.664Z" fill="#252323"/>
<path d="M278.531 349.999L276.398 351.154C276.178 351.272 275.797 351.258 275.544 351.12L273.534 350.032C273.281 349.895 273.254 349.688 273.472 349.57L275.606 348.415C275.824 348.295 276.207 348.311 276.458 348.447L278.469 349.537C278.721 349.672 278.75 349.879 278.531 349.999" fill="#252323"/>
<path d="M283.76 347.165L281.626 348.32C281.408 348.44 281.027 348.425 280.774 348.287L278.764 347.2C278.511 347.063 278.484 346.856 278.703 346.736L280.836 345.581C281.054 345.464 281.437 345.479 281.688 345.614L283.7 346.704C283.951 346.841 283.98 347.047 283.76 347.165" fill="#252323"/>
<path d="M288.988 344.334L286.855 345.489C286.637 345.607 286.256 345.593 286.003 345.456L283.993 344.367C283.74 344.229 283.713 344.023 283.931 343.905L286.065 342.75C286.283 342.63 286.664 342.646 286.917 342.783L288.929 343.872C289.18 344.009 289.209 344.216 288.988 344.334" fill="#252323"/>
<path d="M294.218 341.502L292.085 342.657C291.867 342.775 291.486 342.76 291.233 342.624L289.221 341.535C288.97 341.398 288.941 341.191 289.161 341.073L291.294 339.917C291.513 339.799 291.893 339.814 292.147 339.951L294.156 341.039C294.41 341.176 294.436 341.383 294.218 341.502Z" fill="#252323"/>
<path d="M299.448 338.669L297.315 339.824C297.097 339.944 296.714 339.928 296.463 339.791L294.451 338.702C294.2 338.566 294.171 338.358 294.391 338.24L296.525 337.085C296.743 336.967 297.124 336.981 297.377 337.118L299.387 338.207C299.64 338.344 299.667 338.551 299.448 338.669Z" fill="#252323"/>
<path d="M304.679 335.837L302.546 336.992C302.328 337.11 301.945 337.097 301.693 336.96L299.682 335.87C299.431 335.733 299.402 335.527 299.62 335.409L301.753 334.254C301.973 334.134 302.354 334.149 302.608 334.287L304.617 335.376C304.87 335.511 304.897 335.718 304.679 335.837" fill="#252323"/>
<path d="M309.908 333.004L307.775 334.159C307.557 334.279 307.174 334.263 306.923 334.126L304.911 333.039C304.658 332.901 304.631 332.695 304.849 332.575L306.983 331.42C307.201 331.302 307.584 331.318 307.837 331.453L309.847 332.542C310.1 332.679 310.127 332.886 309.908 333.004" fill="#252323"/>
<path d="M315.137 330.173L313.004 331.328C312.786 331.445 312.403 331.432 312.15 331.295L310.14 330.205C309.887 330.068 309.86 329.862 310.078 329.744L312.211 328.589C312.43 328.469 312.813 328.484 313.066 328.622L315.075 329.711C315.329 329.848 315.355 330.055 315.137 330.173Z" fill="#252323"/>
<path d="M320.367 327.341L318.234 328.496C318.014 328.614 317.633 328.598 317.38 328.461L315.37 327.374C315.117 327.237 315.09 327.03 315.309 326.912L317.442 325.755C317.66 325.637 318.043 325.653 318.294 325.79L320.306 326.877C320.559 327.015 320.586 327.221 320.367 327.341" fill="#252323"/>
<path d="M278.264 355.519L276.131 356.673C275.912 356.792 275.531 356.778 275.278 356.641L273.269 355.552C273.015 355.414 272.989 355.207 273.207 355.09L275.34 353.935C275.558 353.815 275.941 353.831 276.192 353.968L278.204 355.057C278.455 355.194 278.484 355.401 278.264 355.519Z" fill="#252323"/>
<path d="M283.494 352.687L281.36 353.842C281.142 353.96 280.761 353.944 280.508 353.809L278.496 352.72C278.245 352.583 278.216 352.376 278.437 352.258L280.57 351.102C280.788 350.984 281.169 350.999 281.422 351.136L283.434 352.223C283.685 352.361 283.714 352.567 283.494 352.687Z" fill="#252323"/>
<path d="M288.722 349.854L286.589 351.009C286.371 351.129 285.988 351.113 285.737 350.976L283.725 349.887C283.474 349.751 283.445 349.543 283.665 349.425L285.799 348.27C286.017 348.153 286.398 348.166 286.651 348.303L288.66 349.392C288.914 349.529 288.941 349.736 288.722 349.854Z" fill="#252323"/>
<path d="M293.953 347.022L291.82 348.177C291.602 348.295 291.219 348.282 290.967 348.144L288.956 347.055C288.705 346.918 288.676 346.711 288.894 346.594L291.027 345.439C291.247 345.319 291.628 345.334 291.882 345.471L293.891 346.561C294.144 346.696 294.171 346.903 293.953 347.022" fill="#252323"/>
<path d="M299.182 344.189L297.049 345.346C296.831 345.464 296.448 345.448 296.197 345.311L294.185 344.224C293.932 344.087 293.905 343.88 294.124 343.76L296.257 342.605C296.477 342.487 296.858 342.503 297.111 342.638L299.121 343.727C299.374 343.865 299.401 344.071 299.182 344.189" fill="#252323"/>
<path d="M304.413 341.357L302.28 342.512C302.061 342.63 301.678 342.617 301.425 342.48L299.416 341.39C299.162 341.253 299.136 341.046 299.354 340.929L301.487 339.774C301.705 339.654 302.088 339.669 302.341 339.806L304.351 340.896C304.604 341.033 304.631 341.24 304.413 341.357Z" fill="#252323"/>
<path d="M309.642 338.526L307.508 339.681C307.29 339.799 306.907 339.783 306.654 339.648L304.644 338.559C304.391 338.422 304.364 338.215 304.583 338.097L306.716 336.94C306.934 336.822 307.317 336.838 307.568 336.975L309.58 338.062C309.833 338.199 309.86 338.406 309.642 338.526" fill="#252323"/>
<path d="M314.872 335.692L312.739 336.847C312.518 336.967 312.137 336.952 311.884 336.815L309.875 335.725C309.621 335.59 309.595 335.381 309.813 335.264L311.946 334.109C312.164 333.991 312.547 334.004 312.798 334.141L314.81 335.231C315.061 335.368 315.09 335.575 314.872 335.692" fill="#252323"/>
<path d="M320.1 332.861L317.967 334.016C317.749 334.134 317.368 334.12 317.115 333.983L315.105 332.894C314.852 332.757 314.825 332.55 315.043 332.432L317.176 331.277C317.395 331.157 317.778 331.173 318.029 331.31L320.04 332.399C320.292 332.535 320.32 332.741 320.1 332.861Z" fill="#252323"/>
<path d="M39.1027 225.664L36.9696 226.821C36.7513 226.939 36.3684 226.923 36.1172 226.786L34.1055 225.699C33.8543 225.561 33.8255 225.355 34.0438 225.235L36.1769 224.08C36.3972 223.962 36.7781 223.978 37.0313 224.113L39.0409 225.202C39.2941 225.339 39.3209 225.546 39.1027 225.664" fill="#252323"/>
<path d="M44.0667 228.353L41.9336 229.508C41.7153 229.627 41.3324 229.612 41.0791 229.475L39.0696 228.386C38.8163 228.25 38.7896 228.044 39.0078 227.924L41.1409 226.769C41.3592 226.651 41.7421 226.665 41.9933 226.802L44.0049 227.891C44.2582 228.028 44.285 228.235 44.0667 228.353" fill="#252323"/>
<path d="M38.8364 231.186L36.7033 232.341C36.4851 232.459 36.1021 232.443 35.8509 232.308L33.8393 231.219C33.586 231.082 33.5593 230.875 33.7775 230.757L35.9106 229.6C36.1289 229.482 36.5119 229.498 36.7651 229.635L38.7746 230.722C39.0279 230.859 39.0546 231.066 38.8364 231.186" fill="#252323"/>
<path d="M49.028 231.041L46.8949 232.196C46.6767 232.316 46.2957 232.3 46.0425 232.163L44.0329 231.074C43.7797 230.937 43.753 230.73 43.9712 230.612L46.1043 229.457C46.3225 229.34 46.7055 229.353 46.9567 229.49L48.9683 230.58C49.2195 230.717 49.2483 230.923 49.028 231.041" fill="#252323"/>
<path d="M43.7998 233.873L41.6667 235.03C41.4464 235.147 41.0655 235.132 40.8122 234.995L38.8027 233.907C38.5494 233.77 38.5226 233.564 38.7409 233.444L40.874 232.289C41.0923 232.171 41.4752 232.186 41.7264 232.322L43.738 233.411C43.9892 233.548 44.018 233.755 43.7998 233.873" fill="#252323"/>
<path d="M54.2817 233.886L52.1487 235.041C51.9284 235.159 51.5474 235.145 51.2942 235.008L49.2846 233.919C49.0314 233.782 49.0046 233.575 49.2228 233.457L51.3559 232.302C51.5742 232.183 51.9571 232.198 52.2083 232.335L54.22 233.424C54.4711 233.562 54.5 233.768 54.2817 233.886" fill="#252323"/>
<path d="M49.0529 236.718L46.9198 237.873C46.6995 237.992 46.3186 237.977 46.0654 237.84L44.0558 236.752C43.8026 236.615 43.7758 236.409 43.994 236.289L46.1272 235.134C46.3454 235.016 46.7284 235.032 46.9795 235.167L48.9912 236.256C49.2444 236.393 49.2712 236.6 49.0529 236.718" fill="#252323"/>
<path d="M59.5099 231.055L57.3768 232.21C57.1586 232.327 56.7777 232.312 56.5244 232.177L54.5149 231.087C54.2616 230.95 54.2348 230.744 54.4531 230.626L56.5861 229.469C56.8044 229.351 57.1874 229.367 57.4386 229.504L59.4502 230.591C59.7014 230.728 59.7302 230.935 59.5099 231.055" fill="#252323"/>
<path d="M64.7397 228.221L62.6066 229.376C62.3883 229.496 62.0075 229.48 61.7542 229.343L59.7426 228.254C59.4914 228.119 59.4626 227.91 59.6829 227.792L61.816 226.637C62.0342 226.519 62.4151 226.533 62.6684 226.67L64.68 227.759C64.9312 227.897 64.96 228.103 64.7397 228.221Z" fill="#252323"/>
<path d="M69.97 225.39L67.8369 226.545C67.6186 226.663 67.2356 226.649 66.9844 226.512L64.9729 225.423C64.7217 225.285 64.6928 225.079 64.9132 224.961L67.0462 223.806C67.2645 223.686 67.6454 223.702 67.8987 223.839L69.9082 224.928C70.1615 225.063 70.1882 225.27 69.97 225.39" fill="#252323"/>
<path d="M75.1991 222.556L73.066 223.711C72.8477 223.831 72.4648 223.816 72.2136 223.678L70.202 222.591C69.9508 222.454 69.9219 222.247 70.1402 222.127L72.2733 220.972C72.4936 220.855 72.8745 220.87 73.1278 221.005L75.1373 222.095C75.3906 222.232 75.4174 222.438 75.1991 222.556" fill="#252323"/>
<path d="M80.4301 219.725L78.297 220.88C78.0788 220.998 77.6958 220.984 77.4446 220.847L75.433 219.758C75.1797 219.621 75.153 219.414 75.3713 219.296L77.5043 218.141C77.7246 218.021 78.1055 218.037 78.3588 218.174L80.3683 219.263C80.6216 219.4 80.6484 219.607 80.4301 219.725" fill="#252323"/>
<path d="M85.6588 216.893L83.5257 218.048C83.3075 218.166 82.9245 218.15 82.6713 218.015L80.6617 216.926C80.4085 216.789 80.3817 216.582 80.5999 216.462L82.733 215.307C82.9513 215.19 83.3342 215.205 83.5875 215.342L85.5971 216.43C85.8503 216.567 85.8771 216.773 85.6588 216.893Z" fill="#252323"/>
<path d="M59.244 236.575L57.1109 237.73C56.8927 237.847 56.5118 237.834 56.2585 237.697L54.2469 236.607C53.9957 236.47 53.9669 236.264 54.1872 236.146L56.3203 234.991C56.5386 234.871 56.9195 234.886 57.1727 235.024L59.1843 236.113C59.4355 236.248 59.4623 236.455 59.244 236.575Z" fill="#252323"/>
<path d="M64.4743 233.741L62.3412 234.898C62.123 235.016 61.74 235.001 61.4888 234.864L59.4772 233.776C59.226 233.639 59.1972 233.432 59.4175 233.313L61.5506 232.158C61.7688 232.04 62.1497 232.055 62.403 232.19L64.4125 233.28C64.6658 233.417 64.6926 233.624 64.4743 233.741" fill="#252323"/>
<path d="M69.705 230.91L67.5718 232.065C67.3536 232.182 66.9706 232.169 66.7195 232.032L64.7078 230.943C64.4566 230.805 64.4278 230.599 64.6461 230.481L66.7791 229.326C66.9994 229.206 67.3804 229.222 67.6336 229.359L69.6432 230.448C69.8964 230.585 69.9232 230.792 69.705 230.91" fill="#252323"/>
<path d="M74.9344 228.078L72.8013 229.233C72.583 229.351 72.2001 229.336 71.9489 229.2L69.9373 228.111C69.684 227.974 69.6573 227.767 69.8755 227.649L72.0086 226.492C72.2289 226.375 72.6098 226.39 72.8631 226.527L74.8726 227.615C75.1259 227.752 75.1527 227.958 74.9344 228.078" fill="#252323"/>
<path d="M80.1647 225.245L78.0316 226.4C77.8134 226.519 77.4304 226.504 77.1771 226.367L75.1675 225.278C74.9143 225.142 74.8876 224.934 75.1058 224.816L77.2389 223.661C77.4571 223.543 77.8401 223.557 78.0934 223.694L80.1029 224.783C80.3562 224.92 80.3829 225.127 80.1647 225.245Z" fill="#252323"/>
<path d="M85.3935 222.413L83.2603 223.568C83.04 223.686 82.6591 223.673 82.4059 223.536L80.3963 222.446C80.1431 222.309 80.1163 222.102 80.3346 221.985L82.4677 220.83C82.6859 220.71 83.0689 220.725 83.3201 220.862L85.3317 221.952C85.5849 222.087 85.6117 222.294 85.3935 222.413" fill="#252323"/>
<path d="M217.482 303.234L215.349 304.389C215.129 304.509 214.748 304.494 214.495 304.357L212.485 303.267C212.232 303.13 212.205 302.923 212.423 302.806L214.557 301.651C214.775 301.533 215.158 301.546 215.409 301.683L217.42 302.773C217.672 302.91 217.701 303.117 217.482 303.234" fill="#252323"/>
<path d="M222.445 305.923L220.311 307.078C220.093 307.196 219.712 307.182 219.459 307.045L217.447 305.956C217.196 305.819 217.167 305.612 217.388 305.494L219.521 304.339C219.739 304.219 220.12 304.235 220.373 304.372L222.385 305.461C222.636 305.597 222.663 305.805 222.445 305.923Z" fill="#252323"/>
<path d="M217.215 308.755L215.082 309.91C214.863 310.029 214.482 310.014 214.229 309.877L212.22 308.788C211.966 308.652 211.94 308.446 212.158 308.326L214.291 307.171C214.509 307.053 214.892 307.067 215.143 307.204L217.155 308.293C217.406 308.43 217.435 308.637 217.215 308.755Z" fill="#252323"/>
<path d="M227.408 308.612L225.275 309.767C225.057 309.885 224.674 309.869 224.423 309.734L222.411 308.645C222.16 308.507 222.131 308.301 222.349 308.183L224.482 307.028C224.703 306.908 225.084 306.924 225.337 307.061L227.346 308.148C227.6 308.285 227.626 308.492 227.408 308.612" fill="#252323"/>
<path d="M222.179 311.443L220.046 312.598C219.828 312.718 219.445 312.702 219.194 312.565L217.182 311.476C216.931 311.339 216.902 311.132 217.122 311.014L219.255 309.859C219.474 309.742 219.855 309.755 220.108 309.892L222.117 310.982C222.371 311.119 222.397 311.325 222.179 311.443Z" fill="#252323"/>
<path d="M232.661 311.457L230.528 312.612C230.31 312.729 229.927 312.714 229.676 312.579L227.664 311.489C227.413 311.352 227.384 311.146 227.603 311.028L229.736 309.871C229.956 309.753 230.337 309.769 230.59 309.906L232.6 310.993C232.853 311.13 232.88 311.337 232.661 311.457" fill="#252323"/>
<path d="M227.432 314.288L225.299 315.443C225.081 315.561 224.698 315.548 224.447 315.411L222.435 314.321C222.184 314.184 222.155 313.977 222.375 313.86L224.509 312.705C224.727 312.585 225.108 312.6 225.361 312.737L227.371 313.827C227.624 313.964 227.651 314.171 227.432 314.288Z" fill="#252323"/>
<path d="M237.891 308.623L235.758 309.778C235.54 309.898 235.157 309.883 234.905 309.746L232.894 308.656C232.641 308.521 232.614 308.312 232.832 308.195L234.965 307.04C235.185 306.922 235.566 306.935 235.82 307.072L237.829 308.162C238.082 308.299 238.109 308.506 237.891 308.623" fill="#252323"/>
<path d="M243.121 305.792L240.988 306.947C240.77 307.065 240.387 307.051 240.134 306.914L238.124 305.825C237.871 305.687 237.844 305.481 238.062 305.363L240.195 304.208C240.414 304.088 240.797 304.104 241.05 304.241L243.059 305.33C243.313 305.465 243.34 305.672 243.121 305.792Z" fill="#252323"/>
<path d="M248.351 302.958L246.218 304.115C246 304.233 245.617 304.218 245.364 304.08L243.354 302.993C243.101 302.856 243.074 302.649 243.293 302.529L245.426 301.374C245.644 301.257 246.027 301.272 246.278 301.407L248.29 302.497C248.543 302.634 248.57 302.84 248.351 302.958" fill="#252323"/>
<path d="M253.58 300.127L251.447 301.282C251.227 301.4 250.846 301.386 250.593 301.249L248.583 300.16C248.33 300.023 248.303 299.816 248.521 299.698L250.654 298.543C250.873 298.423 251.256 298.439 251.507 298.576L253.518 299.665C253.772 299.802 253.798 300.009 253.58 300.127" fill="#252323"/>
<path d="M237.626 314.143L235.492 315.3C235.274 315.418 234.891 315.403 234.638 315.266L232.628 314.178C232.375 314.041 232.348 313.834 232.567 313.715L234.7 312.56C234.918 312.442 235.301 312.457 235.554 312.592L237.564 313.682C237.817 313.819 237.844 314.026 237.626 314.143Z" fill="#252323"/>
<path d="M242.856 311.312L240.723 312.467C240.502 312.585 240.121 312.571 239.868 312.434L237.859 311.345C237.605 311.208 237.579 311.001 237.797 310.883L239.93 309.728C240.148 309.61 240.531 309.624 240.782 309.761L242.794 310.85C243.047 310.988 243.074 311.194 242.856 311.312" fill="#252323"/>
<path d="M248.085 308.48L245.951 309.635C245.731 309.753 245.35 309.738 245.097 309.602L243.087 308.513C242.834 308.376 242.807 308.169 243.026 308.051L245.159 306.895C245.377 306.777 245.76 306.792 246.011 306.929L248.023 308.017C248.274 308.154 248.303 308.36 248.085 308.48" fill="#252323"/>
<path d="M253.313 305.647L251.18 306.802C250.961 306.922 250.581 306.906 250.327 306.769L248.318 305.68C248.064 305.545 248.038 305.336 248.256 305.218L250.389 304.063C250.607 303.945 250.99 303.959 251.241 304.096L253.253 305.185C253.504 305.323 253.533 305.529 253.313 305.647Z" fill="#252323"/>
<path d="M352.707 114.529C352.804 114.241 352.666 113.94 352.382 113.797L335.202 105.1C332.41 103.972 328.941 104.265 325.169 106.307L316.173 111.18C313.731 112.503 311.75 116.053 311.75 119.108V172.843C311.75 174.45 312.306 175.582 313.182 176.121L329.688 184.563C330.003 184.723 330.39 184.633 330.578 184.347C332.682 181.133 344.142 163.576 343.835 163.282C343.525 162.987 351.472 118.276 352.707 114.529" fill="#01BBFF"/>
<path d="M331.769 105.482C329.914 105.482 327.861 106.059 325.73 107.214L316.734 112.085C314.638 113.221 312.867 116.437 312.867 119.108V172.843C312.867 173.99 313.213 174.888 313.794 175.246L329.852 183.454C335.839 174.301 342.366 164.117 342.764 163.054L342.79 163.064C342.832 161.409 343.635 156.462 346.593 140.026C348.508 129.372 350.767 117.374 351.543 114.56L334.674 106.021C333.778 105.661 332.804 105.482 331.769 105.482V105.482ZM330.015 185.689C329.724 185.689 329.428 185.621 329.154 185.482L312.647 177.04C311.323 176.227 310.635 174.753 310.635 172.843V119.108C310.635 115.666 312.824 111.786 315.618 110.272L324.612 105.401C328.571 103.257 332.382 102.822 335.644 104.138L352.912 112.875C353.664 113.256 354.026 114.083 353.775 114.84C352.542 118.573 344.971 161.571 344.944 163.218H344.923C344.786 164.451 342.416 168.258 331.53 184.893C331.198 185.405 330.616 185.689 330.015 185.689" fill="#252323"/>
<path d="M332.173 130.656L349.8 121.109L323.82 107.038L316.173 111.179C313.731 112.503 311.75 116.053 311.75 119.108V119.593L332.173 130.656" fill="white"/>
<path d="M312.867 118.99L332.176 129.447L347.571 121.109L323.821 108.246L316.734 112.085C314.669 113.204 312.921 116.342 312.867 118.99ZM332.176 131.863L310.635 120.197V119.108C310.635 115.666 312.824 111.786 315.618 110.272L323.821 105.829L352.033 121.109L332.176 131.863" fill="#252323"/>
<path d="M354.459 173.161L333.211 184.669C330.769 185.992 328.788 184.588 328.788 181.532V127.796C328.788 124.74 330.769 121.19 333.211 119.867L342.206 114.996C351.416 110.007 358.882 115.303 358.882 126.822V165.233C358.882 168.288 356.903 171.838 354.459 173.161" fill="#252323"/>
<path d="M348.834 114.173C346.952 114.173 344.887 114.753 342.766 115.902L333.769 120.775C331.673 121.911 329.904 125.125 329.904 127.796V181.532C329.904 182.736 330.266 183.651 330.874 183.982C331.444 184.291 332.154 184.032 332.653 183.763L353.901 172.254C355.997 171.118 357.768 167.902 357.768 165.233V126.822C357.768 121.15 355.87 116.87 352.561 115.077C351.445 114.473 350.187 114.173 348.834 114.173V114.173ZM331.452 186.216C330.851 186.216 330.279 186.075 329.758 185.795C328.432 185.075 327.67 183.522 327.67 181.532V127.796C327.67 124.356 329.859 120.476 332.653 118.961L341.65 114.088C346.02 111.722 350.292 111.429 353.677 113.264C357.696 115.44 360 120.381 360 126.822V165.233C360 168.673 357.811 172.553 355.017 174.067L333.769 185.575C332.98 186.002 332.196 186.216 331.452 186.216" fill="#252323"/>
<path d="M288.8 184.559V136.539L226.881 130.081L229.308 162.268L280.434 183.354L288.8 184.559" fill="#01BBFF"/>
<path d="M280.75 182.34L287.684 183.34V137.476L228.087 131.261L230.375 161.563L280.75 182.34ZM289.918 185.78L279.986 184.312L228.244 162.971L225.674 128.903L289.918 135.603V185.78" fill="#252323"/>
<path d="M279.428 157.297L258.388 145.71L259.518 143.904L280.556 155.491L279.428 157.297" fill="#252323"/>
<path d="M88.0392 190.981C87.4298 190.718 86.633 190.778 85.7517 191.257L76.509 196.261C75.4981 196.81 74.5324 197.129 73.6347 197.264L75.2736 85.5647L68.059 87.4942V64.6838L60.2844 68.7244V195.725C60.2844 200.76 56.4835 206.938 51.8343 209.455L42.9211 214.284C41.2615 215.182 39.9808 216.627 39.4434 218.351C38.8319 220.321 39.2623 221.662 40.2115 222.139L50.5516 227.396C50.671 227.456 50.8151 227.45 50.9284 227.381L69.0226 216.285L94.7906 200.839L98.4535 196.769C98.6059 196.601 98.5545 196.346 98.3486 196.24L88.0392 190.981" fill="#01BBFF"/>
<path d="M61.4011 69.3407V195.725C61.4011 201.106 57.3594 207.673 52.3931 210.361L43.4799 215.19C42.0365 215.97 40.9576 217.229 40.517 218.645C40.0599 220.105 40.3131 221.003 40.7414 221.218L50.6924 226.276L68.414 215.41L94.0482 200.043L97.0131 196.75L87.548 191.922C87.2494 191.81 86.8026 191.895 86.3105 192.163L77.0678 197.169C75.9787 197.757 74.8853 198.137 73.8126 198.297L72.5031 198.494L72.5196 197.251L74.1379 86.9574L66.9418 88.8811V66.4609L61.4011 69.3407ZM50.7274 228.484C50.4865 228.484 50.2456 228.43 50.0253 228.32L39.6811 223.06C38.4869 222.458 37.513 220.826 38.3736 218.058C38.9831 216.101 40.3997 214.44 42.3639 213.376L51.2772 208.548C55.5557 206.232 59.1692 200.36 59.1692 195.725V68.1085L69.1758 62.909V86.1076L76.411 84.1723L74.7721 195.891C75.1612 195.75 75.5545 195.57 75.9498 195.356L85.1946 190.35C86.3558 189.722 87.5335 189.608 88.5095 190.033L88.5733 190.064L98.8826 195.323C99.2779 195.524 99.5498 195.875 99.6321 196.287C99.7165 196.7 99.597 197.121 99.3088 197.444L95.3906 201.722L69.6246 217.168L51.5407 228.256C51.2957 228.409 51.0116 228.484 50.7274 228.484" fill="#252323"/>
<path d="M68.3376 209.992L57.3983 204.14L57.3797 204.127C55.889 206.359 53.9577 208.3 51.8246 209.455L42.9093 214.284C42.1969 214.668 41.7275 215.248 41.1818 215.814L51.3326 221.218L54.5301 223.078L61.4791 220.907L66.8139 217.635L68.3376 209.992" fill="white"/>
<path d="M42.9517 215.555L51.8814 220.308L54.6714 221.931L60.9883 219.957L65.8021 217.003L67.0952 210.533L57.733 205.523C56.1764 207.622 54.3048 209.32 52.3818 210.361L43.4664 215.19C43.2832 215.288 43.1143 215.412 42.9517 215.555V215.555ZM54.3831 224.227L50.7428 222.108L39.4247 216.082L40.6107 214.84C41.0739 214.346 41.5989 213.784 42.3525 213.376L51.2658 208.548C53.1292 207.539 54.9637 205.772 56.4338 203.57L57.0865 202.591L58.0604 203.298L69.5803 209.451L67.822 218.267L61.8304 221.9L54.3831 224.227" fill="#252323"/>
<path d="M88.0391 190.946C87.4296 190.684 86.6329 190.744 85.7516 191.223L76.5089 196.227C75.4979 196.776 74.5323 197.094 73.6346 197.229L73.0745 198.96L83.6288 204.188L86.1428 205.988L94.7905 200.805L98.4534 196.735C98.6057 196.567 98.5543 196.312 98.3484 196.206L88.0391 190.946" fill="white"/>
<path d="M74.4094 198.438L84.3068 203.358L86.2011 204.712L94.0478 200.009L97.0127 196.715L87.5477 191.887C87.2553 191.773 86.8023 191.862 86.3102 192.128L77.0675 197.133C76.213 197.594 75.3565 197.928 74.5102 198.127L74.4094 198.438ZM86.0878 207.263L83.0262 205.075L71.7368 199.483L72.7704 196.298L73.4602 196.194C74.2611 196.076 75.0991 195.783 75.9495 195.321L85.1943 190.315C86.3535 189.687 87.5312 189.575 88.5071 189.996L88.573 190.027L98.8823 195.286C99.2797 195.491 99.5514 195.842 99.6338 196.258C99.7141 196.669 99.5947 197.09 99.3064 197.409L95.3903 201.687L86.0878 207.263Z" fill="#252323"/>
<path d="M78.5144 197.013V70.0109L70.7418 74.0515V201.054C70.7418 206.108 66.9595 212.256 62.2918 214.782L53.0491 219.789C51.1528 220.816 49.6168 223.313 49.6168 225.367C49.6168 227.42 51.1528 228.252 53.0491 227.225L70.7418 217.643L78.5144 213.604L96.2071 204.02C98.1034 202.995 99.6415 200.497 99.6415 198.442C99.6415 196.389 98.1034 195.557 96.2071 196.584L86.9644 201.591C82.2988 204.117 78.5144 202.068 78.5144 197.013" fill="#252323"/>
<path d="M71.8587 74.6675V201.053C71.8587 206.523 67.9014 212.953 62.8507 215.69L53.608 220.694C52.0494 221.538 50.7337 223.678 50.7337 225.366C50.7337 225.952 50.9005 226.392 51.1805 226.545C51.4564 226.695 51.9505 226.612 52.4921 226.319L70.1848 216.737L77.9739 212.688L95.6522 203.114C97.2108 202.27 98.5265 200.132 98.5265 198.444C98.5265 197.857 98.3597 197.416 98.0776 197.264C97.7955 197.111 97.3076 197.196 96.7681 197.49L87.5233 202.496C84.9064 203.912 82.3903 204.111 80.4343 203.051C78.4762 201.992 77.3994 199.848 77.3994 197.013V71.7877L71.8587 74.6675ZM51.5099 228.708C50.9911 228.708 50.499 228.592 50.0645 228.358C49.07 227.819 48.5018 226.728 48.5018 225.366C48.5018 222.942 50.254 220.094 52.4921 218.881L61.7347 213.876C66.0854 211.518 69.6268 205.766 69.6268 201.053V73.4352L79.6313 68.2358V197.013C79.6313 199.068 80.3129 200.569 81.5483 201.239C82.7857 201.909 84.5111 201.708 86.4074 200.683L95.6522 195.678C96.9102 194.996 98.2012 194.913 99.1957 195.452C100.188 195.991 100.758 197.08 100.758 198.444C100.758 200.868 99.0062 203.715 96.7681 204.928L79.0734 214.51L71.2843 218.558L53.608 228.132C52.8997 228.515 52.1812 228.708 51.5099 228.708" fill="#252323"/>
<path d="M70.1521 195.006L59.6945 188.891L60.8764 187.114L71.3318 193.229L70.1521 195.006Z" fill="#252323"/>
<path d="M70.1521 168.52L59.6945 162.405L60.8764 160.628L71.3318 166.743L70.1521 168.52Z" fill="#252323"/>
<path d="M72.327 113.148L71.4684 111.753L77.3056 108.591L78.1642 109.986L72.327 113.148Z" fill="#01BBFF"/>
<path d="M102.393 26.3061C101.938 26.0704 101.316 26.1071 100.626 26.4799L27.391 66.2522C25.7171 67.16 24.1296 68.8326 23.0693 70.8123L2.17073 109.827C1.48921 111.1 1.11652 112.431 1.11652 113.598V122.073C1.11652 122.716 1.33064 123.185 1.67449 123.467L1.73833 123.518C1.81863 123.576 20.615 133.561 22.5051 134.573C22.5731 134.612 22.6575 134.589 22.7007 134.527L29.695 124.12C29.6991 124.11 29.7074 124.103 29.7136 124.095L85.9749 71.3184L117.401 49.5548C117.411 49.5432 117.419 49.5317 117.426 49.5181L123.302 37.5915C123.335 37.5258 123.308 37.4486 123.242 37.4119L102.393 26.3061" fill="#01BBFF"/>
<path d="M101.752 27.2044C101.635 27.2044 101.439 27.2508 101.186 27.386L27.9485 67.1583C26.4722 67.9599 25.0206 69.4992 24.0673 71.2819L3.16667 110.297C2.56545 111.423 2.23395 112.595 2.23395 113.598V122.073C2.23395 122.415 2.32456 122.61 2.40692 122.68C2.58811 122.774 8.45412 125.893 13.6262 128.646C17.1986 130.546 20.635 132.373 22.2512 133.233L28.8812 123.402L85.1858 70.5789L116.521 48.8617L121.916 37.9105L101.853 27.2218C101.831 27.2103 101.798 27.2044 101.752 27.2044V27.2044ZM22.5745 135.64C22.3624 135.64 22.1462 135.589 21.9486 135.483C21.1085 135.031 16.9226 132.804 12.5267 130.467C1.1674 124.426 1.16124 124.422 1.06241 124.35C0.510606 123.904 0 123.24 0 122.073V113.598C0 112.277 0.417959 110.77 1.17154 109.358L22.0721 70.3433C23.2313 68.1781 24.965 66.3567 26.8325 65.3466L100.07 25.5743C101.065 25.0354 102.106 24.9659 102.93 25.3889L102.944 25.3947L123.793 36.5024C124.37 36.8076 124.596 37.4875 124.304 38.0495L118.061 50.3972L86.6373 72.1607L30.5778 124.764L23.6431 135.085C23.4022 135.443 22.9946 135.64 22.5745 135.64" fill="#252323"/>
<path d="M1.67449 123.467L1.73833 123.518C1.81863 123.576 20.615 133.561 22.5051 134.573C22.5731 134.612 22.6575 134.589 22.7007 134.527L24.8852 131.276C23.3101 128.545 22.0913 126.505 22.0913 126.505L1.11652 115.195V122.073C1.11652 122.716 1.33064 123.185 1.67449 123.467" fill="#252323"/>
<path d="M2.39868 122.672L2.43985 122.703C2.58809 122.774 8.45411 125.893 13.6262 128.646C17.1986 130.546 20.635 132.373 22.2512 133.235L23.5937 131.236C22.4901 129.333 21.6068 127.84 21.2671 127.269L2.23395 117.005V122.073C2.23395 122.401 2.31632 122.597 2.39868 122.672V122.672ZM22.5745 135.64C22.3624 135.64 22.1462 135.589 21.9486 135.483C21.1085 135.031 16.9226 132.804 12.5267 130.467C1.1674 124.426 1.16124 124.422 1.06241 124.35L0.938902 124.256C0.510637 123.904 0 123.24 0 122.073V113.385L22.9143 125.743L23.0646 125.994C23.0646 125.994 24.2855 128.039 25.8668 130.778L26.1777 131.317L23.6431 135.085C23.4022 135.443 22.9945 135.64 22.5745 135.64" fill="#252323"/>
<path d="M44.0455 81.9876L119.122 44.168L93.5164 30.3311L27.3906 66.2521C25.7166 67.1599 24.1292 68.8325 23.0688 70.8122L44.0455 81.9876" fill="white"/>
<path d="M24.5824 70.4145L44.0603 80.7922L116.826 44.1353L93.5188 31.5384L27.9509 67.1581C26.7176 67.8264 25.5048 69.0084 24.5824 70.4145V70.4145ZM44.0294 83.1833L21.5969 71.2315L22.0725 70.343C23.2317 68.1779 24.9654 66.3565 26.8328 65.3464L93.5146 29.1222L121.416 44.199L44.0294 83.1833" fill="#252323"/>
<path d="M121.603 81.9876L24.6236 134.619C23.2255 135.377 22.0911 134.762 22.0911 133.248V124.775C22.0911 123.608 22.4637 122.276 23.1452 121.003L44.0458 81.9876C45.1041 80.0098 46.6916 78.3352 48.3655 77.4293L121.603 37.6571C123.001 36.8999 124.134 37.5122 124.134 39.0284V77.8755C124.134 79.3898 123.001 81.2304 121.603 81.9876Z" fill="#252323"/>
<path d="M122.733 38.3797C122.616 38.3797 122.416 38.4241 122.161 38.5631L48.9251 78.3354C47.4467 79.135 45.9952 80.6763 45.0419 82.4591L24.1433 121.474C23.5401 122.598 23.2065 123.771 23.2065 124.775V133.248C23.2065 133.636 23.3197 133.841 23.3897 133.88C23.4597 133.917 23.7047 133.907 24.063 133.712L121.043 81.082C122.095 80.5122 123.017 79.0134 123.017 77.8757V39.0286C123.017 38.6404 122.904 38.4357 122.834 38.3971C122.813 38.3855 122.78 38.3797 122.733 38.3797V38.3797ZM23.4865 135.989C23.052 135.989 22.6403 135.891 22.2738 135.692C21.4481 135.245 20.9745 134.355 20.9745 133.248V124.775C20.9745 123.45 21.3925 121.944 22.1482 120.534L43.0467 81.5165C44.2059 79.3533 45.9416 77.5339 47.8071 76.5237L121.043 36.7515C122.064 36.1972 123.124 36.1373 123.948 36.5834C124.775 37.0315 125.249 37.9219 125.249 39.0286V77.8757C125.249 79.7512 123.892 81.955 122.161 82.8936L25.1811 135.525C24.6128 135.833 24.0321 135.989 23.4865 135.989" fill="#252323"/>
<path d="M22.9495 133.248H21.2323V126.905H22.9495V133.248Z" fill="#01BBFF"/>
<path d="M23.882 120.265L2.90723 109.088L4.01086 107.268L24.9835 118.446L23.882 120.265" fill="#252323"/>
<path d="M39.5835 91.0249L18.6088 79.8476L19.7124 78.0282L40.6871 89.2055L39.5835 91.0249Z" fill="#252323"/>
<path d="M309.171 201.913C309.169 201.874 309.171 196.347 309.171 196.347C309.171 196.19 309.049 196.057 308.885 196.03L296.79 194.145C296.751 194.139 296.712 194.125 296.677 194.106L106.031 90.6426C104.151 89.6228 101.305 89.5127 99.6768 90.3954L49.2465 117.974C49.2136 117.992 49.1765 118.005 49.1374 118.011L35.4802 120.379C35.3176 120.406 35.2002 120.539 35.2002 120.694V126.135V126.287C35.1837 126.992 35.4679 127.798 36.6909 128.462L238.291 237.859C240.173 238.877 243.016 238.989 244.645 238.106L308.088 203.481C308.856 203.064 309.202 202.5 309.171 201.915V201.913" fill="#01BBFF"/>
<path d="M36.3188 121.298L36.3168 126.312C36.3086 126.672 36.4136 127.102 37.2495 127.556L238.851 236.953C240.367 237.774 242.815 237.89 244.087 237.2L307.526 202.575C307.732 202.463 308.072 202.239 308.057 201.967V201.955C308.055 201.928 308.053 201.897 308.055 196.963L296.402 195.145L296.107 195.006L105.473 91.5482C103.96 90.7255 101.51 90.6076 100.235 91.301L49.6362 118.973L49.3295 119.042L36.3188 121.298ZM241.878 239.744C240.437 239.746 238.934 239.414 237.733 238.765L36.1336 129.368C34.402 128.431 34.0664 127.162 34.087 126.264V120.694C34.087 120.033 34.5893 119.467 35.2811 119.349L48.8024 117.005L99.1153 89.4912C101.086 88.4231 104.37 88.5313 106.589 89.7365L297.116 193.134L309.068 194.998C309.773 195.106 310.287 195.672 310.287 196.346C310.287 196.346 310.285 201.534 310.287 201.886C310.331 202.886 309.736 203.796 308.646 204.387L245.207 239.01C244.299 239.503 243.111 239.744 241.878 239.744" fill="#252323"/>
<path d="M39.2109 119.614L35.4162 120.271C35.2536 120.3 35.1362 120.431 35.1362 120.586V126.029V126.181C35.1197 126.886 35.4018 127.692 36.6269 128.354L39.2109 129.754V119.614Z" fill="#252323"/>
<path d="M241.653 238.699C242.771 238.73 243.852 238.541 244.645 238.11L308.088 203.485C308.856 203.068 309.202 202.504 309.171 201.919C309.169 201.878 309.171 196.35 309.171 196.35C309.171 196.194 309.05 196.061 308.885 196.034L296.79 194.149C296.751 194.143 296.712 194.129 296.677 194.11L252.728 170.309L241.653 160.217V238.699Z" fill="#252323"/>
<path d="M308.087 197.758L244.644 232.385C243.015 233.266 240.172 233.156 238.29 232.138L36.6903 122.739C34.8104 121.721 34.6066 120.18 36.2353 119.299L99.6762 84.6724C101.305 83.7917 104.15 83.9018 106.03 84.9197L307.63 194.319C309.512 195.336 309.716 196.878 308.087 197.758Z" fill="white"/>
<path d="M102.422 85.1284C101.586 85.1284 100.795 85.2751 100.235 85.5803L36.796 120.203C36.6292 120.292 36.2504 120.526 36.2504 120.792C36.2504 121.024 36.5118 121.434 37.249 121.834L238.851 231.232C240.366 232.053 242.816 232.169 244.087 231.478L307.53 196.853C307.693 196.766 308.071 196.532 308.071 196.266C308.071 196.034 307.81 195.622 307.075 195.224L105.473 85.8256C104.625 85.3659 103.484 85.1284 102.422 85.1284V85.1284ZM241.878 234.023C240.436 234.023 238.931 233.693 237.733 233.044L36.133 123.645C34.7885 122.919 34.0205 121.878 34.0205 120.792C34.0205 119.838 34.6238 118.963 35.6759 118.392L99.1148 83.7686C101.085 82.7025 104.369 82.8106 106.589 84.0139L308.191 193.413C309.533 194.139 310.303 195.178 310.303 196.266C310.303 197.22 309.698 198.095 308.646 198.666L245.207 233.289C244.299 233.782 243.111 234.023 241.878 234.023" fill="#252323"/>
<path d="M229.497 294.051L228.325 292.268L252.563 278.265C256.193 276.214 260.692 276.216 264.314 278.265L269.702 281.701C272.552 283.312 276.161 283.318 279.068 281.684L287.339 277.035C297.134 271.532 309.387 271.383 319.321 276.658L335.606 285.236C336.806 285.869 338.229 285.861 339.413 285.212C340.601 284.563 341.307 283.406 341.307 282.118V179.68H343.541V282.118C343.541 284.16 342.417 285.993 340.539 287.022C338.657 288.05 336.405 288.065 334.51 287.057L318.224 278.481C308.985 273.577 297.591 273.711 288.486 278.831L280.215 283.48C276.593 285.514 272.105 285.504 268.498 283.461L263.109 280.026C260.254 278.414 256.638 278.406 253.725 280.052L229.497 294.051" fill="#252323"/>
<path d="M343.54 256.358H341.306V248.633C341.306 244.681 342.554 240.863 344.914 237.591C347.022 234.665 348.136 231.252 348.136 227.723V175.981H350.37V227.723C350.37 231.671 349.122 235.489 346.763 238.763C344.652 241.687 343.54 245.1 343.54 248.633V256.358Z" fill="#252323"/>
<path d="M343.541 276.248H341.307V272.094C341.307 268.938 340.259 265.925 338.274 263.377C336.005 260.47 334.807 257.029 334.807 253.426V180.491H337.041V253.426C337.041 256.582 338.089 259.595 340.074 262.141C342.343 265.05 343.541 268.492 343.541 272.094V276.248" fill="#252323"/>
<path d="M250.558 286.846L240.304 285.962C240.287 285.96 240.271 285.956 240.255 285.948L237.784 285.946C234.823 284.343 233.674 284.668 231.111 286.056L228.743 287.343L228.37 287.331L215.592 289.352C215.537 289.361 215.493 289.408 215.493 289.462L215.479 295.891C215.479 297.073 216.206 298.074 217.929 299.007L225.039 302.825C228 304.428 232.478 304.602 235.043 303.213L248.941 295.681C250.039 295.088 250.605 294.302 250.665 293.473V286.957C250.665 286.899 250.617 286.85 250.558 286.846" fill="#01BBFF"/>
<path d="M216.608 290.251L216.598 295.891C216.598 296.442 216.812 297.193 218.488 298.101L225.594 301.915C228.202 303.329 232.271 303.503 234.486 302.307L248.386 294.775C248.893 294.5 249.506 294.039 249.552 293.403L249.55 287.81L240.089 286.995H237.486L237.227 286.854C234.653 285.461 233.951 285.728 231.67 286.962L229.028 288.397L228.447 288.38L216.608 290.251ZM230.687 305.199C228.534 305.199 226.277 304.704 224.482 303.733L217.374 299.916C215.348 298.817 214.364 297.502 214.364 295.891L214.38 288.581L215.4 288.32L228.297 286.282L228.462 286.286L230.552 285.15C233.263 283.684 234.828 283.207 238.077 284.899L240.614 284.938L251.675 285.882L251.782 286.956V293.473C251.689 294.757 250.882 295.841 249.502 296.586L235.602 304.119C234.264 304.843 232.512 305.199 230.687 305.199" fill="#252323"/>
<path d="M230.395 304.138C232.133 304.179 233.811 303.881 235.044 303.213L246.037 297.17V286.972L240.305 285.962C240.288 285.96 240.272 285.956 240.255 285.946L239.977 288.194L230.395 286.914V304.138" fill="#252323"/>
<path d="M231.514 288.119V303.068C232.683 302.987 233.713 302.727 234.487 302.307L244.921 296.571V287.841L241.226 287.19L240.954 289.38L231.514 288.119ZM230.706 305.189C230.595 305.189 230.482 305.187 230.369 305.183L229.282 305.158V285.707L239.002 287.007L239.34 284.274L240.666 284.965L247.153 286.105V297.77L235.609 304.117C234.324 304.812 232.594 305.189 230.706 305.189" fill="#252323"/>
<path d="M241.115 280.059L248.225 283.876C251.186 285.479 251.507 287.905 248.941 289.293L235.043 296.826C232.478 298.215 227.999 298.041 225.039 296.438L217.929 292.619C214.968 291.016 214.645 288.59 217.21 287.202L231.111 279.669C233.674 278.28 238.154 278.454 241.115 280.059Z" fill="#01BBFF"/>
<path d="M235.442 279.779C234.011 279.779 232.656 280.042 231.67 280.575L217.77 288.106C217.234 288.397 216.596 288.884 216.596 289.554C216.596 290.265 217.302 291.072 218.488 291.714L225.594 295.528C228.202 296.942 232.271 297.116 234.486 295.92L248.386 288.388C248.92 288.098 249.558 287.611 249.558 286.941C249.558 286.23 248.852 285.423 247.666 284.782L240.558 280.965C239.115 280.183 237.221 279.779 235.442 279.779V279.779ZM230.687 298.812C228.534 298.812 226.277 298.317 224.482 297.346L217.374 293.529C215.461 292.49 214.364 291.043 214.364 289.556C214.364 288.252 215.175 287.096 216.654 286.296L230.554 278.763C233.469 277.181 238.349 277.351 241.67 279.151L248.78 282.966C250.695 284.003 251.79 285.452 251.79 286.941C251.79 288.243 250.977 289.402 249.502 290.199L235.602 297.732C234.264 298.456 232.512 298.812 230.687 298.812" fill="#252323"/>
<path d="M226.102 302.615H223.868V296.227H226.102V302.615Z" fill="#252323"/>
<path d="M233.073 286.948C232.287 286.948 231.502 287.105 230.932 287.412C230.545 287.625 230.372 287.843 230.372 287.968C230.372 288.094 230.545 288.312 230.932 288.521C232.073 289.139 234.072 289.139 235.213 288.521C235.6 288.312 235.773 288.094 235.773 287.968C235.773 287.843 235.6 287.625 235.213 287.414V287.412C234.642 287.105 233.858 286.948 233.073 286.948V286.948ZM233.073 291.076C231.902 291.076 230.73 290.831 229.816 290.334C228.752 289.759 228.142 288.895 228.142 287.968C228.142 287.039 228.752 286.178 229.816 285.6C231.644 284.611 234.502 284.611 236.329 285.602V285.6C237.393 286.178 238.005 287.039 238.005 287.968C238.005 288.895 237.393 289.759 236.329 290.334C235.414 290.831 234.243 291.076 233.073 291.076Z" fill="white"/>
<path d="M343.928 177.426H342.211V147.645H343.928V177.426Z" fill="#01BBFF"/>
<path d="M347.212 150.293L340.236 154.069C338.688 154.909 337.432 154.019 337.432 152.082V145.466C337.432 143.529 338.688 141.279 340.236 140.439L347.212 136.663C348.761 135.823 350.017 136.713 350.017 138.65V145.266C350.017 147.203 348.761 149.453 347.212 150.293" fill="#252323"/>
<path d="M348.326 137.151C348.073 137.151 347.805 137.271 347.64 137.36L340.667 141.136C339.378 141.835 338.291 143.817 338.291 145.466V152.082C338.291 152.92 338.569 153.37 338.83 153.511C339.143 153.681 339.575 153.495 339.808 153.372L346.782 149.594C348.071 148.897 349.158 146.915 349.158 145.265V138.65C349.158 137.812 348.88 137.362 348.618 137.221C348.528 137.173 348.427 137.151 348.326 137.151ZM339.12 155.191C338.715 155.191 338.326 155.097 337.971 154.905C337.084 154.424 336.573 153.395 336.573 152.082V145.466C336.573 143.239 337.994 140.725 339.808 139.742L346.782 135.966C347.731 135.45 348.686 135.398 349.477 135.827C350.364 136.307 350.875 137.337 350.875 138.65V145.265C350.875 147.492 349.454 150.007 347.64 150.99L340.667 154.766C340.144 155.05 339.619 155.191 339.12 155.191" fill="#01BBFF"/>
<path d="M348.574 151.193L341.599 154.971C340.05 155.81 338.794 154.919 338.794 152.982V146.367C338.794 144.43 340.05 142.179 341.599 141.341L348.574 137.563C350.123 136.725 351.379 137.615 351.379 139.553V146.168C351.379 148.105 350.123 150.355 348.574 151.193Z" fill="#252323"/>
<path d="M349.688 138.054C349.435 138.054 349.167 138.171 349.002 138.26L342.029 142.038C340.74 142.736 339.653 144.717 339.653 146.367V152.982C339.653 153.822 339.933 154.272 340.192 154.413C340.501 154.579 340.937 154.399 341.17 154.274L348.146 150.496C349.433 149.799 350.52 147.817 350.52 146.168V139.553C350.52 138.712 350.242 138.264 349.98 138.121C349.89 138.073 349.789 138.054 349.688 138.054V138.054ZM340.485 156.093C340.077 156.093 339.688 155.999 339.334 155.808C338.446 155.327 337.935 154.295 337.935 152.982V146.367C337.935 144.14 339.356 141.625 341.17 140.644L348.146 136.866C349.093 136.352 350.05 136.3 350.839 136.729C351.726 137.21 352.237 138.239 352.237 139.553V146.168C352.237 148.395 350.816 150.909 349.002 151.891L342.029 155.668C341.506 155.952 340.981 156.093 340.485 156.093" fill="#01BBFF"/>
<path d="M348.397 174.865L348.364 150.602L350.081 150.6L350.112 174.863L348.397 174.865Z" fill="#01BBFF"/>
<path d="M336.782 181.432H335.065V177.161C335.065 173.596 336.405 170.121 338.837 167.379C341.015 164.926 342.214 161.818 342.214 158.627L342.216 154.175H343.933L343.931 158.627C343.931 162.193 342.59 165.667 340.159 168.408C337.98 170.863 336.782 173.971 336.782 177.161V181.432Z" fill="#01BBFF"/>
<path d="M249.686 167.73L216.252 186.27L109.612 128.425L143.045 109.886L249.686 167.73Z" fill="#01BBFF"/>
<path d="M111.824 128.414L216.245 185.057L247.473 167.74L143.053 111.098L111.824 128.414ZM216.257 187.481L107.402 128.435L143.038 108.673L251.894 167.721L216.257 187.481" fill="#252323"/>
<path d="M243.673 151.234L172.777 112.626L121.282 140.514L192.181 179.122L243.673 151.234Z" fill="#252323"/>
<path d="M123.507 140.516L192.179 177.913L241.446 151.232L172.774 113.835L123.507 140.516ZM192.177 180.331L119.055 140.512L172.776 111.417L245.898 151.236L192.177 180.331" fill="#252323"/>
<path d="M212.108 164.565L157.92 135.29L158.778 133.895L212.964 163.17L212.108 164.565Z" fill="#01BBFF"/>
<path d="M89.2898 67.1522C86.782 65.4602 82.522 66.4375 78.2003 71.1078C75.3465 74.1923 73.6849 78.1595 73.7652 82.2406C73.8126 84.7786 74.5374 86.202 76.1948 87.2257L76.4686 87.4073L267.899 190.784C268.058 190.869 268.26 190.817 268.348 190.668L280.391 170.72C280.48 170.571 280.426 170.384 280.267 170.301L89.2898 67.1522" fill="#01BBFF"/>
<path d="M86.6148 67.4402C84.6259 67.4402 81.9224 68.6802 79.044 71.7936C76.285 74.7719 74.8067 78.4745 74.8787 82.2234C74.9281 84.6996 75.6529 85.6382 76.808 86.3528L77.1127 86.5518L267.769 189.505L279.034 170.842L88.6388 68.0041C88.1035 67.643 87.4158 67.4402 86.6148 67.4402V67.4402ZM268.062 191.871C267.81 191.871 267.565 191.812 267.343 191.692L75.9123 88.3152L75.552 88.0815C73.5795 86.8647 72.7024 85.1187 72.6488 82.2601C72.5665 77.9955 74.2384 73.7907 77.3577 70.4223C82.6246 64.7284 87.3849 64.6241 89.8948 66.2716L280.825 169.393C281.511 169.758 281.754 170.587 281.36 171.236L269.32 191.184C269.124 191.503 268.815 191.729 268.44 191.823C268.315 191.856 268.187 191.871 268.062 191.871Z" fill="#252323"/>
<path d="M132.585 104.96L273.923 181.432L280.39 170.72C280.478 170.571 280.425 170.384 280.268 170.301L89.2886 67.1522C86.7808 65.4603 82.5208 66.4376 78.199 71.1078C77.3363 72.0388 76.5992 73.0585 75.9691 74.1305C75.9588 74.1923 75.9506 74.258 75.9238 74.3024L106.051 90.6018L132.585 104.96" fill="white"/>
<path d="M274.34 182.867L132.028 105.866L133.144 104.053L273.506 179.999L279.034 170.842L88.7338 68.0601C86.7716 66.7448 83.084 67.4285 79.0443 71.7936C78.4554 72.4291 77.9078 73.1321 77.4074 73.8969L106.61 89.6961L105.492 91.5098L74.4199 74.6966L74.9943 73.6265C75.6861 72.4464 76.483 71.3667 77.358 70.4223C82.6619 64.6917 87.4511 64.6241 89.9424 66.3045L280.825 169.393C281.509 169.758 281.752 170.585 281.363 171.234L274.34 182.867" fill="#252323"/>
<path d="M111.794 93.7096L126.936 101.903L111.794 93.7096Z" fill="white"/>
<path d="M126.378 102.809L111.236 94.6156L112.352 92.802L127.494 100.997L126.378 102.809Z" fill="#252323"/>
<path d="M76.1917 87.1118L76.4655 87.2934L267.896 190.668C268.053 190.753 268.254 190.703 268.345 190.554L270.416 187.122L265.825 185.573L74.2109 82.3682C74.2583 84.9061 74.5322 86.0882 76.1917 87.1118" fill="#252323"/>
<path d="M75.4627 84.2493C75.6356 85.273 76.0124 85.7481 76.8051 86.2368L77.1057 86.4357L267.764 189.389L268.794 187.686L265.269 186.481L75.4627 84.2493ZM268.057 191.757C267.807 191.757 267.558 191.695 267.336 191.574L75.9094 88.201L75.5697 87.9828C73.344 86.6037 73.1401 84.7939 73.0948 82.3874L73.0577 80.5409L266.292 184.619L272.039 186.556L269.315 191.07C269.121 191.388 268.808 191.614 268.433 191.709C268.31 191.742 268.182 191.757 268.057 191.757" fill="#252323"/>
<path d="M283.613 176.055C283.613 181.376 279.631 187.845 274.721 190.504C269.81 193.164 265.828 191.008 265.828 185.689C265.828 180.368 269.81 173.9 274.721 171.24C279.631 168.58 283.613 170.736 283.613 176.055Z" fill="#01BBFF"/>
<path d="M278.686 171.143C277.666 171.143 276.505 171.481 275.278 172.146C270.682 174.635 266.943 180.71 266.943 185.689C266.943 187.871 267.67 189.467 268.99 190.181C270.312 190.9 272.146 190.687 274.162 189.598C278.758 187.108 282.495 181.034 282.495 176.055C282.495 173.872 281.77 172.277 280.448 171.562C279.933 171.282 279.338 171.143 278.686 171.143ZM270.746 192.694C269.706 192.694 268.737 192.462 267.874 191.995C265.834 190.89 264.711 188.65 264.711 185.689C264.711 179.947 268.862 173.204 274.162 170.334C276.901 168.852 279.528 168.644 281.564 169.749C283.605 170.853 284.729 173.094 284.729 176.055C284.729 181.795 280.578 188.54 275.278 191.41C273.701 192.263 272.159 192.694 270.746 192.694" fill="#252323"/>
<path d="M84.0495 92.3787C84.0495 92.3787 78.6015 89.4912 76.0402 88.1044C73.0979 86.5148 72.9826 83.4728 72.9785 83.3453L74.6957 83.3047L73.837 83.3241L74.6957 83.3009C74.6977 83.3936 74.8048 85.5781 76.8967 86.7099C79.4539 88.0928 84.8937 90.9784 84.8937 90.9784L84.0495 92.3787" fill="#01BBFF"/>
<path d="M163.431 1.28053C162.584 0.892308 161.462 0.971523 160.217 1.6456L136.977 14.2309C117.664 24.6916 101.863 50.3643 101.863 71.2837V76.4542C101.863 77.6942 102.283 78.5885 102.959 79.1119L253.37 160.161C253.578 160.273 253.844 160.215 253.978 160.03L295.213 102.878C295.235 102.847 295.262 102.82 295.291 102.795L310.941 90.0245C310.997 89.9782 311.04 89.9222 311.067 89.8565L314.03 82.7701C314.112 82.5711 314.028 82.3471 313.832 82.2409L163.431 1.28053" fill="#01BBFF"/>
<path d="M103.61 78.2544L253.398 158.968L294.374 102.177L294.565 102.002L310.088 89.3332L312.785 82.8841L162.915 2.20772C162.373 1.97595 161.616 2.09764 160.778 2.55153L137.536 15.1387C118.482 25.4565 102.98 50.6444 102.98 71.2838V76.4543C102.98 77.2617 103.203 77.8991 103.61 78.2544V78.2544ZM253.592 161.262C253.328 161.262 253.061 161.2 252.818 161.069L102.249 79.9174C101.564 79.3863 100.748 78.3549 100.748 76.4543V71.2838C100.748 49.9781 116.751 23.977 136.42 13.3251L159.662 0.737875C161.177 -0.0829886 162.69 -0.223948 163.922 0.340033L163.987 0.372853L314.389 81.3312C315.068 81.7001 315.357 82.4631 315.071 83.1487L312.108 90.241C312.011 90.467 311.857 90.6717 311.659 90.8262L296.089 103.533L254.903 160.617C254.601 161.034 254.1 161.262 253.592 161.262Z" fill="#252323"/>
<path d="M295.368 102.911L309.552 91.336L305.51 85.6286L155.045 4.6007L137.053 14.3468C128.379 19.0441 120.429 26.822 114.285 35.8495L264.631 116.841L284.469 117.99L295.289 102.994C295.312 102.963 295.337 102.934 295.368 102.911" fill="white"/>
<path d="M264.958 115.811L283.901 116.908L294.634 102.121L308.079 91.1485L304.725 86.4126L155.046 5.80961L137.611 15.2525C129.729 19.519 122.039 26.6828 115.862 35.4901L264.958 115.811ZM285.035 119.071L264.301 117.87L112.716 36.2106L113.344 35.2854C119.815 25.7788 128.037 18.0202 136.495 13.4388L155.042 3.39337L155.6 3.69469L306.294 84.8443L311.023 91.5213L296.164 103.647L285.035 119.071" fill="#252323"/>
<path d="M266.89 131.518L234.587 114.115L235.696 112.302L268 129.702L266.89 131.518" fill="#252323"/>
<path d="M228.754 110.973L205.99 98.7103L207.1 96.8967L229.864 109.159L228.754 110.973Z" fill="#252323"/>
<path d="M200.864 95.95L116.541 50.5262L117.651 48.7107L201.974 94.1344L200.864 95.95Z" fill="#252323"/>
<path d="M252.436 148.847L102.001 67.753C101.931 68.767 101.863 69.7829 101.863 70.7776V75.9481C101.863 77.1881 102.283 78.0823 102.959 78.6058L253.37 159.655C253.578 159.767 253.844 159.711 253.978 159.524L255.726 157.102L252.436 148.847" fill="#252323"/>
<path d="M252.343 152.055V157.471C252.343 160.316 254.472 161.467 257.097 160.045L284.047 145.451C286.672 144.028 288.799 145.181 288.799 148.024V185.498C288.799 188.341 290.928 189.494 293.553 188.072L310.698 178.786C313.323 177.364 315.45 173.907 315.45 171.064V85.2365C315.45 82.3935 313.323 81.2404 310.698 82.662L287.23 95.3728C267.962 105.808 252.343 131.186 252.343 152.055" fill="#252323"/>
<path d="M286.173 143.79C286.815 143.79 287.422 143.937 287.966 144.231C289.222 144.912 289.918 146.261 289.918 148.026V185.498C289.918 186.469 290.22 187.192 290.75 187.478C291.283 187.767 292.1 187.651 292.994 187.165L310.141 177.88C312.414 176.648 314.337 173.525 314.337 171.062V85.2365C314.337 84.267 314.033 83.5446 313.503 83.2568C312.974 82.969 312.153 83.0849 311.257 83.5697L287.789 96.2786C268.861 106.531 253.462 131.551 253.462 152.055V157.473C253.462 158.442 253.764 159.164 254.296 159.452C254.827 159.74 255.644 159.626 256.54 159.139L283.488 144.543C284.414 144.043 285.326 143.79 286.173 143.79V143.79ZM291.429 189.732C290.783 189.732 290.179 189.585 289.636 189.291C288.378 188.609 287.684 187.263 287.684 185.498V148.026C287.684 147.054 287.381 146.332 286.85 146.044C286.323 145.756 285.501 145.872 284.604 146.357L257.656 160.953C256.025 161.836 254.436 161.946 253.18 161.264C251.922 160.584 251.228 159.238 251.228 157.473V152.055C251.228 130.884 267.129 105.051 286.671 94.4669L310.141 81.7561C311.77 80.8754 313.361 80.7633 314.617 81.4432C315.875 82.125 316.569 83.4731 316.569 85.2365V171.062C316.569 174.288 314.236 178.079 311.257 179.694L294.112 188.978C293.185 189.48 292.273 189.732 291.429 189.732" fill="#252323"/>
<path d="M253.204 157.474L251.487 157.469L251.508 150.877L253.223 150.88L253.204 157.474Z" fill="#01BBFF"/>
<path d="M304.295 105.779C304.048 105.735 303.825 105.7 303.825 105.7C302.8 105.601 301.495 106.113 300.103 107.618C299.322 108.46 298.731 109.457 298.404 110.527C297.871 112.263 298.085 113.54 298.725 114.252C298.725 114.252 300.016 116.004 302.893 116.634C303.028 116.663 303.181 116.607 303.255 116.497L307.536 110.113L307.719 107.815C307.725 107.73 307.704 107.656 307.643 107.595C307.313 107.262 306.212 106.142 304.295 105.779" fill="#01BBFF"/>
<path d="M303.555 106.488C303.053 106.488 302.059 106.733 300.751 108.147C300.043 108.908 299.516 109.81 299.227 110.751C298.824 112.064 298.882 113.178 299.38 113.735C299.468 113.847 300.49 115.168 302.732 115.765L306.695 109.854L306.846 107.975C306.424 107.575 305.534 106.838 304.132 106.569L303.681 106.494C303.644 106.49 303.601 106.488 303.555 106.488ZM302.969 117.449C302.878 117.449 302.787 117.437 302.697 117.418C299.534 116.726 298.081 114.793 298.019 114.71C297.173 113.777 296.998 112.19 297.578 110.304C297.936 109.14 298.585 108.029 299.454 107.091C301.295 105.103 302.886 104.802 303.912 104.898L304.465 104.989C305.909 105.263 307.187 105.953 308.264 107.04C308.493 107.272 308.598 107.564 308.575 107.875L308.373 110.374L303.98 116.925C303.755 117.256 303.372 117.449 302.969 117.449" fill="#01BBFF"/>
<path d="M308.921 110.032C308.921 112.309 307.218 115.077 305.116 116.215C303.016 117.352 301.311 116.431 301.311 114.154C301.311 111.879 303.016 109.111 305.116 107.971C307.218 106.834 308.921 107.757 308.921 110.032Z" fill="#252323"/>
<path d="M306.815 108.29C306.446 108.29 306.01 108.419 305.546 108.669C303.716 109.659 302.17 112.172 302.17 114.154C302.17 114.944 302.419 115.531 302.855 115.767C303.294 116.006 303.959 115.911 304.688 115.517C306.518 114.525 308.065 112.014 308.065 110.032C308.065 109.244 307.813 108.655 307.379 108.419C307.218 108.332 307.029 108.29 306.815 108.29ZM303.415 117.511C302.907 117.511 302.427 117.395 301.997 117.161C301.002 116.622 300.453 115.554 300.453 114.154C300.453 111.581 302.314 108.56 304.688 107.274C305.981 106.571 307.241 106.486 308.237 107.025C309.232 107.564 309.78 108.632 309.78 110.032C309.78 112.603 307.92 115.626 305.546 116.912C304.811 117.31 304.087 117.511 303.415 117.511" fill="#01BBFF"/>
<path d="M304.295 120.935C304.048 120.893 303.825 120.856 303.825 120.856C302.8 120.76 301.495 121.271 300.103 122.776C299.322 123.616 298.731 124.613 298.404 125.685C297.871 127.419 298.085 128.696 298.725 129.411C298.725 129.411 300.016 131.162 302.893 131.792C303.028 131.821 303.181 131.765 303.255 131.653L307.536 125.271L307.719 122.971C307.725 122.888 307.704 122.813 307.643 122.753C307.313 122.421 306.212 121.3 304.295 120.935" fill="#01BBFF"/>
<path d="M303.555 121.646C303.051 121.646 302.056 121.891 300.751 123.303C300.043 124.066 299.516 124.966 299.227 125.907C298.824 127.22 298.882 128.337 299.38 128.891C299.468 129.003 300.49 130.324 302.732 130.921L306.695 125.011L306.846 123.133C306.424 122.732 305.534 121.994 304.132 121.725L303.683 121.652C303.646 121.648 303.603 121.646 303.555 121.646V121.646ZM302.969 132.605C302.878 132.605 302.787 132.596 302.697 132.574C299.534 131.885 298.081 129.949 298.019 129.868C297.173 128.934 296.998 127.348 297.578 125.461C297.936 124.296 298.585 123.186 299.454 122.247C301.293 120.259 302.886 119.96 303.912 120.057L304.465 120.147C305.909 120.422 307.185 121.111 308.264 122.197C308.493 122.428 308.598 122.722 308.575 123.031L308.373 125.53L303.98 132.082C303.755 132.412 303.372 132.605 302.969 132.605" fill="#01BBFF"/>
<path d="M308.921 125.19C308.921 127.465 307.218 130.233 305.116 131.371C303.016 132.51 301.311 131.587 301.311 129.31C301.311 127.035 303.016 124.267 305.116 123.129C307.218 121.992 308.921 122.913 308.921 125.19Z" fill="#252323"/>
<path d="M306.815 123.448C306.446 123.448 306.01 123.575 305.546 123.826C303.716 124.817 302.17 127.328 302.17 129.312C302.17 130.1 302.419 130.689 302.855 130.925C303.294 131.162 303.959 131.069 304.688 130.673C306.518 129.683 308.065 127.17 308.065 125.19C308.065 124.4 307.813 123.811 307.379 123.575C307.218 123.49 307.029 123.448 306.815 123.448ZM303.415 132.667C302.907 132.667 302.427 132.551 301.997 132.319C301.002 131.78 300.453 130.712 300.453 129.312C300.453 126.739 302.314 123.718 304.688 122.432C305.981 121.729 307.245 121.64 308.237 122.183C309.232 122.72 309.78 123.79 309.78 125.19C309.78 127.761 307.923 130.782 305.546 132.07C304.811 132.468 304.087 132.667 303.415 132.667" fill="#01BBFF"/>
<path d="M58.5431 94.4823C56.0332 92.7884 51.7753 93.7657 47.4514 98.436C44.5977 101.519 42.9382 105.488 43.0164 109.571C43.0658 112.107 43.7885 113.53 45.4481 114.556L45.7219 114.735L237.15 218.112C237.309 218.197 237.511 218.145 237.599 217.996L249.642 198.048C249.731 197.9 249.677 197.712 249.521 197.629L58.5431 94.4823Z" fill="#01BBFF"/>
<path d="M55.8681 94.7681C53.8771 94.7681 51.1737 96.01 48.2932 99.1215C45.5383 102.1 44.0599 105.804 44.132 109.551C44.1794 112.027 44.9062 112.968 46.0613 113.681L46.3639 113.88L237.02 216.833L248.287 198.17L57.8901 95.332C57.3547 94.9689 56.6691 94.7681 55.8681 94.7681V94.7681ZM237.311 219.199C237.062 219.199 236.812 219.138 236.59 219.016L45.1636 115.643L44.8032 115.409C42.8349 114.195 41.9557 112.447 41.9001 109.59C41.8178 105.321 43.4917 101.119 46.6069 97.7483C51.8779 92.0582 56.6423 91.9501 59.144 93.5995L250.076 196.721C250.762 197.096 251.003 197.921 250.614 198.564L238.571 218.512C238.383 218.827 238.07 219.055 237.696 219.151C237.57 219.184 237.44 219.199 237.311 219.199" fill="#252323"/>
<path d="M208.708 190.112L243.175 208.76L249.642 198.048C249.731 197.9 249.677 197.712 249.521 197.629L58.5429 94.4824C56.033 92.7885 51.7751 93.7658 47.4513 98.4361C46.5886 99.367 45.8514 100.387 45.2214 101.459C45.2111 101.521 45.2049 101.586 45.1782 101.631L124.44 144.516L129.244 147.116L179.25 174.174L208.708 190.112" fill="white"/>
<path d="M243.592 210.195L208.149 191.018L209.265 189.204L242.759 207.327L248.287 198.17L57.9846 95.3899C56.0203 94.0707 52.3327 94.7603 48.293 99.1215C47.7062 99.755 47.1585 100.46 46.6582 101.223L179.808 173.266L178.692 175.079L43.6727 102.024L44.243 100.952C44.9369 99.7724 45.7337 98.6946 46.6067 97.7501C51.9127 92.0215 56.6998 91.95 59.1932 93.6323L250.076 196.721C250.762 197.096 251.003 197.921 250.614 198.564L243.592 210.195" fill="#252323"/>
<path d="M184.199 176.851L204.001 187.564L184.199 176.851Z" fill="white"/>
<path d="M203.442 188.472L183.641 177.758L184.757 175.945L204.558 186.659L203.442 188.472Z" fill="#252323"/>
<path d="M45.4429 114.44L45.7168 114.621L237.147 217.996C237.306 218.081 237.508 218.031 237.596 217.882L239.67 214.45L235.076 212.901L43.4622 109.696C43.5116 112.234 43.7854 113.416 45.4429 114.44" fill="#252323"/>
<path d="M44.7149 111.578C44.8899 112.603 45.2667 113.076 46.0574 113.565L46.3621 113.768L237.019 216.718L238.048 215.014L234.523 213.809L44.7149 111.578ZM237.309 219.086C237.06 219.086 236.815 219.024 236.592 218.904L45.1617 115.529L44.8199 115.309C42.5983 113.932 42.3944 112.122 42.3492 109.716L42.3121 107.869L235.546 211.947L241.293 213.884L238.569 218.398C238.373 218.715 238.065 218.943 237.69 219.037C237.564 219.07 237.437 219.086 237.309 219.086" fill="#252323"/>
<path d="M252.865 203.385C252.865 208.704 248.885 215.172 243.972 217.832C239.061 220.492 235.079 218.336 235.079 213.017C235.079 207.696 239.061 201.227 243.972 198.568C248.885 195.908 252.865 198.064 252.865 203.385Z" fill="#01BBFF"/>
<path d="M247.939 198.471C246.92 198.471 245.759 198.809 244.529 199.474C239.934 201.963 236.197 208.038 236.197 213.017C236.197 215.199 236.922 216.795 238.243 217.509C239.563 218.224 241.402 218.017 243.413 216.926C248.009 214.438 251.748 208.362 251.748 203.383C251.748 201.2 251.021 199.605 249.704 198.89C249.187 198.61 248.592 198.471 247.939 198.471V198.471ZM239.998 220.022C238.96 220.022 237.99 219.791 237.127 219.323C235.087 218.218 233.963 215.978 233.963 213.017C233.963 207.277 238.114 200.532 243.413 197.662C246.152 196.179 248.779 195.974 250.817 197.077C252.858 198.182 253.98 200.42 253.98 203.383C253.98 209.123 249.829 215.87 244.529 218.74C242.954 219.593 241.412 220.022 239.998 220.022" fill="#252323"/>
<path d="M44.1451 114.616C42.675 113.026 42.607 111.112 42.605 111.031V110.065H44.3222V111.012C44.3222 111.012 44.3901 112.423 45.4422 113.561L44.1451 114.616Z" fill="#01BBFF"/>
<path d="M307.169 309.651C306.562 309.386 305.765 309.446 304.882 309.925L295.639 314.932C294.628 315.478 293.664 315.799 292.765 315.932L294.406 204.235L287.189 206.164V183.354L279.416 187.393V314.395C279.416 319.428 275.613 325.607 270.966 328.123L262.051 332.952C260.394 333.85 259.111 335.297 258.575 337.021C257.962 338.99 258.392 340.33 259.341 340.809L269.682 346.064C269.801 346.124 269.945 346.119 270.06 346.049L288.155 334.955L313.921 319.507L317.585 315.438C317.736 315.27 317.684 315.015 317.478 314.91L307.169 309.651" fill="#01BBFF"/>
<path d="M280.532 188.011V314.395C280.532 319.774 276.49 326.341 271.524 329.029L262.608 333.858C261.167 334.638 260.086 335.899 259.646 337.313C259.191 338.775 259.444 339.673 259.87 339.888L269.819 344.944L287.545 334.078L313.177 318.711L316.14 315.42L306.677 310.59C306.384 310.476 305.933 310.565 305.439 310.833L296.196 315.835C295.107 316.426 294.012 316.807 292.939 316.965L291.632 317.16L291.648 315.919L293.269 205.625L286.072 207.551V185.131L280.532 188.011ZM269.858 347.154C269.617 347.154 269.376 347.098 269.154 346.988L258.81 341.728C257.613 341.126 256.642 339.494 257.504 336.728C258.112 334.771 259.528 333.108 261.493 332.046L270.406 327.217C274.684 324.9 278.298 319.028 278.298 314.395V186.776L288.304 181.577V204.777L295.542 202.84L293.903 314.559C294.29 314.418 294.683 314.238 295.08 314.026L304.323 309.019C305.487 308.39 306.662 308.278 307.638 308.701L307.702 308.73L318.011 313.991C318.402 314.188 318.678 314.541 318.763 314.957C318.845 315.37 318.726 315.793 318.433 316.116L314.519 320.39L288.753 335.836L270.669 346.924C270.426 347.077 270.142 347.154 269.858 347.154" fill="#252323"/>
<path d="M287.468 328.66L276.53 322.808L276.51 322.796C275.019 325.027 273.088 326.968 270.955 328.123L262.041 332.952C261.329 333.338 260.858 333.915 260.314 334.483L270.463 339.888L273.66 341.747L280.609 339.575L285.944 336.303L287.468 328.66" fill="white"/>
<path d="M262.085 334.223L271.013 338.976L273.805 340.598L280.119 338.624L284.935 335.671L286.228 329.201L276.864 324.193C275.301 326.311 273.465 327.972 271.515 329.029L262.6 333.857C262.414 333.958 262.248 334.08 262.085 334.223V334.223ZM273.516 342.895L269.874 340.776L258.554 334.75L259.748 333.504C260.211 333.01 260.734 332.451 261.486 332.044L270.397 327.217C272.26 326.209 274.095 324.44 275.565 322.24L276.238 321.234L277.216 321.985L288.712 328.123L286.953 336.934L280.96 340.567L273.516 342.895" fill="#252323"/>
<path d="M307.17 309.616C306.562 309.351 305.765 309.411 304.882 309.89L295.639 314.897C294.628 315.443 293.665 315.764 292.767 315.897L292.205 317.63L302.761 322.858L305.273 324.656L313.921 319.472L317.586 315.403C317.736 315.235 317.685 314.98 317.479 314.875L307.17 309.616" fill="white"/>
<path d="M293.541 317.106L303.439 322.025L305.331 323.381L313.178 318.676L316.141 315.385L306.678 310.555C306.385 310.441 305.934 310.529 305.44 310.798L296.198 315.802C295.345 316.264 294.489 316.598 293.642 316.797L293.541 317.106ZM305.216 325.931L302.158 323.742L290.869 318.151L291.903 314.966L292.592 314.864C293.391 314.744 294.229 314.45 295.082 313.991L304.324 308.984C305.488 308.357 306.659 308.243 307.639 308.666L307.703 308.695L318.012 313.956C318.404 314.153 318.679 314.506 318.764 314.922C318.846 315.337 318.727 315.76 318.434 316.08L314.52 320.355L305.216 325.931" fill="#252323"/>
<path d="M297.647 315.681V188.681L289.872 192.721V319.721C289.872 324.776 286.09 330.924 281.422 333.452L272.18 338.456C270.283 339.484 268.747 341.981 268.747 344.034C268.747 346.087 270.283 346.92 272.18 345.894L289.872 336.312L297.647 332.272L315.34 322.69C317.236 321.662 318.772 319.165 318.772 317.112C318.772 315.059 317.236 314.226 315.34 315.252L306.097 320.258C301.429 322.787 297.647 320.737 297.647 315.681Z" fill="#252323"/>
<path d="M290.99 193.337V319.721C290.99 325.193 287.031 331.621 281.98 334.358L272.739 339.362C271.181 340.206 269.865 342.346 269.865 344.034C269.865 344.621 270.03 345.062 270.31 345.212C270.59 345.367 271.082 345.278 271.623 344.986L289.314 335.407L297.105 331.356L314.779 321.784C316.338 320.938 317.656 318.798 317.656 317.112C317.656 316.525 317.489 316.084 317.207 315.934C316.929 315.779 316.437 315.866 315.897 316.158L306.655 321.164C304.038 322.58 301.517 322.779 299.561 321.718C297.607 320.66 296.529 318.516 296.529 315.683V190.458L290.99 193.337ZM270.639 347.378C270.12 347.378 269.63 347.26 269.196 347.026C268.201 346.487 267.631 345.398 267.631 344.034C267.631 341.61 269.385 338.761 271.623 337.55L280.864 332.546C285.217 330.188 288.756 324.434 288.756 319.721V192.103L298.762 186.904V315.683C298.762 317.738 299.442 319.236 300.677 319.907C301.913 320.575 303.64 320.378 305.539 319.352L314.779 314.346C316.039 313.666 317.33 313.583 318.323 314.12C319.317 314.659 319.888 315.748 319.888 317.112C319.888 319.534 318.133 322.385 315.897 323.596L298.205 333.178L290.413 337.228L272.739 346.798C272.029 347.183 271.31 347.378 270.639 347.378" fill="#252323"/>
<path d="M289.284 313.674L278.827 307.561L280.007 305.784L290.464 311.897L289.284 313.674Z" fill="#252323"/>
<path d="M289.284 263.146L278.827 257.033L280.007 255.256L290.464 261.369L289.284 263.146Z" fill="#252323"/>
<path d="M291.461 231.815L290.602 230.421L296.439 227.259L297.298 228.654L291.461 231.815Z" fill="#01BBFF"/>
<path d="M300.07 156.702C299.615 156.466 298.993 156.503 298.303 156.875L246.52 184.922C244.846 185.828 243.261 187.502 242.2 189.48L221.3 228.495C220.618 229.768 220.246 231.101 220.246 232.267V240.741C220.246 241.386 220.46 241.853 220.804 242.135L220.867 242.185C220.948 242.243 239.746 252.229 241.634 253.243C241.702 253.28 241.789 253.258 241.83 253.195L248.824 242.788C248.83 242.78 248.836 242.771 248.845 242.765L305.104 189.988L315.076 179.95C315.088 179.939 315.096 179.927 315.102 179.914L320.979 167.985C321.012 167.921 320.985 167.844 320.919 167.807L300.07 156.702" fill="#01BBFF"/>
<path d="M299.43 157.6C299.311 157.6 299.117 157.644 298.864 157.781L247.079 185.828C245.605 186.626 244.153 188.167 243.198 189.95L222.299 228.967C221.696 230.091 221.363 231.263 221.363 232.267V240.741C221.363 241.081 221.453 241.278 221.54 241.347C221.731 241.45 228.188 244.884 233.377 247.644C236.724 249.423 239.86 251.091 241.38 251.903L248.055 242.023L304.316 189.248L314.156 179.342L319.596 168.306L299.531 157.617C299.509 157.608 299.474 157.6 299.43 157.6V157.6ZM241.711 254.309C241.493 254.309 241.273 254.257 241.071 254.145C240.28 253.722 236.44 251.678 232.277 249.465C220.298 243.095 220.292 243.089 220.193 243.02C219.466 242.427 219.131 241.652 219.131 240.741V232.267C219.131 230.942 219.549 229.436 220.304 228.026L241.203 189.009C242.364 186.844 244.1 185.024 245.963 184.014L297.748 155.97C298.743 155.429 299.785 155.361 300.608 155.784L300.623 155.79L321.472 166.898C322.046 167.209 322.268 167.862 321.995 168.422L315.867 180.69L305.922 190.701L249.704 243.437L242.776 253.753C242.537 254.112 242.129 254.309 241.711 254.309" fill="#252323"/>
<path d="M220.804 242.135L220.867 242.185C220.948 242.243 239.746 252.229 241.634 253.243C241.702 253.28 241.789 253.258 241.83 253.195L244.014 249.944C242.439 247.213 241.222 245.175 241.222 245.175L220.246 233.863V240.741C220.246 241.386 220.46 241.853 220.804 242.135" fill="#252323"/>
<path d="M221.533 241.343L221.587 241.386C221.731 241.45 228.188 244.884 233.377 247.644C236.722 249.423 239.86 251.091 241.38 251.903L242.722 249.903C241.623 248.001 240.737 246.508 240.4 245.938L221.363 235.673V240.741C221.363 241.075 221.451 241.27 221.533 241.343V241.343ZM241.711 254.309C241.493 254.309 241.273 254.257 241.071 254.145C240.28 253.722 236.44 251.678 232.277 249.465C220.298 243.095 220.292 243.089 220.193 243.02L220.072 242.925C219.466 242.427 219.131 241.652 219.131 240.741V232.053L242.045 244.41L242.197 244.663C242.197 244.663 243.416 246.707 244.995 249.446L245.308 249.985L242.776 253.753C242.537 254.112 242.129 254.309 241.711 254.309" fill="#252323"/>
<path d="M263.176 200.657L316.797 174.564L291.194 160.727L246.521 184.922C244.847 185.828 243.261 187.502 242.201 189.48L263.176 200.657" fill="white"/>
<path d="M243.715 189.082L263.199 199.466L314.476 174.515L291.197 161.934L247.079 185.828C245.85 186.492 244.637 187.674 243.715 189.082V189.082ZM263.154 201.847L240.728 189.897L241.203 189.009C242.364 186.844 244.1 185.024 245.963 184.014L291.197 159.518L319.123 174.612L263.154 201.847" fill="#252323"/>
<path d="M319.279 212.383L243.752 253.288C242.354 254.045 241.222 253.432 241.222 251.916V243.443C241.222 242.276 241.592 240.944 242.274 239.673L263.174 200.658C264.235 198.678 265.82 197.005 267.494 196.097L319.279 168.053C320.677 167.296 321.81 167.908 321.81 169.422V208.271C321.81 209.786 320.677 211.626 319.279 212.383" fill="#252323"/>
<path d="M320.411 168.775C320.294 168.775 320.094 168.82 319.839 168.959L268.054 197.003C266.579 197.803 265.128 199.344 264.172 201.127L243.272 240.142C242.671 241.268 242.339 242.44 242.339 243.443V251.916C242.339 252.304 242.452 252.509 242.522 252.55C242.592 252.582 242.837 252.575 243.196 252.381L318.721 211.477C319.773 210.908 320.695 209.409 320.695 208.271V169.422C320.695 169.036 320.582 168.831 320.512 168.792C320.492 168.781 320.459 168.775 320.411 168.775V168.775ZM242.619 254.657C242.185 254.657 241.773 254.56 241.406 254.361C240.581 253.913 240.105 253.023 240.105 251.916V243.443C240.105 242.12 240.523 240.615 241.279 239.203L262.179 200.186C263.339 198.023 265.072 196.202 266.938 195.191L318.721 167.145C319.742 166.594 320.8 166.533 321.628 166.979C322.454 167.427 322.927 168.317 322.927 169.422V208.271C322.927 210.147 321.57 212.352 319.839 213.291L319.279 212.383L319.839 213.291L244.312 254.193C243.743 254.502 243.165 254.657 242.619 254.657" fill="#252323"/>
<path d="M242.082 251.916H240.365V245.575H242.082V251.916Z" fill="#01BBFF"/>
<path d="M243.012 238.933L222.038 227.756L223.141 225.938L244.116 237.114L243.012 238.933Z" fill="#252323"/>
<path d="M258.716 209.693L237.741 198.517L238.842 196.698L259.817 207.873L258.716 209.693Z" fill="#252323"/>
<path d="M306.494 187.655C306.249 187.611 306.025 187.576 306.025 187.576C304.999 187.478 303.694 187.989 302.302 189.494C301.524 190.336 300.933 191.333 300.603 192.403C300.07 194.139 300.284 195.416 300.925 196.13C300.925 196.13 302.216 197.882 305.094 198.51C305.23 198.541 305.38 198.483 305.454 198.373L309.735 191.989L309.918 189.691C309.924 189.608 309.904 189.533 309.842 189.471C309.515 189.139 308.411 188.02 306.494 187.655" fill="#01BBFF"/>
<path d="M305.758 188.366C305.251 188.366 304.257 188.611 302.951 190.023C302.243 190.788 301.716 191.688 301.428 192.627C301.026 193.938 301.084 195.056 301.582 195.611C301.671 195.723 302.692 197.042 304.932 197.641L308.896 191.73L309.046 189.851C308.628 189.451 307.74 188.715 306.334 188.445L305.885 188.372C305.848 188.368 305.803 188.366 305.758 188.366ZM305.173 199.325C305.082 199.325 304.992 199.315 304.899 199.294C301.735 198.603 300.281 196.669 300.219 196.588C299.375 195.653 299.202 194.066 299.778 192.18C300.137 191.02 300.783 189.907 301.654 188.967C303.493 186.979 305.091 186.678 306.112 186.776L306.668 186.865C308.115 187.141 309.396 187.833 310.471 188.922C310.693 189.148 310.8 189.442 310.775 189.751L310.574 192.25L306.182 198.801C305.964 199.13 305.577 199.325 305.173 199.325" fill="#01BBFF"/>
<path d="M311.122 191.908C311.122 194.185 309.417 196.953 307.317 198.091C305.215 199.228 303.512 198.307 303.512 196.03C303.512 193.754 305.215 190.987 307.317 189.849C309.417 188.709 311.122 189.633 311.122 191.908Z" fill="#252323"/>
<path d="M309.017 190.166C308.647 190.166 308.21 190.295 307.747 190.547C305.916 191.537 304.37 194.048 304.37 196.03C304.37 196.82 304.621 197.409 305.056 197.645C305.488 197.88 306.157 197.789 306.888 197.393C308.719 196.403 310.265 193.892 310.265 191.908C310.265 191.12 310.016 190.531 309.579 190.295C309.421 190.209 309.231 190.166 309.017 190.166ZM305.618 199.387C305.107 199.387 304.628 199.271 304.197 199.037C303.203 198.5 302.655 197.43 302.655 196.03C302.655 193.459 304.512 190.438 306.888 189.15C308.181 188.451 309.443 188.362 310.438 188.901C311.432 189.44 311.982 190.508 311.982 191.908C311.982 194.481 310.121 197.502 307.747 198.788C307.012 199.186 306.289 199.387 305.618 199.387" fill="#01BBFF"/>
<path d="M296.562 201.635C296.315 201.591 296.093 201.556 296.093 201.556C295.068 201.457 293.762 201.969 292.368 203.474C291.59 204.316 290.999 205.312 290.67 206.382C290.138 208.119 290.35 209.395 290.993 210.108C290.993 210.108 292.282 211.862 295.16 212.49C295.296 212.521 295.446 212.463 295.52 212.353L299.801 205.969L299.986 203.671C299.993 203.586 299.97 203.512 299.91 203.451C299.581 203.118 298.479 201.998 296.562 201.635" fill="#01BBFF"/>
<path d="M295.808 202.344C295.014 202.344 294.013 202.925 293.016 204.003C292.308 204.766 291.783 205.668 291.495 206.606C291.091 207.918 291.149 209.034 291.649 209.59C291.736 209.702 292.757 211.022 294.997 211.62L298.961 205.71L299.111 203.831C298.695 203.431 297.806 202.695 296.399 202.425L295.952 202.349C295.905 202.346 295.856 202.344 295.808 202.344V202.344ZM295.24 213.305C295.147 213.305 295.057 213.295 294.964 213.274C291.802 212.582 290.346 210.649 290.286 210.566C289.44 209.631 289.267 208.045 289.846 206.16C290.202 204.999 290.848 203.887 291.719 202.946C293.56 200.959 295.156 200.658 296.179 200.754L296.733 200.845C298.18 201.121 299.461 201.813 300.536 202.902C300.76 203.128 300.865 203.419 300.841 203.73L300.641 206.23L296.247 212.781C296.029 213.11 295.644 213.305 295.24 213.305" fill="#01BBFF"/>
<path d="M301.188 205.888C301.188 208.165 299.485 210.933 297.383 212.071C295.281 213.208 293.578 212.287 293.578 210.01C293.578 207.735 295.281 204.967 297.383 203.827C299.485 202.69 301.188 203.613 301.188 205.888Z" fill="#252323"/>
<path d="M299.082 204.146C298.712 204.146 298.275 204.275 297.812 204.524C295.984 205.517 294.437 208.028 294.437 210.01C294.437 210.8 294.689 211.387 295.123 211.624C295.558 211.858 296.222 211.769 296.953 211.373C298.786 210.382 300.33 207.872 300.33 205.888C300.33 205.1 300.081 204.511 299.645 204.275C299.486 204.188 299.297 204.146 299.082 204.146ZM295.683 213.366C295.174 213.366 294.695 213.251 294.265 213.019C293.27 212.478 292.722 211.41 292.722 210.01C292.722 207.439 294.581 204.418 296.953 203.13C298.246 202.431 299.509 202.342 300.503 202.881C301.5 203.42 302.047 204.488 302.047 205.888C302.047 208.461 300.186 211.481 297.812 212.768C297.079 213.166 296.354 213.366 295.683 213.366Z" fill="#01BBFF"/>
<path d="M295.42 206.919L293.993 206.027L304.397 191.365L305.826 192.256L295.42 206.919" fill="#01BBFF"/>
<path d="M300.622 210.1L299.193 209.206L308.804 195.69L310.231 196.582L300.622 210.1" fill="#01BBFF"/>
<path d="M104.14 119.504C101.632 117.81 97.3724 118.788 93.0507 123.458C90.1969 126.542 88.5353 130.51 88.6156 134.593V221.125C88.6156 222.396 89.3363 223.572 90.5078 224.214L191.749 279.484C193.456 280.415 195.598 279.26 195.598 277.407V189.293C196.049 186.031 197.56 182.937 199.88 180.432C204.202 175.761 208.462 174.991 210.97 176.685L104.14 119.504" fill="#01BBFF"/>
<path d="M101.468 119.792C99.4748 119.792 96.7734 121.032 93.8929 124.145C91.136 127.124 89.6577 130.828 89.7297 134.573L89.7318 221.125C89.7318 222.021 90.2445 222.858 91.0701 223.308L192.312 278.58C192.962 278.935 193.541 278.701 193.759 278.584C193.975 278.466 194.482 278.114 194.482 277.407V189.293C194.968 185.697 196.541 182.442 199.036 179.744C201.458 177.129 203.795 175.73 205.858 175.153L103.49 120.354C102.954 119.993 102.269 119.792 101.468 119.792ZM193.036 280.863C192.402 280.863 191.768 280.704 191.189 280.39L89.9479 225.117C88.4366 224.295 87.4978 222.765 87.4978 221.125V134.593C87.4154 130.347 89.0893 126.143 92.2066 122.772C97.4735 117.08 102.242 116.976 104.742 118.62L210.7 175.335C211.032 175.475 211.341 175.645 211.623 175.835L210.418 177.592L209.675 177.194C207.746 176.432 204.493 177.046 200.723 181.117C198.515 183.503 197.126 186.375 196.705 189.426L196.716 277.407C196.716 278.655 196.026 279.773 194.873 280.397C194.299 280.708 193.669 280.863 193.036 280.863" fill="#252323"/>
<path d="M171.123 268.175V178.747C171.045 174.664 172.707 170.695 175.561 167.612C179.882 162.942 184.14 161.965 186.65 163.659L123.742 130.011C121.233 128.317 116.975 129.294 112.651 133.965C109.797 137.049 108.138 141.016 108.216 145.099V233.938L171.123 268.175" fill="#252323"/>
<path d="M109.332 233.336L170.008 266.357V178.745C169.927 174.498 171.599 170.295 174.719 166.927C177.206 164.236 179.584 162.793 181.661 162.195L123.189 130.919C121.229 129.605 117.535 130.285 113.493 134.652C110.736 137.631 109.258 141.333 109.33 145.08L109.332 233.336ZM172.242 269.992L107.098 234.541V145.1C107.018 140.854 108.689 136.649 111.807 133.279C117.111 127.552 121.9 127.481 124.393 129.161L186.434 162.338C186.747 162.471 187.037 162.629 187.303 162.807L186.098 164.567L185.413 164.2C183.414 163.413 180.053 164.356 176.403 168.3C173.646 171.276 172.167 174.979 172.24 178.728L172.242 269.992" fill="#252323"/>
<path d="M177.746 159.744L141.134 139.817L141.997 138.425L178.609 158.351L177.746 159.744" fill="#01BBFF"/>
<path d="M98.0927 139.122L185.44 186.168L98.0927 139.122Z" fill="#01BBFF"/>
<path d="M184.888 187.076L97.5405 140.028L98.6503 138.214L185.998 185.26L184.888 187.076" fill="#252323"/>
<path d="M155.606 21.9739L156.273 22.3351C156.897 22.6731 157.486 22.8585 158.044 22.8933C158.598 22.928 159.113 22.8179 159.584 22.563C160.058 22.3061 160.28 22.0454 160.247 21.7827C160.214 21.5181 159.922 21.2361 159.368 20.9367L158.446 20.4364L155.606 21.9739ZM161.701 23.633C160.674 24.1892 159.566 24.4423 158.378 24.3882C157.188 24.3341 156.002 23.9884 154.816 23.3452L153.945 22.8739L150.545 24.7166L148.519 23.6176L158.081 18.4394L161.135 20.0946C162.294 20.7223 162.926 21.3346 163.031 21.9314C163.134 22.5302 162.691 23.0961 161.701 23.633" fill="#252323"/>
<path d="M164.271 26.3911L164.928 26.7446C165.568 27.0922 166.147 27.2912 166.668 27.3395C167.185 27.3897 167.673 27.2912 168.132 27.042C168.585 26.7967 168.754 26.5398 168.632 26.2656C168.511 25.9913 168.122 25.6784 167.473 25.3249L166.855 24.9908L164.271 26.3911ZM162.622 27.2835L158.955 29.2709L156.927 28.1719L166.489 22.9937L169.277 24.5021C170.574 25.2071 171.301 25.8561 171.451 26.451C171.601 27.0439 171.193 27.6021 170.232 28.1236C169.668 28.4268 169.013 28.6142 168.266 28.6837C167.518 28.7552 166.736 28.7031 165.92 28.5312C165.208 30.4742 164.757 31.7335 164.568 32.311L162.317 31.0903L163.703 27.8687L162.622 27.2835" fill="#252323"/>
<path d="M165.769 32.9621L175.329 27.7839L177.359 28.881L167.797 34.0591L165.769 32.9621Z" fill="#252323"/>
<path d="M178.688 39.9574L176.112 38.5629L179.186 32.392L179.126 32.3592C177.932 33.097 177.061 33.6146 176.518 33.9082L172.019 36.3457L170.205 35.3625L179.767 30.1863L182.324 31.5692L179.316 37.6977L179.363 37.7228C180.541 37.0139 181.385 36.5214 181.9 36.2433L186.425 33.7904L188.247 34.7792L178.688 39.9574" fill="#252323"/>
<path d="M184.785 43.2585L182.757 42.1614L190.63 37.8968L188.034 36.4907L189.72 35.5771L196.943 39.4864L195.255 40.3999L192.658 38.9938L184.785 43.2585" fill="#252323"/>
<path d="M128.908 222.257L128.898 243.431L169.762 265.672V258.605L137.167 240.93L137.175 226.74L128.908 222.257Z" fill="#01BBFF"/>
<path d="M169.756 209.998L157.541 203.373L128.933 168.42L128.927 181.805L148.211 204.486L128.913 206.166L128.902 219.632L157.854 215.889L169.756 222.342V209.998" fill="#01BBFF"/>
<path d="M112.435 25.6654C118.632 27.0985 118.632 31.6162 112.435 33.0512C110.726 33.4472 108.914 33.4472 107.207 33.0512C101.009 31.6162 101.009 27.1005 107.207 25.6654C108.914 25.2694 110.726 25.2694 112.435 25.6654Z" fill="#01BBFF"/>
<path d="M109.821 26.4167C109.033 26.4167 108.242 26.5037 107.474 26.6814C105.168 27.2164 103.675 28.2671 103.675 29.3583C103.675 30.4496 105.168 31.5003 107.474 32.0353C109.01 32.3907 110.632 32.3907 112.168 32.0353C114.477 31.5003 115.967 30.4496 115.967 29.3583C115.967 28.2671 114.477 27.2164 112.171 26.6814C111.4 26.5037 110.612 26.4167 109.821 26.4167ZM109.821 34.3936C108.854 34.3936 107.882 34.2855 106.941 34.0672C103.55 33.283 101.445 31.479 101.445 29.3583C101.445 27.2376 103.55 25.4336 106.941 24.6495C108.827 24.213 110.82 24.213 112.704 24.6495C116.093 25.4336 118.199 27.2376 118.199 29.3583C118.199 31.479 116.093 33.283 112.704 34.0672C111.761 34.2855 110.793 34.3936 109.821 34.3936Z" fill="#252323"/>
<path d="M109.821 15.6123C107.233 15.6123 105.135 17.5804 105.135 20.0083V26.2372C105.135 27.199 106.134 28.159 108.135 28.6206C109.236 28.8775 110.406 28.8775 111.51 28.6206C113.509 28.159 114.51 27.199 114.51 26.2372V20.0083C114.51 17.5804 112.411 15.6123 109.821 15.6123Z" fill="white"/>
<path d="M109.821 16.6592C107.852 16.6592 106.25 18.1618 106.25 20.0083V26.2372C106.25 26.6699 106.988 27.2783 108.402 27.6047C109.331 27.821 110.313 27.821 111.241 27.6047C112.654 27.2783 113.391 26.6699 113.391 26.2372V20.0083C113.391 18.1618 111.791 16.6592 109.821 16.6592V16.6592ZM109.821 29.8587C109.164 29.8587 108.505 29.7853 107.865 29.6366C105.027 28.9799 104.019 27.4502 104.019 26.2372V20.0083C104.019 17.0068 106.621 14.5655 109.821 14.5655C113.02 14.5655 115.625 17.0068 115.625 20.0083V26.2372C115.625 27.4502 114.614 28.9818 111.775 29.6366C111.136 29.7853 110.478 29.8587 109.821 29.8587" fill="#252323"/>
<path d="M109.821 29.8587C109.164 29.8587 108.505 29.7853 107.865 29.6366C105.027 28.9818 104.019 27.4502 104.019 26.2372C104.019 25.0243 105.027 23.4945 107.865 22.8379L108.402 24.8697C106.988 25.1961 106.248 25.8065 106.248 26.2372C106.248 26.6699 106.988 27.2783 108.4 27.6047C109.331 27.8191 110.313 27.821 111.241 27.6047C112.654 27.2783 113.393 26.6699 113.393 26.2372C113.393 25.8065 112.654 25.1961 111.241 24.8697L111.777 22.8379C114.614 23.4945 115.625 25.0243 115.625 26.2372C115.625 27.4502 114.614 28.9818 111.775 29.6366C111.136 29.7853 110.478 29.8587 109.821 29.8587" fill="#252323"/>
<path d="M289.792 74.2407C295.989 75.6758 295.989 80.1934 289.792 81.6266C288.083 82.0225 286.273 82.0225 284.564 81.6266C278.366 80.1934 278.366 75.6758 284.564 74.2407C286.273 73.8448 288.083 73.8448 289.792 74.2407Z" fill="#01BBFF"/>
<path d="M287.179 74.99C286.388 74.99 285.597 75.0789 284.829 75.2566C282.523 75.7916 281.031 76.8423 281.031 77.9336C281.031 79.0248 282.523 80.0755 284.829 80.6105C286.369 80.9678 287.994 80.9659 289.526 80.6105C291.832 80.0755 293.325 79.0248 293.325 77.9336C293.325 76.8423 291.832 75.7916 289.526 75.2566C288.758 75.0789 287.969 74.99 287.179 74.99V74.99ZM287.177 82.9707C286.209 82.9707 285.239 82.8607 284.296 82.6424C280.905 81.8582 278.801 80.0543 278.801 77.9336C278.801 75.8128 280.905 74.0088 284.296 73.2247C286.184 72.7882 288.177 72.7901 290.059 73.2247C293.45 74.0088 295.554 75.8128 295.554 77.9336C295.554 80.0543 293.45 81.8582 290.061 82.6424C289.116 82.8607 288.148 82.9707 287.177 82.9707" fill="#252323"/>
<path d="M287.179 64.1876C284.589 64.1876 282.49 66.1558 282.49 68.5836V74.8125C282.49 75.7744 283.491 76.7343 285.49 77.1959C286.594 77.4528 287.761 77.4528 288.865 77.1959C290.864 76.7343 291.865 75.7744 291.865 74.8125V68.5836C291.865 66.1558 289.767 64.1876 287.179 64.1876" fill="white"/>
<path d="M287.178 65.2346C285.209 65.2346 283.607 66.7372 283.607 68.5836V74.8125C283.607 75.2452 284.347 75.8536 285.759 76.182C286.688 76.3964 287.672 76.3963 288.6 76.18C290.011 75.8536 290.75 75.2452 290.75 74.8125V68.5836C290.75 66.7372 289.148 65.2346 287.178 65.2346V65.2346ZM287.178 78.434C286.521 78.434 285.864 78.3606 285.226 78.2138C282.386 77.5572 281.375 76.0274 281.375 74.8125V68.5836C281.375 65.5822 283.978 63.1409 287.178 63.1409C290.377 63.1409 292.984 65.5822 292.984 68.5836V74.8125C292.984 76.0274 291.971 77.5572 289.134 78.2138C288.493 78.3606 287.836 78.434 287.178 78.434" fill="#252323"/>
<path d="M287.178 78.434C286.521 78.434 285.864 78.3606 285.226 78.2138C282.386 77.5572 281.375 76.0274 281.375 74.8125C281.375 73.5996 282.386 72.0699 285.224 71.4132L285.759 73.4451C284.347 73.7715 283.607 74.3818 283.607 74.8125C283.607 75.2452 284.347 75.8536 285.759 76.182C286.688 76.3963 287.672 76.3963 288.6 76.18C290.011 75.8536 290.75 75.2452 290.75 74.8125C290.75 74.3818 290.011 73.7715 288.598 73.4451L289.134 71.4132C291.971 72.0699 292.982 73.5996 292.982 74.8125C292.982 76.0274 291.971 77.5572 289.134 78.2138C288.493 78.3606 287.836 78.434 287.178 78.434" fill="#252323"/>
<path fill-rule="evenodd" clip-rule="evenodd" d="M95.4066 141.803L190.522 193.317L190.522 296.345L95.4066 244.831L95.4066 141.803Z" fill="#252323"/>
<path d="M138.871 184.214L139.955 184.801L139.955 211.477L138.399 210.634L138.399 183.958L138.871 184.214Z" fill="#EC268F"/>
<path d="M108.494 193.923L108.494 167.762L110.373 168.78L120.437 198.347L130.382 179.616L132.261 180.634L132.261 207.31L130.705 206.468L130.705 183.06L120.992 201.071L120.475 200.791L120.444 200.853L120.41 200.756L119.767 200.407L110.05 171.873L110.05 195.281L108.494 194.438L108.494 193.923Z" fill="#00AFEF"/>
<path d="M149.523 186.212L149.523 185.054L161.542 191.564L161.542 193.237L149.523 186.727L149.523 186.212Z" fill="#FFF212"/>
<path d="M138.361 180.257L138.361 179.009L139.989 179.891L139.989 181.65L138.361 180.768L138.361 180.257Z" fill="#EC268F"/>
<path d="M160.362 240.094L161.26 241.062L152.16 257.74C151.604 258.742 150.984 259.378 150.303 259.652C149.584 259.943 148.804 259.838 147.959 259.339C147.503 259.137 147.031 258.828 146.54 258.422C146.057 258.016 145.551 257.503 145.022 256.887L144.638 256.436L145.289 255.383L145.703 255.818C146.205 256.341 146.647 256.757 147.023 257.064C147.37 257.343 147.655 257.526 147.883 257.617L147.948 257.643C148.477 257.93 148.96 257.973 149.398 257.773C149.873 257.553 150.303 257.048 150.684 256.265L151.699 254.371L144.159 231.672L145.494 231.67L152.593 253.071L159.925 239.618L160.362 240.094Z" fill="#FEFEFE"/>
<path d="M128.769 239.035L128.769 248.946L127.209 248.101L127.209 222.084L128.769 222.929L128.769 226.618C129.306 225.952 129.933 225.505 130.66 225.289C131.859 224.92 133.308 225.173 134.997 226.043L135.039 226.065C137.455 227.559 139.308 229.531 140.598 231.977C141.861 234.376 142.557 237.213 142.683 240.475L142.683 240.504C142.641 243.729 141.998 245.845 140.75 246.846C139.475 247.866 137.607 247.732 135.138 246.44L135.123 246.432C133.392 245.449 131.916 244.118 130.694 242.447C129.952 241.427 129.313 240.294 128.769 239.035ZM135.157 244.765C137.105 245.775 138.57 245.876 139.552 245.064C140.56 244.229 141.085 242.428 141.127 239.669C141.009 236.852 140.43 234.45 139.396 232.455C138.391 230.518 136.926 228.942 135.009 227.735C133.049 226.846 131.554 226.816 130.527 227.656C129.477 228.518 128.887 230.279 128.769 232.956C128.929 235.692 129.542 238.043 130.611 240.011C131.665 241.942 133.179 243.529 135.157 244.765Z" fill="#FEFEFE"/>
<path d="M102.312 227.891L102.312 201.726C104.693 203.016 107.071 204.296 109.453 205.598C113.745 207.972 116.99 210.838 119.181 214.197C121.384 217.574 122.507 221.409 122.545 225.695L122.545 226.144C122.564 226.719 122.568 227.269 122.549 227.794C122.431 231.406 121.392 233.654 119.44 234.538C117.5 235.416 114.669 234.93 110.956 233.084C110.298 232.756 109.609 232.383 108.89 231.965L102.312 228.406L102.312 227.891ZM103.872 204.261L103.872 227.557L108.905 230.283C113.136 232.748 116.248 233.564 118.249 232.731C120.232 231.909 121.145 229.441 120.989 225.334L120.989 225.313C120.989 221.365 119.992 217.875 118.002 214.852C115.997 211.804 112.957 209.181 108.89 206.979L103.872 204.261Z" fill="#FEFEFE"/>
<path d="M165.1 198.93L165.096 252.379L181.596 244.089L182.757 245.974L172.469 251.01L183.617 271.637L182.365 271.968L171.297 251.48L165.096 254.6L165.096 262.166L163.54 261.324C163.54 240.936 163.536 220.543 163.54 200.158L147.655 215.647L145.966 214.732L145.966 188.056L147.397 188.831L147.397 212.915L163.281 197.434L165.1 198.419L165.1 198.93Z" fill="#FFF212"/>
</svg>
