<svg width="260" height="258" viewBox="0 0 260 258" fill="none" xmlns="http://www.w3.org/2000/svg">
<path d="M186.421 248.885L184.881 249.719C184.723 249.804 184.448 249.793 184.265 249.695L182.812 248.909C182.631 248.81 182.61 248.66 182.769 248.575L184.31 247.74C184.467 247.655 184.742 247.666 184.925 247.765L186.377 248.55C186.559 248.649 186.579 248.798 186.421 248.885" fill="#252323"/>
<path d="M190.005 250.825L188.465 251.661C188.307 251.746 188.031 251.735 187.849 251.636L186.396 250.85C186.213 250.751 186.194 250.602 186.352 250.516L187.892 249.681C188.051 249.596 188.327 249.608 188.509 249.705L189.961 250.492C190.144 250.591 190.163 250.74 190.005 250.825" fill="#252323"/>
<path d="M186.229 252.872L184.688 253.706C184.53 253.791 184.254 253.781 184.072 253.682L182.62 252.896C182.438 252.796 182.417 252.647 182.575 252.562L184.116 251.728C184.275 251.641 184.55 251.653 184.733 251.751L186.184 252.538C186.367 252.636 186.386 252.787 186.229 252.872" fill="#252323"/>
<path d="M193.591 252.767L192.051 253.601C191.892 253.688 191.616 253.676 191.434 253.577L189.982 252.791C189.799 252.693 189.78 252.544 189.938 252.457L191.478 251.623C191.636 251.538 191.912 251.548 192.094 251.647L193.547 252.434C193.73 252.533 193.749 252.682 193.591 252.767" fill="#252323"/>
<path d="M189.814 254.814L188.273 255.648C188.116 255.733 187.839 255.721 187.656 255.624L186.205 254.837C186.022 254.738 186.002 254.589 186.16 254.504L187.701 253.669C187.858 253.583 188.135 253.594 188.318 253.693L189.769 254.478C189.952 254.578 189.971 254.727 189.814 254.814" fill="#252323"/>
<path d="M197.384 254.822L195.843 255.656C195.686 255.743 195.409 255.731 195.226 255.632L193.775 254.846C193.592 254.748 193.573 254.597 193.73 254.512L195.271 253.678C195.429 253.593 195.705 253.603 195.887 253.702L197.339 254.488C197.522 254.588 197.542 254.737 197.384 254.822" fill="#252323"/>
<path d="M193.608 256.869L192.067 257.702C191.91 257.788 191.633 257.776 191.45 257.679L189.999 256.892C189.816 256.793 189.796 256.643 189.954 256.558L191.495 255.723C191.652 255.638 191.929 255.649 192.112 255.748L193.563 256.533C193.746 256.632 193.765 256.782 193.608 256.869Z" fill="#252323"/>
<path d="M201.161 252.777L199.621 253.611C199.462 253.696 199.187 253.686 199.004 253.587L197.552 252.801C197.37 252.702 197.35 252.552 197.508 252.467L199.048 251.633C199.206 251.546 199.483 251.558 199.664 251.656L201.117 252.443C201.298 252.541 201.319 252.69 201.161 252.777" fill="#252323"/>
<path d="M204.937 250.73L203.397 251.564C203.239 251.651 202.964 251.64 202.781 251.541L201.33 250.755C201.147 250.656 201.128 250.507 201.285 250.421L202.826 249.587C202.983 249.501 203.26 249.513 203.441 249.61L204.894 250.397C205.076 250.496 205.097 250.645 204.937 250.73" fill="#252323"/>
<path d="M208.714 248.685L207.173 249.52C207.016 249.605 206.74 249.595 206.558 249.496L205.106 248.709C204.923 248.61 204.904 248.461 205.062 248.376L206.602 247.542C206.76 247.455 207.035 247.466 207.218 247.565L208.671 248.352C208.852 248.451 208.873 248.6 208.714 248.685" fill="#252323"/>
<path d="M212.491 246.641L210.95 247.475C210.793 247.56 210.518 247.549 210.335 247.451L208.882 246.664C208.7 246.565 208.68 246.416 208.839 246.331L210.379 245.495C210.537 245.41 210.812 245.421 210.995 245.52L212.446 246.306C212.629 246.405 212.648 246.554 212.491 246.641Z" fill="#252323"/>
<path d="M216.268 244.594L214.728 245.428C214.57 245.515 214.293 245.504 214.112 245.405L212.659 244.618C212.478 244.52 212.457 244.37 212.616 244.284L214.157 243.45C214.314 243.365 214.589 243.375 214.772 243.474L216.224 244.261C216.407 244.36 216.426 244.509 216.268 244.594Z" fill="#252323"/>
<path d="M220.046 242.549L218.505 243.383C218.348 243.469 218.071 243.459 217.89 243.36L216.437 242.573C216.255 242.474 216.235 242.325 216.392 242.24L217.933 241.405C218.092 241.319 218.367 241.33 218.55 241.429L220.001 242.216C220.184 242.314 220.204 242.463 220.046 242.549" fill="#252323"/>
<path d="M223.823 240.503L222.282 241.337C222.125 241.423 221.848 241.412 221.667 241.313L220.214 240.528C220.031 240.429 220.011 240.28 220.169 240.193L221.71 239.359C221.867 239.274 222.144 239.285 222.327 239.383L223.778 240.169C223.961 240.268 223.98 240.418 223.823 240.503" fill="#252323"/>
<path d="M227.599 238.458L226.058 239.292C225.901 239.377 225.624 239.367 225.441 239.268L223.99 238.482C223.807 238.383 223.788 238.233 223.945 238.148L225.486 237.314C225.644 237.228 225.92 237.239 226.103 237.338L227.554 238.125C227.737 238.224 227.757 238.373 227.599 238.458Z" fill="#252323"/>
<path d="M231.376 236.413L229.836 237.247C229.677 237.332 229.402 237.321 229.219 237.222L227.767 236.437C227.585 236.338 227.565 236.188 227.723 236.103L229.263 235.268C229.421 235.183 229.698 235.194 229.879 235.293L231.332 236.078C231.515 236.177 231.534 236.326 231.376 236.413" fill="#252323"/>
<path d="M200.968 256.764L199.428 257.597C199.27 257.683 198.995 257.673 198.812 257.574L197.361 256.787C197.178 256.688 197.158 256.539 197.316 256.454L198.857 255.62C199.014 255.533 199.291 255.544 199.472 255.643L200.925 256.43C201.107 256.529 201.127 256.678 200.968 256.764Z" fill="#252323"/>
<path d="M204.745 254.719L203.205 255.552C203.047 255.638 202.772 255.626 202.589 255.529L201.136 254.742C200.955 254.643 200.934 254.494 201.093 254.409L202.634 253.573C202.791 253.488 203.067 253.499 203.249 253.598L204.702 254.384C204.884 254.483 204.904 254.632 204.745 254.719Z" fill="#252323"/>
<path d="M208.522 252.672L206.981 253.506C206.824 253.593 206.547 253.582 206.365 253.482L204.913 252.696C204.731 252.598 204.71 252.448 204.87 252.363L206.41 251.528C206.568 251.443 206.843 251.453 207.026 251.552L208.477 252.339C208.66 252.438 208.679 252.587 208.522 252.672Z" fill="#252323"/>
<path d="M212.299 250.627L210.759 251.461C210.601 251.546 210.325 251.537 210.143 251.437L208.69 250.651C208.509 250.552 208.488 250.403 208.646 250.318L210.186 249.483C210.345 249.397 210.62 249.408 210.803 249.507L212.255 250.294C212.438 250.392 212.457 250.541 212.299 250.627" fill="#252323"/>
<path d="M216.076 248.581L214.536 249.417C214.378 249.502 214.101 249.49 213.92 249.391L212.467 248.606C212.284 248.507 212.265 248.358 212.423 248.271L213.963 247.437C214.122 247.352 214.397 247.363 214.58 247.461L216.032 248.248C216.215 248.347 216.234 248.496 216.076 248.581" fill="#252323"/>
<path d="M219.854 246.536L218.313 247.37C218.155 247.455 217.879 247.445 217.696 247.346L216.245 246.56C216.062 246.461 216.042 246.311 216.2 246.226L217.741 245.392C217.898 245.306 218.175 245.317 218.358 245.416L219.809 246.202C219.992 246.302 220.011 246.451 219.854 246.536Z" fill="#252323"/>
<path d="M223.63 244.491L222.089 245.325C221.932 245.41 221.655 245.399 221.472 245.301L220.021 244.515C219.838 244.416 219.819 244.266 219.976 244.181L221.517 243.346C221.675 243.261 221.951 243.272 222.133 243.371L223.585 244.156C223.768 244.255 223.788 244.404 223.63 244.491" fill="#252323"/>
<path d="M227.407 242.444L225.867 243.279C225.708 243.365 225.433 243.354 225.25 243.255L223.798 242.468C223.615 242.371 223.596 242.22 223.754 242.135L225.294 241.301C225.452 241.216 225.728 241.225 225.91 241.324L227.363 242.111C227.544 242.21 227.565 242.359 227.407 242.444" fill="#252323"/>
<path d="M231.183 240.4L229.643 241.234C229.485 241.319 229.21 241.309 229.027 241.21L227.576 240.423C227.393 240.324 227.374 240.175 227.531 240.09L229.072 239.256C229.229 239.169 229.506 239.18 229.687 239.28L231.14 240.066C231.322 240.164 231.342 240.313 231.183 240.4Z" fill="#252323"/>
<path d="M28.2408 162.979L26.7003 163.815C26.5426 163.9 26.266 163.889 26.0846 163.79L24.6318 163.005C24.4504 162.905 24.4295 162.756 24.5872 162.67L26.1277 161.836C26.2868 161.75 26.5619 161.762 26.7448 161.859L28.1962 162.646C28.3791 162.745 28.3984 162.894 28.2408 162.979" fill="#252323"/>
<path d="M31.826 164.921L30.2854 165.756C30.1278 165.842 29.8512 165.831 29.6683 165.732L28.2169 164.945C28.034 164.847 28.0147 164.698 28.1723 164.612L29.7129 163.778C29.8705 163.692 30.1471 163.702 30.3285 163.801L31.7813 164.588C31.9642 164.687 31.9836 164.836 31.826 164.921" fill="#252323"/>
<path d="M28.0485 166.968L26.508 167.802C26.3503 167.887 26.0737 167.876 25.8923 167.778L24.4395 166.991C24.2566 166.892 24.2373 166.743 24.3949 166.658L25.9354 165.822C26.0931 165.737 26.3697 165.748 26.5526 165.847L28.0039 166.633C28.1868 166.732 28.2061 166.881 28.0485 166.968" fill="#252323"/>
<path d="M35.4091 166.863L33.8686 167.697C33.7109 167.784 33.4358 167.773 33.2529 167.673L31.8016 166.887C31.6187 166.788 31.5994 166.638 31.757 166.553L33.2975 165.719C33.4552 165.634 33.7318 165.644 33.9132 165.743L35.366 166.53C35.5474 166.629 35.5682 166.778 35.4091 166.863" fill="#252323"/>
<path d="M31.6332 168.908L30.0926 169.744C29.9335 169.829 29.6584 169.817 29.4755 169.718L28.0241 168.933C27.8412 168.834 27.8219 168.685 27.9795 168.598L29.5201 167.764C29.6777 167.679 29.9543 167.69 30.1357 167.788L31.5886 168.575C31.77 168.674 31.7908 168.823 31.6332 168.908" fill="#252323"/>
<path d="M39.2035 168.918L37.6629 169.752C37.5038 169.837 37.2287 169.827 37.0458 169.728L35.5944 168.941C35.4115 168.842 35.3922 168.693 35.5498 168.608L37.0904 167.774C37.248 167.687 37.5246 167.699 37.706 167.798L39.1588 168.584C39.3403 168.683 39.3611 168.833 39.2035 168.918" fill="#252323"/>
<path d="M35.4271 170.963L33.8865 171.797C33.7274 171.883 33.4523 171.872 33.2694 171.773L31.8181 170.988C31.6352 170.889 31.6159 170.74 31.7735 170.653L33.3141 169.819C33.4717 169.734 33.7483 169.745 33.9297 169.843L35.3825 170.629C35.5654 170.728 35.5848 170.878 35.4271 170.963" fill="#252323"/>
<path d="M42.9794 166.873L41.4388 167.707C41.2812 167.792 41.0061 167.781 40.8232 167.683L39.3718 166.897C39.1889 166.797 39.1696 166.648 39.3272 166.563L40.8678 165.728C41.0254 165.642 41.302 165.654 41.4834 165.753L42.9363 166.538C43.1177 166.637 43.1385 166.786 42.9794 166.873" fill="#252323"/>
<path d="M46.7565 164.826L45.2159 165.661C45.0583 165.747 44.7832 165.736 44.6003 165.637L43.1474 164.85C42.966 164.752 42.9452 164.602 43.1043 164.517L44.6449 163.682C44.8025 163.597 45.0776 163.607 45.2605 163.706L46.7133 164.493C46.8947 164.592 46.9156 164.741 46.7565 164.826Z" fill="#252323"/>
<path d="M50.5339 162.782L48.9933 163.616C48.8357 163.701 48.5591 163.691 48.3777 163.592L46.9249 162.805C46.7434 162.706 46.7226 162.557 46.8817 162.472L48.4223 161.638C48.5799 161.551 48.855 161.562 49.0379 161.661L50.4893 162.448C50.6722 162.546 50.6915 162.695 50.5339 162.782" fill="#252323"/>
<path d="M54.3105 160.735L52.7699 161.569C52.6123 161.656 52.3357 161.645 52.1543 161.546L50.7014 160.76C50.52 160.661 50.4992 160.512 50.6568 160.425L52.1974 159.591C52.3565 159.506 52.6316 159.517 52.8145 159.615L54.2659 160.402C54.4488 160.501 54.4681 160.65 54.3105 160.735" fill="#252323"/>
<path d="M58.0884 158.69L56.5478 159.524C56.3902 159.609 56.1136 159.6 55.9322 159.501L54.4794 158.714C54.2965 158.615 54.2772 158.466 54.4348 158.381L55.9753 157.546C56.1344 157.46 56.4095 157.471 56.5924 157.57L58.0438 158.357C58.2267 158.456 58.246 158.605 58.0884 158.69" fill="#252323"/>
<path d="M61.8647 156.645L60.3241 157.479C60.1665 157.564 59.8899 157.553 59.707 157.455L58.2557 156.669C58.0728 156.57 58.0534 156.42 58.2111 156.334L59.7516 155.5C59.9092 155.415 60.1858 155.426 60.3688 155.525L61.8201 156.31C62.003 156.409 62.0223 156.559 61.8647 156.645Z" fill="#252323"/>
<path d="M42.7874 170.859L41.2468 171.694C41.0892 171.779 40.8141 171.769 40.6312 171.67L39.1783 170.883C38.9969 170.784 38.9761 170.635 39.1352 170.55L40.6758 169.716C40.8334 169.629 41.1085 169.64 41.2914 169.739L42.7442 170.526C42.9257 170.624 42.945 170.773 42.7874 170.859Z" fill="#252323"/>
<path d="M46.5648 168.813L45.0242 169.649C44.8666 169.734 44.59 169.723 44.4086 169.624L42.9557 168.838C42.7743 168.739 42.7535 168.59 42.9126 168.504L44.4532 167.669C44.6108 167.584 44.8859 167.595 45.0688 167.693L46.5202 168.48C46.7031 168.579 46.7224 168.728 46.5648 168.813" fill="#252323"/>
<path d="M50.3425 166.768L48.8019 167.602C48.6443 167.687 48.3677 167.678 48.1863 167.579L46.7334 166.792C46.552 166.693 46.5312 166.544 46.6888 166.458L48.2294 165.624C48.3885 165.538 48.6636 165.549 48.8465 165.648L50.2978 166.435C50.4807 166.534 50.5001 166.683 50.3425 166.768" fill="#252323"/>
<path d="M54.1193 164.723L52.5787 165.557C52.4211 165.642 52.1445 165.631 51.9631 165.534L50.5103 164.747C50.3274 164.648 50.308 164.499 50.4656 164.413L52.0062 163.578C52.1653 163.493 52.4404 163.504 52.6233 163.603L54.0747 164.388C54.2576 164.487 54.2769 164.637 54.1193 164.723" fill="#252323"/>
<path d="M57.8967 162.677L56.3562 163.511C56.1985 163.597 55.9219 163.586 55.739 163.487L54.2877 162.7C54.1048 162.603 54.0855 162.452 54.2431 162.367L55.7836 161.533C55.9413 161.448 56.2179 161.458 56.4008 161.557L57.8521 162.343C58.035 162.442 58.0543 162.592 57.8967 162.677Z" fill="#252323"/>
<path d="M61.6731 160.632L60.1325 161.466C59.9734 161.551 59.6983 161.541 59.5154 161.442L58.064 160.656C57.8811 160.557 57.8618 160.407 58.0194 160.322L59.56 159.488C59.7176 159.402 59.9942 159.413 60.1756 159.512L61.6285 160.299C61.8114 160.396 61.8307 160.545 61.6731 160.632" fill="#252323"/>
<path d="M157.071 219.003L155.53 219.837C155.371 219.923 155.096 219.912 154.913 219.813L153.462 219.026C153.279 218.927 153.259 218.778 153.417 218.693L154.957 217.859C155.115 217.774 155.392 217.783 155.573 217.882L157.026 218.669C157.207 218.768 157.228 218.917 157.071 219.003" fill="#252323"/>
<path d="M160.654 220.944L159.114 221.779C158.956 221.864 158.681 221.854 158.498 221.755L157.045 220.968C156.864 220.869 156.843 220.72 157.002 220.635L158.543 219.801C158.7 219.714 158.976 219.725 159.158 219.824L160.611 220.611C160.793 220.709 160.812 220.859 160.654 220.944Z" fill="#252323"/>
<path d="M156.877 222.989L155.337 223.824C155.179 223.91 154.904 223.899 154.721 223.8L153.27 223.013C153.087 222.916 153.068 222.766 153.225 222.68L154.766 221.846C154.923 221.761 155.2 221.77 155.381 221.869L156.834 222.656C157.016 222.755 157.036 222.904 156.877 222.989Z" fill="#252323"/>
<path d="M164.239 222.886L162.699 223.72C162.541 223.806 162.264 223.794 162.083 223.697L160.63 222.91C160.449 222.811 160.428 222.662 160.586 222.577L162.126 221.742C162.285 221.656 162.56 221.667 162.743 221.766L164.195 222.552C164.378 222.651 164.397 222.8 164.239 222.886" fill="#252323"/>
<path d="M160.463 224.931L158.922 225.765C158.764 225.852 158.488 225.841 158.307 225.742L156.854 224.955C156.672 224.856 156.651 224.707 156.811 224.621L158.351 223.787C158.509 223.702 158.784 223.712 158.967 223.811L160.418 224.598C160.601 224.697 160.62 224.846 160.463 224.931Z" fill="#252323"/>
<path d="M168.033 224.941L166.493 225.775C166.335 225.86 166.058 225.849 165.877 225.751L164.424 224.965C164.243 224.866 164.222 224.716 164.38 224.631L165.92 223.796C166.079 223.711 166.354 223.722 166.537 223.821L167.989 224.606C168.172 224.705 168.191 224.854 168.033 224.941" fill="#252323"/>
<path d="M164.257 226.986L162.716 227.82C162.559 227.905 162.282 227.896 162.1 227.797L160.648 227.01C160.466 226.911 160.445 226.761 160.605 226.676L162.145 225.842C162.303 225.756 162.578 225.767 162.761 225.866L164.212 226.653C164.395 226.752 164.414 226.901 164.257 226.986Z" fill="#252323"/>
<path d="M171.81 222.895L170.269 223.729C170.112 223.815 169.835 223.804 169.654 223.705L168.201 222.918C168.018 222.821 167.999 222.67 168.156 222.585L169.697 221.751C169.856 221.666 170.131 221.676 170.314 221.775L171.765 222.561C171.948 222.66 171.968 222.81 171.81 222.895" fill="#252323"/>
<path d="M175.588 220.85L174.047 221.684C173.889 221.769 173.613 221.759 173.43 221.66L171.979 220.873C171.796 220.774 171.776 220.625 171.934 220.54L173.475 219.706C173.632 219.619 173.909 219.63 174.092 219.729L175.543 220.516C175.726 220.614 175.745 220.763 175.588 220.85Z" fill="#252323"/>
<path d="M179.365 218.803L177.824 219.639C177.667 219.724 177.39 219.713 177.207 219.614L175.756 218.828C175.573 218.729 175.554 218.58 175.711 218.493L177.252 217.659C177.409 217.574 177.686 217.585 177.868 217.683L179.32 218.47C179.503 218.569 179.523 218.718 179.365 218.803" fill="#252323"/>
<path d="M183.141 216.758L181.601 217.592C181.442 217.678 181.167 217.668 180.984 217.569L179.532 216.782C179.349 216.683 179.33 216.534 179.488 216.449L181.028 215.614C181.186 215.528 181.462 215.539 181.644 215.638L183.097 216.425C183.28 216.524 183.299 216.673 183.141 216.758" fill="#252323"/>
<path d="M171.618 226.881L170.078 227.717C169.92 227.802 169.644 227.791 169.461 227.692L168.009 226.906C167.827 226.807 167.807 226.658 167.965 226.572L169.505 225.737C169.663 225.652 169.94 225.664 170.122 225.761L171.574 226.548C171.757 226.647 171.776 226.796 171.618 226.881Z" fill="#252323"/>
<path d="M175.396 224.836L173.855 225.671C173.696 225.756 173.421 225.746 173.238 225.647L171.787 224.86C171.604 224.761 171.585 224.612 171.742 224.527L173.283 223.693C173.44 223.608 173.717 223.617 173.898 223.716L175.351 224.503C175.534 224.602 175.553 224.751 175.396 224.836" fill="#252323"/>
<path d="M179.172 222.791L177.632 223.625C177.472 223.711 177.197 223.699 177.014 223.602L175.563 222.815C175.38 222.716 175.361 222.567 175.519 222.482L177.059 221.646C177.217 221.561 177.493 221.572 177.675 221.671L179.128 222.456C179.309 222.556 179.33 222.705 179.172 222.791" fill="#252323"/>
<path d="M182.948 220.745L181.408 221.579C181.25 221.666 180.975 221.655 180.792 221.556L179.341 220.769C179.158 220.671 179.138 220.52 179.296 220.435L180.837 219.601C180.994 219.516 181.271 219.526 181.452 219.625L182.905 220.412C183.086 220.511 183.107 220.66 182.948 220.745Z" fill="#252323"/>
<path d="M254.733 82.7153C254.803 82.5074 254.703 82.2898 254.498 82.1866L242.09 75.9052C240.074 75.0906 237.568 75.3026 234.844 76.7771L228.347 80.2965C226.584 81.252 225.153 83.8159 225.153 86.0227V124.831C225.153 125.992 225.555 126.809 226.187 127.198L238.108 133.295C238.336 133.411 238.615 133.346 238.751 133.139C240.27 130.818 248.547 118.138 248.326 117.926C248.101 117.713 253.841 85.4215 254.733 82.7153" fill="#01BBFF"/>
<path d="M239.611 76.1813C238.271 76.1813 236.788 76.5984 235.249 77.4326L228.752 80.9506C227.239 81.7708 225.96 84.0934 225.96 86.0226V124.831C225.96 125.66 226.21 126.308 226.629 126.566L238.226 132.495C242.551 125.884 247.265 118.529 247.552 117.761L247.571 117.768C247.601 116.573 248.181 113.001 250.317 101.13C251.7 93.4352 253.332 84.7699 253.892 82.7375L241.709 76.5705C241.062 76.311 240.359 76.1813 239.611 76.1813V76.1813ZM238.344 134.109C238.134 134.109 237.92 134.06 237.722 133.959L225.801 127.862C224.845 127.275 224.348 126.211 224.348 124.831V86.0226C224.348 83.5368 225.929 80.7344 227.946 79.6408L234.442 76.1227C237.301 74.5744 240.054 74.2605 242.409 75.2104L254.881 81.5211C255.424 81.7959 255.686 82.3929 255.504 82.9398C254.613 85.6362 249.146 116.69 249.126 117.88H249.111C249.012 118.77 247.3 121.519 239.438 133.534C239.199 133.904 238.778 134.109 238.344 134.109" fill="#252323"/>
<path d="M239.903 94.3628L252.634 87.4677L233.87 77.3056L228.347 80.2963C226.584 81.2518 225.153 83.8157 225.153 86.0225V86.3726L239.903 94.3628" fill="white"/>
<path d="M225.96 85.9373L239.905 93.4895L251.024 87.4676L233.871 78.1773L228.752 80.9504C227.261 81.7581 225.998 84.0249 225.96 85.9373ZM239.905 95.2345L224.348 86.8091V86.0224C224.348 83.5366 225.929 80.7342 227.946 79.6406L233.871 76.4323L254.246 87.4676L239.905 95.2345" fill="#252323"/>
<path d="M255.998 125.061L240.652 133.372C238.889 134.328 237.458 133.313 237.458 131.107V92.2968C237.458 90.0901 238.889 87.5262 240.652 86.5706L247.149 83.0526C253.801 79.4495 259.193 83.2744 259.193 91.5938V119.335C259.193 121.542 257.764 124.105 255.998 125.061" fill="#252323"/>
<path d="M251.936 82.4585C250.577 82.4585 249.085 82.877 247.554 83.707L241.055 87.2264C239.541 88.0466 238.264 90.3678 238.264 92.297V131.107C238.264 131.976 238.526 132.637 238.964 132.876C239.376 133.099 239.889 132.912 240.249 132.718L255.595 124.406C257.109 123.585 258.388 121.263 258.388 119.335V91.5939C258.388 87.497 257.017 84.4058 254.627 83.1113C253.821 82.6747 252.913 82.4585 251.936 82.4585V82.4585ZM239.382 134.489C238.948 134.489 238.535 134.388 238.158 134.185C237.201 133.665 236.651 132.544 236.651 131.107V92.297C236.651 89.8126 238.231 87.0102 240.249 85.9166L246.748 82.3972C249.903 80.6884 252.989 80.4763 255.433 81.8015C258.336 83.3736 260 86.9418 260 91.5939V119.335C260 121.819 258.419 124.622 256.401 125.715L241.055 134.026C240.486 134.335 239.919 134.489 239.382 134.489" fill="#252323"/>
<path d="M208.578 133.293V98.6118L163.858 93.9472L165.611 117.194L202.536 132.422L208.578 133.293" fill="#01BBFF"/>
<path d="M202.764 131.69L207.772 132.412V99.2885L164.73 94.7995L166.382 116.685L202.764 131.69ZM209.385 134.174L202.212 133.114L164.843 117.702L162.987 93.0963L209.385 97.9353V134.174" fill="#252323"/>
<path d="M201.809 113.603L186.613 105.235L187.43 103.931L202.624 112.299L201.809 113.603" fill="#252323"/>
<path d="M63.5839 137.931C63.1437 137.741 62.5683 137.784 61.9318 138.13L55.2565 141.744C54.5264 142.141 53.8289 142.371 53.1806 142.468L54.3643 61.7967L49.1537 63.1903V46.7161L43.5387 49.6343V141.357C43.5387 144.993 40.7936 149.456 37.4359 151.273L30.9985 154.761C29.8 155.409 28.875 156.453 28.4869 157.698C28.0453 159.121 28.3561 160.089 29.0416 160.434L36.5095 164.231C36.5957 164.274 36.6998 164.27 36.7816 164.22L49.8497 156.206L68.4599 145.05L71.1053 142.111C71.2153 141.99 71.1782 141.806 71.0295 141.729L63.5839 137.931" fill="#01BBFF"/>
<path d="M44.3453 50.0794V141.357C44.3453 145.243 41.4262 149.986 37.8395 151.928L31.4021 155.415C30.3597 155.978 29.5805 156.888 29.2623 157.91C28.9322 158.965 29.115 159.614 29.4243 159.768L36.6112 163.422L49.4101 155.574L67.9237 144.476L70.065 142.097L63.2291 138.61C63.0135 138.529 62.6908 138.591 62.3354 138.784L55.6601 142.4C54.8735 142.824 54.0838 143.099 53.3091 143.215L52.3633 143.357L52.3752 142.459L53.544 62.8026L48.3468 64.1919V47.9995L44.3453 50.0794ZM36.6365 165.016C36.4625 165.016 36.2885 164.977 36.1294 164.898L28.6585 161.099C27.7961 160.664 27.0927 159.485 27.7143 157.486C28.1544 156.073 29.1775 154.874 30.5961 154.105L37.0335 150.618C40.1236 148.945 42.7333 144.705 42.7333 141.357V49.1894L49.9603 45.4343V62.1888L55.1857 60.7911L54.002 141.477C54.2831 141.375 54.5671 141.245 54.8526 141.09L61.5294 137.475C62.3681 137.021 63.2187 136.939 63.9235 137.246L63.9696 137.268L71.4152 141.067C71.7007 141.212 71.897 141.466 71.9565 141.763C72.0175 142.061 71.9312 142.365 71.723 142.598L68.8932 145.688L50.2845 156.843L37.2238 164.852C37.0469 164.962 36.8417 165.016 36.6365 165.016" fill="#252323"/>
<path d="M49.3549 151.661L41.4543 147.435L41.4409 147.425C40.3643 149.037 38.9695 150.439 37.4289 151.273L30.99 154.761C30.4755 155.038 30.1365 155.457 29.7424 155.865L37.0735 159.769L39.3828 161.112L44.4016 159.544L48.2545 157.181L49.3549 151.661" fill="white"/>
<path d="M31.0207 155.678L37.4699 159.111L39.4849 160.283L44.0471 158.858L47.5238 156.725L48.4576 152.052L41.6961 148.433C40.5719 149.949 39.2202 151.176 37.8313 151.927L31.3924 155.415C31.2601 155.486 31.1381 155.575 31.0207 155.678V155.678ZM39.2767 161.942L36.6476 160.411L28.4734 156.059L29.3299 155.162C29.6645 154.805 30.0437 154.399 30.5879 154.105L37.0253 150.618C38.3711 149.889 39.696 148.613 40.7578 147.023L41.2292 146.316L41.9325 146.826L50.2525 151.27L48.9825 157.637L44.6553 160.261L39.2767 161.942" fill="#252323"/>
<path d="M63.5838 137.906C63.1436 137.716 62.5682 137.759 61.9317 138.105L55.2564 141.719C54.5263 142.116 53.8289 142.346 53.1805 142.443L52.7761 143.693L60.3986 147.469L62.2143 148.769L68.4598 145.025L71.1052 142.086C71.2153 141.965 71.1781 141.781 71.0294 141.704L63.5838 137.906" fill="white"/>
<path d="M53.7401 143.317L60.8883 146.869L62.2563 147.847L67.9234 144.451L70.0648 142.072L63.2289 138.585C63.0177 138.503 62.6906 138.567 62.3352 138.759L55.6599 142.374C55.0428 142.707 54.4241 142.948 53.813 143.092L53.7401 143.317ZM62.1746 149.69L59.9634 148.11L51.8099 144.071L52.5564 141.771L53.0546 141.696C53.6331 141.611 54.2383 141.399 54.8524 141.065L61.5292 137.449C62.3664 136.996 63.217 136.915 63.9218 137.219L63.9694 137.242L71.415 141.04C71.702 141.188 71.8983 141.442 71.9578 141.742C72.0157 142.039 71.9295 142.343 71.7213 142.573L68.893 145.663L62.1746 149.69Z" fill="#252323"/>
<path d="M56.7048 142.287V50.5635L51.0913 53.4816V145.205C51.0913 148.856 48.3596 153.296 44.9885 155.121L38.3132 158.736C36.9437 159.478 35.8344 161.282 35.8344 162.765C35.8344 164.248 36.9437 164.849 38.3132 164.107L51.0913 157.186L56.7048 154.27L69.4829 147.348C70.8525 146.607 71.9633 144.804 71.9633 143.319C71.9633 141.837 70.8525 141.235 69.4829 141.977L62.8076 145.593C59.438 147.418 56.7048 145.938 56.7048 142.287" fill="#252323"/>
<path d="M51.898 53.9265V145.205C51.898 149.156 49.0399 153.799 45.3922 155.776L38.7169 159.39C37.5912 160 36.641 161.545 36.641 162.765C36.641 163.187 36.7614 163.505 36.9637 163.616C37.1629 163.724 37.5198 163.664 37.9109 163.452L50.689 156.532L56.3145 153.608L69.0821 146.694C70.2078 146.084 71.158 144.54 71.158 143.321C71.158 142.897 71.0376 142.579 70.8338 142.468C70.6301 142.358 70.2777 142.42 69.8881 142.632L63.2113 146.247C61.3213 147.27 59.5041 147.413 58.0915 146.648C56.6773 145.883 55.8996 144.335 55.8996 142.287V51.8467L51.898 53.9265ZM37.2016 165.178C36.8269 165.178 36.4715 165.094 36.1577 164.925C35.4395 164.536 35.0291 163.748 35.0291 162.765C35.0291 161.014 36.2945 158.956 37.9109 158.08L44.5862 154.466C47.7283 152.763 50.286 148.609 50.286 145.205V53.0366L57.5115 49.2814V142.287C57.5115 143.771 58.0037 144.855 58.896 145.339C59.7897 145.823 61.0358 145.678 62.4053 144.937L69.0821 141.323C69.9907 140.831 70.9231 140.771 71.6413 141.16C72.3581 141.549 72.77 142.336 72.77 143.321C72.77 145.071 71.5045 147.127 69.8881 148.003L57.1085 154.924L51.4831 157.848L38.7169 164.762C38.2054 165.038 37.6864 165.178 37.2016 165.178" fill="#252323"/>
<path d="M50.6654 140.838L43.1127 136.421L43.9663 135.138L51.5174 139.554L50.6654 140.838Z" fill="#252323"/>
<path d="M50.6654 121.709L43.1127 117.293L43.9663 116.009L51.5174 120.426L50.6654 121.709Z" fill="#252323"/>
<path d="M52.2362 81.7177L51.6161 80.7106L55.8318 78.4271L56.4519 79.4343L52.2362 81.7177Z" fill="#01BBFF"/>
<path d="M73.9505 18.9988C73.6219 18.8286 73.1728 18.8551 72.6747 19.1244L19.7824 47.8488C18.5735 48.5044 17.427 49.7124 16.6611 51.1422L1.56774 79.3198C1.07554 80.2391 0.806366 81.2002 0.806366 82.0427V88.1637C0.806366 88.6282 0.961012 88.9672 1.20935 89.1709L1.25545 89.2071C1.31345 89.249 14.8886 96.4608 16.2537 97.1917C16.3028 97.2196 16.3637 97.2029 16.3949 97.1582L21.4464 89.6423C21.4494 89.6354 21.4553 89.6298 21.4598 89.6242L62.093 51.5077L84.7895 35.7896C84.797 35.7812 84.8029 35.7729 84.8074 35.7631L89.0514 27.1494C89.0752 27.102 89.0559 27.0462 89.0083 27.0197L73.9505 18.9988" fill="#01BBFF"/>
<path d="M73.4877 19.6477C73.4029 19.6477 73.2617 19.6812 73.0788 19.7788L20.185 48.5032C19.1188 49.0821 18.0704 50.1939 17.3819 51.4814L2.28704 79.659C1.85283 80.4722 1.61341 81.319 1.61341 82.0429V88.1639C1.61341 88.4108 1.67885 88.5517 1.73833 88.6019C1.86919 88.6703 6.10575 90.9231 9.84118 92.9108C12.4212 94.2835 14.903 95.6031 16.0703 96.2238L20.8586 89.1236L61.523 50.9736L84.1542 35.289L88.0503 27.3798L73.5606 19.6602C73.5443 19.6519 73.5204 19.6477 73.4877 19.6477V19.6477ZM16.3038 97.9619C16.1507 97.9619 15.9945 97.9256 15.8518 97.8489C15.245 97.5225 12.2219 95.9142 9.04709 94.2263C0.843125 89.8629 0.838674 89.8601 0.767296 89.8085C0.368771 89.4863 0 89.0065 0 88.1639V82.0429C0 81.0888 0.301859 80.0008 0.846113 78.9811L15.941 50.8035C16.7782 49.2397 18.0303 47.9243 19.379 47.1948L72.2728 18.4703C72.9911 18.0812 73.7435 18.0309 74.3383 18.3364L74.3487 18.3406L89.4064 26.3629C89.8227 26.5833 89.9863 27.0743 89.7752 27.4802L85.2665 36.398L62.5714 52.1161L22.0839 90.107L17.0756 97.5616C16.9016 97.8196 16.6072 97.9619 16.3038 97.9619" fill="#252323"/>
<path d="M1.20935 89.1709L1.25545 89.2071C1.31345 89.249 14.8886 96.4608 16.2537 97.1917C16.3028 97.2196 16.3637 97.2029 16.3949 97.1582L17.9727 94.8106C16.8351 92.8381 15.9548 91.3651 15.9548 91.3651L0.806366 83.1964V88.1637C0.806366 88.6282 0.961012 88.9672 1.20935 89.1709" fill="#252323"/>
<path d="M1.73238 88.5963L1.76211 88.6187C1.86918 88.6703 6.10575 90.9231 9.84118 92.9108C12.4212 94.2835 14.903 95.6031 16.0703 96.2252L17.0399 94.7815C16.2428 93.4075 15.6049 92.3292 15.3596 91.9163L1.61341 84.5036V88.1639C1.61341 88.4011 1.6729 88.5419 1.73238 88.5963V88.5963ZM16.3038 97.9619C16.1507 97.9619 15.9945 97.9256 15.8518 97.8489C15.245 97.5225 12.2219 95.9142 9.04709 94.2263C0.843125 89.8629 0.838674 89.8601 0.767296 89.8085L0.678096 89.7402C0.368793 89.4863 0 89.0065 0 88.1639V81.8895L16.5492 90.8143L16.6578 90.9956C16.6578 90.9956 17.5395 92.4728 18.6816 94.4508L18.9061 94.84L17.0756 97.5616C16.9016 97.8196 16.6072 97.9619 16.3038 97.9619" fill="#252323"/>
<path d="M31.8107 59.2132L86.0324 31.8991L67.5396 21.9058L19.7821 47.8487C18.5731 48.5044 17.4266 49.7124 16.6608 51.1422L31.8107 59.2132" fill="white"/>
<path d="M17.7539 50.8549L31.8213 58.3499L84.3745 31.8755L67.5413 22.7778L20.1867 48.5031C19.296 48.9857 18.4201 49.8394 17.7539 50.8549V50.8549ZM31.799 60.0768L15.5977 51.445L15.9413 50.8033C16.7785 49.2396 18.0305 47.9242 19.3793 47.1946L67.5383 21.0327L87.6891 31.9215L31.799 60.0768" fill="#252323"/>
<path d="M87.8245 59.2132L17.7837 97.2251C16.774 97.7719 15.9547 97.3283 15.9547 96.2347V90.1152C15.9547 89.2726 16.2238 88.3101 16.716 87.3908L31.8109 59.2132C32.5752 57.7848 33.7217 56.5754 34.9307 55.9212L87.8245 27.1968C88.8342 26.65 89.652 27.0921 89.652 28.1872V56.2434C89.652 57.337 88.8342 58.6664 87.8245 59.2132Z" fill="#252323"/>
<path d="M88.6405 27.7186C88.5557 27.7186 88.4115 27.7507 88.2271 27.8512L35.3348 56.5756C34.2671 57.1531 33.2187 58.2662 32.5302 59.5538L17.4368 87.7314C17.0011 88.5432 16.7602 89.39 16.7602 90.1153V96.2349C16.7602 96.5152 16.842 96.6631 16.8926 96.691C16.9431 96.7175 17.1201 96.7106 17.3788 96.5697L87.4196 58.5592C88.1795 58.1477 88.8456 57.0652 88.8456 56.2436V28.1873C88.8456 27.9069 88.7639 27.7591 88.7134 27.7312C88.6985 27.7228 88.6747 27.7186 88.6405 27.7186V27.7186ZM16.9625 98.2143C16.6487 98.2143 16.3513 98.1432 16.0866 97.9995C15.4903 97.6772 15.1483 97.0342 15.1483 96.2349V90.1153C15.1483 89.1584 15.4501 88.0703 15.9959 87.052L31.0893 58.873C31.9265 57.3107 33.1801 55.9967 34.5273 55.2671L87.4196 26.5427C88.1572 26.1424 88.923 26.0991 89.5178 26.4213C90.1156 26.745 90.4576 27.388 90.4576 28.1873V56.2436C90.4576 57.5981 89.4777 59.1897 88.2271 59.8676L18.1863 97.8795C17.7759 98.1013 17.3565 98.2143 16.9625 98.2143" fill="#252323"/>
<path d="M16.5746 96.2348H15.3344V91.6538H16.5746V96.2348Z" fill="#01BBFF"/>
<path d="M17.2481 86.8581L2.09967 78.7856L2.89674 77.4716L18.0436 85.544L17.2481 86.8581" fill="#252323"/>
<path d="M28.5881 65.7402L13.4397 57.6677L14.2367 56.3537L29.3851 64.4262L28.5881 65.7402Z" fill="#252323"/>
<path d="M223.29 145.826C223.289 145.798 223.29 141.806 223.29 141.806C223.29 141.693 223.202 141.597 223.083 141.577L214.348 140.216C214.32 140.211 214.292 140.202 214.267 140.188L76.5778 65.4641C75.2201 64.7276 73.1651 64.6481 71.9888 65.2856L35.5669 85.2037C35.5431 85.2163 35.5164 85.2261 35.4881 85.2303L25.6246 86.9405C25.5071 86.96 25.4224 87.0562 25.4224 87.1678V91.0973V91.2075C25.4105 91.7167 25.6157 92.2984 26.499 92.7782L172.099 171.787C173.458 172.522 175.512 172.603 176.688 171.966L222.508 146.959C223.063 146.657 223.312 146.25 223.29 145.827V145.826" fill="#01BBFF"/>
<path d="M26.2303 87.6043L26.2288 91.2255C26.2228 91.485 26.2987 91.7961 26.9024 92.1239L172.504 171.133C173.598 171.726 175.366 171.809 176.285 171.311L222.102 146.304C222.251 146.223 222.496 146.062 222.486 145.865V145.857C222.484 145.837 222.483 145.815 222.485 142.251L214.068 140.938L213.855 140.838L76.1752 66.1182C75.0823 65.5239 73.3127 65.4388 72.3922 65.9396L35.8484 85.9248L35.6268 85.975L26.2303 87.6043ZM174.69 173.148C173.649 173.15 172.563 172.91 171.696 172.441L26.0965 93.4323C24.8459 92.7558 24.6035 91.8393 24.6184 91.1907V87.1677C24.6184 86.6906 24.9812 86.2819 25.4808 86.1968L35.2462 84.5034L71.5833 64.6326C73.0064 63.8612 75.3783 63.9393 76.9813 64.8097L214.584 139.486L223.216 140.832C223.725 140.91 224.096 141.319 224.096 141.806C224.096 141.806 224.095 145.553 224.096 145.806C224.128 146.529 223.698 147.186 222.911 147.613L177.094 172.618C176.438 172.974 175.58 173.148 174.69 173.148" fill="#252323"/>
<path d="M28.319 86.3881L25.5784 86.8624C25.4609 86.8833 25.3761 86.9781 25.3761 87.0897V91.0207V91.1309C25.3642 91.64 25.5679 92.2217 26.4527 92.7002L28.319 93.7115V86.3881Z" fill="#252323"/>
<path d="M174.527 172.394C175.335 172.416 176.116 172.28 176.688 171.968L222.508 146.962C223.063 146.66 223.313 146.253 223.29 145.83C223.289 145.801 223.29 141.809 223.29 141.809C223.29 141.696 223.202 141.599 223.083 141.58L214.349 140.218C214.32 140.214 214.292 140.204 214.267 140.191L182.526 123.001L174.527 115.712V172.394Z" fill="#252323"/>
<path d="M222.507 142.826L176.687 167.834C175.511 168.47 173.458 168.39 172.098 167.655L26.4985 88.645C25.1409 87.9099 24.9937 86.7967 26.1699 86.1606L71.9884 61.1523C73.1646 60.5162 75.2197 60.5957 76.5773 61.3309L222.177 140.341C223.536 141.076 223.684 142.189 222.507 142.826Z" fill="white"/>
<path d="M73.9711 61.4816C73.3674 61.4816 72.7963 61.5876 72.3919 61.808L26.5749 86.8135C26.4544 86.8777 26.1808 87.0465 26.1808 87.239C26.1808 87.4064 26.3697 87.7021 26.902 87.9909L172.503 167.001C173.598 167.594 175.367 167.678 176.285 167.178L222.105 142.171C222.222 142.109 222.496 141.94 222.496 141.747C222.496 141.58 222.307 141.283 221.776 140.995L76.1749 61.9851C75.5622 61.6532 74.7384 61.4816 73.9711 61.4816V61.4816ZM174.689 169.017C173.648 169.017 172.561 168.778 171.696 168.31L26.0961 89.2993C25.125 88.7748 24.5704 88.0229 24.5704 87.239C24.5704 86.5499 25.0061 85.918 25.766 85.5051L71.5829 60.4996C73.006 59.7296 75.3779 59.8077 76.9809 60.6767L222.582 139.687C223.552 140.211 224.108 140.962 224.108 141.747C224.108 142.436 223.671 143.068 222.911 143.481L177.094 168.487C176.438 168.842 175.58 169.017 174.689 169.017" fill="#252323"/>
<path d="M165.748 212.37L164.901 211.082L182.407 200.969C185.028 199.488 188.278 199.489 190.893 200.969L194.785 203.451C196.843 204.614 199.45 204.618 201.549 203.438L207.523 200.081C214.597 196.106 223.446 195.999 230.621 199.809L242.382 206.003C243.249 206.461 244.276 206.455 245.131 205.987C245.989 205.518 246.499 204.682 246.499 203.752V129.769H248.113V203.752C248.113 205.226 247.301 206.55 245.945 207.294C244.586 208.036 242.959 208.047 241.591 207.319L229.828 201.125C223.156 197.584 214.927 197.68 208.351 201.378L202.378 204.735C199.762 206.204 196.52 206.197 193.915 204.722L190.023 202.241C187.961 201.077 185.35 201.071 183.246 202.259L165.748 212.37" fill="#252323"/>
<path d="M248.112 185.148H246.499V179.568C246.499 176.714 247.4 173.956 249.104 171.593C250.627 169.48 251.432 167.015 251.432 164.467V127.098H253.045V164.467C253.045 167.318 252.144 170.076 250.44 172.44C248.916 174.552 248.112 177.017 248.112 179.568V185.148Z" fill="#252323"/>
<path d="M248.113 199.513H246.5V196.512C246.5 194.233 245.743 192.057 244.309 190.217C242.671 188.117 241.805 185.632 241.805 183.03V130.355H243.419V183.03C243.419 185.309 244.175 187.486 245.609 189.324C247.248 191.425 248.113 193.911 248.113 196.512V199.513" fill="#252323"/>
<path d="M180.958 207.167L173.553 206.528C173.541 206.527 173.529 206.524 173.517 206.518L171.733 206.517C169.594 205.359 168.765 205.593 166.913 206.596L165.203 207.525L164.934 207.517L155.705 208.976C155.665 208.983 155.634 209.017 155.634 209.056L155.624 213.699C155.624 214.553 156.149 215.276 157.393 215.949L162.528 218.707C164.666 219.865 167.901 219.99 169.754 218.988L179.791 213.547C180.584 213.119 180.993 212.551 181.036 211.953V207.246C181.036 207.205 181.001 207.17 180.958 207.167" fill="#01BBFF"/>
<path d="M156.439 209.626L156.432 213.699C156.432 214.097 156.587 214.639 157.797 215.295L162.929 218.05C164.813 219.071 167.751 219.197 169.351 218.333L179.39 212.893C179.756 212.695 180.199 212.361 180.232 211.902L180.23 207.863L173.397 207.274H171.518L171.331 207.172C169.472 206.166 168.965 206.359 167.317 207.25L165.409 208.287L164.99 208.274L156.439 209.626ZM166.608 220.421C165.052 220.421 163.422 220.064 162.126 219.363L156.992 216.606C155.529 215.812 154.818 214.862 154.818 213.699L154.83 208.419L155.566 208.231L164.881 206.759L165 206.762L166.509 205.942C168.468 204.883 169.598 204.539 171.945 205.761L173.777 205.788L181.765 206.471L181.842 207.246V211.953C181.775 212.88 181.192 213.663 180.196 214.201L170.157 219.642C169.191 220.165 167.925 220.421 166.608 220.421" fill="#252323"/>
<path d="M166.396 219.655C167.651 219.685 168.863 219.47 169.754 218.987L177.693 214.623V207.257L173.553 206.528C173.542 206.526 173.53 206.524 173.518 206.517L173.317 208.14L166.396 207.215V219.655" fill="#252323"/>
<path d="M167.204 208.086V218.883C168.049 218.824 168.792 218.636 169.351 218.333L176.888 214.19V207.885L174.219 207.415L174.022 208.997L167.204 208.086ZM166.621 220.414C166.541 220.414 166.459 220.413 166.377 220.41L165.592 220.392V206.344L172.613 207.282L172.856 205.309L173.814 205.808L178.5 206.631V215.056L170.162 219.64C169.234 220.142 167.985 220.414 166.621 220.414" fill="#252323"/>
<path d="M174.139 202.265L179.273 205.021C181.412 206.179 181.644 207.931 179.791 208.934L169.753 214.374C167.901 215.377 164.666 215.252 162.528 214.094L157.393 211.336C155.255 210.178 155.021 208.426 156.874 207.423L166.913 201.983C168.765 200.98 172 201.106 174.139 202.265Z" fill="#01BBFF"/>
<path d="M170.041 202.063C169.008 202.063 168.029 202.252 167.317 202.637L157.278 208.076C156.891 208.287 156.43 208.638 156.43 209.122C156.43 209.636 156.94 210.219 157.797 210.682L162.929 213.437C164.813 214.458 167.751 214.584 169.351 213.72L179.39 208.28C179.775 208.071 180.236 207.719 180.236 207.235C180.236 206.722 179.726 206.139 178.87 205.676L173.736 202.919C172.694 202.354 171.326 202.063 170.041 202.063V202.063ZM166.608 215.808C165.052 215.808 163.422 215.451 162.126 214.75L156.992 211.993C155.611 211.243 154.818 210.198 154.818 209.124C154.818 208.182 155.404 207.347 156.472 206.769L166.511 201.329C168.617 200.187 172.141 200.309 174.539 201.609L179.674 204.364C181.057 205.113 181.848 206.16 181.848 207.235C181.848 208.175 181.261 209.012 180.196 209.588L170.157 215.029C169.191 215.552 167.925 215.808 166.608 215.808" fill="#252323"/>
<path d="M163.296 218.555H161.683V213.942H163.296V218.555Z" fill="#252323"/>
<path d="M168.331 207.241C167.763 207.241 167.196 207.354 166.784 207.575C166.505 207.729 166.38 207.886 166.38 207.977C166.38 208.068 166.505 208.225 166.784 208.376C167.608 208.822 169.052 208.822 169.876 208.376C170.155 208.225 170.28 208.068 170.28 207.977C170.28 207.886 170.155 207.729 169.876 207.577V207.575C169.464 207.354 168.897 207.241 168.331 207.241V207.241ZM168.331 210.222C167.485 210.222 166.639 210.044 165.978 209.686C165.209 209.27 164.769 208.647 164.769 207.977C164.769 207.306 165.209 206.684 165.978 206.267C167.299 205.553 169.363 205.553 170.682 206.268V206.267C171.451 206.684 171.892 207.306 171.892 207.977C171.892 208.647 171.451 209.27 170.682 209.686C170.022 210.044 169.175 210.222 168.331 210.222Z" fill="white"/>
<path d="M248.393 128.141H247.152V106.633H248.393V128.141Z" fill="#01BBFF"/>
<path d="M250.764 108.545L245.726 111.272C244.608 111.879 243.701 111.236 243.701 109.837V105.059C243.701 103.66 244.608 102.035 245.726 101.428L250.764 98.701C251.883 98.0942 252.79 98.7372 252.79 100.136V104.914C252.79 106.313 251.883 107.938 250.764 108.545" fill="#252323"/>
<path d="M251.569 99.0539C251.386 99.0539 251.193 99.1404 251.074 99.2045L246.037 101.932C245.106 102.437 244.321 103.868 244.321 105.059V109.837C244.321 110.442 244.522 110.767 244.711 110.869C244.937 110.992 245.249 110.858 245.417 110.769L250.454 108.04C251.384 107.536 252.17 106.105 252.17 104.914V100.136C252.17 99.5309 251.969 99.2059 251.78 99.1041C251.715 99.0692 251.642 99.0539 251.569 99.0539ZM244.92 112.083C244.627 112.083 244.346 112.014 244.091 111.876C243.45 111.529 243.081 110.785 243.081 109.837V105.059C243.081 103.451 244.107 101.635 245.417 100.924L250.454 98.1974C251.139 97.8249 251.829 97.7873 252.4 98.097C253.041 98.4443 253.41 99.1878 253.41 100.136V104.914C253.41 106.522 252.384 108.339 251.074 109.049L246.037 111.776C245.659 111.981 245.28 112.083 244.92 112.083" fill="#01BBFF"/>
<path d="M251.748 109.195L246.71 111.924C245.592 112.529 244.685 111.886 244.685 110.487V105.709C244.685 104.31 245.592 102.685 246.71 102.08L251.748 99.3512C252.866 98.7458 253.773 99.3889 253.773 100.788V105.566C253.773 106.965 252.866 108.59 251.748 109.195Z" fill="#252323"/>
<path d="M252.553 99.7055C252.37 99.7055 252.176 99.7905 252.057 99.8547L247.021 102.583C246.09 103.087 245.305 104.518 245.305 105.709V110.487C245.305 111.094 245.507 111.419 245.694 111.521C245.917 111.64 246.233 111.511 246.401 111.42L251.439 108.692C252.368 108.188 253.153 106.757 253.153 105.566V100.788C253.153 100.181 252.953 99.8575 252.764 99.7543C252.698 99.7194 252.625 99.7055 252.553 99.7055V99.7055ZM245.906 112.734C245.611 112.734 245.33 112.666 245.074 112.528C244.433 112.18 244.065 111.435 244.065 110.487V105.709C244.065 104.101 245.091 102.285 246.401 101.576L251.439 98.8476C252.123 98.4765 252.814 98.4388 253.384 98.7485C254.025 99.0959 254.393 99.8394 254.393 100.788V105.566C254.393 107.174 253.367 108.99 252.057 109.699L247.021 112.427C246.643 112.632 246.264 112.734 245.906 112.734" fill="#01BBFF"/>
<path d="M251.62 126.292L251.596 108.768L252.836 108.767L252.859 126.29L251.62 126.292Z" fill="#01BBFF"/>
<path d="M243.232 131.034H241.991V127.95C241.991 125.375 242.959 122.865 244.716 120.885C246.289 119.113 247.154 116.869 247.154 114.564L247.156 111.349H248.396L248.394 114.564C248.394 117.139 247.426 119.649 245.67 121.628C244.097 123.401 243.232 125.645 243.232 127.95V131.034Z" fill="#01BBFF"/>
<path d="M180.329 121.139L156.182 134.529L79.1641 92.7517L103.311 79.3618L180.329 121.139Z" fill="#01BBFF"/>
<path d="M80.762 92.7433L156.177 133.652L178.731 121.146L103.316 80.2378L80.762 92.7433ZM156.186 135.403L77.5679 92.7587L103.305 78.4857L181.923 121.132L156.186 135.403" fill="#252323"/>
<path d="M175.986 109.224L124.783 81.341L87.5925 101.482L138.797 129.366L175.986 109.224Z" fill="#252323"/>
<path d="M89.1992 101.484L138.796 128.493L174.378 109.223L124.781 82.2143L89.1992 101.484ZM138.795 130.239L85.9842 101.481L124.782 80.4679L177.593 109.226L138.795 130.239" fill="#252323"/>
<path d="M153.189 118.852L114.053 97.7092L114.673 96.7021L153.808 117.845L153.189 118.852Z" fill="#01BBFF"/>
<path d="M64.4871 48.4988C62.6759 47.2768 59.5993 47.9827 56.478 51.3556C54.4169 53.5833 53.2169 56.4485 53.2749 59.396C53.3091 61.229 53.8325 62.257 55.0296 62.9963L55.2274 63.1275L193.483 137.788C193.597 137.85 193.743 137.812 193.807 137.705L202.505 123.298C202.569 123.19 202.53 123.055 202.415 122.995L64.4871 48.4988" fill="#01BBFF"/>
<path d="M62.5552 48.7068C61.1187 48.7068 59.1662 49.6023 57.0874 51.851C55.0947 54.002 54.027 56.676 54.0791 59.3836C54.1148 61.1719 54.6382 61.8498 55.4725 62.3659L55.6925 62.5096L193.389 136.865L201.524 123.386L64.0169 49.1141C63.6303 48.8532 63.1336 48.7068 62.5552 48.7068V48.7068ZM193.6 138.574C193.419 138.574 193.242 138.531 193.081 138.444L54.8256 63.7832L54.5654 63.6144C53.1408 62.7356 52.5073 61.4746 52.4686 59.4101C52.4091 56.3301 53.6166 53.2933 55.8695 50.8606C59.6733 46.7483 63.1113 46.673 64.924 47.8628L202.818 122.34C203.313 122.603 203.489 123.202 203.205 123.67L194.509 138.077C194.367 138.307 194.144 138.471 193.874 138.539C193.783 138.563 193.691 138.574 193.6 138.574Z" fill="#252323"/>
<path d="M95.7555 75.8046L197.833 131.034L202.504 123.298C202.568 123.19 202.529 123.055 202.416 122.995L64.4862 48.4988C62.675 47.2769 59.5983 47.9827 56.477 51.3556C55.854 52.028 55.3216 52.7645 54.8666 53.5387C54.8591 53.5833 54.8532 53.6308 54.8339 53.6629L76.5921 65.4347L95.7555 75.8046" fill="white"/>
<path d="M198.134 132.071L95.3534 76.4589L96.1593 75.1491L197.532 129.999L201.525 123.386L64.0855 49.1545C62.6684 48.2046 60.0051 48.6984 57.0876 51.8509C56.6623 52.3099 56.2667 52.8176 55.9054 53.37L76.9959 64.7805L76.1885 66.0904L53.7477 53.9475L54.1626 53.1747C54.6622 52.3224 55.2377 51.5426 55.8697 50.8605C59.7003 46.7218 63.1591 46.673 64.9584 47.8866L202.818 122.34C203.312 122.603 203.487 123.2 203.206 123.669L198.134 132.071" fill="#252323"/>
<path d="M80.7405 67.6791L91.6761 73.5964L80.7405 67.6791Z" fill="white"/>
<path d="M91.273 74.2508L80.3373 68.3335L81.1433 67.0237L92.0789 72.9423L91.273 74.2508Z" fill="#252323"/>
<path d="M55.0273 62.9141L55.2251 63.0452L193.481 137.705C193.594 137.766 193.739 137.73 193.805 137.622L195.301 135.144L191.985 134.025L53.5968 59.4882C53.631 61.3211 53.8288 62.1748 55.0273 62.9141" fill="#252323"/>
<path d="M54.5008 60.8467C54.6257 61.586 54.8979 61.9292 55.4704 62.2821L55.6875 62.4258L193.385 136.781L194.129 135.551L191.583 134.68L54.5008 60.8467ZM193.596 138.491C193.417 138.491 193.237 138.447 193.076 138.359L54.8235 63.7007L54.5782 63.5431C52.9707 62.5471 52.8235 61.2401 52.7907 59.502L52.7639 58.1684L192.322 133.336L196.472 134.735L194.505 137.995C194.365 138.225 194.139 138.388 193.869 138.456C193.779 138.48 193.687 138.491 193.596 138.491" fill="#252323"/>
<path d="M204.832 127.151C204.832 130.994 201.956 135.665 198.409 137.586C194.863 139.507 191.987 137.95 191.987 134.109C191.987 130.266 194.863 125.594 198.409 123.673C201.956 121.752 204.832 123.309 204.832 127.151Z" fill="#01BBFF"/>
<path d="M201.273 123.603C200.537 123.603 199.698 123.847 198.812 124.327C195.493 126.125 192.792 130.512 192.792 134.109C192.792 135.685 193.317 136.837 194.271 137.353C195.225 137.872 196.55 137.719 198.006 136.932C201.325 135.134 204.024 130.747 204.024 127.151C204.024 125.574 203.501 124.422 202.546 123.906C202.174 123.704 201.744 123.603 201.273 123.603ZM195.539 139.168C194.788 139.168 194.088 139.001 193.465 138.663C191.991 137.865 191.18 136.247 191.18 134.109C191.18 129.961 194.178 125.092 198.006 123.019C199.984 121.949 201.881 121.798 203.352 122.596C204.826 123.394 205.637 125.012 205.637 127.151C205.637 131.296 202.64 136.167 198.812 138.24C197.673 138.857 196.559 139.168 195.539 139.168" fill="#252323"/>
<path d="M60.7024 66.718C60.7024 66.718 56.7678 64.6325 54.9179 63.631C52.7929 62.4829 52.7096 60.2859 52.7067 60.1939L53.9469 60.1645L53.3267 60.1785L53.9469 60.1618C53.9484 60.2287 54.0257 61.8064 55.5365 62.6238C57.3834 63.6226 61.3121 65.7066 61.3121 65.7066L60.7024 66.718" fill="#01BBFF"/>
<path d="M118.033 0.924822C117.422 0.644441 116.612 0.701652 115.712 1.18848L98.9277 10.2778C84.9794 17.8328 73.5679 36.3742 73.5679 51.4827V55.2169C73.5679 56.1125 73.8712 56.7583 74.3589 57.1364L182.99 115.672C183.14 115.753 183.332 115.711 183.428 115.577L213.209 74.301C213.226 74.2787 213.245 74.2592 213.266 74.241L224.569 65.0177C224.609 64.9842 224.64 64.9438 224.659 64.8964L226.799 59.7784C226.859 59.6347 226.798 59.4729 226.656 59.3962L118.033 0.924822" fill="#01BBFF"/>
<path d="M74.8296 56.5171L183.01 114.81L212.603 73.7947L212.742 73.6678L223.952 64.5184L225.9 59.8607L117.661 1.59447C117.27 1.42708 116.722 1.51496 116.117 1.84277L99.3315 10.9335C85.5704 18.3852 74.3746 36.5765 74.3746 51.4828V55.217C74.3746 55.8001 74.5352 56.2604 74.8296 56.5171V56.5171ZM183.15 116.467C182.959 116.467 182.766 116.422 182.59 116.328L73.8467 57.7181C73.3515 57.3345 72.7626 56.5896 72.7626 55.217V51.4828C72.7626 36.0953 84.3199 17.3167 98.5255 9.6237L115.311 0.532912C116.406 -0.0599337 117.499 -0.161738 118.388 0.245582L118.435 0.269285L227.059 58.7392C227.549 59.0056 227.758 59.5567 227.551 60.0519L225.411 65.174C225.341 65.3373 225.23 65.4851 225.087 65.5967L213.842 74.774L184.097 116.001C183.878 116.302 183.517 116.467 183.15 116.467Z" fill="#252323"/>
<path d="M213.321 74.3247L223.565 65.9649L220.646 61.8429L111.977 3.32272L98.9831 10.3616C92.7182 13.754 86.9767 19.3714 82.5394 25.8913L191.123 84.385L205.45 85.215L213.265 74.3847C213.281 74.3624 213.299 74.3415 213.321 74.3247" fill="white"/>
<path d="M191.359 83.6414L205.039 84.4337L212.791 73.7541L222.502 65.8295L220.079 62.4091L111.978 4.19582L99.3856 11.0157C93.6933 14.0971 88.1391 19.2709 83.678 25.6318L191.359 83.6414ZM205.859 85.996L190.884 85.1284L81.4059 26.1521L81.8594 25.4839C86.5331 18.618 92.4709 13.0146 98.5797 9.7058L111.975 2.45076L112.378 2.66838L221.212 61.2764L224.628 66.0987L213.896 74.8561L205.859 85.996" fill="#252323"/>
<path d="M192.754 94.985L169.424 82.4166L170.225 81.1068L193.555 93.6738L192.754 94.985" fill="#252323"/>
<path d="M165.211 80.1472L148.771 71.2908L149.572 69.9809L166.013 78.8373L165.211 80.1472Z" fill="#252323"/>
<path d="M145.069 69.2972L84.1687 36.4912L84.9702 35.18L145.87 67.9859L145.069 69.2972Z" fill="#252323"/>
<path d="M182.315 107.5L73.6675 48.9327C73.6169 49.665 73.5679 50.3988 73.5679 51.1172V54.8514C73.5679 55.7469 73.8712 56.3928 74.3589 56.7708L182.99 115.306C183.14 115.387 183.332 115.347 183.428 115.211L184.691 113.462L182.315 107.5" fill="#252323"/>
<path d="M182.247 109.817V113.729C182.247 115.784 183.785 116.615 185.681 115.588L205.145 105.048C207.041 104.02 208.577 104.853 208.577 106.906V133.971C208.577 136.024 210.114 136.857 212.01 135.83L224.393 129.123C226.289 128.097 227.825 125.6 227.825 123.546V61.5597C227.825 59.5064 226.289 58.6736 224.393 59.7003L207.444 68.8804C193.528 76.4172 182.247 94.7451 182.247 109.817" fill="#252323"/>
<path d="M206.68 103.848C207.144 103.848 207.583 103.955 207.975 104.167C208.882 104.659 209.385 105.633 209.385 106.908V133.971C209.385 134.672 209.604 135.194 209.986 135.4C210.371 135.61 210.961 135.526 211.607 135.174L223.991 128.469C225.632 127.579 227.021 125.323 227.021 123.545V61.5597C227.021 60.8595 226.801 60.3378 226.419 60.1299C226.037 59.9221 225.444 60.0058 224.797 60.3559L207.847 69.5346C194.177 76.9389 183.056 95.0088 183.056 109.817V113.73C183.056 114.43 183.274 114.952 183.658 115.16C184.042 115.368 184.632 115.286 185.279 114.934L204.741 104.392C205.41 104.031 206.069 103.848 206.68 103.848V103.848ZM210.477 137.028C210.01 137.028 209.574 136.922 209.181 136.71C208.273 136.218 207.772 135.246 207.772 133.971V106.908C207.772 106.206 207.553 105.684 207.169 105.476C206.789 105.269 206.195 105.352 205.547 105.702L186.085 116.244C184.907 116.881 183.759 116.961 182.852 116.468C181.943 115.977 181.442 115.005 181.442 113.73V109.817C181.442 94.5275 192.927 75.8703 207.04 68.2261L223.991 59.0461C225.167 58.41 226.316 58.3291 227.224 58.8201C228.132 59.3125 228.633 60.2862 228.633 61.5597V123.545C228.633 125.874 226.948 128.613 224.797 129.779L212.414 136.484C211.745 136.847 211.086 137.028 210.477 137.028" fill="#252323"/>
<path d="M182.87 113.732L181.63 113.727L181.644 108.966L182.883 108.969L182.87 113.732Z" fill="#01BBFF"/>
<path d="M219.768 76.3961C219.59 76.364 219.429 76.3389 219.429 76.3389C218.689 76.2677 217.746 76.6374 216.741 77.724C216.177 78.3322 215.75 79.052 215.514 79.8248C215.129 81.0788 215.283 82.0009 215.746 82.5156C215.746 82.5156 216.678 83.7808 218.756 84.2356C218.854 84.2565 218.964 84.216 219.017 84.1365L222.109 79.5263L222.241 77.8663C222.246 77.8049 222.231 77.7519 222.186 77.7073C221.948 77.4673 221.153 76.6583 219.768 76.3961" fill="#01BBFF"/>
<path d="M219.234 76.9079C218.872 76.9079 218.153 77.0851 217.209 78.1062C216.698 78.6558 216.317 79.3072 216.109 79.9865C215.817 80.9351 215.859 81.74 216.219 82.1417C216.283 82.2226 217.02 83.1767 218.64 83.6078L221.502 79.3393L221.611 77.982C221.306 77.6933 220.664 77.1604 219.651 76.9665L219.325 76.9121C219.298 76.9093 219.267 76.9079 219.234 76.9079ZM218.811 84.8241C218.745 84.8241 218.68 84.8158 218.614 84.8018C216.33 84.3025 215.28 82.9061 215.236 82.8461C214.625 82.1724 214.498 81.0257 214.918 79.6643C215.176 78.8231 215.645 78.0211 216.272 77.3431C217.602 75.9078 218.751 75.6901 219.492 75.7599L219.892 75.8254C220.934 76.0235 221.858 76.5215 222.635 77.3069C222.8 77.4743 222.876 77.6849 222.86 77.9095L222.714 79.7145L219.541 84.4461C219.379 84.6847 219.102 84.8241 218.811 84.8241" fill="#01BBFF"/>
<path d="M223.11 79.4678C223.11 81.1124 221.88 83.1113 220.362 83.933C218.845 84.7546 217.614 84.0892 217.614 82.4446C217.614 80.8013 218.845 78.8024 220.362 77.9794C221.88 77.1578 223.11 77.8245 223.11 79.4678Z" fill="#252323"/>
<path d="M221.588 78.2095C221.322 78.2095 221.007 78.3029 220.672 78.4829C219.35 79.1985 218.234 81.0133 218.234 82.4445C218.234 83.015 218.414 83.439 218.729 83.6092C219.046 83.7822 219.526 83.7138 220.052 83.4293C221.374 82.7123 222.491 80.8989 222.491 79.4677C222.491 78.8985 222.31 78.4731 221.996 78.3029C221.88 78.2401 221.743 78.2095 221.588 78.2095ZM219.133 84.8689C218.766 84.8689 218.42 84.7851 218.109 84.6164C217.391 84.2272 216.993 83.4558 216.993 82.4445C216.993 80.5864 218.338 78.4047 220.052 77.4757C220.986 76.968 221.896 76.9066 222.616 77.2958C223.334 77.6849 223.73 78.4564 223.73 79.4677C223.73 81.3243 222.387 83.5074 220.672 84.4364C220.142 84.7238 219.618 84.8689 219.133 84.8689" fill="#01BBFF"/>
<path d="M219.768 87.3422C219.59 87.3115 219.429 87.285 219.429 87.285C218.689 87.2153 217.746 87.5849 216.741 88.6716C216.177 89.2784 215.75 89.9982 215.514 90.7723C215.129 92.025 215.283 92.947 215.746 93.4632C215.746 93.4632 216.678 94.7283 218.756 95.1831C218.854 95.204 218.964 95.1636 219.017 95.0827L222.109 90.4738L222.241 88.8125C222.246 88.7525 222.231 88.6981 222.186 88.6548C221.948 88.4149 221.153 87.6058 219.768 87.3422" fill="#01BBFF"/>
<path d="M219.234 87.8556C218.87 87.8556 218.152 88.0327 217.209 89.0524C216.698 89.6034 216.317 90.2535 216.109 90.9328C215.817 91.8814 215.859 92.6876 216.219 93.088C216.283 93.1689 217.02 94.123 218.64 94.554L221.502 90.2856L221.611 88.9297C221.306 88.6396 220.664 88.1067 219.651 87.9128L219.327 87.8598C219.3 87.857 219.269 87.8556 219.234 87.8556V87.8556ZM218.811 95.7704C218.745 95.7704 218.68 95.7635 218.614 95.7481C216.33 95.2501 215.28 93.8524 215.236 93.7938C214.625 93.1187 214.498 91.9734 214.918 90.6106C215.176 89.7694 215.645 88.9674 216.272 88.2894C217.6 86.854 218.751 86.6378 219.492 86.7076L219.892 86.7731C220.934 86.9712 221.856 87.4692 222.635 88.2531C222.8 88.4205 222.876 88.6326 222.86 88.8558L222.714 90.6608L219.541 95.3924C219.379 95.6309 219.102 95.7704 218.811 95.7704" fill="#01BBFF"/>
<path d="M223.11 90.4151C223.11 92.0583 221.88 94.0572 220.362 94.8788C218.845 95.7019 217.614 95.0351 217.614 93.3905C217.614 91.7472 218.845 89.7483 220.362 88.9267C221.88 88.1051 223.11 88.7704 223.11 90.4151Z" fill="#252323"/>
<path d="M221.588 89.1568C221.322 89.1568 221.007 89.2489 220.672 89.4302C219.35 90.1458 218.234 91.9593 218.234 93.3919C218.234 93.961 218.414 94.3864 218.729 94.5566C219.046 94.7282 219.526 94.6612 220.052 94.3753C221.374 93.6597 222.491 91.8449 222.491 90.4151C222.491 89.8446 222.31 89.4191 221.996 89.2489C221.88 89.1875 221.743 89.1568 221.588 89.1568ZM219.133 95.8148C218.766 95.8148 218.42 95.7311 218.109 95.5638C217.391 95.1746 216.993 94.4032 216.993 93.3919C216.993 91.5338 218.338 89.3521 220.052 88.4231C220.986 87.9154 221.899 87.8512 222.616 88.2432C223.334 88.631 223.73 89.4038 223.73 90.4151C223.73 92.2717 222.388 94.4534 220.672 95.3838C220.142 95.6712 219.618 95.8148 219.133 95.8148" fill="#01BBFF"/>
<path d="M42.2811 68.2372C40.4684 67.0139 37.3932 67.7197 34.2705 71.0926C32.2095 73.319 31.0109 76.1856 31.0674 79.1344C31.1031 80.966 31.625 81.994 32.8236 82.7347L33.0214 82.8645L171.275 157.525C171.39 157.587 171.536 157.549 171.599 157.442L180.297 143.035C180.361 142.927 180.322 142.792 180.209 142.732L42.2811 68.2372Z" fill="#01BBFF"/>
<path d="M40.3492 68.4436C38.9112 68.4436 36.9588 69.3405 34.8784 71.5878C32.8888 73.7388 31.8211 76.4142 31.8731 79.1204C31.9073 80.9087 32.4323 81.588 33.2665 82.1028L33.4851 82.2464L171.181 156.602L179.318 143.123L41.8095 68.8509C41.4229 68.5887 40.9277 68.4436 40.3492 68.4436V68.4436ZM171.391 158.311C171.211 158.311 171.031 158.266 170.871 158.178L32.6181 83.52L32.3579 83.3512C30.9363 82.4738 30.3013 81.2114 30.2612 79.1483C30.2017 76.0655 31.4106 73.0301 33.6605 70.596C37.4673 66.4865 40.9083 66.4084 42.7151 67.5997L180.611 142.076C181.106 142.347 181.28 142.943 180.999 143.407L172.301 157.814C172.166 158.041 171.94 158.206 171.669 158.276C171.578 158.299 171.485 158.311 171.391 158.311" fill="#252323"/>
<path d="M150.733 137.303L175.626 150.771L180.297 143.035C180.361 142.927 180.322 142.792 180.209 142.732L42.281 68.2373C40.4683 67.0139 37.3931 67.7198 34.2704 71.0927C33.6473 71.7651 33.1149 72.5016 32.6599 73.2758C32.6524 73.3204 32.648 73.3678 32.6287 73.3999L89.8735 104.373L93.3427 106.251L129.458 125.792L150.733 137.303" fill="white"/>
<path d="M175.928 151.807L150.33 137.957L151.136 136.647L175.326 149.736L179.318 143.123L41.8778 68.8927C40.4591 67.94 37.7959 68.438 34.8783 71.5877C34.4545 72.0453 34.0589 72.5544 33.6976 73.1054L129.861 125.136L129.055 126.446L31.5414 73.6843L31.9533 72.9101C32.4544 72.0578 33.0299 71.2794 33.6604 70.5973C37.4925 66.4599 40.9499 66.4084 42.7507 67.6233L180.611 142.076C181.106 142.347 181.28 142.943 180.999 143.407L175.928 151.807" fill="#252323"/>
<path d="M133.033 127.725L147.334 135.463L133.033 127.725Z" fill="white"/>
<path d="M146.931 136.119L132.63 128.381L133.436 127.071L147.737 134.809L146.931 136.119Z" fill="#252323"/>
<path d="M32.8199 82.6509L33.0177 82.782L171.273 157.442C171.388 157.503 171.533 157.467 171.597 157.359L173.095 154.88L169.777 153.762L31.3893 79.2249C31.425 81.0579 31.6228 81.9116 32.8199 82.6509" fill="#252323"/>
<path d="M32.2941 80.5838C32.4205 81.3245 32.6926 81.6662 33.2637 82.0191L33.4837 82.1656L171.18 156.518L171.924 155.288L169.378 154.417L32.2941 80.5838ZM171.39 158.228C171.21 158.228 171.033 158.184 170.872 158.097L32.6168 83.4378L32.3699 83.2788C30.7654 82.2842 30.6182 80.9771 30.5855 79.2391L30.5587 77.9055L170.117 153.073L174.267 154.472L172.3 157.732C172.159 157.961 171.935 158.125 171.665 158.194C171.574 158.217 171.482 158.228 171.39 158.228" fill="#252323"/>
<path d="M182.624 146.889C182.624 150.731 179.75 155.402 176.202 157.323C172.655 159.244 169.779 157.687 169.779 153.846C169.779 150.002 172.655 145.331 176.202 143.41C179.75 141.489 182.624 143.046 182.624 146.889Z" fill="#01BBFF"/>
<path d="M179.067 143.34C178.331 143.34 177.492 143.584 176.605 144.064C173.285 145.862 170.587 150.249 170.587 153.846C170.587 155.422 171.11 156.574 172.065 157.09C173.018 157.606 174.346 157.457 175.799 156.669C179.118 154.872 181.818 150.484 181.818 146.888C181.818 145.311 181.293 144.159 180.341 143.643C179.968 143.441 179.538 143.34 179.067 143.34V143.34ZM173.332 158.905C172.582 158.905 171.882 158.738 171.259 158.4C169.785 157.602 168.973 155.984 168.973 153.846C168.973 149.7 171.971 144.829 175.799 142.756C177.776 141.685 179.674 141.537 181.146 142.333C182.62 143.131 183.43 144.748 183.43 146.888C183.43 151.033 180.432 155.906 176.605 157.979C175.467 158.595 174.353 158.905 173.332 158.905" fill="#252323"/>
<path d="M31.8826 82.778C30.8208 81.63 30.7718 80.2476 30.7703 80.189V79.4915H32.0105V80.1751C32.0105 80.1751 32.0595 81.1947 32.8194 82.0164L31.8826 82.778Z" fill="#01BBFF"/>
<path d="M221.844 223.637C221.406 223.446 220.83 223.489 220.192 223.835L213.517 227.451C212.787 227.845 212.091 228.077 211.441 228.173L212.626 147.503L207.414 148.896V132.422L201.801 135.339V227.063C201.801 230.698 199.054 235.16 195.698 236.978L189.259 240.465C188.062 241.114 187.136 242.159 186.749 243.404C186.306 244.826 186.617 245.794 187.302 246.14L194.77 249.935C194.856 249.979 194.96 249.975 195.044 249.924L208.112 241.912L226.72 230.755L229.367 227.816C229.476 227.695 229.439 227.511 229.29 227.435L221.844 223.637" fill="#01BBFF"/>
<path d="M202.606 135.785V227.063C202.606 230.948 199.687 235.69 196.1 237.632L189.662 241.119C188.621 241.683 187.84 242.594 187.522 243.615C187.193 244.671 187.376 245.32 187.684 245.474L194.869 249.126L207.671 241.279L226.183 230.18L228.323 227.803L221.489 224.315C221.277 224.232 220.952 224.297 220.595 224.491L213.92 228.103C213.133 228.53 212.342 228.805 211.567 228.919L210.623 229.06L210.635 228.163L211.805 148.507L206.608 149.898V133.706L202.606 135.785ZM194.897 250.722C194.724 250.722 194.55 250.682 194.389 250.602L186.918 246.804C186.054 246.369 185.352 245.19 185.975 243.192C186.414 241.779 187.437 240.578 188.856 239.811L195.293 236.324C198.383 234.65 200.993 230.409 200.993 227.063V134.894L208.22 131.139V147.895L213.447 146.496L212.263 227.181C212.543 227.079 212.827 226.95 213.114 226.796L219.789 223.181C220.629 222.726 221.478 222.645 222.183 222.951L222.229 222.971L229.675 226.771C229.957 226.914 230.157 227.169 230.218 227.469C230.277 227.767 230.191 228.073 229.98 228.306L227.153 231.393L208.544 242.548L195.483 250.556C195.308 250.666 195.103 250.722 194.897 250.722" fill="#252323"/>
<path d="M207.615 237.366L199.716 233.139L199.701 233.131C198.625 234.742 197.23 236.144 195.689 236.978L189.252 240.465C188.738 240.744 188.397 241.161 188.005 241.571L195.334 245.474L197.643 246.818L202.662 245.248L206.515 242.885L207.615 237.366" fill="white"/>
<path d="M189.284 241.383L195.731 244.816L197.748 245.988L202.309 244.562L205.787 242.429L206.721 237.756L199.957 234.139C198.829 235.669 197.502 236.869 196.094 237.632L189.655 241.119C189.522 241.192 189.401 241.28 189.284 241.383V241.383ZM197.54 247.646L194.909 246.116L186.733 241.764L187.596 240.864C187.93 240.507 188.308 240.104 188.851 239.809L195.287 236.324C196.632 235.595 197.957 234.318 199.019 232.729L199.505 232.002L200.212 232.545L208.514 236.978L207.244 243.341L202.915 245.965L197.54 247.646" fill="#252323"/>
<path d="M221.845 223.612C221.406 223.421 220.831 223.464 220.193 223.81L213.517 227.425C212.787 227.82 212.091 228.052 211.443 228.148L211.037 229.399L218.661 233.175L220.475 234.474L226.721 230.73L229.368 227.791C229.476 227.669 229.439 227.485 229.29 227.41L221.845 223.612" fill="white"/>
<path d="M212.002 229.021L219.15 232.574L220.517 233.553L226.184 230.155L228.324 227.778L221.489 224.289C221.278 224.207 220.953 224.271 220.596 224.465L213.92 228.079C213.305 228.413 212.686 228.654 212.075 228.798L212.002 229.021ZM220.434 235.394L218.225 233.814L210.072 229.776L210.819 227.475L211.317 227.402C211.894 227.315 212.499 227.103 213.114 226.771L219.79 223.155C220.63 222.702 221.476 222.62 222.184 222.925L222.23 222.946L229.676 226.746C229.958 226.888 230.157 227.143 230.218 227.443C230.278 227.743 230.192 228.049 229.98 228.28L227.154 231.367L220.434 235.394" fill="#252323"/>
<path d="M214.967 227.992V136.269L209.352 139.188V230.91C209.352 234.56 206.621 239 203.25 240.826L196.574 244.441C195.205 245.183 194.095 246.986 194.095 248.469C194.095 249.952 195.205 250.553 196.574 249.813L209.352 242.892L214.967 239.974L227.745 233.054C229.115 232.312 230.224 230.508 230.224 229.025C230.224 227.542 229.115 226.941 227.745 227.682L221.07 231.298C217.699 233.124 214.967 231.644 214.967 227.992Z" fill="#252323"/>
<path d="M210.159 139.632V230.91C210.159 234.862 207.3 239.504 203.652 241.481L196.978 245.095C195.853 245.704 194.902 247.25 194.902 248.469C194.902 248.893 195.021 249.211 195.224 249.32C195.426 249.432 195.781 249.368 196.172 249.157L208.949 242.238L214.576 239.313L227.341 232.4C228.466 231.789 229.418 230.243 229.418 229.025C229.418 228.601 229.297 228.283 229.094 228.174C228.893 228.063 228.538 228.126 228.148 228.336L221.473 231.952C219.583 232.974 217.763 233.118 216.35 232.352C214.939 231.588 214.16 230.039 214.16 227.993V137.553L210.159 139.632ZM195.462 250.884C195.087 250.884 194.733 250.799 194.419 250.63C193.701 250.241 193.289 249.454 193.289 248.469C193.289 246.719 194.556 244.661 196.172 243.786L202.846 240.172C205.99 238.469 208.546 234.313 208.546 230.91V138.741L215.773 134.986V227.993C215.773 229.477 216.264 230.56 217.156 231.044C218.048 231.526 219.296 231.384 220.667 230.643L227.341 227.028C228.251 226.537 229.183 226.477 229.9 226.865C230.618 227.254 231.03 228.04 231.03 229.025C231.03 230.775 229.763 232.833 228.148 233.708L215.37 240.628L209.743 243.553L196.978 250.465C196.465 250.743 195.946 250.884 195.462 250.884" fill="#252323"/>
<path d="M208.927 226.542L201.375 222.127L202.227 220.844L209.78 225.259L208.927 226.542Z" fill="#252323"/>
<path d="M208.927 190.05L201.375 185.635L202.227 184.351L209.78 188.766L208.927 190.05Z" fill="#252323"/>
<path d="M210.499 167.422L209.879 166.415L214.095 164.132L214.715 165.139L210.499 167.422Z" fill="#01BBFF"/>
<path d="M216.717 113.173C216.388 113.003 215.939 113.03 215.441 113.299L178.042 133.555C176.833 134.209 175.688 135.418 174.923 136.847L159.828 165.024C159.335 165.944 159.066 166.906 159.066 167.749V173.868C159.066 174.334 159.221 174.672 159.469 174.875L159.515 174.912C159.573 174.953 173.15 182.165 174.514 182.898C174.563 182.924 174.625 182.909 174.655 182.863L179.706 175.347C179.711 175.341 179.715 175.334 179.721 175.33L220.353 137.214L227.555 129.964C227.563 129.956 227.569 129.947 227.574 129.938L231.818 121.323C231.842 121.277 231.822 121.221 231.775 121.194L216.717 113.173" fill="#01BBFF"/>
<path d="M216.255 113.822C216.169 113.822 216.029 113.854 215.846 113.953L178.446 134.209C177.381 134.785 176.333 135.898 175.643 137.186L160.55 165.365C160.114 166.177 159.873 167.023 159.873 167.749V173.868C159.873 174.114 159.938 174.256 160.001 174.306C160.139 174.38 164.802 176.86 168.55 178.854C170.968 180.139 173.232 181.344 174.33 181.93L179.151 174.795L219.784 136.679L226.891 129.525L230.819 121.554L216.328 113.835C216.312 113.828 216.287 113.822 216.255 113.822V113.822ZM174.569 183.668C174.412 183.668 174.253 183.63 174.107 183.549C173.536 183.244 170.762 181.768 167.756 180.169C159.104 175.569 159.1 175.565 159.028 175.514C158.503 175.086 158.261 174.527 158.261 173.868V167.749C158.261 166.792 158.563 165.704 159.109 164.685L174.202 136.506C175.041 134.943 176.294 133.629 177.64 132.899L215.04 112.645C215.759 112.254 216.511 112.205 217.106 112.511L217.116 112.515L232.174 120.537C232.589 120.762 232.749 121.233 232.552 121.638L228.126 130.498L220.944 137.728L180.342 175.816L175.338 183.266C175.166 183.525 174.871 183.668 174.569 183.668" fill="#252323"/>
<path d="M159.469 174.875L159.515 174.912C159.573 174.953 173.15 182.165 174.514 182.898C174.563 182.924 174.625 182.909 174.655 182.863L176.233 180.515C175.095 178.543 174.216 177.071 174.216 177.071L159.066 168.901V173.868C159.066 174.334 159.221 174.672 159.469 174.875" fill="#252323"/>
<path d="M159.996 174.304L160.035 174.334C160.139 174.38 164.802 176.86 168.55 178.854C170.966 180.139 173.232 181.344 174.33 181.93L175.299 180.486C174.505 179.112 173.866 178.034 173.622 177.622L159.873 170.208V173.868C159.873 174.11 159.937 174.25 159.996 174.304V174.304ZM174.569 183.668C174.412 183.668 174.253 183.63 174.107 183.549C173.536 183.244 170.762 181.768 167.756 180.169C159.104 175.569 159.1 175.565 159.028 175.514L158.941 175.446C158.503 175.086 158.261 174.527 158.261 173.868V167.594L174.81 176.519L174.92 176.701C174.92 176.701 175.801 178.177 176.941 180.155L177.167 180.544L175.338 183.266C175.166 183.525 174.871 183.668 174.569 183.668" fill="#252323"/>
<path d="M190.071 144.919L228.798 126.074L210.307 116.08L178.043 133.555C176.834 134.209 175.689 135.418 174.923 136.847L190.071 144.919" fill="white"/>
<path d="M176.016 136.559L190.088 144.059L227.121 126.039L210.309 116.952L178.446 134.209C177.558 134.689 176.683 135.542 176.016 136.559V136.559ZM190.056 145.778L173.859 137.148L174.202 136.506C175.041 134.943 176.294 133.629 177.64 132.899L210.309 115.207L230.478 126.109L190.056 145.778" fill="#252323"/>
<path d="M230.591 153.388L176.043 182.93C175.034 183.477 174.216 183.034 174.216 181.939V175.82C174.216 174.977 174.483 174.015 174.976 173.097L190.07 144.919C190.836 143.49 191.981 142.282 193.19 141.626L230.591 121.372C231.6 120.825 232.418 121.267 232.418 122.361V150.418C232.418 151.512 231.6 152.841 230.591 153.388" fill="#252323"/>
<path d="M231.408 121.893C231.323 121.893 231.179 121.925 230.995 122.026L193.594 142.28C192.53 142.858 191.481 143.971 190.791 145.258L175.696 173.436C175.262 174.249 175.023 175.096 175.023 175.82V181.939C175.023 182.22 175.104 182.368 175.155 182.397C175.206 182.421 175.383 182.415 175.641 182.276L230.187 152.734C230.947 152.322 231.613 151.24 231.613 150.418V122.36C231.613 122.081 231.531 121.934 231.481 121.906C231.466 121.897 231.442 121.893 231.408 121.893V121.893ZM175.225 183.919C174.911 183.919 174.614 183.849 174.349 183.705C173.753 183.382 173.409 182.739 173.409 181.939V175.82C173.409 174.864 173.711 173.778 174.257 172.758L189.352 144.579C190.189 143.017 191.441 141.701 192.788 140.972L230.187 120.716C230.925 120.318 231.689 120.274 232.287 120.596C232.883 120.919 233.225 121.563 233.225 122.36V150.418C233.225 151.773 232.245 153.366 230.995 154.044L230.59 153.388L230.995 154.044L176.447 183.584C176.037 183.807 175.619 183.919 175.225 183.919" fill="#252323"/>
<path d="M174.837 181.939H173.597V177.36H174.837V181.939Z" fill="#01BBFF"/>
<path d="M175.509 172.563L160.361 164.49L161.158 163.178L176.306 171.249L175.509 172.563Z" fill="#252323"/>
<path d="M186.85 151.445L171.702 143.374L172.497 142.06L187.646 150.131L186.85 151.445Z" fill="#252323"/>
<path d="M221.357 135.529C221.18 135.497 221.018 135.472 221.018 135.472C220.277 135.4 219.335 135.77 218.329 136.857C217.767 137.465 217.34 138.185 217.102 138.958C216.717 140.212 216.872 141.134 217.334 141.65C217.334 141.65 218.267 142.915 220.346 143.368C220.444 143.391 220.552 143.349 220.606 143.269L223.697 138.659L223.83 136.999C223.834 136.939 223.819 136.885 223.775 136.84C223.538 136.6 222.741 135.792 221.357 135.529" fill="#01BBFF"/>
<path d="M220.825 136.042C220.459 136.042 219.741 136.219 218.798 137.239C218.287 137.791 217.906 138.441 217.698 139.119C217.408 140.066 217.449 140.874 217.809 141.274C217.873 141.355 218.611 142.308 220.229 142.74L223.091 138.472L223.2 137.115C222.898 136.826 222.257 136.294 221.241 136.099L220.917 136.046C220.89 136.043 220.858 136.042 220.825 136.042ZM220.403 143.957C220.337 143.957 220.272 143.95 220.205 143.935C217.919 143.435 216.87 142.039 216.825 141.98C216.215 141.305 216.09 140.158 216.507 138.797C216.765 137.959 217.232 137.155 217.861 136.476C219.189 135.04 220.343 134.823 221.081 134.894L221.482 134.958C222.528 135.158 223.453 135.657 224.229 136.444C224.389 136.607 224.467 136.819 224.449 137.042L224.303 138.847L221.131 143.579C220.974 143.816 220.694 143.957 220.403 143.957" fill="#01BBFF"/>
<path d="M224.699 138.6C224.699 140.245 223.468 142.244 221.951 143.065C220.433 143.887 219.203 143.222 219.203 141.577C219.203 139.934 220.433 137.935 221.951 137.113C223.468 136.29 224.699 136.957 224.699 138.6Z" fill="#252323"/>
<path d="M223.179 137.342C222.911 137.342 222.596 137.436 222.262 137.617C220.94 138.333 219.823 140.146 219.823 141.577C219.823 142.148 220.004 142.573 220.318 142.743C220.63 142.913 221.114 142.848 221.642 142.562C222.963 141.846 224.08 140.033 224.08 138.6C224.08 138.031 223.9 137.606 223.585 137.436C223.471 137.373 223.334 137.342 223.179 137.342ZM220.724 144.002C220.355 144.002 220.009 143.918 219.698 143.749C218.98 143.361 218.584 142.588 218.584 141.577C218.584 139.72 219.925 137.539 221.642 136.608C222.575 136.103 223.487 136.039 224.205 136.428C224.923 136.818 225.32 137.589 225.32 138.6C225.32 140.458 223.976 142.64 222.262 143.569C221.731 143.856 221.209 144.002 220.724 144.002" fill="#01BBFF"/>
<path d="M214.184 145.625C214.005 145.593 213.845 145.568 213.845 145.568C213.104 145.497 212.162 145.867 211.155 146.953C210.593 147.561 210.166 148.281 209.928 149.054C209.544 150.308 209.698 151.23 210.162 151.745C210.162 151.745 211.092 153.011 213.171 153.465C213.269 153.487 213.378 153.445 213.431 153.366L216.523 148.755L216.657 147.095C216.661 147.034 216.645 146.981 216.602 146.936C216.364 146.697 215.568 145.887 214.184 145.625" fill="#01BBFF"/>
<path d="M213.639 146.137C213.065 146.137 212.343 146.557 211.623 147.335C211.111 147.886 210.732 148.538 210.524 149.216C210.233 150.163 210.274 150.969 210.636 151.371C210.698 151.452 211.436 152.405 213.053 152.837L215.916 148.568L216.025 147.211C215.724 146.922 215.082 146.391 214.066 146.196L213.743 146.141C213.709 146.138 213.674 146.137 213.639 146.137V146.137ZM213.229 154.053C213.162 154.053 213.097 154.046 213.03 154.031C210.746 153.532 209.694 152.135 209.651 152.075C209.04 151.4 208.915 150.255 209.333 148.893C209.59 148.055 210.057 147.252 210.686 146.572C212.016 145.137 213.168 144.919 213.907 144.989L214.307 145.055C215.352 145.254 216.277 145.753 217.054 146.54C217.216 146.703 217.292 146.914 217.274 147.139L217.129 148.944L213.956 153.675C213.799 153.912 213.52 154.053 213.229 154.053" fill="#01BBFF"/>
<path d="M217.525 148.697C217.525 150.342 216.295 152.34 214.777 153.162C213.258 153.984 212.029 153.318 212.029 151.674C212.029 150.03 213.258 148.032 214.777 147.209C216.295 146.387 217.525 147.054 217.525 148.697Z" fill="#252323"/>
<path d="M216.004 147.439C215.736 147.439 215.421 147.532 215.087 147.712C213.766 148.429 212.649 150.242 212.649 151.674C212.649 152.244 212.831 152.668 213.144 152.84C213.458 153.009 213.938 152.944 214.466 152.658C215.79 151.943 216.905 150.129 216.905 148.697C216.905 148.128 216.725 147.702 216.41 147.532C216.295 147.469 216.159 147.439 216.004 147.439ZM213.549 154.098C213.182 154.098 212.835 154.014 212.524 153.847C211.806 153.456 211.411 152.685 211.411 151.674C211.411 149.817 212.753 147.635 214.466 146.705C215.4 146.2 216.312 146.136 217.03 146.525C217.75 146.914 218.145 147.686 218.145 148.697C218.145 150.555 216.801 152.737 215.087 153.666C214.557 153.953 214.034 154.098 213.549 154.098Z" fill="#01BBFF"/>
<path d="M213.359 149.442L212.328 148.797L219.842 138.208L220.874 138.851L213.359 149.442" fill="#01BBFF"/>
<path d="M217.116 151.739L216.084 151.093L223.025 141.332L224.056 141.976L217.116 151.739" fill="#01BBFF"/>
<path d="M75.2124 86.3086C73.4012 85.0852 70.3245 85.7911 67.2033 89.164C65.1422 91.3917 63.9422 94.2569 64.0002 97.2058V159.701C64.0002 160.619 64.5206 161.469 65.3668 161.932L138.486 201.849C139.718 202.522 141.265 201.688 141.265 200.35V136.712C141.591 134.356 142.682 132.121 144.358 130.312C147.479 126.939 150.556 126.382 152.367 127.606L75.2124 86.3086" fill="#01BBFF"/>
<path d="M73.2824 86.5164C71.8429 86.5164 69.8919 87.412 67.8116 89.6606C65.8204 91.8116 64.7527 94.4871 64.8048 97.1918L64.8063 159.701C64.8063 160.349 65.1765 160.953 65.7728 161.278L138.892 201.197C139.362 201.453 139.779 201.284 139.937 201.199C140.093 201.114 140.459 200.86 140.459 200.35V136.712C140.81 134.114 141.946 131.764 143.748 129.815C145.497 127.926 147.185 126.916 148.675 126.499L74.7426 86.9223C74.356 86.6615 73.8608 86.5164 73.2824 86.5164ZM139.415 202.845C138.957 202.845 138.499 202.731 138.081 202.504L64.9624 162.585C63.8709 161.991 63.1928 160.886 63.1928 159.701V97.2058C63.1333 94.1397 64.3423 91.103 66.5937 88.6688C70.3975 84.5579 73.8415 84.4826 75.6467 85.6697L152.172 126.63C152.412 126.732 152.635 126.855 152.839 126.992L151.969 128.261L151.432 127.974C150.039 127.423 147.689 127.866 144.966 130.807C143.372 132.53 142.368 134.604 142.065 136.808L142.073 200.35C142.073 201.251 141.574 202.059 140.742 202.509C140.327 202.734 139.872 202.845 139.415 202.845" fill="#252323"/>
<path d="M123.589 193.682V129.095C123.533 126.146 124.733 123.28 126.794 121.053C129.915 117.68 132.99 116.975 134.803 118.198L89.3695 93.8969C87.5568 92.6735 84.4817 93.3793 81.3589 96.7523C79.2979 98.98 78.0993 101.845 78.1558 104.794V168.955L123.589 193.682" fill="#252323"/>
<path d="M78.9619 168.52L122.783 192.369V129.094C122.725 126.026 123.933 122.991 126.186 120.558C127.982 118.615 129.699 117.573 131.2 117.141L88.9696 94.5525C87.5539 93.604 84.8862 94.095 81.9672 97.2489C79.976 99.3999 78.9083 102.074 78.9604 104.78L78.9619 168.52ZM124.397 194.995L77.3484 169.391V104.794C77.2904 101.728 78.4979 98.6913 80.7493 96.2572C84.5799 92.1212 88.0387 92.0696 89.8395 93.2832L134.647 117.244C134.873 117.34 135.083 117.455 135.274 117.583L134.404 118.854L133.909 118.589C132.465 118.021 130.039 118.702 127.402 121.55C125.411 123.7 124.343 126.374 124.395 129.081L124.397 194.995" fill="#252323"/>
<path d="M128.372 115.371L101.93 100.979L102.553 99.9733L128.996 114.365L128.372 115.371" fill="#01BBFF"/>
<path d="M70.8447 100.477L133.929 134.454L70.8447 100.477Z" fill="#01BBFF"/>
<path d="M133.53 135.11L70.4459 101.131L71.2475 99.8211L134.332 133.799L133.53 135.11" fill="#252323"/>
<path d="M112.382 15.87L112.864 16.1309C113.315 16.375 113.74 16.5089 114.143 16.534C114.543 16.5591 114.915 16.4796 115.255 16.2955C115.597 16.11 115.758 15.9217 115.734 15.732C115.71 15.5408 115.499 15.3372 115.099 15.121L114.433 14.7597L112.382 15.87ZM116.784 17.0683C116.042 17.47 115.242 17.6528 114.384 17.6137C113.524 17.5747 112.668 17.3249 111.811 16.8604L111.182 16.5201L108.727 17.8508L107.264 17.0571L114.17 13.3173L116.375 14.5128C117.212 14.9661 117.669 15.4083 117.745 15.8394C117.819 16.2718 117.499 16.6805 116.784 17.0683" fill="#252323"/>
<path d="M118.64 19.0602L119.115 19.3155C119.577 19.5666 119.995 19.7103 120.371 19.7452C120.744 19.7814 121.097 19.7103 121.429 19.5303C121.756 19.3532 121.878 19.1677 121.79 18.9696C121.702 18.7715 121.421 18.5455 120.953 18.2902L120.507 18.0489L118.64 19.0602ZM117.449 19.7047L114.801 21.1401L113.336 20.3464L120.242 16.6066L122.255 17.696C123.192 18.2051 123.717 18.6739 123.826 19.1035C123.934 19.5317 123.64 19.9349 122.945 20.3115C122.538 20.5305 122.065 20.6658 121.525 20.716C120.985 20.7677 120.42 20.73 119.831 20.6058C119.317 22.0091 118.991 22.9186 118.854 23.3357L117.229 22.4541L118.23 20.1274L117.449 19.7047" fill="#252323"/>
<path d="M119.722 23.8059L126.626 20.0661L128.093 20.8585L121.187 24.5983L119.722 23.8059Z" fill="#252323"/>
<path d="M129.052 28.8582L127.192 27.851L129.412 23.3942L129.369 23.3705C128.507 23.9034 127.878 24.2772 127.485 24.4892L124.236 26.2496L122.926 25.5396L129.831 21.8012L131.678 22.8L129.506 27.2261L129.54 27.2442C130.391 26.7323 131 26.3766 131.372 26.1757L134.641 24.4041L135.957 25.1183L129.052 28.8582" fill="#252323"/>
<path d="M133.456 31.2422L131.991 30.4499L137.677 27.3699L135.802 26.3544L137.02 25.6946L142.236 28.5179L141.017 29.1777L139.142 28.1622L133.456 31.2422" fill="#252323"/>
<path d="M93.1004 160.519L93.0929 175.811L122.606 191.874V186.77L99.0648 174.005L99.0708 163.756L93.1004 160.519Z" fill="#01BBFF"/>
<path d="M122.602 151.665L113.779 146.881L93.1185 121.637L93.1141 131.303L107.042 147.684L93.1037 148.898L93.0962 158.623L114.005 155.92L122.602 160.58V151.665" fill="#01BBFF"/>
<path d="M81.2028 18.5361C85.6788 19.5712 85.6788 22.8339 81.2028 23.8703C79.9686 24.1563 78.66 24.1563 77.4272 23.8703C72.9513 22.8339 72.9513 19.5725 77.4272 18.5361C78.66 18.2502 79.9686 18.2502 81.2028 18.5361Z" fill="#01BBFF"/>
<path d="M79.3153 19.0787C78.7458 19.0787 78.1748 19.1415 77.6201 19.2699C75.9546 19.6563 74.8765 20.4151 74.8765 21.2032C74.8765 21.9914 75.9546 22.7502 77.6201 23.1366C78.7294 23.3933 79.9012 23.3933 81.0105 23.1366C82.6775 22.7502 83.7541 21.9914 83.7541 21.2032C83.7541 20.4151 82.6775 19.6563 81.012 19.2699C80.4559 19.1415 79.8864 19.0787 79.3153 19.0787ZM79.3153 24.8398C78.6164 24.8398 77.9145 24.7617 77.235 24.6041C74.7858 24.0377 73.2661 22.7349 73.2661 21.2032C73.2661 19.6716 74.7858 18.3687 77.235 17.8024C78.5971 17.4871 80.0365 17.4871 81.3972 17.8024C83.8448 18.3687 85.3661 19.6716 85.3661 21.2032C85.3661 22.7349 83.8448 24.0377 81.3972 24.6041C80.7161 24.7617 80.0172 24.8398 79.3153 24.8398Z" fill="#252323"/>
<path d="M79.3153 11.2755C77.4461 11.2755 75.9308 12.697 75.9308 14.4504V18.9491C75.9308 19.6437 76.652 20.337 78.0974 20.6704C78.893 20.8559 79.7376 20.8559 80.5347 20.6704C81.9786 20.337 82.7013 19.6437 82.7013 18.9491V14.4504C82.7013 12.697 81.186 11.2755 79.3153 11.2755Z" fill="white"/>
<path d="M79.315 12.0316C77.8934 12.0316 76.7365 13.1169 76.7365 14.4504V18.9491C76.7365 19.2616 77.2688 19.701 78.2904 19.9367C78.9611 20.0929 79.6704 20.0929 80.341 19.9367C81.3611 19.701 81.8935 19.2616 81.8935 18.9491V14.4504C81.8935 13.1169 80.7381 12.0316 79.315 12.0316V12.0316ZM79.315 21.5646C78.8406 21.5646 78.3648 21.5116 77.9023 21.4042C75.8532 20.9299 75.1245 19.8251 75.1245 18.9491V14.4504C75.1245 12.2827 77.0041 10.5195 79.315 10.5195C81.6258 10.5195 83.5069 12.2827 83.5069 14.4504V18.9491C83.5069 19.8251 82.7768 20.9313 80.7262 21.4042C80.2652 21.5116 79.7894 21.5646 79.315 21.5646" fill="#252323"/>
<path d="M79.315 21.5646C78.8406 21.5646 78.3648 21.5116 77.9023 21.4042C75.8532 20.9313 75.1245 19.8251 75.1245 18.9491C75.1245 18.0731 75.8532 16.9683 77.9023 16.494L78.2904 17.9615C77.2688 18.1972 76.735 18.638 76.735 18.9491C76.735 19.2616 77.2688 19.701 78.2889 19.9367C78.9611 20.0916 79.6704 20.0929 80.341 19.9367C81.3611 19.701 81.895 19.2616 81.895 18.9491C81.895 18.638 81.3611 18.1972 80.341 17.9615L80.7277 16.494C82.7768 16.9683 83.5069 18.0731 83.5069 18.9491C83.5069 19.8251 82.7768 20.9313 80.7262 21.4042C80.2652 21.5116 79.7894 21.5646 79.315 21.5646" fill="#252323"/>
<path d="M209.294 53.6183C213.77 54.6547 213.77 57.9175 209.294 58.9525C208.06 59.2385 206.753 59.2385 205.518 58.9525C201.042 57.9175 201.042 54.6547 205.518 53.6183C206.753 53.3323 208.06 53.3323 209.294 53.6183Z" fill="#01BBFF"/>
<path d="M207.407 54.1595C206.836 54.1595 206.265 54.2236 205.71 54.352C204.045 54.7383 202.967 55.4972 202.967 56.2853C202.967 57.0735 204.045 57.8323 205.71 58.2187C206.822 58.4768 207.996 58.4754 209.102 58.2187C210.767 57.8323 211.846 57.0735 211.846 56.2853C211.846 55.4972 210.767 54.7383 209.102 54.352C208.547 54.2236 207.978 54.1595 207.407 54.1595V54.1595ZM207.405 59.9233C206.706 59.9233 206.006 59.8438 205.325 59.6862C202.876 59.1198 201.356 57.817 201.356 56.2853C201.356 54.7537 202.876 53.4508 205.325 52.8845C206.689 52.5692 208.128 52.5706 209.487 52.8845C211.936 53.4508 213.456 54.7537 213.456 56.2853C213.456 57.817 211.936 59.1198 209.489 59.6862C208.806 59.8438 208.107 59.9233 207.405 59.9233" fill="#252323"/>
<path d="M207.407 46.3577C205.536 46.3577 204.021 47.7792 204.021 49.5326V54.0313C204.021 54.7259 204.744 55.4192 206.187 55.7526C206.985 55.9381 207.828 55.9381 208.625 55.7526C210.069 55.4192 210.791 54.7259 210.791 54.0313V49.5326C210.791 47.7792 209.276 46.3577 207.407 46.3577" fill="white"/>
<path d="M207.406 47.1138C205.984 47.1138 204.827 48.1991 204.827 49.5326V54.0313C204.827 54.3438 205.361 54.7832 206.381 55.0203C207.052 55.1751 207.763 55.1751 208.434 55.0189C209.452 54.7832 209.986 54.3438 209.986 54.0313V49.5326C209.986 48.1991 208.829 47.1138 207.406 47.1138V47.1138ZM207.406 56.6468C206.932 56.6468 206.457 56.5938 205.996 56.4878C203.946 56.0135 203.216 54.9087 203.216 54.0313V49.5326C203.216 47.3649 205.095 45.6017 207.406 45.6017C209.717 45.6017 211.599 47.3649 211.599 49.5326V54.0313C211.599 54.9087 210.868 56.0135 208.819 56.4878C208.356 56.5938 207.882 56.6468 207.406 56.6468" fill="#252323"/>
<path d="M207.406 56.6468C206.932 56.6468 206.457 56.5938 205.996 56.4878C203.946 56.0135 203.216 54.9087 203.216 54.0313C203.216 53.1553 203.946 52.0505 205.995 51.5762L206.381 53.0437C205.361 53.2794 204.827 53.7202 204.827 54.0313C204.827 54.3438 205.361 54.7832 206.381 55.0203C207.052 55.1751 207.763 55.1751 208.434 55.0189C209.452 54.7832 209.986 54.3438 209.986 54.0313C209.986 53.7202 209.452 53.2794 208.432 53.0437L208.819 51.5762C210.868 52.0505 211.598 53.1553 211.598 54.0313C211.598 54.9087 210.868 56.0135 208.819 56.4878C208.356 56.5938 207.882 56.6468 207.406 56.6468" fill="#252323"/>
<path fill-rule="evenodd" clip-rule="evenodd" d="M68.9048 102.413L137.599 139.618L137.599 214.027L68.9048 176.822L68.9048 102.413Z" fill="#252323"/>
<path d="M100.296 133.043L101.079 133.467L101.079 152.733L99.9548 152.125L99.9548 132.859L100.296 133.043Z" fill="#EC268F"/>
<path d="M78.3566 140.055L78.3566 121.162L79.714 121.897L86.9819 143.251L94.1646 129.723L95.5221 130.458L95.5221 149.724L94.3982 149.115L94.3982 132.21L87.3831 145.218L87.0094 145.016L86.9874 145.06L86.9627 144.99L86.4983 144.739L79.4805 124.13L79.4805 141.036L78.3566 140.427L78.3566 140.055Z" fill="#00AFEF"/>
<path d="M107.989 134.487L107.989 133.65L116.669 138.351L116.669 139.56L107.989 134.859L107.989 134.487Z" fill="#FFF212"/>
<path d="M99.9273 130.186L99.9273 129.284L101.103 129.921L101.103 131.192L99.9273 130.555L99.9273 130.186Z" fill="#EC268F"/>
<path d="M115.817 173.401L116.466 174.1L109.893 186.146C109.492 186.869 109.044 187.329 108.552 187.527C108.033 187.737 107.47 187.661 106.86 187.301C106.53 187.155 106.189 186.932 105.835 186.638C105.486 186.345 105.12 185.975 104.738 185.53L104.461 185.204L104.931 184.443L105.23 184.757C105.593 185.135 105.912 185.436 106.184 185.658C106.434 185.859 106.64 185.991 106.805 186.056L106.851 186.076C107.233 186.283 107.582 186.314 107.898 186.17C108.242 186.01 108.552 185.646 108.827 185.08L109.561 183.713L104.115 167.319L105.079 167.317L110.206 182.774L115.501 173.057L115.817 173.401Z" fill="#FEFEFE"/>
<path d="M93 172.636L93 179.794L91.8734 179.184L91.8734 160.394L93 161.005L93 163.668C93.3874 163.188 93.8408 162.865 94.3657 162.708C95.2312 162.442 96.2781 162.625 97.4981 163.253L97.5284 163.27C99.2732 164.348 100.611 165.773 101.543 167.539C102.455 169.271 102.958 171.321 103.049 173.676L103.049 173.697C103.018 176.026 102.554 177.555 101.653 178.278C100.732 179.014 99.3831 178.918 97.5998 177.985L97.5888 177.979C96.3386 177.269 95.2724 176.307 94.3904 175.101C93.8546 174.364 93.3929 173.545 93 172.636ZM97.6135 176.775C99.0204 177.504 100.078 177.577 100.787 176.991C101.515 176.388 101.895 175.087 101.925 173.094C101.84 171.06 101.422 169.325 100.675 167.884C99.9492 166.485 98.8913 165.347 97.5064 164.475C96.0913 163.834 95.0114 163.811 94.2695 164.418C93.5111 165.04 93.0852 166.313 93 168.246C93.1154 170.222 93.5578 171.92 94.3299 173.341C95.0911 174.736 96.1847 175.882 97.6135 176.775Z" fill="#FEFEFE"/>
<path d="M73.8918 164.588L73.8918 145.691C75.6119 146.623 77.3293 147.547 79.0494 148.487C82.1489 150.202 84.4927 152.272 86.0755 154.698C87.6664 157.137 88.477 159.906 88.5045 163.002L88.5045 163.326C88.5183 163.741 88.521 164.139 88.5073 164.518C88.4221 167.127 87.6719 168.75 86.2623 169.389C84.861 170.023 82.8166 169.672 80.1348 168.338C79.6594 168.102 79.162 167.832 78.6427 167.53L73.8918 164.96L73.8918 164.588ZM75.0184 147.522L75.0184 164.347L78.6537 166.316C81.7092 168.096 83.9569 168.685 85.4023 168.084C86.8339 167.49 87.4933 165.707 87.3807 162.741L87.3807 162.726C87.3807 159.875 86.6608 157.354 85.2237 155.171C83.7756 152.97 81.5801 151.075 78.6427 149.485L75.0184 147.522Z" fill="#FEFEFE"/>
<path d="M119.239 143.672L119.236 182.273L131.153 176.287L131.991 177.648L124.561 181.285L132.612 196.182L131.708 196.422L123.715 181.625L119.236 183.878L119.236 189.342L118.112 188.734C118.112 174.01 118.109 159.281 118.112 144.559L106.64 155.745L105.42 155.084L105.42 135.819L106.453 136.378L106.453 153.772L117.925 142.591L119.239 143.303L119.239 143.672Z" fill="#FFF212"/>
</svg>
