<svg xmlns="http://www.w3.org/2000/svg" fill="none" viewBox="0 0 35 35"><path fill="#fff" fill-rule="evenodd" d="M10.285.105C12.151.019 12.746 0 17.5 0s5.349.02 7.213.105c1.865.084 3.137.382 4.251.813a8.61 8.61 0 0 1 3.1 2.02 8.548 8.548 0 0 1 2.017 3.098c.432 1.114.728 2.386.814 4.248.086 1.869.105 2.464.105 7.216 0 4.754-.02 5.349-.105 7.215-.084 1.861-.382 3.134-.815 4.247a8.585 8.585 0 0 1-2.017 3.101 8.581 8.581 0 0 1-3.099 2.017c-1.113.433-2.386.73-4.248.815-1.867.086-2.462.105-7.216.105s-5.349-.02-7.215-.105c-1.861-.084-3.134-.382-4.248-.815a8.587 8.587 0 0 1-3.1-2.017 8.58 8.58 0 0 1-2.019-3.099c-.431-1.113-.727-2.386-.813-4.248C.019 22.847 0 22.252 0 17.5c0-4.754.02-5.349.105-7.213.084-1.865.382-3.137.813-4.251a8.585 8.585 0 0 1 2.02-3.1A8.578 8.578 0 0 1 6.036.919C7.15.487 8.422.191 10.284.105h.001zm14.287 3.15c-1.846-.084-2.4-.102-7.072-.102-4.672 0-5.226.018-7.072.102-1.707.078-2.633.363-3.25.603-.816.318-1.4.695-2.012 1.308a5.428 5.428 0 0 0-1.308 2.012c-.24.617-.525 1.543-.603 3.25-.084 1.846-.102 2.4-.102 7.072 0 4.672.018 5.226.102 7.072.078 1.707.363 2.633.603 3.25.28.759.727 1.448 1.308 2.012a5.432 5.432 0 0 0 2.012 1.308c.617.24 1.543.525 3.25.603 1.846.084 2.398.102 7.072.102 4.674 0 5.226-.018 7.072-.102 1.707-.078 2.633-.363 3.25-.603.816-.318 1.4-.695 2.012-1.308a5.432 5.432 0 0 0 1.308-2.012c.24-.617.525-1.543.603-3.25.084-1.846.102-2.4.102-7.072 0-4.672-.018-5.226-.102-7.072-.078-1.707-.363-2.633-.603-3.25-.318-.816-.695-1.4-1.308-2.012a5.43 5.43 0 0 0-2.012-1.308c-.617-.24-1.543-.525-3.25-.603zm-9.307 19.64a5.838 5.838 0 0 0 6.363-9.523 5.837 5.837 0 1 0-6.363 9.523zM11.139 11.14a8.997 8.997 0 0 1 15.356 6.36 8.995 8.995 0 1 1-15.356-6.36zM28.49 9.845a2.127 2.127 0 1 0-2.919-3.095 2.127 2.127 0 0 0 2.919 3.095z" clip-rule="evenodd"/></svg>