<svg width="29" height="30" viewBox="0 0 29 30" fill="none" xmlns="http://www.w3.org/2000/svg">
<path fill-rule="evenodd" clip-rule="evenodd" d="M8.37968 0.730536C9.90008 0.660543 10.3848 0.644989 14.2578 0.644989C18.1307 0.644989 18.6155 0.661839 20.1346 0.730536C21.6537 0.799232 22.6906 1.04161 23.5979 1.39287C24.548 1.75191 25.4099 2.31315 26.1228 3.039C26.8487 3.75059 27.4086 4.61124 27.7664 5.56263C28.1189 6.46994 28.36 7.50687 28.43 9.02338C28.5 10.5464 28.5156 11.0311 28.5156 14.9028C28.5156 18.7757 28.4987 19.2605 28.43 20.7809C28.3613 22.2974 28.1189 23.3343 27.7664 24.2416C27.4086 25.1931 26.8478 26.0552 26.1228 26.7678C25.4099 27.4937 24.548 28.0536 23.5979 28.4114C22.6906 28.7639 21.6537 29.005 20.1372 29.075C18.6155 29.145 18.1307 29.1605 14.2578 29.1605C10.3848 29.1605 9.90008 29.1437 8.37968 29.075C6.86317 29.0063 5.82625 28.7639 4.91893 28.4114C3.96745 28.0536 3.10537 27.4927 2.39271 26.7678C1.66736 26.0558 1.10603 25.1941 0.747885 24.2429C0.396625 23.3356 0.155539 22.2987 0.0855466 20.7822C0.0155539 19.2592 0 18.7744 0 14.9028C0 11.0298 0.0168501 10.5451 0.0855466 9.02597C0.154243 7.50687 0.396625 6.46994 0.747885 5.56263C1.10656 4.61135 1.66831 3.7497 2.39401 3.0377C3.10565 2.3125 3.96687 1.75119 4.91764 1.39287C5.82495 1.04161 6.86188 0.800528 8.37839 0.730536H8.37968ZM20.0192 3.29694C18.5157 3.22824 18.0646 3.21398 14.2578 3.21398C10.4509 3.21398 9.99988 3.22824 8.49634 3.29694C7.10556 3.36045 6.35119 3.59246 5.84828 3.78818C5.18335 4.04741 4.70766 4.3546 4.20864 4.85363C3.7356 5.31383 3.37155 5.87407 3.14319 6.49327C2.94747 6.99618 2.71546 7.75055 2.65195 9.14133C2.58325 10.6449 2.56899 11.0959 2.56899 14.9028C2.56899 18.7096 2.58325 19.1607 2.65195 20.6642C2.71546 22.055 2.94747 22.8094 3.14319 23.3123C3.37132 23.9305 3.73554 24.4918 4.20864 24.9519C4.66877 25.425 5.23001 25.7892 5.84828 26.0173C6.35119 26.2131 7.10556 26.4451 8.49634 26.5086C9.99988 26.5773 10.4497 26.5915 14.2578 26.5915C18.0659 26.5915 18.5157 26.5773 20.0192 26.5086C21.41 26.4451 22.1644 26.2131 22.6673 26.0173C23.3322 25.7581 23.8079 25.4509 24.3069 24.9519C24.78 24.4918 25.1442 23.9305 25.3724 23.3123C25.5681 22.8094 25.8001 22.055 25.8636 20.6642C25.9323 19.1607 25.9466 18.7096 25.9466 14.9028C25.9466 11.0959 25.9323 10.6449 25.8636 9.14133C25.8001 7.75055 25.5681 6.99618 25.3724 6.49327C25.1131 5.82834 24.8059 5.35265 24.3069 4.85363C23.8467 4.38062 23.2865 4.01658 22.6673 3.78818C22.1644 3.59246 21.41 3.36045 20.0192 3.29694ZM12.4367 19.298C13.4537 19.7214 14.5862 19.7786 15.6407 19.4597C16.6952 19.1409 17.6063 18.4658 18.2183 17.5498C18.8304 16.6339 19.1055 15.5338 18.9966 14.4376C18.8877 13.3413 18.4016 12.3169 17.6213 11.5392C17.1239 11.0421 16.5224 10.6615 15.8603 10.4247C15.1981 10.188 14.4916 10.101 13.7918 10.17C13.092 10.239 12.4161 10.4623 11.813 10.8239C11.2098 11.1855 10.6943 11.6763 10.3036 12.261C9.91286 12.8457 9.65665 13.5098 9.55338 14.2054C9.45011 14.901 9.50236 15.6108 9.70636 16.2838C9.91036 16.9568 10.261 17.5762 10.7332 18.0974C11.2053 18.6186 11.7871 19.0287 12.4367 19.298ZM9.07572 9.72071C9.75624 9.04019 10.5641 8.50038 11.4533 8.13209C12.3424 7.76379 13.2954 7.57423 14.2578 7.57423C15.2202 7.57423 16.1731 7.76379 17.0623 8.13209C17.9514 8.50038 18.7593 9.04019 19.4398 9.72071C20.1203 10.4012 20.6602 11.2091 21.0285 12.0983C21.3967 12.9874 21.5863 13.9404 21.5863 14.9028C21.5863 15.8652 21.3967 16.8181 21.0285 17.7073C20.6602 18.5964 20.1203 19.4043 19.4398 20.0848C18.0655 21.4592 16.2014 22.2313 14.2578 22.2313C12.3141 22.2313 10.4501 21.4592 9.07572 20.0848C7.70136 18.7105 6.92925 16.8464 6.92925 14.9028C6.92925 12.9591 7.70136 11.0951 9.07572 9.72071ZM23.2117 8.66564C23.3803 8.50656 23.5153 8.31526 23.6087 8.10307C23.7021 7.89088 23.7519 7.66211 23.7553 7.4303C23.7587 7.1985 23.7155 6.96837 23.6284 6.75355C23.5412 6.53873 23.4118 6.34358 23.2479 6.17965C23.084 6.01572 22.8888 5.88635 22.674 5.7992C22.4592 5.71204 22.229 5.66888 21.9972 5.67226C21.7654 5.67564 21.5367 5.72549 21.3245 5.81887C21.1123 5.91225 20.921 6.04725 20.7619 6.21589C20.4525 6.54386 20.2832 6.97949 20.2897 7.4303C20.2963 7.88112 20.4783 8.31163 20.7971 8.63044C21.1159 8.94924 21.5464 9.13125 21.9972 9.13783C22.4481 9.1444 22.8837 8.97502 23.2117 8.66564Z" fill="white"/>
</svg>