<svg xmlns="http://www.w3.org/2000/svg" fill="none" viewBox="0 0 20 25"><path fill="#fff" d="M10 0c5.523 0 10 4.606 10 10.289 0 4.348-2.97 9.086-8.83 14.265A1.765 1.765 0 0 1 9.997 25c-.43 0-.845-.16-1.17-.448l-.388-.346C2.838 19.162 0 14.54 0 10.289 0 4.606 4.477 0 10 0zm0 6.332c-1.02 0-1.998.417-2.72 1.159a4.016 4.016 0 0 0-1.126 2.798c0 1.05.405 2.056 1.126 2.798.722.742 1.7 1.16 2.72 1.16 1.02 0 1.998-.418 2.72-1.16a4.016 4.016 0 0 0 1.126-2.798c0-1.05-.405-2.056-1.126-2.798A3.792 3.792 0 0 0 10 6.33z"/></svg>