<svg xmlns="http://www.w3.org/2000/svg" fill="none" viewBox="0 0 160 160"><path fill="#252323" fill-rule="evenodd" d="M0 0h160v160H0V0z" clip-rule="evenodd"/><path fill="#EC268F" d="M73.114 29.305h1.824v41.428H72.32V29.305h.794z"/><path fill="#00AFEF" d="M22.016 69.933V29.305h3.161l16.928 37.453 16.73-37.453h3.161v41.428H59.38V34.38l-16.34 36.14h-.87l-.051.122-.058-.121H40.98L24.633 34.38v36.352h-2.617v-.8z"/><path fill="#FFF212" d="M91.035 23.45V21.65h20.218v2.599H91.035v-.8z"/><path fill="#EC268F" d="M72.258 23.59v-1.939h2.739v2.733h-2.74v-.794z"/><path fill="#FEFEFE" d="M109.269 98.01l1.511.748-15.31 33.556c-.933 2.022-1.977 3.532-3.122 4.531-1.21 1.056-2.522 1.549-3.943 1.485-.768.07-1.561-.013-2.387-.231-.813-.224-1.664-.595-2.553-1.107l-.647-.378 1.094-2.182.698.326c.845.391 1.587.666 2.22.826.583.141 1.063.186 1.447.134l.11-.012c.889 0 1.701-.34 2.438-1.018.8-.742 1.523-1.888 2.163-3.424l1.709-3.795L82.011 98.56l2.246-1.126 11.943 27.264 12.332-27.06.736.372zM56.124 122.938v15.392H53.5V97.926h2.624v5.728c.902-1.484 1.958-2.707 3.18-3.654 2.017-1.58 4.455-2.406 7.297-2.477h.07c4.064.288 7.181 1.792 9.35 4.506 2.125 2.662 3.297 6.483 3.508 11.443v.045c-.07 5.043-1.152 8.87-3.251 11.475-2.144 2.656-5.287 4.019-9.44 4.09h-.026c-2.912-.071-5.395-.896-7.45-2.464-1.248-.96-2.323-2.183-3.238-3.68zm10.746 3.526c3.276-.07 5.74-1.146 7.392-3.232 1.696-2.144 2.579-5.382 2.65-9.702-.2-4.276-1.172-7.52-2.913-9.748-1.69-2.163-4.153-3.379-7.379-3.641-3.296.269-5.811 1.478-7.54 3.648-1.766 2.221-2.758 5.453-2.956 9.709.269 4.115 1.3 7.251 3.098 9.408 1.772 2.112 4.32 3.302 7.648 3.558zM11.617 127.885V87.251c4.007 0 8.007-.013 12.013.006 7.22.077 12.678 1.799 16.365 5.172 3.705 3.392 5.593 8.403 5.657 15.027v.697a34.2 34.2 0 0 1 .007 2.56c-.199 5.709-1.946 10.074-5.229 13.088-3.264 2.996-8.026 4.621-14.272 4.877a44.725 44.725 0 0 1-3.475 0l-11.066.007v-.8zm2.624-38.01v36.179h8.467c7.117.269 12.352-1.081 15.719-4.057 3.334-2.944 4.87-7.546 4.608-13.792v-.032c0-6.132-1.677-10.714-5.024-13.735-3.373-3.046-8.487-4.563-15.328-4.563H14.24z"/><path fill="#FFF212" d="M117.236 30.1l-.006 83.007 27.757-26.752 1.952 1.952-17.306 16.474 18.752 22.656-2.105 1.568-18.618-22.509-10.432 10.061v11.75h-2.618c0-31.66-.006-63.328 0-94.989l-26.72 37.415h-2.841V29.305h2.406v37.402l26.72-37.401h3.059v.793z"/></svg>