<svg width="175" height="43" viewBox="0 0 175 43" fill="none" xmlns="http://www.w3.org/2000/svg">
<path d="M0.226562 38.0884V37.0955C0.226562 35.762 1.52353 35.4603 2.33028 35.4603C3.38225 35.4603 4.48497 35.8495 4.48497 37.0078V37.4459C4.48497 38.429 4.06628 38.7794 3.42294 38.9157V38.9643C4.07656 39.052 4.48497 39.3243 4.48497 40.2199V40.9888C4.48497 42.186 3.50453 42.6629 2.33028 42.6629C0.982345 42.6629 0.226562 42.1764 0.226562 41.0472V39.8598H1.92187V41.0277C1.92187 41.3101 2.00347 41.5534 2.35084 41.5534C2.69778 41.5534 2.78988 41.3101 2.78988 41.0277V40.0348C2.78988 39.4411 2.54488 39.412 2.06472 39.412V38.3607C2.62647 38.3607 2.78988 38.2245 2.78988 37.7476V36.9981C2.78988 36.7645 2.62647 36.5698 2.35084 36.5698C1.9525 36.5698 1.92187 36.9106 1.92187 37.3193V38.0884H0.226562V38.0884Z" fill="#2B2B2A"/>
<path d="M10.4254 35.5963L11.3647 42.5268H9.6797L9.48589 40.8233H8.5667L8.29108 42.5268H6.86133L8.09705 35.5963H10.4254V35.5963ZM9.36317 39.772L9.0672 36.6866H9.04686L8.75067 39.772H9.36317Z" fill="#2B2B2A"/>
<path d="M18.0468 35.5963V42.5268H16.3517V36.6476H15.4531V42.5268H13.7578V35.5963H18.0468Z" fill="#2B2B2A"/>
<path d="M24.8261 37.4849V40.6384C24.8261 42.225 23.8048 42.6629 22.6817 42.6629C21.5585 42.6629 20.5371 42.225 20.5371 40.6384V37.4849C20.5371 35.8983 21.5585 35.4603 22.6817 35.4603C23.8048 35.4603 24.8261 35.8983 24.8261 37.4849ZM22.2324 37.1149V41.0083C22.2324 41.2905 22.3243 41.5534 22.6817 41.5534C23.0392 41.5534 23.131 41.2905 23.131 41.0083V37.1149C23.131 36.8325 23.0392 36.5698 22.6817 36.5698C22.3243 36.5698 22.2324 36.8325 22.2324 37.1149V37.1149Z" fill="#2B2B2A"/>
<path d="M29.0137 42.5268H27.3184V35.5963H29.3915C30.7394 35.5963 31.6074 35.8886 31.6074 37.0856V38.351C31.6074 39.3923 30.6375 39.8499 29.6367 39.8499H29.0137V42.5268V42.5268ZM29.0137 38.8572H29.2792C29.8714 38.8572 29.9123 38.5457 29.9123 37.728C29.9123 36.9106 29.8714 36.5892 29.2792 36.5892H29.0137V38.8572Z" fill="#2B2B2A"/>
<path d="M34.0977 35.5963H35.793V42.5268H34.0977V35.5963Z" fill="#2B2B2A"/>
<path d="M38.2852 38.0884V37.0955C38.2852 35.762 39.5821 35.4603 40.3889 35.4603C41.4406 35.4603 42.5436 35.8495 42.5436 37.0078V37.4459C42.5436 38.429 42.1249 38.7794 41.4815 38.9157V38.9643C42.1352 39.052 42.5436 39.3243 42.5436 40.2199V40.9888C42.5436 42.186 41.5631 42.6629 40.3889 42.6629C39.0409 42.6629 38.2852 42.1764 38.2852 41.0472V39.8598H39.9805V41.0277C39.9805 41.3101 40.0618 41.5534 40.4092 41.5534C40.7564 41.5534 40.8485 41.3101 40.8485 41.0277V40.0348C40.8485 39.4411 40.6033 39.412 40.1231 39.412V38.3607C40.6851 38.3607 40.8485 38.2245 40.8485 37.7476V36.9981C40.8485 36.7645 40.6851 36.5698 40.4092 36.5698C40.0109 36.5698 39.9805 36.9106 39.9805 37.3193V38.0884H38.2852Z" fill="#2B2B2A"/>
<path d="M46.7305 38.3217H47.5064C48.5072 38.3217 49.3242 38.6332 49.3242 40.4436C49.3242 42.1374 48.5275 42.5268 47.5267 42.5268H45.0352V35.5963H46.7305V38.3217V38.3217ZM46.7305 41.5338H46.9958C47.5882 41.5338 47.6291 41.2613 47.6291 40.4436C47.6291 39.6261 47.5882 39.3146 46.9958 39.3146H46.7305V41.5338V41.5338Z" fill="#2B2B2A"/>
<path d="M53.5115 38.7404H53.5321L54.6044 35.5963H56.2177L55.0841 38.6529L56.2279 42.5268H54.5532L53.5321 39.0127H53.5115V42.5268H51.8164V35.5963H53.5115V38.7404Z" fill="#2B2B2A"/>
<path d="M62.0446 35.5963L62.9841 42.5268H61.2991L61.105 40.8233H60.1858L59.9102 42.5268H58.4805L59.7162 35.5963H62.0446V35.5963ZM60.9825 39.772L60.6863 36.6866H60.666L60.3698 39.772H60.9825V39.772Z" fill="#2B2B2A"/>
<path d="M69.7871 35.5963H71.5028C72.9426 35.5963 74.0761 35.616 74.0761 37.2803C74.0761 38.0492 73.8412 38.7404 72.871 38.8279V38.8959C73.9534 38.8959 74.0761 39.6552 74.0761 40.5508C74.0761 42.4585 73.3 42.5268 71.5028 42.5268H69.7871V35.5963ZM71.4824 38.4094C72.2787 38.4094 72.381 38.2438 72.381 37.5043C72.381 36.7546 72.2583 36.5892 71.4824 36.5892V38.4094ZM71.4824 41.5338C72.2583 41.5338 72.381 41.417 72.381 40.395C72.381 39.412 72.1971 39.4021 71.4824 39.4021V41.5338Z" fill="#2B2B2A"/>
<path d="M76.5664 38.0884V37.0955C76.5664 35.762 77.8634 35.4603 78.6701 35.4603C79.7221 35.4603 80.8248 35.8495 80.8248 37.0078V37.4459C80.8248 38.429 80.4061 38.7794 79.7628 38.9157V38.9643C80.4164 39.052 80.8248 39.3243 80.8248 40.2199V40.9888C80.8248 42.186 79.8446 42.6629 78.6701 42.6629C77.3222 42.6629 76.5664 42.1764 76.5664 41.0472V39.8598H78.2617V41.0277C78.2617 41.3101 78.3433 41.5534 78.6905 41.5534C79.0376 41.5534 79.1297 41.3101 79.1297 41.0277V40.0348C79.1297 39.4411 78.8847 39.412 78.4046 39.412V38.3607C78.9663 38.3607 79.1297 38.2245 79.1297 37.7476V36.9981C79.1297 36.7645 78.9663 36.5698 78.6905 36.5698C78.2923 36.5698 78.2617 36.9106 78.2617 37.3193V38.0884H76.5664Z" fill="#2B2B2A"/>
<path d="M84.8114 35.5963L85.4138 38.5164L86.1287 35.5963H87.701L85.516 42.5268H84.0554L84.5559 40.8426L83.0957 35.5963H84.8114Z" fill="#2B2B2A"/>
<path d="M93.9491 35.5963V36.6476H92.7646V42.5268H91.0693V36.6476H89.8848V35.5963H93.9491Z" fill="#2B2B2A"/>
<path d="M100.34 35.5963V36.6476H99.1552V42.5268H97.4599V36.6476H96.2754V35.5963H100.34Z" fill="#2B2B2A"/>
<path d="M107.041 39.8305V40.7455C107.041 42.0399 106.316 42.6629 104.886 42.6629C103.763 42.6629 102.752 42.225 102.752 40.6384V37.4849C102.752 35.8983 103.763 35.4603 104.886 35.4603C106.122 35.4603 107.041 35.8105 107.041 37.3096V38.0785H105.346V37.1149C105.346 36.8325 105.254 36.5698 104.886 36.5698C104.539 36.5698 104.447 36.8325 104.447 37.1149V38.3607H105.182V39.412H104.447V41.0083C104.447 41.2905 104.539 41.5534 104.886 41.5534C105.254 41.5534 105.346 41.2905 105.346 41.0083V39.8305H107.041V39.8305Z" fill="#2B2B2A"/>
<path d="M109.533 35.5963H111.249C112.689 35.5963 113.822 35.616 113.822 37.2803C113.822 38.0492 113.587 38.7404 112.617 38.8279V38.8959C113.7 38.8959 113.822 39.6552 113.822 40.5508C113.822 42.4585 113.046 42.5268 111.249 42.5268H109.533V35.5963ZM111.229 38.4094C112.025 38.4094 112.127 38.2438 112.127 37.5043C112.127 36.7546 112.004 36.5892 111.229 36.5892V38.4094ZM111.229 41.5338C112.004 41.5338 112.127 41.417 112.127 40.395C112.127 39.412 111.943 39.4021 111.229 39.4021V41.5338Z" fill="#2B2B2A"/>
<path d="M119.767 35.5963L120.707 42.5268H119.021L118.828 40.8233H117.908L117.633 42.5268H116.203L117.439 35.5963H119.767V35.5963ZM118.705 39.772L118.409 36.6866H118.388L118.092 39.772H118.705V39.772Z" fill="#2B2B2A"/>
<path d="M131.578 35.5963V36.3751C133.478 36.3751 134.121 36.8325 134.121 38.7404V39.6845C134.121 40.9986 133.713 41.7771 131.578 41.7771V42.5268H130.047V41.7771C127.912 41.7771 127.504 40.9986 127.504 39.6845V38.7404C127.504 36.813 128.147 36.3751 130.047 36.3751V35.5963H131.578ZM130.047 37.368H129.832C129.362 37.368 129.199 37.6211 129.199 38.4775V39.6261C129.199 40.4436 129.342 40.7844 129.832 40.7844H130.047V37.368ZM131.578 40.7844H131.793C132.283 40.7844 132.426 40.4436 132.426 39.6261V38.4775C132.426 37.6211 132.263 37.368 131.793 37.368H131.578V40.7844Z" fill="#2B2B2A"/>
<path d="M140.064 35.5963L141.003 42.5268H139.318L139.124 40.8233H138.205L137.93 42.5268H136.5L137.735 35.5963H140.064V35.5963ZM139.002 39.772L138.706 36.6866H138.685L138.389 39.772H139.002Z" fill="#2B2B2A"/>
<path d="M147.185 35.5963V36.5892H145.092V38.3217H145.868C146.868 38.3217 147.685 38.6332 147.685 40.4436C147.685 42.1374 146.889 42.5268 145.888 42.5268H143.396V35.5963H147.185V35.5963ZM145.092 41.5338H145.357C145.949 41.5338 145.99 41.2613 145.99 40.4436C145.99 39.6261 145.949 39.3146 145.357 39.3146H145.092V41.5338V41.5338Z" fill="#2B2B2A"/>
<path d="M151.873 42.5268H150.178V35.5963H152.251C153.599 35.5963 154.467 35.8886 154.467 37.0856V38.351C154.467 39.3923 153.496 39.8499 152.496 39.8499H151.873V42.5268V42.5268ZM151.873 38.8572H152.138C152.731 38.8572 152.771 38.5457 152.771 37.728C152.771 36.9106 152.731 36.5892 152.138 36.5892H151.873V38.8572Z" fill="#2B2B2A"/>
<path d="M158.489 35.5963V39.548H158.499L159.663 35.5963H161.338V42.5268H159.806V38.5359H159.796L158.611 42.5268H156.957V35.5963H158.489Z" fill="#2B2B2A"/>
<path d="M165.523 38.7404H165.544L166.616 35.5963H168.23L167.096 38.6529L168.24 42.5268H166.565L165.544 39.0127H165.523V42.5268H163.828V35.5963H165.523V38.7404Z" fill="#2B2B2A"/>
<path d="M174.06 35.5963L175 42.5268H173.314L173.121 40.8233H172.201L171.926 42.5268H170.496L171.732 35.5963H174.06V35.5963ZM172.998 39.772L172.702 36.6866H172.681L172.385 39.772H172.998V39.772Z" fill="#2B2B2A"/>
<path d="M69.0606 2.37977C69.058 2.26252 69.1418 2.16956 69.2636 2.16956H71.4139C71.5334 2.16956 71.6195 2.26252 71.6086 2.37977L70.9994 10.3228C70.9911 10.437 70.885 10.5339 70.7684 10.5339H69.9096C69.7897 10.5339 69.6869 10.437 69.6755 10.3228L69.0606 2.37977V2.37977Z" fill="#2B2B2A"/>
<path d="M68.8175 10.534C68.9063 10.534 69.0227 10.4242 69.0148 10.3229L68.4336 3.23304C68.417 3.0191 68.1632 2.94429 68.0381 3.11382L66.1503 5.74495C66.072 5.86438 66.0081 5.91164 65.8556 5.87576L60.1451 4.31563C59.9257 4.25701 59.7864 4.48604 59.8866 4.63807L63.8282 10.4621C63.8558 10.5039 63.933 10.534 63.9916 10.534H64.6065C64.7704 10.534 64.8621 10.3617 64.8124 10.2409L63.2604 6.90476C63.2107 6.80588 63.319 6.5902 63.5163 6.64051L66.164 7.31885C66.3141 7.36239 66.3671 7.38295 66.5114 7.21101L66.8901 6.76826C67.0233 6.6101 67.2403 6.70723 67.265 6.85467L67.9165 10.3267C67.9438 10.4702 68.0195 10.534 68.1691 10.534H68.8175V10.534Z" fill="#2B2B2A"/>
<path d="M74.4413 5.6404C74.1329 5.20509 72.7395 3.26959 72.6143 3.08627C72.5028 2.93446 72.2328 3.00665 72.225 3.19696C72.216 3.33871 71.7409 9.09905 71.6407 10.3116C71.6381 10.4087 71.7183 10.5338 71.8577 10.5338C72.4059 10.5338 73.7295 10.5338 73.81 10.5338C73.9078 10.5338 74.008 10.4676 74.0213 10.3503C74.1388 9.51293 74.5719 6.41455 74.5802 6.32837C74.6082 6.09955 74.5886 5.85281 74.4413 5.6404V5.6404ZM73.9459 6.84352C73.9459 6.89296 73.6735 9.12662 73.5876 9.83887C73.574 9.95568 73.4624 10.0222 73.3679 10.0222C73.3202 10.0222 73.1229 10.0222 72.9532 10.0222C72.8449 10.0222 72.7169 9.9139 72.7338 9.78177C72.8397 8.95162 73.1842 6.25268 73.1978 6.13696C73.2174 5.98121 73.4287 5.87556 73.5685 6.0149C73.6845 6.12559 73.7015 6.14352 73.7906 6.23037C73.9575 6.39727 73.9632 6.6694 73.9459 6.84352V6.84352Z" fill="#2B2B2A"/>
<path d="M75.9892 5.55524C75.4526 5.70027 75.2522 6.04064 75.2185 6.27317L74.671 10.3047C74.6596 10.3975 74.7408 10.5338 74.8823 10.5338H75.1356C75.1995 10.5338 75.294 10.4756 75.3187 10.406L75.9336 8.70392C75.9614 8.61205 76.0443 8.56196 76.1397 8.56196L76.6146 8.56502C76.7651 8.56502 76.879 8.72055 76.7988 8.8763L76.1141 10.231C76.0443 10.3671 76.1528 10.5316 76.309 10.5316H76.6846C76.7651 10.5316 76.8235 10.4839 76.8567 10.4395L80.7535 4.64939C80.8787 4.46433 80.7087 4.26789 80.5197 4.31799L75.9892 5.55524V5.55524ZM76.4315 7.80114C76.3116 7.80114 76.2508 7.71124 76.2893 7.59968C76.2893 7.59968 76.4816 7.08496 76.5704 6.84608C76.6566 6.60983 76.7904 6.24539 77.1765 6.17146C77.4576 6.11196 78.3506 5.99471 78.3506 5.99471C78.4593 5.97568 78.509 6.04611 78.4505 6.14564L77.5747 7.61608C77.513 7.71889 77.369 7.80114 77.2457 7.80114H76.4315V7.80114Z" fill="#2B2B2A"/>
<path d="M69.2634 1.69531C69.1415 1.69531 69.1024 1.61788 69.1689 1.52578L70.2176 0.070875C70.2814 -0.023625 70.3928 -0.023625 70.4626 0.070875L71.5108 1.52578C71.5751 1.61788 71.5331 1.69531 71.4165 1.69531H69.2634V1.69531Z" fill="#2B2B2A"/>
<path d="M83.7012 8.10596H174.889V9.6079H83.7012V8.10596Z" fill="#2B2B2A"/>
<path d="M0.0546875 8.10596H57.0255V9.6079H0.0546875V8.10596Z" fill="#2B2B2A"/>
<path fill-rule="evenodd" clip-rule="evenodd" d="M57.0254 14.1499L64.9249 18.0491V26.9435L57.0254 30.8386H83.6311L75.7325 26.9435V18.0491L83.6311 14.1499H57.0254Z" fill="#2B2B2A"/>
<path fill-rule="evenodd" clip-rule="evenodd" d="M84.2793 14.1748L92.1751 18.073V26.9671L84.2793 30.8624H111.855C114.002 30.8757 116.138 30.7425 118.252 30.473C120.363 30.2 122.396 29.7317 124.354 29.0678C125.427 28.6961 126.454 28.1923 127.422 27.5639C128.392 26.9326 129.183 26.2037 129.802 25.3707C130.42 24.5429 130.74 23.6408 130.762 22.6717C130.718 21.4461 130.184 20.3184 129.168 19.2822C128.154 18.2506 126.913 17.3592 125.445 16.6082C123.984 15.8601 122.563 15.2955 121.178 14.9232C119.812 14.5863 118.403 14.3721 116.953 14.2857C115.504 14.1996 114.066 14.1637 112.634 14.1748H84.2793ZM100.858 27.5162V17.1728H106.296C107.836 17.1616 109.296 17.3159 110.676 17.637C112.059 17.9546 113.19 18.4995 114.066 19.2754C114.942 20.0487 115.398 21.1142 115.429 22.4711C115.407 24.0746 115.006 25.2359 114.205 25.9556C113.407 26.6764 112.317 27.1216 110.924 27.2966C109.538 27.4742 107.953 27.5442 106.17 27.5162H100.858V27.5162Z" fill="#2B2B2A"/>
<path fill-rule="evenodd" clip-rule="evenodd" d="M162.742 14.1747H137.238L142.35 17.2643L133.416 26.9488L127.072 30.8622H147.273L140.74 27.4493L141.705 26.2897H154.136L155.105 27.4493L147.598 30.8622H174.785L166.633 26.9488L157.63 17.2643L162.742 14.1747V14.1747ZM147.442 19.0598L151.52 23.5945H143.621L147.442 19.0598V19.0598Z" fill="#2B2B2A"/>
<path d="M28.2264 21.7701L32.3061 14.1747H56.4528L48.5544 18.0728V26.967L56.4528 30.8622H30.3012L37.7409 26.967V16.1714L28.5878 29.7226H27.8648L18.7088 16.1714V26.967L26.154 30.8622H0L7.89578 26.967V18.0728L0 14.1747H24.1437L28.2264 21.7701Z" fill="#2B2B2A"/>
</svg>
