<svg xmlns="http://www.w3.org/2000/svg" fill="none" viewBox="0 0 190 94"><rect width="188" height="91.643" x="1" y="1.179" fill="#fff" stroke="#000" stroke-width="2" rx="11"/><path fill="#2B2B2A" d="M20.059 61.758v-.857c0-1.152 1.12-1.413 1.816-1.413.909 0 1.861.337 1.861 1.337v.378c0 .85-.361 1.152-.917 1.27v.042c.565.075.917.31.917 1.084v.664c0 1.034-.846 1.446-1.86 1.446-1.165 0-1.817-.42-1.817-1.395v-1.026h1.464v1.009c0 .244.07.454.37.454s.38-.21.38-.454v-.858c0-.513-.212-.538-.627-.538v-.908c.485 0 .626-.117.626-.53v-.646a.36.36 0 0 0-.379-.37c-.344 0-.37.294-.37.647v.664h-1.464zM28.87 59.606l.81 5.985h-1.455l-.167-1.47h-.794l-.238 1.47H25.79l1.067-5.985h2.011zm-.918 3.606l-.256-2.665h-.018l-.255 2.665h.529zM35.45 59.606v5.985h-1.464v-5.077h-.776v5.077h-1.464v-5.985h3.704zM41.304 61.237v2.724c0 1.37-.882 1.748-1.852 1.748-.97 0-1.852-.378-1.852-1.748v-2.724c0-1.37.882-1.748 1.852-1.748.97 0 1.852.378 1.852 1.748zm-2.24-.32v3.363c0 .244.08.47.388.47.309 0 .388-.226.388-.47v-3.363c0-.243-.08-.47-.388-.47-.309 0-.388.227-.388.47zM44.921 65.591h-1.464v-5.985h1.79c1.165 0 1.914.252 1.914 1.286v1.093c0 .9-.837 1.294-1.702 1.294h-.538v2.312zm0-3.169h.23c.51 0 .546-.269.546-.975s-.035-.983-.547-.983h-.229v1.958zM49.313 59.606h1.464v5.985h-1.465v-5.985zM52.928 61.758v-.857c0-1.152 1.12-1.413 1.817-1.413.908 0 1.86.337 1.86 1.337v.378c0 .85-.361 1.152-.917 1.27v.042c.565.075.917.31.917 1.084v.664c0 1.034-.846 1.446-1.86 1.446-1.164 0-1.817-.42-1.817-1.395v-1.026h1.464v1.009c0 .244.07.454.37.454s.38-.21.38-.454v-.858c0-.513-.212-.538-.627-.538v-.908c.485 0 .627-.117.627-.53v-.646a.36.36 0 0 0-.38-.37c-.344 0-.37.294-.37.647v.664h-1.464zM60.222 61.96h.67c.864 0 1.57.269 1.57 1.832 0 1.463-.688 1.8-1.552 1.8h-2.152v-5.986h1.464v2.354zm0 2.774h.23c.51 0 .546-.236.546-.942s-.035-.975-.547-.975h-.23v1.917zM66.077 62.321h.018l.926-2.715h1.393l-.979 2.64.988 3.345h-1.446l-.882-3.034h-.018v3.034h-1.464v-5.985h1.464v2.715zM73.447 59.606l.812 5.985h-1.456l-.167-1.47h-.794l-.238 1.47h-1.235l1.067-5.985h2.011zm-.917 3.606l-.256-2.665h-.017L72 63.212h.529zM80.135 59.606h1.481c1.244 0 2.223.017 2.223 1.454 0 .664-.203 1.261-1.04 1.337v.059c.934 0 1.04.655 1.04 1.429 0 1.647-.67 1.706-2.222 1.706h-1.482v-5.985zm1.464 2.43c.688 0 .776-.144.776-.782 0-.648-.106-.79-.776-.79v1.572zm0 2.698c.67 0 .776-.101.776-.984 0-.849-.159-.857-.776-.857v1.84zM85.988 61.758v-.857c0-1.152 1.12-1.413 1.817-1.413.909 0 1.861.337 1.861 1.337v.378c0 .85-.362 1.152-.917 1.27v.042c.564.075.917.31.917 1.084v.664c0 1.034-.847 1.446-1.86 1.446-1.165 0-1.818-.42-1.818-1.395v-1.026h1.464v1.009c0 .244.07.454.37.454s.38-.21.38-.454v-.858c0-.513-.212-.538-.626-.538v-.908c.485 0 .626-.117.626-.53v-.646a.36.36 0 0 0-.38-.37c-.343 0-.37.294-.37.647v.664h-1.464zM93.109 59.606l.52 2.522.617-2.522h1.358l-1.887 5.985h-1.261l.432-1.454-1.261-4.531h1.482zM101 59.606v.908h-1.023v5.077h-1.464v-5.077H97.49v-.908H101zM106.522 59.606v.908h-1.023v5.077h-1.464v-5.077h-1.023v-.908h3.51zM112.307 63.263v.79c0 1.118-.626 1.656-1.86 1.656-.97 0-1.843-.378-1.843-1.748v-2.724c0-1.37.873-1.748 1.843-1.748 1.067 0 1.86.302 1.86 1.597v.664h-1.463v-.833c0-.243-.08-.47-.397-.47-.3 0-.38.227-.38.47v1.076h.635v.908h-.635v1.379c0 .244.08.47.38.47.317 0 .397-.226.397-.47v-1.017h1.463zM114.461 59.606h1.482c1.243 0 2.222.017 2.222 1.454 0 .664-.203 1.261-1.041 1.337v.059c.935 0 1.041.655 1.041 1.429 0 1.647-.67 1.706-2.222 1.706h-1.482v-5.985zm1.464 2.43c.688 0 .776-.144.776-.782 0-.648-.106-.79-.776-.79v1.572zm0 2.698c.67 0 .776-.101.776-.984 0-.849-.159-.857-.776-.857v1.84zM123.299 59.606l.811 5.985h-1.455l-.168-1.47h-.793l-.239 1.47h-1.234l1.067-5.985h2.011zm-.918 3.606l-.255-2.665h-.018l-.256 2.665h.529zM133.499 59.606v.672c1.641 0 2.196.395 2.196 2.043v.816c0 1.135-.352 1.807-2.196 1.807v.647h-1.323v-.647c-1.843 0-2.196-.672-2.196-1.807v-.816c0-1.664.556-2.042 2.196-2.042v-.673h1.323zm-1.323 1.53h-.185c-.405 0-.547.219-.547.958v.992c0 .706.124 1 .547 1h.185v-2.95zm1.323 2.95h.185c.424 0 .547-.294.547-1v-.992c0-.74-.141-.958-.547-.958h-.185v2.95zM140.828 59.606l.811 5.985h-1.455l-.168-1.47h-.793l-.238 1.47h-1.235l1.067-5.985h2.011zm-.917 3.606l-.256-2.665h-.018l-.255 2.665h.529zM146.977 59.606v.858h-1.808v1.496h.67c.864 0 1.57.269 1.57 1.832 0 1.463-.688 1.8-1.552 1.8h-2.152v-5.986h3.272zm-1.808 5.128h.229c.512 0 .547-.236.547-.942s-.035-.975-.547-.975h-.229v1.917zM151.026 65.591h-1.464v-5.985h1.791c1.164 0 1.913.252 1.913 1.286v1.093c0 .9-.837 1.294-1.702 1.294h-.538v2.312zm0-3.169h.23c.511 0 .547-.269.547-.975s-.036-.983-.547-.983h-.23v1.958zM156.741 59.606v3.413h.009l1.005-3.413h1.446v5.985h-1.322v-3.446h-.009l-1.023 3.446h-1.429v-5.985h1.323zM162.816 62.321h.017l.926-2.715h1.394l-.979 2.64.988 3.345h-1.447l-.882-3.034h-.017v3.034h-1.464v-5.985h1.464v2.715zM170.187 59.606l.812 5.985h-1.456l-.167-1.47h-.794l-.238 1.47h-1.235l1.067-5.985h2.011zm-.917 3.606l-.256-2.665h-.017l-.256 2.665h.529zM79.506 30.919a.171.171 0 0 1 .175-.182h1.857c.103 0 .178.08.169.182l-.527 6.86a.205.205 0 0 1-.2.182h-.74a.207.207 0 0 1-.203-.182l-.531-6.86zM79.296 37.961c.077 0 .177-.095.17-.182l-.501-6.123c-.015-.185-.234-.25-.342-.103l-1.63 2.272c-.068.103-.123.144-.255.113l-4.931-1.347c-.19-.05-.31.147-.224.278l3.404 5.03c.024.036.09.062.142.062h.53a.19.19 0 0 0 .178-.253l-1.34-2.881c-.043-.085.05-.272.221-.228l2.287.586c.13.037.175.055.3-.094l.327-.382a.184.184 0 0 1 .323.075l.563 2.998c.024.124.09.18.218.18h.56zM84.153 33.735c-.266-.376-1.47-2.048-1.578-2.206-.096-.131-.33-.069-.336.096-.008.122-.418 5.097-.505 6.144-.002.084.068.192.188.192h1.686a.18.18 0 0 0 .182-.158c.102-.724.476-3.4.483-3.474.024-.197.007-.41-.12-.594zm-.428 1.039c0 .043-.235 1.972-.31 2.587-.01.1-.107.158-.189.158h-.358c-.094 0-.204-.093-.19-.207.092-.717.39-3.048.401-3.148.017-.135.2-.226.32-.106l.192.186c.144.145.15.38.134.53zM85.49 33.661c-.462.126-.636.42-.665.62l-.472 3.482c-.01.08.06.198.182.198h.219c.055 0 .136-.05.158-.11l.53-1.47c.025-.08.097-.123.179-.123l.41.003a.18.18 0 0 1 .16.268l-.592 1.17c-.06.118.033.26.168.26h.325c.069 0 .12-.041.148-.08l3.366-5c.108-.16-.04-.33-.202-.286L85.49 33.66zm.383 1.94c-.104 0-.156-.078-.123-.174l.243-.65c.074-.205.19-.52.523-.584.243-.05 1.014-.152 1.014-.152.094-.017.137.044.087.13l-.757 1.27a.362.362 0 0 1-.284.16h-.703zM79.682 30.328c-.106 0-.14-.067-.082-.147l.906-1.256c.055-.082.151-.082.211 0l.906 1.256c.055.08.019.147-.082.147h-1.86zM92.15 35.864h78.754v1.297H92.15v-1.297zM19.91 35.864h49.202v1.297H19.91v-1.297z"/><path fill="#2B2B2A" fill-rule="evenodd" d="M69.113 41.084l6.823 3.367v7.682l-6.823 3.364h22.978l-6.822-3.364v-7.681l6.822-3.368H69.113zM92.648 41.106l6.82 3.366v7.681l-6.82 3.365h23.816a41.63 41.63 0 0 0 5.524-.337c1.824-.235 3.58-.64 5.27-1.213a12.181 12.181 0 0 0 2.65-1.3c.838-.544 1.521-1.174 2.056-1.893.533-.715.81-1.494.829-2.331-.039-1.059-.5-2.033-1.377-2.928-.876-.89-1.948-1.66-3.216-2.309-1.261-.646-2.488-1.134-3.685-1.455a20.226 20.226 0 0 0-3.648-.55 55.48 55.48 0 0 0-3.731-.096H92.648zm14.319 11.522v-8.933h4.696c1.33-.01 2.591.123 3.782.4 1.195.275 2.172.745 2.929 1.416.756.667 1.15 1.588 1.176 2.76-.018 1.384-.365 2.387-1.056 3.009-.69.622-1.631 1.007-2.834 1.158-1.197.153-2.566.214-4.106.19h-4.587zM160.413 41.105h-22.026l4.415 2.669-7.716 8.364-5.479 3.38h17.446l-5.642-2.948.834-1.002h10.736l.836 1.002-6.483 2.947h23.48l-7.041-3.38-7.775-8.363 4.415-2.669zm-13.213 4.22l3.521 3.916h-6.822l3.301-3.917z" clip-rule="evenodd"/><path fill="#2B2B2A" d="M44.24 47.665l3.524-6.56h20.854l-6.821 3.367v7.681l6.821 3.364H46.033l6.425-3.364V42.83l-7.905 11.703h-.625L36.021 42.83v9.323l6.43 3.364H19.863l6.82-3.364v-7.681l-6.82-3.367h20.852l3.526 6.56z"/></svg>