<svg width="175" height="44" viewBox="0 0 175 44" fill="none" xmlns="http://www.w3.org/2000/svg">
<path fill-rule="evenodd" clip-rule="evenodd" d="M0.0315001 36.3646V36.0498H175V36.3646H0.0315001V36.3646ZM166.067 32.5279C164.461 30.9262 164.131 28.5427 165.061 26.616L168.159 29.706C168.493 30.0396 168.93 30.207 169.369 30.207C169.81 30.207 170.247 30.0396 170.583 29.706C171.252 29.0375 171.252 27.956 170.583 27.2875L167.486 24.1959C169.419 23.2669 171.808 23.595 173.411 25.1937C175.438 27.2197 175.438 30.5034 173.411 32.5279C171.383 34.5516 168.093 34.5516 166.067 32.5279V32.5279ZM167.486 21.3592L170.581 18.2682C171.25 17.6011 171.252 16.5182 170.581 15.8478C169.911 15.1815 168.826 15.1815 168.159 15.8478L165.061 18.9378C164.131 17.0115 164.461 14.6276 166.066 13.0279C168.093 11.0047 171.383 11.0047 173.411 13.0279C175.438 15.0509 175.438 18.3345 173.411 20.3584C171.808 21.9588 169.418 22.2869 167.486 21.3592V21.3592ZM173.384 8.93856C173.176 8.84319 173.02 8.69684 172.917 8.49931C172.814 8.30156 172.763 7.94828 172.763 7.44034V3.15284H171.869V2.58322H172.763V0.94697L173.522 0.46375V2.58322H174.729V3.15284H173.522V7.34365C173.522 7.64072 173.542 7.86384 173.58 8.01216C173.619 8.16025 173.693 8.27072 173.804 8.34291C173.913 8.41487 174.059 8.45119 174.24 8.45119C174.379 8.45119 174.576 8.42537 174.835 8.37287L174.931 8.97947C174.603 9.04706 174.338 9.08053 174.134 9.08053C173.843 9.08053 173.593 9.03328 173.384 8.93856V8.93856ZM166.669 7.81506C167.048 8.27903 167.572 8.5109 168.241 8.5109C169.174 8.5109 169.827 7.99334 170.197 6.95734L170.935 7.08137C170.683 7.81025 170.331 8.33328 169.878 8.64894C169.425 8.96394 168.864 9.12166 168.195 9.12166C167.289 9.12166 166.581 8.82306 166.067 8.22609C165.555 7.62847 165.299 6.81297 165.299 5.78091C165.299 4.74884 165.557 3.93378 166.072 3.33594C166.588 2.73875 167.3 2.44038 168.208 2.44038C170.063 2.44038 170.998 3.5864 171.013 5.87781H166.082C166.094 6.70469 166.29 7.35044 166.669 7.81506V7.81506ZM170.197 5.25722C170.081 3.78065 169.412 3.04237 168.19 3.04237C167.635 3.04237 167.168 3.23378 166.788 3.61659C166.409 3.99962 166.182 4.54628 166.105 5.25722H170.197ZM163.697 8.97947L161.251 5.48253L160.294 6.34178V8.97947H159.539V0.151594H160.294V5.55122L163.416 2.58322H164.475L161.809 4.97678L164.673 8.97947H163.697V8.97947ZM162.22 18.9407L159.121 15.8504C158.453 15.1815 157.367 15.1815 156.697 15.8504C156.028 16.5182 156.028 17.6011 156.697 18.2682L159.795 21.3577C157.861 22.2869 155.472 21.9588 153.871 20.3584C151.843 18.3345 151.843 15.0522 153.871 13.0285C155.898 11.0047 159.188 11.0047 161.217 13.0285C162.819 14.6276 163.148 17.0115 162.22 18.9407ZM157.559 3.23094C157.408 3.23094 157.271 3.25413 157.147 3.30159C157.022 3.34884 156.905 3.42519 156.795 3.52931C156.684 3.63322 156.589 3.75441 156.509 3.89244C156.43 4.03047 156.37 4.18272 156.329 4.35028C156.29 4.51631 156.253 4.76328 156.219 5.08922C156.185 5.41603 156.169 5.71047 156.169 5.97406V8.97947H155.417V2.58322H156.081V3.87866C156.397 2.92009 156.896 2.44038 157.577 2.44038C157.927 2.44038 158.305 2.56856 158.71 2.82603L158.42 3.4744C158.034 3.31253 157.746 3.23094 157.559 3.23094V3.23094ZM157.91 30.207C158.348 30.207 158.786 30.0396 159.121 29.706L162.218 26.6151C163.148 28.5427 162.819 30.9262 161.217 32.5279C159.188 34.5516 155.898 34.5509 153.868 32.5279C151.843 30.5027 151.843 27.2197 153.868 25.1937C155.472 23.595 157.861 23.2669 159.795 24.1959L156.697 27.2869C156.028 27.956 156.028 29.0375 156.697 29.706C157.032 30.0396 157.471 30.207 157.91 30.207V30.207ZM152.766 8.00581C152.072 8.7489 151.198 9.12166 150.146 9.12166C149.762 9.12166 149.419 9.05581 149.116 8.92194C148.815 8.78894 148.572 8.58834 148.391 8.32278C148.21 8.0559 148.119 7.7315 148.119 7.34847C148.119 7.07809 148.163 6.8379 148.246 6.6244C148.331 6.41178 148.459 6.22497 148.631 6.06375C148.803 5.90231 149.035 5.76516 149.326 5.65009C149.618 5.53459 150.143 5.42566 150.901 5.32197C151.745 5.20516 152.343 5.08091 152.692 4.94922C152.692 4.58478 152.682 4.30413 152.661 4.10813C152.642 3.91256 152.574 3.72837 152.458 3.55687C152.34 3.38537 152.161 3.25413 151.918 3.16159C151.677 3.0695 151.378 3.02356 151.021 3.02356C149.913 3.02356 149.247 3.4965 149.022 4.44347L148.258 4.32906C148.495 3.0695 149.413 2.44038 151.016 2.44038C151.519 2.44038 151.942 2.49791 152.285 2.61253C152.626 2.72716 152.882 2.88969 153.048 3.09903C153.217 3.30925 153.325 3.56934 153.376 3.87866C153.426 4.18819 153.452 4.61387 153.452 5.15637L153.429 6.95734C153.422 7.43838 153.445 7.8074 153.496 8.06553C153.546 8.32278 153.655 8.6275 153.82 8.97947H153.001C152.881 8.67891 152.803 8.3545 152.766 8.00581V8.00581ZM152.692 5.54203C152.265 5.70478 151.59 5.86556 150.666 6.02459C150.178 6.11034 149.822 6.19828 149.596 6.28797C149.37 6.37875 149.2 6.51066 149.085 6.68128C148.97 6.853 148.912 7.056 148.912 7.28875C148.912 7.63722 149.041 7.91941 149.301 8.13225C149.56 8.344 149.894 8.45119 150.302 8.45119C150.542 8.45119 150.778 8.41903 151.012 8.35647C151.244 8.29412 151.473 8.20072 151.697 8.07647C151.922 7.95287 152.109 7.80281 152.259 7.6265C152.41 7.44997 152.519 7.22422 152.588 6.94837C152.658 6.67253 152.692 6.34178 152.692 5.95613V5.54203ZM145.827 5.01878C145.827 4.43319 145.78 4.02347 145.684 3.78875C145.589 3.55469 145.44 3.37837 145.238 3.25959C145.035 3.14234 144.794 3.08394 144.515 3.08394C144.122 3.08394 143.792 3.19331 143.527 3.41206C143.261 3.63147 143.074 3.93094 142.964 4.31309C142.857 4.69394 142.801 5.20056 142.801 5.831V8.97947H142.051V4.94047C142.051 4.49641 142.013 4.14859 141.939 3.89725C141.863 3.64525 141.727 3.45122 141.529 3.31341C141.331 3.17537 141.08 3.10669 140.775 3.10669C140.238 3.10669 139.809 3.32762 139.487 3.77037C139.165 4.21356 139.003 4.81272 139.003 5.57047V8.97947H138.252V2.58322H139.003V3.50613C139.537 2.79584 140.191 2.44038 140.965 2.44038C141.781 2.44038 142.348 2.79584 142.668 3.50613C143.24 2.79584 143.908 2.44038 144.676 2.44038C145.944 2.44038 146.577 3.16903 146.577 4.62722V8.97947H145.827V5.01878V5.01878ZM140.021 12.4324C140.686 12.6477 141.198 12.9531 141.558 13.3477C141.953 13.743 142.267 14.1549 142.502 14.5856C142.735 15.0159 142.906 15.4833 143.014 15.9858C143.049 16.2367 143.076 16.4791 143.094 16.7116C143.112 16.9457 143.122 17.1695 143.122 17.3843C143.122 17.4928 143.122 17.6094 143.122 17.7341C143.122 17.8605 143.14 17.9764 143.176 18.0843C143.176 18.1919 143.176 18.2908 143.176 18.3807C143.176 18.4706 143.176 18.5515 143.176 18.6222C143.176 18.6585 143.176 18.6852 143.176 18.7031C143.176 18.7219 143.176 18.7486 143.176 18.7841C143.176 18.8199 143.176 18.8562 143.176 18.8919V27.7729C143.176 28.383 143.211 28.9122 143.284 29.3608C143.355 29.8095 143.463 30.2122 143.607 30.5707C143.75 30.9304 143.984 31.1992 144.308 31.3784C144.632 31.5591 145.063 31.6667 145.602 31.7017V33.2087H136.812V31.6483C137.315 31.6116 137.737 31.4952 138.079 31.2974C138.42 31.1012 138.663 30.8402 138.807 30.5178C138.951 30.1947 139.058 29.8095 139.13 29.3608C139.203 28.9122 139.239 28.4005 139.239 27.8263V18.6764C139.239 18.6408 139.239 18.5776 139.239 18.4877C139.239 18.3984 139.239 18.3183 139.239 18.2455C139.239 18.2103 139.239 18.174 139.239 18.1377C139.239 18.1027 139.239 18.0493 139.239 17.9764C139.203 17.9408 139.185 17.8964 139.185 17.8421C139.185 17.7879 139.185 17.7437 139.185 17.7074C139.148 17.313 139.077 16.9273 138.969 16.5504C138.861 16.1737 138.7 15.8058 138.483 15.4462C138.268 15.0889 137.962 14.8197 137.567 14.6398C137.171 14.46 136.668 14.3701 136.057 14.3701C135.949 14.3701 135.76 14.397 135.49 14.4504C135.221 14.5047 134.888 14.5677 134.493 14.6398C134.061 14.747 133.63 14.9358 133.199 15.2049C132.767 15.4737 132.317 15.8237 131.85 16.254C131.707 16.3618 131.571 16.4791 131.446 16.604C131.32 16.7302 131.204 16.8647 131.095 17.0074C130.952 17.1515 130.826 17.3033 130.718 17.4652C130.61 17.6264 130.502 17.7979 130.394 17.9764V27.7729C130.394 28.3472 130.43 28.8487 130.502 29.279C130.574 29.7102 130.681 30.1059 130.826 30.4636C131.005 30.8225 131.257 31.1012 131.581 31.2974C131.904 31.4952 132.317 31.6295 132.821 31.7017V33.2087H124.031V31.6483C124.534 31.6116 124.957 31.4952 125.298 31.2974C125.639 31.1012 125.882 30.8402 126.026 30.5178C126.169 30.1947 126.278 29.8095 126.349 29.3608C126.422 28.9122 126.458 28.4005 126.458 27.8263V16.8464C126.458 16.7748 126.458 16.7212 126.458 16.6849C126.422 16.6499 126.403 16.613 126.403 16.5771C126.403 16.5417 126.403 16.5053 126.403 16.4695C126.403 16.4336 126.403 16.3982 126.403 16.3618C126.403 16.3268 126.403 16.2726 126.403 16.2004C126.367 16.1654 126.349 16.1195 126.349 16.0659C126.349 16.0125 126.349 15.967 126.349 15.9316C126.313 15.8594 126.278 15.7791 126.241 15.6892C126.206 15.6002 126.169 15.5004 126.134 15.3928C126.061 15.3215 125.99 15.2403 125.919 15.1511C125.846 15.0614 125.775 14.9809 125.702 14.9089C125.559 14.7297 125.352 14.5768 125.083 14.4504C124.813 14.3255 124.48 14.2091 124.084 14.1011V12.4865H130.394V15.1239H130.556C130.736 14.9446 130.934 14.7558 131.149 14.5589C131.365 14.3614 131.581 14.1916 131.796 14.047C132.013 13.8685 132.236 13.7154 132.47 13.5898C132.704 13.4643 132.947 13.3477 133.199 13.2405C133.594 13.0252 133.99 12.8452 134.386 12.7017C134.78 12.5584 135.175 12.4515 135.571 12.3786C135.967 12.3073 136.335 12.2443 136.677 12.1905C137.018 12.1365 137.333 12.1098 137.621 12.1098C138.555 12.1098 139.355 12.2174 140.021 12.4324V12.4324ZM132.142 5.00916C132.142 4.31987 132.009 3.82922 131.742 3.53566C131.475 3.24384 131.112 3.09772 130.655 3.09772C130.41 3.09772 130.18 3.13906 129.966 3.22197C129.754 3.30422 129.556 3.42803 129.376 3.591C129.194 3.75572 129.05 3.94472 128.945 4.15866C128.839 4.37369 128.765 4.60753 128.724 4.86194C128.682 5.11678 128.662 5.56544 128.662 6.20834V8.97947H127.907V2.58322H128.662V3.52931C129.236 2.80328 129.924 2.44038 130.725 2.44038C132.176 2.44038 132.902 3.22962 132.902 4.80659V8.97947H132.142V5.00916V5.00916ZM123.482 9.12166C123.043 9.12166 122.649 9.04553 122.303 8.89197C121.956 8.73884 121.654 8.51091 121.398 8.20684C121.142 7.90431 120.949 7.55344 120.821 7.15487C120.691 6.75697 120.627 6.31291 120.627 5.82225C120.627 5.31366 120.683 4.85997 120.794 4.46009C120.907 4.06066 121.076 3.71416 121.301 3.42103C121.527 3.12944 121.811 2.89253 122.155 2.71206C122.499 2.53072 122.943 2.44038 123.487 2.44038C124.358 2.44038 125.053 2.72256 125.569 3.28781C126.087 3.85328 126.345 4.68934 126.345 5.79469C126.345 6.8495 126.096 7.66697 125.597 8.24884C125.099 8.83072 124.394 9.12166 123.482 9.12166ZM125.314 4.31725C125.145 3.90469 124.91 3.59319 124.609 3.38056C124.309 3.16706 123.942 3.06075 123.509 3.06075C122.843 3.06075 122.328 3.30509 121.964 3.79378C121.6 4.28225 121.419 4.93828 121.419 5.76319C121.419 6.57694 121.604 7.23997 121.974 7.74987C122.343 8.26066 122.858 8.51572 123.518 8.51572C123.824 8.51572 124.099 8.4595 124.342 8.34772C124.585 8.23572 124.799 8.06356 124.985 7.83037C125.17 7.59762 125.314 7.30931 125.415 6.96478C125.517 6.61959 125.567 6.23 125.567 5.79469C125.567 5.22222 125.483 4.72981 125.314 4.31725V4.31725ZM121.011 20.6675C121.046 20.9197 121.082 21.1704 121.119 21.4213C121.154 21.6727 121.181 21.9247 121.2 22.1749C121.217 22.4267 121.227 22.6588 121.227 22.8745C121.227 24.3106 121.055 25.5927 120.714 26.7223C120.373 27.853 119.842 28.8308 119.124 29.6566C118.441 30.4465 117.712 31.1288 116.939 31.7017C116.166 32.2759 115.366 32.7062 114.539 32.993C114.216 33.101 113.9 33.1907 113.596 33.2622C113.29 33.3336 112.992 33.3878 112.706 33.4241C112.382 33.4954 112.086 33.5392 111.816 33.5587C111.547 33.5764 111.267 33.5856 110.98 33.5856C110.728 33.5856 110.449 33.5764 110.145 33.5587C109.838 33.5392 109.542 33.4954 109.254 33.4241C108.931 33.3878 108.616 33.3336 108.311 33.2622C108.005 33.1907 107.708 33.101 107.421 32.993C106.558 32.7062 105.749 32.2759 104.994 31.7017C104.239 31.1288 103.502 30.4465 102.782 29.6566C102.099 28.8308 101.587 27.853 101.246 26.7223C100.904 25.5927 100.734 24.3106 100.734 22.8745C100.734 22.6588 100.734 22.4267 100.734 22.1749C100.734 21.9247 100.751 21.6727 100.787 21.4213C100.823 21.1704 100.868 20.9197 100.922 20.6675C100.976 20.4168 101.038 20.1655 101.111 19.9137C101.362 18.9455 101.739 18.004 102.244 17.0885C102.746 16.1737 103.393 15.3215 104.186 14.5322C104.975 13.7073 105.938 13.097 107.07 12.7017C108.203 12.3073 109.505 12.1098 110.98 12.1098V12.0555C112.454 12.0925 113.748 12.3073 114.863 12.7017C115.977 13.097 116.93 13.7073 117.721 14.5322C118.512 15.3215 119.168 16.1737 119.69 17.0885C120.211 18.004 120.598 18.9455 120.849 19.9137C120.921 20.1655 120.975 20.4168 121.011 20.6675V20.6675ZM116.697 23.2778C116.697 23.1529 116.697 23.0363 116.697 22.9287C116.697 22.8207 116.697 22.6951 116.697 22.5518C116.697 22.4092 116.697 22.2648 116.697 22.1215C116.66 21.9772 116.643 21.8249 116.643 21.6632C116.643 21.5018 116.643 21.3316 116.643 21.152C116.643 20.8292 116.624 20.489 116.589 20.13C116.553 19.7711 116.498 19.4121 116.427 19.0533C116.319 18.4076 116.139 17.7804 115.888 17.1695C115.636 16.5594 115.312 15.9858 114.917 15.4462C114.521 14.9089 114 14.4963 113.353 14.2091C112.706 13.9221 111.914 13.778 110.98 13.778V13.7246C110.045 13.7609 109.245 13.9221 108.58 14.2091C107.915 14.4963 107.384 14.9089 106.99 15.4462C106.594 16.0208 106.27 16.613 106.019 17.2228C105.767 17.8338 105.588 18.461 105.48 19.1067C105.444 19.4663 105.398 19.8244 105.345 20.1834C105.291 20.5424 105.264 20.8834 105.264 21.2061C105.264 21.5294 105.264 21.8339 105.264 22.1215C105.264 22.4092 105.264 22.678 105.264 22.9287C105.264 23.1796 105.264 23.4316 105.264 23.6812C105.264 23.9332 105.264 24.2021 105.264 24.4891C105.264 24.7408 105.282 25.0003 105.318 25.27C105.353 25.5388 105.389 25.8177 105.426 26.1039C105.497 26.8572 105.659 27.5758 105.911 28.2572C106.162 28.9389 106.468 29.5851 106.827 30.1947C107.223 30.8048 107.762 31.2624 108.445 31.5669C109.128 31.8725 109.973 32.0241 110.98 32.0241C111.951 32.0241 112.787 31.8725 113.487 31.5669C114.189 31.2624 114.719 30.8048 115.078 30.1947C115.474 29.5851 115.788 28.9389 116.023 28.2572C116.256 27.5758 116.427 26.8572 116.535 26.1039C116.571 25.8177 116.597 25.5388 116.616 25.27C116.634 25.0003 116.643 24.7408 116.643 24.4891C116.643 24.3464 116.643 24.2117 116.643 24.0855C116.643 23.9599 116.66 23.8256 116.697 23.6812C116.697 23.5386 116.697 23.4041 116.697 23.2778V23.2778ZM118.316 2.58322H119.071V8.97947H118.316V2.58322ZM118.316 0.151594H119.071V1.27772H118.316V0.151594V0.151594ZM115.649 5.00916C115.649 4.31987 115.516 3.82922 115.249 3.53566C114.982 3.24384 114.62 3.09772 114.162 3.09772C113.916 3.09772 113.688 3.13906 113.473 3.22197C113.261 3.30422 113.063 3.42803 112.882 3.591C112.701 3.75572 112.557 3.94472 112.452 4.15866C112.346 4.37369 112.272 4.60753 112.231 4.86194C112.189 5.11678 112.169 5.56544 112.169 6.20834V8.97947H111.413V0.151594H112.169V3.52931C112.743 2.80328 113.43 2.44038 114.232 2.44038C115.683 2.44038 116.409 3.22962 116.409 4.80659V8.97947H115.649V5.00916V5.00916ZM106.489 5.01375C106.797 5.13056 107.191 5.24366 107.67 5.35412C108.579 5.56216 109.171 5.81525 109.447 6.1145C109.724 6.41309 109.861 6.76462 109.861 7.16931C109.861 7.57641 109.763 7.92334 109.565 8.20969C109.367 8.49669 109.079 8.7209 108.699 8.88562C108.32 9.04969 107.873 9.13062 107.362 9.13062C107.033 9.13062 106.734 9.09956 106.463 9.03744C106.193 8.97487 105.948 8.87666 105.727 8.74475C105.506 8.61306 105.312 8.43544 105.146 8.21231C104.98 7.98875 104.847 7.66697 104.746 7.24697L105.509 7.12316C105.624 7.60987 105.845 7.96403 106.174 8.18431C106.502 8.40459 106.907 8.51572 107.389 8.51572C107.72 8.51572 108.016 8.45994 108.275 8.35034C108.534 8.23987 108.732 8.0944 108.867 7.91547C109.002 7.73609 109.07 7.52216 109.07 7.27409C109.07 7.04856 108.993 6.853 108.84 6.69025C108.686 6.52815 108.481 6.4015 108.225 6.30941C107.968 6.21753 107.605 6.12281 107.136 6.02459C105.675 5.71856 104.944 5.12137 104.944 4.23194C104.944 3.67784 105.159 3.24122 105.591 2.92053C106.022 2.60028 106.564 2.44038 107.214 2.44038C108.51 2.44038 109.301 3.00431 109.589 4.13131L108.853 4.24178C108.715 3.79159 108.529 3.48141 108.294 3.31056C108.059 3.14103 107.703 3.05594 107.227 3.05594C106.927 3.05594 106.657 3.10122 106.417 3.19156C106.178 3.28234 105.999 3.40244 105.882 3.55272C105.763 3.70322 105.704 3.88128 105.704 4.09019C105.704 4.298 105.758 4.47584 105.865 4.62066C105.973 4.76612 106.181 4.89694 106.489 5.01375V5.01375ZM102.619 8.00581C101.925 8.7489 101.051 9.12166 99.9989 9.12166C99.6157 9.12166 99.272 9.05581 98.9695 8.92194C98.6676 8.78894 98.4257 8.58834 98.2448 8.32278C98.0634 8.0559 97.9729 7.7315 97.9729 7.34847C97.9729 7.07809 98.0155 6.8379 98.0997 6.6244C98.1835 6.41178 98.3119 6.22497 98.4841 6.06375C98.6558 5.90231 98.8877 5.76516 99.1793 5.65009C99.4711 5.53459 99.9961 5.42566 100.754 5.32197C101.598 5.20516 102.196 5.08091 102.545 4.94922C102.545 4.58478 102.535 4.30413 102.515 4.10813C102.495 3.91256 102.427 3.72837 102.31 3.55687C102.193 3.38537 102.014 3.25413 101.772 3.16159C101.529 3.0695 101.23 3.02356 100.874 3.02356C99.7655 3.02356 99.0992 3.4965 98.8748 4.44347L98.1109 4.32906C98.3469 3.0695 99.2663 2.44038 100.869 2.44038C101.372 2.44038 101.795 2.49791 102.137 2.61253C102.48 2.72716 102.735 2.88969 102.902 3.09903C103.069 3.30925 103.178 3.56934 103.228 3.87866C103.28 4.18819 103.305 4.61387 103.305 5.15637L103.283 6.95734C103.276 7.43838 103.298 7.8074 103.348 8.06553C103.399 8.32278 103.508 8.6275 103.674 8.97947H102.854C102.734 8.67891 102.655 8.3545 102.619 8.00581V8.00581ZM102.545 5.54203C102.118 5.70478 101.442 5.86556 100.519 6.02459C100.032 6.11034 99.6734 6.19828 99.4486 6.28797C99.2235 6.37875 99.0524 6.51066 98.9371 6.68128C98.8227 6.853 98.7647 7.056 98.7647 7.28875C98.7647 7.63722 98.8945 7.91941 99.1539 8.13225C99.4136 8.344 99.7467 8.45119 100.156 8.45119C100.395 8.45119 100.631 8.41903 100.865 8.35647C101.098 8.29412 101.327 8.20072 101.551 8.07647C101.775 7.95287 101.962 7.80281 102.112 7.6265C102.263 7.44997 102.372 7.22422 102.442 6.94837C102.51 6.67253 102.545 6.34178 102.545 5.95613V5.54203V5.54203ZM98.4156 31.2172C98.3428 31.2893 98.2706 31.3607 98.2002 31.4326C98.1273 31.5048 98.065 31.5669 98.0107 31.6207C97.9567 31.675 97.8932 31.738 97.8219 31.8093C97.3175 32.2759 96.8249 32.6357 96.3388 32.8862C95.8538 33.1373 95.377 33.28 94.9102 33.3165C94.442 33.3878 94.0467 33.4508 93.7236 33.5046C93.3997 33.5587 93.1479 33.5856 92.9687 33.5856C92.1775 33.5856 91.4858 33.4954 90.8919 33.3165C90.2987 33.1373 89.8045 32.8503 89.4097 32.4551C89.0131 32.0607 88.7167 31.5048 88.5198 30.786C88.3205 30.0689 88.2225 29.2086 88.2225 28.2023V14.1549H85.8495V12.4865H88.2225V7.80412L92.1591 5.65053V12.4865H96.6354V14.1549H92.1591V27.9882C92.1591 28.0954 92.1591 28.1942 92.1591 28.2842C92.1591 28.3738 92.1591 28.4723 92.1591 28.5799C92.1591 28.6875 92.1679 28.7871 92.1863 28.8754C92.2042 28.9656 92.2309 29.0465 92.2674 29.1185C92.3022 29.3696 92.3751 29.6113 92.4836 29.8445C92.5912 30.0788 92.734 30.2844 92.9147 30.4636C93.0936 30.6792 93.3367 30.8315 93.6427 30.9207C93.9479 31.0111 94.3165 31.0557 94.7476 31.0557C95.0357 31.0557 95.3048 31.029 95.5574 30.9741C95.8077 30.9207 96.0603 30.8402 96.3121 30.7326C96.5632 30.6254 96.8054 30.4992 97.0401 30.3566C97.2737 30.2122 97.4988 30.0689 97.7143 29.9257L98.6309 30.9481C98.5582 31.0557 98.4869 31.1458 98.4156 31.2172V31.2172ZM96.9463 0.694531C96.7308 0.694531 96.5523 0.726031 96.4097 0.790563C96.2668 0.854438 96.1557 0.966218 96.0754 1.1235C95.9958 1.28187 95.956 1.58244 95.956 2.0265V2.58322H97.2963V3.15284H95.956V8.97947H95.2059V3.15284H94.1835V2.58322H95.2059V1.91669C95.2059 1.47197 95.2499 1.12219 95.3389 0.86603C95.4277 0.610749 95.597 0.402062 95.8477 0.241499C96.0982 0.0802808 96.4055 0 96.7713 0C96.9861 0 97.2941 0.0507498 97.697 0.151594L97.5728 0.758188C97.284 0.715094 97.0747 0.694531 96.9463 0.694531V0.694531ZM82.9384 33.1551C82.6866 33.2622 82.3893 33.3611 82.0481 33.4508C81.7058 33.5392 81.338 33.5856 80.9427 33.5856C80.4753 33.5856 80.0446 33.5125 79.6484 33.3699C79.2525 33.2257 78.9114 33.0297 78.624 32.7777C78.3355 32.4909 78.0927 32.177 77.8964 31.8362C77.6974 31.4952 77.5458 31.1288 77.4382 30.7326L77.3303 30.6792C77.2568 30.786 77.1855 30.8768 77.1142 30.9481C77.0413 31.0203 76.97 31.0916 76.8978 31.1629C76.8261 31.2355 76.7539 31.2974 76.6826 31.3517C76.6104 31.4053 76.5384 31.4683 76.4669 31.5402C75.9275 32.0064 75.3963 32.3921 74.8755 32.6974C74.3547 33.0022 73.8421 33.173 73.339 33.2087C72.8711 33.3165 72.4303 33.4057 72.018 33.4775C71.6041 33.5497 71.2541 33.5856 70.966 33.5856C69.8515 33.5856 68.8898 33.4508 68.0809 33.1811C67.2718 32.912 66.6157 32.4909 66.1128 31.9165C65.6447 31.3064 65.2853 30.6792 65.0339 30.0333C64.7819 29.3875 64.6564 28.7061 64.6564 27.9882C64.6564 26.5171 64.9707 25.2967 65.6001 24.3276C66.2288 23.359 67.1729 22.6417 68.4309 22.1749C69.6896 21.6727 71.0106 21.278 72.3947 20.9906C73.7789 20.7042 75.227 20.5061 76.7368 20.3989H76.7902C76.8261 20.3989 76.8624 20.3989 76.8978 20.3989C76.8978 19.5379 76.8445 18.7298 76.7368 17.9764C76.6288 17.2228 76.4848 16.5053 76.3048 15.8237C76.0896 15.1423 75.7024 14.6311 75.1461 14.2901C74.5881 13.9495 73.8421 13.778 72.9074 13.778C72.5478 13.778 72.2245 13.8143 71.937 13.8865C71.6487 13.9584 71.4155 14.0833 71.2357 14.2616C71.0552 14.4067 70.8938 14.5589 70.7505 14.7203C70.6062 14.8816 70.4985 15.0522 70.4272 15.2316C70.3909 15.3398 70.3456 15.4387 70.292 15.528C70.238 15.6179 70.2109 15.6988 70.2109 15.7701C70.1746 15.8423 70.1472 15.9136 70.1299 15.9858C70.1116 16.0571 70.1032 16.1291 70.1032 16.2004C70.0669 16.2367 70.0403 16.2813 70.0223 16.3356C70.0044 16.3885 69.995 16.4524 69.995 16.5228C69.9591 16.5957 69.9318 16.6672 69.9145 16.7385C69.8961 16.8114 69.8694 16.8818 69.8331 16.954C69.7609 17.0616 69.6723 17.1695 69.5638 17.2764C69.4562 17.3843 69.3477 17.474 69.2401 17.5455C69.0966 17.654 68.9437 17.7262 68.7816 17.761C68.6201 17.7979 68.4309 17.8146 68.2152 17.8146C68.1798 17.8146 68.1435 17.8146 68.1076 17.8146C68.0713 17.8146 68.0446 17.8146 68.0273 17.8146C68.0081 17.8146 67.9822 17.8146 67.9459 17.8146C67.9101 17.8146 67.8834 17.8146 67.8646 17.8146C67.8471 17.8146 67.8379 17.7979 67.8379 17.761C67.8016 17.761 67.7755 17.761 67.7569 17.761C67.7386 17.761 67.7117 17.761 67.676 17.761C67.5318 17.7262 67.3877 17.6724 67.2451 17.5997C67.1011 17.5278 66.9753 17.4385 66.8677 17.3313C66.7233 17.2228 66.6247 17.0706 66.5704 16.8731C66.5168 16.6766 66.4902 16.4524 66.4902 16.2004C66.4902 16.1654 66.4902 16.1291 66.4902 16.0926C66.4902 16.0571 66.4902 16.0304 66.4902 16.0125C66.4902 15.9937 66.4902 15.967 66.4902 15.9316C66.5615 15.4291 66.768 14.9625 67.1108 14.5322C67.4518 14.1011 67.9459 13.6896 68.5934 13.2943C69.2044 12.8995 69.9145 12.6037 70.7236 12.4053C71.5321 12.2093 72.422 12.1098 73.3926 12.1098C74.6511 12.1098 75.7293 12.2539 76.6288 12.5407C77.5265 12.8277 78.2099 13.2593 78.6774 13.8322C79.1812 14.4067 79.5944 15.0076 79.9188 15.6352C80.2421 16.2636 80.4753 16.9181 80.6197 17.5997C80.691 17.9222 80.7356 18.2455 80.7546 18.5688C80.7712 18.8919 80.7815 19.2143 80.7815 19.5379C80.7815 19.6809 80.7815 19.8336 80.7815 19.9948C80.7815 20.1558 80.7986 20.309 80.8351 20.4518C80.8351 20.5603 80.8351 20.6859 80.8351 20.8292C80.8351 20.9727 80.8351 21.0982 80.8351 21.2061V21.2597V21.3137V28.0411C80.8351 28.7595 80.8894 29.3429 80.997 29.7911C81.1046 30.2398 81.2667 30.5707 81.4822 30.786C81.6974 31.038 81.9221 31.2172 82.1562 31.3248C82.3893 31.4326 82.6324 31.4683 82.8842 31.4326C82.92 31.4326 82.9467 31.4326 82.9651 31.4326C82.983 31.4326 83.0104 31.4326 83.0456 31.4326C83.081 31.4326 83.1176 31.4326 83.1539 31.4326C83.1889 31.4326 83.2252 31.4147 83.2624 31.3784C83.2974 31.3784 83.3337 31.3784 83.3693 31.3784C83.405 31.3784 83.4413 31.3784 83.4778 31.3784C83.5492 31.3434 83.6034 31.3248 83.6397 31.3248C83.6747 31.3248 83.711 31.316 83.7476 31.2974C83.7823 31.2797 83.8189 31.253 83.8545 31.2172C83.9265 31.1813 83.9807 31.1629 84.0171 31.1629V31.1095L84.394 31.7017C84.1785 32.0241 83.9541 32.3022 83.7202 32.5356C83.4859 32.7694 83.2252 32.9759 82.9384 33.1551V33.1551ZM76.8978 22.1215C75.4602 22.2285 74.2374 22.4359 73.2305 22.7397C72.2245 23.0451 71.4155 23.4493 70.8039 23.9512C70.2288 24.4891 69.7802 25.0464 69.4562 25.6193C69.1322 26.1944 68.934 26.7859 68.8632 27.3954C68.8632 27.431 68.8632 27.4682 68.8632 27.5032C68.8632 27.5395 68.8632 27.5669 68.8632 27.5842C68.8632 27.6025 68.8632 27.6294 68.8632 27.6651C68.8632 27.7007 68.8632 27.7371 68.8632 27.7729C68.8632 27.8084 68.8632 27.8447 68.8632 27.8806C68.8632 28.4185 68.9437 28.9026 69.1055 29.3333C69.2674 29.7636 69.5284 30.1409 69.8873 30.4636C70.2467 30.786 70.6508 31.029 71.1012 31.1896C71.5498 31.3517 72.0626 31.4326 72.6377 31.4326C73.5724 31.4326 74.3367 31.253 74.9298 30.8941C75.5234 30.5357 75.9454 29.9792 76.1972 29.2257C76.4133 28.5086 76.5831 27.7187 76.7093 26.8572C76.8355 25.996 76.8978 25.0635 76.8978 24.0588V22.1215V22.1215ZM62.6609 15.9316C62.5174 16.0751 62.3376 16.1914 62.1213 16.2813C61.906 16.3715 61.6543 16.4152 61.3666 16.4152C61.1868 16.4152 61.0166 16.3982 60.8541 16.3618C60.6926 16.3268 60.5577 16.2903 60.4496 16.254C60.342 16.1827 60.2424 16.1195 60.1532 16.0659C60.0635 16.0125 59.9817 15.967 59.911 15.9316C59.8747 15.8957 59.8384 15.8594 59.8025 15.8237C59.7662 15.7881 59.7303 15.7524 59.6949 15.7161C59.6584 15.6802 59.6317 15.6535 59.6144 15.6352C59.5954 15.6179 59.5871 15.591 59.5871 15.5538C59.5151 15.4833 59.4423 15.4024 59.3709 15.3125C59.2996 15.2226 59.2274 15.1594 59.1561 15.1239C59.0828 15.0522 58.994 15.0076 58.8858 14.9892C58.7781 14.9712 58.6517 14.9625 58.5091 14.9625C58.4362 14.9625 58.3544 14.9712 58.266 14.9892C58.1761 15.0076 58.0945 15.0347 58.023 15.0701C57.9876 15.1064 57.9421 15.1333 57.8887 15.1511C57.8344 15.169 57.7889 15.178 57.7535 15.178C57.6813 15.2136 57.6273 15.2403 57.5914 15.2582C57.5551 15.2775 57.5192 15.3042 57.4838 15.3398C57.1607 15.5538 56.8641 15.8594 56.5943 16.254C56.3246 16.6499 56.0632 17.1338 55.8121 17.7074C55.5603 18.282 55.3803 18.9179 55.2727 19.6179C55.165 20.3173 55.1112 21.0982 55.1112 21.9597V27.7729C55.1112 28.3472 55.1462 28.8584 55.2184 29.3066C55.291 29.7552 55.3989 30.1588 55.5428 30.5178C55.6859 30.8768 55.9197 31.1555 56.2437 31.3517C56.5677 31.5494 56.9984 31.6667 57.538 31.7017V33.2087H48.7471V31.6483C49.25 31.6116 49.6727 31.4952 50.0146 31.2974C50.3556 31.1012 50.5984 30.8402 50.7426 30.5178C50.8861 30.1947 50.9937 29.8095 51.0659 29.3608C51.1378 28.9122 51.1742 28.4005 51.1742 27.8263V16.8464C51.1742 16.4878 51.1201 16.1468 51.0125 15.8237C50.9044 15.5004 50.7612 15.2316 50.5805 15.0159C50.4009 14.8013 50.1581 14.6219 49.8533 14.4786C49.5464 14.3345 49.1958 14.2091 48.8012 14.1011V12.4865H55.1112V15.8237H55.3269C55.6146 15.3578 55.9377 14.9089 56.2971 14.4786C56.656 14.047 57.0522 13.6524 57.4838 13.2943C57.8791 12.8995 58.3373 12.6037 58.8591 12.4053C59.3797 12.2093 59.9646 12.1098 60.6119 12.1098C61.0435 12.1098 61.4292 12.1728 61.7715 12.2977C62.1125 12.4241 62.391 12.5941 62.6073 12.8098C62.8226 13.0252 62.9849 13.2764 63.0919 13.5625C63.2004 13.8506 63.2546 14.1549 63.2546 14.4786C63.2546 14.5136 63.2546 14.541 63.2546 14.5589C63.2546 14.5768 63.2546 14.6044 63.2546 14.6398C63.2546 14.6757 63.2546 14.712 63.2546 14.747C63.2179 14.9625 63.1557 15.169 63.065 15.3659C62.9753 15.5634 62.8405 15.7524 62.6609 15.9316V15.9316ZM36.9097 31.6483C37.4126 31.6116 37.8267 31.4952 38.1504 31.2974C38.4737 31.1012 38.7065 30.8225 38.8511 30.4636C38.9946 30.1059 39.1022 29.7102 39.1751 29.279C39.2464 28.8487 39.2827 28.3642 39.2827 27.8263V18.1013C39.2827 17.5278 39.2464 17.0244 39.1751 16.5946C39.1022 16.1641 38.9946 15.8051 38.8511 15.5175C38.7065 15.2316 38.4737 14.9796 38.1504 14.765C37.8267 14.5486 37.4126 14.3701 36.9097 14.2262V12.6114H43.2197V27.7729C43.2197 28.383 43.2547 28.9122 43.3278 29.3608C43.3991 29.8095 43.5067 30.2122 43.6509 30.5707C43.8298 30.9304 44.0832 31.1992 44.4065 31.3784C44.7296 31.5591 45.1428 31.6667 45.6466 31.7017V33.2087H36.9097V31.6483V31.6483ZM42.4651 7.6965C42.2124 7.94828 41.9331 8.12678 41.6277 8.23441C41.323 8.34291 41.0086 8.39628 40.6855 8.39628C40.3244 8.39628 40.0013 8.34291 39.7143 8.23441C39.4262 8.12678 39.156 7.94828 38.9053 7.6965C38.6527 7.48169 38.4641 7.23953 38.3392 6.97025C38.2123 6.70075 38.1312 6.42337 38.0962 6.13572C38.0599 6.10006 38.0419 6.07338 38.0419 6.05478C38.0419 6.03772 38.0419 6.01037 38.0419 5.9745C38.0419 5.93884 38.0419 5.90231 38.0419 5.866C38.0419 5.831 38.0419 5.79469 38.0419 5.75969V5.70478C38.0419 5.41866 38.1045 5.12225 38.2316 4.81731C38.3563 4.51216 38.5451 4.23478 38.7971 3.98234C39.048 3.69622 39.3363 3.49016 39.6596 3.36328C39.9842 3.23837 40.3244 3.17538 40.6855 3.17538C41.0086 3.17538 41.323 3.23837 41.6277 3.36328C41.9331 3.49016 42.2124 3.65991 42.4651 3.87538C42.7518 4.09019 42.9583 4.35903 43.0854 4.68234C43.2101 5.00544 43.2736 5.36441 43.2736 5.75969C43.2736 6.15431 43.2101 6.51262 43.0854 6.83594C42.9583 7.15903 42.7518 7.44669 42.4651 7.6965V7.6965ZM25.6117 31.6483C26.115 31.6116 26.5377 31.4952 26.88 31.2974C27.2213 31.1012 27.4634 30.8402 27.6073 30.5178C27.7508 30.1947 27.8587 29.8095 27.9313 29.3608C28.0035 28.9122 28.0392 28.4005 28.0392 27.8263V18.6764C28.0392 18.0663 27.9849 17.5015 27.8771 16.9807C27.7694 16.4612 27.6073 16.0033 27.3921 15.608C27.1766 15.2136 26.8527 14.9089 26.4211 14.6934C25.9899 14.4786 25.4691 14.3701 24.8577 14.3701C24.6422 14.3701 24.3992 14.3887 24.129 14.4237C23.8599 14.46 23.5627 14.5136 23.2396 14.5856C23.0954 14.6219 22.9335 14.6665 22.7542 14.7203C22.5737 14.7737 22.4127 14.8547 22.2685 14.9625C22.0887 15.0347 21.9185 15.1239 21.7556 15.2316C21.5946 15.3398 21.4237 15.4462 21.2439 15.5538C21.0639 15.6988 20.8841 15.8594 20.7051 16.0392C20.5247 16.219 20.3448 16.3982 20.1657 16.5771C20.0215 16.7571 19.8684 16.954 19.7074 17.1695C19.5453 17.3843 19.3738 17.6361 19.1947 17.9222V27.7729C19.1947 28.383 19.2297 28.9122 19.3029 29.3608C19.3738 29.8095 19.4823 30.2122 19.6256 30.5707C19.7695 30.9304 20.0038 31.1992 20.3276 31.3784C20.6509 31.5591 21.0825 31.6667 21.6212 31.7017V33.2087H12.8308V31.6483C13.3346 31.6116 13.7561 31.4952 14.0984 31.2974C14.4395 31.1012 14.6825 30.8402 14.8264 30.5178C14.9695 30.1947 15.0771 29.8095 15.15 29.3608C15.2217 28.9122 15.2582 28.4005 15.2582 27.8263V18.6764C15.2582 18.6408 15.2582 18.5776 15.2582 18.4877C15.2582 18.3984 15.2582 18.3183 15.2582 18.2455C15.2582 18.2103 15.2582 18.174 15.2582 18.1377C15.2582 18.1027 15.2582 18.0493 15.2582 17.9764C15.2217 17.9408 15.2042 17.8964 15.2042 17.8421C15.2042 17.7879 15.2042 17.7437 15.2042 17.7074C15.1675 17.313 15.0962 16.9273 14.9879 16.5504C14.8802 16.1737 14.7188 15.8058 14.5029 15.4462C14.2872 15.0889 13.9812 14.8197 13.5859 14.6398C13.1897 14.46 12.6868 14.3701 12.0761 14.3701C11.9685 14.3701 11.7797 14.397 11.51 14.4504C11.2402 14.5047 10.9067 14.5677 10.512 14.6398C10.0804 14.747 9.6495 14.9358 9.21856 15.2049C8.78631 15.4737 8.3359 15.8237 7.86931 16.254C7.72515 16.3618 7.59084 16.4791 7.46528 16.604C7.33819 16.7302 7.2229 16.8647 7.11462 17.0074C6.97025 17.1515 6.84491 17.3033 6.73684 17.4652C6.62922 17.6264 6.52159 17.7979 6.41375 17.9764V27.7729C6.41375 28.3472 6.44787 28.8487 6.52159 29.279C6.5929 29.7102 6.70141 30.1059 6.84491 30.4636C7.0245 30.8225 7.2765 31.1012 7.60047 31.2974C7.92356 31.4952 8.3359 31.6295 8.84034 31.7017V33.2087H0.0494377V31.6483C0.553219 31.6116 0.975188 31.4952 1.31753 31.2974C1.65813 31.1012 1.90159 30.8402 2.04509 30.5178C2.18859 30.1947 2.29622 29.8095 2.36906 29.3608C2.44037 28.9122 2.47669 28.4005 2.47669 27.8263V16.8464C2.47669 16.7748 2.47669 16.7212 2.47669 16.6849C2.44038 16.6499 2.42331 16.613 2.42331 16.5771C2.42331 16.5417 2.42331 16.5053 2.42331 16.4695C2.42331 16.4336 2.42331 16.3982 2.42331 16.3618C2.42331 16.3268 2.42331 16.2726 2.42331 16.2004C2.38612 16.1654 2.36906 16.1195 2.36906 16.0659C2.36906 16.0125 2.36906 15.967 2.36906 15.9316C2.33253 15.8594 2.29622 15.7791 2.26056 15.6892C2.22491 15.6002 2.18859 15.5004 2.15272 15.3928C2.08009 15.3215 2.00878 15.2403 1.93725 15.1511C1.86462 15.0614 1.79331 14.9809 1.722 14.9089C1.57763 14.7297 1.37134 14.5768 1.10163 14.4504C0.831688 14.3255 0.498969 14.2091 0.104125 14.1011V12.4865H6.41375V15.1239H6.57497C6.75434 14.9809 6.94356 14.8197 7.14131 14.6398C7.33819 14.46 7.54622 14.2988 7.76169 14.1549C7.9415 13.9755 8.13006 13.8239 8.32759 13.6975C8.52534 13.5728 8.7325 13.4553 8.94797 13.3477C9.16366 13.2405 9.37956 13.1329 9.59525 13.0253C9.81159 12.9174 10.0271 12.8277 10.2423 12.7555C10.4223 12.6477 10.6201 12.5674 10.836 12.5132C11.0517 12.4596 11.2672 12.4149 11.4833 12.3786C11.8777 12.3073 12.2559 12.2443 12.6155 12.1905C12.9743 12.1365 13.3162 12.1098 13.6402 12.1098C13.6756 12.1098 13.7121 12.1098 13.7484 12.1098C13.8191 12.1098 13.874 12.1098 13.9099 12.1098C14.4128 12.1454 14.8982 12.2264 15.3661 12.3519C15.8327 12.4782 16.2999 12.6663 16.7681 12.9174C17.199 13.1679 17.5763 13.4829 17.8999 13.8589C18.2234 14.2358 18.494 14.6757 18.7088 15.178L18.818 15.1239C19.5002 14.5136 20.1657 14.0031 20.8127 13.5898C21.46 13.1784 22.0887 12.8817 22.7001 12.7017C23.3115 12.5228 23.8949 12.3786 24.4534 12.2714C25.0099 12.1638 25.522 12.1098 25.9899 12.1098C26.9603 12.1098 27.797 12.2174 28.4983 12.4324C29.199 12.6477 29.7467 12.9531 30.1433 13.3477C30.5377 13.743 30.8704 14.1549 31.1404 14.5856C31.4092 15.0159 31.6166 15.4654 31.7608 15.9316C31.8321 16.1827 31.8767 16.4336 31.8953 16.6849C31.913 16.9361 31.922 17.1695 31.922 17.3843C31.922 17.4928 31.922 17.6094 31.922 17.7341C31.922 17.8605 31.9399 17.9764 31.9762 18.0843C31.9762 18.1919 31.9762 18.2908 31.9762 18.3807C31.9762 18.4706 31.9762 18.5515 31.9762 18.6222V18.6764V18.7298V27.7729C31.9762 28.383 32.0112 28.9122 32.0838 29.3608C32.1552 29.8095 32.2637 30.2122 32.4072 30.5707C32.587 30.9304 32.839 31.1992 33.1627 31.3784C33.4865 31.5591 33.899 31.6667 34.403 31.7017V33.2087H25.6117V31.6483V31.6483ZM1.12481 39.2153H3.82265C4.25622 39.2153 4.55065 39.2903 4.71122 39.4419C4.86347 39.5944 4.94178 39.8783 4.94178 40.2841V40.7107V42.2321V42.6582C4.94178 43.0673 4.86347 43.346 4.71122 43.4997C4.55065 43.6474 4.25622 43.7248 3.82265 43.7248H1.12481C0.69125 43.7248 0.391125 43.6474 0.233406 43.4997C0.0802809 43.346 0 43.0673 0 42.6582V40.2841C0 39.8783 0.0802809 39.5944 0.233406 39.4419C0.391125 39.2903 0.69125 39.2153 1.12481 39.2153ZM1.04934 42.8809H3.88981V42.0162V40.8741V40.0164H1.04934V42.8809V42.8809ZM10.9452 39.1495H12.4123H13.7972H14.9172V39.993H12.3362H10.8703V40.7389H13.7972C14.2297 40.7389 14.5254 40.8166 14.6805 40.9688C14.8369 41.1204 14.9172 41.1543 14.9172 41.5638V42.6186H14.9157V42.6582C14.9157 43.0673 14.8376 43.346 14.6851 43.4997C14.5246 43.6474 14.2301 43.7248 13.7972 43.7248H10.9638C10.53 43.7248 10.2137 43.6474 10.0559 43.4997C9.90281 43.346 9.82231 43.0673 9.82231 42.6582V42.6186V42.1428V40.2161C9.82231 39.8062 9.8945 39.5286 10.0502 39.3739C10.2137 39.2271 10.5133 39.1495 10.9452 39.1495V39.1495ZM10.8703 42.1428H10.8723V42.8809H13.8637V42.6186H13.8615V41.5166H10.8703V42.1428ZM20.7552 41.3577H23.7479V39.2153H24.7966V42.6582C24.7966 43.0673 24.7223 43.346 24.5667 43.4997C24.4116 43.6474 24.106 43.7248 23.6758 43.7248H22.1996H20.8197H19.7059V42.8809H22.2862H23.7479V42.135H20.8197C20.386 42.135 20.0889 42.0573 19.9358 41.9057C19.7813 41.753 19.7059 41.4761 19.7059 41.0664V39.2153H20.7552V41.3577V41.3577ZM34.5949 39.4268C34.7487 39.5655 34.8283 39.7845 34.8283 40.089V40.6394C34.8283 40.8535 34.7611 41.0209 34.6257 41.1576C34.4918 41.2934 34.295 41.3766 34.046 41.4004C34.3074 41.4382 34.5107 41.5288 34.6526 41.6791C34.7926 41.8281 34.8655 42.0227 34.8655 42.2638V42.8431C34.8655 43.132 34.7528 43.3536 34.5319 43.5085C34.3193 43.6502 33.9835 43.7248 33.5353 43.7248H29.9469V39.2153H33.8159C34.1653 39.2153 34.4247 39.2847 34.5949 39.4268V39.4268ZM30.9776 42.9131H33.3718C33.5779 42.9131 33.7118 42.8827 33.7728 42.8245C33.8443 42.7654 33.8793 42.6619 33.8793 42.5114V42.1697C33.8793 42.0208 33.8443 41.9132 33.7728 41.8519C33.7076 41.7902 33.5779 41.769 33.3718 41.769H30.9776V42.9131ZM33.3718 39.9477H30.9776V41.0266H33.3718C33.5471 41.0266 33.6742 41.0051 33.7488 40.957C33.8159 40.8982 33.8564 40.8157 33.8564 40.7006V40.2675C33.8564 40.1529 33.8159 40.0697 33.7488 40.0122C33.6742 39.9685 33.5471 39.9477 33.3718 39.9477V39.9477ZM40.2272 40.9675H43.0509C43.4066 40.9675 43.6743 41.0375 43.8373 41.1814C43.9961 41.323 44.0762 41.5391 44.0762 41.8464V42.8505C44.0762 43.1635 43.9961 43.388 43.8373 43.521C43.6693 43.6548 43.4066 43.7248 43.0509 43.7248H39.1943V39.2153H40.2272V40.9675V40.9675ZM40.2272 42.9494H42.5878C42.7724 42.9494 42.898 42.9233 42.968 42.8643C43.0318 42.8133 43.062 42.7201 43.062 42.5924V42.1059C43.062 41.972 43.0318 41.876 42.968 41.8252C42.898 41.7745 42.7724 41.7476 42.5878 41.7476H40.2272V42.9494V42.9494ZM59.1526 41.5225L60.0681 40.9736C59.9261 40.8583 59.8334 40.7437 59.7772 40.6394C59.7107 40.5296 59.6796 40.4178 59.6796 40.292V40.0356C59.6796 39.739 59.7614 39.5277 59.9261 39.3973C60.0924 39.2746 60.3859 39.2153 60.797 39.2153H61.714C62.1475 39.2153 62.4407 39.2792 62.5984 39.4076C62.7541 39.5415 62.8322 39.7766 62.8322 40.1288V40.3959L62.0178 40.5405V39.9367H60.5369V40.2579L62.6671 42.0208L63.7199 41.1521L64.3147 41.6627L63.2717 42.5246L64.6982 43.7248H63.3237L62.5778 43.094L62.1784 43.4542C62.0515 43.5588 61.9391 43.6288 61.8332 43.6664C61.7352 43.7036 61.5705 43.7248 61.3239 43.7248H59.7155C59.2817 43.7248 58.9824 43.6474 58.8206 43.4997C58.6642 43.3508 58.585 43.0723 58.585 42.6582V42.3598C58.585 42.1697 58.6263 42.0182 58.6917 41.9081C58.7538 41.7902 58.9006 41.6675 59.1526 41.5225V41.5225ZM59.4676 42.9365H61.5635L61.9841 42.5762L60.629 41.454L59.4676 42.1697V42.9365ZM82.2596 39.2153L84.8509 43.7248H83.6701L83.1272 42.7367H80.2627L79.7412 43.7248H78.6973L81.2427 39.2153H82.2596ZM82.6982 41.9269L81.7195 40.089L80.7231 41.9269H82.6982ZM90.2018 41.0931L92.7038 39.2153H94.2244L91.2319 41.3416L94.591 43.7248H92.9077L90.2018 41.7423V43.7248H89.1387V39.2153H90.2018V41.0931V41.0931ZM100.284 39.1991H102.983C103.416 39.1991 103.71 39.2737 103.871 39.426C104.023 39.5778 104.101 39.8619 104.101 40.2675V40.6952L103.049 40.8577V40.0006H100.209V42.8649H103.049V41.8926L104.101 42.1087V42.642C104.101 43.0515 104.023 43.3296 103.871 43.4833C103.71 43.6308 103.416 43.7082 102.983 43.7082H100.284C99.8506 43.7082 99.5507 43.6308 99.3928 43.4833C99.2397 43.3296 99.1596 43.0515 99.1596 42.642V40.2675C99.1596 39.8619 99.2397 39.5778 99.3928 39.426C99.5507 39.2737 99.8506 39.1991 100.284 39.1991V39.1991ZM113.233 39.9792H109.666V40.9896H111.751V41.753H109.666V42.8809H113.279V43.7248H108.614V39.2153H113.233V39.9792V39.9792ZM119.09 39.2153H121.782C122.219 39.2153 122.519 39.2903 122.682 39.4419C122.834 39.5944 122.91 39.8783 122.91 40.2841V40.7107L121.858 40.8741V40.0164H119.021V42.8809H121.858V41.9081L122.91 42.1245V42.6582C122.91 43.0673 122.834 43.346 122.682 43.4997C122.519 43.6474 122.219 43.7248 121.782 43.7248H119.09C118.657 43.7248 118.362 43.6474 118.195 43.4997C118.046 43.346 117.972 43.0673 117.972 42.6582V40.2841C117.972 39.8783 118.046 39.5944 118.195 39.4419C118.362 39.2903 118.657 39.2153 119.09 39.2153V39.2153ZM128.704 39.2153H131.397C131.832 39.2153 132.133 39.2903 132.295 39.4419C132.448 39.5944 132.523 39.8783 132.523 40.2841V40.7107L131.472 40.8741V40.0164H128.634V42.8809H131.472V41.9081L132.523 42.1245V42.6582C132.523 43.0673 132.448 43.346 132.295 43.4997C132.133 43.6474 131.832 43.7248 131.397 43.7248H128.704C128.27 43.7248 127.975 43.6474 127.809 43.4997C127.66 43.346 127.585 43.0673 127.585 42.6582V40.2841C127.585 39.8783 127.66 39.5944 127.809 39.4419C127.975 39.2903 128.27 39.2153 128.704 39.2153V39.2153ZM138.764 41.3577H141.757V39.2153H142.805V42.6582C142.805 43.0673 142.731 43.346 142.576 43.4997C142.42 43.6474 142.115 43.7248 141.685 43.7248H140.209H138.829H137.715V42.8809H140.295H141.757V42.135H138.829C138.395 42.135 138.098 42.0573 137.945 41.9057C137.79 41.753 137.715 41.4761 137.715 41.0664V39.2153H138.764V41.3577ZM150.975 39.2153L153.571 43.7248H152.383L151.847 42.7367H148.98L148.453 43.7248H147.415L149.963 39.2153H150.975ZM151.411 41.9269L150.435 40.089L149.438 41.9269H151.411V41.9269ZM162.642 39.6285C162.8 39.7624 162.881 39.9868 162.881 40.299V41.3037C162.881 41.6113 162.8 41.8267 162.642 41.9687C162.479 42.1129 162.212 42.1829 161.855 42.1829H159.031V43.9348H157.999V39.4255H161.855C162.212 39.4255 162.473 39.4947 162.642 39.6285V39.6285ZM161.392 40.2003H159.031V41.4024H161.392C161.577 41.4024 161.703 41.3752 161.773 41.3249C161.837 41.2735 161.867 41.1782 161.867 41.0443V40.5576C161.867 40.43 161.837 40.3362 161.773 40.2852C161.703 40.2262 161.577 40.2003 161.392 40.2003ZM169.016 41.1775H171.84C172.196 41.1775 172.464 41.2473 172.627 41.3914C172.785 41.5336 172.865 41.7493 172.865 42.0567V43.0605C172.865 43.3733 172.785 43.5977 172.627 43.7312C172.459 43.8648 172.196 43.9348 171.84 43.9348H167.983V39.4255H169.016V41.1775ZM169.016 43.16H171.377C171.561 43.16 171.687 43.134 171.757 43.0743C171.82 43.0235 171.852 42.9301 171.852 42.8026V42.3159C171.852 42.182 171.82 42.0862 171.757 42.0352C171.687 41.9845 171.561 41.9578 171.377 41.9578H169.016V43.16ZM174.776 43.9348H173.729V39.4255H174.776V43.9348Z" fill="#2B2B2A"/>
</svg>
