<svg xmlns="http://www.w3.org/2000/svg" fill="none" viewBox="0 0 190 94"><rect width="188" height="91.643" x="1" y="1.179" fill="#fff" stroke="#000" stroke-width="2" rx="11"/><path fill="#2B2B2A" fill-rule="evenodd" d="M19.027 59.406v-.272h151.109v.272H19.027zm143.394-3.314a4.466 4.466 0 0 1-.868-5.105l2.675 2.668a1.482 1.482 0 0 0 2.094 0 1.475 1.475 0 0 0 0-2.089l-2.675-2.67a4.475 4.475 0 0 1 5.117 7.196 4.492 4.492 0 0 1-6.343 0zm1.226-9.645l2.673-2.67a1.475 1.475 0 0 0 0-2.09 1.483 1.483 0 0 0-2.092 0l-2.675 2.668a4.463 4.463 0 0 1 .868-5.104 4.493 4.493 0 0 1 6.343 0 4.472 4.472 0 0 1 0 6.331 4.492 4.492 0 0 1-5.117.865zm5.094-10.727a.826.826 0 0 1-.403-.38c-.089-.17-.134-.476-.134-.914v-3.703h-.772v-.492h.772v-1.413l.656-.418v1.831h1.042v.492h-1.042v3.62c0 .256.017.448.05.577a.461.461 0 0 0 .193.285.68.68 0 0 0 .377.094c.12 0 .291-.023.514-.068l.083.524a3.569 3.569 0 0 1-.688.087c-.252 0-.468-.04-.648-.122zm-5.8-.97c.327.4.78.6 1.358.6.806 0 1.37-.447 1.69-1.341l.636.107c-.217.63-.521 1.08-.913 1.353-.391.273-.875.409-1.453.409-.782 0-1.394-.258-1.837-.774-.443-.516-.664-1.22-.664-2.111 0-.892.223-1.596.668-2.112.445-.516 1.06-.773 1.845-.773 1.602 0 2.409.99 2.422 2.968h-4.259c.01.714.18 1.272.507 1.673zm3.048-2.21c-.101-1.275-.678-1.912-1.734-1.912a1.64 1.64 0 0 0-1.211.495c-.327.331-.524.803-.59 1.417h3.535zm-5.615 3.215l-2.111-3.02-.827.742v2.278h-.653v-7.624h.653v4.663l2.696-2.563h.914l-2.302 2.067 2.474 3.457h-.844zm-1.275 8.603l-2.676-2.669a1.48 1.48 0 0 0-2.093 0 1.474 1.474 0 0 0 0 2.088l2.675 2.668a4.489 4.489 0 0 1-5.117-.863 4.471 4.471 0 0 1 0-6.33 4.494 4.494 0 0 1 6.345 0 4.473 4.473 0 0 1 .866 5.106zm-4.026-13.568a.987.987 0 0 0-.355.061.913.913 0 0 0-.304.197c-.096.09-.178.194-.247.314-.069.119-.12.25-.155.395a5.528 5.528 0 0 0-.096.638 7.527 7.527 0 0 0-.043.764v2.596h-.649v-5.524h.573v1.119c.274-.828.704-1.242 1.292-1.242.303 0 .629.11.979.333l-.251.56c-.333-.14-.582-.21-.744-.21zm.304 23.298c.378 0 .757-.145 1.046-.433l2.675-2.67a4.472 4.472 0 0 1-.865 5.107 4.498 4.498 0 0 1-6.347 0 4.48 4.48 0 0 1 0-6.334 4.495 4.495 0 0 1 5.119-.861l-2.675 2.669a1.475 1.475 0 0 0 1.047 2.522zm-4.443-19.174c-.599.642-1.354.964-2.262.964-.332 0-.628-.057-.89-.173a1.453 1.453 0 0 1-.626-.517c-.156-.23-.235-.51-.235-.842 0-.233.038-.44.11-.625.073-.184.183-.345.332-.484.148-.14.349-.258.6-.357.253-.1.706-.194 1.36-.284.73-.1 1.246-.208 1.547-.322a7.43 7.43 0 0 0-.026-.726 1.015 1.015 0 0 0-.176-.476.95.95 0 0 0-.466-.341 2.19 2.19 0 0 0-.775-.12c-.957 0-1.532.409-1.726 1.226l-.66-.098c.204-1.088.998-1.631 2.382-1.631.435 0 .8.05 1.096.148.295.1.515.24.659.42.146.182.239.407.283.674.043.267.066.635.066 1.103l-.02 1.556c-.006.415.013.734.058.957.043.222.137.485.279.789h-.707a3.18 3.18 0 0 1-.203-.84zm-.064-2.128c-.368.14-.951.28-1.75.417-.421.074-.728.15-.924.227a.941.941 0 0 0-.441.34.924.924 0 0 0-.149.525c0 .3.112.544.336.728.224.183.512.276.864.276.208 0 .411-.028.613-.082.201-.054.399-.135.592-.242a1.72 1.72 0 0 0 .486-.389 1.42 1.42 0 0 0 .284-.585c.06-.238.089-.524.089-.857v-.358zm-5.928-.452c0-.505-.041-.86-.124-1.062a.907.907 0 0 0-.386-.457 1.222 1.222 0 0 0-.624-.152c-.339 0-.624.095-.853.284-.23.19-.391.448-.486.778-.093.329-.141.766-.141 1.31v2.72h-.647v-3.488c0-.384-.033-.684-.098-.901a.909.909 0 0 0-.354-.504c-.171-.12-.387-.179-.65-.179-.464 0-.835.19-1.113.573-.278.383-.418.9-.418 1.555v2.944h-.648v-5.524h.648v.797c.462-.613 1.026-.92 1.695-.92.704 0 1.194.307 1.47.92.494-.613 1.072-.92 1.734-.92 1.095 0 1.642.629 1.642 1.888v3.759h-.647v-3.42zm-5.015 6.403c.574.186 1.017.45 1.328.79.341.342.612.698.815 1.07.202.371.349.775.442 1.209.03.217.054.426.07.627.015.202.023.395.023.58v.303c0 .109.016.21.047.302v8.368c0 .527.03.984.093 1.371.062.388.155.735.279 1.045.124.31.326.543.606.697.279.157.652.25 1.117.28v1.301h-7.591v-1.347c.434-.032.799-.133 1.094-.303a1.46 1.46 0 0 0 .629-.674c.124-.279.217-.611.279-.999.062-.387.094-.83.094-1.325V44.13v-.163-.21-.093-.139a.153.153 0 0 1-.047-.116v-.116a5.416 5.416 0 0 0-.186-1 3.99 3.99 0 0 0-.42-.953 1.743 1.743 0 0 0-.791-.697c-.342-.155-.776-.232-1.304-.232-.094 0-.257.023-.49.069-.232.047-.52.101-.861.164a3.874 3.874 0 0 0-1.117.488 7.865 7.865 0 0 0-1.165.906 3.317 3.317 0 0 0-.652.65 2.607 2.607 0 0 0-.326.396c-.093.139-.187.287-.28.441v8.46c0 .497.031.93.093 1.301.063.373.155.715.28 1.023.155.31.373.551.652.72.279.171.636.287 1.071.35v1.301h-7.591v-1.347c.434-.032.799-.133 1.094-.303a1.46 1.46 0 0 0 .629-.674 4.08 4.08 0 0 0 .279-.999c.062-.387.093-.83.093-1.325v-9.483-.14c-.031-.03-.046-.061-.046-.092v-.093-.093-.14a.157.157 0 0 1-.047-.116v-.116a3.857 3.857 0 0 1-.186-.465 2.357 2.357 0 0 1-.186-.209 2.555 2.555 0 0 0-.187-.21 1.476 1.476 0 0 0-.535-.395 5.557 5.557 0 0 0-.862-.302v-1.394h5.449v2.278h.14c.155-.155.326-.318.512-.488.186-.171.373-.318.559-.442.187-.155.38-.287.582-.395.202-.109.412-.21.63-.302a7.425 7.425 0 0 1 1.024-.465 6.372 6.372 0 0 1 1.024-.28c.342-.061.66-.115.955-.162.295-.047.567-.07.815-.07.807 0 1.498.093 2.073.28zm-6.804-6.41c0-.596-.115-1.02-.346-1.273-.231-.252-.544-.379-.938-.379-.213 0-.411.036-.595.108a1.648 1.648 0 0 0-.511.318 1.608 1.608 0 0 0-.371.49 2.135 2.135 0 0 0-.191.608c-.037.22-.054.608-.054 1.163v2.393h-.652v-5.524h.652v.817c.496-.627 1.09-.94 1.781-.94 1.254 0 1.881.681 1.881 2.043v3.604h-.656v-3.429zm-7.48 3.55a2.48 2.48 0 0 1-1.017-.198c-.3-.132-.561-.329-.782-.591a2.635 2.635 0 0 1-.499-.909 3.701 3.701 0 0 1-.167-1.15c0-.44.048-.832.144-1.177a2.63 2.63 0 0 1 .438-.898c.195-.251.441-.456.738-.612.297-.156.68-.234 1.149-.234.753 0 1.354.243 1.799.732.447.488.67 1.21.67 2.165 0 .91-.215 1.616-.645 2.119-.431.502-1.04.754-1.828.754zm1.583-4.149c-.146-.356-.349-.625-.609-.808-.259-.185-.577-.277-.95-.277-.575 0-1.02.211-1.334.633-.315.422-.471.989-.471 1.701 0 .703.16 1.276.479 1.716.319.441.764.662 1.334.662.264 0 .502-.05.712-.146.209-.096.394-.245.554-.446.16-.201.285-.45.372-.748.088-.298.131-.635.131-1.01 0-.495-.072-.92-.218-1.277zM123.51 45.85c.03.218.061.434.093.651a8.813 8.813 0 0 1 .093 1.255c0 1.24-.148 2.348-.443 3.323a6.782 6.782 0 0 1-1.374 2.534 11.738 11.738 0 0 1-1.886 1.767 7.722 7.722 0 0 1-2.073 1.115c-.279.093-.552.17-.814.233a7.636 7.636 0 0 1-.769.14c-.279.06-.535.099-.768.116a11.05 11.05 0 0 1-1.444 0 4.313 4.313 0 0 1-.769-.117 7.062 7.062 0 0 1-.815-.14 6.227 6.227 0 0 1-.769-.232 7.19 7.19 0 0 1-2.095-1.115 14.237 14.237 0 0 1-1.91-1.767c-.59-.713-1.033-1.557-1.328-2.534-.295-.975-.442-2.083-.442-3.323v-.604c0-.216.015-.434.047-.65a9.228 9.228 0 0 1 .279-1.302c.217-.837.543-1.65.978-2.44a9.757 9.757 0 0 1 1.677-2.209 6.25 6.25 0 0 1 2.491-1.58c.979-.341 2.104-.512 3.378-.512v-.046c1.272.032 2.39.217 3.353.558a6.27 6.27 0 0 1 2.468 1.58c.683.682 1.25 1.418 1.701 2.208.449.79.783 1.604 1.001 2.44.061.218.108.435.14.651zm-3.726 2.255v-.302-.325-.372a1.585 1.585 0 0 1-.047-.396v-.441a9.187 9.187 0 0 0-.186-1.813 7.513 7.513 0 0 0-.466-1.627 7.08 7.08 0 0 0-.839-1.488 3.307 3.307 0 0 0-1.35-1.069c-.559-.247-1.243-.372-2.049-.372v-.046c-.808.031-1.499.17-2.073.419a3.272 3.272 0 0 0-1.374 1.068 8.22 8.22 0 0 0-.838 1.534 7.457 7.457 0 0 0-.466 1.627c-.031.31-.07.62-.116.93-.047.31-.071.605-.071.883v2.836c0 .217.016.441.047.674.031.232.062.473.093.72.062.65.202 1.272.419 1.86.218.589.482 1.147.792 1.673a3.16 3.16 0 0 0 1.397 1.185c.59.264 1.32.395 2.19.395.838 0 1.56-.13 2.165-.395.606-.263 1.064-.658 1.374-1.185a7.621 7.621 0 0 0 .816-1.673c.201-.589.349-1.21.442-1.86.031-.247.054-.488.07-.72.015-.233.023-.457.023-.674V48.8c0-.108.015-.224.047-.349v-.348zm1.398-17.873h.652v5.524h-.652v-5.524zm0-2.1h.652v.973h-.652v-.973zm-2.303 4.195c0-.595-.116-1.019-.346-1.273-.231-.252-.543-.378-.939-.378-.212 0-.409.036-.594.108a1.648 1.648 0 0 0-.511.318 1.608 1.608 0 0 0-.371.49 2.136 2.136 0 0 0-.192.608c-.036.22-.053.608-.053 1.163v2.393h-.652v-7.624h.652v2.917c.496-.627 1.089-.94 1.782-.94 1.253 0 1.88.681 1.88 2.043v3.604h-.656v-3.429zm-7.912.004c.267.1.607.199 1.021.294.784.18 1.296.398 1.534.657.24.258.358.561.358.91 0 .352-.085.652-.256.9-.171.247-.42.44-.748.583-.327.142-.713.212-1.155.212a3.46 3.46 0 0 1-.775-.08 2.198 2.198 0 0 1-.636-.254 1.732 1.732 0 0 1-.502-.46c-.143-.193-.258-.47-.346-.833l.66-.107c.099.42.289.726.574.916.283.19.633.287 1.049.287.286 0 .541-.049.765-.143.224-.096.395-.221.511-.376a.893.893 0 0 0 .175-.554.712.712 0 0 0-.198-.504c-.133-.14-.31-.25-.531-.329a7.515 7.515 0 0 0-.941-.246c-1.261-.264-1.893-.78-1.893-1.548 0-.479.187-.856.559-1.133.372-.276.84-.414 1.402-.414 1.119 0 1.803.487 2.051 1.46l-.636.095c-.119-.388-.28-.656-.483-.804-.202-.146-.51-.22-.921-.22-.259 0-.492.04-.699.117a1.045 1.045 0 0 0-.463.312.727.727 0 0 0-.153.464c0 .18.046.334.139.459.093.125.272.238.538.34zm-3.342 2.584c-.599.642-1.353.964-2.262.964-.331 0-.628-.057-.889-.173a1.447 1.447 0 0 1-.626-.517c-.157-.23-.235-.51-.235-.842 0-.233.037-.44.11-.625.072-.184.183-.345.331-.484.149-.14.349-.258.601-.357.252-.1.705-.194 1.359-.284.729-.1 1.246-.208 1.548-.322 0-.314-.009-.557-.026-.726a1.038 1.038 0 0 0-.177-.476.952.952 0 0 0-.465-.341 2.2 2.2 0 0 0-.776-.12c-.957 0-1.532.409-1.726 1.226l-.66-.098c.204-1.088.998-1.631 2.382-1.631.435 0 .8.05 1.095.148.296.1.517.24.661.42.144.182.238.407.282.674.044.267.066.635.066 1.103l-.019 1.556c-.006.415.013.734.056.957.044.222.138.485.281.789h-.708a3.18 3.18 0 0 1-.203-.84zm-.063-2.128c-.369.14-.953.28-1.75.417-.421.074-.73.15-.925.227a.936.936 0 0 0-.441.34.924.924 0 0 0-.149.525c0 .3.112.544.336.728.224.183.512.276.865.276.206 0 .41-.028.613-.082.201-.054.398-.135.592-.242a1.73 1.73 0 0 0 .485-.389c.13-.152.225-.347.285-.585.059-.238.089-.524.089-.857v-.358zm-3.567 22.174l-.186.186-.163.163-.163.163c-.436.403-.862.713-1.281.93a3.23 3.23 0 0 1-1.234.371 75.82 75.82 0 0 0-1.025.163c-.28.047-.497.07-.652.07-.683 0-1.28-.078-1.793-.233a2.997 2.997 0 0 1-1.28-.744c-.343-.34-.599-.82-.77-1.441-.171-.62-.256-1.362-.256-2.231V40.225h-2.05v-1.441h2.05V34.74l3.4-1.86v5.904h3.866v1.44h-3.866V52.684c0 .093.008.178.023.255a.814.814 0 0 0 .07.21c.03.217.093.425.187.627.093.202.216.38.373.534.154.187.364.318.628.395.264.078.582.117.954.117a3.29 3.29 0 0 0 1.352-.28 4.91 4.91 0 0 0 .628-.324c.202-.125.397-.248.583-.372l.791.883a1.57 1.57 0 0 1-.186.232zm-1.269-26.36c-.186 0-.34.027-.463.083a.603.603 0 0 0-.289.287c-.069.137-.103.397-.103.78v.481h1.158v.492h-1.158v5.032h-.648v-5.032h-.883v-.492h.883v-.576c0-.384.038-.686.115-.907.077-.22.223-.4.44-.54.216-.139.481-.208.797-.208.186 0 .452.044.8.13l-.108.525a4.119 4.119 0 0 0-.541-.055zM90.629 56.634a5.625 5.625 0 0 1-.77.255 3.8 3.8 0 0 1-.954.117c-.404 0-.776-.063-1.118-.187a2.751 2.751 0 0 1-.885-.511 3.913 3.913 0 0 1-1.024-1.766l-.093-.046a1.67 1.67 0 0 1-.186.232l-.187.185a1.756 1.756 0 0 1-.186.164 1.64 1.64 0 0 0-.186.162 9.36 9.36 0 0 1-1.375 1c-.45.263-.892.41-1.327.441-.404.093-.784.17-1.14.232-.358.063-.66.094-.91.094-.962 0-1.792-.117-2.49-.35-.7-.232-1.266-.596-1.7-1.092a6.61 6.61 0 0 1-.932-1.626 4.812 4.812 0 0 1-.326-1.766c0-1.27.271-2.325.815-3.162.543-.836 1.358-1.456 2.444-1.859a20.424 20.424 0 0 1 3.424-1.023 28.454 28.454 0 0 1 3.75-.51h.139c0-.744-.046-1.442-.14-2.093-.093-.65-.217-1.27-.372-1.86-.186-.588-.52-1.03-1.001-1.324-.482-.294-1.126-.442-1.933-.442-.311 0-.59.032-.839.094s-.45.17-.605.324a3.43 3.43 0 0 0-.42.396c-.124.14-.217.287-.279.441-.03.094-.07.18-.116.256a.417.417 0 0 0-.07.21.856.856 0 0 0-.093.371.29.29 0 0 0-.07.117.51.51 0 0 0-.024.162.903.903 0 0 0-.07.186.901.901 0 0 1-.07.186 1.799 1.799 0 0 1-.232.279 1.82 1.82 0 0 1-.28.232 1 1 0 0 1-.396.186c-.14.032-.303.046-.489.046H77.61c-.015 0-.023-.014-.023-.046h-.14a1.699 1.699 0 0 1-.372-.14 1.25 1.25 0 0 1-.326-.231.711.711 0 0 1-.256-.396 2.212 2.212 0 0 1-.07-.58v-.094-.069-.07c.062-.434.24-.837.536-1.209.295-.372.722-.727 1.28-1.069a5.987 5.987 0 0 1 1.84-.767 9.78 9.78 0 0 1 2.306-.256c1.086 0 2.018.125 2.794.373.776.247 1.366.62 1.77 1.115a7.782 7.782 0 0 1 1.072 1.557c.279.543.48 1.108.605 1.697.062.278.1.557.117.837.014.279.023.557.023.837v.394c0 .14.015.272.046.395V52.217c0 .62.047 1.125.14 1.512.093.387.233.673.419.859.186.218.38.372.582.465.201.093.411.124.629.093h.233c.03 0 .061-.015.093-.047h.186a.367.367 0 0 1 .14-.046c.03 0 .062-.007.093-.023a.37.37 0 0 0 .093-.07.361.361 0 0 1 .14-.047v-.046l.326.512c-.186.278-.38.518-.582.72-.203.202-.428.38-.675.535zm-5.217-9.529c-1.242.092-2.298.271-3.168.534-.868.264-1.567.613-2.095 1.046a6.115 6.115 0 0 0-1.164 1.44 4.061 4.061 0 0 0-.512 1.535V52.079c0 .464.07.882.21 1.254.139.372.364.698.674.976.31.279.66.489 1.049.628.387.14.83.21 1.326.21.808 0 1.468-.156 1.98-.466.513-.31.877-.79 1.095-1.44.186-.62.333-1.302.442-2.046.109-.744.163-1.55.163-2.417v-1.673zm-12.296-5.346c-.124.124-.279.224-.466.302a1.68 1.68 0 0 1-.652.116c-.155 0-.302-.015-.442-.046a3.314 3.314 0 0 1-.35-.093 7.076 7.076 0 0 0-.255-.163 3.39 3.39 0 0 0-.21-.116l-.093-.093a6.78 6.78 0 0 1-.163-.163c-.016-.015-.023-.038-.023-.07a2.226 2.226 0 0 1-.187-.209.576.576 0 0 0-.186-.162.425.425 0 0 0-.233-.117 2.01 2.01 0 0 0-.325-.023 1.064 1.064 0 0 0-.42.093.284.284 0 0 1-.116.07.39.39 0 0 1-.117.023l-.14.07a.39.39 0 0 0-.093.07 2.872 2.872 0 0 0-.768.79c-.233.342-.459.76-.676 1.255a6.584 6.584 0 0 0-.465 1.65c-.094.604-.14 1.278-.14 2.022v5.02c0 .497.03.938.093 1.325.062.388.156.736.28 1.046.123.31.325.551.605.72.28.171.652.273 1.118.303v1.301H61.1v-1.347c.434-.032.8-.133 1.094-.303a1.46 1.46 0 0 0 .63-.674c.123-.279.216-.611.278-.999.063-.387.094-.83.094-1.325v-9.483c0-.31-.047-.604-.14-.883a2.118 2.118 0 0 0-.373-.698 1.803 1.803 0 0 0-.628-.464 5.653 5.653 0 0 0-.908-.326v-1.394h5.45v2.882h.185c.249-.402.528-.79.838-1.162.31-.372.652-.713 1.025-1.023a3.342 3.342 0 0 1 1.188-.767c.45-.17.955-.256 1.514-.256.372 0 .706.055 1.001.163.295.109.535.256.722.442.186.186.326.403.418.65.094.249.141.512.141.791v.232a2.119 2.119 0 0 1-.164.535c-.077.17-.194.333-.349.488zm-22.24 13.574c.435-.032.793-.133 1.072-.303.28-.17.48-.41.605-.72.124-.31.217-.651.28-1.024.062-.371.093-.79.093-1.254v-8.399c0-.495-.031-.93-.093-1.301a3.343 3.343 0 0 0-.28-.93 1.721 1.721 0 0 0-.605-.65c-.28-.187-.637-.341-1.071-.466v-1.394h5.45v13.094c0 .527.03.984.093 1.371.061.388.154.735.279 1.045.154.31.373.543.652.697.28.157.636.25 1.071.28v1.301h-7.545v-1.347zm4.798-20.686c-.218.217-.46.372-.723.465-.263.093-.535.14-.813.14-.312 0-.591-.047-.84-.14a1.95 1.95 0 0 1-.698-.465 1.84 1.84 0 0 1-.489-.627 2.348 2.348 0 0 1-.21-.721c-.031-.03-.047-.054-.047-.07v-.07-.093-.139c0-.247.054-.503.164-.767a2.19 2.19 0 0 1 .489-.72c.216-.248.465-.426.745-.535a2.44 2.44 0 0 1 .886-.163c.279 0 .55.055.813.163.264.11.505.256.723.442.248.185.426.418.536.697.108.279.163.589.163.93 0 .341-.055.65-.163.93-.11.279-.288.527-.536.743zM41.12 55.333c.435-.032.8-.133 1.096-.303.294-.17.503-.395.628-.674a4.07 4.07 0 0 0 .28-.999 8.42 8.42 0 0 0 .093-1.325V44.13c0-.527-.047-1.015-.14-1.465a4.284 4.284 0 0 0-.42-1.185 1.884 1.884 0 0 0-.838-.79c-.372-.186-.822-.28-1.35-.28-.186 0-.396.017-.63.047-.232.031-.488.078-.767.14-.125.031-.265.07-.42.116a1.315 1.315 0 0 0-.42.21c-.154.061-.301.139-.442.231-.14.094-.287.186-.442.279-.156.125-.31.264-.465.419l-.466.465c-.125.155-.257.325-.396.511-.14.186-.288.403-.443.65v8.508c0 .527.03.984.094 1.371.06.388.155.735.278 1.045.125.31.327.543.607.697.279.157.652.25 1.117.28v1.301H30.08v-1.347c.435-.032.8-.133 1.095-.303a1.46 1.46 0 0 0 .629-.674c.123-.279.216-.611.28-.999.061-.387.093-.83.093-1.325V44.13v-.163-.21-.093-.139a.154.154 0 0 1-.047-.116v-.116a5.434 5.434 0 0 0-.187-1 3.966 3.966 0 0 0-.419-.953 1.745 1.745 0 0 0-.792-.697c-.342-.155-.776-.232-1.304-.232a2.98 2.98 0 0 0-.489.069c-.233.047-.52.101-.861.164a3.879 3.879 0 0 0-1.117.488 7.902 7.902 0 0 0-1.166.906 3.285 3.285 0 0 0-.652.65 2.591 2.591 0 0 0-.326.396c-.093.139-.186.287-.279.441v8.46c0 .497.03.93.093 1.301.062.373.156.715.28 1.023.155.31.372.551.652.72.28.171.635.287 1.07.35v1.301h-7.591v-1.347c.435-.032.8-.133 1.095-.303.294-.17.504-.395.628-.674s.217-.611.28-.999c.062-.387.093-.83.093-1.325v-9.483-.14c-.031-.03-.046-.061-.046-.092v-.093-.093-.14a.153.153 0 0 1-.047-.116v-.116a2.555 2.555 0 0 1-.094-.21 4.595 4.595 0 0 1-.093-.255 2.358 2.358 0 0 1-.186-.209 2.772 2.772 0 0 0-.186-.21 1.478 1.478 0 0 0-.536-.395 5.591 5.591 0 0 0-.861-.302v-1.394h5.45v2.278h.138c.155-.124.319-.263.49-.418.17-.156.35-.295.535-.42.156-.154.318-.285.489-.394.17-.108.35-.21.536-.302l.559-.279c.187-.093.373-.17.559-.233.155-.093.326-.162.512-.21a7.4 7.4 0 0 1 .56-.115c.34-.062.667-.116.977-.163.31-.047.605-.07.885-.07h.234c.433.031.853.101 1.257.21.403.109.806.271 1.21.488.373.216.699.488.978.813.28.326.513.706.699 1.14l.094-.047c.59-.527 1.164-.968 1.723-1.325a6.466 6.466 0 0 1 1.63-.767c.528-.155 1.032-.28 1.514-.372.48-.093.923-.14 1.327-.14.838 0 1.56.093 2.166.28.605.185 1.078.449 1.42.79.342.34.629.697.862 1.069.232.371.411.76.536 1.162.061.217.1.434.116.65.015.218.023.42.023.605v.302c0 .109.015.21.047.302v8.368c0 .527.03.984.093 1.371.061.388.155.735.279 1.045.155.31.373.543.653.697.28.157.635.25 1.07.28v1.301H41.12v-1.347zm-21.148 6.535h2.33c.375 0 .63.065.768.195.131.132.199.377.199.728v2.05c0 .354-.068.594-.2.727-.138.127-.392.194-.767.194h-2.33c-.374 0-.633-.067-.77-.194-.132-.133-.201-.373-.201-.727v-2.05c0-.35.07-.596.202-.727.136-.131.395-.196.77-.196zm-.065 3.166h2.453V62.56h-2.453v2.474zm8.547-3.223h3.43v.728h-3.495v.645h2.528c.373 0 .629.067.763.198.135.131.204.16.204.514v.911h-.001v.034c0 .354-.068.594-.2.727-.138.127-.392.194-.766.194h-2.447c-.375 0-.648-.067-.784-.194-.133-.133-.202-.373-.202-.727v-2.109c0-.354.062-.594.197-.727.14-.127.4-.194.773-.194zm-.065 2.585h.002v.638h2.583v-.227h-.002v-.952h-2.583v.541zm8.537-.678h2.585v-1.85h.905v2.973c0 .354-.064.594-.198.727-.134.127-.398.194-.77.194H36.02v-.728h3.491v-.645h-2.53c-.374 0-.63-.067-.763-.198-.133-.132-.198-.37-.198-.725v-1.598h.906v1.85zm11.952-1.668c.133.12.202.31.202.572v.476c0 .185-.058.33-.175.447-.116.117-.286.19-.5.21.225.033.4.11.523.24.121.13.184.297.184.506v.5a.66.66 0 0 1-.288.575c-.184.122-.474.186-.86.186h-3.1v-3.894h3.342c.301 0 .525.06.672.182zm-3.124 3.011h2.068c.178 0 .294-.026.346-.076.062-.051.092-.14.092-.27v-.296c0-.128-.03-.221-.092-.274-.056-.053-.168-.072-.346-.072h-2.068v.988zm2.068-2.56h-2.068v.931h2.068c.151 0 .261-.019.326-.06a.278.278 0 0 0 .093-.221v-.375a.275.275 0 0 0-.093-.22c-.065-.038-.175-.056-.326-.056zm5.92.88h2.44c.306 0 .538.06.678.185.138.122.207.309.207.574v.867c0 .27-.07.464-.207.58-.145.115-.372.175-.679.175h-3.33v-3.894h.892v1.513zm0 1.712h2.04c.159 0 .267-.023.328-.074.055-.044.08-.124.08-.235v-.42c0-.115-.025-.198-.08-.242-.06-.044-.17-.067-.329-.067h-2.038v1.038zm16.345-1.233l.791-.474a.983.983 0 0 1-.251-.288.56.56 0 0 1-.085-.3v-.222c0-.256.071-.438.213-.551.144-.106.397-.157.752-.157h.792c.375 0 .628.055.764.166.135.115.202.319.202.623v.23l-.703.125v-.521h-1.28v.277l1.84 1.523.91-.75.513.44-.9.745 1.232 1.036h-1.187l-.644-.544-.346.31c-.11.091-.206.151-.298.184-.084.032-.227.05-.44.05h-1.388c-.375 0-.634-.067-.773-.194-.135-.129-.204-.37-.204-.727v-.257c0-.165.036-.296.092-.39.054-.103.18-.208.398-.334zm.272 1.222h1.81l.364-.312-1.17-.969-1.004.618v.663zm19.684-3.214l2.238 3.894h-1.02l-.468-.853h-2.474l-.45.853h-.902l2.198-3.894h.878zm.38 2.342l-.846-1.588-.86 1.588h1.705zm6.48-.72l2.16-1.622h1.314l-2.585 1.836 2.901 2.058h-1.453L96.9 64.05v1.712h-.918v-3.894h.918v1.621zm8.707-1.636h2.331c.373 0 .628.064.766.196.132.13.2.376.2.727v.369l-.909.14v-.74h-2.453v2.474h2.453v-.84l.909.187v.46c0 .354-.068.594-.2.727-.138.127-.393.194-.766.194h-2.331c-.374 0-.633-.067-.77-.194-.132-.133-.201-.373-.201-.727v-2.05c0-.35.069-.596.201-.727.137-.132.396-.196.77-.196zm11.183.674h-3.081v.872h1.801v.66h-1.801v.974h3.121v.728h-4.029v-3.894h3.989v.66zm5.058-.66h2.326c.377 0 .636.065.777.195.131.132.197.377.197.728v.368l-.909.141v-.74h-2.45v2.474h2.45v-.84l.909.186v.461c0 .354-.066.594-.197.727-.141.127-.4.194-.777.194h-2.326c-.374 0-.628-.067-.772-.194-.129-.133-.193-.373-.193-.727v-2.05c0-.35.064-.596.193-.727.144-.131.398-.196.772-.196zm8.303 0h2.326c.376 0 .636.065.776.195.132.132.197.377.197.728v.368l-.908.141v-.74h-2.451v2.474h2.451v-.84l.908.186v.461c0 .354-.065.594-.197.727-.14.127-.4.194-.776.194h-2.326c-.375 0-.629-.067-.772-.194-.129-.133-.194-.373-.194-.727v-2.05c0-.35.065-.596.194-.727.143-.131.397-.196.772-.196zm8.689 1.85h2.585v-1.85h.905v2.973c0 .354-.064.594-.199.727-.134.127-.397.194-.769.194H137.936v-.728h3.491v-.645h-2.53c-.374 0-.631-.067-.763-.198-.133-.132-.198-.37-.198-.725v-1.598h.906v1.85zm10.546-1.85l2.241 3.894h-1.026l-.462-.853h-2.476l-.455.853h-.897l2.201-3.894h.874zm.376 2.342l-.843-1.588-.861 1.588h1.704zm9.7-1.985c.136.115.206.31.206.579v.867c0 .266-.07.452-.206.575-.141.124-.372.185-.68.185h-2.439v1.513h-.892v-3.895h3.331c.308 0 .534.06.68.176zm-1.08.493h-2.039v1.039h2.039c.159 0 .268-.024.329-.067.055-.045.081-.127.081-.243v-.42c0-.11-.026-.191-.081-.235-.061-.051-.17-.074-.329-.074zm6.584.844h2.439c.308 0 .539.06.68.185.136.123.205.31.205.575v.867c0 .27-.069.464-.205.579-.146.115-.372.176-.68.176h-3.331v-3.895h.892v1.513zm0 1.713h2.039c.159 0 .268-.023.329-.075.054-.043.081-.124.081-.234v-.42c0-.116-.027-.199-.081-.243-.061-.044-.17-.067-.329-.067h-2.039v1.039zm4.975.669h-.904v-3.895h.904v3.895z" clip-rule="evenodd"/></svg>