<svg width="190" height="94" viewBox="0 0 190 94" fill="none" xmlns="http://www.w3.org/2000/svg">
<rect x="1" y="1.17859" width="188" height="91.6429" rx="11" fill="white" stroke="black" stroke-width="2"/>
<path fill-rule="evenodd" clip-rule="evenodd" d="M19.0272 59.4058V59.1339H170.136V59.4058H19.0272V59.4058ZM162.421 56.0923C161.035 54.709 160.749 52.6505 161.553 50.9865L164.228 53.6552C164.517 53.9433 164.894 54.0878 165.273 54.0878C165.654 54.0878 166.032 53.9433 166.322 53.6552C166.9 53.0779 166.9 52.1438 166.322 51.5665L163.647 48.8965C165.317 48.0941 167.38 48.3775 168.764 49.7582C170.515 51.5079 170.515 54.3438 168.764 56.0923C167.012 57.84 164.171 57.84 162.421 56.0923V56.0923ZM163.647 46.4466L166.32 43.7771C166.898 43.2009 166.9 42.2658 166.32 41.6867C165.741 41.1113 164.805 41.1113 164.228 41.6867L161.553 44.3554C160.749 42.6918 161.035 40.6329 162.421 39.2513C164.171 37.504 167.012 37.504 168.764 39.2513C170.515 40.9985 170.515 43.8344 168.764 45.5823C167.38 46.9644 165.315 47.2478 163.647 46.4466V46.4466ZM168.741 35.7197C168.561 35.6373 168.426 35.5109 168.338 35.3403C168.249 35.1695 168.204 34.8644 168.204 34.4258V30.7229H167.432V30.231H168.204V28.8178L168.86 28.4005V30.231H169.902V30.7229H168.86V34.3422C168.86 34.5988 168.877 34.7915 168.91 34.9196C168.943 35.0475 169.007 35.1429 169.103 35.2052C169.198 35.2674 169.324 35.2988 169.48 35.2988C169.6 35.2988 169.771 35.2765 169.994 35.2311L170.077 35.755C169.794 35.8134 169.564 35.8423 169.389 35.8423C169.137 35.8423 168.921 35.8015 168.741 35.7197V35.7197ZM162.941 34.7494C163.268 35.1501 163.721 35.3503 164.299 35.3503C165.105 35.3503 165.669 34.9033 165.989 34.0086L166.625 34.1157C166.408 34.7452 166.104 35.1969 165.712 35.4695C165.321 35.7416 164.837 35.8778 164.259 35.8778C163.477 35.8778 162.865 35.6199 162.422 35.1044C161.979 34.5882 161.758 33.8839 161.758 32.9926C161.758 32.1013 161.981 31.3974 162.426 30.881C162.871 30.3653 163.486 30.1076 164.271 30.1076C165.873 30.1076 166.68 31.0973 166.693 33.0763H162.434C162.444 33.7904 162.614 34.3481 162.941 34.7494V34.7494ZM165.989 32.5403C165.888 31.2651 165.311 30.6275 164.255 30.6275C163.776 30.6275 163.372 30.7928 163.044 31.1234C162.717 31.4542 162.52 31.9263 162.454 32.5403H165.989ZM160.374 35.755L158.263 32.7349L157.436 33.477V35.755H156.783V28.1309H157.436V32.7942L160.132 30.231H161.046L158.744 32.2981L161.218 35.755H160.374V35.755ZM159.099 44.3579L156.423 41.689C155.845 41.1113 154.908 41.1113 154.33 41.689C153.752 42.2658 153.752 43.2009 154.33 43.7771L157.005 46.4452C155.335 47.2478 153.271 46.9644 151.888 45.5823C150.137 43.8344 150.137 40.9996 151.888 39.2519C153.639 37.504 156.48 37.504 158.233 39.2519C159.616 40.6329 159.901 42.6918 159.099 44.3579ZM155.073 30.7904C154.944 30.7904 154.825 30.8104 154.718 30.8514C154.61 30.8922 154.509 30.9581 154.414 31.048C154.318 31.1378 154.236 31.2424 154.167 31.3617C154.098 31.4809 154.047 31.6123 154.012 31.7571C153.978 31.9005 153.946 32.1137 153.916 32.3952C153.887 32.6775 153.873 32.9318 153.873 33.1594V35.755H153.224V30.231H153.797V31.3497C154.071 30.5219 154.501 30.1076 155.089 30.1076C155.392 30.1076 155.718 30.2183 156.068 30.4407L155.817 31.0006C155.484 30.8608 155.235 30.7904 155.073 30.7904V30.7904ZM155.377 54.0878C155.755 54.0878 156.134 53.9433 156.423 53.6552L159.098 50.9858C159.901 52.6505 159.616 54.709 158.233 56.0923C156.48 57.84 153.639 57.8394 151.886 56.0923C150.137 54.3433 150.137 51.5079 151.886 49.7582C153.271 48.3775 155.335 48.0941 157.005 48.8965L154.33 51.5659C153.752 52.1438 153.752 53.0779 154.33 53.6552C154.618 53.9433 154.997 54.0878 155.377 54.0878V54.0878ZM150.934 34.9141C150.335 35.5559 149.58 35.8778 148.672 35.8778C148.34 35.8778 148.044 35.8209 147.782 35.7053C147.522 35.5904 147.312 35.4172 147.156 35.1879C147 34.9574 146.921 34.6772 146.921 34.3464C146.921 34.1129 146.959 33.9055 147.031 33.7211C147.104 33.5374 147.214 33.3761 147.363 33.2369C147.511 33.0974 147.712 32.979 147.963 32.8796C148.216 32.7799 148.669 32.6858 149.323 32.5962C150.053 32.4954 150.569 32.3881 150.87 32.2743C150.87 31.9596 150.862 31.7172 150.844 31.5479C150.827 31.379 150.769 31.22 150.668 31.0718C150.567 30.9237 150.412 30.8104 150.202 30.7305C149.993 30.6509 149.735 30.6113 149.427 30.6113C148.47 30.6113 147.895 31.0197 147.701 31.8375L147.041 31.7387C147.245 30.6509 148.039 30.1076 149.423 30.1076C149.858 30.1076 150.223 30.1573 150.519 30.2563C150.814 30.3553 151.034 30.4956 151.178 30.6764C151.324 30.858 151.417 31.0826 151.461 31.3497C151.504 31.6171 151.527 31.9847 151.527 32.4532L151.507 34.0086C151.501 34.4241 151.52 34.7428 151.565 34.9657C151.608 35.1879 151.702 35.451 151.844 35.755H151.137C151.034 35.4954 150.966 35.2152 150.934 34.9141V34.9141ZM150.87 32.7863C150.502 32.9269 149.919 33.0657 149.12 33.2031C148.699 33.2771 148.392 33.3531 148.196 33.4305C148.002 33.5089 147.855 33.6228 147.755 33.7702C147.656 33.9185 147.606 34.0938 147.606 34.2948C147.606 34.5958 147.718 34.8395 147.942 35.0233C148.166 35.2062 148.454 35.2988 148.806 35.2988C149.014 35.2988 149.217 35.271 149.419 35.2169C149.62 35.1631 149.818 35.0824 150.011 34.9751C150.205 34.8684 150.367 34.7388 150.497 34.5865C150.627 34.4341 150.721 34.2391 150.781 34.0009C150.841 33.7626 150.87 33.477 150.87 33.1439V32.7863ZM144.942 32.3344C144.942 31.8287 144.901 31.4748 144.818 31.2721C144.736 31.07 144.607 30.9177 144.432 30.8151C144.258 30.7138 144.049 30.6634 143.808 30.6634C143.469 30.6634 143.184 30.7579 142.955 30.9468C142.725 31.1363 142.564 31.3949 142.469 31.7249C142.376 32.0539 142.328 32.4914 142.328 33.0359V35.755H141.681V32.2668C141.681 31.8833 141.648 31.5829 141.583 31.3658C141.518 31.1482 141.4 30.9806 141.229 30.8616C141.058 30.7424 140.842 30.683 140.579 30.683C140.115 30.683 139.744 30.8739 139.466 31.2562C139.188 31.639 139.048 32.1564 139.048 32.8109V35.755H138.4V30.231H139.048V31.028C139.51 30.4146 140.074 30.1076 140.743 30.1076C141.447 30.1076 141.937 30.4146 142.213 31.028C142.707 30.4146 143.285 30.1076 143.947 30.1076C145.042 30.1076 145.589 30.7369 145.589 31.9962V35.755H144.942V32.3344V32.3344ZM139.927 38.7371C140.501 38.923 140.944 39.1867 141.255 39.5275C141.596 39.8689 141.867 40.2247 142.07 40.5966C142.272 40.9683 142.419 41.372 142.512 41.8059C142.542 42.0226 142.566 42.2319 142.582 42.4328C142.597 42.6349 142.605 42.8282 142.605 43.0137C142.605 43.1074 142.605 43.2081 142.605 43.3158C142.605 43.425 142.621 43.5251 142.652 43.6182C142.652 43.7112 142.652 43.7966 142.652 43.8742C142.652 43.9519 142.652 44.0218 142.652 44.0828C142.652 44.1142 142.652 44.1372 142.652 44.1527C142.652 44.1689 142.652 44.192 142.652 44.2226C142.652 44.2536 142.652 44.2849 142.652 44.3157V51.9857C142.652 52.5126 142.682 52.9696 142.745 53.3571C142.807 53.7446 142.9 54.0924 143.024 54.402C143.148 54.7126 143.35 54.9448 143.63 55.0995C143.909 55.2556 144.282 55.3485 144.747 55.3787V56.6802H137.156V55.3326C137.59 55.3009 137.955 55.2004 138.25 55.0296C138.545 54.8601 138.754 54.6348 138.879 54.3563C139.003 54.0773 139.096 53.7446 139.158 53.3571C139.22 52.9696 139.252 52.5277 139.252 52.0318V44.1296C139.252 44.0989 139.252 44.0443 139.252 43.9666C139.252 43.8895 139.252 43.8204 139.252 43.7575C139.252 43.7271 139.252 43.6957 139.252 43.6643C139.252 43.6341 139.252 43.588 139.252 43.5251C139.22 43.4943 139.205 43.456 139.205 43.4091C139.205 43.3623 139.205 43.3241 139.205 43.2927C139.174 42.9521 139.112 42.619 139.019 42.2935C138.925 41.9682 138.786 41.6504 138.599 41.3399C138.413 41.0314 138.149 40.7988 137.808 40.6435C137.466 40.4882 137.032 40.4106 136.504 40.4106C136.41 40.4106 136.247 40.4338 136.014 40.4799C135.782 40.5267 135.494 40.5812 135.153 40.6435C134.78 40.7361 134.408 40.8991 134.036 41.1315C133.662 41.3637 133.274 41.6659 132.871 42.0375C132.747 42.1307 132.63 42.2319 132.521 42.3398C132.412 42.4488 132.312 42.565 132.219 42.6882C132.095 42.8127 131.986 42.9438 131.893 43.0836C131.8 43.2228 131.706 43.3709 131.613 43.5251V51.9857C131.613 52.4816 131.644 52.9148 131.706 53.2864C131.769 53.6588 131.861 54.0006 131.986 54.3094C132.141 54.6195 132.359 54.8601 132.638 55.0296C132.917 55.2004 133.274 55.3164 133.709 55.3787V56.6802H126.118V55.3326C126.552 55.3009 126.917 55.2004 127.212 55.0296C127.506 54.8601 127.717 54.6348 127.841 54.3563C127.964 54.0773 128.058 53.7446 128.12 53.3571C128.182 52.9696 128.213 52.5277 128.213 52.0318V42.5491C128.213 42.4874 128.213 42.4411 128.213 42.4097C128.182 42.3795 128.167 42.3476 128.167 42.3166C128.167 42.286 128.167 42.2546 128.167 42.2236C128.167 42.1926 128.167 42.162 128.167 42.1307C128.167 42.1005 128.167 42.0536 128.167 41.9913C128.136 41.961 128.12 41.9214 128.12 41.8751C128.12 41.829 128.12 41.7897 128.12 41.7591C128.089 41.6967 128.058 41.6274 128.027 41.5498C127.996 41.4729 127.964 41.3867 127.934 41.2938C127.871 41.2322 127.81 41.1621 127.748 41.085C127.685 41.0075 127.624 40.938 127.561 40.8759C127.437 40.7211 127.258 40.5891 127.026 40.4799C126.793 40.372 126.506 40.2715 126.164 40.1782V38.7838H131.613V41.0616H131.753C131.908 40.9067 132.079 40.7436 132.265 40.5736C132.451 40.403 132.638 40.2564 132.824 40.1315C133.011 39.9774 133.204 39.8451 133.406 39.7367C133.608 39.6282 133.818 39.5275 134.036 39.435C134.377 39.2491 134.718 39.0936 135.06 38.9697C135.401 38.8459 135.742 38.7535 136.084 38.6906C136.426 38.629 136.744 38.5746 137.039 38.5282C137.334 38.4815 137.606 38.4584 137.854 38.4584C138.661 38.4584 139.352 38.5514 139.927 38.7371V38.7371ZM133.123 32.3261C133.123 31.7308 133.008 31.3071 132.777 31.0535C132.546 30.8015 132.233 30.6753 131.839 30.6753C131.626 30.6753 131.428 30.711 131.244 30.7826C131.06 30.8536 130.889 30.9606 130.733 31.1013C130.576 31.2436 130.452 31.4068 130.362 31.5916C130.27 31.7773 130.207 31.9792 130.171 32.1989C130.134 32.419 130.117 32.8065 130.117 33.3618V35.755H129.465V30.231H130.117V31.048C130.613 30.421 131.207 30.1076 131.898 30.1076C133.152 30.1076 133.779 30.7892 133.779 32.1511V35.755H133.123V32.3261V32.3261ZM125.643 35.8778C125.264 35.8778 124.924 35.812 124.626 35.6794C124.326 35.5472 124.065 35.3503 123.844 35.0877C123.622 34.8265 123.456 34.5234 123.345 34.1792C123.233 33.8356 123.178 33.4521 123.178 33.0283C123.178 32.5891 123.226 32.1972 123.322 31.8519C123.42 31.5069 123.565 31.2077 123.76 30.9545C123.955 30.7027 124.201 30.4981 124.498 30.3422C124.795 30.1856 125.178 30.1076 125.647 30.1076C126.4 30.1076 127.001 30.3513 127.446 30.8395C127.893 31.3278 128.116 32.0499 128.116 33.0045C128.116 33.9155 127.901 34.6215 127.471 35.124C127.04 35.6265 126.431 35.8778 125.643 35.8778ZM127.226 31.7285C127.08 31.3722 126.877 31.1032 126.617 30.9196C126.358 30.7352 126.04 30.6434 125.667 30.6434C125.092 30.6434 124.647 30.8544 124.333 31.2764C124.018 31.6983 123.862 32.2649 123.862 32.9773C123.862 33.6801 124.022 34.2527 124.341 34.6931C124.66 35.1342 125.105 35.3545 125.675 35.3545C125.939 35.3545 126.177 35.3059 126.387 35.2094C126.596 35.1127 126.781 34.964 126.941 34.7626C127.101 34.5616 127.226 34.3126 127.313 34.015C127.401 33.7169 127.444 33.3805 127.444 33.0045C127.444 32.5101 127.372 32.0848 127.226 31.7285V31.7285ZM123.51 45.8492C123.54 46.067 123.571 46.2835 123.603 46.5002C123.633 46.7173 123.656 46.9349 123.673 47.1511C123.688 47.3685 123.696 47.5689 123.696 47.7552C123.696 48.9955 123.548 50.1027 123.253 51.0783C122.959 52.0549 122.5 52.8993 121.879 53.6125C121.29 54.2947 120.66 54.8839 119.993 55.3787C119.325 55.8746 118.634 56.2463 117.92 56.4939C117.641 56.5873 117.368 56.6647 117.106 56.7265C116.842 56.7881 116.584 56.8349 116.337 56.8663C116.058 56.9279 115.802 56.9657 115.569 56.9825C115.336 56.9978 115.094 57.0057 114.847 57.0057C114.629 57.0057 114.388 56.9978 114.125 56.9825C113.86 56.9657 113.604 56.9279 113.356 56.8663C113.077 56.8349 112.805 56.7881 112.541 56.7265C112.277 56.6647 112.021 56.5873 111.772 56.4939C111.027 56.2463 110.329 55.8746 109.677 55.3787C109.025 54.8839 108.388 54.2947 107.767 53.6125C107.177 52.8993 106.734 52.0549 106.439 51.0783C106.144 50.1027 105.997 48.9955 105.997 47.7552C105.997 47.5689 105.997 47.3685 105.997 47.1511C105.997 46.9349 106.012 46.7173 106.044 46.5002C106.074 46.2835 106.113 46.067 106.16 45.8492C106.206 45.6327 106.26 45.4156 106.323 45.1982C106.54 44.362 106.866 43.5489 107.301 42.7583C107.736 41.9682 108.294 41.2322 108.978 40.5505C109.661 39.8381 110.492 39.311 111.469 38.9697C112.448 38.629 113.573 38.4584 114.847 38.4584V38.4116C116.119 38.4435 117.237 38.629 118.2 38.9697C119.162 39.311 119.985 39.8381 120.668 40.5505C121.351 41.2322 121.918 41.9682 122.369 42.7583C122.818 43.5489 123.152 44.362 123.37 45.1982C123.431 45.4156 123.478 45.6327 123.51 45.8492V45.8492ZM119.784 48.1036C119.784 47.9957 119.784 47.895 119.784 47.8021C119.784 47.7087 119.784 47.6003 119.784 47.4766C119.784 47.3534 119.784 47.2287 119.784 47.105C119.752 46.9803 119.737 46.8488 119.737 46.7092C119.737 46.5697 119.737 46.4228 119.737 46.2677C119.737 45.9888 119.721 45.695 119.691 45.385C119.659 45.075 119.612 44.765 119.551 44.4552C119.458 43.8975 119.302 43.3558 119.085 42.8282C118.867 42.3013 118.588 41.8059 118.246 41.3399C117.904 40.8759 117.455 40.5196 116.896 40.2715C116.337 40.0237 115.653 39.8992 114.847 39.8992V39.8531C114.039 39.8844 113.348 40.0237 112.774 40.2715C112.199 40.5196 111.741 40.8759 111.4 41.3399C111.058 41.8362 110.779 42.3476 110.562 42.8743C110.344 43.4019 110.189 43.9436 110.096 44.5013C110.065 44.8118 110.026 45.1211 109.98 45.4311C109.933 45.7411 109.909 46.0357 109.909 46.3143C109.909 46.5935 109.909 46.8565 109.909 47.105C109.909 47.3534 109.909 47.5856 109.909 47.8021C109.909 48.0188 109.909 48.2364 109.909 48.452C109.909 48.6696 109.909 48.9018 109.909 49.1496C109.909 49.3671 109.925 49.5911 109.956 49.8241C109.987 50.0563 110.018 50.2971 110.049 50.5443C110.111 51.1949 110.251 51.8155 110.468 52.404C110.686 52.9927 110.95 53.5507 111.26 54.0773C111.602 54.6042 112.067 54.9994 112.657 55.2623C113.247 55.5263 113.977 55.6572 114.847 55.6572C115.685 55.6572 116.407 55.5263 117.012 55.2623C117.618 54.9994 118.076 54.6042 118.386 54.0773C118.728 53.5507 118.999 52.9927 119.202 52.404C119.403 51.8155 119.551 51.1949 119.644 50.5443C119.675 50.2971 119.698 50.0563 119.714 49.8241C119.729 49.5911 119.737 49.3671 119.737 49.1496C119.737 49.0265 119.737 48.9101 119.737 48.8011C119.737 48.6926 119.752 48.5766 119.784 48.452C119.784 48.3288 119.784 48.2126 119.784 48.1036V48.1036ZM121.182 30.231H121.834V35.755H121.182V30.231ZM121.182 28.1309H121.834V29.1035H121.182V28.1309V28.1309ZM118.879 32.3261C118.879 31.7308 118.763 31.3071 118.533 31.0535C118.302 30.8015 117.99 30.6753 117.594 30.6753C117.382 30.6753 117.185 30.711 117 30.7826C116.816 30.8536 116.645 30.9606 116.489 31.1013C116.332 31.2436 116.208 31.4068 116.118 31.5916C116.026 31.7773 115.962 31.9792 115.926 32.1989C115.89 32.419 115.873 32.8065 115.873 33.3618V35.755H115.221V28.1309H115.873V31.048C116.369 30.421 116.962 30.1076 117.655 30.1076C118.908 30.1076 119.535 30.7892 119.535 32.1511V35.755H118.879V32.3261V32.3261ZM110.967 32.3301C111.234 32.4309 111.574 32.5286 111.988 32.624C112.772 32.8037 113.284 33.0223 113.522 33.2807C113.762 33.5386 113.88 33.8422 113.88 34.1917C113.88 34.5433 113.795 34.8429 113.624 35.0902C113.453 35.338 113.204 35.5317 112.876 35.6739C112.549 35.8156 112.163 35.8855 111.721 35.8855C111.437 35.8855 111.179 35.8587 110.946 35.8051C110.713 35.751 110.5 35.6662 110.31 35.5523C110.119 35.4386 109.952 35.2852 109.808 35.0925C109.665 34.8994 109.55 34.6215 109.462 34.2587L110.122 34.1518C110.221 34.5722 110.411 34.878 110.696 35.0683C110.979 35.2585 111.329 35.3545 111.745 35.3545C112.031 35.3545 112.286 35.3063 112.51 35.2117C112.734 35.1163 112.905 34.9906 113.021 34.8361C113.138 34.6812 113.196 34.4964 113.196 34.2822C113.196 34.0874 113.13 33.9185 112.998 33.7779C112.865 33.638 112.688 33.5286 112.467 33.449C112.245 33.3697 111.932 33.2879 111.526 33.2031C110.265 32.9388 109.633 32.423 109.633 31.6549C109.633 31.1763 109.82 30.7992 110.192 30.5223C110.564 30.2457 111.032 30.1076 111.594 30.1076C112.713 30.1076 113.397 30.5946 113.645 31.568L113.009 31.6634C112.89 31.2746 112.729 31.0067 112.526 30.8591C112.324 30.7127 112.016 30.6392 111.605 30.6392C111.346 30.6392 111.113 30.6783 110.906 30.7563C110.7 30.8348 110.545 30.9385 110.443 31.0683C110.341 31.1982 110.29 31.352 110.29 31.5324C110.29 31.7119 110.336 31.8655 110.429 31.9906C110.522 32.1162 110.701 32.2292 110.967 32.3301V32.3301ZM107.625 34.9141C107.026 35.5559 106.272 35.8778 105.363 35.8778C105.032 35.8778 104.735 35.8209 104.474 35.7053C104.213 35.5904 104.004 35.4172 103.848 35.1879C103.691 34.9574 103.613 34.6772 103.613 34.3464C103.613 34.1129 103.65 33.9055 103.723 33.7211C103.795 33.5374 103.906 33.3761 104.054 33.2369C104.203 33.0974 104.403 32.979 104.655 32.8796C104.907 32.7799 105.36 32.6858 106.014 32.5962C106.743 32.4954 107.26 32.3881 107.562 32.2743C107.562 31.9596 107.553 31.7172 107.536 31.5479C107.518 31.379 107.459 31.22 107.359 31.0718C107.258 30.9237 107.103 30.8104 106.894 30.7305C106.684 30.6509 106.426 30.6113 106.118 30.6113C105.161 30.6113 104.586 31.0197 104.392 31.8375L103.732 31.7387C103.936 30.6509 104.73 30.1076 106.114 30.1076C106.549 30.1076 106.914 30.1573 107.209 30.2563C107.505 30.3553 107.726 30.4956 107.87 30.6764C108.014 30.858 108.108 31.0826 108.152 31.3497C108.196 31.6171 108.218 31.9847 108.218 32.4532L108.199 34.0086C108.193 34.4241 108.212 34.7428 108.255 34.9657C108.299 35.1879 108.393 35.451 108.536 35.755H107.828C107.725 35.4954 107.657 35.2152 107.625 34.9141V34.9141ZM107.562 32.7863C107.193 32.9269 106.609 33.0657 105.812 33.2031C105.391 33.2771 105.082 33.3531 104.887 33.4305C104.693 33.5089 104.545 33.6228 104.446 33.7702C104.347 33.9185 104.297 34.0938 104.297 34.2948C104.297 34.5958 104.409 34.8395 104.633 35.0233C104.857 35.2062 105.145 35.2988 105.498 35.2988C105.704 35.2988 105.908 35.271 106.111 35.2169C106.312 35.1631 106.509 35.0824 106.703 34.9751C106.896 34.8684 107.058 34.7388 107.188 34.5865C107.318 34.4341 107.413 34.2391 107.473 34.0009C107.532 33.7626 107.562 33.477 107.562 33.1439V32.7863V32.7863ZM103.995 54.9603C103.932 55.0226 103.87 55.0842 103.809 55.1464C103.746 55.2087 103.692 55.2623 103.646 55.3088C103.599 55.3557 103.544 55.4101 103.483 55.4717C103.047 55.8746 102.621 56.1854 102.202 56.4017C101.783 56.6186 101.371 56.7418 100.968 56.7733C100.564 56.8349 100.222 56.8893 99.9432 56.9358C99.6634 56.9825 99.4459 57.0057 99.2912 57.0057C98.6079 57.0057 98.0105 56.9279 97.4976 56.7733C96.9852 56.6186 96.5585 56.3707 96.2175 56.0294C95.8749 55.6887 95.619 55.2087 95.4489 54.5879C95.2768 53.9686 95.1922 53.2256 95.1922 52.3566V40.2247H93.1428V38.7838H95.1922V34.7399L98.592 32.88V38.7838H102.458V40.2247H98.592V52.1716C98.592 52.2642 98.592 52.3496 98.592 52.4272C98.592 52.5047 98.592 52.5897 98.592 52.6826C98.592 52.7756 98.5996 52.8615 98.6154 52.9379C98.6309 53.0157 98.654 53.0856 98.6855 53.1478C98.7156 53.3646 98.7785 53.5734 98.8722 53.7748C98.9651 53.9771 99.0885 54.1547 99.2445 54.3094C99.3991 54.4957 99.609 54.6272 99.8733 54.7043C100.137 54.7823 100.455 54.8208 100.827 54.8208C101.076 54.8208 101.309 54.7978 101.527 54.7504C101.743 54.7043 101.961 54.6348 102.179 54.5418C102.396 54.4492 102.605 54.3402 102.807 54.2171C103.009 54.0924 103.204 53.9686 103.39 53.8449L104.181 54.7279C104.118 54.8208 104.057 54.8987 103.995 54.9603V54.9603ZM102.726 28.5998C102.54 28.5998 102.386 28.627 102.263 28.6828C102.14 28.7379 102.044 28.8345 101.974 28.9703C101.905 29.1071 101.871 29.3667 101.871 29.7502V30.231H103.029V30.7229H101.871V35.755H101.223V30.7229H100.34V30.231H101.223V29.6553C101.223 29.2712 101.261 28.9692 101.338 28.7479C101.415 28.5275 101.561 28.3472 101.778 28.2086C101.994 28.0693 102.259 28 102.575 28C102.761 28 103.027 28.0438 103.375 28.1309L103.267 28.6548C103.018 28.6176 102.837 28.5998 102.726 28.5998V28.5998ZM90.6286 56.6339C90.4112 56.7265 90.1544 56.8119 89.8597 56.8893C89.5641 56.9657 89.2465 57.0057 88.9051 57.0057C88.5014 57.0057 88.1294 56.9426 87.7873 56.8194C87.4453 56.6949 87.1508 56.5257 86.9025 56.308C86.6534 56.0604 86.4437 55.7892 86.2742 55.4949C86.1023 55.2004 85.9714 54.8839 85.8784 54.5418L85.7853 54.4957C85.7218 54.5879 85.6602 54.6663 85.5986 54.7279C85.5357 54.7902 85.4741 54.8518 85.4118 54.9134C85.3498 54.9761 85.2875 55.0296 85.2259 55.0765C85.1635 55.1227 85.1014 55.1771 85.0396 55.2393C84.5737 55.6419 84.115 55.975 83.6652 56.2387C83.2154 56.5019 82.7727 56.6494 82.3382 56.6802C81.9341 56.7733 81.5535 56.8504 81.1973 56.9124C80.8399 56.9747 80.5376 57.0057 80.2888 57.0057C79.3263 57.0057 78.4958 56.8893 77.7972 56.6564C77.0983 56.424 76.5318 56.0603 76.0974 55.5642C75.6931 55.0373 75.3827 54.4957 75.1657 53.9378C74.948 53.3801 74.8396 52.7917 74.8396 52.1716C74.8396 50.9011 75.1111 49.8471 75.6546 49.0102C76.1976 48.1737 77.0129 47.5542 78.0994 47.1511C79.1865 46.7173 80.3274 46.3765 81.5227 46.1282C82.7181 45.8809 83.9688 45.7098 85.2727 45.6172H85.3188C85.3498 45.6172 85.3812 45.6172 85.4118 45.6172C85.4118 44.8736 85.3657 44.1757 85.2727 43.5251C85.1794 42.8743 85.0551 42.2546 84.8996 41.6659C84.7137 41.0774 84.3793 40.6359 83.8989 40.3414C83.417 40.0473 82.7727 39.8992 81.9655 39.8992C81.6549 39.8992 81.3757 39.9305 81.1274 39.9929C80.8784 40.055 80.6771 40.1629 80.5218 40.3169C80.3659 40.4421 80.2265 40.5736 80.1027 40.713C79.978 40.8523 79.8851 40.9996 79.8235 41.1545C79.7921 41.248 79.753 41.3334 79.7068 41.4105C79.6601 41.4882 79.6367 41.5581 79.6367 41.6197C79.6053 41.682 79.5817 41.7436 79.5668 41.8059C79.5509 41.8675 79.5437 41.9297 79.5437 41.9913C79.5124 42.0226 79.4893 42.0612 79.4738 42.108C79.4583 42.1537 79.4502 42.2089 79.4502 42.2697C79.4192 42.3326 79.3956 42.3944 79.3807 42.456C79.3648 42.5189 79.3418 42.5797 79.3104 42.6421C79.2481 42.735 79.1715 42.8282 79.0778 42.9206C78.9849 43.0137 78.8912 43.0912 78.7982 43.1529C78.6743 43.2466 78.5423 43.309 78.4023 43.339C78.2628 43.3709 78.0994 43.3853 77.9131 43.3853C77.8825 43.3853 77.8512 43.3853 77.8202 43.3853C77.7888 43.3853 77.7658 43.3853 77.7509 43.3853C77.7342 43.3853 77.7119 43.3853 77.6806 43.3853C77.6496 43.3853 77.6266 43.3853 77.6103 43.3853C77.5952 43.3853 77.5873 43.3709 77.5873 43.339C77.5559 43.339 77.5334 43.339 77.5174 43.339C77.5015 43.339 77.4783 43.339 77.4475 43.339C77.323 43.309 77.1985 43.2625 77.0753 43.1998C76.951 43.1376 76.8423 43.0605 76.7494 42.968C76.6247 42.8743 76.5395 42.7428 76.4927 42.5722C76.4464 42.4025 76.4233 42.2089 76.4233 41.9913C76.4233 41.961 76.4233 41.9297 76.4233 41.8981C76.4233 41.8675 76.4233 41.8445 76.4233 41.829C76.4233 41.8127 76.4233 41.7897 76.4233 41.7591C76.4849 41.3251 76.6633 40.9222 76.9593 40.5505C77.2538 40.1782 77.6806 39.8228 78.2398 39.4814C78.7674 39.1404 79.3807 38.885 80.0795 38.7137C80.7777 38.5444 81.5463 38.4584 82.3845 38.4584C83.4714 38.4584 84.4026 38.5829 85.1794 38.8306C85.9547 39.0785 86.5449 39.4512 86.9486 39.946C87.3837 40.4421 87.7406 40.9611 88.0208 41.5031C88.3 42.0459 88.5014 42.6111 88.6261 43.1998C88.6877 43.4783 88.7262 43.7575 88.7426 44.0367C88.757 44.3157 88.7659 44.5942 88.7659 44.8736C88.7659 44.9972 88.7659 45.129 88.7659 45.2683C88.7659 45.4073 88.7806 45.5396 88.8122 45.6629C88.8122 45.7566 88.8122 45.8651 88.8122 45.9888C88.8122 46.1127 88.8122 46.2212 88.8122 46.3143V46.3606V46.4073V52.2173C88.8122 52.8377 88.859 53.3416 88.952 53.7287C89.0449 54.1162 89.1849 54.402 89.371 54.5879C89.5569 54.8055 89.7509 54.9603 89.9531 55.0532C90.1544 55.1464 90.3643 55.1771 90.5818 55.1464C90.6128 55.1464 90.6358 55.1464 90.6517 55.1464C90.6672 55.1464 90.6908 55.1464 90.7212 55.1464C90.7518 55.1464 90.7834 55.1464 90.8147 55.1464C90.8449 55.1464 90.8763 55.1309 90.9084 55.0995C90.9386 55.0995 90.97 55.0995 91.0008 55.0995C91.0316 55.0995 91.063 55.0995 91.0945 55.0995C91.1561 55.0693 91.2029 55.0532 91.2343 55.0532C91.2645 55.0532 91.2959 55.0457 91.3274 55.0296C91.3575 55.0143 91.389 54.9912 91.4198 54.9603C91.482 54.9293 91.5288 54.9134 91.5602 54.9134V54.8673L91.8857 55.3787C91.6996 55.6572 91.5058 55.8973 91.3038 56.0989C91.1015 56.3008 90.8763 56.4792 90.6286 56.6339V56.6339ZM85.4118 47.105C84.1702 47.1973 83.1141 47.3764 82.2445 47.6388C81.3757 47.9026 80.6771 48.2517 80.1488 48.6851C79.6522 49.1496 79.2647 49.631 78.9849 50.1258C78.7051 50.6225 78.5339 51.1333 78.4727 51.6596C78.4727 51.6904 78.4727 51.7225 78.4727 51.7528C78.4727 51.7841 78.4727 51.8078 78.4727 51.8227C78.4727 51.8385 78.4727 51.8618 78.4727 51.8926C78.4727 51.9234 78.4727 51.9547 78.4727 51.9857C78.4727 52.0163 78.4727 52.0477 78.4727 52.0787C78.4727 52.5432 78.5423 52.9613 78.6821 53.3333C78.8219 53.7049 79.0472 54.0308 79.3573 54.3094C79.6676 54.5879 80.0166 54.7978 80.4056 54.9365C80.7931 55.0765 81.2359 55.1464 81.7325 55.1464C82.5398 55.1464 83.1999 54.9912 83.7121 54.6812C84.2248 54.3718 84.5892 53.8912 84.8067 53.2403C84.9933 52.6211 85.1399 51.9389 85.2489 51.1949C85.3579 50.4511 85.4118 49.6457 85.4118 48.778V47.105V47.105ZM73.1163 41.7591C72.9923 41.883 72.837 41.9835 72.6502 42.0612C72.4643 42.139 72.2469 42.1768 71.9984 42.1768C71.8431 42.1768 71.6962 42.162 71.5558 42.1307C71.4164 42.1005 71.2998 42.0689 71.2065 42.0375C71.1135 41.976 71.0276 41.9214 70.9505 41.8751C70.873 41.829 70.8024 41.7897 70.7413 41.7591C70.71 41.7281 70.6786 41.6967 70.6476 41.6659C70.6163 41.6351 70.5853 41.6043 70.5547 41.573C70.5231 41.542 70.5001 41.519 70.4852 41.5031C70.4687 41.4882 70.4616 41.4649 70.4616 41.4328C70.3994 41.372 70.3365 41.3021 70.2749 41.2244C70.2133 41.1468 70.151 41.0922 70.0894 41.0616C70.0261 40.9996 69.9494 40.9611 69.8559 40.9452C69.7629 40.9297 69.6537 40.9222 69.5306 40.9222C69.4676 40.9222 69.397 40.9297 69.3207 40.9452C69.243 40.9611 69.1726 40.9845 69.1108 41.0151C69.0802 41.0465 69.0409 41.0697 68.9948 41.085C68.9479 41.1005 68.9086 41.1082 68.878 41.1082C68.8157 41.139 68.769 41.1621 68.738 41.1776C68.7067 41.1942 68.6757 41.2173 68.6451 41.248C68.3661 41.4328 68.1099 41.6967 67.8769 42.0375C67.644 42.3795 67.4182 42.7974 67.2014 43.2927C66.9839 43.789 66.8284 44.3382 66.7355 44.9428C66.6425 45.5467 66.5961 46.2212 66.5961 46.9652V51.9857C66.5961 52.4816 66.6263 52.9231 66.6886 53.3102C66.7513 53.6977 66.8445 54.0463 66.9688 54.3563C67.0923 54.6663 67.2943 54.907 67.5741 55.0765C67.8539 55.2472 68.2259 55.3485 68.6919 55.3787V56.6802H61.0998V55.3326C61.5341 55.3009 61.8991 55.2004 62.1944 55.0296C62.4889 54.8601 62.6986 54.6348 62.8231 54.3563C62.9471 54.0773 63.04 53.7446 63.1023 53.3571C63.1645 52.9696 63.1959 52.5277 63.1959 52.0318V42.5491C63.1959 42.2395 63.1492 41.945 63.0563 41.6659C62.9629 41.3867 62.8392 41.1545 62.6831 40.9683C62.528 40.7829 62.3183 40.628 62.0552 40.5043C61.7901 40.3798 61.4873 40.2715 61.1465 40.1782V38.7838H66.5961V41.6659H66.7823C67.0308 41.2635 67.3098 40.8759 67.6202 40.5043C67.9302 40.1315 68.2723 39.7907 68.6451 39.4814C68.9865 39.1404 69.3823 38.885 69.8328 38.7137C70.2825 38.5444 70.7876 38.4584 71.3466 38.4584C71.7194 38.4584 72.0525 38.5129 72.3481 38.6207C72.6426 38.7299 72.8831 38.8767 73.07 39.063C73.2559 39.2491 73.3961 39.466 73.4884 39.7131C73.5821 39.9619 73.629 40.2247 73.629 40.5043C73.629 40.5345 73.629 40.5581 73.629 40.5736C73.629 40.5891 73.629 40.6129 73.629 40.6435C73.629 40.6745 73.629 40.7058 73.629 40.7361C73.5973 40.9222 73.5436 41.1005 73.4652 41.2705C73.3877 41.4411 73.2714 41.6043 73.1163 41.7591V41.7591ZM50.8766 55.3326C51.3109 55.3009 51.6685 55.2004 51.9481 55.0296C52.2273 54.8601 52.4283 54.6195 52.5532 54.3094C52.6772 54.0006 52.7701 53.6588 52.833 53.2864C52.8946 52.9148 52.926 52.4964 52.926 52.0318V43.633C52.926 43.1376 52.8946 42.7029 52.833 42.3317C52.7701 41.9599 52.6772 41.6499 52.5532 41.4014C52.4283 41.1545 52.2273 40.9369 51.9481 40.7516C51.6685 40.5647 51.3109 40.4106 50.8766 40.2863V38.8916H56.3261V51.9857C56.3261 52.5126 56.3564 52.9696 56.4195 53.3571C56.4811 53.7446 56.574 54.0924 56.6985 54.402C56.853 54.7126 57.0718 54.9448 57.351 55.0995C57.6301 55.2556 57.9869 55.3485 58.422 55.3787V56.6802H50.8766V55.3326V55.3326ZM55.6744 34.647C55.4562 34.8644 55.2149 35.0186 54.9512 35.1115C54.688 35.2052 54.4165 35.2513 54.1375 35.2513C53.8256 35.2513 53.5466 35.2052 53.2987 35.1115C53.0499 35.0186 52.8166 34.8644 52.6001 34.647C52.3819 34.4615 52.219 34.2523 52.1111 34.0198C52.0016 33.787 51.9315 33.5475 51.9013 33.299C51.8699 33.2682 51.8544 33.2452 51.8544 33.2291C51.8544 33.2144 51.8544 33.1908 51.8544 33.1598C51.8544 33.129 51.8544 33.0975 51.8544 33.0661C51.8544 33.0359 51.8544 33.0045 51.8544 32.9743V32.9269C51.8544 32.6797 51.9084 32.4238 52.0182 32.1604C52.1259 31.8969 52.2889 31.6573 52.5066 31.4393C52.7232 31.1922 52.9722 31.0142 53.2515 30.9047C53.5318 30.7968 53.8256 30.7424 54.1375 30.7424C54.4165 30.7424 54.688 30.7968 54.9512 30.9047C55.2149 31.0142 55.4562 31.1608 55.6744 31.3469C55.922 31.5324 56.1004 31.7646 56.2102 32.0438C56.3178 32.3229 56.3726 32.6329 56.3726 32.9743C56.3726 33.3151 56.3178 33.6245 56.2102 33.9038C56.1004 34.1828 55.922 34.4312 55.6744 34.647V34.647ZM41.1192 55.3326C41.5539 55.3009 41.9189 55.2004 42.2145 55.0296C42.5093 54.8601 42.7184 54.6348 42.8427 54.3563C42.9666 54.0773 43.0598 53.7446 43.1225 53.3571C43.1848 52.9696 43.2156 52.5277 43.2156 52.0318V44.1296C43.2156 43.6027 43.1688 43.115 43.0756 42.6651C42.9827 42.2165 42.8427 41.821 42.6568 41.4797C42.4707 41.139 42.1909 40.8759 41.8182 40.6898C41.4458 40.5043 40.996 40.4106 40.468 40.4106C40.2819 40.4106 40.072 40.4266 39.8387 40.4568C39.6063 40.4882 39.3496 40.5345 39.0705 40.5966C38.946 40.628 38.8062 40.6665 38.6513 40.713C38.4955 40.7591 38.3564 40.829 38.2319 40.9222C38.0766 40.9845 37.9296 41.0616 37.7889 41.1545C37.6498 41.248 37.5023 41.3399 37.347 41.4328C37.1915 41.5581 37.0362 41.6967 36.8817 41.852C36.7258 42.0073 36.5705 42.162 36.4158 42.3166C36.2913 42.4721 36.1591 42.6421 36.02 42.8282C35.88 43.0137 35.7319 43.2311 35.5772 43.4783V51.9857C35.5772 52.5126 35.6074 52.9696 35.6707 53.3571C35.7319 53.7446 35.8256 54.0924 35.9494 54.402C36.0737 54.7126 36.276 54.9448 36.5556 55.0995C36.8348 55.2556 37.2076 55.3485 37.6729 55.3787V56.6802H30.0811V55.3326C30.5162 55.3009 30.8803 55.2004 31.1759 55.0296C31.4704 54.8601 31.6803 54.6348 31.8047 54.3563C31.9282 54.0773 32.0212 53.7446 32.0841 53.3571C32.146 52.9696 32.1776 52.5277 32.1776 52.0318V44.1296C32.1776 44.0989 32.1776 44.0443 32.1776 43.9666C32.1776 43.8895 32.1776 43.8204 32.1776 43.7575C32.1776 43.7271 32.1776 43.6957 32.1776 43.6643C32.1776 43.6341 32.1776 43.588 32.1776 43.5251C32.146 43.4943 32.1309 43.456 32.1309 43.4091C32.1309 43.3623 32.1309 43.3241 32.1309 43.2927C32.0992 42.9521 32.0376 42.619 31.9441 42.2935C31.8511 41.9682 31.7117 41.6504 31.5252 41.3399C31.339 41.0314 31.0747 40.7988 30.7333 40.6435C30.3911 40.4882 29.9568 40.4106 29.4294 40.4106C29.3364 40.4106 29.1734 40.4338 28.9404 40.4799C28.7075 40.5267 28.4194 40.5812 28.0786 40.6435C27.7058 40.7361 27.3337 40.8991 26.9615 41.1315C26.5882 41.3637 26.1992 41.6659 25.7962 42.0375C25.6717 42.1307 25.5557 42.2319 25.4473 42.3398C25.3375 42.4488 25.238 42.565 25.1444 42.6882C25.0198 42.8127 24.9115 42.9438 24.8182 43.0836C24.7252 43.2228 24.6323 43.3709 24.5391 43.5251V51.9857C24.5391 52.4816 24.5686 52.9148 24.6323 53.2864C24.6939 53.6588 24.7876 54.0006 24.9115 54.3094C25.0666 54.6195 25.2843 54.8601 25.564 55.0296C25.8431 55.2004 26.1992 55.3164 26.6348 55.3787V56.6802H19.0427V55.3326C19.4778 55.3009 19.8422 55.2004 20.1379 55.0296C20.432 54.8601 20.6423 54.6348 20.7662 54.3563C20.8901 54.0773 20.9831 53.7446 21.046 53.3571C21.1076 52.9696 21.139 52.5277 21.139 52.0318V42.5491C21.139 42.4874 21.139 42.4411 21.139 42.4097C21.1076 42.3795 21.0929 42.3476 21.0929 42.3166C21.0929 42.286 21.0929 42.2546 21.0929 42.2236C21.0929 42.1926 21.0929 42.162 21.0929 42.1307C21.0929 42.1005 21.0929 42.0536 21.0929 41.9913C21.0607 41.961 21.046 41.9214 21.046 41.8751C21.046 41.829 21.046 41.7897 21.046 41.7591C21.0145 41.6967 20.9831 41.6274 20.9523 41.5498C20.9215 41.4729 20.8901 41.3867 20.8592 41.2938C20.7964 41.2322 20.7349 41.1621 20.6731 41.085C20.6104 41.0075 20.5488 40.938 20.4872 40.8759C20.3625 40.7211 20.1843 40.5891 19.9514 40.4799C19.7183 40.372 19.4309 40.2715 19.0899 40.1782V38.7838H24.5391V41.0616H24.6784C24.8333 40.938 24.9967 40.7988 25.1675 40.6435C25.3375 40.4882 25.5172 40.349 25.7033 40.2247C25.8586 40.0697 26.0214 39.9388 26.192 39.8296C26.3628 39.7219 26.5417 39.6205 26.7278 39.5275C26.9141 39.435 27.1005 39.342 27.2868 39.2491C27.4736 39.1559 27.6597 39.0785 27.8456 39.0161C28.0011 38.923 28.1719 38.8537 28.3584 38.8068C28.5446 38.7605 28.7307 38.722 28.9174 38.6906C29.258 38.629 29.5846 38.5746 29.8952 38.5282C30.2051 38.4815 30.5003 38.4584 30.7801 38.4584C30.8107 38.4584 30.8423 38.4584 30.8736 38.4584C30.9347 38.4584 30.9821 38.4584 31.0131 38.4584C31.4474 38.4892 31.8666 38.5591 32.2707 38.6676C32.6737 38.7766 33.0772 38.9391 33.4815 39.1559C33.8537 39.3723 34.1796 39.6443 34.459 39.9691C34.7384 40.2946 34.9721 40.6745 35.1576 41.1082L35.2519 41.0616C35.8411 40.5345 36.4158 40.0936 36.9746 39.7367C37.5337 39.3813 38.0766 39.1251 38.6047 38.9697C39.1327 38.8151 39.6365 38.6906 40.1189 38.5981C40.5995 38.5051 41.0417 38.4584 41.4458 38.4584C42.2839 38.4584 43.0065 38.5514 43.6122 38.7371C44.2173 38.923 44.6903 39.1867 45.0329 39.5275C45.3735 39.8689 45.6608 40.2247 45.894 40.5966C46.1261 40.9683 46.3052 41.3565 46.4297 41.7591C46.4913 41.976 46.5299 42.1926 46.5459 42.4097C46.5612 42.6266 46.569 42.8282 46.569 43.0137C46.569 43.1074 46.569 43.2081 46.569 43.3158C46.569 43.425 46.5845 43.5251 46.6158 43.6182C46.6158 43.7112 46.6158 43.7966 46.6158 43.8742C46.6158 43.9519 46.6158 44.0218 46.6158 44.0828V44.1296V44.1757V51.9857C46.6158 52.5126 46.6461 52.9696 46.7088 53.3571C46.7704 53.7446 46.8641 54.0924 46.988 54.402C47.1433 54.7126 47.3609 54.9448 47.6405 55.0995C47.9201 55.2556 48.2764 55.3485 48.7117 55.3787V56.6802H41.1192V55.3326V55.3326ZM19.9714 61.8678H22.3014C22.6758 61.8678 22.9301 61.9326 23.0688 62.0635C23.2003 62.1952 23.2679 62.4404 23.2679 62.7908V63.1592V64.4732V64.8412C23.2679 65.1945 23.2003 65.4351 23.0688 65.568C22.9301 65.6955 22.6758 65.7624 22.3014 65.7624H19.9714C19.597 65.7624 19.3378 65.6955 19.2016 65.568C19.0693 65.4351 19 65.1945 19 64.8412V62.7908C19 62.4404 19.0693 62.1952 19.2016 62.0635C19.3378 61.9326 19.597 61.8678 19.9714 61.8678ZM19.9063 65.0335H22.3594V64.2867V63.3003V62.5596H19.9063V65.0335V65.0335ZM28.4526 61.8109H29.7197H30.9158H31.8831V62.5394H29.654H28.388V63.1836H30.9158C31.2893 63.1836 31.5447 63.2507 31.6786 63.3822C31.8137 63.5131 31.8831 63.5424 31.8831 63.896V64.807H31.8817V64.8412C31.8817 65.1945 31.8143 65.4351 31.6826 65.568C31.5439 65.6955 31.2897 65.7624 30.9158 65.7624H28.4687C28.0941 65.7624 27.8209 65.6955 27.6847 65.568C27.5524 65.4351 27.4829 65.1945 27.4829 64.8412V64.807V64.3961V62.7321C27.4829 62.378 27.5453 62.1383 27.6798 62.0047C27.8209 61.878 28.0797 61.8109 28.4526 61.8109V61.8109ZM28.388 64.3961H28.3897V65.0335H30.9732V64.807H30.9713V63.8552H28.388V64.3961ZM36.925 63.7181H39.5096V61.8678H40.4153V64.8412C40.4153 65.1945 40.351 65.4351 40.2167 65.568C40.0828 65.6955 39.8188 65.7624 39.4472 65.7624H38.1724H36.9807H36.0187V65.0335H38.2472H39.5096V64.3893H36.9807C36.6061 64.3893 36.3495 64.3222 36.2173 64.1913C36.0839 64.0594 36.0187 63.8203 36.0187 63.4664V61.8678H36.925V63.7181V63.7181ZM48.8774 62.0505C49.0102 62.1702 49.079 62.3593 49.079 62.6223V63.0976C49.079 63.2826 49.021 63.4271 48.904 63.5452C48.7884 63.6625 48.6184 63.7343 48.4034 63.7549C48.6292 63.7876 48.8047 63.8658 48.9273 63.9956C49.0482 64.1242 49.1111 64.2924 49.1111 64.5006V65.0008C49.1111 65.2504 49.0138 65.4418 48.823 65.5755C48.6394 65.6979 48.3494 65.7624 47.9623 65.7624H44.8632V61.8678H48.2046C48.5064 61.8678 48.7304 61.9277 48.8774 62.0505V62.0505ZM45.7534 65.0613H47.8211C47.9991 65.0613 48.1147 65.035 48.1674 64.9848C48.2292 64.9338 48.2594 64.8444 48.2594 64.7144V64.4193C48.2594 64.2907 48.2292 64.1977 48.1674 64.1448C48.1111 64.0915 47.9991 64.0732 47.8211 64.0732H45.7534V65.0613ZM47.8211 62.5003H45.7534V63.432H47.8211C47.9725 63.432 48.0822 63.4135 48.1466 63.3719C48.2046 63.3211 48.2396 63.2499 48.2396 63.1505V62.7765C48.2396 62.6775 48.2046 62.6057 48.1466 62.556C48.0822 62.5182 47.9725 62.5003 47.8211 62.5003V62.5003ZM53.7417 63.381H56.1803C56.4875 63.381 56.7187 63.4415 56.8595 63.5658C56.9966 63.688 57.0658 63.8747 57.0658 64.1401V65.0072C57.0658 65.2776 56.9966 65.4714 56.8595 65.5863C56.7144 65.7019 56.4875 65.7624 56.1803 65.7624H52.8496V61.8678H53.7417V63.381V63.381ZM53.7417 65.0926H55.7804C55.9398 65.0926 56.0482 65.0702 56.1087 65.0191C56.1639 64.9751 56.1899 64.8946 56.1899 64.7843V64.3642C56.1899 64.2485 56.1639 64.1656 56.1087 64.1218C56.0482 64.0779 55.9398 64.0547 55.7804 64.0547H53.7417V65.0926V65.0926ZM70.0864 63.8603L70.877 63.3863C70.7544 63.2867 70.6743 63.1877 70.6257 63.0976C70.5683 63.0028 70.5415 62.9063 70.5415 62.7976V62.5762C70.5415 62.32 70.6121 62.1375 70.7544 62.0249C70.898 61.919 71.1515 61.8678 71.5065 61.8678H72.2984C72.6729 61.8678 72.926 61.9229 73.0622 62.0338C73.1967 62.1494 73.2642 62.3525 73.2642 62.6567V62.8874L72.5608 63.0122V62.4908H71.2819V62.7682L73.1216 64.2907L74.0308 63.5405L74.5445 63.9814L73.6437 64.7258L74.8757 65.7624H73.6887L73.0445 65.2175L72.6995 65.5287C72.5899 65.619 72.4928 65.6794 72.4014 65.7119C72.3168 65.744 72.1745 65.7624 71.9616 65.7624H70.5725C70.1978 65.7624 69.9394 65.6955 69.7996 65.568C69.6645 65.4393 69.5961 65.1988 69.5961 64.8412V64.5835C69.5961 64.4193 69.6318 64.2884 69.6883 64.1934C69.742 64.0915 69.8687 63.9856 70.0864 63.8603V63.8603ZM70.3584 65.0815H72.1685L72.5317 64.7703L71.3614 63.8012L70.3584 64.4193V65.0815ZM90.0424 61.8678L92.2804 65.7624H91.2606L90.7917 64.909H88.3178L87.8674 65.7624H86.9658L89.1641 61.8678H90.0424ZM90.4212 64.2096L89.576 62.6223L88.7154 64.2096H90.4212ZM96.9015 63.4895L99.0624 61.8678H100.376L97.7912 63.7041L100.692 65.7624H99.2385L96.9015 64.0502V65.7624H95.9834V61.8678H96.9015V63.4895V63.4895ZM105.609 61.8538H107.94C108.313 61.8538 108.568 61.9182 108.706 62.0497C108.838 62.1808 108.906 62.4262 108.906 62.7765V63.1458L107.997 63.2862V62.546H105.544V65.0197H107.997V64.18L108.906 64.3666V64.8272C108.906 65.1809 108.838 65.421 108.706 65.5538C108.568 65.6811 108.313 65.748 107.94 65.748H105.609C105.235 65.748 104.976 65.6811 104.839 65.5538C104.707 65.421 104.638 65.1809 104.638 64.8272V62.7765C104.638 62.4262 104.707 62.1808 104.839 62.0497C104.976 61.9182 105.235 61.8538 105.609 61.8538V61.8538ZM116.792 62.5275H113.711V63.4001H115.512V64.0594H113.711V65.0335H116.832V65.7624H112.803V61.8678H116.792V62.5275V62.5275ZM121.85 61.8678H124.176C124.553 61.8678 124.812 61.9326 124.953 62.0635C125.084 62.1952 125.15 62.4404 125.15 62.7908V63.1592L124.241 63.3003V62.5596H121.791V65.0335H124.241V64.1934L125.15 64.3802V64.8412C125.15 65.1945 125.084 65.4351 124.953 65.568C124.812 65.6955 124.553 65.7624 124.176 65.7624H121.85C121.476 65.7624 121.222 65.6955 121.078 65.568C120.949 65.4351 120.885 65.1945 120.885 64.8412V62.7908C120.885 62.4404 120.949 62.1952 121.078 62.0635C121.222 61.9326 121.476 61.8678 121.85 61.8678V61.8678ZM130.153 61.8678H132.479C132.855 61.8678 133.115 61.9326 133.255 62.0635C133.387 62.1952 133.452 62.4404 133.452 62.7908V63.1592L132.544 63.3003V62.5596H130.093V65.0335H132.544V64.1934L133.452 64.3802V64.8412C133.452 65.1945 133.387 65.4351 133.255 65.568C133.115 65.6955 132.855 65.7624 132.479 65.7624H130.153C129.778 65.7624 129.524 65.6955 129.381 65.568C129.252 65.4351 129.187 65.1945 129.187 64.8412V62.7908C129.187 62.4404 129.252 62.1952 129.381 62.0635C129.524 61.9326 129.778 61.8678 130.153 61.8678V61.8678ZM138.842 63.7181H141.427V61.8678H142.332V64.8412C142.332 65.1945 142.268 65.4351 142.133 65.568C141.999 65.6955 141.736 65.7624 141.364 65.7624H140.089H138.897H137.936V65.0335H140.164H141.427V64.3893H138.897C138.523 64.3893 138.266 64.3222 138.134 64.1913C138.001 64.0594 137.936 63.8203 137.936 63.4664V61.8678H138.842V63.7181ZM149.388 61.8678L151.629 65.7624H150.603L150.141 64.909H147.665L147.21 65.7624H146.313L148.514 61.8678H149.388ZM149.764 64.2096L148.921 62.6223L148.06 64.2096H149.764V64.2096ZM159.464 62.2246C159.6 62.3403 159.67 62.5341 159.67 62.8037V63.6714C159.67 63.937 159.6 64.1231 159.464 64.2457C159.323 64.3702 159.092 64.4307 158.784 64.4307H156.345V65.9437H155.453V62.0493H158.784C159.092 62.0493 159.318 62.109 159.464 62.2246V62.2246ZM158.384 62.7185H156.345V63.7566H158.384C158.543 63.7566 158.652 63.7332 158.713 63.6897C158.768 63.6453 158.794 63.5629 158.794 63.4473V63.027C158.794 62.9168 158.768 62.8358 158.713 62.7918C158.652 62.7408 158.543 62.7185 158.384 62.7185ZM164.968 63.5624H167.407C167.715 63.5624 167.946 63.6226 168.087 63.7471C168.223 63.8699 168.292 64.0562 168.292 64.3217V65.1886C168.292 65.4588 168.223 65.6526 168.087 65.7678C167.941 65.8833 167.715 65.9437 167.407 65.9437H164.076V62.0493H164.968V63.5624ZM164.968 65.2746H167.007C167.166 65.2746 167.275 65.2521 167.336 65.2005C167.39 65.1567 167.417 65.076 167.417 64.9659V64.5455C167.417 64.4299 167.39 64.3472 167.336 64.3031C167.275 64.2593 167.166 64.2363 167.007 64.2363H164.968V65.2746ZM169.943 65.9437H169.039V62.0493H169.943V65.9437Z" fill="#2B2B2A"/>
</svg>
