<svg xmlns="http://www.w3.org/2000/svg" fill="none" viewBox="0 0 320 426"><path fill="#252323" d="M309.817 291.144c-.332 0-.661-.021-.997-.064-2.314-.292-6.491-1.908-8.472-9.429l3.707-.975c1.043 3.962 2.908 6.305 5.25 6.602 2.065.29 4.375-1.163 5.713-3.556 1.984-3.548 1.33-7.952-1.759-11.779-11.132-13.808-10.973-29.175-10.959-29.825l3.831.071c0 .145-.113 14.666 10.11 27.347 4.104 5.089 4.9 11.094 2.127 16.056-1.932 3.456-5.211 5.552-8.551 5.552zM37.462 337.965s17.54-4.375 36.617-18.929c19.074-14.55-39.192-32.568-39.192-32.568l-4.853 21.481s-1.737 15.593 0 15.94c1.733.346 7.428 14.076 7.428 14.076z"/><path fill="#252323" d="M31.329 322.405c1.132.822 3.124 3.525 7.238 13.248 4.673-1.434 19.08-6.495 34.345-18.141 3.516-2.683 3.138-4.806 3.014-5.501-1.581-8.897-27.497-19.117-39.63-23.083l-4.398 19.442c-.59 5.41-.947 12.132-.569 14.035zm4.991 17.822l-.633-1.527c-2.235-5.387-5.242-11.712-6.417-13.02-1.443-.396-2.918-2.011-1.146-17.942l5.349-23.715 1.98.615c4.277 1.321 41.867 13.313 44.247 26.7.605 3.4-.895 6.5-4.46 9.221-19.17 14.624-36.585 19.081-37.317 19.265l-1.603.403z"/><path fill="#EF4BA2" d="M304.034 213.417H7.046c-.81 0-1.458.665-1.44 1.471l2.526 101.09c0 3.638 1.804 7.274 5.405 9.352l21.66 12.494c1.733 1 3.902-.251 3.902-2.251v-9.419c0-2 2.168-3.252 3.901-2.251l70.262 40.525a9.918 9.918 0 0 1 4.959 8.582v6.98a9.906 9.906 0 0 0 4.96 8.584l18.133 10.457a25.758 25.758 0 0 0 25.752 0l127.777-73.704c3.605-2.079 5.406-5.715 5.406-9.351l5.221-101.049a1.437 1.437 0 0 0-1.436-1.51z"/><path fill="#252323" d="M41.699 321.63c.778 0 1.553.204 2.264.615l70.257 40.526a11.86 11.86 0 0 1 5.918 10.239v6.98a8.013 8.013 0 0 0 4.001 6.923l18.133 10.464c7.348 4.232 16.481 4.239 23.836 0l127.777-73.703c2.784-1.609 4.446-4.486 4.446-7.696l5.197-100.645H7.534l2.515 100.597c0 3.258 1.662 6.135 4.446 7.744l21.66 12.492a.66.66 0 0 0 .687 0 .667.667 0 0 0 .34-.594v-9.418a4.47 4.47 0 0 1 2.26-3.912 4.507 4.507 0 0 1 2.257-.612zm112.491 82.753a27.68 27.68 0 0 1-13.835-3.693l-18.137-10.462a11.854 11.854 0 0 1-5.914-10.238v-6.98a8.017 8.017 0 0 0-4.001-6.924L42.042 325.56a.673.673 0 0 0-.683 0 .666.666 0 0 0-.343.594v9.418a4.476 4.476 0 0 1-2.26 3.913 4.488 4.488 0 0 1-4.518-.004l-21.66-12.493c-3.983-2.297-6.364-6.415-6.364-11.01L3.688 214.937a3.336 3.336 0 0 1 .956-2.425 3.329 3.329 0 0 1 2.401-1.014h296.989c.916 0 1.804.385 2.434 1.046a3.39 3.39 0 0 1 .916 2.481l-5.218 101.05c0 4.498-2.381 8.616-6.364 10.913L168.025 400.69a27.678 27.678 0 0 1-13.835 3.693z"/><path fill="#252323" d="M167.324 399.031l118.194-68.558 4.705-114.917-109.588-2.139-24.819 16.109v172.863c3.984-.211 7.931-1.296 11.508-3.358z"/><path fill="#252323" d="M157.733 230.566v169.725a23.301 23.301 0 0 0 8.631-2.915l117.278-68.033 4.584-111.91-107.04-2.093-23.453 15.226zm-3.838 173.846V228.488l26.191-16.996 112.131 2.187-4.829 117.922-.909.53-118.198 68.563c-3.742 2.16-7.906 3.371-12.363 3.612l-2.023.106zM7.046 213.417c-.81 0-1.458.664-1.44 1.47l2.526 101.091c0 3.638 1.804 7.274 5.405 9.352l4.634 2.673-2.123-102.142 3.789-12.444H7.046z"/><path fill="#252323" d="M7.534 215.332l2.515 100.598c0 3.258 1.662 6.135 4.446 7.743l1.688.972-2.059-99.05 3.127-10.263H7.534zM20.159 331.36l-7.58-4.372c-3.984-2.298-6.365-6.416-6.365-11.01L3.688 214.933a3.327 3.327 0 0 1 .956-2.421 3.325 3.325 0 0 1 2.401-1.014h15.378l-4.454 14.628 2.19 105.234z"/><path fill="#fff" d="M299.997 223.019l-131.954 76.112a24.989 24.989 0 0 1-24.971 0L11.121 223.019c-7.4-4.269-7.4-14.939 0-19.204l131.954-76.112a24.989 24.989 0 0 1 24.971 0l131.951 76.112c7.401 4.265 7.401 14.935 0 19.204z"/><path fill="#252323" d="M155.558 126.285c-3.986 0-7.97 1.025-11.525 3.072L12.079 205.472c-2.876 1.658-4.592 4.626-4.592 7.945 0 3.312 1.716 6.287 4.592 7.945l131.951 76.112c7.106 4.096 15.947 4.1 23.053 0l131.955-76.116c2.876-1.657 4.592-4.629 4.592-7.941 0-3.315-1.716-6.287-4.592-7.945l-131.955-76.115a23.086 23.086 0 0 0-11.525-3.072zm0 178.091c-4.651 0-9.3-1.194-13.446-3.586l-131.95-76.113c-4.076-2.35-6.51-6.563-6.51-11.263.004-4.701 2.434-8.91 6.51-11.257l131.954-76.115c8.292-4.782 18.593-4.779 26.888 0l131.951 76.115c4.076 2.347 6.509 6.556 6.509 11.26 0 4.701-2.433 8.91-6.509 11.256L169.004 300.79a26.911 26.911 0 0 1-13.446 3.586z"/><path fill="#252323" d="M139.263 399.245l-1.482-101.477 3.835-.061 1.482 101.481-3.835.057z"/><path fill="#fff" d="M45.07 306.871l-10.03-5.785c-1.542-.892-2.794-3.28-2.794-5.333v-18.541c0-2.056 1.252-3.004 2.795-2.113l10.029 5.785c1.542.891 2.794 3.28 2.794 5.337v18.54c0 2.057-1.252 3-2.794 2.11z"/><path fill="#252323" d="M34.191 276.82a2.376 2.376 0 0 0-.028.389v18.545c0 1.473.987 3.183 1.836 3.675l9.919 5.722a2.36 2.36 0 0 0 .028-.389v-18.541c0-1.473-.987-3.187-1.836-3.675l-9.919-5.726zm11.992 32.299c-.68 0-1.39-.198-2.073-.59l-10.029-5.786c-2.14-1.23-3.753-4.236-3.753-6.989v-18.545c0-1.781.7-3.209 1.924-3.916 1.111-.639 2.477-.586 3.747.152l10.028 5.782c2.14 1.234 3.754 4.238 3.754 6.994v18.541c0 1.785-.7 3.212-1.925 3.915a3.309 3.309 0 0 1-1.673.442z"/><path fill="#252323" d="M42.397 297.842l-7.206-4.161 1.918-3.31 7.206 4.155-1.918 3.316z"/><path fill="#EF4BA2" d="M224.114 332.147l-.739-1.275 71.34-41.149.736 1.28-71.337 41.144zM224.114 337.135l-.739-1.276 71.34-41.149.736 1.28-71.337 41.145zM224.114 342.124l-.739-1.278 71.34-41.148.736 1.278-71.337 41.148zM224.114 327.161l-.739-1.276 71.34-41.151.736 1.279-71.337 41.148zM170.623 393.784l-2.947-.045.392-24.948 2.951.046-.396 24.947zM171.087 364.216l-2.95-.045.166-10.507 2.95.045-.166 10.507zM281.79 265.186l-2.95-.057.52-25.987 2.95.057-.52 25.987zM129.857 355.944c0 2.492-1.752 3.502-3.913 2.254-2.158-1.246-3.909-4.275-3.909-6.767s1.751-3.503 3.909-2.254c2.161 1.243 3.913 4.275 3.913 6.767z"/><path fill="#252323" d="M124.196 350.554a.194.194 0 0 0-.068.007c-.024.029-.177.278-.177.869 0 1.817 1.38 4.203 2.951 5.111.523.297.81.286.856.268.025-.028.18-.279.18-.866 0-1.816-1.379-4.202-2.954-5.111-.403-.233-.672-.278-.788-.278zm3.502 10.09c-.878 0-1.804-.262-2.714-.788-2.731-1.577-4.871-5.277-4.871-8.426 0-1.891.771-3.414 2.105-4.188 1.334-.771 3.039-.675 4.684.276 2.731 1.572 4.871 5.272 4.871 8.425 0 1.887-.768 3.414-2.105 4.189a3.928 3.928 0 0 1-1.97.512z"/><path fill="#EF4BA2" d="M129.857 340.859c0 2.492-1.752 3.499-3.913 2.255-2.158-1.248-3.909-4.276-3.909-6.768 0-2.491 1.751-3.502 3.909-2.255 2.161 1.245 3.913 4.277 3.913 6.768z"/><path fill="#252323" d="M124.196 335.472c-.036 0-.057 0-.068.004-.024.028-.177.279-.177.87 0 1.817 1.38 4.203 2.951 5.109.523.302.81.287.856.274.025-.032.18-.281.18-.87 0-1.817-1.379-4.202-2.954-5.111-.403-.229-.672-.276-.788-.276zm3.502 10.088c-.878 0-1.804-.263-2.714-.789-2.731-1.572-4.871-5.273-4.871-8.425 0-1.891.771-3.414 2.105-4.189 1.334-.77 3.039-.675 4.684.277 2.731 1.572 4.871 5.272 4.871 8.425 0 1.89-.768 3.414-2.105 4.187a3.91 3.91 0 0 1-1.97.514z"/><path fill="#fff" d="M203.913 208.412l-89.622 51.695-55.998-32.299 89.622-51.694 55.998 32.298z"/><path fill="#252323" d="M62.127 227.808l52.163 30.087 85.787-49.483-52.163-30.086-85.787 49.482zm52.163 34.511l-59.83-34.511 93.454-53.907 59.829 34.511-93.453 53.907z"/><path fill="#fff" d="M215.972 201.599l-89.849 51.684-55.771-32.288 89.621-51.694 55.999 32.298z"/><path fill="#252323" d="M74.182 220.994l51.941 30.076 86.006-49.475-52.156-30.083-85.791 49.482zm51.937 34.501l-59.596-34.508 93.45-53.9 59.836 34.515-93.69 53.893z"/><path fill="#fff" d="M225.202 196.365l-89.501 51.408-56.115-32.012 89.622-51.699 55.994 32.303z"/><path fill="#252323" d="M83.436 215.75l52.262 29.818 85.663-49.206-52.152-30.083-85.773 49.471zm52.269 34.232l-59.97-34.214 93.474-53.914 59.832 34.515-93.336 53.613z"/><path fill="#EF4BA2" d="M176.31 113.343l-18.961-5.414a1.203 1.203 0 0 0-.644-.003l-26.856 7.386c-.11.032-.202.067-.301.127-2.578 1.608-41.851 26.026-44.522 27.238-2.76 1.255-28.35 11.532-29.602 12.532-.973.778-7.938-.936-11.04-1.753a1.189 1.189 0 0 0-1.49 1.152v48.829c0 1.565 1.037 3.134 3.114 4.329l11.581 6.683c4.457 2.569 11.752 2.569 16.212 0l68.037-39.243c4.457-2.573 11.751-2.573 16.212 0l29.223 16.854a1.19 1.19 0 0 1 .092 2.004l-13.117 9.26c-.106.074-.223.13-.343.166l-24.253 7.312c-.113.035-.23.053-.347.053h-5.292c-.658 0-1.192.534-1.192 1.191l.057 49.45c.173 1.421 1.156 2.817 3.038 3.902l11.585 6.679c4.458 2.573 11.752 2.573 16.213 0l111.494-64.311c2.073-1.195 3.109-2.764 3.109-4.329v-49.542a1.19 1.19 0 0 0-.792-1.121l-111.144-39.409a1.553 1.553 0 0 0-.071-.022z"/><path fill="#252323" d="M144.738 212.771l.06 48.722c.092.65.835 1.53 2.076 2.248l11.585 6.679c3.867 2.234 10.422 2.234 14.295 0l111.494-64.311c1.366-.792 2.151-1.767 2.151-2.676v-49.026l-110.634-39.229-18.745-5.351-26.662 7.33c-4.079 2.577-41.746 25.994-44.537 27.266-.923.417-4.38 1.838-8.628 3.588-7.262 2.982-19.417 7.976-20.655 8.757-.676.544-1.695 1.357-11.727-1.219v47.884c0 .909.785 1.884 2.154 2.676l11.579 6.683c3.877 2.234 10.425 2.234 14.298 0l68.036-39.247c5.08-2.937 13.043-2.933 18.13 0l29.226 16.861c.92.531 1.5 1.485 1.55 2.549a3.086 3.086 0 0 1-1.316 2.675l-13.117 9.26a3.16 3.16 0 0 1-.892.434l-24.256 7.312a3.008 3.008 0 0 1-.895.135h-4.57zm20.871 63.166c-3.265 0-6.523-.735-9.067-2.202l-11.585-6.679c-2.314-1.336-3.725-3.227-3.983-5.33l-.071-49.676a3.115 3.115 0 0 1 3.109-3.11h5.296l24.041-7.281 11.988-8.503-28.25-16.296c-3.867-2.23-10.418-2.234-14.291 0l-68.037 39.247c-5.083 2.933-13.046 2.933-18.133 0l-11.581-6.683c-2.622-1.513-4.068-3.64-4.068-5.991v-48.824c0-.972.442-1.87 1.213-2.46a3.066 3.066 0 0 1 2.681-.544c6.134 1.611 8.9 1.922 9.697 1.887 1.45-.848 6.611-3.046 21.164-9.023 4.189-1.724 7.592-3.12 8.5-3.534 1.943-.88 27.558-16.702 44.304-27.121.248-.152.492-.262.782-.343l26.877-7.39a3.097 3.097 0 0 1 1.684.007l19.106 5.46 111.183 39.424a3.103 3.103 0 0 1 2.066 2.926v49.535c0 2.351-1.444 4.478-4.068 5.991l-111.494 64.311c-2.54 1.467-5.805 2.202-9.063 2.202z"/><path fill="#252323" d="M173.713 271.533l102.059-58.869v-64.601l-21.649-7.679-87.287 72.058v60.954c2.515-.156 4.959-.757 6.877-1.863z"/><path fill="#252323" d="M168.752 213.34v57.904c1.536-.276 2.915-.742 4.001-1.368l101.097-58.317v-62.145l-19.346-6.863-85.752 70.789zm-3.838 62.092v-63.891l88.822-73.327 23.953 8.496v67.061l-103.022 59.424c-2.08 1.198-4.747 1.929-7.715 2.11l-2.038.127zM66.965 215.927c2.5-.16 4.931-.76 6.838-1.859l68.036-39.244c2.497-1.442 5.886-2.046 9.169-1.869v-63.842l-21.158 5.818c-.109.031-.201.07-.297.13-2.582 1.605-41.855 26.026-44.526 27.238-1.56.707-10.428 4.305-18.062 7.478v66.15z"/><path fill="#252323" d="M68.877 151.053v62.721c1.525-.272 2.87-.735 3.963-1.364l68.036-39.243c2.214-1.276 5.129-2.029 8.21-2.146V111.63l-18.731 5.149c-4.078 2.576-41.745 25.994-44.536 27.262-.913.414-4.288 1.803-8.462 3.517a4299.068 4299.068 0 0 0-8.48 3.495zm-3.834 66.916v-69.471l1.181-.491c3.22-1.34 6.658-2.75 9.675-3.99 4.111-1.69 7.436-3.057 8.331-3.464 1.942-.88 27.557-16.699 44.303-27.117.248-.152.492-.262.782-.343l23.606-6.496v68.376l-2.02-.106c-3.078-.181-6.042.424-8.108 1.615l-68.036 39.243c-2.066 1.191-4.72 1.923-7.673 2.113l-2.041.131z"/><path fill="#fff" d="M46.007 157.386l12.176 7.026c4.149 2.393 10.874 2.393 15.02 0l69.228-39.932c4.149-2.393 10.874-2.393 15.02 0l57.693 33.278c4.149 2.392 4.149 6.273 0 8.665l-69.229 39.93c-4.146 2.392-4.146 6.273 0 8.665l12.18 7.026c4.146 2.393 10.874 2.393 15.02 0l112.092-64.658c4.146-2.392 4.146-6.269 0-8.662L173.115 84.07c-4.146-2.393-10.871-2.393-15.02 0L46.007 148.724c-4.15 2.393-4.15 6.27 0 8.662z"/><path fill="#252323" d="M149.941 120.765c3.05 0 6.095.686 8.469 2.057l57.696 33.278c2.621 1.513 4.068 3.644 4.068 5.991-.003 2.35-1.447 4.477-4.068 5.99l-69.232 39.933c-1.365.788-2.15 1.763-2.15 2.675 0 .908.785 1.884 2.15 2.672l12.18 7.022c3.551 2.05 9.554 2.05 13.103 0l112.091-64.654c1.366-.788 2.151-1.763 2.151-2.675 0-.909-.785-1.884-2.151-2.672L172.157 85.728c-3.545-2.047-9.552-2.05-13.1 0L46.966 150.382c-1.37.792-2.155 1.767-2.155 2.675 0 .909.785 1.884 2.15 2.669l.005.003 12.175 7.026c3.552 2.046 9.552 2.046 13.103 0l69.229-39.933c2.373-1.371 5.423-2.057 8.468-2.057zm15.664 104.994c-3.046 0-6.095-.686-8.469-2.061l-12.179-7.022c-2.621-1.509-4.068-3.64-4.068-5.987 0-2.35 1.447-4.481 4.068-5.99l69.228-39.933c1.369-.788 2.151-1.764 2.151-2.675 0-.909-.782-1.884-2.151-2.676l-57.692-33.278c-3.548-2.046-9.555-2.046-13.103 0l-69.228 39.93c-4.748 2.746-12.187 2.746-16.938 0l-12.18-7.023c-2.62-1.509-4.067-3.637-4.067-5.987s1.443-4.478 4.068-5.99l112.091-64.658c4.751-2.742 12.191-2.739 16.938 0l112.092 64.658c2.624 1.509 4.068 3.64 4.068 5.987 0 2.35-1.444 4.481-4.068 5.99l-112.092 64.654c-2.37 1.375-5.419 2.061-8.469 2.061z"/><path fill="#EF4BA2" d="M290.43 105.187h-15.774l-1.51 11.853-102.852-59.324c-6.651-3.838-17.433-3.838-24.08 0l-82.087 47.503.863-12.847H36.871l-13.24 30.408h-2.6L7.714 153.368l-4.588 10.56c-.718 1.88.17 3.923 2.703 5.386l69.914 40.329c3.934 2.265 10.369 2.265 14.302 0l17.419-10.048c3.933-2.269 10.372-2.269 14.305 0l4.97 2.866a7.504 7.504 0 0 1 1.599 1.248l-4.457 10.397c-.527 1.799.449 3.467 2.858 4.856l14.89 8.588c6.622 3.821 17.457 3.821 24.079 0l2.264-1.304 33.497-19.321 101.507-58.787c3.255-1.877 4.893-4.326 4.96-6.786l.665-30.719a.797.797 0 0 0-.591-.785l-17.581-4.661z"/><path fill="#252323" d="M114.617 195.966c2.919 0 5.837.657 8.112 1.968l4.97 2.87a9.246 9.246 0 0 1 2.006 1.559l.902.919-4.963 11.581c-.177.643.488 1.537 2.051 2.439l14.893 8.591c6.01 3.464 16.156 3.467 22.162 0l35.761-20.625 101.504-58.788c2.533-1.459 3.951-3.297 4.008-5.181l.64-29.825-16.485-4.368h-13.831l-1.663 13.034-105.349-60.767c-6.007-3.463-16.152-3.463-22.162 0l-85.2 49.306.965-14.392H38.127l-13.241 30.409h-2.597L4.885 164.692c-.52 1.375 1.157 2.534 1.907 2.965l69.91 40.325c3.354 1.933 9.028 1.937 12.385 0l17.419-10.048c2.274-1.311 5.193-1.968 8.111-1.968zm39.054 36.345c-4.708 0-9.413-1.035-13-3.103l-14.889-8.591c-4.323-2.488-4.199-5.482-3.743-7.044l3.976-9.309c-.074-.049-.152-.095-.23-.141l-4.977-2.874c-3.357-1.936-9.028-1.933-12.385 0l-17.418 10.048c-4.546 2.626-11.67 2.626-16.22 0L4.871 170.972c-3.28-1.891-4.634-4.852-3.534-7.726l18.437-42.381h2.597l13.24-30.409h31.427l-.76 11.303 78.97-45.7c7.295-4.206 18.71-4.206 26.004-.004l100.355 57.886 1.362-10.666 17.952.06L308.506 108a2.7 2.7 0 0 1 2.009 2.679l-.661 30.716c-.092 3.276-2.193 6.251-5.918 8.4l-137.268 79.417c-3.584 2.064-8.292 3.099-12.997 3.099z"/><path fill="#252323" d="M99.579 121.875c-.753 0-17.04 12.783-17.04 12.783v4.76l18.784 30.794-18.78 41.116c2.706.057 5.44-.494 7.503-1.685l17.418-10.048c1.733-1 3.937-1.534 6.198-1.658l19.795-41.116-12.802-33.66s-20.322-1.286-21.076-1.286z"/><path fill="#252323" d="M84.46 138.882l19.033 31.199-17.858 39.096c1.306-.234 2.498-.644 3.453-1.195l17.418-10.048c1.635-.943 3.658-1.562 5.905-1.813l18.96-39.388-12.07-31.737c-7.255-.456-17.05-1.071-19.296-1.188-1.882 1.198-9.785 7.27-15.544 11.783v3.291zm-1.545 74.366c-.138 0-.272 0-.41-.003l-2.915-.061 19.57-42.841-18.534-30.383v-6.231l.733-.576c16.806-13.197 17.432-13.197 18.221-13.197.775 0 17.79 1.081 21.197 1.297l1.231.078 13.534 35.579-20.641 42.88-1.132.063c-2.077.11-3.976.608-5.342 1.396l-17.422 10.048c-2.186 1.265-5.048 1.951-8.09 1.951zM273.138 117.04l-3.984-2.297-58.191 11.893s-38.884 27.573-39.135 28.574c-.251 1.003-2.508 17.798-2.508 17.798l1.503 16.282-18.331 41.074c4.74.187 9.587-.721 13.213-2.813l2.26-1.305 33.496-19.321 95.236-55.154v-42.658l-23.153 4.733-.406 3.194z"/><path fill="#252323" d="M171.25 173.046l1.531 16.565-17.319 38.809c3.534-.223 6.817-1.103 9.286-2.527l35.757-20.626 94.277-54.603V111.46l-19.506 3.99-.598 4.689-5.847-3.371-57.084 11.663c-13.609 9.651-35.067 25.046-38.138 27.697-.361 2.216-1.581 11.143-2.359 16.918zm-17.511 59.258c-.438 0-.877-.011-1.319-.029l-2.83-.109 19.279-43.198-1.479-16.003.029-.216c.534-3.962 2.292-16.978 2.55-17.999.219-.87.421-1.693 39.889-29.677l.329-.233 59.298-12.119 2.119 1.22.216-1.697 26.8-5.478v46.111l-131.958 76.334c-3.481 2.011-8.03 3.093-12.923 3.093z"/><path fill="#fff" d="M41.15 101.649c3.934 2.269 3.934 5.983 0 8.252l-17.418 10.048c-3.934 2.269-3.934 5.98 0 8.249l69.914 40.328c3.934 2.269 10.368 2.269 14.302 0l17.419-10.048c3.933-2.268 10.371-2.268 14.305 0l4.967 2.867c3.933 2.269 3.933 5.979 0 8.248-3.93 2.269-3.93 5.984 0 8.253l14.892 8.588c6.623 3.82 17.458 3.82 24.08 0l2.264-1.304 33.496-19.322 84.284-48.496c6.65-3.834 6.65-10.054 0-13.889L170.972 26.891c-6.651-3.839-17.43-3.839-24.08 0L41.15 87.76c-6.647 3.838-6.647 10.054 0 13.889z"/><path fill="#252323" d="M132.523 154.853c2.918 0 5.833.657 8.111 1.965l4.97 2.866c2.484 1.435 3.906 3.545 3.906 5.785 0 2.241-1.422 4.351-3.906 5.786-1.266.728-1.995 1.625-1.995 2.463 0 .838.729 1.739 1.995 2.47l14.89 8.588c6.006 3.464 16.155 3.467 22.162 0l120.047-69.121c2.597-1.498 4.026-3.379 4.026-5.287 0-1.912-1.429-3.789-4.029-5.287L170.017 28.548c-6.014-3.467-16.163-3.463-22.163 0L42.112 89.421c-2.596 1.498-4.029 3.375-4.029 5.283 0 1.912 1.433 3.789 4.03 5.288 2.483 1.431 3.908 3.541 3.908 5.781 0 2.245-1.422 4.351-3.909 5.786l-17.418 10.048c-1.263.731-1.992 1.629-1.992 2.466 0 .838.729 1.739 1.992 2.467l69.914 40.329c3.357 1.929 9.028 1.933 12.389-.004l17.414-10.044c2.275-1.311 5.194-1.968 8.112-1.968zm39.054 36.345c-4.709 0-9.417-1.039-13.001-3.107l-14.889-8.588c-2.487-1.434-3.909-3.541-3.909-5.785s1.426-4.351 3.909-5.782c1.263-.728 1.988-1.629 1.988-2.467 0-.837-.725-1.739-1.988-2.467l-4.973-2.866c-3.35-1.937-9.032-1.937-12.385 0l-17.419 10.048c-4.545 2.622-11.67 2.622-16.219 0l-69.915-40.329c-2.483-1.431-3.908-3.541-3.905-5.782 0-2.244 1.422-4.35 3.909-5.782l17.415-10.047c1.266-.732 1.992-1.633 1.992-2.471 0-.834-.726-1.735-1.992-2.463-3.831-2.212-5.947-5.27-5.947-8.606 0-3.336 2.116-6.39 5.947-8.602L145.941 25.23c7.283-4.203 18.702-4.199 25.993 0l132.683 76.536c3.835 2.209 5.947 5.262 5.947 8.602 0 3.336-2.112 6.393-5.947 8.602l-120.044 69.121c-3.583 2.068-8.292 3.103-12.996 3.107z"/><path fill="#252323" d="M125.638 214.877l-3.513-1.537 17.868-40.806 3.512 1.537-17.867 40.806z"/><path fill="#EF4BA2" d="M205.179 206.229l-1.468-2.556 61.212-35.2 1.468 2.555-61.212 35.201zM177.516 222.44l-1.5-2.538 20.98-12.341 1.497 2.537-20.977 12.342z"/><path fill="#fff" d="M27.067 143.306l30.455 17.138a2.569 2.569 0 0 1 1.068 3.332l-7.496 16.031a2.58 2.58 0 0 1-3.612 1.146l-30.058-17.138a2.577 2.577 0 0 1-1.079-3.279l7.104-16.028a2.58 2.58 0 0 1 3.618-1.202z"/><path fill="#252323" d="M25.81 144.889c-.09 0-.163.022-.213.036a.659.659 0 0 0-.396.36l-7.1 16.028a.654.654 0 0 0 .276.837l30.058 17.141a.65.65 0 0 0 .523.053.652.652 0 0 0 .4-.346l7.5-16.035a.655.655 0 0 0-.276-.852l-30.45-17.133a.67.67 0 0 0-.323-.089zm22.95 38.318a4.518 4.518 0 0 1-2.228-.59L16.477 165.48a4.476 4.476 0 0 1-1.882-5.715l7.104-16.031a4.48 4.48 0 0 1 2.692-2.442 4.486 4.486 0 0 1 3.619.346l30.454 17.137c2.034 1.145 2.854 3.7 1.864 5.81l-7.496 16.035a4.503 4.503 0 0 1-4.072 2.587zM65.837 166.126l3.682 2.064a.51.51 0 0 1 .213.661l-1.652 3.538a.51.51 0 0 1-.718.226l-3.598-2.064a.508.508 0 0 1-.212-.647l1.567-3.541a.511.511 0 0 1 .718-.237zM73.317 170.311l3.687 2.064c.23.131.325.42.212.661l-1.656 3.538a.508.508 0 0 1-.714.226l-3.602-2.064a.508.508 0 0 1-.212-.647l1.57-3.541a.506.506 0 0 1 .715-.237zM80.804 174.733l3.686 2.067a.51.51 0 0 1 .213.661l-1.656 3.538a.511.511 0 0 1-.715.226l-3.6-2.064a.512.512 0 0 1-.213-.647l1.57-3.541a.51.51 0 0 1 .715-.24zM62.216 173.743l3.686 2.064c.233.13.325.42.212.66l-1.655 3.538a.507.507 0 0 1-.715.226l-3.601-2.064a.507.507 0 0 1-.212-.646l1.57-3.542a.506.506 0 0 1 .715-.236zM69.7 177.927l3.687 2.067a.505.505 0 0 1 .212.658l-1.656 3.537a.508.508 0 0 1-.714.227l-3.598-2.065a.507.507 0 0 1-.212-.646l1.567-3.542a.507.507 0 0 1 .715-.236zM77.189 182.349l3.682 2.067a.51.51 0 0 1 .212.661l-1.652 3.538a.515.515 0 0 1-.718.226l-3.597-2.064a.508.508 0 0 1-.213-.647l1.567-3.541a.514.514 0 0 1 .719-.24z"/><path fill="#252323" d="M62.216 173.743l3.686 2.064c.233.13.325.42.212.66l-1.655 3.538a.507.507 0 0 1-.715.226l-3.601-2.064a.507.507 0 0 1-.212-.646l1.57-3.542a.506.506 0 0 1 .715-.236zM69.7 177.927l3.687 2.067a.505.505 0 0 1 .212.658l-1.656 3.537a.508.508 0 0 1-.714.227l-3.598-2.065a.507.507 0 0 1-.212-.646l1.567-3.542a.507.507 0 0 1 .715-.236zM77.189 182.349l3.682 2.067a.51.51 0 0 1 .212.661l-1.652 3.538a.515.515 0 0 1-.718.226l-3.597-2.064a.508.508 0 0 1-.213-.647l1.567-3.541a.514.514 0 0 1 .719-.24zM58.599 181.359l3.682 2.064a.51.51 0 0 1 .212.661l-1.652 3.537a.511.511 0 0 1-.718.226l-3.597-2.064a.507.507 0 0 1-.213-.646l1.568-3.541a.51.51 0 0 1 .718-.237zM66.087 185.543l3.682 2.067a.505.505 0 0 1 .213.658l-1.652 3.538a.511.511 0 0 1-.718.226l-3.598-2.064a.508.508 0 0 1-.212-.647l1.57-3.541a.506.506 0 0 1 .715-.237zM73.571 189.964l3.686 2.068c.23.131.326.421.213.661l-1.656 3.538a.511.511 0 0 1-.714.226l-3.602-2.064a.508.508 0 0 1-.212-.647l1.57-3.541a.51.51 0 0 1 .715-.241zM32.595 159.139c-.839 1.7-2.752 2.471-4.273 1.722-1.522-.75-2.073-2.736-1.235-4.436.842-1.7 2.752-2.474 4.273-1.725 1.521.75 2.073 2.736 1.235 4.439z"/><path fill="#EF4BA2" d="M39.986 163.49c-.839 1.699-2.753 2.473-4.274 1.724-1.521-.749-2.073-2.735-1.235-4.435.839-1.704 2.753-2.474 4.274-1.725 1.521.749 2.073 2.736 1.235 4.436zM252.367 195.015c-.424-.078-.81-.141-.81-.141-1.765-.181-4.011.756-6.41 3.516a14.178 14.178 0 0 0-2.925 5.333c-.917 3.184-.549 5.527.555 6.835 0 0 2.222 3.213 7.178 4.365a.588.588 0 0 0 .622-.251l7.369-11.705.318-4.217a.514.514 0 0 0-.131-.402c-.566-.608-2.465-2.665-5.766-3.333z"/><path fill="#EF4BA2" d="M251.091 196.312c-.859 0-2.578.449-4.832 3.046a12.65 12.65 0 0 0-2.621 4.771c-.693 2.414-.598 4.461.265 5.478.152.209 1.911 2.633 5.77 3.725l6.827-10.842.258-3.446c-.725-.735-2.26-2.089-4.676-2.58l-.778-.142a1.978 1.978 0 0 0-.213-.01zm-1.018 20.099c-.152 0-.308-.018-.46-.053-5.441-1.266-7.949-4.814-8.051-4.962-1.454-1.714-1.752-4.623-.758-8.076.612-2.135 1.727-4.17 3.227-5.898 3.166-3.637 5.89-4.213 7.672-4.015l.956.166c2.479.505 4.676 1.763 6.537 3.757a2 2 0 0 1 .537 1.533l-.346 4.577-7.567 12.02a2.079 2.079 0 0 1-1.747.951z"/><path fill="#252323" d="M260.329 202.818c0 4.174-2.932 9.249-6.551 11.338-3.619 2.085-6.551.395-6.551-3.778 0-4.178 2.932-9.253 6.551-11.338 3.619-2.089 6.551-.396 6.551 3.778z"/><path fill="#EF4BA2" d="M256.709 199.62c-.636 0-1.393.233-2.189.696-3.156 1.817-5.816 6.425-5.816 10.062 0 1.445.428 2.527 1.182 2.962.743.431 1.896.265 3.159-.463 3.151-1.813 5.815-6.422 5.815-10.059 0-1.449-.431-2.53-1.181-2.961a1.923 1.923 0 0 0-.97-.237zm-5.858 16.907a4.817 4.817 0 0 1-2.44-.639c-1.713-.986-2.657-2.944-2.657-5.51 0-4.718 3.205-10.26 7.291-12.617 2.225-1.283 4.393-1.449 6.105-.456 1.712.986 2.66 2.948 2.66 5.513 0 4.715-3.205 10.256-7.29 12.61-1.267.732-2.512 1.099-3.669 1.099zM287.035 106.533l-52.287-30.454a24.075 24.075 0 0 1-9.587-10.384l-7.665-15.974a24.037 24.037 0 0 0-9.615-10.401L145.466 3.066c-1.769-1.028-3.722-.997-5.37-.29L44.754 57.535l1.889 15.713 32.94 21.975 53.229 38.933 43.953 24.612 20.977 19.515 95.268-54.772v-6.584c0-4.28-2.275-8.239-5.975-10.394z"/><path fill="#252323" d="M48.44 72.146L80.647 93.63l53.299 38.978 44.126 24.757 19.944 18.551 93.078-53.511v-5.478a10.14 10.14 0 0 0-5.023-8.736l-52.287-30.458a25.89 25.89 0 0 1-10.351-11.21l-7.666-15.975a22.06 22.06 0 0 0-8.85-9.574l-62.412-36.25c-1.518-.88-2.933-.491-3.647-.187L46.81 58.564l1.63 13.582zm149.034 108.502l-21.847-20.321-43.752-24.499-53.423-39.06-33.61-22.417L42.7 56.507l96.442-55.391c2.551-1.103 5.13-.958 7.291.297l62.415 36.25a25.895 25.895 0 0 1 10.375 11.231l7.666 15.975a22.093 22.093 0 0 0 8.823 9.556l52.291 30.454a13.99 13.99 0 0 1 6.926 12.048v7.691l-97.454 56.03z"/><path fill="#252323" d="M134.298 126.812l95.748-54.295.018-.05c-1.995-1.95-3.686-4.202-4.903-6.743l-7.666-15.974c-.874-1.817-2.009-3.467-3.29-4.998l-96.286 53.564-11.942 5.044 6.155 15.702 6.926 5.065 15.24 2.685z"/><path fill="#252323" d="M119.83 122.317l14.122 2.488 93.078-52.776a25.116 25.116 0 0 1-3.598-5.475l-7.666-15.978a20.7 20.7 0 0 0-2.051-3.357L118.854 99.99l-10.415 4.404 5.275 13.451 6.116 4.471zm14.815 6.499l-16.357-2.88-7.737-5.655-7.039-17.961 13.665-5.768 97.482-54.246 1.015 1.216c1.507 1.796 2.667 3.563 3.548 5.4l7.666 15.975c1.072 2.23 2.593 4.319 4.517 6.202l.864.845-.627 1.83-.647.41-96.35 54.632zM196.008 165.5s-2.869 3.011-5.621 5.941l7.354 6.842 95.268-54.772v-6.584c0-1.99-.51-3.898-1.405-5.602L196.008 165.5z"/><path fill="#252323" d="M193.106 171.354l4.91 4.562 93.078-53.511v-5.478c0-.961-.145-1.926-.428-2.866l-93.464 52.967c-.559.586-2.243 2.357-4.096 4.326zm4.369 9.294l-9.799-9.114 1.319-1.4c2.752-2.937 5.628-5.955 5.628-5.955l.443-.343 97.315-55.151.92 1.75a13.988 13.988 0 0 1 1.627 6.492v7.69l-97.453 56.031z"/><path fill="#EF4BA2" d="M210.092 171.526l-1.444-2.565 77.376-43.432 1.446 2.566-77.378 43.431z"/><path fill="#fff" d="M107.116 91.068l96.212-54.225-50.837-29.525L57.103 62.02l-8.076 7.578 8.19 10.874 13.707 9.147 36.192 1.449z"/><path fill="#252323" d="M71.542 87.725l35.109 1.41 92.824-52.317-46.989-27.287-94.23 54.037-6.662 6.249 6.962 9.245 12.986 8.663zm36.047 5.28L70.311 91.51l-14.624-9.886-9.222-12.249 9.685-9.016L152.5 5.106l54.686 31.762-99.597 56.137z"/><path fill="#fff" d="M146.113 134.715v6.888l16.644 9.32 22.145 6.386 96.201-54.228-39.404-22.951-95.586 54.585z"/><path fill="#252323" d="M163.499 149.145l21.157 6.1 92.59-52.193-35.555-20.71-93.661 53.486v4.655l15.469 8.662zm21.642 10.228l-23.322-6.779-17.628-9.867v-9.122l97.518-55.684 43.245 25.188-99.813 56.264z"/><path fill="#EF4BA2" d="M41.148 87.76V63.04c0-4.64 5.034-7.534 9.05-5.202l62.414 36.25a24.09 24.09 0 0 1 9.612 10.401l7.665 15.974a24.044 24.044 0 0 0 9.591 10.387l52.283 30.454a12.026 12.026 0 0 1 5.979 10.394v6.584L41.148 87.759z"/><path fill="#252323" d="M43.065 86.657l152.759 88.305V171.7c0-3.587-1.925-6.934-5.027-8.74l-52.284-30.454a25.843 25.843 0 0 1-10.35-11.21l-7.666-15.975a22.044 22.044 0 0 0-8.851-9.574L49.231 59.494a4.066 4.066 0 0 0-4.107-.007 4.06 4.06 0 0 0-2.059 3.555v23.615zm156.593 94.946L39.231 88.866V63.042c0-2.873 1.489-5.442 3.98-6.877a7.877 7.877 0 0 1 7.948.017l62.415 36.254a25.855 25.855 0 0 1 10.379 11.228l7.666 15.974a22.073 22.073 0 0 0 8.822 9.56l52.287 30.454a13.984 13.984 0 0 1 6.93 12.048v9.903z"/><path fill="#EF4BA2" d="M207.48 109.46l13.464 1.36a9.786 9.786 0 0 0 5.893-1.279l54.208-31.61c1.362-.791.92-2.863-.647-3.032l-70.343-7.592c-2.32-.25-4.662.244-6.682 1.41l-69.681 40.191c-1.726.997-1.171 3.616.81 3.831l49.984 5.394a9.747 9.747 0 0 0 5.749-1.153l11.564-6.361a9.753 9.753 0 0 1 5.681-1.159z"/><path fill="#252323" d="M208.863 69.16a9.026 9.026 0 0 0-4.528 1.215l-69.681 40.191 50.041 5.661a7.68 7.68 0 0 0 4.617-.926l11.567-6.361a11.591 11.591 0 0 1 6.796-1.386l13.467 1.361a7.867 7.867 0 0 0 4.733-1.028l53.465-31.175-69.486-7.5a9.377 9.377 0 0 0-.991-.053zm-23.308 50.944c-.421 0-.846-.021-1.27-.07l-49.985-5.39c-1.743-.191-3.105-1.421-3.463-3.135-.364-1.71.382-3.382 1.9-4.258l69.681-40.195a12.893 12.893 0 0 1 7.846-1.653l70.343 7.594c1.553.163 2.762 1.259 3.091 2.785a3.49 3.49 0 0 1-1.683 3.803l-54.209 31.61a11.586 11.586 0 0 1-7.05 1.53l-13.467-1.361a7.892 7.892 0 0 0-4.56.93l-11.567 6.365a11.596 11.596 0 0 1-5.607 1.445z"/><path fill="#fff" d="M142.277 103.961l37.204 3.399a5.823 5.823 0 0 0 3.474-.766l44.176-25.662c.877-.512.601-1.845-.407-1.969l-32.131-3.834a5.876 5.876 0 0 0-3.619.742l-48.697 28.09z"/><path fill="#252323" d="M148.46 102.603l31.194 2.849a3.928 3.928 0 0 0 2.342-.516l41.954-24.372-29.587-3.534a3.952 3.952 0 0 0-2.434.502l-43.469 25.071zm31.565 6.698c-.24 0-.481-.011-.725-.032l-43.21-3.952 53.922-31.104a7.849 7.849 0 0 1 4.807-.986l32.131 3.835a2.976 2.976 0 0 1 1.139 5.527l-44.169 25.658a7.702 7.702 0 0 1-3.895 1.054zM60.79 81.384l.739.428c.69.396 1.203.537 1.55.42.339-.116.512-.477.512-1.078 0-.607-.145-1.138-.431-1.593-.287-.453-.736-.86-1.352-1.213l-1.018-.586v3.622zm5.065.986c0 1.311-.357 2.11-1.068 2.396-.711.287-1.723.05-3.035-.706l-.962-.555v4.34l-2.243-1.294V74.348l3.378 1.95c1.284.74 2.26 1.62 2.926 2.644.668 1.022 1.004 2.163 1.004 3.428zM70.094 86.427l.722.417c.707.407 1.231.577 1.57.499.337-.078.506-.41.506-.993 0-.58-.17-1.093-.516-1.538-.343-.442-.877-.873-1.603-1.29l-.679-.392v3.297zm0 2.103v4.683l-2.242-1.293V79.715l3.08 1.778c1.437.83 2.502 1.746 3.192 2.746.69 1 1.036 2.117 1.036 3.347 0 .717-.173 1.258-.517 1.618-.343.36-.827.52-1.454.477 1.592 3.662 2.632 6.033 3.114 7.111l-2.49-1.435-2.527-6.139-1.192-.689zM77.637 97.56v-12.2l2.242 1.29v12.203l-2.242-1.293zM91.924 105.802l-2.851-1.644-4.602-11.885-.064-.04c.092 1.687.138 2.874.138 3.57v5.743l-2.006-1.155V88.187l2.83 1.633 4.595 11.787.05.028c-.075-1.626-.11-2.767-.11-3.425v-5.775l2.02 1.163v12.204zM98.67 109.693l-2.243-1.294V98.352l-2.872-1.658v-2.152l7.987 4.605v2.156l-2.872-1.658v10.048z"/><path fill="#EF4BA2" d="M119.619 59.967c10.199 2.513 10.199 10.43 0 12.946a18.067 18.067 0 0 1-8.603 0c-10.198-2.516-10.198-10.433 0-12.946a18.067 18.067 0 0 1 8.603 0z"/><path fill="#252323" d="M115.32 61.36c-1.291 0-2.586.155-3.842.466-4.57 1.127-6.19 3.188-6.19 4.612s1.62 3.488 6.19 4.616c2.516.618 5.172.618 7.684 0 4.57-1.128 6.19-3.192 6.19-4.616 0-1.424-1.62-3.485-6.187-4.612h-.003a15.988 15.988 0 0 0-3.842-.467zm0 13.988c-1.602 0-3.205-.195-4.761-.58-5.614-1.382-9.106-4.573-9.106-8.33 0-3.753 3.492-6.945 9.106-8.33a19.992 19.992 0 0 1 9.522 0c5.618 1.386 9.106 4.577 9.106 8.33 0 3.757-3.488 6.948-9.109 8.33-1.553.385-3.156.58-4.758.58z"/><path fill="#fff" d="M115.321 42.348c-4.259 0-7.712 3.45-7.712 7.705V60.97c0 1.682 1.645 3.364 4.935 4.177 1.815.45 3.739.45 5.554 0 3.29-.813 4.935-2.495 4.935-4.177V50.053c0-4.255-3.453-7.705-7.712-7.705z"/><path fill="#252323" d="M115.32 44.265c-3.194 0-5.794 2.597-5.794 5.789V60.97c0 .586.927 1.69 3.477 2.318a9.803 9.803 0 0 0 4.638 0c2.55-.629 3.477-1.732 3.477-2.318V50.054c0-3.192-2.603-5.79-5.798-5.79zm0 23.134c-1.089 0-2.175-.13-3.236-.392-4.712-1.163-6.393-3.88-6.393-6.036V50.054c0-5.305 4.32-9.62 9.629-9.62 5.31 0 9.633 4.315 9.633 9.62V60.97c0 2.156-1.68 4.873-6.392 6.036a13.554 13.554 0 0 1-3.241.392z"/><path fill="#252323" d="M115.32 67.4c-1.089 0-2.175-.131-3.236-.393-4.712-1.163-6.393-3.88-6.393-6.036 0-2.156 1.681-4.874 6.393-6.037l.919 3.718c-2.554.63-3.477 1.732-3.477 2.319 0 .586.923 1.69 3.477 2.318a9.803 9.803 0 0 0 4.638 0c2.55-.629 3.477-1.732 3.477-2.318 0-.587-.927-1.69-3.481-2.319l.924-3.718c4.712 1.163 6.388 3.88 6.388 6.037 0 2.156-1.676 4.873-6.388 6.036a13.554 13.554 0 0 1-3.241.392zM123.574 397.785l-3.665 2.113c-.379.216-1.033.187-1.468-.06l-3.453-1.994c-.435-.25-.481-.628-.106-.845l3.665-2.112c.375-.22 1.033-.192 1.465.06l3.456 1.989c.431.251.481.629.106.849zM132.597 402.991l-3.665 2.113c-.378.216-1.032.187-1.468-.06l-3.452-1.994c-.435-.251-.481-.629-.106-.845l3.665-2.116c.375-.215 1.032-.188 1.464.064l3.456 1.989c.435.251.481.629.106.849zM123.609 408.172l-3.665 2.113c-.375.216-1.033.191-1.468-.06l-3.452-1.994c-.436-.251-.481-.63-.107-.845l3.665-2.114c.375-.218 1.033-.19 1.468.061l3.453 1.994c.435.25.481.628.106.845zM141.121 407.906l-3.665 2.117c-.375.215-1.029.188-1.464-.064l-3.453-1.989c-.435-.251-.481-.629-.106-.849l3.665-2.114c.375-.215 1.033-.186 1.464.061l3.457 1.994c.431.251.481.628.102.844zM132.14 413.091l-3.665 2.114c-.378.215-1.032.19-1.468-.06l-3.452-1.993c-.435-.252-.481-.63-.106-.845l3.665-2.114c.375-.219 1.032-.19 1.464.06l3.456 1.993c.432.249.481.625.106.845zM149.651 412.826l-3.665 2.113c-.375.22-1.033.191-1.465-.06l-3.456-1.993c-.431-.248-.481-.625-.106-.844l3.669-2.114c.375-.215 1.029-.19 1.464.06l3.453 1.993c.435.251.481.629.106.845zM140.666 418.011l-3.665 2.114c-.375.215-1.029.186-1.464-.061l-3.457-1.993c-.431-.252-.481-.63-.102-.845l3.665-2.117c.375-.215 1.029-.187 1.464.064l3.453 1.989c.435.252.481.63.106.849zM158.678 418.032l-3.665 2.113c-.375.22-1.033.191-1.465-.061l-3.456-1.991c-.431-.252-.481-.63-.102-.845l3.664-2.114c.375-.216 1.03-.19 1.465.059l3.452 1.994c.435.251.481.629.107.845zM149.689 423.213l-3.665 2.116c-.375.217-1.029.188-1.464-.063l-3.456-1.989c-.432-.252-.481-.63-.103-.848l3.665-2.114c.375-.215 1.03-.187 1.465.06l3.456 1.993c.431.251.481.63.102.845zM167.662 412.851l-3.664 2.113c-.375.216-1.033.188-1.465-.061l-3.456-1.991c-.432-.252-.481-.63-.106-.845l3.665-2.118c.378-.216 1.033-.187 1.468.063l3.452 1.991c.435.25.481.628.106.848zM176.648 407.667l-3.665 2.112c-.375.219-1.033.192-1.464-.059l-3.456-1.994c-.435-.247-.481-.625-.106-.845l3.664-2.113c.379-.216 1.033-.191 1.468.06l3.453 1.994c.435.25.481.628.106.845zM185.629 402.486l-3.665 2.112c-.375.217-1.033.192-1.468-.059l-3.453-1.994c-.435-.251-.481-.63-.106-.845l3.665-2.114c.375-.218 1.033-.19 1.468.061l3.452 1.994c.436.247.482.628.107.845zM194.617 397.3l-3.665 2.117c-.375.216-1.033.187-1.468-.064l-3.453-1.989c-.435-.252-.481-.63-.106-.848l3.665-2.114c.375-.215 1.033-.187 1.465.06l3.456 1.993c.435.252.481.63.106.845zM203.601 392.12l-3.665 2.113c-.378.22-1.033.191-1.468-.061l-3.452-1.992c-.435-.251-.481-.629-.106-.845l3.664-2.114c.375-.215 1.033-.19 1.465.06l3.456 1.993c.432.252.481.63.106.846zM212.582 386.938l-3.665 2.113c-.375.215-1.029.188-1.464-.061L204 386.998c-.435-.251-.481-.629-.106-.844l3.665-2.118c.375-.216 1.033-.187 1.464.063l3.456 1.991c.432.25.482.628.103.848zM221.566 381.753l-3.664 2.113c-.375.219-1.03.192-1.465-.06l-3.452-1.993c-.436-.247-.482-.625-.107-.845l3.665-2.113c.375-.216 1.03-.191 1.465.06l3.456 1.994c.431.251.481.628.102.844zM230.553 376.573l-3.665 2.114c-.375.215-1.03.19-1.465-.061l-3.456-1.994c-.431-.251-.481-.629-.102-.844l3.664-2.114c.375-.218 1.03-.191 1.465.061l3.453 1.993c.435.247.481.628.106.845zM239.537 371.387l-3.665 2.118c-.375.215-1.033.186-1.464-.064l-3.456-1.99c-.432-.252-.482-.628-.103-.848l3.665-2.114c.375-.215 1.029-.187 1.464.06l3.453 1.993c.435.252.481.63.106.845zM248.526 366.206l-3.665 2.114c-.375.219-1.033.19-1.465-.06l-3.456-1.993c-.431-.252-.481-.63-.106-.845l3.665-2.114c.379-.215 1.033-.19 1.468.06l3.453 1.993c.435.252.481.63.106.845zM257.507 361.025l-3.664 2.114c-.375.215-1.033.188-1.465-.059l-3.456-1.994c-.435-.251-.481-.629-.106-.845l3.665-2.118c.378-.215 1.033-.186 1.468.065l3.452 1.99c.435.251.481.628.106.847zM266.496 355.841l-3.665 2.114c-.375.218-1.033.19-1.468-.061l-3.453-1.994c-.435-.247-.481-.625-.106-.845l3.665-2.113c.375-.215 1.033-.191 1.468.061l3.453 1.993c.435.251.481.63.106.845zM275.48 350.66l-3.665 2.113c-.378.216-1.033.191-1.468-.06l-3.452-1.994c-.435-.249-.481-.628-.106-.845l3.664-2.112c.375-.219 1.033-.192 1.465.06l3.456 1.993c.435.247.481.63.106.845zM284.464 345.475l-3.664 2.118c-.379.215-1.033.186-1.468-.064l-3.453-1.99c-.435-.25-.481-.629-.106-.848l3.665-2.114c.375-.215 1.033-.187 1.464.061l3.456 1.992c.432.251.481.63.106.845zM293.445 340.294l-3.665 2.113c-.375.22-1.029.191-1.464-.059l-3.453-1.993c-.435-.252-.481-.63-.106-.845l3.665-2.114c.375-.215 1.033-.19 1.465.061l3.456 1.992c.431.251.481.63.102.845zM167.207 422.953l-3.665 2.112c-.375.217-1.033.191-1.465-.06l-3.456-1.993c-.435-.251-.481-.63-.106-.845l3.665-2.114c.375-.218 1.033-.19 1.468.061l3.453 1.993c.435.25.481.629.106.846zM176.191 417.77l-3.665 2.112c-.375.217-1.033.188-1.468-.063l-3.452-1.989c-.435-.251-.481-.63-.107-.848l3.665-2.113c.375-.216 1.033-.188 1.468.059l3.453 1.993c.435.251.481.63.106.849zM185.175 412.585l-3.664 2.114c-.379.219-1.033.19-1.468-.061l-3.453-1.992c-.435-.251-.481-.63-.106-.845l3.665-2.114c.375-.215 1.033-.19 1.464.06l3.456 1.993c.435.252.481.63.106.845zM194.16 407.404l-3.665 2.114c-.379.215-1.033.187-1.468-.061l-3.453-1.992c-.435-.252-.481-.63-.106-.845l3.665-2.114c.375-.219 1.033-.19 1.465.06l3.456 1.993c.431.247.481.625.106.845zM203.141 402.221l-3.665 2.112c-.375.219-1.03.192-1.465-.06l-3.452-1.993c-.435-.247-.481-.626-.106-.845l3.664-2.114c.375-.215 1.033-.19 1.465.061l3.456 1.994c.432.249.481.628.103.845zM212.127 397.039l-3.665 2.112c-.375.217-1.029.192-1.465-.059l-3.456-1.994c-.431-.251-.481-.629-.102-.844l3.665-2.114c.375-.218 1.029-.191 1.464.061l3.456 1.993c.432.247.481.628.103.845zM221.115 391.858l-3.665 2.114c-.375.215-1.033.186-1.464-.065l-3.456-1.99c-.432-.251-.481-.628-.103-.847l3.665-2.114c.375-.215 1.029-.188 1.464.059l3.453 1.994c.435.251.481.629.106.849zM230.096 386.673l-3.665 2.113c-.375.22-1.033.191-1.464-.06l-3.456-1.993c-.432-.251-.481-.629-.106-.844l3.664-2.114c.379-.215 1.033-.191 1.468.059l3.453 1.994c.435.251.481.629.106.845zM239.082 381.492l-3.665 2.114c-.375.215-1.033.187-1.465-.06l-3.456-1.993c-.435-.252-.481-.63-.106-.845l3.665-2.114c.378-.219 1.033-.19 1.468.06l3.453 1.99c.435.252.481.628.106.848zM248.066 376.308l-3.665 2.112c-.375.22-1.033.192-1.468-.059l-3.452-1.993c-.435-.247-.481-.626-.107-.845l3.665-2.114c.375-.215 1.033-.19 1.468.061l3.453 1.994c.435.251.481.629.106.844zM257.054 371.127l-3.665 2.113c-.375.216-1.032.191-1.468-.06l-3.452-1.994c-.435-.251-.481-.628-.106-.845l3.665-2.114c.374-.218 1.032-.19 1.464.061l3.456 1.994c.435.247.481.629.106.845zM266.039 365.945l-3.665 2.114c-.379.215-1.033.186-1.468-.064l-3.453-1.99c-.435-.252-.481-.628-.106-.848l3.665-2.114c.375-.215 1.033-.187 1.464.06l3.457 1.993c.431.252.481.63.106.849zM275.02 360.76l-3.665 2.114c-.375.219-1.03.19-1.465-.06l-3.452-1.993c-.436-.252-.481-.63-.106-.845l3.664-2.114c.375-.215 1.033-.19 1.465.061l3.456 1.992c.431.251.481.63.103.845zM284.004 355.579l-3.665 2.114c-.375.215-1.029.188-1.464-.06l-3.453-1.993c-.435-.251-.481-.629-.106-.845l3.665-2.114c.375-.219 1.029-.19 1.464.061l3.456 1.989c.432.252.481.63.103.848zM292.99 350.395l-3.665 2.113c-.375.219-1.029.191-1.464-.06l-3.456-1.994c-.432-.247-.481-.625-.103-.845l3.665-2.112c.375-.217 1.029-.192 1.464.06l3.453 1.993c.435.251.481.63.106.845zM301.974 345.214l-3.664 2.114c-.375.215-1.033.19-1.465-.061l-3.456-1.993c-.432-.25-.481-.629-.103-.845l3.665-2.113c.375-.219 1.03-.191 1.465.06l3.452 1.993c.435.247.481.63.106.845zM302.392 335.134l-3.664 2.114c-.375.218-1.03.19-1.465-.061l-3.456-1.994c-.432-.251-.481-.628-.103-.844l3.665-2.114c.375-.215 1.03-.191 1.465.061l3.456 1.993c.431.252.477.628.102.845zM8.941 331.2l-3.664 2.114c-.375.219-1.03.19-1.465-.06L.36 331.261c-.436-.248-.482-.626-.107-.845l3.665-2.114c.375-.215 1.033-.19 1.465.061l3.456 1.993c.431.25.48.629.102.844zM17.968 336.407l-3.665 2.113c-.378.22-1.032.191-1.468-.059l-3.452-1.994c-.435-.251-.481-.629-.106-.845l3.665-2.113c.375-.216 1.033-.191 1.464.061l3.456 1.992c.432.251.481.629.106.845zM8.984 341.587l-3.665 2.118c-.378.216-1.033.187-1.468-.063L.4 341.651c-.436-.25-.482-.628-.107-.848l3.665-2.113c.375-.216 1.033-.188 1.465.061l3.456 1.991c.435.252.481.63.106.845zM26.494 341.327l-3.665 2.113c-.375.216-1.03.191-1.464-.061l-3.456-1.993c-.432-.25-.482-.628-.103-.845l3.665-2.112c.375-.22 1.03-.192 1.464.059l3.456 1.994c.432.247.478.629.103.845zM17.508 346.508l-3.665 2.113c-.375.218-1.03.19-1.464-.06l-3.453-1.994c-.435-.247-.481-.626-.106-.845l3.665-2.112c.375-.217 1.03-.188 1.464.06l3.456 1.993c.432.251.481.629.103.845zM35.023 346.246l-3.665 2.113c-.375.216-1.033.191-1.464-.059l-3.456-1.994c-.435-.251-.482-.629-.107-.845l3.665-2.113c.379-.22 1.033-.191 1.468.06l3.453 1.992c.435.249.481.627.106.846zM26.038 351.427l-3.665 2.113c-.375.22-1.033.191-1.465-.059l-3.456-1.993c-.432-.247-.481-.63-.106-.845l3.668-2.114c.375-.216 1.03-.191 1.465.061l3.452 1.992c.435.251.482.63.107.845zM44.045 351.451l-3.665 2.114c-.375.215-1.032.187-1.464-.06l-3.456-1.993c-.432-.252-.481-.63-.106-.845l3.665-2.118c.378-.215 1.032-.186 1.468.063l3.452 1.991c.435.252.481.628.106.848zM35.06 356.632l-3.664 2.114c-.375.215-1.033.191-1.465-.061l-3.456-1.992c-.432-.251-.481-.63-.103-.845l3.665-2.114c.375-.215 1.03-.19 1.465.06l3.452 1.993c.435.252.481.63.106.845zM53.03 346.267l-3.664 2.114c-.375.218-1.033.191-1.465-.061l-3.456-1.993c-.435-.247-.48-.63-.106-.845l3.665-2.114c.379-.215 1.033-.19 1.468.061l3.453 1.994c.435.251.48.629.106.844zM62.015 341.086l-3.665 2.113c-.375.216-1.032.191-1.468-.06l-3.452-1.994c-.435-.251-.481-.628-.106-.845l3.665-2.114c.375-.218 1.033-.19 1.468.061l3.452 1.994c.435.247.481.625.106.845zM52.574 356.367l-3.665 2.118c-.375.215-1.033.186-1.468-.064l-3.453-1.99c-.435-.252-.48-.628-.106-.848l3.665-2.114c.375-.215 1.033-.187 1.465.06l3.456 1.993c.435.252.48.63.106.845zM61.558 351.186l-3.665 2.114c-.378.215-1.032.19-1.468-.059l-3.452-1.994c-.435-.251-.481-.63-.106-.845l3.665-2.114c.375-.215 1.032-.19 1.464.06l3.456 1.993c.435.252.481.63.106.845zM70.547 346.005l-3.665 2.113c-.379.216-1.033.188-1.468-.059l-3.453-1.993c-.435-.252-.481-.63-.106-.845l3.665-2.118c.375-.215 1.033-.186 1.464.065l3.457 1.989c.431.252.48.628.106.848zM79.072 350.921l-3.665 2.118c-.375.215-1.033.186-1.464-.064l-3.456-1.99c-.432-.252-.481-.628-.103-.848l3.665-2.114c.375-.215 1.03-.187 1.464.06l3.453 1.993c.435.252.481.63.106.845zM70.086 356.106l-3.665 2.114c-.375.215-1.029.191-1.464-.061l-3.456-1.993c-.432-.252-.478-.628-.103-.845l3.665-2.114c.375-.218 1.03-.19 1.465.061l3.456 1.993c.431.248.48.63.102.845zM88.096 356.127l-3.665 2.113c-.375.22-1.03.191-1.465-.061l-3.456-1.991c-.431-.249-.481-.627-.103-.845l3.665-2.114c.375-.215 1.03-.191 1.465.059l3.456 1.994c.431.251.481.629.103.845zM79.11 361.313l-3.665 2.112c-.375.216-1.03.187-1.465-.06l-3.453-1.993c-.435-.251-.48-.63-.106-.845l3.665-2.114c.375-.218 1.033-.19 1.465.061l3.456 1.989c.431.252.48.63.102.85zM96.623 361.047l-3.664 2.112c-.375.22-1.033.192-1.465-.059l-3.456-1.993c-.431-.252-.481-.63-.106-.845l3.665-2.114c.378-.216 1.033-.191 1.468.061l3.452 1.993c.435.25.481.628.106.845zM87.638 366.232l-3.664 2.113c-.375.215-1.033.188-1.465-.064l-3.456-1.989c-.431-.251-.481-.629-.102-.849l3.664-2.113c.375-.216 1.03-.187 1.465.063l3.452 1.991c.435.25.481.628.106.848zM105.152 365.966l-3.665 2.114c-.375.215-1.033.19-1.468-.061l-3.452-1.992c-.436-.252-.482-.63-.107-.845l3.665-2.114c.375-.219 1.033-.19 1.465.06l3.456 1.993c.435.252.481.63.106.845zM96.168 371.147l-3.665 2.114c-.375.219-1.033.19-1.468-.061l-3.453-1.989c-.435-.252-.48-.63-.106-.848l3.665-2.114c.375-.215 1.033-.187 1.468.06l3.453 1.993c.435.252.48.63.106.845zM114.175 371.172l-3.664 2.113c-.375.216-1.033.191-1.468-.06l-3.453-1.992c-.435-.252-.481-.63-.106-.845l3.665-2.114c.375-.219 1.033-.19 1.468.06l3.452 1.993c.435.247.481.625.106.845zM105.191 376.353l-3.665 2.114c-.375.219-1.033.19-1.464-.061l-3.456-1.993c-.435-.247-.481-.628-.106-.844l3.664-2.113c.379-.216 1.033-.192 1.468.059l3.453 1.994c.435.251.481.629.106.844zM113.718 381.272l-3.664 2.114c-.379.215-1.033.192-1.468-.06l-3.453-1.993c-.435-.251-.481-.63-.106-.845l3.665-2.114c.375-.215 1.033-.19 1.464.061l3.456 1.993c.432.25.481.629.106.844z"/></svg>