<svg width="246" height="326" viewBox="0 0 246 326" fill="none" xmlns="http://www.w3.org/2000/svg">
<path d="M237.592 222.985C237.337 222.985 237.084 222.969 236.827 222.936C235.053 222.712 231.849 221.473 230.33 215.705L233.173 214.957C233.973 217.996 235.403 219.793 237.198 220.02C238.783 220.243 240.554 219.128 241.58 217.294C243.101 214.572 242.6 211.195 240.231 208.26C231.694 197.671 231.816 185.887 231.827 185.388L234.765 185.442C234.765 185.554 234.678 196.69 242.518 206.415C245.665 210.317 246.275 214.922 244.149 218.727C242.667 221.378 240.153 222.985 237.592 222.985" fill="#252323"/>
<path d="M28.7278 258.891C28.7278 258.891 42.1778 255.536 56.808 244.375C71.4354 233.217 26.7529 219.399 26.7529 219.399L23.031 235.873C23.031 235.873 21.699 247.831 23.031 248.096C24.3602 248.362 28.7278 258.891 28.7278 258.891" fill="#252323"/>
<path d="M24.0257 246.958C24.8938 247.589 26.4211 249.662 29.5761 257.118C33.1597 256.018 44.2089 252.137 55.9146 243.206C58.6111 241.149 58.3208 239.52 58.2259 238.987C57.0133 232.165 37.1394 224.327 27.8345 221.286L24.4624 236.195C24.0094 240.344 23.7354 245.499 24.0257 246.958ZM27.8534 260.626L27.3679 259.455C25.6534 255.324 23.3475 250.473 22.4468 249.47C21.34 249.166 20.2088 247.928 21.5679 235.71L25.6697 217.524L27.1888 217.996C30.4686 219.009 59.2947 228.205 61.1204 238.471C61.5843 241.079 60.4341 243.456 57.6996 245.542C42.9989 256.757 29.6439 260.176 29.0823 260.317L27.8534 260.626Z" fill="#252323"/>
<path d="M233.156 163.379H5.40365C4.78242 163.379 4.28602 163.888 4.29959 164.506L6.23649 242.03C6.23649 244.82 7.62003 247.608 10.3817 249.202L26.9921 258.783C28.3213 259.549 29.9843 258.59 29.9843 257.056V249.834C29.9843 248.3 31.6472 247.339 32.9765 248.107L86.858 279.185C89.21 280.543 90.6613 283.053 90.6613 285.766V291.119C90.6613 293.834 92.11 296.344 94.4647 297.702L108.37 305.721C114.48 309.248 122.01 309.248 128.12 305.721L226.108 249.199C228.873 247.605 230.254 244.816 230.254 242.028L234.258 164.536C234.29 163.907 233.788 163.379 233.156 163.379" fill="#EF4BA2"/>
<path d="M31.9769 246.364C32.5737 246.364 33.1678 246.521 33.7131 246.835L87.5919 277.914C90.3888 279.53 92.1304 282.536 92.1304 285.766V291.119C92.1304 293.303 93.305 295.335 95.1985 296.428L109.104 304.453C114.739 307.698 121.743 307.703 127.383 304.453L225.372 247.931C227.507 246.698 228.782 244.491 228.782 242.03L232.767 164.847H5.77671L7.70547 241.993C7.70547 244.491 8.9805 246.698 11.1155 247.931L27.7259 257.511C27.9538 257.645 28.1573 257.568 28.2522 257.511C28.3499 257.454 28.5127 257.318 28.5127 257.056V249.834C28.5127 248.581 29.161 247.459 30.2461 246.833C30.7887 246.521 31.3828 246.364 31.9769 246.364V246.364ZM118.244 309.825C114.573 309.825 110.908 308.881 107.634 306.993L93.7255 298.97C90.9286 297.358 89.1897 294.346 89.1897 291.119V285.766C89.1897 283.584 88.0151 281.549 86.1215 280.456L32.24 249.378C32.0122 249.25 31.8141 249.321 31.7164 249.378C31.6188 249.434 31.4533 249.57 31.4533 249.834V257.056C31.4533 258.309 30.805 259.428 29.7198 260.056C28.6347 260.677 27.3407 260.68 26.2556 260.053L9.64515 250.473C6.59055 248.711 4.76484 245.553 4.76484 242.03L2.82787 164.544C2.81159 163.845 3.07207 163.186 3.56038 162.685C4.04868 162.183 4.70241 161.907 5.40231 161.907H233.155C233.858 161.907 234.539 162.202 235.021 162.709C235.502 163.218 235.759 163.912 235.724 164.612L231.723 242.104C231.723 245.553 229.897 248.711 226.842 250.473L128.853 306.993C125.582 308.881 121.911 309.825 118.244 309.825" fill="#252323"/>
<path d="M128.317 305.721L218.957 253.145L222.565 165.018L138.525 163.379L119.492 175.732V308.296C122.547 308.134 125.574 307.302 128.317 305.721" fill="#252323"/>
<path d="M120.962 176.529V306.687C123.33 306.373 125.552 305.622 127.581 304.451L217.518 252.279L221.034 166.458L138.947 164.853L120.962 176.529ZM118.018 309.847V174.935L138.104 161.902L224.094 163.579L220.391 254.01L219.694 254.417L129.051 306.996C126.181 308.652 122.988 309.582 119.57 309.766L118.018 309.847" fill="#252323"/>
<path d="M5.40365 163.378C4.78242 163.378 4.28602 163.888 4.29959 164.506L6.23649 242.03C6.23649 244.819 7.62002 247.608 10.3816 249.201L13.9354 251.251L12.3078 172.921L15.2131 163.378H5.40365Z" fill="#252323"/>
<path d="M5.77671 164.847L7.70547 241.993C7.70547 244.491 8.98051 246.698 11.1155 247.931L12.4095 248.676L10.8306 172.718L13.2288 164.847H5.77671ZM15.4587 253.826L9.64516 250.473C6.59055 248.711 4.76484 245.553 4.76484 242.03L2.82787 164.541C2.81159 163.842 3.07207 163.186 3.56038 162.684C4.04868 162.183 4.70241 161.906 5.40231 161.906H17.1949L13.7795 173.124L15.4587 253.826" fill="#252323"/>
<path d="M230.059 170.742L128.866 229.11C122.942 232.528 115.642 232.528 109.717 229.11L8.52688 170.742C2.85172 167.468 2.85172 159.286 8.52688 156.014L109.72 97.646C115.644 94.2284 122.944 94.2284 128.869 97.646L230.059 156.014C235.734 159.286 235.734 167.468 230.059 170.742" fill="white"/>
<path d="M119.295 96.5593C116.237 96.5593 113.183 97.3453 110.456 98.9145L9.2639 157.286C7.0584 158.557 5.74263 160.833 5.74263 163.378C5.74263 165.918 7.0584 168.2 9.2639 169.471L110.454 227.839C115.904 230.98 122.683 230.983 128.133 227.839L229.326 169.468C231.531 168.197 232.847 165.918 232.847 163.378C232.847 160.836 231.531 158.557 229.326 157.286L128.133 98.9145C125.409 97.3453 122.349 96.5593 119.295 96.5593V96.5593ZM119.295 233.133C115.727 233.133 112.163 232.217 108.983 230.382L7.79352 172.013C4.66838 170.211 2.802 166.98 2.802 163.376C2.80471 159.771 4.66838 156.543 7.79352 154.743L108.986 96.3723C115.345 92.7053 123.245 92.708 129.606 96.3723L230.796 154.743C233.921 156.543 235.788 159.771 235.788 163.378C235.788 166.983 233.921 170.211 230.796 172.011L129.606 230.382C126.424 232.217 122.859 233.133 119.295 233.133Z" fill="#252323"/>
<path d="M106.797 305.885L105.66 228.065L108.601 228.018L109.738 305.841L106.797 305.885Z" fill="#252323"/>
<path d="M34.5632 235.046L26.8724 230.609C25.6896 229.926 24.7292 228.094 24.7292 226.52V212.301C24.7292 210.724 25.6896 209.998 26.8724 210.681L34.5632 215.117C35.7459 215.8 36.7063 217.632 36.7063 219.21V233.428C36.7063 235.005 35.7459 235.728 34.5632 235.046Z" fill="white"/>
<path d="M26.2216 212.001C26.2081 212.082 26.2 212.18 26.2 212.299V226.52C26.2 227.65 26.9568 228.961 27.6079 229.338L35.2146 233.727C35.2281 233.647 35.2363 233.548 35.2363 233.428V219.21C35.2363 218.08 34.4794 216.766 33.8283 216.392L26.2216 212.001ZM35.418 236.77C34.8972 236.77 34.3519 236.618 33.8283 236.317L26.1376 231.88C24.4963 230.937 23.2593 228.631 23.2593 226.52V212.299C23.2593 210.933 23.7964 209.838 24.735 209.296C25.5868 208.805 26.634 208.846 27.6079 209.413L35.2987 213.847C36.9399 214.792 38.1769 217.096 38.1769 219.21V233.428C38.1769 234.797 37.6398 235.892 36.7012 236.431C36.3051 236.659 35.8711 236.77 35.418 236.77Z" fill="#252323"/>
<path d="M32.5138 228.122L26.9878 224.931L28.4581 222.392L33.9841 225.579L32.5138 228.122" fill="#252323"/>
<path d="M171.866 254.429L171.299 253.451L226.008 221.896L226.572 222.877L171.866 254.429Z" fill="#EF4BA2"/>
<path d="M171.866 258.255L171.299 257.276L226.008 225.72L226.572 226.702L171.866 258.255" fill="#EF4BA2"/>
<path d="M171.866 262.081L171.299 261.1L226.008 229.545L226.572 230.525L171.866 262.081Z" fill="#EF4BA2"/>
<path d="M171.866 250.606L171.299 249.627L226.008 218.069L226.572 219.05L171.866 250.606Z" fill="#EF4BA2"/>
<path d="M130.846 301.697L128.586 301.662L128.887 282.531L131.15 282.565L130.846 301.697" fill="#EF4BA2"/>
<path d="M131.202 279.022L128.94 278.987L129.067 270.93L131.33 270.965L131.202 279.022Z" fill="#EF4BA2"/>
<path d="M216.097 203.078L213.834 203.035L214.233 183.106L216.495 183.15L216.097 203.078Z" fill="#EF4BA2"/>
<path d="M99.583 272.679C99.583 274.59 98.2401 275.364 96.5826 274.407C94.9278 273.452 93.585 271.129 93.585 269.218C93.585 267.307 94.9278 266.532 96.5826 267.489C98.2401 268.443 99.583 270.768 99.583 272.679Z" fill="#EF4BA2"/>
<path d="M95.2417 268.545C95.2145 268.545 95.1983 268.547 95.1901 268.55C95.1712 268.572 95.0545 268.764 95.0545 269.217C95.0545 270.61 96.1125 272.44 97.3169 273.137C97.7184 273.364 97.9382 273.356 97.9734 273.342C97.9924 273.321 98.1118 273.128 98.1118 272.678C98.1118 271.285 97.0538 269.455 95.8466 268.759C95.5374 268.58 95.3312 268.545 95.2417 268.545V268.545ZM97.9273 276.283C97.2546 276.283 96.5438 276.082 95.8466 275.678C93.7523 274.469 92.1111 271.632 92.1111 269.217C92.1111 267.767 92.7025 266.599 93.7252 266.005C94.7479 265.414 96.0555 265.487 97.3169 266.217C99.4112 267.423 101.052 270.26 101.052 272.678C101.052 274.125 100.464 275.296 99.4384 275.89C98.9799 276.153 98.4672 276.283 97.9273 276.283" fill="#252323"/>
<path d="M99.583 261.111C99.583 263.022 98.2401 263.793 96.5826 262.839C94.9278 261.882 93.585 259.561 93.585 257.65C93.585 255.739 94.9278 254.964 96.5826 255.92C98.2401 256.875 99.583 259.2 99.583 261.111Z" fill="#EF4BA2"/>
<path d="M95.2417 256.979C95.2145 256.979 95.1983 256.979 95.1901 256.983C95.1712 257.004 95.0545 257.196 95.0545 257.65C95.0545 259.043 96.1125 260.872 97.3169 261.568C97.7184 261.799 97.9382 261.788 97.9734 261.777C97.9924 261.753 98.1118 261.562 98.1118 261.11C98.1118 259.717 97.0538 257.888 95.8466 257.191C95.5374 257.015 95.3312 256.979 95.2417 256.979V256.979ZM97.9273 264.715C97.2546 264.715 96.5438 264.514 95.8466 264.111C93.7523 262.905 92.1111 260.066 92.1111 257.65C92.1111 256.199 92.7025 255.031 93.7252 254.437C94.7479 253.847 96.0555 253.92 97.3169 254.649C99.4112 255.855 101.052 258.692 101.052 261.11C101.052 262.56 100.464 263.729 99.4384 264.321C98.9799 264.585 98.4672 264.715 97.9273 264.715" fill="#252323"/>
<path d="M156.374 159.541L87.6454 199.183L44.7019 174.414L113.431 134.771L156.374 159.541Z" fill="white"/>
<path d="M47.6441 174.415L87.6469 197.487L153.435 159.541L113.432 136.468L47.6441 174.415ZM87.6469 200.88L41.7654 174.415L113.432 133.075L159.313 159.541L87.6469 200.88Z" fill="#252323"/>
<path d="M165.622 154.316L96.7201 193.95L53.9502 169.189L122.679 129.546L165.622 154.316" fill="white"/>
<path d="M56.8886 169.189L96.7205 192.253L162.677 154.312L122.679 131.243L56.8886 169.189ZM96.7178 195.647L51.0154 169.184L122.679 127.849L168.566 154.318L96.7178 195.647" fill="#252323"/>
<path d="M172.702 150.301L104.065 189.725L61.0322 165.175L129.761 125.53L172.702 150.301" fill="white"/>
<path d="M63.9832 165.167L104.062 188.034L169.755 150.299L129.76 127.229L63.9832 165.167ZM104.067 191.419L58.0774 165.181L129.76 123.836L175.644 150.304L104.067 191.419" fill="#252323"/>
<path d="M135.207 86.6344L120.666 82.4823C120.506 82.4362 120.335 82.4362 120.172 82.4796L99.577 88.1441C99.4929 88.1685 99.4223 88.1956 99.3464 88.2416C97.3687 89.4748 67.2514 108.2 65.2032 109.13C63.0872 110.092 43.4628 117.973 42.5025 118.74C41.7565 119.337 36.415 118.022 34.0359 117.396C33.4553 117.244 32.8938 117.683 32.8938 118.28V155.725C32.8938 156.925 33.6887 158.129 35.2811 159.045L44.1628 164.17C47.5809 166.14 53.1747 166.14 56.5955 164.17L108.771 134.075C112.189 132.102 117.783 132.102 121.203 134.075L143.614 147C144.192 147.334 144.23 148.152 143.684 148.537L133.625 155.638C133.544 155.695 133.454 155.738 133.362 155.765L114.763 161.373C114.676 161.4 114.587 161.413 114.497 161.413H110.439C109.934 161.413 109.525 161.823 109.525 162.327L109.568 200.249C109.701 201.338 110.455 202.409 111.898 203.241L120.783 208.363C124.201 210.337 129.795 210.337 133.216 208.363L218.717 159.045C220.307 158.129 221.102 156.925 221.102 155.725V117.732C221.102 117.347 220.861 117.003 220.494 116.873L135.261 86.6507C135.245 86.6453 135.226 86.6398 135.207 86.6344" fill="#EF4BA2"/>
<path d="M110.995 162.883L111.041 200.246C111.112 200.745 111.682 201.42 112.634 201.97L121.518 207.093C124.483 208.805 129.51 208.805 132.481 207.093L217.982 157.774C219.03 157.167 219.632 156.419 219.632 155.722V118.125L134.789 88.0414L120.414 83.938L99.9678 89.5591C96.8399 91.5349 67.9541 109.493 65.8137 110.469C65.1057 110.789 62.4552 111.878 59.1971 113.22C53.6278 115.507 44.3066 119.337 43.3572 119.936C42.839 120.353 42.0577 120.977 34.3642 119.001V155.722C34.3642 156.419 34.9665 157.167 36.0163 157.774L44.8953 162.899C47.8685 164.612 52.8899 164.612 55.8604 162.899L108.036 132.801C111.931 130.549 118.038 130.552 121.939 132.801L144.352 145.732C145.057 146.139 145.502 146.87 145.54 147.686C145.575 148.499 145.201 149.269 144.531 149.738L134.472 156.839C134.255 156.991 134.027 157.099 133.788 157.172L115.187 162.78C114.967 162.847 114.736 162.883 114.5 162.883H110.995ZM127.001 211.323C124.497 211.323 121.998 210.76 120.048 209.635L111.163 204.512C109.389 203.488 108.307 202.038 108.109 200.425L108.055 162.33C108.055 161.015 109.126 159.945 110.439 159.945H114.5L132.936 154.362L142.13 147.841L120.466 135.344C117.501 133.633 112.476 133.631 109.506 135.344L57.3308 165.441C53.4325 167.691 47.326 167.691 43.425 165.441L34.5433 160.316C32.5331 159.156 31.4236 157.524 31.4236 155.722V118.28C31.4236 117.534 31.7627 116.846 32.3541 116.393C32.94 115.938 33.6942 115.786 34.4104 115.976C39.1144 117.212 41.2357 117.45 41.8461 117.423C42.9584 116.773 46.9164 115.087 58.0768 110.504C61.2887 109.181 63.8985 108.111 64.5956 107.794C66.085 107.119 85.7283 94.9851 98.5707 86.9952C98.7606 86.8787 98.9478 86.7946 99.1702 86.7323L119.782 81.0651C120.208 80.9486 120.656 80.9486 121.073 81.0705L135.725 85.2579L220.988 115.491C221.932 115.822 222.572 116.724 222.572 117.735V155.722C222.572 157.524 221.466 159.156 219.453 160.316L133.951 209.635C132.003 210.76 129.499 211.323 127.001 211.323Z" fill="#252323"/>
<path d="M133.215 207.946L211.482 162.801V113.26L194.88 107.371L127.941 162.631V209.375C129.87 209.255 131.745 208.795 133.215 207.946" fill="#252323"/>
<path d="M129.413 163.319V207.724C130.59 207.513 131.648 207.155 132.481 206.675L210.01 161.953V114.296L195.174 109.033L129.413 163.319ZM126.47 210.936V161.94L194.585 105.707L212.954 112.223V163.65L133.949 209.22C132.354 210.139 130.308 210.7 128.032 210.838L126.47 210.936" fill="#252323"/>
<path d="M51.3528 165.303C53.2707 165.181 55.1344 164.72 56.5966 163.877L108.772 133.783C110.687 132.677 113.286 132.213 115.803 132.349V83.3905L99.5781 87.8516C99.494 87.876 99.4235 87.9058 99.3502 87.9519C97.3699 89.1824 67.2525 107.91 65.2043 108.84C64.008 109.382 57.207 112.141 51.3528 114.575V165.303Z" fill="#252323"/>
<path d="M52.8217 115.553V163.652C53.9909 163.443 55.0218 163.088 55.86 162.606L108.035 132.511C109.733 131.533 111.969 130.956 114.332 130.866V85.3201L99.9674 89.269C96.8396 91.2447 67.9537 109.203 65.8133 110.176C65.1134 110.493 62.5254 111.558 59.3243 112.873C57.2951 113.707 55.0164 114.645 52.8217 115.553V115.553ZM49.8811 166.869V113.594L50.7871 113.217C53.2558 112.19 55.8926 111.108 58.2067 110.157C61.3589 108.861 63.909 107.813 64.5953 107.501C66.0846 106.826 85.728 94.6949 98.5703 86.7051C98.7602 86.5885 98.9474 86.5045 99.1699 86.4422L117.272 81.4607V133.896L115.723 133.815C113.363 133.677 111.09 134.14 109.506 135.053L57.3304 165.148C55.7462 166.062 53.7116 166.623 51.4464 166.769L49.8811 166.869" fill="#252323"/>
<path d="M35.2818 120.41L44.6193 125.798C47.8014 127.633 52.9584 127.633 56.1378 125.798L109.227 95.1746C112.409 93.3398 117.566 93.3398 120.746 95.1746L164.989 120.695C168.171 122.529 168.171 125.505 164.989 127.34L111.899 157.961C108.72 159.796 108.72 162.772 111.899 164.606L121.239 169.994C124.419 171.829 129.579 171.829 132.758 169.994L218.718 120.41C221.898 118.575 221.898 115.602 218.718 113.767L132.758 64.1854C129.579 62.3505 124.421 62.3505 121.239 64.1854L35.2818 113.767C32.0997 115.602 32.0997 118.575 35.2818 120.41" fill="white"/>
<path d="M114.986 92.3262C117.324 92.3262 119.66 92.8521 121.48 93.9036L165.726 119.423C167.736 120.583 168.846 122.218 168.846 124.017C168.843 125.82 167.736 127.451 165.726 128.611L112.634 159.235C111.587 159.839 110.984 160.587 110.984 161.286C110.984 161.983 111.587 162.731 112.634 163.335L121.974 168.721C124.698 170.293 129.301 170.293 132.022 168.721L217.982 119.139C219.03 118.535 219.632 117.786 219.632 117.087C219.632 116.391 219.03 115.643 217.982 115.038L132.022 65.4566C129.304 63.8874 124.698 63.8847 121.977 65.4566L36.0163 115.038C34.9665 115.645 34.3642 116.393 34.3642 117.09C34.3642 117.786 34.9665 118.535 36.0136 119.136L36.0163 119.139L45.3537 124.527C48.0774 126.096 52.6783 126.096 55.4019 124.527L108.491 93.9036C110.312 92.8521 112.65 92.3262 114.986 92.3262V92.3262ZM126.998 172.843C124.662 172.843 122.324 172.317 120.504 171.263L111.163 165.877C109.153 164.72 108.044 163.086 108.044 161.286C108.044 159.484 109.153 157.85 111.163 156.692L164.253 126.069C165.303 125.465 165.902 124.717 165.902 124.017C165.902 123.321 165.303 122.573 164.253 121.966L120.01 96.4459C117.289 94.8766 112.683 94.8766 109.962 96.4459L56.8723 127.066C53.2318 129.172 47.5267 129.172 43.8834 127.066L34.5433 121.681C32.5331 120.524 31.4236 118.892 31.4236 117.09C31.4236 115.288 32.5304 113.656 34.5433 112.496L120.504 62.9117C124.147 60.8085 129.852 60.8112 133.492 62.9117L219.453 112.496C221.466 113.653 222.572 115.288 222.572 117.087C222.572 118.89 221.466 120.524 219.453 121.681L133.492 171.263C131.675 172.317 129.337 172.843 126.998 172.843" fill="#252323"/>
<path d="M222.723 80.3794H210.626L209.468 89.4697L130.594 43.9751C125.494 41.0318 117.225 41.0318 112.128 43.9751L49.1772 80.4038L49.8391 70.552H28.2751L18.1211 93.8711H16.1271L5.91622 117.328L2.39773 125.427C1.84703 126.869 2.52791 128.435 4.47027 129.557L58.086 160.484C61.1026 162.221 66.0372 162.221 69.0538 160.484L82.4116 152.779C85.4282 151.039 90.3655 151.039 93.3821 152.779L97.1936 154.977C97.6955 155.267 98.0834 155.595 98.4198 155.934L95.0017 163.907C94.5975 165.287 95.3462 166.566 97.1936 167.631L108.612 174.217C113.69 177.147 121.999 177.147 127.078 174.217L128.814 173.217L154.501 158.4L232.345 113.317C234.841 111.878 236.097 110 236.148 108.114L236.658 84.5559C236.664 84.2741 236.477 84.0274 236.205 83.9542L222.723 80.3794" fill="#EF4BA2"/>
<path d="M87.8962 149.995C90.1343 149.995 92.3723 150.499 94.1166 151.505L97.9281 153.706C98.4842 154.023 98.9725 154.405 99.4663 154.901L100.158 155.606L96.352 164.487C96.2163 164.98 96.7264 165.666 97.9254 166.357L109.346 172.946C113.955 175.602 121.736 175.605 126.342 172.946L153.766 157.129L231.607 112.046C233.549 110.927 234.637 109.517 234.68 108.073L235.171 85.201L222.53 81.851H211.922L210.647 91.8465L129.858 45.2461C125.251 42.5901 117.471 42.5901 112.862 45.2461L47.5244 83.0571L48.265 72.0209H29.2375L19.0835 95.3401H17.0923L3.74533 126.012C3.34655 127.066 4.63239 127.955 5.2075 128.286L58.8205 159.21C61.3922 160.693 65.7436 160.696 68.318 159.21L81.6758 151.505C83.4201 150.499 85.6582 149.995 87.8962 149.995ZM117.845 177.868C114.235 177.868 110.627 177.074 107.876 175.488L96.4578 168.9C93.1428 166.991 93.2377 164.696 93.5877 163.498L96.6368 156.359C96.5799 156.321 96.5202 156.286 96.4605 156.251L92.6436 154.047C90.0692 152.562 85.7206 152.565 83.1461 154.047L69.7883 161.753C66.3024 163.766 60.8388 163.766 57.3501 161.753L3.73447 130.828C1.21971 129.378 0.180714 127.107 1.02439 124.904L15.1635 92.4021H17.1547L27.3086 69.083H51.4091L50.8259 77.7504L111.386 42.7039C116.98 39.4787 125.734 39.4787 131.328 42.7012L208.287 87.0927L209.332 78.9131L223.099 78.9592L236.585 82.5367C237.515 82.7861 238.15 83.6317 238.125 84.5911L237.618 108.146C237.548 110.659 235.936 112.941 233.08 114.588L127.812 175.491C125.064 177.074 121.453 177.868 117.845 177.868" fill="#252323"/>
<path d="M76.3634 93.1769C75.7856 93.1769 63.2959 102.98 63.2959 102.98V106.631L77.7008 130.245L63.2986 161.777C65.3739 161.82 67.4709 161.397 69.0524 160.484L82.4102 152.778C83.7395 152.011 85.4296 151.602 87.1631 151.507L102.344 119.976L92.5263 94.1634C92.5263 94.1634 76.9412 93.1769 76.3634 93.1769" fill="#252323"/>
<path d="M64.7695 106.219L79.3643 130.145L65.6701 160.127C66.6711 159.948 67.5854 159.633 68.3178 159.21L81.6756 151.505C82.9289 150.781 84.4806 150.307 86.2033 150.115L100.744 119.909L91.4878 95.5704C85.9238 95.2208 78.4121 94.7492 76.6895 94.6597C75.2463 95.5785 69.1859 100.235 64.7695 103.696V106.219ZM63.584 163.249C63.4782 163.249 63.3751 163.249 63.2693 163.246L61.0339 163.2L76.0411 130.346L61.8288 107.046V102.268L62.3903 101.826C75.2788 91.7055 75.759 91.7056 76.3639 91.7056C76.958 91.7056 90.0066 92.5349 92.619 92.7002L93.5631 92.7598L103.942 120.044L88.1131 152.928L87.245 152.977C85.6526 153.061 84.1958 153.443 83.1486 154.047L69.7881 161.753C68.1116 162.723 65.917 163.249 63.584 163.249" fill="#252323"/>
<path d="M209.461 89.4696L206.407 87.708L161.781 96.828C161.781 96.828 131.962 117.974 131.77 118.741C131.577 119.51 129.846 132.389 129.846 132.389L130.999 144.876L116.941 176.374C120.577 176.518 124.293 175.821 127.074 174.217L128.807 173.217L154.495 158.4L227.528 116.103V83.3905L209.773 87.0195L209.461 89.4696" fill="#252323"/>
<path d="M131.326 132.419L132.5 145.122L119.218 174.883C121.928 174.713 124.446 174.038 126.339 172.946L153.76 157.128L226.059 115.255V85.1898L211.101 88.2497L210.642 91.8462L206.158 89.2606L162.382 98.2045C151.945 105.606 135.49 117.412 133.135 119.445C132.858 121.144 131.922 127.99 131.326 132.419V132.419ZM117.897 177.862C117.561 177.862 117.224 177.854 116.885 177.84L114.715 177.756L129.5 144.629L128.366 132.357L128.388 132.191C128.797 129.153 130.145 119.171 130.343 118.388C130.512 117.721 130.666 117.09 160.933 95.6297L161.185 95.4509L206.66 86.1573L208.285 87.0924L208.45 85.7914L229.002 81.5905V116.951L127.807 175.491C125.138 177.033 121.649 177.862 117.897 177.862" fill="#252323"/>
<path d="M31.5558 77.6662C34.5724 79.4062 34.5724 82.2546 31.5558 83.9946L18.198 91.6999C15.1814 93.4399 15.1814 96.2857 18.198 98.0257L71.8136 128.953C74.8303 130.693 79.7648 130.693 82.7815 128.953L96.1393 121.247C99.1559 119.507 104.093 119.507 107.11 121.247L110.919 123.445C113.935 125.185 113.935 128.031 110.919 129.771C107.905 131.511 107.905 134.36 110.919 136.1L122.339 142.685C127.418 145.615 135.727 145.615 140.805 142.685L142.542 141.685L168.229 126.868L232.864 89.6781C237.964 86.7374 237.964 81.9674 232.864 79.0267L131.113 20.3359C126.013 17.3926 117.747 17.3926 112.647 20.3359L31.5558 67.0148C26.4585 69.9582 26.4585 74.7255 31.5558 77.6662" fill="white"/>
<path d="M101.627 118.467C103.865 118.467 106.101 118.971 107.848 119.974L111.659 122.172C113.563 123.272 114.654 124.89 114.654 126.608C114.654 128.327 113.563 129.945 111.659 131.045C110.688 131.603 110.129 132.292 110.129 132.934C110.129 133.576 110.688 134.268 111.659 134.829L123.077 141.415C127.683 144.071 135.467 144.073 140.073 141.415L232.134 88.4071C234.125 87.258 235.221 85.8161 235.221 84.3526C235.221 82.8863 234.125 81.4472 232.131 80.298L130.38 21.6072C125.768 18.9484 117.985 18.9511 113.384 21.6072L32.2935 68.2888C30.3023 69.438 29.2037 70.8771 29.2037 72.3407C29.2037 73.8069 30.3023 75.2461 32.2935 76.3952C34.1979 77.4929 35.2912 79.1109 35.2912 80.8292C35.2912 82.5503 34.2006 84.1656 32.2935 85.266L18.9357 92.9712C17.9672 93.5322 17.4084 94.2207 17.4084 94.863C17.4084 95.5053 17.9672 96.1965 18.9357 96.7548L72.5514 127.682C75.1258 129.161 79.4744 129.164 82.0516 127.679L95.4067 119.976C97.151 118.971 99.3891 118.467 101.627 118.467V118.467ZM131.576 146.339C127.966 146.339 124.355 145.542 121.607 143.957L110.189 137.371C108.282 136.27 107.191 134.655 107.191 132.934C107.191 131.213 108.284 129.598 110.189 128.5C111.157 127.942 111.713 127.251 111.713 126.608C111.713 125.966 111.157 125.275 110.189 124.717L106.375 122.519C103.806 121.033 99.4488 121.033 96.877 122.519L83.5192 130.224C80.0333 132.235 74.5697 132.235 71.081 130.224L17.4654 99.297C15.561 98.1993 14.4678 96.5813 14.4705 94.863C14.4705 93.142 15.561 91.5266 17.4681 90.429L30.8232 82.7237C31.7944 82.1627 32.3505 81.4716 32.3505 80.8292C32.3505 80.1896 31.7944 79.4985 30.8232 78.9402C27.8852 77.2435 26.263 74.8992 26.263 72.3407C26.263 69.7822 27.8852 67.4405 30.8232 65.7439L111.917 19.0622C117.502 15.8397 126.259 15.8424 131.85 19.0622L233.602 77.7558C236.543 79.4497 238.162 81.7914 238.162 84.3526C238.162 86.9111 236.543 89.2555 233.602 90.9494L141.543 143.957C138.795 145.542 135.184 146.336 131.576 146.339" fill="#252323"/>
<path d="M96.3469 164.498L93.6531 163.319L107.355 132.026L110.049 133.205L96.3469 164.498Z" fill="#252323"/>
<path d="M157.346 157.866L156.22 155.906L203.162 128.912L204.288 130.871L157.346 157.866Z" fill="#EF4BA2"/>
<path d="M136.132 170.298L134.982 168.352L151.072 158.887L152.219 160.833L136.132 170.298Z" fill="#EF4BA2"/>
<path d="M20.7579 109.612L44.1124 122.754C45.013 123.261 45.3711 124.375 44.9316 125.31L39.1832 137.604C38.6949 138.648 37.4172 139.054 36.4134 138.482L13.3628 125.34C12.4839 124.839 12.1258 123.752 12.5354 122.825L17.9827 110.534C18.4547 109.469 19.7433 109.043 20.7579 109.612Z" fill="white"/>
<path d="M19.7922 110.826C19.7244 110.826 19.6675 110.842 19.6295 110.853C19.5508 110.88 19.4043 110.951 19.3256 111.13L13.881 123.421C13.7752 123.659 13.8675 123.936 14.0926 124.063L37.1432 137.208C37.3087 137.303 37.4688 137.273 37.5448 137.249C37.6235 137.224 37.7699 137.157 37.8513 136.983L43.6024 124.687C43.7137 124.445 43.6241 124.164 43.3908 124.033L20.0391 110.894C19.9496 110.845 19.8655 110.826 19.7922 110.826V110.826ZM37.3929 140.211C36.7988 140.211 36.2101 140.057 35.6838 139.758L12.6359 126.616C11.095 125.735 10.4738 123.849 11.1927 122.234L16.64 109.94C17.0306 109.054 17.7848 108.371 18.7044 108.067C19.6213 107.761 20.6332 107.856 21.4796 108.333L44.8341 121.475C46.3939 122.353 47.0233 124.313 46.2637 125.931L40.5153 138.227C40.1084 139.094 39.3488 139.761 38.4345 140.048C38.0954 140.157 37.7428 140.211 37.3929 140.211" fill="#252323"/>
<path d="M50.4878 127.112L53.3118 128.695C53.4908 128.795 53.5614 129.018 53.4746 129.202L52.2077 131.915C52.11 132.124 51.8577 132.202 51.657 132.089L48.8981 130.506C48.7245 130.405 48.654 130.191 48.7354 130.01L49.9371 127.294C50.0321 127.082 50.2871 126.998 50.4878 127.112" fill="#252323"/>
<path d="M56.2269 130.321L59.0536 131.904C59.2299 132.004 59.3032 132.227 59.2164 132.411L57.9468 135.124C57.8491 135.333 57.5968 135.411 57.3988 135.297L54.6371 133.715C54.4635 133.614 54.393 133.4 54.4744 133.219L55.6789 130.503C55.7711 130.291 56.0261 130.207 56.2269 130.321" fill="#252323"/>
<path d="M61.9683 133.712L64.7951 135.298C64.9741 135.398 65.0446 135.62 64.9578 135.805L63.6883 138.518C63.5906 138.724 63.3383 138.805 63.1403 138.691L60.3787 137.108C60.205 137.008 60.1372 136.794 60.2159 136.612L61.4203 133.897C61.5126 133.685 61.7676 133.601 61.9683 133.712" fill="#252323"/>
<path d="M47.7125 132.953L50.5392 134.536C50.7182 134.636 50.7888 134.858 50.702 135.043L49.4323 137.756C49.3347 137.964 49.0824 138.043 48.8844 137.929L46.1228 136.346C45.9491 136.246 45.8786 136.032 45.96 135.85L47.1645 133.135C47.2567 132.923 47.5117 132.839 47.7125 132.953" fill="#252323"/>
<path d="M53.4524 136.161L56.279 137.747C56.4581 137.845 56.5286 138.067 56.4418 138.251L55.1723 140.964C55.0773 141.173 54.8223 141.252 54.6243 141.138L51.8654 139.555C51.6918 139.455 51.6213 139.24 51.7027 139.059L52.9044 136.343C52.9993 136.132 53.2516 136.048 53.4524 136.161Z" fill="#252323"/>
<path d="M59.1939 139.553L62.018 141.138C62.197 141.239 62.2675 141.461 62.1807 141.645L60.9138 144.358C60.8162 144.564 60.5612 144.645 60.3631 144.532L57.6042 142.949C57.4306 142.848 57.36 142.634 57.4414 142.453L58.6432 139.737C58.7381 139.526 58.9931 139.442 59.1939 139.553" fill="#252323"/>
<path d="M47.7125 132.953L50.5392 134.536C50.7182 134.636 50.7888 134.858 50.702 135.043L49.4323 137.756C49.3347 137.964 49.0824 138.043 48.8844 137.929L46.1228 136.346C45.9491 136.246 45.8786 136.032 45.96 135.85L47.1645 133.135C47.2567 132.923 47.5117 132.839 47.7125 132.953" fill="#252323"/>
<path d="M53.4524 136.161L56.279 137.747C56.4581 137.845 56.5286 138.067 56.4418 138.251L55.1723 140.964C55.0773 141.173 54.8223 141.252 54.6243 141.138L51.8654 139.555C51.6918 139.455 51.6213 139.24 51.7027 139.059L52.9044 136.343C52.9993 136.132 53.2516 136.048 53.4524 136.161Z" fill="#252323"/>
<path d="M59.1939 139.553L62.018 141.138C62.197 141.239 62.2675 141.461 62.1807 141.645L60.9138 144.358C60.8162 144.564 60.5612 144.645 60.3631 144.532L57.6042 142.949C57.4306 142.848 57.36 142.634 57.4414 142.453L58.6432 139.737C58.7381 139.526 58.9931 139.442 59.1939 139.553" fill="#252323"/>
<path d="M44.939 138.794L47.763 140.377C47.942 140.477 48.0125 140.699 47.9257 140.883L46.6589 143.596C46.5612 143.805 46.3062 143.883 46.1082 143.77L43.3493 142.187C43.1757 142.087 43.1051 141.873 43.1865 141.691L44.3883 138.975C44.4833 138.764 44.7382 138.68 44.939 138.794" fill="#252323"/>
<path d="M50.6799 142.002L53.5039 143.588C53.6829 143.685 53.7535 143.908 53.6667 144.092L52.3998 146.805C52.3021 147.014 52.0499 147.092 51.8492 146.978L49.0902 145.396C48.9166 145.295 48.8461 145.081 48.9275 144.9L50.132 142.184C50.2242 141.973 50.4792 141.889 50.6799 142.002" fill="#252323"/>
<path d="M56.4187 145.393L59.2455 146.979C59.4219 147.079 59.4951 147.301 59.4083 147.486L58.1387 150.199C58.041 150.405 57.7887 150.486 57.5907 150.372L54.8291 148.789C54.6554 148.689 54.5849 148.475 54.6663 148.293L55.8707 145.578C55.963 145.366 56.218 145.282 56.4187 145.393" fill="#252323"/>
<path d="M24.9975 121.754C24.3546 123.058 22.8869 123.649 21.7205 123.074C20.554 122.5 20.1308 120.976 20.7737 119.673C21.4193 118.369 22.8842 117.775 24.0507 118.35C25.2172 118.925 25.6404 120.448 24.9975 121.754" fill="#252323"/>
<path d="M30.6629 125.09C30.0199 126.394 28.5523 126.987 27.3858 126.413C26.2192 125.838 25.796 124.315 26.439 123.011C27.0819 121.705 28.5496 121.114 29.7161 121.689C30.8826 122.263 31.3058 123.786 30.6629 125.09Z" fill="#EF4BA2"/>
<path d="M193.533 149.266C193.207 149.207 192.912 149.158 192.912 149.158C191.558 149.02 189.835 149.738 187.996 151.854C186.968 153.039 186.186 154.44 185.752 155.944C185.05 158.386 185.332 160.183 186.178 161.186C186.178 161.186 187.882 163.65 191.683 164.533C191.862 164.576 192.06 164.498 192.16 164.341L197.811 155.364L198.055 152.131C198.063 152.012 198.033 151.909 197.955 151.822C197.521 151.356 196.064 149.778 193.533 149.266" fill="#EF4BA2"/>
<path d="M192.555 150.261C191.896 150.261 190.578 150.605 188.85 152.597C187.914 153.67 187.219 154.936 186.839 156.256C186.308 158.107 186.381 159.676 187.043 160.457C187.159 160.617 188.508 162.476 191.467 163.313L196.703 154.998L196.901 152.356C196.345 151.792 195.168 150.754 193.315 150.377L192.718 150.269C192.669 150.263 192.615 150.261 192.555 150.261V150.261ZM191.774 165.674C191.657 165.674 191.538 165.66 191.421 165.633C187.249 164.663 185.326 161.942 185.247 161.828C184.132 160.514 183.904 158.283 184.666 155.635C185.136 153.998 185.99 152.437 187.141 151.112C189.568 148.323 191.657 147.881 193.025 148.033L193.757 148.16C195.659 148.548 197.343 149.513 198.77 151.041C199.074 151.366 199.212 151.778 199.183 152.217L198.917 155.727L193.114 164.945C192.827 165.4 192.308 165.674 191.774 165.674" fill="#EF4BA2"/>
<path d="M199.641 155.25C199.641 158.451 197.392 162.343 194.617 163.945C191.842 165.544 189.593 164.248 189.593 161.048C189.593 157.844 191.842 153.952 194.617 152.353C197.392 150.751 199.641 152.05 199.641 155.25Z" fill="#252323"/>
<path d="M196.864 152.798C196.376 152.798 195.795 152.977 195.185 153.332C192.765 154.725 190.725 158.259 190.725 161.048C190.725 162.156 191.053 162.986 191.631 163.319C192.201 163.65 193.085 163.522 194.053 162.964C196.471 161.573 198.513 158.039 198.513 155.25C198.513 154.139 198.182 153.31 197.607 152.979C197.396 152.857 197.143 152.798 196.864 152.798ZM192.372 165.764C191.699 165.764 191.067 165.601 190.5 165.273C189.187 164.517 188.462 163.015 188.462 161.048C188.462 157.43 190.92 153.18 194.053 151.372C195.76 150.388 197.423 150.261 198.736 151.022C200.049 151.779 200.776 153.283 200.776 155.25C200.776 158.866 198.318 163.116 195.185 164.921C194.213 165.482 193.259 165.764 192.372 165.764Z" fill="#EF4BA2"/>
<path d="M220.12 81.4113L180.023 58.057C176.83 56.1977 174.269 53.4224 172.671 50.0942L166.792 37.8437C165.192 34.5047 162.623 31.7267 159.419 29.8674L111.554 2.0655C110.198 1.27681 108.7 1.30121 107.436 1.84327L34.321 43.8362L35.7697 55.886L61.0312 72.7385L101.851 102.595L135.557 121.469L151.644 136.435L224.702 94.4314V89.3822C224.702 86.1001 222.958 83.0646 220.12 81.4113" fill="#EF4BA2"/>
<path d="M37.1475 55.041L61.8448 71.5167L102.718 101.408L136.558 120.394L151.853 134.62L223.232 93.5837V89.3828C223.232 86.6345 221.756 84.0652 219.379 82.683L179.282 59.3259C175.82 57.3094 173.075 54.3363 171.344 50.7289L165.465 38.4785C163.987 35.3942 161.638 32.8547 158.678 31.1364L110.816 3.33718C109.652 2.66232 108.567 2.96044 108.019 3.19353L35.8969 44.6254L37.1475 55.041ZM151.437 138.249L134.683 122.665L101.131 103.877L60.1629 73.9234L34.3886 56.7322L32.7446 43.048L106.704 0.570005C108.659 -0.275599 110.637 -0.164487 112.295 0.797658L160.159 28.5969C163.629 30.6133 166.38 33.5919 168.116 37.2101L173.994 49.4605C175.47 52.534 177.811 55.0708 180.76 56.7891L220.861 80.1435C224.138 82.0542 226.172 85.5911 226.172 89.3828V95.2803L151.437 138.249" fill="#252323"/>
<path d="M102.991 96.9636L176.418 55.3257L176.432 55.2878C174.902 53.7918 173.605 52.0653 172.672 50.1166L166.793 37.8662C166.123 36.4731 165.252 35.2074 164.27 34.0339L90.4306 75.1107L81.2722 78.9783L85.9924 91.02L91.3041 94.9038L102.991 96.9636" fill="#252323"/>
<path d="M91.8962 93.5157L102.726 95.4237L174.105 54.9513C172.982 53.6395 172.057 52.2356 171.346 50.7531L165.467 38.5C165.049 37.6327 164.531 36.7844 163.894 35.9252L91.1474 76.3949L83.161 79.7719L87.2057 90.0872L91.8962 93.5157ZM103.257 98.4999L90.7134 96.291L84.7805 91.9546L79.3821 78.181L89.8616 73.7578L164.618 32.158L165.397 33.0903C166.552 34.4671 167.442 35.8222 168.118 37.2316L173.996 49.482C174.818 51.1922 175.985 52.7939 177.46 54.2385L178.122 54.8863L177.642 56.2902L177.146 56.6046L103.257 98.4999" fill="#252323"/>
<path d="M150.315 126.632C150.315 126.632 148.115 128.941 146.004 131.188L151.644 136.435L224.702 94.4316V89.3824C224.702 87.8565 224.312 86.393 223.625 85.0866L150.315 126.632Z" fill="#252323"/>
<path d="M148.088 131.121L151.853 134.62L223.232 93.5835V89.3826C223.232 88.6454 223.121 87.9055 222.904 87.1845L151.229 127.803C150.801 128.253 149.509 129.611 148.088 131.121ZM151.438 138.249L143.924 131.259L144.935 130.186C147.046 127.934 149.251 125.619 149.251 125.619L149.591 125.356L224.22 83.0622L224.925 84.4038C225.742 85.9541 226.173 87.6751 226.173 89.3826V95.2801L151.438 138.249Z" fill="#252323"/>
<path d="M161.115 131.253L160.008 129.286L219.345 95.9793L220.455 97.9469L161.115 131.253Z" fill="#EF4BA2"/>
<path d="M82.1457 69.5519L155.928 27.9682L116.943 5.32654L43.7921 47.2762L37.5989 53.087L43.879 61.4265L54.3911 68.4407L82.1457 69.5519Z" fill="white"/>
<path d="M54.8623 66.9881L81.7868 68.0695L152.971 27.9493L116.936 7.02326L44.673 48.4634L39.5649 53.2551L44.9037 60.3452L54.8623 66.9881ZM82.5057 71.0372L53.9183 69.8908L42.7036 62.3101L35.6313 52.9163L43.0589 46.0024L116.947 3.63L158.884 27.9872L82.5057 71.0372" fill="#252323"/>
<path d="M112.051 103.024V108.306L124.815 115.453L141.797 120.351L215.572 78.7642L185.354 61.1637L112.051 103.024" fill="white"/>
<path d="M125.384 114.09L141.609 118.768L212.614 78.7424L185.347 62.8602L113.521 103.877V107.447L125.384 114.09ZM141.981 121.933L124.095 116.735L110.577 109.168V102.173L185.361 59.4697L218.525 78.7858L141.981 121.933" fill="#252323"/>
<path d="M31.5564 67.0145V48.059C31.5564 44.5004 35.4167 42.2807 38.4957 44.0695L86.3603 71.8686C89.5614 73.7306 92.1304 76.5086 93.731 79.8449L99.6096 92.0953C101.207 95.4262 103.768 98.2015 106.964 100.061L147.059 123.415C149.899 125.068 151.644 128.104 151.644 131.386V136.435L31.5564 67.0145" fill="#EF4BA2"/>
<path d="M33.0269 66.1696L150.174 133.888V131.387C150.174 128.636 148.698 126.069 146.319 124.684L106.224 101.33C102.759 99.3134 100.014 96.3402 98.2859 92.7329L92.4073 80.4825C90.9288 77.3982 88.5822 74.8587 85.6199 73.1404L37.7553 45.3386C36.7705 44.7694 35.5905 44.764 34.6057 45.3332C33.6183 45.9023 33.0269 46.9187 33.0269 48.0597V66.1696ZM153.114 138.981L30.0862 67.8635V48.0597C30.0862 45.8563 31.2283 43.8859 33.1381 42.7855C35.0506 41.6879 37.3294 41.696 39.2338 42.7991L87.0983 70.6009C90.5734 72.6174 93.3242 75.5959 95.0576 79.2114L100.936 91.4618C102.412 94.5379 104.753 97.0747 107.702 98.793L147.8 122.147C151.077 124.053 153.114 127.595 153.114 131.387V138.981" fill="#252323"/>
<path d="M159.112 83.656L169.437 84.6994C171.01 84.8566 172.592 84.5124 173.956 83.7183L215.527 59.4776C216.572 58.8705 216.233 57.2822 215.031 57.1521L161.087 51.3305C159.307 51.138 157.511 51.5175 155.962 52.4119L102.526 83.2332C101.202 83.9975 101.628 86.0058 103.147 86.1711L141.479 90.307C143.003 90.4723 144.544 90.1634 145.887 89.4235L154.755 84.545C156.084 83.8132 157.604 83.5042 159.112 83.656" fill="#EF4BA2"/>
<path d="M160.17 52.7507C158.952 52.7507 157.764 53.0678 156.698 53.6831L103.261 84.5041L141.637 88.8459C142.863 88.9869 144.092 88.7375 145.177 88.1359L154.048 83.2574C155.643 82.3793 157.439 82.0107 159.259 82.195L169.587 83.2384C170.843 83.3604 172.109 83.0948 173.216 82.4497L214.217 58.5425L160.93 52.7914C160.675 52.7643 160.423 52.7507 160.17 52.7507V52.7507ZM142.296 91.8191C141.973 91.8191 141.647 91.8028 141.322 91.7649L102.99 87.6318C101.653 87.4854 100.608 86.5422 100.334 85.2278C100.055 83.916 100.627 82.634 101.791 81.9619L155.228 51.1381C157.062 50.0838 159.142 49.6448 161.245 49.8697L215.189 55.6941C216.379 55.8188 217.307 56.6589 217.56 57.8297C217.809 58.9979 217.305 60.1443 216.268 60.746L174.697 84.9865C173.051 85.946 171.182 86.3525 169.291 86.1601L158.963 85.1166C157.756 85.0001 156.538 85.2413 155.466 85.8294L146.596 90.7106C145.266 91.4424 143.796 91.8191 142.296 91.8191" fill="#252323"/>
<path d="M109.109 79.439L137.639 82.0463C138.567 82.133 139.498 81.927 140.303 81.4582L174.181 61.779C174.854 61.386 174.642 60.3642 173.869 60.2694L149.228 57.3288C148.265 57.2149 147.292 57.4155 146.453 57.8979L109.109 79.439" fill="white"/>
<path d="M113.849 78.3979L137.771 80.5824C138.392 80.6421 139.019 80.5038 139.567 80.1867L171.74 61.4966L149.051 58.7864C148.419 58.7078 147.746 58.846 147.184 59.1712L113.849 78.3979ZM138.056 83.5339C137.871 83.5339 137.687 83.5258 137.5 83.5095L104.363 80.4794L145.714 56.6263C146.823 55.9866 148.134 55.721 149.401 55.8701L174.041 58.8108C175.018 58.93 175.807 59.6536 176.005 60.6158C176.206 61.5779 175.766 62.5564 174.914 63.0496L141.042 82.7263C140.126 83.2602 139.103 83.5339 138.056 83.5339" fill="#252323"/>
<path d="M46.6196 62.1258L47.1865 62.4538C47.7155 62.7573 48.1089 62.8657 48.3747 62.7763C48.6352 62.6868 48.7681 62.4104 48.7681 61.9497C48.7681 61.4835 48.6569 61.0769 48.4371 60.7273C48.2174 60.3804 47.8729 60.0687 47.4008 59.7977L46.6196 59.3478V62.1258ZM50.5042 62.882C50.5042 63.8875 50.2303 64.5 49.685 64.7196C49.1398 64.9391 48.3639 64.7575 47.3575 64.1775L46.6196 63.752V67.0802L44.8997 66.0883V56.7296L47.4904 58.2257C48.4751 58.7922 49.2239 59.467 49.7339 60.253C50.2466 61.0363 50.5042 61.9117 50.5042 62.882" fill="#252323"/>
<path d="M53.755 65.9932L54.3084 66.313C54.851 66.6247 55.2525 66.7548 55.513 66.6952C55.7707 66.6355 55.9009 66.3807 55.9009 65.9335C55.9009 65.489 55.7707 65.0961 55.5048 64.7546C55.2417 64.4158 54.832 64.0851 54.2759 63.7653L53.755 63.4645V65.9932ZM53.755 67.6058V71.197L52.0352 70.205V60.8463L54.398 62.2096C55.4994 62.8465 56.3159 63.5485 56.8449 64.3155C57.3739 65.0825 57.6397 65.939 57.6397 66.8821C57.6397 67.4323 57.5068 67.847 57.2437 68.1235C56.9805 68.3999 56.6089 68.5219 56.1287 68.4894C57.3494 71.2972 58.147 73.1159 58.516 73.9425L56.6061 72.8421L54.6693 68.1343L53.755 67.6058" fill="#252323"/>
<path d="M59.5369 74.5307V65.1748L61.2568 66.1641V75.5226L59.5369 74.5307Z" fill="#252323"/>
<path d="M70.4929 80.851L68.3064 79.5906L64.7771 70.4758L64.7283 70.446C64.7988 71.7388 64.834 72.6495 64.834 73.1834V77.5877L63.2959 76.7014V67.3427L65.4661 68.5948L68.99 77.6338L69.028 77.6555C68.971 76.4087 68.9439 75.5333 68.9439 75.0292V70.6005L70.4929 71.4922V80.851" fill="#252323"/>
<path d="M75.6664 83.8347L73.9465 82.8428V75.1376L71.7437 73.8664V72.2159L77.8692 75.7474V77.4006L75.6664 76.1295V83.8347" fill="#252323"/>
<path d="M91.734 45.7016C99.555 47.6286 99.555 53.6997 91.734 55.6294C89.5773 56.1606 87.2932 56.1606 85.1365 55.6294C77.3155 53.6997 77.3155 47.6286 85.1365 45.7016C87.2932 45.1704 89.5773 45.1704 91.734 45.7016Z" fill="#EF4BA2"/>
<path d="M88.4364 46.7693C87.4462 46.7693 86.4534 46.8886 85.4903 47.1271C81.9854 47.9916 80.7429 49.5717 80.7429 50.6639C80.7429 51.7562 81.9854 53.339 85.4903 54.2035C87.4191 54.6778 89.4564 54.6778 91.3825 54.2035C94.8875 53.339 96.1299 51.7562 96.1299 50.6639C96.1299 49.5717 94.8875 47.9916 91.3852 47.1271H91.3825C90.4195 46.8886 89.4293 46.7693 88.4364 46.7693V46.7693ZM88.4364 57.4965C87.2075 57.4965 85.9786 57.3474 84.785 57.052C80.4798 55.9923 77.8022 53.5449 77.8022 50.6639C77.8022 47.7857 80.4798 45.3383 84.785 44.2759C87.1722 43.6878 89.6978 43.6878 92.0878 44.2759C96.3957 45.3383 99.0706 47.7857 99.0706 50.6639C99.0706 53.5449 96.3957 55.9923 92.0851 57.052C90.8942 57.3474 89.6653 57.4965 88.4364 57.4965Z" fill="#252323"/>
<path d="M88.4354 32.1902C85.1692 32.1902 82.5215 34.8355 82.5215 38.0986V46.4706C82.5215 47.7607 83.783 49.0507 86.3059 49.6741C87.6976 50.0183 89.1733 50.0183 90.565 49.6741C93.0879 49.0507 94.3493 47.7607 94.3493 46.4706V38.0986C94.3493 34.8355 91.7016 32.1902 88.4354 32.1902" fill="white"/>
<path d="M88.4355 33.6597C85.9858 33.6597 83.992 35.6517 83.992 38.0991V46.4711C83.992 46.9211 84.7027 47.7666 86.6586 48.2491C87.8197 48.5336 89.0486 48.5336 90.2151 48.2491C92.171 47.7666 92.8818 46.9211 92.8818 46.4711V38.0991C92.8818 35.6517 90.8851 33.6597 88.4355 33.6597ZM88.4355 51.4011C87.5999 51.4011 86.7671 51.3008 85.9533 51.1003C82.3399 50.2086 81.0513 48.1244 81.0513 46.4711V38.0991C81.0513 34.031 84.3636 30.7217 88.4355 30.7217C92.5074 30.7217 95.8224 34.031 95.8224 38.0991V46.4711C95.8224 48.1244 94.5338 50.2086 90.9204 51.1003C90.1065 51.3008 89.271 51.4011 88.4355 51.4011" fill="#252323"/>
<path d="M88.4355 51.4011C87.5999 51.4011 86.7671 51.3008 85.9533 51.1003C82.3399 50.2086 81.0513 48.1244 81.0513 46.4711C81.0513 44.8179 82.3399 42.7336 85.9533 41.842L86.6586 44.6932C84.7 45.1756 83.992 46.0212 83.992 46.4711C83.992 46.921 84.7 47.7666 86.6586 48.2491C87.8197 48.5336 89.0486 48.5336 90.2151 48.2491C92.171 47.7666 92.8818 46.921 92.8818 46.4711C92.8818 46.0212 92.171 45.1756 90.2124 44.6932L90.9204 41.842C94.5338 42.7336 95.8197 44.8179 95.8197 46.4711C95.8197 48.1244 94.5338 50.2086 90.9204 51.1003C90.1065 51.3008 89.271 51.4011 88.4355 51.4011Z" fill="#252323"/>
<path d="M94.7649 304.765L91.9544 306.386C91.6642 306.551 91.1623 306.529 90.8287 306.339L88.181 304.811C87.8473 304.619 87.812 304.329 88.0996 304.163L90.9101 302.543C91.1976 302.375 91.7022 302.396 92.0331 302.589L94.6835 304.114C95.0145 304.307 95.0525 304.597 94.7649 304.765" fill="#252323"/>
<path d="M101.685 308.757L98.8746 310.378C98.5844 310.543 98.0825 310.521 97.7488 310.332L95.1012 308.803C94.7675 308.61 94.7322 308.32 95.0198 308.155L97.8302 306.532C98.1178 306.367 98.6223 306.388 98.9533 306.581L101.604 308.106C101.937 308.299 101.973 308.589 101.685 308.757" fill="#252323"/>
<path d="M94.7935 312.73L91.9831 314.352C91.6955 314.517 91.1909 314.498 90.8572 314.305L88.2095 312.776C87.8758 312.583 87.8406 312.293 88.1282 312.128L90.9386 310.507C91.2262 310.34 91.7308 310.361 92.0645 310.554L94.7122 312.083C95.0458 312.274 95.081 312.564 94.7935 312.73Z" fill="#252323"/>
<path d="M108.223 312.527L105.413 314.15C105.125 314.315 104.623 314.294 104.29 314.102L101.642 312.576C101.308 312.383 101.273 312.093 101.561 311.925L104.371 310.304C104.659 310.139 105.163 310.161 105.494 310.351L108.145 311.879C108.476 312.072 108.514 312.361 108.223 312.527" fill="#252323"/>
<path d="M101.335 316.503L98.5245 318.124C98.2342 318.289 97.7324 318.27 97.3987 318.079L94.7511 316.55C94.4174 316.357 94.3821 316.067 94.6697 315.902L97.4801 314.281C97.7677 314.113 98.2722 314.135 98.6032 314.327L101.254 315.855C101.585 316.046 101.623 316.335 101.335 316.503" fill="#252323"/>
<path d="M114.763 316.3L111.953 317.921C111.665 318.089 111.161 318.067 110.83 317.874L108.179 316.346C107.848 316.156 107.81 315.867 108.098 315.699L110.911 314.078C111.199 313.913 111.701 313.932 112.034 314.123L114.682 315.652C115.016 315.845 115.051 316.135 114.763 316.3Z" fill="#252323"/>
<path d="M107.873 320.276L105.063 321.897C104.775 322.062 104.273 322.04 103.94 321.851L101.289 320.322C100.958 320.129 100.92 319.839 101.211 319.674L104.021 318.051C104.309 317.886 104.81 317.907 105.144 318.1L107.792 319.625C108.125 319.818 108.161 320.108 107.873 320.276" fill="#252323"/>
<path d="M121.685 320.292L118.874 321.913C118.587 322.081 118.082 322.059 117.751 321.866L115.101 320.339C114.77 320.146 114.732 319.856 115.022 319.691L117.833 318.07C118.12 317.905 118.622 317.924 118.956 318.115L121.603 319.644C121.937 319.837 121.972 320.127 121.685 320.292" fill="#252323"/>
<path d="M114.793 324.265L111.983 325.888C111.695 326.055 111.193 326.032 110.86 325.84L108.209 324.314C107.878 324.121 107.84 323.831 108.131 323.664L110.941 322.043C111.229 321.878 111.731 321.899 112.064 322.089L114.715 323.617C115.046 323.81 115.084 324.1 114.793 324.265Z" fill="#252323"/>
<path d="M128.575 316.319L125.765 317.94C125.477 318.105 124.972 318.083 124.641 317.893L121.991 316.365C121.66 316.173 121.622 315.882 121.91 315.717L124.72 314.093C125.01 313.928 125.512 313.95 125.846 314.142L128.494 315.669C128.827 315.86 128.863 316.151 128.575 316.319" fill="#252323"/>
<path d="M135.465 312.343L132.655 313.963C132.367 314.131 131.863 314.11 131.532 313.918L128.881 312.389C128.548 312.199 128.512 311.909 128.8 311.741L131.611 310.12C131.901 309.955 132.403 309.974 132.736 310.167L135.384 311.695C135.718 311.887 135.753 312.177 135.465 312.343" fill="#252323"/>
<path d="M142.355 308.37L139.545 309.99C139.257 310.156 138.753 310.137 138.419 309.944L135.771 308.416C135.438 308.223 135.402 307.933 135.69 307.768L138.5 306.146C138.788 305.979 139.293 306 139.626 306.193L142.274 307.722C142.608 307.912 142.643 308.204 142.355 308.37Z" fill="#252323"/>
<path d="M149.247 304.394L146.436 306.017C146.149 306.183 145.644 306.161 145.31 305.968L142.663 304.442C142.329 304.25 142.294 303.96 142.581 303.792L145.392 302.171C145.679 302.006 146.184 302.027 146.515 302.217L149.165 303.746C149.499 303.938 149.534 304.228 149.247 304.394" fill="#252323"/>
<path d="M156.136 300.421L153.326 302.041C153.035 302.21 152.533 302.188 152.2 301.995L149.552 300.467C149.218 300.274 149.183 299.984 149.471 299.819L152.281 298.198C152.569 298.033 153.073 298.052 153.404 298.244L156.055 299.773C156.386 299.965 156.424 300.255 156.136 300.421" fill="#252323"/>
<path d="M163.025 296.447L160.215 298.068C159.927 298.233 159.425 298.212 159.092 298.021L156.444 296.493C156.11 296.301 156.075 296.011 156.363 295.846L159.173 294.221C159.461 294.056 159.965 294.078 160.296 294.27L162.946 295.797C163.277 295.988 163.315 296.278 163.025 296.447" fill="#252323"/>
<path d="M169.915 292.471L167.104 294.091C166.817 294.259 166.315 294.238 165.981 294.046L163.334 292.517C163 292.327 162.965 292.037 163.252 291.869L166.063 290.248C166.35 290.083 166.852 290.102 167.186 290.295L169.836 291.823C170.167 292.016 170.205 292.305 169.915 292.471" fill="#252323"/>
<path d="M176.806 288.498L173.995 290.119C173.708 290.284 173.206 290.265 172.872 290.073L170.222 288.544C169.891 288.351 169.853 288.061 170.143 287.896L172.953 286.275C173.241 286.108 173.743 286.129 174.077 286.322L176.724 287.851C177.058 288.04 177.093 288.332 176.806 288.498" fill="#252323"/>
<path d="M183.695 284.522L180.885 286.146C180.597 286.311 180.093 286.289 179.762 286.097L177.112 284.57C176.781 284.378 176.743 284.089 177.033 283.92L179.843 282.299C180.131 282.134 180.633 282.156 180.966 282.345L183.614 283.874C183.948 284.066 183.983 284.356 183.695 284.522" fill="#252323"/>
<path d="M190.587 280.548L187.777 282.169C187.489 282.337 186.985 282.315 186.654 282.124L184.004 280.595C183.673 280.402 183.635 280.112 183.922 279.947L186.733 278.326C187.023 278.161 187.525 278.18 187.858 278.371L190.506 279.9C190.84 280.093 190.875 280.383 190.587 280.548" fill="#252323"/>
<path d="M197.476 276.575L194.666 278.196C194.378 278.361 193.874 278.34 193.543 278.151L190.892 276.622C190.558 276.429 190.523 276.139 190.811 275.974L193.621 274.35C193.911 274.185 194.413 274.207 194.747 274.4L197.395 275.925C197.728 276.118 197.764 276.407 197.476 276.575" fill="#252323"/>
<path d="M204.367 272.6L201.557 274.221C201.269 274.388 200.765 274.367 200.431 274.174L197.784 272.645C197.45 272.456 197.415 272.166 197.702 271.997L200.513 270.376C200.8 270.211 201.305 270.23 201.638 270.423L204.286 271.952C204.62 272.144 204.655 272.435 204.367 272.6Z" fill="#252323"/>
<path d="M211.259 268.626L208.448 270.247C208.158 270.412 207.656 270.393 207.323 270.201L204.675 268.672C204.341 268.48 204.306 268.19 204.593 268.024L207.404 266.404C207.691 266.236 208.196 266.257 208.527 266.45L211.177 267.978C211.511 268.168 211.546 268.461 211.259 268.626" fill="#252323"/>
<path d="M218.148 264.65L215.338 266.274C215.048 266.44 214.546 266.417 214.212 266.226L211.565 264.699C211.231 264.507 211.196 264.217 211.483 264.049L214.294 262.428C214.581 262.263 215.086 262.284 215.417 262.475L218.067 264.002C218.398 264.195 218.436 264.485 218.148 264.65" fill="#252323"/>
<path d="M225.036 260.677L222.225 262.298C221.938 262.466 221.436 262.444 221.102 262.252L218.454 260.723C218.121 260.531 218.085 260.241 218.373 260.075L221.183 258.455C221.471 258.289 221.976 258.309 222.307 258.501L224.957 260.029C225.288 260.222 225.326 260.512 225.036 260.677" fill="#252323"/>
<path d="M128.226 324.066L125.415 325.685C125.128 325.852 124.623 325.833 124.292 325.64L121.642 324.111C121.308 323.918 121.273 323.628 121.561 323.463L124.371 321.842C124.659 321.675 125.163 321.696 125.497 321.889L128.145 323.418C128.478 323.609 128.513 323.899 128.226 324.066" fill="#252323"/>
<path d="M135.115 320.092L132.305 321.711C132.017 321.878 131.513 321.855 131.179 321.663L128.531 320.137C128.198 319.945 128.162 319.654 128.45 319.487L131.26 317.866C131.548 317.701 132.053 317.722 132.386 317.912L135.034 319.44C135.368 319.633 135.403 319.923 135.115 320.092Z" fill="#252323"/>
<path d="M142.005 316.115L139.195 317.736C138.904 317.904 138.403 317.882 138.069 317.69L135.421 316.162C135.088 315.969 135.052 315.679 135.34 315.514L138.15 313.893C138.438 313.728 138.942 313.747 139.273 313.939L141.924 315.467C142.257 315.66 142.293 315.95 142.005 316.115" fill="#252323"/>
<path d="M148.897 312.142L146.086 313.763C145.796 313.928 145.294 313.907 144.961 313.716L142.313 312.188C141.979 311.996 141.944 311.706 142.231 311.541L145.042 309.92C145.329 309.751 145.834 309.774 146.165 309.965L148.815 311.494C149.146 311.684 149.184 311.974 148.897 312.142" fill="#252323"/>
<path d="M155.783 308.167L152.973 309.787C152.685 309.955 152.184 309.934 151.85 309.741L149.202 308.213C148.869 308.023 148.833 307.733 149.121 307.564L151.931 305.943C152.219 305.778 152.723 305.797 153.054 305.99L155.705 307.519C156.036 307.711 156.074 308.001 155.783 308.167" fill="#252323"/>
<path d="M162.674 304.193L159.864 305.813C159.576 305.979 159.075 305.96 158.741 305.768L156.091 304.239C155.76 304.046 155.722 303.756 156.012 303.591L158.822 301.97C159.11 301.803 159.612 301.824 159.945 302.017L162.596 303.545C162.927 303.735 162.965 304.027 162.674 304.193Z" fill="#252323"/>
<path d="M169.566 300.22L166.755 301.841C166.468 302.006 165.963 301.984 165.632 301.791L162.982 300.266C162.651 300.073 162.613 299.784 162.903 299.616L165.714 297.995C166.001 297.83 166.503 297.851 166.837 298.04L169.484 299.569C169.818 299.762 169.853 300.052 169.566 300.22" fill="#252323"/>
<path d="M176.456 296.243L173.646 297.864C173.358 298.033 172.854 298.011 172.523 297.818L169.872 296.29C169.541 296.097 169.503 295.807 169.791 295.642L172.601 294.021C172.892 293.856 173.393 293.875 173.727 294.067L176.375 295.596C176.708 295.788 176.744 296.078 176.456 296.243" fill="#252323"/>
<path d="M183.347 292.27L180.536 293.891C180.249 294.057 179.744 294.035 179.413 293.846L176.763 292.317C176.429 292.124 176.394 291.834 176.681 291.669L179.492 290.048C179.782 289.88 180.284 289.902 180.618 290.094L183.265 291.621C183.599 291.813 183.634 292.102 183.347 292.27" fill="#252323"/>
<path d="M190.236 288.295L187.426 289.915C187.138 290.083 186.634 290.062 186.3 289.87L183.652 288.341C183.319 288.151 183.283 287.861 183.571 287.693L186.382 286.072C186.669 285.907 187.174 285.926 187.507 286.119L190.155 287.648C190.489 287.84 190.524 288.13 190.236 288.295Z" fill="#252323"/>
<path d="M197.128 284.322L194.317 285.943C194.03 286.108 193.525 286.089 193.191 285.896L190.544 284.367C190.21 284.174 190.175 283.886 190.462 283.719L193.273 282.098C193.56 281.931 194.065 281.952 194.396 282.145L197.046 283.674C197.38 283.863 197.415 284.157 197.128 284.322" fill="#252323"/>
<path d="M204.017 280.348L201.207 281.969C200.917 282.134 200.415 282.112 200.081 281.921L197.433 280.394C197.1 280.201 197.064 279.912 197.352 279.744L200.163 278.123C200.45 277.958 200.955 277.979 201.286 278.168L203.936 279.697C204.267 279.89 204.305 280.18 204.017 280.348" fill="#252323"/>
<path d="M210.906 276.372L208.096 277.993C207.808 278.161 207.306 278.139 206.972 277.947L204.325 276.418C203.991 276.226 203.956 275.936 204.243 275.77L207.054 274.15C207.341 273.984 207.846 274.004 208.177 274.196L210.827 275.724C211.158 275.916 211.196 276.207 210.906 276.372" fill="#252323"/>
<path d="M217.796 272.399L214.985 274.02C214.698 274.185 214.196 274.164 213.862 273.974L211.215 272.445C210.881 272.253 210.846 271.963 211.133 271.797L213.944 270.177C214.231 270.008 214.733 270.03 215.067 270.223L217.717 271.749C218.048 271.941 218.086 272.232 217.796 272.399" fill="#252323"/>
<path d="M224.687 268.423L221.877 270.044C221.589 270.211 221.087 270.19 220.753 269.998L218.103 268.469C217.772 268.279 217.734 267.989 218.024 267.821L220.835 266.201C221.122 266.034 221.624 266.054 221.958 266.246L224.606 267.775C224.939 267.968 224.975 268.258 224.687 268.423" fill="#252323"/>
<path d="M231.577 264.45L228.766 266.071C228.479 266.236 227.974 266.217 227.643 266.024L224.993 264.496C224.662 264.304 224.624 264.014 224.914 263.848L227.724 262.228C228.012 262.059 228.514 262.081 228.847 262.274L231.495 263.802C231.829 263.992 231.864 264.285 231.577 264.45" fill="#252323"/>
<path d="M231.898 256.72L229.087 258.341C228.8 258.508 228.298 258.487 227.964 258.294L225.314 256.765C224.983 256.573 224.945 256.284 225.235 256.118L228.046 254.497C228.333 254.332 228.835 254.35 229.169 254.543L231.819 256.072C232.15 256.265 232.185 256.554 231.898 256.72Z" fill="#252323"/>
<path d="M6.85691 253.703L4.04645 255.324C3.75889 255.492 3.25706 255.47 2.92339 255.278L0.27571 253.749C-0.0579618 253.56 -0.0932411 253.27 0.194313 253.102L3.00478 251.481C3.29234 251.316 3.79688 251.335 4.12784 251.527L6.77823 253.056C7.10919 253.248 7.14718 253.538 6.85691 253.703" fill="#252323"/>
<path d="M13.7798 257.696L10.9693 259.317C10.6791 259.485 10.1772 259.463 9.84356 259.271L7.19588 257.743C6.8622 257.55 6.82692 257.26 7.11448 257.094L9.92496 255.474C10.2125 255.308 10.7171 255.328 11.048 255.52L13.6984 257.048C14.0294 257.241 14.0674 257.531 13.7798 257.696" fill="#252323"/>
<path d="M6.88848 261.669L4.078 263.293C3.78773 263.458 3.28589 263.436 2.95221 263.244L0.30452 261.718C-0.0291535 261.526 -0.0644331 261.236 0.223123 261.067L3.03354 259.447C3.3211 259.282 3.82572 259.303 4.15668 259.493L6.80709 261.021C7.14076 261.214 7.17604 261.504 6.88848 261.669" fill="#252323"/>
<path d="M20.3183 261.469L17.5078 263.09C17.2202 263.255 16.7184 263.236 16.3847 263.043L13.7343 261.514C13.4034 261.323 13.3654 261.033 13.6556 260.866L16.466 259.247C16.7536 259.078 17.2555 259.1 17.5892 259.292L20.2396 260.821C20.5705 261.01 20.6058 261.304 20.3183 261.469Z" fill="#252323"/>
<path d="M13.4271 265.442L10.6166 267.063C10.3291 267.23 9.82717 267.209 9.49349 267.016L6.84578 265.488C6.51211 265.298 6.47683 265.008 6.76438 264.84L9.57489 263.22C9.86245 263.054 10.3643 263.076 10.698 263.266L13.3484 264.794C13.6794 264.987 13.7173 265.277 13.4271 265.442" fill="#252323"/>
<path d="M26.8589 265.241L24.0485 266.862C23.761 267.027 23.2563 267.008 22.9254 266.816L20.275 265.288C19.9413 265.095 19.906 264.805 20.1936 264.64L23.0041 263.019C23.2943 262.85 23.7962 262.872 24.1299 263.065L26.7775 264.593C27.1112 264.783 27.1465 265.074 26.8589 265.241" fill="#252323"/>
<path d="M19.9686 269.215L17.1581 270.835C16.8706 271.004 16.366 270.981 16.0351 270.79L13.3847 269.261C13.0537 269.072 13.0157 268.778 13.3033 268.613L16.1164 266.992C16.4039 266.827 16.9058 266.846 17.2395 267.039L19.8872 268.566C20.2209 268.759 20.2562 269.049 19.9686 269.215Z" fill="#252323"/>
<path d="M33.7784 269.233L30.9679 270.854C30.6804 271.019 30.1758 270.998 29.8449 270.808L27.1945 269.279C26.8635 269.087 26.8255 268.797 27.1131 268.631L29.9236 267.007C30.2138 266.842 30.7157 266.865 31.0493 267.056L33.697 268.583C34.0307 268.776 34.066 269.065 33.7784 269.233" fill="#252323"/>
<path d="M26.8881 273.206L24.0776 274.827C23.7901 274.992 23.2855 274.973 22.9546 274.781L20.3041 273.253C19.9732 273.06 19.9352 272.77 20.2255 272.605L23.0359 270.984C23.3235 270.819 23.8254 270.838 24.159 271.029L26.8067 272.558C27.1404 272.751 27.1757 273.041 26.8881 273.206" fill="#252323"/>
<path d="M40.6687 265.258L37.8583 266.879C37.5707 267.046 37.0661 267.025 36.7352 266.832L34.0848 265.303C33.7511 265.114 33.7158 264.821 34.0034 264.656L36.8138 263.035C37.1041 262.869 37.606 262.888 37.9397 263.081L40.5874 264.61C40.9211 264.803 40.9563 265.093 40.6687 265.258" fill="#252323"/>
<path d="M47.5586 261.284L44.7482 262.905C44.4606 263.07 43.9561 263.051 43.6224 262.858L40.9747 261.33C40.641 261.137 40.6057 260.848 40.8933 260.682L43.7038 259.061C43.9913 258.894 44.4959 258.915 44.8296 259.107L47.4773 260.636C47.8109 260.826 47.8462 261.116 47.5586 261.284Z" fill="#252323"/>
<path d="M40.3189 273.003L37.5084 274.627C37.2209 274.792 36.7163 274.77 36.3826 274.578L33.7349 273.052C33.4013 272.859 33.366 272.57 33.6535 272.402L36.464 270.781C36.7515 270.616 37.2561 270.637 37.5871 270.826L40.2375 272.355C40.5712 272.548 40.6065 272.838 40.3189 273.003" fill="#252323"/>
<path d="M47.2088 269.03L44.3983 270.651C44.108 270.816 43.6062 270.797 43.2725 270.605L40.6248 269.077C40.2912 268.884 40.2559 268.594 40.5434 268.428L43.3539 266.808C43.6415 266.643 44.146 266.662 44.477 266.853L47.1274 268.382C47.4611 268.575 47.4964 268.865 47.2088 269.03" fill="#252323"/>
<path d="M54.1002 265.057L51.2897 266.677C50.9995 266.843 50.4976 266.821 50.1639 266.632L47.5162 265.103C47.1825 264.91 47.1473 264.62 47.4348 264.455L50.2453 262.831C50.5328 262.666 51.0375 262.688 51.3684 262.881L54.0189 264.407C54.3498 264.599 54.3878 264.888 54.1002 265.057" fill="#252323"/>
<path d="M60.6383 268.826L57.8278 270.45C57.5403 270.616 57.0357 270.594 56.7048 270.402L54.0544 268.875C53.7234 268.683 53.6854 268.394 53.9757 268.225L56.7862 266.604C57.0737 266.439 57.5756 266.46 57.9092 266.65L60.5569 268.179C60.8906 268.371 60.9259 268.661 60.6383 268.826" fill="#252323"/>
<path d="M53.7473 272.803L50.9369 274.424C50.6493 274.589 50.1475 274.57 49.8138 274.378L47.1634 272.849C46.8324 272.656 46.7971 272.367 47.0847 272.201L49.8951 270.58C50.1827 270.413 50.6846 270.434 51.0182 270.626L53.6686 272.155C53.9996 272.345 54.0376 272.638 53.7473 272.803Z" fill="#252323"/>
<path d="M67.5583 272.819L64.7478 274.439C64.4602 274.608 63.9584 274.586 63.6247 274.393L60.9743 272.865C60.6433 272.675 60.6054 272.385 60.8956 272.217L63.7061 270.596C63.9937 270.431 64.4955 270.45 64.8292 270.642L67.4796 272.171C67.8105 272.363 67.8485 272.653 67.5583 272.819Z" fill="#252323"/>
<path d="M60.6672 276.796L57.8567 278.415C57.5692 278.582 57.0674 278.559 56.7337 278.37L54.086 276.841C53.7523 276.649 53.7171 276.358 54.0046 276.193L56.815 274.572C57.1026 274.405 57.6072 274.426 57.9381 274.619L60.5885 276.144C60.9195 276.337 60.9575 276.627 60.6672 276.796" fill="#252323"/>
<path d="M74.0985 276.592L71.288 278.212C71.0005 278.38 70.4959 278.359 70.1649 278.166L67.5145 276.638C67.1836 276.445 67.1456 276.155 67.4331 275.99L70.2436 274.369C70.5338 274.204 71.0357 274.222 71.3694 274.415L74.0171 275.944C74.3508 276.136 74.386 276.426 74.0985 276.592" fill="#252323"/>
<path d="M67.2084 280.568L64.398 282.189C64.1104 282.354 63.6058 282.332 63.2748 282.14L60.6244 280.614C60.2935 280.421 60.2555 280.131 60.5458 279.963L63.3562 278.342C63.6438 278.177 64.1456 278.199 64.4793 278.391L67.127 279.918C67.4606 280.109 67.4959 280.399 67.2084 280.568" fill="#252323"/>
<path d="M80.639 280.364L77.8286 281.985C77.541 282.15 77.0364 282.131 76.7027 281.939L74.055 280.411C73.7213 280.218 73.6861 279.928 73.9736 279.763L76.7841 278.142C77.0717 277.974 77.5762 277.996 77.9072 278.188L80.5576 279.716C80.8912 279.909 80.9265 280.199 80.639 280.364" fill="#252323"/>
<path d="M73.7491 284.338L70.9386 285.958C70.651 286.127 70.1465 286.104 69.8128 285.912L67.1651 284.386C66.8314 284.194 66.7962 283.904 67.0837 283.736L69.8942 282.115C70.1818 281.95 70.6863 281.971 71.02 282.161L73.6677 283.69C74.0014 283.882 74.0366 284.172 73.7491 284.338" fill="#252323"/>
<path d="M87.5591 284.357L84.7487 285.977C84.4611 286.143 83.9565 286.124 83.6229 285.931L80.9752 284.403C80.6415 284.21 80.6062 283.92 80.8938 283.755L83.7043 282.134C83.9918 281.966 84.4964 281.988 84.83 282.18L87.4777 283.709C87.8114 283.898 87.8467 284.188 87.5591 284.357Z" fill="#252323"/>
<path d="M80.6692 288.33L77.8588 289.951C77.5712 290.119 77.0667 290.097 76.7357 289.904L74.0853 288.375C73.7516 288.186 73.7163 287.894 74.0039 287.729L76.8143 286.108C77.1046 285.943 77.6065 285.961 77.9402 286.153L80.5878 287.682C80.9215 287.875 80.9568 288.165 80.6692 288.33" fill="#252323"/>
<path d="M87.2093 292.102L84.3988 293.723C84.1086 293.888 83.6067 293.87 83.273 293.677L80.6253 292.149C80.2916 291.956 80.2564 291.666 80.5439 291.501L83.3544 289.88C83.642 289.715 84.1465 289.734 84.4775 289.926L87.1279 291.455C87.4588 291.647 87.4968 291.937 87.2093 292.102" fill="#252323"/>
</svg>
