<svg xmlns="http://www.w3.org/2000/svg" fill="none" viewBox="0 0 918 62"><path stroke="#fff" stroke-width="3" d="M47 30.5h665"/><g filter="url(#filter0_d)"><circle cx="31" cy="31" r="25" fill="#fff" transform="rotate(-90 31 31)"/></g><g filter="url(#filter1_d)"><circle cx="248" cy="31" r="25" fill="#fff" transform="rotate(-90 248 31)"/></g><g filter="url(#filter2_d)"><circle cx="495" cy="31" r="25" fill="#fff" transform="rotate(-90 495 31)"/></g><path fill="#000" d="M27.273 29.475l-.887-2.988c1.133-.55 2.266-1.095 3.4-1.637l3.4-1.65-.138 3.438c-.967.474-1.929.95-2.887 1.424a914.9 914.9 0 0 0-2.888 1.413zM31.198 40.5v-2.587V30.05v-2.563V24.9l1.988-1.7 1.862.113V40.5h-3.85zM242.458 40v-2.6l1.363-1.163 1.375-1.15a39.84 39.84 0 0 0 2.75-2.525c.766-.783 1.354-1.537 1.762-2.262.409-.725.613-1.454.613-2.188 0-.8-.225-1.4-.675-1.8-.45-.408-1.129-.612-2.038-.612a5.63 5.63 0 0 0-1.212.137 7.209 7.209 0 0 0-1.238.375 11.86 11.86 0 0 0-1.25.563c-.408.217-.808.458-1.2.725l-.337-3.675c.383-.183.804-.354 1.262-.512a14.64 14.64 0 0 1 1.475-.438 14.526 14.526 0 0 1 1.613-.313 12.557 12.557 0 0 1 1.675-.112c1.266 0 2.337.208 3.212.625.884.408 1.55 1 2 1.775.459.767.688 1.688.688 2.762 0 .884-.184 1.763-.55 2.638-.367.867-.925 1.738-1.675 2.612-.742.875-1.684 1.759-2.825 2.65l-2.463 1.938-.475-.75h8.188V40h-12.038zM495.212 40.325c-.6 0-1.187-.033-1.762-.1a16.35 16.35 0 0 1-1.638-.275c-.517-.125-1-.267-1.45-.425a11.793 11.793 0 0 1-1.2-.5l.288-3.5c.45.233.904.446 1.362.638.458.191.913.358 1.363.5.458.133.908.237 1.35.312.45.075.879.112 1.287.112 1.083 0 1.858-.2 2.325-.6.467-.408.7-.929.7-1.562 0-.742-.3-1.3-.9-1.675-.6-.383-1.458-.575-2.575-.575h-2.112V29.85h1.875c.758 0 1.375-.088 1.85-.263.475-.183.82-.437 1.037-.762a1.95 1.95 0 0 0 .338-1.137c0-.667-.246-1.163-.738-1.488-.483-.333-1.125-.5-1.925-.5-.392 0-.796.042-1.212.125-.409.083-.821.2-1.238.35-.417.142-.829.313-1.237.512-.409.2-.805.425-1.188.675l-.35-3.55a13.518 13.518 0 0 1 2.675-.962 15.454 15.454 0 0 1 1.575-.3 11.835 11.835 0 0 1 1.625-.113c1.267 0 2.346.184 3.238.55.891.359 1.57.871 2.037 1.538.475.658.713 1.438.713 2.338 0 .716-.142 1.337-.425 1.862a3.65 3.65 0 0 1-1.15 1.287 4.427 4.427 0 0 1-1.588.675v.3c.442.084.879.23 1.313.438.433.2.825.475 1.175.825.35.35.629.775.837 1.275.208.5.313 1.087.313 1.763 0 .966-.238 1.833-.713 2.6-.467.758-1.187 1.354-2.162 1.787-.967.433-2.205.65-3.713.65z"/><path stroke="#fff" stroke-dasharray="18 18" stroke-width="3" d="M709 30.5h208.01"/><g filter="url(#filter3_d)"><circle cx="705" cy="31" r="25" fill="#fff" transform="rotate(-90 705 31)"/></g><path fill="#000" d="M705.196 39.5v-2.388-2.637l.213-.55V29.1v-2.563-2.575l2.687-1.062-1.287 1.85c-.417.592-.838 1.183-1.263 1.775l-2.75 3.913c-.375.524-.745 1.045-1.112 1.562l-1.088 1.575-.125-.838h5.688l.4-.15h4.962v3.3h-14.075v-2.575c.325-.466.688-.983 1.088-1.55l1.225-1.724 1.15-1.613 2.062-2.938c.384-.533.763-1.062 1.138-1.587l1.125-1.6h3.8V39.5h-3.838z"/><defs><filter id="filter0_d" width="62" height="62" x="0" y="0" color-interpolation-filters="sRGB" filterUnits="userSpaceOnUse"><feFlood flood-opacity="0" result="BackgroundImageFix"/><feColorMatrix in="SourceAlpha" result="hardAlpha" values="0 0 0 0 0 0 0 0 0 0 0 0 0 0 0 0 0 0 127 0"/><feMorphology in="SourceAlpha" operator="dilate" radius="1" result="effect1_dropShadow"/><feOffset/><feGaussianBlur stdDeviation="2.5"/><feComposite in2="hardAlpha" operator="out"/><feColorMatrix values="0 0 0 0 0 0 0 0 0 0 0 0 0 0 0 0 0 0 0.59 0"/><feBlend in2="BackgroundImageFix" result="effect1_dropShadow"/><feBlend in="SourceGraphic" in2="effect1_dropShadow" result="shape"/></filter><filter id="filter1_d" width="62" height="62" x="217" y="0" color-interpolation-filters="sRGB" filterUnits="userSpaceOnUse"><feFlood flood-opacity="0" result="BackgroundImageFix"/><feColorMatrix in="SourceAlpha" result="hardAlpha" values="0 0 0 0 0 0 0 0 0 0 0 0 0 0 0 0 0 0 127 0"/><feMorphology in="SourceAlpha" operator="dilate" radius="1" result="effect1_dropShadow"/><feOffset/><feGaussianBlur stdDeviation="2.5"/><feComposite in2="hardAlpha" operator="out"/><feColorMatrix values="0 0 0 0 0 0 0 0 0 0 0 0 0 0 0 0 0 0 0.59 0"/><feBlend in2="BackgroundImageFix" result="effect1_dropShadow"/><feBlend in="SourceGraphic" in2="effect1_dropShadow" result="shape"/></filter><filter id="filter2_d" width="62" height="62" x="464" y="0" color-interpolation-filters="sRGB" filterUnits="userSpaceOnUse"><feFlood flood-opacity="0" result="BackgroundImageFix"/><feColorMatrix in="SourceAlpha" result="hardAlpha" values="0 0 0 0 0 0 0 0 0 0 0 0 0 0 0 0 0 0 127 0"/><feMorphology in="SourceAlpha" operator="dilate" radius="1" result="effect1_dropShadow"/><feOffset/><feGaussianBlur stdDeviation="2.5"/><feComposite in2="hardAlpha" operator="out"/><feColorMatrix values="0 0 0 0 0 0 0 0 0 0 0 0 0 0 0 0 0 0 0.59 0"/><feBlend in2="BackgroundImageFix" result="effect1_dropShadow"/><feBlend in="SourceGraphic" in2="effect1_dropShadow" result="shape"/></filter><filter id="filter3_d" width="62" height="62" x="674" y="0" color-interpolation-filters="sRGB" filterUnits="userSpaceOnUse"><feFlood flood-opacity="0" result="BackgroundImageFix"/><feColorMatrix in="SourceAlpha" result="hardAlpha" values="0 0 0 0 0 0 0 0 0 0 0 0 0 0 0 0 0 0 127 0"/><feMorphology in="SourceAlpha" operator="dilate" radius="1" result="effect1_dropShadow"/><feOffset/><feGaussianBlur stdDeviation="2.5"/><feComposite in2="hardAlpha" operator="out"/><feColorMatrix values="0 0 0 0 0 0 0 0 0 0 0 0 0 0 0 0 0 0 0.59 0"/><feBlend in2="BackgroundImageFix" result="effect1_dropShadow"/><feBlend in="SourceGraphic" in2="effect1_dropShadow" result="shape"/></filter></defs></svg>