<svg xmlns="http://www.w3.org/2000/svg" fill="none" viewBox="0 0 62 526"><path stroke="#fff" stroke-width="3" d="M31.5 51.004l-1 423"/><g filter="url(#filter0_d)"><circle cx="31" cy="31" r="25" fill="#fff"/></g><path stroke="#fff" stroke-dasharray="9 7" stroke-linecap="round" stroke-width="3" d="M30.5 437.5v87"/><g filter="url(#filter1_d)"><circle cx="31" cy="175" r="25" fill="#fff"/></g><g filter="url(#filter2_d)"><circle cx="31" cy="318" r="25" fill="#fff"/></g><g filter="url(#filter3_d)"><circle cx="31" cy="449" r="25" fill="#fff"/></g><path fill="#000" d="M26.773 28.975l-.887-2.988c1.133-.55 2.266-1.095 3.4-1.637l3.4-1.65-.138 3.438c-.967.474-1.929.95-2.887 1.424a914.9 914.9 0 0 0-2.888 1.413zM30.698 40v-2.587V29.55v-2.563V24.4l1.988-1.7 1.862.113V40h-3.85zM25.458 184v-2.6l1.363-1.163 1.375-1.15a39.435 39.435 0 0 0 2.75-2.525c.766-.783 1.354-1.537 1.762-2.262.409-.725.613-1.454.613-2.188 0-.8-.225-1.4-.675-1.8-.45-.408-1.13-.612-2.038-.612-.391 0-.796.046-1.212.137-.409.084-.821.209-1.238.375-.416.159-.833.346-1.25.563-.408.217-.808.458-1.2.725l-.337-3.675c.383-.183.804-.354 1.262-.513.467-.166.959-.312 1.475-.437a14.587 14.587 0 0 1 1.613-.313 12.567 12.567 0 0 1 1.675-.112c1.267 0 2.337.208 3.212.625.884.408 1.55 1 2 1.775.459.767.688 1.687.688 2.762 0 .884-.184 1.763-.55 2.638-.367.867-.925 1.737-1.675 2.612-.742.875-1.683 1.759-2.825 2.65l-2.463 1.938-.475-.75h8.188v3.3H25.458zM31.212 327.325c-.6 0-1.187-.033-1.762-.1a16.355 16.355 0 0 1-1.638-.275c-.517-.125-1-.267-1.45-.425a11.782 11.782 0 0 1-1.2-.5l.288-3.5c.45.233.904.446 1.362.637.458.192.913.359 1.363.5.458.134.908.238 1.35.313.45.075.879.112 1.287.112 1.083 0 1.858-.2 2.325-.6.467-.408.7-.929.7-1.562 0-.742-.3-1.3-.9-1.675-.6-.383-1.458-.575-2.575-.575H28.25v-2.825h1.875c.758 0 1.375-.088 1.85-.263.475-.183.82-.437 1.037-.762.225-.325.338-.704.338-1.138 0-.666-.246-1.162-.738-1.487-.483-.333-1.125-.5-1.925-.5-.392 0-.796.042-1.212.125-.409.083-.821.2-1.238.35-.417.142-.83.312-1.237.512-.409.2-.805.425-1.188.675l-.35-3.55a13.397 13.397 0 0 1 2.675-.962 15.485 15.485 0 0 1 1.575-.3 11.835 11.835 0 0 1 1.625-.113c1.267 0 2.346.184 3.238.55.891.359 1.57.871 2.037 1.538.475.658.713 1.437.713 2.338 0 .716-.142 1.337-.425 1.862a3.636 3.636 0 0 1-1.15 1.287 4.423 4.423 0 0 1-1.588.675v.3c.442.084.88.23 1.313.438.433.2.825.475 1.175.825.35.35.629.775.837 1.275.208.5.313 1.087.313 1.762 0 .967-.238 1.834-.713 2.6-.467.759-1.187 1.355-2.162 1.788-.967.433-2.205.65-3.713.65zM31.697 457v-2.388-2.637l.212-.55V446.6v-2.563-2.575l2.688-1.062c-.442.633-.871 1.25-1.288 1.85-.417.592-.837 1.183-1.262 1.775l-2.75 3.912-1.113 1.563-1.088 1.575-.125-.838h5.688l.4-.15h4.962v3.3H23.948v-2.575c.325-.466.687-.983 1.087-1.55l1.225-1.725 1.15-1.612 2.063-2.938 1.137-1.587 1.125-1.6h3.8V457h-3.837z"/><defs><filter id="filter0_d" width="62" height="62" x="0" y="0" color-interpolation-filters="sRGB" filterUnits="userSpaceOnUse"><feFlood flood-opacity="0" result="BackgroundImageFix"/><feColorMatrix in="SourceAlpha" result="hardAlpha" values="0 0 0 0 0 0 0 0 0 0 0 0 0 0 0 0 0 0 127 0"/><feMorphology in="SourceAlpha" operator="dilate" radius="1" result="effect1_dropShadow"/><feOffset/><feGaussianBlur stdDeviation="2.5"/><feComposite in2="hardAlpha" operator="out"/><feColorMatrix values="0 0 0 0 0 0 0 0 0 0 0 0 0 0 0 0 0 0 0.59 0"/><feBlend in2="BackgroundImageFix" result="effect1_dropShadow"/><feBlend in="SourceGraphic" in2="effect1_dropShadow" result="shape"/></filter><filter id="filter1_d" width="62" height="62" x="0" y="144" color-interpolation-filters="sRGB" filterUnits="userSpaceOnUse"><feFlood flood-opacity="0" result="BackgroundImageFix"/><feColorMatrix in="SourceAlpha" result="hardAlpha" values="0 0 0 0 0 0 0 0 0 0 0 0 0 0 0 0 0 0 127 0"/><feMorphology in="SourceAlpha" operator="dilate" radius="1" result="effect1_dropShadow"/><feOffset/><feGaussianBlur stdDeviation="2.5"/><feComposite in2="hardAlpha" operator="out"/><feColorMatrix values="0 0 0 0 0 0 0 0 0 0 0 0 0 0 0 0 0 0 0.59 0"/><feBlend in2="BackgroundImageFix" result="effect1_dropShadow"/><feBlend in="SourceGraphic" in2="effect1_dropShadow" result="shape"/></filter><filter id="filter2_d" width="62" height="62" x="0" y="287" color-interpolation-filters="sRGB" filterUnits="userSpaceOnUse"><feFlood flood-opacity="0" result="BackgroundImageFix"/><feColorMatrix in="SourceAlpha" result="hardAlpha" values="0 0 0 0 0 0 0 0 0 0 0 0 0 0 0 0 0 0 127 0"/><feMorphology in="SourceAlpha" operator="dilate" radius="1" result="effect1_dropShadow"/><feOffset/><feGaussianBlur stdDeviation="2.5"/><feComposite in2="hardAlpha" operator="out"/><feColorMatrix values="0 0 0 0 0 0 0 0 0 0 0 0 0 0 0 0 0 0 0.59 0"/><feBlend in2="BackgroundImageFix" result="effect1_dropShadow"/><feBlend in="SourceGraphic" in2="effect1_dropShadow" result="shape"/></filter><filter id="filter3_d" width="62" height="62" x="0" y="418" color-interpolation-filters="sRGB" filterUnits="userSpaceOnUse"><feFlood flood-opacity="0" result="BackgroundImageFix"/><feColorMatrix in="SourceAlpha" result="hardAlpha" values="0 0 0 0 0 0 0 0 0 0 0 0 0 0 0 0 0 0 127 0"/><feMorphology in="SourceAlpha" operator="dilate" radius="1" result="effect1_dropShadow"/><feOffset/><feGaussianBlur stdDeviation="2.5"/><feComposite in2="hardAlpha" operator="out"/><feColorMatrix values="0 0 0 0 0 0 0 0 0 0 0 0 0 0 0 0 0 0 0.59 0"/><feBlend in2="BackgroundImageFix" result="effect1_dropShadow"/><feBlend in="SourceGraphic" in2="effect1_dropShadow" result="shape"/></filter></defs></svg>