<svg xmlns="http://www.w3.org/2000/svg" fill="none" viewBox="0 0 654 48"><path stroke="#fff" stroke-width="3" d="M35.163 22.994h473.014"/><g filter="url(#filter0_d)"><circle cx="23.782" cy="23.782" r="17.782" fill="#fff" transform="rotate(-90 23.782 23.782)"/></g><g filter="url(#filter1_d)"><circle cx="178.134" cy="23.782" r="17.782" fill="#fff" transform="rotate(-90 178.134 23.782)"/></g><g filter="url(#filter2_d)"><circle cx="353.825" cy="23.782" r="17.782" fill="#fff" transform="rotate(-90 353.825 23.782)"/></g><path fill="#000" d="M18.04 20.975l-.887-2.988c1.134-.55 2.267-1.095 3.4-1.637l3.4-1.65-.137 3.438c-.967.474-1.93.95-2.888 1.424a914.9 914.9 0 0 0-2.887 1.413zM21.967 32v-2.587V21.55v-2.563V16.4l1.987-1.7 1.863.113V32h-3.85zM172.293 33v-2.6c.458-.392.913-.78 1.363-1.162l1.375-1.15a39.84 39.84 0 0 0 2.75-2.526c.766-.783 1.354-1.537 1.762-2.262.408-.725.613-1.454.613-2.188 0-.8-.225-1.4-.675-1.8-.45-.408-1.13-.612-2.038-.612-.392 0-.796.046-1.212.137a7.209 7.209 0 0 0-1.238.375c-.417.159-.833.346-1.25.563-.408.217-.808.458-1.2.725l-.337-3.675c.383-.183.804-.354 1.262-.512.467-.167.958-.313 1.475-.438a14.526 14.526 0 0 1 1.613-.313 12.557 12.557 0 0 1 1.675-.112c1.266 0 2.337.208 3.212.625.883.408 1.55 1 2 1.775.458.767.688 1.688.688 2.762 0 .884-.184 1.763-.55 2.638-.367.867-.925 1.738-1.675 2.613-.742.875-1.684 1.758-2.825 2.65l-2.463 1.937-.475-.75h8.188V33h-12.038zM354.047 32.325c-.6 0-1.188-.033-1.763-.1a16.379 16.379 0 0 1-1.637-.275c-.517-.125-1-.267-1.45-.425a11.793 11.793 0 0 1-1.2-.5l.287-3.5c.45.233.905.446 1.363.638.458.191.912.358 1.362.5.459.133.909.237 1.35.312.45.075.88.112 1.288.112 1.083 0 1.858-.2 2.325-.6.467-.408.7-.929.7-1.562 0-.742-.3-1.3-.9-1.675-.6-.383-1.458-.575-2.575-.575h-2.113V21.85h1.875c.759 0 1.375-.088 1.85-.263.475-.183.821-.437 1.038-.762.225-.325.337-.704.337-1.137 0-.667-.245-1.163-.737-1.488-.483-.333-1.125-.5-1.925-.5-.392 0-.796.042-1.213.125-.408.083-.82.2-1.237.35-.417.142-.829.313-1.238.512-.408.2-.804.425-1.187.675l-.35-3.55a13.494 13.494 0 0 1 2.675-.962 15.454 15.454 0 0 1 1.575-.3 11.835 11.835 0 0 1 1.625-.113c1.267 0 2.346.184 3.237.55.892.359 1.571.871 2.038 1.538.475.658.712 1.438.712 2.338 0 .716-.141 1.337-.425 1.862a3.63 3.63 0 0 1-1.15 1.287 4.423 4.423 0 0 1-1.587.675v.3c.442.084.879.23 1.312.438.434.2.825.475 1.175.825.35.35.63.775.838 1.275.208.5.312 1.088.312 1.763 0 .966-.237 1.833-.712 2.6-.467.758-1.188 1.354-2.163 1.787-.966.433-2.204.65-3.712.65z"/><path stroke="#fff" stroke-dasharray="18 18" stroke-width="3" d="M506.043 22.994H654"/><g filter="url(#filter3_d)"><circle cx="503.198" cy="23.782" r="17.782" fill="#fff" transform="rotate(-90 503.198 23.782)"/></g><path fill="#000" d="M502.387 32v-2.387-2.638l.212-.55V21.6v-2.563-2.575l2.688-1.062c-.442.633-.871 1.25-1.288 1.85-.416.592-.837 1.183-1.262 1.775l-2.75 3.913a721.4 721.4 0 0 0-1.113 1.562l-1.087 1.575-.125-.837h5.687l.4-.15h4.963v3.3h-14.075v-2.576c.325-.466.687-.983 1.087-1.55l1.225-1.724 1.15-1.613 2.063-2.938 1.137-1.587 1.125-1.6h3.8V32h-3.837z"/><defs><filter id="filter0_d" width="47.565" height="47.565" x="0" y="0" color-interpolation-filters="sRGB" filterUnits="userSpaceOnUse"><feFlood flood-opacity="0" result="BackgroundImageFix"/><feColorMatrix in="SourceAlpha" result="hardAlpha" values="0 0 0 0 0 0 0 0 0 0 0 0 0 0 0 0 0 0 127 0"/><feMorphology in="SourceAlpha" operator="dilate" radius="1" result="effect1_dropShadow"/><feOffset/><feGaussianBlur stdDeviation="2.5"/><feComposite in2="hardAlpha" operator="out"/><feColorMatrix values="0 0 0 0 0 0 0 0 0 0 0 0 0 0 0 0 0 0 0.59 0"/><feBlend in2="BackgroundImageFix" result="effect1_dropShadow"/><feBlend in="SourceGraphic" in2="effect1_dropShadow" result="shape"/></filter><filter id="filter1_d" width="47.565" height="47.565" x="154.352" y="0" color-interpolation-filters="sRGB" filterUnits="userSpaceOnUse"><feFlood flood-opacity="0" result="BackgroundImageFix"/><feColorMatrix in="SourceAlpha" result="hardAlpha" values="0 0 0 0 0 0 0 0 0 0 0 0 0 0 0 0 0 0 127 0"/><feMorphology in="SourceAlpha" operator="dilate" radius="1" result="effect1_dropShadow"/><feOffset/><feGaussianBlur stdDeviation="2.5"/><feComposite in2="hardAlpha" operator="out"/><feColorMatrix values="0 0 0 0 0 0 0 0 0 0 0 0 0 0 0 0 0 0 0.59 0"/><feBlend in2="BackgroundImageFix" result="effect1_dropShadow"/><feBlend in="SourceGraphic" in2="effect1_dropShadow" result="shape"/></filter><filter id="filter2_d" width="47.565" height="47.565" x="330.043" y="0" color-interpolation-filters="sRGB" filterUnits="userSpaceOnUse"><feFlood flood-opacity="0" result="BackgroundImageFix"/><feColorMatrix in="SourceAlpha" result="hardAlpha" values="0 0 0 0 0 0 0 0 0 0 0 0 0 0 0 0 0 0 127 0"/><feMorphology in="SourceAlpha" operator="dilate" radius="1" result="effect1_dropShadow"/><feOffset/><feGaussianBlur stdDeviation="2.5"/><feComposite in2="hardAlpha" operator="out"/><feColorMatrix values="0 0 0 0 0 0 0 0 0 0 0 0 0 0 0 0 0 0 0.59 0"/><feBlend in2="BackgroundImageFix" result="effect1_dropShadow"/><feBlend in="SourceGraphic" in2="effect1_dropShadow" result="shape"/></filter><filter id="filter3_d" width="47.565" height="47.565" x="479.415" y="0" color-interpolation-filters="sRGB" filterUnits="userSpaceOnUse"><feFlood flood-opacity="0" result="BackgroundImageFix"/><feColorMatrix in="SourceAlpha" result="hardAlpha" values="0 0 0 0 0 0 0 0 0 0 0 0 0 0 0 0 0 0 127 0"/><feMorphology in="SourceAlpha" operator="dilate" radius="1" result="effect1_dropShadow"/><feOffset/><feGaussianBlur stdDeviation="2.5"/><feComposite in2="hardAlpha" operator="out"/><feColorMatrix values="0 0 0 0 0 0 0 0 0 0 0 0 0 0 0 0 0 0 0.59 0"/><feBlend in2="BackgroundImageFix" result="effect1_dropShadow"/><feBlend in="SourceGraphic" in2="effect1_dropShadow" result="shape"/></filter></defs></svg>