<svg width="320" height="426" viewBox="0 0 320 426" fill="none" xmlns="http://www.w3.org/2000/svg">
<path d="M309.817 291.144C309.485 291.144 309.156 291.123 308.82 291.08C306.506 290.788 302.329 289.172 300.348 281.651L304.055 280.676C305.098 284.638 306.963 286.981 309.305 287.278C311.37 287.568 313.68 286.115 315.018 283.722C317.002 280.174 316.348 275.77 313.259 271.943C302.127 258.135 302.286 242.768 302.3 242.118L306.131 242.189C306.131 242.334 306.018 256.855 316.241 269.536C320.345 274.625 321.141 280.63 318.368 285.592C316.436 289.048 313.157 291.144 309.817 291.144Z" fill="#252323"/>
<path d="M37.4624 337.965C37.4624 337.965 55.0011 333.59 74.0787 319.036C93.1528 304.486 34.8871 286.468 34.8871 286.468L30.0337 307.949C30.0337 307.949 28.2968 323.542 30.0337 323.889C31.767 324.235 37.4624 337.965 37.4624 337.965Z" fill="#252323"/>
<path d="M31.329 322.405C32.461 323.227 34.4526 325.93 38.5666 335.653C43.2396 334.219 57.6478 329.158 72.9119 317.512C76.4282 314.829 76.0497 312.706 75.9259 312.011C74.3446 303.114 48.4291 292.894 36.2956 288.928L31.8985 308.37C31.3077 313.78 30.9505 320.502 31.329 322.405ZM36.3203 340.227L35.6872 338.7C33.4515 333.313 30.4446 326.988 29.2702 325.68C27.8269 325.284 26.3518 323.669 28.124 307.738L33.4727 284.023L35.4537 284.638C39.7305 285.959 77.3196 297.951 79.7003 311.338C80.3052 314.738 78.8053 317.838 75.2395 320.559C56.07 335.183 38.6551 339.64 37.9228 339.824L36.3203 340.227Z" fill="#252323"/>
<path d="M304.034 213.417H7.04551C6.23543 213.417 5.58814 214.082 5.60582 214.888L8.13154 315.978C8.13154 319.616 9.93566 323.252 13.5368 325.33L35.1967 337.824C36.9301 338.824 39.0986 337.573 39.0986 335.573V326.154C39.0986 324.154 41.267 322.902 43.0004 323.903L113.262 364.428C116.329 366.2 118.221 369.473 118.221 373.01V379.99C118.221 383.531 120.11 386.804 123.181 388.574L141.314 399.031C149.28 403.63 159.1 403.63 167.066 399.031L294.843 325.327C298.448 323.248 300.249 319.612 300.249 315.976L305.47 214.927C305.512 214.107 304.858 213.417 304.034 213.417Z" fill="#EF4BA2"/>
<path d="M41.6986 321.63C42.4769 321.63 43.2515 321.834 43.9626 322.245L114.22 362.771C117.867 364.878 120.138 368.798 120.138 373.01V379.99C120.138 382.838 121.67 385.488 124.139 386.913L142.272 397.377C149.62 401.609 158.753 401.616 166.108 397.377L293.885 323.674C296.669 322.065 298.331 319.188 298.331 315.978L303.528 215.333H7.53371L10.0488 315.93C10.0488 319.188 11.7114 322.065 14.4954 323.674L36.1553 336.166C36.4525 336.34 36.7179 336.24 36.8417 336.166C36.969 336.091 37.1813 335.915 37.1813 335.572V326.154C37.1813 324.521 38.0267 323.058 39.4417 322.242C40.1492 321.834 40.9239 321.63 41.6986 321.63ZM154.19 404.383C149.404 404.383 144.625 403.152 140.355 400.69L122.218 390.228C118.571 388.125 116.304 384.199 116.304 379.99V373.01C116.304 370.164 114.772 367.511 112.303 366.086L42.0417 325.56C41.7446 325.394 41.4863 325.486 41.3589 325.56C41.2316 325.634 41.0158 325.81 41.0158 326.154V335.572C41.0158 337.206 40.1704 338.665 38.7554 339.485C37.3404 340.294 35.6531 340.298 34.2381 339.481L12.5781 326.988C8.59495 324.691 6.21424 320.573 6.21424 315.978L3.68844 214.937C3.66721 214.025 4.00688 213.166 4.64362 212.512C5.28037 211.859 6.13283 211.498 7.04549 211.498H304.034C304.95 211.498 305.838 211.883 306.468 212.544C307.094 213.209 307.43 214.113 307.384 215.025L302.166 316.075C302.166 320.573 299.785 324.691 295.802 326.988L168.025 400.69C163.759 403.152 158.973 404.383 154.19 404.383Z" fill="#252323"/>
<path d="M167.324 399.031L285.518 330.473L290.223 215.556L180.635 213.417L155.816 229.526V402.389C159.8 402.178 163.747 401.093 167.324 399.031Z" fill="#252323"/>
<path d="M157.733 230.566V400.291C160.821 399.881 163.718 398.902 166.364 397.376L283.642 329.343L288.226 217.433L181.186 215.34L157.733 230.566ZM153.895 404.412V228.488L180.086 211.492L292.217 213.679L287.388 331.601L286.479 332.131L168.281 400.694C164.539 402.854 160.375 404.065 155.918 404.306L153.895 404.412Z" fill="#252323"/>
<path d="M7.04551 213.417C6.23543 213.417 5.58814 214.081 5.60582 214.887L8.13153 315.978C8.13153 319.616 9.93565 323.252 13.5368 325.33L18.1709 328.003L16.0484 225.861L19.837 213.417H7.04551Z" fill="#252323"/>
<path d="M7.53371 215.332L10.0488 315.93C10.0488 319.188 11.7114 322.065 14.4954 323.673L16.1828 324.645L14.124 225.595L17.2511 215.332H7.53371ZM20.1589 331.36L12.5782 326.988C8.59496 324.69 6.21424 320.572 6.21424 315.978L3.68844 214.933C3.66721 214.021 4.00688 213.166 4.64363 212.512C5.28037 211.858 6.13283 211.498 7.0455 211.498H22.423L17.9693 226.126L20.1589 331.36Z" fill="#252323"/>
<path d="M299.997 223.019L168.043 299.131C160.317 303.588 150.798 303.588 143.072 299.131L11.1206 223.019C3.72022 218.75 3.72022 208.08 11.1206 203.815L143.075 127.703C150.801 123.246 160.32 123.246 168.046 127.703L299.997 203.815C307.398 208.08 307.398 218.75 299.997 223.019Z" fill="white"/>
<path d="M155.558 126.285C151.572 126.285 147.588 127.31 144.033 129.357L12.0786 205.472C9.20266 207.13 7.48691 210.098 7.48691 213.417C7.48691 216.729 9.20266 219.704 12.0786 221.362L144.03 297.474C151.136 301.57 159.977 301.574 167.083 297.474L299.038 221.358C301.914 219.701 303.63 216.729 303.63 213.417C303.63 210.102 301.914 207.13 299.038 205.472L167.083 129.357C163.532 127.31 159.542 126.285 155.558 126.285ZM155.558 304.376C150.907 304.376 146.258 303.182 142.112 300.79L10.1613 224.677C6.08609 222.327 3.65234 218.114 3.65234 213.414C3.65588 208.713 6.08609 204.504 10.1613 202.157L142.116 126.042C150.408 121.26 160.709 121.263 169.004 126.042L300.955 202.157C305.031 204.504 307.464 208.713 307.464 213.417C307.464 218.118 305.031 222.327 300.955 224.673L169.004 300.79C164.855 303.182 160.207 304.376 155.558 304.376Z" fill="#252323"/>
<path d="M139.263 399.245L137.781 297.768L141.616 297.707L143.098 399.188L139.263 399.245Z" fill="#252323"/>
<path d="M45.0695 306.871L35.0408 301.086C33.4984 300.194 32.2461 297.806 32.2461 295.753V277.212C32.2461 275.156 33.4984 274.208 35.0408 275.099L45.0695 280.884C46.6118 281.775 47.8641 284.164 47.8641 286.221V304.761C47.8641 306.818 46.6118 307.761 45.0695 306.871Z" fill="white"/>
<path d="M34.191 276.82C34.1733 276.926 34.1628 277.054 34.1628 277.209V295.754C34.1628 297.227 35.1497 298.937 35.9987 299.429L45.9178 305.151C45.9354 305.047 45.9461 304.918 45.9461 304.762V286.221C45.9461 284.748 44.9591 283.034 44.1101 282.546L34.191 276.82ZM46.1831 309.119C45.5039 309.119 44.7928 308.921 44.1101 308.529L34.0814 302.743C31.9412 301.513 30.3281 298.507 30.3281 295.754V277.209C30.3281 275.428 31.0285 274 32.2525 273.293C33.3632 272.654 34.7287 272.707 35.9987 273.445L46.0274 279.227C48.1676 280.461 49.7806 283.465 49.7806 286.221V304.762C49.7806 306.547 49.0802 307.974 47.8563 308.677C47.3398 308.975 46.7738 309.119 46.1831 309.119Z" fill="#252323"/>
<path d="M42.3973 297.842L35.1914 293.681L37.1087 290.371L44.3146 294.526L42.3973 297.842Z" fill="#252323"/>
<path d="M224.114 332.147L223.375 330.872L294.715 289.723L295.451 291.003L224.114 332.147Z" fill="#EF4BA2"/>
<path d="M224.114 337.135L223.375 335.859L294.715 294.71L295.451 295.99L224.114 337.135Z" fill="#EF4BA2"/>
<path d="M224.114 342.124L223.375 340.846L294.715 299.698L295.451 300.976L224.114 342.124Z" fill="#EF4BA2"/>
<path d="M224.114 327.161L223.375 325.885L294.715 284.734L295.451 286.013L224.114 327.161Z" fill="#EF4BA2"/>
<path d="M170.623 393.784L167.676 393.739L168.068 368.791L171.019 368.837L170.623 393.784Z" fill="#EF4BA2"/>
<path d="M171.087 364.216L168.137 364.171L168.303 353.664L171.253 353.709L171.087 364.216Z" fill="#EF4BA2"/>
<path d="M281.79 265.186L278.84 265.129L279.36 239.142L282.31 239.199L281.79 265.186Z" fill="#EF4BA2"/>
<path d="M129.857 355.944C129.857 358.436 128.105 359.446 125.944 358.198C123.786 356.952 122.035 353.923 122.035 351.431C122.035 348.939 123.786 347.928 125.944 349.177C128.105 350.42 129.857 353.452 129.857 355.944Z" fill="#EF4BA2"/>
<path d="M124.196 350.554C124.16 350.554 124.139 350.556 124.128 350.561C124.104 350.59 123.951 350.839 123.951 351.43C123.951 353.247 125.331 355.633 126.902 356.541C127.425 356.838 127.712 356.827 127.758 356.809C127.783 356.781 127.938 356.53 127.938 355.943C127.938 354.127 126.559 351.741 124.984 350.832C124.581 350.599 124.312 350.554 124.196 350.554ZM127.698 360.644C126.82 360.644 125.894 360.382 124.984 359.856C122.253 358.279 120.113 354.579 120.113 351.43C120.113 349.539 120.884 348.016 122.218 347.242C123.552 346.471 125.257 346.567 126.902 347.518C129.633 349.09 131.773 352.79 131.773 355.943C131.773 357.83 131.005 359.357 129.668 360.132C129.07 360.474 128.402 360.644 127.698 360.644Z" fill="#252323"/>
<path d="M129.857 340.859C129.857 343.351 128.105 344.358 125.944 343.114C123.786 341.866 122.035 338.838 122.035 336.346C122.035 333.855 123.786 332.844 125.944 334.091C128.105 335.336 129.857 338.368 129.857 340.859Z" fill="#EF4BA2"/>
<path d="M124.196 335.472C124.16 335.472 124.139 335.472 124.128 335.476C124.104 335.504 123.951 335.755 123.951 336.346C123.951 338.163 125.331 340.549 126.902 341.455C127.425 341.757 127.712 341.742 127.758 341.729C127.783 341.697 127.938 341.448 127.938 340.859C127.938 339.042 126.559 336.657 124.984 335.748C124.581 335.519 124.312 335.472 124.196 335.472ZM127.698 345.56C126.82 345.56 125.894 345.297 124.984 344.771C122.253 343.199 120.113 339.498 120.113 336.346C120.113 334.455 120.884 332.932 122.218 332.157C123.552 331.387 125.257 331.482 126.902 332.434C129.633 334.006 131.773 337.706 131.773 340.859C131.773 342.749 131.005 344.273 129.668 345.046C129.07 345.39 128.402 345.56 127.698 345.56Z" fill="#252323"/>
<path d="M203.913 208.412L114.291 260.107L58.293 227.808L147.915 176.114L203.913 208.412Z" fill="white"/>
<path d="M62.1267 227.808L114.29 257.895L200.077 208.412L147.914 178.326L62.1267 227.808ZM114.29 262.319L54.4609 227.808L147.914 173.901L207.743 208.412L114.29 262.319Z" fill="#252323"/>
<path d="M215.972 201.599L126.123 253.283L70.3516 220.995L159.973 169.301L215.972 201.599Z" fill="white"/>
<path d="M74.182 220.994L126.123 251.07L212.129 201.595L159.973 171.512L74.182 220.994ZM126.119 255.495L66.5234 220.987L159.973 167.087L219.809 201.602L126.119 255.495Z" fill="#252323"/>
<path d="M225.202 196.365L135.701 247.773L79.5859 215.761L169.208 164.062L225.202 196.365Z" fill="white"/>
<path d="M83.4355 215.75L135.698 245.568L221.361 196.362L169.209 166.279L83.4355 215.75ZM135.705 249.982L75.7344 215.768L169.209 161.854L229.041 196.369L135.705 249.982Z" fill="#252323"/>
<path d="M176.31 113.343L157.349 107.929C157.141 107.869 156.918 107.869 156.705 107.926L129.849 115.312C129.739 115.344 129.647 115.379 129.548 115.439C126.97 117.047 87.6966 141.465 85.0258 142.677C82.2666 143.932 56.6765 154.209 55.4242 155.209C54.4514 155.987 47.4862 154.273 44.3838 153.456C43.6268 153.258 42.8945 153.831 42.8945 154.608V203.437C42.8945 205.002 43.931 206.571 46.0075 207.766L57.5892 214.449C62.0464 217.018 69.3407 217.018 73.8014 214.449L141.838 175.206C146.295 172.633 153.589 172.633 158.05 175.206L187.273 192.06C188.026 192.495 188.076 193.562 187.365 194.064L174.248 203.324C174.142 203.398 174.025 203.454 173.905 203.49L149.652 210.802C149.539 210.837 149.422 210.855 149.305 210.855H144.013C143.355 210.855 142.821 211.389 142.821 212.046L142.878 261.496C143.051 262.917 144.034 264.313 145.916 265.398L157.501 272.077C161.959 274.65 169.253 274.65 173.714 272.077L285.208 207.766C287.281 206.571 288.317 205.002 288.317 203.437V153.895C288.317 153.393 288.002 152.944 287.525 152.774L176.381 113.365C176.36 113.358 176.335 113.35 176.31 113.343Z" fill="#EF4BA2"/>
<path d="M144.738 212.771L144.798 261.493C144.89 262.143 145.633 263.023 146.874 263.741L158.459 270.42C162.326 272.654 168.881 272.654 172.754 270.42L284.248 206.109C285.614 205.317 286.399 204.342 286.399 203.433V154.407L175.765 115.178L157.02 109.827L130.358 117.157C126.279 119.734 88.6121 143.151 85.8211 144.423C84.8978 144.84 81.4416 146.261 77.1931 148.011C69.9307 150.993 57.776 155.987 56.5379 156.768C55.8622 157.312 54.8434 158.125 44.8111 155.549V203.433C44.8111 204.342 45.5965 205.317 46.9655 206.109L58.5436 212.792C62.4207 215.026 68.9685 215.026 72.842 212.792L140.878 173.545C145.958 170.608 153.921 170.612 159.008 173.545L188.234 190.406C189.154 190.937 189.734 191.891 189.784 192.955C189.83 194.015 189.342 195.019 188.468 195.63L175.351 204.89C175.068 205.087 174.771 205.229 174.459 205.324L150.203 212.636C149.917 212.725 149.616 212.771 149.308 212.771H144.738ZM165.609 275.937C162.344 275.937 159.086 275.202 156.542 273.735L144.957 267.056C142.643 265.72 141.232 263.829 140.974 261.726L140.903 212.05C140.903 210.336 142.3 208.94 144.012 208.94H149.308L173.349 201.659L185.337 193.156L157.087 176.86C153.22 174.63 146.669 174.626 142.796 176.86L74.7594 216.107C69.6761 219.04 61.7132 219.04 56.6263 216.107L45.0447 209.424C42.4234 207.911 40.9766 205.784 40.9766 203.433V154.609C40.9766 153.637 41.4187 152.739 42.1899 152.149C42.954 151.555 43.9374 151.357 44.8713 151.605C51.0053 153.216 53.7716 153.527 54.5675 153.492C56.0179 152.644 61.1791 150.446 75.7322 144.469C79.9206 142.745 83.3236 141.349 84.2328 140.935C86.1748 140.055 111.79 124.233 128.536 113.814C128.784 113.662 129.028 113.552 129.318 113.471L156.195 106.081C156.751 105.929 157.335 105.929 157.879 106.088L176.985 111.548L288.168 150.972C289.399 151.403 290.234 152.58 290.234 153.898V203.433C290.234 205.784 288.79 207.911 286.166 209.424L174.672 273.735C172.132 275.202 168.867 275.937 165.609 275.937Z" fill="#252323"/>
<path d="M173.713 271.533L275.772 212.664V148.063L254.123 140.384L166.836 212.442V273.396C169.351 273.24 171.795 272.639 173.713 271.533Z" fill="#252323"/>
<path d="M168.752 213.34V271.244C170.288 270.968 171.667 270.502 172.753 269.876L273.85 211.559V149.414L254.504 142.551L168.752 213.34ZM164.914 275.432V211.541L253.736 138.214L277.689 146.71V213.771L174.667 273.195C172.587 274.393 169.92 275.124 166.952 275.305L164.914 275.432Z" fill="#252323"/>
<path d="M66.9648 215.927C69.4658 215.767 71.8961 215.167 73.8028 214.068L141.839 174.824C144.336 173.382 147.725 172.778 151.008 172.955V109.113L129.85 114.931C129.741 114.962 129.649 115.001 129.553 115.061C126.971 116.666 87.698 141.087 85.0272 142.299C83.4672 143.006 74.5987 146.604 66.9648 149.777V215.927Z" fill="#252323"/>
<path d="M68.8775 151.053V213.774C70.4022 213.502 71.7464 213.039 72.8395 212.41L140.876 173.167C143.09 171.891 146.005 171.138 149.086 171.021V111.63L130.355 116.779C126.277 119.355 88.6096 142.773 85.8185 144.041C84.9059 144.455 81.5311 145.844 77.3568 147.558C74.7108 148.646 71.7393 149.869 68.8775 151.053ZM65.043 217.969V148.498L66.2244 148.007C69.4435 146.667 72.882 145.257 75.8994 144.017C80.01 142.327 83.3352 140.96 84.2302 140.553C86.1723 139.673 111.787 123.854 128.533 113.436C128.781 113.284 129.025 113.174 129.315 113.093L152.921 106.597V174.973L150.901 174.867C147.823 174.686 144.859 175.291 142.793 176.482L74.7568 215.725C72.691 216.916 70.0379 217.648 67.0841 217.838L65.043 217.969Z" fill="#252323"/>
<path d="M46.0066 157.386L58.1826 164.412C62.332 166.805 69.0567 166.805 73.2026 164.412L142.431 124.48C146.58 122.087 153.305 122.087 157.451 124.48L215.144 157.758C219.293 160.15 219.293 164.031 215.144 166.423L145.915 206.353C141.769 208.745 141.769 212.626 145.915 215.018L158.095 222.044C162.241 224.437 168.969 224.437 173.115 222.044L285.207 157.386C289.353 154.994 289.353 151.117 285.207 148.724L173.115 84.0699C168.969 81.6772 162.244 81.6772 158.095 84.0699L46.0066 148.724C41.8572 151.117 41.8572 154.994 46.0066 157.386Z" fill="white"/>
<path d="M149.941 120.765C152.991 120.765 156.036 121.451 158.41 122.822L216.106 156.1C218.727 157.613 220.174 159.744 220.174 162.091C220.171 164.441 218.727 166.568 216.106 168.081L146.874 208.014C145.509 208.802 144.724 209.777 144.724 210.689C144.724 211.597 145.509 212.573 146.874 213.361L159.054 220.383C162.605 222.433 168.608 222.433 172.157 220.383L284.248 155.729C285.614 154.941 286.399 153.966 286.399 153.054C286.399 152.145 285.614 151.17 284.248 150.382L172.157 85.7277C168.612 83.6814 162.605 83.6779 159.057 85.7277L46.9655 150.382C45.5965 151.174 44.8111 152.149 44.8111 153.057C44.8111 153.966 45.5965 154.941 46.9619 155.726L46.9655 155.729L59.1414 162.755C62.693 164.801 68.6926 164.801 72.2442 162.755L141.473 122.822C143.846 121.451 146.896 120.765 149.941 120.765ZM165.605 225.759C162.559 225.759 159.51 225.073 157.136 223.698L144.957 216.676C142.336 215.167 140.889 213.036 140.889 210.689C140.889 208.339 142.336 206.208 144.957 204.699L214.185 164.766C215.554 163.978 216.336 163.002 216.336 162.091C216.336 161.182 215.554 160.207 214.185 159.415L156.493 126.137C152.945 124.091 146.938 124.091 143.39 126.137L74.1616 166.067C69.4143 168.813 61.975 168.813 57.2241 166.067L45.0447 159.044C42.4234 157.535 40.9766 155.407 40.9766 153.057C40.9766 150.707 42.4199 148.579 45.0447 147.067L157.136 82.4091C161.887 79.6666 169.327 79.6701 174.074 82.4091L286.166 147.067C288.79 148.576 290.234 150.707 290.234 153.054C290.234 155.404 288.79 157.535 286.166 159.044L174.074 223.698C171.704 225.073 168.655 225.759 165.605 225.759Z" fill="#252323"/>
<path d="M290.43 105.187H274.656L273.146 117.04L170.294 57.7157C163.643 53.8776 152.861 53.8776 146.214 57.7157L64.1272 105.219L64.9904 92.3719H36.871L23.6303 122.78H21.0302L7.7152 153.368L3.12711 163.928C2.409 165.808 3.29687 167.851 5.8297 169.314L75.7443 209.643C79.678 211.908 86.1126 211.908 90.0463 209.643L107.465 199.595C111.398 197.326 117.837 197.326 121.77 199.595L126.74 202.461C127.395 202.84 127.901 203.267 128.339 203.709L123.882 214.106C123.355 215.905 124.331 217.573 126.74 218.962L141.63 227.55C148.252 231.371 159.087 231.371 165.709 227.55L167.973 226.246L201.47 206.925L302.977 148.138C306.232 146.261 307.87 143.812 307.937 141.352L308.602 110.633C308.609 110.265 308.365 109.944 308.011 109.848L290.43 105.187Z" fill="#EF4BA2"/>
<path d="M114.617 195.966C117.536 195.966 120.454 196.623 122.729 197.934L127.699 200.804C128.424 201.218 129.061 201.716 129.705 202.363L130.607 203.282L125.644 214.863C125.467 215.506 126.132 216.4 127.695 217.302L142.588 225.893C148.598 229.357 158.744 229.36 164.75 225.893L200.511 205.268L302.015 146.48C304.548 145.021 305.966 143.183 306.023 141.299L306.663 111.474L290.178 107.106H276.347L274.684 120.14L169.335 59.3733C163.328 55.9098 153.183 55.9098 147.173 59.3733L61.9726 108.679L62.9384 94.2875H38.1266L24.8859 124.696H22.2893L4.88498 164.692C4.36498 166.067 6.0417 167.226 6.79164 167.657L76.7027 207.982C80.0562 209.915 85.7303 209.919 89.0874 207.982L106.506 197.934C108.78 196.623 111.699 195.966 114.617 195.966ZM153.671 232.311C148.963 232.311 144.258 231.276 140.671 229.208L125.782 220.617C121.459 218.129 121.583 215.135 122.039 213.573L126.015 204.264C125.941 204.215 125.863 204.169 125.785 204.123L120.808 201.249C117.451 199.313 111.78 199.316 108.423 201.249L91.0047 211.297C86.459 213.923 79.3345 213.923 74.7853 211.297L4.87082 170.972C1.59159 169.081 0.236738 166.12 1.33689 163.246L19.7742 120.865H22.3707L35.6114 90.4564H67.0383L66.2778 101.759L145.248 56.0583C152.543 51.8526 163.958 51.8526 171.252 56.0547L271.607 113.941L272.969 103.275L290.921 103.335L308.506 108C309.719 108.325 310.547 109.428 310.515 110.679L309.854 141.395C309.762 144.671 307.661 147.646 303.936 149.795L166.668 229.212C163.084 231.276 158.376 232.311 153.671 232.311Z" fill="#252323"/>
<path d="M99.579 121.875C98.8256 121.875 82.5391 134.658 82.5391 134.658V139.418L101.323 170.212L82.5426 211.328C85.2488 211.385 87.9832 210.834 90.0456 209.643L107.464 199.595C109.197 198.595 111.401 198.061 113.662 197.937L133.457 156.821L120.655 123.161C120.655 123.161 100.333 121.875 99.579 121.875Z" fill="#252323"/>
<path d="M84.4609 138.882L103.493 170.081L85.6354 209.177C86.9407 208.943 88.1329 208.533 89.088 207.982L106.506 197.934C108.141 196.991 110.164 196.372 112.411 196.121L131.371 156.733L119.301 124.996C112.046 124.54 102.251 123.925 100.005 123.808C98.1226 125.006 90.22 131.078 84.4609 135.591V138.882ZM82.9151 213.248C82.7772 213.248 82.6427 213.248 82.5047 213.245L79.5898 213.184L99.1592 170.343L80.6263 139.96V133.729L81.3586 133.153C98.1651 119.956 98.7912 119.956 99.5801 119.956C100.355 119.956 117.37 121.037 120.777 121.253L122.008 121.331L135.542 156.91L114.901 199.79L113.769 199.853C111.692 199.963 109.793 200.461 108.427 201.249L91.0053 211.297C88.8191 212.562 85.9573 213.248 82.9151 213.248Z" fill="#252323"/>
<path d="M273.138 117.04L269.154 114.743L210.963 126.636C210.963 126.636 172.079 154.209 171.828 155.21C171.577 156.213 169.32 173.008 169.32 173.008L170.823 189.29L152.492 230.364C157.232 230.551 162.079 229.643 165.705 227.551L167.965 226.246L201.461 206.925L296.697 151.771V109.113L273.544 113.846L273.138 117.04Z" fill="#252323"/>
<path d="M171.25 173.046L172.781 189.611L155.462 228.42C158.996 228.197 162.279 227.317 164.748 225.893L200.505 205.267L294.782 150.664V111.46L275.276 115.45L274.678 120.139L268.831 116.768L211.747 128.431C198.138 138.082 176.68 153.477 173.609 156.128C173.248 158.344 172.028 167.271 171.25 173.046ZM153.739 232.304C153.301 232.304 152.862 232.293 152.42 232.275L149.59 232.166L168.869 188.968L167.39 172.965L167.419 172.749C167.953 168.787 169.711 155.771 169.969 154.75C170.188 153.88 170.39 153.057 209.858 125.073L210.187 124.84L269.485 112.721L271.604 113.941L271.82 112.244L298.62 106.766V152.877L166.662 229.211C163.181 231.222 158.632 232.304 153.739 232.304Z" fill="#252323"/>
<path d="M41.15 101.649C45.0837 103.918 45.0837 107.632 41.15 109.901L23.7315 119.949C19.7978 122.218 19.7978 125.929 23.7315 128.198L93.646 168.526C97.5797 170.795 104.014 170.795 107.948 168.526L125.367 158.478C129.3 156.21 135.738 156.21 139.672 158.478L144.639 161.345C148.572 163.614 148.572 167.324 144.639 169.593C140.709 171.862 140.709 175.577 144.639 177.846L159.531 186.434C166.154 190.254 176.989 190.254 183.611 186.434L185.875 185.13L219.371 165.808L303.655 117.312C310.305 113.478 310.305 107.258 303.655 103.423L170.972 26.8905C164.321 23.0524 153.542 23.0524 146.892 26.8905L41.15 87.7596C34.5031 91.5977 34.5031 97.8143 41.15 101.649Z" fill="white"/>
<path d="M132.523 154.853C135.441 154.853 138.356 155.51 140.634 156.818L145.604 159.684C148.088 161.119 149.51 163.229 149.51 165.469C149.51 167.71 148.088 169.82 145.604 171.255C144.338 171.983 143.609 172.88 143.609 173.718C143.609 174.556 144.338 175.457 145.604 176.188L160.494 184.776C166.5 188.24 176.649 188.243 182.656 184.776L302.703 115.655C305.3 114.157 306.729 112.276 306.729 110.368C306.729 108.456 305.3 106.579 302.7 105.081L170.017 28.5482C164.003 25.0812 153.854 25.0847 147.854 28.5482L42.1123 89.4208C39.5158 90.9193 38.0831 92.796 38.0831 94.7044C38.0831 96.6164 39.5158 98.493 42.1123 99.9915C44.5956 101.423 46.0212 103.533 46.0212 105.773C46.0212 108.018 44.5991 110.124 42.1123 111.559L24.6938 121.607C23.4309 122.338 22.7021 123.236 22.7021 124.073C22.7021 124.911 23.4309 125.812 24.6938 126.54L94.6083 166.869C97.9653 168.798 103.636 168.802 106.997 166.865L124.411 156.821C126.686 155.51 129.605 154.853 132.523 154.853ZM171.577 191.198C166.868 191.198 162.16 190.159 158.576 188.091L143.687 179.503C141.2 178.069 139.778 175.962 139.778 173.718C139.778 171.474 141.204 169.367 143.687 167.936C144.95 167.208 145.675 166.307 145.675 165.469C145.675 164.632 144.95 163.73 143.687 163.002L138.714 160.136C135.364 158.199 129.682 158.199 126.329 160.136L108.91 170.184C104.365 172.806 97.2402 172.806 92.691 170.184L22.7765 129.855C20.2932 128.424 18.8676 126.314 18.8711 124.073C18.8711 121.829 20.2932 119.723 22.78 118.291L40.195 108.244C41.4614 107.512 42.1865 106.611 42.1865 105.773C42.1865 104.939 41.4614 104.038 40.195 103.31C36.3639 101.098 34.2485 98.0407 34.2485 94.7044C34.2485 91.3681 36.3639 88.3146 40.195 86.1022L145.941 25.2296C153.224 21.0275 164.643 21.031 171.934 25.2296L304.617 101.766C308.452 103.975 310.564 107.028 310.564 110.368C310.564 113.704 308.452 116.761 304.617 118.97L184.573 188.091C180.99 190.159 176.281 191.194 171.577 191.198Z" fill="#252323"/>
<path d="M125.638 214.877L122.125 213.34L139.993 172.534L143.505 174.071L125.638 214.877Z" fill="#252323"/>
<path d="M205.179 206.229L203.711 203.673L264.923 168.473L266.391 171.028L205.179 206.229Z" fill="#EF4BA2"/>
<path d="M177.516 222.44L176.016 219.902L196.996 207.561L198.493 210.098L177.516 222.44Z" fill="#EF4BA2"/>
<path d="M27.0674 143.306L57.5215 160.444C58.6959 161.105 59.1629 162.557 58.5898 163.776L51.0939 179.807C50.4571 181.168 48.791 181.698 47.4821 180.953L17.4242 163.815C16.2781 163.161 15.8111 161.744 16.3453 160.536L23.4486 144.508C24.0641 143.119 25.7444 142.564 27.0674 143.306Z" fill="white"/>
<path d="M25.8093 144.889C25.7208 144.889 25.6466 144.911 25.5971 144.925C25.4945 144.96 25.3034 145.052 25.2008 145.285L18.1011 161.313C17.9631 161.624 18.0834 161.984 18.377 162.15L48.4349 179.291C48.6507 179.415 48.8595 179.376 48.9585 179.344C49.0611 179.312 49.2521 179.224 49.3582 178.998L56.8576 162.963C57.0027 162.649 56.8859 162.281 56.5817 162.111L26.1312 144.978C26.0145 144.914 25.9048 144.889 25.8093 144.889ZM48.7604 183.207C47.9857 183.207 47.2181 183.006 46.5318 182.617L16.4774 165.48C14.4682 164.331 13.6581 161.871 14.5955 159.765L21.6988 143.734C22.2082 142.578 23.1915 141.687 24.3907 141.292C25.5864 140.892 26.9059 141.016 28.0096 141.638L58.4637 158.775C60.4977 159.92 61.3184 162.475 60.3279 164.585L52.832 180.62C52.3014 181.751 51.3109 182.62 50.1187 182.995C49.6766 183.136 49.2167 183.207 48.7604 183.207Z" fill="#252323"/>
<path d="M65.8369 166.126L69.5194 168.19C69.7528 168.321 69.8448 168.611 69.7316 168.851L68.0796 172.389C67.9523 172.661 67.6233 172.764 67.3615 172.615L63.764 170.551C63.5376 170.42 63.4456 170.141 63.5518 169.904L65.1188 166.363C65.2426 166.087 65.5752 165.978 65.8369 166.126Z" fill="#252323"/>
<path d="M73.3175 170.311L77.0035 172.375C77.2334 172.506 77.329 172.795 77.2158 173.036L75.5603 176.574C75.4329 176.846 75.1039 176.948 74.8457 176.8L71.2444 174.736C71.018 174.605 70.9261 174.326 71.0322 174.089L72.6029 170.548C72.7231 170.272 73.0557 170.162 73.3175 170.311Z" fill="#252323"/>
<path d="M80.8042 174.733L84.4903 176.8C84.7237 176.931 84.8156 177.221 84.7025 177.461L83.0469 180.999C82.9196 181.267 82.5906 181.373 82.3324 181.225L78.7312 179.161C78.5048 179.03 78.4164 178.751 78.519 178.514L80.0896 174.973C80.2099 174.697 80.5424 174.588 80.8042 174.733Z" fill="#252323"/>
<path d="M62.2159 173.743L65.9019 175.807C66.1354 175.937 66.2274 176.227 66.1142 176.467L64.4586 180.005C64.3313 180.277 64.0023 180.38 63.744 180.231L60.1429 178.167C59.9165 178.037 59.8245 177.757 59.9307 177.521L61.5014 173.979C61.6216 173.704 61.9542 173.594 62.2159 173.743Z" fill="#252323"/>
<path d="M69.7006 177.927L73.3866 179.994C73.62 180.121 73.712 180.411 73.5988 180.652L71.9433 184.189C71.8195 184.461 71.487 184.564 71.2288 184.416L67.6312 182.351C67.4048 182.221 67.3128 181.942 67.419 181.705L68.986 178.163C69.1098 177.888 69.4388 177.778 69.7006 177.927Z" fill="#252323"/>
<path d="M77.1885 182.349L80.8711 184.416C81.1046 184.547 81.1965 184.837 81.0833 185.077L79.4313 188.615C79.304 188.883 78.9714 188.989 78.7132 188.841L75.1156 186.777C74.8892 186.646 74.7972 186.367 74.9033 186.13L76.4704 182.589C76.5942 182.313 76.9268 182.204 77.1885 182.349Z" fill="#252323"/>
<path d="M62.2159 173.743L65.9019 175.807C66.1354 175.937 66.2274 176.227 66.1142 176.467L64.4586 180.005C64.3313 180.277 64.0023 180.38 63.744 180.231L60.1429 178.167C59.9165 178.037 59.8245 177.757 59.9307 177.521L61.5014 173.979C61.6216 173.704 61.9542 173.594 62.2159 173.743Z" fill="#252323"/>
<path d="M69.7006 177.927L73.3866 179.994C73.62 180.121 73.712 180.411 73.5988 180.652L71.9433 184.189C71.8195 184.461 71.487 184.564 71.2288 184.416L67.6312 182.351C67.4048 182.221 67.3128 181.942 67.419 181.705L68.986 178.163C69.1098 177.888 69.4388 177.778 69.7006 177.927Z" fill="#252323"/>
<path d="M77.1885 182.349L80.8711 184.416C81.1046 184.547 81.1965 184.837 81.0833 185.077L79.4313 188.615C79.304 188.883 78.9714 188.989 78.7132 188.841L75.1156 186.777C74.8892 186.646 74.7972 186.367 74.9033 186.13L76.4704 182.589C76.5942 182.313 76.9268 182.204 77.1885 182.349Z" fill="#252323"/>
<path d="M58.5986 181.359L62.2812 183.423C62.5146 183.554 62.6065 183.843 62.4933 184.084L60.8414 187.621C60.714 187.893 60.3815 187.996 60.1233 187.847L56.5258 185.783C56.2994 185.653 56.2074 185.374 56.3135 185.137L57.8806 181.596C58.0044 181.32 58.3369 181.21 58.5986 181.359Z" fill="#252323"/>
<path d="M66.0869 185.543L69.7694 187.61C70.0028 187.738 70.0948 188.027 69.9816 188.268L68.3296 191.806C68.2023 192.078 67.8734 192.18 67.6116 192.032L64.014 189.968C63.7876 189.837 63.6956 189.558 63.8018 189.321L65.3724 185.78C65.4926 185.504 65.8252 185.395 66.0869 185.543Z" fill="#252323"/>
<path d="M73.5713 189.964L77.2575 192.032C77.4874 192.163 77.5829 192.453 77.4697 192.693L75.8141 196.231C75.6868 196.499 75.3578 196.605 75.0996 196.457L71.4984 194.393C71.272 194.262 71.18 193.983 71.2861 193.746L72.8568 190.205C72.977 189.929 73.3096 189.82 73.5713 189.964Z" fill="#252323"/>
<path d="M32.5947 159.139C31.7564 160.839 29.8426 161.61 28.3215 160.861C26.8004 160.111 26.2485 158.125 27.0869 156.425C27.9288 154.725 29.839 153.951 31.3601 154.7C32.8812 155.45 33.4331 157.436 32.5947 159.139Z" fill="#252323"/>
<path d="M39.9855 163.49C39.1471 165.189 37.2333 165.963 35.7121 165.214C34.191 164.465 33.6392 162.479 34.4775 160.779C35.3159 159.075 37.2298 158.305 38.7509 159.054C40.272 159.803 40.8239 161.79 39.9855 163.49Z" fill="#EF4BA2"/>
<path d="M252.367 195.015C251.943 194.937 251.557 194.874 251.557 194.874C249.792 194.693 247.546 195.63 245.147 198.39C243.806 199.934 242.788 201.762 242.222 203.723C241.305 206.907 241.673 209.25 242.777 210.558C242.777 210.558 244.999 213.771 249.955 214.923C250.188 214.979 250.446 214.877 250.577 214.672L257.946 202.967L258.264 198.75C258.275 198.595 258.236 198.461 258.133 198.348C257.567 197.74 255.668 195.683 252.367 195.015Z" fill="#EF4BA2"/>
<path d="M251.091 196.312C250.232 196.312 248.513 196.761 246.259 199.358C245.039 200.758 244.133 202.408 243.638 204.129C242.945 206.543 243.04 208.59 243.903 209.607C244.055 209.816 245.814 212.24 249.673 213.332L256.5 202.49L256.758 199.044C256.033 198.309 254.498 196.955 252.082 196.464L251.304 196.322C251.24 196.315 251.169 196.312 251.091 196.312ZM250.073 216.411C249.921 216.411 249.765 216.393 249.613 216.358C244.172 215.092 241.664 211.544 241.562 211.396C240.108 209.682 239.81 206.773 240.804 203.32C241.416 201.185 242.531 199.15 244.031 197.422C247.197 193.785 249.921 193.209 251.703 193.407L252.659 193.573C255.138 194.078 257.335 195.336 259.196 197.33C259.592 197.754 259.772 198.291 259.733 198.863L259.387 203.44L251.82 215.46C251.445 216.054 250.77 216.411 250.073 216.411Z" fill="#EF4BA2"/>
<path d="M260.329 202.818C260.329 206.992 257.397 212.067 253.778 214.156C250.159 216.241 247.227 214.551 247.227 210.378C247.227 206.2 250.159 201.125 253.778 199.04C257.397 196.951 260.329 198.644 260.329 202.818Z" fill="#252323"/>
<path d="M256.709 199.62C256.073 199.62 255.316 199.853 254.52 200.316C251.364 202.133 248.704 206.741 248.704 210.378C248.704 211.823 249.132 212.905 249.886 213.34C250.629 213.771 251.782 213.605 253.045 212.877C256.196 211.064 258.86 206.455 258.86 202.818C258.86 201.369 258.429 200.288 257.679 199.857C257.403 199.698 257.074 199.62 256.709 199.62ZM250.851 216.527C249.974 216.527 249.15 216.315 248.411 215.888C246.698 214.902 245.754 212.944 245.754 210.378C245.754 205.66 248.959 200.118 253.045 197.761C255.27 196.478 257.438 196.312 259.15 197.305C260.862 198.291 261.81 200.253 261.81 202.818C261.81 207.533 258.605 213.074 254.52 215.428C253.253 216.16 252.008 216.527 250.851 216.527Z" fill="#EF4BA2"/>
<path d="M287.035 106.533L234.748 76.0787C230.584 73.6542 227.245 70.0352 225.161 65.6952L217.496 49.7207C215.409 45.3666 212.059 41.7441 207.881 39.3197L145.466 3.06609C143.697 2.03764 141.744 2.06947 140.096 2.77631L44.7539 57.5348L46.6429 73.2478L79.5838 95.2233L132.812 134.156L176.765 158.768L197.742 178.283L293.01 123.511V116.927C293.01 112.647 290.735 108.688 287.035 106.533Z" fill="#EF4BA2"/>
<path d="M48.4405 72.1457L80.6457 93.6299L133.945 132.608L178.071 157.365L198.015 175.916L291.093 122.405V116.927C291.093 113.344 289.169 109.993 286.07 108.191L233.783 77.7332C229.269 75.1038 225.689 71.2268 223.432 66.5228L215.766 50.5484C213.838 46.5265 210.775 43.2149 206.916 40.9743L144.504 4.72424C142.986 3.84424 141.571 4.23299 140.857 4.53693L46.8098 58.5639L48.4405 72.1457ZM197.474 180.648L175.627 160.327L131.875 135.828L78.4524 96.7683L44.8429 74.351L42.6992 56.507L139.141 1.11586C141.692 0.0131989 144.271 0.158081 146.432 1.41272L208.847 37.6627C213.372 40.2922 216.958 44.1762 219.222 48.8944L226.888 64.8689C228.813 68.8766 231.865 72.1846 235.711 74.4252L288.002 104.879C292.275 107.371 294.928 111.983 294.928 116.927V124.618L197.474 180.648Z" fill="#252323"/>
<path d="M134.298 126.812L230.046 72.5169L230.064 72.4675C228.069 70.5166 226.378 68.2653 225.161 65.7242L217.495 49.7498C216.621 47.9332 215.486 46.2827 214.205 44.7524L117.919 98.3164L105.977 103.36L112.132 119.062L119.058 124.127L134.298 126.812Z" fill="#252323"/>
<path d="M119.83 122.317L133.952 124.805L227.03 72.0288C225.565 70.3183 224.359 68.4876 223.432 66.5544L215.766 50.5764C215.221 49.4454 214.546 48.3392 213.715 47.2189L118.854 99.9912L108.439 104.395L113.714 117.846L119.83 122.317ZM134.645 128.816L118.288 125.936L110.551 120.281L103.512 102.32L117.177 96.5524L214.659 42.3064L215.674 43.5222C217.181 45.3175 218.341 47.0846 219.222 48.9224L226.888 64.8969C227.96 67.1269 229.481 69.2156 231.405 71.0993L232.269 71.944L231.642 73.7747L230.995 74.1847L134.645 128.816Z" fill="#252323"/>
<path d="M196.008 165.5C196.008 165.5 193.139 168.511 190.387 171.441L197.741 178.283L293.009 123.511V116.927C293.009 114.937 292.499 113.029 291.604 111.325L196.008 165.5Z" fill="#252323"/>
<path d="M193.106 171.354L198.016 175.916L291.094 122.405V116.927C291.094 115.966 290.949 115.001 290.666 114.061L197.202 167.028C196.643 167.614 194.959 169.385 193.106 171.354ZM197.475 180.648L187.676 171.534L188.995 170.134C191.747 167.197 194.623 164.179 194.623 164.179L195.066 163.836L292.381 108.685L293.301 110.435C294.366 112.456 294.928 114.7 294.928 116.927V124.617L197.475 180.648Z" fill="#252323"/>
<path d="M210.092 171.526L208.648 168.961L286.024 125.529L287.47 128.095L210.092 171.526Z" fill="#EF4BA2"/>
<path d="M107.116 91.0679L203.328 36.8429L152.491 7.31836L57.1033 62.0204L49.0273 69.5977L57.2166 80.4724L70.9243 89.6189L107.116 91.0679Z" fill="white"/>
<path d="M71.5419 87.7245L106.651 89.1347L199.475 36.8182L152.486 9.53075L58.2552 63.5684L51.5942 69.8169L58.5559 79.0623L71.5419 87.7245ZM107.589 93.0046L70.3109 91.5096L55.687 81.6245L46.4648 69.3751L56.1504 60.3594L152.5 5.10596L207.186 36.8677L107.589 93.0046Z" fill="#252323"/>
<path d="M146.113 134.715V141.603L162.757 150.923L184.902 157.309L281.103 103.081L241.699 80.1296L146.113 134.715Z" fill="white"/>
<path d="M163.499 149.145L184.656 155.245L277.246 103.052L241.691 82.3419L148.03 135.828V140.483L163.499 149.145ZM185.141 159.373L161.819 152.594L144.191 142.727V133.605L241.709 77.9207L284.954 103.109L185.141 159.373Z" fill="#252323"/>
<path d="M41.1484 87.7593V63.0414C41.1484 58.401 46.1822 55.5065 50.1972 57.8391L112.612 94.089C116.787 96.517 120.137 100.14 122.224 104.49L129.889 120.464C131.973 124.808 135.312 128.427 139.48 130.851L191.763 161.305C195.467 163.461 197.742 167.419 197.742 171.699V178.283L41.1484 87.7593Z" fill="#EF4BA2"/>
<path d="M43.0651 86.6575L195.824 174.962V171.7C195.824 168.113 193.899 164.766 190.797 162.96L138.513 132.506C133.996 129.877 130.416 126 128.163 121.296L120.497 105.321C118.569 101.3 115.509 97.9881 111.646 95.7474L49.2309 59.4939C47.9468 58.7518 46.4081 58.7447 45.124 59.4869C43.8363 60.229 43.0651 61.5544 43.0651 63.0422V86.6575ZM199.658 181.603L39.2305 88.8663V63.0422C39.2305 60.169 40.7197 57.5996 43.2101 56.1648C45.704 54.7334 48.6756 54.744 51.1589 56.1824L113.574 92.4359C118.106 95.0653 121.692 98.9493 123.953 103.664L131.619 119.638C133.543 123.65 136.596 126.958 140.441 129.198L192.728 159.652C197.002 162.137 199.658 166.756 199.658 171.7V181.603Z" fill="#252323"/>
<path d="M207.48 109.46L220.944 110.82C222.995 111.025 225.058 110.576 226.837 109.541L281.045 77.9311C282.407 77.1395 281.965 75.0684 280.398 74.8988L210.055 67.3073C207.735 67.0564 205.393 67.5512 203.373 68.7175L133.692 108.908C131.966 109.905 132.521 112.524 134.502 112.739L184.486 118.133C186.474 118.348 188.484 117.945 190.235 116.98L201.799 110.619C203.532 109.665 205.513 109.262 207.48 109.46Z" fill="#EF4BA2"/>
<path d="M208.863 69.1593C207.275 69.1593 205.726 69.5728 204.335 70.3751L134.654 110.566L184.695 116.227C186.294 116.411 187.897 116.086 189.312 115.301L200.879 108.94C202.959 107.795 205.301 107.314 207.675 107.554L221.142 108.915C222.78 109.074 224.432 108.728 225.875 107.887L279.34 76.7118L209.854 69.2123C209.521 69.177 209.192 69.1593 208.863 69.1593ZM185.555 120.104C185.134 120.104 184.709 120.083 184.285 120.034L134.3 114.644C132.557 114.453 131.195 113.223 130.837 111.509C130.473 109.799 131.219 108.127 132.737 107.251L202.418 67.0565C204.809 65.6817 207.523 65.1091 210.264 65.4025L280.607 72.9974C282.16 73.16 283.369 74.2556 283.698 75.7823C284.024 77.3055 283.366 78.8005 282.015 79.5851L227.806 111.195C225.659 112.446 223.222 112.976 220.756 112.725L207.289 111.364C205.715 111.212 204.127 111.527 202.729 112.294L191.162 118.659C189.428 119.613 187.511 120.104 185.555 120.104Z" fill="#252323"/>
<path d="M142.277 103.961L179.481 107.36C180.691 107.474 181.904 107.205 182.955 106.594L227.131 80.932C228.008 80.4196 227.732 79.0872 226.724 78.9635L194.593 75.1289C193.337 74.9805 192.067 75.242 190.974 75.8711L142.277 103.961Z" fill="white"/>
<path d="M148.46 102.603L179.654 105.452C180.464 105.53 181.281 105.349 181.996 104.936L223.95 80.564L194.363 77.0298C193.538 76.9273 192.661 77.1076 191.929 77.5317L148.46 102.603ZM180.025 109.301C179.785 109.301 179.544 109.29 179.3 109.269L136.09 105.317L190.012 74.2131C191.458 73.379 193.167 73.0326 194.819 73.227L226.95 77.0617C228.223 77.2172 229.253 78.1608 229.511 79.4154C229.773 80.67 229.2 81.9459 228.089 82.5891L183.92 108.247C182.724 108.944 181.391 109.301 180.025 109.301Z" fill="#252323"/>
<path d="M60.7897 81.3843L61.5289 81.8119C62.2187 82.2077 62.7317 82.3491 63.0784 82.2324C63.418 82.1158 63.5913 81.7553 63.5913 81.1545C63.5913 80.5466 63.4463 80.0165 63.1597 79.5606C62.8732 79.1082 62.4239 78.7018 61.8084 78.3483L60.7897 77.7617V81.3843ZM65.8552 82.3703C65.8552 83.6814 65.498 84.4802 64.787 84.7665C64.076 85.0527 63.0642 84.8159 61.7518 84.0596L60.7897 83.5048V87.8447L58.5469 86.5512V74.3477L61.9252 76.2985C63.2093 77.0372 64.1856 77.9172 64.8506 78.9421C65.5192 79.9635 65.8552 81.105 65.8552 82.3703Z" fill="#252323"/>
<path d="M70.0942 86.4274L70.8159 86.8444C71.5234 87.2508 72.047 87.4205 72.3866 87.3427C72.7227 87.2649 72.8924 86.9327 72.8924 86.3496C72.8924 85.77 72.7226 85.2575 72.376 84.8122C72.0328 84.3704 71.4987 83.9392 70.7735 83.5222L70.0942 83.1299V86.4274ZM70.0942 88.5302V93.213L67.8516 91.9195V79.7158L70.9327 81.4935C72.3689 82.3241 73.4337 83.2395 74.1235 84.2396C74.8133 85.2398 75.1599 86.3566 75.1599 87.5865C75.1599 88.304 74.9866 88.8448 74.6434 89.2052C74.3003 89.5657 73.8156 89.7248 73.1895 89.6824C74.7814 93.3438 75.8214 95.7153 76.3025 96.7932L73.8121 95.3583L71.2864 89.2194L70.0942 88.5302Z" fill="#252323"/>
<path d="M77.6367 97.56V85.3601L79.8795 86.65V98.8535L77.6367 97.56Z" fill="#252323"/>
<path d="M91.924 105.802L89.0727 104.158L84.4705 92.2726L84.4069 92.2337C84.4988 93.9196 84.5448 95.1071 84.5448 95.8033V101.546L82.5391 100.391V88.187L85.369 89.8198L89.9642 101.607L90.0137 101.635C89.9394 100.009 89.9041 98.8675 89.9041 98.2102V92.4352L91.924 93.5979V105.802Z" fill="#252323"/>
<path d="M98.6699 109.693L96.4272 108.399V98.3516L93.5547 96.694V94.5417L101.542 99.1467V101.303L98.6699 99.645V109.693Z" fill="#252323"/>
<path d="M119.619 59.9673C129.818 62.4801 129.818 70.3967 119.619 72.9131C116.807 73.6058 113.828 73.6058 111.016 72.9131C100.818 70.3967 100.818 62.4801 111.016 59.9673C113.828 59.2746 116.807 59.2746 119.619 59.9673Z" fill="#EF4BA2"/>
<path d="M115.32 61.3595C114.029 61.3595 112.734 61.515 111.478 61.826C106.908 62.9534 105.288 65.0138 105.288 66.4381C105.288 67.8624 106.908 69.9263 111.478 71.0537C113.994 71.6722 116.65 71.6722 119.162 71.0537C123.732 69.9263 125.352 67.8624 125.352 66.4381C125.352 65.0138 123.732 62.9534 119.165 61.826H119.162C117.906 61.515 116.615 61.3595 115.32 61.3595ZM115.32 75.3477C113.718 75.3477 112.115 75.1533 110.559 74.7681C104.945 73.3862 101.453 70.1949 101.453 66.4381C101.453 62.6848 104.945 59.4935 110.559 58.1081C113.672 57.3412 116.965 57.3412 120.081 58.1081C125.699 59.4935 129.187 62.6848 129.187 66.4381C129.187 70.1949 125.699 73.3862 120.078 74.7681C118.525 75.1533 116.922 75.3477 115.32 75.3477Z" fill="#252323"/>
<path d="M115.321 42.3484C111.062 42.3484 107.609 45.7977 107.609 50.0529V60.9699C107.609 62.6522 109.254 64.3344 112.544 65.1473C114.359 65.5961 116.283 65.5961 118.098 65.1473C121.388 64.3344 123.033 62.6522 123.033 60.9699V50.0529C123.033 45.7977 119.58 42.3484 115.321 42.3484Z" fill="white"/>
<path d="M115.32 44.2646C112.126 44.2646 109.526 46.8623 109.526 50.0536V60.9707C109.526 61.5574 110.453 62.6601 113.003 63.2892C114.517 63.6602 116.12 63.6602 117.641 63.2892C120.191 62.6601 121.118 61.5574 121.118 60.9707V50.0536C121.118 46.8623 118.515 44.2646 115.32 44.2646ZM115.32 67.3994C114.231 67.3994 113.145 67.2687 112.084 67.0071C107.372 65.8444 105.691 63.1266 105.691 60.9707V50.0536C105.691 44.7488 110.011 40.4336 115.32 40.4336C120.63 40.4336 124.953 44.7488 124.953 50.0536V60.9707C124.953 63.1266 123.273 65.8444 118.561 67.0071C117.499 67.2687 116.41 67.3994 115.32 67.3994Z" fill="#252323"/>
<path d="M115.32 67.3994C114.231 67.3994 113.145 67.2687 112.084 67.0071C107.372 65.8444 105.691 63.1266 105.691 60.9707C105.691 58.8149 107.372 56.0971 112.084 54.9343L113.003 58.6523C110.449 59.2814 109.526 60.3841 109.526 60.9707C109.526 61.5574 110.449 62.6601 113.003 63.2892C114.517 63.6602 116.12 63.6602 117.641 63.2892C120.191 62.6601 121.118 61.5574 121.118 60.9707C121.118 60.3841 120.191 59.2814 117.637 58.6523L118.561 54.9343C123.273 56.0971 124.949 58.8149 124.949 60.9707C124.949 63.1266 123.273 65.8444 118.561 67.0071C117.499 67.2687 116.41 67.3994 115.32 67.3994Z" fill="#252323"/>
<path d="M123.574 397.785L119.909 399.898C119.53 400.114 118.876 400.085 118.441 399.838L114.988 397.844C114.553 397.594 114.507 397.216 114.882 396.999L118.547 394.887C118.922 394.667 119.58 394.695 120.012 394.947L123.468 396.936C123.899 397.187 123.949 397.565 123.574 397.785Z" fill="#252323"/>
<path d="M132.597 402.991L128.932 405.104C128.554 405.32 127.9 405.291 127.464 405.044L124.012 403.05C123.577 402.799 123.531 402.421 123.906 402.205L127.571 400.089C127.946 399.874 128.603 399.901 129.035 400.153L132.491 402.142C132.926 402.393 132.972 402.771 132.597 402.991Z" fill="#252323"/>
<path d="M123.609 408.172L119.944 410.285C119.569 410.501 118.911 410.476 118.476 410.225L115.024 408.231C114.588 407.98 114.543 407.601 114.917 407.386L118.582 405.272C118.957 405.054 119.615 405.082 120.05 405.333L123.503 407.327C123.938 407.577 123.984 407.955 123.609 408.172Z" fill="#252323"/>
<path d="M141.121 407.906L137.456 410.023C137.081 410.238 136.427 410.211 135.992 409.959L132.539 407.97C132.104 407.719 132.058 407.341 132.433 407.121L136.098 405.007C136.473 404.792 137.131 404.821 137.562 405.068L141.019 407.062C141.45 407.313 141.5 407.69 141.121 407.906Z" fill="#252323"/>
<path d="M132.14 413.091L128.475 415.205C128.097 415.42 127.443 415.395 127.007 415.145L123.555 413.152C123.12 412.9 123.074 412.522 123.449 412.307L127.114 410.193C127.489 409.974 128.146 410.003 128.578 410.253L132.034 412.246C132.466 412.495 132.515 412.871 132.14 413.091Z" fill="#252323"/>
<path d="M149.651 412.826L145.986 414.939C145.611 415.159 144.953 415.13 144.521 414.879L141.065 412.886C140.634 412.638 140.584 412.261 140.959 412.042L144.628 409.928C145.003 409.713 145.657 409.738 146.092 409.988L149.545 411.981C149.98 412.232 150.026 412.61 149.651 412.826Z" fill="#252323"/>
<path d="M140.666 418.011L137.001 420.125C136.626 420.34 135.972 420.311 135.537 420.064L132.08 418.071C131.649 417.819 131.599 417.441 131.978 417.226L135.643 415.109C136.018 414.894 136.672 414.922 137.107 415.173L140.56 417.162C140.995 417.414 141.041 417.792 140.666 418.011Z" fill="#252323"/>
<path d="M158.678 418.032L155.013 420.145C154.638 420.365 153.98 420.336 153.548 420.084L150.092 418.093C149.661 417.841 149.611 417.463 149.99 417.248L153.654 415.134C154.029 414.918 154.684 414.944 155.119 415.193L158.571 417.187C159.006 417.438 159.052 417.816 158.678 418.032Z" fill="#252323"/>
<path d="M149.689 423.213L146.024 425.329C145.649 425.546 144.995 425.517 144.56 425.266L141.104 423.277C140.672 423.025 140.623 422.647 141.001 422.429L144.666 420.315C145.041 420.1 145.696 420.128 146.131 420.375L149.587 422.368C150.018 422.619 150.068 422.998 149.689 423.213Z" fill="#252323"/>
<path d="M167.662 412.851L163.998 414.964C163.623 415.18 162.965 415.152 162.533 414.903L159.077 412.912C158.645 412.66 158.596 412.282 158.971 412.067L162.636 409.949C163.014 409.733 163.669 409.762 164.104 410.012L167.556 412.003C167.991 412.253 168.037 412.631 167.662 412.851Z" fill="#252323"/>
<path d="M176.648 407.667L172.983 409.779C172.608 409.998 171.95 409.971 171.519 409.72L168.063 407.726C167.628 407.479 167.582 407.101 167.957 406.881L171.621 404.768C172 404.552 172.654 404.577 173.089 404.828L176.542 406.822C176.977 407.072 177.023 407.45 176.648 407.667Z" fill="#252323"/>
<path d="M185.629 402.486L181.964 404.598C181.589 404.815 180.931 404.79 180.496 404.539L177.043 402.545C176.608 402.294 176.562 401.915 176.937 401.7L180.602 399.586C180.977 399.368 181.635 399.396 182.07 399.647L185.522 401.641C185.958 401.888 186.004 402.269 185.629 402.486Z" fill="#252323"/>
<path d="M194.617 397.3L190.952 399.417C190.577 399.633 189.919 399.604 189.484 399.353L186.031 397.364C185.596 397.112 185.55 396.734 185.925 396.516L189.59 394.402C189.965 394.187 190.623 394.215 191.055 394.462L194.511 396.455C194.946 396.707 194.992 397.085 194.617 397.3Z" fill="#252323"/>
<path d="M203.601 392.12L199.936 394.233C199.558 394.453 198.903 394.424 198.468 394.172L195.016 392.18C194.581 391.929 194.535 391.551 194.91 391.335L198.574 389.221C198.949 389.006 199.607 389.031 200.039 389.281L203.495 391.274C203.927 391.526 203.976 391.904 203.601 392.12Z" fill="#252323"/>
<path d="M212.582 386.938L208.917 389.051C208.542 389.266 207.888 389.239 207.453 388.99L204 386.998C203.565 386.747 203.519 386.369 203.894 386.154L207.559 384.036C207.934 383.82 208.592 383.849 209.023 384.099L212.479 386.09C212.911 386.34 212.961 386.718 212.582 386.938Z" fill="#252323"/>
<path d="M221.566 381.753L217.902 383.866C217.527 384.085 216.872 384.058 216.437 383.806L212.985 381.813C212.549 381.566 212.503 381.188 212.878 380.968L216.543 378.855C216.918 378.639 217.573 378.664 218.008 378.915L221.464 380.909C221.895 381.16 221.945 381.537 221.566 381.753Z" fill="#252323"/>
<path d="M230.553 376.573L226.888 378.687C226.513 378.902 225.858 378.877 225.423 378.626L221.967 376.632C221.536 376.381 221.486 376.003 221.865 375.788L225.529 373.674C225.904 373.456 226.559 373.483 226.994 373.735L230.447 375.728C230.882 375.975 230.928 376.356 230.553 376.573Z" fill="#252323"/>
<path d="M239.537 371.387L235.872 373.505C235.497 373.72 234.839 373.691 234.408 373.441L230.952 371.451C230.52 371.199 230.47 370.823 230.849 370.603L234.514 368.489C234.889 368.274 235.543 368.302 235.978 368.549L239.431 370.542C239.866 370.794 239.912 371.172 239.537 371.387Z" fill="#252323"/>
<path d="M248.526 366.206L244.861 368.32C244.486 368.539 243.828 368.51 243.396 368.26L239.94 366.267C239.509 366.015 239.459 365.637 239.834 365.422L243.499 363.308C243.878 363.093 244.532 363.118 244.967 363.368L248.42 365.361C248.855 365.613 248.901 365.991 248.526 366.206Z" fill="#252323"/>
<path d="M257.507 361.025L253.843 363.139C253.468 363.354 252.81 363.327 252.378 363.08L248.922 361.086C248.487 360.835 248.441 360.457 248.816 360.241L252.481 358.123C252.859 357.908 253.514 357.937 253.949 358.188L257.401 360.178C257.836 360.429 257.882 360.806 257.507 361.025Z" fill="#252323"/>
<path d="M266.496 355.841L262.831 357.955C262.456 358.173 261.798 358.145 261.363 357.894L257.91 355.9C257.475 355.653 257.429 355.275 257.804 355.055L261.469 352.942C261.844 352.727 262.502 352.751 262.937 353.003L266.39 354.996C266.825 355.247 266.871 355.626 266.496 355.841Z" fill="#252323"/>
<path d="M275.48 350.66L271.815 352.773C271.437 352.989 270.782 352.964 270.347 352.713L266.895 350.719C266.46 350.47 266.414 350.091 266.789 349.874L270.453 347.762C270.828 347.543 271.486 347.57 271.918 347.822L275.374 349.815C275.809 350.062 275.855 350.445 275.48 350.66Z" fill="#252323"/>
<path d="M284.464 345.475L280.8 347.593C280.421 347.808 279.767 347.779 279.332 347.529L275.879 345.539C275.444 345.289 275.398 344.91 275.773 344.691L279.438 342.577C279.813 342.362 280.471 342.39 280.902 342.638L284.358 344.63C284.79 344.881 284.839 345.26 284.464 345.475Z" fill="#252323"/>
<path d="M293.445 340.294L289.78 342.407C289.405 342.627 288.751 342.598 288.316 342.348L284.863 340.355C284.428 340.103 284.382 339.725 284.757 339.51L288.422 337.396C288.797 337.181 289.455 337.206 289.887 337.457L293.343 339.449C293.774 339.7 293.824 340.079 293.445 340.294Z" fill="#252323"/>
<path d="M167.207 422.953L163.542 425.065C163.167 425.282 162.509 425.256 162.077 425.005L158.621 423.012C158.186 422.761 158.14 422.382 158.515 422.167L162.18 420.053C162.555 419.835 163.213 419.863 163.648 420.114L167.101 422.107C167.536 422.357 167.582 422.736 167.207 422.953Z" fill="#252323"/>
<path d="M176.191 417.77L172.526 419.882C172.151 420.099 171.493 420.07 171.058 419.819L167.606 417.83C167.171 417.579 167.125 417.2 167.499 416.982L171.164 414.869C171.539 414.653 172.197 414.681 172.632 414.928L176.085 416.921C176.52 417.172 176.566 417.551 176.191 417.77Z" fill="#252323"/>
<path d="M185.175 412.585L181.511 414.699C181.132 414.918 180.478 414.889 180.043 414.638L176.59 412.646C176.155 412.395 176.109 412.016 176.484 411.801L180.149 409.687C180.524 409.472 181.182 409.497 181.613 409.747L185.069 411.74C185.504 411.992 185.55 412.37 185.175 412.585Z" fill="#252323"/>
<path d="M194.16 407.404L190.495 409.518C190.116 409.733 189.462 409.705 189.027 409.457L185.574 407.465C185.139 407.213 185.093 406.835 185.468 406.62L189.133 404.506C189.508 404.287 190.166 404.316 190.598 404.566L194.054 406.559C194.485 406.806 194.535 407.184 194.16 407.404Z" fill="#252323"/>
<path d="M203.141 402.221L199.476 404.333C199.101 404.552 198.446 404.525 198.011 404.273L194.559 402.28C194.124 402.033 194.078 401.654 194.453 401.435L198.117 399.321C198.492 399.106 199.15 399.131 199.582 399.382L203.038 401.376C203.47 401.625 203.519 402.004 203.141 402.221Z" fill="#252323"/>
<path d="M212.127 397.039L208.462 399.151C208.087 399.368 207.433 399.343 206.997 399.092L203.541 397.098C203.11 396.847 203.06 396.469 203.439 396.254L207.104 394.14C207.479 393.922 208.133 393.949 208.568 394.201L212.024 396.194C212.456 396.441 212.505 396.822 212.127 397.039Z" fill="#252323"/>
<path d="M221.115 391.858L217.45 393.972C217.075 394.187 216.417 394.158 215.986 393.907L212.53 391.917C212.098 391.666 212.049 391.289 212.427 391.07L216.092 388.956C216.467 388.741 217.121 388.768 217.556 389.015L221.009 391.009C221.444 391.26 221.49 391.638 221.115 391.858Z" fill="#252323"/>
<path d="M230.096 386.673L226.431 388.786C226.056 389.006 225.398 388.977 224.967 388.726L221.511 386.733C221.079 386.482 221.03 386.104 221.405 385.889L225.069 383.775C225.448 383.56 226.102 383.584 226.537 383.834L229.99 385.828C230.425 386.079 230.471 386.457 230.096 386.673Z" fill="#252323"/>
<path d="M239.082 381.492L235.417 383.606C235.042 383.821 234.384 383.793 233.952 383.546L230.496 381.553C230.061 381.301 230.015 380.923 230.39 380.708L234.055 378.594C234.433 378.375 235.088 378.404 235.523 378.654L238.976 380.644C239.411 380.896 239.457 381.272 239.082 381.492Z" fill="#252323"/>
<path d="M248.066 376.308L244.401 378.42C244.026 378.64 243.368 378.612 242.933 378.361L239.481 376.368C239.046 376.121 239 375.742 239.374 375.523L243.039 373.409C243.414 373.194 244.072 373.219 244.507 373.47L247.96 375.464C248.395 375.715 248.441 376.093 248.066 376.308Z" fill="#252323"/>
<path d="M257.054 371.127L253.389 373.24C253.014 373.456 252.357 373.431 251.921 373.18L248.469 371.186C248.034 370.935 247.988 370.558 248.363 370.341L252.028 368.227C252.402 368.009 253.06 368.037 253.492 368.288L256.948 370.282C257.383 370.529 257.429 370.911 257.054 371.127Z" fill="#252323"/>
<path d="M266.039 365.945L262.374 368.059C261.995 368.274 261.341 368.245 260.906 367.995L257.453 366.005C257.018 365.753 256.972 365.377 257.347 365.157L261.012 363.043C261.387 362.828 262.045 362.856 262.476 363.103L265.933 365.096C266.364 365.348 266.414 365.726 266.039 365.945Z" fill="#252323"/>
<path d="M275.02 360.76L271.355 362.874C270.98 363.093 270.325 363.064 269.89 362.814L266.438 360.821C266.002 360.569 265.957 360.191 266.332 359.976L269.996 357.862C270.371 357.647 271.029 357.672 271.461 357.923L274.917 359.915C275.348 360.166 275.398 360.545 275.02 360.76Z" fill="#252323"/>
<path d="M284.004 355.579L280.339 357.693C279.964 357.908 279.31 357.881 278.875 357.633L275.422 355.64C274.987 355.389 274.941 355.011 275.316 354.795L278.981 352.681C279.356 352.462 280.01 352.491 280.445 352.742L283.901 354.731C284.333 354.983 284.382 355.361 284.004 355.579Z" fill="#252323"/>
<path d="M292.99 350.395L289.325 352.508C288.95 352.727 288.296 352.699 287.861 352.448L284.405 350.454C283.973 350.207 283.924 349.829 284.302 349.609L287.967 347.497C288.342 347.28 288.996 347.305 289.431 347.557L292.884 349.55C293.319 349.801 293.365 350.18 292.99 350.395Z" fill="#252323"/>
<path d="M301.974 345.214L298.31 347.328C297.935 347.543 297.277 347.518 296.845 347.267L293.389 345.274C292.957 345.024 292.908 344.645 293.286 344.429L296.951 342.316C297.326 342.097 297.981 342.125 298.416 342.376L301.868 344.369C302.303 344.616 302.349 344.999 301.974 345.214Z" fill="#252323"/>
<path d="M302.392 335.134L298.728 337.248C298.353 337.466 297.698 337.438 297.263 337.187L293.807 335.193C293.375 334.942 293.326 334.565 293.704 334.349L297.369 332.235C297.744 332.02 298.399 332.044 298.834 332.296L302.29 334.289C302.721 334.541 302.767 334.917 302.392 335.134Z" fill="#252323"/>
<path d="M8.94138 331.2L5.27655 333.314C4.90158 333.533 4.24719 333.504 3.81208 333.254L0.359524 331.261C-0.0755818 331.013 -0.121586 330.635 0.253384 330.416L3.91822 328.302C4.29319 328.087 4.95112 328.112 5.38269 328.363L8.83878 330.356C9.27035 330.606 9.31989 330.985 8.94138 331.2Z" fill="#252323"/>
<path d="M17.9684 336.407L14.3035 338.52C13.925 338.74 13.2706 338.711 12.8355 338.461L9.38296 336.467C8.94786 336.216 8.90185 335.838 9.27682 335.622L12.9417 333.509C13.3166 333.293 13.9746 333.318 14.4061 333.57L17.8622 335.562C18.2938 335.813 18.3434 336.191 17.9684 336.407Z" fill="#252323"/>
<path d="M8.98404 341.587L5.31918 343.705C4.94067 343.921 4.28627 343.892 3.85117 343.642L0.398589 341.651C-0.0365198 341.401 -0.0825242 341.023 0.292448 340.803L3.95722 338.69C4.33219 338.474 4.99021 338.502 5.42178 338.751L8.8779 340.742C9.31301 340.994 9.35901 341.372 8.98404 341.587Z" fill="#252323"/>
<path d="M26.494 341.327L22.8291 343.44C22.4541 343.656 21.7998 343.631 21.3646 343.379L17.9085 341.386C17.477 341.136 17.4274 340.758 17.8059 340.541L21.4707 338.429C21.8457 338.209 22.5001 338.237 22.9353 338.488L26.3914 340.482C26.8229 340.729 26.8689 341.111 26.494 341.327Z" fill="#252323"/>
<path d="M17.5079 346.508L13.8431 348.621C13.4681 348.839 12.8136 348.811 12.3785 348.561L8.92594 346.567C8.49082 346.32 8.44482 345.941 8.81979 345.722L12.4847 343.61C12.8597 343.393 13.5141 343.422 13.9492 343.67L17.4053 345.663C17.8369 345.914 17.8864 346.292 17.5079 346.508Z" fill="#252323"/>
<path d="M35.0231 346.246L31.3583 348.359C30.9834 348.575 30.3253 348.55 29.8938 348.3L26.4377 346.306C26.0025 346.055 25.9565 345.677 26.3315 345.461L29.9964 343.348C30.3749 343.128 31.0293 343.157 31.4644 343.408L34.917 345.4C35.3521 345.649 35.3981 346.027 35.0231 346.246Z" fill="#252323"/>
<path d="M26.0375 351.427L22.3727 353.54C21.9977 353.76 21.3398 353.731 20.9082 353.481L17.4521 351.488C17.0205 351.241 16.971 350.858 17.3459 350.643L21.0142 348.529C21.3892 348.313 22.0437 348.338 22.4788 348.59L25.9314 350.582C26.3665 350.833 26.4125 351.212 26.0375 351.427Z" fill="#252323"/>
<path d="M44.0453 351.451L40.3805 353.565C40.0055 353.78 39.3476 353.752 38.916 353.505L35.4599 351.512C35.0283 351.26 34.9788 350.882 35.3538 350.667L39.0186 348.549C39.3971 348.334 40.0515 348.363 40.4866 348.612L43.9392 350.603C44.3743 350.855 44.4203 351.231 44.0453 351.451Z" fill="#252323"/>
<path d="M35.0605 356.632L31.3956 358.746C31.0206 358.961 30.3627 358.937 29.9311 358.685L26.4749 356.693C26.0434 356.442 25.9938 356.063 26.3723 355.848L30.0371 353.734C30.4121 353.519 31.0666 353.544 31.5017 353.794L34.9543 355.787C35.3894 356.039 35.4354 356.417 35.0605 356.632Z" fill="#252323"/>
<path d="M53.0309 346.267L49.3661 348.381C48.9911 348.599 48.3331 348.572 47.9015 348.32L44.4455 346.327C44.0104 346.08 43.9644 345.697 44.3393 345.482L48.0041 343.368C48.3826 343.153 49.0371 343.178 49.4722 343.429L52.9248 345.423C53.3599 345.674 53.4059 346.052 53.0309 346.267Z" fill="#252323"/>
<path d="M62.0153 341.086L58.3504 343.199C57.9755 343.415 57.3175 343.39 56.8824 343.139L53.4298 341.145C52.9947 340.894 52.9487 340.517 53.3237 340.3L56.9886 338.186C57.3635 337.968 58.0215 337.996 58.4566 338.247L61.9092 340.241C62.3443 340.488 62.3903 340.866 62.0153 341.086Z" fill="#252323"/>
<path d="M52.5739 356.367L48.909 358.485C48.5341 358.7 47.8761 358.671 47.441 358.421L43.9884 356.431C43.5533 356.179 43.5073 355.803 43.8823 355.583L47.5471 353.469C47.922 353.254 48.5801 353.282 49.0116 353.529L52.4677 355.522C52.9029 355.774 52.9489 356.152 52.5739 356.367Z" fill="#252323"/>
<path d="M61.5583 351.186L57.8934 353.3C57.5149 353.515 56.8605 353.49 56.4254 353.241L52.9728 351.247C52.5377 350.996 52.4917 350.617 52.8667 350.402L56.5315 348.288C56.9065 348.073 57.5644 348.098 57.996 348.348L61.4521 350.341C61.8872 350.593 61.9332 350.971 61.5583 351.186Z" fill="#252323"/>
<path d="M70.5466 346.005L66.8818 348.118C66.5033 348.334 65.8488 348.306 65.4137 348.059L61.961 346.066C61.5259 345.814 61.48 345.436 61.855 345.221L65.5198 343.103C65.8948 342.888 66.5528 342.917 66.9844 343.168L70.4405 345.157C70.8721 345.409 70.9216 345.785 70.5466 346.005Z" fill="#252323"/>
<path d="M79.0721 350.921L75.4072 353.039C75.0323 353.254 74.3743 353.225 73.9428 352.975L70.4867 350.985C70.0551 350.733 70.0056 350.357 70.3841 350.137L74.0489 348.023C74.4239 347.808 75.0783 347.836 75.5134 348.083L78.9659 350.076C79.401 350.328 79.447 350.706 79.0721 350.921Z" fill="#252323"/>
<path d="M70.0863 356.106L66.4214 358.22C66.0465 358.435 65.3921 358.411 64.957 358.159L61.5008 356.166C61.0693 355.914 61.0233 355.538 61.3982 355.321L65.063 353.207C65.438 352.989 66.0925 353.017 66.5276 353.268L69.9837 355.261C70.4152 355.509 70.4648 355.891 70.0863 356.106Z" fill="#252323"/>
<path d="M88.0956 356.127L84.4307 358.24C84.0557 358.46 83.4013 358.431 82.9662 358.179L79.5101 356.188C79.0785 355.939 79.029 355.561 79.4075 355.343L83.0724 353.229C83.4473 353.014 84.1017 353.038 84.5368 353.288L87.993 355.282C88.4245 355.533 88.4741 355.911 88.0956 356.127Z" fill="#252323"/>
<path d="M79.1093 361.313L75.4445 363.425C75.0695 363.641 74.4152 363.612 73.98 363.365L70.5275 361.372C70.0924 361.121 70.0464 360.742 70.4214 360.527L74.0861 358.413C74.4611 358.195 75.1191 358.223 75.5507 358.474L79.0067 360.463C79.4383 360.715 79.4879 361.093 79.1093 361.313Z" fill="#252323"/>
<path d="M96.6234 361.047L92.9586 363.159C92.5836 363.379 91.9257 363.351 91.4941 363.1L88.038 361.107C87.6065 360.855 87.5569 360.477 87.9319 360.262L91.5966 358.148C91.9752 357.932 92.6296 357.957 93.0647 358.209L96.5173 360.202C96.9524 360.452 96.9984 360.83 96.6234 361.047Z" fill="#252323"/>
<path d="M87.6385 366.232L83.9737 368.345C83.5987 368.56 82.9407 368.533 82.5092 368.281L79.0531 366.292C78.6215 366.041 78.572 365.663 78.9505 365.443L82.6153 363.33C82.9903 363.114 83.6447 363.143 84.0798 363.393L87.5323 365.384C87.9674 365.634 88.0134 366.012 87.6385 366.232Z" fill="#252323"/>
<path d="M105.152 365.966L101.487 368.08C101.112 368.295 100.454 368.27 100.019 368.019L96.5666 366.027C96.1314 365.775 96.0854 365.397 96.4604 365.182L100.125 363.068C100.5 362.849 101.158 362.878 101.59 363.128L105.046 365.121C105.481 365.373 105.527 365.751 105.152 365.966Z" fill="#252323"/>
<path d="M96.1676 371.147L92.5028 373.261C92.1278 373.48 91.4699 373.451 91.0348 373.2L87.5822 371.211C87.1471 370.959 87.1011 370.581 87.476 370.363L91.1409 368.249C91.5159 368.034 92.1738 368.062 92.6089 368.309L96.0615 370.302C96.4966 370.554 96.5426 370.932 96.1676 371.147Z" fill="#252323"/>
<path d="M114.175 371.172L110.511 373.285C110.136 373.501 109.478 373.476 109.043 373.225L105.59 371.233C105.155 370.981 105.109 370.603 105.484 370.388L109.149 368.274C109.524 368.055 110.182 368.084 110.617 368.334L114.069 370.327C114.504 370.574 114.55 370.952 114.175 371.172Z" fill="#252323"/>
<path d="M105.191 376.353L101.526 378.467C101.151 378.686 100.493 378.657 100.062 378.406L96.6056 376.413C96.1705 376.166 96.1245 375.785 96.4995 375.569L100.164 373.456C100.543 373.24 101.197 373.264 101.632 373.515L105.085 375.509C105.52 375.76 105.566 376.138 105.191 376.353Z" fill="#252323"/>
<path d="M113.718 381.272L110.054 383.386C109.675 383.601 109.021 383.578 108.586 383.326L105.133 381.333C104.698 381.082 104.652 380.703 105.027 380.488L108.692 378.374C109.067 378.159 109.725 378.184 110.156 378.435L113.612 380.428C114.044 380.678 114.093 381.057 113.718 381.272Z" fill="#252323"/>
</svg>
