<svg xmlns="http://www.w3.org/2000/svg" fill="none" viewBox="0 0 190 94"><rect width="188" height="90.286" x="1" y="1.857" fill="#fff" stroke="#000" stroke-width="2" rx="11"/><path fill="#010101" fill-rule="evenodd" d="M130.822 38.183c-.027-.432 1.116-1.467 1.618-2.317-1.968-.38-2.761 1.05-3.37 2.272l-3.269-.404.616-1.195c-2.514.03-1.423 1.166-3.986.708a24.298 24.298 0 0 0-4.225-.392c-10.082.01-8.182 7.627-3.359 7.448-.964-.858-2.178-1.291-2.864-2.364-2.841-4.443 9.555-3.842 11.387-3.728-.161.71-2.197 3.158-2.706 3.853-1.446 1.974-3.585 6.014-4.905 8.343-1.062 1.872-1.01 3.403 1.459 2.932l.579-.197c-.224-.465.326-.138-1.289-.439 1.33-5.495 3.865-8.652 7.362-12.905.651-.792 1.016-1.45 1.814-1.467.542-.012 2.425.202 2.973.323-1.312 2.037-2.712 3.74-3.904 6.199-.821 1.694-3.56 6.105-1.988 7.05.589.253 2.035.297 2.467-.198-.871-.4-1.626.306-1.383-1.41.488-3.446 2.895-6.91 4.802-9.605.847-1.196 1.459-2.61 3.43-1.36l-.625 1.96c.606-.317.977-1.011 1.493-1.489.525-.486 1.257-.959 1.293-1.78a.635.635 0 0 0-.114-.039c-.754-.174-.78.021-2.444.27-.228.035-.27.05-.501.03-.313-.026-.2-.014-.361-.099zM75.157 38.315c.046-.734.932-1.387 1.35-1.986.652-.935-1.132-.678-1.73-.118-2.173 2.033-.037 1.985-4.555 1.559l.471-1.383c-.933.22-1.915.658-2.812.841-1.609.33-6.226-1.008-9.484.174-5.002 1.816-3.564 6.867.905 6.92-.884-.705-1.86-.987-2.594-1.827-.773-.883-1.087-2.166-.104-3.003 1.958-1.668 8.179-1.416 11.084-1.286-.234.957-2.157 3.085-2.778 3.979-1.607 2.312-3.46 5.857-4.875 8.372-1.98 3.52 1.659 3.112 2.094 2.372l-1.061-.253c-.518-2.149 3.271-7.925 4.189-9.14 1.056-1.398 3.298-4.8 4.918-5.157.913-.201 2.03.03 2.63.506-.754 1.597-2.813 3.571-5.33 9.318-.536 1.224-1.224 2.313-.587 3.659.704.174 1.79.241 2.49.027-.375-.38.17.02-.313-.173l-.847-.257c-.509-3.335 3.08-8.436 4.93-10.974 1.286-1.763 1.036-1.927 3.314-1.195l-.698 1.879c.608-.399 1.09-.984 1.602-1.507.506-.516 1.309-.93 1.196-1.794l-3.405.447zM95.326 49.95c-.299-1.998.288-3.503 1.083-5.706-1.105-.258-1.497.398-1.918 1.025-.365.545-4.185 5.886-4.167 3.88l.09-.3c.355-.847 1.77-3.156 2.288-4.504-2.461-.187-1.958 1.678-3.034 3.014-.85 1.057-1.376 1.326-2.448 2.027-.4.262-.42.34-.92.093.272-1.259 2.36-4.172 2.384-5.3-1.792.284-1.827 1.204-2.516 2.702-.436.95-1.418 2.625-.755 3.627 1.068.24 1.447-.018 2.143-.511.38-.269 1.05-.916 1.483-1.1.047.896.028 1.02.313 1.679 2.07.452 2.957-2.072 4.61-3.035-.02 1.207-.651 2.63.504 3.277 1.077.602 2.348-.633 2.555-1.422l-1.695.554zM82.168 45.398c1.715 1.32 1.713 5.19-1.394 4.985-1.81-.12-.673-1.652-.19-2.462.358-.603 1.245-2.257 1.584-2.523zm-3.018 11.17l-.083-.08c-.659.247-1.123.72-1.757.962-.47-3.28.723-4.17 1.613-6.602 1.316-.017 1.847.352 3.214-.221.84-.353 1.5-.898 1.912-1.689 1.117-2.143-.567-2.086-.356-6.303-.632.205-.63.374-1.057.678-.806-.477-1.093-1.137-1.812-.06 1.222 1.63.514 2.148-.929 4.124-1.248 1.709-3.883 6.817-3.966 8.932-.114 2.91 2.728 1.67 3.221.259zM150.111 49.995c.217-.698.837-1.718 1.195-2.491.28-.606.828-1.902 1.462-2.121.614.442 1.035 3.18.802 3.798-.513 1.367-2.069.997-3.459.814zm-.82.791c1.245.1 2.415.34 3.481-.232.687-.37 1.641-1.214 1.923-2.11.411-1.309-.191-2.263-.655-3.201-.956-1.938.324-1.937.002-2.714-.333.282-.678.62-1.169.83-.629-.684-1.042-1.214-1.713-.01 1.498 1.406.737 1.806-.979 4.182-1.204 1.667-3.959 7.204-3.862 9.206.101 2.07 2.611 1.589 3.38-.407-1.006.394-1.302.956-1.834.99l-.151-.043c-.918-1.893 1.203-4.979 1.577-6.49zM136.318 46.652c.193-.708 3.533-6.034 4.174-7.083.398-.651 1.062-1.595 1.34-2.272-2.067-.585-2.174 1.172-2.908 2.58-.679 1.303-1.334 2.437-2.054 3.703-.629 1.11-1.783 2.83-2.03 3.731-.433 1.58-1.218 2.49-1.801 3.803 2.074-.111 1.324-1.786 2.592-2.457.684.659.713 2.046 2.021 2.205 1.454.177 1.857-.9 1.969-2.145-.395.389-1.018.87-1.542 1.252-.206-.119-.045-.007-.243-.187-1.454-1.33-1.44-2.164-.112-3.044l2.615-1.701c.385-.292.447-.306.677-.7-2.088-.1-3.464 2.296-4.698 2.315zM99.675 49.917c-.052-1.47 1.482-4.47 3.731-4.79-.353 1.463-2.236 4.05-3.731 4.79zm5.727.206c-.407-.68-1.256.532-1.589-.458-.337-1.005 1.52-4.364 1.35-5.212-5.797-.495-8.011 5.128-6.771 6.332.833.873 3.502-2.155 4.077-2.384.129 1.09-.225 2.186.861 2.477.448.12 2.153-.35 2.072-.755zM141.44 49.954c.596-2.135 1.584-4.607 3.897-4.808-.388 1.578-2.659 4.44-3.897 4.808zm4.491-.042c-.416-2.327.892-3.524 1.265-5.527-2.667-.084-3.996-.086-5.172 1.617-1.078 1.56-1.894 2.33-1.711 4.778 2.123.173 3.383-2.432 4.025-2.61.17 1.121-.177 2.344.885 2.73 1.031.375 2.039-.43 2.175-1.165-.438.106-1.013.26-1.467.177zM170.219 50.29c.408-.28.826-.46.778-1.122-.539.356-1.412.901-2.277.942-1.105-1.716.474-3.807.044-5.662-1.056-.397-1.504.024-2.476.31.026.026.066.058.085.072l1.149.626c.025.015.071.05.091.062l.176.135c-.621 2.072-1.867 3.181-2.262.337-1.188 1.739-.829 1.556.453 2.975-1.209 2.025-1.739.55-2.679.178-1.262 1.158.164 2.093 1.454 1.731 1.239-.348 1.423-1.381 2.278-2.056.316 2.433 1.387 2.703 3.186 1.472zM157.588 47.415c.249-.912 1.119-2.218 1.255-2.897.185-.93-1.157-.38-1.823 1.065l-2.442 5.538c2.835-.241 1.32-3.825 4.888-3.237-.434 1.248-1.211 3.975 1.154 2.737.375-.196.867-.458 1.106-.791-.289-.146-.006-.093-.399-.066l-1.213.338c.059-1.876.772-3.181 1.877-4.444.367-.42.208-.088.281-.53-3.267-.364-.122 1.903-4.684 2.287z" clip-rule="evenodd"/><path fill="#010101" fill-rule="evenodd" d="M130.266 46.666c-.144-.629 1.392-1.447 1.204-2.049-1.79-.393-4.064 3.57-4.146 5.394-.081 1.8 3.156 1.003 3.849-.149-3.714 1.29-2.028-1.887-1.384-2.275.806-.485 2.057-.197 3.024-.287.291-.553.58-1.273.729-1.87.281-1.121.042-1.294-1.05-1.206-.089 1.29.074 2.438-1.827 2.505l-.305-.036c-.014-.034-.064-.014-.094-.027zM75.08 46.72c-.078-.692.987-1.278 1.296-2.003-2.878-.053-5.33 5.655-3.612 6.194 1.025.322 2.493-.169 2.821-.775-.65-.002-1.226.13-1.749-.163-.393-.934.204-2.116.768-2.412.845-.443 2.08-.182 3.062-.256.266-.614.526-1.218.702-1.896.27-1.041.014-1.232-1.048-1.197-.098 1.19.108 2.323-1.8 2.528l-.224.005c-.024 0-.09.026-.108-.01-.017-.038-.073-.006-.108-.016z" clip-rule="evenodd"/><path fill="#2B2B2A" d="M33.411 42.393c-.032-.015-.193-.06-.226-.017-.021.03.054.061.084.08.1.06.213.088.316.141.068.042.137.078.21.111.005-.077-.13-.197-.384-.315zM34.123 42.173c-.026-.01-.277-.095-.296-.05-.013.029.242.157.273.17.125.062.244.127.364.196.089.058.18.111.275.159a2.092 2.092 0 0 0-.616-.475zM35.022 42.03a.851.851 0 0 0-.241-.067c-.022-.003-.117-.022-.1.009.02.035.12.075.155.094.067.037.136.067.203.102.12.065.237.137.354.204.1.065.202.124.309.176.045-.045-.451-.417-.68-.518zM36.013 42.014a.865.865 0 0 0-.17-.068c-.022-.006-.126-.042-.146-.023-.021.019.204.163.231.182.121.072.24.144.358.224.09.07.185.136.284.195.043-.038-.315-.375-.557-.51zM36.96 42.222c-.048-.035-.116-.089-.181-.069-.055.016.01.065.044.089.101.068.201.142.298.22.015.014.161.148.18.155h.002c.037-.027-.212-.302-.343-.395z"/><path fill="#2B2B2A" d="M37.768 43.38c-.145.041-.297.057-.448.047-.205-.005-.41-.026-.615-.046-.534-.061-1.07-.09-1.608-.086-.499.013-.993.077-1.49.114a3.11 3.11 0 0 1-.543.01.58.58 0 0 1-.334-.115c-.2-.179-.074-.504.066-.676a2.04 2.04 0 0 1 .965-.567 5.11 5.11 0 0 1 1.559-.225c.141 0 .282.005.424.016.496.025.984.135 1.444.325.326.11.6.338.77.638a.388.388 0 0 1-.19.566zm-3.842-2.724c.055-.202.14-.394.254-.57.109-.167.2-.345.272-.53a.828.828 0 0 0 .03-.463 1.143 1.143 0 0 0-.127-.3c-.032-.051-.053-.085-.062-.097.01.008.037.04.082.085.075.088.136.188.178.296.06.165.066.344.019.512-.062.2-.15.39-.265.564a2.557 2.557 0 0 0-.265.53.764.764 0 0 0-.002.462c.036.104.085.202.148.293.043.057.069.091.073.099l-.09-.087a1.045 1.045 0 0 1-.2-.282.808.808 0 0 1-.045-.512zm1.036-.158c.025-.118.066-.231.12-.338a4.67 4.67 0 0 1 .18-.334c.13-.197.237-.406.321-.625a.993.993 0 0 0 .037-.545 1.41 1.41 0 0 0-.225-.474l.096.102c.09.103.16.221.21.348.07.195.078.406.022.605a2.68 2.68 0 0 1-.31.667 3.005 3.005 0 0 0-.31.627.919.919 0 0 0-.043.29v.033c0 .012.002.022.003.033l.007.066c.009.041.018.082.029.12.042.124.101.24.177.347l.085.117-.106-.102a1.203 1.203 0 0 1-.235-.334.91.91 0 0 1-.058-.603zm1.094.158a2.03 2.03 0 0 1 .255-.57c.108-.167.2-.345.271-.53a.825.825 0 0 0 .031-.463 1.14 1.14 0 0 0-.128-.302c-.033-.05-.053-.084-.062-.096l.082.085c.075.089.134.189.176.296a.845.845 0 0 1 .019.512c-.061.2-.15.39-.263.565a2.537 2.537 0 0 0-.265.53.773.773 0 0 0-.002.462c.035.104.085.202.148.293.042.057.068.091.072.099l-.09-.087a1.085 1.085 0 0 1-.2-.282.815.815 0 0 1-.044-.512zm9.809 3.559H39.88l.226-5.122a1.785 1.785 0 0 0-1.835-1.726h-5.966a1.785 1.785 0 0 0-1.835 1.726l.225 5.122H24.71a.152.152 0 0 0 0 .305h21.155a.153.153 0 0 0 .153-.153.151.151 0 0 0-.15-.152h-.002zM35.288 55.696c-.197 0-.357-.254-.357-.565 0-.312.16-.566.357-.566.197 0 .357.254.357.566 0 .312-.16.565-.357.565zm10.577-7.054H24.71a.152.152 0 0 0 0 .305h6.358c.276.649.817 1.01 1.761 1.182 3.11.81.175 4.222 1.574 5.87.17.206.407.344.67.39v.006c.142.018.287.018.43 0v-.006c.262-.046.5-.184.67-.39 1.399-1.649-1.537-5.06 1.573-5.87.945-.172 1.488-.534 1.761-1.182h6.358a.153.153 0 0 0 0-.305h.001z"/><path fill="#2B2B2A" d="M35.288 31.455c8.527 0 15.439 6.912 15.439 15.439 0 8.526-6.912 15.438-15.44 15.438-8.31 0-15.084-6.565-15.424-14.792v-1.293c.34-8.227 7.115-14.792 15.425-14.792zm0 .723a14.624 14.624 0 0 0-8.227 2.513 14.824 14.824 0 0 0-3.976 3.976 14.62 14.62 0 0 0-2.513 8.227 14.62 14.62 0 0 0 2.513 8.226 14.851 14.851 0 0 0 3.976 3.976 14.617 14.617 0 0 0 8.227 2.513 14.616 14.616 0 0 0 8.227-2.513 14.822 14.822 0 0 0 3.975-3.976 14.615 14.615 0 0 0 2.513-8.227 14.615 14.615 0 0 0-2.513-8.226 14.817 14.817 0 0 0-3.975-3.976 14.623 14.623 0 0 0-8.227-2.513z"/><path fill="#2B2B2A" d="M26.826 37.591l.077-.116a.348.348 0 0 0 .166.064.217.217 0 0 0 .183-.059.252.252 0 0 0 .092-.16.178.178 0 0 0-.045-.148.17.17 0 0 0-.144-.06.303.303 0 0 0-.174.084l-.05.045-.082-.093a.72.72 0 0 0 .104-.108.166.166 0 0 0 .03-.103.162.162 0 0 0-.041-.106.169.169 0 0 0-.12-.056.2.2 0 0 0-.145.059.235.235 0 0 0-.075.12.21.21 0 0 0 .012.133c.013.032.03.062.05.09l-.12.066a.348.348 0 0 1 .052-.504.342.342 0 0 1 .242-.1.28.28 0 0 1 .205.093.257.257 0 0 1 .05.268.268.268 0 0 1 .316.068c.06.065.087.155.074.243a.41.41 0 0 1-.148.257.383.383 0 0 1-.509.023zM27.869 36.967l.235-.155a.263.263 0 0 0 .116-.134.172.172 0 0 0-.03-.149.181.181 0 0 0-.088-.075.16.16 0 0 0-.108 0 .908.908 0 0 0-.174.097l-.157.103.206.313zm-.642-.719l.575-.38.07.106-.459.302.183.277.212-.14a.757.757 0 0 1 .201-.1.246.246 0 0 1 .17.013.333.333 0 0 1 .192.265.295.295 0 0 1-.025.155.472.472 0 0 1-.178.17l-.347.23-.594-.898zM28.709 36.584l-.482-.961.688-.344.057.113-.562.282.147.294.527-.263.056.113-.526.263.165.328.582-.293.057.114-.71.354zM29.603 35.54l.256-.098a.29.29 0 0 0 .163-.117.187.187 0 0 0 .001-.155.2.2 0 0 0-.072-.096.157.157 0 0 0-.106-.027.61.61 0 0 0-.126.037l-.254.097.138.36zm.072.578l-.386-1.003.374-.144a.99.99 0 0 1 .155-.048.31.31 0 0 1 .14 0 .263.263 0 0 1 .117.066c.1.097.134.243.086.373a.412.412 0 0 1-.257.2l-.255.097.157.408-.13.051zM30.72 35.74l-.322-1.026.135-.041.321 1.026-.134.041zM30.918 34.556l.666-.171.032.122-.531.137.237.916-.136.036-.268-1.04zM32.067 34.932l.353-.069-.166-.27c-.05-.082-.089-.151-.116-.205 0 .071-.006.142-.017.213l-.054.33zm-.217.492l.195-1.133.148-.03.633.973-.157.03-.184-.296-.436.085-.052.342-.147.03zM33.456 34.615a.48.48 0 0 0 .127.304.322.322 0 0 0 .487-.053.505.505 0 0 0 .056-.333.5.5 0 0 0-.124-.305.32.32 0 0 0-.49.055.521.521 0 0 0-.056.332zm-.542-.486l.14-.015.052.48.203-.023a.557.557 0 0 1 .109-.379.445.445 0 0 1 .313-.172.45.45 0 0 1 .36.11.57.57 0 0 1 .18.385.59.59 0 0 1-.091.425.452.452 0 0 1-.33.186.435.435 0 0 1-.334-.093.56.56 0 0 1-.189-.338l-.206.023.05.464-.14.015-.117-1.068zM35.32 35.024l-.142.005-.014-.434a.952.952 0 0 1-.329.082.36.36 0 0 1-.197-.046.258.258 0 0 1-.118-.13.666.666 0 0 1-.036-.21l-.011-.316.14-.004.01.303a.308.308 0 0 0 .073.23.226.226 0 0 0 .154.05.82.82 0 0 0 .31-.078l-.018-.523.14-.004.037 1.075zM35.68 33.948l.127.004-.026.85.591-.833.142.004-.033 1.075-.127-.004.026-.849-.593.831-.14-.004.033-1.074zM37.59 35.152l.12-.941-.347-.044.016-.126.836.108-.016.126-.35-.045-.12.94-.139-.018zM38.56 34.727l.27.054c.067.02.137.015.2-.013a.182.182 0 0 0 .084-.13.195.195 0 0 0-.01-.121.154.154 0 0 0-.075-.08.598.598 0 0 0-.127-.035l-.266-.053-.075.379zm-.248.527l.21-1.055.393.078c.054.009.107.023.157.041a.313.313 0 0 1 .12.075.26.26 0 0 1 .063.118c.012.049.013.1.002.15a.339.339 0 0 1-.13.21.414.414 0 0 1-.324.033l-.267-.053-.085.429-.139-.026zM39.578 35.077l.348.095-.03-.317a3.207 3.207 0 0 1-.014-.234 1.484 1.484 0 0 1-.11.183l-.194.273zm-.412.345l.677-.93.146.04.136 1.152-.154-.043-.034-.346-.43-.117-.198.283-.143-.04zM41.255 35.088l-.346-.13-.02.051c-.032.086-.084.2-.154.343a1.254 1.254 0 0 1-.227.333l.459.172.288-.77zm-.43-.297l.606.227-.333.888.09.034-.134.353-.117-.044.089-.235-.658-.246-.089.235-.117-.044.133-.354.078.029a1.61 1.61 0 0 0 .398-.696l.054-.147zM41.866 35.2l.113.058-.384.76.889-.505.126.064-.485.96-.113-.058.383-.758-.889.503-.125-.063.485-.96zM43.005 35.81l.115.08-.544.777.454.318.544-.777.116.081-.544.777.08.056-.245.348-.102-.072.171-.245-.661-.462.616-.881zM43.344 37.414l.729-.79.103.096-.729.79-.103-.096zM44.641 37.105l.112-.1.09.101-.112.1-.09-.102zm-.18-.202l.112-.1.09.102-.112.1-.09-.102zm-.762.86l.803-.715.094.105-.803.715-.094-.105zM28.94 58.862l.468-.968-.372-.18.063-.13.896.434-.063.13-.374-.182-.47.969-.149-.073zM30.21 58.642l.257.087a.67.67 0 0 0 .154.038.18.18 0 0 0 .11-.027.171.171 0 0 0 .065-.09.197.197 0 0 0 .006-.11.15.15 0 0 0-.06-.088.741.741 0 0 0-.175-.078l-.238-.082-.12.35zm-.182.533l.296.101a.633.633 0 0 0 .11.03.266.266 0 0 0 .101 0 .175.175 0 0 0 .082-.043.204.204 0 0 0 .057-.089.202.202 0 0 0 .005-.123.19.19 0 0 0-.072-.1.618.618 0 0 0-.17-.078l-.275-.094-.134.396zm-.204.083l.394-1.155.445.151c.076.023.146.06.207.11.09.08.124.206.087.32a.265.265 0 0 1-.09.126.308.308 0 0 1-.16.063c.06.038.105.095.13.161a.337.337 0 0 1-.212.412.381.381 0 0 1-.15.013.827.827 0 0 1-.198-.047l-.453-.154zM31.334 59.117a.481.481 0 0 0 .043.365.434.434 0 0 0 .599.135h.001a.51.51 0 0 0 .199-.33.62.62 0 0 0 .007-.264.387.387 0 0 0-.11-.202.426.426 0 0 0-.205-.109.43.43 0 0 0-.322.049.517.517 0 0 0-.212.356zm-.166-.04a.652.652 0 0 1 .27-.428.583.583 0 0 1 .46-.072.613.613 0 0 1 .288.148c.078.07.133.163.158.265a.713.713 0 0 1 0 .336.69.69 0 0 1-.148.307.515.515 0 0 1-.262.169.648.648 0 0 1-.603-.145.54.54 0 0 1-.157-.268.653.653 0 0 1-.006-.313zM32.783 58.773l.805.11-.02.142-.639-.087-.145 1.067-.165-.023.164-1.209zM33.804 59.533a.484.484 0 0 0 .1.354c.159.18.433.196.613.037a.511.511 0 0 0 .144-.356.593.593 0 0 0-.036-.263.39.39 0 0 0-.14-.181.419.419 0 0 0-.221-.075.432.432 0 0 0-.31.1.515.515 0 0 0-.15.384zm-.172-.014c0-.175.072-.342.197-.464a.58.58 0 0 1 .443-.145c.11.005.216.04.308.1.088.058.157.14.198.238a.72.72 0 0 1 .054.33.69.69 0 0 1-.097.327.516.516 0 0 1-.232.208.64.64 0 0 1-.31.057.604.604 0 0 1-.31-.103.55.55 0 0 1-.198-.241.665.665 0 0 1-.053-.307zM35.848 60.183l-.08-1.217.25-.016.353.843.073.176c.011-.045.028-.112.054-.2l.244-.867.223-.014.08 1.217-.16.01-.067-1.018-.298 1.043-.15.01-.43-1.014.068 1.038-.16.01zM37.519 60.039l-.163-1.21.165-.022.163 1.21-.165.022zM38.942 59.353l.17.006a.534.534 0 0 1-.123.335.524.524 0 0 1-.304.17.613.613 0 0 1-.34-.013.502.502 0 0 1-.236-.19.808.808 0 0 1-.124-.648.505.505 0 0 1 .166-.254.637.637 0 0 1 .283-.134.523.523 0 0 1 .33.028c.098.046.179.124.228.221l-.153.07a.368.368 0 0 0-.163-.165.348.348 0 0 0-.217-.018.415.415 0 0 0-.224.115.36.36 0 0 0-.096.205c-.011.079-.008.159.008.237.017.091.05.178.1.257a.338.338 0 0 0 .177.14c.07.025.147.03.22.014a.364.364 0 0 0 .216-.124.383.383 0 0 0 .082-.252zM39.833 59.555l-.313-1.03-.397.12-.041-.137.953-.29.041.138-.398.12.314 1.03-.159.049zM40.7 58.726l.392-.167-.252-.26a3.463 3.463 0 0 1-.182-.197c.016.08.026.16.03.241l.013.383zm-.137.603l-.034-1.312.165-.07.952.921-.175.074-.28-.282-.483.205.018.395-.163.07zM24.403 47.504c-.01.181.011.362.064.535 0 .062.132 0 .132.128-.28.083-.558-.003-.84 0 0 0 0-.128.067-.128h.061c.058-.585.08-1.173.068-1.76v-.645c0-.193.06-.32 0-.45h-.58c-.003.6-.064 1.2-.064 1.803v.644c0 .064-.004.173-.004.265 0 .128.174.11.132.248-.029.092-.398.08-.58.045-.064-.013-.06-.045-.06-.106 0-.068.06-.068.127-.128v-1.742c.031-.364.031-.731 0-1.096-.067 0-.195 0-.195-.061.067-.128.256-.068.384-.068h1.354c.131 0 .064.196-.065.196v2.319l-.001.001zM26.049 45.272c-.064-.035-.064-.035-.132-.068-.155-.01-.31.012-.456.068-.067.061-.057.16-.057.308 0 .183-.01.279-.01.407 0 .198.068.33 0 .462a.753.753 0 0 0 .39.061c0-.061 0-.193.068-.193s.064 0 .132.064c-.068.128.064.526-.068.526 0 0-.131-.068-.131-.131v-.068h-.325c-.04.219-.047.443-.02.664 0 .198.02.452.02.58.169.053.346.075.522.064.132-.064 0-.26.132-.324.132 0 .132.194.132.324 0 .068-.068.132-.132.199h-.33c-.35.009-.7-.014-1.046-.068v-.132h.263c.034-.369.034-.74 0-1.11V45.27h-.262v-.131c.262-.068.522-.068.786-.132h.654a.22.22 0 0 1 .068.132c0 .132.131.391-.132.391-.066-.064 0-.196-.066-.257zM27.141 46.555c.071.063.173.08.26.041a.676.676 0 0 0 .276-.375c.04-.126.057-.259.049-.391 0-.19-.038-.376-.113-.55-.07 0-.138-.07-.269-.07h-.203a4.828 4.828 0 0 0 0 1.01v.335zm.202 1.616c-.268.034-.54.034-.808 0a.22.22 0 0 1-.07-.134c.07-.068.07-.068.201-.068.07-.064.024-.225.024-.324-.003-.44.017-.76.017-1.1 0-.132.016-.301 0-.516-.013-.147.003-.234 0-.51 0-.096.019-.186-.046-.212-.083-.035-.12.006-.193-.058-.131-.07-.024-.134.046-.198a5.31 5.31 0 0 1 .959-.042c.068 0 .039-.016.138 0 .263.042.468.405.536.741.015.182-.008.366-.068.539-.064.202-.265.337-.404.468a.944.944 0 0 1-.465.071.068.068 0 0 0-.068.068c-.003.058 0 .202 0 .265a3.1 3.1 0 0 0 0 .809c.201 0 .333.067.201.201zM30.783 45.689v.939l-.024.305.024.301v.772c.128 0 .196.196.064.196H29.59a1.121 1.121 0 0 1-.25.006 5.877 5.877 0 0 0-.81.035c-.071-.064-.12-.064-.087-.193.019-.09.026-.18.023-.272.02-.344.021-.688.006-1.032l.029-.167c0-.199.029-.398.029-.593a2.28 2.28 0 0 0-.097-.67c0-.065-.064-.065-.134-.129v-.134h.07c.205-.022.41-.03.616-.024.064.006.051.012.051.09-.064.134-.128.134-.128.199 0 .256-.006.51-.013.76-.003.115.01.23.007.346-.004.138-.024.272-.024.41-.007.346-.004.702.022 1.08 0 .065-.003.062.07.065.068.004.065 0 .129 0 0 0 .276.004.359 0a8.457 8.457 0 0 0-.012-1v-1.742c-.068-.061-.129-.061-.129-.128 0-.062-.003-.093.062-.106.183-.035.51-.048.538.045.042.138-.132.12-.132.247 0 .093.004.203.004.266v.23l.024.414c0 .209-.051.417-.041.626.006.102.041.208.048.313.016.29.033.578.033.863h.516c.06-.128 0-.256 0-.45v-.642c0-.145.032-.295.032-.446-.004-.186-.04-.372-.046-.551a3.446 3.446 0 0 0-.054-.764h-.06c-.068 0-.068-.128-.068-.128.282.004.529-.083.809 0 0 .128-.132.068-.132.128a1.508 1.508 0 0 0-.067.535zM31.815 46.125c0 .062-.061.266-.061.343.173.046.353.067.532.06v-.403a2.31 2.31 0 0 0-.128-.68.067.067 0 0 0-.066-.068h-.004l-.07.068c-.065.2-.135.41-.203.68zm.472.606c-.128 0-.334-.068-.532-.068-.07.068-.07.202-.07.347a3.75 3.75 0 0 0-.075.945c.074.062.145 0 .205.062 0 .044-.004.09-.01.134-.205.14-.398-.004-.594.07l-.14-.134a.345.345 0 0 1 .201-.132c.07 0 .07-.067.07-.138.065-.41.133-1.013.2-1.49a1.2 1.2 0 0 1 .14-.54c.07-.243.183-.472.334-.676 0 0 .141-.144.27-.07a.67.67 0 0 1 .282.475c.055.114.09.236.103.361.064.533.097 1.132.157 1.736v.41c0 .061.141.134 0 .202l-.083-.02c-.134 0-.25.02-.388.02-.07.006-.18.035-.18-.024 0-.07.11-.248.18-.248a6.738 6.738 0 0 0-.07-1.222zM36.29 47.504c-.011.181.01.362.064.535 0 .062.131 0 .131.128-.279.083-.557-.003-.84 0 0 0 0-.128.068-.128h.061c.058-.585.08-1.173.068-1.76v-.645c0-.193.06-.32 0-.45h-.58c-.004.6-.064 1.2-.064 1.803v.644c0 .064-.004.173-.004.265 0 .128.173.11.132.248-.03.092-.398.08-.58.045-.065-.013-.061-.045-.061-.106 0-.068.06-.068.128-.128v-1.742a6.58 6.58 0 0 0 0-1.096c-.068 0-.196 0-.196-.061.068-.128.256-.068.385-.068h1.353c.132 0 .064.196-.064.196v2.319l-.002.001zM37.934 45.272c-.064-.035-.064-.035-.131-.068-.155-.01-.31.012-.456.068-.068.061-.058.16-.058.308 0 .183-.01.279-.01.407 0 .198.068.33 0 .462a.755.755 0 0 0 .392.061c0-.061 0-.193.068-.193s.064 0 .132.064c-.068.128.064.526-.068.526 0 0-.132-.068-.132-.131v-.068h-.324c-.04.219-.047.443-.019.664 0 .198.019.452.019.58.169.053.346.075.523.064.131-.064 0-.26.131-.324.132 0 .132.194.132.324 0 .068-.068.132-.132.199h-.33c-.35.009-.7-.014-1.046-.068v-.132h.263c.034-.369.034-.74 0-1.11V45.27h-.263v-.131c.263-.068.523-.068.786-.132h.654c.037.035.061.081.068.132 0 .132.132.391-.132.391-.067-.064 0-.196-.067-.257zM39.535 45.93c-.064.131-.132.26-.196.387 0 .068 0 .068.064.068.068.064.193.128.26.193.196.26.196.651.26.975 0 .131-.065.256 0 .324 0 .064.147.12.147.19a.266.266 0 0 1-.045.125c-.196 0-.469.01-.597.01a.105.105 0 0 1-.024-.128l.132-.132c.06-.132 0-.256 0-.388v-.456c0-.193-.065-.455-.196-.52a.424.424 0 0 0-.392 0c-.132.132-.064.52-.064.776 0 .132-.068.199-.068.33v.257c.132.064.199.193.068.26-.193-.068-.324.064-.516 0-.068-.068-.068-.068-.068-.129.068-.067.128-.067.128-.131v-.845s.006-.003.006-.07l-.006-.06c.03-.107.052-.215.068-.324.013-.391-.01-.782-.068-1.168v-.193c-.06 0-.128 0-.128-.068-.064 0-.051-.14-.006-.186.045-.045.12-.006.253-.006s.469-.064.469.128c0 .064-.068.064-.132.132 0 .256.064.455.064.712 0 .067-.064.195 0 .26a.716.716 0 0 0 .456-.584c0-.132.067-.256.067-.388h-.131c0-.068-.068-.068-.068-.132.068-.128.263-.064.39-.128.197.064.129.26 0 .26-.006.222-.049.44-.127.648zM40.92 46.125c0 .062-.06.266-.06.343.173.046.352.067.532.06v-.403a2.314 2.314 0 0 0-.129-.68.067.067 0 0 0-.066-.068h-.004l-.07.068c-.065.2-.136.41-.203.68zm.472.606c-.129 0-.334-.068-.533-.068-.07.068-.07.202-.07.347-.065.31-.09.628-.074.945.074.062.144 0 .204.062 0 .044-.003.09-.01.134-.204.14-.397-.004-.592.07l-.141-.134a.345.345 0 0 1 .202-.132c.07 0 .07-.067.07-.138.065-.41.132-1.013.199-1.49.004-.188.053-.373.14-.54.07-.243.184-.472.335-.676 0 0 .14-.144.269-.07a.67.67 0 0 1 .282.475c.055.113.09.236.103.361.064.533.096 1.132.157 1.736v.41c0 .061.14.134 0 .202l-.083-.02c-.134 0-.25.02-.388.02-.07.006-.18.035-.18-.024 0-.07.11-.248.18-.248a6.72 6.72 0 0 0-.07-1.222zM42.933 46.555c.071.063.173.08.26.041a.676.676 0 0 0 .276-.375c.04-.126.057-.259.048-.391a1.364 1.364 0 0 0-.112-.55c-.07 0-.138-.07-.27-.07h-.201a4.828 4.828 0 0 0 0 1.01v.335zm.201 1.616c-.268.034-.54.034-.808 0a.22.22 0 0 1-.07-.134c.07-.068.07-.068.201-.068.07-.064.024-.225.024-.324-.003-.44.017-.76.017-1.1 0-.132.016-.301 0-.516-.013-.147.003-.234 0-.51 0-.096.019-.186-.045-.212-.084-.035-.121.006-.194-.058-.131-.07-.024-.134.046-.198a5.31 5.31 0 0 1 .959-.042c.068 0 .039-.016.138 0 .262.042.468.405.535.741.015.182-.008.366-.068.539-.064.202-.265.337-.404.468a.944.944 0 0 1-.468.07.068.068 0 0 0-.068.068c-.004.058 0 .203 0 .266-.035.268-.035.54 0 .808.205 0 .337.068.205.202zM45.752 45.802v1.106c0 .327.068.722.068 1.045.065.064.132.064.132.132v.131s-.019-.057-.064-.012a.22.22 0 0 1-.1.016c-.067 0-.098-.004-.23-.004-.068 0-.093.004-.155.004-.064-.064-.038-.07.024-.134 0-.068.128-.068.128-.132.033-.544.033-1.089 0-1.633a.066.066 0 0 0-.064-.067h-.003a2.222 2.222 0 0 0-.652 0 .555.555 0 0 0-.131.462v.913c.068.132 0 .193.068.324.064 0 .195.131.064.196a2.098 2.098 0 0 1-.652 0s-.068-.132 0-.196h.132v-2.22c-.068-.131 0-.327-.068-.458a.204.204 0 0 1-.132-.068.092.092 0 0 1 0-.13v-.002h.263c.132 0 .324-.064.456 0 .07.005.127.061.132.132 0 .068-.132.068-.196.068-.068.064 0 .132 0 .263 0 .13-.068.327 0 .455.256.065.525.065.782 0a2.596 2.596 0 0 0-.068-.718c-.06-.068-.193 0-.256-.068v-.132a.605.605 0 0 1 .388-.064c.066.007.132.007.198 0 .132.064.132.263 0 .263-.058.17-.08.35-.064.528zM47.13 46.32l.025-.145c.02-.365.029-.65.029-.942a1.196 1.196 0 0 0-.338.022.416.416 0 0 0-.169.308 1.256 1.256 0 0 0 0 .311c.03.173.116.332.244.452.078-.002.153-.002.21-.007v.001zm.443-.955c0 .346.004.6-.023.888-.012.154.023 1.052.023.59v1.17a.262.262 0 0 1 .205.065c-.07.14-.134.14-.276.14a1.323 1.323 0 0 0-.526-.019c-.068 0-.058-.051-.058-.12 0-.065.138-.065.138-.132a.95.95 0 0 0 .064-.417c0-.25.01-.625-.006-.952-.138-.07-.225-.035-.353.064a.559.559 0 0 0-.132.456v.456c0 .131-.061.256 0 .388l.132.131a.105.105 0 0 1-.024.128c-.128 0-.43-.01-.626-.01a.262.262 0 0 1-.045-.125c0-.068.148-.125.148-.19.064-.067.032-.256.032-.387a2.068 2.068 0 0 1 .196-.91 1.51 1.51 0 0 1 .12-.104.941.941 0 0 1-.265-.398 1.082 1.082 0 0 1 0-.584c.097-.398.658-.542 1.075-.47.064 0 .087.038.154.038.209 0 .298.004.298.205 0 .07-.117.099-.25.099zM42.792 57.163a.552.552 0 1 1 0 1.104.552.552 0 0 1 0-1.104zM27.277 57.163a.552.552 0 1 1 0 1.104.552.552 0 0 1 0-1.104z"/></svg>