<svg width="190" height="94" viewBox="0 0 190 94" fill="none" xmlns="http://www.w3.org/2000/svg">
<rect x="1" y="1.85718" width="188" height="90.2857" rx="11" fill="white" stroke="black" stroke-width="2"/>
<path fill-rule="evenodd" clip-rule="evenodd" d="M130.822 38.1831C130.795 37.7507 131.938 36.7163 132.44 35.866C130.472 35.4867 129.679 36.9164 129.07 38.1381L125.801 37.7343L126.417 36.5391C123.903 36.5685 124.994 37.7049 122.431 37.2466C121.092 37.0073 119.628 36.854 118.206 36.8555C108.124 36.8652 110.024 44.4815 114.847 44.3025C113.883 43.4447 112.669 43.0118 111.983 41.9391C109.142 37.4958 121.538 38.0967 123.37 38.2107C123.209 38.9212 121.173 41.3686 120.664 42.0642C119.218 44.0385 117.079 48.0781 115.759 50.4071C114.697 52.2793 114.749 53.8103 117.218 53.3394L117.797 53.1416C117.573 52.6775 118.123 53.0038 116.508 52.7033C117.838 47.2085 120.373 44.0511 123.87 39.7983C124.521 39.0063 124.886 38.3486 125.684 38.3308C126.226 38.3188 128.109 38.5326 128.657 38.654C127.345 40.6912 125.945 42.3941 124.753 44.853C123.932 46.547 121.193 50.9579 122.765 51.9025C123.354 52.1564 124.8 52.1997 125.232 51.705C124.361 51.305 123.606 52.0115 123.849 50.2951C124.337 46.8495 126.744 43.3851 128.651 40.69C129.498 39.4942 130.11 38.0797 132.081 39.3293L131.456 41.2908C132.062 40.9728 132.433 40.2787 132.949 39.801C133.474 39.3148 134.206 38.8421 134.242 38.0211C134.206 38.0036 134.155 37.9885 134.128 37.9821C133.374 37.8078 133.348 38.003 131.684 38.2523C131.456 38.2866 131.414 38.3019 131.183 38.2821C130.87 38.2555 130.983 38.2683 130.822 38.1831V38.1831Z" fill="#010101"/>
<path fill-rule="evenodd" clip-rule="evenodd" d="M75.1566 38.3151C75.2028 37.5808 76.0891 36.9277 76.5071 36.3285C77.159 35.394 75.3752 35.6506 74.7769 36.2105C72.6044 38.2442 74.7398 38.1957 70.2223 37.7698L70.693 36.3873C69.7599 36.6076 68.7775 37.0447 67.8809 37.2284C66.2725 37.5581 61.6551 36.2202 58.3971 37.4024C53.3948 39.2176 54.8326 44.2692 59.3024 44.3216C58.4182 43.6175 57.4424 43.335 56.7077 42.4949C55.9352 41.6116 55.6212 40.3293 56.6039 39.4921C58.5623 37.8239 64.7826 38.0755 67.6881 38.2056C67.4543 39.1632 65.5312 41.2913 64.9102 42.1849C63.3033 44.4974 61.4505 48.0418 60.0351 50.5573C58.0547 54.0766 61.6939 53.6694 62.1291 52.9293L61.0678 52.6763C60.5496 50.5271 64.3394 44.7507 65.2567 43.5362C66.3129 42.1377 68.555 38.7358 70.175 38.3789C71.0878 38.1777 72.2052 38.4093 72.8048 38.8851C72.0511 40.4822 69.9918 42.4563 67.4752 48.2025C66.9388 49.427 66.2513 50.516 66.8879 51.862C67.5924 52.0361 68.6786 52.1031 69.3771 51.8895C69.0028 51.5095 69.5476 51.9095 69.0655 51.7157L68.2184 51.4593C67.7093 48.1237 71.2971 43.0234 73.1483 40.4849C74.4337 38.7223 74.1836 38.5581 76.4621 39.2904L75.7637 41.1687C76.3716 40.7701 76.8535 40.185 77.3664 39.6617C77.8717 39.1462 78.6746 38.7326 78.5624 37.8683L75.1566 38.3151V38.3151Z" fill="#010101"/>
<path fill-rule="evenodd" clip-rule="evenodd" d="M95.3255 49.9504C95.0271 47.9519 95.6142 46.4472 96.4087 44.2442C95.3037 43.9861 94.9116 44.6415 94.4911 45.2689C94.1255 45.8143 90.306 51.1545 90.3239 49.1494C90.3239 49.1477 90.4138 48.8508 90.4146 48.8488C90.7688 48.0024 92.1841 45.6932 92.7018 44.3447C90.2406 44.1585 90.7444 46.0234 89.6685 47.3587C88.8171 48.4159 88.2925 48.6854 87.2204 49.386C86.8191 49.6483 86.7998 49.7269 86.2995 49.4794C86.5717 48.2204 88.6602 45.307 88.6838 44.1788C86.8916 44.4626 86.8574 45.3832 86.1685 46.8812C85.7319 47.8308 84.7498 49.5057 85.4128 50.5083C86.4814 50.7481 86.8595 50.4896 87.5559 49.9969C87.9358 49.7281 88.6065 49.0807 89.0386 48.897C89.0864 49.7927 89.0671 49.9163 89.3524 50.5759C91.4225 51.028 92.3094 48.5037 93.9613 47.5406C93.9428 48.7479 93.3109 50.1712 94.4664 50.8179C95.5425 51.4203 96.8144 50.185 97.0211 49.3956L95.3255 49.9504V49.9504Z" fill="#010101"/>
<path fill-rule="evenodd" clip-rule="evenodd" d="M82.1684 45.3975C83.8834 46.7187 83.8807 50.5882 80.7737 50.3833C78.9648 50.2639 80.1008 48.7314 80.5831 47.9208C80.9415 47.3184 81.8295 45.6638 82.1684 45.3975V45.3975ZM79.1503 56.568L79.0667 56.4882C78.4081 56.7354 77.9438 57.2071 77.3097 57.4505C76.8395 54.1691 78.0326 53.2806 78.923 50.8476C80.2387 50.8307 80.77 51.2003 82.1368 50.627C82.9774 50.2743 83.6362 49.7292 84.0485 48.9383C85.1656 46.7953 83.4821 46.8524 83.6927 42.6354C83.0609 42.8399 83.0631 43.0087 82.6362 43.3133C81.8295 42.8364 81.5427 42.1758 80.8239 43.2537C82.0461 44.8838 81.3376 45.4013 79.8951 47.3769C78.6472 49.0859 76.0119 54.1941 75.9291 56.3087C75.8153 59.2189 78.657 57.9783 79.1503 56.568V56.568Z" fill="#010101"/>
<path fill-rule="evenodd" clip-rule="evenodd" d="M150.111 49.995C150.328 49.2973 150.948 48.2767 151.306 47.5039C151.586 46.8984 152.134 45.6016 152.768 45.3826C153.382 45.8246 153.803 48.5624 153.57 49.181C153.057 50.5475 151.501 50.1777 150.111 49.995V49.995ZM149.291 50.7863C150.536 50.8867 151.706 51.1265 152.772 50.5539C153.459 50.1849 154.413 49.3397 154.695 48.4435C155.106 47.1352 154.504 46.181 154.04 45.2429C153.084 43.3052 154.364 43.3062 154.042 42.5287C153.709 42.8108 153.364 43.1483 152.873 43.3583C152.244 42.675 151.831 42.1455 151.16 43.3492C152.658 44.7553 151.897 45.1548 150.181 47.5311C148.977 49.1982 146.222 54.7353 146.319 56.7372C146.42 58.8061 148.93 58.3258 149.699 56.3295C148.693 56.7244 148.397 57.2865 147.865 57.3203L147.714 57.2766C146.796 55.3842 148.917 52.298 149.291 50.7863Z" fill="#010101"/>
<path fill-rule="evenodd" clip-rule="evenodd" d="M136.318 46.6523C136.511 45.9438 139.851 40.6177 140.492 39.5687C140.89 38.9176 141.554 37.974 141.832 37.2969C139.765 36.7117 139.658 38.4694 138.924 39.8773C138.245 41.1803 137.59 42.3142 136.87 43.5804C136.241 44.6892 135.087 46.4103 134.84 47.3114C134.407 48.8906 133.622 49.8008 133.039 51.1137C135.113 51.0025 134.363 49.3279 135.631 48.6574C136.315 49.3155 136.344 50.7029 137.652 50.8621C139.106 51.0391 139.509 49.9629 139.621 48.7175C139.226 49.1056 138.603 49.5875 138.079 49.9689C137.873 49.8503 138.034 49.9625 137.836 49.7818C136.382 48.452 136.396 47.6181 137.724 46.7383L140.339 45.037C140.724 44.7448 140.786 44.7307 141.016 44.3376C138.928 44.2368 137.552 46.6328 136.318 46.6523V46.6523Z" fill="#010101"/>
<path fill-rule="evenodd" clip-rule="evenodd" d="M99.6749 49.917C99.6225 48.4476 101.157 45.4469 103.406 45.1273C103.053 46.5901 101.17 49.1764 99.6749 49.917ZM105.402 50.1232C104.995 49.4437 104.146 50.655 103.813 49.6646C103.476 48.66 105.333 45.3009 105.163 44.4527C99.3656 43.9582 97.1519 49.581 98.3916 50.7847C99.2252 51.6576 101.894 48.6301 102.469 48.4007C102.598 49.4911 102.244 50.5868 103.33 50.8785C103.778 50.9989 105.483 50.5282 105.402 50.1232Z" fill="#010101"/>
<path fill-rule="evenodd" clip-rule="evenodd" d="M141.44 49.9541C142.036 47.8192 143.024 45.3466 145.337 45.1459C144.949 46.7241 142.678 49.5855 141.44 49.9541ZM145.931 49.9124C145.515 47.5851 146.823 46.3881 147.196 44.3849C144.529 44.3006 143.2 44.2986 142.024 46.0017C140.946 47.5626 140.13 48.3329 140.313 50.78C142.436 50.9529 143.696 48.3484 144.338 48.1707C144.508 49.2913 144.161 50.5141 145.223 50.9002C146.254 51.2752 147.262 50.4693 147.398 49.7351C146.96 49.8412 146.385 49.9959 145.931 49.9124V49.9124Z" fill="#010101"/>
<path fill-rule="evenodd" clip-rule="evenodd" d="M170.219 50.2901C170.627 50.0108 171.045 49.83 170.997 49.1677C170.458 49.5238 169.585 50.0694 168.72 50.1102C167.615 48.3942 169.194 46.3033 168.764 44.4478C167.708 44.0509 167.26 44.4722 166.288 44.7578C166.314 44.7839 166.354 44.8158 166.373 44.8305L167.522 45.4556C167.547 45.4712 167.593 45.5053 167.613 45.5184L167.789 45.6534C167.168 47.7248 165.922 48.834 165.527 45.9899C164.339 47.7288 164.698 47.5458 165.98 48.9655C164.771 50.9899 164.241 49.5151 163.301 49.1435C162.039 50.3014 163.465 51.2364 164.755 50.8742C165.994 50.5265 166.178 49.4926 167.033 48.8175C167.349 51.2513 168.42 51.5214 170.219 50.2901V50.2901Z" fill="#010101"/>
<path fill-rule="evenodd" clip-rule="evenodd" d="M157.588 47.4148C157.837 46.5034 158.707 45.1966 158.843 44.5183C159.028 43.5872 157.686 44.1385 157.02 45.5827L154.578 51.1205C157.413 50.88 155.898 47.2957 159.466 47.884C159.032 49.1324 158.255 51.859 160.62 50.6212C160.995 50.4249 161.487 50.1629 161.726 49.8296C161.437 49.6837 161.72 49.7369 161.327 49.7638L160.114 50.1018C160.173 48.2264 160.886 46.9207 161.991 45.6581C162.358 45.2388 162.199 45.5702 162.272 45.1276C159.005 44.7643 162.15 47.0309 157.588 47.4148V47.4148Z" fill="#010101"/>
<path fill-rule="evenodd" clip-rule="evenodd" d="M130.266 46.6661C130.122 46.0374 131.658 45.2192 131.47 44.6172C129.68 44.2235 127.406 48.1862 127.324 50.0112C127.243 51.8118 130.48 51.0139 131.173 49.8623C127.459 51.1518 129.145 47.9746 129.789 47.5872C130.595 47.1025 131.846 47.3904 132.813 47.3003C133.104 46.7472 133.393 46.0269 133.542 45.4298C133.823 44.309 133.584 44.1364 132.492 44.2235C132.403 45.5148 132.566 46.6615 130.665 46.7292L130.36 46.6929C130.346 46.6587 130.296 46.6792 130.266 46.6661V46.6661Z" fill="#010101"/>
<path fill-rule="evenodd" clip-rule="evenodd" d="M75.0802 46.7195C75.0021 46.0275 76.0671 45.4421 76.3763 44.7165C73.4983 44.6636 71.0469 50.3718 72.7643 50.9109C73.7893 51.2327 75.2575 50.7421 75.585 50.1356C74.9359 50.1339 74.3594 50.2666 73.836 49.9735C73.4427 49.039 74.0395 47.8574 74.6044 47.561C75.4486 47.1182 76.6836 47.3792 77.6661 47.3053C77.9321 46.6905 78.1921 46.087 78.3682 45.4092C78.6388 44.3675 78.3822 44.1768 77.3204 44.2117C77.2216 45.402 77.4277 46.535 75.5202 46.7397L75.2965 46.7447C75.2723 46.7451 75.2053 46.7708 75.1882 46.7342C75.1709 46.6975 75.1153 46.7286 75.0802 46.7195V46.7195Z" fill="#010101"/>
<path d="M33.411 42.3934C33.3786 42.3779 33.2181 42.3338 33.1855 42.3762C33.1638 42.4051 33.2389 42.4374 33.2695 42.4555C33.3686 42.5151 33.4816 42.544 33.5852 42.5971C33.6525 42.6386 33.7225 42.6755 33.7946 42.7081C33.8 42.6307 33.6656 42.5114 33.411 42.3934Z" fill="#2B2B2A"/>
<path d="M34.1225 42.173C34.0965 42.1621 33.8463 42.0781 33.8266 42.1227C33.814 42.1515 34.0693 42.2797 34.0998 42.2931C34.2253 42.3546 34.3445 42.4195 34.4644 42.4891C34.5526 42.5472 34.6443 42.6002 34.7386 42.6478C34.5647 42.4525 34.3558 42.2913 34.1225 42.173V42.173Z" fill="#2B2B2A"/>
<path d="M35.022 42.0297C34.9455 41.9956 34.8642 41.9731 34.7809 41.9627C34.7592 41.9601 34.6644 41.941 34.6818 41.9717C34.7015 42.0068 34.8009 42.0465 34.8361 42.0664C34.903 42.1034 34.9725 42.1333 35.0392 42.1685C35.1599 42.2327 35.2756 42.3047 35.3928 42.3716C35.4921 42.4367 35.5952 42.4958 35.7015 42.5484C35.7468 42.5027 35.2508 42.1306 35.022 42.0297V42.0297Z" fill="#2B2B2A"/>
<path d="M36.0134 42.0143C35.959 41.9854 35.9019 41.9624 35.8428 41.9457C35.8211 41.9395 35.7173 41.9043 35.6967 41.9231C35.6758 41.942 35.9014 42.0865 35.9284 42.1046C36.049 42.177 36.1675 42.2494 36.2858 42.3291C36.3766 42.3997 36.4715 42.4646 36.5699 42.5241C36.6132 42.4865 36.255 42.1489 36.0134 42.0143V42.0143Z" fill="#2B2B2A"/>
<path d="M36.9604 42.2219C36.912 42.1867 36.8438 42.1334 36.779 42.1534C36.7239 42.1689 36.7898 42.2176 36.823 42.2419C36.9241 42.3104 37.0242 42.3836 37.1208 42.4622C37.1362 42.4757 37.2823 42.61 37.3011 42.6167H37.303C37.3402 42.5904 37.091 42.3151 36.9604 42.2219V42.2219Z" fill="#2B2B2A"/>
<path d="M37.7683 43.3806C37.6226 43.4215 37.4709 43.4372 37.3198 43.4266C37.1151 43.422 36.9097 43.4006 36.7045 43.3806C36.1708 43.3196 35.6341 43.2911 35.0974 43.2949C34.5982 43.3084 34.1039 43.3717 33.6075 43.4095C33.427 43.4283 33.2451 43.4313 33.0643 43.4184C32.9439 43.4158 32.827 43.3757 32.7304 43.3038C32.5301 43.1251 32.6555 42.8004 32.7963 42.6284C33.0587 42.3528 33.3931 42.1564 33.7612 42.0608C34.2662 41.9058 34.7914 41.8301 35.3196 41.8361C35.4611 41.8361 35.602 41.8407 35.7436 41.8516C36.2398 41.8771 36.728 41.9873 37.1875 42.1765C37.5136 42.2877 37.7876 42.5147 37.9579 42.8146C38.0706 42.9967 38.0147 43.2358 37.8323 43.3487C37.812 43.3613 37.7905 43.3718 37.768 43.3806H37.7683ZM33.9259 40.6562C33.9807 40.4542 34.0665 40.2618 34.1803 40.086C34.289 39.919 34.38 39.741 34.4521 39.5553C34.5061 39.4074 34.5167 39.247 34.4828 39.0933C34.4549 38.9874 34.4123 38.8859 34.3555 38.7921C34.3229 38.7417 34.3023 38.7081 34.2934 38.6955C34.3023 38.7044 34.3303 38.7353 34.3746 38.7811C34.4505 38.8686 34.5112 38.9691 34.5533 39.0772C34.6128 39.2416 34.6191 39.4206 34.5715 39.5889C34.5103 39.7884 34.4217 39.9781 34.3073 40.1528C34.1985 40.3189 34.1095 40.4971 34.042 40.6836C33.9939 40.8332 33.9934 40.9945 34.0403 41.1446C34.0757 41.2487 34.1254 41.3474 34.1881 41.438C34.2306 41.4949 34.2566 41.529 34.2606 41.537C34.2532 41.5298 34.2227 41.4991 34.1703 41.4504C34.0883 41.3681 34.0208 41.2726 33.9701 41.1679C33.9001 41.0069 33.8846 40.827 33.9259 40.6562V40.6562ZM34.9617 40.4976C34.9874 40.3803 35.0279 40.2667 35.0825 40.1598C35.1357 40.047 35.199 39.9368 35.2628 39.826C35.3911 39.6292 35.4986 39.4198 35.5832 39.2006C35.6462 39.026 35.659 38.8374 35.6202 38.6557C35.5866 38.5303 35.5359 38.4099 35.4694 38.2984C35.4296 38.2389 35.4035 38.1974 35.3946 38.182C35.4081 38.1954 35.4407 38.2302 35.491 38.2839C35.5805 38.3872 35.6514 38.5052 35.7014 38.6324C35.7711 38.8267 35.7789 39.0381 35.7231 39.2369C35.6511 39.4723 35.5468 39.6967 35.4136 39.9036C35.2858 40.0997 35.1814 40.3103 35.1024 40.5308C35.0731 40.6243 35.0584 40.7221 35.06 40.8203V40.8536C35.06 40.8662 35.0616 40.8762 35.0626 40.887C35.0653 40.9097 35.0672 40.931 35.0699 40.9528C35.0788 40.9943 35.088 41.0348 35.0988 41.0734C35.1406 41.197 35.2002 41.3134 35.2756 41.4198C35.3239 41.4867 35.355 41.5281 35.3612 41.537C35.3523 41.5281 35.3152 41.4929 35.2549 41.4349C35.1582 41.3377 35.0788 41.2249 35.0202 41.1011C34.9322 40.9125 34.9117 40.6994 34.9617 40.4976ZM36.0563 40.6562C36.1114 40.4542 36.1968 40.2618 36.3107 40.086C36.4193 39.919 36.5104 39.741 36.5824 39.5553C36.6365 39.4074 36.6471 39.247 36.613 39.0933C36.5851 38.987 36.5419 38.8851 36.4848 38.7911C36.4524 38.7407 36.4316 38.7071 36.4227 38.6945C36.4316 38.7036 36.4607 38.7343 36.5047 38.7801C36.5796 38.8686 36.639 38.9686 36.6815 39.0762C36.7403 39.2408 36.7466 39.4194 36.6996 39.5879C36.639 39.7875 36.5508 39.978 36.437 40.1528C36.3282 40.3189 36.2388 40.4971 36.1717 40.6836C36.1241 40.8336 36.1236 40.9943 36.1698 41.1446C36.2054 41.2487 36.2549 41.3474 36.3179 41.438C36.3602 41.4949 36.3863 41.529 36.3901 41.537C36.3829 41.5298 36.3523 41.4991 36.3 41.4504C36.2183 41.3674 36.1508 41.272 36.0996 41.1679C36.0303 41.0066 36.0153 40.827 36.0563 40.6562V40.6562ZM45.865 44.215H39.8799L40.1064 39.0932C40.0745 38.1103 39.2538 37.3385 38.2711 37.3668H32.3051C31.3222 37.3385 30.5018 38.1103 30.4698 39.0932L30.6953 44.215H24.7091C24.625 44.215 24.5566 44.2832 24.5566 44.3672C24.5566 44.4516 24.6247 44.52 24.7088 44.52H45.864C45.948 44.5196 46.0163 44.4516 46.0167 44.3675C46.0174 44.284 45.9505 44.216 45.8671 44.215C45.8662 44.215 45.8659 44.215 45.865 44.215V44.215Z" fill="#2B2B2A"/>
<path d="M35.2878 55.6958C35.0912 55.6958 34.9307 55.4422 34.9307 55.1309C34.9307 54.8194 35.0912 54.5651 35.2878 54.5651C35.4845 54.5651 35.645 54.8187 35.645 55.1309C35.645 55.4431 35.4845 55.6958 35.2877 55.6958H35.2878ZM45.8652 48.6421H24.709C24.6248 48.6421 24.5566 48.7104 24.5566 48.7946C24.5566 48.8787 24.6248 48.947 24.709 48.947H31.0674C31.3427 49.5958 31.8841 49.9577 32.8285 50.1291C35.9389 50.9394 33.0027 54.3507 34.4022 55.9998C34.5718 56.2053 34.8094 56.3432 35.0719 56.3887V56.3949C35.2145 56.413 35.359 56.413 35.5016 56.3949V56.3887C35.7643 56.3435 36.0019 56.2055 36.1713 55.9998C37.5705 54.3502 34.6346 50.9394 37.7453 50.1291C38.6898 49.9568 39.233 49.5949 39.5061 48.947H45.864C45.9482 48.947 46.0165 48.8787 46.0165 48.7946C46.0165 48.7104 45.9482 48.6421 45.864 48.6421H45.8652V48.6421Z" fill="#2B2B2A"/>
<path d="M35.2878 31.4546C43.8146 31.4546 50.7265 38.3667 50.7265 46.8935C50.7265 55.4201 43.8146 62.3323 35.2878 62.3323C26.9778 62.3323 20.2025 55.7669 19.8633 47.5404V46.2467C20.2025 38.02 26.9778 31.4546 35.2878 31.4546V31.4546ZM35.2878 32.1784C33.3007 32.1784 31.3738 32.5673 29.5599 33.3344C28.6883 33.7032 27.8475 34.1596 27.0607 34.6911C26.2815 35.2174 25.5485 35.8223 24.8824 36.4883C24.2163 37.1543 23.6118 37.8871 23.0852 38.6667C22.5538 39.4532 22.0972 40.2942 21.7285 41.1661C20.9614 42.9794 20.5724 44.9066 20.5724 46.8935C20.5724 48.8805 20.9614 50.8073 21.7285 52.6208C22.0972 53.493 22.5538 54.3336 23.0852 55.1204C23.6118 55.8994 24.2163 56.6324 24.8824 57.2986C25.5485 57.9648 26.2815 58.5695 27.0607 59.0958C27.8475 59.6273 28.6883 60.0837 29.5599 60.4523C31.3738 61.2198 33.3007 61.6085 35.2878 61.6085C37.2744 61.6085 39.2015 61.2198 41.0152 60.4523C41.8872 60.0837 42.7281 59.6273 43.5146 59.0958C44.2938 58.5695 45.0267 57.9648 45.693 57.2986C46.359 56.6324 46.9636 55.8994 47.4902 55.1204C48.0215 54.3336 48.4781 53.493 48.8466 52.6208C49.614 50.8073 50.0029 48.8805 50.0029 46.8935C50.0029 44.9066 49.614 42.9794 48.8466 41.1661C48.4781 40.2942 48.0215 39.4532 47.4902 38.6667C46.9636 37.8871 46.359 37.1543 45.693 36.4883C45.0267 35.8223 44.2938 35.2174 43.5146 34.6911C42.7281 34.1596 41.8872 33.7032 41.0152 33.3344C39.2015 32.5673 37.2744 32.1784 35.2878 32.1784V32.1784Z" fill="#2B2B2A"/>
<path d="M26.8265 37.591L26.9032 37.4754C26.9519 37.5104 27.0089 37.5322 27.0685 37.5387C27.1353 37.5487 27.203 37.5272 27.2515 37.4801C27.3017 37.4403 27.335 37.3829 27.3444 37.3194C27.3524 37.266 27.336 37.212 27.2994 37.1722C27.2638 37.1297 27.2099 37.1072 27.1546 37.1117C27.0891 37.1201 27.0283 37.1497 26.9813 37.1957L26.9309 37.2407L26.849 37.1478C26.8871 37.1157 26.9219 37.0798 26.9526 37.0405C26.9739 37.0101 26.9842 36.9737 26.9823 36.9367C26.982 36.8979 26.9675 36.8603 26.9417 36.8311C26.911 36.7968 26.8675 36.7767 26.8211 36.7752C26.7674 36.7747 26.7158 36.7957 26.6775 36.8338C26.6404 36.8652 26.6142 36.9073 26.602 36.9544C26.5915 36.9989 26.5961 37.0454 26.6144 37.087C26.627 37.1191 26.6439 37.1492 26.6648 37.1764L26.5442 37.2432C26.4182 37.0981 26.4337 36.8784 26.5788 36.7525C26.5843 36.7476 26.5899 36.7431 26.5956 36.7387C26.6602 36.6748 26.7476 36.6391 26.8382 36.6397C26.9165 36.6405 26.9905 36.6739 27.0431 36.7318C27.1094 36.8044 27.1288 36.9083 27.0928 36.9997C27.1435 36.9752 27.2008 36.968 27.256 36.979C27.3155 36.9906 27.3692 37.0217 27.4085 37.0675C27.469 37.1334 27.4964 37.2229 27.4834 37.3112C27.468 37.4123 27.4151 37.5042 27.3355 37.5683C27.1961 37.7037 26.9774 37.7136 26.8265 37.591V37.591Z" fill="#2B2B2A"/>
<path d="M27.8689 36.9667L28.1037 36.8115C28.1567 36.7818 28.198 36.7346 28.2202 36.6779C28.234 36.6265 28.2229 36.5714 28.1905 36.5291C28.17 36.4952 28.1389 36.469 28.102 36.4544C28.067 36.4418 28.0288 36.4418 27.9937 36.4544C27.9327 36.4801 27.8744 36.5125 27.8205 36.5508L27.6635 36.6545L27.8689 36.9667V36.9667ZM27.2266 36.2483L27.8024 35.8683L27.8719 35.9739L27.4135 36.2762L27.5958 36.5531L27.8079 36.4132C27.8694 36.3701 27.9374 36.3363 28.0091 36.3131C28.065 36.2972 28.125 36.3015 28.1781 36.3257C28.2346 36.3507 28.2827 36.3917 28.3159 36.4439C28.3455 36.4881 28.3639 36.5385 28.37 36.5911C28.3762 36.6438 28.3678 36.6977 28.346 36.7461C28.3027 36.8178 28.2414 36.8767 28.1681 36.9167L27.8207 37.1459L27.2266 36.2483Z" fill="#2B2B2A"/>
<path d="M28.7089 36.5837L28.2266 35.6227L28.9147 35.2789L28.9717 35.3925L28.4103 35.6741L28.5574 35.9681L29.0835 35.7046L29.1404 35.8175L28.6143 36.081L28.7787 36.4086L29.3614 36.1162L29.4184 36.2297L28.7089 36.5837Z" fill="#2B2B2A"/>
<path d="M29.6028 35.5407L29.8592 35.4423C29.9255 35.424 29.9831 35.3821 30.0216 35.325C30.0447 35.276 30.0451 35.2194 30.0232 35.1699C30.0096 35.1311 29.9843 35.0973 29.9509 35.0735C29.92 35.0522 29.8825 35.0426 29.8452 35.0465C29.8018 35.0545 29.7593 35.0671 29.7188 35.0842L29.4652 35.1808L29.6028 35.5407V35.5407ZM29.6751 36.1182L29.2891 35.1146L29.6635 34.9712C29.7134 34.9509 29.7653 34.9348 29.8179 34.9229C29.8642 34.9121 29.9124 34.9121 29.9588 34.9229C30.0028 34.9344 30.0427 34.9571 30.0753 34.9887C30.1749 35.0856 30.2085 35.2318 30.161 35.3625C30.1064 35.4617 30.0135 35.5343 29.9039 35.5627L29.6493 35.6592L29.8063 36.0671L29.6751 36.1182Z" fill="#2B2B2A"/>
<path d="M30.7197 35.7401L30.3984 34.7142L30.5328 34.6727L30.854 35.6986L30.7197 35.7401Z" fill="#2B2B2A"/>
<path d="M30.918 34.5562L31.584 34.3848L31.6155 34.5074L31.0849 34.6437L31.3222 35.5604L31.1858 35.5957L30.918 34.5562Z" fill="#2B2B2A"/>
<path d="M32.0667 34.9319L32.4204 34.8634L32.2543 34.5927C32.2038 34.5106 32.1651 34.4419 32.1379 34.3878C32.1379 34.4592 32.1321 34.5304 32.1208 34.6009L32.0667 34.9319V34.9319ZM31.8496 35.4245L32.0446 34.2906L32.1934 34.2617L32.826 35.2337L32.6688 35.2643L32.4847 34.9684L32.0489 35.0532L31.9965 35.3952L31.8496 35.4245Z" fill="#2B2B2A"/>
<path d="M33.4565 34.6153C33.4615 34.7285 33.506 34.8363 33.5828 34.9195C33.7126 35.0416 33.9166 35.0352 34.0387 34.9054C34.0501 34.8933 34.0607 34.88 34.0701 34.8662C34.1262 34.765 34.1462 34.6474 34.126 34.5334C34.1203 34.4207 34.0763 34.3131 34.0016 34.2284C33.8751 34.1057 33.6731 34.1085 33.5502 34.2352C33.5357 34.2499 33.523 34.2661 33.5117 34.2835C33.4571 34.3849 33.4377 34.5017 33.4565 34.6155V34.6153V34.6153ZM32.9141 34.129L33.0539 34.1136L33.1063 34.5937L33.3094 34.571C33.2981 34.4357 33.3367 34.3008 33.4177 34.192C33.4938 34.0936 33.6074 34.0311 33.7314 34.0205C33.8614 34.0029 33.9927 34.0432 34.0906 34.1305C34.1977 34.2306 34.2619 34.3683 34.2701 34.5148C34.2951 34.6627 34.263 34.8149 34.1799 34.9398C34.1023 35.0473 33.9818 35.1151 33.8496 35.1259C33.7302 35.1425 33.6093 35.1089 33.5158 35.033C33.4147 34.9463 33.3478 34.8266 33.327 34.6953L33.1213 34.718L33.1717 35.1818L33.0318 35.1972L32.9141 34.129Z" fill="#2B2B2A"/>
<path d="M35.3194 35.0243L35.1785 35.029L35.164 34.5947C35.0602 34.6414 34.9489 34.6693 34.8354 34.6767C34.7665 34.6805 34.698 34.6646 34.6379 34.6306C34.5845 34.6026 34.5428 34.5569 34.5197 34.5015C34.4965 34.4337 34.4842 34.3628 34.4836 34.2913L34.4727 33.9754L34.6135 33.9709L34.6235 34.274C34.6154 34.3571 34.6418 34.4399 34.6958 34.5032C34.7392 34.5386 34.7942 34.5566 34.8502 34.5537C34.9575 34.5484 35.0628 34.5218 35.1597 34.476L35.1415 33.9534L35.2824 33.9489L35.3194 35.0243V35.0243Z" fill="#2B2B2A"/>
<path d="M35.6802 33.948L35.8074 33.9515L35.7813 34.8024L36.3724 33.9687L36.514 33.9732L36.4808 35.0479L36.3536 35.0442L36.3797 34.1952L35.7874 35.0263L35.6465 35.0216L35.6802 33.948Z" fill="#2B2B2A"/>
<path d="M37.59 35.1518L37.7106 34.2109L37.3633 34.1667L37.3794 34.0413L38.215 34.1487L38.1989 34.275L37.8496 34.23L37.729 35.1708L37.59 35.1518Z" fill="#2B2B2A"/>
<path d="M38.5607 34.7275L38.8304 34.7809C38.8966 34.8009 38.9674 34.7964 39.0306 34.7683C39.0767 34.7393 39.1075 34.6916 39.1145 34.6375C39.1239 34.5972 39.1202 34.5551 39.104 34.517C39.0895 34.4822 39.063 34.454 39.0289 34.4375C38.9879 34.4212 38.9453 34.4093 38.9018 34.4024L38.6364 34.349L38.5607 34.7275ZM38.3125 35.2537L38.5219 34.1987L38.9154 34.2765C38.9689 34.2856 39.0215 34.2997 39.0724 34.318C39.1172 34.3336 39.158 34.3591 39.1914 34.3927C39.2227 34.4261 39.2443 34.4667 39.2548 34.5109C39.2673 34.5599 39.2682 34.6113 39.2573 34.6607C39.2423 34.7448 39.1958 34.8204 39.1273 34.8718C39.0284 34.9265 38.9113 34.9381 38.8034 34.9044L38.5363 34.8511L38.4514 35.2797L38.3125 35.2537V35.2537Z" fill="#2B2B2A"/>
<path d="M39.5783 35.0772L39.9257 35.172L39.8967 34.8553C39.8878 34.7588 39.8832 34.6812 39.8822 34.6206C39.8502 34.6842 39.8137 34.7452 39.7729 34.8036L39.5783 35.0772V35.0772ZM39.166 35.4219L39.8426 34.4924L39.9889 34.5322L40.1251 35.6837L39.9707 35.6412L39.9365 35.2948L39.5078 35.1776L39.3093 35.461L39.166 35.4219Z" fill="#2B2B2A"/>
<path d="M41.255 35.0877L40.9086 34.9576L40.8894 35.009C40.8568 35.0946 40.8054 35.2085 40.7351 35.3519C40.6782 35.4743 40.6014 35.5865 40.5085 35.6847L40.9668 35.857L41.255 35.0877V35.0877ZM40.8253 34.791L41.4308 35.0184L41.0978 35.9064L41.1871 35.9397L41.0545 36.2933L40.9373 36.2491L41.0258 36.0144L40.3678 35.7682L40.2793 36.003L40.1621 35.9588L40.2948 35.6051L40.3725 35.634C40.5616 35.4394 40.6986 35.2001 40.7705 34.9383L40.8253 34.791V34.791Z" fill="#2B2B2A"/>
<path d="M41.8657 35.2006L41.9792 35.2582L41.5948 36.018L42.4835 35.5127L42.6099 35.5769L42.1253 36.5369L42.0116 36.4793L42.3952 35.7213L41.5063 36.2239L41.3809 36.1606L41.8657 35.2006Z" fill="#2B2B2A"/>
<path d="M43.005 35.8097L43.1205 35.89L42.5762 36.667L43.0302 36.9847L43.5744 36.2077L43.69 36.289L43.1459 37.066L43.2251 37.1221L42.9806 37.4703L42.8785 37.398L43.05 37.1533L42.3887 36.6905L43.005 35.8097Z" fill="#2B2B2A"/>
<path d="M43.3438 37.4141L44.0727 36.6237L44.1765 36.72L43.4475 37.5097L43.3438 37.4141Z" fill="#2B2B2A"/>
<path d="M44.6413 37.1045L44.7533 37.0044L44.8435 37.1063L44.7315 37.2064L44.6413 37.1045ZM44.4608 36.9033L44.5728 36.8032L44.663 36.9052L44.5511 37.0052L44.4608 36.9033V36.9033ZM43.6992 37.7633L44.5024 37.0477L44.5961 37.1525L43.7931 37.8679L43.6992 37.7633Z" fill="#2B2B2A"/>
<path d="M28.9395 58.8623L29.4085 57.894L29.0358 57.7135L29.099 57.5835L29.9951 58.0178L29.9317 58.1477L29.5581 57.9662L29.0889 58.9347L28.9395 58.8623Z" fill="#2B2B2A"/>
<path d="M30.2094 58.6417L30.4667 58.7292C30.5164 58.748 30.5681 58.7606 30.621 58.7672C30.6597 58.7705 30.6983 58.7606 30.731 58.7403C30.7623 58.7182 30.7848 58.6864 30.7959 58.65C30.8086 58.6142 30.8108 58.5759 30.8022 58.5391C30.7933 58.5035 30.7718 58.4721 30.7416 58.4515C30.6869 58.4181 30.6281 58.392 30.5666 58.3737L30.3292 58.2925L30.2094 58.6417V58.6417ZM30.0281 59.1751L30.3241 59.2762C30.3596 59.2896 30.3962 59.2999 30.4333 59.3067C30.4671 59.3133 30.5016 59.3133 30.5354 59.3067C30.566 59.2999 30.5945 59.2849 30.6173 59.2634C30.6439 59.2391 30.6635 59.2083 30.6743 59.1741C30.6889 59.1343 30.6902 59.0915 30.679 59.0507C30.6664 59.0105 30.641 58.9754 30.6066 58.9514C30.5544 58.9168 30.4978 58.8903 30.4377 58.8728L30.1624 58.7789L30.0281 59.1751V59.1751ZM29.8242 59.258L30.2177 58.103L30.6635 58.2545C30.7389 58.2772 30.8091 58.3141 30.8703 58.3638C30.9599 58.4439 30.994 58.5695 30.9567 58.6842C30.9401 58.7339 30.909 58.7774 30.8676 58.8095C30.821 58.8456 30.7655 58.8674 30.7069 58.8728C30.7668 58.9113 30.8123 58.9679 30.837 59.0344C30.8588 59.0977 30.8583 59.1664 30.8352 59.2293C30.8182 59.2822 30.7885 59.3298 30.7487 59.3684C30.7144 59.4038 30.6719 59.4303 30.6251 59.446C30.5764 59.4602 30.5255 59.4643 30.4753 59.4586C30.4076 59.4515 30.3408 59.4359 30.2768 59.4124L29.8242 59.258V59.258Z" fill="#2B2B2A"/>
<path d="M31.3345 59.1166C31.2996 59.2392 31.3148 59.3709 31.3768 59.4822C31.5049 59.6851 31.7733 59.7455 31.976 59.6172C31.9763 59.6171 31.9766 59.6167 31.9772 59.6165C32.0835 59.5369 32.1548 59.4192 32.1756 59.2879C32.1971 59.2011 32.1997 59.1106 32.1829 59.0226C32.1672 58.9458 32.1291 58.8758 32.0729 58.8214C32.0161 58.7667 31.9452 58.7289 31.868 58.7121C31.7585 58.6855 31.643 58.7027 31.5461 58.7606C31.429 58.8447 31.3523 58.9739 31.3345 59.117V59.1166V59.1166ZM31.1684 59.0762C31.1971 58.9035 31.2942 58.7497 31.4374 58.6494C31.5743 58.5621 31.7414 58.5361 31.8984 58.5771C32.0059 58.5997 32.1051 58.6506 32.1862 58.7248C32.2641 58.7955 32.3192 58.8881 32.3442 58.9903C32.3709 59.1007 32.3709 59.2155 32.3442 59.326C32.3211 59.4392 32.27 59.5447 32.1955 59.633C32.1276 59.715 32.0361 59.7741 31.9337 59.8018C31.8312 59.8295 31.7236 59.8317 31.6201 59.808C31.5115 59.7851 31.4114 59.7328 31.3306 59.6565C31.2534 59.5845 31.1993 59.4913 31.1744 59.3885C31.1472 59.2866 31.1451 59.1791 31.1684 59.0762V59.0762Z" fill="#2B2B2A"/>
<path d="M32.7829 58.7731L33.5879 58.8824L33.5689 59.025L32.9291 58.9383L32.7844 60.0048L32.6191 59.9822L32.7829 58.7731Z" fill="#2B2B2A"/>
<path d="M33.8038 59.5328C33.789 59.6597 33.8251 59.787 33.9038 59.8874C34.0629 60.067 34.3374 60.0832 34.5169 59.9242C34.5171 59.924 34.5173 59.9239 34.5176 59.9235C34.6098 59.828 34.6612 59.7007 34.6612 59.568C34.6691 59.4787 34.6567 59.389 34.6249 59.3052C34.5972 59.2322 34.5484 59.169 34.4842 59.1239C34.4192 59.0787 34.343 59.0527 34.2639 59.0491C34.1515 59.0404 34.04 59.0758 33.9534 59.1482C33.8521 59.25 33.7977 59.3892 33.8036 59.5328H33.8038V59.5328ZM33.6323 59.5193C33.6328 59.344 33.7037 59.1768 33.8289 59.0547C33.9498 58.9464 34.1107 58.894 34.2721 58.9099C34.3818 58.9151 34.4882 58.9497 34.5799 59.01C34.6679 59.0679 34.7369 59.1504 34.7784 59.2475C34.8219 59.3521 34.8402 59.4654 34.8316 59.5786C34.8274 59.694 34.794 59.806 34.7353 59.9052C34.6812 59.9966 34.6001 60.069 34.5033 60.1126C34.4064 60.1571 34.3 60.1766 34.1939 60.1696C34.0825 60.1649 33.9749 60.1291 33.8825 60.067C33.7947 60.0072 33.726 59.9235 33.6849 59.8256C33.6434 59.7291 33.6254 59.6241 33.6323 59.5193V59.5193Z" fill="#2B2B2A"/>
<path d="M35.848 60.1834L35.7676 58.966L36.0176 58.9499L36.3711 59.7928C36.4039 59.8713 36.4282 59.9301 36.4437 59.9687C36.4554 59.9236 36.4725 59.8567 36.4976 59.7692L36.7422 58.9019L36.9651 58.8875L37.0455 60.1048L36.8858 60.1155L36.818 59.0969L36.5202 60.1397L36.3704 60.1496L35.9392 59.1365L36.0077 60.1738L35.848 60.1834V60.1834Z" fill="#2B2B2A"/>
<path d="M37.5189 60.039L37.3555 58.8299L37.5207 58.8073L37.6841 60.0163L37.5189 60.039Z" fill="#2B2B2A"/>
<path d="M38.9422 59.3532L39.1126 59.3594C39.1111 59.482 39.0674 59.6001 38.9892 59.6943C38.9101 59.7836 38.8025 59.8433 38.6851 59.8632C38.5731 59.8911 38.4557 59.8866 38.3459 59.8506C38.2493 59.8134 38.167 59.747 38.1094 59.661C38.0449 59.5689 38.0004 59.4644 37.9786 59.3542C37.9531 59.2419 37.9552 59.1245 37.985 59.013C38.0128 58.9133 38.0708 58.8244 38.1509 58.7586C38.2328 58.6911 38.3301 58.6452 38.4344 58.6249C38.5443 58.5984 38.6597 58.6083 38.7637 58.653C38.8622 58.6988 38.9428 58.7767 38.9919 58.874L38.8394 58.9435C38.804 58.8724 38.7469 58.815 38.676 58.7791C38.6075 58.7502 38.5312 58.7436 38.459 58.7611C38.3744 58.7752 38.2961 58.815 38.235 58.8756C38.1818 58.9316 38.148 59.0034 38.1386 59.0805C38.1277 59.1596 38.1307 59.2397 38.1469 59.3178C38.1635 59.4092 38.1974 59.4963 38.2469 59.5749C38.2879 59.6409 38.3504 59.6904 38.4238 59.7158C38.4946 59.7401 38.5707 59.7448 38.6441 59.7294C38.7284 59.7146 38.8046 59.6705 38.8597 59.6051C38.9163 59.5338 38.9455 59.4443 38.9422 59.3532V59.3532Z" fill="#2B2B2A"/>
<path d="M39.8332 59.5547L39.5195 58.5251L39.1235 58.6457L39.082 58.5076L40.0349 58.2181L40.0763 58.3562L39.6783 58.4767L39.9919 59.5063L39.8332 59.5547Z" fill="#2B2B2A"/>
<path d="M40.7008 58.7261L41.0922 58.5592L40.8396 58.2994C40.7631 58.2208 40.7024 58.1552 40.6583 58.1018C40.6744 58.1812 40.6841 58.262 40.6871 58.3431L40.7008 58.7261ZM40.5634 59.3293L40.5293 58.0171L40.6945 57.9468L41.6457 58.868L41.4715 58.9421L41.1916 58.6596L40.708 58.8654L40.7261 59.2598L40.5634 59.3293V59.3293Z" fill="#2B2B2A"/>
<path d="M24.4029 47.5043C24.3925 47.685 24.4141 47.8661 24.467 48.0393C24.467 48.1006 24.5987 48.0393 24.5987 48.1674C24.3198 48.2504 24.041 48.1637 23.7584 48.1674C23.7584 48.1674 23.7584 48.0393 23.8262 48.0393H23.8875C23.9451 47.4541 23.9678 46.8661 23.9553 46.2782V45.6339C23.9553 45.4409 24.0158 45.3136 23.9553 45.1845H23.3751C23.3715 45.7847 23.311 46.3837 23.311 46.9865V47.6309C23.311 47.695 23.3073 47.804 23.3073 47.8962C23.3073 48.0243 23.4806 48.0055 23.439 48.1436C23.4101 48.2364 23.041 48.2238 22.8589 48.1886C22.7948 48.1761 22.7983 48.1436 22.7983 48.0829C22.7983 48.0151 22.8589 48.0151 22.9264 47.9548V46.2134C22.957 45.8486 22.957 45.4817 22.9264 45.117C22.8586 45.117 22.7305 45.117 22.7305 45.0557C22.7983 44.9276 22.9867 44.988 23.115 44.988H24.4687C24.6004 44.988 24.5329 45.1838 24.4044 45.1838V47.5026L24.4029 47.5043V47.5043Z" fill="#2B2B2A"/>
<path d="M26.0486 45.2718C25.9845 45.2367 25.9845 45.2367 25.917 45.2041C25.762 45.1932 25.6065 45.2164 25.4612 45.2718C25.3935 45.3331 25.4036 45.4325 25.4036 45.5796C25.4036 45.7628 25.3937 45.8586 25.3937 45.9867C25.3937 46.1852 25.4616 46.3168 25.3937 46.4485C25.5163 46.5036 25.6511 46.5246 25.7845 46.51C25.7845 46.4485 25.7845 46.3168 25.8523 46.3168C25.9202 46.3168 25.9165 46.3168 25.9842 46.3812C25.9163 46.5091 26.0481 46.9073 25.9163 46.9073C25.9163 46.9073 25.7845 46.8394 25.7845 46.7755V46.7076H25.4599C25.4197 46.9268 25.4135 47.1508 25.4407 47.3718C25.4407 47.5704 25.4599 47.8238 25.4599 47.952C25.6286 48.005 25.8058 48.0265 25.9823 48.0161C26.1141 47.952 25.9823 47.7563 26.1141 47.6922C26.2458 47.6922 26.2458 47.8855 26.2458 48.0161C26.2458 48.084 26.1779 48.1478 26.1141 48.2146H25.7833C25.4338 48.2238 25.0837 48.2012 24.7383 48.1469V48.0151H25.0011C25.0348 47.646 25.0348 47.2745 25.0011 46.9054V45.2695H24.7388V45.1378C25.0014 45.07 25.2614 45.07 25.5247 45.006H26.1789C26.2161 45.0411 26.2401 45.0873 26.2468 45.1378C26.2468 45.2695 26.3784 45.5293 26.115 45.5293C26.0486 45.4648 26.1158 45.3331 26.0486 45.2718V45.2718Z" fill="#2B2B2A"/>
<path d="M27.1411 46.555C27.2121 46.6183 27.3139 46.6348 27.4009 46.5965C27.5345 46.508 27.6326 46.375 27.6771 46.221C27.7174 46.0947 27.7339 45.962 27.7255 45.8295C27.7263 45.6409 27.6882 45.4542 27.6135 45.2809C27.5431 45.2809 27.4754 45.2105 27.3444 45.2105H27.1414C27.1061 45.5464 27.1061 45.8848 27.1414 46.2203L27.1411 46.555V46.555ZM27.3433 48.1711C27.0747 48.2052 26.8032 48.2052 26.5347 48.1711C26.4961 48.136 26.4709 48.0885 26.4643 48.0368C26.5347 47.9691 26.5347 47.9691 26.6663 47.9691C26.7369 47.9048 26.6905 47.7443 26.6905 47.645C26.6868 47.2055 26.7066 46.8851 26.7066 46.5451C26.7066 46.4133 26.7228 46.2438 26.7066 46.0289C26.6942 45.8816 26.7103 45.7951 26.7066 45.519C26.7066 45.4226 26.7258 45.333 26.6615 45.3069C26.5785 45.2718 26.5409 45.3133 26.4685 45.2493C26.3369 45.179 26.4443 45.115 26.5137 45.0508C26.8314 45.0082 27.1525 44.9941 27.4727 45.0094C27.5406 45.0094 27.5117 44.9932 27.6108 45.0094C27.8736 45.0508 28.0791 45.4137 28.1468 45.7501C28.1621 45.9325 28.1389 46.1162 28.0791 46.2888C28.0148 46.491 27.8136 46.6265 27.6747 46.7572C27.5283 46.8196 27.3684 46.8442 27.2099 46.8282C27.1725 46.8285 27.1422 46.8586 27.1421 46.896C27.1386 46.9536 27.1421 47.0982 27.1421 47.1614C27.1068 47.4299 27.1068 47.7018 27.1421 47.97C27.3433 47.9691 27.4752 48.0368 27.3433 48.1711V48.1711Z" fill="#2B2B2A"/>
<path d="M30.7828 45.6888V46.6279L30.7587 46.9328L30.7828 47.2341V48.0063C30.911 48.0063 30.9786 48.2019 30.847 48.2019H29.5905C29.5079 48.2133 29.424 48.2155 29.3408 48.2083C29.0698 48.2012 28.7989 48.2131 28.5296 48.2434C28.459 48.1792 28.4103 48.1792 28.4429 48.0504C28.4617 47.9609 28.4691 47.8694 28.4656 47.7779C28.4852 47.4341 28.4872 47.0897 28.4718 46.7456L28.5007 46.5787C28.5007 46.3802 28.5297 46.1807 28.5297 45.9857C28.5311 45.7587 28.4985 45.5327 28.4332 45.3154C28.4332 45.2512 28.369 45.2512 28.2988 45.1872V45.0529H28.3692C28.5736 45.0314 28.7791 45.0233 28.9847 45.0287C29.0488 45.0351 29.036 45.0413 29.036 45.1189C28.9719 45.2534 28.9079 45.2534 28.9079 45.3175C28.9079 45.5736 28.9017 45.8272 28.8953 46.0774C28.8918 46.1929 28.9054 46.3085 28.9017 46.4239C28.898 46.5617 28.8775 46.6964 28.8775 46.8339C28.8713 47.1804 28.874 47.5359 28.9002 47.9146C28.9002 47.979 28.8967 47.9762 28.9707 47.979C29.0384 47.9827 29.0349 47.979 29.0987 47.979C29.0987 47.979 29.3751 47.9827 29.458 47.979C29.4737 47.6454 29.4693 47.3115 29.4455 46.9784V45.2369C29.3776 45.1756 29.3173 45.1756 29.3173 45.1088C29.3173 45.0475 29.3136 45.0159 29.3786 45.0032C29.5617 44.9679 29.8883 44.9548 29.9173 45.0483C29.9588 45.1862 29.7855 45.1674 29.7855 45.2955C29.7855 45.3884 29.7892 45.4977 29.7892 45.5609V45.7919L29.8132 46.2052C29.8132 46.4136 29.762 46.6222 29.7719 46.8306C29.7781 46.9334 29.8132 47.039 29.8201 47.1441C29.8362 47.4336 29.8527 47.7216 29.8527 48.0068H30.3689C30.4293 47.8786 30.3689 47.7507 30.3689 47.5574V46.915C30.3689 46.7703 30.4005 46.6198 30.4005 46.4692C30.3968 46.2831 30.3617 46.0974 30.3553 45.9179C30.3657 45.6623 30.3477 45.4062 30.3014 45.1545H30.2408C30.1729 45.1545 30.1729 45.0263 30.1729 45.0263C30.4554 45.03 30.7017 44.9434 30.9817 45.0263C30.9817 45.1545 30.8498 45.0942 30.8498 45.1545C30.7956 45.3271 30.7729 45.5081 30.7828 45.6888V45.6888Z" fill="#2B2B2A"/>
<path d="M31.8151 46.1254C31.8151 46.1867 31.7538 46.3907 31.7538 46.4683C31.9273 46.5145 32.1068 46.5348 32.2861 46.5288V46.1246C32.2777 45.8928 32.2346 45.6638 32.158 45.4449C32.1587 45.4078 32.1289 45.3773 32.0917 45.3771C32.0905 45.3771 32.0891 45.3771 32.0876 45.3771L32.0173 45.4449C31.9531 45.6444 31.8828 45.8555 31.8151 46.1254V46.1254ZM32.287 46.731C32.1588 46.731 31.9531 46.6631 31.7545 46.6631C31.6841 46.731 31.6841 46.8653 31.6841 47.0095C31.6194 47.3206 31.5946 47.6381 31.61 47.9552C31.6841 48.0165 31.7548 47.9552 31.8147 48.0165C31.8146 48.0613 31.8112 48.1061 31.805 48.1508C31.6001 48.2917 31.4068 48.1473 31.2112 48.2213L31.0703 48.0868C31.1195 48.0201 31.1916 47.9733 31.2725 47.9552C31.3429 47.9552 31.3429 47.8875 31.3429 47.8171C31.4072 47.407 31.4747 46.804 31.5415 46.3266C31.5456 46.1385 31.5939 45.9539 31.6824 45.7879C31.7519 45.544 31.865 45.3148 32.0163 45.1113C32.0163 45.1113 32.1572 44.9665 32.286 45.0409C32.444 45.1511 32.5469 45.324 32.5684 45.5156C32.6232 45.6295 32.6583 45.7518 32.6712 45.8774C32.7353 46.4099 32.7677 47.009 32.8282 47.6126V48.0227C32.8282 48.084 32.9691 48.1572 32.8282 48.2249L32.7452 48.2059C32.6109 48.2059 32.4954 48.2249 32.3573 48.2249C32.287 48.2312 32.1778 48.2601 32.1778 48.2007C32.1778 48.1303 32.2871 47.9535 32.3573 47.9535C32.3711 47.5446 32.3474 47.1355 32.287 46.731V46.731Z" fill="#2B2B2A"/>
<path d="M36.2894 47.5043C36.279 47.685 36.3008 47.8661 36.3536 48.0393C36.3536 48.1006 36.4854 48.0393 36.4854 48.1674C36.2065 48.2504 35.9275 48.1637 35.6451 48.1674C35.6451 48.1674 35.6451 48.0393 35.7129 48.0393H35.7742C35.8318 47.4541 35.8545 46.8661 35.8421 46.2782V45.6339C35.8421 45.4409 35.9025 45.3136 35.8421 45.1845H35.2619C35.2582 45.7847 35.1977 46.3837 35.1977 46.9865V47.6309C35.1977 47.695 35.194 47.804 35.194 47.8962C35.194 48.0243 35.3672 48.0055 35.3257 48.1436C35.2968 48.2364 34.9277 48.2238 34.7457 48.1886C34.6815 48.1761 34.685 48.1436 34.685 48.0829C34.685 48.0151 34.7457 48.0151 34.8132 47.9548V46.2134C34.8437 45.8486 34.8437 45.4817 34.8132 45.117C34.7453 45.117 34.6172 45.117 34.6172 45.0557C34.685 44.9276 34.8734 44.988 35.0016 44.988H36.3551C36.4869 44.988 36.4192 45.1838 36.2909 45.1838V47.5026L36.2894 47.5043V47.5043Z" fill="#2B2B2A"/>
<path d="M37.9343 45.2718C37.8702 45.2367 37.8702 45.2367 37.8027 45.2041C37.6475 45.1932 37.4922 45.2164 37.3469 45.2718C37.2793 45.3331 37.2893 45.4325 37.2893 45.5796C37.2893 45.7628 37.2794 45.8586 37.2794 45.9867C37.2794 46.1852 37.3473 46.3168 37.2794 46.4485C37.4022 46.5036 37.5374 46.5247 37.671 46.51C37.671 46.4485 37.671 46.3168 37.7387 46.3168C37.8066 46.3168 37.803 46.3168 37.8705 46.3812C37.8027 46.5091 37.9347 46.9073 37.8027 46.9073C37.8027 46.9073 37.671 46.8394 37.671 46.7755V46.7076H37.3469C37.307 46.9268 37.3004 47.1508 37.328 47.3718C37.328 47.5704 37.3469 47.8238 37.3469 47.952C37.5159 48.005 37.6929 48.0265 37.8695 48.0161C38.0012 47.952 37.8695 47.7563 38.0012 47.6922C38.133 47.6922 38.133 47.8855 38.133 48.0161C38.133 48.084 38.0652 48.1478 38.0012 48.2146H37.671C37.3212 48.2238 36.9711 48.2008 36.6252 48.1469V48.0151H36.888C36.9219 47.646 36.9219 47.2745 36.888 46.9054V45.2695H36.625V45.1378C36.8876 45.07 37.1476 45.07 37.4109 45.006H38.0652C38.1021 45.0411 38.1261 45.0873 38.133 45.1378C38.133 45.2695 38.2647 45.5293 38.0012 45.5293C37.9343 45.4648 38.001 45.3331 37.9343 45.2718V45.2718Z" fill="#2B2B2A"/>
<path d="M39.5346 45.9294C39.4705 46.0612 39.4026 46.1892 39.3388 46.3173C39.3388 46.3851 39.3388 46.3851 39.4028 46.3851C39.4706 46.4493 39.5959 46.5133 39.6627 46.5781C39.8586 46.8379 39.8586 47.2295 39.9225 47.5527C39.9225 47.6844 39.8584 47.8088 39.9225 47.8767C39.9225 47.9408 40.0696 47.9972 40.0696 48.0664C40.0656 48.1111 40.0498 48.1546 40.0245 48.1917C39.8287 48.1917 39.5563 48.2016 39.428 48.2016C39.391 48.1697 39.3811 48.1166 39.4038 48.0735L39.5356 47.9418C39.5961 47.81 39.5356 47.6856 39.5356 47.5539V47.0982C39.5356 46.9052 39.4715 46.6426 39.3397 46.5782C39.2172 46.5144 39.071 46.5144 38.9482 46.5782C38.8164 46.7101 38.8841 47.0982 38.8841 47.3544C38.8841 47.4861 38.8162 47.5527 38.8162 47.6846V47.9408C38.9479 48.005 39.0147 48.1338 38.8841 48.2006C38.6911 48.1328 38.56 48.2648 38.3678 48.2006C38.3 48.1328 38.3 48.1328 38.3 48.0725C38.3678 48.0048 38.4281 48.0048 38.4281 47.9408V47.0965C38.4281 47.0965 38.4343 47.0929 38.4343 47.0261L38.4281 46.9655C38.458 46.8592 38.4804 46.7509 38.4958 46.6416C38.5087 46.2509 38.4862 45.8602 38.4281 45.4739V45.281C38.3675 45.281 38.3 45.281 38.3 45.2131C38.2358 45.2131 38.2486 45.0723 38.2938 45.0272C38.3388 44.9821 38.4144 45.0209 38.5472 45.0209C38.6802 45.0209 39.0155 44.9567 39.0155 45.149C39.0155 45.2131 38.9477 45.2131 38.8837 45.2807C38.8837 45.5369 38.9479 45.7364 38.9479 45.9927C38.9479 46.0603 38.8837 46.1885 38.9479 46.2525C39.1964 46.1576 39.3721 45.9327 39.4036 45.6686C39.4036 45.5369 39.4715 45.4125 39.4715 45.2807H39.3397C39.3397 45.213 39.272 45.213 39.272 45.149C39.3397 45.0209 39.5346 45.0848 39.6627 45.0209C39.8586 45.085 39.7909 45.2807 39.6627 45.2807C39.656 45.5027 39.613 45.7216 39.5346 45.9294Z" fill="#2B2B2A"/>
<path d="M40.9197 46.1254C40.9197 46.1867 40.8593 46.3907 40.8593 46.4683C41.0327 46.5145 41.2122 46.5348 41.3916 46.5288V46.1246C41.3832 45.8928 41.34 45.6638 41.2635 45.4449C41.264 45.4078 41.2344 45.3773 41.1973 45.3771C41.1958 45.3771 41.1946 45.3771 41.1931 45.3771L41.1227 45.4449C41.0577 45.6444 40.9874 45.8555 40.9195 46.1254H40.9197ZM41.3916 46.731C41.2635 46.731 41.0577 46.6631 40.8593 46.6631C40.7887 46.731 40.7887 46.8653 40.7887 47.0095C40.7241 47.3206 40.6994 47.6381 40.7147 47.9552C40.7887 48.0165 40.8594 47.9552 40.9195 48.0165C40.9194 48.0613 40.9158 48.1061 40.9096 48.1508C40.7049 48.2917 40.5116 48.1473 40.3167 48.2213L40.1758 48.0868C40.225 48.0201 40.2969 47.9733 40.378 47.9552C40.4487 47.9552 40.4487 47.8875 40.4487 47.8171C40.5126 47.407 40.5802 46.804 40.647 46.3266C40.651 46.1385 40.6996 45.9539 40.7879 45.7879C40.8572 45.544 40.9706 45.3148 41.1217 45.1113C41.1217 45.1113 41.2628 44.9665 41.3906 45.0409C41.5488 45.1511 41.6517 45.324 41.6732 45.5156C41.7285 45.6292 41.7634 45.7518 41.776 45.8774C41.8401 46.4099 41.8724 47.009 41.933 47.6126V48.0227C41.933 48.084 42.0739 48.1572 41.933 48.2249L41.85 48.2059C41.7157 48.2059 41.6 48.2249 41.4621 48.2249C41.3916 48.2312 41.2826 48.2601 41.2826 48.2007C41.2826 48.1303 41.3919 47.9535 41.4621 47.9535C41.4757 47.5446 41.4524 47.1355 41.3916 46.731V46.731Z" fill="#2B2B2A"/>
<path d="M42.9331 46.555C43.004 46.6183 43.1056 46.6348 43.1929 46.5965C43.3266 46.508 43.4245 46.375 43.4691 46.221C43.5094 46.0947 43.5261 45.962 43.5173 45.8295C43.5183 45.6409 43.4802 45.4542 43.4053 45.2809C43.3351 45.2809 43.2674 45.2105 43.1356 45.2105H42.9336C42.8983 45.5464 42.8983 45.8848 42.9336 46.2203L42.9331 46.555V46.555ZM43.1343 48.1711C42.8658 48.2052 42.594 48.2052 42.3257 48.1711C42.2871 48.136 42.2619 48.0885 42.2552 48.0368C42.3257 47.9691 42.3257 47.9691 42.4573 47.9691C42.5277 47.9048 42.4815 47.7443 42.4815 47.645C42.4778 47.2055 42.4977 46.8851 42.4977 46.5451C42.4977 46.4133 42.5138 46.2438 42.4977 46.0289C42.4851 45.8816 42.5012 45.7951 42.4977 45.519C42.4977 45.4226 42.5166 45.333 42.4525 45.3069C42.3695 45.2718 42.3319 45.3133 42.2595 45.2493C42.1279 45.179 42.2353 45.115 42.3047 45.0508C42.6223 45.0082 42.9435 44.9941 43.2637 45.0094C43.3316 45.0094 43.3027 44.9932 43.4018 45.0094C43.6644 45.0508 43.87 45.4137 43.9368 45.7501C43.9519 45.9325 43.9289 46.1162 43.8691 46.2888C43.8048 46.491 43.6036 46.6265 43.4648 46.7572C43.3171 46.8201 43.1559 46.8442 42.9966 46.8275C42.9591 46.8279 42.9289 46.8579 42.9287 46.8952C42.925 46.953 42.9287 47.0976 42.9287 47.1607C42.8935 47.4292 42.8935 47.7011 42.9287 47.9693C43.1343 47.9691 43.2663 48.0368 43.1343 48.1711V48.1711Z" fill="#2B2B2A"/>
<path d="M45.7525 45.8017V46.908C45.7525 47.2346 45.8204 47.6298 45.8204 47.953C45.8845 48.0172 45.952 48.0172 45.952 48.0847V48.2163C45.952 48.2163 45.9331 48.1587 45.8879 48.2039C45.8565 48.2168 45.8226 48.2224 45.7888 48.22C45.721 48.22 45.6896 48.2163 45.5576 48.2163C45.4899 48.2163 45.4647 48.22 45.4032 48.22C45.3391 48.1559 45.3645 48.1497 45.4274 48.0857C45.4274 48.0178 45.5554 48.0178 45.5554 47.954C45.5876 47.4104 45.5876 46.8653 45.5554 46.3214C45.5564 46.2848 45.5273 46.2544 45.4906 46.2537C45.4896 46.2537 45.4887 46.2537 45.4877 46.2537C45.2718 46.2217 45.0523 46.2217 44.8363 46.2537C44.7245 46.3797 44.6763 46.5498 44.7047 46.7157V47.6287C44.7725 47.7606 44.7047 47.8217 44.7725 47.9527C44.8366 47.9527 44.9683 48.0845 44.8366 48.1487C44.621 48.1826 44.4012 48.1826 44.1853 48.1487C44.1853 48.1487 44.1174 48.017 44.1853 47.9527H44.3171V45.7333C44.2492 45.6017 44.3171 45.4059 44.2492 45.275C44.1985 45.2697 44.1512 45.2455 44.1174 45.2072C44.0811 45.1714 44.0805 45.113 44.1166 45.0764C44.1167 45.0762 44.1172 45.076 44.1174 45.0755H44.3802C44.5119 45.0755 44.7042 45.0114 44.8358 45.0755C44.9065 45.0804 44.9628 45.1365 44.9676 45.2072C44.9676 45.275 44.8358 45.275 44.7717 45.275C44.7036 45.3392 44.7717 45.4067 44.7717 45.5377C44.7717 45.6687 44.7036 45.8653 44.7717 45.9934C45.0284 46.0576 45.2971 46.0576 45.554 45.9934C45.565 45.752 45.5421 45.5101 45.4862 45.275C45.4257 45.2072 45.2932 45.275 45.2301 45.2072V45.0755C45.3485 45.0116 45.4854 44.9889 45.618 45.0114C45.684 45.0176 45.7504 45.0176 45.8165 45.0114C45.9482 45.0755 45.9482 45.274 45.8165 45.274C45.7584 45.4435 45.7366 45.6233 45.7525 45.8017V45.8017Z" fill="#2B2B2A"/>
<path d="M47.1309 46.3204L47.1551 46.1755C47.1741 45.8101 47.184 45.5243 47.184 45.2326C47.0708 45.2242 46.9573 45.2316 46.8463 45.2552C46.7474 45.3278 46.6854 45.4405 46.6773 45.563C46.6644 45.6663 46.6644 45.7709 46.6773 45.8742C46.7074 46.0475 46.7927 46.2062 46.921 46.3263C46.9993 46.3239 47.0735 46.3239 47.1309 46.3191V46.3204V46.3204ZM47.5731 45.3647C47.5731 45.7112 47.5768 45.9649 47.5504 46.2527C47.538 46.4072 47.5731 47.305 47.5731 46.8428V48.0133C47.6475 48.0044 47.7219 48.0278 47.7779 48.0775C47.7074 48.2184 47.6436 48.2184 47.5017 48.2184C47.3294 48.177 47.1504 48.1703 46.9756 48.1994C46.9077 48.1994 46.9178 48.1478 46.9178 48.0786C46.9178 48.0145 47.0558 48.0145 47.0558 47.947C47.1082 47.8148 47.1302 47.6722 47.1202 47.5302C47.1202 47.2801 47.1299 46.9048 47.1138 46.5782C46.9757 46.5078 46.8893 46.5429 46.761 46.6423C46.6516 46.7671 46.6031 46.9342 46.6291 47.0981V47.554C46.6291 47.6855 46.5678 47.8099 46.6291 47.9416L46.761 48.0734C46.7835 48.1166 46.7734 48.1697 46.7368 48.2014C46.6086 48.2014 46.307 48.1916 46.1114 48.1916C46.0859 48.1544 46.0703 48.1112 46.0664 48.0664C46.0664 47.9984 46.2135 47.9408 46.2135 47.8764C46.2777 47.8088 46.2461 47.6204 46.2461 47.4887C46.2412 47.174 46.3084 46.8628 46.4419 46.5782C46.4804 46.5417 46.5207 46.5075 46.5626 46.4754C46.4412 46.3679 46.35 46.2307 46.2971 46.0774C46.2436 45.8867 46.2436 45.6845 46.2971 45.4935C46.3937 45.0955 46.9551 44.9513 47.3719 45.0225C47.4359 45.0225 47.4585 45.0613 47.5262 45.0613C47.7348 45.0613 47.824 45.065 47.824 45.2661C47.8231 45.3358 47.7074 45.3647 47.5731 45.3647Z" fill="#2B2B2A"/>
<path d="M42.7924 57.163C43.0972 57.163 43.3445 57.4102 43.3445 57.7151C43.3445 58.0201 43.0972 58.2673 42.7924 58.2673C42.4874 58.2673 42.2402 58.0201 42.2402 57.7151C42.2402 57.4102 42.4874 57.163 42.7924 57.163Z" fill="#2B2B2A"/>
<path d="M27.2768 57.163C27.5817 57.163 27.8289 57.4102 27.8289 57.7151C27.8289 58.0201 27.5817 58.2673 27.2768 58.2673C26.9718 58.2673 26.7246 58.0201 26.7246 57.7151C26.7246 57.4102 26.9718 57.163 27.2768 57.163Z" fill="#2B2B2A"/>
</svg>
