<svg width="175" height="36" viewBox="0 0 175 36" fill="none" xmlns="http://www.w3.org/2000/svg">
<path fill-rule="evenodd" clip-rule="evenodd" d="M128.478 7.791C128.446 7.29031 129.77 6.09252 130.351 5.10805C128.072 4.6688 127.154 6.3243 126.449 7.73889L122.663 7.27125L123.376 5.88739C120.466 5.92141 121.73 7.23722 118.762 6.70658C117.211 6.4295 115.516 6.25197 113.87 6.25372C102.196 6.265 104.396 15.0838 109.98 14.8766C108.864 13.8833 107.458 13.3821 106.664 12.1399C103.375 6.99514 117.728 7.69086 119.849 7.82289C119.662 8.64559 117.305 11.4794 116.715 12.2848C115.042 14.5709 112.565 19.2483 111.036 21.945C109.807 24.1129 109.867 25.8856 112.725 25.3404L113.396 25.1114C113.137 24.5739 113.774 24.9517 111.903 24.6039C113.443 18.2414 116.378 14.5855 120.428 9.66117C121.182 8.74417 121.604 7.98253 122.528 7.96192C123.155 7.94811 125.336 8.19564 125.971 8.33622C124.452 10.695 122.83 12.6669 121.45 15.514C120.499 17.4755 117.328 22.5828 119.148 23.6765C119.83 23.9705 121.505 24.0207 122.005 23.4479C120.997 22.9847 120.123 23.8027 120.404 21.8153C120.968 17.8257 123.755 13.8143 125.964 10.6937C126.944 9.30903 127.653 7.67122 129.936 9.11809L129.211 11.3894C129.913 11.0211 130.343 10.2175 130.94 9.66428C131.548 9.10136 132.396 8.554 132.437 7.60336C132.395 7.58314 132.337 7.56564 132.305 7.55825C131.433 7.35641 131.402 7.58236 129.475 7.87111C129.211 7.91078 129.163 7.92847 128.895 7.90553C128.534 7.87481 128.664 7.88958 128.478 7.791V7.791Z" fill="#010101"/>
<path fill-rule="evenodd" clip-rule="evenodd" d="M64.0233 7.94382C64.0768 7.09352 65.1031 6.33732 65.5871 5.64354C66.3419 4.56146 64.2765 4.85857 63.5837 5.50685C61.0682 7.86177 63.5407 7.80557 58.31 7.31246L58.855 5.7116C57.7745 5.96671 56.637 6.47285 55.5988 6.68557C53.7364 7.06727 48.39 5.51813 44.6176 6.88702C38.8254 8.98877 40.4903 14.8381 45.6658 14.8987C44.6421 14.0834 43.5121 13.7564 42.6614 12.7836C41.767 11.7608 41.4034 10.276 42.5413 9.30669C44.8089 7.37507 52.0113 7.66635 55.3756 7.81705C55.1049 8.92577 52.8781 11.39 52.1591 12.4246C50.2985 15.1023 48.1531 19.2063 46.5142 22.119C44.2211 26.194 48.4349 25.7225 48.9389 24.8656L47.71 24.5725C47.1099 22.084 51.4982 15.3955 52.5602 13.9893C53.7833 12.37 56.3793 8.43091 58.2551 8.01771C59.3121 7.78477 60.606 8.05291 61.3001 8.60377C60.4275 10.4531 58.043 12.7388 55.129 19.3923C54.508 20.8102 53.7119 22.0712 54.4491 23.6297C55.2648 23.8313 56.5224 23.9089 57.3313 23.6616C56.8979 23.2215 57.5287 23.6847 56.9704 23.4603L55.9897 23.1634C55.4001 19.3011 59.5544 13.3955 61.698 10.4562C63.1862 8.41535 62.8967 8.22518 65.5349 9.07316L64.7262 11.248C65.4301 10.7864 65.9882 10.109 66.582 9.50307C67.1671 8.90613 68.0967 8.42721 67.9669 7.42641L64.0233 7.94382V7.94382Z" fill="#010101"/>
<path fill-rule="evenodd" clip-rule="evenodd" d="M87.3771 21.4163C87.0316 19.1022 87.7114 17.36 88.6313 14.809C87.3519 14.5102 86.8978 15.2691 86.4109 15.9955C85.9876 16.6271 81.565 22.8104 81.5858 20.4888C81.5858 20.4868 81.6898 20.143 81.6908 20.1407C82.1009 19.1607 83.7397 16.4869 84.3391 14.9255C81.4894 14.7099 82.0727 16.8692 80.8269 18.4154C79.841 19.6394 79.2336 19.9515 77.9923 20.7627C77.5275 21.0665 77.5052 21.1575 76.9259 20.8709C77.2411 19.4131 79.6594 16.0397 79.6867 14.7334C77.6115 15.062 77.5719 16.128 76.7743 17.8624C76.2687 18.962 75.1316 20.9014 75.8993 22.0622C77.1365 22.3399 77.5744 22.0406 78.3808 21.4701C78.8206 21.1588 79.5972 20.4092 80.0975 20.1965C80.1529 21.2337 80.1306 21.3768 80.4609 22.1406C82.8579 22.664 83.8847 19.7411 85.7975 18.626C85.7761 20.0238 85.0444 21.672 86.3824 22.4208C87.6284 23.1182 89.1011 21.6879 89.3404 20.7738L87.3771 21.4163V21.4163Z" fill="#010101"/>
<path fill-rule="evenodd" clip-rule="evenodd" d="M72.1423 16.1445C74.1282 17.6744 74.1251 22.1548 70.5274 21.9176C68.4329 21.7793 69.7483 20.0048 70.3068 19.0662C70.7217 18.3688 71.7499 16.4529 72.1423 16.1445V16.1445ZM68.6478 29.0788L68.5509 28.9864C67.7883 29.2726 67.2507 29.8188 66.5164 30.1006C65.972 26.3011 67.3535 25.2723 68.3845 22.4552C69.9079 22.4356 70.5232 22.8635 72.1058 22.1997C73.0791 21.7914 73.842 21.1602 74.3193 20.2444C75.6128 17.7631 73.6635 17.8292 73.9073 12.9463C73.1758 13.1831 73.1783 13.3785 72.684 13.7313C71.7499 13.179 71.4178 12.4141 70.5856 13.6622C72.0008 15.5497 71.1804 16.149 69.5101 18.4364C68.0652 20.4153 65.0138 26.3301 64.9179 28.7786C64.7861 32.1483 68.0765 30.7117 68.6478 29.0788V29.0788Z" fill="#010101"/>
<path fill-rule="evenodd" clip-rule="evenodd" d="M150.812 21.4678C151.063 20.6599 151.781 19.4783 152.195 18.5834C152.519 17.8823 153.154 16.3808 153.888 16.1272C154.599 16.639 155.086 19.809 154.817 20.5254C154.223 22.1076 152.421 21.6794 150.812 21.4678V21.4678ZM149.862 22.3841C151.304 22.5003 152.659 22.778 153.893 22.115C154.689 21.6878 155.793 20.7091 156.119 19.6714C156.595 18.1564 155.898 17.0516 155.362 15.9654C154.254 13.7217 155.736 13.7229 155.363 12.8226C154.978 13.1493 154.578 13.5401 154.01 13.7832C153.281 12.992 152.803 12.3789 152.027 13.7727C153.761 15.4008 152.88 15.8634 150.893 18.6149C149.499 20.5452 146.308 26.9566 146.421 29.2746C146.538 31.6702 149.444 31.114 150.335 28.8025C149.17 29.2598 148.827 29.9106 148.211 29.9497L148.037 29.8992C146.973 27.708 149.43 24.1345 149.862 22.3841Z" fill="#010101"/>
<path fill-rule="evenodd" clip-rule="evenodd" d="M134.842 17.5974C135.065 16.777 138.932 10.61 139.674 9.39534C140.135 8.64148 140.904 7.54889 141.226 6.76489C138.833 6.08725 138.709 8.12251 137.859 9.75273C137.073 11.2614 136.314 12.5743 135.481 14.0404C134.752 15.3243 133.417 17.3172 133.13 18.3606C132.629 20.1892 131.72 21.243 131.045 22.7632C133.447 22.6345 132.578 20.6955 134.046 19.9191C134.838 20.6811 134.871 22.2876 136.386 22.4719C138.07 22.6769 138.536 21.4307 138.666 19.9887C138.209 20.438 137.488 20.9961 136.881 21.4377C136.642 21.3004 136.828 21.4303 136.6 21.2211C134.916 19.6813 134.932 18.7157 136.47 17.697L139.497 15.727C139.943 15.3887 140.015 15.3724 140.282 14.9172C137.864 14.8005 136.27 17.5748 134.842 17.5974V17.5974Z" fill="#010101"/>
<path fill-rule="evenodd" clip-rule="evenodd" d="M92.4145 21.3775C92.3538 19.6761 94.1309 16.2016 96.7353 15.8315C96.326 17.5254 94.1462 20.52 92.4145 21.3775ZM99.0455 21.6163C98.5743 20.8296 97.591 22.2321 97.206 21.0853C96.8156 19.9221 98.9655 16.0326 98.769 15.0505C92.0563 14.4778 89.4932 20.9884 90.9286 22.3822C91.8938 23.3929 94.9843 19.8875 95.6499 19.6219C95.7992 20.8844 95.3895 22.1531 96.647 22.4909C97.166 22.6303 99.1401 22.0853 99.0455 21.6163Z" fill="#010101"/>
<path fill-rule="evenodd" clip-rule="evenodd" d="M140.773 21.4206C141.463 18.9487 142.607 16.0857 145.285 15.8533C144.836 17.6807 142.206 20.9938 140.773 21.4206ZM145.973 21.3724C145.491 18.6776 147.006 17.2916 147.438 14.9721C144.35 14.8745 142.811 14.8721 141.449 16.8442C140.201 18.6516 139.255 19.5435 139.467 22.3769C141.926 22.5772 143.385 19.5614 144.128 19.3556C144.325 20.6532 143.923 22.0691 145.152 22.5161C146.346 22.9503 147.514 22.0172 147.672 21.1671C147.164 21.29 146.498 21.4691 145.973 21.3724V21.3724Z" fill="#010101"/>
<path fill-rule="evenodd" clip-rule="evenodd" d="M174.095 21.8096C174.568 21.4862 175.053 21.2768 174.996 20.5099C174.372 20.9223 173.361 21.5541 172.36 21.6013C171.08 19.6143 172.909 17.1933 172.411 15.0449C171.188 14.5852 170.669 15.0731 169.544 15.4038C169.575 15.4339 169.62 15.4709 169.643 15.488L170.973 16.2117C171.002 16.2298 171.055 16.2693 171.078 16.2844L171.282 16.4408C170.563 18.8392 169.12 20.1236 168.663 16.8304C167.287 18.8439 167.703 18.632 169.188 20.2758C167.788 22.6198 167.174 20.9122 166.085 20.4819C164.624 21.8226 166.275 22.9053 167.769 22.4859C169.204 22.0834 169.416 20.8862 170.407 20.1045C170.772 22.9226 172.013 23.2353 174.095 21.8096V21.8096Z" fill="#010101"/>
<path fill-rule="evenodd" clip-rule="evenodd" d="M159.469 18.4803C159.758 17.4251 160.765 15.9119 160.922 15.1266C161.137 14.0484 159.583 14.6867 158.812 16.3589L155.984 22.7711C159.267 22.4927 157.512 18.3425 161.644 19.0236C161.142 20.4691 160.242 23.6263 162.981 22.1931C163.415 21.9658 163.985 21.6624 164.261 21.2765C163.926 21.1075 164.254 21.1691 163.799 21.2002L162.394 21.5916C162.462 19.4201 163.288 17.9083 164.568 16.4463C164.993 15.9607 164.808 16.3446 164.894 15.832C161.11 15.4114 164.752 18.0358 159.469 18.4803V18.4803Z" fill="#010101"/>
<path fill-rule="evenodd" clip-rule="evenodd" d="M127.834 17.6133C127.668 16.8853 129.446 15.9379 129.229 15.2409C127.156 14.7851 124.523 19.3734 124.428 21.4866C124.334 23.5715 128.082 22.6476 128.884 21.3141C124.584 22.8073 126.536 19.1284 127.282 18.6798C128.215 18.1186 129.664 18.4519 130.784 18.3477C131.12 17.7072 131.455 16.8732 131.628 16.1818C131.953 14.8841 131.676 14.6842 130.412 14.7851C130.309 16.2802 130.498 17.608 128.296 17.6864L127.943 17.6444C127.927 17.6047 127.869 17.6285 127.834 17.6133V17.6133Z" fill="#010101"/>
<path fill-rule="evenodd" clip-rule="evenodd" d="M63.9341 17.6753C63.8437 16.874 65.0769 16.1962 65.4349 15.356C62.1025 15.2947 59.264 21.9043 61.2525 22.5285C62.4394 22.901 64.1395 22.3331 64.5186 21.6307C63.7671 21.6288 63.0996 21.7824 62.4935 21.4431C62.0381 20.361 62.7292 18.9929 63.3833 18.6497C64.3607 18.1369 65.7907 18.4391 66.9284 18.3536C67.2364 17.6417 67.5374 16.9429 67.7414 16.1581C68.0546 14.9519 67.7575 14.731 66.528 14.7715C66.4137 16.1497 66.6523 17.4616 64.4436 17.6987L64.1846 17.7045C64.1566 17.7049 64.079 17.7346 64.0592 17.6922C64.0391 17.6499 63.9748 17.6858 63.9341 17.6753V17.6753Z" fill="#010101"/>
<path d="M15.6875 12.666C15.65 12.6481 15.4641 12.597 15.4264 12.6462C15.4013 12.6796 15.4882 12.7169 15.5236 12.7379C15.6383 12.807 15.7692 12.8404 15.8891 12.9019C15.9671 12.9499 16.0482 12.9927 16.1316 13.0304C16.1378 12.9408 15.9823 12.8027 15.6875 12.666Z" fill="#2B2B2A"/>
<path d="M16.5111 12.4109C16.481 12.3983 16.1912 12.3011 16.1685 12.3526C16.1539 12.386 16.4495 12.5344 16.4849 12.55C16.6301 12.6211 16.7682 12.6964 16.907 12.7769C17.0091 12.8441 17.1152 12.9056 17.2245 12.9606C17.0231 12.7345 16.7812 12.5478 16.5111 12.4109V12.4109Z" fill="#2B2B2A"/>
<path d="M17.5507 12.2449C17.462 12.2054 17.3679 12.1794 17.2715 12.1673C17.2464 12.1644 17.1365 12.1422 17.1568 12.1778C17.1795 12.2185 17.2946 12.2644 17.3355 12.2875C17.4129 12.3303 17.4934 12.3649 17.5705 12.4057C17.7104 12.48 17.8443 12.5634 17.98 12.6408C18.095 12.7162 18.2144 12.7847 18.3374 12.8456C18.3899 12.7927 17.8155 12.3618 17.5507 12.2449V12.2449Z" fill="#2B2B2A"/>
<path d="M18.7003 12.227C18.6373 12.1936 18.5712 12.1669 18.5028 12.1477C18.4777 12.1405 18.3575 12.0997 18.3336 12.1214C18.3095 12.1434 18.5706 12.3106 18.6019 12.3316C18.7415 12.4154 18.8788 12.4992 19.0157 12.5916C19.1209 12.6733 19.2308 12.7485 19.3447 12.8174C19.3949 12.7738 18.9801 12.383 18.7003 12.227V12.227Z" fill="#2B2B2A"/>
<path d="M19.7971 12.4674C19.7411 12.4266 19.6621 12.365 19.5871 12.3881C19.5233 12.406 19.5995 12.4624 19.638 12.4906C19.7551 12.5699 19.8709 12.6547 19.9827 12.7457C20.0006 12.7612 20.1698 12.9168 20.1916 12.9246H20.1937C20.2369 12.894 19.9483 12.5754 19.7971 12.4674V12.4674Z" fill="#2B2B2A"/>
<path d="M20.7333 13.8091C20.5645 13.8566 20.3889 13.8746 20.2139 13.8624C19.9769 13.8571 19.7391 13.8322 19.5015 13.8091C18.8835 13.7385 18.2621 13.7055 17.6406 13.7099C17.0626 13.7255 16.4903 13.7988 15.9155 13.8426C15.7065 13.8643 15.4959 13.8678 15.2865 13.8529C15.1471 13.8499 15.0118 13.8035 14.8999 13.7202C14.668 13.5134 14.8132 13.1373 14.9762 12.9382C15.2801 12.6191 15.6672 12.3916 16.0934 12.281C16.6781 12.1015 17.2864 12.0138 17.8979 12.0208C18.0618 12.0208 18.225 12.026 18.3889 12.0387C18.9635 12.0682 19.5287 12.1958 20.0607 12.4149C20.4383 12.5437 20.7556 12.8065 20.9528 13.1538C21.0833 13.3646 21.0185 13.6415 20.8074 13.7722C20.7838 13.7867 20.759 13.799 20.7329 13.8091H20.7333ZM16.2842 10.6546C16.3476 10.4207 16.447 10.1979 16.5788 9.9943C16.7046 9.80102 16.81 9.59491 16.8934 9.37985C16.956 9.20854 16.9683 9.02285 16.929 8.84493C16.8967 8.72224 16.8473 8.6048 16.7816 8.4961C16.7439 8.43777 16.72 8.39888 16.7096 8.38429C16.72 8.3946 16.7524 8.43038 16.8038 8.48346C16.8916 8.58477 16.9618 8.70104 17.0106 8.82627C17.0795 9.01663 17.0869 9.22391 17.0316 9.41874C16.9609 9.64974 16.8582 9.86946 16.7258 10.0717C16.5998 10.264 16.4967 10.4703 16.4186 10.6863C16.363 10.8596 16.3624 11.0462 16.4166 11.2201C16.4576 11.3406 16.5152 11.455 16.5877 11.5598C16.6369 11.6257 16.6671 11.6652 16.6717 11.6745C16.6632 11.6661 16.6278 11.6305 16.5671 11.5742C16.4722 11.4789 16.3941 11.3682 16.3353 11.2471C16.2543 11.0606 16.2364 10.8524 16.2842 10.6546V10.6546ZM17.4835 10.4709C17.5133 10.3352 17.5601 10.2035 17.6233 10.0799C17.685 9.94918 17.7583 9.82163 17.8322 9.6933C17.9807 9.46541 18.1052 9.22293 18.2032 8.96918C18.2761 8.76696 18.2909 8.5486 18.246 8.33821C18.2071 8.19296 18.1483 8.05354 18.0713 7.92443C18.0253 7.8556 17.9951 7.80757 17.9848 7.78968C18.0004 7.80524 18.0381 7.84549 18.0964 7.90771C18.2001 8.02729 18.2821 8.16399 18.3401 8.31118C18.4208 8.53616 18.4297 8.78096 18.3651 9.01118C18.2817 9.2838 18.161 9.54357 18.0068 9.78313C17.8588 10.0102 17.7379 10.2541 17.6465 10.5094C17.6125 10.6177 17.5955 10.7309 17.5973 10.8446V10.8831C17.5973 10.8977 17.5992 10.9094 17.6004 10.9218C17.6035 10.948 17.6056 10.9727 17.6088 10.998C17.6191 11.046 17.6298 11.0929 17.6422 11.1376C17.6906 11.2807 17.7596 11.4155 17.847 11.5388C17.903 11.6162 17.9389 11.6642 17.9461 11.6745C17.9358 11.6642 17.8928 11.6234 17.823 11.5563C17.711 11.4437 17.6191 11.313 17.5512 11.1697C17.4493 10.9514 17.4256 10.7046 17.4835 10.4709ZM18.7509 10.6546C18.8147 10.4207 18.9137 10.1979 19.0455 9.9943C19.1713 9.80102 19.2767 9.59491 19.3601 9.37985C19.4227 9.20854 19.435 9.02285 19.3955 8.84493C19.3632 8.72185 19.3133 8.60382 19.2471 8.49493C19.2096 8.4366 19.1855 8.39771 19.1752 8.38313C19.1855 8.39363 19.2191 8.42921 19.2701 8.48229C19.3568 8.58477 19.4256 8.70046 19.4748 8.8251C19.5429 9.01566 19.5503 9.22254 19.4958 9.41757C19.4256 9.64877 19.3236 9.86927 19.1917 10.0717C19.0657 10.264 18.9623 10.4703 18.8845 10.6863C18.8295 10.86 18.8289 11.046 18.8824 11.2201C18.9236 11.3406 18.981 11.455 19.0539 11.5598C19.1029 11.6257 19.133 11.6652 19.1375 11.6745C19.1291 11.6661 19.0937 11.6305 19.0331 11.5742C18.9386 11.4781 18.8604 11.3677 18.8011 11.2471C18.7208 11.0602 18.7035 10.8524 18.7509 10.6546V10.6546ZM30.1084 14.7753H23.1782L23.4405 8.84474C23.4036 7.70665 22.4533 6.81299 21.3155 6.84585H14.4074C13.2693 6.81299 12.3195 7.70665 12.2823 8.84474L12.5435 14.7753H5.6121C5.51469 14.7753 5.43555 14.8542 5.43555 14.9515C5.43555 15.0493 5.5143 15.1284 5.61171 15.1284H30.1073C30.2045 15.128 30.2836 15.0493 30.284 14.9519C30.2848 14.8552 30.2074 14.7765 30.1108 14.7753C30.1098 14.7753 30.1094 14.7753 30.1084 14.7753V14.7753Z" fill="#2B2B2A"/>
<path d="M17.8611 28.0688C17.6334 28.0688 17.4476 27.7752 17.4476 27.4147C17.4476 27.054 17.6334 26.7596 17.8611 26.7596C18.0888 26.7596 18.2747 27.0532 18.2747 27.4147C18.2747 27.7762 18.0888 28.0688 17.8609 28.0688H17.8611ZM30.1086 19.9014H5.61191C5.51449 19.9014 5.43555 19.9805 5.43555 20.0779C5.43555 20.1753 5.51449 20.2545 5.61191 20.2545H12.9744C13.2931 21.0056 13.9199 21.4246 15.0135 21.6232C18.615 22.5614 15.2151 26.5113 16.8356 28.4208C17.032 28.6588 17.3072 28.8184 17.6111 28.8711V28.8783C17.7762 28.8993 17.9436 28.8993 18.1087 28.8783V28.8711C18.4128 28.8188 18.6879 28.659 18.8841 28.4208C20.5042 26.5107 17.1048 22.5614 20.7066 21.6232C21.8002 21.4237 22.4292 21.0046 22.7454 20.2545H30.1073C30.2047 20.2545 30.2838 20.1753 30.2838 20.0779C30.2838 19.9805 30.2047 19.9014 30.1073 19.9014H30.1086V19.9014Z" fill="#2B2B2A"/>
<path d="M17.8599 0C27.7331 0 35.7364 8.00354 35.7364 17.8767C35.7364 27.7496 27.7331 35.7531 17.8599 35.7531C8.23784 35.7531 0.392778 28.1511 0 18.6257V17.1277C0.392778 7.60201 8.23784 0 17.8599 0V0ZM17.8599 0.838056C15.5591 0.838056 13.328 1.28839 11.2276 2.17661C10.2185 2.60362 9.24487 3.13211 8.3339 3.74753C7.43167 4.35692 6.58292 5.05731 5.81156 5.82848C5.04039 6.59965 4.34039 7.4482 3.73062 8.35081C3.11539 9.26159 2.5867 10.2354 2.1597 11.2449C1.27147 13.3445 0.821139 15.576 0.821139 17.8767C0.821139 20.1773 1.27147 22.4084 2.1597 24.5082C2.5867 25.5181 3.11539 26.4915 3.73062 27.4025C4.34039 28.3045 5.04039 29.1533 5.81156 29.9246C6.58292 30.696 7.43167 31.3962 8.3339 32.0056C9.24487 32.621 10.2185 33.1495 11.2276 33.5763C13.328 34.4649 15.5591 34.9151 17.8599 34.9151C20.1602 34.9151 22.3917 34.4649 24.4917 33.5763C25.5014 33.1495 26.475 32.621 27.3858 32.0056C28.288 31.3962 29.1366 30.696 29.9081 29.9246C30.6793 29.1533 31.3793 28.3045 31.9891 27.4025C32.6043 26.4915 33.133 25.5181 33.5596 24.5082C34.4482 22.4084 34.8985 20.1773 34.8985 17.8767C34.8985 15.576 34.4482 13.3445 33.5596 11.2449C33.133 10.2354 32.6043 9.26159 31.9891 8.35081C31.3793 7.4482 30.6793 6.59965 29.9081 5.82848C29.1366 5.05731 28.288 4.35692 27.3858 3.74753C26.475 3.13211 25.5014 2.60362 24.4917 2.17661C22.3917 1.28839 20.1602 0.838056 17.8599 0.838056V0.838056Z" fill="#2B2B2A"/>
<path d="M8.06224 7.10532L8.1511 6.97154C8.20749 7.01199 8.27341 7.03726 8.34244 7.04485C8.41983 7.05632 8.49819 7.03143 8.55438 6.97699C8.61252 6.9309 8.65102 6.8644 8.66191 6.7909C8.67124 6.72907 8.65219 6.66646 8.6098 6.62037C8.56858 6.57118 8.50616 6.54512 8.44219 6.55037C8.36635 6.5601 8.29596 6.59432 8.24152 6.6476L8.18319 6.69971L8.0883 6.59218C8.13244 6.55504 8.17269 6.51343 8.20827 6.46793C8.23296 6.43274 8.24483 6.39054 8.24269 6.34776C8.2423 6.30285 8.22558 6.25929 8.19563 6.22546C8.16005 6.18579 8.10969 6.16246 8.05602 6.16071C7.9938 6.16012 7.9341 6.18443 7.88977 6.22857C7.8468 6.26493 7.81646 6.31373 7.80227 6.36818C7.79021 6.41971 7.79546 6.47357 7.81666 6.52179C7.83124 6.55893 7.85088 6.59373 7.87499 6.62523L7.73538 6.70262C7.58955 6.53462 7.60744 6.28029 7.77544 6.13446C7.78185 6.12882 7.78827 6.12357 7.79488 6.11851C7.86974 6.04443 7.97085 6.00321 8.07585 6.00379C8.16646 6.00476 8.25221 6.04346 8.31308 6.11054C8.38988 6.19454 8.41224 6.3149 8.37063 6.42068C8.42935 6.39229 8.49566 6.38393 8.55963 6.39676C8.62846 6.41018 8.69069 6.44615 8.73619 6.49923C8.80619 6.57546 8.83788 6.6791 8.82291 6.78137C8.80502 6.89843 8.74377 7.00479 8.6516 7.07907C8.49021 7.23579 8.23705 7.24726 8.06224 7.10532V7.10532Z" fill="#2B2B2A"/>
<path d="M9.26914 6.38246L9.54097 6.20279C9.60242 6.16838 9.65025 6.11374 9.67592 6.04802C9.69186 5.98852 9.67903 5.92474 9.6415 5.87574C9.61778 5.83646 9.58181 5.80612 9.53903 5.78921C9.49859 5.77462 9.45425 5.77462 9.41361 5.78921C9.34303 5.81896 9.27556 5.85649 9.21314 5.90082L9.03133 6.02099L9.26914 6.38246V6.38246ZM8.52539 5.55062L9.19214 5.1106L9.27264 5.2329L8.74181 5.5829L8.95297 5.90354L9.19856 5.74157C9.26972 5.6916 9.34847 5.65252 9.4315 5.62568C9.49625 5.60721 9.56567 5.61227 9.62711 5.64027C9.69264 5.66924 9.74825 5.71668 9.78675 5.77715C9.82098 5.82829 9.84236 5.88663 9.84936 5.94749C9.85656 6.00854 9.84684 6.07096 9.82156 6.12696C9.77139 6.20999 9.70042 6.27824 9.61564 6.32451L9.21334 6.58993L8.52539 5.55062Z" fill="#2B2B2A"/>
<path d="M10.242 5.93906L9.68359 4.82625L10.4804 4.42822L10.5463 4.55967L9.89632 4.88575L10.0666 5.22622L10.6758 4.92114L10.7418 5.05181L10.1326 5.35689L10.3229 5.73625L10.9977 5.39772L11.0636 5.52917L10.242 5.93906Z" fill="#2B2B2A"/>
<path d="M11.2773 4.73129L11.5742 4.61734C11.651 4.59615 11.7177 4.54773 11.7622 4.48162C11.7891 4.42484 11.7895 4.35931 11.7642 4.30195C11.7484 4.25704 11.7191 4.21795 11.6804 4.19034C11.6446 4.16565 11.6012 4.15456 11.5581 4.15904C11.5077 4.16837 11.4585 4.18295 11.4116 4.20279L11.118 4.31459L11.2773 4.73129V4.73129ZM11.3611 5.39998L10.9141 4.23798L11.3477 4.07193C11.4054 4.0484 11.4655 4.02973 11.5264 4.01593C11.58 4.00348 11.6358 4.00348 11.6895 4.01593C11.7405 4.02934 11.7867 4.05559 11.8245 4.09215C11.9398 4.20434 11.9786 4.3737 11.9236 4.52498C11.8604 4.6399 11.7529 4.7239 11.6259 4.75676L11.3311 4.86856L11.513 5.34087L11.3611 5.39998Z" fill="#2B2B2A"/>
<path d="M12.5712 4.96221L12.1992 3.77435L12.3548 3.72632L12.7267 4.91418L12.5712 4.96221Z" fill="#2B2B2A"/>
<path d="M12.7988 3.59135L13.57 3.39282L13.6066 3.53477L12.9921 3.69266L13.2669 4.75413L13.109 4.79496L12.7988 3.59135Z" fill="#2B2B2A"/>
<path d="M14.1284 4.0264L14.5379 3.94706L14.3456 3.63362C14.287 3.53853 14.2423 3.45901 14.2108 3.39639C14.2108 3.47903 14.204 3.56148 14.191 3.64314L14.1284 4.0264V4.0264ZM13.877 4.5967L14.1027 3.28381L14.275 3.25037L15.0075 4.37581L14.8255 4.4112L14.6123 4.06859L14.1078 4.16678L14.0471 4.56287L13.877 4.5967Z" fill="#2B2B2A"/>
<path d="M15.7394 3.65998C15.7452 3.79104 15.7967 3.91587 15.8856 4.01212C16.0359 4.15348 16.2722 4.14609 16.4135 3.99579C16.4267 3.98179 16.439 3.96643 16.4499 3.95048C16.5148 3.83323 16.538 3.69712 16.5146 3.56509C16.508 3.43462 16.4571 3.30998 16.3706 3.21198C16.2241 3.06984 15.9902 3.07315 15.8479 3.21976C15.8312 3.23687 15.8164 3.25554 15.8034 3.27576C15.7402 3.3932 15.7176 3.52834 15.7394 3.66017V3.65998V3.65998ZM15.1113 3.09687L15.2733 3.07898L15.334 3.6349L15.569 3.60865C15.556 3.45192 15.6007 3.29579 15.6945 3.16979C15.7826 3.05584 15.9142 2.98351 16.0577 2.97126C16.2082 2.95084 16.3602 2.99751 16.4736 3.09862C16.5977 3.21451 16.6719 3.37395 16.6815 3.54351C16.7104 3.71481 16.6733 3.89098 16.5771 4.03565C16.4872 4.16009 16.3476 4.23865 16.1946 4.25109C16.0563 4.27034 15.9163 4.23145 15.808 4.14356C15.691 4.04323 15.6136 3.90459 15.5895 3.75254L15.3513 3.77879L15.4096 4.31584L15.2476 4.33373L15.1113 3.09687Z" fill="#2B2B2A"/>
<path d="M17.8964 4.13341L17.7333 4.13885L17.7165 3.63602C17.5964 3.69007 17.4675 3.72235 17.336 3.73091C17.2563 3.73538 17.177 3.71691 17.1073 3.67763C17.0455 3.64516 16.9973 3.59227 16.9705 3.5281C16.9436 3.44954 16.9294 3.36749 16.9287 3.28466L16.916 2.9189L17.0792 2.91365L17.0906 3.26463C17.0813 3.36088 17.1118 3.45674 17.1744 3.53005C17.2246 3.57107 17.2884 3.59188 17.3531 3.58857C17.4774 3.58235 17.5993 3.55163 17.7115 3.49855L17.6905 2.89343L17.8536 2.88818L17.8964 4.13341V4.13341Z" fill="#2B2B2A"/>
<path d="M18.3145 2.88721L18.4617 2.89129L18.4315 3.87654L19.116 2.91112L19.2799 2.91637L19.2414 4.16082L19.0942 4.15654L19.1243 3.17343L18.4385 4.13574L18.2754 4.13029L18.3145 2.88721Z" fill="#2B2B2A"/>
<path d="M20.5242 4.2811L20.6638 3.19163L20.2617 3.14049L20.2804 2.99524L21.2479 3.11968L21.2293 3.2659L20.8248 3.21379L20.6852 4.30307L20.5242 4.2811Z" fill="#2B2B2A"/>
<path d="M21.6507 3.7898L21.9629 3.85163C22.0396 3.87477 22.1216 3.86952 22.1947 3.83705C22.2482 3.80341 22.2838 3.74819 22.2919 3.68557C22.3028 3.63891 22.2986 3.5901 22.2797 3.54596C22.263 3.50571 22.2323 3.47305 22.1928 3.45399C22.1453 3.43513 22.0959 3.42132 22.0456 3.41335L21.7384 3.35152L21.6507 3.7898ZM21.3633 4.39899L21.6058 3.17749L22.0613 3.26752C22.1234 3.27802 22.1842 3.29435 22.2431 3.31555C22.2951 3.33363 22.3423 3.36318 22.381 3.40207C22.4172 3.44077 22.4423 3.48782 22.4543 3.53896C22.4689 3.59574 22.4699 3.65524 22.4572 3.71241C22.4399 3.80982 22.3861 3.89732 22.3067 3.95682C22.1922 4.02021 22.0567 4.03363 21.9316 3.99455L21.6225 3.93291L21.5241 4.42913L21.3633 4.39899V4.39899Z" fill="#2B2B2A"/>
<path d="M22.827 4.19451L23.2293 4.30437L23.1956 3.93765C23.1853 3.82585 23.1801 3.73601 23.1789 3.66582C23.1418 3.73951 23.0996 3.8101 23.0523 3.87776L22.827 4.19451V4.19451ZM22.3496 4.59371L23.133 3.51746L23.3024 3.56354L23.4601 4.89685L23.2814 4.84765L23.2417 4.44651L22.7453 4.31079L22.5155 4.63901L22.3496 4.59371Z" fill="#2B2B2A"/>
<path d="M24.7694 4.20686L24.3682 4.05617L24.346 4.11567C24.3083 4.21484 24.2488 4.34667 24.1674 4.51272C24.1014 4.65447 24.0126 4.78437 23.905 4.89812L24.4357 5.09762L24.7694 4.20686V4.20686ZM24.2718 3.86328L24.9729 4.12656L24.5874 5.15478L24.6908 5.19328L24.5372 5.60278L24.4015 5.55164L24.5039 5.27981L23.7421 4.99475L23.6396 5.26659L23.5039 5.21545L23.6575 4.80595L23.7475 4.83939C23.9665 4.61403 24.1252 4.33695 24.2084 4.03381L24.2718 3.86328V3.86328Z" fill="#2B2B2A"/>
<path d="M25.4754 4.33752L25.6069 4.40422L25.1618 5.28408L26.1908 4.699L26.3372 4.77327L25.776 5.88491L25.6444 5.81822L26.0885 4.9405L25.0593 5.52247L24.9141 5.44916L25.4754 4.33752Z" fill="#2B2B2A"/>
<path d="M26.7956 5.04272L26.9294 5.13567L26.2992 6.03537L26.8248 6.40326L27.455 5.50356L27.5888 5.59767L26.9588 6.49737L27.0506 6.56231L26.7674 6.96559L26.6492 6.88178L26.8478 6.59848L26.082 6.06259L26.7956 5.04272Z" fill="#2B2B2A"/>
<path d="M27.1875 6.90048L28.0316 5.98523L28.1518 6.09684L27.3077 7.01112L27.1875 6.90048Z" fill="#2B2B2A"/>
<path d="M28.6885 6.54207L28.8182 6.42618L28.9226 6.54421L28.7929 6.6601L28.6885 6.54207ZM28.4795 6.30913L28.6092 6.19324L28.7136 6.31127L28.5841 6.42715L28.4795 6.30913V6.30913ZM27.5977 7.30488L28.5277 6.47635L28.6362 6.59768L27.7064 7.42602L27.5977 7.30488Z" fill="#2B2B2A"/>
<path d="M10.5078 31.7352L11.0509 30.614L10.6194 30.405L10.6925 30.2545L11.7301 30.7574L11.6568 30.9079L11.2241 30.6977L10.6809 31.819L10.5078 31.7352Z" fill="#2B2B2A"/>
<path d="M11.9793 31.48L12.2771 31.5813C12.3347 31.6031 12.3946 31.6176 12.4558 31.6252C12.5006 31.6291 12.5453 31.6177 12.5832 31.5941C12.6194 31.5685 12.6454 31.5317 12.6583 31.4895C12.673 31.4481 12.6756 31.4038 12.6656 31.3612C12.6553 31.32 12.6305 31.2836 12.5955 31.2597C12.5321 31.221 12.464 31.1908 12.3928 31.1696L12.1179 31.0755L11.9793 31.48V31.48ZM11.7693 32.0975L12.1121 32.2146C12.1531 32.2301 12.1955 32.242 12.2385 32.25C12.2775 32.2576 12.3176 32.2576 12.3567 32.25C12.3921 32.242 12.4251 32.2247 12.4516 32.1998C12.4823 32.1716 12.505 32.136 12.5175 32.0964C12.5344 32.0503 12.536 32.0007 12.5229 31.9535C12.5083 31.907 12.479 31.8663 12.4391 31.8385C12.3786 31.7985 12.3131 31.7678 12.2435 31.7475L11.9248 31.6388L11.7693 32.0975V32.0975ZM11.5332 32.1936L11.9888 30.8562L12.505 31.0316C12.5923 31.0578 12.6736 31.1006 12.7444 31.1582C12.8482 31.2509 12.8877 31.3964 12.8445 31.5292C12.8253 31.5867 12.7893 31.6371 12.7413 31.6742C12.6874 31.716 12.6231 31.7413 12.5552 31.7475C12.6246 31.7921 12.6773 31.8576 12.7059 31.9346C12.7312 32.0079 12.7306 32.0874 12.7038 32.1603C12.6841 32.2216 12.6497 32.2766 12.6036 32.3213C12.564 32.3624 12.5148 32.3931 12.4605 32.4112C12.4041 32.4277 12.3452 32.4324 12.2871 32.4258C12.2087 32.4176 12.1313 32.3995 12.0572 32.3723L11.5332 32.1936V32.1936Z" fill="#2B2B2A"/>
<path d="M13.2832 32.0299C13.2427 32.1718 13.2604 32.3243 13.3322 32.4532C13.4805 32.6881 13.7912 32.7581 14.0259 32.6095C14.0263 32.6093 14.0267 32.6089 14.0273 32.6087C14.1504 32.5166 14.233 32.3803 14.2571 32.2282C14.282 32.1277 14.2849 32.0229 14.2655 31.921C14.2474 31.8321 14.2033 31.751 14.1381 31.688C14.0724 31.6247 13.9904 31.5809 13.9009 31.5615C13.7741 31.5307 13.6404 31.5506 13.5282 31.6177C13.3926 31.7151 13.3038 31.8646 13.2832 32.0303V32.0299V32.0299ZM13.0909 31.983C13.1241 31.7831 13.2365 31.605 13.4024 31.4889C13.5608 31.3878 13.7543 31.3577 13.9361 31.4051C14.0606 31.4314 14.1755 31.4903 14.2694 31.5762C14.3596 31.6581 14.4234 31.7652 14.4524 31.8837C14.4833 32.0114 14.4833 32.1444 14.4524 32.2724C14.4255 32.4034 14.3664 32.5255 14.2801 32.6278C14.2015 32.7227 14.0956 32.7911 13.9769 32.8232C13.8583 32.8553 13.7337 32.8578 13.6139 32.8304C13.4881 32.804 13.3722 32.7433 13.2787 32.655C13.1892 32.5716 13.1266 32.4637 13.0979 32.3447C13.0664 32.2267 13.0638 32.1022 13.0909 31.983V31.983Z" fill="#2B2B2A"/>
<path d="M14.9591 31.632L15.8913 31.7585L15.8693 31.9236L15.1285 31.8233L14.9609 33.0582L14.7695 33.032L14.9591 31.632Z" fill="#2B2B2A"/>
<path d="M16.1396 32.5116C16.1225 32.6586 16.1643 32.806 16.2555 32.9222C16.4397 33.1301 16.7576 33.149 16.9654 32.9648C16.9656 32.9646 16.9658 32.9644 16.9662 32.964C17.073 32.8534 17.1325 32.706 17.1325 32.5524C17.1416 32.449 17.1272 32.3451 17.0905 32.2481C17.0584 32.1635 17.0018 32.0904 16.9275 32.0381C16.8523 31.9858 16.764 31.9556 16.6724 31.9516C16.5423 31.9415 16.4132 31.9825 16.3129 32.0663C16.1956 32.1841 16.1326 32.3453 16.1394 32.5116H16.1396V32.5116ZM15.9411 32.496C15.9417 32.293 16.0238 32.0993 16.1688 31.958C16.3088 31.8326 16.4951 31.7719 16.6819 31.7904C16.8089 31.7964 16.9322 31.8364 17.0384 31.9063C17.1403 31.9733 17.2202 32.0688 17.2682 32.1812C17.3186 32.3023 17.3398 32.4336 17.3298 32.5646C17.325 32.6982 17.2863 32.8279 17.2182 32.9428C17.1556 33.0486 17.0617 33.1324 16.9497 33.183C16.8375 33.2345 16.7142 33.2571 16.5913 33.2489C16.4624 33.2435 16.3378 33.202 16.2308 33.1301C16.1291 33.0609 16.0496 32.964 16.002 32.8507C15.9539 32.7389 15.9331 32.6173 15.9411 32.496V32.496Z" fill="#2B2B2A"/>
<path d="M18.5092 33.2649L18.416 31.8554L18.7055 31.8367L19.1149 32.8127C19.1528 32.9037 19.181 32.9717 19.1989 33.0164C19.2125 32.9641 19.2323 32.8867 19.2613 32.7854L19.5446 31.7811L19.8026 31.7644L19.8957 33.1739L19.7108 33.1864L19.6323 32.0069L19.2875 33.2144L19.1141 33.2258L18.6147 32.0528L18.6941 33.2538L18.5092 33.2649V33.2649Z" fill="#2B2B2A"/>
<path d="M20.4431 33.0978L20.2539 31.6978L20.4452 31.6715L20.6344 33.0715L20.4431 33.0978Z" fill="#2B2B2A"/>
<path d="M22.0912 32.3037L22.2886 32.3109C22.2869 32.4528 22.2363 32.5895 22.1457 32.6986C22.0541 32.802 21.9295 32.871 21.7935 32.8942C21.6639 32.9265 21.5279 32.9212 21.4008 32.8796C21.289 32.8364 21.1937 32.7596 21.127 32.6601C21.0523 32.5533 21.0008 32.4324 20.9755 32.3048C20.946 32.1747 20.9485 32.0388 20.9829 31.9097C21.0152 31.7942 21.0823 31.6914 21.175 31.6151C21.2699 31.537 21.3825 31.4839 21.5032 31.4604C21.6306 31.4296 21.7642 31.4411 21.8845 31.4928C21.9987 31.5459 22.092 31.6361 22.1488 31.7487L21.9722 31.8292C21.9312 31.747 21.8651 31.6805 21.783 31.6389C21.7037 31.6054 21.6154 31.5978 21.5318 31.618C21.4338 31.6344 21.3432 31.6805 21.2724 31.7507C21.2108 31.8154 21.1717 31.8986 21.1608 31.9879C21.1482 32.0795 21.1517 32.1722 21.1704 32.2626C21.1896 32.3684 21.2289 32.4693 21.2862 32.5603C21.3337 32.6367 21.406 32.6941 21.491 32.7235C21.573 32.7517 21.6611 32.7571 21.7461 32.7392C21.8437 32.7221 21.932 32.671 21.9958 32.5953C22.0613 32.5127 22.0951 32.4091 22.0912 32.3037V32.3037Z" fill="#2B2B2A"/>
<path d="M23.1217 32.537L22.7585 31.3448L22.3 31.4844L22.252 31.3246L23.3552 30.9894L23.4033 31.1492L22.9424 31.2888L23.3055 32.481L23.1217 32.537Z" fill="#2B2B2A"/>
<path d="M24.1282 31.5776L24.5815 31.3843L24.289 31.0835C24.2004 30.9925 24.1302 30.9165 24.079 30.8546C24.0977 30.9466 24.109 31.0401 24.1125 31.1341L24.1282 31.5776ZM23.9692 32.276L23.9297 30.7566L24.121 30.6752L25.2224 31.7419L25.0207 31.8276L24.6966 31.5006L24.1366 31.7388L24.1576 32.1955L23.9692 32.276V32.276Z" fill="#2B2B2A"/>
<path d="M5.25483 18.5839C5.24278 18.7931 5.26786 19.0029 5.32911 19.2034C5.32911 19.2743 5.48156 19.2034 5.48156 19.3517C5.15858 19.4478 4.8358 19.3475 4.50855 19.3517C4.50855 19.3517 4.50856 19.2034 4.58711 19.2034H4.65808C4.72478 18.5257 4.75103 17.845 4.73664 17.1642V16.4181C4.73664 16.1947 4.80664 16.0473 4.73664 15.8978H4.06483C4.06055 16.5928 3.99055 17.2863 3.99055 17.9844V18.7305C3.99055 18.8048 3.98628 18.931 3.98628 19.0377C3.98628 19.1861 4.18694 19.1643 4.13872 19.3241C4.10528 19.4316 3.67789 19.4171 3.46711 19.3762C3.39283 19.3618 3.39691 19.3241 3.39691 19.2539C3.39691 19.1754 3.46711 19.1754 3.54528 19.1056V17.0892C3.58066 16.6668 3.58066 16.242 3.54528 15.8196C3.46672 15.8196 3.31836 15.8196 3.31836 15.7487C3.39692 15.6003 3.61508 15.6703 3.76364 15.6703H5.33106C5.4835 15.6703 5.40533 15.897 5.25658 15.897V18.5819L5.25483 18.5839V18.5839Z" fill="#2B2B2A"/>
<path d="M7.15983 15.999C7.08555 15.9583 7.08555 15.9583 7.00739 15.9206C6.82791 15.908 6.64786 15.9348 6.47966 15.999C6.4013 16.0699 6.41297 16.1851 6.41297 16.3554C6.41297 16.5675 6.4015 16.6784 6.4015 16.8267C6.4015 17.0566 6.48005 17.209 6.4015 17.3614C6.54344 17.4252 6.69958 17.4495 6.85397 17.4326C6.85397 17.3614 6.85397 17.209 6.93252 17.209C7.01108 17.209 7.0068 17.209 7.08516 17.2835C7.00661 17.4316 7.15925 17.8927 7.00661 17.8927C7.00661 17.8927 6.85397 17.8141 6.85397 17.74V17.6615H6.47811C6.43163 17.9152 6.42444 18.1746 6.45594 18.4305C6.45594 18.6605 6.47811 18.9539 6.47811 19.1023C6.67352 19.1637 6.87866 19.1886 7.08302 19.1766C7.23566 19.1023 7.08302 18.8758 7.23566 18.8015C7.38811 18.8015 7.38811 19.0253 7.38811 19.1766C7.38811 19.2551 7.30955 19.329 7.23566 19.4064H6.85261C6.44797 19.4171 6.04255 19.3909 5.64258 19.3281V19.1754H5.94688C5.98597 18.748 5.98597 18.3179 5.94688 17.8905V15.9962H5.64316V15.8438C5.94727 15.7652 6.24827 15.7652 6.55316 15.6912H7.31072C7.35369 15.7318 7.3815 15.7853 7.38927 15.8438C7.38927 15.9962 7.54172 16.2971 7.23664 16.2971C7.15983 16.2224 7.23761 16.0699 7.15983 15.999V15.999Z" fill="#2B2B2A"/>
<path d="M8.42702 17.4846C8.50927 17.5579 8.6271 17.577 8.72782 17.5326C8.8826 17.4302 8.99616 17.2762 9.04768 17.0979C9.09435 16.9516 9.11341 16.798 9.10368 16.6446C9.10466 16.4262 9.06052 16.21 8.97399 16.0094C8.89252 16.0094 8.81416 15.9279 8.66249 15.9279H8.42741C8.38657 16.3168 8.38657 16.7086 8.42741 17.0971L8.42702 17.4846V17.4846ZM8.66113 19.3559C8.35021 19.3954 8.03579 19.3954 7.72488 19.3559C7.68015 19.3153 7.65099 19.2603 7.6434 19.2004C7.72488 19.122 7.72488 19.122 7.87732 19.122C7.95899 19.0476 7.90532 18.8617 7.90532 18.7468C7.90104 18.2379 7.92399 17.8669 7.92399 17.4731C7.92399 17.3205 7.94265 17.1243 7.92399 16.8754C7.9096 16.7049 7.92827 16.6047 7.92399 16.2851C7.92399 16.1735 7.94615 16.0696 7.87168 16.0395C7.77563 15.9989 7.73207 16.0469 7.64827 15.9728C7.49582 15.8913 7.62027 15.8172 7.70057 15.743C8.06846 15.6936 8.44024 15.6772 8.81104 15.6949C8.8896 15.6949 8.85615 15.6763 8.97088 15.6949C9.27518 15.743 9.51318 16.1632 9.59155 16.5526C9.60924 16.7638 9.58241 16.9765 9.51318 17.1764C9.43871 17.4105 9.20577 17.5674 9.04496 17.7187C8.8754 17.7911 8.69029 17.8194 8.50674 17.801C8.46338 17.8014 8.42838 17.8362 8.42818 17.8795C8.4241 17.9462 8.42818 18.1136 8.42818 18.1868C8.38735 18.4977 8.38735 18.8125 8.42818 19.123C8.66113 19.122 8.81396 19.2004 8.66113 19.3559V19.3559Z" fill="#2B2B2A"/>
<path d="M12.6438 16.4817V17.569L12.6158 17.9221L12.6438 18.271V19.165C12.7922 19.165 12.8705 19.3916 12.7181 19.3916H11.2632C11.1676 19.4048 11.0704 19.4073 10.9741 19.3989C10.6603 19.3908 10.3466 19.4046 10.0347 19.4396C9.95308 19.3653 9.89669 19.3653 9.93441 19.2162C9.95619 19.1125 9.96474 19.0066 9.96066 18.9006C9.98341 18.5026 9.98574 18.1037 9.96786 17.7053L10.0013 17.5121C10.0013 17.2822 10.0349 17.0512 10.0349 16.8255C10.0365 16.5626 9.99877 16.3009 9.92313 16.0492C9.92313 15.975 9.84886 15.975 9.76758 15.9009V15.7453H9.84905C10.0857 15.7204 10.3237 15.7111 10.5617 15.7173C10.636 15.7247 10.6212 15.7319 10.6212 15.8217C10.5469 15.9775 10.4728 15.9775 10.4728 16.0518C10.4728 16.3483 10.4656 16.6419 10.4582 16.9316C10.4542 17.0654 10.4699 17.1992 10.4656 17.3328C10.4614 17.4924 10.4376 17.6484 10.4376 17.8076C10.4304 18.2087 10.4336 18.6204 10.4639 19.0589C10.4639 19.1335 10.4598 19.1302 10.5456 19.1335C10.6239 19.1378 10.6198 19.1335 10.6937 19.1335C10.6937 19.1335 11.0138 19.1378 11.1098 19.1335C11.1279 18.7472 11.1229 18.3606 11.0952 17.9748V15.9584C11.0167 15.8875 10.9469 15.8875 10.9469 15.8101C10.9469 15.7391 10.9426 15.7025 11.0179 15.6878C11.2298 15.6469 11.608 15.6318 11.6416 15.7401C11.6897 15.8997 11.489 15.8779 11.489 16.0263C11.489 16.1338 11.4933 16.2604 11.4933 16.3335V16.6011L11.5211 17.0796C11.5211 17.3209 11.4618 17.5624 11.4732 17.8037C11.4804 17.9227 11.5211 18.045 11.5291 18.1667C11.5477 18.502 11.5668 18.8354 11.5668 19.1656H12.1645C12.2345 19.0172 12.1645 18.8691 12.1645 18.6453V17.9015C12.1645 17.7339 12.2011 17.5597 12.2011 17.3853C12.1968 17.1698 12.1561 16.9548 12.1487 16.7469C12.1608 16.451 12.14 16.1544 12.0863 15.863H12.0161C11.9376 15.863 11.9376 15.7146 11.9376 15.7146C12.2646 15.7189 12.5499 15.6185 12.874 15.7146C12.874 15.863 12.7214 15.7932 12.7214 15.863C12.6586 16.0629 12.6323 16.2725 12.6438 16.4817V16.4817Z" fill="#2B2B2A"/>
<path d="M13.8389 16.9874C13.8389 17.0583 13.768 17.2946 13.768 17.3844C13.9688 17.4379 14.1767 17.4614 14.3843 17.4544V16.9864C14.3746 16.7181 14.3246 16.4528 14.236 16.1995C14.2368 16.1565 14.2023 16.1211 14.1592 16.1209C14.1578 16.1209 14.1563 16.1209 14.1545 16.1209L14.073 16.1995C13.9988 16.4305 13.9173 16.6749 13.8389 16.9874V16.9874ZM14.3853 17.6885C14.237 17.6885 13.9988 17.61 13.7687 17.61C13.6873 17.6885 13.6873 17.8441 13.6873 18.0111C13.6124 18.3712 13.5836 18.7389 13.6015 19.106C13.6873 19.177 13.7691 19.106 13.8385 19.177C13.8383 19.2289 13.8345 19.2808 13.8273 19.3326C13.59 19.4957 13.3662 19.3285 13.1397 19.4142L12.9766 19.2585C13.0335 19.1813 13.117 19.127 13.2107 19.106C13.2921 19.106 13.2921 19.0277 13.2921 18.9462C13.3666 18.4714 13.4448 17.7731 13.5222 17.2203C13.5268 17.0025 13.5828 16.7888 13.6853 16.5965C13.7658 16.3142 13.8967 16.0488 14.0719 15.8131C14.0719 15.8131 14.235 15.6455 14.3841 15.7316C14.5671 15.8592 14.6863 16.0595 14.7112 16.2813C14.7746 16.4132 14.8152 16.5547 14.8302 16.7002C14.9045 17.3168 14.942 18.0105 15.012 18.7094V19.1842C15.012 19.2552 15.1751 19.34 15.012 19.4183L14.916 19.3963C14.7604 19.3963 14.6266 19.4183 14.4668 19.4183C14.3853 19.4257 14.2589 19.4591 14.2589 19.3903C14.2589 19.3088 14.3855 19.1041 14.4668 19.1041C14.4827 18.6306 14.4553 18.157 14.3853 17.6885V17.6885Z" fill="#2B2B2A"/>
<path d="M19.0183 18.5839C19.0063 18.7931 19.0315 19.0029 19.0926 19.2034C19.0926 19.2743 19.2452 19.2034 19.2452 19.3517C18.9223 19.4478 18.5993 19.3475 18.2722 19.3517C18.2722 19.3517 18.2722 19.2034 18.3508 19.2034H18.4218C18.4884 18.5257 18.5147 17.845 18.5003 17.1642V16.4181C18.5003 16.1947 18.5703 16.0473 18.5003 15.8978H17.8285C17.8242 16.5928 17.7542 17.2863 17.7542 17.9844V18.7305C17.7542 18.8048 17.7499 18.931 17.7499 19.0377C17.7499 19.1861 17.9504 19.1643 17.9024 19.3241C17.8689 19.4316 17.4416 19.4171 17.2308 19.3762C17.1565 19.3618 17.1606 19.3241 17.1606 19.2539C17.1606 19.1754 17.2308 19.1754 17.3089 19.1056V17.0892C17.3443 16.6668 17.3443 16.242 17.3089 15.8196C17.2304 15.8196 17.082 15.8196 17.082 15.7487C17.1606 15.6003 17.3788 15.6703 17.5271 15.6703H19.0943C19.247 15.6703 19.1686 15.897 19.0201 15.897V18.5819L19.0183 18.5839V18.5839Z" fill="#2B2B2A"/>
<path d="M20.9223 15.999C20.8481 15.9583 20.8481 15.9583 20.7699 15.9206C20.5902 15.908 20.4104 15.9348 20.2422 15.999C20.1638 16.0699 20.1755 16.1851 20.1755 16.3554C20.1755 16.5675 20.164 16.6784 20.164 16.8267C20.164 17.0566 20.2426 17.209 20.164 17.3614C20.3061 17.4252 20.4627 17.4497 20.6174 17.4326C20.6174 17.3614 20.6174 17.209 20.6958 17.209C20.7744 17.209 20.7703 17.209 20.8484 17.2835C20.7699 17.4316 20.9227 17.8927 20.7699 17.8927C20.7699 17.8927 20.6174 17.8141 20.6174 17.74V17.6615H20.2422C20.1959 17.9152 20.1883 18.1746 20.2202 18.4305C20.2202 18.6605 20.2422 18.9539 20.2422 19.1023C20.4378 19.1637 20.6427 19.1886 20.8473 19.1766C20.9997 19.1023 20.8473 18.8758 20.9997 18.8015C21.1524 18.8015 21.1524 19.0253 21.1524 19.1766C21.1524 19.2551 21.0738 19.329 20.9997 19.4064H20.6174C20.2124 19.4171 19.807 19.3905 19.4064 19.3281V19.1754H19.7108C19.75 18.748 19.75 18.3179 19.7108 17.8905V15.9962H19.4062V15.8438C19.7104 15.7652 20.0114 15.7652 20.3163 15.6912H21.0738C21.1166 15.7318 21.1444 15.7853 21.1524 15.8438C21.1524 15.9962 21.3048 16.2971 20.9997 16.2971C20.9223 16.2224 20.9995 16.0699 20.9223 15.999V15.999Z" fill="#2B2B2A"/>
<path d="M22.7775 16.7603C22.7033 16.913 22.6247 17.0611 22.5508 17.2095C22.5508 17.288 22.5508 17.288 22.6249 17.288C22.7035 17.3623 22.8485 17.4364 22.9259 17.5115C23.1526 17.8123 23.1526 18.2657 23.2267 18.64C23.2267 18.7925 23.1524 18.9365 23.2267 19.0151C23.2267 19.0894 23.397 19.1547 23.397 19.2348C23.3924 19.2865 23.3741 19.3369 23.3447 19.3799C23.118 19.3799 22.8026 19.3913 22.6541 19.3913C22.6113 19.3544 22.5998 19.293 22.6261 19.243L22.7787 19.0905C22.8487 18.9379 22.7787 18.7938 22.7787 18.6414V18.1137C22.7787 17.8902 22.7044 17.5861 22.5518 17.5117C22.41 17.4378 22.2407 17.4378 22.0985 17.5117C21.9459 17.6643 22.0243 18.1137 22.0243 18.4104C22.0243 18.5628 21.9457 18.64 21.9457 18.7927V19.0894C22.0982 19.1637 22.1755 19.3128 22.0243 19.3902C21.8008 19.3116 21.649 19.4645 21.4265 19.3902C21.348 19.3116 21.348 19.3116 21.348 19.2418C21.4265 19.1635 21.4963 19.1635 21.4963 19.0894V18.1117C21.4963 18.1117 21.5035 18.1076 21.5035 18.0302L21.4963 17.96C21.531 17.837 21.5568 17.7115 21.5747 17.585C21.5897 17.1327 21.5636 16.6802 21.4963 16.233V16.0096C21.4262 16.0096 21.348 16.0096 21.348 15.931C21.2737 15.931 21.2885 15.7679 21.3408 15.7158C21.3929 15.6635 21.4804 15.7084 21.6342 15.7084C21.7882 15.7084 22.1765 15.6341 22.1765 15.8567C22.1765 15.931 22.098 15.931 22.0239 16.0092C22.0239 16.3059 22.0982 16.5369 22.0982 16.8336C22.0982 16.912 22.0239 17.0603 22.0982 17.1344C22.3859 17.0246 22.5893 16.7642 22.6259 16.4583C22.6259 16.3059 22.7044 16.1618 22.7044 16.0092H22.5518C22.5518 15.9308 22.4734 15.9308 22.4734 15.8567C22.5518 15.7084 22.7775 15.7825 22.9259 15.7084C23.1526 15.7826 23.0743 16.0092 22.9259 16.0092C22.9181 16.2662 22.8683 16.5198 22.7775 16.7603Z" fill="#2B2B2A"/>
<path d="M24.3809 16.9874C24.3809 17.0583 24.3109 17.2946 24.3109 17.3844C24.5118 17.4379 24.7196 17.4614 24.9273 17.4544V16.9864C24.9176 16.7181 24.8676 16.4528 24.7789 16.1995C24.7795 16.1565 24.7453 16.1211 24.7023 16.1209C24.7006 16.1209 24.6992 16.1209 24.6975 16.1209L24.616 16.1995C24.5408 16.4305 24.4593 16.6749 24.3807 16.9874H24.3809ZM24.9273 17.6885C24.7789 17.6885 24.5408 17.61 24.3109 17.61C24.2293 17.6885 24.2293 17.8441 24.2293 18.0111C24.1544 18.3712 24.1258 18.7389 24.1435 19.106C24.2293 19.177 24.3111 19.106 24.3807 19.177C24.3805 19.2289 24.3765 19.2808 24.3693 19.3326C24.1322 19.4957 23.9084 19.3285 23.6827 19.4142L23.5195 19.2585C23.5765 19.1813 23.6597 19.127 23.7536 19.106C23.8355 19.106 23.8355 19.0277 23.8355 18.9462C23.9096 18.4714 23.9878 17.7731 24.0651 17.2203C24.0698 17.0025 24.126 16.7888 24.2283 16.5965C24.3086 16.3142 24.4398 16.0488 24.6148 15.8131C24.6148 15.8131 24.7782 15.6455 24.9261 15.7316C25.1093 15.8592 25.2285 16.0595 25.2534 16.2813C25.3174 16.4128 25.3578 16.5547 25.3724 16.7002C25.4467 17.3168 25.484 18.0105 25.5542 18.7094V19.1842C25.5542 19.2552 25.7173 19.34 25.5542 19.4183L25.4581 19.3963C25.3026 19.3963 25.1686 19.4183 25.009 19.4183C24.9273 19.4257 24.8011 19.4591 24.8011 19.3903C24.8011 19.3088 24.9277 19.1041 25.009 19.1041C25.0247 18.6306 24.9977 18.157 24.9273 17.6885V17.6885Z" fill="#2B2B2A"/>
<path d="M26.7114 17.4846C26.7934 17.5579 26.9111 17.577 27.0122 17.5326C27.167 17.4302 27.2803 17.2762 27.3321 17.0979C27.3787 16.9516 27.398 16.798 27.3879 16.6446C27.389 16.4262 27.3449 16.21 27.2582 16.0094C27.1769 16.0094 27.0985 15.9279 26.9459 15.9279H26.712C26.6711 16.3168 26.6711 16.7086 26.712 17.0971L26.7114 17.4846V17.4846ZM26.9443 19.3559C26.6334 19.3954 26.3188 19.3954 26.0081 19.3559C25.9634 19.3153 25.9342 19.2603 25.9264 19.2004C26.0081 19.122 26.0081 19.122 26.1605 19.122C26.242 19.0476 26.1885 18.8617 26.1885 18.7468C26.1842 18.2379 26.2072 17.8669 26.2072 17.4731C26.2072 17.3205 26.2259 17.1243 26.2072 16.8754C26.1926 16.7049 26.2113 16.6047 26.2072 16.2851C26.2072 16.1735 26.2292 16.0696 26.1549 16.0395C26.0588 15.9989 26.0153 16.0469 25.9315 15.9728C25.779 15.8913 25.9035 15.8172 25.9838 15.743C26.3515 15.6936 26.7234 15.6772 27.0942 15.6949C27.1728 15.6949 27.1394 15.6763 27.2541 15.6949C27.5582 15.743 27.7962 16.1632 27.8736 16.5526C27.8911 16.7638 27.8644 16.9765 27.7952 17.1764C27.7207 17.4105 27.4878 17.5674 27.327 17.7187C27.1561 17.7916 26.9694 17.8194 26.7849 17.8002C26.7415 17.8006 26.7065 17.8354 26.7063 17.8786C26.7021 17.9454 26.7063 18.1129 26.7063 18.186C26.6655 18.4969 26.6655 18.8117 26.7063 19.1222C26.9443 19.122 27.0972 19.2004 26.9443 19.3559V19.3559Z" fill="#2B2B2A"/>
<path d="M29.976 16.6124V17.8934C29.976 18.2716 30.0546 18.7291 30.0546 19.1034C30.1288 19.1777 30.207 19.1777 30.207 19.2558V19.4083C30.207 19.4083 30.185 19.3416 30.1327 19.3939C30.0964 19.4089 30.0571 19.4153 30.018 19.4126C29.9394 19.4126 29.9031 19.4083 29.7503 19.4083C29.6719 19.4083 29.6427 19.4126 29.5716 19.4126C29.4973 19.3383 29.5266 19.3311 29.5996 19.257C29.5996 19.1784 29.7477 19.1784 29.7477 19.1046C29.7851 18.4751 29.7851 17.844 29.7477 17.2142C29.7489 17.1718 29.7153 17.1366 29.6727 17.1358C29.6715 17.1358 29.6705 17.1358 29.6694 17.1358C29.4193 17.0987 29.1652 17.0987 28.9151 17.1358C28.7856 17.2816 28.7298 17.4786 28.7627 17.6707V18.7279C28.8412 18.8806 28.7627 18.9513 28.8412 19.103C28.9155 19.103 29.0679 19.2556 28.9155 19.3299C28.6658 19.3692 28.4113 19.3692 28.1613 19.3299C28.1613 19.3299 28.0827 19.1775 28.1613 19.103H28.3139V16.5332C28.2353 16.3808 28.3139 16.1541 28.2353 16.0026C28.1766 15.9964 28.1218 15.9684 28.0827 15.924C28.0407 15.8826 28.0399 15.8149 28.0817 15.7726C28.0819 15.7724 28.0825 15.7722 28.0827 15.7716H28.387C28.5394 15.7716 28.7621 15.6973 28.9145 15.7716C28.9964 15.7772 29.0615 15.8422 29.0672 15.924C29.0672 16.0026 28.9145 16.0026 28.8403 16.0026C28.7615 16.0769 28.8403 16.155 28.8403 16.3067C28.8403 16.4584 28.7615 16.6861 28.8403 16.8344C29.1376 16.9087 29.4487 16.9087 29.7462 16.8344C29.7588 16.5548 29.7324 16.2748 29.6676 16.0026C29.5976 15.924 29.4442 16.0026 29.3711 15.924V15.7716C29.5082 15.6975 29.6666 15.6712 29.8203 15.6973C29.8967 15.7045 29.9735 15.7045 30.0501 15.6973C30.2025 15.7716 30.2025 16.0014 30.0501 16.0014C29.9828 16.1976 29.9575 16.4059 29.976 16.6124V16.6124Z" fill="#2B2B2A"/>
<path d="M31.5724 17.213L31.6004 17.0452C31.6224 16.6221 31.6339 16.2912 31.6339 15.9534C31.5028 15.9437 31.3714 15.9523 31.2428 15.9797C31.1283 16.0637 31.0566 16.1942 31.0472 16.3361C31.0323 16.4557 31.0323 16.5768 31.0472 16.6964C31.082 16.8971 31.1808 17.0808 31.3294 17.2198C31.42 17.2171 31.5059 17.2171 31.5724 17.2115V17.213V17.213ZM32.0844 16.1065C32.0844 16.5076 32.0887 16.8014 32.0581 17.1347C32.0438 17.3136 32.0844 18.3531 32.0844 17.818V19.1732C32.1705 19.1629 32.2567 19.19 32.3216 19.2475C32.24 19.4107 32.1661 19.4107 32.0018 19.4107C31.8023 19.3628 31.595 19.355 31.3926 19.3887C31.314 19.3887 31.3257 19.329 31.3257 19.2489C31.3257 19.1746 31.4855 19.1746 31.4855 19.0964C31.5462 18.9434 31.5717 18.7783 31.56 18.6138C31.56 18.3243 31.5713 17.8897 31.5526 17.5115C31.3928 17.43 31.2926 17.4707 31.1441 17.5858C31.0175 17.7303 30.9613 17.9237 30.9914 18.1135V18.6414C30.9914 18.7937 30.9205 18.9378 30.9914 19.0902L31.1441 19.2429C31.1701 19.2928 31.1585 19.3543 31.1161 19.391C30.9677 19.391 30.6185 19.3797 30.392 19.3797C30.3624 19.3366 30.3443 19.2866 30.3398 19.2347C30.3398 19.1559 30.5102 19.0892 30.5102 19.0148C30.5845 18.9364 30.5479 18.7182 30.5479 18.5658C30.5423 18.2014 30.62 17.8411 30.7746 17.5115C30.8192 17.4693 30.8658 17.4297 30.9144 17.3925C30.7738 17.2681 30.6683 17.1092 30.607 16.9317C30.545 16.7108 30.545 16.4767 30.607 16.2556C30.7188 15.7948 31.3688 15.6277 31.8515 15.7102C31.9255 15.7102 31.9518 15.7551 32.0301 15.7551C32.2717 15.7551 32.3749 15.7594 32.3749 15.9923C32.3739 16.073 32.24 16.1065 32.0844 16.1065Z" fill="#2B2B2A"/>
<path d="M26.5475 29.7677C26.9005 29.7677 27.1869 30.0539 27.1869 30.407C27.1869 30.7601 26.9005 31.0464 26.5475 31.0464C26.1944 31.0464 25.9082 30.7601 25.9082 30.407C25.9082 30.0539 26.1944 29.7677 26.5475 29.7677Z" fill="#2B2B2A"/>
<path d="M8.58465 29.7677C8.93776 29.7677 9.22398 30.0539 9.22398 30.407C9.22398 30.7601 8.93776 31.0464 8.58465 31.0464C8.23154 31.0464 7.94531 30.7601 7.94531 30.407C7.94531 30.0539 8.23154 29.7677 8.58465 29.7677Z" fill="#2B2B2A"/>
</svg>
