<svg xmlns="http://www.w3.org/2000/svg" fill="none" viewBox="0 0 112 149"><path fill="#252323" d="M108.258 102.062c-.116 0-.231-.007-.348-.022-.809-.102-2.269-.667-2.961-3.294l1.296-.341c.364 1.384 1.016 2.203 1.834 2.307.722.101 1.529-.407 1.996-1.243.694-1.24.465-2.778-.614-4.116-3.89-4.825-3.834-10.194-3.829-10.421l1.338.025c0 .05-.039 5.124 3.533 9.555 1.434 1.778 1.712 3.877.743 5.61-.675 1.208-1.821 1.94-2.988 1.94zM13.086 118.423s6.129-1.529 12.795-6.614c6.664-5.085-13.695-11.38-13.695-11.38l-1.696 7.506s-.606 5.448 0 5.569c.606.121 2.596 4.919 2.596 4.919z"/><path fill="#252323" d="M10.946 112.985c.396.288 1.092 1.232 2.53 4.63 1.632-.501 6.667-2.27 12-6.339 1.229-.937 1.097-1.679 1.053-1.922-.552-3.109-9.607-6.68-13.847-8.066l-1.537 6.793c-.206 1.891-.33 4.24-.199 4.904zm1.745 6.228l-.222-.534c-.781-1.882-1.832-4.092-2.242-4.549-.504-.138-1.02-.703-.4-6.269l1.868-8.287.693.215c1.494.462 14.628 4.652 15.46 9.33.212 1.188-.313 2.271-1.558 3.221-6.699 5.11-12.784 6.668-13.04 6.732l-.56.141z"/><path fill="#EF4BA2" d="M106.239 74.903H2.466a.503.503 0 0 0-.503.514l.883 35.323c0 1.271.63 2.542 1.888 3.268l7.569 4.365a.909.909 0 0 0 1.363-.786v-3.291a.909.909 0 0 1 1.363-.787l24.55 14.16a3.466 3.466 0 0 1 1.734 2.999v2.439a3.46 3.46 0 0 0 1.733 2.999l6.336 3.654a9 9 0 0 0 8.998 0l44.648-25.753a3.738 3.738 0 0 0 1.888-3.268l1.825-35.308a.502.502 0 0 0-.502-.528z"/><path fill="#252323" d="M14.573 112.715c.272 0 .542.071.79.215l24.55 14.16a4.145 4.145 0 0 1 2.068 3.578v2.439a2.8 2.8 0 0 0 1.398 2.419l6.336 3.656a8.366 8.366 0 0 0 8.329 0l44.647-25.753a3.074 3.074 0 0 0 1.554-2.689l1.816-35.167H2.635l.879 35.15c0 1.139.58 2.144 1.554 2.706l7.568 4.365a.23.23 0 0 0 .24 0 .233.233 0 0 0 .118-.207v-3.291c0-.571.296-1.082.79-1.367a1.57 1.57 0 0 1 .789-.214zm39.306 28.915a9.674 9.674 0 0 1-4.834-1.29l-6.337-3.656a4.143 4.143 0 0 1-2.067-3.577v-2.439c0-.994-.535-1.921-1.398-2.419l-24.55-14.161a.235.235 0 0 0-.239 0 .234.234 0 0 0-.12.208v3.291c0 .57-.295 1.08-.79 1.367a1.569 1.569 0 0 1-1.578-.002l-7.568-4.365a4.398 4.398 0 0 1-2.224-3.847L1.29 75.434a1.165 1.165 0 0 1 .334-.847c.223-.228.52-.354.84-.354h103.772c.32 0 .631.134.851.365.219.233.336.549.32.867l-1.823 35.309c0 1.571-.832 3.01-2.224 3.813L58.713 140.34a9.674 9.674 0 0 1-4.834 1.29z"/><path fill="#252323" d="M58.462 139.76l41.3-23.955 1.643-40.154-38.291-.748-8.673 5.63v60.4a8.972 8.972 0 0 0 4.021-1.173z"/><path fill="#252323" d="M55.115 80.895V140.2a8.14 8.14 0 0 0 3.015-1.018l40.98-23.772 1.601-39.104-37.401-.73-8.195 5.32zm-1.342 60.745V80.17l9.152-5.94 39.181.765-1.688 41.204-.317.185-41.3 23.957a9.588 9.588 0 0 1-4.32 1.262l-.708.037zM2.466 74.903a.503.503 0 0 0-.503.514l.883 35.323c0 1.271.63 2.542 1.888 3.268l1.62.933-.742-35.69 1.324-4.348h-4.47z"/><path fill="#252323" d="M2.635 75.572l.879 35.151c0 1.138.58 2.144 1.554 2.706l.59.339-.72-34.61 1.092-3.586H2.635zm4.411 40.543l-2.648-1.528a4.398 4.398 0 0 1-2.224-3.847L1.29 75.433a1.163 1.163 0 0 1 .334-.846c.223-.228.52-.355.84-.355h5.373L6.28 79.344l.765 36.771z"/><path fill="#fff" d="M104.825 78.258l-46.107 26.595a8.733 8.733 0 0 1-8.725 0L3.887 78.258c-2.586-1.491-2.586-5.22 0-6.71l46.107-26.595a8.732 8.732 0 0 1 8.725 0l46.106 26.595c2.586 1.49 2.586 5.219 0 6.71z"/><path fill="#252323" d="M54.354 44.458a8.07 8.07 0 0 0-4.027 1.073L4.22 72.127a3.17 3.17 0 0 0-1.605 2.776c0 1.157.6 2.197 1.605 2.776l46.106 26.595a8.09 8.09 0 0 0 8.055 0l46.107-26.596a3.172 3.172 0 0 0 1.605-2.775c0-1.158-.6-2.197-1.605-2.776L58.381 45.531a8.07 8.07 0 0 0-4.027-1.073zm0 62.228a9.395 9.395 0 0 1-4.698-1.253L3.55 78.838a4.498 4.498 0 0 1-2.275-3.936 4.495 4.495 0 0 1 2.275-3.933l46.107-26.596a9.435 9.435 0 0 1 9.395 0l46.106 26.596a4.494 4.494 0 0 1 2.275 3.934 4.493 4.493 0 0 1-2.275 3.933l-46.106 26.597a9.402 9.402 0 0 1-4.698 1.253z"/><path fill="#252323" d="M48.662 139.835l-.517-35.458 1.34-.021.517 35.459-1.34.02z"/><path fill="#fff" d="M15.75 107.558l-3.504-2.022c-.539-.311-.976-1.146-.976-1.863v-6.478c0-.72.437-1.05.976-.739l3.504 2.022c.54.31.977 1.146.977 1.864v6.478c0 .719-.438 1.049-.977.738z"/><path fill="#252323" d="M11.947 97.058a.826.826 0 0 0-.01.135v6.48c0 .515.345 1.113.642 1.284l3.466 2a.821.821 0 0 0 .01-.136v-6.479c0-.514-.345-1.113-.642-1.284l-3.466-2zm4.19 11.285a1.46 1.46 0 0 1-.724-.206l-3.504-2.021c-.748-.43-1.311-1.481-1.311-2.443v-6.48c0-.622.244-1.12.672-1.368.388-.223.865-.205 1.31.053l3.503 2.02c.748.432 1.312 1.481 1.312 2.444v6.479c0 .624-.245 1.122-.673 1.368-.18.104-.378.154-.584.154z"/><path fill="#252323" d="M14.815 104.403l-2.518-1.454.67-1.157 2.518 1.452-.67 1.159z"/><path fill="#EF4BA2" d="M78.31 116.39l-.26-.446 24.928-14.378.257.447-24.926 14.377zM78.31 118.133l-.26-.446 24.928-14.378.257.447-24.926 14.377zM78.31 119.876l-.26-.447 24.928-14.378.257.447-24.926 14.378zM78.31 114.648l-.26-.446 24.928-14.38.257.448-24.926 14.378zM59.62 137.927l-1.03-.016.137-8.717 1.03.016-.137 8.717zM59.779 127.595l-1.031-.016.058-3.671 1.031.016-.058 3.671zM98.463 92.992l-1.031-.02.181-9.08 1.031.02-.181 9.08zM45.372 124.705c0 .87-.612 1.223-1.367.787-.755-.435-1.366-1.494-1.366-2.364 0-.871.611-1.224 1.365-.788.756.435 1.368 1.494 1.368 2.365z"/><path fill="#252323" d="M43.393 122.821a.057.057 0 0 0-.023.003c-.009.01-.062.097-.062.304 0 .634.482 1.468 1.03 1.785.184.104.284.1.3.094.009-.01.063-.098.063-.303 0-.634-.482-1.468-1.032-1.785a.6.6 0 0 0-.276-.098zm1.224 3.526a1.91 1.91 0 0 1-.948-.275c-.954-.551-1.702-1.844-1.702-2.944 0-.661.27-1.193.735-1.464.466-.269 1.062-.236 1.637.096.954.55 1.702 1.843 1.702 2.944 0 .66-.268 1.193-.736 1.464-.209.12-.442.179-.688.179z"/><path fill="#EF4BA2" d="M45.372 119.434c0 .871-.612 1.222-1.367.788-.755-.436-1.366-1.494-1.366-2.365 0-.871.611-1.224 1.365-.788.756.435 1.368 1.494 1.368 2.365z"/><path fill="#252323" d="M43.393 117.551c-.012 0-.02 0-.023.002-.009.01-.062.097-.062.304 0 .635.482 1.468 1.03 1.785.184.105.284.1.3.096.009-.011.063-.098.063-.304 0-.635-.482-1.469-1.032-1.786a.619.619 0 0 0-.276-.097zm1.224 3.525a1.9 1.9 0 0 1-.948-.275c-.954-.55-1.702-1.843-1.702-2.944 0-.661.27-1.193.735-1.464.466-.269 1.062-.236 1.637.097.954.549 1.702 1.842 1.702 2.944 0 .66-.268 1.193-.736 1.463-.209.12-.442.179-.688.179z"/><path fill="#fff" d="M71.251 73.155L39.936 91.218 20.369 79.931l31.316-18.063L71.25 73.155z"/><path fill="#252323" d="M21.706 79.932l18.227 10.513 29.975-17.29-18.227-10.513-29.975 17.29zM39.933 91.99L19.027 79.93l32.654-18.835 20.906 12.059L39.933 91.99z"/><path fill="#fff" d="M75.466 70.774l-31.394 18.06L24.584 77.55l31.315-18.063 19.567 11.286z"/><path fill="#252323" d="M25.918 77.55l18.15 10.51 30.051-17.288-18.224-10.511-29.977 17.29zm18.148 12.056L23.242 77.548l32.653-18.833 20.908 12.06-32.737 18.831z"/><path fill="#fff" d="M78.69 68.945L47.416 86.908 27.81 75.722l31.315-18.064L78.69 68.945z"/><path fill="#252323" d="M29.152 75.719l18.261 10.418 29.933-17.193-18.224-10.512-29.97 17.287zm18.264 11.96L26.46 75.726l32.661-18.839 20.907 12.06L47.416 87.68z"/><path fill="#EF4BA2" d="M61.604 39.936l-6.625-1.892a.421.421 0 0 0-.225-.001l-9.384 2.58a.413.413 0 0 0-.105.045c-.901.562-14.624 9.094-15.557 9.517-.964.439-9.906 4.03-10.344 4.38-.34.271-2.773-.328-3.857-.613a.415.415 0 0 0-.52.402v17.062c0 .547.361 1.095 1.087 1.513l4.047 2.335c1.557.898 4.106.898 5.665 0L49.559 61.55c1.557-.899 4.106-.899 5.665 0l10.21 5.89c.264.152.281.525.033.7l-4.584 3.235a.414.414 0 0 1-.12.058L52.29 73.99a.408.408 0 0 1-.12.019h-1.85a.417.417 0 0 0-.417.416l.02 17.279c.06.496.404.984 1.062 1.363l4.048 2.334c1.557.9 4.106.9 5.665 0L99.655 72.93c.724-.418 1.086-.966 1.086-1.513V54.105a.415.415 0 0 0-.277-.391l-38.835-13.77a.503.503 0 0 0-.025-.008z"/><path fill="#252323" d="M50.572 74.677l.021 17.025c.032.227.292.535.726.785l4.048 2.334c1.351.78 3.641.78 4.995 0L99.32 72.35c.477-.277.751-.618.751-.935v-17.13L61.414 40.576l-6.55-1.87-9.316 2.561c-1.425.9-14.587 9.083-15.562 9.528-.323.145-1.53.642-3.015 1.253-2.538 1.042-6.785 2.787-7.217 3.06-.236.19-.592.474-4.098-.426v16.732c0 .317.275.658.753.935l4.046 2.335c1.354.78 3.642.78 4.996 0L49.224 60.97c1.775-1.026 4.557-1.025 6.335 0l10.212 5.892a1.082 1.082 0 0 1 .082 1.825l-4.584 3.236c-.099.069-.203.118-.311.151l-8.476 2.555c-.1.031-.205.047-.313.047h-1.597zm7.293 22.072c-1.14 0-2.28-.257-3.168-.77l-4.048-2.333c-.808-.467-1.302-1.128-1.392-1.863l-.024-17.358c0-.598.488-1.086 1.086-1.086h1.85l8.4-2.544 4.19-2.971-9.872-5.694c-1.35-.78-3.64-.78-4.993 0L26.12 75.843c-1.776 1.025-4.559 1.025-6.336 0l-4.047-2.335c-.916-.528-1.422-1.272-1.422-2.093v-17.06c0-.34.155-.654.424-.86.267-.207.611-.276.937-.19 2.144.563 3.11.672 3.388.66.507-.297 2.31-1.065 7.396-3.153 1.463-.603 2.652-1.09 2.97-1.235.678-.308 9.629-5.836 15.48-9.477.087-.053.172-.091.273-.12l9.392-2.582c.194-.053.398-.053.588.003l6.676 1.908 38.849 13.775c.431.15.722.562.722 1.022v17.309c0 .821-.504 1.564-1.421 2.093L61.032 95.98c-.888.512-2.028.769-3.167.769z"/><path fill="#252323" d="M60.7 95.21L96.36 74.64V52.068l-7.565-2.684-30.5 25.178v21.299c.88-.055 1.734-.264 2.404-.651z"/><path fill="#252323" d="M58.964 74.876V95.11c.537-.096 1.019-.26 1.398-.478l35.325-20.377V52.539l-6.76-2.398-29.963 24.735zm-1.341 21.696V74.248l31.036-25.622 8.37 2.969v23.432L61.03 95.791c-.727.418-1.659.674-2.696.737l-.712.044zM23.4 75.78c.874-.055 1.724-.265 2.39-.65l23.773-13.712c.872-.504 2.056-.715 3.204-.653V38.458l-7.393 2.032a.39.39 0 0 0-.104.046c-.902.56-14.625 9.094-15.558 9.517-.545.247-3.644 1.505-6.312 2.613V75.78z"/><path fill="#252323" d="M24.068 53.112v21.916a4.3 4.3 0 0 0 1.385-.477L49.226 60.84c.774-.446 1.792-.709 2.869-.75V39.338l-6.545 1.8c-1.425.9-14.587 9.082-15.562 9.525-.319.145-1.498.63-2.957 1.229l-2.963 1.221zm-1.34 23.382V52.219l.413-.171c1.125-.468 2.327-.961 3.381-1.394a174.71 174.71 0 0 0 2.91-1.21c.68-.308 9.63-5.836 15.481-9.476.087-.053.172-.091.273-.12l8.249-2.27V61.47l-.706-.037c-1.076-.063-2.111.148-2.833.564L26.123 75.71c-.722.416-1.65.672-2.681.738l-.713.046z"/><path fill="#fff" d="M16.074 55.325l4.254 2.455c1.45.836 3.8.836 5.248 0l24.19-13.953c1.45-.836 3.8-.836 5.248 0l20.16 11.628c1.45.836 1.45 2.192 0 3.028l-24.19 13.952c-1.449.836-1.449 2.192 0 3.028l4.255 2.455c1.449.836 3.8.836 5.249 0l39.166-22.593c1.449-.836 1.449-2.19 0-3.027l-39.166-22.59c-1.449-.837-3.799-.837-5.249 0l-39.165 22.59c-1.45.837-1.45 2.191 0 3.027z"/><path fill="#252323" d="M52.39 42.53c1.066 0 2.13.239 2.96.718l20.16 11.628c.916.528 1.421 1.273 1.421 2.093-.001.821-.505 1.564-1.421 2.093L51.319 73.015c-.477.276-.752.617-.752.935 0 .317.275.658.752.934l4.256 2.453c1.24.717 3.338.717 4.578 0l39.167-22.59c.477-.276.751-.617.751-.936 0-.317-.274-.658-.751-.933L60.153 30.286c-1.239-.715-3.337-.716-4.577 0L16.409 52.878c-.478.276-.753.617-.753.934 0 .318.275.659.752.933l.001.001 4.255 2.455c1.24.715 3.337.715 4.578 0l24.19-13.953c.829-.48 1.894-.719 2.959-.719zm5.474 36.686c-1.064 0-2.13-.24-2.96-.72l-4.255-2.454c-.916-.527-1.422-1.272-1.422-2.092 0-.821.506-1.566 1.422-2.093l24.19-13.953c.478-.276.751-.617.751-.935 0-.318-.273-.658-.751-.935l-20.16-11.628c-1.239-.715-3.338-.715-4.578 0l-24.19 13.952c-1.658.96-4.257.96-5.917 0l-4.256-2.454c-.916-.527-1.422-1.27-1.422-2.092 0-.82.505-1.564 1.422-2.093l39.167-22.592c1.66-.958 4.26-.957 5.918 0L99.99 51.719c.917.528 1.421 1.272 1.421 2.092 0 .822-.504 1.566-1.421 2.093L60.823 78.496c-.828.48-1.894.72-2.96.72z"/><path fill="#EF4BA2" d="M101.48 37.086h-5.511l-.528 4.142-35.938-20.73c-2.324-1.34-6.092-1.34-8.414 0L22.406 37.097l.302-4.49h-9.825L8.256 43.234h-.909L2.695 53.921l-1.603 3.69c-.251.657.06 1.37.944 1.882l24.43 14.091c1.374.792 3.622.792 4.997 0l6.086-3.51c1.375-.793 3.624-.793 4.999 0l1.736 1.001c.23.132.406.282.56.436l-1.558 3.633c-.184.629.157 1.212.998 1.697l5.203 3c2.314 1.336 6.1 1.336 8.414 0l.791-.455 11.704-6.751 35.469-20.542c1.137-.655 1.709-1.511 1.733-2.37l.232-10.734a.278.278 0 0 0-.206-.274l-6.144-1.63z"/><path fill="#252323" d="M40.05 68.805c1.02 0 2.039.23 2.834.688l1.736 1.003c.254.145.476.319.701.545l.315.32-1.734 4.047c-.062.225.17.538.717.853l5.204 3.002c2.1 1.21 5.645 1.211 7.744 0l12.495-7.207 35.467-20.542c.885-.51 1.381-1.152 1.401-1.81l.224-10.421-5.76-1.527h-4.833l-.581 4.555-36.811-21.233c-2.1-1.21-5.644-1.21-7.744 0l-29.77 17.228.337-5.029h-8.67L8.696 43.902h-.908l-6.08 13.976c-.183.48.403.885.665 1.036l24.428 14.09c1.172.676 3.155.677 4.328 0l6.086-3.51c.795-.459 1.815-.689 2.834-.689zm13.646 12.7c-1.646 0-3.29-.362-4.543-1.084l-5.203-3.002c-1.51-.87-1.467-1.915-1.307-2.461l1.389-3.253-.08-.05-1.74-1.003c-1.172-.677-3.154-.676-4.327 0l-6.086 3.51c-1.588.918-4.078.918-5.668 0L1.703 60.072c-1.146-.66-1.62-1.695-1.235-2.7L6.91 42.565h.907l4.626-10.625h10.981l-.265 3.949 27.593-15.969c2.55-1.47 6.538-1.47 9.087 0l35.065 20.226.476-3.727 6.273.02 6.145 1.63a.943.943 0 0 1 .702.937l-.231 10.732c-.033 1.145-.767 2.185-2.068 2.936l-47.964 27.75c-1.252.72-2.898 1.082-4.541 1.082z"/><path fill="#252323" d="M34.796 42.917c-.263 0-5.954 4.466-5.954 4.466v1.664l6.563 10.76-6.562 14.366c.946.02 1.901-.172 2.622-.589l6.086-3.51c.606-.35 1.376-.536 2.166-.58l6.917-14.367-4.474-11.76s-7.1-.45-7.364-.45z"/><path fill="#252323" d="M29.51 48.86l6.65 10.901-6.239 13.66a3.763 3.763 0 0 0 1.206-.417l6.087-3.51c.57-.33 1.278-.546 2.063-.634l6.625-13.763-4.218-11.09c-2.535-.159-5.957-.374-6.742-.415-.658.419-3.42 2.54-5.431 4.118v1.15zm-.54 25.984l-.143-.001-1.018-.021 6.838-14.97-6.476-10.616v-2.177l.256-.201c5.872-4.612 6.09-4.612 6.367-4.612.27 0 6.216.378 7.406.454l.43.027 4.73 12.432-7.213 14.983-.396.022c-.725.038-1.389.212-1.866.488l-6.088 3.51c-.764.443-1.764.682-2.826.682zM95.44 41.227l-1.391-.802-20.333 4.155s-13.587 9.635-13.675 9.985c-.087.35-.876 6.218-.876 6.218l.525 5.69-6.405 14.352c1.657.065 3.35-.252 4.617-.983l.79-.456 11.704-6.751 33.277-19.272V38.458l-8.09 1.653-.142 1.117z"/><path fill="#252323" d="M59.838 60.797l.535 5.788-6.052 13.56c1.235-.077 2.382-.385 3.245-.882l12.494-7.207 32.942-19.08V39.278l-6.816 1.394-.208 1.638-2.044-1.178-19.946 4.076c-4.755 3.372-12.253 8.751-13.326 9.678-.126.774-.552 3.893-.824 5.911zm-6.119 20.706c-.153 0-.306-.004-.46-.01l-.99-.039 6.737-15.094-.517-5.591.01-.076c.187-1.384.801-5.932.891-6.29.077-.303.148-.59 13.938-10.369l.115-.081 20.72-4.235.74.426.076-.592 9.364-1.914v16.111L58.235 80.422c-1.216.703-2.806 1.08-4.516 1.08z"/><path fill="#fff" d="M14.38 35.85c1.375.792 1.375 2.09 0 2.883l-6.085 3.51c-1.375.794-1.375 2.09 0 2.883l24.429 14.092c1.374.792 3.623.792 4.997 0l6.087-3.511c1.374-.793 3.624-.793 4.998 0l1.736 1.001c1.374.793 1.374 2.09 0 2.883-1.374.792-1.374 2.09 0 2.883l5.203 3c2.314 1.336 6.1 1.336 8.414 0l.791-.455 11.704-6.751 29.451-16.945c2.324-1.34 2.324-3.514 0-4.854L59.743 9.728c-2.324-1.341-6.09-1.341-8.414 0L14.381 30.996c-2.323 1.341-2.323 3.514 0 4.854z"/><path fill="#252323" d="M46.3 54.44c1.02 0 2.038.23 2.834.686l1.737 1.002c.867.501 1.364 1.239 1.364 2.021 0 .783-.496 1.52-1.364 2.022-.443.254-.697.568-.697.86 0 .293.254.608.697.864l5.202 3c2.1 1.21 5.645 1.212 7.744 0l41.947-24.151c.907-.524 1.407-1.181 1.407-1.848 0-.668-.5-1.324-1.408-1.847L59.401 10.307c-2.102-1.212-5.648-1.21-7.744 0l-36.948 21.27c-.907.523-1.408 1.18-1.408 1.846 0 .668.5 1.324 1.408 1.847.867.5 1.366 1.238 1.366 2.02 0 .785-.497 1.52-1.366 2.022l-6.087 3.511c-.44.256-.695.57-.695.862 0 .293.254.608.695.862l24.43 14.092c1.173.674 3.154.675 4.328-.002l6.086-3.51c.794-.458 1.814-.687 2.834-.687zm13.646 12.7c-1.645 0-3.29-.364-4.543-1.086l-5.202-3c-.87-.502-1.366-1.238-1.366-2.022 0-.784.498-1.52 1.366-2.02.441-.255.694-.57.694-.863 0-.292-.253-.607-.694-.861l-1.738-1.002c-1.17-.677-3.156-.677-4.328 0l-6.086 3.51c-1.588.917-4.078.917-5.667 0l-24.43-14.09c-.867-.5-1.365-1.238-1.364-2.021 0-.784.497-1.52 1.366-2.02l6.085-3.511c.442-.256.696-.57.696-.863 0-.292-.254-.607-.696-.861-1.339-.773-2.078-1.841-2.078-3.007 0-1.166.74-2.233 2.078-3.006l36.95-21.27c2.544-1.468 6.534-1.467 9.082 0l46.362 26.743c1.34.772 2.077 1.84 2.077 3.006 0 1.166-.737 2.234-2.077 3.006L64.487 66.054c-1.252.722-2.897 1.084-4.541 1.085z"/><path fill="#252323" d="M43.897 75.413l-1.227-.537 6.243-14.258 1.228.537-6.244 14.258z"/><path fill="#EF4BA2" d="M71.693 72.391l-.513-.892 21.388-12.3.513.893-21.388 12.3zM62.028 78.056l-.524-.887 7.331-4.312.523.887-7.33 4.312z"/><path fill="#fff" d="M9.458 50.405L20.1 56.393c.41.231.574.739.374 1.165l-2.62 5.602a.901.901 0 0 1-1.262.4L6.09 57.57a.9.9 0 0 1-.377-1.145l2.482-5.6a.901.901 0 0 1 1.264-.42z"/><path fill="#252323" d="M9.019 50.959a.23.23 0 0 0-.213.138l-2.48 5.6a.229.229 0 0 0 .096.293l10.503 5.99c.075.042.148.029.183.018a.228.228 0 0 0 .14-.121l2.62-5.603a.229.229 0 0 0-.097-.298L9.131 50.99a.234.234 0 0 0-.112-.03zm8.02 13.388c-.271 0-.54-.07-.78-.206l-10.5-5.988a1.564 1.564 0 0 1-.658-1.997l2.482-5.601a1.568 1.568 0 0 1 2.205-.732l10.64 5.987c.712.4.998 1.293.652 2.03l-2.619 5.603a1.573 1.573 0 0 1-1.423.904zM23 58.38l1.286.72a.178.178 0 0 1 .074.231l-.577 1.236a.178.178 0 0 1-.25.08l-1.258-.722a.177.177 0 0 1-.074-.226l.547-1.237a.178.178 0 0 1 .251-.083zM25.617 59.841l1.288.721a.18.18 0 0 1 .074.231L26.4 62.03a.177.177 0 0 1-.25.08l-1.258-.722a.177.177 0 0 1-.074-.226l.549-1.237a.177.177 0 0 1 .25-.083zM28.233 61.386l1.288.723a.178.178 0 0 1 .074.23l-.578 1.237a.178.178 0 0 1-.25.079l-1.258-.721a.179.179 0 0 1-.074-.226l.549-1.238a.178.178 0 0 1 .25-.084zM21.738 61.04l1.288.721a.178.178 0 0 1 .074.231l-.579 1.237a.177.177 0 0 1-.25.079l-1.258-.722a.177.177 0 0 1-.074-.225l.549-1.238a.177.177 0 0 1 .25-.083zM24.356 62.502l1.287.723a.176.176 0 0 1 .075.23l-.579 1.236a.177.177 0 0 1-.25.079l-1.256-.722a.177.177 0 0 1-.075-.226l.548-1.237a.177.177 0 0 1 .25-.083zM26.97 64.047l1.287.723a.178.178 0 0 1 .074.23l-.577 1.237a.18.18 0 0 1-.251.079l-1.257-.721a.177.177 0 0 1-.074-.226l.547-1.238a.18.18 0 0 1 .251-.084z"/><path fill="#252323" d="M21.738 61.04l1.288.721a.178.178 0 0 1 .074.231l-.579 1.237a.177.177 0 0 1-.25.079l-1.258-.722a.177.177 0 0 1-.074-.225l.549-1.238a.177.177 0 0 1 .25-.083zM24.356 62.502l1.287.723a.176.176 0 0 1 .075.23l-.579 1.236a.177.177 0 0 1-.25.079l-1.256-.722a.177.177 0 0 1-.075-.226l.548-1.237a.177.177 0 0 1 .25-.083zM26.97 64.047l1.287.723a.178.178 0 0 1 .074.23l-.577 1.237a.18.18 0 0 1-.251.079l-1.257-.721a.177.177 0 0 1-.074-.226l.547-1.238a.18.18 0 0 1 .251-.084zM20.472 63.702l1.287.72a.178.178 0 0 1 .074.232l-.577 1.236a.179.179 0 0 1-.251.079l-1.257-.721a.177.177 0 0 1-.074-.226l.547-1.238a.179.179 0 0 1 .251-.082zM23.09 65.164l1.286.722a.176.176 0 0 1 .074.23l-.577 1.236a.178.178 0 0 1-.251.079l-1.257-.721a.177.177 0 0 1-.074-.226l.549-1.238a.177.177 0 0 1 .25-.082zM25.708 66.709l1.288.722a.18.18 0 0 1 .075.23l-.579 1.237a.178.178 0 0 1-.25.08l-1.258-.722a.178.178 0 0 1-.074-.226l.549-1.237a.178.178 0 0 1 .25-.085zM11.391 55.938c-.293.594-.961.863-1.493.601-.531-.262-.724-.956-.431-1.55.294-.594.961-.864 1.493-.602.531.261.724.956.431 1.55z"/><path fill="#EF4BA2" d="M13.97 57.458c-.293.594-.962.864-1.494.602-.531-.262-.724-.956-.431-1.55.293-.595.962-.864 1.493-.602.532.262.725.956.432 1.55zM88.18 68.473l-.284-.05c-.617-.062-1.401.265-2.24 1.23a4.957 4.957 0 0 0-1.022 1.863c-.32 1.113-.191 1.931.194 2.388 0 0 .777 1.123 2.508 1.525a.205.205 0 0 0 .218-.087l2.575-4.09.11-1.474a.181.181 0 0 0-.045-.14c-.198-.213-.861-.931-2.015-1.165z"/><path fill="#EF4BA2" d="M87.731 68.926c-.3 0-.9.157-1.688 1.065a4.418 4.418 0 0 0-.916 1.667c-.242.843-.209 1.558.093 1.914.053.073.667.92 2.016 1.302l2.385-3.789.09-1.204a3.18 3.18 0 0 0-1.634-.901l-.272-.05a.695.695 0 0 0-.074-.004zm-.356 7.023a.715.715 0 0 1-.16-.018c-1.901-.442-2.778-1.682-2.814-1.734-.508-.599-.611-1.615-.264-2.822a5.469 5.469 0 0 1 1.127-2.06c1.107-1.272 2.058-1.473 2.681-1.404l.334.058c.866.177 1.634.617 2.284 1.313a.7.7 0 0 1 .188.536l-.121 1.6-2.644 4.2a.727.727 0 0 1-.61.331z"/><path fill="#252323" d="M90.967 71.2c0 1.458-1.025 3.232-2.29 3.961-1.264.729-2.288.139-2.288-1.32 0-1.46 1.024-3.233 2.289-3.961 1.264-.73 2.289-.138 2.289 1.32z"/><path fill="#EF4BA2" d="M89.693 70.082c-.222 0-.487.082-.765.244-1.102.634-2.032 2.245-2.032 3.515 0 .505.15.883.413 1.035.26.15.663.093 1.104-.162 1.101-.633 2.032-2.243 2.032-3.514 0-.507-.151-.884-.413-1.035a.67.67 0 0 0-.339-.083zm-2.047 5.908c-.306 0-.594-.074-.853-.224-.598-.344-.928-1.028-.928-1.925 0-1.648 1.12-3.585 2.548-4.408.777-.449 1.535-.507 2.133-.16.598.345.93 1.03.93 1.927 0 1.647-1.12 3.583-2.548 4.406-.442.256-.877.384-1.282.384zM100.3 37.556L82.03 26.915a8.412 8.412 0 0 1-3.35-3.628l-2.678-5.582a8.4 8.4 0 0 0-3.36-3.634L50.833 1.403a2.063 2.063 0 0 0-1.876-.101L15.643 20.435l.66 5.49 11.51 7.68 18.599 13.603 15.358 8.6 7.33 6.819 33.288-19.139v-2.3a4.204 4.204 0 0 0-2.088-3.632z"/><path fill="#252323" d="M16.924 25.54l11.253 7.508 18.624 13.62 15.418 8.65 6.97 6.482 32.522-18.698v-1.914a3.543 3.543 0 0 0-1.755-3.053l-18.27-10.642a9.046 9.046 0 0 1-3.617-3.917l-2.678-5.582a7.709 7.709 0 0 0-3.093-3.345L50.49 1.982a1.398 1.398 0 0 0-1.274-.065L16.354 20.795l.57 4.746zM69 63.454l-7.634-7.1-15.287-8.56L27.41 34.143l-11.744-7.833-.749-6.235L48.617.721c.89-.385 1.792-.334 2.547.104l21.809 12.667a9.05 9.05 0 0 1 3.625 3.924l2.679 5.582a7.72 7.72 0 0 0 3.083 3.34l18.271 10.64a4.889 4.889 0 0 1 2.42 4.21v2.687L68.999 63.453z"/><path fill="#252323" d="M46.93 44.642L80.384 25.67l.006-.017a8.354 8.354 0 0 1-1.713-2.356L76 17.715a8.417 8.417 0 0 0-1.15-1.746L41.206 34.685l-4.173 1.762 2.15 5.487 2.421 1.77 5.325.938z"/><path fill="#252323" d="M41.872 43.071l4.934.87L79.33 25.5a8.779 8.779 0 0 1-1.257-1.913l-2.678-5.583a7.213 7.213 0 0 0-.717-1.173L41.53 35.27l-3.64 1.538 1.844 4.7 2.137 1.562zm5.176 2.271l-5.715-1.006-2.703-1.976-2.46-6.276 4.775-2.015 34.062-18.955.355.425a8.923 8.923 0 0 1 1.24 1.887l2.678 5.582c.374.779.906 1.509 1.578 2.167l.302.295-.219.64-.226.143-33.667 19.09zM68.487 58.16s-1.002 1.053-1.964 2.076l2.57 2.391 33.288-19.139v-2.3c0-.695-.178-1.362-.49-1.957L68.487 58.16z"/><path fill="#252323" d="M67.475 60.206l1.716 1.594 32.523-18.698v-1.914c0-.336-.05-.673-.149-1.002L68.907 58.694c-.195.205-.784.824-1.431 1.511zm1.527 3.247l-3.424-3.184.461-.49c.962-1.026 1.967-2.08 1.967-2.08l.154-.12 34.004-19.27.322.61a4.89 4.89 0 0 1 .568 2.269v2.687L69.002 63.453z"/><path fill="#EF4BA2" d="M73.414 60.266l-.504-.897 27.036-15.175.506.896-27.038 15.176z"/><path fill="#fff" d="M37.424 32.152l33.618-18.947L53.28 2.89 19.95 22.003l-2.822 2.647 2.861 3.8 4.79 3.196 12.646.506z"/><path fill="#252323" d="M24.997 30.984l12.268.493 32.434-18.28L53.28 3.662 20.354 22.544l-2.327 2.183 2.432 3.23 4.538 3.027zm12.595 1.845l-13.025-.522-5.11-3.454-3.223-4.28 3.385-3.15L53.285 2.115l19.108 11.098-34.8 19.615z"/><path fill="#fff" d="M51.055 47.403v2.407l5.815 3.257 7.738 2.231L98.222 36.35l-13.768-8.02-33.4 19.073z"/><path fill="#252323" d="M57.13 52.446l7.392 2.13L96.874 36.34l-12.423-7.237-32.727 18.69v1.626l5.405 3.027zm7.561 3.573l-8.149-2.368-6.16-3.448v-3.187l34.075-19.458 15.11 8.802-34.876 19.66z"/><path fill="#EF4BA2" d="M14.379 30.996V22.36c0-1.621 1.759-2.633 3.162-1.817L39.35 33.208a8.418 8.418 0 0 1 3.358 3.634l2.679 5.582a8.404 8.404 0 0 0 3.35 3.63l18.27 10.64a4.202 4.202 0 0 1 2.088 3.632v2.301L14.38 30.997z"/><path fill="#252323" d="M15.05 30.611l53.377 30.855v-1.14a3.544 3.544 0 0 0-1.756-3.053L48.402 46.63a9.03 9.03 0 0 1-3.617-3.917l-2.678-5.581a7.701 7.701 0 0 0-3.093-3.346L17.205 21.12a1.42 1.42 0 0 0-1.435-.003c-.45.26-.72.723-.72 1.243v8.251zm54.717 33.176L13.711 31.383V22.36c0-1.004.52-1.902 1.39-2.404.872-.5 1.91-.496 2.778.007L39.688 32.63a9.034 9.034 0 0 1 3.627 3.923l2.678 5.582a7.716 7.716 0 0 0 3.083 3.34l18.27 10.642a4.886 4.886 0 0 1 2.421 4.21v3.46z"/><path fill="#EF4BA2" d="M72.5 38.579l4.705.475a3.418 3.418 0 0 0 2.06-.447l18.94-11.045c.477-.277.322-1-.225-1.06L73.4 23.85a3.845 3.845 0 0 0-2.334.493L46.718 38.386c-.603.348-.41 1.263.283 1.339l17.465 1.884a3.404 3.404 0 0 0 2.009-.402l4.04-2.223a3.408 3.408 0 0 1 1.986-.405z"/><path fill="#252323" d="M72.981 24.497c-.555 0-1.096.145-1.582.425L47.05 38.965l17.485 1.978a2.683 2.683 0 0 0 1.613-.323l4.042-2.223a4.049 4.049 0 0 1 2.375-.484l4.705.475a2.749 2.749 0 0 0 1.654-.359l18.682-10.893-24.28-2.62a3.252 3.252 0 0 0-.346-.019zm-8.144 17.801c-.147 0-.296-.007-.444-.025L46.928 40.39a1.369 1.369 0 0 1-1.21-1.095 1.365 1.365 0 0 1 .663-1.488L70.73 23.762a4.505 4.505 0 0 1 2.742-.578l24.578 2.654c.543.057.966.44 1.08.973a1.22 1.22 0 0 1-.588 1.329l-18.94 11.045a4.05 4.05 0 0 1-2.464.535l-4.706-.476a2.757 2.757 0 0 0-1.593.325l-4.042 2.224a4.05 4.05 0 0 1-1.96.505z"/><path fill="#fff" d="M49.71 36.657l13 1.188c.423.04.847-.054 1.214-.268l15.436-8.966a.37.37 0 0 0-.142-.688l-11.227-1.34a2.053 2.053 0 0 0-1.264.26L49.71 36.656z"/><path fill="#252323" d="M51.875 36.183l10.9.995c.283.027.568-.036.818-.18l14.66-8.516-10.339-1.235a1.38 1.38 0 0 0-.85.175l-15.189 8.76zm11.03 2.34c-.084 0-.169-.004-.254-.011l-15.098-1.38 18.84-10.87a2.743 2.743 0 0 1 1.68-.344l11.228 1.34a1.04 1.04 0 0 1 .398 1.932l-15.434 8.965a2.694 2.694 0 0 1-1.36.368zM21.245 28.769l.258.15c.24.137.42.187.541.146.119-.04.18-.167.18-.377 0-.212-.051-.397-.151-.556-.1-.159-.257-.3-.472-.424l-.356-.205v1.266zm1.77.344c0 .458-.125.738-.374.838-.248.1-.602.017-1.06-.248l-.336-.193v1.516l-.784-.452V26.31l1.18.682c.45.258.79.565 1.023.923.233.357.35.756.35 1.198zM24.49 30.53l.253.147c.247.142.43.2.549.174.117-.027.176-.143.176-.347a.849.849 0 0 0-.18-.538c-.12-.154-.307-.305-.56-.45l-.237-.137v1.152zm0 .736v1.636l-.783-.452v-4.264l1.077.62c.502.291.873.611 1.114.96.242.35.363.74.363 1.17 0 .25-.06.44-.18.566-.12.126-.29.181-.509.166.556 1.28.92 2.108 1.088 2.485l-.87-.502-.883-2.145-.416-.24zM27.13 34.42v-4.262l.785.45v4.265l-.784-.452zM32.121 37.3l-.996-.574-1.608-4.153-.023-.013c.033.589.049 1.004.049 1.247v2.007l-.701-.404v-4.264l.989.57 1.605 4.119.018.01a30.09 30.09 0 0 1-.039-1.197V32.63l.706.406v4.265zM34.479 38.66l-.784-.452v-3.51l-1.004-.58v-.752l2.791 1.61v.752l-1.003-.579v3.511z"/><path fill="#EF4BA2" d="M41.798 21.285c3.563.878 3.563 3.644 0 4.524a6.314 6.314 0 0 1-3.006 0c-3.564-.88-3.564-3.646 0-4.524a6.312 6.312 0 0 1 3.006 0z"/><path fill="#252323" d="M40.293 21.772c-.452 0-.904.054-1.343.163-1.597.394-2.163 1.114-2.163 1.611 0 .498.566 1.22 2.163 1.613a5.64 5.64 0 0 0 2.685 0c1.597-.394 2.163-1.115 2.163-1.613 0-.497-.566-1.217-2.162-1.611h-.001a5.59 5.59 0 0 0-1.342-.163zm0 4.887c-.56 0-1.12-.067-1.664-.202-1.962-.483-3.182-1.598-3.182-2.91s1.22-2.427 3.182-2.911a6.988 6.988 0 0 1 3.327 0c1.963.484 3.182 1.599 3.182 2.91 0 1.313-1.219 2.428-3.183 2.91a6.915 6.915 0 0 1-1.662.203z"/><path fill="#fff" d="M40.294 15.129A2.693 2.693 0 0 0 37.6 17.82v3.815c0 .587.574 1.175 1.724 1.46a4.06 4.06 0 0 0 1.94 0c1.15-.285 1.725-.873 1.725-1.46V17.82a2.693 2.693 0 0 0-2.695-2.692z"/><path fill="#252323" d="M40.29 15.798a2.026 2.026 0 0 0-2.024 2.023v3.815c0 .205.324.59 1.215.81.529.13 1.089.13 1.62 0 .891-.22 1.215-.605 1.215-.81V17.82c0-1.115-.91-2.023-2.026-2.023zm0 8.084c-.38 0-.76-.046-1.13-.137-1.647-.406-2.234-1.356-2.234-2.11v-3.814a3.367 3.367 0 0 1 3.364-3.361 3.368 3.368 0 0 1 3.366 3.361v3.815c0 .753-.587 1.703-2.233 2.11-.371.09-.752.136-1.133.136z"/><path fill="#252323" d="M40.29 23.882c-.38 0-.76-.046-1.13-.137-1.647-.406-2.234-1.356-2.234-2.11 0-.752.587-1.702 2.233-2.108l.322 1.299c-.893.22-1.215.605-1.215.81 0 .205.322.59 1.215.81.529.13 1.089.13 1.62 0 .891-.22 1.215-.605 1.215-.81 0-.205-.324-.59-1.216-.81l.322-1.3c1.647.407 2.233 1.357 2.233 2.11 0 .753-.586 1.703-2.233 2.11-.37.09-.751.136-1.132.136zM43.176 139.325l-1.28.738c-.133.075-.361.065-.513-.021l-1.207-.697c-.152-.087-.168-.219-.037-.295l1.28-.738c.132-.077.362-.067.513.021l1.207.695c.151.088.168.22.037.297zM46.329 141.144l-1.28.738c-.133.075-.362.065-.514-.021l-1.206-.697c-.152-.087-.168-.219-.037-.295l1.28-.739c.131-.075.361-.066.512.022l1.208.695c.152.088.168.22.037.297zM43.192 142.954l-1.28.739c-.132.075-.362.066-.514-.022l-1.206-.696c-.152-.088-.168-.22-.037-.295l1.28-.739c.131-.076.361-.067.514.021l1.206.697c.152.087.168.219.037.295zM49.314 142.861l-1.28.74c-.132.075-.36.065-.513-.022l-1.206-.696c-.152-.087-.168-.219-.037-.296l1.28-.739c.132-.075.361-.065.512.021l1.208.697c.15.088.168.22.036.295zM46.174 144.673l-1.28.738c-.133.076-.361.067-.513-.02l-1.206-.697c-.153-.088-.169-.22-.038-.295l1.28-.739c.132-.076.362-.066.513.021l1.207.697c.151.087.168.218.037.295zM52.291 144.58l-1.28.739c-.132.076-.361.066-.512-.021l-1.208-.697c-.15-.086-.168-.218-.037-.295l1.282-.738c.131-.076.36-.067.512.02l1.206.697c.152.088.168.22.037.295zM49.154 146.392l-1.28.739c-.131.075-.36.065-.512-.022l-1.208-.696c-.15-.088-.168-.22-.036-.295l1.281-.74c.131-.075.36-.065.512.022l1.206.696c.152.087.168.219.037.296zM55.445 146.399l-1.28.739c-.131.076-.361.066-.512-.022l-1.208-.696c-.15-.087-.168-.22-.035-.295l1.28-.738c.131-.076.36-.067.512.02l1.206.697c.152.088.168.22.037.295zM52.306 148.21l-1.28.739c-.131.076-.36.066-.512-.022l-1.207-.695c-.151-.088-.169-.22-.036-.296l1.28-.739c.131-.075.36-.065.512.021l1.208.696c.15.088.168.22.035.296zM58.582 144.589l-1.28.738c-.131.076-.361.066-.512-.021l-1.208-.696c-.15-.088-.168-.22-.037-.295l1.28-.74c.133-.075.362-.065.514.022l1.206.696c.152.087.168.219.037.296zM61.721 142.778l-1.28.738c-.131.076-.361.067-.512-.021l-1.208-.697c-.152-.086-.168-.218-.037-.295l1.28-.738c.133-.076.362-.067.514.021l1.206.696c.152.088.168.22.037.296zM64.864 140.967l-1.28.738c-.132.076-.362.067-.514-.021l-1.206-.696c-.152-.088-.168-.22-.037-.295l1.28-.739c.131-.076.361-.067.513.021l1.207.697c.152.086.168.219.037.295zM68.004 139.155l-1.28.74c-.131.075-.361.065-.513-.022l-1.207-.696c-.151-.087-.168-.22-.037-.296l1.281-.738c.131-.076.36-.066.512.02l1.207.697c.152.088.168.22.037.295zM71.141 137.345l-1.28.739c-.133.076-.361.066-.513-.022l-1.207-.696c-.152-.088-.168-.22-.037-.295l1.28-.739c.132-.075.362-.066.512.021l1.208.697c.15.088.168.22.037.295zM74.279 135.534l-1.281.739c-.131.075-.36.065-.512-.021l-1.206-.696c-.152-.088-.168-.22-.037-.296l1.28-.74c.131-.075.361-.065.512.023l1.208.695c.15.088.168.22.036.296zM77.42 133.723l-1.281.738c-.131.077-.36.067-.512-.021l-1.206-.696c-.153-.087-.169-.219-.038-.295l1.281-.739c.131-.075.36-.067.512.021l1.207.697c.151.088.169.219.036.295zM80.56 131.913l-1.28.738c-.131.076-.36.067-.512-.021l-1.207-.697c-.151-.087-.169-.219-.036-.295l1.28-.738c.131-.076.36-.067.512.021l1.206.697c.152.086.169.219.038.295zM83.697 130.101l-1.28.74c-.131.075-.361.065-.512-.022l-1.208-.696c-.15-.088-.168-.219-.036-.296l1.28-.739c.132-.075.36-.065.513.021l1.206.697c.152.087.168.22.037.295zM86.838 128.29l-1.28.739c-.132.077-.362.067-.512-.021l-1.208-.696c-.15-.088-.168-.22-.037-.296l1.28-.738c.133-.075.361-.067.513.021l1.207.696c.152.088.168.22.037.295zM89.977 126.48l-1.28.739c-.132.075-.361.065-.512-.021l-1.208-.697c-.152-.087-.168-.22-.037-.295l1.28-.74c.133-.075.362-.065.514.023l1.206.695c.152.088.168.22.037.296zM93.118 124.669l-1.28.738c-.132.077-.362.067-.514-.021l-1.206-.696c-.152-.087-.168-.219-.037-.296l1.28-.738c.131-.075.361-.067.513.021l1.207.696c.152.088.168.221.037.296zM96.26 122.858l-1.28.739c-.133.075-.361.066-.513-.021l-1.207-.697c-.152-.087-.168-.219-.037-.295l1.28-.738c.132-.077.362-.067.513.021l1.207.696c.152.087.168.22.037.295zM99.395 121.047l-1.28.74c-.133.075-.361.065-.513-.022l-1.207-.696c-.152-.087-.168-.22-.037-.296l1.28-.739c.132-.075.361-.065.512.021l1.208.696c.15.088.168.22.037.296zM102.536 119.236l-1.28.739c-.131.076-.36.066-.512-.021l-1.206-.697c-.152-.087-.168-.219-.037-.295l1.28-.738c.131-.076.361-.067.512.021l1.208.696c.15.088.168.22.035.295zM58.428 148.119l-1.28.738c-.131.075-.361.067-.512-.021l-1.208-.697c-.152-.087-.168-.22-.037-.295l1.28-.738c.132-.077.362-.067.514.021l1.206.696c.152.088.168.22.037.296zM61.561 146.308l-1.28.738c-.131.076-.361.065-.513-.022l-1.207-.695c-.152-.088-.168-.22-.037-.297l1.28-.738c.132-.075.362-.066.514.021l1.206.696c.152.088.168.22.037.297zM64.704 144.496l-1.28.739c-.133.076-.362.066-.514-.022l-1.206-.696c-.152-.087-.168-.22-.037-.295l1.28-.738c.131-.076.361-.067.512.02l1.208.697c.152.088.168.22.037.295zM67.84 142.686l-1.28.738c-.133.075-.361.066-.513-.021l-1.206-.696c-.153-.088-.169-.22-.038-.295l1.28-.739c.132-.076.362-.066.513.021l1.207.697c.151.086.168.218.037.295zM70.98 140.875l-1.28.738c-.132.076-.36.067-.513-.021l-1.206-.697c-.152-.086-.168-.218-.037-.295l1.28-.739c.132-.075.361-.066.512.022l1.208.696c.15.088.168.22.036.296zM74.119 139.064l-1.28.738c-.132.076-.36.067-.512-.021l-1.208-.696c-.15-.088-.168-.22-.036-.295l1.28-.739c.132-.076.36-.067.513.021l1.207.697c.151.086.168.219.036.295zM77.26 137.254l-1.28.738c-.132.076-.362.065-.513-.022l-1.207-.696c-.151-.087-.168-.219-.036-.296l1.28-.738c.131-.075.36-.066.512.02l1.207.697c.152.088.168.22.037.297zM80.4 135.442l-1.28.739c-.131.076-.361.066-.512-.022l-1.207-.696c-.151-.088-.168-.22-.037-.295l1.28-.739c.132-.075.361-.066.513.021l1.206.697c.152.088.168.22.037.295zM83.54 133.632l-1.281.738c-.131.075-.36.066-.512-.021l-1.207-.696c-.152-.088-.168-.22-.037-.295l1.28-.739c.132-.077.361-.066.513.021l1.206.695c.153.088.169.22.038.297zM86.678 131.82l-1.28.739c-.131.076-.361.067-.513-.021l-1.207-.697c-.152-.086-.168-.218-.037-.295l1.28-.739c.132-.075.362-.066.514.022l1.206.696c.152.088.168.22.037.295zM89.817 130.01l-1.28.738c-.132.076-.362.067-.514-.021l-1.206-.696c-.152-.088-.168-.22-.037-.296l1.28-.738c.132-.076.361-.067.512.021l1.208.697c.152.086.168.22.037.295zM92.96 128.199l-1.281.739c-.132.075-.361.065-.513-.022l-1.206-.696c-.152-.088-.168-.219-.037-.296l1.28-.739c.131-.075.361-.065.512.021l1.207.697c.151.088.169.22.038.296zM96.095 126.387l-1.28.739c-.132.077-.36.067-.512-.021l-1.207-.696c-.152-.088-.168-.22-.037-.296l1.28-.738c.132-.075.362-.067.513.021l1.207.696c.15.088.168.22.036.295zM99.236 124.577l-1.281.739c-.131.075-.36.065-.512-.021l-1.206-.697c-.152-.087-.168-.219-.037-.295l1.28-.738c.131-.077.36-.067.512.021l1.208.695c.15.088.168.22.036.296zM102.379 122.766l-1.281.738c-.131.077-.359.067-.511-.021l-1.208-.697c-.15-.086-.168-.218-.036-.295l1.281-.738c.131-.076.359-.067.511.021l1.207.696c.152.088.168.221.037.296zM105.516 120.955l-1.281.739c-.131.075-.361.067-.512-.021l-1.207-.697c-.151-.087-.168-.219-.036-.295l1.28-.738c.131-.077.36-.067.512.021l1.206.696c.152.087.169.22.038.295zM105.664 117.433l-1.281.739c-.131.076-.359.067-.511-.021l-1.208-.697c-.151-.088-.168-.219-.036-.295l1.281-.739c.131-.075.359-.066.511.022l1.208.696c.151.088.167.22.036.295zM3.124 116.059l-1.28.738c-.131.077-.36.067-.512-.021l-1.206-.696c-.152-.086-.168-.219-.037-.295l1.28-.739c.131-.075.361-.066.512.021l1.207.697c.151.087.169.219.036.295zM6.278 117.878l-1.28.739c-.133.076-.362.066-.514-.021l-1.206-.697c-.152-.087-.168-.22-.037-.295l1.28-.738c.131-.076.361-.067.512.021l1.208.696c.15.088.168.22.037.295zM3.14 119.688l-1.281.74c-.133.076-.361.065-.513-.022l-1.207-.695c-.152-.088-.168-.22-.037-.297l1.28-.738c.132-.075.362-.066.512.021l1.208.696c.152.088.168.22.037.295zM9.26 119.597l-1.28.739c-.132.075-.36.066-.513-.022l-1.207-.696c-.151-.087-.168-.22-.036-.295l1.28-.738c.131-.077.36-.067.512.02l1.208.697c.15.086.167.22.036.295zM6.117 121.408l-1.281.738c-.131.076-.36.066-.512-.021l-1.206-.697c-.152-.086-.168-.218-.037-.295l1.28-.738c.131-.076.36-.066.512.021l1.208.696c.15.088.168.22.036.296zM12.239 121.316l-1.28.738c-.132.076-.362.067-.512-.02l-1.208-.697c-.152-.088-.168-.22-.037-.295l1.28-.739c.133-.076.361-.066.513.021l1.207.697c.152.086.168.219.037.295zM9.098 123.126l-1.28.739c-.132.077-.362.066-.513-.021l-1.207-.696c-.15-.087-.168-.22-.037-.296l1.282-.738c.13-.076.36-.067.511.021l1.207.696c.152.088.168.22.037.295zM15.39 123.135l-1.28.738c-.13.075-.36.066-.511-.02l-1.208-.697c-.151-.088-.168-.22-.037-.295l1.28-.74c.133-.075.361-.065.513.022l1.207.696c.152.087.168.219.037.296zM12.25 124.945l-1.28.739c-.132.075-.362.066-.512-.021l-1.208-.697c-.15-.087-.168-.22-.036-.295l1.28-.738c.132-.076.36-.067.512.02l1.207.697c.152.088.168.22.037.295zM18.534 121.324l-1.28.738c-.132.076-.362.067-.513-.021l-1.207-.697c-.152-.086-.168-.22-.037-.295l1.28-.738c.133-.076.361-.067.513.021l1.207.696c.152.088.168.22.037.296zM21.67 119.513l-1.28.739c-.131.075-.361.066-.513-.022l-1.206-.696c-.152-.088-.169-.22-.037-.296l1.28-.738c.131-.076.36-.067.513.021l1.206.697c.152.086.169.218.038.295zM18.366 124.853l-1.28.74c-.132.075-.362.065-.514-.023l-1.206-.695c-.152-.088-.168-.22-.037-.296l1.28-.739c.131-.075.361-.066.512.021l1.208.696c.152.088.168.22.037.296zM21.512 123.042l-1.28.739c-.133.075-.361.066-.513-.021l-1.207-.697c-.152-.087-.168-.22-.037-.295l1.28-.738c.132-.076.362-.067.512.02l1.208.697c.152.088.168.22.037.295zM24.649 121.232l-1.28.738c-.133.076-.361.066-.514-.02l-1.206-.697c-.152-.088-.168-.22-.037-.295l1.28-.74c.132-.075.361-.065.512.023l1.208.695c.15.087.168.219.037.296zM27.629 122.95l-1.28.74c-.132.075-.362.065-.512-.023l-1.208-.695c-.15-.088-.168-.22-.036-.296l1.28-.739c.132-.075.36-.066.512.021l1.207.696c.152.088.168.22.037.296zM24.494 124.761l-1.281.739c-.131.075-.36.067-.512-.021l-1.207-.697c-.151-.088-.167-.219-.036-.295l1.28-.739c.131-.076.36-.066.512.022l1.208.696c.15.087.168.22.036.295zM30.78 124.769l-1.281.738c-.131.077-.36.067-.512-.021l-1.208-.696c-.15-.087-.168-.219-.035-.295l1.28-.739c.131-.075.36-.067.512.021l1.207.696c.151.088.169.22.036.296zM27.646 126.581l-1.28.738c-.132.075-.36.065-.512-.021l-1.207-.697c-.152-.087-.168-.22-.037-.295l1.28-.739c.132-.076.361-.066.512.022l1.208.695c.15.088.168.22.036.297zM33.762 126.488l-1.28.738c-.132.077-.362.067-.512-.021l-1.208-.696c-.15-.088-.168-.22-.037-.296l1.28-.738c.133-.076.361-.067.513.021l1.207.697c.152.087.168.219.037.295zM30.625 128.299l-1.28.739c-.132.075-.362.065-.512-.022l-1.208-.696c-.15-.087-.168-.219-.036-.296l1.28-.739c.132-.075.36-.065.512.022l1.207.696c.152.087.168.22.037.296zM36.743 128.207l-1.28.738c-.132.075-.362.067-.514-.021l-1.206-.696c-.152-.088-.168-.22-.037-.295l1.28-.739c.131-.077.361-.067.512.021l1.208.696c.152.088.168.22.037.296zM33.602 130.017l-1.28.739c-.132.076-.361.066-.513-.022l-1.207-.695c-.152-.088-.168-.22-.037-.296l1.28-.739c.132-.075.362-.065.514.021l1.206.697c.152.088.168.22.037.295zM39.897 130.026l-1.28.738c-.132.076-.361.067-.514-.021l-1.206-.696c-.152-.088-.168-.22-.037-.295l1.28-.739c.132-.076.361-.066.514.021l1.206.696c.152.087.168.219.037.296zM36.758 131.836l-1.28.739c-.131.076-.361.066-.512-.022l-1.208-.696c-.152-.086-.168-.22-.037-.295l1.28-.738c.133-.076.362-.067.514.02l1.206.697c.152.088.168.22.037.295zM39.735 133.555l-1.28.738c-.133.076-.362.067-.514-.02l-1.206-.697c-.152-.088-.168-.22-.037-.295l1.28-.739c.131-.075.361-.066.512.021l1.208.697c.15.087.168.22.037.295z"/></svg>