<svg width="125" height="124" viewBox="0 0 125 124" fill="none" xmlns="http://www.w3.org/2000/svg">
<path d="M89.6258 118.973L88.8851 119.372C88.8093 119.412 88.6771 119.407 88.5891 119.36L87.8907 118.984C87.8034 118.937 87.7934 118.866 87.8699 118.825L88.6106 118.426C88.6864 118.385 88.8186 118.39 88.9066 118.438L89.6043 118.813C89.6923 118.86 89.7016 118.932 89.6258 118.973Z" fill="#252323"/>
<path d="M91.3507 119.9L90.6101 120.3C90.5343 120.34 90.4013 120.335 90.3141 120.288L89.6156 119.912C89.5277 119.865 89.5184 119.794 89.5942 119.752L90.3348 119.354C90.4113 119.313 90.5436 119.318 90.6315 119.365L91.3293 119.741C91.4172 119.788 91.4265 119.86 91.3507 119.9Z" fill="#252323"/>
<path d="M89.5322 120.879L88.7915 121.278C88.7157 121.318 88.5827 121.313 88.4955 121.266L87.797 120.89C87.7098 120.843 87.6998 120.771 87.7756 120.731L88.5163 120.332C88.5928 120.291 88.725 120.296 88.8129 120.343L89.5107 120.719C89.5986 120.766 89.6079 120.838 89.5322 120.879Z" fill="#252323"/>
<path d="M93.0714 120.829L92.3308 121.227C92.2543 121.269 92.122 121.263 92.0341 121.216L91.3363 120.84C91.2484 120.793 91.2391 120.722 91.3149 120.681L92.0555 120.282C92.1313 120.241 92.2643 120.246 92.3515 120.293L93.05 120.669C93.138 120.717 93.1472 120.788 93.0714 120.829Z" fill="#252323"/>
<path d="M91.257 121.807L90.5163 122.206C90.4406 122.246 90.3076 122.241 90.2196 122.194L89.5219 121.818C89.4339 121.771 89.4247 121.699 89.5004 121.659L90.2411 121.26C90.3169 121.219 90.4498 121.224 90.5378 121.271L91.2356 121.647C91.3235 121.694 91.3328 121.766 91.257 121.807Z" fill="#252323"/>
<path d="M94.8976 121.811L94.157 122.21C94.0812 122.251 93.9482 122.246 93.8603 122.198L93.1625 121.822C93.0746 121.776 93.0653 121.704 93.141 121.663L93.8817 121.264C93.9575 121.224 94.0905 121.228 94.1777 121.275L94.8762 121.652C94.9641 121.699 94.9734 121.77 94.8976 121.811Z" fill="#252323"/>
<path d="M93.0793 122.789L92.3386 123.188C92.2628 123.229 92.1299 123.223 92.0419 123.177L91.3441 122.801C91.2562 122.753 91.2469 122.682 91.3227 122.641L92.0634 122.242C92.1391 122.201 92.2721 122.206 92.3601 122.254L93.0578 122.629C93.1458 122.677 93.155 122.748 93.0793 122.789Z" fill="#252323"/>
<path d="M96.7121 120.833L95.9714 121.232C95.8949 121.273 95.7627 121.268 95.6747 121.221L94.977 120.845C94.889 120.797 94.8797 120.726 94.9555 120.685L95.6962 120.287C95.772 120.245 95.9049 120.251 95.9921 120.298L96.6906 120.674C96.7778 120.721 96.7879 120.792 96.7121 120.833Z" fill="#252323"/>
<path d="M98.5297 119.855L97.789 120.254C97.7133 120.295 97.581 120.29 97.4931 120.243L96.7953 119.867C96.7074 119.82 96.6981 119.748 96.7739 119.707L97.5145 119.308C97.5903 119.268 97.7233 119.273 97.8105 119.32L98.509 119.696C98.5962 119.743 98.6062 119.814 98.5297 119.855Z" fill="#252323"/>
<path d="M100.346 118.878L99.6055 119.276C99.5297 119.317 99.3974 119.312 99.3095 119.265L98.6117 118.889C98.5238 118.842 98.5145 118.77 98.5903 118.73L99.3309 118.331C99.4067 118.289 99.539 118.295 99.6269 118.342L100.325 118.718C100.413 118.766 100.423 118.837 100.346 118.878Z" fill="#252323"/>
<path d="M102.161 117.9L101.42 118.299C101.345 118.34 101.212 118.334 101.124 118.288L100.426 117.911C100.339 117.864 100.329 117.793 100.405 117.752L101.146 117.353C101.222 117.312 101.354 117.317 101.442 117.365L102.14 117.74C102.227 117.787 102.237 117.859 102.161 117.9Z" fill="#252323"/>
<path d="M103.975 116.922L103.235 117.321C103.159 117.362 103.026 117.357 102.939 117.309L102.24 116.933C102.153 116.887 102.143 116.814 102.22 116.774L102.96 116.375C103.036 116.334 103.168 116.339 103.256 116.386L103.954 116.762C104.042 116.81 104.051 116.881 103.975 116.922Z" fill="#252323"/>
<path d="M105.794 115.944L105.053 116.343C104.977 116.384 104.844 116.379 104.757 116.332L104.059 115.956C103.972 115.908 103.962 115.837 104.037 115.796L104.778 115.398C104.854 115.356 104.987 115.362 105.075 115.409L105.772 115.785C105.86 115.832 105.87 115.903 105.794 115.944Z" fill="#252323"/>
<path d="M107.609 114.966L106.868 115.365C106.792 115.406 106.659 115.401 106.572 115.354L105.873 114.978C105.786 114.931 105.776 114.859 105.852 114.818L106.593 114.419C106.668 114.379 106.801 114.384 106.889 114.431L107.587 114.807C107.675 114.854 107.684 114.925 107.609 114.966Z" fill="#252323"/>
<path d="M109.427 113.989L108.686 114.387C108.61 114.428 108.477 114.423 108.39 114.376L107.692 114C107.604 113.953 107.595 113.881 107.67 113.841L108.411 113.442C108.487 113.401 108.62 113.406 108.708 113.453L109.405 113.829C109.493 113.877 109.503 113.948 109.427 113.989Z" fill="#252323"/>
<path d="M111.239 113.011L110.499 113.41C110.422 113.45 110.29 113.445 110.202 113.398L109.504 113.022C109.416 112.975 109.407 112.904 109.483 112.863L110.224 112.464C110.299 112.423 110.432 112.428 110.519 112.476L111.218 112.851C111.306 112.898 111.315 112.97 111.239 113.011Z" fill="#252323"/>
<path d="M96.6234 122.739L95.8828 123.138C95.807 123.179 95.6747 123.174 95.5868 123.126L94.8891 122.75C94.8011 122.703 94.7918 122.632 94.8676 122.591L95.6083 122.192C95.6841 122.151 95.817 122.156 95.9043 122.204L96.6027 122.58C96.69 122.627 96.6999 122.698 96.6234 122.739Z" fill="#252323"/>
<path d="M98.4344 121.762L97.6937 122.16C97.6179 122.201 97.4857 122.196 97.3977 122.149L96.6993 121.773C96.612 121.725 96.602 121.654 96.6785 121.613L97.4192 121.214C97.495 121.173 97.6272 121.179 97.7152 121.226L98.4136 121.601C98.5009 121.649 98.5109 121.72 98.4344 121.762Z" fill="#252323"/>
<path d="M100.251 120.783L99.5101 121.182C99.4344 121.224 99.3014 121.218 99.2141 121.171L98.5157 120.795C98.4284 120.748 98.4184 120.676 98.4949 120.635L99.2356 120.237C99.3114 120.196 99.4436 120.201 99.5316 120.248L100.229 120.624C100.317 120.671 100.327 120.743 100.251 120.783Z" fill="#252323"/>
<path d="M102.067 119.806L101.327 120.205C101.251 120.245 101.118 120.241 101.031 120.193L100.332 119.817C100.245 119.77 100.235 119.698 100.311 119.658L101.051 119.259C101.128 119.218 101.26 119.223 101.348 119.27L102.046 119.646C102.134 119.693 102.143 119.765 102.067 119.806Z" fill="#252323"/>
<path d="M103.886 118.828L103.145 119.227C103.069 119.268 102.936 119.262 102.849 119.215L102.151 118.84C102.063 118.792 102.054 118.721 102.129 118.68L102.87 118.281C102.946 118.24 103.079 118.245 103.167 118.292L103.864 118.668C103.952 118.716 103.962 118.787 103.886 118.828Z" fill="#252323"/>
<path d="M105.698 117.85L104.958 118.249C104.882 118.289 104.749 118.285 104.661 118.237L103.963 117.861C103.875 117.814 103.866 117.743 103.942 117.702L104.682 117.303C104.758 117.262 104.891 117.267 104.979 117.315L105.677 117.691C105.765 117.738 105.774 117.809 105.698 117.85Z" fill="#252323"/>
<path d="M107.519 116.873L106.778 117.271C106.702 117.312 106.569 117.307 106.481 117.26L105.784 116.884C105.696 116.837 105.686 116.765 105.762 116.725L106.503 116.325C106.579 116.284 106.712 116.29 106.799 116.337L107.497 116.713C107.585 116.76 107.595 116.831 107.519 116.873Z" fill="#252323"/>
<path d="M109.329 115.894L108.589 116.293C108.512 116.334 108.38 116.329 108.292 116.282L107.594 115.906C107.506 115.859 107.497 115.787 107.573 115.746L108.313 115.348C108.389 115.307 108.522 115.312 108.609 115.359L109.308 115.735C109.395 115.782 109.405 115.854 109.329 115.894Z" fill="#252323"/>
<path d="M111.147 114.917L110.406 115.316C110.33 115.356 110.198 115.352 110.11 115.304L109.412 114.928C109.325 114.881 109.315 114.809 109.391 114.769L110.132 114.37C110.207 114.329 110.34 114.334 110.428 114.381L111.126 114.757C111.213 114.804 111.223 114.875 111.147 114.917Z" fill="#252323"/>
<path d="M13.579 77.9081L12.8384 78.3076C12.7626 78.3483 12.6296 78.3429 12.5424 78.2956L11.8439 77.9202C11.7567 77.8728 11.7467 77.8015 11.8225 77.7601L12.5631 77.3614C12.6396 77.3207 12.7719 77.326 12.8598 77.3727L13.5576 77.7488C13.6455 77.7961 13.6548 77.8675 13.579 77.9081Z" fill="#252323"/>
<path d="M15.3019 78.8364L14.5613 79.2352C14.4855 79.2765 14.3525 79.2712 14.2646 79.2238L13.5668 78.8478C13.4789 78.8011 13.4696 78.7297 13.5453 78.6884L14.286 78.2896C14.3618 78.249 14.4948 78.2536 14.582 78.301L15.2805 78.6771C15.3684 78.7244 15.3777 78.7957 15.3019 78.8364Z" fill="#252323"/>
<path d="M13.4836 79.8145L12.7429 80.2132C12.6671 80.2539 12.5341 80.2486 12.4469 80.2019L11.7484 79.8258C11.6605 79.7785 11.6512 79.7071 11.727 79.6665L12.4677 79.267C12.5434 79.2264 12.6764 79.2317 12.7644 79.279L13.4621 79.6545C13.55 79.7018 13.5593 79.7732 13.4836 79.8145Z" fill="#252323"/>
<path d="M17.0239 79.7646L16.2832 80.1633C16.2074 80.2047 16.0752 80.1993 15.9872 80.152L15.2894 79.7759C15.2015 79.7286 15.1922 79.6572 15.268 79.6166L16.0087 79.2178C16.0844 79.1771 16.2174 79.1818 16.3047 79.2291L17.0031 79.6052C17.0903 79.6526 17.1004 79.7239 17.0239 79.7646Z" fill="#252323"/>
<path d="M15.2082 80.742L14.4675 81.1414C14.391 81.1821 14.2588 81.1768 14.1708 81.1294L13.4731 80.754C13.3851 80.7067 13.3758 80.6353 13.4516 80.594L14.1923 80.1952C14.2681 80.1546 14.401 80.1599 14.4882 80.2066L15.1867 80.5827C15.2739 80.63 15.284 80.7013 15.2082 80.742Z" fill="#252323"/>
<path d="M18.8488 80.7467L18.1081 81.1454C18.0317 81.1861 17.8994 81.1814 17.8114 81.1341L17.1137 80.758C17.0257 80.7107 17.0164 80.6393 17.0922 80.5986L17.8329 80.1999C17.9087 80.1585 18.0416 80.1639 18.1289 80.2112L18.8274 80.5873C18.9146 80.6346 18.9246 80.706 18.8488 80.7467Z" fill="#252323"/>
<path d="M17.0324 81.7244L16.2917 82.1231C16.2152 82.1645 16.083 82.1591 15.995 82.1118L15.2973 81.7364C15.2093 81.689 15.2 81.6177 15.2758 81.5763L16.0165 81.1776C16.0923 81.1369 16.2252 81.1422 16.3125 81.1889L17.0109 81.565C17.0989 81.6123 17.1082 81.6837 17.0324 81.7244Z" fill="#252323"/>
<path d="M20.6606 79.7692L19.9199 80.1679C19.8441 80.2086 19.7119 80.2033 19.6239 80.1566L18.9262 79.7805C18.8382 79.7332 18.8289 79.6618 18.9047 79.6211L19.6454 79.2217C19.7212 79.181 19.8541 79.1864 19.9414 79.2337L20.6399 79.6091C20.7271 79.6565 20.7371 79.7278 20.6606 79.7692Z" fill="#252323"/>
<path d="M22.4793 78.7909L21.7386 79.1897C21.6629 79.231 21.5306 79.2257 21.4427 79.1783L20.7442 78.8023C20.657 78.7556 20.6469 78.6836 20.7234 78.6429L21.4641 78.2441C21.5399 78.2035 21.6721 78.2081 21.7601 78.2555L22.4586 78.6316C22.5458 78.6789 22.5558 78.7503 22.4793 78.7909Z" fill="#252323"/>
<path d="M24.2996 77.8134L23.5589 78.2122C23.4832 78.2529 23.3502 78.2482 23.263 78.2009L22.5645 77.8248C22.4773 77.7774 22.4673 77.7061 22.5438 77.6654L23.2844 77.2667C23.3602 77.2253 23.4925 77.2307 23.5804 77.278L24.2782 77.6541C24.3661 77.7008 24.3754 77.7721 24.2996 77.8134Z" fill="#252323"/>
<path d="M26.1103 76.8352L25.3696 77.234C25.2938 77.2753 25.1609 77.27 25.0736 77.2226L24.3752 76.8472C24.2879 76.7999 24.2779 76.7285 24.3537 76.6872L25.0944 76.2884C25.1709 76.2477 25.3031 76.2531 25.3911 76.2998L26.0888 76.6758C26.1768 76.7232 26.1861 76.7945 26.1103 76.8352Z" fill="#252323"/>
<path d="M27.9289 75.8577L27.1882 76.2565C27.1124 76.2972 26.9794 76.2925 26.8922 76.2452L26.1937 75.8691C26.1058 75.8217 26.0965 75.7504 26.1723 75.7097L26.913 75.311C26.9895 75.2696 27.1217 75.275 27.2097 75.3223L27.9074 75.6984C27.9954 75.7457 28.0047 75.8171 27.9289 75.8577Z" fill="#252323"/>
<path d="M29.7433 74.8801L29.0027 75.2789C28.9269 75.3195 28.7939 75.3142 28.706 75.2675L28.0082 74.8914C27.9203 74.8441 27.911 74.7728 27.9868 74.7314L28.7274 74.3327C28.8032 74.292 28.9362 74.2973 29.0241 74.3447L29.7219 74.7201C29.8098 74.7674 29.8191 74.8388 29.7433 74.8801Z" fill="#252323"/>
<path d="M20.5691 81.6749L19.8285 82.0736C19.7527 82.1143 19.6204 82.1097 19.5325 82.0623L18.834 81.6862C18.7468 81.6389 18.7368 81.5675 18.8133 81.5269L19.554 81.1281C19.6297 81.0868 19.762 81.0921 19.8499 81.1394L20.5484 81.5155C20.6356 81.5622 20.6449 81.6336 20.5691 81.6749Z" fill="#252323"/>
<path d="M22.3875 80.6969L21.6469 81.0963C21.5711 81.1369 21.4381 81.1316 21.3509 81.0843L20.6524 80.7089C20.5652 80.6615 20.5551 80.5902 20.6316 80.5488L21.3723 80.1501C21.4481 80.1094 21.5804 80.1147 21.6683 80.1614L22.3661 80.5375C22.454 80.5848 22.4633 80.6562 22.3875 80.6969Z" fill="#252323"/>
<path d="M24.206 79.7192L23.4653 80.1179C23.3895 80.1586 23.2566 80.1539 23.1693 80.1066L22.4709 79.7305C22.3836 79.6832 22.3736 79.6118 22.4494 79.5711L23.1901 79.1724C23.2666 79.131 23.3988 79.1364 23.4868 79.1837L24.1845 79.5598C24.2725 79.6071 24.2818 79.6785 24.206 79.7192Z" fill="#252323"/>
<path d="M26.0207 78.7415L25.28 79.1403C25.2042 79.181 25.0713 79.1756 24.984 79.129L24.2856 78.7529C24.1976 78.7055 24.1883 78.6342 24.2641 78.5935L25.0048 78.1941C25.0813 78.1534 25.2135 78.1588 25.3015 78.2061L25.9992 78.5815C26.0872 78.6289 26.0965 78.7002 26.0207 78.7415Z" fill="#252323"/>
<path d="M27.8332 77.7634L27.0925 78.1622C27.0167 78.2035 26.8837 78.1982 26.7958 78.1508L26.098 77.7747C26.0101 77.7281 26.0008 77.656 26.0766 77.6154L26.8173 77.2166C26.893 77.1759 27.026 77.1806 27.114 77.2279L27.8117 77.604C27.8997 77.6514 27.9089 77.7227 27.8332 77.7634Z" fill="#252323"/>
<path d="M29.6515 76.7859L28.9109 77.1847C28.8344 77.2253 28.7021 77.2207 28.6142 77.1733L27.9164 76.7973C27.8285 76.7499 27.8192 76.6786 27.895 76.6379L28.6356 76.2391C28.7114 76.1978 28.8444 76.2031 28.9316 76.2505L29.6301 76.6265C29.718 76.6732 29.7273 76.7446 29.6515 76.7859Z" fill="#252323"/>
<path d="M75.5148 104.689L74.7742 105.087C74.6977 105.129 74.5654 105.123 74.4775 105.076L73.7797 104.7C73.6918 104.652 73.6825 104.581 73.7582 104.54L74.4989 104.142C74.5747 104.101 74.7077 104.106 74.7949 104.153L75.4934 104.529C75.5806 104.576 75.5906 104.648 75.5148 104.689Z" fill="#252323"/>
<path d="M77.2391 105.617L76.4984 106.015C76.4226 106.056 76.2904 106.051 76.2024 106.004L75.5039 105.628C75.4167 105.581 75.4067 105.509 75.4832 105.469L76.2239 105.07C76.2996 105.029 76.4319 105.034 76.5198 105.081L77.2183 105.457C77.3056 105.504 77.3149 105.576 77.2391 105.617Z" fill="#252323"/>
<path d="M75.4223 106.594L74.6816 106.993C74.6058 107.034 74.4736 107.029 74.3856 106.982L73.6879 106.606C73.5999 106.559 73.5907 106.488 73.6665 106.446L74.4071 106.047C74.4829 106.007 74.6159 106.011 74.7031 106.059L75.4016 106.435C75.4888 106.482 75.4988 106.554 75.4223 106.594Z" fill="#252323"/>
<path d="M78.9618 106.545L78.2212 106.944C78.1454 106.984 78.0124 106.979 77.9252 106.932L77.2267 106.556C77.1395 106.509 77.1295 106.438 77.2053 106.397L77.9459 105.998C78.0224 105.957 78.1547 105.962 78.2426 106.01L78.9404 106.385C79.0283 106.432 79.0376 106.504 78.9618 106.545Z" fill="#252323"/>
<path d="M77.1492 107.522L76.4085 107.921C76.3328 107.963 76.1998 107.957 76.1126 107.91L75.4141 107.534C75.3269 107.486 75.3169 107.415 75.3934 107.374L76.134 106.976C76.2098 106.935 76.3421 106.94 76.43 106.987L77.1278 107.363C77.2157 107.41 77.225 107.482 77.1492 107.522Z" fill="#252323"/>
<path d="M80.788 107.527L80.0474 107.926C79.9716 107.967 79.8386 107.961 79.7514 107.915L79.0529 107.538C78.9657 107.491 78.9557 107.42 79.0314 107.379L79.7721 106.98C79.8486 106.939 79.9809 106.944 80.0688 106.992L80.7666 107.367C80.8545 107.414 80.8638 107.486 80.788 107.527Z" fill="#252323"/>
<path d="M78.9695 108.505L78.2289 108.904C78.1531 108.944 78.0201 108.94 77.9329 108.892L77.2344 108.516C77.1472 108.469 77.1372 108.397 77.2137 108.357L77.9544 107.958C78.0301 107.917 78.1624 107.922 78.2503 107.969L78.9481 108.345C79.036 108.393 79.0453 108.464 78.9695 108.505Z" fill="#252323"/>
<path d="M82.6008 106.549L81.8601 106.948C81.7843 106.989 81.6513 106.984 81.5641 106.936L80.8656 106.56C80.7777 106.514 80.7684 106.442 80.8442 106.401L81.5849 106.002C81.6614 105.962 81.7936 105.966 81.8815 106.014L82.5793 106.39C82.6672 106.437 82.6765 106.508 82.6008 106.549Z" fill="#252323"/>
<path d="M84.4191 105.571L83.6785 105.97C83.6027 106.011 83.4697 106.006 83.3817 105.959L82.684 105.583C82.5961 105.535 82.5867 105.464 82.6625 105.423L83.4032 105.025C83.479 104.983 83.612 104.989 83.6999 105.036L84.3977 105.412C84.4856 105.459 84.4949 105.53 84.4191 105.571Z" fill="#252323"/>
<path d="M86.2355 104.593L85.4949 104.993C85.4191 105.033 85.2861 105.028 85.1982 104.981L84.5004 104.605C84.4124 104.558 84.4032 104.486 84.479 104.445L85.2196 104.046C85.2954 104.006 85.4284 104.011 85.5156 104.058L86.2141 104.434C86.302 104.481 86.3113 104.553 86.2355 104.593Z" fill="#252323"/>
<path d="M88.05 103.616L87.3093 104.014C87.2328 104.055 87.1006 104.05 87.0126 104.003L86.3148 103.627C86.2269 103.58 86.2176 103.508 86.2934 103.468L87.0341 103.069C87.1098 103.028 87.2428 103.033 87.33 103.08L88.0285 103.456C88.1165 103.504 88.1257 103.575 88.05 103.616Z" fill="#252323"/>
<path d="M82.509 108.455L81.7683 108.854C81.6925 108.895 81.5595 108.889 81.4716 108.842L80.7738 108.467C80.6859 108.419 80.6766 108.348 80.7524 108.307L81.4931 107.908C81.5688 107.867 81.7018 107.873 81.7897 107.919L82.4875 108.295C82.5754 108.343 82.5848 108.414 82.509 108.455Z" fill="#252323"/>
<path d="M84.3273 107.477L83.5867 107.876C83.5102 107.917 83.3779 107.912 83.2899 107.865L82.5922 107.489C82.5042 107.441 82.495 107.37 82.5707 107.329L83.3114 106.93C83.3872 106.89 83.5202 106.894 83.6074 106.942L84.3058 107.318C84.3938 107.365 84.4031 107.437 84.3273 107.477Z" fill="#252323"/>
<path d="M86.1398 106.5L85.3992 106.898C85.3227 106.939 85.1904 106.934 85.1025 106.887L84.4047 106.511C84.3167 106.464 84.3075 106.392 84.3832 106.351L85.1239 105.952C85.1997 105.911 85.3327 105.917 85.4199 105.964L86.1184 106.339C86.2056 106.387 86.2156 106.458 86.1398 106.5Z" fill="#252323"/>
<path d="M87.9555 105.521L87.2149 105.92C87.1391 105.962 87.0068 105.956 86.9189 105.909L86.2211 105.533C86.1332 105.486 86.1239 105.414 86.1997 105.373L86.9403 104.975C87.0161 104.934 87.1491 104.939 87.2363 104.986L87.9348 105.362C88.022 105.409 88.032 105.481 87.9555 105.521Z" fill="#252323"/>
<path d="M122.471 39.5398C122.505 39.4405 122.457 39.3365 122.358 39.2871L116.393 36.2845C115.424 35.895 114.219 35.9964 112.909 36.7012L109.786 38.3836C108.938 38.8403 108.25 40.0659 108.25 41.1208V59.6722C108.25 60.227 108.443 60.6177 108.747 60.8038L114.478 63.7184C114.588 63.7737 114.722 63.7424 114.787 63.6437C115.518 62.5341 119.497 56.4728 119.391 56.3715C119.283 56.2694 122.042 40.8334 122.471 39.5398Z" fill="#01BBFF"/>
<path d="M115.199 36.4164C114.555 36.4164 113.842 36.6158 113.102 37.0145L109.979 38.6962C109.251 39.0883 108.636 40.1986 108.636 41.1208V59.6721C108.636 60.0682 108.756 60.3783 108.958 60.5016L114.534 63.3356C116.613 60.1755 118.879 56.6595 119.017 56.2927L119.026 56.296C119.041 55.7246 119.319 54.0169 120.347 48.3423C121.012 44.6642 121.796 40.522 122.065 39.5504L116.208 36.6025C115.897 36.4784 115.559 36.4164 115.199 36.4164ZM114.59 64.1071C114.489 64.1071 114.386 64.0837 114.291 64.0357L108.56 61.1211C108.1 60.8403 107.861 60.3316 107.861 59.6721V41.1208C107.861 39.9325 108.621 38.5929 109.591 38.0701L112.714 36.3884C114.089 35.6483 115.412 35.4982 116.545 35.9523L122.541 38.969C122.802 39.1003 122.928 39.3857 122.84 39.6471C122.412 40.9361 119.783 55.7806 119.774 56.3494H119.767C119.719 56.7748 118.896 58.0891 115.116 63.8323C115.001 64.009 114.799 64.1071 114.59 64.1071Z" fill="#252323"/>
<path d="M115.341 45.1077L121.462 41.8117L112.441 36.9539L109.786 38.3836C108.938 38.8403 108.25 40.0659 108.25 41.1208V41.2882L115.341 45.1077Z" fill="white"/>
<path d="M108.636 41.0801L115.341 44.6902L120.686 41.8116L112.44 37.3706L109.979 38.6962C109.262 39.0823 108.655 40.1659 108.636 41.0801ZM115.341 45.5244L107.861 41.4968V41.1208C107.861 39.9325 108.621 38.5929 109.591 38.0701L112.44 36.5364L122.236 41.8116L115.341 45.5244Z" fill="#252323"/>
<path d="M123.08 59.7822L115.702 63.755C114.854 64.2118 114.166 63.727 114.166 62.6721V44.1201C114.166 43.0652 114.854 41.8396 115.702 41.3829L118.825 39.7012C122.023 37.9788 124.615 39.8072 124.615 43.7841V57.0449C124.615 58.0998 123.928 59.3254 123.08 59.7822Z" fill="#252323"/>
<path d="M121.122 39.4171C120.469 39.4171 119.752 39.6172 119.015 40.0139L115.891 41.6963C115.163 42.0884 114.549 43.1979 114.549 44.1201V62.6721C114.549 63.0876 114.675 63.4036 114.886 63.5177C115.084 63.6243 115.331 63.535 115.504 63.4423L122.882 59.4688C123.609 59.0767 124.224 57.9665 124.224 57.0449V43.7841C124.224 41.8256 123.565 40.348 122.416 39.7292C122.029 39.5205 121.592 39.4171 121.122 39.4171ZM115.087 64.2892C114.878 64.2892 114.679 64.2405 114.498 64.1438C114.038 63.8951 113.773 63.359 113.773 62.6721V44.1201C113.773 42.9326 114.533 41.5929 115.504 41.0702L118.628 39.3878C120.145 38.5709 121.628 38.4696 122.804 39.1031C124.199 39.8546 124.999 41.5603 124.999 43.7841V57.0449C124.999 58.2325 124.239 59.5721 123.269 60.0949L115.891 64.0678C115.617 64.2151 115.345 64.2892 115.087 64.2892Z" fill="#252323"/>
<path d="M100.275 63.717V47.1388L78.7754 44.909L79.6183 56.0214L97.3706 63.301L100.275 63.717Z" fill="#01BBFF"/>
<path d="M97.481 62.951L99.8888 63.2964V47.4623L79.1953 45.3165L79.9896 55.7781L97.481 62.951ZM100.665 64.1386L97.2158 63.6318L79.2496 56.2642L78.3574 44.5023L100.665 46.8155V64.1386Z" fill="#252323"/>
<path d="M97.0265 54.3049L89.7207 50.3047L90.1132 49.6812L97.4183 53.6815L97.0265 54.3049Z" fill="#252323"/>
<path d="M30.568 65.9341C30.3564 65.8435 30.0798 65.8641 29.7738 66.0295L26.5645 67.7572C26.2134 67.9466 25.8781 68.0566 25.5664 68.1033L26.1355 29.5403L23.6304 30.2064V22.3314L20.9309 23.7264V67.5718C20.9309 69.3102 19.6111 71.4433 17.9968 72.3122L14.9019 73.9792C14.3256 74.2893 13.881 74.788 13.6944 75.3835C13.482 76.0637 13.6315 76.5264 13.961 76.6911L17.5514 78.5062C17.5929 78.5269 17.6429 78.5249 17.6822 78.5008L23.965 74.67L32.9123 69.3375L34.1841 67.9326C34.237 67.8746 34.2192 67.7865 34.1477 67.7499L30.568 65.9341Z" fill="#01BBFF"/>
<path d="M21.3224 23.9392V67.5719C21.3224 69.4297 19.919 71.6968 18.1946 72.625L15.0997 74.2921C14.5986 74.5614 14.2239 74.9962 14.0709 75.485C13.9122 75.9891 14.0002 76.2992 14.1489 76.3732L17.6041 78.1195L23.7575 74.3681L32.6583 69.0629L33.6878 67.926L30.4013 66.259C30.2976 66.2203 30.1425 66.2497 29.9716 66.3423L26.7623 68.0707C26.3841 68.2734 26.0045 68.4048 25.632 68.4601L25.1773 68.5281L25.183 68.0987L25.745 30.0212L23.2463 30.6853V22.945L21.3224 23.9392ZM17.6163 78.8817C17.5326 78.8817 17.449 78.863 17.3725 78.825L13.7807 77.0093C13.366 76.8013 13.0279 76.2378 13.3267 75.2823C13.5383 74.6068 14.0302 74.0333 14.7122 73.6659L17.8071 71.9989C19.2928 71.1994 20.5474 69.1723 20.5474 67.5719V23.5138L24.022 21.7187V29.7278L26.5342 29.0597L25.9652 67.6293C26.1003 67.5806 26.2368 67.5186 26.3741 67.4446L29.5841 65.7162C29.9873 65.4995 30.3963 65.4601 30.7351 65.6068L30.7573 65.6175L34.3369 67.4332C34.4742 67.5026 34.5686 67.624 34.5972 67.766C34.6265 67.9087 34.585 68.054 34.4849 68.1654L33.1244 69.6424L24.1778 74.9749L17.8986 78.803C17.8136 78.8557 17.7149 78.8817 17.6163 78.8817Z" fill="#252323"/>
<path d="M23.728 72.4977L19.9296 70.4773L19.9231 70.4726C19.4055 71.2435 18.7349 71.9136 17.9943 72.3124L14.8986 73.9794C14.6513 74.1121 14.4883 74.3121 14.2988 74.5075L17.8234 76.3732L18.9337 77.0154L21.3466 76.2659L23.1989 75.1363L23.728 72.4977Z" fill="white"/>
<path d="M14.9122 74.4181L18.0128 76.0591L18.9815 76.6192L21.1749 75.9377L22.8464 74.9182L23.2954 72.6844L20.0446 70.9547C19.5041 71.6795 18.8543 72.2656 18.1865 72.625L15.0909 74.292C15.0273 74.326 14.9686 74.3687 14.9122 74.4181ZM18.8814 77.412L17.6174 76.6806L13.6875 74.6001L14.0993 74.1714C14.2602 74.0006 14.4425 73.8066 14.7041 73.6659L17.799 71.9989C18.446 71.6508 19.083 71.0407 19.5935 70.2805L19.8201 69.9424L20.1583 70.1865L24.1583 72.311L23.5477 75.3543L21.4673 76.6085L18.8814 77.412Z" fill="#252323"/>
<path d="M30.5691 65.9222C30.3575 65.8316 30.0808 65.8522 29.7748 66.0176L26.5655 67.7453C26.2145 67.9347 25.8792 68.0447 25.5675 68.0914L25.373 68.6888L29.0378 70.4939L29.9107 71.1153L32.9134 69.3256L34.1852 67.9207C34.2381 67.8626 34.2203 67.7746 34.1488 67.738L30.5691 65.9222Z" fill="white"/>
<path d="M25.8381 68.5087L29.2748 70.207L29.9325 70.6745L32.6571 69.0508L33.6866 67.9139L30.4001 66.2469C30.2986 66.2075 30.1413 66.2382 29.9704 66.3302L26.7611 68.0579C26.4644 68.2173 26.167 68.3326 25.8732 68.4013L25.8381 68.5087ZM29.8932 71.5553L28.8301 70.7998L24.9102 68.8694L25.2691 67.7699L25.5086 67.7338C25.7867 67.6932 26.0776 67.5918 26.3729 67.4324L29.5829 65.7041C29.9854 65.4874 30.3943 65.4487 30.7332 65.5941L30.7561 65.6047L34.3357 67.4204C34.4737 67.4911 34.5681 67.6125 34.5967 67.7558C34.6246 67.8979 34.5831 68.0432 34.483 68.1533L33.1232 69.6302L29.8932 71.5553Z" fill="#252323"/>
<path d="M27.2625 68.0167V24.1706L24.5636 25.5655V69.4117C24.5636 71.1567 23.2503 73.2792 21.6296 74.1513L18.4203 75.8797C17.7618 76.2345 17.2285 77.0966 17.2285 77.8055C17.2285 78.5143 17.7618 78.8017 18.4203 78.4469L24.5636 75.1389L27.2625 73.7446L33.4058 70.4359C34.0643 70.0818 34.5983 69.2196 34.5983 68.5101C34.5983 67.8013 34.0643 67.5139 33.4058 67.8687L30.1965 69.597C28.5765 70.4692 27.2625 69.7617 27.2625 68.0167Z" fill="#252323"/>
<path d="M24.9539 25.7781V69.4116C24.9539 71.3 23.5798 73.5198 21.8261 74.4647L18.6168 76.1924C18.0756 76.4838 17.6187 77.2226 17.6187 77.8054C17.6187 78.0074 17.6766 78.1595 17.7739 78.2121C17.8697 78.2641 18.0412 78.2355 18.2293 78.1341L24.3726 74.8261L27.0772 73.4284L33.2155 70.123C33.7567 69.8317 34.2136 69.0935 34.2136 68.5107C34.2136 68.308 34.1557 68.156 34.0577 68.1033C33.9598 68.0506 33.7903 68.0799 33.603 68.1813L30.393 69.9097C29.4843 70.3984 28.6107 70.4671 27.9315 70.101C27.2516 69.7356 26.8777 68.9955 26.8777 68.0166V24.7839L24.9539 25.7781ZM17.8882 78.959C17.7081 78.959 17.5372 78.9189 17.3864 78.8383C17.0411 78.6522 16.8438 78.2755 16.8438 77.8054C16.8438 76.9685 17.4521 75.985 18.2293 75.5662L21.4386 73.8385C22.9492 73.0243 24.1789 71.0386 24.1789 69.4116V25.3527L27.6527 23.5577V68.0166C27.6527 68.7261 27.8894 69.2442 28.3183 69.4756C28.748 69.707 29.3471 69.6376 30.0055 69.2835L33.2155 67.5558C33.6524 67.3204 34.1006 67.2918 34.4459 67.4778C34.7905 67.6639 34.9886 68.0399 34.9886 68.5107C34.9886 69.3476 34.3802 70.3304 33.603 70.7492L27.459 74.0572L24.7544 75.4549L18.6168 78.7602C18.3708 78.8923 18.1213 78.959 17.8882 78.959Z" fill="#252323"/>
<path d="M24.3596 67.3238L20.7285 65.2127L21.1389 64.5992L24.7693 66.7104L24.3596 67.3238Z" fill="#252323"/>
<path d="M24.3596 58.1798L20.7285 56.0687L21.1389 55.4553L24.7693 57.5664L24.3596 58.1798Z" fill="#252323"/>
<path d="M25.1145 39.0631L24.8164 38.5816L26.8432 37.4901L27.1413 37.9715L25.1145 39.0631Z" fill="#01BBFF"/>
<path d="M35.5525 9.08195C35.3945 9.0006 35.1786 9.01326 34.9391 9.14196L9.50989 22.8729C8.92866 23.1863 8.37745 23.7638 8.00927 24.4473L0.752769 37.9168C0.516129 38.3562 0.386719 38.8157 0.386719 39.2184V42.1444C0.386719 42.3665 0.461068 42.5285 0.580461 42.6258L0.602628 42.6432C0.63051 42.6632 7.15707 46.1106 7.81338 46.46C7.83697 46.4733 7.86628 46.4653 7.88129 46.444L10.3099 42.8512C10.3113 42.8479 10.3142 42.8452 10.3163 42.8426L29.8517 24.622L40.7636 17.1083C40.7672 17.1043 40.77 17.1003 40.7722 17.0957L42.8126 12.9781C42.824 12.9554 42.8147 12.9288 42.7918 12.9161L35.5525 9.08195Z" fill="#01BBFF"/>
<path d="M35.3309 9.39214C35.2902 9.39214 35.2223 9.40815 35.1343 9.45483L9.70441 23.1858C9.1918 23.4625 8.68777 23.9939 8.35676 24.6094L1.09955 38.079C0.890789 38.4677 0.775684 38.8725 0.775684 39.2186V42.1445C0.775684 42.2626 0.807147 42.3299 0.835744 42.3539C0.898658 42.3866 2.93548 43.4635 4.73138 44.4137C5.97177 45.0698 7.16498 45.7006 7.72619 45.9974L10.0283 42.6033L29.5786 24.3667L40.4591 16.8691L42.3322 13.0883L35.366 9.39814C35.3581 9.39414 35.3467 9.39214 35.3309 9.39214ZM7.83844 46.8282C7.7648 46.8282 7.68973 46.8109 7.6211 46.7742C7.32941 46.6182 5.87597 45.8493 4.3496 45.0425C0.405352 42.9567 0.403212 42.9554 0.368896 42.9307C0.177295 42.7767 0 42.5473 0 42.1445V39.2186C0 38.7625 0.145126 38.2424 0.406789 37.7549L7.664 24.2854C8.06651 23.5379 8.66847 22.909 9.3169 22.5603L34.7468 8.82935C35.0921 8.64331 35.4539 8.61931 35.7399 8.76534L35.7449 8.76734L42.9842 12.6022C43.1844 12.7075 43.263 12.9422 43.1615 13.1363L40.9939 17.3992L30.0827 24.9128L10.6174 43.0734L8.20948 46.6368C8.12584 46.7602 7.98429 46.8282 7.83844 46.8282Z" fill="#252323"/>
<path d="M0.580461 42.6258L0.602628 42.6432C0.63051 42.6632 7.15707 46.1106 7.81338 46.46C7.83697 46.4733 7.86628 46.4653 7.88129 46.444L8.63982 45.3218C8.0929 44.3789 7.66967 43.6747 7.66967 43.6747L0.386719 39.7699V42.1444C0.386719 42.3665 0.461068 42.5285 0.580461 42.6258Z" fill="#252323"/>
<path d="M0.832882 42.3512L0.847177 42.3619C0.898651 42.3866 2.93548 43.4635 4.73138 44.4137C5.97177 45.0698 7.16498 45.7006 7.72619 45.998L8.19233 45.3079C7.80913 44.6511 7.50244 44.1356 7.38447 43.9383L0.775684 40.3948V42.1445C0.775684 42.2579 0.804285 42.3252 0.832882 42.3512ZM7.83844 46.8282C7.7648 46.8282 7.68973 46.8109 7.6211 46.7742C7.32941 46.6182 5.87597 45.8493 4.3496 45.0425C0.405352 42.9567 0.403212 42.9554 0.368896 42.9307L0.32601 42.898C0.177306 42.7767 0 42.5473 0 42.1445V39.1452L7.95641 43.4115L8.0086 43.4982C8.0086 43.4982 8.43254 44.2043 8.98161 45.1498L9.08956 45.3359L8.20948 46.6368C8.12584 46.7602 7.98429 46.8282 7.83844 46.8282Z" fill="#252323"/>
<path d="M15.2934 28.3053L41.3617 15.2485L32.4709 10.4715L9.51039 22.8728C8.92916 23.1862 8.37795 23.7636 8.00977 24.4471L15.2934 28.3053Z" fill="white"/>
<path d="M8.53664 24.3099L15.2998 27.8927L40.566 15.2373L32.4731 10.8883L9.70627 23.1856C9.27803 23.4164 8.85693 23.8244 8.53664 24.3099ZM15.2891 28.7182L7.5 24.592L7.66515 24.2852C8.06766 23.5377 8.66961 22.9089 9.31805 22.5602L32.4716 10.0541L42.1596 15.2593L15.2891 28.7182Z" fill="#252323"/>
<path d="M42.225 28.3054L8.55122 46.476C8.06579 46.7374 7.67188 46.5253 7.67188 46.0026V43.0773C7.67188 42.6745 7.80127 42.2144 8.03791 41.775L15.2951 28.3054C15.6626 27.6226 16.2138 27.0445 16.795 26.7317L42.225 13.0008C42.7104 12.7394 43.1036 12.9508 43.1036 13.4742V26.8858C43.1036 27.4086 42.7104 28.044 42.225 28.3054Z" fill="#252323"/>
<path d="M42.6163 13.2502C42.5755 13.2502 42.5062 13.2655 42.4175 13.3135L16.9883 27.0445C16.475 27.3206 15.971 27.8527 15.64 28.4681L8.38348 41.9377C8.17401 42.3258 8.05819 42.7306 8.05819 43.0773V46.0026C8.05819 46.1366 8.0975 46.2073 8.12181 46.2206C8.14612 46.2333 8.23119 46.23 8.35559 46.1626L42.0293 27.9927C42.3946 27.796 42.7149 27.2785 42.7149 26.8858V13.4742C42.7149 13.3402 42.6756 13.2695 42.6513 13.2562C42.6442 13.2522 42.6327 13.2502 42.6163 13.2502ZM8.15541 46.9488C8.00456 46.9488 7.86158 46.9148 7.73433 46.8461C7.44764 46.6921 7.2832 46.3847 7.2832 46.0026V43.0773C7.2832 42.6199 7.42833 42.0997 7.69071 41.613L14.9472 28.1427C15.3497 27.3959 15.9524 26.7678 16.6001 26.419L42.0293 12.6881C42.3839 12.4967 42.7521 12.476 43.0381 12.6301C43.3255 12.7847 43.4899 13.0921 43.4899 13.4742V26.8858C43.4899 27.5333 43.0188 28.2941 42.4175 28.6182L8.74381 46.7888C8.54649 46.8948 8.34486 46.9488 8.15541 46.9488Z" fill="#252323"/>
<path d="M7.9693 46.0025H7.37305V43.8127H7.9693V46.0025Z" fill="#01BBFF"/>
<path d="M8.29468 41.5203L1.01172 37.6614L1.39493 37.0333L8.67715 40.8921L8.29468 41.5203Z" fill="#252323"/>
<path d="M13.7458 31.4254L6.46289 27.5666L6.8461 26.9385L14.129 30.7973L13.7458 31.4254Z" fill="#252323"/>
<path d="M107.352 69.7083C107.352 69.695 107.352 67.7866 107.352 67.7866C107.352 67.7326 107.31 67.6866 107.253 67.6772L103.053 67.0264C103.04 67.0244 103.026 67.0198 103.014 67.0131L36.817 31.2934C36.1643 30.9413 35.1763 30.9033 34.6108 31.208L17.1001 40.7294C17.0887 40.7354 17.0758 40.7401 17.0622 40.7421L12.3201 41.5596C12.2636 41.5689 12.2229 41.6149 12.2229 41.6683V43.5467V43.5994C12.2172 43.8428 12.3158 44.1208 12.7405 44.3502L82.741 82.1183C83.3945 82.4698 84.3818 82.5084 84.9473 82.2037L106.976 70.2498C107.243 70.1058 107.363 69.911 107.352 69.709V69.7083Z" fill="#01BBFF"/>
<path d="M12.6112 41.8769L12.6105 43.608C12.6076 43.732 12.6441 43.8807 12.9344 44.0374L82.9356 81.8055C83.4618 82.0889 84.3118 82.1289 84.7536 81.8909L106.781 69.937C106.853 69.8983 106.971 69.821 106.966 69.7269V69.7229C106.965 69.7136 106.964 69.7029 106.965 67.9992L102.918 67.3718L102.816 67.3237L36.6234 31.6061C36.0979 31.322 35.2472 31.2813 34.8046 31.5207L17.2353 41.0741L17.1288 41.0981L12.6112 41.8769ZM83.9865 82.7691C83.4861 82.7697 82.9642 82.655 82.5474 82.431L12.5469 44.6629C11.9456 44.3395 11.8291 43.9014 11.8362 43.5913V41.6682C11.8362 41.4402 12.0107 41.2448 12.2509 41.2041L16.9458 40.3946L34.4157 30.8959C35.0999 30.5271 36.2402 30.5645 37.0109 30.9806L103.167 66.6776L107.317 67.3211C107.561 67.3584 107.74 67.5538 107.74 67.7865C107.74 67.7865 107.739 69.5776 107.74 69.6989C107.755 70.0443 107.548 70.3584 107.17 70.5624L85.1426 82.5157C84.8273 82.6857 84.4148 82.7691 83.9865 82.7691Z" fill="#252323"/>
<path d="M13.6162 41.2956L12.2986 41.5223C12.2422 41.5323 12.2014 41.5776 12.2014 41.631V43.5101V43.5628C12.1957 43.8061 12.2936 44.0842 12.719 44.3129L13.6162 44.7964V41.2956Z" fill="#252323"/>
<path d="M83.9062 82.4085C84.2945 82.4192 84.6698 82.3538 84.945 82.2051L106.974 70.2512C107.241 70.1072 107.361 69.9125 107.35 69.7104C107.349 69.6964 107.35 67.788 107.35 67.788C107.35 67.734 107.308 67.688 107.251 67.6786L103.051 67.0278C103.038 67.0258 103.024 67.0212 103.012 67.0145L87.7518 58.7974L83.9062 55.3133V82.4085Z" fill="#252323"/>
<path d="M106.977 68.274L84.9478 80.2286C84.3823 80.5327 83.395 80.4947 82.7416 80.1433L12.741 42.3745C12.0883 42.0231 12.0175 41.4909 12.583 41.1869L34.6113 29.2323C35.1768 28.9282 36.1648 28.9662 36.8176 29.3176L106.818 67.0865C107.472 67.4379 107.542 67.97 106.977 68.274Z" fill="white"/>
<path d="M35.5611 29.3898C35.2708 29.3898 34.9963 29.4404 34.8018 29.5458L12.7743 41.499C12.7164 41.5297 12.5848 41.6104 12.5848 41.7024C12.5848 41.7824 12.6756 41.9238 12.9315 42.0618L82.9328 79.8307C83.459 80.114 84.3098 80.1541 84.7509 79.9153L106.78 67.9614C106.836 67.9314 106.968 67.8507 106.968 67.7587C106.968 67.6787 106.877 67.5367 106.622 67.3993L36.6206 29.6305C36.3261 29.4718 35.93 29.3898 35.5611 29.3898ZM83.9837 80.7942C83.4833 80.7942 82.9607 80.6802 82.5446 80.4561L12.5441 42.6873C12.0772 42.4366 11.8105 42.0772 11.8105 41.7024C11.8105 41.373 12.02 41.0709 12.3854 40.8736L34.4129 28.9203C35.0971 28.5522 36.2374 28.5896 37.0081 29.005L107.009 66.7738C107.475 67.0245 107.743 67.3833 107.743 67.7587C107.743 68.0881 107.533 68.3902 107.167 68.5876L85.1398 80.5408C84.8245 80.7108 84.412 80.7942 83.9837 80.7942Z" fill="#252323"/>
<path d="M79.6841 101.518L79.2773 100.902L87.6934 96.068C88.9538 95.3599 90.5159 95.3606 91.7735 96.068L93.6445 97.2543C94.6339 97.8104 95.8872 97.8124 96.8967 97.2483L99.7685 95.6433C103.169 93.7435 107.424 93.6922 110.873 95.5133L116.528 98.4746C116.945 98.6933 117.439 98.6906 117.85 98.4666C118.262 98.2425 118.507 97.8431 118.507 97.3983V62.0327H119.283V97.3983C119.283 98.1031 118.893 98.7359 118.241 99.0914C117.587 99.4461 116.805 99.4514 116.147 99.1034L110.492 96.1427C107.285 94.4497 103.328 94.4957 100.167 96.2634L97.2949 97.8684C96.0373 98.5706 94.4788 98.5672 93.2263 97.8618L91.3553 96.6762C90.3637 96.1194 89.1083 96.1167 88.0967 96.6848L79.6841 101.518Z" fill="#252323"/>
<path d="M119.289 88.505H118.514V85.8378C118.514 84.4735 118.947 83.1552 119.766 82.0256C120.498 81.0154 120.885 79.8372 120.885 78.6189V60.7557H121.661V78.6189C121.661 79.9819 121.228 81.3001 120.408 82.4304C119.675 83.4399 119.289 84.6182 119.289 85.8378V88.505Z" fill="#252323"/>
<path d="M119.289 95.3719H118.513V93.9376C118.513 92.848 118.149 91.8078 117.46 90.9283C116.672 89.9247 116.256 88.7365 116.256 87.4929V62.3128H117.032V87.4929C117.032 88.5824 117.395 89.6227 118.085 90.5015C118.872 91.5057 119.289 92.694 119.289 93.9376V95.3719Z" fill="#252323"/>
<path d="M87.0005 99.0308L83.4402 98.7254C83.4344 98.7247 83.4287 98.7234 83.423 98.7207L82.5651 98.72C81.537 98.1666 81.1381 98.2786 80.248 98.758L79.4259 99.2021L79.2965 99.1981L74.8596 99.8956C74.8403 99.899 74.8253 99.915 74.8253 99.9336L74.8203 102.153C74.8203 102.562 75.0727 102.907 75.6711 103.229L78.1397 104.547C79.1678 105.101 80.7227 105.161 81.6135 104.681L86.4393 102.081C86.8203 101.876 87.017 101.605 87.0377 101.319V99.0688C87.0377 99.0488 87.0212 99.0321 87.0005 99.0308Z" fill="#01BBFF"/>
<path d="M75.2129 100.206L75.2093 102.153C75.2093 102.343 75.2836 102.603 75.8656 102.916L78.3328 104.233C79.2386 104.721 80.6513 104.781 81.4206 104.368L86.247 101.768C86.4229 101.673 86.6359 101.514 86.6517 101.294L86.6509 99.3634L83.3659 99.082H82.4622L82.3721 99.0333C81.4785 98.5526 81.2347 98.6446 80.4425 99.0707L79.5253 99.5661L79.3237 99.5601L75.2129 100.206ZM80.1015 105.367C79.3537 105.367 78.5701 105.196 77.9467 104.861L75.4788 103.543C74.7753 103.164 74.4336 102.709 74.4336 102.153L74.4393 99.6295L74.7932 99.5394L79.2715 98.836L79.3287 98.8373L80.0543 98.4452C80.9959 97.9391 81.5392 97.7744 82.6674 98.3585L83.5482 98.3718L87.3888 98.6979L87.4259 99.0687V101.318C87.3938 101.762 87.1135 102.136 86.6345 102.393L81.808 104.994C81.3433 105.244 80.7349 105.367 80.1015 105.367Z" fill="#252323"/>
<path d="M79.998 105.001C80.6014 105.015 81.1841 104.912 81.6124 104.681L85.4293 102.595V99.074L83.439 98.7253C83.4333 98.7246 83.4276 98.7233 83.4218 98.7199L83.3253 99.4961L79.998 99.054V105.001Z" fill="#252323"/>
<path d="M80.3863 99.4701V104.631C80.7924 104.603 81.1499 104.513 81.4187 104.368L85.0419 102.388V99.3741L83.7586 99.1493L83.6642 99.9055L80.3863 99.4701ZM80.1061 105.363C80.0674 105.363 80.0281 105.363 79.9888 105.361L79.6113 105.353V98.6372L82.9865 99.086L83.1037 98.1425L83.5642 98.3812L85.8169 98.7746V102.802L81.8083 104.993C81.3622 105.233 80.7616 105.363 80.1061 105.363Z" fill="#252323"/>
<path d="M83.7218 96.6875L86.1905 98.0051C87.2185 98.5586 87.3301 99.3961 86.4393 99.8755L81.6135 102.476C80.7227 102.956 79.1677 102.895 78.1397 102.342L75.671 101.024C74.643 100.47 74.5307 99.6328 75.4215 99.1534L80.248 96.5528C81.1381 96.0734 82.6937 96.1334 83.7218 96.6875Z" fill="#01BBFF"/>
<path d="M81.7523 96.5909C81.2554 96.5909 80.785 96.6816 80.4425 96.8656L75.6161 99.4655C75.4302 99.5662 75.2086 99.7342 75.2086 99.9656C75.2086 100.211 75.4538 100.49 75.8656 100.711L78.3328 102.028C79.2386 102.516 80.6513 102.576 81.4206 102.163L86.247 99.5628C86.4322 99.4628 86.6538 99.2948 86.6538 99.0634C86.6538 98.818 86.4086 98.5393 85.9968 98.3179L83.5289 97.0003C83.0277 96.7302 82.37 96.5909 81.7523 96.5909ZM80.1015 103.162C79.3537 103.162 78.5701 102.991 77.9467 102.656L75.4788 101.338C74.8146 100.979 74.4336 100.48 74.4336 99.9663C74.4336 99.5162 74.7152 99.1167 75.2286 98.8407L80.055 96.2401C81.0674 95.694 82.7617 95.7527 83.9149 96.3742L86.3836 97.6911C87.0485 98.0492 87.4288 98.5493 87.4288 99.0634C87.4288 99.5128 87.1464 99.9129 86.6345 100.188L81.808 102.789C81.3433 103.039 80.7349 103.162 80.1015 103.162Z" fill="#252323"/>
<path d="M78.5081 104.474H77.7324V102.269H78.5081V104.474Z" fill="#252323"/>
<path d="M80.9271 99.0659C80.654 99.0659 80.3816 99.12 80.1836 99.226C80.0491 99.2993 79.9891 99.3747 79.9891 99.418C79.9891 99.4614 80.0491 99.5367 80.1836 99.6087C80.5796 99.8221 81.2738 99.8221 81.6699 99.6087C81.8043 99.5367 81.8644 99.4614 81.8644 99.418C81.8644 99.3747 81.8043 99.2993 81.6699 99.2266V99.226C81.4719 99.12 81.1995 99.0659 80.9271 99.0659ZM80.9271 100.491C80.5203 100.491 80.1135 100.406 79.7961 100.235C79.4265 100.036 79.2148 99.7381 79.2148 99.418C79.2148 99.0973 79.4265 98.7999 79.7961 98.6005C80.4309 98.2591 81.4232 98.2591 82.0574 98.6012V98.6005C82.427 98.7999 82.6393 99.0973 82.6393 99.418C82.6393 99.7381 82.427 100.036 82.0574 100.235C81.7399 100.406 81.3331 100.491 80.9271 100.491Z" fill="white"/>
<path d="M119.417 61.2545H118.82V50.973H119.417V61.2545Z" fill="#01BBFF"/>
<path d="M120.56 51.8871L118.138 53.1907C117.6 53.4808 117.164 53.1734 117.164 52.5046V50.2207C117.164 49.5519 117.6 48.7751 118.138 48.485L120.56 47.1814C121.098 46.8914 121.534 47.1988 121.534 47.8676V50.1514C121.534 50.8202 121.098 51.597 120.56 51.8871Z" fill="#252323"/>
<path d="M120.948 47.3501C120.86 47.3501 120.767 47.3915 120.71 47.4221L118.288 48.7258C117.841 48.9671 117.463 49.6513 117.463 50.2207V52.5046C117.463 52.794 117.56 52.9493 117.651 52.998C117.759 53.0567 117.91 52.9927 117.99 52.95L120.412 51.6457C120.859 51.405 121.237 50.7208 121.237 50.1514V47.8676C121.237 47.5782 121.14 47.4228 121.049 47.3741C121.018 47.3575 120.983 47.3501 120.948 47.3501ZM117.752 53.5781C117.611 53.5781 117.476 53.5455 117.353 53.4794C117.044 53.3134 116.867 52.958 116.867 52.5046V50.2207C116.867 49.4519 117.36 48.5837 117.99 48.2443L120.412 46.9407C120.741 46.7627 121.073 46.7447 121.348 46.8927C121.656 47.0587 121.833 47.4141 121.833 47.8676V50.1514C121.833 50.9202 121.34 51.7884 120.71 52.1278L118.288 53.4314C118.107 53.5295 117.925 53.5781 117.752 53.5781Z" fill="#01BBFF"/>
<path d="M121.035 52.1979L118.612 53.5022C118.075 53.7916 117.639 53.4842 117.639 52.8154V50.5316C117.639 49.8628 118.075 49.0859 118.612 48.7966L121.035 47.4923C121.572 47.2029 122.008 47.5103 122.008 48.1791V50.4629C122.008 51.1317 121.572 51.9085 121.035 52.1979Z" fill="#252323"/>
<path d="M121.419 47.6616C121.331 47.6616 121.238 47.7023 121.181 47.733L118.759 49.0373C118.312 49.278 117.934 49.9621 117.934 50.5316V52.8154C117.934 53.1055 118.031 53.2608 118.121 53.3095C118.229 53.3669 118.38 53.3049 118.461 53.2615L120.883 51.9572C121.33 51.7165 121.708 51.0324 121.708 50.4629V48.1791C121.708 47.889 121.611 47.7343 121.52 47.685C121.489 47.6683 121.454 47.6616 121.419 47.6616ZM118.223 53.8896C118.081 53.8896 117.946 53.857 117.823 53.791C117.515 53.6249 117.338 53.2688 117.338 52.8154V50.5316C117.338 49.7628 117.831 48.8946 118.461 48.5558L120.883 47.2515C121.212 47.0742 121.545 47.0562 121.818 47.2042C122.126 47.3702 122.304 47.7257 122.304 48.1791V50.4629C122.304 51.2317 121.81 52.0999 121.181 52.4387L118.759 53.743C118.578 53.841 118.395 53.8896 118.223 53.8896Z" fill="#01BBFF"/>
<path d="M120.97 60.3704L120.959 51.9939L121.555 51.9932L121.566 60.3697L120.97 60.3704Z" fill="#01BBFF"/>
<path d="M116.938 62.6374H116.342V61.1631C116.342 59.9322 116.807 58.7326 117.652 57.7857C118.408 56.9389 118.824 55.866 118.824 54.7644L118.825 53.2274H119.421L119.42 54.7644C119.42 55.9953 118.955 57.1949 118.111 58.1411C117.354 58.9886 116.938 60.0615 116.938 61.1631V62.6374Z" fill="#01BBFF"/>
<path d="M86.6957 57.9072L75.0868 64.3079L38.0586 44.3376L49.6676 37.9369L86.6957 57.9072Z" fill="#01BBFF"/>
<path d="M38.8286 44.3336L75.0861 63.8892L85.9294 57.9105L49.6719 38.3557L38.8286 44.3336ZM75.0904 64.726L37.293 44.341L49.6669 37.5181L87.4643 57.9039L75.0904 64.726Z" fill="#252323"/>
<path d="M84.6086 52.2118L59.9916 38.883L42.1113 48.511L66.7291 61.8399L84.6086 52.2118Z" fill="#252323"/>
<path d="M42.8836 48.5118L66.7285 61.4226L83.8352 52.2113L59.9903 39.3005L42.8836 48.5118ZM66.7278 62.2574L41.3379 48.5105L59.991 38.4657L85.3809 52.2126L66.7278 62.2574Z" fill="#252323"/>
<path d="M73.6514 56.8143L54.8359 46.7075L55.1341 46.226L73.9488 56.3329L73.6514 56.8143Z" fill="#01BBFF"/>
<path d="M31.0048 23.1836C30.134 22.5995 28.6548 22.9369 27.1542 24.5493C26.1633 25.6141 25.5864 26.9838 25.6142 28.3928C25.6307 29.2689 25.8823 29.7604 26.4579 30.1138L26.5529 30.1765L93.0224 65.8662C93.0775 65.8955 93.1476 65.8775 93.1783 65.8262L97.3599 58.9393C97.3906 58.888 97.372 58.8233 97.317 58.7946L31.0048 23.1836Z" fill="#01BBFF"/>
<path d="M30.075 23.2831C29.3843 23.2831 28.4456 23.7112 27.4462 24.7861C26.4882 25.8143 25.9749 27.0926 25.9999 28.3869C26.017 29.2417 26.2687 29.5658 26.6698 29.8125L26.7756 29.8812L92.9763 65.4249L96.8876 58.9815L30.7777 23.4778C30.5919 23.3531 30.3531 23.2831 30.075 23.2831ZM93.0778 66.2417C92.9906 66.2417 92.9055 66.221 92.8283 66.1797L26.3588 30.49L26.2337 30.4093C25.5488 29.9892 25.2442 29.3864 25.2256 28.3995C25.197 26.9272 25.7775 25.4756 26.8607 24.3126C28.6894 22.3469 30.3423 22.3109 31.2138 22.8797L97.5096 58.4814C97.7477 58.6074 97.832 58.8934 97.6955 59.1175L93.5146 66.0043C93.4467 66.1143 93.3394 66.1924 93.2093 66.225C93.1657 66.2364 93.1214 66.2417 93.0778 66.2417Z" fill="#252323"/>
<path d="M46.0354 36.2364L95.1115 62.6374L97.357 58.9393C97.3878 58.8879 97.3692 58.8233 97.3148 58.7946L31.0019 23.1836C30.1311 22.5995 28.652 22.9369 27.1513 24.5492C26.8518 24.8706 26.5958 25.2227 26.3771 25.5928C26.3735 25.6141 26.3706 25.6368 26.3613 25.6521L36.8221 31.2793L46.0354 36.2364Z" fill="white"/>
<path d="M95.257 63.1329L45.8428 36.5492L46.2302 35.9231L94.9674 62.1427L96.887 58.9814L30.81 23.4971C30.1287 23.0429 28.8482 23.279 27.4456 24.786C27.2411 25.0054 27.0509 25.2481 26.8772 25.5121L37.017 30.9667L36.6288 31.5928L25.8398 25.7882L26.0393 25.4188C26.2795 25.0114 26.5562 24.6386 26.86 24.3126C28.7017 22.3341 30.3646 22.3108 31.2297 22.8909L97.509 58.4813C97.7464 58.6073 97.8307 58.8927 97.6956 59.1167L95.257 63.1329Z" fill="#252323"/>
<path d="M38.8164 32.3523L44.074 35.1809L38.8164 32.3523Z" fill="white"/>
<path d="M43.8826 35.4936L38.625 32.665L39.0125 32.0389L44.27 34.8681L43.8826 35.4936Z" fill="#252323"/>
<path d="M26.4553 30.0746L26.5504 30.1372L93.02 65.8263C93.0743 65.8556 93.1443 65.8383 93.1758 65.7869L93.895 64.602L92.3007 64.0672L25.7676 28.4369C25.784 29.3131 25.8791 29.7211 26.4553 30.0746Z" fill="#252323"/>
<path d="M26.2022 29.0862C26.2623 29.4396 26.3931 29.6036 26.6684 29.7723L26.7727 29.841L92.9742 65.3847L93.3316 64.7966L92.1077 64.3805L26.2022 29.0862ZM93.0757 66.2022C92.9892 66.2022 92.9027 66.1809 92.8254 66.1389L26.3574 30.4505L26.2394 30.3751C25.4666 29.899 25.3958 29.2742 25.3801 28.4434L25.3672 27.8059L92.463 63.7377L94.4583 64.4065L93.5125 65.9648C93.4453 66.0748 93.3366 66.1529 93.2065 66.1855C93.1636 66.1969 93.1193 66.2022 93.0757 66.2022Z" fill="#252323"/>
<path d="M98.4763 60.7812C98.4763 62.6182 97.0936 64.8514 95.3885 65.7696C93.6834 66.6878 92.3008 65.9436 92.3008 64.1072C92.3008 62.2702 93.6834 60.037 95.3885 59.1188C97.0936 58.2006 98.4763 58.9448 98.4763 60.7812Z" fill="#01BBFF"/>
<path d="M96.7663 59.0854C96.4124 59.0854 96.0091 59.2021 95.5831 59.4315C93.9873 60.291 92.689 62.3881 92.689 64.1071C92.689 64.8606 92.9414 65.4114 93.3997 65.6581C93.8587 65.9062 94.4957 65.8328 95.1956 65.4568C96.7913 64.5973 98.0889 62.5001 98.0889 60.7811C98.0889 60.0276 97.8372 59.4768 97.3783 59.2301C97.1995 59.1334 96.9929 59.0854 96.7663 59.0854ZM94.0095 66.5257C93.6485 66.5257 93.3117 66.4456 93.0122 66.2843C92.3037 65.9029 91.9141 65.1294 91.9141 64.1071C91.9141 62.1247 93.3553 59.7969 95.1956 58.806C96.1464 58.2946 97.0587 58.2226 97.7657 58.604C98.4742 58.9854 98.8646 59.7589 98.8646 60.7811C98.8646 62.7629 97.4233 65.0914 95.5831 66.0822C95.0354 66.377 94.5 66.5257 94.0095 66.5257Z" fill="#252323"/>
<path d="M29.184 31.8927C29.184 31.8927 27.2923 30.8958 26.4029 30.4171C25.3813 29.8683 25.3413 28.8181 25.3398 28.7741L25.9361 28.76L25.638 28.7667L25.9361 28.7587C25.9368 28.7907 25.974 29.5449 26.7004 29.9356C27.5883 30.4131 29.4771 31.4093 29.4771 31.4093L29.184 31.8927Z" fill="#01BBFF"/>
<path d="M56.7449 0.442108C56.4511 0.308079 56.0614 0.335426 55.6289 0.568142L47.5595 4.91307C40.8535 8.52452 35.3672 17.3878 35.3672 24.61V26.395C35.3672 26.8231 35.513 27.1319 35.7475 27.3126L87.9743 55.294C88.0465 55.3326 88.1387 55.3126 88.1852 55.2486L102.503 35.5177C102.511 35.507 102.52 35.4977 102.53 35.489L107.964 31.08C107.984 31.064 107.999 31.0447 108.008 31.022L109.037 28.5755C109.065 28.5068 109.036 28.4295 108.968 28.3928L56.7449 0.442108Z" fill="#01BBFF"/>
<path d="M35.9781 27.0165L87.9882 54.8818L102.216 35.2756L102.282 35.2149L107.672 30.8413L108.609 28.6148L56.5701 0.762165C56.3821 0.682148 56.119 0.724159 55.828 0.880859L47.7579 5.22646C41.142 8.78856 35.7593 17.4844 35.7593 24.61V26.395C35.7593 26.6737 35.8366 26.8938 35.9781 27.0165ZM88.0555 55.674C87.964 55.674 87.871 55.6527 87.7866 55.6073L35.5056 27.5906C35.2675 27.4073 34.9844 27.0512 34.9844 26.395V24.61C34.9844 17.2544 40.5408 8.27779 47.3705 4.60033L55.4405 0.254715C55.9667 -0.0286789 56.4922 -0.077343 56.9197 0.117367L56.9426 0.128696L109.166 28.0787C109.402 28.2061 109.502 28.4695 109.402 28.7062L108.374 31.1547C108.34 31.2327 108.286 31.3034 108.218 31.3568L102.812 35.7437L88.5108 55.4513C88.4058 55.5953 88.2321 55.674 88.0555 55.674Z" fill="#252323"/>
<path d="M102.558 35.529L107.483 31.5328L106.08 29.5624L53.8343 1.58835L47.5873 4.95309C44.5753 6.57478 41.815 9.26001 39.6816 12.3767L91.8855 40.3381L98.7738 40.7348L102.531 35.5577C102.539 35.547 102.547 35.537 102.558 35.529Z" fill="white"/>
<path d="M91.9991 39.9826L98.5764 40.3614L102.303 35.2563L106.972 31.4681L105.807 29.8331L53.8349 2.00577L47.7809 5.26581C45.0442 6.7388 42.3739 9.212 40.2291 12.2527L91.9991 39.9826ZM98.9703 41.1082L91.771 40.6935L39.1367 12.5014L39.3548 12.182C41.6018 8.89993 44.4565 6.22134 47.3934 4.63967L53.8334 1.17159L54.0272 1.27561L106.352 29.2917L107.994 31.5968L102.834 35.7831L98.9703 41.1082Z" fill="#252323"/>
<path d="M92.6735 45.4052L81.457 39.3972L81.8424 38.7711L93.0589 44.7784L92.6735 45.4052Z" fill="#252323"/>
<path d="M79.4296 38.3123L71.5254 34.0787L71.9107 33.4525L79.815 37.6861L79.4296 38.3123Z" fill="#252323"/>
<path d="M69.742 33.1257L40.4629 17.4437L40.8482 16.8169L70.1273 32.4989L69.742 33.1257Z" fill="#252323"/>
<path d="M87.6497 51.3876L35.4151 23.3909C35.3908 23.741 35.3672 24.0918 35.3672 24.4352V26.2202C35.3672 26.6483 35.513 26.957 35.7475 27.1377L87.9743 55.1191C88.0465 55.1578 88.1387 55.1384 88.1852 55.0738L88.7921 54.2376L87.6497 51.3876Z" fill="#252323"/>
<path d="M87.6191 52.4954V54.3652C87.6191 55.3474 88.3584 55.7448 89.2699 55.254L98.6276 50.2156C99.5391 49.7242 100.278 50.1222 100.278 51.1038V64.0412C100.278 65.0228 101.017 65.4209 101.928 64.9301L107.882 61.7241C108.793 61.2333 109.532 60.0397 109.532 59.0582V29.4271C109.532 28.4456 108.793 28.0475 107.882 28.5383L99.7328 32.9265C93.0426 36.5293 87.6191 45.2905 87.6191 52.4954Z" fill="#252323"/>
<path d="M99.3681 49.6421C99.5911 49.6421 99.802 49.6928 99.9908 49.7942C100.427 50.0296 100.669 50.495 100.669 51.1045V64.0412C100.669 64.3767 100.774 64.626 100.957 64.7247C101.143 64.8248 101.426 64.7847 101.737 64.6167L107.691 61.4114C108.48 60.9859 109.148 59.9077 109.148 59.0575V29.4271C109.148 29.0924 109.042 28.843 108.858 28.7436C108.674 28.6443 108.389 28.6843 108.078 28.8517L99.9293 33.2393C93.357 36.7787 88.01 45.4166 88.01 52.4954V54.3658C88.01 54.7006 88.1152 54.95 88.2996 55.0493C88.4841 55.1487 88.7679 55.1093 89.0789 54.9413L98.4358 49.9022C98.7575 49.7295 99.0742 49.6421 99.3681 49.6421ZM101.193 65.5029C100.969 65.5029 100.759 65.4522 100.571 65.3509C100.134 65.1155 99.8928 64.6507 99.8928 64.0412V51.1045C99.8928 50.7691 99.7877 50.5197 99.6033 50.4203C99.4203 50.321 99.135 50.361 98.8233 50.5283L89.4664 55.5674C88.9001 55.8722 88.3482 55.9102 87.9121 55.6748C87.4753 55.4401 87.2344 54.9753 87.2344 54.3658V52.4954C87.2344 45.1865 92.7557 36.2679 99.5411 32.6138L107.691 28.2255C108.256 27.9215 108.809 27.8828 109.245 28.1175C109.682 28.3529 109.923 28.8183 109.923 29.4271V59.0575C109.923 60.1711 109.113 61.48 108.078 62.0375L102.125 65.2428C101.803 65.4162 101.486 65.5029 101.193 65.5029Z" fill="#252323"/>
<path d="M87.9205 54.3664L87.3242 54.3644L87.3314 52.0886L87.9269 52.0899L87.9205 54.3664Z" fill="#01BBFF"/>
<path d="M105.658 36.5192C105.572 36.5038 105.495 36.4918 105.495 36.4918C105.139 36.4578 104.686 36.6345 104.202 37.154C103.932 37.4447 103.726 37.7888 103.613 38.1582C103.427 38.7577 103.502 39.1984 103.724 39.4445C103.724 39.4445 104.172 40.0493 105.171 40.2666C105.218 40.2766 105.271 40.2573 105.297 40.2193L106.783 38.0155L106.847 37.222C106.849 37.1926 106.842 37.1673 106.821 37.146C106.706 37.0313 106.324 36.6445 105.658 36.5192Z" fill="#01BBFF"/>
<path d="M105.402 36.7638C105.228 36.7638 104.883 36.8485 104.429 37.3366C104.183 37.5993 104 37.9107 103.9 38.2355C103.759 38.6889 103.779 39.0737 103.952 39.2657C103.983 39.3044 104.338 39.7605 105.116 39.9665L106.493 37.9261L106.545 37.2773C106.398 37.1392 106.089 36.8845 105.603 36.7918L105.446 36.7658C105.433 36.7645 105.418 36.7638 105.402 36.7638ZM105.199 40.548C105.167 40.548 105.136 40.544 105.104 40.5373C104.006 40.2986 103.501 39.6311 103.48 39.6024C103.186 39.2804 103.125 38.7322 103.327 38.0814C103.451 37.6794 103.677 37.2959 103.978 36.9719C104.617 36.2857 105.17 36.1817 105.526 36.215L105.718 36.2464C106.219 36.3411 106.663 36.5791 107.037 36.9545C107.117 37.0346 107.153 37.1352 107.145 37.2426L107.075 38.1055L105.55 40.3673C105.472 40.4813 105.339 40.548 105.199 40.548Z" fill="#01BBFF"/>
<path d="M107.263 37.9875C107.263 38.7736 106.672 39.7292 105.942 40.1219C105.213 40.5147 104.621 40.1966 104.621 39.4104C104.621 38.6249 105.213 37.6694 105.942 37.276C106.672 36.8832 107.263 37.2019 107.263 37.9875Z" fill="#252323"/>
<path d="M106.533 37.386C106.405 37.386 106.254 37.4307 106.093 37.5167C105.457 37.8588 104.92 38.7263 104.92 39.4104C104.92 39.6832 105.007 39.8859 105.159 39.9672C105.311 40.0499 105.542 40.0172 105.795 39.8812C106.43 39.5384 106.967 38.6716 106.967 37.9874C106.967 37.7154 106.88 37.512 106.729 37.4307C106.673 37.4006 106.608 37.386 106.533 37.386ZM105.353 40.5693C105.176 40.5693 105.01 40.5293 104.86 40.4486C104.515 40.2626 104.324 39.8939 104.324 39.4104C104.324 38.5222 104.971 37.4793 105.795 37.0352C106.244 36.7925 106.681 36.7632 107.027 36.9492C107.373 37.1353 107.563 37.504 107.563 37.9874C107.563 38.875 106.917 39.9185 106.093 40.3626C105.838 40.5 105.586 40.5693 105.353 40.5693Z" fill="#01BBFF"/>
<path d="M105.658 41.7517C105.572 41.7371 105.495 41.7244 105.495 41.7244C105.139 41.6911 104.686 41.8678 104.202 42.3872C103.932 42.6773 103.726 43.0213 103.613 43.3914C103.427 43.9902 103.502 44.431 103.724 44.6777C103.724 44.6777 104.172 45.2825 105.171 45.4999C105.218 45.5099 105.271 45.4905 105.297 45.4519L106.783 43.2487L106.847 42.4546C106.849 42.4259 106.842 42.3999 106.821 42.3792C106.706 42.2645 106.324 41.8778 105.658 41.7517Z" fill="#01BBFF"/>
<path d="M105.402 41.997C105.227 41.997 104.882 42.0817 104.429 42.5692C104.183 42.8326 104 43.1433 103.9 43.468C103.759 43.9215 103.779 44.3069 103.952 44.4982C103.983 44.5369 104.338 44.993 105.116 45.1991L106.493 43.1586L106.545 42.5105C106.398 42.3718 106.089 42.1171 105.603 42.0244L105.447 41.999C105.434 41.9977 105.419 41.997 105.402 41.997ZM105.199 45.7805C105.167 45.7805 105.136 45.7772 105.104 45.7699C104.006 45.5318 103.501 44.8637 103.48 44.8357C103.186 44.5129 103.125 43.9655 103.327 43.314C103.451 42.9119 103.677 42.5285 103.978 42.2044C104.617 41.5183 105.17 41.4149 105.526 41.4482L105.718 41.4796C106.219 41.5743 106.663 41.8123 107.037 42.1871C107.117 42.2671 107.153 42.3685 107.145 42.4751L107.075 43.338L105.55 45.5998C105.472 45.7138 105.339 45.7805 105.199 45.7805Z" fill="#01BBFF"/>
<path d="M107.263 43.2206C107.263 44.0061 106.672 44.9616 105.942 45.3544C105.213 45.7478 104.621 45.4291 104.621 44.6429C104.621 43.8574 105.213 42.9018 105.942 42.5091C106.672 42.1163 107.263 42.4344 107.263 43.2206Z" fill="#252323"/>
<path d="M106.533 42.6191C106.405 42.6191 106.254 42.6631 106.093 42.7498C105.457 43.0919 104.92 43.9587 104.92 44.6435C104.92 44.9156 105.007 45.119 105.159 45.2003C105.311 45.2823 105.542 45.2503 105.795 45.1136C106.43 44.7716 106.967 43.904 106.967 43.2206C106.967 42.9478 106.88 42.7445 106.729 42.6631C106.673 42.6338 106.608 42.6191 106.533 42.6191ZM105.353 45.8018C105.176 45.8018 105.01 45.7618 104.86 45.6818C104.515 45.4957 104.324 45.127 104.324 44.6435C104.324 43.7554 104.971 42.7125 105.795 42.2684C106.244 42.0256 106.683 41.995 107.027 42.1823C107.373 42.3677 107.563 42.7371 107.563 43.2206C107.563 44.1081 106.918 45.151 106.093 45.5958C105.838 45.7331 105.586 45.8018 105.353 45.8018Z" fill="#01BBFF"/>
<path d="M20.3277 32.6191C19.4562 32.0343 17.9778 32.3717 16.4764 33.984C15.4855 35.0482 14.9093 36.4185 14.9365 37.8282C14.9536 38.7037 15.2046 39.1951 15.7808 39.5492L15.8759 39.6112L82.3447 75.3009C82.3997 75.3303 82.4698 75.3123 82.5005 75.2609L86.6821 68.3741C86.7129 68.3227 86.6943 68.2581 86.64 68.2294L20.3277 32.6191Z" fill="#01BBFF"/>
<path d="M19.4018 32.7177C18.7105 32.7177 17.7718 33.1465 16.7716 34.2207C15.8151 35.2489 15.3017 36.5279 15.3268 37.8215C15.3432 38.6764 15.5956 39.0011 15.9967 39.2471L16.1017 39.3158L82.3025 74.8595L86.2145 68.4161L20.1039 32.9124C19.918 32.7871 19.6799 32.7177 19.4018 32.7177ZM82.4033 75.6763C82.3167 75.6763 82.2302 75.655 82.153 75.613L15.6849 39.9246L15.5598 39.8439C14.8764 39.4245 14.5711 38.821 14.5518 37.8348C14.5232 36.3612 15.1044 34.9102 16.1861 33.7466C18.0163 31.7822 19.6707 31.7449 20.5393 32.3143L86.8358 67.916C87.0739 68.0454 87.1575 68.3301 87.0224 68.5521L82.8408 75.439C82.7757 75.5476 82.6671 75.6263 82.5369 75.6597C82.4933 75.671 82.4483 75.6763 82.4033 75.6763Z" fill="#252323"/>
<path d="M72.469 65.6342L84.4369 72.0723L86.6825 68.3742C86.7132 68.3228 86.6947 68.2581 86.6403 68.2295L20.3281 32.6191C19.4566 32.0343 17.9781 32.3717 16.4768 33.9841C16.1772 34.3055 15.9213 34.6576 15.7025 35.0276C15.6989 35.049 15.6968 35.0716 15.6875 35.087L43.2093 49.8928L44.8772 50.7904L62.2406 60.1317L72.469 65.6342Z" fill="white"/>
<path d="M84.5812 72.5676L72.2745 65.9468L72.662 65.3207L84.2917 71.5774L86.2113 68.416L20.1335 32.9324C19.4515 32.477 18.1711 32.715 16.7684 34.2207C16.5646 34.4394 16.3744 34.6828 16.2007 34.9462L62.4335 59.8182L62.0461 60.4443L15.1641 35.2229L15.3621 34.8528C15.603 34.4454 15.8797 34.0733 16.1828 33.7472C18.0252 31.7695 19.6874 31.7448 20.5532 32.3256L86.8325 67.9159C87.0706 68.0453 87.1543 68.33 87.0191 68.5521L84.5812 72.5676Z" fill="#252323"/>
<path d="M63.959 61.0558L70.8344 64.7546L63.959 61.0558Z" fill="white"/>
<path d="M70.6411 65.0681L63.7656 61.3693L64.1531 60.7431L71.0285 64.4419L70.6411 65.0681Z" fill="#252323"/>
<path d="M15.7776 39.5091L15.8727 39.5718L82.3422 75.2608C82.3972 75.2901 82.4673 75.2728 82.4981 75.2215L83.218 74.0365L81.623 73.5018L15.0898 37.8714C15.107 38.7476 15.2021 39.1557 15.7776 39.5091Z" fill="#252323"/>
<path d="M15.5238 38.521C15.5845 38.875 15.7154 39.0384 15.9899 39.2071L16.0957 39.2771L82.2964 74.8195L82.6539 74.2313L81.4299 73.8152L15.5238 38.521ZM82.3972 75.637C82.3107 75.637 82.2256 75.6156 82.1484 75.5743L15.6789 39.8853L15.5602 39.8092C14.7888 39.3338 14.718 38.709 14.7023 37.8782L14.6895 37.2407L81.7852 73.1724L83.7806 73.8412L82.8348 75.3996C82.7668 75.5089 82.6596 75.5876 82.5295 75.6203C82.4859 75.6316 82.4416 75.637 82.3972 75.637Z" fill="#252323"/>
<path d="M87.8025 70.2165C87.8025 72.0529 86.4205 74.286 84.7147 75.2042C83.0096 76.1224 81.627 75.3782 81.627 73.5418C81.627 71.7048 83.0096 69.4716 84.7147 68.5534C86.4205 67.6352 87.8025 68.3794 87.8025 70.2165Z" fill="#01BBFF"/>
<path d="M86.0912 68.5201C85.7373 68.5201 85.3341 68.6368 84.9073 68.8662C83.3116 69.7257 82.014 71.8228 82.014 73.5419C82.014 74.2954 82.2656 74.8461 82.7246 75.0929C83.1829 75.3396 83.8213 75.2682 84.5198 74.8915C86.1155 74.0326 87.4138 71.9348 87.4138 70.2158C87.4138 69.4623 87.1614 68.9115 86.7039 68.6648C86.5244 68.5681 86.3178 68.5201 86.0912 68.5201ZM83.3337 75.9604C82.9734 75.9604 82.6367 75.8804 82.3371 75.719C81.6286 75.3376 81.2383 74.5641 81.2383 73.5419C81.2383 71.5601 82.6796 69.2316 84.5198 68.2407C85.4706 67.7286 86.3829 67.6579 87.0907 68.0387C87.7991 68.4201 88.1888 69.1929 88.1888 70.2158C88.1888 72.1976 86.7475 74.5267 84.9073 75.5176C84.3603 75.8124 83.8249 75.9604 83.3337 75.9604Z" fill="#252323"/>
<path d="M15.3316 39.5699C14.8212 39.0211 14.7976 38.3603 14.7969 38.3323V37.9989H15.3931V38.3257C15.3931 38.3257 15.4167 38.8131 15.782 39.2058L15.3316 39.5699Z" fill="#01BBFF"/>
<path d="M106.658 106.904C106.447 106.812 106.17 106.833 105.863 106.998L102.654 108.727C102.303 108.915 101.968 109.026 101.656 109.072L102.226 70.5098L99.72 71.176V63.3009L97.0212 64.6952V108.541C97.0212 110.279 95.7007 112.412 94.0871 113.281L90.9915 114.948C90.416 115.258 89.9706 115.758 89.7847 116.353C89.5717 117.033 89.7211 117.495 90.0506 117.661L93.641 119.475C93.6825 119.496 93.7325 119.494 93.7725 119.47L100.055 115.64L109.002 110.306L110.274 108.901C110.327 108.843 110.309 108.755 110.237 108.719L106.658 106.904Z" fill="#01BBFF"/>
<path d="M97.4089 64.9088V108.542C97.4089 110.399 96.0055 112.666 94.2811 113.594L91.1855 115.261C90.685 115.53 90.3097 115.966 90.1567 116.454C89.9987 116.959 90.0867 117.269 90.2346 117.343L93.6892 119.088L99.8439 115.337L108.744 110.032L109.773 108.896L106.487 107.228C106.386 107.189 106.229 107.219 106.057 107.312L102.848 109.039C102.47 109.243 102.09 109.374 101.717 109.429L101.263 109.496L101.269 109.068L101.831 70.9901L99.3328 71.6549V63.9146L97.4089 64.9088ZM93.7027 119.851C93.6191 119.851 93.5355 119.832 93.4582 119.794L89.8664 117.978C89.4511 117.77 89.1136 117.207 89.4132 116.252C89.6241 115.576 90.116 115.002 90.798 114.635L93.8929 112.968C95.3785 112.168 96.6332 110.141 96.6332 108.542V64.4827L100.108 62.6876V70.6974L102.621 70.0285L102.052 108.598C102.186 108.55 102.323 108.488 102.461 108.414L105.67 106.686C106.074 106.468 106.482 106.43 106.821 106.576L106.843 106.586L110.423 108.402C110.559 108.47 110.654 108.592 110.684 108.736C110.712 108.878 110.671 109.024 110.569 109.136L109.21 110.611L100.264 115.944L93.9844 119.772C93.9001 119.825 93.8014 119.851 93.7027 119.851Z" fill="#252323"/>
<path d="M99.8171 113.466L96.0194 111.446L96.0123 111.442C95.4946 112.212 94.824 112.882 94.0834 113.281L90.9885 114.948C90.7411 115.081 90.5774 115.281 90.3887 115.477L93.9125 117.343L95.0228 117.985L97.4357 117.235L99.2881 116.105L99.8171 113.466Z" fill="white"/>
<path d="M90.9996 115.387L94.0995 117.028L95.0689 117.588L97.2616 116.906L98.9338 115.887L99.3828 113.653L96.1313 111.924C95.5887 112.656 94.9509 113.229 94.2739 113.594L91.1783 115.261C91.114 115.295 91.056 115.337 90.9996 115.387ZM94.9688 118.381L93.7041 117.649L89.7734 115.569L90.1881 115.139C90.349 114.968 90.5306 114.775 90.7915 114.635L93.8857 112.968C94.5327 112.62 95.1697 112.009 95.6802 111.25L95.9139 110.903L96.2535 111.162L100.245 113.281L99.6344 116.323L97.5533 117.577L94.9688 118.381Z" fill="#252323"/>
<path d="M106.657 106.892C106.446 106.8 106.169 106.821 105.863 106.986L102.653 108.715C102.302 108.903 101.968 109.014 101.656 109.06L101.461 109.658L105.126 111.463L105.999 112.084L109.001 110.294L110.274 108.889C110.326 108.831 110.308 108.743 110.237 108.707L106.657 106.892Z" fill="white"/>
<path d="M101.926 109.478L105.363 111.176L106.02 111.644L108.744 110.02L109.773 108.883L106.487 107.216C106.386 107.176 106.229 107.207 106.058 107.3L102.848 109.027C102.552 109.187 102.255 109.302 101.961 109.371L101.926 109.478ZM105.98 112.524L104.918 111.769L100.998 109.838L101.357 108.739L101.596 108.703C101.874 108.662 102.165 108.561 102.461 108.402L105.67 106.674C106.074 106.457 106.481 106.418 106.821 106.564L106.843 106.574L110.423 108.39C110.559 108.458 110.655 108.58 110.684 108.723C110.712 108.867 110.671 109.013 110.569 109.123L109.21 110.599L105.98 112.524Z" fill="#252323"/>
<path d="M103.349 108.985V65.14L100.65 66.535V110.38C100.65 112.125 99.3363 114.248 97.7155 115.121L94.5062 116.848C93.8478 117.203 93.3145 118.065 93.3145 118.774C93.3145 119.483 93.8478 119.77 94.5062 119.416L100.65 116.108L103.349 114.713L109.493 111.405C110.151 111.051 110.684 110.188 110.684 109.48C110.684 108.771 110.151 108.483 109.493 108.837L106.283 110.566C104.662 111.439 103.349 110.731 103.349 108.985Z" fill="#252323"/>
<path d="M101.037 66.7476V110.38C101.037 112.269 99.6618 114.489 97.9081 115.433L94.6995 117.161C94.1583 117.453 93.7015 118.191 93.7015 118.774C93.7015 118.977 93.7587 119.129 93.8559 119.181C93.9531 119.234 94.124 119.204 94.312 119.103L100.455 115.796L103.16 114.397L109.297 111.093C109.838 110.8 110.296 110.062 110.296 109.48C110.296 109.277 110.238 109.125 110.14 109.073C110.043 109.019 109.872 109.049 109.685 109.15L106.476 110.878C105.567 111.367 104.692 111.436 104.013 111.07C103.334 110.704 102.96 109.964 102.96 108.986V65.7534L101.037 66.7476ZM93.9703 119.928C93.7901 119.928 93.62 119.888 93.4691 119.807C93.1238 119.621 92.9258 119.245 92.9258 118.774C92.9258 117.937 93.5349 116.954 94.312 116.536L97.5206 114.808C99.032 113.994 100.261 112.007 100.261 110.38V66.3215L103.735 64.5265V108.986C103.735 109.696 103.971 110.213 104.4 110.444C104.829 110.675 105.429 110.607 106.088 110.253L109.297 108.525C109.734 108.29 110.183 108.261 110.527 108.447C110.873 108.633 111.071 109.009 111.071 109.48C111.071 110.316 110.461 111.3 109.685 111.718L103.542 115.026L100.836 116.424L94.6995 119.728C94.4529 119.861 94.2033 119.928 93.9703 119.928Z" fill="#252323"/>
<path d="M100.446 108.293L96.8145 106.182L97.2241 105.569L100.855 107.679L100.446 108.293Z" fill="#252323"/>
<path d="M100.446 90.8483L96.8145 88.7379L97.2241 88.1244L100.855 90.2348L100.446 90.8483Z" fill="#252323"/>
<path d="M101.202 80.0318L100.904 79.5504L102.931 78.4588L103.229 78.9402L101.202 80.0318Z" fill="#01BBFF"/>
<path d="M104.19 54.0996C104.032 54.0183 103.816 54.0309 103.576 54.1596L85.5958 63.8424C85.0146 64.1551 84.4641 64.7332 84.0959 65.416L76.8387 78.8856C76.6021 79.3251 76.4727 79.7852 76.4727 80.1879V83.1132C76.4727 83.3359 76.547 83.4973 76.6664 83.5946L76.6886 83.612C76.7164 83.632 83.2437 87.0794 83.8993 87.4295C83.9229 87.4421 83.9529 87.4348 83.9672 87.4128L86.3958 83.82C86.398 83.8174 86.4001 83.814 86.403 83.812L105.938 65.5914L109.4 62.126C109.404 62.122 109.407 62.118 109.409 62.1133L111.45 57.9951C111.461 57.9731 111.452 57.9464 111.429 57.9338L104.19 54.0996Z" fill="#01BBFF"/>
<path d="M103.972 54.4097C103.93 54.4097 103.863 54.4251 103.775 54.4724L85.7942 64.1552C85.2823 64.4305 84.7783 64.9627 84.4466 65.5781L77.1901 79.0484C76.9807 79.4364 76.8648 79.8412 76.8648 80.1879V83.1132C76.8648 83.2306 76.8963 83.2986 76.9263 83.3226C76.9928 83.358 79.2348 84.5435 81.0364 85.4964C82.1989 86.1105 83.2877 86.6867 83.8153 86.9667L86.1331 83.556L105.668 65.3361L109.085 61.916L110.974 58.1059L104.007 54.4157C103.999 54.4124 103.987 54.4097 103.972 54.4097ZM83.9304 87.7976C83.8546 87.7976 83.7782 87.7796 83.7081 87.7409C83.4336 87.5949 82.1002 86.8894 80.6547 86.1252C76.4952 83.9261 76.4931 83.9241 76.4588 83.9001C76.2064 83.6954 76.0898 83.428 76.0898 83.1132V80.1879C76.0898 79.7305 76.235 79.2104 76.4973 78.7236L83.7538 65.2534C84.157 64.5059 84.7597 63.8778 85.4067 63.529L103.388 53.8469C103.733 53.6602 104.095 53.6369 104.381 53.7829L104.386 53.7849L111.625 57.6198C111.825 57.7271 111.902 57.9525 111.807 58.1459L109.679 62.3814L106.226 65.8375L86.7058 84.0441L84.3 87.6055C84.2171 87.7296 84.0756 87.7976 83.9304 87.7976Z" fill="#252323"/>
<path d="M76.6664 83.5946L76.6886 83.612C76.7164 83.632 83.2437 87.0794 83.8993 87.4295C83.9229 87.4421 83.9529 87.4348 83.9672 87.4128L84.7258 86.2906C84.1788 85.3477 83.7563 84.6442 83.7563 84.6442L76.4727 80.7387V83.1132C76.4727 83.3359 76.547 83.4973 76.6664 83.5946Z" fill="#252323"/>
<path d="M76.9242 83.3213L76.9427 83.3359C76.9928 83.358 79.2348 84.5435 81.0364 85.4964C82.1982 86.1105 83.2877 86.6867 83.8153 86.9667L84.2815 86.2766C83.8997 85.6198 83.5923 85.1043 83.475 84.9076L76.8648 81.3635V83.1132C76.8648 83.2286 76.8956 83.2959 76.9242 83.3213ZM83.9304 87.7976C83.8546 87.7976 83.7782 87.7796 83.7081 87.7409C83.4336 87.5949 82.1002 86.8894 80.6547 86.1252C76.4952 83.9261 76.4931 83.9241 76.4588 83.9001L76.4166 83.8674C76.2064 83.6954 76.0898 83.428 76.0898 83.1132V80.1139L84.0463 84.3802L84.0991 84.4675C84.0991 84.4675 84.5224 85.173 85.0707 86.1185L85.1794 86.3046L84.3 87.6055C84.2171 87.7296 84.0756 87.7976 83.9304 87.7976Z" fill="#252323"/>
<path d="M91.3826 69.2749L110.001 60.2663L101.111 55.4893L85.5995 63.8424C85.0183 64.1552 84.4678 64.7333 84.0996 65.4161L91.3826 69.2749Z" fill="white"/>
<path d="M84.6233 65.2787L91.3886 68.8634L109.193 60.2496L101.11 55.906L85.7915 64.1551C85.3646 64.3845 84.9436 64.7926 84.6233 65.2787ZM91.3729 69.6856L83.5859 65.5601L83.7511 65.2533C84.1543 64.5058 84.757 63.8777 85.404 63.529L101.11 55.0718L110.807 60.2829L91.3729 69.6856Z" fill="#252323"/>
<path d="M110.861 73.3232L84.6365 87.4449C84.151 87.7063 83.7578 87.4949 83.7578 86.9715V84.0462C83.7578 83.6434 83.8865 83.1833 84.1232 82.7445L91.3804 69.275C91.7485 68.5915 92.299 68.014 92.8803 67.7006L110.861 58.0186C111.347 57.7572 111.74 57.9685 111.74 58.4913V71.9035C111.74 72.4263 111.347 73.0618 110.861 73.3232Z" fill="#252323"/>
<path d="M111.253 58.2679C111.213 58.2679 111.143 58.2832 111.055 58.3312L93.0735 68.0133C92.5616 68.2894 92.0576 68.8215 91.7259 69.4369L84.4687 82.9065C84.2599 83.2953 84.1448 83.7 84.1448 84.0461V86.9714C84.1448 87.1054 84.1841 87.1761 84.2084 87.1901C84.2328 87.2014 84.3178 87.1988 84.4422 87.1321L110.666 73.0104C111.032 72.8137 111.352 72.2962 111.352 71.9035V58.4912C111.352 58.3579 111.313 58.2872 111.288 58.2739C111.281 58.2699 111.27 58.2679 111.253 58.2679ZM84.2421 87.9176C84.0912 87.9176 83.9482 87.8843 83.821 87.8156C83.5343 87.6609 83.3691 87.3535 83.3691 86.9714V84.0461C83.3691 83.5893 83.5142 83.0699 83.7766 82.5825L91.0339 69.1122C91.4364 68.3654 92.0383 67.7366 92.686 67.3878L110.666 57.7051C111.021 57.515 111.389 57.4937 111.676 57.6477C111.963 57.8024 112.127 58.1098 112.127 58.4912V71.9035C112.127 72.551 111.656 73.3124 111.055 73.6365L110.86 73.3231L111.055 73.6365L84.8297 87.7576C84.6324 87.8643 84.4315 87.9176 84.2421 87.9176Z" fill="#252323"/>
<path d="M84.0591 86.9714H83.4629V84.7823H84.0591V86.9714Z" fill="#01BBFF"/>
<path d="M84.3825 82.4893L77.0996 78.6304L77.4828 78.0029L84.7658 81.8611L84.3825 82.4893Z" fill="#252323"/>
<path d="M89.8317 72.3942L82.5488 68.536L82.9313 67.9079L90.2142 71.766L89.8317 72.3942Z" fill="#252323"/>
<path d="M106.424 64.7859C106.339 64.7706 106.261 64.7586 106.261 64.7586C105.905 64.7246 105.451 64.9013 104.968 65.4207C104.698 65.7115 104.493 66.0555 104.378 66.4249C104.193 67.0244 104.267 67.4652 104.49 67.7119C104.49 67.7119 104.938 68.3167 105.938 68.5334C105.985 68.5441 106.037 68.5241 106.063 68.4861L107.549 66.2822L107.613 65.4887C107.615 65.4601 107.608 65.4341 107.586 65.4127C107.472 65.298 107.089 64.912 106.424 64.7859Z" fill="#01BBFF"/>
<path d="M106.168 65.0314C105.992 65.0314 105.647 65.1161 105.193 65.6035C104.947 65.8676 104.764 66.1783 104.664 66.5024C104.525 66.9551 104.545 67.3412 104.718 67.5326C104.749 67.5713 105.103 68.0267 105.881 68.2334L107.257 66.193L107.31 65.5442C107.164 65.4061 106.856 65.1521 106.368 65.0587L106.212 65.0334C106.199 65.0321 106.184 65.0314 106.168 65.0314ZM105.965 68.8149C105.933 68.8149 105.902 68.8116 105.87 68.8042C104.771 68.5655 104.266 67.898 104.245 67.87C103.952 67.5473 103.892 66.9992 104.092 66.3483C104.216 65.9476 104.441 65.5635 104.743 65.2388C105.381 64.5526 105.936 64.4486 106.291 64.4826L106.484 64.5133C106.986 64.6086 107.431 64.8474 107.804 65.2234C107.882 65.3015 107.919 65.4028 107.91 65.5095L107.84 66.3723L106.315 68.6342C106.239 68.7475 106.105 68.8149 105.965 68.8149Z" fill="#01BBFF"/>
<path d="M108.031 66.2542C108.031 67.0404 107.439 67.9959 106.71 68.3887C105.98 68.7814 105.389 68.4634 105.389 67.6772C105.389 66.8917 105.98 65.9361 106.71 65.5434C107.439 65.15 108.031 65.4687 108.031 66.2542Z" fill="#252323"/>
<path d="M107.299 65.6528C107.17 65.6528 107.019 65.6975 106.858 65.7842C106.222 66.1263 105.685 66.9931 105.685 67.6773C105.685 67.95 105.773 68.1534 105.923 68.2347C106.074 68.3161 106.306 68.2847 106.56 68.148C107.195 67.806 107.732 66.9391 107.732 66.2543C107.732 65.9822 107.646 65.7789 107.494 65.6975C107.439 65.6675 107.373 65.6528 107.299 65.6528ZM106.119 68.8362C105.941 68.8362 105.775 68.7962 105.625 68.7155C105.28 68.5301 105.09 68.1607 105.09 67.6773C105.09 66.7897 105.735 65.7469 106.56 65.3021C107.009 65.0607 107.447 65.03 107.792 65.2161C108.138 65.4021 108.328 65.7709 108.328 66.2543C108.328 67.1425 107.682 68.1854 106.858 68.6295C106.603 68.7668 106.352 68.8362 106.119 68.8362Z" fill="#01BBFF"/>
<path d="M102.973 69.6123C102.887 69.597 102.81 69.585 102.81 69.585C102.454 69.551 102.001 69.7277 101.517 70.2471C101.246 70.5379 101.041 70.8819 100.927 71.2513C100.742 71.8508 100.816 72.2916 101.039 72.5376C101.039 72.5376 101.487 73.1431 102.486 73.3598C102.533 73.3705 102.585 73.3505 102.611 73.3124L104.097 71.1086L104.162 70.3151C104.164 70.2858 104.156 70.2605 104.135 70.2391C104.021 70.1244 103.638 69.7377 102.973 69.6123Z" fill="#01BBFF"/>
<path d="M102.713 69.857C102.437 69.857 102.09 70.0577 101.744 70.4298C101.498 70.6932 101.316 71.0046 101.216 71.3287C101.076 71.7814 101.096 72.1669 101.269 72.3589C101.299 72.3976 101.654 72.853 102.432 73.0597L103.808 71.0193L103.86 70.3705C103.716 70.2325 103.407 69.9784 102.919 69.885L102.763 69.859C102.747 69.8577 102.73 69.857 102.713 69.857ZM102.516 73.6412C102.484 73.6412 102.452 73.6378 102.42 73.6305C101.322 73.3918 100.817 72.7243 100.796 72.6956C100.502 72.3729 100.442 71.8255 100.643 71.1746C100.767 70.7739 100.991 70.3898 101.294 70.0651C101.933 69.3789 102.487 69.2749 102.842 69.3082L103.034 69.3396C103.537 69.4349 103.982 69.6737 104.355 70.0497C104.433 70.1278 104.469 70.2284 104.461 70.3358L104.391 71.1987L102.866 73.4605C102.79 73.5738 102.656 73.6412 102.516 73.6412Z" fill="#01BBFF"/>
<path d="M104.58 71.0807C104.58 71.8668 103.989 72.8224 103.259 73.2151C102.529 73.6079 101.938 73.2898 101.938 72.5037C101.938 71.7181 102.529 70.7626 103.259 70.3692C103.989 69.9764 104.58 70.2952 104.58 71.0807Z" fill="#252323"/>
<path d="M103.845 70.4792C103.716 70.4792 103.565 70.5239 103.404 70.6099C102.769 70.9526 102.232 71.8195 102.232 72.5036C102.232 72.7763 102.319 72.9791 102.47 73.0611C102.621 73.1418 102.852 73.1111 103.106 72.9744C103.742 72.6323 104.278 71.7655 104.278 71.0806C104.278 70.8086 104.192 70.6052 104.04 70.5238C103.985 70.4938 103.919 70.4792 103.845 70.4792ZM102.665 73.6625C102.488 73.6625 102.322 73.6225 102.172 73.5425C101.827 73.3558 101.637 72.9871 101.637 72.5036C101.637 71.6161 102.282 70.5732 103.106 70.1284C103.555 69.887 103.993 69.8564 104.338 70.0424C104.684 70.2285 104.875 70.5972 104.875 71.0806C104.875 71.9688 104.228 73.0117 103.404 73.4558C103.15 73.5932 102.898 73.6625 102.665 73.6625Z" fill="#01BBFF"/>
<path d="M102.576 71.4366L102.08 71.1286L105.693 66.0668L106.189 66.3742L102.576 71.4366Z" fill="#01BBFF"/>
<path d="M104.385 72.535L103.889 72.2263L107.226 67.5599L107.721 67.868L104.385 72.535Z" fill="#01BBFF"/>
<path d="M36.161 41.2575C35.2903 40.6727 33.8111 41.0101 32.3105 42.6225C31.3196 43.6874 30.7426 45.057 30.7705 46.4666V76.3411C30.7705 76.7798 31.0207 77.1859 31.4275 77.4073L66.5811 96.4887C67.1738 96.8101 67.9173 96.4114 67.9173 95.7719V65.3514C68.0739 64.2251 68.5986 63.1569 69.4044 62.292C70.905 60.6797 72.3842 60.4136 73.255 60.9984L36.161 41.2575Z" fill="#01BBFF"/>
<path d="M35.2326 41.3569C34.5406 41.3569 33.6026 41.7849 32.6024 42.8598C31.6451 43.8881 31.1318 45.167 31.1569 46.46L31.1576 76.341C31.1576 76.6504 31.3356 76.9392 31.6223 77.0945L66.7759 96.1766C67.0018 96.2993 67.2027 96.2187 67.2785 96.178C67.3535 96.1373 67.5294 96.0159 67.5294 95.7719V65.3513C67.6981 64.1097 68.2443 62.9862 69.1108 62.0546C69.9516 61.1518 70.763 60.669 71.4794 60.4696L35.9347 41.5509C35.7488 41.4262 35.5108 41.3569 35.2326 41.3569ZM67.0275 96.9648C66.8073 96.9648 66.5871 96.9101 66.3862 96.8014L31.2326 77.7193C30.7079 77.4353 30.3819 76.9072 30.3819 76.341V46.4666C30.3533 45.001 30.9345 43.5493 32.0169 42.3857C33.8457 40.4206 35.5014 40.3846 36.3694 40.9521L73.1609 60.5323C73.276 60.581 73.3832 60.6397 73.4812 60.705L73.0629 61.3118L72.8049 61.1744C72.135 60.9111 71.0054 61.1231 69.6964 62.5287C68.93 63.3523 68.4474 64.3438 68.3015 65.3974L68.3051 95.7719C68.3051 96.2026 68.0656 96.5887 67.6652 96.8041C67.4658 96.9115 67.247 96.9648 67.0275 96.9648Z" fill="#252323"/>
<path d="M59.4182 92.5846V61.7106C59.3911 60.3009 59.968 58.9307 60.9589 57.8664C62.4596 56.2541 63.938 55.9167 64.8095 56.5015L42.9664 44.885C42.0949 44.3002 40.6164 44.6376 39.1151 46.2499C38.1242 47.3148 37.548 48.6844 37.5751 50.0941V80.7647L59.4182 92.5846Z" fill="#252323"/>
<path d="M37.9622 80.5566L59.0304 91.9571V61.7099C59.0025 60.2436 59.583 58.7926 60.6661 57.6297C61.5297 56.7008 62.3555 56.2027 63.0768 55.996L42.7736 45.1983C42.093 44.7449 40.8105 44.9796 39.4071 46.4873C38.4498 47.5155 37.9365 48.7938 37.9615 50.0874L37.9622 80.5566ZM59.8061 93.212L37.1865 80.9727V50.0941C37.1586 48.6284 37.7392 47.1768 38.8216 46.0132C40.6632 44.0361 42.3261 44.0114 43.1919 44.5916L64.734 56.0454C64.8427 56.0914 64.9435 56.146 65.0357 56.2074L64.6175 56.8149L64.3794 56.6882C63.6852 56.4168 62.5185 56.7422 61.2509 58.1038C60.2936 59.1314 59.7803 60.4096 59.8053 61.7039L59.8061 93.212Z" fill="#252323"/>
<path d="M61.7167 55.1498L49.0039 48.2703L49.3035 47.7896L62.0162 54.6691L61.7167 55.1498Z" fill="#01BBFF"/>
<path d="M34.0605 48.0304L64.3898 64.2725L34.0605 48.0304Z" fill="#01BBFF"/>
<path d="M64.1984 64.5859L33.8691 48.3431L34.2545 47.7169L64.5838 63.9591L64.1984 64.5859Z" fill="#252323"/>
<path d="M54.0311 7.5863L54.2627 7.71099C54.4793 7.82768 54.6838 7.8917 54.8775 7.90371C55.0699 7.91571 55.2486 7.87769 55.4123 7.78967C55.5767 7.70098 55.654 7.61098 55.6425 7.52029C55.6311 7.42894 55.5296 7.33158 55.3372 7.22822L55.017 7.05551L54.0311 7.5863ZM56.1473 8.15908C55.7905 8.35113 55.4059 8.43849 54.9934 8.41982C54.5801 8.40115 54.1684 8.28178 53.7566 8.05973L53.4541 7.89703L52.2738 8.53317L51.5703 8.15376L54.8904 6.36604L55.9507 6.9375C56.3532 7.15421 56.5726 7.36559 56.6091 7.57164C56.6448 7.77835 56.4911 7.97371 56.1473 8.15908Z" fill="#252323"/>
<path d="M57.0384 9.11121L57.2665 9.23324C57.4888 9.35327 57.6897 9.42196 57.8706 9.43863C58.05 9.45596 58.2195 9.42195 58.3789 9.33594C58.5362 9.25125 58.5948 9.16256 58.5526 9.06788C58.5104 8.97319 58.3753 8.86516 58.1501 8.74313L57.9356 8.62777L57.0384 9.11121ZM56.4657 9.41929L55.1925 10.1054L54.4883 9.72601L57.8084 7.9383L58.7764 8.45907C59.2268 8.70246 59.4791 8.92651 59.5313 9.13189C59.5835 9.3366 59.442 9.5293 59.1081 9.70934C58.9122 9.81403 58.6849 9.87872 58.4254 9.90273C58.1658 9.9274 57.8942 9.90939 57.6111 9.85004C57.3637 10.5209 57.2071 10.9556 57.1414 11.155L56.3599 10.7336L56.8411 9.62133L56.4657 9.41929Z" fill="#252323"/>
<path d="M57.5586 11.3798L60.878 9.59211L61.5829 9.97087L58.2628 11.7586L57.5586 11.3798Z" fill="#252323"/>
<path d="M62.0432 13.7949L61.1488 13.3135L62.2162 11.183L62.1954 11.1717C61.7808 11.4264 61.4784 11.6051 61.2896 11.7064L59.7275 12.548L59.0977 12.2085L62.4178 10.4215L63.3057 10.8989L62.2612 13.0147L62.2776 13.0234C62.6866 12.7787 62.9797 12.6086 63.1584 12.5126L64.7299 11.6658L65.3625 12.0072L62.0432 13.7949Z" fill="#252323"/>
<path d="M64.1612 14.9345L63.457 14.5558L66.1909 13.0835L65.2894 12.598L65.8749 12.2826L68.3829 13.6323L67.7966 13.9477L66.8951 13.4622L64.1612 14.9345Z" fill="#252323"/>
<path d="M44.7614 76.7318L44.7578 84.042L58.947 91.7204V89.2805L47.629 83.1785L47.6318 78.2795L44.7614 76.7318Z" fill="#01BBFF"/>
<path d="M58.9434 72.4997L54.7017 70.2125L44.7685 58.1452L44.7664 62.7662L51.4624 70.5966L44.7614 71.1767L44.7578 75.8257L54.8104 74.5334L58.9434 76.7613V72.4997Z" fill="#01BBFF"/>
<path d="M39.0405 8.86069C41.1924 9.35546 41.1924 10.9151 39.0405 11.4106C38.4471 11.5473 37.8179 11.5473 37.2253 11.4106C35.0733 10.9151 35.0733 9.35613 37.2253 8.86069C37.8179 8.724 38.4471 8.724 39.0405 8.86069Z" fill="#01BBFF"/>
<path d="M38.1329 9.12016C37.8591 9.12016 37.5846 9.15017 37.3179 9.21152C36.5172 9.39622 35.9989 9.75896 35.9989 10.1357C35.9989 10.5125 36.5172 10.8752 37.3179 11.0599C37.8512 11.1826 38.4146 11.1826 38.9479 11.0599C39.7494 10.8752 40.267 10.5125 40.267 10.1357C40.267 9.75896 39.7494 9.39622 38.9487 9.21152C38.6813 9.15017 38.4075 9.12016 38.1329 9.12016ZM38.1329 11.8741C37.7969 11.8741 37.4595 11.8367 37.1328 11.7614C35.9553 11.4907 35.2246 10.8679 35.2246 10.1357C35.2246 9.40355 35.9553 8.78076 37.1328 8.51003C37.7876 8.35933 38.4797 8.35933 39.1338 8.51003C40.3106 8.78076 41.042 9.40355 41.042 10.1357C41.042 10.8679 40.3106 11.4907 39.1338 11.7614C38.8064 11.8367 38.4704 11.8741 38.1329 11.8741Z" fill="#252323"/>
<path d="M38.135 5.38999C37.2363 5.38999 36.5078 6.06947 36.5078 6.90765V9.05811C36.5078 9.39019 36.8545 9.7216 37.5494 9.88096C37.9319 9.96965 38.338 9.96965 38.7212 9.88096C39.4154 9.7216 39.7629 9.39019 39.7629 9.05811V6.90765C39.7629 6.06947 39.0344 5.38999 38.135 5.38999Z" fill="white"/>
<path d="M38.1319 5.75146C37.4484 5.75146 36.8922 6.27024 36.8922 6.90771V9.05817C36.8922 9.20754 37.1481 9.41759 37.6393 9.53028C37.9617 9.60496 38.3027 9.60496 38.6252 9.53028C39.1156 9.41759 39.3715 9.20754 39.3715 9.05817V6.90771C39.3715 6.27024 38.816 5.75146 38.1319 5.75146ZM38.1319 10.3084C37.9038 10.3084 37.675 10.2831 37.4527 10.2318C36.4675 10.005 36.1172 9.47693 36.1172 9.05817V6.90771C36.1172 5.87149 37.0209 5.02864 38.1319 5.02864C39.2429 5.02864 40.1472 5.87149 40.1472 6.90771V9.05817C40.1472 9.47693 39.7962 10.0057 38.8103 10.2318C38.5887 10.2831 38.3599 10.3084 38.1319 10.3084Z" fill="#252323"/>
<path d="M38.1319 10.3084C37.9038 10.3084 37.675 10.2831 37.4527 10.2318C36.4675 10.0057 36.1172 9.47693 36.1172 9.05817C36.1172 8.63942 36.4675 8.1113 37.4527 7.88458L37.6393 8.58607C37.1481 8.69876 36.8915 8.90947 36.8915 9.05817C36.8915 9.20754 37.1481 9.41759 37.6386 9.53028C37.9617 9.6043 38.3027 9.60496 38.6252 9.53028C39.1156 9.41759 39.3722 9.20754 39.3722 9.05817C39.3722 8.90947 39.1156 8.69876 38.6252 8.58607L38.811 7.88458C39.7962 8.1113 40.1472 8.63942 40.1472 9.05817C40.1472 9.47693 39.7962 10.0057 38.8103 10.2318C38.5887 10.2831 38.3599 10.3084 38.1319 10.3084Z" fill="#252323"/>
<path d="M100.624 25.6309C102.776 26.1263 102.776 27.686 100.624 28.1808C100.031 28.3175 99.4026 28.3175 98.8093 28.1808C96.6573 27.686 96.6573 26.1263 98.8093 25.6309C99.4026 25.4942 100.031 25.4942 100.624 25.6309Z" fill="#01BBFF"/>
<path d="M99.7157 25.8896C99.4411 25.8896 99.1666 25.9203 98.8999 25.9816C98.0992 26.1663 97.5809 26.5291 97.5809 26.9058C97.5809 27.2826 98.0992 27.6453 98.8999 27.83C99.4347 27.9534 99.9988 27.9527 100.531 27.83C101.331 27.6453 101.85 27.2826 101.85 26.9058C101.85 26.5291 101.331 26.1663 100.531 25.9816C100.264 25.9203 99.9902 25.8896 99.7157 25.8896ZM99.7149 28.6449C99.3789 28.6449 99.0422 28.6069 98.7148 28.5315C97.5373 28.2608 96.8066 27.638 96.8066 26.9058C96.8066 26.1737 97.5373 25.5509 98.7148 25.2801C99.3704 25.1294 100.062 25.1301 100.716 25.2801C101.893 25.5509 102.624 26.1737 102.624 26.9058C102.624 27.638 101.893 28.2608 100.717 28.5315C100.388 28.6069 100.052 28.6449 99.7149 28.6449Z" fill="#252323"/>
<path d="M99.7138 22.1601C98.8144 22.1601 98.0859 22.8396 98.0859 23.6778V25.8283C98.0859 26.1603 98.4334 26.4917 99.1276 26.6511C99.5108 26.7398 99.9161 26.7398 100.299 26.6511C100.994 26.4917 101.341 26.1603 101.341 25.8283V23.6778C101.341 22.8396 100.612 22.1601 99.7138 22.1601Z" fill="white"/>
<path d="M99.7158 22.5215C99.0323 22.5215 98.4761 23.0403 98.4761 23.6778V25.8283C98.4761 25.9776 98.7328 26.1877 99.2233 26.301C99.5457 26.375 99.8874 26.375 100.21 26.3004C100.7 26.1877 100.956 25.9776 100.956 25.8283V23.6778C100.956 23.0403 100.4 22.5215 99.7158 22.5215ZM99.7158 27.0785C99.4878 27.0785 99.2597 27.0532 99.0381 27.0025C98.0522 26.7758 97.7012 26.2477 97.7012 25.8283V23.6778C97.7012 22.6416 98.6048 21.7987 99.7158 21.7987C100.827 21.7987 101.732 22.6416 101.732 23.6778V25.8283C101.732 26.2477 101.38 26.7758 100.395 27.0025C100.173 27.0532 99.9446 27.0785 99.7158 27.0785Z" fill="#252323"/>
<path d="M99.7158 27.0785C99.4877 27.0785 99.2597 27.0532 99.0381 27.0025C98.0522 26.7758 97.7012 26.2477 97.7012 25.8283C97.7012 25.4095 98.0522 24.8814 99.0374 24.6547L99.2233 25.3562C98.7328 25.4689 98.4761 25.6796 98.4761 25.8283C98.4761 25.9776 98.7328 26.1877 99.2233 26.301C99.5457 26.375 99.8874 26.375 100.21 26.3004C100.7 26.1877 100.956 25.9776 100.956 25.8283C100.956 25.6796 100.7 25.4689 100.209 25.3562L100.395 24.6547C101.38 24.8814 101.731 25.4095 101.731 25.8283C101.731 26.2477 101.38 26.7758 100.395 27.0025C100.173 27.0532 99.9446 27.0785 99.7158 27.0785Z" fill="#252323"/>
<path fill-rule="evenodd" clip-rule="evenodd" d="M32.5859 48.6864L65.6125 66.471L65.6125 102.04L32.5859 84.2556L32.5859 48.6864Z" fill="#252323"/>
<path d="M47.6775 63.3283L48.054 63.531L48.054 72.7406L47.5137 72.4496L47.5137 63.2401L47.6775 63.3283Z" fill="#EC268F"/>
<path d="M37.127 66.6803L37.127 57.6486L37.7796 58L41.2738 68.2077L44.727 61.7412L45.3796 62.0926L45.3796 71.3022L44.8393 71.0113L44.8393 62.9299L41.4666 69.1481L41.287 69.0514L41.2764 69.0727L41.2645 69.0393L41.0413 68.9191L37.6673 59.0678L37.6673 67.1491L37.127 66.8582L37.127 66.6803Z" fill="#00AFEF"/>
<path d="M51.375 64.0184L51.375 63.6186L55.5482 65.8658L55.5482 66.4435L51.375 64.1962L51.375 64.0184Z" fill="#FFF212"/>
<path d="M47.498 61.9624L47.498 61.5313L48.0635 61.8358L48.0635 62.4433L47.498 62.1388L47.498 61.9624Z" fill="#EC268F"/>
<path d="M55.1381 82.6204L55.4499 82.9547L52.2899 88.7126C52.097 89.0584 51.8817 89.2782 51.6452 89.3728C51.3956 89.4731 51.1247 89.4368 50.8315 89.2647C50.6729 89.195 50.5091 89.0883 50.3387 88.9481C50.1709 88.808 49.9952 88.6308 49.8116 88.4181L49.6782 88.2623L49.9041 87.8988L50.0481 88.0489C50.2224 88.2296 50.3757 88.3733 50.5065 88.4793C50.6267 88.5754 50.7258 88.6387 50.805 88.67L50.8275 88.6792C51.0111 88.7781 51.1789 88.793 51.3308 88.724C51.496 88.6479 51.6452 88.4736 51.7773 88.2033L52.1301 87.5495L49.5117 79.7129L49.9754 79.7122L52.4405 87.1007L54.9862 82.456L55.1381 82.6204Z" fill="#FEFEFE"/>
<path d="M44.1686 82.2547L44.1686 85.6765L43.627 85.3848L43.627 76.4029L44.1686 76.6945L44.1686 77.9679C44.3549 77.7381 44.5728 77.5838 44.8252 77.5091C45.2413 77.3817 45.7446 77.4692 46.3312 77.7694L46.3457 77.7773C47.1846 78.293 47.8279 78.9738 48.2758 79.8182C48.7144 80.6463 48.9561 81.6259 48.9997 82.752L48.9997 82.7619C48.9852 83.8752 48.7619 84.6058 48.3286 84.9516C47.8861 85.3037 47.2374 85.2575 46.38 84.8114L46.3748 84.8086C45.7737 84.4693 45.2611 84.0097 44.837 83.4328C44.5794 83.0806 44.3575 82.6894 44.1686 82.2547ZM46.3867 84.2331C47.063 84.5817 47.5716 84.6165 47.9125 84.3362C48.2626 84.0481 48.4449 83.4264 48.4594 82.4738C48.4184 81.5014 48.2176 80.6719 47.8583 79.9833C47.5096 79.3146 47.0009 78.7704 46.3351 78.3535C45.6548 78.0469 45.1356 78.0362 44.7789 78.3265C44.4143 78.6238 44.2095 79.232 44.1686 80.1561C44.2241 81.1009 44.4368 81.9125 44.808 82.5919C45.1739 83.2585 45.6997 83.8062 46.3867 84.2331Z" fill="#FEFEFE"/>
<path d="M34.9824 78.4075L34.9824 69.3743C35.8094 69.8197 36.6351 70.2614 37.4621 70.711C38.9522 71.5305 40.0791 72.5201 40.84 73.6796C41.6049 74.8456 41.9946 76.1695 42.0078 77.6492L42.0078 77.8042C42.0144 78.0027 42.0158 78.1927 42.0092 78.3741C41.9682 79.6211 41.6075 80.3972 40.9298 80.7024C40.2561 81.0055 39.2732 80.8376 37.9839 80.2002C37.7553 80.0871 37.5162 79.9583 37.2665 79.8139L34.9824 78.5853L34.9824 78.4075ZM35.5241 70.2493L35.5241 78.2923L37.2718 79.2334C38.7408 80.0842 39.8215 80.3659 40.5164 80.0785C41.2046 79.7947 41.5217 78.9425 41.4675 77.5247L41.4675 77.5176C41.4675 76.1545 41.1214 74.9495 40.4305 73.9059C39.7343 72.8537 38.6788 71.9481 37.2665 71.1877L35.5241 70.2493Z" fill="#FEFEFE"/>
<path d="M56.7842 68.409L56.7829 86.8615L62.5124 83.9997L62.9153 84.6506L59.3431 86.3892L63.2139 93.5101L62.7792 93.6247L58.9363 86.5514L56.7829 87.6284L56.7829 90.2406L56.2426 89.9497C56.2426 82.9112 56.2413 75.8707 56.2426 68.833L50.7272 74.1804L50.1406 73.8646L50.1406 64.655L50.6373 64.9225L50.6373 73.2371L56.1528 67.8925L56.7842 68.2325L56.7842 68.409Z" fill="#FFF212"/>
</svg>
