<svg xmlns="http://www.w3.org/2000/svg" fill="none" viewBox="0 0 125 124"><path fill="#252323" d="M89.626 118.973l-.74.399a.354.354 0 0 1-.297-.012l-.698-.376c-.088-.047-.098-.118-.021-.159l.74-.399a.347.347 0 0 1 .297.012l.697.375c.088.047.098.119.022.16zM91.35 119.9l-.74.4a.354.354 0 0 1-.296-.012l-.698-.376c-.088-.047-.098-.118-.022-.16l.74-.398a.352.352 0 0 1 .297.011l.698.376c.088.047.098.119.022.159zM89.532 120.879l-.74.399a.354.354 0 0 1-.296-.012l-.699-.376c-.087-.047-.097-.119-.021-.159l.74-.399a.352.352 0 0 1 .297.011l.698.376c.088.047.097.119.021.16zM93.071 120.829l-.74.398c-.077.042-.209.036-.297-.011l-.698-.376c-.088-.047-.097-.118-.021-.159l.74-.399a.35.35 0 0 1 .296.011l.699.376c.088.048.097.119.021.16zM91.257 121.807l-.74.399a.356.356 0 0 1-.297-.012l-.698-.376c-.088-.047-.097-.119-.022-.159l.741-.399a.352.352 0 0 1 .297.011l.698.376c.087.047.097.119.021.16zM94.898 121.811l-.741.399a.348.348 0 0 1-.297-.012l-.698-.376c-.087-.046-.097-.118-.021-.159l.74-.399a.354.354 0 0 1 .297.011l.698.377c.088.047.097.118.022.159zM93.08 122.789l-.741.399c-.076.041-.21.035-.297-.011l-.698-.376c-.088-.048-.097-.119-.021-.16l.74-.399a.348.348 0 0 1 .297.012l.698.375c.088.048.097.119.021.16zM96.712 120.833l-.74.399a.352.352 0 0 1-.297-.011l-.698-.376c-.088-.048-.097-.119-.022-.16l.741-.398c.076-.042.209-.036.296.011l.699.376c.087.047.097.118.021.159zM98.53 119.855l-.741.399a.35.35 0 0 1-.296-.011l-.698-.376c-.088-.047-.097-.119-.021-.16l.74-.399a.354.354 0 0 1 .297.012l.698.376c.087.047.097.118.02.159zM100.346 118.878l-.74.398a.35.35 0 0 1-.296-.011l-.698-.376c-.088-.047-.097-.119-.022-.159l.74-.399c.077-.042.209-.036.297.011l.698.376c.088.048.098.119.021.16zM102.161 117.9l-.741.399c-.075.041-.208.035-.296-.011l-.698-.377c-.087-.047-.097-.118-.021-.159l.741-.399a.347.347 0 0 1 .296.012l.698.375c.087.047.097.119.021.16zM103.975 116.922l-.74.399a.347.347 0 0 1-.296-.012l-.699-.376c-.087-.046-.097-.119-.02-.159l.74-.399a.35.35 0 0 1 .296.011l.698.376c.088.048.097.119.021.16zM105.794 115.944l-.741.399a.35.35 0 0 1-.296-.011l-.698-.376c-.087-.048-.097-.119-.022-.16l.741-.398c.076-.042.209-.036.297.011l.697.376c.088.047.098.118.022.159zM107.609 114.966l-.741.399a.35.35 0 0 1-.296-.011l-.699-.376c-.087-.047-.097-.119-.021-.16l.741-.399a.354.354 0 0 1 .296.012l.698.376c.088.047.097.118.022.159zM109.427 113.989l-.741.398a.35.35 0 0 1-.296-.011l-.698-.376c-.088-.047-.097-.119-.022-.159l.741-.399a.352.352 0 0 1 .297.011l.697.376c.088.048.098.119.022.16zM111.239 113.011l-.74.399a.356.356 0 0 1-.297-.012l-.698-.376c-.088-.047-.097-.118-.021-.159l.741-.399a.345.345 0 0 1 .295.012l.699.375c.088.047.097.119.021.16zM96.623 122.739l-.74.399a.347.347 0 0 1-.296-.012l-.698-.376c-.088-.047-.097-.118-.021-.159l.74-.399a.347.347 0 0 1 .296.012l.699.376c.087.047.097.118.02.159zM98.434 121.762l-.74.398a.35.35 0 0 1-.296-.011l-.699-.376c-.087-.048-.097-.119-.02-.16l.74-.399c.076-.041.208-.035.296.012l.699.375c.087.048.097.119.02.161zM100.251 120.783l-.74.399c-.077.042-.21.036-.297-.011l-.698-.376c-.088-.047-.098-.119-.021-.16l.74-.398a.35.35 0 0 1 .297.011l.697.376c.088.047.098.119.022.159zM102.067 119.806l-.74.399a.35.35 0 0 1-.296-.012l-.699-.376c-.087-.047-.097-.119-.021-.159l.74-.399a.352.352 0 0 1 .297.011l.698.376c.088.047.097.119.021.16zM103.886 118.828l-.741.399c-.076.041-.209.035-.296-.012l-.698-.375c-.088-.048-.097-.119-.022-.16l.741-.399a.352.352 0 0 1 .297.011l.697.376c.088.048.098.119.022.16zM105.698 117.85l-.74.399a.353.353 0 0 1-.297-.012l-.698-.376c-.088-.047-.097-.118-.021-.159l.74-.399a.35.35 0 0 1 .297.012l.698.376c.088.047.097.118.021.159zM107.519 116.873l-.741.398a.352.352 0 0 1-.297-.011l-.697-.376c-.088-.047-.098-.119-.022-.159l.741-.4c.076-.041.209-.035.296.012l.698.376c.088.047.098.118.022.16zM109.329 115.894l-.74.399a.352.352 0 0 1-.297-.011l-.698-.376c-.088-.047-.097-.119-.021-.16l.74-.398a.35.35 0 0 1 .296.011l.699.376c.087.047.097.119.021.159zM111.147 114.917l-.741.399a.35.35 0 0 1-.296-.012l-.698-.376c-.087-.047-.097-.119-.021-.159l.741-.399c.075-.041.208-.036.296.011l.698.376c.087.047.097.118.021.16zM13.579 77.908l-.74.4a.35.35 0 0 1-.297-.012l-.698-.376c-.087-.047-.097-.118-.021-.16l.74-.399a.354.354 0 0 1 .297.012l.698.376c.088.047.097.119.021.16zM15.302 78.836l-.74.4c-.076.04-.21.035-.297-.012l-.698-.376c-.088-.047-.097-.118-.022-.16l.741-.398a.35.35 0 0 1 .296.011l.698.376c.088.047.098.119.022.16zM13.484 79.814l-.741.4a.352.352 0 0 1-.296-.012l-.699-.376c-.087-.047-.097-.119-.021-.16l.74-.399a.352.352 0 0 1 .297.012l.698.376c.088.047.097.118.022.16zM17.024 79.765l-.74.398c-.077.042-.209.036-.297-.011l-.698-.376c-.088-.047-.097-.119-.021-.16l.74-.398a.35.35 0 0 1 .297.011l.698.376c.087.048.097.119.02.16zM15.208 80.742l-.74.4a.352.352 0 0 1-.297-.013l-.698-.375c-.088-.047-.097-.119-.021-.16l.74-.399a.353.353 0 0 1 .296.012l.699.376c.087.047.097.118.021.159zM18.849 80.747l-.74.398a.352.352 0 0 1-.298-.01l-.697-.377c-.088-.047-.098-.119-.022-.16l.74-.398c.077-.041.21-.036.297.011l.698.376c.088.048.098.119.022.16zM17.032 81.724l-.74.4a.35.35 0 0 1-.297-.012l-.698-.376c-.088-.047-.097-.118-.021-.16l.74-.398a.352.352 0 0 1 .297.01l.698.377c.088.047.097.119.021.16zM20.66 79.77l-.74.398a.352.352 0 0 1-.296-.011l-.698-.376c-.088-.048-.097-.12-.021-.16l.74-.4a.35.35 0 0 1 .296.013l.699.375c.087.047.097.119.02.16zM22.48 78.79l-.741.4c-.076.041-.208.036-.296-.012l-.699-.376c-.087-.046-.097-.118-.02-.16l.74-.398a.35.35 0 0 1 .296.011l.699.377c.087.047.097.118.02.159zM24.3 77.813l-.741.4a.35.35 0 0 1-.296-.012l-.699-.376c-.087-.048-.097-.119-.02-.16l.74-.398c.076-.042.209-.036.296.011l.698.376c.088.047.097.118.022.16zM26.11 76.835l-.74.399a.348.348 0 0 1-.296-.011l-.699-.376c-.087-.047-.097-.118-.021-.16l.74-.399a.354.354 0 0 1 .297.012l.698.376c.088.047.097.118.021.16zM27.929 75.858l-.74.398a.35.35 0 0 1-.297-.01l-.698-.377c-.088-.047-.098-.119-.022-.16l.741-.398a.35.35 0 0 1 .297.011l.697.376c.088.048.098.12.022.16zM29.743 74.88l-.74.399a.354.354 0 0 1-.297-.011l-.698-.377c-.088-.047-.097-.118-.021-.16l.74-.398a.352.352 0 0 1 .297.012l.698.375c.088.047.097.119.021.16zM20.57 81.675l-.742.399a.35.35 0 0 1-.296-.012l-.698-.376c-.087-.047-.097-.119-.02-.16l.74-.398c.076-.041.208-.036.296.011l.698.377c.088.046.097.118.021.159zM22.387 80.697l-.74.4a.35.35 0 0 1-.296-.013l-.699-.375c-.087-.047-.097-.119-.02-.16l.74-.399a.352.352 0 0 1 .296.011l.698.376c.088.048.097.12.021.16zM24.206 79.72l-.74.398a.35.35 0 0 1-.297-.011l-.698-.376c-.087-.048-.097-.12-.022-.16l.741-.399a.35.35 0 0 1 .297.012l.698.376c.088.047.097.118.021.16zM26.02 78.742l-.74.398a.353.353 0 0 1-.296-.011l-.698-.376c-.088-.047-.098-.119-.022-.16l.74-.399a.352.352 0 0 1 .297.012l.698.376c.088.047.098.118.022.16zM27.833 77.763l-.74.4c-.076.04-.21.035-.297-.012l-.698-.376c-.088-.047-.097-.119-.021-.16l.74-.398a.352.352 0 0 1 .297.01l.698.377c.088.047.097.119.021.16zM29.651 76.786l-.74.399a.352.352 0 0 1-.297-.012l-.698-.376c-.088-.047-.097-.118-.021-.16l.74-.398a.348.348 0 0 1 .297.011l.698.376c.088.047.097.119.021.16zM75.515 104.689l-.74.398c-.077.042-.21.036-.297-.011l-.698-.376c-.088-.048-.097-.119-.022-.16l.74-.398a.35.35 0 0 1 .297.011l.698.376c.088.047.098.119.022.16zM77.24 105.617l-.742.398a.35.35 0 0 1-.296-.011l-.698-.376c-.087-.047-.097-.119-.02-.159l.74-.399a.35.35 0 0 1 .296.011l.698.376c.088.047.097.119.021.16zM75.422 106.594l-.74.399a.35.35 0 0 1-.296-.011l-.698-.376c-.088-.047-.097-.118-.022-.16l.741-.399a.35.35 0 0 1 .296.012l.699.376c.087.047.097.119.02.159zM78.962 106.545l-.74.399a.354.354 0 0 1-.297-.012l-.698-.376c-.088-.047-.098-.118-.022-.159l.74-.399a.348.348 0 0 1 .298.012l.697.375c.088.047.098.119.022.16zM77.15 107.522l-.742.399c-.075.042-.208.036-.295-.011l-.699-.376c-.087-.048-.097-.119-.02-.16l.74-.398a.35.35 0 0 1 .296.011l.698.376c.088.047.097.119.021.159zM80.788 107.527l-.74.399c-.076.041-.21.035-.297-.011l-.698-.377c-.087-.047-.097-.118-.022-.159l.741-.399a.348.348 0 0 1 .297.012l.698.375c.088.047.097.119.021.16zM78.97 108.505l-.741.399a.35.35 0 0 1-.296-.012l-.699-.376c-.087-.047-.097-.119-.02-.159l.74-.399a.35.35 0 0 1 .296.011l.698.376c.088.048.097.119.022.16zM82.6 106.549l-.74.399a.347.347 0 0 1-.296-.012l-.698-.376c-.088-.046-.098-.118-.022-.159l.74-.399a.352.352 0 0 1 .297.012l.698.376c.088.047.098.118.022.159zM84.42 105.571l-.742.399a.352.352 0 0 1-.296-.011l-.698-.376c-.088-.048-.097-.119-.022-.16l.741-.398c.076-.042.209-.036.297.011l.698.376c.088.047.097.118.021.159zM86.236 104.593l-.741.4a.356.356 0 0 1-.297-.012l-.698-.376c-.088-.047-.097-.119-.021-.16l.74-.399a.354.354 0 0 1 .297.012l.698.376c.088.047.097.119.022.159zM88.05 103.616l-.74.398a.352.352 0 0 1-.297-.011l-.698-.376c-.088-.047-.097-.119-.022-.159l.741-.399a.35.35 0 0 1 .296.011l.698.376c.088.048.098.119.022.16zM82.509 108.455l-.74.399c-.077.041-.21.035-.297-.012l-.698-.375c-.088-.048-.097-.119-.022-.16l.741-.399c.076-.041.209-.035.297.011l.697.376c.088.048.098.119.022.16zM84.327 107.477l-.74.399a.352.352 0 0 1-.297-.011l-.698-.376c-.088-.048-.097-.119-.021-.16l.74-.399a.35.35 0 0 1 .296.012l.699.376c.088.047.097.119.021.159zM86.14 106.5l-.74.398a.352.352 0 0 1-.297-.011l-.698-.376c-.088-.047-.097-.119-.022-.16l.74-.399c.077-.041.21-.035.297.012l.698.375c.088.048.098.119.022.161zM87.956 105.521l-.741.399c-.076.042-.208.036-.296-.011l-.698-.376c-.088-.047-.097-.119-.021-.16l.74-.398a.35.35 0 0 1 .296.011l.699.376c.087.047.097.119.02.159z"/><path fill="#01BBFF" d="M122.471 39.54c.034-.1-.014-.203-.113-.253l-5.965-3.002c-.969-.39-2.174-.289-3.484.416l-3.123 1.683c-.848.456-1.536 1.682-1.536 2.737v18.551c0 .555.193.946.497 1.132l5.731 2.914a.24.24 0 0 0 .309-.074c.731-1.11 4.71-7.171 4.604-7.273-.108-.102 2.651-15.538 3.08-16.831z"/><path fill="#252323" d="M115.199 36.416c-.644 0-1.357.2-2.097.599l-3.123 1.681c-.728.392-1.343 1.503-1.343 2.425v18.551c0 .396.12.706.322.83l5.576 2.834c2.079-3.16 4.345-6.676 4.483-7.043l.009.003c.015-.571.293-2.28 1.321-7.954.665-3.678 1.449-7.82 1.718-8.792l-5.857-2.947a2.704 2.704 0 0 0-1.009-.187zm-.609 27.691a.664.664 0 0 1-.299-.071l-5.731-2.915c-.46-.28-.699-.79-.699-1.449V41.121c0-1.189.76-2.528 1.73-3.05l3.123-1.683c1.375-.74 2.698-.89 3.831-.436l5.996 3.017a.562.562 0 0 1 .299.678c-.428 1.29-3.057 16.134-3.066 16.702h-.007c-.048.426-.871 1.74-4.651 7.483a.624.624 0 0 1-.526.275z"/><path fill="#fff" d="M115.341 45.108l6.121-3.296-9.021-4.858-2.655 1.43c-.848.456-1.536 1.682-1.536 2.737v.167l7.091 3.82z"/><path fill="#252323" d="M108.636 41.08l6.705 3.61 5.345-2.878-8.246-4.441-2.461 1.325c-.717.386-1.324 1.47-1.343 2.384zm6.705 4.444l-7.48-4.027v-.376c0-1.189.76-2.528 1.73-3.05l2.849-1.535 9.796 5.276-6.895 3.712z"/><path fill="#252323" d="M123.08 59.782l-7.378 3.973c-.848.457-1.536-.028-1.536-1.083V44.12c0-1.055.688-2.28 1.536-2.737l3.123-1.682c3.198-1.722 5.79.106 5.79 4.083v13.26c0 1.056-.687 2.281-1.535 2.738z"/><path fill="#252323" d="M121.122 39.417c-.653 0-1.37.2-2.107.597l-3.124 1.682c-.728.392-1.342 1.502-1.342 2.424v18.552c0 .416.126.732.337.846.198.106.445.017.618-.076l7.378-3.973c.727-.392 1.342-1.502 1.342-2.424v-13.26c0-1.96-.659-3.437-1.808-4.056a2.697 2.697 0 0 0-1.294-.312zm-6.035 24.872c-.209 0-.408-.049-.589-.145-.46-.249-.725-.785-.725-1.472V44.12c0-1.187.76-2.527 1.731-3.05l3.124-1.682c1.517-.817 3-.918 4.176-.285 1.395.752 2.195 2.457 2.195 4.681v13.26c0 1.189-.76 2.528-1.73 3.05l-7.378 3.974a1.705 1.705 0 0 1-.804.221z"/><path fill="#01BBFF" d="M100.275 63.717V47.139l-21.5-2.23.843 11.112 17.753 7.28 2.904.416z"/><path fill="#252323" d="M97.481 62.951l2.408.345V47.462l-20.694-2.146.795 10.462 17.491 7.173zm3.184 1.188l-3.45-.507-17.965-7.368-.893-11.762 22.308 2.313V64.14z"/><path fill="#252323" d="M97.026 54.305l-7.305-4 .392-.624 7.305 4-.392.624z"/><path fill="#01BBFF" d="M30.568 65.934c-.212-.09-.488-.07-.794.096l-3.21 1.727c-.35.19-.686.3-.998.346l.57-38.563-2.506.666v-7.875l-2.7 1.395v43.846c0 1.738-1.319 3.871-2.933 4.74l-3.095 1.667c-.576.31-1.021.809-1.208 1.404-.212.68-.063 1.143.267 1.308l3.59 1.815c.042.02.092.019.131-.005l6.283-3.831 8.947-5.332 1.272-1.405c.053-.058.035-.147-.036-.183l-3.58-1.816z"/><path fill="#252323" d="M21.322 23.94v43.632c0 1.858-1.403 4.125-3.127 5.053L15.1 74.292c-.501.27-.876.704-1.03 1.193-.158.504-.07.814.079.888l3.455 1.746 6.154-3.75 8.9-5.306 1.03-1.137-3.287-1.667c-.103-.039-.259-.01-.43.083l-3.209 1.729a3.487 3.487 0 0 1-1.13.39l-.455.067.006-.43.562-38.077-2.499.664v-7.74l-1.924.994zm-3.706 54.942a.548.548 0 0 1-.244-.057l-3.591-1.816c-.415-.208-.753-.771-.454-1.727.211-.675.703-1.249 1.385-1.616l3.095-1.667c1.486-.8 2.74-2.827 2.74-4.427V23.514l3.475-1.795v8.009l2.512-.668-.569 38.57c.135-.05.272-.111.41-.185l3.21-1.729c.402-.216.811-.256 1.15-.11l.022.012 3.58 1.815a.48.48 0 0 1 .26.333.456.456 0 0 1-.112.4l-1.36 1.476-8.947 5.333-6.28 3.828a.536.536 0 0 1-.282.079z"/><path fill="#fff" d="M23.728 72.498l-3.798-2.02-.007-.005c-.517.77-1.188 1.44-1.929 1.84L14.9 73.978c-.248.133-.41.333-.6.528l3.524 1.866 1.11.642 2.414-.75 1.852-1.129.529-2.638z"/><path fill="#252323" d="M14.912 74.418l3.1 1.641.97.56 2.193-.681 1.671-1.02.45-2.234-3.251-1.73c-.54.726-1.19 1.312-1.859 1.671l-3.095 1.667a.956.956 0 0 0-.179.126zm3.97 2.994l-1.265-.731-3.93-2.08.412-.43c.161-.17.344-.364.605-.505l3.095-1.667c.647-.348 1.284-.958 1.794-1.718l.227-.339.338.245 4 2.124-.61 3.043-2.08 1.255-2.587.803z"/><path fill="#fff" d="M30.57 65.922c-.212-.09-.49-.07-.795.096l-3.21 1.727c-.35.19-.686.3-.998.346l-.194.598 3.665 1.805.873.621 3.002-1.79 1.272-1.404c.053-.058.035-.146-.036-.183l-3.58-1.816z"/><path fill="#252323" d="M25.838 68.509l3.437 1.698.658.468 2.724-1.624 1.03-1.137-3.287-1.667c-.101-.04-.259-.009-.43.083l-3.209 1.728c-.297.16-.594.275-.888.343l-.035.108zm4.055 3.046L28.83 70.8l-3.92-1.93.36-1.1.239-.036c.278-.04.569-.142.864-.302l3.21-1.728c.402-.217.811-.255 1.15-.11l.023.01 3.58 1.816c.138.071.232.192.26.336a.457.457 0 0 1-.113.397l-1.36 1.477-3.23 1.925z"/><path fill="#252323" d="M27.262 68.017V24.17l-2.698 1.395v43.846c0 1.745-1.314 3.867-2.934 4.74l-3.21 1.728c-.658.355-1.192 1.217-1.192 1.925 0 .71.534.997 1.192.642l6.144-3.308 2.698-1.394 6.144-3.31c.658-.353 1.192-1.215 1.192-1.925 0-.709-.534-.996-1.192-.641l-3.21 1.728c-1.62.872-2.934.165-2.934-1.58z"/><path fill="#252323" d="M24.954 25.778v43.634c0 1.888-1.374 4.108-3.128 5.053l-3.21 1.727c-.54.292-.997 1.03-.997 1.613 0 .202.058.354.155.407.096.052.267.023.455-.078l6.144-3.308 2.704-1.398 6.138-3.305c.542-.291.999-1.03.999-1.612 0-.203-.058-.355-.156-.408-.098-.052-.268-.023-.455.078l-3.21 1.729c-.909.488-1.782.557-2.462.191-.68-.365-1.053-1.105-1.053-2.084V24.784l-1.924.994zM17.888 78.96c-.18 0-.35-.04-.502-.12-.345-.187-.542-.564-.542-1.034 0-.837.608-1.82 1.385-2.239l3.21-1.728c1.51-.814 2.74-2.8 2.74-4.426v-44.06l3.474-1.794v44.459c0 .71.236 1.227.665 1.459.43.231 1.03.162 1.688-.192l3.21-1.728c.436-.236.885-.264 1.23-.078s.543.562.543 1.033c0 .837-.609 1.82-1.386 2.238l-6.144 3.308-2.705 1.398-6.137 3.305a1.553 1.553 0 0 1-.729.199z"/><path fill="#252323" d="M24.36 67.324l-3.631-2.111.41-.614 3.63 2.111-.41.614zM24.36 58.18l-3.631-2.111.41-.614 3.63 2.111-.41.614z"/><path fill="#01BBFF" d="M25.114 39.063l-.298-.481 2.027-1.092.298.481-2.026 1.092zM35.553 9.082c-.158-.081-.374-.069-.614.06L9.51 22.872c-.58.314-1.132.892-1.5 1.575L.753 37.917c-.237.44-.366.899-.366 1.301v2.926c0 .223.074.385.193.482l.023.017c.028.02 6.554 3.468 7.21 3.817a.052.052 0 0 0 .068-.016l2.429-3.593.006-.008 19.536-18.221 10.912-7.514a.052.052 0 0 0 .008-.012l2.04-4.118c.012-.023.003-.05-.02-.062l-7.24-3.834z"/><path fill="#252323" d="M35.33 9.392a.456.456 0 0 0-.196.063l-25.43 13.73c-.512.277-1.016.809-1.347 1.424L1.1 38.08c-.21.389-.324.794-.324 1.14v2.925c0 .119.031.186.06.21a5461 5461 0 0 1 3.895 2.06l2.995 1.583 2.302-3.394 19.55-18.236 10.881-7.498 1.873-3.78-6.966-3.69a.08.08 0 0 0-.035-.007zM7.839 46.828a.46.46 0 0 1-.217-.054c-.292-.156-1.745-.925-3.271-1.732C.405 42.957.403 42.955.369 42.931A.94.94 0 0 1 0 42.145v-2.926c0-.456.145-.977.407-1.464l7.257-13.47c.403-.747 1.004-1.376 1.653-1.725l25.43-13.73c.345-.187.707-.21.993-.065l.005.002 7.24 3.835c.2.105.278.34.176.534L40.994 17.4l-10.911 7.514-19.466 18.16-2.408 3.564a.446.446 0 0 1-.37.191z"/><path fill="#252323" d="M.58 42.626l.023.017c.028.02 6.554 3.468 7.21 3.817a.052.052 0 0 0 .068-.016l.759-1.122c-.547-.943-.97-1.647-.97-1.647L.387 39.77v2.374c0 .223.074.385.193.482z"/><path fill="#252323" d="M.833 42.351l.014.01c.052.026 2.088 1.103 3.884 2.053l2.995 1.584.466-.69c-.383-.657-.69-1.172-.808-1.37L.776 40.395v1.75c0 .113.028.18.057.206zm7.005 4.477a.46.46 0 0 1-.217-.054c-.292-.156-1.745-.925-3.271-1.732C.405 42.957.403 42.955.369 42.931l-.043-.033c-.149-.121-.326-.35-.326-.754v-2.999l7.956 4.266.053.087s.424.706.973 1.652l.108.186-.88 1.3a.446.446 0 0 1-.372.192z"/><path fill="#fff" d="M15.293 28.305L41.362 15.25l-8.891-4.777-22.96 12.4c-.582.314-1.133.892-1.501 1.575l7.283 3.858z"/><path fill="#252323" d="M8.537 24.31l6.763 3.583 25.266-12.656-8.093-4.349L9.706 23.186c-.428.23-.85.638-1.17 1.124zm6.752 4.408L7.5 24.592l.165-.307c.403-.747 1.005-1.376 1.653-1.725l23.154-12.506 9.688 5.205-26.87 13.46z"/><path fill="#252323" d="M42.225 28.305L8.551 46.476c-.485.261-.88.05-.88-.473v-2.926c0-.402.13-.863.367-1.302l7.257-13.47c.368-.682.919-1.26 1.5-1.573L42.225 13c.485-.262.879-.05.879.473v13.412c0 .523-.394 1.158-.879 1.42z"/><path fill="#252323" d="M42.616 13.25a.45.45 0 0 0-.199.063L16.988 27.044c-.513.277-1.017.809-1.348 1.424l-7.257 13.47c-.209.388-.325.793-.325 1.14v2.925c0 .134.04.204.064.218.024.012.11.009.234-.058l33.673-18.17c.366-.197.686-.714.686-1.107V13.474c0-.134-.04-.204-.064-.218a.075.075 0 0 0-.035-.006zM8.156 46.95a.88.88 0 0 1-.422-.103c-.286-.154-.45-.461-.45-.843v-2.926c0-.457.144-.977.407-1.464l7.256-13.47c.403-.747 1.005-1.375 1.653-1.724l25.43-13.73c.354-.192.722-.213 1.008-.059.288.155.452.462.452.844v13.412c0 .647-.471 1.408-1.073 1.732L8.744 46.788c-.198.107-.4.16-.589.16z"/><path fill="#01BBFF" d="M7.97 46.002h-.597v-2.19h.596v2.19z"/><path fill="#252323" d="M8.295 41.52l-7.283-3.859.383-.628 7.282 3.86-.382.627zM13.746 31.425l-7.283-3.858.383-.628 7.283 3.858-.383.628z"/><path fill="#01BBFF" d="M107.352 69.708v-1.921c0-.054-.042-.1-.099-.11l-4.2-.65a.12.12 0 0 1-.039-.014l-66.197-35.72c-.653-.352-1.64-.39-2.206-.085L17.1 40.729a.12.12 0 0 1-.039.013l-4.742.818a.112.112 0 0 0-.097.108V43.6c-.006.244.093.522.518.751l70 37.768c.653.352 1.64.39 2.206.086l22.029-11.954c.267-.144.387-.339.376-.541z"/><path fill="#252323" d="M12.611 41.877v1.731c-.003.124.033.273.323.43l70.002 37.767c.526.284 1.376.324 1.818.086l22.027-11.954c.072-.039.19-.116.185-.21v-.004c-.001-.01-.002-.02-.001-1.724l-4.047-.627-.102-.048-66.193-35.718c-.525-.284-1.376-.325-1.818-.085l-17.57 9.553-.106.024-4.518.779zm71.376 40.892c-.5 0-1.023-.114-1.44-.338l-70-37.768c-.601-.323-.718-.762-.71-1.072v-1.923c0-.228.174-.423.414-.464l4.695-.81 17.47-9.498c.684-.369 1.824-.332 2.595.085l66.156 35.697 4.15.643a.48.48 0 0 1 .423.466v1.912c.015.345-.192.66-.57.863L85.143 82.516c-.316.17-.728.253-1.156.253z"/><path fill="#252323" d="M13.616 41.296l-1.317.226a.113.113 0 0 0-.098.109v1.932c-.005.243.093.521.518.75l.897.483v-3.5zM83.906 82.409c.388.01.764-.055 1.039-.204l22.029-11.954c.267-.144.387-.339.376-.54v-1.923c0-.054-.042-.1-.099-.11l-4.2-.65a.12.12 0 0 1-.039-.014l-15.26-8.217-3.846-3.484V82.41z"/><path fill="#fff" d="M106.977 68.274l-22.03 11.955c-.565.304-1.552.266-2.205-.086L12.74 42.374c-.653-.35-.723-.883-.158-1.187l22.028-11.955c.566-.304 1.554-.266 2.207.086l70 37.769c.654.35.724.883.159 1.187z"/><path fill="#252323" d="M35.561 29.39c-.29 0-.565.05-.76.156L12.775 41.499c-.058.03-.19.111-.19.203 0 .08.092.222.348.36l70 37.769c.527.283 1.378.323 1.819.084l22.029-11.954c.056-.03.188-.11.188-.202 0-.08-.091-.222-.346-.36L36.621 29.63c-.295-.158-.691-.24-1.06-.24zm48.423 51.404c-.5 0-1.023-.114-1.44-.338l-70-37.769c-.467-.25-.734-.61-.734-.985 0-.329.21-.631.575-.828L34.413 28.92c.684-.368 1.824-.33 2.595.085l70.001 37.769c.466.25.734.61.734.985 0 .33-.21.631-.576.829L85.14 80.54c-.316.17-.728.253-1.156.253zM79.684 101.518l-.407-.616 8.416-4.834a4.186 4.186 0 0 1 4.08 0l1.871 1.186c.99.556 2.243.558 3.253-.006l2.871-1.605c3.401-1.9 7.656-1.95 11.105-.13l5.655 2.962c.417.218.911.216 1.322-.008.412-.224.657-.624.657-1.069V62.033h.776v35.365c0 .705-.39 1.338-1.042 1.693a2.212 2.212 0 0 1-2.094.012l-5.655-2.96c-3.207-1.693-7.164-1.647-10.325.12l-2.872 1.605a4.184 4.184 0 0 1-4.069-.006l-1.87-1.186a3.358 3.358 0 0 0-3.26.009l-8.412 4.833z"/><path fill="#252323" d="M119.289 88.505h-.775v-2.667c0-1.364.433-2.683 1.252-3.812a5.779 5.779 0 0 0 1.119-3.407V60.756h.776v17.863a6.46 6.46 0 0 1-1.253 3.811 5.77 5.77 0 0 0-1.119 3.408v2.667z"/><path fill="#252323" d="M119.289 95.372h-.776v-1.434c0-1.09-.364-2.13-1.053-3.01a5.521 5.521 0 0 1-1.204-3.435v-25.18h.776v25.18c0 1.09.363 2.13 1.053 3.008a5.53 5.53 0 0 1 1.204 3.437v1.434z"/><path fill="#01BBFF" d="M87 99.03l-3.56-.305a.055.055 0 0 1-.017-.004l-.858-.001c-1.028-.553-1.427-.441-2.317.038l-.822.444-.13-.004-4.436.698c-.02.003-.035.019-.035.038l-.005 2.219c0 .409.253.754.851 1.076l2.469 1.318c1.028.554 2.583.614 3.474.134l4.825-2.6c.381-.205.578-.476.599-.762v-2.25A.039.039 0 0 0 87 99.03z"/><path fill="#252323" d="M75.213 100.206l-.004 1.947c0 .19.075.45.657.763l2.467 1.317c.906.488 2.318.548 3.088.135l4.826-2.6c.176-.095.389-.254.405-.474l-.001-1.93-3.285-.282h-.904l-.09-.049c-.894-.48-1.137-.388-1.93.038l-.917.495-.201-.006-4.111.646zm4.889 5.161c-.748 0-1.532-.171-2.155-.506l-2.468-1.318c-.704-.379-1.045-.834-1.045-1.39l.005-2.524.354-.09 4.478-.703.058.001.725-.392c.942-.506 1.485-.67 2.613-.086l.881.013 3.84.326.038.37v2.25c-.032.444-.313.818-.791 1.075l-4.827 2.601c-.465.25-1.073.373-1.707.373z"/><path fill="#252323" d="M79.998 105.001c.603.014 1.186-.089 1.614-.32l3.817-2.086v-3.521l-1.99-.349a.043.043 0 0 1-.017-.005l-.097.776-3.327-.442v5.947z"/><path fill="#252323" d="M80.386 99.47v5.161c.406-.028.764-.118 1.033-.263l3.623-1.98v-3.014l-1.283-.225-.095.757-3.278-.436zm-.28 5.893c-.039 0-.078 0-.117-.002l-.378-.008v-6.716l3.376.449.117-.944.46.24 2.253.393v4.027l-4.009 2.191c-.446.24-1.046.37-1.702.37z"/><path fill="#01BBFF" d="M83.722 96.688l2.469 1.317c1.028.554 1.14 1.391.248 1.87l-4.825 2.601c-.891.48-2.446.419-3.474-.134l-2.469-1.318c-1.028-.554-1.14-1.391-.25-1.87l4.827-2.601c.89-.48 2.446-.42 3.474.135z"/><path fill="#252323" d="M81.752 96.59c-.497 0-.967.092-1.31.276l-4.826 2.6c-.186.1-.407.268-.407.5 0 .245.245.524.657.745l2.467 1.317c.906.488 2.318.548 3.088.135l4.826-2.6c.185-.1.407-.268.407-.5 0-.245-.245-.524-.657-.745L83.529 97c-.501-.27-1.159-.41-1.777-.41zm-1.65 6.572c-.748 0-1.532-.171-2.155-.506l-2.468-1.318c-.664-.359-1.045-.858-1.045-1.372 0-.45.281-.85.795-1.125l4.826-2.6c1.012-.547 2.707-.488 3.86.133l2.469 1.317c.665.358 1.045.858 1.045 1.372 0 .45-.283.85-.794 1.125l-4.827 2.601c-.465.25-1.073.373-1.707.373z"/><path fill="#252323" d="M78.508 104.474h-.776v-2.205h.776v2.205z"/><path fill="#fff" d="M80.927 99.066c-.273 0-.545.054-.743.16-.135.073-.195.149-.195.192 0 .043.06.119.195.19.396.214 1.09.214 1.486 0 .134-.071.194-.147.194-.19 0-.043-.06-.119-.194-.191v-.001c-.198-.106-.47-.16-.743-.16zm0 1.425c-.407 0-.814-.085-1.13-.256-.37-.199-.582-.497-.582-.817 0-.32.212-.618.581-.818.635-.34 1.627-.34 2.261.001.37.199.582.496.582.817 0 .32-.212.618-.582.817-.317.171-.724.256-1.13.256z"/><path fill="#01BBFF" d="M119.417 61.255h-.597V50.972h.597v10.282z"/><path fill="#252323" d="M120.56 51.887l-2.422 1.304c-.538.29-.974-.018-.974-.686V50.22c0-.67.436-1.446.974-1.736l2.422-1.304c.538-.29.974.018.974.687v2.283c0 .67-.436 1.446-.974 1.736z"/><path fill="#01BBFF" d="M120.948 47.35a.544.544 0 0 0-.238.072l-2.422 1.304c-.447.241-.825.925-.825 1.495v2.284c0 .289.097.444.188.493.108.059.259-.005.339-.048l2.422-1.304c.447-.241.825-.925.825-1.495v-2.283c0-.29-.097-.445-.188-.494a.214.214 0 0 0-.101-.024zm-3.196 6.228a.835.835 0 0 1-.399-.099c-.309-.166-.486-.521-.486-.974V50.22c0-.77.493-1.637 1.123-1.977l2.422-1.303c.329-.178.661-.196.936-.048.308.166.485.521.485.975v2.283c0 .77-.493 1.637-1.123 1.977l-2.422 1.303a1.128 1.128 0 0 1-.536.147z"/><path fill="#252323" d="M121.035 52.198l-2.423 1.304c-.537.29-.973-.018-.973-.687v-2.283c0-.67.436-1.446.973-1.735l2.423-1.305c.537-.29.973.018.973.687v2.284c0 .669-.436 1.445-.973 1.735z"/><path fill="#01BBFF" d="M121.419 47.662a.542.542 0 0 0-.238.071l-2.422 1.304c-.447.241-.825.925-.825 1.495v2.283c0 .29.097.446.187.495.108.057.259-.005.34-.049l2.422-1.304c.447-.24.825-.925.825-1.494v-2.284c0-.29-.097-.445-.188-.494a.212.212 0 0 0-.101-.023zm-3.196 6.228a.837.837 0 0 1-.4-.099c-.308-.166-.485-.522-.485-.976v-2.283c0-.77.493-1.637 1.123-1.976l2.422-1.304c.329-.178.662-.196.935-.048.308.166.486.522.486.975v2.284c0 .769-.494 1.637-1.123 1.976l-2.422 1.304a1.132 1.132 0 0 1-.536.147z"/><path fill="#01BBFF" d="M120.97 60.37l-.011-8.376h.596l.011 8.376h-.596zM116.938 62.637h-.596v-1.474c0-1.23.465-2.43 1.31-3.377a4.542 4.542 0 0 0 1.172-3.022l.001-1.537h.596l-.001 1.537a5.08 5.08 0 0 1-1.309 3.377 4.54 4.54 0 0 0-1.173 3.022v1.474zM86.696 57.907l-11.61 6.4-37.027-19.97 11.609-6.4 37.028 19.97z"/><path fill="#252323" d="M38.829 44.334l36.257 19.555L85.93 57.91 49.672 38.356l-10.843 5.978zM75.09 64.726L37.293 44.341l12.374-6.823 37.797 20.386-12.374 6.822z"/><path fill="#252323" d="M84.609 52.212L59.992 38.883l-17.88 9.628L66.728 61.84l17.88-9.628z"/><path fill="#252323" d="M42.884 48.512l23.844 12.91 17.107-9.21L59.99 39.3l-17.106 9.212zm23.844 13.745l-25.39-13.746L59.99 38.465l25.39 13.747-18.653 10.044z"/><path fill="#01BBFF" d="M73.651 56.814L54.836 46.708l.298-.482L73.95 56.333l-.298.481zM31.005 23.184c-.871-.585-2.35-.247-3.85 1.365-.992 1.065-1.569 2.435-1.54 3.844.016.876.267 1.367.843 1.72l.095.064 66.47 35.69c.055.028.125.01.155-.04l4.182-6.888a.102.102 0 0 0-.043-.144L31.005 23.184z"/><path fill="#252323" d="M30.075 23.283c-.69 0-1.63.428-2.629 1.503-.958 1.028-1.471 2.307-1.446 3.6.017.856.269 1.18.67 1.427l.106.068 66.2 35.544 3.912-6.444-66.11-35.503a1.247 1.247 0 0 0-.703-.195zm63.003 42.959a.526.526 0 0 1-.25-.062l-66.47-35.69-.124-.08c-.685-.42-.99-1.024-1.008-2.01-.029-1.473.552-2.924 1.635-4.087 1.828-1.966 3.481-2.002 4.353-1.433L97.51 58.48a.45.45 0 0 1 .185.636l-4.18 6.887a.52.52 0 0 1-.437.237z"/><path fill="#fff" d="M46.035 36.236l49.077 26.401 2.245-3.698a.102.102 0 0 0-.042-.144L31.002 23.184c-.87-.585-2.35-.247-3.85 1.365a6.01 6.01 0 0 0-.775 1.044c-.003.021-.006.044-.016.06l10.461 5.626 9.213 4.957z"/><path fill="#252323" d="M95.257 63.133L45.843 36.549l.387-.626 48.737 26.22 1.92-3.162L30.81 23.497c-.681-.454-1.962-.218-3.364 1.289-.205.22-.395.462-.569.726l10.14 5.455-.388.626-10.79-5.805.2-.37c.24-.407.517-.78.821-1.105 1.842-1.979 3.505-2.002 4.37-1.422l66.279 35.59a.452.452 0 0 1 .187.636l-2.439 4.016z"/><path fill="#fff" d="M38.816 32.352l5.258 2.829-5.258-2.829z"/><path fill="#252323" d="M43.883 35.494l-5.258-2.829.388-.626 5.257 2.83-.387.625zM26.455 30.075l.095.062 66.47 35.69c.054.029.124.011.156-.04l.719-1.185-1.594-.535-66.533-35.63c.016.876.111 1.284.687 1.638z"/><path fill="#252323" d="M26.202 29.086c.06.354.191.518.466.686l.105.069 66.201 35.544.358-.588-1.224-.416-65.906-35.295zm66.874 37.116a.525.525 0 0 1-.25-.063L26.356 30.45l-.118-.076c-.772-.476-.843-1.1-.859-1.932l-.013-.637 67.096 35.932 1.995.668-.945 1.559a.495.495 0 0 1-.306.22.51.51 0 0 1-.131.017z"/><path fill="#01BBFF" d="M98.476 60.781c0 1.837-1.382 4.07-3.088 4.989-1.705.918-3.087.174-3.087-1.663s1.382-4.07 3.087-4.988c1.706-.918 3.088-.174 3.088 1.662z"/><path fill="#252323" d="M96.766 59.085c-.354 0-.757.117-1.183.346-1.596.86-2.894 2.957-2.894 4.676 0 .754.252 1.304.71 1.551.46.248 1.097.175 1.797-.201 1.595-.86 2.893-2.957 2.893-4.676 0-.753-.252-1.304-.71-1.55a1.273 1.273 0 0 0-.613-.146zm-2.757 7.44c-.36 0-.697-.08-.997-.24-.708-.382-1.098-1.156-1.098-2.178 0-1.982 1.441-4.31 3.282-5.301.95-.511 1.863-.583 2.57-.202.708.381 1.099 1.155 1.099 2.177 0 1.982-1.442 4.31-3.282 5.301-.548.295-1.083.444-1.573.444z"/><path fill="#01BBFF" d="M29.184 31.893s-1.892-.997-2.781-1.476c-1.022-.549-1.062-1.599-1.063-1.643l.596-.014-.298.007.298-.008c0 .032.038.786.764 1.177.888.477 2.777 1.473 2.777 1.473l-.293.484zM56.745.442c-.294-.134-.684-.107-1.116.126l-8.07 4.345C40.853 8.525 35.367 17.388 35.367 24.61v1.785c0 .428.146.737.38.918l52.227 27.981a.167.167 0 0 0 .211-.045l14.318-19.731a.184.184 0 0 1 .027-.029l5.434-4.409a.14.14 0 0 0 .044-.058l1.029-2.446a.145.145 0 0 0-.069-.183L56.745.443z"/><path fill="#252323" d="M35.978 27.017l52.01 27.865 14.228-19.606.066-.061 5.39-4.374.937-2.226L56.57.762c-.188-.08-.451-.038-.742.119l-8.07 4.345C41.142 8.79 35.759 17.484 35.759 24.61v1.785c0 .279.078.499.22.622zm52.077 28.657a.567.567 0 0 1-.268-.067L35.506 27.591c-.239-.184-.522-.54-.522-1.196V24.61c0-7.356 5.557-16.332 12.386-20.01L55.44.255c.527-.284 1.052-.332 1.48-.138l.023.012 52.223 27.95c.236.127.336.39.236.627l-1.028 2.449a.526.526 0 0 1-.156.202l-5.406 4.387L88.511 55.45a.563.563 0 0 1-.456.223z"/><path fill="#fff" d="M102.558 35.529l4.925-3.996-1.403-1.97L53.834 1.587l-6.247 3.365c-3.012 1.622-5.772 4.307-7.905 7.424l52.203 27.961 6.889.397 3.757-5.177a.129.129 0 0 1 .027-.029z"/><path fill="#252323" d="M92 39.983l6.576.378 3.727-5.105 4.669-3.788-1.165-1.635L53.835 2.006l-6.054 3.26c-2.737 1.473-5.407 3.946-7.552 6.987L92 39.983zm6.97 1.125l-7.199-.414L39.137 12.5l.218-.319c2.247-3.282 5.102-5.96 8.038-7.542l6.44-3.468.194.104 52.325 28.016 1.642 2.305-5.16 4.186-3.864 5.325zM92.674 45.405l-11.217-6.008.385-.626 11.217 6.007-.385.627zM79.43 38.312l-7.905-4.233.386-.627 7.904 4.234-.385.626zM69.742 33.126l-29.28-15.682.386-.627 29.28 15.682-.386.627zM87.65 51.388L35.415 23.39c-.024.35-.048.7-.048 1.044v1.785c0 .428.146.737.38.918l52.227 27.981c.072.039.165.02.211-.045l.607-.836-1.142-2.85z"/><path fill="#252323" d="M87.62 52.495v1.87c0 .982.738 1.38 1.65.889l9.358-5.038c.911-.492 1.65-.094 1.65.888V64.04c0 .982.739 1.38 1.65.89l5.954-3.207c.911-.49 1.65-1.684 1.65-2.666v-29.63c0-.982-.739-1.38-1.65-.89l-8.15 4.388C93.043 36.53 87.62 45.29 87.62 52.496z"/><path fill="#252323" d="M99.368 49.642c.223 0 .434.05.623.152.436.236.678.701.678 1.31v12.937c0 .336.105.585.288.684.186.1.469.06.78-.108l5.954-3.206c.789-.425 1.457-1.503 1.457-2.354v-29.63c0-.335-.106-.584-.29-.683-.184-.1-.469-.06-.78.108l-8.149 4.387C93.357 36.78 88.01 45.417 88.01 52.495v1.87c0 .336.105.585.29.684.184.1.468.06.779-.108l9.357-5.039a1.99 1.99 0 0 1 .932-.26zm1.825 15.86c-.224 0-.434-.05-.622-.151-.437-.236-.678-.7-.678-1.31V51.105c0-.336-.105-.585-.29-.685-.183-.099-.468-.059-.78.108l-9.357 5.04c-.566.304-1.118.342-1.554.107-.437-.235-.678-.7-.678-1.31v-1.87c0-7.308 5.522-16.227 12.307-19.881l8.15-4.388c.565-.304 1.118-.343 1.554-.108.437.235.678.7.678 1.31v29.63c0 1.113-.81 2.422-1.845 2.98l-5.953 3.205c-.322.173-.639.26-.932.26z"/><path fill="#01BBFF" d="M87.92 54.366l-.596-.002.007-2.275h.596l-.007 2.277zM105.658 36.52c-.086-.016-.163-.028-.163-.028-.356-.034-.809.143-1.293.662a2.61 2.61 0 0 0-.589 1.004c-.186.6-.111 1.04.111 1.286 0 0 .448.605 1.447.823.047.01.1-.01.126-.048l1.486-2.203.064-.794a.093.093 0 0 0-.026-.076c-.115-.115-.497-.502-1.163-.627z"/><path fill="#01BBFF" d="M105.402 36.764c-.174 0-.519.084-.973.573a2.334 2.334 0 0 0-.529.898c-.141.454-.121.839.052 1.03.031.04.386.495 1.164.702l1.377-2.04.052-.65a1.878 1.878 0 0 0-.942-.485l-.157-.026a.45.45 0 0 0-.044-.002zm-.203 3.784a.459.459 0 0 1-.095-.01c-1.098-.24-1.603-.907-1.624-.936-.294-.322-.355-.87-.153-1.52.124-.403.35-.786.651-1.11.639-.686 1.192-.79 1.548-.757l.192.031c.501.095.945.333 1.319.709.08.08.116.18.108.288l-.07.862-1.525 2.262a.425.425 0 0 1-.351.181z"/><path fill="#252323" d="M107.263 37.987c0 .787-.591 1.742-1.321 2.135-.729.393-1.321.075-1.321-.712 0-.785.592-1.74 1.321-2.134.73-.393 1.321-.074 1.321.711z"/><path fill="#01BBFF" d="M106.533 37.386a.967.967 0 0 0-.44.13c-.636.343-1.173 1.21-1.173 1.894 0 .273.087.476.239.557.152.083.383.05.636-.086.635-.343 1.172-1.21 1.172-1.894 0-.272-.087-.475-.238-.556a.407.407 0 0 0-.196-.045zm-1.18 3.183c-.177 0-.343-.04-.493-.12-.345-.186-.536-.555-.536-1.039 0-.888.647-1.93 1.471-2.375.449-.242.886-.272 1.232-.086.346.186.536.555.536 1.038 0 .888-.646 1.931-1.47 2.376a1.575 1.575 0 0 1-.74.206zM105.658 41.752l-.163-.028c-.356-.033-.809.144-1.293.663-.27.29-.476.634-.589 1.004-.186.6-.111 1.04.111 1.287 0 0 .448.605 1.447.822.047.01.1-.01.126-.048l1.486-2.203.064-.794a.092.092 0 0 0-.026-.076c-.115-.114-.497-.501-1.163-.627z"/><path fill="#01BBFF" d="M105.402 41.997c-.175 0-.52.085-.973.572a2.34 2.34 0 0 0-.529.899c-.141.453-.121.839.052 1.03.031.039.386.495 1.164.701l1.377-2.04.052-.648a1.873 1.873 0 0 0-.942-.487l-.156-.025a.456.456 0 0 0-.045-.002zm-.203 3.784a.421.421 0 0 1-.095-.011c-1.098-.238-1.603-.906-1.624-.934-.294-.323-.355-.87-.153-1.522.124-.402.35-.785.651-1.11.639-.686 1.192-.79 1.548-.756l.192.032a2.49 2.49 0 0 1 1.319.707.36.36 0 0 1 .108.288l-.07.863-1.525 2.262a.425.425 0 0 1-.351.18z"/><path fill="#252323" d="M107.263 43.22c0 .786-.591 1.742-1.321 2.134-.729.394-1.321.075-1.321-.711 0-.786.592-1.741 1.321-2.134.73-.393 1.321-.075 1.321.712z"/><path fill="#01BBFF" d="M106.533 42.62a.959.959 0 0 0-.44.13c-.636.342-1.173 1.209-1.173 1.894 0 .272.087.475.239.556.152.082.383.05.636-.086.635-.342 1.172-1.21 1.172-1.893 0-.273-.087-.476-.238-.558a.416.416 0 0 0-.196-.044zm-1.18 3.182c-.177 0-.343-.04-.493-.12-.345-.186-.536-.555-.536-1.038 0-.889.647-1.931 1.471-2.376.449-.242.888-.273 1.232-.086.346.186.536.555.536 1.039 0 .887-.645 1.93-1.47 2.375a1.575 1.575 0 0 1-.74.206zM20.328 32.62c-.872-.586-2.35-.248-3.852 1.364-.99 1.064-1.567 2.434-1.54 3.844.018.876.269 1.367.845 1.721l.095.062 66.469 35.69c.055.03.125.011.156-.04l4.181-6.887a.102.102 0 0 0-.042-.145L20.328 32.62z"/><path fill="#252323" d="M19.402 32.718c-.692 0-1.63.428-2.63 1.503-.957 1.028-1.47 2.307-1.445 3.6.016.855.269 1.18.67 1.426l.105.069 66.2 35.543 3.912-6.443-66.11-35.504a1.24 1.24 0 0 0-.702-.194zm63.001 42.958a.525.525 0 0 1-.25-.063L15.685 39.925l-.125-.081c-.684-.42-.989-1.023-1.008-2.01-.029-1.473.552-2.924 1.634-4.087 1.83-1.965 3.485-2.002 4.353-1.433l66.297 35.602c.238.13.322.414.186.636l-4.181 6.887a.493.493 0 0 1-.304.22.533.533 0 0 1-.134.017z"/><path fill="#fff" d="M72.469 65.634l11.968 6.438 2.246-3.698a.102.102 0 0 0-.043-.144L20.328 32.62c-.871-.586-2.35-.248-3.851 1.364-.3.322-.556.674-.774 1.044-.004.021-.006.044-.015.059l27.521 14.806 1.668.897 17.364 9.342 10.228 5.502z"/><path fill="#252323" d="M84.581 72.568l-12.306-6.621.387-.626 11.63 6.256 1.92-3.161-66.079-35.484c-.681-.455-1.962-.217-3.365 1.289a5.528 5.528 0 0 0-.567.725l46.233 24.872-.388.626-46.882-25.221.198-.37c.241-.408.518-.78.82-1.106 1.843-1.977 3.505-2.002 4.371-1.421l66.28 35.59c.238.13.321.414.186.636l-2.438 4.016z"/><path fill="#fff" d="M63.959 61.056l6.875 3.699-6.875-3.7z"/><path fill="#252323" d="M70.641 65.068l-6.875-3.699.387-.626 6.875 3.699-.387.626zM15.778 39.51l.095.062 66.47 35.689c.054.03.124.012.155-.04l.72-1.184-1.595-.535-66.533-35.63c.017.876.112 1.284.688 1.637z"/><path fill="#252323" d="M15.524 38.521c.06.354.191.517.466.686l.106.07 66.2 35.543.358-.589-1.224-.416-65.906-35.294zm66.873 37.116a.526.526 0 0 1-.249-.063l-66.47-35.689-.118-.076c-.771-.475-.842-1.1-.858-1.93l-.012-.638 67.095 35.931 1.996.67-.946 1.558a.499.499 0 0 1-.305.22.526.526 0 0 1-.133.017z"/><path fill="#01BBFF" d="M87.802 70.216c0 1.837-1.382 4.07-3.087 4.988-1.705.918-3.088.174-3.088-1.662 0-1.837 1.383-4.07 3.088-4.989 1.706-.918 3.087-.174 3.087 1.663z"/><path fill="#252323" d="M86.091 68.52c-.354 0-.757.117-1.184.346-1.595.86-2.893 2.957-2.893 4.676 0 .753.252 1.304.71 1.55.459.248 1.097.176 1.796-.2 1.596-.86 2.894-2.957 2.894-4.676 0-.754-.253-1.304-.71-1.551a1.278 1.278 0 0 0-.613-.145zm-2.757 7.44c-.36 0-.697-.08-.997-.241-.708-.381-1.099-1.155-1.099-2.177 0-1.982 1.442-4.31 3.282-5.301.95-.512 1.863-.583 2.57-.202.71.381 1.099 1.154 1.099 2.177 0 1.982-1.441 4.31-3.282 5.302-.547.294-1.082.442-1.573.442z"/><path fill="#01BBFF" d="M15.332 39.57a2.051 2.051 0 0 1-.535-1.238V38h.596v.327s.024.487.389.88l-.45.364zM106.658 106.904c-.211-.092-.488-.071-.795.094l-3.209 1.729a3.072 3.072 0 0 1-.998.345l.57-38.562-2.506.666v-7.875l-2.699 1.394v43.846c0 1.738-1.32 3.871-2.934 4.74l-3.096 1.667c-.575.31-1.02.81-1.206 1.405-.213.68-.064 1.142.266 1.308l3.59 1.814a.137.137 0 0 0 .131-.005l6.283-3.83 8.947-5.334 1.272-1.405c.053-.058.035-.146-.037-.182l-3.579-1.815z"/><path fill="#252323" d="M97.409 64.909v43.633c0 1.857-1.404 4.124-3.128 5.052l-3.096 1.667c-.5.269-.875.705-1.028 1.193-.158.505-.07.815.078.889l3.454 1.745 6.155-3.751 8.9-5.305 1.029-1.136-3.286-1.668c-.101-.039-.258-.009-.43.084l-3.209 1.727a3.449 3.449 0 0 1-1.131.39l-.454.067.006-.428.562-38.078-2.498.665v-7.74l-1.924.994zm-3.706 54.942a.554.554 0 0 1-.245-.057l-3.592-1.816c-.415-.208-.752-.771-.453-1.726.211-.676.703-1.25 1.385-1.617l3.095-1.667c1.486-.8 2.74-2.827 2.74-4.426v-44.06l3.475-1.794v8.01l2.513-.67-.569 38.57a3.04 3.04 0 0 0 .409-.184l3.209-1.728c.404-.218.812-.256 1.151-.11l.022.01 3.58 1.816c.136.068.231.19.261.334a.458.458 0 0 1-.115.4l-1.359 1.475-8.946 5.333-6.28 3.828a.53.53 0 0 1-.281.079z"/><path fill="#fff" d="M99.817 113.466l-3.798-2.02-.007-.004c-.517.77-1.188 1.44-1.929 1.839l-3.094 1.667c-.248.133-.412.333-.6.529l3.523 1.866 1.11.642 2.414-.75 1.852-1.13.53-2.639z"/><path fill="#252323" d="M91 115.387l3.1 1.641.969.56 2.193-.682 1.672-1.019.449-2.234-3.252-1.729c-.542.732-1.18 1.305-1.857 1.67l-3.096 1.667a.907.907 0 0 0-.178.126zm3.969 2.994l-1.265-.732-3.93-2.08.414-.43c.161-.171.343-.364.603-.504l3.095-1.667c.647-.348 1.284-.959 1.794-1.718l.234-.347.34.259 3.991 2.119-.61 3.042-2.082 1.254-2.584.804z"/><path fill="#fff" d="M106.657 106.892c-.211-.092-.488-.071-.794.094l-3.21 1.729a3.067 3.067 0 0 1-.997.345l-.195.598 3.665 1.805.873.621 3.002-1.79 1.273-1.405a.115.115 0 0 0-.037-.182l-3.58-1.815z"/><path fill="#252323" d="M101.926 109.478l3.437 1.698.657.468 2.724-1.624 1.029-1.137-3.286-1.667c-.101-.04-.258-.009-.429.084l-3.21 1.727a3.6 3.6 0 0 1-.887.344l-.035.107zm4.054 3.046l-1.062-.755-3.92-1.931.359-1.099.239-.036c.278-.041.569-.142.865-.301l3.209-1.728c.404-.217.811-.256 1.151-.11l.022.01 3.58 1.816c.136.068.232.19.261.333a.455.455 0 0 1-.115.4l-1.359 1.476-3.23 1.925z"/><path fill="#252323" d="M103.349 108.985V65.14l-2.699 1.395v43.845c0 1.745-1.314 3.868-2.934 4.741l-3.21 1.727c-.658.355-1.192 1.217-1.192 1.926 0 .709.534.996 1.192.642l6.144-3.308 2.699-1.395 6.144-3.308c.658-.354 1.191-1.217 1.191-1.925 0-.709-.533-.997-1.191-.643l-3.21 1.729c-1.621.873-2.934.165-2.934-1.581z"/><path fill="#252323" d="M101.037 66.748v43.632c0 1.889-1.375 4.109-3.129 5.053l-3.209 1.728c-.54.292-.998 1.03-.998 1.613 0 .203.058.355.155.407.097.053.268.023.456-.078l6.143-3.307 2.705-1.399 6.137-3.304c.541-.293.999-1.031.999-1.613 0-.203-.058-.355-.156-.407-.097-.054-.268-.024-.455.077l-3.209 1.728c-.909.489-1.784.558-2.463.192-.679-.366-1.053-1.106-1.053-2.084V65.753l-1.923.995zm-7.067 53.18c-.18 0-.35-.04-.5-.121-.346-.186-.544-.562-.544-1.033 0-.837.609-1.82 1.386-2.238l3.209-1.728c1.511-.814 2.74-2.801 2.74-4.428V66.322l3.474-1.796v44.46c0 .71.236 1.227.665 1.458.429.231 1.029.163 1.688-.191l3.209-1.728c.437-.235.886-.264 1.23-.078.346.186.544.562.544 1.033 0 .836-.61 1.82-1.386 2.238l-6.143 3.308-2.706 1.398-6.136 3.304c-.247.133-.497.2-.73.2z"/><path fill="#252323" d="M100.446 108.293l-3.632-2.111.41-.613 3.631 2.11-.409.614zM100.446 90.848l-3.632-2.11.41-.614 3.631 2.11-.409.614z"/><path fill="#01BBFF" d="M101.202 80.032l-.298-.482 2.027-1.091.298.481-2.027 1.092zM104.19 54.1c-.158-.082-.374-.07-.614.06l-17.98 9.682c-.581.313-1.132.891-1.5 1.574l-7.257 13.47c-.237.44-.366.9-.366 1.302v2.925c0 .223.074.384.193.482l.023.017c.027.02 6.555 3.467 7.21 3.818a.052.052 0 0 0 .068-.017l2.429-3.593.007-.008 19.535-18.22 3.462-3.466a.04.04 0 0 0 .009-.013l2.041-4.118a.046.046 0 0 0-.021-.061L104.19 54.1z"/><path fill="#252323" d="M103.972 54.41a.444.444 0 0 0-.197.062l-17.98 9.683c-.513.275-1.017.808-1.348 1.423l-7.257 13.47c-.21.388-.325.793-.325 1.14v2.925c0 .118.031.186.061.21l4.11 2.173 2.78 1.47 2.317-3.41 19.535-18.22 3.417-3.42 1.889-3.81-6.967-3.69a.094.094 0 0 0-.035-.006zM83.93 87.798a.458.458 0 0 1-.222-.057l-3.053-1.616c-4.16-2.199-4.162-2.2-4.196-2.225a.966.966 0 0 1-.37-.787v-2.925c0-.457.146-.978.408-1.464l7.257-13.47c.403-.748 1.006-1.376 1.653-1.725l17.981-9.682c.345-.187.707-.21.993-.064l.005.002 7.239 3.835c.2.107.277.333.182.526l-2.128 4.235-3.453 3.457-19.52 18.206-2.406 3.562a.443.443 0 0 1-.37.192z"/><path fill="#252323" d="M76.666 83.595l.023.017c.027.02 6.555 3.467 7.21 3.818a.052.052 0 0 0 .068-.017l.759-1.122a140.06 140.06 0 0 0-.97-1.647l-7.283-3.905v2.374c0 .223.074.384.193.482z"/><path fill="#252323" d="M76.924 83.321l.019.015c.05.022 2.292 1.207 4.093 2.16l2.78 1.47.465-.69a139.71 139.71 0 0 0-.806-1.368l-6.61-3.544v1.75c0 .115.03.182.06.207zm7.006 4.477a.458.458 0 0 1-.222-.057l-3.053-1.616c-4.16-2.199-4.162-2.2-4.196-2.225l-.042-.033c-.21-.172-.327-.439-.327-.754v-3l7.956 4.267.053.088s.423.705.972 1.65l.108.187-.879 1.3a.443.443 0 0 1-.37.193z"/><path fill="#fff" d="M91.383 69.275L110 60.266l-8.89-4.777L85.6 63.842c-.582.313-1.132.891-1.5 1.574l7.283 3.859z"/><path fill="#252323" d="M84.623 65.279l6.766 3.584 17.804-8.613-8.083-4.344-15.319 8.25c-.426.228-.847.637-1.168 1.123zm6.75 4.407l-7.787-4.126.165-.307c.403-.747 1.006-1.375 1.653-1.724l15.706-8.457 9.697 5.21-19.434 9.404z"/><path fill="#252323" d="M110.861 73.323L84.636 87.445c-.485.261-.878.05-.878-.473v-2.926c0-.403.129-.863.365-1.302l7.257-13.469c.369-.684.919-1.261 1.5-1.574l17.981-9.682c.486-.262.879-.05.879.472v13.412c0 .523-.393 1.159-.879 1.42z"/><path fill="#252323" d="M111.253 58.268c-.04 0-.11.015-.198.063l-17.982 9.682c-.511.276-1.015.808-1.347 1.424l-7.257 13.47c-.21.388-.324.793-.324 1.14v2.924c0 .134.04.205.063.22.025.01.11.008.234-.059l26.224-14.122c.366-.196.686-.714.686-1.107V58.491c0-.133-.039-.204-.064-.217a.073.073 0 0 0-.035-.006zm-27.01 29.65a.878.878 0 0 1-.422-.102c-.287-.155-.452-.463-.452-.845v-2.925c0-.457.145-.976.408-1.464l7.257-13.47c.402-.747 1.004-1.375 1.652-1.724l17.98-9.683c.355-.19.723-.211 1.01-.057.287.154.451.462.451.843v13.412c0 .648-.471 1.41-1.072 1.733l-.195-.313.195.314-26.225 14.12c-.198.107-.398.16-.588.16z"/><path fill="#01BBFF" d="M84.06 86.971h-.597v-2.189h.596v2.19z"/><path fill="#252323" d="M84.382 82.49L77.1 78.63l.383-.627 7.283 3.858-.384.628zM89.832 72.394l-7.283-3.858.382-.628 7.283 3.858-.382.628z"/><path fill="#01BBFF" d="M106.424 64.786l-.163-.027c-.356-.034-.81.142-1.293.662a2.64 2.64 0 0 0-.59 1.004c-.185.6-.111 1.04.112 1.287 0 0 .448.605 1.448.821.047.011.099-.009.125-.047l1.486-2.204.064-.793a.091.091 0 0 0-.027-.076c-.114-.115-.497-.501-1.162-.627z"/><path fill="#01BBFF" d="M106.168 65.031c-.176 0-.521.085-.975.572a2.35 2.35 0 0 0-.529.9c-.139.452-.119.838.054 1.03.031.038.385.494 1.163.7l1.376-2.04.053-.649a1.87 1.87 0 0 0-.942-.485l-.156-.026a.45.45 0 0 0-.044-.002zm-.203 3.784a.416.416 0 0 1-.095-.01c-1.099-.24-1.604-.907-1.625-.935-.293-.323-.353-.87-.153-1.522.124-.4.349-.784.651-1.11.638-.685 1.193-.79 1.548-.755l.193.03c.502.096.947.334 1.32.71.078.079.115.18.106.287l-.07.862-1.525 2.262a.422.422 0 0 1-.35.18z"/><path fill="#252323" d="M108.031 66.254c0 .786-.592 1.742-1.321 2.135-.73.392-1.321.074-1.321-.712 0-.785.591-1.74 1.321-2.134.729-.393 1.321-.074 1.321.711z"/><path fill="#01BBFF" d="M107.299 65.653a.96.96 0 0 0-.441.131c-.636.342-1.173 1.21-1.173 1.893 0 .273.088.476.238.558.151.081.383.05.637-.087.635-.342 1.172-1.209 1.172-1.894 0-.272-.086-.475-.238-.556a.404.404 0 0 0-.195-.045zm-1.18 3.183a1.03 1.03 0 0 1-.494-.12c-.345-.186-.535-.555-.535-1.039 0-.887.645-1.93 1.47-2.375.449-.241.887-.272 1.232-.086.346.186.536.555.536 1.038 0 .888-.646 1.931-1.47 2.375a1.573 1.573 0 0 1-.739.207zM102.973 69.612l-.163-.027c-.356-.034-.809.143-1.293.662-.271.29-.476.635-.59 1.004-.185.6-.111 1.04.112 1.287 0 0 .448.605 1.447.822.047.01.099-.01.125-.048l1.486-2.203.065-.794a.094.094 0 0 0-.027-.076c-.114-.115-.497-.501-1.162-.627z"/><path fill="#01BBFF" d="M102.713 69.857c-.276 0-.623.2-.969.573a2.342 2.342 0 0 0-.528.899c-.14.452-.12.838.053 1.03.03.039.385.494 1.163.7l1.376-2.04.052-.648a1.856 1.856 0 0 0-.941-.486l-.156-.026a.624.624 0 0 0-.05-.002zm-.197 3.784a.43.43 0 0 1-.096-.01c-1.098-.24-1.603-.907-1.624-.935-.294-.323-.354-.87-.153-1.521.124-.401.348-.785.651-1.11.639-.686 1.193-.79 1.548-.757l.192.032c.503.095.948.334 1.321.71a.359.359 0 0 1 .106.286l-.07.863-1.525 2.261a.422.422 0 0 1-.35.181z"/><path fill="#252323" d="M104.58 71.08c0 .787-.591 1.742-1.321 2.135-.73.393-1.321.075-1.321-.711 0-.786.591-1.741 1.321-2.135.73-.393 1.321-.074 1.321.712z"/><path fill="#01BBFF" d="M103.845 70.48a.967.967 0 0 0-.441.13c-.635.343-1.172 1.21-1.172 1.894 0 .272.087.475.238.557.151.08.382.05.636-.087.636-.342 1.172-1.209 1.172-1.893 0-.272-.086-.476-.238-.557a.404.404 0 0 0-.195-.045zm-1.18 3.182c-.177 0-.343-.04-.493-.12-.345-.186-.535-.555-.535-1.038 0-.888.645-1.93 1.469-2.376.449-.241.887-.272 1.232-.086.346.186.537.555.537 1.039 0 .888-.647 1.93-1.471 2.375a1.569 1.569 0 0 1-.739.206z"/><path fill="#01BBFF" d="M102.576 71.437l-.496-.308 3.613-5.062.496.307-3.613 5.063zM104.385 72.535l-.496-.309 3.337-4.666.495.308-3.336 4.667zM36.161 41.258c-.87-.585-2.35-.248-3.85 1.364-.991 1.065-1.568 2.435-1.54 3.845V76.34c0 .439.25.845.656 1.066L66.582 96.49c.593.321 1.336-.078 1.336-.717v-30.42c.157-1.127.682-2.195 1.487-3.06 1.501-1.612 2.98-1.878 3.851-1.294l-37.094-19.74z"/><path fill="#252323" d="M35.233 41.357c-.692 0-1.63.428-2.63 1.503-.958 1.028-1.471 2.307-1.446 3.6v29.881c0 .31.179.598.465.754l35.154 19.082a.524.524 0 0 0 .502.001.46.46 0 0 0 .251-.406v-30.42c.17-1.242.715-2.366 1.582-3.297.84-.903 1.652-1.386 2.368-1.585L35.935 41.55a1.245 1.245 0 0 0-.702-.193zm31.795 55.608c-.22 0-.44-.055-.642-.164L31.233 77.72c-.525-.284-.851-.812-.851-1.378V46.467c-.029-1.466.552-2.918 1.635-4.081 1.829-1.965 3.484-2.001 4.352-1.434l36.792 19.58c.115.049.222.108.32.173l-.418.607-.258-.138c-.67-.263-1.8-.05-3.109 1.355-.766.823-1.249 1.815-1.394 2.868l.003 30.375c0 .43-.24.817-.64 1.032-.2.108-.418.16-.638.16z"/><path fill="#252323" d="M59.418 92.585V61.71c-.027-1.41.55-2.78 1.54-3.845 1.502-1.612 2.98-1.95 3.852-1.364L42.965 44.885c-.871-.585-2.35-.247-3.85 1.365-.992 1.065-1.568 2.434-1.54 3.844v30.67l21.842 11.82z"/><path fill="#252323" d="M37.962 80.557l21.068 11.4V61.71c-.028-1.466.553-2.917 1.636-4.08.864-.93 1.69-1.427 2.41-1.634L42.775 45.198c-.681-.453-1.964-.218-3.367 1.29-.957 1.028-1.47 2.306-1.445 3.6v30.469zm21.844 12.655l-22.62-12.24V50.095c-.027-1.466.553-2.917 1.636-4.08 1.841-1.978 3.504-2.003 4.37-1.422l21.542 11.453c.109.046.21.101.302.162l-.418.608-.239-.127c-.694-.271-1.86.054-3.128 1.416-.957 1.027-1.47 2.306-1.446 3.6l.001 31.508z"/><path fill="#01BBFF" d="M61.717 55.15l-12.713-6.88.3-.48 12.712 6.88-.3.48zM34.06 48.03l30.33 16.242L34.06 48.03z"/><path fill="#252323" d="M64.198 64.586L33.87 48.343l.386-.626 30.329 16.242-.386.627zM54.031 7.586l.232.125a1.5 1.5 0 0 0 .614.193.98.98 0 0 0 .535-.114c.165-.089.242-.179.23-.27-.01-.091-.112-.188-.305-.292l-.32-.172-.986.53zm2.116.573c-.356.192-.741.28-1.154.26a2.86 2.86 0 0 1-1.236-.36l-.303-.162-1.18.636-.704-.38 3.32-1.787 1.06.572c.403.216.623.428.66.634.035.206-.119.402-.463.587zM57.038 9.111l.229.122c.222.12.423.189.604.206a.871.871 0 0 0 .508-.103c.157-.085.216-.173.174-.268-.043-.095-.178-.203-.403-.325l-.214-.115-.898.483zm-.572.308l-1.273.686-.705-.379 3.32-1.788.968.521c.45.243.703.468.755.673.053.205-.089.397-.423.577-.196.105-.423.17-.683.194a2.71 2.71 0 0 1-.814-.053 52.53 52.53 0 0 0-.47 1.305l-.781-.421.481-1.113-.375-.202zM57.559 11.38l3.319-1.788.705.379-3.32 1.788-.704-.38zM62.043 13.795l-.894-.482 1.067-2.13-.02-.011c-.415.254-.718.433-.906.534l-1.563.842-.63-.34 3.32-1.787.889.478-1.045 2.116.017.008c.409-.244.702-.414.88-.51l1.572-.847.632.341-3.319 1.788zM64.161 14.934l-.704-.378 2.734-1.472-.902-.486.586-.315 2.508 1.35-.586.315-.902-.486-2.734 1.473z"/><path fill="#01BBFF" d="M44.761 76.732l-.003 7.31 14.189 7.678v-2.44l-11.318-6.102.003-4.898-2.87-1.548zM58.943 72.5l-4.241-2.287-9.933-12.068-.003 4.621 6.696 7.83-6.7.58-.004 4.65 10.052-1.293 4.133 2.228V72.5zM39.04 8.86c2.152.495 2.152 2.055 0 2.55a4.069 4.069 0 0 1-1.815 0c-2.152-.495-2.152-2.054 0-2.55a4.069 4.069 0 0 1 1.816 0z"/><path fill="#252323" d="M38.133 9.12c-.274 0-.548.03-.815.092-.8.184-1.32.547-1.32.924s.52.74 1.32.924a3.655 3.655 0 0 0 1.63 0c.801-.185 1.319-.548 1.319-.924 0-.377-.518-.74-1.318-.924a3.648 3.648 0 0 0-.816-.092zm0 2.754c-.336 0-.674-.037-1-.113-1.178-.27-1.908-.893-1.908-1.625s.73-1.355 1.908-1.626a4.485 4.485 0 0 1 2 0c1.178.27 1.909.894 1.909 1.626 0 .732-.731 1.355-1.908 1.625a4.466 4.466 0 0 1-1.001.113z"/><path fill="#fff" d="M38.135 5.39c-.899 0-1.627.68-1.627 1.518v2.15c0 .332.346.664 1.041.823.383.089.789.089 1.172 0 .694-.16 1.042-.49 1.042-.823v-2.15c0-.839-.729-1.518-1.628-1.518z"/><path fill="#252323" d="M38.132 5.751c-.684 0-1.24.52-1.24 1.157v2.15c0 .15.256.36.747.472.323.075.664.075.986 0 .49-.112.746-.322.746-.472v-2.15c0-.638-.555-1.157-1.24-1.157zm0 4.557c-.228 0-.457-.025-.68-.076-.984-.227-1.335-.755-1.335-1.174v-2.15c0-1.037.904-1.88 2.015-1.88 1.11 0 2.015.843 2.015 1.88v2.15c0 .419-.35.948-1.337 1.174-.221.051-.45.076-.678.076z"/><path fill="#252323" d="M38.132 10.308c-.228 0-.457-.025-.68-.076-.984-.226-1.335-.755-1.335-1.174 0-.419.35-.947 1.336-1.173l.186.701c-.49.113-.748.323-.748.472 0 .15.257.36.748.472.323.074.664.075.986 0 .49-.112.747-.322.747-.472 0-.149-.256-.36-.747-.472l.186-.701c.985.226 1.336.754 1.336 1.173 0 .419-.35.948-1.337 1.174-.221.051-.45.076-.678.076z"/><path fill="#01BBFF" d="M100.624 25.63c2.152.496 2.152 2.056 0 2.55a4.066 4.066 0 0 1-1.815 0c-2.152-.494-2.152-2.054 0-2.55a4.066 4.066 0 0 1 1.815 0z"/><path fill="#252323" d="M99.716 25.89c-.275 0-.55.03-.816.092-.8.184-1.32.547-1.32.924s.52.74 1.32.924a3.65 3.65 0 0 0 1.631 0c.8-.185 1.319-.547 1.319-.924s-.519-.74-1.319-.924a3.645 3.645 0 0 0-.815-.092zm-.001 2.755c-.336 0-.673-.038-1-.113-1.178-.271-1.908-.894-1.908-1.626 0-.732.73-1.355 1.908-1.626a4.496 4.496 0 0 1 2.001 0c1.177.27 1.908.894 1.908 1.626 0 .732-.731 1.355-1.907 1.626a4.485 4.485 0 0 1-1.002.113z"/><path fill="#fff" d="M99.714 22.16c-.9 0-1.628.68-1.628 1.518v2.15c0 .332.347.664 1.042.823.383.089.788.089 1.171 0 .695-.16 1.042-.49 1.042-.823v-2.15c0-.838-.729-1.518-1.627-1.518z"/><path fill="#252323" d="M99.716 22.521c-.684 0-1.24.52-1.24 1.157v2.15c0 .15.257.36.747.473.323.074.664.074.987 0 .49-.113.746-.323.746-.473v-2.15c0-.638-.556-1.157-1.24-1.157zm0 4.557c-.228 0-.456-.025-.678-.075-.986-.227-1.337-.755-1.337-1.175v-2.15c0-1.036.904-1.88 2.015-1.88 1.111 0 2.016.844 2.016 1.88v2.15c0 .42-.352.948-1.337 1.175-.222.05-.45.075-.68.075z"/><path fill="#252323" d="M99.716 27.078c-.228 0-.456-.025-.678-.075-.986-.227-1.337-.755-1.337-1.175 0-.418.351-.947 1.336-1.173l.186.701c-.49.113-.747.324-.747.472 0 .15.257.36.747.473.323.074.664.074.987 0 .49-.113.746-.323.746-.473 0-.148-.256-.36-.747-.472l.186-.701c.985.226 1.336.755 1.336 1.173 0 .42-.351.948-1.336 1.175-.222.05-.45.075-.68.075z"/><path fill="#252323" fill-rule="evenodd" d="M32.586 48.686l33.026 17.785v35.569L32.586 84.256v-35.57z" clip-rule="evenodd"/><path fill="#EC268F" d="M47.678 63.328l.376.203v9.21l-.54-.291v-9.21l.163.088z"/><path fill="#00AFEF" d="M37.127 66.68V57.65l.653.351 3.494 10.208 3.453-6.467.653.352v9.21l-.54-.292V62.93l-3.373 6.218-.18-.097-.01.022-.013-.034-.223-.12-3.374-9.851v8.081l-.54-.29v-.179z"/><path fill="#FFF212" d="M51.375 64.018v-.4l4.173 2.248v.578l-4.173-2.248v-.178z"/><path fill="#EC268F" d="M47.498 61.962v-.43l.566.304v.607l-.566-.304v-.177z"/><path fill="#FEFEFE" d="M55.138 82.62l.312.335-3.16 5.758c-.193.345-.408.565-.645.66-.25.1-.52.064-.814-.108a2.162 2.162 0 0 1-.492-.317 4.646 4.646 0 0 1-.527-.53l-.134-.156.226-.363.144.15c.174.18.328.324.459.43.12.096.219.16.298.191l.023.01c.183.098.35.113.503.044.165-.076.314-.25.446-.52l.353-.654-2.618-7.837h.463L52.44 87.1l2.546-4.645.152.164zM44.169 82.255v3.422l-.542-.292v-8.982l.542.291v1.274c.186-.23.404-.384.656-.459.416-.127.92-.04 1.506.26l.015.008a5.253 5.253 0 0 1 1.93 2.041c.438.828.68 1.808.724 2.934v.01c-.015 1.113-.238 1.844-.671 2.19-.443.352-1.092.305-1.949-.14l-.005-.003a4.864 4.864 0 0 1-1.538-1.376 6.104 6.104 0 0 1-.668-1.178zm2.218 1.978c.676.349 1.185.383 1.526.103.35-.288.532-.91.546-1.862-.04-.973-.241-1.802-.6-2.49a4.185 4.185 0 0 0-1.524-1.63c-.68-.307-1.2-.318-1.556-.028-.365.298-.57.906-.61 1.83.055.945.268 1.756.639 2.436a4.421 4.421 0 0 0 1.579 1.641zM34.982 78.407v-9.033c.827.446 1.653.887 2.48 1.337 1.49.82 2.617 1.81 3.378 2.969.765 1.166 1.155 2.49 1.168 3.97v.154c.006.199.008.389.001.57-.04 1.247-.401 2.023-1.08 2.328-.673.303-1.656.136-2.945-.502a12.597 12.597 0 0 1-.718-.386l-2.284-1.229v-.177zm.542-8.158v8.043l1.748.941c1.469.851 2.55 1.133 3.244.846.689-.284 1.006-1.136.952-2.554v-.007c0-1.364-.347-2.569-1.038-3.612-.696-1.052-1.751-1.958-3.163-2.718l-1.743-.939z"/><path fill="#FFF212" d="M56.784 68.409l-.001 18.453L62.513 84l.402.65-3.572 1.74 3.87 7.12-.434.115-3.843-7.074-2.153 1.077v2.613l-.54-.291c0-7.039-.002-14.08 0-21.117l-5.516 5.347-.586-.315v-9.21l.496.267v8.315l5.516-5.344.631.34v.176z"/></svg>