<svg width="198" height="195" viewBox="0 0 198 195" fill="none" xmlns="http://www.w3.org/2000/svg">
<path d="M141.84 188.286L140.668 188.917C140.548 188.982 140.339 188.973 140.2 188.899L139.094 188.304C138.956 188.229 138.94 188.116 139.061 188.052L140.234 187.42C140.353 187.355 140.563 187.364 140.702 187.439L141.806 188.033C141.945 188.108 141.96 188.221 141.84 188.286" fill="#252323"/>
<path d="M144.569 189.754L143.396 190.386C143.277 190.45 143.066 190.442 142.928 190.367L141.823 189.773C141.683 189.698 141.669 189.585 141.789 189.52L142.961 188.889C143.082 188.824 143.291 188.833 143.43 188.906L144.535 189.502C144.674 189.577 144.689 189.689 144.569 189.754" fill="#252323"/>
<path d="M141.697 191.302L140.525 191.933C140.405 191.998 140.194 191.99 140.056 191.915L138.951 191.32C138.813 191.245 138.797 191.132 138.917 191.068L140.089 190.437C140.21 190.371 140.419 190.38 140.559 190.455L141.663 191.05C141.802 191.124 141.817 191.238 141.697 191.302" fill="#252323"/>
<path d="M147.296 191.223L146.124 191.854C146.003 191.919 145.794 191.911 145.655 191.836L144.55 191.241C144.411 191.167 144.397 191.054 144.516 190.989L145.689 190.357C145.809 190.293 146.019 190.301 146.157 190.375L147.262 190.97C147.402 191.045 147.416 191.158 147.296 191.223" fill="#252323"/>
<path d="M144.425 192.771L143.253 193.402C143.133 193.467 142.922 193.458 142.783 193.384L141.679 192.789C141.54 192.714 141.525 192.601 141.645 192.537L142.817 191.905C142.937 191.84 143.148 191.849 143.287 191.924L144.391 192.518C144.53 192.593 144.545 192.706 144.425 192.771" fill="#252323"/>
<path d="M150.184 192.777L149.012 193.409C148.892 193.474 148.681 193.465 148.542 193.39L147.438 192.796C147.299 192.721 147.284 192.608 147.404 192.543L148.576 191.912C148.696 191.848 148.906 191.855 149.044 191.93L150.15 192.525C150.289 192.6 150.304 192.713 150.184 192.777" fill="#252323"/>
<path d="M147.3 194.326L146.128 194.956C146.008 195.021 145.798 195.013 145.659 194.939L144.554 194.344C144.415 194.268 144.401 194.155 144.521 194.091L145.693 193.459C145.813 193.395 146.023 193.403 146.162 193.478L147.267 194.072C147.406 194.147 147.42 194.26 147.3 194.326Z" fill="#252323"/>
<path d="M153.047 191.23L151.875 191.861C151.754 191.926 151.545 191.918 151.405 191.843L150.301 191.248C150.162 191.173 150.147 191.06 150.267 190.996L151.439 190.365C151.559 190.299 151.77 190.308 151.908 190.383L153.013 190.978C153.151 191.052 153.167 191.165 153.047 191.23" fill="#252323"/>
<path d="M155.929 189.682L154.757 190.313C154.637 190.378 154.428 190.37 154.289 190.295L153.185 189.701C153.045 189.626 153.031 189.513 153.151 189.448L154.323 188.817C154.443 188.752 154.653 188.761 154.791 188.835L155.897 189.43C156.035 189.505 156.051 189.618 155.929 189.682" fill="#252323"/>
<path d="M158.801 188.135L157.629 188.766C157.509 188.831 157.299 188.823 157.16 188.748L156.056 188.153C155.917 188.078 155.902 187.965 156.022 187.901L157.194 187.27C157.314 187.204 157.523 187.213 157.663 187.288L158.768 187.883C158.906 187.958 158.922 188.071 158.801 188.135" fill="#252323"/>
<path d="M161.677 186.588L160.505 187.219C160.385 187.283 160.175 187.275 160.036 187.201L158.931 186.606C158.793 186.531 158.777 186.418 158.898 186.354L160.07 185.722C160.19 185.657 160.399 185.666 160.539 185.741L161.643 186.335C161.782 186.41 161.797 186.523 161.677 186.588Z" fill="#252323"/>
<path d="M164.548 185.04L163.376 185.671C163.256 185.736 163.046 185.728 162.908 185.653L161.802 185.058C161.664 184.984 161.648 184.87 161.769 184.806L162.942 184.175C163.062 184.11 163.271 184.118 163.41 184.192L164.514 184.788C164.653 184.863 164.668 184.976 164.548 185.04Z" fill="#252323"/>
<path d="M167.428 183.493L166.256 184.124C166.136 184.188 165.925 184.181 165.787 184.106L164.682 183.511C164.544 183.436 164.528 183.323 164.648 183.259L165.82 182.628C165.941 182.562 166.15 182.571 166.29 182.646L167.394 183.241C167.533 183.315 167.548 183.428 167.428 183.493" fill="#252323"/>
<path d="M170.304 181.945L169.131 182.576C169.011 182.641 168.801 182.633 168.663 182.558L167.558 181.964C167.418 181.889 167.404 181.776 167.524 181.71L168.696 181.079C168.816 181.015 169.026 181.023 169.165 181.097L170.27 181.692C170.409 181.767 170.424 181.88 170.304 181.945" fill="#252323"/>
<path d="M173.179 180.398L172.007 181.029C171.887 181.093 171.676 181.086 171.537 181.011L170.433 180.416C170.294 180.341 170.279 180.228 170.399 180.164L171.571 179.533C171.691 179.467 171.902 179.476 172.041 179.55L173.145 180.146C173.284 180.221 173.299 180.334 173.179 180.398Z" fill="#252323"/>
<path d="M176.046 178.851L174.874 179.482C174.753 179.546 174.544 179.538 174.405 179.463L173.3 178.869C173.161 178.794 173.146 178.681 173.266 178.616L174.439 177.984C174.559 177.92 174.769 177.928 174.907 178.003L176.012 178.597C176.152 178.672 176.166 178.785 176.046 178.851" fill="#252323"/>
<path d="M152.914 194.246L151.742 194.877C151.622 194.942 151.413 194.934 151.274 194.859L150.17 194.264C150.03 194.189 150.016 194.076 150.136 194.012L151.308 193.381C151.428 193.316 151.638 193.324 151.776 193.399L152.882 193.994C153.02 194.069 153.036 194.182 152.914 194.246Z" fill="#252323"/>
<path d="M155.779 192.699L154.606 193.33C154.486 193.395 154.277 193.386 154.138 193.312L153.033 192.717C152.894 192.642 152.879 192.529 153 192.465L154.172 191.833C154.292 191.768 154.501 191.777 154.64 191.852L155.746 192.446C155.884 192.521 155.9 192.634 155.779 192.699Z" fill="#252323"/>
<path d="M158.658 191.151L157.486 191.782C157.366 191.848 157.155 191.839 157.017 191.764L155.912 191.169C155.774 191.095 155.758 190.981 155.879 190.917L157.051 190.286C157.171 190.222 157.38 190.229 157.52 190.304L158.624 190.899C158.763 190.974 158.778 191.087 158.658 191.151Z" fill="#252323"/>
<path d="M161.533 189.604L160.361 190.235C160.241 190.299 160.031 190.292 159.893 190.217L158.787 189.622C158.649 189.547 158.634 189.434 158.754 189.37L159.926 188.739C160.047 188.673 160.256 188.682 160.395 188.757L161.5 189.352C161.639 189.426 161.653 189.539 161.533 189.604" fill="#252323"/>
<path d="M164.405 188.056L163.233 188.688C163.113 188.752 162.903 188.744 162.765 188.669L161.659 188.075C161.52 188 161.505 187.887 161.625 187.822L162.797 187.191C162.918 187.126 163.128 187.135 163.267 187.209L164.371 187.804C164.51 187.879 164.525 187.992 164.405 188.056" fill="#252323"/>
<path d="M167.281 186.509L166.108 187.14C165.989 187.204 165.778 187.197 165.639 187.122L164.535 186.527C164.395 186.452 164.381 186.339 164.501 186.275L165.673 185.643C165.793 185.578 166.003 185.586 166.142 185.661L167.247 186.257C167.386 186.332 167.401 186.444 167.281 186.509Z" fill="#252323"/>
<path d="M170.16 184.962L168.988 185.593C168.868 185.657 168.657 185.649 168.518 185.575L167.414 184.98C167.275 184.905 167.26 184.792 167.38 184.728L168.552 184.096C168.672 184.031 168.883 184.04 169.021 184.115L170.126 184.709C170.265 184.784 170.28 184.897 170.16 184.962" fill="#252323"/>
<path d="M173.023 183.414L171.851 184.045C171.73 184.11 171.521 184.102 171.382 184.027L170.277 183.432C170.138 183.358 170.124 183.244 170.243 183.18L171.416 182.548C171.536 182.484 171.746 182.491 171.884 182.566L172.989 183.162C173.127 183.237 173.143 183.349 173.023 183.414" fill="#252323"/>
<path d="M175.906 181.867L174.733 182.498C174.614 182.562 174.404 182.555 174.265 182.48L173.161 181.885C173.022 181.81 173.007 181.697 173.127 181.633L174.299 181.002C174.419 180.936 174.629 180.945 174.767 181.019L175.873 181.615C176.011 181.689 176.027 181.801 175.906 181.867Z" fill="#252323"/>
<path d="M21.4928 123.297L20.3207 123.929C20.2007 123.993 19.9903 123.985 19.8522 123.91L18.7468 123.316C18.6088 123.241 18.5929 123.128 18.7129 123.063L19.885 122.432C20.0061 122.367 20.2154 122.376 20.3546 122.45L21.4589 123.045C21.598 123.12 21.6127 123.233 21.4928 123.297" fill="#252323"/>
<path d="M24.2091 124.766L23.0369 125.397C22.917 125.463 22.7065 125.454 22.5674 125.379L21.4631 124.784C21.3239 124.71 21.3092 124.597 21.4291 124.532L22.6013 123.901C22.7212 123.836 22.9317 123.844 23.0697 123.919L24.1751 124.514C24.3143 124.589 24.329 124.702 24.2091 124.766" fill="#252323"/>
<path d="M21.3416 126.314L20.1695 126.945C20.0495 127.009 19.8391 127.001 19.701 126.927L18.5956 126.332C18.4565 126.257 18.4418 126.144 18.5617 126.08L19.7339 125.448C19.8538 125.383 20.0643 125.392 20.2034 125.467L21.3077 126.061C21.4468 126.136 21.4616 126.249 21.3416 126.314" fill="#252323"/>
<path d="M26.9397 126.235L25.7676 126.866C25.6477 126.932 25.4383 126.923 25.2992 126.848L24.1949 126.253C24.0557 126.178 24.041 126.065 24.161 126.001L25.3331 125.37C25.453 125.305 25.6635 125.313 25.8015 125.388L26.9069 125.983C27.045 126.058 27.0608 126.171 26.9397 126.235" fill="#252323"/>
<path d="M24.0615 127.782L22.8893 128.414C22.7682 128.478 22.5589 128.47 22.4198 128.395L21.3155 127.801C21.1763 127.726 21.1616 127.613 21.2815 127.548L22.4537 126.917C22.5737 126.852 22.7841 126.861 22.9221 126.935L24.0275 127.53C24.1656 127.605 24.1814 127.718 24.0615 127.782" fill="#252323"/>
<path d="M29.8282 127.789L28.6561 128.42C28.535 128.485 28.3257 128.477 28.1865 128.403L27.0822 127.807C26.9431 127.732 26.9284 127.62 27.0483 127.555L28.2205 126.924C28.3404 126.859 28.5508 126.867 28.6889 126.942L29.7943 127.537C29.9323 127.612 29.9482 127.725 29.8282 127.789" fill="#252323"/>
<path d="M26.9449 129.337L25.7727 129.968C25.6516 130.033 25.4423 130.025 25.3031 129.95L24.1989 129.356C24.0597 129.281 24.045 129.168 24.1649 129.102L25.3371 128.471C25.457 128.407 25.6675 128.415 25.8055 128.489L26.9109 129.084C27.0501 129.159 27.0648 129.272 26.9449 129.337" fill="#252323"/>
<path d="M32.6985 126.242L31.5263 126.873C31.4064 126.938 31.1971 126.929 31.0579 126.855L29.9536 126.26C29.8145 126.185 29.7998 126.072 29.9197 126.008L31.0919 125.376C31.2118 125.312 31.4222 125.32 31.5603 125.395L32.6657 125.989C32.8037 126.064 32.8196 126.177 32.6985 126.242" fill="#252323"/>
<path d="M35.5824 124.694L34.4103 125.325C34.2903 125.391 34.081 125.382 33.9419 125.307L32.8364 124.712C32.6984 124.638 32.6826 124.524 32.8036 124.46L33.9758 123.829C34.0957 123.764 34.305 123.772 34.4442 123.847L35.5496 124.442C35.6877 124.517 35.7035 124.63 35.5824 124.694Z" fill="#252323"/>
<path d="M38.4458 123.147L37.2737 123.778C37.1537 123.843 36.9433 123.835 36.8052 123.76L35.6998 123.165C35.5618 123.09 35.546 122.977 35.667 122.913L36.8392 122.282C36.9591 122.216 37.1684 122.225 37.3076 122.3L38.4119 122.895C38.5511 122.969 38.5658 123.082 38.4458 123.147" fill="#252323"/>
<path d="M41.3214 121.599L40.1492 122.23C40.0293 122.295 39.8189 122.287 39.6808 122.212L38.5754 121.618C38.4374 121.543 38.4215 121.43 38.5415 121.365L39.7137 120.734C39.8347 120.669 40.044 120.678 40.1832 120.752L41.2875 121.347C41.4266 121.422 41.4414 121.535 41.3214 121.599" fill="#252323"/>
<path d="M44.2052 120.052L43.033 120.683C42.9131 120.747 42.7026 120.74 42.5646 120.665L41.4592 120.07C41.32 119.995 41.3053 119.882 41.4252 119.818L42.5974 119.187C42.7185 119.121 42.9278 119.13 43.0669 119.205L44.1712 119.8C44.3104 119.875 44.3251 119.988 44.2052 120.052" fill="#252323"/>
<path d="M47.0646 118.505L45.8924 119.136C45.7725 119.2 45.5621 119.192 45.4229 119.118L44.3186 118.523C44.1794 118.448 44.1647 118.335 44.2847 118.27L45.4568 117.639C45.5767 117.574 45.7872 117.583 45.9264 117.658L47.0307 118.252C47.1698 118.327 47.1845 118.439 47.0646 118.505Z" fill="#252323"/>
<path d="M32.5515 129.258L31.3793 129.889C31.2594 129.954 31.0501 129.946 30.9109 129.871L29.8055 129.276C29.6675 129.201 29.6516 129.088 29.7727 129.024L30.9449 128.393C31.0648 128.327 31.2741 128.336 31.4133 128.411L32.5187 129.006C32.6567 129.08 32.6714 129.193 32.5515 129.258Z" fill="#252323"/>
<path d="M35.4309 127.71L34.2587 128.342C34.1388 128.407 33.9283 128.398 33.7903 128.323L32.6849 127.729C32.5469 127.654 32.531 127.542 32.6521 127.476L33.8243 126.845C33.9442 126.781 34.1535 126.789 34.2927 126.863L35.3969 127.458C35.5361 127.533 35.5508 127.646 35.4309 127.71" fill="#252323"/>
<path d="M38.3065 126.163L37.1343 126.794C37.0144 126.859 36.8039 126.851 36.6659 126.776L35.5605 126.181C35.4224 126.106 35.4066 125.993 35.5265 125.929L36.6987 125.298C36.8197 125.232 37.0291 125.241 37.1682 125.316L38.2725 125.911C38.4117 125.986 38.4264 126.099 38.3065 126.163" fill="#252323"/>
<path d="M41.1783 124.616L40.0061 125.247C39.8861 125.311 39.6757 125.303 39.5377 125.229L38.4323 124.634C38.2931 124.559 38.2784 124.446 38.3983 124.382L39.5705 123.75C39.6916 123.685 39.9009 123.694 40.04 123.769L41.1443 124.363C41.2835 124.438 41.2982 124.551 41.1783 124.616" fill="#252323"/>
<path d="M44.0536 123.068L42.8815 123.699C42.7615 123.764 42.5511 123.756 42.4119 123.681L41.3076 123.086C41.1684 123.012 41.1538 122.898 41.2737 122.834L42.4458 122.203C42.5658 122.138 42.7762 122.146 42.9154 122.221L44.0197 122.816C44.1589 122.891 44.1735 123.004 44.0536 123.068Z" fill="#252323"/>
<path d="M46.933 121.521L45.7608 122.152C45.6398 122.216 45.4305 122.209 45.2913 122.134L44.187 121.539C44.0478 121.464 44.0331 121.351 44.1531 121.287L45.3252 120.656C45.4452 120.59 45.6556 120.599 45.7937 120.674L46.8991 121.269C47.0382 121.343 47.0529 121.456 46.933 121.521" fill="#252323"/>
<path d="M119.508 165.679L118.336 166.311C118.214 166.376 118.005 166.368 117.866 166.293L116.762 165.697C116.623 165.622 116.608 165.51 116.728 165.445L117.9 164.814C118.02 164.75 118.23 164.757 118.368 164.832L119.474 165.427C119.612 165.502 119.628 165.615 119.508 165.679" fill="#252323"/>
<path d="M122.239 167.148L121.067 167.779C120.947 167.844 120.737 167.836 120.598 167.762L119.493 167.166C119.355 167.091 119.339 166.979 119.46 166.914L120.632 166.283C120.752 166.218 120.962 166.226 121.101 166.301L122.206 166.896C122.344 166.97 122.359 167.084 122.239 167.148Z" fill="#252323"/>
<path d="M119.367 168.696L118.195 169.327C118.075 169.392 117.865 169.384 117.726 169.309L116.622 168.714C116.483 168.64 116.468 168.527 116.588 168.461L117.76 167.83C117.88 167.766 118.091 167.773 118.229 167.848L119.334 168.443C119.472 168.518 119.488 168.631 119.367 168.696Z" fill="#252323"/>
<path d="M124.967 168.618L123.795 169.249C123.675 169.313 123.464 169.305 123.326 169.231L122.221 168.636C122.083 168.561 122.067 168.448 122.187 168.383L123.359 167.752C123.48 167.687 123.69 167.695 123.829 167.77L124.933 168.364C125.072 168.439 125.087 168.552 124.967 168.618" fill="#252323"/>
<path d="M122.095 170.164L120.923 170.795C120.803 170.861 120.593 170.852 120.455 170.778L119.349 170.182C119.211 170.107 119.195 169.995 119.317 169.93L120.489 169.299C120.609 169.235 120.818 169.242 120.957 169.317L122.061 169.912C122.201 169.987 122.215 170.1 122.095 170.164Z" fill="#252323"/>
<path d="M127.85 170.172L126.678 170.803C126.558 170.867 126.348 170.859 126.21 170.785L125.104 170.19C124.966 170.115 124.95 170.002 125.07 169.938L126.243 169.305C126.364 169.241 126.573 169.25 126.712 169.324L127.816 169.919C127.956 169.994 127.97 170.106 127.85 170.172" fill="#252323"/>
<path d="M124.979 171.719L123.807 172.35C123.687 172.415 123.476 172.407 123.338 172.332L122.233 171.737C122.095 171.662 122.079 171.549 122.2 171.485L123.372 170.854C123.492 170.788 123.701 170.797 123.84 170.872L124.945 171.467C125.084 171.542 125.099 171.655 124.979 171.719Z" fill="#252323"/>
<path d="M130.726 168.624L129.554 169.255C129.434 169.32 129.224 169.312 129.086 169.237L127.98 168.642C127.841 168.568 127.826 168.454 127.946 168.39L129.118 167.759C129.239 167.694 129.449 167.702 129.588 167.777L130.692 168.372C130.831 168.447 130.846 168.56 130.726 168.624" fill="#252323"/>
<path d="M133.601 167.077L132.429 167.708C132.309 167.772 132.099 167.765 131.96 167.69L130.855 167.095C130.716 167.02 130.702 166.907 130.822 166.842L131.994 166.211C132.114 166.146 132.324 166.154 132.463 166.229L133.568 166.825C133.707 166.898 133.721 167.011 133.601 167.077Z" fill="#252323"/>
<path d="M136.481 165.529L135.309 166.161C135.189 166.225 134.978 166.217 134.839 166.142L133.735 165.548C133.596 165.473 133.581 165.36 133.701 165.294L134.873 164.663C134.993 164.599 135.203 164.607 135.341 164.681L136.447 165.276C136.586 165.351 136.601 165.464 136.481 165.529" fill="#252323"/>
<path d="M139.344 163.982L138.172 164.613C138.051 164.677 137.842 164.67 137.703 164.595L136.598 164C136.459 163.925 136.444 163.812 136.564 163.747L137.736 163.116C137.856 163.051 138.067 163.059 138.205 163.134L139.31 163.729C139.45 163.804 139.464 163.917 139.344 163.982" fill="#252323"/>
<path d="M130.583 171.64L129.41 172.272C129.29 172.336 129.08 172.328 128.941 172.253L127.837 171.659C127.697 171.584 127.683 171.471 127.803 171.406L128.975 170.774C129.095 170.71 129.305 170.719 129.444 170.792L130.549 171.388C130.688 171.463 130.702 171.575 130.583 171.64Z" fill="#252323"/>
<path d="M133.45 170.093L132.278 170.724C132.157 170.788 131.947 170.781 131.808 170.706L130.704 170.111C130.565 170.036 130.55 169.923 130.67 169.859L131.842 169.228C131.962 169.163 132.173 169.171 132.311 169.246L133.416 169.841C133.555 169.916 133.57 170.029 133.45 170.093" fill="#252323"/>
<path d="M136.333 168.546L135.161 169.177C135.04 169.241 134.831 169.233 134.692 169.159L133.587 168.564C133.448 168.489 133.433 168.376 133.553 168.311L134.725 167.679C134.845 167.615 135.056 167.623 135.194 167.698L136.299 168.292C136.437 168.367 136.453 168.48 136.333 168.546" fill="#252323"/>
<path d="M139.2 166.998L138.027 167.629C137.908 167.694 137.698 167.686 137.559 167.611L136.455 167.016C136.316 166.942 136.301 166.828 136.421 166.763L137.593 166.132C137.713 166.068 137.923 166.075 138.061 166.15L139.167 166.745C139.305 166.82 139.321 166.933 139.2 166.998Z" fill="#252323"/>
<path d="M193.822 62.5755C193.875 62.4183 193.799 62.2537 193.643 62.1756L184.202 57.4236C182.668 56.8073 180.761 56.9677 178.689 58.0831L173.745 60.7456C172.403 61.4685 171.315 63.4081 171.315 65.0776V94.4369C171.315 95.3149 171.62 95.9333 172.101 96.2277L181.172 100.84C181.345 100.928 181.558 100.878 181.661 100.722C182.817 98.9662 189.115 89.3736 188.946 89.2132C188.775 89.0517 193.143 64.6228 193.822 62.5755" fill="#01BBFF"/>
<path d="M182.31 57.6325C181.29 57.6325 180.162 57.948 178.991 58.5791L174.048 61.2405C172.896 61.861 171.923 63.6181 171.923 65.0776V94.4368C171.923 95.0637 172.113 95.5544 172.432 95.7496L181.256 100.235C184.547 95.2336 188.133 89.669 188.352 89.0886L188.366 89.0939C188.389 88.1895 188.83 85.4869 190.456 76.5064C191.508 70.6854 192.75 64.1299 193.176 62.5924L183.906 57.9269C183.414 57.7306 182.879 57.6325 182.31 57.6325V57.6325ZM181.346 101.456C181.186 101.456 181.023 101.419 180.873 101.343L171.802 96.73C171.075 96.2857 170.697 95.4805 170.697 94.4368V65.0776C170.697 63.197 171.9 61.077 173.435 60.2496L178.377 57.5882C180.553 56.4168 182.647 56.1794 184.439 56.898L193.929 61.6722C194.342 61.88 194.541 62.3317 194.403 62.7454C193.725 64.7853 189.565 88.2782 189.55 89.1783H189.539C189.463 89.8516 188.161 91.9316 182.179 101.021C181.996 101.3 181.676 101.456 181.346 101.456" fill="#252323"/>
<path d="M182.538 71.3873L192.224 66.171L177.947 58.4832L173.745 60.7457C172.403 61.4686 171.315 63.4082 171.315 65.0777V65.3426L182.538 71.3873" fill="white"/>
<path d="M171.923 65.0132L182.534 70.7265L190.994 66.1708L177.943 59.1426L174.048 61.2405C172.913 61.8515 171.953 63.5664 171.923 65.0132ZM182.534 72.0467L170.697 65.6727V65.0775C170.697 63.197 171.9 61.0769 173.435 60.2496L177.943 57.8224L193.445 66.1708L182.534 72.0467" fill="#252323"/>
<path d="M194.786 94.611L183.109 100.898C181.767 101.621 180.679 100.854 180.679 99.1847V69.8244C180.679 68.1549 181.767 66.2153 183.109 65.4924L188.053 62.831C193.113 60.1051 197.216 62.9987 197.216 69.2925V90.2791C197.216 91.9486 196.129 93.8882 194.786 94.611" fill="#252323"/>
<path d="M191.683 62.3813C190.649 62.3813 189.514 62.6979 188.348 63.3258L183.404 65.9883C182.252 66.6088 181.28 68.3648 181.28 69.8243V99.1846C181.28 99.842 181.479 100.342 181.813 100.523C182.127 100.692 182.517 100.55 182.791 100.403L194.467 94.115C195.619 93.4945 196.592 91.7374 196.592 90.279V69.2924C196.592 66.193 195.549 63.8545 193.731 62.8752C193.117 62.5449 192.426 62.3813 191.683 62.3813V62.3813ZM182.131 101.744C181.801 101.744 181.486 101.667 181.2 101.514C180.471 101.12 180.053 100.272 180.053 99.1846V69.8243C180.053 67.9448 181.255 65.8247 182.791 64.9974L187.735 62.3349C190.136 61.0422 192.484 60.8817 194.344 61.8843C196.553 63.0736 197.819 65.773 197.819 69.2924V90.279C197.819 92.1585 196.616 94.2785 195.081 95.1059L183.404 101.393C182.971 101.627 182.54 101.744 182.131 101.744" fill="#252323"/>
<path d="M158.696 100.838V74.6016L124.671 71.0727L126.005 88.6591L154.099 100.18L158.696 100.838" fill="#01BBFF"/>
<path d="M154.273 99.626L158.084 100.173V75.1137L125.335 71.7177L126.592 88.2742L154.273 99.626ZM159.312 101.505L153.854 100.703L125.421 89.0435L124.009 70.4292L159.312 74.09V101.505" fill="#252323"/>
<path d="M153.549 85.9427L141.987 79.612L142.608 78.6253L154.169 84.9561L153.549 85.9427" fill="#252323"/>
<path d="M48.3759 104.347C48.041 104.204 47.6031 104.236 47.1189 104.498L42.0398 107.232C41.4843 107.532 40.9537 107.706 40.4604 107.78L41.361 46.7503L37.3964 47.8046V35.3416L33.1241 37.5492V106.939C33.1241 109.69 31.0355 113.066 28.4807 114.441L23.5827 117.079C22.6708 117.57 21.967 118.359 21.6717 119.302C21.3357 120.378 21.5722 121.11 22.0937 121.371L27.7758 124.244C27.8415 124.276 27.9206 124.273 27.9829 124.235L37.926 118.172L52.0859 109.733L54.0987 107.51C54.1824 107.418 54.1542 107.279 54.041 107.221L48.3759 104.347" fill="#01BBFF"/>
<path d="M33.7475 37.8862V106.939C33.7475 109.879 31.5265 113.467 28.7974 114.936L23.8994 117.574C23.1063 118.001 22.5134 118.689 22.2713 119.462C22.0201 120.26 22.1593 120.751 22.3946 120.868L27.8629 123.632L37.6012 117.695L51.6876 109.299L53.3168 107.499L48.1156 104.861C47.9516 104.8 47.706 104.846 47.4356 104.993L42.3566 107.728C41.7581 108.049 41.1573 108.257 40.5678 108.345L39.8482 108.452L39.8572 107.773L40.7465 47.5115L36.7922 48.5625V36.3127L33.7475 37.8862ZM27.8821 124.838C27.7497 124.838 27.6174 124.808 27.4963 124.748L21.8119 121.875C21.1557 121.545 20.6205 120.654 21.0935 119.141C21.4284 118.072 22.2068 117.165 23.2862 116.583L28.1842 113.945C30.5353 112.68 32.521 109.472 32.521 106.939V37.2129L38.0198 34.372V47.0471L41.9957 45.9897L41.095 107.03C41.3089 106.953 41.525 106.855 41.7422 106.738L46.8224 104.002C47.4605 103.659 48.1077 103.597 48.644 103.829L48.6791 103.846L54.3442 106.72C54.5614 106.829 54.7108 107.021 54.756 107.246C54.8024 107.472 54.7368 107.702 54.5784 107.878L52.4253 110.216L38.2664 118.655L28.329 124.713C28.1944 124.797 28.0382 124.838 27.8821 124.838" fill="#252323"/>
<path d="M37.5508 114.734L31.5394 111.537L31.5293 111.53C30.7101 112.749 29.6488 113.81 28.4766 114.441L23.5775 117.079C23.186 117.289 22.9281 117.606 22.6282 117.915L28.2062 120.868L29.9633 121.884L33.7819 120.698L36.7135 118.91L37.5508 114.734" fill="white"/>
<path d="M23.6013 117.774L28.5083 120.371L30.0414 121.257L33.5127 120.179L36.158 118.565L36.8685 115.03L31.7239 112.293C30.8685 113.44 29.84 114.367 28.7832 114.936L23.8841 117.574C23.7834 117.628 23.6906 117.696 23.6013 117.774V117.774ZM29.883 122.512L27.8826 121.354L21.6631 118.062L22.3148 117.383C22.5694 117.113 22.8579 116.806 23.272 116.583L28.17 113.945C29.194 113.394 30.2021 112.429 31.0099 111.226L31.3686 110.691L31.9038 111.077L38.2342 114.439L37.2679 119.255L33.9754 121.24L29.883 122.512" fill="#252323"/>
<path d="M48.375 104.328C48.0401 104.185 47.6023 104.217 47.118 104.479L42.039 107.213C41.4835 107.513 40.9528 107.687 40.4595 107.761L40.1518 108.707L45.9515 111.563L47.333 112.547L52.085 109.714L54.0979 107.491C54.1816 107.399 54.1533 107.26 54.0402 107.202L48.375 104.328" fill="white"/>
<path d="M40.8905 108.421L46.3294 111.109L47.3703 111.849L51.6822 109.279L53.3115 107.48L48.1103 104.842C47.9496 104.78 47.7007 104.828 47.4303 104.974L42.3512 107.708C41.8817 107.96 41.411 108.143 40.946 108.252L40.8905 108.421ZM47.3081 113.243L45.6256 112.047L39.4219 108.992L39.9899 107.252L40.369 107.195C40.8091 107.131 41.2696 106.97 41.7369 106.718L46.817 103.983C47.454 103.64 48.1012 103.579 48.6375 103.809L48.6737 103.826L54.3388 106.699C54.5572 106.811 54.7065 107.003 54.7518 107.23C54.7959 107.455 54.7303 107.685 54.5719 107.859L52.4199 110.196L47.3081 113.243Z" fill="#252323"/>
<path d="M43.1421 107.643V38.2523L38.8709 40.4599V109.851C38.8709 112.612 36.7925 115.971 34.2275 117.352L29.1485 120.087C28.1064 120.648 27.2624 122.013 27.2624 123.135C27.2624 124.256 28.1064 124.711 29.1485 124.15L38.8709 118.914L43.1421 116.708L52.8645 111.472C53.9066 110.911 54.7518 109.547 54.7518 108.424C54.7518 107.302 53.9066 106.847 52.8645 107.409L47.7855 110.144C45.2217 111.524 43.1421 110.405 43.1421 107.643" fill="#252323"/>
<path d="M39.4832 40.7964V109.85C39.4832 112.839 37.3086 116.352 34.5332 117.847L29.4541 120.582C28.5976 121.043 27.8747 122.212 27.8747 123.134C27.8747 123.454 27.9663 123.695 28.1202 123.778C28.2718 123.86 28.5433 123.815 28.8409 123.655L38.5633 118.419L42.8436 116.208L52.5581 110.976C53.4146 110.515 54.1376 109.347 54.1376 108.425C54.1376 108.104 54.0459 107.863 53.8909 107.78C53.7359 107.697 53.4678 107.743 53.1714 107.903L48.0912 110.639C46.6531 111.412 45.2705 111.521 44.1956 110.942C43.1196 110.363 42.5279 109.192 42.5279 107.643V39.223L39.4832 40.7964ZM28.3012 124.96C28.0161 124.96 27.7457 124.897 27.5069 124.769C26.9605 124.475 26.6482 123.878 26.6482 123.134C26.6482 121.81 27.611 120.253 28.8409 119.591L33.9199 116.857C36.3106 115.568 38.2567 112.425 38.2567 109.85V40.1231L43.7544 37.2823V107.643C43.7544 108.766 44.1289 109.586 44.8078 109.952C45.4878 110.318 46.4359 110.208 47.4779 109.648L52.5581 106.914C53.2494 106.541 53.9588 106.496 54.5053 106.79C55.0507 107.085 55.3641 107.68 55.3641 108.425C55.3641 109.749 54.4012 111.305 53.1714 111.967L43.4478 117.203L39.1675 119.415L29.4541 124.646C29.0649 124.855 28.6701 124.96 28.3012 124.96" fill="#252323"/>
<path d="M38.5523 106.546L32.8058 103.205L33.4552 102.234L39.2006 105.575L38.5523 106.546Z" fill="#252323"/>
<path d="M38.5523 92.0751L32.8058 88.734L33.4552 87.7632L39.2006 91.1042L38.5523 92.0751Z" fill="#252323"/>
<path d="M39.7542 61.821L39.2823 61.0591L42.49 59.3316L42.9618 60.0935L39.7542 61.821Z" fill="#01BBFF"/>
<path d="M56.2673 14.373C56.0173 14.2442 55.6756 14.2642 55.2965 14.4679L15.0525 36.1985C14.1326 36.6945 13.2603 37.6083 12.6776 38.69L1.19348 60.0069C0.81897 60.7023 0.614166 61.4294 0.614166 62.0668V66.6974C0.614166 67.0489 0.731831 67.3053 0.920782 67.4594L0.955863 67.4868C0.999989 67.5185 11.3289 72.9743 12.3676 73.5273C12.4049 73.5484 12.4513 73.5357 12.475 73.502L16.3185 67.816C16.3208 67.8108 16.3253 67.8065 16.3287 67.8023L47.2453 38.9665L64.5144 27.0755C64.5201 27.0691 64.5246 27.0628 64.528 27.0554L67.7571 20.539C67.7752 20.5031 67.7605 20.4609 67.7243 20.4409L56.2673 14.373" fill="#01BBFF"/>
<path d="M55.9145 14.8639C55.8501 14.8639 55.7426 14.8892 55.6034 14.9631L15.3581 36.6936C14.5469 37.1316 13.7492 37.9726 13.2254 38.9467L1.74014 60.2636C1.40976 60.8788 1.22759 61.5194 1.22759 62.0671V66.6977C1.22759 66.8845 1.27739 66.991 1.32264 67.029C1.42221 67.0807 4.64568 68.785 7.48785 70.2888C9.4509 71.3272 11.3393 72.3255 12.2274 72.7951L15.8707 67.4237L46.811 38.5626L64.0303 26.6969L66.9947 20.7134L55.97 14.8734C55.9576 14.8671 55.9394 14.8639 55.9145 14.8639V14.8639ZM12.4051 74.11C12.2885 74.11 12.1697 74.0826 12.0611 74.0246C11.5995 73.7776 9.29927 72.5609 6.88365 71.284C0.641508 67.983 0.638121 67.9809 0.583812 67.9419C0.280587 67.6981 0 67.3351 0 66.6977V62.0671C0 61.3452 0.229675 60.5221 0.643782 59.7507L12.129 38.4338C12.766 37.2508 13.7187 36.2557 14.7449 35.7038L54.9902 13.9732C55.5367 13.6788 56.1092 13.6408 56.5618 13.8719L56.5697 13.8751L68.0266 19.9441C68.3434 20.1108 68.4678 20.4823 68.3072 20.7894L64.8767 27.5358L47.6087 39.4268L16.803 68.1677L12.9923 73.8072C12.8599 74.0024 12.6359 74.11 12.4051 74.11" fill="#252323"/>
<path d="M0.920782 67.4594L0.955863 67.4868C0.999989 67.5185 11.3289 72.9743 12.3676 73.5273C12.4049 73.5484 12.4513 73.5357 12.475 73.502L13.6755 71.7259C12.8099 70.2337 12.1401 69.1193 12.1401 69.1193L0.614166 62.9395V66.6974C0.614166 67.0489 0.731831 67.3053 0.920782 67.4594" fill="#252323"/>
<path d="M1.31811 67.0248L1.34074 67.0417C1.4222 67.0808 4.64568 68.785 7.48785 70.2888C9.4509 71.3272 11.3393 72.3255 12.2274 72.7962L12.9651 71.704C12.3587 70.6645 11.8733 69.8488 11.6866 69.5364L1.22759 63.9286V66.6977C1.22759 66.8771 1.27286 66.9837 1.31811 67.0248V67.0248ZM12.4051 74.11C12.2885 74.11 12.1697 74.0826 12.0611 74.0246C11.5995 73.7776 9.29927 72.5609 6.88365 71.284C0.641508 67.983 0.638121 67.9809 0.583812 67.9419L0.515943 67.8901C0.280603 67.6981 0 67.3351 0 66.6977V61.951L12.5918 68.7027L12.6744 68.8399C12.6744 68.8399 13.3453 69.9575 14.2142 71.4539L14.3851 71.7483L12.9923 73.8072C12.8599 74.0024 12.6359 74.11 12.4051 74.11" fill="#252323"/>
<path d="M24.1932 44.7958L65.4488 24.1322L51.3782 16.5721L15.041 36.1984C14.1211 36.6944 13.2488 37.6082 12.6661 38.6899L24.1932 44.7958" fill="white"/>
<path d="M13.5091 38.4727L24.2125 44.1428L64.1986 24.1145L51.3907 17.2319L15.3601 36.6935C14.6824 37.0587 14.0159 37.7045 13.5091 38.4727V38.4727ZM24.1955 45.4493L11.8685 38.9192L12.1298 38.4337C12.7668 37.2507 13.7195 36.2556 14.7457 35.7037L51.3885 15.9117L66.7206 24.1493L24.1955 45.4493" fill="#252323"/>
<path d="M66.8152 44.7961L13.5233 73.5527C12.7551 73.9664 12.1317 73.6308 12.1317 72.8035V68.1739C12.1317 67.5365 12.3365 66.8084 12.711 66.1129L24.1962 44.7961C24.7778 43.7154 25.6501 42.8005 26.5699 42.3056L66.8152 20.575C67.5835 20.1613 68.2058 20.4959 68.2058 21.3243V42.5493C68.2058 43.3767 67.5835 44.3824 66.8152 44.7961Z" fill="#252323"/>
<path d="M67.4474 20.9697C67.3829 20.9697 67.2732 20.9939 67.1329 21.0699L26.8888 42.8005C26.0764 43.2374 25.2787 44.0795 24.7549 45.0535L13.2708 66.3704C12.9393 66.9846 12.756 67.6252 12.756 68.1739V72.8035C12.756 73.0156 12.8182 73.1274 12.8567 73.1485C12.8951 73.1686 13.0298 73.1633 13.2266 73.0567L66.5185 44.3011C67.0967 43.9898 67.6035 43.1709 67.6035 42.5493V21.3242C67.6035 21.1121 67.5414 21.0003 67.5029 20.9792C67.4916 20.9728 67.4734 20.9697 67.4474 20.9697V20.9697ZM12.9098 74.3009C12.6711 74.3009 12.4448 74.2471 12.2434 74.1384C11.7897 73.8946 11.5295 73.4081 11.5295 72.8035V68.1739C11.5295 67.45 11.7592 66.6268 12.1744 65.8565L23.6585 44.5385C24.2955 43.3566 25.2493 42.3625 26.2744 41.8106L66.5185 20.0801C67.0797 19.7772 67.6624 19.7445 68.115 19.9882C68.5698 20.2331 68.8301 20.7195 68.8301 21.3242V42.5493C68.8301 43.574 68.0844 44.7781 67.1329 45.291L13.841 74.0476C13.5288 74.2154 13.2097 74.3009 12.9098 74.3009" fill="#252323"/>
<path d="M12.6127 72.8034H11.6691V69.3378H12.6127V72.8034Z" fill="#01BBFF"/>
<path d="M13.1252 65.7097L1.59921 59.6028L2.20568 58.6087L13.7305 64.7156L13.1252 65.7097" fill="#252323"/>
<path d="M21.7513 49.7338L10.2254 43.6268L10.8318 42.6328L22.3578 48.7397L21.7513 49.7338Z" fill="#252323"/>
<path d="M169.898 110.32C169.897 110.299 169.898 107.279 169.898 107.279C169.898 107.193 169.831 107.12 169.741 107.106L163.094 106.076C163.073 106.073 163.052 106.065 163.032 106.055L58.269 49.5248C57.236 48.9676 55.6724 48.9075 54.7774 49.3897L27.0651 64.4582C27.047 64.4677 27.0266 64.4751 27.0051 64.4783L19.5003 65.7721C19.4109 65.7868 19.3464 65.8596 19.3464 65.9441V68.9168V69.0002C19.3374 69.3854 19.4935 69.8254 20.1656 70.1884L130.948 129.96C131.982 130.516 133.545 130.577 134.44 130.095L169.303 111.177C169.725 110.949 169.915 110.641 169.898 110.321V110.32" fill="#01BBFF"/>
<path d="M19.9588 66.2742L19.9577 69.0138C19.9532 69.2101 20.0109 69.4454 20.4703 69.6934L131.254 129.465C132.087 129.914 133.432 129.977 134.131 129.6L168.992 110.682C169.105 110.621 169.292 110.498 169.284 110.349V110.343C169.283 110.328 169.282 110.312 169.283 107.615L162.879 106.622L162.717 106.546L57.9604 50.0196C57.1288 49.57 55.7824 49.5057 55.0821 49.8845L27.277 65.0037L27.1084 65.0416L19.9588 66.2742ZM132.917 130.99C132.125 130.991 131.299 130.809 130.64 130.455L19.857 70.6832C18.9055 70.1714 18.7211 69.4781 18.7324 68.9874V65.9439C18.7324 65.583 19.0084 65.2738 19.3886 65.2094L26.8188 63.9283L54.4666 48.8957C55.5493 48.3121 57.354 48.3712 58.5737 49.0297L163.271 105.524L169.839 106.542C170.226 106.601 170.509 106.91 170.509 107.279C170.509 107.279 170.508 110.113 170.509 110.305C170.533 110.852 170.206 111.349 169.607 111.672L134.747 130.589C134.248 130.858 133.595 130.99 132.917 130.99" fill="#252323"/>
<path d="M21.5497 65.3543L19.4644 65.7131C19.3751 65.7289 19.3105 65.8007 19.3105 65.8851V68.8589V68.9423C19.3015 69.3275 19.4565 69.7675 20.1297 70.1295L21.5497 70.8946V65.3543Z" fill="#252323"/>
<path d="M132.786 130.419C133.401 130.436 133.995 130.333 134.43 130.097L169.293 111.179C169.715 110.951 169.905 110.643 169.888 110.323C169.887 110.301 169.888 107.281 169.888 107.281C169.888 107.195 169.822 107.123 169.731 107.108L163.085 106.078C163.064 106.075 163.042 106.067 163.023 106.057L138.872 93.0524L132.786 87.5385V130.419Z" fill="#252323"/>
<path d="M169.302 108.05L134.439 126.969C133.544 127.451 131.981 127.39 130.947 126.834L20.1646 67.0616C19.1316 66.5054 19.0195 65.6633 19.9145 65.1821L54.7764 46.2628C55.6713 45.7816 57.235 45.8418 58.268 46.3979L169.051 106.171C170.085 106.727 170.197 107.569 169.302 108.05Z" fill="white"/>
<path d="M56.2795 46.5121C55.8202 46.5121 55.3857 46.5922 55.0779 46.759L20.2172 65.6761C20.1255 65.7247 19.9174 65.8524 19.9174 65.998C19.9174 66.1246 20.061 66.3484 20.4661 66.5668L131.25 126.34C132.082 126.788 133.429 126.851 134.127 126.474L168.99 107.555C169.079 107.508 169.288 107.38 169.288 107.235C169.288 107.108 169.144 106.883 168.74 106.666L57.9563 46.893C57.4901 46.6418 56.8633 46.5121 56.2795 46.5121V46.5121ZM132.913 127.864C132.121 127.864 131.294 127.684 130.635 127.329L19.8529 67.5567C19.114 67.1599 18.692 66.5911 18.692 65.998C18.692 65.4767 19.0235 64.9986 19.6017 64.6863L54.4624 45.7691C55.5452 45.1866 57.3499 45.2457 58.5696 45.9032L169.353 105.676C170.091 106.073 170.514 106.64 170.514 107.235C170.514 107.756 170.181 108.234 169.603 108.546L134.742 127.463C134.244 127.733 133.591 127.864 132.913 127.864" fill="#252323"/>
<path d="M126.104 160.662L125.46 159.688L138.78 152.037C140.774 150.916 143.246 150.917 145.237 152.037L148.198 153.914C149.764 154.794 151.747 154.797 153.345 153.905L157.889 151.365C163.272 148.358 170.005 148.277 175.464 151.159L184.413 155.845C185.072 156.192 185.854 156.187 186.505 155.833C187.158 155.478 187.546 154.846 187.546 154.142V98.1727H188.773V154.142C188.773 155.258 188.156 156.259 187.124 156.822C186.089 157.383 184.852 157.391 183.811 156.841L174.861 152.155C169.784 149.476 163.523 149.548 158.52 152.346L153.975 154.886C151.985 155.997 149.518 155.992 147.536 154.876L144.575 152.999C143.005 152.118 141.019 152.114 139.418 153.013L126.104 160.662" fill="#252323"/>
<path d="M188.79 140.068H187.562V135.846C187.562 133.687 188.248 131.601 189.545 129.813C190.703 128.215 191.315 126.35 191.315 124.422V96.1517H192.543V124.422C192.543 126.579 191.857 128.665 190.561 130.454C189.401 132.052 188.79 133.916 188.79 135.846V140.068Z" fill="#252323"/>
<path d="M188.785 150.935H187.557V148.665C187.557 146.941 186.981 145.295 185.89 143.903C184.644 142.314 183.985 140.434 183.985 138.466V98.6159H185.213V138.466C185.213 140.19 185.789 141.836 186.879 143.227C188.126 144.816 188.785 146.697 188.785 148.665V150.935" fill="#252323"/>
<path d="M137.686 156.726L132.051 156.242C132.042 156.241 132.033 156.239 132.024 156.235L130.666 156.234C129.039 155.358 128.408 155.535 126.999 156.294L125.698 156.997L125.493 156.991L118.472 158.094C118.441 158.1 118.417 158.125 118.417 158.155L118.409 161.668C118.409 162.313 118.809 162.86 119.756 163.37L123.663 165.456C125.29 166.332 127.751 166.427 129.16 165.668L136.798 161.553C137.401 161.229 137.712 160.799 137.745 160.346V156.786C137.745 156.754 137.719 156.728 137.686 156.726" fill="#01BBFF"/>
<path d="M119.028 158.586L119.023 161.667C119.023 161.968 119.14 162.379 120.061 162.875L123.966 164.959C125.4 165.731 127.635 165.826 128.853 165.173L136.491 161.057C136.769 160.907 137.107 160.655 137.131 160.308L137.13 157.252L131.931 156.807H130.501L130.359 156.73C128.944 155.969 128.559 156.114 127.305 156.789L125.853 157.573L125.534 157.563L119.028 158.586ZM126.765 166.753C125.582 166.753 124.342 166.483 123.355 165.952L119.449 163.867C118.336 163.266 117.795 162.547 117.795 161.667L117.804 157.673L118.364 157.531L125.452 156.417L125.542 156.419L126.691 155.799C128.181 154.998 129.041 154.737 130.826 155.662L132.22 155.683L138.298 156.199L138.357 156.786V160.346C138.306 161.048 137.862 161.64 137.104 162.047L129.466 166.163C128.731 166.559 127.768 166.753 126.765 166.753" fill="#252323"/>
<path d="M126.605 166.173C127.56 166.196 128.482 166.033 129.16 165.668L135.2 162.366V156.794L132.05 156.242C132.041 156.241 132.032 156.239 132.023 156.234L131.871 157.462L126.605 156.762V166.173" fill="#252323"/>
<path d="M127.217 157.421V165.589C127.86 165.544 128.426 165.402 128.851 165.173L134.585 162.039V157.269L132.554 156.913L132.405 158.11L127.217 157.421ZM126.774 166.747C126.713 166.747 126.65 166.746 126.588 166.744L125.991 166.731V156.103L131.332 156.813L131.518 155.32L132.246 155.698L135.812 156.32V162.694L129.468 166.162C128.762 166.542 127.811 166.747 126.774 166.747" fill="#252323"/>
<path d="M132.497 153.017L136.404 155.102C138.031 155.978 138.207 157.304 136.797 158.062L129.16 162.178C127.75 162.937 125.29 162.842 123.663 161.966L119.756 159.88C118.129 159.004 117.951 157.678 119.361 156.92L126.999 152.804C128.408 152.045 130.87 152.14 132.497 153.017Z" fill="#01BBFF"/>
<path d="M129.378 152.864C128.591 152.864 127.847 153.008 127.305 153.299L119.667 157.414C119.372 157.573 119.022 157.839 119.022 158.205C119.022 158.593 119.41 159.035 120.061 159.385L123.966 161.469C125.4 162.242 127.635 162.337 128.853 161.683L136.491 157.568C136.784 157.409 137.135 157.143 137.135 156.777C137.135 156.389 136.747 155.948 136.095 155.597L132.189 153.512C131.396 153.085 130.355 152.864 129.378 152.864V152.864ZM126.765 163.263C125.582 163.263 124.342 162.993 123.355 162.462L119.449 160.377C118.398 159.809 117.795 159.019 117.795 158.206C117.795 157.494 118.241 156.862 119.053 156.425L126.692 152.309C128.294 151.445 130.975 151.538 132.8 152.521L136.707 154.605C137.759 155.172 138.361 155.964 138.361 156.777C138.361 157.489 137.914 158.122 137.104 158.558L129.466 162.673C128.731 163.069 127.768 163.263 126.765 163.263" fill="#252323"/>
<path d="M124.243 165.341H123.016V161.851H124.243V165.341Z" fill="#252323"/>
<path d="M128.078 156.781C127.646 156.781 127.215 156.867 126.902 157.035C126.689 157.151 126.594 157.27 126.594 157.339C126.594 157.407 126.689 157.526 126.902 157.64C127.528 157.978 128.627 157.978 129.254 157.64C129.467 157.526 129.562 157.407 129.562 157.339C129.562 157.27 129.467 157.151 129.254 157.036V157.035C128.94 156.867 128.509 156.781 128.078 156.781V156.781ZM128.078 159.036C127.435 159.036 126.791 158.902 126.288 158.631C125.703 158.317 125.369 157.845 125.369 157.339C125.369 156.831 125.703 156.36 126.288 156.045C127.293 155.504 128.864 155.504 129.867 156.046V156.045C130.452 156.36 130.788 156.831 130.788 157.339C130.788 157.845 130.452 158.317 129.867 158.631C129.365 158.902 128.721 159.036 128.078 159.036Z" fill="white"/>
<path d="M188.985 96.9411H188.041V80.6696H188.985V96.9411Z" fill="#01BBFF"/>
<path d="M190.803 82.1163L186.97 84.1794C186.119 84.6384 185.429 84.1519 185.429 83.0935V79.4791C185.429 78.4206 186.119 77.1912 186.97 76.7322L190.803 74.6691C191.654 74.21 192.344 74.6965 192.344 75.755V79.3693C192.344 80.4278 191.654 81.6572 190.803 82.1163" fill="#252323"/>
<path d="M191.416 74.9362C191.277 74.9362 191.13 75.0016 191.04 75.0502L187.207 77.1133C186.499 77.4953 185.902 78.578 185.902 79.4792V83.0936C185.902 83.5516 186.054 83.7975 186.198 83.8745C186.37 83.9674 186.608 83.8661 186.736 83.7985L190.568 81.7344C191.276 81.3534 191.873 80.2707 191.873 79.3695V75.7551C191.873 75.2971 191.721 75.0512 191.577 74.9742C191.527 74.9478 191.472 74.9362 191.416 74.9362ZM186.358 84.7926C186.135 84.7926 185.921 84.7409 185.726 84.6364C185.239 84.3737 184.958 83.8112 184.958 83.0936V79.4792C184.958 78.2625 185.739 76.8885 186.736 76.3513L190.568 74.2882C191.089 74.0065 191.614 73.978 192.049 74.2123C192.536 74.475 192.817 75.0375 192.817 75.7551V79.3695C192.817 80.5862 192.036 81.9602 191.04 82.4973L187.207 84.5604C186.92 84.7156 186.632 84.7926 186.358 84.7926" fill="#01BBFF"/>
<path d="M191.549 82.6083L187.715 84.6724C186.865 85.1304 186.174 84.6439 186.174 83.5855V79.9711C186.174 78.9127 186.865 77.6833 187.715 77.2253L191.549 75.1611C192.4 74.7031 193.09 75.1896 193.09 76.2481V79.8624C193.09 80.9209 192.4 82.1503 191.549 82.6083Z" fill="#252323"/>
<path d="M192.158 75.4291C192.019 75.4291 191.872 75.4935 191.781 75.542L187.949 77.6062C187.241 77.9871 186.644 79.0699 186.644 79.9711V83.5855C186.644 84.0445 186.797 84.2904 186.94 84.3674C187.11 84.4582 187.35 84.36 187.477 84.2914L191.311 82.2273C192.018 81.8463 192.615 80.7636 192.615 79.8624V76.248C192.615 75.789 192.462 75.5441 192.319 75.466C192.269 75.4397 192.214 75.4291 192.158 75.4291V75.4291ZM187.101 85.2855C186.877 85.2855 186.663 85.2338 186.468 85.1293C185.98 84.8666 185.7 84.303 185.7 83.5855V79.9711C185.7 78.7543 186.481 77.3803 187.477 76.8443L191.311 74.7801C191.831 74.4994 192.357 74.4709 192.791 74.7052C193.278 74.9679 193.559 75.5304 193.559 76.248V79.8624C193.559 81.0791 192.778 82.4531 191.781 82.9892L187.949 85.0534C187.662 85.2085 187.373 85.2855 187.101 85.2855" fill="#01BBFF"/>
<path d="M191.449 95.5417L191.431 82.2852L192.374 82.2841L192.391 95.5407L191.449 95.5417Z" fill="#01BBFF"/>
<path d="M185.072 99.1298H184.129V96.7965C184.129 94.8484 184.865 92.95 186.201 91.4515C187.398 90.1113 188.057 88.4133 188.057 86.67L188.058 84.2375H189.002L189.001 86.67C189.001 88.618 188.264 90.5165 186.928 92.0139C185.731 93.3552 185.072 95.0532 185.072 96.7965V99.1298Z" fill="#01BBFF"/>
<path d="M137.205 91.6437L118.832 101.773L60.2316 70.1685L78.6039 60.0388L137.205 91.6437Z" fill="#01BBFF"/>
<path d="M61.4536 70.1622L118.834 101.111L135.995 91.649L78.6141 60.7015L61.4536 70.1622ZM118.841 102.435L59.0233 70.1738L78.6062 59.3761L138.424 91.6384L118.841 102.435" fill="#252323"/>
<path d="M133.9 82.6302L94.9417 61.536L66.6444 76.7734L105.604 97.8676L133.9 82.6302Z" fill="#252323"/>
<path d="M67.8623 76.7745L105.599 97.207L132.672 82.6293L94.9353 62.1967L67.8623 76.7745ZM105.598 98.5283L65.4161 76.7724L94.9365 60.8755L135.118 82.6314L105.598 98.5283" fill="#252323"/>
<path d="M116.553 89.914L86.7761 73.919L87.2479 73.157L117.024 89.1521L116.553 89.914Z" fill="#01BBFF"/>
<path d="M49.0672 36.6903C47.6891 35.7658 45.3481 36.2998 42.9733 38.8515C41.4051 40.5368 40.492 42.7044 40.5361 44.9342C40.5622 46.3209 40.9604 47.0986 41.8712 47.6579L42.0217 47.7571L147.216 104.239C147.303 104.286 147.414 104.257 147.463 104.176L154.08 93.2771C154.129 93.1958 154.1 93.0935 154.013 93.0481L49.0672 36.6903" fill="#01BBFF"/>
<path d="M47.5926 36.8477C46.4997 36.8477 45.0141 37.5252 43.4323 39.2263C41.9162 40.8536 41.1038 42.8766 41.1434 44.9249C41.1706 46.2778 41.5689 46.7907 42.2036 47.1811L42.371 47.2898L147.14 103.541L153.33 93.3438L48.7048 37.1558C48.4107 36.9585 48.0328 36.8477 47.5926 36.8477V36.8477ZM147.301 104.834C147.163 104.834 147.028 104.801 146.906 104.736L41.7114 48.2533L41.5134 48.1256C40.4295 47.4608 39.9475 46.5068 39.9181 44.945C39.8728 42.6149 40.7916 40.3175 42.5057 38.4771C45.3999 35.3661 48.0158 35.3091 49.395 36.2093L154.314 92.5523C154.691 92.7518 154.825 93.2045 154.609 93.5591L147.992 104.458C147.884 104.632 147.715 104.756 147.509 104.807C147.44 104.825 147.37 104.834 147.301 104.834Z" fill="#252323"/>
<path d="M72.8591 57.3477L150.527 99.1298L154.08 93.2771C154.129 93.1959 154.1 93.0935 154.014 93.0481L49.0672 36.6904C47.6891 35.7659 45.3482 36.2999 42.9733 38.8516C42.4992 39.3602 42.0942 39.9174 41.7479 40.5031C41.7423 40.5369 41.7378 40.5728 41.7231 40.597L58.2782 49.5026L72.8591 57.3477" fill="white"/>
<path d="M150.753 99.9139L72.55 57.8426L73.1633 56.8517L150.295 98.3468L153.332 93.3437L48.7593 37.1864C47.681 36.4677 45.6546 36.8413 43.4347 39.2263C43.1111 39.5735 42.8102 39.9576 42.5352 40.3755L58.5824 49.0077L57.9681 49.9987L40.8935 40.8124L41.2092 40.2277C41.5894 39.5829 42.0272 38.993 42.5081 38.477C45.4227 35.3459 48.0544 35.309 49.4234 36.2271L154.317 92.5522C154.692 92.7517 154.826 93.2033 154.612 93.5579L150.753 99.9139" fill="#252323"/>
<path d="M61.432 51.2005L69.7526 55.6771L61.432 51.2005Z" fill="white"/>
<path d="M69.4455 56.1721L61.1249 51.6955L61.7382 50.7046L70.0588 55.1822L69.4455 56.1721Z" fill="#252323"/>
<path d="M41.8703 47.5958L42.0208 47.695L147.215 104.176C147.301 104.223 147.412 104.195 147.462 104.114L148.6 102.239L146.077 101.392L40.7819 45.004C40.8079 46.3907 40.9584 47.0365 41.8703 47.5958" fill="#252323"/>
<path d="M41.4693 46.0317C41.5643 46.591 41.7714 46.8506 42.207 47.1176L42.3722 47.2263L147.142 103.478L147.708 102.547L145.771 101.888L41.4693 46.0317ZM147.303 104.771C147.166 104.771 147.029 104.738 146.907 104.671L41.7148 48.1908L41.5281 48.0716C40.3051 47.3181 40.193 46.3293 40.1682 45.0144L40.1478 44.0055L146.333 100.871L149.491 101.929L147.994 104.396C147.888 104.57 147.716 104.693 147.51 104.745C147.442 104.763 147.372 104.771 147.303 104.771" fill="#252323"/>
<path d="M155.852 96.1921C155.852 99.0994 153.664 102.634 150.965 104.087C148.267 105.54 146.079 104.362 146.079 101.456C146.079 98.5485 148.267 95.0144 150.965 93.5612C153.664 92.1081 155.852 93.2858 155.852 96.1921Z" fill="#01BBFF"/>
<path d="M153.139 93.5084C152.579 93.5084 151.941 93.693 151.267 94.056C148.742 95.4163 146.687 98.7352 146.687 101.456C146.687 102.648 147.086 103.52 147.812 103.91C148.538 104.303 149.546 104.187 150.654 103.592C153.179 102.231 155.233 98.9125 155.233 96.192C155.233 94.9995 154.834 94.1278 154.108 93.7374C153.825 93.5843 153.498 93.5084 153.139 93.5084ZM148.777 105.283C148.205 105.283 147.672 105.157 147.198 104.901C146.077 104.298 145.46 103.073 145.46 101.456C145.46 98.3184 147.741 94.6343 150.654 93.0662C152.158 92.2568 153.602 92.1428 154.721 92.7464C155.842 93.3501 156.46 94.5742 156.46 96.192C156.46 99.3283 154.179 103.013 151.267 104.581C150.4 105.048 149.553 105.283 148.777 105.283" fill="#252323"/>
<path d="M46.1837 50.4733C46.1837 50.4733 43.1899 48.8956 41.7824 48.1379C40.1656 47.2694 40.1022 45.6073 40.0999 45.5377L41.0435 45.5155L40.5717 45.526L41.0435 45.5134C41.0447 45.564 41.1035 46.7576 42.253 47.376C43.6583 48.1316 46.6476 49.7082 46.6476 49.7082L46.1837 50.4733" fill="#01BBFF"/>
<path d="M89.8006 0.69966C89.3356 0.487547 88.719 0.530828 88.0345 0.899125L75.2639 7.77539C64.651 13.4908 55.9684 27.5178 55.9684 38.9476V41.7726C55.9684 42.4501 56.1992 42.9387 56.5703 43.2247L139.224 87.5079C139.338 87.5691 139.484 87.5375 139.558 87.4362L162.217 56.2101C162.23 56.1932 162.244 56.1784 162.26 56.1647L170.86 49.1871C170.891 49.1618 170.915 49.1312 170.929 49.0953L172.557 45.2235C172.603 45.1148 172.556 44.9924 172.449 44.9343L89.8006 0.69966" fill="#01BBFF"/>
<path d="M56.9389 42.7562L139.25 86.8557L161.767 55.827L161.872 55.731L170.402 48.8094L171.884 45.2857L89.5277 1.20622C89.2301 1.07958 88.8138 1.14607 88.3533 1.39406L75.5816 8.27138C65.1113 13.9087 56.5927 27.6708 56.5927 38.9476V41.7727C56.5927 42.2138 56.7149 42.562 56.9389 42.7562V42.7562ZM139.356 88.1094C139.211 88.1094 139.064 88.0757 138.931 88.0039L56.191 43.6648C55.8143 43.3746 55.3662 42.8111 55.3662 41.7727V38.9476C55.3662 27.3067 64.1597 13.1004 74.9684 7.28048L87.74 0.403128C88.5728 -0.0453703 89.4044 -0.122387 90.081 0.185758L90.1172 0.20369L172.765 44.4373C173.139 44.6388 173.297 45.0557 173.14 45.4303L171.512 49.3053C171.459 49.4288 171.374 49.5407 171.265 49.6251L162.709 56.5679L140.077 87.757C139.911 87.9849 139.636 88.1094 139.356 88.1094Z" fill="#252323"/>
<path d="M162.304 56.2279L170.098 49.9036L167.877 46.7852L85.1939 2.51363L75.3074 7.83865C70.5407 10.4051 66.1722 14.6548 62.796 19.5872L145.414 63.8387L156.315 64.4666L162.261 56.2733C162.273 56.2565 162.287 56.2406 162.304 56.2279" fill="white"/>
<path d="M145.606 63.2763L156.015 63.8757L161.914 55.7964L169.302 49.8013L167.459 47.2137L85.2077 3.17428L75.6267 8.33361C71.2956 10.6648 67.0696 14.5788 63.6753 19.391L145.606 63.2763ZM156.639 65.0576L145.245 64.4012L61.9465 19.7846L62.2915 19.2791C65.8476 14.0849 70.3655 9.84583 75.0135 7.34268L85.2054 1.85411L85.512 2.01874L168.321 46.3568L170.92 50.0049L162.754 56.6301L156.639 65.0576" fill="#252323"/>
<path d="M146.669 71.858L128.918 62.3498L129.528 61.3589L147.279 70.866L146.669 71.858" fill="#252323"/>
<path d="M125.706 60.6328L113.197 53.9327L113.807 52.9418L126.316 59.6418L125.706 60.6328Z" fill="#252323"/>
<path d="M110.377 52.4246L64.0402 27.6063L64.6501 26.6143L110.987 51.4326L110.377 52.4246Z" fill="#252323"/>
<path d="M138.71 81.3259L56.0442 37.0185C56.0057 37.5725 55.9684 38.1276 55.9684 38.671V41.4961C55.9684 42.1736 56.1992 42.6622 56.5703 42.9481L139.224 87.2313C139.338 87.2925 139.484 87.2619 139.558 87.1595L140.518 85.8362L138.71 81.3259" fill="#252323"/>
<path d="M138.669 83.079V86.0381C138.669 87.5925 139.839 88.2215 141.281 87.4448L156.091 79.471C157.533 78.6933 158.702 79.3233 158.702 80.8766V101.351C158.702 102.905 159.872 103.535 161.314 102.758L170.736 97.6843C172.179 96.9076 173.347 95.0186 173.347 93.4652V46.5712C173.347 45.0179 172.179 44.3879 170.736 45.1646L157.84 52.1094C147.252 57.8112 138.669 71.6766 138.669 83.079" fill="#252323"/>
<path d="M157.257 78.5634C157.61 78.5634 157.944 78.6436 158.243 78.804C158.933 79.1765 159.315 79.9131 159.315 80.8777V101.351C159.315 101.882 159.482 102.277 159.772 102.433C160.066 102.591 160.515 102.528 161.006 102.262L170.428 97.1893C171.677 96.516 172.734 94.8096 172.734 93.4641V46.5712C172.734 46.0414 172.567 45.6468 172.276 45.4895C171.985 45.3323 171.534 45.3956 171.042 45.6605L158.145 52.6043C147.744 58.2058 139.282 71.876 139.282 83.079V86.0391C139.282 86.5688 139.448 86.9635 139.74 87.1208C140.032 87.278 140.481 87.2157 140.974 86.9498L155.782 78.975C156.291 78.7016 156.792 78.5634 157.257 78.5634V78.5634ZM160.146 103.665C159.791 103.665 159.459 103.584 159.16 103.424C158.469 103.051 158.088 102.316 158.088 101.351V80.8777C158.088 80.3468 157.921 79.9522 157.63 79.7949C157.34 79.6377 156.888 79.701 156.395 79.9659L141.587 87.9407C140.691 88.423 139.817 88.4831 139.127 88.1106C138.436 87.7392 138.055 87.0036 138.055 86.0391V83.079C138.055 71.5119 146.793 57.3974 157.531 51.6144L170.428 44.6696C171.323 44.1884 172.198 44.1272 172.888 44.4986C173.579 44.8711 173.961 45.6077 173.961 46.5712V93.4641C173.961 95.2264 172.679 97.298 171.042 98.1802L161.62 103.253C161.111 103.527 160.61 103.665 160.146 103.665" fill="#252323"/>
<path d="M139.138 86.0401L138.194 86.0369L138.205 82.4352L139.148 82.4373L139.138 86.0401Z" fill="#01BBFF"/>
<path d="M167.216 57.795C167.081 57.7708 166.958 57.7518 166.958 57.7518C166.395 57.698 165.678 57.9776 164.913 58.7997C164.484 59.2598 164.159 59.8043 163.979 60.389C163.686 61.3377 163.804 62.0352 164.156 62.4246C164.156 62.4246 164.865 63.3818 166.446 63.7258C166.521 63.7416 166.604 63.711 166.645 63.6509L168.997 60.1631L169.098 58.9073C169.101 58.8609 169.09 58.8208 169.056 58.787C168.875 58.6055 168.27 57.9934 167.216 57.795" fill="#01BBFF"/>
<path d="M166.81 58.1822C166.534 58.1822 165.987 58.3163 165.269 59.0887C164.88 59.5045 164.59 59.9973 164.432 60.5113C164.21 61.2289 164.242 61.8378 164.515 62.1417C164.564 62.2029 165.125 62.9247 166.357 63.2508L168.535 60.0216L168.618 58.9948C168.386 58.7764 167.897 58.3733 167.127 58.2266L166.879 58.1854C166.859 58.1833 166.835 58.1822 166.81 58.1822ZM166.488 64.171C166.438 64.171 166.388 64.1647 166.338 64.1541C164.6 63.7764 163.802 62.72 163.768 62.6746C163.303 62.1649 163.206 61.2975 163.525 60.2675C163.722 59.6312 164.079 59.0244 164.556 58.5115C165.568 57.4256 166.442 57.261 167.006 57.3137L167.31 57.3633C168.103 57.5132 168.806 57.8899 169.398 58.4841C169.523 58.6107 169.581 58.7701 169.568 58.94L169.458 60.3055L167.043 63.885C166.92 64.0655 166.709 64.171 166.488 64.171" fill="#01BBFF"/>
<path d="M169.758 60.1189C169.758 61.3631 168.822 62.8753 167.667 63.4969C166.513 64.1184 165.576 63.6151 165.576 62.3709C165.576 61.1277 166.513 59.6155 167.667 58.9929C168.822 58.3713 169.758 58.8757 169.758 60.1189Z" fill="#252323"/>
<path d="M168.602 59.1668C168.399 59.1668 168.159 59.2375 167.905 59.3736C166.899 59.915 166.049 61.288 166.049 62.3707C166.049 62.8023 166.186 63.1231 166.426 63.2518C166.667 63.3827 167.032 63.331 167.433 63.1157C168.439 62.5733 169.289 61.2014 169.289 60.1187C169.289 59.6881 169.151 59.3663 168.912 59.2375C168.824 59.19 168.719 59.1668 168.602 59.1668ZM166.734 64.2048C166.454 64.2048 166.191 64.1414 165.954 64.0138C165.408 63.7193 165.106 63.1358 165.106 62.3707C165.106 60.965 166.128 59.3146 167.433 58.6117C168.144 58.2276 168.836 58.1812 169.384 58.4756C169.93 58.77 170.231 59.3536 170.231 60.1187C170.231 61.5233 169.209 63.1748 167.905 63.8776C167.501 64.095 167.103 64.2048 166.734 64.2048" fill="#01BBFF"/>
<path d="M167.216 66.0761C167.081 66.0529 166.958 66.0329 166.958 66.0329C166.395 65.9801 165.678 66.2597 164.913 67.0818C164.484 67.5409 164.159 68.0854 163.979 68.6711C163.686 69.6187 163.804 70.3163 164.156 70.7067C164.156 70.7067 164.865 71.6639 166.446 72.0079C166.521 72.0237 166.604 71.9931 166.645 71.9319L168.997 68.4452L169.098 67.1884C169.101 67.143 169.09 67.1019 169.056 67.0692C168.875 66.8877 168.27 66.2756 167.216 66.0761" fill="#01BBFF"/>
<path d="M166.81 66.4644C166.533 66.4644 165.986 66.5984 165.269 67.3698C164.88 67.7866 164.59 68.2784 164.432 68.7923C164.21 69.5099 164.242 70.1199 164.515 70.4228C164.564 70.484 165.125 71.2058 166.357 71.5319L168.535 68.3027L168.618 67.277C168.386 67.0575 167.897 66.6543 167.127 66.5076L166.88 66.4675C166.86 66.4654 166.836 66.4644 166.81 66.4644V66.4644ZM166.488 72.4521C166.438 72.4521 166.388 72.4468 166.338 72.4352C164.6 72.0585 163.802 71.0011 163.768 70.9567C163.303 70.446 163.206 69.5796 163.525 68.5486C163.722 67.9122 164.079 67.3054 164.556 66.7926C165.567 65.7067 166.442 65.5431 167.006 65.5959L167.31 65.6455C168.103 65.7953 168.805 66.1721 169.398 66.7651C169.523 66.8918 169.581 67.0522 169.568 67.221L169.458 68.5866L167.043 72.1661C166.92 72.3466 166.709 72.4521 166.488 72.4521" fill="#01BBFF"/>
<path d="M169.758 68.4008C169.758 69.6439 168.822 71.1561 167.667 71.7777C166.513 72.4003 165.576 71.8959 165.576 70.6517C165.576 69.4086 166.513 67.8964 167.667 67.2748C168.822 66.6532 169.758 67.1566 169.758 68.4008Z" fill="#252323"/>
<path d="M168.602 67.4488C168.399 67.4488 168.159 67.5185 167.905 67.6556C166.899 68.197 166.049 69.5689 166.049 70.6527C166.049 71.0832 166.186 71.4051 166.426 71.5338C166.667 71.6636 167.032 71.613 167.433 71.3967C168.439 70.8553 169.289 69.4824 169.289 68.4007C169.289 67.9691 169.151 67.6472 168.912 67.5185C168.824 67.472 168.719 67.4488 168.602 67.4488ZM166.734 72.4857C166.454 72.4857 166.191 72.4224 165.954 72.2958C165.408 72.0013 165.106 71.4178 165.106 70.6527C165.106 69.247 166.128 67.5966 167.433 66.8937C168.144 66.5096 168.838 66.4611 169.384 66.7576C169.93 67.051 170.231 67.6356 170.231 68.4007C170.231 69.8053 169.21 71.4558 167.905 72.1596C167.501 72.377 167.103 72.4857 166.734 72.4857" fill="#01BBFF"/>
<path d="M32.1708 51.6227C30.7916 50.6972 28.4518 51.2312 26.0758 53.7829C24.5076 55.4671 23.5957 57.6358 23.6387 59.8667C23.6658 61.2523 24.063 62.03 24.9749 62.5904L25.1254 62.6885L130.319 119.171C130.406 119.217 130.517 119.189 130.565 119.108L137.183 108.208C137.232 108.127 137.202 108.025 137.116 107.979L32.1708 51.6227Z" fill="#01BBFF"/>
<path d="M30.7083 51.7789C29.6142 51.7789 28.1286 52.4574 26.5458 54.1575C25.0319 55.7848 24.2195 57.8088 24.2591 59.8561C24.2851 61.209 24.6845 61.7229 25.3193 62.1123L25.4856 62.221L130.255 118.472L136.446 108.275L31.8194 52.087C31.5252 51.8886 31.1484 51.7789 30.7083 51.7789V51.7789ZM130.414 119.765C130.277 119.765 130.14 119.731 130.018 119.665L24.8259 63.1845L24.6279 63.0568C23.5463 62.393 23.0632 61.438 23.0326 59.8772C22.9874 57.545 23.9072 55.2487 25.6191 53.4072C28.5156 50.2983 31.1337 50.2392 32.5084 51.1404L137.429 107.483C137.806 107.688 137.938 108.139 137.724 108.49L131.106 119.389C131.004 119.561 130.832 119.686 130.626 119.739C130.557 119.757 130.485 119.765 130.414 119.765" fill="#252323"/>
<path d="M114.688 103.872L133.628 114.061L137.182 108.209C137.231 108.127 137.201 108.025 137.115 107.98L32.1698 51.6228C30.7906 50.6973 28.4508 51.2313 26.0748 53.783C25.6007 54.2916 25.1956 54.8488 24.8494 55.4345C24.8438 55.4683 24.8404 55.5042 24.8257 55.5284L68.3815 78.9601L71.0211 80.3805L98.5004 95.1641L114.688 103.872" fill="white"/>
<path d="M133.855 114.845L114.379 104.367L114.992 103.376L133.397 113.278L136.435 108.275L31.8608 52.1187C30.7814 51.3979 28.755 51.7747 26.5351 54.1575C26.2126 54.5036 25.9116 54.8888 25.6367 55.3056L98.8046 94.668L98.1913 95.6589L23.9961 55.7436L24.3095 55.1579C24.6908 54.5131 25.1287 53.9243 25.6084 53.4082C28.5241 50.2782 31.1547 50.2392 32.5249 51.1584L137.418 107.483C137.795 107.688 137.927 108.139 137.714 108.49L133.855 114.845" fill="#252323"/>
<path d="M101.209 96.6266L112.09 102.48L101.209 96.6266Z" fill="white"/>
<path d="M111.803 102.976L100.922 97.1226L101.535 96.1317L112.416 101.985L111.803 102.976Z" fill="#252323"/>
<path d="M24.9729 62.5269L25.1234 62.6261L130.318 119.107C130.405 119.154 130.516 119.126 130.564 119.045L131.704 117.17L129.179 116.324L23.8845 59.9351C23.9116 61.3218 24.0621 61.9676 24.9729 62.5269" fill="#252323"/>
<path d="M24.5668 60.9631C24.663 61.5235 24.87 61.782 25.3045 62.049L25.4719 62.1598L130.241 118.409L130.807 117.478L128.869 116.82L24.5668 60.9631ZM130.4 119.703C130.263 119.703 130.129 119.669 130.007 119.603L24.8123 63.1222L24.6245 63.0019C23.4037 62.2495 23.2916 61.2607 23.2668 59.9458L23.2464 58.937L129.432 115.802L132.59 116.861L131.093 119.327C130.985 119.5 130.816 119.625 130.61 119.676C130.541 119.694 130.471 119.703 130.4 119.703" fill="#252323"/>
<path d="M138.958 111.124C138.958 114.03 136.771 117.565 134.072 119.018C131.373 120.471 129.185 119.293 129.185 116.387C129.185 113.48 131.373 109.945 134.072 108.492C136.771 107.039 138.958 108.217 138.958 111.124Z" fill="#01BBFF"/>
<path d="M136.243 108.44C135.683 108.44 135.045 108.624 134.37 108.987C131.844 110.347 129.791 113.666 129.791 116.387C129.791 117.579 130.189 118.451 130.915 118.842C131.641 119.232 132.651 119.119 133.756 118.523C136.282 117.164 138.336 113.844 138.336 111.123C138.336 109.931 137.937 109.059 137.213 108.669C136.929 108.516 136.602 108.44 136.243 108.44V108.44ZM131.879 120.214C131.309 120.214 130.776 120.088 130.302 119.832C129.181 119.229 128.563 118.005 128.563 116.387C128.563 113.251 130.844 109.566 133.756 107.997C135.261 107.187 136.705 107.075 137.825 107.678C138.946 108.281 139.563 109.504 139.563 111.123C139.563 114.259 137.282 117.946 134.37 119.514C133.504 119.98 132.657 120.214 131.879 120.214" fill="#252323"/>
<path d="M24.2602 62.6232C23.4523 61.7547 23.415 60.7089 23.4139 60.6646V60.137H24.3575V60.6541C24.3575 60.6541 24.3948 61.4255 24.973 62.047L24.2602 62.6232Z" fill="#01BBFF"/>
<path d="M168.787 169.185C168.453 169.041 168.015 169.073 167.53 169.335L162.451 172.071C161.895 172.369 161.366 172.544 160.871 172.617L161.773 111.589L157.807 112.643V100.18L153.536 102.386V171.777C153.536 174.527 151.447 177.903 148.893 179.278L143.994 181.916C143.083 182.407 142.378 183.197 142.084 184.14C141.747 185.215 141.983 185.948 142.505 186.209L148.187 189.081C148.253 189.113 148.332 189.11 148.395 189.072L158.338 183.011L172.497 174.57L174.511 172.347C174.593 172.255 174.565 172.116 174.452 172.059L168.787 169.185" fill="#01BBFF"/>
<path d="M154.16 102.724V171.777C154.16 174.716 151.939 178.304 149.21 179.773L144.311 182.411C143.519 182.838 142.925 183.527 142.682 184.299C142.432 185.098 142.572 185.589 142.806 185.706L148.273 188.469L158.013 182.532L172.099 174.136L173.727 172.338L168.527 169.698C168.366 169.636 168.118 169.685 167.847 169.831L162.768 172.565C162.169 172.887 161.567 173.095 160.978 173.182L160.259 173.288L160.268 172.61L161.159 112.349L157.204 113.401V101.151L154.16 102.724ZM148.294 189.676C148.162 189.676 148.03 189.645 147.907 189.585L142.223 186.712C141.566 186.383 141.032 185.491 141.506 183.98C141.84 182.911 142.618 182.002 143.697 181.422L148.595 178.783C150.946 177.517 152.932 174.309 152.932 171.777V102.05L158.431 99.2092V111.885L162.408 110.827L161.507 171.867C161.72 171.79 161.936 171.692 162.154 171.576L167.234 168.84C167.873 168.496 168.519 168.435 169.055 168.666L169.09 168.682L174.755 171.557C174.97 171.664 175.122 171.857 175.168 172.084C175.214 172.31 175.148 172.541 174.987 172.718L172.836 175.053L158.678 183.492L148.74 189.551C148.607 189.634 148.451 189.676 148.294 189.676" fill="#252323"/>
<path d="M157.961 179.571L151.951 176.374L151.94 176.368C151.12 177.586 150.059 178.647 148.887 179.278L143.989 181.916C143.597 182.127 143.338 182.443 143.04 182.753L148.617 185.706L150.374 186.722L154.192 185.535L157.124 183.747L157.961 179.571" fill="white"/>
<path d="M144.015 182.611L148.921 185.208L150.455 186.094L153.925 185.016L156.572 183.402L157.282 179.867L152.136 177.131C151.278 178.288 150.268 179.196 149.197 179.773L144.298 182.411C144.196 182.466 144.104 182.533 144.015 182.611V182.611ZM150.297 187.349L148.295 186.191L142.075 182.899L142.731 182.218C142.985 181.948 143.273 181.643 143.686 181.42L148.583 178.783C149.607 178.232 150.615 177.266 151.422 176.064L151.792 175.514L152.33 175.924L158.647 179.278L157.68 184.092L154.387 186.077L150.297 187.349" fill="#252323"/>
<path d="M168.798 169.166C168.465 169.022 168.027 169.054 167.541 169.316L162.462 172.052C161.907 172.35 161.377 172.525 160.884 172.598L160.575 173.545L166.376 176.401L167.756 177.384L172.508 174.552L174.522 172.328C174.605 172.236 174.577 172.097 174.464 172.04L168.798 169.166" fill="white"/>
<path d="M161.302 173.259L166.741 175.946L167.781 176.687L172.093 174.117L173.721 172.318L168.521 169.679C168.36 169.617 168.112 169.665 167.841 169.812L162.762 172.546C162.293 172.798 161.822 172.981 161.357 173.09L161.302 173.259ZM167.717 178.08L166.037 176.885L159.833 173.829L160.401 172.089L160.78 172.033C161.219 171.968 161.68 171.808 162.148 171.556L167.227 168.821C167.867 168.478 168.51 168.416 169.049 168.647L169.084 168.663L174.749 171.537C174.964 171.645 175.116 171.838 175.162 172.065C175.207 172.292 175.142 172.523 174.981 172.698L172.83 175.034L167.717 178.08" fill="#252323"/>
<path d="M163.559 172.48V103.09L159.286 105.298V174.687C159.286 177.449 157.208 180.808 154.643 182.19L149.564 184.924C148.522 185.485 147.678 186.85 147.678 187.971C147.678 189.093 148.522 189.548 149.564 188.988L159.286 183.752L163.559 181.545L173.281 176.309C174.323 175.748 175.167 174.384 175.167 173.262C175.167 172.14 174.323 171.685 173.281 172.246L168.202 174.981C165.637 176.362 163.559 175.243 163.559 172.48Z" fill="#252323"/>
<path d="M159.908 105.635V174.688C159.908 177.677 157.732 181.189 154.957 182.684L149.879 185.419C149.022 185.88 148.299 187.049 148.299 187.972C148.299 188.292 148.39 188.533 148.544 188.615C148.697 188.7 148.968 188.651 149.265 188.492L158.987 183.258L163.268 181.045L172.98 175.815C173.837 175.352 174.561 174.183 174.561 173.262C174.561 172.941 174.469 172.7 174.314 172.618C174.162 172.534 173.891 172.581 173.595 172.74L168.516 175.476C167.078 176.249 165.693 176.358 164.618 175.779C163.544 175.2 162.951 174.029 162.951 172.481V104.061L159.908 105.635ZM148.725 189.798C148.439 189.798 148.17 189.734 147.931 189.606C147.385 189.312 147.072 188.717 147.072 187.972C147.072 186.647 148.035 185.091 149.265 184.429L154.343 181.695C156.735 180.406 158.68 177.262 158.68 174.688V104.96L164.179 102.119V172.481C164.179 173.604 164.552 174.423 165.231 174.789C165.91 175.154 166.859 175.046 167.902 174.486L172.98 171.751C173.673 171.379 174.382 171.334 174.927 171.627C175.474 171.922 175.787 172.517 175.787 173.262C175.787 174.585 174.823 176.143 173.595 176.804L163.872 182.04L159.591 184.253L149.879 189.482C149.488 189.692 149.093 189.798 148.725 189.798" fill="#252323"/>
<path d="M158.96 171.384L153.213 168.044L153.862 167.073L159.608 170.413L158.96 171.384Z" fill="#252323"/>
<path d="M158.96 143.776L153.213 140.436L153.862 139.465L159.608 142.805L158.96 143.776Z" fill="#252323"/>
<path d="M160.158 126.658L159.686 125.896L162.893 124.169L163.365 124.93L160.158 126.658Z" fill="#01BBFF"/>
<path d="M164.89 85.6178C164.64 85.489 164.299 85.5091 163.92 85.7127L135.464 101.037C134.544 101.532 133.673 102.446 133.09 103.527L121.605 124.844C121.23 125.539 121.026 126.268 121.026 126.905V131.535C121.026 131.887 121.143 132.142 121.332 132.296L121.367 132.324C121.411 132.356 131.741 137.811 132.779 138.365C132.816 138.385 132.864 138.374 132.886 138.339L136.73 132.653C136.733 132.649 136.737 132.644 136.741 132.64L167.657 103.805L173.136 98.3203C173.143 98.314 173.148 98.3076 173.151 98.3002L176.38 91.7828C176.398 91.7479 176.383 91.7057 176.347 91.6857L164.89 85.6178" fill="#01BBFF"/>
<path d="M164.537 86.1086C164.472 86.1086 164.366 86.1328 164.226 86.2077L135.77 101.532C134.959 101.967 134.162 102.81 133.637 103.784L122.153 125.102C121.821 125.716 121.638 126.356 121.638 126.905V131.535C121.638 131.72 121.688 131.828 121.735 131.866C121.84 131.922 125.389 133.798 128.24 135.306C130.08 136.278 131.803 137.19 132.638 137.633L136.306 132.235L167.222 103.401L172.63 97.988L175.619 91.958L164.593 86.118C164.58 86.1128 164.561 86.1086 164.537 86.1086V86.1086ZM132.82 138.948C132.7 138.948 132.579 138.92 132.468 138.858C132.034 138.627 129.923 137.511 127.636 136.301C121.053 132.821 121.05 132.818 120.995 132.78C120.596 132.456 120.411 132.033 120.411 131.535V126.905C120.411 126.181 120.641 125.358 121.056 124.588L132.54 103.27C133.179 102.087 134.132 101.093 135.156 100.541L163.613 85.2179C164.16 84.9224 164.732 84.8855 165.185 85.1166L165.193 85.1197L176.65 91.1887C176.965 91.3586 177.087 91.7153 176.937 92.0213L173.57 98.7245L168.105 104.194L137.212 133.008L133.405 138.644C133.274 138.84 133.05 138.948 132.82 138.948" fill="#252323"/>
<path d="M121.332 132.296L121.367 132.324C121.411 132.356 131.741 137.811 132.779 138.365C132.816 138.385 132.864 138.374 132.886 138.339L134.087 136.563C133.221 135.071 132.553 133.957 132.553 133.957L121.026 127.777V131.535C121.026 131.887 121.143 132.142 121.332 132.296" fill="#252323"/>
<path d="M121.732 131.864L121.761 131.887C121.84 131.922 125.389 133.798 128.24 135.306C130.078 136.278 131.803 137.19 132.638 137.633L133.375 136.541C132.771 135.501 132.285 134.686 132.099 134.374L121.638 128.765V131.535C121.638 131.717 121.687 131.824 121.732 131.864V131.864ZM132.82 138.948C132.7 138.948 132.579 138.92 132.468 138.858C132.034 138.627 129.923 137.511 127.636 136.301C121.053 132.821 121.05 132.818 120.995 132.78L120.928 132.728C120.596 132.456 120.411 132.033 120.411 131.535V126.788L133.003 133.54L133.087 133.678C133.087 133.678 133.757 134.794 134.625 136.291L134.797 136.585L133.405 138.644C133.274 138.84 133.05 138.948 132.82 138.948" fill="#252323"/>
<path d="M144.619 109.634L174.085 95.3772L160.016 87.8171L135.467 101.037C134.547 101.532 133.676 102.447 133.093 103.527L144.619 109.634" fill="white"/>
<path d="M133.926 103.31L144.632 108.983L172.81 95.3506L160.018 88.4765L135.774 101.531C135.099 101.894 134.432 102.54 133.926 103.31V103.31ZM144.607 110.284L132.284 103.755L132.545 103.27C133.183 102.087 134.137 101.092 135.161 100.541L160.018 87.1563L175.363 95.4034L144.607 110.284" fill="#252323"/>
<path d="M175.453 116.041L133.95 138.39C133.181 138.803 132.559 138.469 132.559 137.641V133.011C132.559 132.374 132.763 131.645 133.137 130.951L144.622 109.634C145.205 108.553 146.076 107.639 146.996 107.143L175.453 91.8198C176.221 91.4061 176.844 91.7407 176.844 92.568V113.794C176.844 114.621 176.221 115.627 175.453 116.041" fill="#252323"/>
<path d="M176.07 92.2144C176.006 92.2144 175.896 92.2387 175.756 92.3147L147.299 107.638C146.489 108.074 145.691 108.917 145.166 109.891L133.681 131.207C133.351 131.823 133.168 132.463 133.168 133.011V137.64C133.168 137.853 133.231 137.964 133.269 137.987C133.308 138.005 133.442 138 133.639 137.895L175.141 115.546C175.72 115.235 176.226 114.416 176.226 113.794V92.5679C176.226 92.3569 176.164 92.245 176.126 92.2239C176.114 92.2176 176.096 92.2144 176.07 92.2144V92.2144ZM133.322 139.138C133.084 139.138 132.857 139.085 132.656 138.976C132.202 138.732 131.941 138.245 131.941 137.64V133.011C131.941 132.288 132.171 131.466 132.586 130.695L144.071 109.377C144.708 108.195 145.661 107.2 146.686 106.648L175.141 91.3237C175.703 91.023 176.284 90.9892 176.739 91.233C177.193 91.4778 177.453 91.9643 177.453 92.5679V113.794C177.453 114.819 176.707 116.024 175.756 116.537L175.448 116.041L175.756 116.537L134.252 138.885C133.94 139.054 133.622 139.138 133.322 139.138" fill="#252323"/>
<path d="M133.028 137.641H132.084V134.176H133.028V137.641Z" fill="#01BBFF"/>
<path d="M133.541 130.547L122.015 124.44L122.621 123.447L134.147 129.553L133.541 130.547Z" fill="#252323"/>
<path d="M142.179 114.571L130.653 108.465L131.258 107.471L142.784 113.577L142.179 114.571Z" fill="#252323"/>
<path d="M168.421 102.53C168.286 102.506 168.163 102.487 168.163 102.487C167.599 102.433 166.882 102.713 166.117 103.535C165.689 103.995 165.365 104.539 165.184 105.124C164.891 106.073 165.008 106.77 165.36 107.161C165.36 107.161 166.07 108.118 167.651 108.461C167.726 108.478 167.809 108.446 167.849 108.386L170.202 104.898L170.302 103.642C170.306 103.597 170.294 103.556 170.261 103.522C170.081 103.34 169.474 102.729 168.421 102.53" fill="#01BBFF"/>
<path d="M168.014 102.918C167.736 102.918 167.189 103.052 166.472 103.824C166.083 104.242 165.793 104.734 165.635 105.246C165.414 105.963 165.446 106.574 165.72 106.877C165.768 106.938 166.329 107.659 167.56 107.986L169.738 104.757L169.821 103.73C169.591 103.511 169.104 103.109 168.331 102.962L168.084 102.922C168.064 102.919 168.039 102.918 168.014 102.918ZM167.693 108.906C167.643 108.906 167.593 108.901 167.542 108.889C165.803 108.511 165.005 107.455 164.971 107.411C164.507 106.9 164.412 106.033 164.729 105.003C164.925 104.368 165.281 103.761 165.759 103.247C166.77 102.161 167.648 101.996 168.209 102.05L168.514 102.098C169.31 102.249 170.013 102.627 170.604 103.222C170.726 103.346 170.785 103.506 170.772 103.675L170.661 105.041L168.247 108.62C168.127 108.8 167.915 108.906 167.693 108.906" fill="#01BBFF"/>
<path d="M170.978 104.854C170.978 106.098 170.041 107.61 168.887 108.232C167.732 108.853 166.797 108.35 166.797 107.106C166.797 105.862 167.732 104.35 168.887 103.729C170.041 103.106 170.978 103.61 170.978 104.854Z" fill="#252323"/>
<path d="M169.814 103.902C169.61 103.902 169.371 103.973 169.116 104.11C168.11 104.651 167.26 106.023 167.26 107.106C167.26 107.537 167.398 107.859 167.637 107.988C167.875 108.117 168.242 108.067 168.644 107.851C169.65 107.309 170.5 105.937 170.5 104.854C170.5 104.423 170.363 104.101 170.123 103.973C170.036 103.925 169.932 103.902 169.814 103.902ZM167.946 108.94C167.665 108.94 167.402 108.876 167.165 108.749C166.619 108.455 166.318 107.871 166.318 107.106C166.318 105.701 167.338 104.051 168.644 103.347C169.355 102.965 170.048 102.916 170.595 103.211C171.141 103.505 171.443 104.089 171.443 104.854C171.443 106.259 170.421 107.91 169.116 108.613C168.712 108.83 168.315 108.94 167.946 108.94" fill="#01BBFF"/>
<path d="M162.97 110.168C162.834 110.144 162.712 110.125 162.712 110.125C162.148 110.071 161.431 110.351 160.665 111.173C160.237 111.633 159.913 112.177 159.732 112.762C159.44 113.711 159.556 114.408 159.909 114.798C159.909 114.798 160.617 115.756 162.199 116.099C162.274 116.116 162.356 116.084 162.397 116.024L164.749 112.536L164.851 111.28C164.855 111.234 164.842 111.194 164.809 111.16C164.628 110.979 164.023 110.367 162.97 110.168" fill="#01BBFF"/>
<path d="M162.554 110.555C162.118 110.555 161.568 110.873 161.02 111.462C160.631 111.879 160.342 112.372 160.184 112.884C159.962 113.601 159.994 114.211 160.269 114.515C160.316 114.576 160.878 115.297 162.109 115.624L164.287 112.395L164.369 111.368C164.141 111.15 163.652 110.747 162.879 110.6L162.634 110.559C162.607 110.556 162.58 110.555 162.554 110.555V110.555ZM162.242 116.544C162.191 116.544 162.141 116.539 162.09 116.527C160.353 116.15 159.553 115.093 159.52 115.048C159.055 114.537 158.96 113.671 159.278 112.641C159.473 112.006 159.829 111.399 160.307 110.885C161.319 109.799 162.196 109.634 162.758 109.687L163.062 109.737C163.858 109.887 164.562 110.265 165.152 110.86C165.275 110.984 165.333 111.143 165.32 111.313L165.21 112.679L162.795 116.258C162.675 116.438 162.464 116.544 162.242 116.544" fill="#01BBFF"/>
<path d="M165.503 112.492C165.503 113.736 164.567 115.248 163.412 115.87C162.257 116.492 161.321 115.988 161.321 114.744C161.321 113.501 162.257 111.989 163.412 111.366C164.567 110.744 165.503 111.249 165.503 112.492Z" fill="#252323"/>
<path d="M164.349 111.54C164.146 111.54 163.906 111.611 163.651 111.747C162.647 112.289 161.797 113.661 161.797 114.744C161.797 115.175 161.935 115.496 162.174 115.626C162.412 115.754 162.778 115.705 163.179 115.489C164.186 114.948 165.035 113.576 165.035 112.492C165.035 112.061 164.898 111.739 164.658 111.611C164.571 111.563 164.467 111.54 164.349 111.54ZM162.481 116.578C162.202 116.578 161.938 116.515 161.702 116.388C161.155 116.093 160.854 115.509 160.854 114.744C160.854 113.339 161.876 111.689 163.179 110.985C163.89 110.603 164.584 110.554 165.13 110.849C165.678 111.143 165.979 111.727 165.979 112.492C165.979 113.898 164.956 115.548 163.651 116.251C163.248 116.468 162.85 116.578 162.481 116.578Z" fill="#01BBFF"/>
<path d="M162.34 113.055L161.556 112.568L167.273 104.557L168.059 105.044L162.34 113.055" fill="#01BBFF"/>
<path d="M165.201 114.794L164.416 114.305L169.697 106.92L170.481 107.408L165.201 114.794" fill="#01BBFF"/>
<path d="M57.2188 65.294C55.8407 64.3685 53.4997 64.9025 51.1248 67.4542C49.5567 69.1395 48.6436 71.307 48.6877 73.5379V120.817C48.6877 121.511 49.0837 122.154 49.7275 122.504L105.361 152.703C106.299 153.211 107.476 152.58 107.476 151.568V103.425C107.724 101.642 108.554 99.9518 109.829 98.5831C112.204 96.0314 114.545 95.6104 115.923 96.5359L57.2188 65.294" fill="#01BBFF"/>
<path d="M55.7584 65.4511C54.6632 65.4511 53.1787 66.1286 51.5959 67.8298C50.0809 69.457 49.2685 71.4811 49.3081 73.5273L49.3092 120.817C49.3092 121.307 49.591 121.764 50.0447 122.009L105.679 152.209C106.036 152.403 106.354 152.275 106.474 152.211C106.593 152.146 106.871 151.954 106.871 151.568V103.425C107.138 101.46 108.003 99.6816 109.374 98.2073C110.704 96.7785 111.989 96.0144 113.122 95.6989L56.8695 65.7582C56.5753 65.5609 56.1986 65.4511 55.7584 65.4511ZM106.077 153.456C105.728 153.456 105.38 153.369 105.062 153.197L49.428 122.998C48.5975 122.549 48.0816 121.713 48.0816 120.817V73.5378C48.0364 71.2183 48.9562 68.9209 50.6692 67.0794C53.5634 63.9695 56.1838 63.9125 57.5574 64.8106L115.783 95.7981C115.966 95.8751 116.135 95.968 116.29 96.0714L115.628 97.0317L115.22 96.8143C114.16 96.3975 112.372 96.7331 110.301 98.9576C109.088 100.261 108.324 101.83 108.093 103.497L108.099 151.568C108.099 152.25 107.72 152.861 107.086 153.202C106.77 153.372 106.424 153.456 106.077 153.456" fill="#252323"/>
<path d="M94.0402 146.524V97.6628C93.9972 95.4319 94.9103 93.2633 96.4784 91.579C98.8533 89.0273 101.193 88.4934 102.572 89.4189L68.0035 71.0346C66.6243 70.1092 64.2845 70.6431 61.9085 73.1948C60.3403 74.8801 59.4284 77.0477 59.4714 79.2786V127.818L94.0402 146.524" fill="#252323"/>
<path d="M60.0809 127.489L93.4232 145.531V97.6618C93.3791 95.3412 94.2978 93.0449 96.012 91.2045C97.3787 89.7344 98.6856 88.9461 99.8272 88.619L67.6954 71.5307C66.6183 70.8131 64.5885 71.1845 62.3675 73.5706C60.8525 75.1978 60.0401 77.2208 60.0797 79.2681L60.0809 127.489ZM94.6509 147.517L58.8533 128.147V79.2786C58.8091 76.9591 59.7279 74.6617 61.4409 72.8203C64.3555 69.6913 66.9872 69.6523 68.3573 70.5704L102.45 88.6971C102.622 88.7699 102.781 88.8565 102.927 88.9535L102.265 89.9149L101.889 89.7144C100.79 89.2849 98.9435 89.7999 96.9375 91.9548C95.4225 93.581 94.6101 95.604 94.6497 97.6523L94.6509 147.517" fill="#252323"/>
<path d="M97.667 87.2798L77.5478 76.3923L78.0218 75.6315L98.141 86.5189L97.667 87.2798" fill="#01BBFF"/>
<path d="M53.9066 76.0127L101.906 101.717L53.9066 76.0127Z" fill="#01BBFF"/>
<path d="M101.598 102.213L53.5995 76.5075L54.2093 75.5165L102.208 101.221L101.598 102.213" fill="#252323"/>
<path d="M85.51 12.006L85.8766 12.2033C86.2194 12.388 86.543 12.4893 86.8496 12.5083C87.154 12.5273 87.4368 12.4671 87.6959 12.3279C87.9561 12.1875 88.0784 12.0451 88.0603 11.9015C88.0422 11.757 87.8815 11.6029 87.5771 11.4393L87.0703 11.166L85.51 12.006ZM88.8591 12.9125C88.2945 13.2164 87.6857 13.3547 87.0329 13.3251C86.3789 13.2956 85.7273 13.1067 85.0755 12.7552L84.5969 12.4978L82.7289 13.5045L81.6156 12.9041L86.87 10.0748L88.5479 10.9792C89.1849 11.3222 89.5323 11.6567 89.59 11.9828C89.6465 12.3099 89.4033 12.6191 88.8591 12.9125" fill="#252323"/>
<path d="M90.2656 14.4194L90.6265 14.6125C90.9784 14.8025 91.2963 14.9112 91.5826 14.9375C91.8665 14.965 92.1347 14.9112 92.387 14.775C92.636 14.641 92.7287 14.5007 92.6619 14.3508C92.5952 14.2009 92.3814 14.03 92.025 13.8369L91.6855 13.6543L90.2656 14.4194ZM89.3593 14.9069L87.3442 15.9928L86.2298 15.3924L91.4842 12.5631L93.0161 13.3873C93.7289 13.7725 94.1283 14.1271 94.2109 14.4521C94.2935 14.7761 94.0695 15.081 93.5411 15.366C93.2311 15.5317 92.8713 15.634 92.4606 15.672C92.0499 15.7111 91.6199 15.6826 91.1719 15.5887C90.7804 16.6503 90.5326 17.3383 90.4285 17.6539L89.1918 16.9869L89.9533 15.2267L89.3593 14.9069" fill="#252323"/>
<path d="M91.0872 18.0097L96.3405 15.1805L97.4561 15.7799L92.2017 18.6091L91.0872 18.0097Z" fill="#252323"/>
<path d="M98.1855 21.8317L96.77 21.0697L98.4593 17.6981L98.4265 17.6802C97.7702 18.0833 97.2916 18.3661 96.9929 18.5265L94.5207 19.8583L93.5239 19.3211L98.7783 16.493L100.184 17.2485L98.5305 20.597L98.5566 20.6107C99.2037 20.2234 99.6676 19.9543 99.9505 19.8023L102.437 18.4621L103.439 19.0024L98.1855 21.8317" fill="#252323"/>
<path d="M101.546 23.6353L100.431 23.0359L104.758 20.7058L103.331 19.9376L104.258 19.4384L108.227 21.5743L107.299 22.0735L105.872 21.3052L101.546 23.6353" fill="#252323"/>
<path d="M70.8336 121.435L70.8279 133.005L93.2836 145.156V141.295L75.3718 131.638L75.3763 123.885L70.8336 121.435Z" fill="#01BBFF"/>
<path d="M93.2779 114.738L86.5651 111.118L70.8448 92.0203L70.8415 99.3335L81.4385 111.726L70.8336 112.644L70.8279 120.001L86.7371 117.956L93.2779 121.482V114.738" fill="#01BBFF"/>
<path d="M61.7862 14.023C65.1918 14.806 65.1918 17.2743 61.7862 18.0584C60.8471 18.2747 59.8514 18.2747 58.9134 18.0584C55.5078 17.2743 55.5078 14.807 58.9134 14.023C59.8514 13.8066 60.8471 13.8066 61.7862 14.023Z" fill="#01BBFF"/>
<path d="M60.3518 14.4335C59.9184 14.4335 59.4839 14.481 59.0619 14.5781C57.7947 14.8704 56.9744 15.4445 56.9744 16.0407C56.9744 16.637 57.7947 17.211 59.0619 17.5034C59.906 17.6975 60.7975 17.6975 61.6416 17.5034C62.9099 17.211 63.7291 16.637 63.7291 16.0407C63.7291 15.4445 62.9099 14.8704 61.6427 14.5781C61.2196 14.481 60.7862 14.4335 60.3518 14.4335ZM60.3518 18.7919C59.82 18.7919 59.286 18.7328 58.7689 18.6135C56.9054 18.1851 55.7491 17.1994 55.7491 16.0407C55.7491 14.882 56.9054 13.8964 58.7689 13.4679C59.8053 13.2294 60.9005 13.2294 61.9358 13.4679C63.7981 13.8964 64.9556 14.882 64.9556 16.0407C64.9556 17.1994 63.7981 18.1851 61.9358 18.6135C61.4176 18.7328 60.8858 18.7919 60.3518 18.7919Z" fill="#252323"/>
<path d="M60.3541 8.5302C58.9319 8.5302 57.779 9.60554 57.779 10.932V14.3354C57.779 14.8609 58.3277 15.3854 59.4274 15.6376C60.0328 15.7779 60.6754 15.7779 61.2819 15.6376C62.3805 15.3854 62.9304 14.8609 62.9304 14.3354V10.932C62.9304 9.60554 61.7775 8.5302 60.3541 8.5302Z" fill="white"/>
<path d="M60.3452 9.10222C59.2636 9.10222 58.3833 9.92325 58.3833 10.9321V14.3354C58.3833 14.5718 58.7884 14.9042 59.5657 15.0826C60.0759 15.2008 60.6156 15.2008 61.1259 15.0826C61.9021 14.9042 62.3071 14.5718 62.3071 14.3354V10.9321C62.3071 9.92325 61.428 9.10222 60.3452 9.10222V9.10222ZM60.3452 16.3141C59.9843 16.3141 59.6223 16.274 59.2704 16.1927C57.7113 15.8339 57.1568 14.9981 57.1568 14.3354V10.9321C57.1568 9.29219 58.587 7.95831 60.3452 7.95831C62.1035 7.95831 63.5348 9.29219 63.5348 10.9321V14.3354C63.5348 14.9981 62.9792 15.835 61.419 16.1927C61.0682 16.274 60.7062 16.3141 60.3452 16.3141" fill="#252323"/>
<path d="M60.3452 16.3141C59.9843 16.3141 59.6223 16.274 59.2704 16.1927C57.7113 15.835 57.1568 14.9981 57.1568 14.3354C57.1568 13.6727 57.7113 12.8369 59.2704 12.4781L59.5657 13.5883C58.7884 13.7666 58.3822 14.1001 58.3822 14.3354C58.3822 14.5718 58.7884 14.9042 59.5645 15.0826C60.0759 15.1997 60.6156 15.2008 61.1259 15.0826C61.9021 14.9042 62.3083 14.5718 62.3083 14.3354C62.3083 14.1001 61.9021 13.7666 61.1259 13.5883L61.4201 12.4781C62.9792 12.8369 63.5348 13.6727 63.5348 14.3354C63.5348 14.9981 62.9792 15.835 61.419 16.1927C61.0682 16.274 60.7062 16.3141 60.3452 16.3141" fill="#252323"/>
<path d="M159.242 40.5632C162.648 41.3473 162.648 43.8156 159.242 44.5987C158.303 44.815 157.309 44.815 156.37 44.5987C152.964 43.8156 152.964 41.3473 156.37 40.5632C157.309 40.3469 158.303 40.3469 159.242 40.5632Z" fill="#01BBFF"/>
<path d="M157.813 40.9727C157.379 40.9727 156.944 41.0212 156.522 41.1183C155.255 41.4106 154.435 41.9847 154.435 42.581C154.435 43.1772 155.255 43.7513 156.522 44.0436C157.368 44.2388 158.261 44.2377 159.103 44.0436C160.37 43.7513 161.19 43.1772 161.19 42.581C161.19 41.9847 160.37 41.4106 159.103 41.1183C158.681 41.0212 158.247 40.9727 157.813 40.9727V40.9727ZM157.812 45.3331C157.28 45.3331 156.747 45.273 156.229 45.1537C154.365 44.7253 153.209 43.7397 153.209 42.581C153.209 41.4222 154.365 40.4366 156.229 40.0081C157.266 39.7696 158.362 39.7707 159.396 40.0081C161.259 40.4366 162.416 41.4222 162.416 42.581C162.416 43.7397 161.259 44.7253 159.397 45.1537C158.878 45.273 158.346 45.3331 157.812 45.3331" fill="#252323"/>
<path d="M157.807 35.0705C156.384 35.0705 155.231 36.1459 155.231 37.4724V40.8757C155.231 41.4012 155.781 41.9257 156.88 42.1779C157.486 42.3183 158.128 42.3183 158.734 42.1779C159.833 41.9257 160.383 41.4012 160.383 40.8757V37.4724C160.383 36.1459 159.23 35.0705 157.807 35.0705" fill="white"/>
<path d="M157.809 35.6425C156.728 35.6425 155.847 36.4635 155.847 37.4723V40.8756C155.847 41.112 156.254 41.4444 157.03 41.6238C157.54 41.741 158.081 41.741 158.591 41.6228C159.366 41.4444 159.772 41.112 159.772 40.8756V37.4723C159.772 36.4635 158.892 35.6425 157.809 35.6425V35.6425ZM157.809 42.8543C157.448 42.8543 157.087 42.8142 156.737 42.734C155.176 42.3752 154.621 41.5394 154.621 40.8756V37.4723C154.621 35.8324 156.051 34.4985 157.809 34.4985C159.568 34.4985 161 35.8324 161 37.4723V40.8756C161 41.5394 160.443 42.3752 158.884 42.734C158.532 42.8142 158.171 42.8543 157.809 42.8543" fill="#252323"/>
<path d="M157.809 42.8543C157.448 42.8543 157.087 42.8142 156.737 42.734C155.176 42.3752 154.621 41.5394 154.621 40.8756C154.621 40.2129 155.177 39.3771 156.736 39.0183L157.03 40.1285C156.254 40.3069 155.847 40.6403 155.847 40.8756C155.847 41.112 156.254 41.4445 157.03 41.6238C157.54 41.741 158.081 41.741 158.591 41.6228C159.366 41.4444 159.772 41.112 159.772 40.8756C159.772 40.6403 159.366 40.3069 158.59 40.1285L158.884 39.0183C160.443 39.3771 160.999 40.2129 160.999 40.8756C160.999 41.5394 160.443 42.3752 158.884 42.734C158.532 42.8142 158.171 42.8543 157.809 42.8543" fill="#252323"/>
<path fill-rule="evenodd" clip-rule="evenodd" d="M51.5815 77.0509L103.849 105.197L103.849 161.488L51.5815 133.343L51.5815 77.0509Z" fill="#252323"/>
<path d="M75.4486 100.222L76.0445 100.543L76.0445 115.118L75.1894 114.658L75.1894 100.083L75.4486 100.222Z" fill="#EC268F"/>
<path d="M58.7585 105.527L58.7585 91.2338L59.7914 91.7899L65.3213 107.944L70.7864 97.7107L71.8192 98.2668L71.8192 112.842L70.9641 112.381L70.9641 99.5919L65.6265 109.433L65.3422 109.28L65.3255 109.314L65.3066 109.261L64.9533 109.07L59.6136 93.4798L59.6136 106.269L58.7585 105.809L58.7585 105.527Z" fill="#00AFEF"/>
<path d="M81.307 101.314L81.307 100.682L87.9116 104.238L87.9116 105.152L81.307 101.596L81.307 101.314Z" fill="#FFF212"/>
<path d="M75.1774 98.0607L75.1774 97.3785L76.0722 97.8603L76.0722 98.8218L75.1774 98.3399L75.1774 98.0607Z" fill="#EC268F"/>
<path d="M87.2681 130.754L87.7616 131.283L82.7606 140.396C82.4553 140.943 82.1146 141.291 81.7403 141.44C81.3452 141.599 80.9166 141.542 80.4524 141.269C80.2016 141.159 79.9423 140.99 79.6726 140.768C79.4071 140.546 79.129 140.266 78.8384 139.929L78.6273 139.683L78.9848 139.108L79.2127 139.345C79.4886 139.631 79.7312 139.859 79.9381 140.026C80.1284 140.178 80.2852 140.278 80.4106 140.328L80.4462 140.343C80.7368 140.499 81.0023 140.523 81.2427 140.414C81.5041 140.293 81.7403 140.017 81.9494 139.589L82.5076 138.555L78.3638 126.153L79.0977 126.152L82.9989 137.844L87.0277 130.494L87.2681 130.754Z" fill="#FEFEFE"/>
<path d="M69.9049 130.175L69.9049 135.591L69.0477 135.129L69.0477 120.914L69.9049 121.376L69.9049 123.391C70.1997 123.027 70.5447 122.783 70.944 122.665C71.6026 122.463 72.3991 122.602 73.3274 123.077L73.3504 123.089C74.678 123.905 75.6962 124.983 76.4049 126.319C77.099 127.63 77.4816 129.18 77.5506 130.962L77.5506 130.978C77.5276 132.74 77.1743 133.896 76.4886 134.443C75.7882 135.001 74.7616 134.927 73.4048 134.221L73.3964 134.217C72.4451 133.68 71.6339 132.953 70.9628 132.04C70.5551 131.482 70.2039 130.863 69.9049 130.175ZM73.4152 133.306C74.4857 133.858 75.2906 133.913 75.83 133.469C76.384 133.013 76.6725 132.029 76.6955 130.522C76.6307 128.983 76.3129 127.67 75.7443 126.58C75.1923 125.522 74.3874 124.661 73.3337 124.001C72.257 123.516 71.4353 123.499 70.8708 123.958C70.2938 124.429 69.9697 125.392 69.9049 126.854C69.9927 128.349 70.3293 129.634 70.9168 130.709C71.4959 131.764 72.328 132.631 73.4152 133.306Z" fill="#FEFEFE"/>
<path d="M55.3647 124.087L55.3647 109.791C56.6735 110.496 57.9802 111.195 59.289 111.906C61.6473 113.203 63.4307 114.769 64.6349 116.604C65.8454 118.45 66.4622 120.545 66.4831 122.887L66.4831 123.132C66.4935 123.446 66.4956 123.747 66.4852 124.034C66.4204 126.007 65.8496 127.236 64.7771 127.719C63.7108 128.198 62.1553 127.933 60.1148 126.924C59.7531 126.745 59.3747 126.541 58.9795 126.312L55.3647 124.368L55.3647 124.087ZM56.2219 111.176L56.2219 123.904L58.9879 125.394C61.3128 126.74 63.023 127.186 64.1227 126.731C65.2119 126.282 65.7137 124.933 65.628 122.69L65.628 122.678C65.628 120.521 65.0802 118.614 63.9868 116.962C62.885 115.297 61.2145 113.864 58.9795 112.661L56.2219 111.176Z" fill="#FEFEFE"/>
<path d="M89.867 108.263L89.8649 137.466L98.9323 132.937L99.57 133.967L93.9167 136.718L100.043 147.988L99.3547 148.169L93.2728 136.975L89.8649 138.68L89.8649 142.814L89.0099 142.353C89.0099 131.214 89.0078 120.072 89.0099 108.934L80.2811 117.397L79.3529 116.897L79.3529 102.322L80.139 102.745L80.139 115.904L88.8677 107.446L89.867 107.984L89.867 108.263Z" fill="#FFF212"/>
</svg>
