<svg width="170" height="167" viewBox="0 0 170 167" fill="none" xmlns="http://www.w3.org/2000/svg">
<path d="M121.676 161.25L120.672 161.791C120.569 161.846 120.39 161.838 120.271 161.775L119.324 161.265C119.206 161.201 119.192 161.105 119.296 161.049L120.3 160.508C120.403 160.453 120.582 160.46 120.701 160.524L121.647 161.033C121.766 161.097 121.778 161.194 121.676 161.25" fill="#252323"/>
<path d="M124.012 162.507L123.009 163.048C122.906 163.104 122.726 163.096 122.607 163.032L121.661 162.523C121.542 162.459 121.529 162.363 121.632 162.306L122.636 161.766C122.739 161.711 122.918 161.718 123.038 161.781L123.983 162.291C124.103 162.355 124.115 162.452 124.012 162.507" fill="#252323"/>
<path d="M121.553 163.833L120.549 164.374C120.446 164.429 120.266 164.422 120.148 164.358L119.201 163.849C119.083 163.784 119.07 163.688 119.172 163.633L120.176 163.092C120.28 163.036 120.459 163.043 120.578 163.107L121.524 163.617C121.643 163.68 121.656 163.778 121.553 163.833" fill="#252323"/>
<path d="M126.348 163.765L125.345 164.306C125.241 164.362 125.062 164.354 124.943 164.29L123.997 163.781C123.878 163.717 123.865 163.621 123.968 163.565L124.972 163.024C125.074 162.969 125.255 162.975 125.373 163.039L126.319 163.549C126.439 163.613 126.451 163.71 126.348 163.765" fill="#252323"/>
<path d="M123.889 165.091L122.886 165.632C122.783 165.687 122.603 165.679 122.483 165.616L121.538 165.106C121.419 165.042 121.406 164.945 121.509 164.89L122.513 164.35C122.615 164.294 122.795 164.301 122.915 164.365L123.86 164.874C123.98 164.938 123.992 165.035 123.889 165.091" fill="#252323"/>
<path d="M128.821 165.097L127.817 165.637C127.715 165.693 127.534 165.686 127.415 165.621L126.47 165.112C126.35 165.049 126.338 164.951 126.44 164.896L127.444 164.356C127.547 164.3 127.727 164.307 127.846 164.371L128.792 164.88C128.911 164.945 128.924 165.041 128.821 165.097" fill="#252323"/>
<path d="M126.352 166.423L125.348 166.963C125.245 167.018 125.065 167.011 124.946 166.947L124 166.438C123.881 166.373 123.868 166.277 123.971 166.222L124.975 165.68C125.078 165.625 125.258 165.632 125.377 165.697L126.323 166.205C126.442 166.27 126.455 166.366 126.352 166.423Z" fill="#252323"/>
<path d="M131.274 163.771L130.27 164.312C130.166 164.367 129.987 164.361 129.868 164.296L128.922 163.787C128.803 163.723 128.79 163.626 128.893 163.571L129.897 163.03C129.999 162.974 130.18 162.982 130.298 163.046L131.244 163.555C131.363 163.619 131.376 163.715 131.274 163.771" fill="#252323"/>
<path d="M133.742 162.446L132.738 162.986C132.635 163.042 132.456 163.035 132.337 162.971L131.391 162.462C131.272 162.398 131.259 162.301 131.362 162.245L132.366 161.705C132.469 161.649 132.649 161.657 132.767 161.72L133.714 162.23C133.832 162.294 133.846 162.39 133.742 162.446" fill="#252323"/>
<path d="M136.201 161.121L135.197 161.661C135.094 161.716 134.915 161.71 134.796 161.646L133.85 161.136C133.731 161.072 133.719 160.975 133.821 160.92L134.825 160.38C134.928 160.324 135.107 160.331 135.226 160.395L136.173 160.905C136.291 160.969 136.305 161.066 136.201 161.121" fill="#252323"/>
<path d="M138.664 159.796L137.66 160.336C137.557 160.391 137.378 160.384 137.259 160.321L136.312 159.811C136.194 159.747 136.181 159.65 136.284 159.595L137.288 159.054C137.391 158.999 137.57 159.006 137.689 159.07L138.635 159.579C138.754 159.643 138.767 159.74 138.664 159.796Z" fill="#252323"/>
<path d="M141.123 158.47L140.119 159.01C140.017 159.067 139.836 159.059 139.718 158.995L138.771 158.485C138.653 158.422 138.64 158.325 138.743 158.269L139.747 157.729C139.85 157.674 140.029 157.68 140.148 157.744L141.094 158.254C141.213 158.318 141.226 158.415 141.123 158.47Z" fill="#252323"/>
<path d="M143.589 157.145L142.585 157.686C142.483 157.741 142.302 157.734 142.184 157.67L141.237 157.161C141.119 157.096 141.106 157 141.208 156.945L142.212 156.404C142.316 156.348 142.495 156.355 142.614 156.419L143.56 156.929C143.679 156.992 143.692 157.089 143.589 157.145" fill="#252323"/>
<path d="M146.052 155.819L145.048 156.36C144.945 156.416 144.765 156.409 144.647 156.344L143.7 155.836C143.581 155.771 143.569 155.675 143.671 155.619L144.675 155.078C144.778 155.023 144.958 155.03 145.077 155.094L146.023 155.603C146.142 155.667 146.155 155.764 146.052 155.819" fill="#252323"/>
<path d="M148.515 154.495L147.511 155.035C147.408 155.09 147.228 155.084 147.109 155.02L146.163 154.51C146.044 154.446 146.031 154.349 146.134 154.294L147.138 153.753C147.24 153.697 147.421 153.705 147.54 153.769L148.485 154.279C148.605 154.343 148.617 154.439 148.515 154.495Z" fill="#252323"/>
<path d="M150.97 153.17L149.966 153.71C149.863 153.765 149.683 153.758 149.564 153.694L148.619 153.185C148.499 153.121 148.487 153.024 148.589 152.969L149.593 152.428C149.696 152.372 149.876 152.38 149.995 152.444L150.941 152.953C151.06 153.017 151.073 153.114 150.97 153.17" fill="#252323"/>
<path d="M131.16 166.355L130.156 166.895C130.053 166.95 129.874 166.944 129.755 166.88L128.809 166.37C128.69 166.306 128.677 166.209 128.78 166.154L129.784 165.613C129.887 165.557 130.067 165.565 130.185 165.629L131.132 166.139C131.25 166.202 131.264 166.299 131.16 166.355Z" fill="#252323"/>
<path d="M133.613 165.03L132.609 165.57C132.506 165.625 132.327 165.618 132.208 165.555L131.261 165.045C131.143 164.981 131.129 164.884 131.233 164.829L132.237 164.288C132.339 164.232 132.519 164.24 132.638 164.304L133.585 164.813C133.703 164.877 133.716 164.973 133.613 165.03Z" fill="#252323"/>
<path d="M136.079 163.704L135.075 164.244C134.972 164.3 134.792 164.293 134.674 164.229L133.727 163.719C133.609 163.656 133.595 163.558 133.699 163.503L134.703 162.963C134.805 162.908 134.985 162.914 135.104 162.978L136.049 163.488C136.169 163.552 136.181 163.649 136.079 163.704Z" fill="#252323"/>
<path d="M138.541 162.379L137.537 162.919C137.435 162.974 137.254 162.968 137.136 162.904L136.19 162.394C136.071 162.33 136.058 162.233 136.161 162.178L137.164 161.638C137.268 161.582 137.447 161.589 137.566 161.653L138.512 162.163C138.631 162.226 138.644 162.323 138.541 162.379" fill="#252323"/>
<path d="M141.001 161.053L139.997 161.594C139.894 161.65 139.714 161.642 139.596 161.578L138.649 161.069C138.53 161.005 138.517 160.908 138.62 160.852L139.624 160.312C139.727 160.257 139.907 160.264 140.026 160.327L140.972 160.837C141.091 160.901 141.103 160.998 141.001 161.053" fill="#252323"/>
<path d="M143.463 159.728L142.459 160.268C142.357 160.324 142.176 160.317 142.057 160.253L141.111 159.743C140.992 159.679 140.98 159.583 141.082 159.527L142.086 158.987C142.189 158.931 142.369 158.938 142.488 159.002L143.434 159.512C143.553 159.576 143.566 159.673 143.463 159.728Z" fill="#252323"/>
<path d="M145.929 158.403L144.925 158.944C144.822 158.999 144.642 158.992 144.523 158.928L143.577 158.419C143.458 158.354 143.446 158.258 143.548 158.203L144.552 157.661C144.655 157.606 144.835 157.613 144.953 157.678L145.9 158.186C146.019 158.251 146.032 158.347 145.929 158.403" fill="#252323"/>
<path d="M148.381 157.077L147.378 157.618C147.274 157.674 147.095 157.667 146.975 157.602L146.03 157.093C145.91 157.03 145.898 156.932 146.001 156.877L147.004 156.336C147.107 156.281 147.287 156.288 147.406 156.352L148.352 156.861C148.47 156.926 148.484 157.022 148.381 157.077" fill="#252323"/>
<path d="M150.85 155.753L149.846 156.293C149.743 156.348 149.564 156.342 149.445 156.278L148.499 155.768C148.38 155.704 148.367 155.607 148.47 155.552L149.474 155.012C149.576 154.956 149.757 154.963 149.875 155.027L150.822 155.537C150.94 155.6 150.953 155.697 150.85 155.753Z" fill="#252323"/>
<path d="M18.609 105.593L17.6052 106.134C17.5025 106.189 17.3222 106.182 17.204 106.118L16.2573 105.609C16.1391 105.545 16.1255 105.448 16.2283 105.392L17.2321 104.852C17.3358 104.797 17.5151 104.804 17.6342 104.867L18.58 105.377C18.6991 105.441 18.7117 105.538 18.609 105.593" fill="#252323"/>
<path d="M20.9353 106.851L19.9314 107.391C19.8287 107.447 19.6485 107.44 19.5293 107.376L18.5836 106.866C18.4644 106.803 18.4518 106.706 18.5545 106.65L19.5584 106.11C19.6611 106.055 19.8413 106.061 19.9595 106.125L20.9062 106.635C21.0254 106.699 21.038 106.796 20.9353 106.851" fill="#252323"/>
<path d="M18.4796 108.177L17.4757 108.717C17.373 108.772 17.1928 108.765 17.0746 108.702L16.1279 108.192C16.0087 108.128 15.9961 108.031 16.0988 107.976L17.1027 107.435C17.2054 107.38 17.3856 107.387 17.5048 107.451L18.4505 107.96C18.5697 108.024 18.5823 108.121 18.4796 108.177" fill="#252323"/>
<path d="M23.2738 108.109L22.27 108.649C22.1673 108.706 21.988 108.698 21.8688 108.634L20.9231 108.124C20.8039 108.06 20.7914 107.964 20.8941 107.908L21.8979 107.368C22.0006 107.313 22.1809 107.319 22.2991 107.383L23.2457 107.893C23.364 107.957 23.3775 108.054 23.2738 108.109" fill="#252323"/>
<path d="M20.8089 109.434L19.805 109.975C19.7013 110.03 19.5221 110.023 19.4029 109.959L18.4572 109.45C18.338 109.386 18.3254 109.289 18.4281 109.233L19.432 108.693C19.5347 108.637 19.7149 108.645 19.8331 108.708L20.7798 109.218C20.898 109.282 20.9116 109.379 20.8089 109.434" fill="#252323"/>
<path d="M25.7475 109.44L24.7437 109.981C24.64 110.036 24.4607 110.029 24.3416 109.965L23.3958 109.456C23.2767 109.391 23.2641 109.295 23.3668 109.24L24.3706 108.699C24.4733 108.643 24.6536 108.65 24.7718 108.714L25.7185 109.224C25.8367 109.288 25.8503 109.385 25.7475 109.44" fill="#252323"/>
<path d="M23.2782 110.765L22.2744 111.306C22.1707 111.362 21.9914 111.354 21.8723 111.29L20.9265 110.781C20.8074 110.717 20.7948 110.621 20.8975 110.565L21.9013 110.024C22.0041 109.969 22.1843 109.976 22.3025 110.039L23.2492 110.549C23.3684 110.613 23.381 110.71 23.2782 110.765" fill="#252323"/>
<path d="M28.2057 108.115L27.2018 108.656C27.0991 108.711 26.9199 108.704 26.8007 108.64L25.855 108.131C25.7358 108.066 25.7232 107.97 25.8259 107.915L26.8297 107.373C26.9324 107.318 27.1127 107.325 27.2309 107.389L28.1776 107.898C28.2958 107.962 28.3094 108.059 28.2057 108.115" fill="#252323"/>
<path d="M30.6755 106.789L29.6717 107.33C29.5689 107.386 29.3897 107.379 29.2705 107.314L28.3238 106.805C28.2056 106.741 28.192 106.644 28.2957 106.589L29.2996 106.048C29.4023 105.993 29.5816 105.999 29.7007 106.064L30.6474 106.573C30.7656 106.637 30.7792 106.734 30.6755 106.789Z" fill="#252323"/>
<path d="M33.1278 105.464L32.1239 106.005C32.0212 106.06 31.841 106.054 31.7228 105.99L30.7761 105.48C30.6579 105.416 30.6443 105.319 30.748 105.264L31.7518 104.723C31.8545 104.667 32.0338 104.675 32.153 104.739L33.0987 105.248C33.2179 105.312 33.2305 105.408 33.1278 105.464" fill="#252323"/>
<path d="M35.5905 104.139L34.5866 104.679C34.4839 104.735 34.3037 104.728 34.1855 104.664L33.2388 104.155C33.1206 104.091 33.107 103.994 33.2097 103.938L34.2136 103.398C34.3173 103.342 34.4965 103.35 34.6157 103.413L35.5614 103.923C35.6806 103.987 35.6932 104.083 35.5905 104.139" fill="#252323"/>
<path d="M38.0601 102.814L37.0563 103.354C36.9535 103.409 36.7733 103.403 36.6551 103.339L35.7084 102.829C35.5892 102.765 35.5766 102.668 35.6793 102.613L36.6832 102.073C36.7869 102.017 36.9661 102.024 37.0853 102.088L38.031 102.598C38.1502 102.662 38.1628 102.759 38.0601 102.814" fill="#252323"/>
<path d="M40.509 101.489L39.5051 102.029C39.4024 102.084 39.2222 102.077 39.103 102.014L38.1573 101.504C38.0381 101.44 38.0255 101.343 38.1282 101.287L39.132 100.747C39.2347 100.692 39.415 100.699 39.5342 100.763L40.4799 101.272C40.5991 101.336 40.6117 101.433 40.509 101.489Z" fill="#252323"/>
<path d="M28.0798 110.698L27.076 111.239C26.9732 111.294 26.794 111.287 26.6748 111.223L25.7281 110.713C25.6099 110.649 25.5963 110.553 25.7 110.497L26.7039 109.957C26.8066 109.901 26.9858 109.908 27.105 109.972L28.0517 110.482C28.1699 110.545 28.1825 110.642 28.0798 110.698Z" fill="#252323"/>
<path d="M30.5457 109.372L29.5419 109.914C29.4392 109.969 29.2589 109.962 29.1407 109.898L28.194 109.389C28.0758 109.325 28.0622 109.228 28.1659 109.172L29.1698 108.631C29.2725 108.576 29.4517 108.583 29.5709 108.647L30.5166 109.156C30.6358 109.221 30.6484 109.317 30.5457 109.372" fill="#252323"/>
<path d="M33.0085 108.047L32.0046 108.588C31.9019 108.643 31.7217 108.637 31.6034 108.573L30.6567 108.063C30.5385 107.999 30.525 107.902 30.6277 107.847L31.6315 107.306C31.7352 107.25 31.9145 107.258 32.0337 107.322L32.9794 107.831C33.0986 107.896 33.1112 107.992 33.0085 108.047" fill="#252323"/>
<path d="M35.4678 106.722L34.464 107.263C34.3612 107.318 34.181 107.311 34.0628 107.248L33.1161 106.738C32.9969 106.674 32.9843 106.577 33.087 106.522L34.0909 105.98C34.1946 105.925 34.3738 105.933 34.493 105.997L35.4387 106.506C35.5579 106.57 35.5705 106.666 35.4678 106.722" fill="#252323"/>
<path d="M37.9303 105.397L36.9265 105.937C36.8238 105.993 36.6435 105.986 36.5244 105.922L35.5786 105.412C35.4594 105.349 35.4469 105.251 35.5496 105.196L36.5534 104.656C36.6561 104.6 36.8364 104.607 36.9556 104.671L37.9013 105.181C38.0205 105.245 38.033 105.342 37.9303 105.397Z" fill="#252323"/>
<path d="M40.3963 104.072L39.3924 104.612C39.2887 104.667 39.1095 104.661 38.9903 104.597L38.0446 104.087C37.9254 104.023 37.9128 103.926 38.0155 103.871L39.0194 103.331C39.1221 103.275 39.3023 103.282 39.4205 103.346L40.3672 103.856C40.4864 103.919 40.499 104.016 40.3963 104.072" fill="#252323"/>
<path d="M102.55 141.89L101.546 142.43C101.442 142.486 101.263 142.479 101.144 142.415L100.198 141.905C100.079 141.841 100.066 141.744 100.169 141.689L101.173 141.149C101.276 141.093 101.456 141.1 101.574 141.164L102.521 141.674C102.639 141.738 102.653 141.834 102.55 141.89" fill="#252323"/>
<path d="M104.889 143.148L103.885 143.688C103.782 143.743 103.603 143.737 103.484 143.673L102.537 143.163C102.419 143.099 102.406 143.002 102.509 142.947L103.513 142.407C103.616 142.35 103.795 142.358 103.914 142.422L104.861 142.932C104.979 142.995 104.992 143.092 104.889 143.148Z" fill="#252323"/>
<path d="M102.429 144.473L101.426 145.013C101.323 145.069 101.144 145.062 101.024 144.998L100.079 144.488C99.9595 144.425 99.9469 144.328 100.05 144.272L101.053 143.732C101.156 143.676 101.336 143.683 101.455 143.747L102.401 144.257C102.52 144.321 102.533 144.417 102.429 144.473Z" fill="#252323"/>
<path d="M107.225 144.406L106.221 144.946C106.119 145.001 105.938 144.994 105.82 144.931L104.874 144.421C104.755 144.357 104.742 144.26 104.845 144.205L105.848 143.665C105.952 143.609 106.131 143.616 106.251 143.68L107.196 144.189C107.315 144.253 107.328 144.35 107.225 144.406" fill="#252323"/>
<path d="M104.766 145.731L103.762 146.271C103.659 146.327 103.479 146.32 103.361 146.256L102.414 145.746C102.296 145.682 102.283 145.585 102.386 145.53L103.39 144.989C103.493 144.934 103.672 144.941 103.791 145.005L104.737 145.515C104.856 145.579 104.869 145.675 104.766 145.731Z" fill="#252323"/>
<path d="M109.695 145.737L108.691 146.277C108.588 146.332 108.408 146.325 108.29 146.262L107.343 145.752C107.225 145.688 107.211 145.591 107.314 145.536L108.318 144.995C108.421 144.94 108.601 144.947 108.72 145.011L109.666 145.52C109.785 145.584 109.797 145.681 109.695 145.737" fill="#252323"/>
<path d="M107.235 147.062L106.232 147.602C106.129 147.658 105.949 147.651 105.83 147.587L104.884 147.077C104.765 147.013 104.752 146.916 104.856 146.861L105.859 146.321C105.962 146.265 106.141 146.272 106.261 146.336L107.206 146.846C107.326 146.91 107.338 147.007 107.235 147.062Z" fill="#252323"/>
<path d="M112.158 144.411L111.154 144.952C111.051 145.008 110.871 145.001 110.753 144.936L109.806 144.427C109.687 144.363 109.674 144.266 109.777 144.211L110.781 143.67C110.884 143.615 111.064 143.621 111.183 143.686L112.128 144.195C112.248 144.259 112.26 144.356 112.158 144.411" fill="#252323"/>
<path d="M114.62 143.086L113.616 143.627C113.514 143.682 113.333 143.676 113.214 143.611L112.268 143.102C112.149 143.037 112.137 142.941 112.239 142.886L113.243 142.345C113.346 142.289 113.526 142.296 113.645 142.361L114.591 142.87C114.71 142.934 114.723 143.03 114.62 143.086Z" fill="#252323"/>
<path d="M117.086 141.76L116.082 142.302C115.979 142.357 115.799 142.35 115.68 142.285L114.734 141.777C114.615 141.712 114.603 141.616 114.705 141.56L115.709 141.019C115.812 140.964 115.992 140.971 116.11 141.035L117.057 141.544C117.176 141.609 117.189 141.705 117.086 141.76" fill="#252323"/>
<path d="M119.538 140.435L118.534 140.976C118.431 141.031 118.251 141.025 118.132 140.961L117.186 140.451C117.067 140.387 117.055 140.29 117.157 140.235L118.161 139.694C118.264 139.638 118.444 139.646 118.562 139.71L119.509 140.219C119.628 140.284 119.641 140.38 119.538 140.435" fill="#252323"/>
<path d="M112.035 146.994L111.031 147.535C110.928 147.591 110.748 147.583 110.629 147.519L109.683 147.01C109.564 146.946 109.551 146.849 109.654 146.793L110.658 146.253C110.76 146.198 110.941 146.205 111.06 146.268L112.005 146.778C112.125 146.842 112.137 146.939 112.035 146.994Z" fill="#252323"/>
<path d="M114.49 145.669L113.486 146.21C113.383 146.265 113.203 146.259 113.084 146.194L112.139 145.685C112.019 145.621 112.007 145.524 112.109 145.469L113.113 144.928C113.216 144.873 113.396 144.879 113.514 144.944L114.461 145.453C114.58 145.517 114.593 145.614 114.49 145.669" fill="#252323"/>
<path d="M116.96 144.344L115.956 144.885C115.852 144.94 115.673 144.932 115.554 144.869L114.608 144.359C114.489 144.295 114.476 144.199 114.579 144.143L115.583 143.602C115.685 143.547 115.866 143.554 115.984 143.618L116.931 144.127C117.049 144.191 117.062 144.288 116.96 144.344" fill="#252323"/>
<path d="M119.414 143.019L118.41 143.559C118.308 143.615 118.128 143.608 118.009 143.544L117.064 143.034C116.944 142.971 116.932 142.873 117.035 142.818L118.038 142.277C118.141 142.222 118.321 142.229 118.44 142.293L119.386 142.803C119.504 142.867 119.518 142.963 119.414 143.019Z" fill="#252323"/>
<path d="M166.193 53.5903C166.239 53.4556 166.174 53.3146 166.04 53.2478L157.955 49.1781C156.641 48.6503 155.008 48.7877 153.233 49.743L149 52.0232C147.85 52.6422 146.918 54.3034 146.918 55.7331V80.8767C146.918 81.6286 147.18 82.1582 147.592 82.4104L155.36 86.3607C155.508 86.4357 155.69 86.3932 155.779 86.2595C156.769 84.7556 162.162 76.5404 162.018 76.403C161.871 76.2648 165.612 55.3436 166.193 53.5903" fill="#01BBFF"/>
<path d="M156.334 49.3571C155.461 49.3571 154.495 49.6273 153.492 50.1677L149.259 52.447C148.272 52.9784 147.439 54.4832 147.439 55.7331V80.8767C147.439 81.4135 147.602 81.8337 147.875 82.0009L155.432 85.8419C158.25 81.559 161.322 76.7935 161.509 76.2964L161.521 76.3009C161.541 75.5264 161.919 73.2119 163.311 65.5208C164.212 60.5357 165.275 54.9215 165.64 53.6047L157.702 49.6092C157.28 49.4411 156.822 49.3571 156.334 49.3571V49.3571ZM155.509 86.8876C155.372 86.8876 155.233 86.8559 155.104 86.7909L147.335 82.8405C146.712 82.46 146.389 81.7705 146.389 80.8767V55.7331C146.389 54.1226 147.419 52.3069 148.734 51.5984L152.966 49.3191C154.83 48.3159 156.623 48.1126 158.158 48.728L166.285 52.8167C166.638 52.9947 166.809 53.3815 166.691 53.7358C166.11 55.4827 162.547 75.6023 162.535 76.3732H162.525C162.46 76.9498 161.345 78.7311 156.222 86.5152C156.066 86.7547 155.792 86.8876 155.509 86.8876" fill="#252323"/>
<path d="M156.529 61.1368L164.825 56.6695L152.598 50.0856L149 52.0232C147.85 52.6423 146.918 54.3034 146.918 55.7332V55.96L156.529 61.1368" fill="white"/>
<path d="M147.439 55.6779L156.526 60.5709L163.771 56.6694L152.594 50.6503L149.259 52.447C148.287 52.9703 147.464 54.4389 147.439 55.6779ZM156.526 61.7015L146.389 56.2428V55.7331C146.389 54.1226 147.419 52.3069 148.734 51.5984L152.594 49.5197L165.871 56.6694L156.526 61.7015" fill="#252323"/>
<path d="M167.019 81.0259L157.019 86.4105C155.87 87.0296 154.938 86.3725 154.938 84.9428V59.7983C154.938 58.3686 155.87 56.7075 157.019 56.0884L161.252 53.8091C165.587 51.4747 169.1 53.9528 169.1 59.3428V77.3159C169.1 78.7457 168.169 80.4068 167.019 81.0259" fill="#252323"/>
<path d="M164.361 53.424C163.476 53.424 162.504 53.6951 161.506 54.2328L157.271 56.513C156.285 57.0444 155.453 58.5483 155.453 59.7982V84.9427C155.453 85.5057 155.623 85.9341 155.909 86.0886C156.178 86.2332 156.512 86.1121 156.746 85.9865L166.746 80.601C167.733 80.0696 168.566 78.5648 168.566 77.3158V59.3427C168.566 56.6884 167.672 54.6856 166.115 53.8469C165.59 53.564 164.998 53.424 164.361 53.424V53.424ZM156.181 87.1343C155.898 87.1343 155.629 87.0683 155.384 86.9373C154.76 86.6002 154.401 85.8735 154.401 84.9427V59.7982C154.401 58.1886 155.431 56.3729 156.746 55.6644L160.981 53.3842C163.037 52.2771 165.048 52.1397 166.641 52.9983C168.532 54.0168 169.616 56.3287 169.616 59.3427V77.3158C169.616 78.9254 168.586 80.7411 167.271 81.4496L157.271 86.8342C156.9 87.034 156.531 87.1343 156.181 87.1343" fill="#252323"/>
<path d="M136.112 86.3589V63.8896L106.972 60.8674L108.114 75.9286L132.175 85.7949L136.112 86.3589" fill="#01BBFF"/>
<path d="M132.324 85.3207L135.587 85.7889V64.3281L107.54 61.4198L108.617 75.5989L132.324 85.3207ZM136.639 86.9303L131.964 86.2434L107.614 76.2578L106.405 60.3163L136.639 63.4515V86.9303" fill="#252323"/>
<path d="M131.703 73.6022L121.801 68.1806L122.333 67.3355L132.234 72.7572L131.703 73.6022" fill="#252323"/>
<path d="M41.632 89.3639C41.3452 89.241 40.9702 89.269 40.5555 89.4931L36.2057 91.8348C35.73 92.0914 35.2755 92.2406 34.8531 92.3038L35.6244 40.0375L32.2291 40.9403V30.2669L28.5702 32.1576V91.5835C28.5702 93.9396 26.7815 96.8308 24.5936 98.0084L20.3989 100.268C19.6179 100.688 19.0152 101.364 18.7623 102.171C18.4745 103.093 18.677 103.72 19.1237 103.943L23.9899 106.403C24.0461 106.431 24.1139 106.429 24.1672 106.396L32.6826 101.204L44.8093 93.9767L46.5331 92.0725C46.6048 91.9938 46.5806 91.8745 46.4837 91.8248L41.632 89.3639" fill="#01BBFF"/>
<path d="M29.1041 32.4461V91.5837C29.1041 94.1016 27.202 97.1744 24.8648 98.4324L20.6701 100.692C19.9909 101.057 19.4831 101.646 19.2758 102.309C19.0606 102.992 19.1798 103.412 19.3814 103.512L24.0644 105.879L32.4044 100.795L44.4681 93.6045L45.8635 92.0636L41.4091 89.8042C41.2686 89.7518 41.0583 89.7916 40.8267 89.9172L36.477 92.2597C35.9644 92.5345 35.4499 92.7125 34.945 92.7875L34.3288 92.8797L34.3365 92.2977L35.0981 40.6893L31.7116 41.5894V31.0986L29.1041 32.4461ZM24.0809 106.912C23.9675 106.912 23.8542 106.887 23.7505 106.836L18.8824 104.375C18.3203 104.093 17.862 103.329 18.267 102.034C18.5539 101.118 19.2205 100.341 20.1449 99.8432L24.3396 97.5838C26.3532 96.5002 28.0537 93.7527 28.0537 91.5837V31.8695L32.7629 29.4366V40.2916L36.1679 39.3861L35.3966 91.6614C35.5797 91.5955 35.7648 91.5114 35.9508 91.4111L40.3015 89.0685C40.848 88.7748 41.4023 88.7215 41.8616 88.9203L41.8916 88.9348L46.7433 91.3957C46.9293 91.4897 47.0572 91.6542 47.096 91.8467C47.1357 92.0401 47.0795 92.2371 46.9438 92.3881L45.0999 94.3899L32.9741 101.617L24.4636 106.806C24.3483 106.877 24.2146 106.912 24.0809 106.912" fill="#252323"/>
<path d="M32.3612 98.2598L27.2131 95.5214L27.2043 95.515C26.5028 96.5598 25.5939 97.4681 24.59 98.0085L20.3944 100.268C20.0591 100.448 19.8382 100.719 19.5814 100.984L24.3585 103.512L25.8633 104.383L29.1336 103.367L31.6442 101.836L32.3612 98.2598" fill="white"/>
<path d="M20.4147 100.863L24.6172 103.087L25.9301 103.846L28.903 102.922L31.1684 101.54L31.7769 98.5129L27.371 96.1685C26.6385 97.1509 25.7577 97.9453 24.8526 98.4324L20.657 100.692C20.5707 100.738 20.4913 100.796 20.4147 100.863V100.863ZM25.7945 104.921L24.0813 103.929L18.7549 101.109L19.313 100.528C19.531 100.297 19.7781 100.034 20.1328 99.8432L24.3275 97.5838C25.2044 97.112 26.0677 96.2851 26.7596 95.2548L27.0668 94.7966L27.5251 95.1274L32.9465 98.0068L32.119 102.132L29.2993 103.831L25.7945 104.921" fill="#252323"/>
<path d="M41.6312 89.3477C41.3444 89.2247 40.9695 89.2528 40.5547 89.4769L36.205 91.8185C35.7292 92.0752 35.2748 92.2243 34.8523 92.2876L34.5887 93.0973L39.5557 95.5438L40.7388 96.3861L44.8085 93.9604L46.5323 92.0562C46.604 91.9776 46.5798 91.8583 46.4829 91.8086L41.6312 89.3477" fill="white"/>
<path d="M35.2215 92.8533L39.8793 95.1551L40.7708 95.7887L44.4636 93.588L45.8589 92.0471L41.4045 89.7877C41.2669 89.7344 41.0537 89.776 40.8222 89.9007L36.4724 92.2423C36.0703 92.4583 35.6672 92.6147 35.269 92.7078L35.2215 92.8533ZM40.7175 96.9825L39.2766 95.9586L33.9637 93.3422L34.4502 91.8519L34.7748 91.8031C35.1517 91.748 35.5461 91.6106 35.9463 91.3946L40.297 89.052C40.8425 88.7583 41.3967 88.7059 41.856 88.9029L41.8871 88.9174L46.7387 91.3783C46.9257 91.4741 47.0536 91.6386 47.0924 91.8329C47.1302 92.0254 47.074 92.2224 46.9383 92.3716L45.0953 94.3734L40.7175 96.9825Z" fill="#252323"/>
<path d="M37.1497 92.1865V32.7596L33.4918 34.6503V94.0771C33.4918 96.4423 31.7118 99.3189 29.5151 100.501L25.1654 102.844C24.273 103.324 23.5501 104.493 23.5501 105.454C23.5501 106.414 24.273 106.804 25.1654 106.323L33.4918 101.84L37.1497 99.9498L45.4761 95.4653C46.3685 94.9854 47.0923 93.8168 47.0923 92.8552C47.0923 91.8945 46.3685 91.505 45.4761 91.9858L41.1263 94.3284C38.9306 95.5105 37.1497 94.5516 37.1497 92.1865" fill="#252323"/>
<path d="M34.0162 34.9385V94.077C34.0162 96.6365 32.1538 99.6451 29.777 100.926L25.4272 103.267C24.6937 103.662 24.0745 104.664 24.0745 105.454C24.0745 105.727 24.153 105.933 24.2848 106.005C24.4146 106.075 24.6472 106.037 24.902 105.899L33.2284 101.416L36.8941 99.5213L45.2137 95.0413C45.9472 94.6464 46.5664 93.6459 46.5664 92.8561C46.5664 92.5813 46.4879 92.3753 46.3551 92.3039C46.2224 92.2325 45.9927 92.2722 45.7389 92.4096L41.3882 94.7521C40.1566 95.4146 38.9725 95.5077 38.052 95.0115C37.1305 94.5163 36.6237 93.5131 36.6237 92.1864V33.591L34.0162 34.9385ZM24.4398 107.017C24.1956 107.017 23.9641 106.963 23.7596 106.854C23.2916 106.601 23.0242 106.091 23.0242 105.454C23.0242 104.319 23.8488 102.986 24.902 102.419L29.2518 100.077C31.2992 98.9736 32.9658 96.2822 32.9658 94.077V34.3619L37.6741 31.929V92.1864C37.6741 93.148 37.9948 93.8502 38.5762 94.1638C39.1586 94.4774 39.9706 94.3834 40.863 93.9035L45.2137 91.5619C45.8057 91.2428 46.4133 91.204 46.8813 91.4561C47.3483 91.7083 47.6167 92.218 47.6167 92.8561C47.6167 93.9903 46.7921 95.3224 45.7389 95.89L37.4115 100.374L33.7459 102.268L25.4272 106.748C25.0939 106.927 24.7557 107.017 24.4398 107.017" fill="#252323"/>
<path d="M33.219 91.2474L28.2976 88.3861L28.8538 87.5546L33.7743 90.4159L33.219 91.2474Z" fill="#252323"/>
<path d="M33.219 78.854L28.2976 75.9927L28.8538 75.1612L33.7743 78.0225L33.219 78.854Z" fill="#252323"/>
<path d="M34.2483 52.9441L33.8442 52.2916L36.5912 50.8121L36.9953 51.4646L34.2483 52.9441Z" fill="#01BBFF"/>
<path d="M48.3903 12.3091C48.1761 12.1989 47.8835 12.216 47.5589 12.3905L13.0934 31.0007C12.3057 31.4255 11.5586 32.2082 11.0596 33.1345L1.22446 51.3905C0.903728 51.9861 0.728333 52.6088 0.728333 53.1546V57.1204C0.728333 57.4213 0.829102 57.6409 0.990921 57.7729L1.02096 57.7964C1.05875 57.8235 9.90454 62.4959 10.7941 62.9695C10.826 62.9876 10.8658 62.9767 10.8861 62.9478L14.1777 58.0783C14.1796 58.0738 14.1835 58.0702 14.1864 58.0666L40.6637 33.3713L55.4531 23.1877C55.458 23.1823 55.4619 23.1769 55.4648 23.1705L58.2302 17.5898C58.2457 17.5591 58.2331 17.5229 58.2021 17.5058L48.3903 12.3091" fill="#01BBFF"/>
<path d="M48.0882 12.7296C48.0329 12.7296 47.9409 12.7513 47.8217 12.8145L13.3553 31.4248C12.6605 31.7998 11.9774 32.5201 11.5287 33.3543L1.69267 51.6103C1.40972 52.1372 1.25372 52.6858 1.25372 53.1548V57.1205C1.25372 57.2805 1.29636 57.3718 1.33512 57.4043C1.42039 57.4486 4.181 58.9082 6.61506 60.196C8.29624 61.0853 9.91345 61.9403 10.6741 62.3425L13.7942 57.7423L40.2918 33.0253L55.0386 22.8635L57.5774 17.7391L48.1357 12.7377C48.125 12.7323 48.1095 12.7296 48.0882 12.7296V12.7296ZM10.8262 63.4686C10.7264 63.4686 10.6247 63.4451 10.5317 63.3954C10.1363 63.1839 8.16638 62.1418 6.09762 61.0483C0.751787 58.2213 0.748886 58.2195 0.702375 58.1861C0.44269 57.9773 0.202393 57.6664 0.202393 57.1205V53.1548C0.202393 52.5367 0.399089 51.8317 0.753734 51.1711L10.5898 32.9151C11.1353 31.902 11.9512 31.0497 12.8301 30.577L47.2965 11.9668C47.7645 11.7146 48.2549 11.6821 48.6424 11.88L48.6492 11.8827L58.461 17.0803C58.7323 17.2231 58.8389 17.5412 58.7013 17.8042L55.7634 23.5819L40.9749 33.7655L14.5926 58.3795L11.3291 63.2092C11.2157 63.3764 11.0239 63.4686 10.8262 63.4686" fill="#252323"/>
<path d="M0.990921 57.7729L1.02096 57.7964C1.05875 57.8235 9.90454 62.4959 10.7941 62.9695C10.826 62.9876 10.8658 62.9767 10.8861 62.9478L11.9142 61.4268C11.1729 60.1489 10.5993 59.1945 10.5993 59.1945L0.728333 53.9021V57.1204C0.728333 57.4213 0.829102 57.6409 0.990921 57.7729" fill="#252323"/>
<path d="M1.33124 57.4007L1.35061 57.4152C1.42038 57.4486 4.181 58.9082 6.61506 60.196C8.29624 61.0853 9.91345 61.9403 10.6741 62.3434L11.3059 61.408C10.7865 60.5178 10.3708 59.8192 10.2109 59.5517L1.25372 54.7491V57.1205C1.25372 57.2742 1.29248 57.3655 1.33124 57.4007V57.4007ZM10.8262 63.4686C10.7264 63.4686 10.6247 63.4451 10.5317 63.3954C10.1363 63.1839 8.16639 62.1418 6.09762 61.0483C0.751787 58.2213 0.748886 58.2195 0.702375 58.1861L0.644251 58.1418C0.442704 57.9773 0.202393 57.6664 0.202393 57.1205V53.0554L10.9861 58.8377L11.0569 58.9552C11.0569 58.9552 11.6314 59.9122 12.3756 61.1938L12.5219 61.4459L11.3291 63.2092C11.2157 63.3764 11.0239 63.4686 10.8262 63.4686" fill="#252323"/>
<path d="M20.9216 38.3636L56.2534 20.667L44.2032 14.1925L13.0836 31.0006C12.2958 31.4254 11.5488 32.2081 11.0497 33.1344L20.9216 38.3636" fill="white"/>
<path d="M11.7717 32.9484L20.9382 37.8044L55.1827 20.6519L44.2139 14.7575L13.3569 31.4247C12.7765 31.7374 12.2058 32.2905 11.7717 32.9484V32.9484ZM20.9236 38.9232L10.3666 33.3307L10.5905 32.915C11.136 31.9019 11.9519 31.0496 12.8307 30.577L44.212 13.6269L57.3425 20.6817L20.9236 38.9232" fill="#252323"/>
<path d="M57.4236 38.3638L11.7839 62.9913C11.1259 63.3456 10.592 63.0582 10.592 62.3496V58.3848C10.592 57.839 10.7674 57.2154 11.0881 56.6198L20.9242 38.3638C21.4223 37.4384 22.1693 36.6548 22.9571 36.2309L57.4236 17.6207C58.0815 17.2664 58.6145 17.5529 58.6145 18.2623V36.4397C58.6145 37.1482 58.0815 38.0095 57.4236 38.3638Z" fill="#252323"/>
<path d="M57.965 17.9586C57.9098 17.9586 57.8158 17.9794 57.6957 18.0445L23.2302 36.6547C22.5345 37.0289 21.8514 37.7501 21.4027 38.5843L11.5676 56.8403C11.2837 57.3662 11.1267 57.9148 11.1267 58.3848V62.3496C11.1267 62.5312 11.18 62.627 11.213 62.6451C11.2459 62.6623 11.3612 62.6578 11.5298 62.5665L57.1695 37.9399C57.6647 37.6733 58.0987 36.972 58.0987 36.4396V18.2623C58.0987 18.0806 58.0455 17.9848 58.0125 17.9667C58.0029 17.9613 57.9873 17.9586 57.965 17.9586V17.9586ZM11.2585 63.632C11.054 63.632 10.8603 63.5859 10.6878 63.4929C10.2992 63.2841 10.0764 62.8674 10.0764 62.3496V58.3848C10.0764 57.7648 10.2731 57.0599 10.6287 56.4001L20.4638 38.1432C21.0093 37.131 21.8262 36.2797 22.704 35.807L57.1695 17.1967C57.6501 16.9374 58.1491 16.9093 58.5367 17.1181C58.9263 17.3278 59.1491 17.7444 59.1491 18.2623V36.4396C59.1491 37.3172 58.5106 38.3484 57.6957 38.7876L12.056 63.4151C11.7886 63.5588 11.5153 63.632 11.2585 63.632" fill="#252323"/>
<path d="M11.004 62.3495H10.1959V59.3816H11.004V62.3495Z" fill="#01BBFF"/>
<path d="M11.4429 56.2745L1.5719 51.0444L2.09128 50.1931L11.9612 55.4231L11.4429 56.2745" fill="#252323"/>
<path d="M18.8305 42.5925L8.95953 37.3625L9.47891 36.5111L19.3499 41.7412L18.8305 42.5925Z" fill="#252323"/>
<path d="M145.705 94.4793C145.704 94.4612 145.705 91.8746 145.705 91.8746C145.705 91.8014 145.647 91.7391 145.57 91.7264L139.878 90.8443C139.86 90.8416 139.841 90.8353 139.825 90.8263L50.1046 42.4136C49.2199 41.9364 47.8808 41.8849 47.1143 42.2979L23.3812 55.2027C23.3657 55.2108 23.3483 55.2172 23.3299 55.2199L16.9026 56.3279C16.8261 56.3405 16.7709 56.4029 16.7709 56.4752V59.0211V59.0925C16.7631 59.4223 16.8968 59.7992 17.4724 60.1101L112.348 111.299C113.233 111.775 114.571 111.828 115.338 111.415L145.195 95.2131C145.556 95.0179 145.719 94.754 145.705 94.4802V94.4793" fill="#01BBFF"/>
<path d="M17.2953 56.7579L17.2944 59.1041C17.2905 59.2722 17.3399 59.4737 17.7333 59.6861L112.61 110.875C113.323 111.259 114.475 111.313 115.074 110.991L144.929 94.7891C145.026 94.7367 145.185 94.6318 145.179 94.5044V94.499C145.178 94.4863 145.177 94.4719 145.178 92.1628L139.693 91.3123L139.555 91.2473L49.8403 42.8373C49.1281 42.4523 47.975 42.3971 47.3752 42.7216L23.5627 55.6698L23.4183 55.7023L17.2953 56.7579ZM114.034 112.181C113.356 112.182 112.648 112.027 112.083 111.723L17.2081 60.5338C16.3932 60.0955 16.2353 59.5017 16.245 59.0815V56.475C16.245 56.1659 16.4814 55.9011 16.807 55.846L23.1702 54.7489L46.8481 41.8748C47.7754 41.375 49.3209 41.4256 50.3655 41.9895L140.03 90.3715L145.654 91.2437C145.986 91.2943 146.228 91.5591 146.228 91.8745C146.228 91.8745 146.227 94.302 146.228 94.4665C146.248 94.9346 145.968 95.3603 145.456 95.6368L115.601 111.838C115.173 112.068 114.614 112.181 114.034 112.181" fill="#252323"/>
<path d="M18.6577 55.9701L16.8719 56.2774C16.7954 56.2909 16.7401 56.3524 16.7401 56.4247V58.9715V59.0429C16.7324 59.3728 16.8651 59.7496 17.4417 60.0596L18.6577 60.7148V55.9701Z" fill="#252323"/>
<path d="M113.922 111.692C114.448 111.707 114.957 111.618 115.33 111.417L145.187 95.215C145.548 95.0198 145.711 94.7559 145.697 94.482C145.696 94.4631 145.697 91.8765 145.697 91.8765C145.697 91.8033 145.639 91.7409 145.562 91.7283L139.87 90.8462C139.852 90.8435 139.833 90.8372 139.817 90.8281L119.134 79.6911L113.922 74.9689V111.692Z" fill="#252323"/>
<path d="M145.194 92.5352L115.337 108.738C114.571 109.15 113.232 109.098 112.347 108.622L17.4715 57.4322C16.5868 56.9559 16.4909 56.2347 17.2574 55.8226L47.1134 39.6199C47.8799 39.2078 49.219 39.2593 50.1037 39.7356L144.979 90.9256C145.865 91.4019 145.96 92.1231 145.194 92.5352Z" fill="white"/>
<path d="M48.4007 39.8334C48.0073 39.8334 47.6352 39.9021 47.3716 40.0449L17.5166 56.2457C17.4381 56.2873 17.2598 56.3966 17.2598 56.5213C17.2598 56.6298 17.3828 56.8214 17.7297 57.0085L112.606 108.198C113.319 108.583 114.472 108.637 115.07 108.313L144.927 92.1115C145.004 92.0708 145.182 91.9615 145.182 91.8368C145.182 91.7283 145.059 91.5358 144.713 91.3496L49.8367 40.1596C49.4375 39.9445 48.9007 39.8334 48.4007 39.8334V39.8334ZM114.03 109.504C113.352 109.504 112.644 109.35 112.08 109.046L17.2046 57.8562C16.5718 57.5164 16.2104 57.0293 16.2104 56.5213C16.2104 56.0749 16.4943 55.6655 16.9894 55.398L46.8445 39.1971C47.7718 38.6983 49.3174 38.7489 50.3619 39.3119L145.238 90.5019C145.87 90.8417 146.232 91.3279 146.232 91.8368C146.232 92.2832 145.947 92.6926 145.452 92.9601L115.597 109.161C115.17 109.391 114.611 109.504 114.03 109.504" fill="#252323"/>
<path d="M108.199 137.592L107.648 136.758L119.055 130.206C120.763 129.246 122.88 129.247 124.584 130.206L127.12 131.814C128.461 132.567 130.16 132.57 131.528 131.806L135.421 129.63C140.03 127.055 145.796 126.986 150.472 129.454L158.135 133.468C158.7 133.764 159.37 133.76 159.927 133.457C160.486 133.153 160.818 132.612 160.818 132.009V84.0761H161.87V132.009C161.87 132.964 161.341 133.822 160.457 134.304C159.571 134.784 158.511 134.792 157.62 134.32L149.955 130.307C145.607 128.012 140.245 128.075 135.96 130.471L132.068 132.646C130.363 133.598 128.251 133.593 126.553 132.637L124.018 131.03C122.674 130.275 120.972 130.272 119.601 131.042L108.199 137.592" fill="#252323"/>
<path d="M161.884 119.955H160.833V116.34C160.833 114.491 161.42 112.704 162.53 111.173C163.523 109.804 164.047 108.207 164.047 106.556V82.3453H165.098V106.556C165.098 108.403 164.511 110.19 163.4 111.722C162.407 113.09 161.884 114.687 161.884 116.34V119.955Z" fill="#252323"/>
<path d="M161.879 129.262H160.828V127.318C160.828 125.842 160.335 124.432 159.401 123.24C158.333 121.879 157.769 120.269 157.769 118.583V84.4556H158.82V118.583C158.82 120.06 159.314 121.47 160.248 122.661C161.315 124.022 161.879 125.633 161.879 127.318V129.262" fill="#252323"/>
<path d="M118.118 134.221L113.292 133.808C113.285 133.807 113.277 133.805 113.269 133.801L112.106 133.8C110.713 133.05 110.172 133.202 108.966 133.852L107.852 134.454L107.676 134.448L101.663 135.394C101.636 135.398 101.616 135.42 101.616 135.445L101.609 138.454C101.609 139.007 101.951 139.475 102.762 139.912L106.108 141.698C107.502 142.448 109.609 142.53 110.817 141.88L117.357 138.355C117.874 138.078 118.14 137.71 118.168 137.322V134.273C118.168 134.246 118.146 134.223 118.118 134.221" fill="#01BBFF"/>
<path d="M102.14 135.814L102.135 138.453C102.135 138.711 102.235 139.063 103.024 139.487L106.368 141.272C107.596 141.934 109.511 142.015 110.553 141.456L117.095 137.931C117.333 137.803 117.622 137.587 117.643 137.289L117.642 134.672L113.19 134.291H111.965L111.843 134.225C110.632 133.573 110.301 133.698 109.228 134.275L107.984 134.947L107.711 134.939L102.14 135.814ZM108.765 142.809C107.752 142.809 106.69 142.577 105.845 142.123L102.5 140.337C101.547 139.823 101.083 139.207 101.083 138.453L101.091 135.033L101.571 134.911L107.64 133.957L107.718 133.959L108.701 133.428C109.978 132.742 110.714 132.518 112.243 133.31L113.437 133.328L118.642 133.77L118.693 134.273V137.322C118.649 137.923 118.269 138.43 117.62 138.779L111.078 142.304C110.449 142.642 109.624 142.809 108.765 142.809" fill="#252323"/>
<path d="M108.628 142.313C109.446 142.332 110.236 142.192 110.816 141.88L115.989 139.052V134.28L113.292 133.807C113.284 133.806 113.276 133.805 113.268 133.8L113.138 134.852L108.628 134.253V142.313" fill="#252323"/>
<path d="M109.153 134.817V141.812C109.703 141.774 110.187 141.652 110.552 141.456L115.462 138.772V134.687L113.723 134.382L113.595 135.407L109.153 134.817ZM108.773 142.804C108.72 142.804 108.667 142.803 108.614 142.802L108.102 142.79V133.688L112.677 134.296L112.836 133.017L113.46 133.341L116.513 133.874V139.333L111.08 142.303C110.475 142.628 109.661 142.804 108.773 142.804" fill="#252323"/>
<path d="M113.674 131.045L117.02 132.831C118.413 133.581 118.564 134.716 117.357 135.366L110.817 138.891C109.609 139.541 107.502 139.459 106.108 138.709L102.762 136.923C101.369 136.172 101.217 135.037 102.424 134.388L108.966 130.863C110.172 130.213 112.281 130.294 113.674 131.045Z" fill="#01BBFF"/>
<path d="M111.003 130.914C110.329 130.914 109.692 131.037 109.228 131.287L102.686 134.811C102.434 134.947 102.134 135.175 102.134 135.488C102.134 135.821 102.466 136.199 103.024 136.499L106.368 138.284C107.596 138.945 109.511 139.027 110.553 138.467L117.095 134.943C117.346 134.807 117.646 134.579 117.646 134.266C117.646 133.933 117.314 133.555 116.756 133.255L113.411 131.469C112.731 131.103 111.84 130.914 111.003 130.914V130.914ZM108.765 139.82C107.752 139.82 106.69 139.589 105.845 139.134L102.5 137.348C101.6 136.862 101.083 136.185 101.083 135.489C101.083 134.879 101.465 134.338 102.161 133.964L108.702 130.439C110.074 129.699 112.371 129.778 113.934 130.621L117.28 132.406C118.181 132.891 118.696 133.569 118.696 134.266C118.696 134.875 118.314 135.417 117.62 135.79L111.078 139.315C110.449 139.654 109.624 139.82 108.765 139.82" fill="#252323"/>
<path d="M106.606 141.599H105.554V138.611H106.606V141.599Z" fill="#252323"/>
<path d="M109.89 134.269C109.52 134.269 109.151 134.342 108.882 134.486C108.7 134.585 108.619 134.688 108.619 134.746C108.619 134.805 108.7 134.907 108.882 135.005C109.419 135.294 110.36 135.294 110.897 135.005C111.079 134.907 111.16 134.805 111.16 134.746C111.16 134.688 111.079 134.585 110.897 134.487V134.486C110.628 134.342 110.259 134.269 109.89 134.269V134.269ZM109.89 136.2C109.339 136.2 108.787 136.086 108.357 135.853C107.856 135.584 107.569 135.18 107.569 134.746C107.569 134.312 107.856 133.909 108.357 133.638C109.217 133.176 110.562 133.176 111.422 133.639V133.638C111.923 133.909 112.211 134.312 112.211 134.746C112.211 135.18 111.923 135.584 111.422 135.853C110.992 136.086 110.44 136.2 109.89 136.2Z" fill="white"/>
<path d="M162.051 83.0214H161.242V69.0863H162.051V83.0214Z" fill="#01BBFF"/>
<path d="M163.608 70.3252L160.325 72.0921C159.596 72.4852 159.005 72.0686 159.005 71.1621V68.0667C159.005 67.1602 159.596 66.1074 160.325 65.7142L163.608 63.9474C164.337 63.5542 164.928 63.9709 164.928 64.8773V67.9727C164.928 68.8792 164.337 69.9321 163.608 70.3252" fill="#252323"/>
<path d="M164.133 64.1761C164.014 64.1761 163.888 64.2321 163.811 64.2737L160.529 66.0406C159.922 66.3677 159.411 67.295 159.411 68.0668V71.1622C159.411 71.5544 159.541 71.765 159.664 71.831C159.812 71.9105 160.015 71.8238 160.125 71.7659L163.407 69.9981C164.013 69.6719 164.525 68.7446 164.525 67.9728V64.8774C164.525 64.4852 164.394 64.2746 164.271 64.2087C164.228 64.1861 164.181 64.1761 164.133 64.1761ZM159.801 72.6172C159.61 72.6172 159.427 72.573 159.26 72.4835C158.843 72.2585 158.602 71.7768 158.602 71.1622V68.0668C158.602 67.0248 159.271 65.8481 160.125 65.3881L163.407 63.6212C163.853 63.3799 164.303 63.3555 164.675 63.5561C165.093 63.7812 165.333 64.2629 165.333 64.8774V67.9728C165.333 69.0149 164.664 70.1916 163.811 70.6516L160.529 72.4184C160.283 72.5513 160.036 72.6172 159.801 72.6172" fill="#01BBFF"/>
<path d="M164.247 70.7466L160.964 72.5143C160.235 72.9065 159.644 72.4899 159.644 71.5834V68.4881C159.644 67.5816 160.235 66.5287 160.964 66.1365L164.247 64.3687C164.975 63.9765 165.566 64.3931 165.566 65.2996V68.395C165.566 69.3014 164.975 70.3543 164.247 70.7466Z" fill="#252323"/>
<path d="M164.769 64.5982C164.649 64.5982 164.523 64.6534 164.446 64.6949L161.164 66.4627C160.557 66.7889 160.046 67.7162 160.046 68.488V71.5834C160.046 71.9765 160.178 72.1871 160.3 72.2531C160.445 72.3308 160.65 72.2468 160.76 72.188L164.043 70.4203C164.648 70.094 165.16 69.1667 165.16 68.3949V65.2996C165.16 64.9064 165.029 64.6967 164.906 64.6299C164.864 64.6073 164.816 64.5982 164.769 64.5982V64.5982ZM160.437 73.0394C160.245 73.0394 160.062 72.9951 159.896 72.9056C159.478 72.6806 159.238 72.198 159.238 71.5834V68.488C159.238 67.446 159.906 66.2693 160.76 65.8102L164.043 64.0424C164.489 63.802 164.939 63.7776 165.31 63.9783C165.728 64.2033 165.968 64.685 165.968 65.2996V68.3949C165.968 69.437 165.3 70.6137 164.446 71.0728L161.164 72.8405C160.918 72.9734 160.671 73.0394 160.437 73.0394" fill="#01BBFF"/>
<path d="M164.161 81.8229L164.146 70.4699L164.954 70.469L164.968 81.822L164.161 81.8229Z" fill="#01BBFF"/>
<path d="M158.7 84.8958H157.892V82.8975C157.892 81.2292 158.523 79.6033 159.667 78.32C160.692 77.1722 161.256 75.7181 161.256 74.225L161.257 72.1419H162.065L162.064 74.225C162.064 75.8934 161.434 77.5193 160.289 78.8017C159.264 79.9504 158.7 81.4045 158.7 82.8975V84.8958Z" fill="#01BBFF"/>
<path d="M117.706 78.4846L101.971 87.1598L51.7853 60.093L67.5195 51.4178L117.706 78.4846Z" fill="#01BBFF"/>
<path d="M52.8318 60.0876L101.973 86.5922L116.67 78.4891L67.5283 51.9854L52.8318 60.0876ZM101.979 87.7264L50.7505 60.0975L67.5215 50.8502L118.75 78.48L101.979 87.7264" fill="#252323"/>
<path d="M114.876 70.7653L81.5114 52.7L57.2773 65.7495L90.643 83.8148L114.876 70.7653Z" fill="#252323"/>
<path d="M58.3203 65.7505L90.6385 83.2491L113.824 70.7645L81.5059 53.2659L58.3203 65.7505ZM90.6375 84.3806L56.2253 65.7487L81.5069 52.1344L115.919 70.7664L90.6375 84.3806" fill="#252323"/>
<path d="M100.02 77.0032L74.5183 63.3049L74.9224 62.6524L100.423 76.3507L100.02 77.0032Z" fill="#01BBFF"/>
<path d="M42.224 31.4219C41.0438 30.6302 39.039 31.0875 37.0051 33.2728C35.6621 34.7161 34.8801 36.5724 34.9179 38.4821C34.9402 39.6696 35.2813 40.3357 36.0613 40.8147L36.1902 40.8997L126.28 89.2717C126.354 89.3114 126.449 89.287 126.491 89.2175L132.158 79.8834C132.2 79.8138 132.175 79.7262 132.1 79.6873L42.224 31.4219" fill="#01BBFF"/>
<path d="M40.9611 31.5568C40.0251 31.5568 38.7528 32.137 37.3982 33.5939C36.0998 34.9875 35.4041 36.72 35.438 38.4742C35.4612 39.6328 35.8023 40.072 36.3459 40.4064L36.4893 40.4995L126.214 88.6737L131.516 79.9406L41.9136 31.8207C41.6617 31.6517 41.3381 31.5568 40.9611 31.5568V31.5568ZM126.352 89.7808C126.234 89.7808 126.119 89.7528 126.014 89.6967L35.9244 41.3247L35.7548 41.2153C34.8266 40.6459 34.4138 39.8289 34.3886 38.4914C34.3498 36.4958 35.1366 34.5284 36.6046 32.9522C39.0833 30.2879 41.3235 30.2391 42.5047 31.01L132.359 79.2628C132.681 79.4336 132.796 79.8213 132.611 80.125L126.944 89.459C126.852 89.6081 126.707 89.7139 126.53 89.7582C126.471 89.7735 126.411 89.7808 126.352 89.7808Z" fill="#252323"/>
<path d="M62.5996 49.1131L129.115 84.8958L132.158 79.8835C132.2 79.8139 132.175 79.7262 132.101 79.6874L42.224 31.422C41.0438 30.6303 39.039 31.0876 37.0051 33.2729C36.5991 33.7085 36.2522 34.1857 35.9557 34.6873C35.9509 34.7162 35.947 34.7469 35.9344 34.7677L50.1124 42.3946L62.5996 49.1131" fill="white"/>
<path d="M129.309 85.5673L62.3349 49.537L62.8601 48.6884L128.916 84.2252L131.518 79.9405L41.9603 31.8468C41.0369 31.2313 39.3014 31.5513 37.4003 33.5938C37.1232 33.8911 36.8654 34.2201 36.63 34.578L50.3729 41.9707L49.8468 42.8194L35.224 34.9521L35.4943 34.4514C35.8199 33.8992 36.1949 33.394 36.6067 32.9521C39.1028 30.2706 41.3566 30.239 42.5291 31.0253L132.361 79.2627C132.683 79.4335 132.797 79.8203 132.614 80.124L129.309 85.5673" fill="#252323"/>
<path d="M52.8134 43.8486L59.9392 47.6824L52.8134 43.8486Z" fill="white"/>
<path d="M59.6763 48.1063L52.5504 44.2726L53.0756 43.4239L60.2014 47.2586L59.6763 48.1063Z" fill="#252323"/>
<path d="M36.0605 40.7615L36.1894 40.8465L126.279 89.2176C126.353 89.2574 126.447 89.2339 126.49 89.1643L127.465 87.5583L125.304 86.8335L35.1284 38.5419C35.1506 39.7294 35.2795 40.2825 36.0605 40.7615" fill="#252323"/>
<path d="M35.7171 39.422C35.7985 39.901 35.9758 40.1233 36.3489 40.3519L36.4903 40.445L126.216 88.6192L126.701 87.822L125.042 87.2581L35.7171 39.422ZM126.354 89.7272C126.237 89.7272 126.12 89.6982 126.015 89.6413L35.9274 41.2711L35.7675 41.1689C34.72 40.5237 34.6241 39.6768 34.6028 38.5507L34.5853 37.6867L125.524 86.3869L128.228 87.2933L126.946 89.4054C126.855 89.5545 126.708 89.6603 126.531 89.7046C126.473 89.7199 126.413 89.7272 126.354 89.7272" fill="#252323"/>
<path d="M133.676 82.3799C133.676 84.8697 131.802 87.8964 129.491 89.1409C127.18 90.3854 125.306 89.3768 125.306 86.8878C125.306 84.398 127.18 81.3713 129.491 80.1268C131.802 78.8823 133.676 79.8909 133.676 82.3799Z" fill="#01BBFF"/>
<path d="M131.353 80.0815C130.873 80.0815 130.326 80.2397 129.749 80.5505C127.586 81.7155 125.826 84.5578 125.826 86.8877C125.826 87.909 126.169 88.6555 126.79 88.9899C127.412 89.3261 128.275 89.2266 129.224 88.7169C131.386 87.552 133.145 84.7097 133.145 82.3798C133.145 81.3585 132.804 80.612 132.182 80.2776C131.94 80.1466 131.66 80.0815 131.353 80.0815ZM127.616 90.1656C127.127 90.1656 126.67 90.0572 126.264 89.8385C125.304 89.3215 124.776 88.2732 124.776 86.8877C124.776 84.2008 126.73 81.0458 129.224 79.7028C130.512 79.0096 131.749 78.912 132.707 79.429C133.667 79.9459 134.197 80.9943 134.197 82.3798C134.197 85.0657 132.243 88.2217 129.749 89.5646C129.007 89.9641 128.281 90.1656 127.616 90.1656" fill="#252323"/>
<path d="M39.7546 43.2258C39.7546 43.2258 37.1907 41.8747 35.9853 41.2258C34.6006 40.482 34.5463 39.0586 34.5444 38.9989L35.3525 38.9799L34.9484 38.989L35.3525 38.9781C35.3535 39.0215 35.4039 40.0437 36.3883 40.5733C37.5918 41.2204 40.1518 42.5706 40.1518 42.5706L39.7546 43.2258" fill="#01BBFF"/>
<path d="M77.1086 0.59922C76.7103 0.417564 76.1822 0.454631 75.596 0.770044L64.6592 6.65895C55.5702 11.5537 48.1343 23.5665 48.1343 33.3552V35.7745C48.1343 36.3548 48.3319 36.7732 48.6498 37.0181L119.435 74.9427C119.533 74.9951 119.658 74.968 119.721 74.8812L139.127 48.1389C139.138 48.1244 139.15 48.1118 139.164 48.1001L146.529 42.1244C146.555 42.1027 146.575 42.0765 146.588 42.0458L147.982 38.7299C148.021 38.6368 147.981 38.5319 147.889 38.4822L77.1086 0.59922" fill="#01BBFF"/>
<path d="M48.9654 36.6168L119.457 74.3842L138.741 47.8109L138.831 47.7286L146.136 41.8008L147.406 38.7832L76.8748 1.03303C76.6199 0.92458 76.2634 0.98152 75.869 1.1939L64.9312 7.08371C55.9643 11.9116 48.6689 23.6976 48.6689 33.3552V35.7745C48.6689 36.1523 48.7735 36.4506 48.9654 36.6168V36.6168ZM119.548 75.4578C119.424 75.4578 119.298 75.4289 119.184 75.3674L48.3249 37.395C48.0022 37.1465 47.6185 36.6638 47.6185 35.7745V33.3552C47.6185 23.3858 55.1494 11.2193 64.406 6.23509L75.3438 0.345259C76.057 -0.0388398 76.7692 -0.104798 77.3486 0.159101L77.3796 0.174458L148.16 38.0565C148.48 38.2292 148.616 38.5862 148.481 38.907L147.087 42.2256C147.041 42.3313 146.969 42.4271 146.875 42.4994L139.548 48.4453L120.166 75.156C120.023 75.3512 119.788 75.4578 119.548 75.4578Z" fill="#252323"/>
<path d="M139.201 48.1542L145.876 42.7379L143.974 40.0673L73.1633 2.15268L64.6964 6.71308C60.6141 8.91103 56.8729 12.5505 53.9814 16.7746L124.736 54.6721L134.072 55.2098L139.164 48.193C139.175 48.1786 139.186 48.165 139.201 48.1542" fill="white"/>
<path d="M124.901 54.1904L133.816 54.7038L138.867 47.7846L145.194 42.6503L143.616 40.4343L73.1751 2.71849L64.9699 7.13699C61.2606 9.1334 57.6415 12.4855 54.7345 16.6066L124.901 54.1904ZM134.349 55.716L124.592 55.1539L53.254 16.9437L53.5495 16.5108C56.595 12.0625 60.4641 8.43207 64.4447 6.28835L73.1732 1.58788L73.4358 1.72887L144.354 39.7004L146.58 42.8247L139.587 48.4986L134.349 55.716" fill="#252323"/>
<path d="M125.811 61.5399L110.609 53.397L111.131 52.5484L126.333 60.6904L125.811 61.5399" fill="#252323"/>
<path d="M107.858 51.9265L97.1454 46.1885L97.6677 45.3399L108.381 51.0779L107.858 51.9265Z" fill="#252323"/>
<path d="M94.7305 44.897L55.0471 23.6423L55.5693 22.7928L95.2527 44.0474L94.7305 44.897Z" fill="#252323"/>
<path d="M118.995 69.6483L48.1992 31.703C48.1662 32.1775 48.1343 32.6528 48.1343 33.1183V35.5377C48.1343 36.1179 48.3319 36.5363 48.6498 36.7812L119.435 74.7058C119.533 74.7582 119.658 74.732 119.721 74.6443L120.544 73.511L118.995 69.6483" fill="#252323"/>
<path d="M118.96 71.1497V73.6839C118.96 75.0151 119.962 75.5537 121.197 74.8886L133.88 68.0598C135.115 67.3937 136.116 67.9332 136.116 69.2636V86.7983C136.116 88.1287 137.118 88.6682 138.354 88.0031L146.422 83.6578C147.658 82.9926 148.659 81.3749 148.659 80.0445V39.8841C148.659 38.5537 147.658 38.0142 146.422 38.6794L135.378 44.627C126.31 49.5101 118.96 61.3846 118.96 71.1497" fill="#252323"/>
<path d="M134.879 67.2825C135.181 67.2825 135.467 67.3512 135.723 67.4885C136.314 67.8076 136.642 68.4384 136.642 69.2644V86.7983C136.642 87.2529 136.784 87.5909 137.033 87.7247C137.284 87.8602 137.669 87.806 138.089 87.5783L146.159 83.2339C147.229 82.6573 148.134 81.1959 148.134 80.0436V39.884C148.134 39.4303 147.99 39.0923 147.741 38.9577C147.492 38.823 147.106 38.8772 146.684 39.1041L135.64 45.0508C126.732 49.848 119.485 61.5553 119.485 71.1497V73.6847C119.485 74.1384 119.627 74.4764 119.877 74.6111C120.127 74.7457 120.512 74.6924 120.934 74.4647L133.616 67.6349C134.052 67.4009 134.481 67.2825 134.879 67.2825V67.2825ZM137.353 88.7794C137.049 88.7794 136.765 88.7107 136.509 88.5733C135.917 88.2543 135.59 87.6243 135.59 86.7983V69.2644C135.59 68.8098 135.448 68.4718 135.198 68.3372C134.95 68.2025 134.563 68.2567 134.141 68.4836L121.459 75.3133C120.691 75.7263 119.943 75.7778 119.352 75.4588C118.76 75.1407 118.434 74.5108 118.434 73.6847V71.1497C118.434 61.2435 125.917 49.1557 135.114 44.2031L146.159 38.2555C146.925 37.8434 147.674 37.7909 148.266 38.109C148.858 38.4281 149.184 39.0589 149.184 39.884V80.0436C149.184 81.5529 148.086 83.327 146.684 84.0825L138.616 88.4269C138.179 88.6619 137.75 88.7794 137.353 88.7794" fill="#252323"/>
<path d="M119.361 73.6856L118.553 73.6829L118.563 70.5983L119.37 70.6001L119.361 73.6856Z" fill="#01BBFF"/>
<path d="M143.408 49.4963C143.292 49.4755 143.187 49.4592 143.187 49.4592C142.705 49.4132 142.09 49.6526 141.435 50.3567C141.068 50.7507 140.79 51.2171 140.636 51.7178C140.385 52.5302 140.486 53.1276 140.787 53.4611C140.787 53.4611 141.395 54.2808 142.748 54.5754C142.812 54.589 142.884 54.5628 142.919 54.5113L144.933 51.5243L145.02 50.4489C145.022 50.4091 145.013 50.3747 144.984 50.3458C144.829 50.1904 144.31 49.6662 143.408 49.4963" fill="#01BBFF"/>
<path d="M143.06 49.8279C142.824 49.8279 142.356 49.9427 141.74 50.6042C141.407 50.9603 141.159 51.3823 141.023 51.8225C140.833 52.437 140.861 52.9585 141.095 53.2188C141.137 53.2712 141.617 53.8894 142.673 54.1686L144.538 51.4031L144.609 50.5238C144.41 50.3367 143.991 49.9915 143.331 49.8658L143.119 49.8306C143.102 49.8288 143.081 49.8279 143.06 49.8279ZM142.784 54.9567C142.741 54.9567 142.699 54.9513 142.656 54.9423C141.168 54.6187 140.484 53.7141 140.455 53.6752C140.056 53.2387 139.974 52.4958 140.247 51.6137C140.416 51.0687 140.721 50.5491 141.13 50.1099C141.996 49.1799 142.745 49.0389 143.228 49.0841L143.488 49.1265C144.168 49.2549 144.769 49.5775 145.276 50.0864C145.384 50.1948 145.433 50.3313 145.423 50.4768L145.328 51.6463L143.26 54.7118C143.154 54.8664 142.974 54.9567 142.784 54.9567" fill="#01BBFF"/>
<path d="M145.585 51.4864C145.585 52.5519 144.783 53.847 143.794 54.3793C142.806 54.9117 142.003 54.4806 142.003 53.415C142.003 52.3504 142.806 51.0553 143.794 50.5221C144.783 49.9898 145.585 50.4218 145.585 51.4864Z" fill="#252323"/>
<path d="M144.595 50.671C144.421 50.671 144.216 50.7316 143.998 50.8482C143.136 51.3118 142.409 52.4876 142.409 53.4149C142.409 53.7845 142.526 54.0592 142.731 54.1695C142.938 54.2816 143.251 54.2373 143.594 54.0529C144.455 53.5884 145.183 52.4135 145.183 51.4862C145.183 51.1175 145.065 50.8418 144.86 50.7316C144.785 50.6909 144.695 50.671 144.595 50.671ZM142.995 54.9856C142.755 54.9856 142.53 54.9314 142.327 54.822C141.859 54.5699 141.6 54.0701 141.6 53.4149C141.6 52.2111 142.476 50.7976 143.594 50.1957C144.202 49.8667 144.795 49.8269 145.264 50.0791C145.732 50.3312 145.99 50.831 145.99 51.4862C145.99 52.6891 145.115 54.1035 143.998 54.7054C143.652 54.8916 143.311 54.9856 142.995 54.9856" fill="#01BBFF"/>
<path d="M143.408 56.5882C143.292 56.5684 143.187 56.5512 143.187 56.5512C142.705 56.506 142.09 56.7455 141.435 57.4495C141.068 57.8427 140.79 58.309 140.636 58.8106C140.385 59.6222 140.486 60.2196 140.787 60.554C140.787 60.554 141.395 61.3737 142.748 61.6683C142.812 61.6818 142.884 61.6556 142.919 61.6032L144.933 58.6172L145.02 57.5408C145.022 57.502 145.013 57.4667 144.984 57.4387C144.829 57.2833 144.31 56.7591 143.408 56.5882" fill="#01BBFF"/>
<path d="M143.06 56.9208C142.823 56.9208 142.355 57.0355 141.74 57.6962C141.407 58.0532 141.159 58.4743 141.023 58.9145C140.833 59.529 140.861 60.0514 141.095 60.3108C141.137 60.3632 141.617 60.9814 142.673 61.2606L144.538 58.4951L144.609 57.6167C144.41 57.4287 143.991 57.0834 143.331 56.9578L143.12 56.9235C143.103 56.9217 143.082 56.9208 143.06 56.9208V56.9208ZM142.784 62.0487C142.741 62.0487 142.699 62.0442 142.656 62.0343C141.168 61.7116 140.484 60.806 140.455 60.7681C140.056 60.3307 139.974 59.5887 140.247 58.7057C140.416 58.1607 140.721 57.6411 141.13 57.2018C141.995 56.2719 142.745 56.1318 143.228 56.177L143.488 56.2194C144.168 56.3478 144.768 56.6704 145.276 57.1783C145.384 57.2868 145.433 57.4242 145.423 57.5688L145.328 58.7382L143.26 61.8038C143.154 61.9583 142.974 62.0487 142.784 62.0487" fill="#01BBFF"/>
<path d="M145.585 58.5791C145.585 59.6438 144.783 60.9389 143.794 61.4712C142.806 62.0044 142.003 61.5724 142.003 60.5069C142.003 59.4422 142.806 58.1471 143.794 57.6148C144.783 57.0825 145.585 57.5136 145.585 58.5791Z" fill="#252323"/>
<path d="M144.595 57.7639C144.421 57.7639 144.216 57.8235 143.998 57.941C143.136 58.4046 142.409 59.5795 142.409 60.5077C142.409 60.8764 142.526 61.1521 142.731 61.2623C142.938 61.3735 143.251 61.3301 143.594 61.1448C144.455 60.6812 145.183 59.5054 145.183 58.5791C145.183 58.2094 145.065 57.9338 144.86 57.8235C144.785 57.7837 144.695 57.7639 144.595 57.7639ZM142.995 62.0775C142.755 62.0775 142.53 62.0233 142.327 61.9148C141.859 61.6627 141.6 61.1629 141.6 60.5077C141.6 59.3039 142.476 57.8904 143.594 57.2885C144.202 56.9595 144.797 56.9179 145.264 57.1719C145.732 57.4231 145.99 57.9238 145.99 58.5791C145.99 59.782 145.116 61.1955 143.998 61.7983C143.652 61.9844 143.311 62.0775 142.995 62.0775" fill="#01BBFF"/>
<path d="M27.7538 44.2102C26.5726 43.4176 24.5688 43.8749 22.5339 46.0602C21.1909 47.5026 20.4099 49.3599 20.4467 51.2704C20.47 52.4571 20.8101 53.1231 21.5911 53.603L21.72 53.6871L111.808 102.059C111.883 102.099 111.978 102.074 112.02 102.005L117.687 92.6708C117.729 92.6012 117.704 92.5136 117.63 92.4747L27.7538 44.2102Z" fill="#01BBFF"/>
<path d="M26.5012 44.344C25.5642 44.344 24.292 44.9251 22.9364 46.3811C21.6399 47.7747 20.9441 49.5081 20.978 51.2614C21.0003 52.42 21.3424 52.8601 21.886 53.1936L22.0284 53.2867L111.754 101.461L117.056 92.7278L27.4527 44.6079C27.2008 44.438 26.8781 44.344 26.5012 44.344V44.344ZM111.89 102.568C111.773 102.568 111.656 102.539 111.551 102.482L21.4635 54.1118L21.2939 54.0025C20.3676 53.434 19.9539 52.6161 19.9277 51.2794C19.8889 49.2821 20.6767 47.3155 22.1428 45.7385C24.6233 43.076 26.8656 43.0254 28.0429 43.7972L117.898 92.05C118.221 92.2253 118.334 92.6112 118.151 92.9121L112.483 102.246C112.395 102.394 112.248 102.5 112.071 102.545C112.012 102.561 111.951 102.568 111.89 102.568" fill="#252323"/>
<path d="M98.4222 88.9573L114.643 97.6832L117.686 92.6709C117.728 92.6013 117.703 92.5136 117.629 92.4748L27.7529 44.2103C26.5717 43.4177 24.5679 43.875 22.5331 46.0603C22.1271 46.4959 21.7802 46.9731 21.4837 47.4747C21.4788 47.5036 21.4759 47.5343 21.4633 47.5551L58.765 67.6222L61.0256 68.8387L84.5591 81.4995L98.4222 88.9573" fill="white"/>
<path d="M114.838 98.3546L98.1576 89.3811L98.6827 88.5325L114.445 97.0125L117.047 92.7277L27.4883 44.635C26.5639 44.0177 24.8285 44.3403 22.9273 46.381C22.6512 46.6775 22.3934 47.0073 22.1579 47.3643L84.8196 81.0746L84.2945 81.9233L20.7529 47.7394L21.0213 47.2378C21.3479 46.6856 21.7229 46.1813 22.1337 45.7394C24.6308 43.0588 26.8836 43.0254 28.0571 43.8125L117.889 92.0499C118.211 92.2252 118.325 92.6112 118.142 92.9121L114.838 98.3546" fill="#252323"/>
<path d="M86.8787 82.7519L96.1974 87.7651L86.8787 82.7519Z" fill="white"/>
<path d="M95.9514 88.1899L86.6328 83.1768L87.158 82.3281L96.4766 87.3413L95.9514 88.1899Z" fill="#252323"/>
<path d="M21.5895 53.5487L21.7183 53.6337L111.808 102.005C111.882 102.045 111.977 102.021 112.019 101.951L112.995 100.345L110.833 99.6207L20.6573 51.3291C20.6805 52.5166 20.8094 53.0697 21.5895 53.5487" fill="#252323"/>
<path d="M21.2416 52.2094C21.324 52.6893 21.5013 52.9107 21.8734 53.1394L22.0168 53.2343L111.742 101.407L112.226 100.609L110.568 100.046L21.2416 52.2094ZM111.879 102.515C111.761 102.515 111.646 102.486 111.541 102.43L21.4519 54.0585L21.291 53.9555C20.2455 53.3111 20.1496 52.4643 20.1283 51.3382L20.1108 50.4742L111.049 99.1743L113.754 100.081L112.472 102.193C112.38 102.341 112.234 102.448 112.058 102.492C111.999 102.507 111.939 102.515 111.879 102.515" fill="#252323"/>
<path d="M119.208 95.1678C119.208 97.6568 117.335 100.683 115.023 101.928C112.712 103.172 110.838 102.164 110.838 99.6749C110.838 97.185 112.712 94.1583 115.023 92.9138C117.335 91.6694 119.208 92.678 119.208 95.1678Z" fill="#01BBFF"/>
<path d="M116.882 92.8687C116.403 92.8687 115.856 93.0269 115.278 93.3378C113.115 94.5027 111.356 97.345 111.356 99.6749C111.356 100.696 111.697 101.443 112.319 101.777C112.941 102.111 113.806 102.015 114.753 101.504C116.915 100.34 118.675 97.4969 118.675 95.167C118.675 94.1457 118.333 93.3992 117.713 93.0648C117.47 92.9338 117.19 92.8687 116.882 92.8687V92.8687ZM113.145 102.953C112.657 102.953 112.2 102.844 111.794 102.626C110.834 102.109 110.305 101.06 110.305 99.6749C110.305 96.989 112.258 93.833 114.753 92.49C116.041 91.7959 117.278 91.7001 118.237 92.2162C119.197 92.7331 119.725 93.7806 119.725 95.167C119.725 97.8529 117.772 101.01 115.278 102.353C114.536 102.752 113.811 102.953 113.145 102.953" fill="#252323"/>
<path d="M20.9791 53.6312C20.2872 52.8874 20.2552 51.9917 20.2543 51.9538V51.5019H21.0624V51.9448C21.0624 51.9448 21.0944 52.6054 21.5895 53.1377L20.9791 53.6312Z" fill="#01BBFF"/>
<path d="M144.753 144.892C144.467 144.768 144.092 144.796 143.677 145.02L139.327 147.363C138.851 147.619 138.398 147.769 137.974 147.831L138.747 95.5656L135.35 96.4684V85.795L131.692 87.6848V147.112C131.692 149.467 129.903 152.358 127.716 153.536L123.52 155.795C122.74 156.215 122.136 156.892 121.885 157.699C121.596 158.62 121.798 159.247 122.245 159.472L127.111 161.931C127.167 161.959 127.235 161.956 127.289 161.923L135.805 156.732L147.931 149.504L149.655 147.6C149.726 147.521 149.702 147.402 149.605 147.353L144.753 144.892" fill="#01BBFF"/>
<path d="M132.226 87.9742V147.112C132.226 149.629 130.324 152.702 127.987 153.96L123.791 156.219C123.113 156.584 122.604 157.174 122.397 157.836C122.183 158.52 122.302 158.94 122.503 159.041L127.185 161.407L135.527 156.322L147.589 149.132L148.984 147.592L144.53 145.331C144.393 145.278 144.181 145.32 143.948 145.445L139.598 147.786C139.086 148.063 138.57 148.241 138.065 148.315L137.45 148.406L137.458 147.825L138.22 96.2165L134.834 97.1175V86.6267L132.226 87.9742ZM127.203 162.441C127.09 162.441 126.976 162.414 126.872 162.363L122.004 159.902C121.441 159.62 120.983 158.856 121.389 157.562C121.675 156.647 122.342 155.868 123.266 155.371L127.461 153.112C129.474 152.027 131.175 149.28 131.175 147.112V87.3967L135.884 84.9638V95.8197L139.29 94.9133L138.519 147.189C138.701 147.123 138.886 147.039 139.073 146.939L143.423 144.597C143.97 144.302 144.524 144.25 144.983 144.448L145.013 144.461L149.865 146.923C150.049 147.015 150.179 147.181 150.218 147.375C150.257 147.568 150.201 147.766 150.063 147.917L148.221 149.917L136.095 157.145L127.585 162.333C127.471 162.404 127.337 162.441 127.203 162.441" fill="#252323"/>
<path d="M135.482 153.787L130.335 151.048L130.325 151.043C129.623 152.087 128.714 152.995 127.711 153.536L123.516 155.795C123.181 155.976 122.959 156.246 122.703 156.512L127.479 159.04L128.984 159.911L132.254 158.894L134.765 157.363L135.482 153.787" fill="white"/>
<path d="M123.538 156.39L127.74 158.614L129.054 159.373L132.026 158.449L134.292 157.067L134.9 154.04L130.494 151.696C129.758 152.688 128.894 153.465 127.976 153.959L123.781 156.219C123.693 156.266 123.615 156.323 123.538 156.39V156.39ZM128.918 160.448L127.204 159.456L121.876 156.636L122.438 156.053C122.657 155.822 122.903 155.561 123.256 155.37L127.45 153.112C128.327 152.64 129.19 151.812 129.882 150.783L130.199 150.312L130.659 150.663L136.069 153.536L135.242 157.659L132.421 159.358L128.918 160.448" fill="#252323"/>
<path d="M144.763 144.876C144.477 144.752 144.102 144.78 143.686 145.004L139.337 147.347C138.861 147.602 138.408 147.752 137.985 147.815L137.721 148.625L142.688 151.072L143.871 151.913L147.94 149.488L149.665 147.583C149.736 147.505 149.712 147.386 149.615 147.337L144.763 144.876" fill="white"/>
<path d="M138.343 148.38L143.001 150.682L143.891 151.317L147.584 149.115L148.979 147.575L144.525 145.315C144.388 145.262 144.175 145.303 143.943 145.429L139.593 147.77C139.192 147.986 138.789 148.143 138.391 148.236L138.343 148.38ZM143.837 152.51L142.398 151.486L137.085 148.869L137.572 147.379L137.896 147.331C138.272 147.275 138.667 147.138 139.068 146.923L143.418 144.58C143.965 144.286 144.516 144.233 144.978 144.431L145.008 144.445L149.859 146.906C150.043 146.999 150.173 147.164 150.213 147.358C150.252 147.553 150.196 147.75 150.058 147.901L148.216 149.901L143.837 152.51" fill="#252323"/>
<path d="M140.276 147.713V88.2875L136.617 90.1781V149.604C136.617 151.969 134.837 154.846 132.64 156.029L128.29 158.371C127.398 158.851 126.675 160.02 126.675 160.981C126.675 161.941 127.398 162.331 128.29 161.851L136.617 157.367L140.276 155.477L148.602 150.993C149.494 150.512 150.217 149.344 150.217 148.383C150.217 147.422 149.494 147.033 148.602 147.513L144.252 149.855C142.056 151.038 140.276 150.079 140.276 147.713Z" fill="#252323"/>
<path d="M137.149 90.4665V149.604C137.149 152.165 135.286 155.172 132.909 156.453L128.56 158.794C127.826 159.189 127.207 160.191 127.207 160.981C127.207 161.255 127.285 161.461 127.417 161.532C127.548 161.604 127.78 161.563 128.035 161.426L136.36 156.944L140.027 155.048L148.344 150.569C149.078 150.174 149.698 149.172 149.698 148.383C149.698 148.108 149.62 147.902 149.487 147.832C149.356 147.76 149.125 147.8 148.871 147.937L144.521 150.279C143.289 150.942 142.103 151.035 141.183 150.539C140.263 150.043 139.756 149.04 139.756 147.714V89.119L137.149 90.4665ZM127.572 162.545C127.327 162.545 127.097 162.49 126.892 162.381C126.424 162.128 126.156 161.619 126.156 160.981C126.156 159.846 126.981 158.513 128.035 157.947L132.384 155.605C134.432 154.502 136.098 151.809 136.098 149.604V89.889L140.807 87.4561V147.714C140.807 148.676 141.127 149.377 141.708 149.691C142.289 150.004 143.102 149.911 143.996 149.432L148.344 147.089C148.937 146.771 149.545 146.732 150.012 146.983C150.48 147.235 150.749 147.745 150.749 148.383C150.749 149.516 149.923 150.85 148.871 151.417L140.544 155.901L136.878 157.796L128.56 162.274C128.226 162.454 127.887 162.545 127.572 162.545" fill="#252323"/>
<path d="M136.337 146.775L131.416 143.914L131.971 143.083L136.892 145.943L136.337 146.775Z" fill="#252323"/>
<path d="M136.337 123.131L131.416 120.271L131.971 119.439L136.892 122.3L136.337 123.131Z" fill="#252323"/>
<path d="M137.363 108.471L136.959 107.819L139.706 106.339L140.11 106.992L137.363 108.471Z" fill="#01BBFF"/>
<path d="M141.416 73.3239C141.202 73.2137 140.909 73.2308 140.585 73.4053L116.215 86.5288C115.427 86.9527 114.681 87.7362 114.182 88.6617L104.346 106.918C104.025 107.513 103.85 108.137 103.85 108.683V112.648C103.85 112.949 103.951 113.168 104.113 113.3L104.143 113.324C104.18 113.351 113.027 118.023 113.916 118.498C113.948 118.515 113.988 118.505 114.008 118.475L117.299 113.606C117.302 113.602 117.305 113.597 117.309 113.595L143.785 88.8994L148.478 84.2025C148.484 84.1971 148.488 84.1917 148.491 84.1853L151.256 78.6037C151.272 78.5739 151.259 78.5377 151.228 78.5206L141.416 73.3239" fill="#01BBFF"/>
<path d="M141.114 73.7442C141.058 73.7442 140.967 73.765 140.847 73.8292L116.477 86.9527C115.783 87.3259 115.1 88.0472 114.65 88.8813L104.815 107.138C104.531 107.664 104.374 108.213 104.374 108.683V112.648C104.374 112.807 104.417 112.899 104.458 112.931C104.548 112.979 107.586 114.586 110.028 115.878C111.604 116.71 113.08 117.491 113.795 117.87L116.936 113.248L143.413 88.5533L148.044 83.9179L150.604 78.7538L141.161 73.7524C141.151 73.7478 141.134 73.7442 141.114 73.7442V73.7442ZM113.951 118.996C113.848 118.996 113.744 118.972 113.649 118.92C113.277 118.722 111.47 117.766 109.511 116.73C103.873 113.749 103.87 113.747 103.824 113.714C103.482 113.437 103.324 113.074 103.324 112.648V108.683C103.324 108.063 103.521 107.358 103.876 106.698L113.711 88.4412C114.258 87.4281 115.075 86.5767 115.952 86.1041L140.322 72.9814C140.79 72.7284 141.281 72.6968 141.668 72.8947L141.675 72.8974L151.487 78.0949C151.757 78.2404 151.862 78.5459 151.733 78.808L148.849 84.5487L144.169 89.2329L117.712 113.909L114.452 118.736C114.339 118.904 114.147 118.996 113.951 118.996" fill="#252323"/>
<path d="M104.113 113.3L104.143 113.324C104.18 113.351 113.027 118.023 113.916 118.498C113.948 118.515 113.988 118.505 114.008 118.475L115.036 116.954C114.294 115.676 113.722 114.723 113.722 114.723L103.85 109.429V112.648C103.85 112.949 103.951 113.168 104.113 113.3" fill="#252323"/>
<path d="M104.455 112.93L104.48 112.949C104.548 112.979 107.586 114.586 110.028 115.878C111.603 116.71 113.08 117.491 113.795 117.87L114.426 116.935C113.909 116.045 113.492 115.346 113.333 115.08L104.374 110.276V112.648C104.374 112.804 104.416 112.895 104.455 112.93V112.93ZM113.951 118.996C113.848 118.996 113.744 118.972 113.649 118.92C113.277 118.722 111.47 117.766 109.511 116.73C103.873 113.749 103.87 113.747 103.824 113.714L103.767 113.67C103.482 113.437 103.324 113.074 103.324 112.648V108.582L114.108 114.365L114.179 114.483C114.179 114.483 114.753 115.439 115.496 116.721L115.643 116.973L114.452 118.736C114.339 118.904 114.147 118.996 113.951 118.996" fill="#252323"/>
<path d="M124.056 93.8918L149.291 81.682L137.242 75.2074L116.218 86.5288C115.43 86.9527 114.684 87.7363 114.185 88.6617L124.056 93.8918" fill="white"/>
<path d="M114.898 88.4754L124.067 93.334L148.198 81.6592L137.243 75.7721L116.481 86.9526C115.902 87.2635 115.332 87.8166 114.898 88.4754V88.4754ZM124.046 94.4484L113.492 88.8568L113.715 88.4411C114.262 87.428 115.079 86.5766 115.956 86.1039L137.243 74.6415L150.385 81.7044L124.046 94.4484" fill="#252323"/>
<path d="M150.462 99.3786L114.918 118.518C114.26 118.873 113.727 118.586 113.727 117.877V113.912C113.727 113.366 113.902 112.742 114.222 112.148L124.058 93.8918C124.557 92.9655 125.304 92.1828 126.091 91.758L150.462 78.6354C151.12 78.2811 151.653 78.5676 151.653 79.2762V97.4544C151.653 98.163 151.12 99.0243 150.462 99.3786" fill="#252323"/>
<path d="M150.991 78.9733C150.936 78.9733 150.842 78.9941 150.721 79.0592L126.351 92.1818C125.657 92.556 124.974 93.2772 124.524 94.1114L114.688 112.367C114.405 112.894 114.249 113.443 114.249 113.912V117.877C114.249 118.058 114.302 118.154 114.335 118.173C114.368 118.188 114.484 118.185 114.652 118.094L150.195 98.9546C150.69 98.688 151.124 97.9867 151.124 97.4544V79.2761C151.124 79.0953 151.071 78.9995 151.038 78.9815C151.029 78.976 151.013 78.9733 150.991 78.9733V78.9733ZM114.381 119.159C114.177 119.159 113.983 119.114 113.81 119.021C113.422 118.811 113.198 118.395 113.198 117.877V113.912C113.198 113.293 113.395 112.589 113.75 111.928L123.586 93.6712C124.132 92.659 124.948 91.8068 125.826 91.3341L150.195 78.2106C150.676 77.953 151.174 77.9241 151.563 78.1328C151.952 78.3425 152.175 78.7591 152.175 79.2761V97.4544C152.175 98.3319 151.536 99.364 150.721 99.8032L150.458 99.3785L150.721 99.8032L115.177 118.942C114.91 119.087 114.638 119.159 114.381 119.159" fill="#252323"/>
<path d="M114.129 117.877H113.321V114.91H114.129V117.877Z" fill="#01BBFF"/>
<path d="M114.568 111.802L104.697 106.572L105.216 105.721L115.087 110.951L114.568 111.802Z" fill="#252323"/>
<path d="M121.966 98.1194L112.095 92.8903L112.613 92.0389L122.484 97.2681L121.966 98.1194Z" fill="#252323"/>
<path d="M144.44 87.8077C144.324 87.7869 144.219 87.7706 144.219 87.7706C143.736 87.7245 143.122 87.964 142.467 88.6681C142.1 89.0621 141.822 89.5284 141.667 90.0291C141.416 90.8416 141.517 91.439 141.819 91.7734C141.819 91.7734 142.426 92.5931 143.781 92.8868C143.845 92.9013 143.915 92.8742 143.95 92.8227L145.965 89.8357L146.051 88.7602C146.054 88.7214 146.044 88.6861 146.015 88.6572C145.861 88.5018 145.342 87.9785 144.44 87.8077" fill="#01BBFF"/>
<path d="M144.091 88.1404C143.853 88.1404 143.385 88.2551 142.771 88.9158C142.437 89.2737 142.189 89.6948 142.054 90.1341C141.865 90.7477 141.892 91.271 142.126 91.5304C142.168 91.5828 142.649 92.2001 143.703 92.4802L145.568 89.7147L145.639 88.8354C145.442 88.6483 145.025 88.3039 144.363 88.1774L144.152 88.1431C144.134 88.1413 144.113 88.1404 144.091 88.1404ZM143.816 93.2683C143.774 93.2683 143.731 93.2638 143.687 93.2539C142.198 92.9303 141.514 92.0256 141.485 91.9877C141.088 91.5503 141.006 90.8074 141.278 89.9253C141.446 89.3821 141.75 88.8616 142.16 88.4214C143.026 87.4915 143.777 87.3505 144.258 87.3966L144.52 87.4381C145.201 87.5674 145.804 87.8909 146.309 88.4006C146.414 88.5064 146.464 88.6438 146.453 88.7884L146.358 89.9578L144.291 93.0234C144.188 93.177 144.006 93.2683 143.816 93.2683" fill="#01BBFF"/>
<path d="M146.63 89.7977C146.63 90.8632 145.828 92.1583 144.839 92.6906C143.85 93.2229 143.049 92.7918 143.049 91.7263C143.049 90.6617 143.85 89.3666 144.839 88.8343C145.828 88.3011 146.63 88.7331 146.63 89.7977Z" fill="#252323"/>
<path d="M145.633 88.9826C145.458 88.9826 145.253 89.0431 145.035 89.1606C144.174 89.6242 143.446 90.7991 143.446 91.7264C143.446 92.096 143.564 92.3717 143.769 92.4819C143.972 92.5922 144.287 92.5497 144.631 92.3644C145.492 91.9008 146.22 90.7259 146.22 89.7978C146.22 89.429 146.103 89.1534 145.897 89.0431C145.823 89.0024 145.734 88.9826 145.633 88.9826ZM144.033 93.2971C143.793 93.2971 143.567 93.2429 143.364 93.1335C142.896 92.8823 142.639 92.3816 142.639 91.7264C142.639 90.5235 143.513 89.11 144.631 88.5072C145.239 88.18 145.833 88.1385 146.301 88.3906C146.769 88.6427 147.028 89.1425 147.028 89.7978C147.028 91.0016 146.152 92.4151 145.035 93.017C144.689 93.2031 144.349 93.2971 144.033 93.2971" fill="#01BBFF"/>
<path d="M139.771 94.3491C139.655 94.3284 139.55 94.3121 139.55 94.3121C139.068 94.266 138.453 94.5055 137.797 95.2095C137.431 95.6036 137.153 96.0699 136.998 96.5706C136.748 97.3831 136.848 97.9804 137.15 98.3139C137.15 98.3139 137.757 99.1345 139.111 99.4283C139.175 99.4427 139.246 99.4156 139.281 99.3641L141.295 96.3772L141.383 95.3017C141.386 95.2619 141.375 95.2276 141.347 95.1987C141.192 95.0432 140.673 94.519 139.771 94.3491" fill="#01BBFF"/>
<path d="M139.416 94.6808C139.041 94.6808 138.571 94.9528 138.102 95.4571C137.768 95.8141 137.521 96.2362 137.386 96.6754C137.196 97.2891 137.223 97.8114 137.458 98.0717C137.499 98.1241 137.979 98.7414 139.034 99.0216L140.899 96.2561L140.97 95.3767C140.774 95.1896 140.355 94.8453 139.694 94.7188L139.483 94.6835C139.461 94.6817 139.438 94.6808 139.416 94.6808V94.6808ZM139.148 99.8096C139.104 99.8096 139.062 99.8051 139.018 99.7952C137.53 99.4716 136.845 98.567 136.817 98.5281C136.418 98.0907 136.337 97.3487 136.609 96.4666C136.777 95.9235 137.081 95.4029 137.491 94.9628C138.357 94.0328 139.108 93.8918 139.59 93.937L139.851 93.9795C140.532 94.1087 141.134 94.4323 141.64 94.942C141.746 95.0477 141.795 95.1842 141.784 95.3297L141.69 96.4992L139.622 99.5647C139.519 99.7184 139.338 99.8096 139.148 99.8096" fill="#01BBFF"/>
<path d="M141.941 96.3393C141.941 97.4048 141.139 98.6999 140.15 99.2323C139.161 99.7646 138.359 99.3335 138.359 98.2679C138.359 97.2033 139.161 95.9082 140.15 95.375C141.139 94.8427 141.941 95.2747 141.941 96.3393Z" fill="#252323"/>
<path d="M140.953 95.5239C140.778 95.5239 140.573 95.5845 140.355 95.7011C139.494 96.1656 138.767 97.3405 138.767 98.2678C138.767 98.6374 138.885 98.9121 139.089 99.0233C139.294 99.1327 139.607 99.0911 139.951 98.9058C140.813 98.4422 141.54 97.2673 141.54 96.3391C141.54 95.9704 141.423 95.6947 141.217 95.5845C141.143 95.5438 141.054 95.5239 140.953 95.5239ZM139.353 99.8385C139.114 99.8385 138.888 99.7843 138.685 99.6758C138.217 99.4228 137.96 98.923 137.96 98.2678C137.96 97.0648 138.835 95.6514 139.951 95.0486C140.559 94.7214 141.153 94.6798 141.621 94.932C142.09 95.1841 142.348 95.6839 142.348 96.3391C142.348 97.5429 141.472 98.9564 140.355 99.5583C140.01 99.7445 139.669 99.8385 139.353 99.8385Z" fill="#01BBFF"/>
<path d="M139.232 96.8217L138.561 96.4042L143.457 89.5437L144.129 89.9603L139.232 96.8217" fill="#01BBFF"/>
<path d="M141.682 98.3104L141.01 97.8919L145.533 91.5674L146.204 91.9849L141.682 98.3104" fill="#01BBFF"/>
<path d="M49.2052 55.9184C48.025 55.1258 46.0201 55.5831 43.9863 57.7684C42.6433 59.2117 41.8613 61.068 41.8991 62.9786V103.469C41.8991 104.064 42.2382 104.614 42.7896 104.914L90.4351 130.776C91.2383 131.212 92.2461 130.671 92.2461 129.805V88.574C92.4583 87.0476 93.1695 85.5997 94.2615 84.4276C96.2954 82.2423 98.3002 81.8817 99.4804 82.6743L49.2052 55.9184" fill="#01BBFF"/>
<path d="M47.9545 56.053C47.0165 56.053 45.7452 56.6332 44.3896 58.0901C43.0922 59.4837 42.3964 61.2171 42.4303 62.9695L42.4313 103.469C42.4313 103.888 42.6726 104.28 43.0611 104.49L90.7066 130.353C91.0128 130.519 91.2851 130.41 91.3878 130.355C91.4895 130.3 91.7279 130.135 91.7279 129.804V88.5739C91.9566 86.8911 92.6969 85.3683 93.8713 84.1057C95.0108 82.882 96.1106 82.2277 97.0815 81.9575L48.906 56.316C48.6541 56.147 48.3314 56.053 47.9545 56.053ZM91.0477 131.421C90.7492 131.421 90.4508 131.347 90.1785 131.2L42.533 105.337C41.8218 104.952 41.38 104.236 41.38 103.469V62.9785C41.3412 60.992 42.129 59.0246 43.596 57.4475C46.0746 54.7841 48.3188 54.7353 49.4951 55.5044L99.3605 82.0425C99.5165 82.1084 99.6619 82.188 99.7946 82.2765L99.2278 83.099L98.878 82.9128C97.9701 82.5558 96.4391 82.8432 94.6649 84.7483C93.6261 85.8645 92.9721 87.2084 92.7744 88.6363L92.7793 129.804C92.7793 130.388 92.4546 130.912 91.912 131.203C91.6417 131.349 91.3452 131.421 91.0477 131.421" fill="#252323"/>
<path d="M80.7393 125.484V83.6394C80.7025 81.7289 81.4845 79.8717 82.8275 78.4292C84.8614 76.244 86.8652 75.7867 88.0464 76.5793L58.4412 60.8348C57.2601 60.0422 55.2563 60.4995 53.2214 62.6848C51.8784 64.1281 51.0974 65.9845 51.1342 67.895V109.464L80.7393 125.484" fill="#252323"/>
<path d="M51.6562 109.182L80.2109 124.634V83.6385C80.1732 81.6512 80.96 79.6846 82.428 78.1084C83.5985 76.8495 84.7177 76.1744 85.6954 75.8942L58.1774 61.2596C57.2549 60.645 55.5166 60.9632 53.6145 63.0066C52.3171 64.4002 51.6213 66.1327 51.6552 67.886L51.6562 109.182ZM81.2623 126.335L50.6049 109.746V67.895C50.5671 65.9085 51.3539 63.9411 52.8209 62.364C55.317 59.6843 57.5708 59.6509 58.7443 60.4372L87.9414 75.9611C88.0887 76.0234 88.2253 76.0976 88.3503 76.1807L87.7835 77.004L87.4608 76.8323C86.5199 76.4645 84.9386 76.9055 83.2206 78.751C81.9231 80.1437 81.2274 81.8762 81.2613 83.6304L81.2623 126.335" fill="#252323"/>
<path d="M83.8454 74.7473L66.6151 65.4232L67.0211 64.7716L84.2514 74.0957L83.8454 74.7473" fill="#01BBFF"/>
<path d="M46.3685 65.098L87.4753 87.1118L46.3685 65.098Z" fill="#01BBFF"/>
<path d="M87.2123 87.5365L46.1055 65.5218L46.6278 64.6732L87.7346 86.687L87.2123 87.5365" fill="#252323"/>
<path d="M73.434 10.2821L73.7479 10.4511C74.0415 10.6092 74.3187 10.696 74.5813 10.7123C74.8419 10.7286 75.0842 10.677 75.3061 10.5577C75.5289 10.4375 75.6336 10.3155 75.6181 10.1926C75.6026 10.0688 75.465 9.93684 75.2043 9.79676L74.7702 9.56268L73.434 10.2821ZM76.3022 11.0584C75.8187 11.3187 75.2974 11.4371 74.7383 11.4118C74.1782 11.3865 73.6201 11.2247 73.0619 10.9237L72.6521 10.7032L71.0523 11.5654L70.0988 11.0512L74.5987 8.6282L76.0357 9.40273C76.5813 9.69646 76.8787 9.98295 76.9281 10.2622C76.9766 10.5424 76.7683 10.8072 76.3022 11.0584" fill="#252323"/>
<path d="M77.5067 12.3489L77.8158 12.5143C78.1172 12.677 78.3894 12.7701 78.6346 12.7927C78.8778 12.8162 79.1075 12.7701 79.3236 12.6535C79.5367 12.5387 79.6162 12.4185 79.559 12.2902C79.5018 12.1618 79.3187 12.0154 79.0135 11.85L78.7228 11.6937L77.5067 12.3489ZM76.7306 12.7665L75.0048 13.6964L74.0504 13.1822L78.5503 10.7592L79.8623 11.465C80.4728 11.7949 80.8148 12.0986 80.8855 12.3769C80.9563 12.6544 80.7644 12.9156 80.3119 13.1596C80.0464 13.3015 79.7383 13.3892 79.3865 13.4217C79.0348 13.4551 78.6666 13.4307 78.2829 13.3503C77.9476 14.2595 77.7354 14.8487 77.6463 15.119L76.5872 14.5478L77.2393 13.0403L76.7306 12.7665" fill="#252323"/>
<path d="M78.2104 15.4237L82.7094 13.0008L83.6648 13.5141L79.1648 15.9371L78.2104 15.4237Z" fill="#252323"/>
<path d="M84.2894 18.6968L83.0772 18.0443L84.5239 15.1568L84.4958 15.1415C83.9338 15.4867 83.5239 15.7289 83.2681 15.8662L81.1509 17.0068L80.2972 16.5468L84.7972 14.1247L86.0006 14.7718L84.585 17.6394L84.6072 17.6512C85.1615 17.3195 85.5588 17.089 85.801 16.9589L87.9308 15.8111L88.7884 16.2738L84.2894 18.6968" fill="#252323"/>
<path d="M87.1671 20.2415L86.2126 19.7282L89.918 17.7327L88.6961 17.0747L89.4897 16.6473L92.8889 18.4765L92.0943 18.9039L90.8724 18.246L87.1671 20.2415" fill="#252323"/>
<path d="M60.865 103.998L60.8601 113.906L80.0914 124.313V121.006L64.7515 112.736L64.7554 106.096L60.865 103.998Z" fill="#01BBFF"/>
<path d="M80.0865 98.2624L74.3376 95.1625L60.8746 78.8071L60.8717 85.0702L69.9472 95.6831L60.865 96.4693L60.8601 102.77L74.4849 101.019L80.0865 104.038V98.2624" fill="#01BBFF"/>
<path d="M53.1166 12.0094C56.0332 12.68 56.0332 14.7939 53.1166 15.4654C52.3124 15.6507 51.4597 15.6507 50.6564 15.4654C47.7398 14.7939 47.7398 12.6809 50.6564 12.0094C51.4597 11.8242 52.3124 11.8242 53.1166 12.0094Z" fill="#01BBFF"/>
<path d="M51.8882 12.361C51.5171 12.361 51.145 12.4017 50.7836 12.4849C49.6983 12.7352 48.9958 13.2268 48.9958 13.7375C48.9958 14.2481 49.6983 14.7397 50.7836 14.9901C51.5064 15.1564 52.27 15.1564 52.9928 14.9901C54.0791 14.7397 54.7806 14.2481 54.7806 13.7375C54.7806 13.2268 54.0791 12.7352 52.9938 12.4849C52.6314 12.4017 52.2603 12.361 51.8882 12.361ZM51.8882 16.0936C51.4328 16.0936 50.9754 16.043 50.5326 15.9408C48.9367 15.5739 47.9464 14.7298 47.9464 13.7375C47.9464 12.7451 48.9367 11.901 50.5326 11.5341C51.4202 11.3298 52.3582 11.3298 53.2448 11.5341C54.8397 11.901 55.831 12.7451 55.831 13.7375C55.831 14.7298 54.8397 15.5739 53.2448 15.9408C52.801 16.043 52.3456 16.0936 51.8882 16.0936Z" fill="#252323"/>
<path d="M51.8903 7.30536C50.6723 7.30536 49.6849 8.2263 49.6849 9.36233V12.277C49.6849 12.727 50.1548 13.1762 51.0967 13.3922C51.6151 13.5124 52.1654 13.5124 52.6848 13.3922C53.6257 13.1762 54.0966 12.727 54.0966 12.277V9.36233C54.0966 8.2263 53.1092 7.30536 51.8903 7.30536Z" fill="white"/>
<path d="M51.8827 7.79525C50.9563 7.79525 50.2025 8.49838 50.2025 9.36238V12.277C50.2025 12.4794 50.5494 12.7641 51.2151 12.9169C51.6521 13.0181 52.1143 13.0181 52.5513 12.9169C53.216 12.7641 53.5629 12.4794 53.5629 12.277V9.36238C53.5629 8.49838 52.81 7.79525 51.8827 7.79525V7.79525ZM51.8827 13.9716C51.5736 13.9716 51.2635 13.9372 50.9622 13.8676C49.6269 13.5604 49.1521 12.8446 49.1521 12.277V9.36238C49.1521 7.95793 50.3769 6.81558 51.8827 6.81558C53.3885 6.81558 54.6142 7.95793 54.6142 9.36238V12.277C54.6142 12.8446 54.1385 13.5613 52.8022 13.8676C52.5019 13.9372 52.1918 13.9716 51.8827 13.9716" fill="#252323"/>
<path d="M51.8827 13.9716C51.5736 13.9716 51.2635 13.9372 50.9622 13.8676C49.6269 13.5613 49.1521 12.8446 49.1521 12.277C49.1521 11.7094 49.6269 10.9937 50.9622 10.6864L51.2151 11.6371C50.5494 11.7899 50.2015 12.0755 50.2015 12.277C50.2015 12.4794 50.5494 12.7641 51.2141 12.9169C51.6521 13.0172 52.1143 13.0181 52.5513 12.9169C53.216 12.7641 53.5638 12.4794 53.5638 12.277C53.5638 12.0755 53.216 11.7899 52.5513 11.6371L52.8032 10.6864C54.1385 10.9937 54.6142 11.7094 54.6142 12.277C54.6142 12.8446 54.1385 13.5613 52.8022 13.8676C52.5019 13.9372 52.1918 13.9716 51.8827 13.9716" fill="#252323"/>
<path d="M136.579 34.7388C139.496 35.4103 139.496 37.5242 136.579 38.1948C135.775 38.3801 134.923 38.3801 134.119 38.1948C131.202 37.5242 131.202 35.4103 134.119 34.7388C134.923 34.5535 135.775 34.5535 136.579 34.7388Z" fill="#01BBFF"/>
<path d="M135.355 35.0894C134.983 35.0894 134.611 35.131 134.249 35.2141C133.164 35.4645 132.462 35.9561 132.462 36.4667C132.462 36.9774 133.164 37.469 134.249 37.7193C134.974 37.8865 135.739 37.8856 136.46 37.7193C137.545 37.469 138.247 36.9774 138.247 36.4667C138.247 35.9561 137.545 35.4645 136.46 35.2141C136.098 35.131 135.727 35.0894 135.355 35.0894V35.0894ZM135.354 38.8237C134.899 38.8237 134.442 38.7722 133.998 38.6701C132.403 38.3032 131.412 37.4591 131.412 36.4667C131.412 35.4744 132.403 34.6303 133.998 34.2634C134.887 34.0591 135.825 34.06 136.711 34.2634C138.306 34.6303 139.297 35.4744 139.297 36.4667C139.297 37.4591 138.306 38.3032 136.712 38.6701C136.267 38.7722 135.811 38.8237 135.354 38.8237" fill="#252323"/>
<path d="M135.35 30.0348C134.131 30.0348 133.144 30.9557 133.144 32.0918V35.0064C133.144 35.4565 133.615 35.9056 134.556 36.1216C135.075 36.2418 135.624 36.2418 136.144 36.1216C137.085 35.9056 137.556 35.4565 137.556 35.0064V32.0918C137.556 30.9557 136.568 30.0348 135.35 30.0348" fill="white"/>
<path d="M135.352 30.5246C134.426 30.5246 133.672 31.2277 133.672 32.0917V35.0063C133.672 35.2088 134.02 35.4934 134.684 35.6471C135.121 35.7474 135.584 35.7474 136.021 35.6462C136.685 35.4934 137.033 35.2088 137.033 35.0063V32.0917C137.033 31.2277 136.279 30.5246 135.352 30.5246V30.5246ZM135.352 36.7009C135.043 36.7009 134.734 36.6665 134.433 36.5978C133.097 36.2906 132.621 35.5748 132.621 35.0063V32.0917C132.621 30.6872 133.846 29.5449 135.352 29.5449C136.858 29.5449 138.084 30.6872 138.084 32.0917V35.0063C138.084 35.5748 137.608 36.2906 136.272 36.5978C135.971 36.6665 135.662 36.7009 135.352 36.7009" fill="#252323"/>
<path d="M135.352 36.7009C135.043 36.7009 134.734 36.6665 134.433 36.5978C133.097 36.2906 132.621 35.5748 132.621 35.0063C132.621 34.4388 133.097 33.723 134.432 33.4157L134.684 34.3665C134.02 34.5192 133.672 34.8048 133.672 35.0063C133.672 35.2088 134.02 35.4934 134.684 35.6471C135.121 35.7474 135.584 35.7474 136.021 35.6462C136.685 35.4934 137.033 35.2088 137.033 35.0063C137.033 34.8048 136.685 34.5192 136.021 34.3665L136.272 33.4157C137.608 33.723 138.083 34.4388 138.083 35.0063C138.083 35.5748 137.608 36.2906 136.272 36.5978C135.971 36.6665 135.662 36.7009 135.352 36.7009" fill="#252323"/>
<path fill-rule="evenodd" clip-rule="evenodd" d="M44.3773 65.9872L89.1399 90.0915L89.1399 138.3L44.3773 114.196L44.3773 65.9872Z" fill="#252323"/>
<path d="M64.8173 85.8314L65.3276 86.1062L65.3276 98.5884L64.5953 98.1941L64.5953 85.7119L64.8173 85.8314Z" fill="#EC268F"/>
<path d="M50.5238 90.3747L50.5238 78.1335L51.4083 78.6098L56.1442 92.4448L60.8246 83.6804L61.7091 84.1567L61.7091 96.6389L60.9768 96.2446L60.9768 85.2916L56.4056 93.7194L56.1621 93.5883L56.1478 93.6172L56.1317 93.5719L55.8291 93.409L51.2561 80.0571L51.2561 91.0101L50.5238 90.6157L50.5238 90.3747Z" fill="#00AFEF"/>
<path d="M69.8345 86.7667L69.8345 86.2249L75.4907 89.2707L75.4907 90.0536L69.8345 87.0078L69.8345 86.7667Z" fill="#FFF212"/>
<path d="M64.585 83.9802L64.585 83.3959L65.3514 83.8086L65.3514 84.632L64.585 84.2193L64.585 83.9802Z" fill="#EC268F"/>
<path d="M74.9397 111.979L75.3623 112.432L71.0794 120.236C70.818 120.705 70.5261 121.003 70.2056 121.131C69.8672 121.267 69.5002 121.218 69.1027 120.984C68.8878 120.89 68.6658 120.745 68.4348 120.555C68.2074 120.365 67.9693 120.125 67.7204 119.837L67.5396 119.626L67.8457 119.133L68.0409 119.337C68.2773 119.582 68.485 119.776 68.6622 119.92C68.8251 120.05 68.9594 120.136 69.0669 120.178L69.0973 120.191C69.3462 120.325 69.5736 120.345 69.7795 120.252C70.0033 120.148 70.2056 119.912 70.3847 119.546L70.8627 118.66L67.314 108.038L67.9424 108.037L71.2835 118.051L74.7338 111.756L74.9397 111.979Z" fill="#FEFEFE"/>
<path d="M60.0697 111.483L60.0697 116.121L59.3356 115.726L59.3356 103.552L60.0697 103.947L60.0697 105.673C60.3221 105.362 60.6176 105.153 60.9596 105.051C61.5236 104.879 62.2057 104.997 63.0007 105.404L63.0204 105.415C64.1574 106.114 65.0294 107.037 65.6363 108.181C66.2308 109.303 66.5585 110.631 66.6175 112.157L66.6175 112.171C66.5978 113.68 66.2953 114.67 65.708 115.139C65.1082 115.616 64.229 115.553 63.067 114.949L63.0598 114.945C62.2451 114.485 61.5504 113.862 60.9757 113.08C60.6265 112.603 60.3257 112.073 60.0697 111.483ZM63.0759 114.165C63.9927 114.637 64.682 114.684 65.144 114.305C65.6184 113.914 65.8655 113.071 65.8852 111.78C65.8297 110.462 65.5576 109.338 65.0705 108.405C64.5979 107.498 63.9085 106.761 63.0061 106.196C62.084 105.78 61.3803 105.766 60.8969 106.159C60.4027 106.562 60.1252 107.387 60.0697 108.639C60.1449 109.92 60.4331 111.02 60.9363 111.94C61.4322 112.844 62.1449 113.586 63.0759 114.165Z" fill="#FEFEFE"/>
<path d="M47.6172 106.269L47.6172 94.026C48.7381 94.6296 49.8572 95.2283 50.978 95.8377C52.9977 96.9484 54.525 98.2896 55.5563 99.8612C56.593 101.441 57.1212 103.236 57.1391 105.241L57.1391 105.451C57.1481 105.72 57.1499 105.978 57.1409 106.224C57.0854 107.914 56.5966 108.966 55.6781 109.379C54.7649 109.79 53.4328 109.563 51.6853 108.699C51.3755 108.545 51.0514 108.371 50.713 108.175L47.6172 106.51L47.6172 106.269ZM48.3514 95.2119L48.3514 106.113L50.7202 107.388C52.7112 108.542 54.1759 108.923 55.1177 108.534C56.0505 108.149 56.4802 106.994 56.4068 105.073L56.4068 105.063C56.4068 103.216 55.9377 101.582 55.0013 100.168C54.0577 98.7418 52.6271 97.5144 50.713 96.4837L48.3514 95.2119Z" fill="#FEFEFE"/>
<path d="M77.1654 92.7175L77.1636 117.727L84.929 113.848L85.4751 114.731L80.6336 117.087L85.8798 126.738L85.2907 126.894L80.0821 117.307L77.1636 118.767L77.1636 122.307L76.4313 121.913C76.4313 112.373 76.4295 102.831 76.4313 93.2922L68.9559 100.54L68.1609 100.112L68.1609 87.6296L68.8342 87.9921L68.8342 99.2614L76.3095 92.0175L77.1654 92.4784L77.1654 92.7175Z" fill="#FFF212"/>
</svg>
