<svg width="122" height="174" viewBox="0 0 122 174" fill="none" xmlns="http://www.w3.org/2000/svg">
<path d="M58.381 91.5029L57.0373 92.2782C56.8993 92.3576 56.6591 92.3472 56.5003 92.2552L55.2339 91.5238C55.0751 91.4319 55.0563 91.2939 55.1942 91.2145L56.5378 90.4392C56.6757 90.3577 56.9181 90.3682 57.077 90.4602L58.3433 91.1916C58.5021 91.2835 58.5189 91.4235 58.381 91.5029" fill="#1A162C"/>
<path d="M61.6754 89.5992L60.3317 90.3745C60.1938 90.456 59.9535 90.4455 59.7947 90.3536L58.5283 89.6222C58.3674 89.5303 58.3507 89.3902 58.4887 89.3129L59.8323 88.5356C59.9702 88.4562 60.2105 88.4666 60.3714 88.5585L61.6378 89.2899C61.7966 89.3819 61.8134 89.5198 61.6754 89.5992" fill="#1A162C"/>
<path d="M65.2213 84.0155L63.8755 84.7908C63.7397 84.8702 63.4973 84.8597 63.3385 84.7678L62.0721 84.0364C61.9133 83.9466 61.8966 83.8065 62.0345 83.7271L63.3782 82.9498C63.5161 82.8704 63.7564 82.8808 63.9152 82.9727L65.1816 83.7041C65.3404 83.7961 65.3592 83.9361 65.2213 84.0155Z" fill="#1A162C"/>
<path d="M65.0474 87.7228L63.7038 88.498C63.5658 88.5795 63.3255 88.5691 63.1667 88.4772L61.9004 87.7458C61.7416 87.6538 61.7227 87.5138 61.8606 87.4344L63.2064 86.6591C63.3423 86.5797 63.5846 86.5901 63.7435 86.6821L65.0098 87.4135C65.1686 87.5054 65.1853 87.6433 65.0474 87.7228" fill="#1A162C"/>
<path d="M7.41647 118.324L6.07071 119.099C5.93279 119.179 5.69252 119.17 5.5337 119.078L4.26733 118.347C4.10852 118.255 4.08972 118.115 4.22764 118.036L5.57339 117.26C5.71131 117.181 5.95159 117.191 6.11041 117.283L7.37677 118.015C7.53559 118.107 7.55439 118.245 7.41647 118.324" fill="#1A162C"/>
<path d="M10.5434 120.13L9.19971 120.907C9.06179 120.986 8.82151 120.976 8.6627 120.884L7.39633 120.153C7.23542 120.061 7.21872 119.921 7.35664 119.841L8.70035 119.066C8.83827 118.986 9.0786 118.997 9.23951 119.089L10.5058 119.82C10.6646 119.912 10.6813 120.05 10.5434 120.13" fill="#1A162C"/>
<path d="M7.24896 122.033L5.90535 122.809C5.76743 122.888 5.52705 122.878 5.36823 122.786L4.10187 122.054C3.94305 121.962 3.92425 121.824 4.06217 121.745L5.40588 120.968C5.5438 120.888 5.78623 120.899 5.94504 120.991L7.21141 121.722C7.37023 121.814 7.38688 121.952 7.24896 122.033" fill="#1A162C"/>
<path d="M13.8562 122.042L12.5125 122.817C12.3746 122.896 12.1342 122.886 11.9754 122.794L10.707 122.063C10.5482 121.971 10.5315 121.833 10.6694 121.753L12.0131 120.976C12.151 120.897 12.3913 120.907 12.5501 120.999L13.8186 121.73C13.9774 121.822 13.9941 121.962 13.8562 122.042Z" fill="#1A162C"/>
<path d="M10.5548 123.943L9.21122 124.719C9.0733 124.798 8.83292 124.79 8.6741 124.698L7.40569 123.966C7.24688 123.874 7.23012 123.734 7.36804 123.655L8.71175 122.88C8.84967 122.8 9.08995 122.809 9.24877 122.901L10.5173 123.632C10.6761 123.724 10.6927 123.864 10.5548 123.943Z" fill="#1A162C"/>
<path d="M16.9845 123.847L15.6387 124.623C15.5029 124.702 15.2605 124.691 15.1017 124.6L13.8353 123.868C13.6765 123.776 13.6597 123.638 13.7977 123.559L15.1414 122.782C15.2793 122.702 15.5196 122.713 15.6784 122.805L16.9448 123.536C17.1036 123.628 17.1224 123.768 16.9845 123.847Z" fill="#1A162C"/>
<path d="M13.6832 125.749L12.3395 126.524C12.2016 126.604 11.9613 126.595 11.8004 126.503L10.5341 125.772C10.3752 125.68 10.3585 125.54 10.4964 125.461L11.8401 124.685C11.978 124.606 12.2183 124.616 12.3771 124.708L13.6435 125.44C13.8044 125.532 13.8211 125.669 13.6832 125.749" fill="#1A162C"/>
<path d="M20.1043 125.653L18.7606 126.428C18.6227 126.507 18.3824 126.497 18.2236 126.405L16.9572 125.674C16.7984 125.582 16.7796 125.444 16.9175 125.364L18.2612 124.589C18.3992 124.51 18.6395 124.518 18.8004 124.61L20.0667 125.341C20.2255 125.433 20.2422 125.573 20.1043 125.653" fill="#1A162C"/>
<path d="M16.8127 127.554L15.4669 128.332C15.329 128.411 15.0887 128.401 14.9299 128.309L13.6635 127.577C13.5047 127.485 13.4859 127.345 13.6238 127.266L14.9696 126.491C15.1054 126.411 15.3479 126.422 15.5067 126.514L16.773 127.245C16.9318 127.337 16.9486 127.475 16.8127 127.554Z" fill="#1A162C"/>
<path d="M4.28694 116.422L2.94334 117.198C2.80542 117.277 2.56504 117.267 2.40622 117.175L1.13781 116.443C0.978994 116.351 0.96224 116.213 1.10016 116.134L2.44387 115.357C2.58179 115.277 2.82207 115.288 2.98088 115.38L4.24725 116.111C4.40816 116.203 4.42486 116.343 4.28694 116.422Z" fill="#1A162C"/>
<path d="M4.12154 120.13L2.77783 120.907C2.63991 120.986 2.39759 120.976 2.23877 120.884L0.972405 120.153C0.813589 120.061 0.796834 119.921 0.934754 119.841L2.27846 119.066C2.41638 118.986 2.65666 118.997 2.81548 119.089L4.08185 119.82C4.24066 119.912 4.25946 120.05 4.12154 120.13" fill="#1A162C"/>
<path d="M42.8606 123.661L41.517 124.437C41.3791 124.518 41.1387 124.508 40.9799 124.416L39.7115 123.684C39.5527 123.592 39.5359 123.452 39.6738 123.373L41.0175 122.598C41.1555 122.518 41.3957 122.529 41.5546 122.621L42.8231 123.352C42.9819 123.444 42.9985 123.582 42.8606 123.661" fill="#1A162C"/>
<path d="M45.9927 125.467L44.649 126.244C44.5111 126.324 44.2707 126.313 44.1098 126.221L42.8436 125.49C42.6847 125.398 42.668 125.258 42.8059 125.178L44.1496 124.403C44.2875 124.324 44.5278 124.334 44.6866 124.426L45.953 125.158C46.1118 125.249 46.1306 125.387 45.9927 125.467" fill="#1A162C"/>
<path d="M42.6914 127.37L41.3477 128.146C41.2098 128.225 40.9695 128.215 40.8107 128.123L39.5423 127.391C39.3835 127.299 39.3667 127.161 39.5046 127.082L40.8483 126.305C40.9863 126.225 41.2265 126.236 41.3854 126.328L42.6538 127.059C42.8126 127.151 42.8293 127.291 42.6914 127.37Z" fill="#1A162C"/>
<path d="M46.004 129.281L44.6604 130.056C44.5225 130.135 44.28 130.127 44.1212 130.035L42.8549 129.303C42.696 129.212 42.6793 129.072 42.8172 128.992L44.1609 128.217C44.2988 128.137 44.5391 128.148 44.6979 128.238L45.9643 128.969C46.1231 129.061 46.1419 129.201 46.004 129.281" fill="#1A162C"/>
<path d="M39.7335 121.76L38.3877 122.535C38.2498 122.614 38.0095 122.604 37.8507 122.512L36.5843 121.781C36.4255 121.689 36.4067 121.551 36.5447 121.471L37.8904 120.694C38.0283 120.614 38.2686 120.625 38.4274 120.717L39.6938 121.448C39.8526 121.54 39.8693 121.68 39.7335 121.76Z" fill="#1A162C"/>
<path d="M39.5623 125.467L38.2186 126.244C38.0807 126.324 37.8403 126.313 37.6815 126.221L36.4152 125.49C36.2563 125.398 36.2375 125.258 36.3755 125.178L37.7192 124.403C37.8571 124.324 38.0974 124.334 38.2583 124.426L39.5247 125.158C39.6835 125.249 39.7002 125.387 39.5623 125.467" fill="#1A162C"/>
<path d="M23.4177 127.563L22.0741 128.34C21.9362 128.419 21.6958 128.409 21.537 128.317L20.2686 127.586C20.1098 127.494 20.093 127.354 20.231 127.274L21.5747 126.499C21.7126 126.42 21.9529 126.43 22.1117 126.522L23.3802 127.253C23.539 127.345 23.5557 127.483 23.4177 127.563Z" fill="#1A162C"/>
<path d="M20.1238 129.466L18.7802 130.242C18.6423 130.321 18.4019 130.311 18.2431 130.219L16.9768 129.487C16.8159 129.395 16.7991 129.257 16.937 129.178L18.2807 128.401C18.4187 128.321 18.659 128.332 18.8199 128.424L20.0863 129.155C20.2451 129.247 20.2617 129.387 20.1238 129.466" fill="#1A162C"/>
<path d="M26.7115 125.661L25.3679 126.436C25.23 126.516 24.9896 126.505 24.8308 126.413L23.5624 125.682C23.4036 125.59 23.3868 125.452 23.5247 125.373L24.8684 124.597C25.0064 124.518 25.2466 124.526 25.4054 124.618L26.674 125.35C26.8328 125.442 26.8494 125.582 26.7115 125.661" fill="#1A162C"/>
<path d="M30.0053 123.757L28.6617 124.535C28.5237 124.614 28.2834 124.604 28.1225 124.512L26.8561 123.78C26.6973 123.688 26.6806 123.551 26.8185 123.471L28.1622 122.694C28.3001 122.614 28.5404 122.625 28.6992 122.717L29.9656 123.448C30.1265 123.54 30.1432 123.678 30.0053 123.757" fill="#1A162C"/>
<path d="M33.3065 121.856L31.9629 122.631C31.8249 122.71 31.5825 122.702 31.4237 122.61L30.1573 121.879C29.9985 121.787 29.9818 121.647 30.1197 121.567L31.4634 120.792C31.6013 120.713 31.8416 120.723 32.0004 120.813L33.2668 121.544C33.4256 121.636 33.4444 121.776 33.3065 121.856" fill="#1A162C"/>
<path d="M36.6014 119.954L35.2557 120.729C35.1177 120.809 34.8775 120.798 34.7186 120.706L33.4523 119.975C33.2935 119.883 33.2747 119.745 33.4126 119.666L34.7583 118.888C34.8962 118.809 35.1365 118.819 35.2953 118.911L36.5617 119.643C36.7205 119.735 36.7393 119.875 36.6014 119.954Z" fill="#1A162C"/>
<path d="M26.546 129.368L25.2023 130.146C25.0644 130.225 24.8241 130.215 24.6632 130.123L23.3969 129.391C23.2381 129.299 23.2213 129.161 23.3593 129.08L24.703 128.305C24.8409 128.225 25.0812 128.236 25.24 128.328L26.5063 129.059C26.6652 129.151 26.684 129.289 26.546 129.368" fill="#1A162C"/>
<path d="M29.8398 127.467L28.494 128.242C28.3582 128.321 28.1157 128.313 27.9569 128.221L26.6907 127.49C26.5319 127.398 26.5151 127.258 26.653 127.178L27.9967 126.403C28.1346 126.323 28.3749 126.332 28.5337 126.424L29.8001 127.155C29.9589 127.247 29.9777 127.387 29.8398 127.467Z" fill="#1A162C"/>
<path d="M33.1348 125.563L31.789 126.34C31.6511 126.42 31.4107 126.409 31.2519 126.317L29.9857 125.586C29.8268 125.494 29.8079 125.356 29.9459 125.276L31.2917 124.499C31.4296 124.42 31.6699 124.43 31.8287 124.522L33.0951 125.253C33.2539 125.345 33.2706 125.483 33.1348 125.563Z" fill="#1A162C"/>
<path d="M36.4264 123.661L35.0828 124.437C34.9449 124.518 34.7045 124.508 34.5457 124.416L33.2794 123.684C33.1205 123.592 33.1017 123.452 33.2397 123.373L34.5834 122.598C34.7213 122.518 34.9637 122.529 35.1225 122.621L36.3889 123.352C36.5477 123.444 36.5644 123.582 36.4264 123.661" fill="#1A162C"/>
<path d="M41.3895 111.288C41.3895 111.263 41.3206 88.0027 41.3185 87.3612C41.3185 87.2943 41.2725 87.2421 41.2077 87.2253L23.7003 88.849C23.6877 88.847 23.6752 88.8428 23.6648 88.8344L22.0285 79.18C21.9826 79.1529 21.9261 79.1529 21.8802 79.18L5.78534 88.4813C5.74981 88.5022 5.70796 88.5063 5.67034 88.4958L2.586 87.6475C2.48988 87.6224 2.39795 87.6892 2.39795 87.7875C2.40213 88.5753 2.47943 111.47 2.4857 111.558L2.48988 111.583C2.54631 112.101 2.81792 112.596 3.33199 112.893L19.6065 122.263C20.992 123.064 22.6993 123.059 24.0827 122.255L40.5349 112.747C41.0866 112.425 41.3644 111.875 41.3853 111.315L41.3895 111.288" fill="#EF4BA2"/>
<path d="M3.10167 88.5209C3.10585 89.5051 3.11214 91.367 3.11841 93.626C3.14139 100.219 3.18106 111.257 3.18524 111.537C3.20823 111.704 3.3002 112.065 3.68052 112.285L19.955 121.653C21.1211 122.328 22.565 122.324 23.7269 121.647L40.1791 112.136C40.4821 111.961 40.666 111.652 40.6807 111.29L41.387 111.288L40.6827 111.29C40.6827 111.204 40.6263 91.7703 40.6137 87.9859L23.6204 89.5615L23.3257 89.4528L23.0269 89.2898L21.4888 80.2164L6.13377 89.0913C5.93525 89.2042 5.70541 89.2355 5.4839 89.1749L3.10167 88.5209ZM21.8358 123.563C20.9435 123.563 20.0491 123.333 19.2529 122.871L2.97841 113.503C2.30553 113.114 1.87292 112.444 1.78725 111.658C1.77889 111.56 1.77683 111.528 1.71205 93.6301C1.7016 90.4392 1.69322 88.0381 1.69113 87.7915C1.68904 87.5282 1.80811 87.2796 2.01917 87.1166C2.23232 86.9536 2.50818 86.8993 2.7673 86.9703L5.63226 87.756L21.5265 78.5697C21.7835 78.4192 22.1137 78.4172 22.3791 78.5718L22.6654 78.7369L24.2493 88.0925L41.2699 86.5126L41.3953 86.5461C41.7673 86.6506 42.018 86.9786 42.018 87.3611C42.0201 88.0005 42.0891 111.263 42.0891 111.288L42.0807 111.395C42.0535 112.182 41.6043 112.935 40.8855 113.353L24.4311 122.863C23.6329 123.329 22.7343 123.563 21.8358 123.563" fill="#1A162C"/>
<path d="M41.2024 87.2294L23.695 88.8573C23.6825 88.8531 23.6699 88.8469 23.6595 88.8427L21.6303 94.815L21.714 122.859C22.529 122.882 23.3481 122.685 24.0774 122.261L40.5296 112.753C41.0813 112.431 41.3592 111.882 41.3801 111.324L41.3843 111.294C41.3843 111.269 41.3153 88.0089 41.3132 87.3673C41.3132 87.3005 41.2672 87.2482 41.2024 87.2294" fill="#1A162C"/>
<path d="M22.3335 94.93L22.415 122.115C22.8789 122.044 23.3219 121.889 23.7252 121.653L40.1774 112.143C40.4804 111.967 40.6644 111.658 40.679 111.296C40.6811 111.211 40.6246 91.7766 40.612 87.9922L24.1724 89.5177L22.3335 94.93ZM21.8362 123.565C21.7902 123.565 21.7421 123.563 21.6961 123.563L21.0128 123.544L20.9272 94.7001L23.2634 87.8229L23.836 88.1364L41.2682 86.519L41.3936 86.5545C41.7656 86.6569 42.0164 86.985 42.0164 87.3674C42.0185 88.0068 42.0874 111.269 42.0874 111.294C42.0519 112.189 41.6026 112.941 40.8838 113.359L24.4295 122.869C23.65 123.325 22.7557 123.565 21.8362 123.565Z" fill="#1A162C"/>
<path d="M19.6128 98.3948L3.26311 88.9807C2.11169 88.3162 2.10955 86.6569 3.25679 85.9882L19.7821 76.4362C21.1195 75.6568 22.7704 75.6547 24.1099 76.4279L40.4597 85.842C41.6111 86.5044 41.6131 88.1636 40.4659 88.8323L23.9406 98.3864C22.6032 99.1638 20.9523 99.1679 19.6128 98.3948" fill="white"/>
<path d="M21.9486 76.5532C21.3196 76.5532 20.6927 76.7183 20.1327 77.0422L3.6053 86.5963C3.28558 86.7823 3.09533 87.1146 3.09533 87.4844C3.09742 87.8543 3.28757 88.1866 3.60938 88.3726L19.9592 97.7846C21.0772 98.4303 22.4668 98.4282 23.5807 97.7783L40.108 88.2242C40.4277 88.0403 40.6179 87.708 40.6179 87.3361C40.6158 86.9662 40.4256 86.6339 40.1038 86.4501L23.7541 77.0381C23.1962 76.7142 22.5734 76.5532 21.9486 76.5532ZM21.7647 99.6736C20.8975 99.6736 20.0303 99.45 19.2571 99.0028L2.90727 89.5909C2.14662 89.152 1.69111 88.3642 1.69111 87.4865C1.68902 86.6089 2.14035 85.8231 2.89891 85.3801L19.4264 75.826C20.9769 74.9275 22.9035 74.9233 24.4583 75.8177L40.8059 85.2317C41.5666 85.6706 42.0222 86.4563 42.0222 87.334C42.0243 88.2117 41.5729 88.9994 40.8143 89.4404L24.2869 98.9945C23.5096 99.4459 22.6382 99.6736 21.7647 99.6736Z" fill="#1A162C"/>
<path d="M13.83 94.9677L35.1762 82.7011L29.4754 79.5206L8.54932 91.9272L13.83 94.9677" fill="white"/>
<path d="M9.94576 91.9188L13.8347 94.1547L33.7515 82.7095L29.4906 80.3314L9.94576 91.9188ZM13.8347 95.7784L7.15814 91.9355L29.4677 78.7098L36.604 82.6907L13.8347 95.7784" fill="#1A162C"/>
<path d="M9.37653 82.4504L29.8012 95.0408L35.0735 91.9919L14.5799 79.4851L9.37653 82.4504Z" fill="white"/>
<path d="M10.7511 82.4733L29.807 94.2216L33.6939 91.9752L14.5628 80.3L10.7511 82.4733ZM29.7841 95.8578L7.9928 82.4274L14.5878 78.6701L36.446 92.0065L29.7841 95.8578" fill="#1A162C"/>
<path d="M14.4586 114.872L13.05 114.868L13.1294 94.9657L14.5358 94.9699L14.4586 114.872Z" fill="#1A162C"/>
<path d="M9.22456 100.441L7.81616 100.436L7.85371 91.923L9.26007 91.9293L9.22456 100.441" fill="#1A162C"/>
<path d="M35.5574 99.985H34.1511L34.1594 94.4139L35.5658 94.416L35.5574 99.985" fill="#EF4BA2"/>
<path d="M28.4233 114.345L28.4171 97.0468H29.8234L29.8296 114.345H28.4233Z" fill="#EF4BA2"/>
<path d="M16.2813 108.043C16.2813 109.882 14.9899 110.626 13.3975 109.708C11.8052 108.789 10.5158 106.553 10.5158 104.714C10.5158 102.875 11.8052 102.131 13.3975 103.051C14.9899 103.97 16.2813 106.204 16.2813 108.043" fill="white"/>
<path d="M68.3262 129.044C68.3262 129.019 68.3283 17.162 68.3283 16.5309C68.3283 16.464 68.2844 16.4139 68.2217 16.3951C65.2355 13.5949 56.0241 12.9408 53.0379 10.1406L41.8915 3.97392C41.8456 3.94884 41.7892 3.94884 41.7453 3.97392L41.0724 4.37517C41.0389 4.39398 40.9971 4.40021 40.9595 4.38767L37.9316 3.54557C37.8376 3.51841 37.7456 3.58526 37.7456 3.68347C37.7477 4.45666 37.7539 115.954 37.7602 116.04L37.7644 116.067C37.8166 116.575 38.082 117.064 38.5877 117.357L62.0592 131.071C63.4196 131.861 65.0975 131.863 66.46 131.077L67.4819 130.474C68.0252 130.16 68.3011 129.621 68.322 129.071L68.3262 129.044" fill="#EF4BA2"/>
<path d="M38.4413 4.41916C38.4434 7.46802 38.4434 19.6112 38.4455 34.8347C38.4476 66.9804 38.4518 115.56 38.4581 116.03C38.4769 116.184 38.5646 116.535 38.9345 116.749L62.408 130.465C63.5448 131.126 64.9616 131.128 66.1005 130.47L67.1182 129.87C67.4212 129.694 67.601 129.393 67.6135 129.044H67.6155V128.844C67.6176 117.727 67.6198 22.5953 67.6177 16.8048C66.2009 15.5802 63.269 14.7485 60.4312 13.944C57.2528 13.0454 54.2499 12.1949 52.6157 10.7154L41.8204 4.74307L41.4255 4.97918C41.227 5.0962 40.9866 5.12753 40.7651 5.06693L38.4413 4.41916ZM64.2554 132.367C63.3714 132.367 62.4874 132.137 61.6996 131.679L38.2261 117.965C37.5637 117.58 37.1394 116.914 37.0579 116.14C37.0496 116.042 37.0475 116.015 37.0392 34.8347C37.0371 17.3648 37.0371 3.95106 37.035 3.68567C37.035 3.4161 37.1583 3.16952 37.3693 3.00861C37.5783 2.84771 37.8583 2.79548 38.1153 2.86862L40.9135 3.64807L41.3773 3.37013C41.6511 3.2134 41.9771 3.21548 42.2383 3.36594L53.5101 9.62875C54.8788 10.9118 57.8964 11.7665 60.8136 12.5919C63.9816 13.4884 66.9782 14.3368 68.6145 15.808C68.8673 15.9584 69.0261 16.2259 69.0261 16.531C69.0261 17.1287 69.024 117.411 69.024 128.844L69.0157 129.151C68.9843 129.93 68.5392 130.672 67.8266 131.084L66.8111 131.684C66.0212 132.139 65.1372 132.367 64.2554 132.367" fill="#1A162C"/>
<path d="M68.2227 16.4014C66.3085 16.4766 66.5865 16.4662 64.6723 16.5394L64.1374 19.1828L64.1332 131.665C64.9356 131.688 65.7422 131.5 66.461 131.084L67.4829 130.48C68.0262 130.166 68.3021 129.627 68.323 129.078L68.3272 129.051C68.3272 129.025 68.3293 17.1683 68.3293 16.5373C68.3293 16.4704 68.2854 16.4202 68.2227 16.4014" fill="#1A162C"/>
<path d="M64.8348 19.2538L64.8328 130.921C65.2821 130.852 65.7125 130.701 66.1032 130.476L67.1209 129.876C67.424 129.7 67.6037 129.399 67.6162 129.05L67.6183 128.85C67.6204 117.898 67.6225 25.4121 67.6225 17.1286L65.2486 17.2205L64.8348 19.2538ZM64.2622 132.369C64.2121 132.369 64.1599 132.369 64.1076 132.367L63.4263 132.346L63.4431 19.0427L64.0888 15.858L68.3016 15.695L68.4082 15.7243C68.7781 15.8308 69.0288 16.1569 69.0288 16.5372C69.0288 17.1348 69.0268 117.417 69.0268 128.85V129.05C68.9871 129.937 68.542 130.678 67.8294 131.09L66.8138 131.69C66.0406 132.137 65.1629 132.369 64.2622 132.369" fill="#1A162C"/>
<path d="M40.1989 5.71469C40.1989 5.71469 40.4371 5.07315 40.7318 4.24773L37.9316 3.46618C37.8376 3.44111 37.7456 3.50796 37.7456 3.60408C37.7477 4.37727 37.7539 115.877 37.7602 115.963L37.7644 115.988C37.8166 116.496 38.082 116.985 38.5877 117.279L40.1968 118.216L40.1989 5.71469" fill="#1A162C"/>
<path d="M38.4413 4.33956C38.4434 7.38842 38.4434 19.5337 38.4455 34.7572C38.4476 66.9029 38.4518 115.482 38.4581 115.952C38.4769 116.105 38.5646 116.458 38.9345 116.671L39.4862 116.993L39.4904 5.58919L39.5342 5.47011C39.5342 5.47011 39.645 5.17127 39.808 4.72199L38.4413 4.33956ZM40.8947 119.436L38.2261 117.887C37.5658 117.503 37.1415 116.838 37.0579 116.063C37.0496 115.963 37.0475 115.936 37.0392 34.7572C37.0371 17.2852 37.0371 3.87355 37.035 3.60607C37.035 3.3365 37.1561 3.09201 37.3672 2.9311C37.5783 2.7702 37.852 2.71588 38.1111 2.78902L41.6407 3.77326L41.3878 4.48378C41.1663 5.10233 40.9782 5.6164 40.8967 5.83999L40.8947 119.436" fill="#1A162C"/>
<path d="M62.1276 18.6143L38.5831 4.85783C37.4546 4.20167 37.4567 2.56965 38.5872 1.91558L39.6822 1.26984C40.9987 0.509193 42.6224 0.511288 43.9368 1.27612L67.4815 15.0326C68.6099 15.6888 68.6078 17.3208 67.4773 17.9748L66.3822 18.6206C65.0657 19.3812 63.442 19.377 62.1276 18.6143Z" fill="white"/>
<path d="M62.4832 18.0063C63.5761 18.6437 64.9345 18.6437 66.0316 18.0105L67.1204 17.3689C67.438 17.1851 67.6239 16.8633 67.6239 16.5038C67.6239 16.1444 67.4401 15.8226 67.1287 15.6408L43.582 1.8822C42.4891 1.24693 41.1287 1.24693 40.0357 1.88011L38.945 2.52166C38.6273 2.70555 38.4413 3.0253 38.4413 3.38682C38.4413 3.74625 38.6253 4.06803 38.9366 4.24984L62.4832 18.0063ZM64.2595 19.8891C63.3985 19.8891 62.5418 19.6676 61.7749 19.2204L38.2282 5.46396C37.4801 5.02931 37.035 4.25195 37.035 3.38473C37.0371 2.5175 37.4843 1.7401 38.2365 1.30544L39.3253 0.663941C40.8612 -0.22209 42.7608 -0.222086 44.2904 0.668124L67.8371 14.4266C68.5852 14.8613 69.0323 15.6387 69.0303 16.5059C69.0303 17.3731 68.581 18.1505 67.8287 18.5831L66.74 19.2246C65.973 19.6697 65.1162 19.8891 64.2595 19.8891" fill="#1A162C"/>
<path d="M64.6548 72.2297C64.6569 72.2067 64.6548 68.9552 64.6548 68.3262C64.6548 68.2593 64.611 68.207 64.5483 68.1903L54.8103 65.4779C54.7999 65.4737 54.7873 65.4695 54.7769 65.4632L38.2182 55.7692C38.1722 55.742 38.1178 55.742 38.0719 55.7692L29.6985 60.6068C29.665 60.6277 29.6253 60.6319 29.5877 60.6214L26.5576 59.7772C26.4636 59.7521 26.3717 59.8169 26.3717 59.9151C26.3738 60.6904 26.3821 63.5784 26.3905 63.664L26.3925 63.6912C26.4469 64.199 26.7123 64.688 27.2159 64.9827L50.6874 78.6952C52.0478 79.4872 53.7279 79.4893 55.0883 78.7015L63.8106 73.6611C64.3539 73.3477 64.6298 72.8064 64.6528 72.2589L64.6548 72.2297" fill="#EF4BA2"/>
<path d="M27.0791 60.6528C27.0812 61.7541 27.0874 63.4697 27.0937 63.6306C27.1145 63.8082 27.2023 64.1593 27.5722 64.3746L51.0437 78.0893C52.1826 78.7496 53.5973 78.7517 54.7382 78.0934L63.4607 73.051C63.7574 72.8796 63.937 72.5808 63.9517 72.2297L63.9538 72.2046C63.9538 72.004 63.9538 70.3616 63.9538 69.2498V68.7546L54.4395 66.0798L38.1439 56.5382L30.0527 61.2171C29.8458 61.3299 29.618 61.3591 29.4007 61.2985L27.0791 60.6528ZM52.8952 79.9908C52.0091 79.9908 51.1231 79.7631 50.3353 79.3033L26.8617 65.5887C26.2014 65.2042 25.7751 64.5397 25.6957 63.7644C25.681 63.6077 25.6727 61.2902 25.6685 59.9173C25.6685 59.6477 25.7918 59.4032 26.0029 59.2423C26.2139 59.0814 26.4898 59.027 26.7468 59.1002L29.5512 59.8817L37.7219 55.1611C37.9831 55.0065 38.3111 55.0065 38.5744 55.1611L55.0705 64.8197L64.7395 67.5133C65.1114 67.6157 65.3602 67.9438 65.3602 68.3262V69.2498C65.3602 70.4451 65.3602 72.2423 65.3602 72.2611L65.3518 72.3384C65.3225 73.1158 64.8774 73.8576 64.1628 74.2693L55.4425 79.3096C54.6568 79.7652 53.7749 79.9908 52.8952 79.9908" fill="#1A162C"/>
<path d="M64.5488 68.1966L54.8108 65.4841C54.8004 65.48 54.7878 65.4758 54.7773 65.4695L52.7629 64.2972V79.2887C53.5654 79.3117 54.3699 79.1236 55.0887 78.7077L63.8111 73.6674C64.3544 73.3518 64.6303 72.8127 64.6533 72.2631L64.6553 72.236C64.6574 72.213 64.6553 68.9614 64.6553 68.3324C64.6553 68.2655 64.6115 68.2133 64.5488 68.1966" fill="#1A162C"/>
<path d="M53.4683 65.5196V78.5447C53.9155 78.4758 54.3481 78.3253 54.7388 78.0996L63.4613 73.0572C63.758 72.8858 63.9376 72.587 63.9523 72.236C63.9543 72.1419 63.9544 70.4116 63.9544 69.256V68.7587L54.4401 66.0859L53.4683 65.5196ZM52.8978 79.995C52.8456 79.995 52.7955 79.9929 52.7432 79.9908L52.0599 79.972V63.0747L55.069 64.8259L64.7401 67.5195C65.112 67.6219 65.3608 67.95 65.3608 68.3324V69.256C65.3608 70.4493 65.3608 72.2485 65.3608 72.2673C65.3231 73.122 64.878 73.8638 64.1634 74.2755L55.4431 79.3158C54.6741 79.7609 53.7964 79.995 52.8978 79.995" fill="#1A162C"/>
<path d="M28.8271 61.9483C28.8271 61.9483 29.0632 61.3068 29.3599 60.4793L26.5576 59.6998C26.4636 59.6727 26.3717 59.7395 26.3717 59.8356C26.3738 60.6109 26.3821 63.501 26.3905 63.5866L26.3925 63.6117C26.4469 64.1216 26.7123 64.6106 27.2159 64.9031L28.8271 65.8393V61.9483" fill="#1A162C"/>
<path d="M45.4242 65.2814L53.3755 60.797L41.7902 54.1078L33.839 58.5902L45.4242 65.2814" fill="white"/>
<path d="M35.2533 58.5987L45.426 64.4707L51.9542 60.7887L41.7836 54.9166L35.2533 58.5987ZM45.4176 66.0902L32.4177 58.584L41.792 53.2971L54.792 60.8033L45.4176 66.0902Z" fill="#1A162C"/>
<path d="M27.0791 60.5755C27.0812 61.6767 27.0874 63.3924 27.0937 63.5512C27.1145 63.7309 27.2023 64.0799 27.5722 64.2951L28.1239 64.617L28.1678 61.7018C28.1678 61.7018 28.2786 61.403 28.4415 60.9537L27.0791 60.5755ZM29.5303 67.0619L26.8638 65.5113C26.2013 65.1247 25.7751 64.4602 25.6957 63.687C25.681 63.5303 25.6727 61.2107 25.6685 59.8399C25.6685 59.5682 25.7918 59.3237 26.0049 59.1628C26.2181 59.0019 26.4961 58.9518 26.751 59.0228L30.2763 60.005L30.0214 60.7155C29.802 61.334 29.6118 61.8502 29.5303 62.0738V67.0619" fill="#1A162C"/>
<path d="M50.7633 74.846L27.2167 61.0895C26.0883 60.4333 26.0904 58.8013 27.2209 58.1493L36.0164 53.0651C37.3329 52.3044 38.9566 52.3065 40.271 53.0714L63.8156 66.8278C64.944 67.484 64.9419 69.116 63.8114 69.7701L55.0159 74.8523C53.6994 75.6129 52.0778 75.6108 50.7633 74.846" fill="white"/>
<path d="M51.1168 74.24C52.2097 74.8752 53.5701 74.8773 54.6651 74.2441L63.4607 69.1599C63.772 68.9802 63.958 68.6584 63.958 68.299C63.958 67.9375 63.7741 67.6157 63.4627 67.4359L39.9161 53.6774C38.8253 53.0421 37.4648 53.04 36.3698 53.6732L27.5743 58.7574C27.263 58.9372 27.077 59.2589 27.0749 59.6184C27.0749 59.9778 27.2587 60.3017 27.5722 60.4814L51.1168 74.24ZM52.8952 76.1228C52.0342 76.1228 51.1754 75.9013 50.4084 75.4541L26.8617 61.6976C26.1157 61.2609 25.6685 60.4835 25.6685 59.6163C25.6706 58.7491 26.1199 57.9738 26.8701 57.5391L35.6656 52.4549C37.1973 51.5709 39.0969 51.5751 40.6244 52.4633L64.1711 66.2218C64.9192 66.6544 65.3664 67.4338 65.3643 68.299C65.3643 69.1662 64.9151 69.9435 64.1628 70.3782L55.3673 75.4604C54.6045 75.9013 53.7498 76.1228 52.8952 76.1228" fill="#1A162C"/>
<path d="M44.8196 58.6342C45.0788 58.513 51.1702 55.623 51.0762 51.6212C51.0344 49.8701 50.0814 49.1637 49.5193 48.9004C48.5225 48.4323 47.1956 48.6079 46.2928 49.3246C45.5594 49.9077 45.2397 50.7289 45.4194 51.5794L46.7923 51.289C46.7066 50.8857 46.9469 50.5952 47.1642 50.4238C47.6511 50.0393 48.4034 49.9286 48.9217 50.1689C49.5214 50.451 49.6615 51.1323 49.674 51.6526C49.7346 54.2229 45.7621 56.6469 44.2241 57.3637L44.8196 58.6342" fill="#1A162C"/>
<path d="M42.8618 61.5703C46.6045 56.413 46.9639 48.2277 46.9869 47.5318C46.989 47.5025 46.966 47.4837 46.9367 47.4837H39.0669H31.1972C31.1679 47.4837 31.1449 47.5025 31.147 47.5318C31.17 48.2277 31.5294 56.413 35.2721 61.5703C35.3808 61.8232 35.5667 62.0677 35.83 62.2913C35.83 62.2934 35.8321 62.2934 35.8321 62.2955C35.8321 62.2955 36.1226 62.517 36.296 62.6194C37.8257 63.5012 40.3061 63.5012 41.8357 62.6194C42.0113 62.517 42.1639 62.4083 42.2997 62.2955C42.2997 62.2955 42.3039 62.2934 42.3039 62.2913C42.5672 62.0677 42.7532 61.8232 42.8618 61.5703" fill="#EF4BA2"/>
<path d="M31.6987 48.0103C31.8199 49.9265 32.4803 56.8288 35.7549 61.3613C35.8343 61.5452 35.9742 61.7249 36.1539 61.8796C36.1581 61.8817 36.4089 62.076 36.5593 62.1637C37.9176 62.9474 40.2142 62.9474 41.5746 62.1637C41.7209 62.0781 41.8484 61.9883 41.9633 61.89C42.1577 61.725 42.2977 61.5473 42.3813 61.3592L42.4356 61.261C45.6788 56.7912 46.3203 49.9871 46.4394 48.0103H31.6987ZM36.0327 63.0728C35.8384 62.9599 35.5125 62.7133 35.4895 62.6924C35.1697 62.4208 34.9336 62.1136 34.8458 61.8796C31.03 56.6198 30.6518 48.4616 30.6204 47.5568L30.6226 47.2998L30.9715 46.9592H46.9368L47.5324 47.0051L47.5136 47.5505C47.4801 48.4637 47.0893 56.601 43.3195 61.8357C43.1711 62.1492 42.9455 62.4375 42.6383 62.6987C42.4795 62.8304 42.3039 62.9558 42.0991 63.0749C41.2486 63.566 40.1599 63.8105 39.0669 63.8105C37.9761 63.8105 36.8832 63.566 36.0327 63.0728" fill="#1A162C"/>
<path d="M40.5704 47.4921C40.5704 47.4921 41.5002 57.0482 39.3248 63.2734C40.238 63.2379 41.1345 63.029 41.8325 62.6257C42.008 62.5254 42.1606 62.4167 42.2964 62.3017C42.2964 62.3017 42.3006 62.2997 42.3006 62.2976C42.5639 62.0761 42.7499 61.8316 42.8585 61.5787C46.7704 56.1873 46.9857 47.4921 46.9857 47.4921H40.5704" fill="#1A162C"/>
<path d="M44.6638 44.2509C47.7565 46.0355 47.7565 48.9319 44.6638 50.7185C41.5689 52.5052 36.5537 52.5052 33.4589 50.7185C30.3662 48.9319 30.3662 46.0355 33.4589 44.2509C36.5537 42.4642 41.5689 42.4642 44.6638 44.2509Z" fill="white"/>
<path d="M44.4062 44.7044C41.4618 43.0055 36.6722 43.0076 33.7278 44.7044C32.4009 45.4713 31.6716 46.4576 31.6716 47.4836C31.6716 48.5097 32.4009 49.496 33.7278 50.2629C36.6722 51.9619 41.4618 51.9619 44.4062 50.2629C45.731 49.496 46.4624 48.5097 46.4624 47.4836C46.4624 46.4576 45.731 45.4713 44.4062 44.7044ZM33.2034 51.1741C31.5379 50.2107 30.6204 48.9025 30.6204 47.4836C30.6204 46.0668 31.5379 44.7566 33.2034 43.7953C36.4382 41.9272 41.6979 41.9272 44.9328 43.7953C46.5983 44.7566 47.5156 46.0668 47.5156 47.4836C47.5156 48.9025 46.5983 50.2107 44.9328 51.1741C43.3154 52.1082 41.1922 52.5742 39.067 52.5742C36.9438 52.5742 34.8208 52.1082 33.2034 51.1741Z" fill="#1A162C"/>
<path d="M42.9222 45.256C45.0558 46.4869 45.0558 48.4826 42.9222 49.7134C40.7907 50.9442 37.3343 50.9442 35.2007 49.7134C33.0692 48.4826 33.0692 46.4869 35.2007 45.256C37.3343 44.0231 40.7907 44.0231 42.9222 45.256Z" fill="#EF4BA2"/>
<path d="M42.6611 45.7095C40.678 44.5665 37.4474 44.5665 35.4642 45.7095C34.6033 46.209 34.1289 46.838 34.1289 47.4837C34.1289 48.1294 34.6033 48.7605 35.4642 49.2579C37.4474 50.403 40.6759 50.403 42.6611 49.2579C43.5221 48.7605 43.9965 48.1315 43.9965 47.4837C43.9965 46.838 43.5221 46.209 42.6611 45.7095ZM34.9397 50.169C33.7381 49.4752 33.0757 48.5223 33.0757 47.4837C33.0757 46.4472 33.7381 45.4922 34.9397 44.8005C37.2509 43.4652 40.8745 43.4652 43.1877 44.8005C44.3872 45.4943 45.0476 46.4472 45.0476 47.4837C45.0476 48.5223 44.3872 49.4752 43.1877 50.169C42.0301 50.8356 40.5463 51.1699 39.0626 51.1699C37.579 51.1699 36.0953 50.8356 34.9397 50.169" fill="#1A162C"/>
<path d="M35.2007 45.2748C33.0692 46.5056 33.0692 48.5013 35.2007 49.7321C36.068 50.2336 37.1567 50.52 38.283 50.6119C38.4607 48.2798 38.7366 46.0772 38.9894 44.3553C37.6165 44.3658 36.2498 44.6709 35.2007 45.2748Z" fill="#1A162C"/>
<path d="M36.8082 63.2713L37.7444 62.7928C35.4123 58.2351 34.708 51.1051 34.7018 51.0341L33.6548 51.1344C33.684 51.4353 34.3862 58.5381 36.8082 63.2713" fill="#1A162C"/>
<path d="M40.3283 50.6746C40.5937 48.6142 41.2039 44.5518 41.2039 44.5518L40.1632 44.3951C40.1632 44.3951 39.553 48.4721 39.2834 50.5388L40.3283 50.6746Z" fill="#1A162C"/>
<path d="M64.6548 43.6426C64.6569 43.6176 64.6548 40.3681 64.6548 39.737C64.6548 39.6701 64.611 39.62 64.5483 39.6012L54.8103 36.8887C54.7999 36.8866 54.7873 36.8804 54.7769 36.8762L38.2182 27.18C38.1722 27.1549 38.1178 27.1549 38.0719 27.18L29.6985 32.0198C29.665 32.0386 29.6253 32.0427 29.5877 32.0344L26.5576 31.1901C26.4636 31.163 26.3717 31.2299 26.3717 31.326C26.3738 32.1013 26.3821 34.9913 26.3905 35.077L26.3925 35.1021C26.4469 35.612 26.7123 36.1009 27.2159 36.3935L50.6874 50.1081C52.0478 50.8981 53.7279 50.9001 55.0883 50.1144L63.8106 45.072C64.3539 44.7586 64.6298 44.2194 64.6528 43.6698L64.6548 43.6426" fill="#EF4BA2"/>
<path d="M27.0791 32.0636C27.0812 33.167 27.0874 34.8826 27.0937 35.0435C27.1145 35.2212 27.2023 35.5701 27.5722 35.7853L51.0437 49.5C52.1826 50.1604 53.5973 50.1625 54.7382 49.5042L63.4607 44.4638C63.7574 44.2925 63.937 43.9916 63.9517 43.6405L63.9538 43.6155C63.9538 43.4169 63.9538 41.7744 63.9538 40.6627V40.1654L54.4164 37.478L38.1439 27.9511L30.0527 32.6278C29.85 32.7428 29.6201 32.7699 29.4007 32.7114L27.0791 32.0636ZM52.8952 51.4017C52.0112 51.4017 51.1252 51.1739 50.3353 50.7162L26.8617 36.9995C26.2014 36.615 25.7751 35.9504 25.6957 35.1773C25.681 35.0205 25.6727 32.701 25.6685 31.3301C25.6685 31.0585 25.7918 30.814 26.0049 30.6531C26.2181 30.4922 26.4961 30.442 26.751 30.513L29.5512 31.2925L37.7219 26.5719C37.9852 26.4194 38.3111 26.4214 38.5744 26.5719L55.0705 36.2326L64.7395 38.9241C65.1094 39.0265 65.3602 39.3525 65.3602 39.737V40.6627C65.3602 41.8559 65.3602 43.6551 65.3602 43.6739L65.3518 43.7492C65.3225 44.5286 64.8774 45.2684 64.1648 45.6822L55.4425 50.7225C54.6568 51.176 53.7749 51.4017 52.8952 51.4017Z" fill="#1A162C"/>
<path d="M64.5488 39.6075L54.8108 36.895C54.8004 36.8929 54.7878 36.8867 54.7773 36.8804L52.7629 35.7102V50.7017C53.5654 50.7247 54.3699 50.5345 55.0887 50.1186L63.8111 45.0783C64.3544 44.7649 64.6303 44.2257 64.6533 43.6761L64.6553 43.6489C64.6574 43.6239 64.6553 40.3744 64.6553 39.7433C64.6553 39.6785 64.6115 39.6263 64.5488 39.6075" fill="#1A162C"/>
<path d="M53.4683 36.9305V49.9556C53.9155 49.8866 54.3481 49.7383 54.7388 49.5105L63.4613 44.4701C63.758 44.2967 63.9376 43.9978 63.9523 43.6468C63.9543 43.5548 63.9544 41.8246 63.9544 40.669V40.1716L54.417 37.4843L53.4683 36.9305ZM52.8999 51.4058C52.8477 51.4058 52.7955 51.4058 52.7432 51.4017L52.0599 51.3828V34.4876L55.0711 36.2367L64.738 38.9303C65.11 39.0348 65.3608 39.3608 65.3608 39.7432V40.669C65.3608 41.8622 65.3608 43.6593 65.3608 43.6781C65.3231 44.5349 64.878 45.2767 64.1634 45.6884L55.4431 50.7287C54.6741 51.1717 53.7985 51.4058 52.8999 51.4058" fill="#1A162C"/>
<path d="M28.8271 33.3592C28.8271 33.3592 29.0632 32.7177 29.3599 31.8923L26.5576 31.1107C26.4636 31.0856 26.3717 31.1504 26.3717 31.2486C26.3738 32.0239 26.3821 34.9119 26.3905 34.9976L26.3925 35.0247C26.4469 35.5325 26.7123 36.0215 27.2159 36.3161L28.8271 37.2502V33.3592Z" fill="#1A162C"/>
<path d="M27.0791 31.9863C27.0812 33.0876 27.0874 34.8053 27.0937 34.9641C27.1145 35.1418 27.2023 35.4928 27.5722 35.7081L28.1239 36.0299L28.1678 33.1148C28.1678 33.1148 28.2785 32.816 28.4436 32.3667L27.0791 31.9863ZM29.5303 38.4727L26.8638 36.9243C26.2013 36.5377 25.7751 35.8711 25.6957 35.0979C25.681 34.9412 25.6727 32.6216 25.6685 31.2508C25.6685 30.9812 25.7918 30.7367 26.0029 30.5758C26.2139 30.417 26.4898 30.3606 26.7468 30.4337L30.2784 31.4179L30.0234 32.1284C29.8019 32.747 29.6118 33.2631 29.5303 33.4846V38.4727" fill="#1A162C"/>
<path d="M50.7633 46.2588L27.2167 32.5024C26.0883 31.8462 26.0904 30.2142 27.2209 29.5601L36.0164 24.4759C37.3329 23.7152 38.9566 23.7173 40.271 24.4822L63.8156 38.2386C64.944 38.8947 64.9419 40.5268 63.8114 41.1809L55.0159 46.2651C53.6994 47.0258 52.0778 47.0237 50.7633 46.2588" fill="white"/>
<path d="M51.1168 45.6508C52.2118 46.2861 53.5701 46.2902 54.6651 45.655L63.4607 40.5707C63.772 40.391 63.958 40.0692 63.958 39.7098C63.958 39.3503 63.7741 39.0265 63.4627 38.8467L39.9161 25.0882C38.8232 24.455 37.4648 24.4508 36.3698 25.0861L27.5743 30.1682C27.263 30.3479 27.077 30.6718 27.0749 31.0313C27.0749 31.3907 27.2587 31.7125 27.5722 31.8943L51.1168 45.6529V45.6508ZM52.8952 47.5357C52.0342 47.5357 51.1754 47.3121 50.4084 46.867V46.8649L26.8617 33.1084C26.1157 32.6738 25.6685 31.8964 25.6685 31.0292C25.6706 30.1619 26.1199 29.3846 26.8701 28.9499L35.6656 23.8678C37.1952 22.9839 39.0969 22.9859 40.6244 23.874L64.1711 37.6326C64.9192 38.0673 65.3664 38.8467 65.3643 39.7119C65.3643 40.5791 64.9151 41.3565 64.1628 41.789L55.3673 46.8732C54.6045 47.3142 53.7498 47.5357 52.8952 47.5357" fill="#1A162C"/>
<path d="M43.9301 97.2746L34.5369 91.9626C34.1503 91.739 33.839 91.1414 33.839 90.6273V77.0527C33.839 76.5386 34.1503 76.3025 34.5369 76.5261L43.9301 81.8381C44.3167 82.0617 44.6281 82.6593 44.6281 83.1713V96.746C44.6281 97.26 44.3167 97.4982 43.9301 97.2746" fill="white"/>
<path d="M34.5506 77.341L34.5422 90.6273C34.5422 90.9282 34.7533 91.2751 34.8891 91.3524L43.9187 96.4596L43.9271 83.1733C43.9271 82.8724 43.716 82.5255 43.5802 82.4482L34.5506 77.341ZM44.2844 96.6665L43.9313 97.2746L44.2886 96.6686C44.2865 96.6665 44.2844 96.6665 44.2844 96.6665V96.6665ZM44.2112 98.0624C44.0023 98.0624 43.7891 98.0018 43.5822 97.8848L34.1911 92.5748C33.5872 92.2259 33.1359 91.39 33.1359 90.6273V77.0526C33.1359 76.526 33.3532 76.0976 33.7293 75.8803C34.0783 75.6776 34.5005 75.6922 34.8891 75.9158L44.2781 81.2257C44.882 81.5747 45.3334 82.4085 45.3334 83.1733V96.7459C45.3334 97.2746 45.116 97.703 44.7399 97.9203C44.5769 98.0143 44.3951 98.0624 44.2112 98.0624" fill="#1A162C"/>
<path d="M40.8111 85.6874C40.8111 86.2934 40.3848 86.54 39.8603 86.237C39.3337 85.9319 38.9074 85.1942 38.9074 84.5882C38.9074 83.9801 39.3337 83.7336 39.8603 84.0387C40.3848 84.3417 40.8111 85.0793 40.8111 85.6874Z" fill="#1A162C"/>
<path d="M45.7985 56.1871C45.5081 56.1871 45.2802 56.4399 45.3095 56.7283L46.7619 64.036C46.7619 64.9116 47.6166 65.7871 49.3301 66.2092C50.2726 66.4433 51.2735 66.4433 52.218 66.2092C53.9295 65.7871 54.7863 64.9116 54.7863 64.036L56.2386 56.7283C56.2679 56.4399 56.0401 56.1871 55.7496 56.1871H45.7985" fill="#EF4BA2"/>
<path d="M55.379 60.3933C55.0885 60.3933 54.8607 60.6462 54.8899 60.9346L56.3423 68.2422C56.3423 69.1178 57.197 69.9934 58.9105 70.4155C59.853 70.6495 60.8539 70.6495 61.7985 70.4155C63.5099 69.9934 64.3667 69.1178 64.3667 68.2422L65.8191 60.9346C65.8483 60.6462 65.6205 60.3933 65.33 60.3933H55.379" fill="#EF4BA2"/>
<path d="M46.0526 56.8913L47.4632 64.0339C47.4632 64.5292 48.09 65.1812 49.4943 65.5281C50.3302 65.7349 51.2121 65.7328 52.048 65.5281C53.4522 65.1812 54.0791 64.5292 54.0791 64.0339L54.0938 63.8981L55.4876 56.8913H46.0526ZM50.7712 67.0891C50.2279 67.0891 49.6866 67.0222 49.1579 66.8926C47.2521 66.4225 46.1007 65.3859 46.0568 64.1112L44.617 56.8663C44.5731 56.463 44.6839 56.1265 44.9095 55.8779C45.1352 55.6292 45.4592 55.485 45.7956 55.485H55.7446C56.0832 55.485 56.405 55.6292 56.6307 55.8779C56.8585 56.1265 56.9692 56.463 56.9358 56.7994L55.4855 64.1112C55.4416 65.3859 54.2881 66.4225 52.3823 66.8926C51.8557 67.0222 51.3124 67.0891 50.7712 67.0891" fill="#1A162C"/>
<path d="M55.6331 61.0974L57.0436 68.2401C57.0436 68.7353 57.6705 69.3873 59.0748 69.7342C59.9106 69.9411 60.7925 69.939 61.6284 69.7342C63.0327 69.3873 63.6595 68.7353 63.6595 68.2401L63.6742 68.1042L65.068 61.0974H55.6331ZM60.3516 71.2952C59.8083 71.2952 59.267 71.2283 58.7383 71.0987C56.8325 70.6286 55.6812 69.5921 55.6373 68.3174L54.1974 61.0724C54.1536 60.6691 54.2643 60.3326 54.49 60.084C54.7157 59.8353 55.0396 59.6911 55.3761 59.6911H65.3251C65.6636 59.6911 65.9855 59.8353 66.2111 60.084C66.4389 60.3326 66.5497 60.6691 66.5162 61.0055L65.0659 68.3174C65.022 69.5921 63.8686 70.6286 61.9628 71.0987C61.4362 71.2283 60.8929 71.2952 60.3516 71.2952" fill="#1A162C"/>
<path d="M54.6711 53.9364C56.8256 55.1798 56.8256 57.1964 54.6711 58.4397C52.5167 59.6852 49.0227 59.6852 46.8661 58.4397C44.7116 57.1964 44.7116 55.1798 46.8681 53.9364C49.0226 52.691 52.5167 52.691 54.6711 53.9364Z" fill="#EF4BA2"/>
<path d="M64.2516 58.1427C66.4061 59.386 66.4061 61.4026 64.2516 62.646C62.0971 63.8914 58.6031 63.8914 56.4466 62.646C54.2921 61.4026 54.292 59.386 56.4486 58.1427C58.6031 56.8972 62.0971 56.8972 64.2516 58.1427Z" fill="#EF4BA2"/>
<path d="M50.7706 53.7107C49.475 53.7107 48.1814 53.9887 47.2202 54.5445C46.4156 55.0084 45.9559 55.6082 45.9559 56.1891C45.9559 56.768 46.4156 57.3677 47.2202 57.8316C49.1448 58.9433 52.3984 58.9433 54.3209 57.8316C55.1255 57.3677 55.5853 56.768 55.5853 56.1891C55.5853 55.6082 55.1255 55.0084 54.3209 54.5445C53.3597 53.9887 52.0641 53.7107 50.7706 53.7107ZM50.7706 60.0822C49.2388 60.0822 47.7091 59.7395 46.5159 59.0499C45.2475 58.3164 44.5474 57.3009 44.5474 56.1891C44.5474 55.0753 45.2475 54.0597 46.5159 53.3263C48.9002 51.9492 52.6367 51.9492 55.0252 53.3263C56.2936 54.0597 56.9916 55.0753 56.9916 56.1891C56.9916 57.3009 56.2936 58.3164 55.0252 59.0499C53.832 59.7374 52.3002 60.0822 50.7706 60.0822" fill="#1A162C"/>
<path d="M60.351 57.917C59.0554 57.917 57.7619 58.1949 56.8006 58.7508C55.9961 59.2147 55.5364 59.8144 55.5364 60.3954C55.5364 60.9742 55.9961 61.5739 56.8006 62.0378C58.7252 63.1496 61.9789 63.1496 63.9014 62.0378C64.7059 61.5739 65.1657 60.9742 65.1657 60.3954C65.1657 59.8144 64.7059 59.2147 63.9014 58.7508C62.9401 58.1949 61.6446 57.917 60.351 57.917ZM60.351 64.2885C58.8193 64.2885 57.2896 63.9458 56.0963 63.2562C54.8279 62.5227 54.1279 61.5071 54.1279 60.3954C54.1279 59.2816 54.8279 58.266 56.0963 57.5325C58.4807 56.1554 62.2171 56.1554 64.6056 57.5325C65.8741 58.266 66.5721 59.2816 66.5721 60.3954C66.5721 61.5071 65.8741 62.5227 64.6056 63.2562C63.4124 63.9437 61.8807 64.2885 60.351 64.2885" fill="#1A162C"/>
<path d="M46.9295 23.5335L33.2712 23.3266L35.0475 31.3949C35.0475 31.3949 35.6891 32.6174 36.5166 33.0959C38.5603 34.2745 41.8724 34.2745 43.9161 33.0959C44.7437 32.6174 45.3852 31.3949 45.3852 31.3949L46.9295 23.5335" fill="#EF4BA2"/>
<path d="M35.7136 31.1463C35.9037 31.4848 36.3802 32.2037 36.8692 32.4858C38.681 33.5328 41.7486 33.5349 43.5625 32.4858C44.0473 32.2079 44.5279 31.4827 44.716 31.1526L46.0764 24.2232L34.1505 24.0434L35.7136 31.1463ZM40.2169 34.6883C38.7583 34.6883 37.2997 34.3603 36.165 33.7041C35.1891 33.1399 34.4995 31.8652 34.4242 31.721L34.3616 31.5455L32.3951 22.6099L47.7815 22.8419L46.0074 31.7231C45.9322 31.8652 45.2426 33.1399 44.2667 33.7041C43.1299 34.3603 41.6734 34.6883 40.2169 34.6883Z" fill="#1A162C"/>
<path d="M48.3112 20.8482L48.3217 16.6313C48.3217 16.4975 48.2129 16.3889 48.0813 16.3889H42.1507C40.8781 16.2092 39.5575 16.2092 38.2869 16.3889H32.3647C32.2309 16.3889 32.1244 16.4975 32.1244 16.6313L32.1265 20.8482C32.0826 22.52 33.5662 24.2022 36.6276 25.1238C38.9576 25.8238 41.48 25.8238 43.8079 25.1238C46.8714 24.2043 48.3529 22.52 48.3112 20.8482" fill="white"/>
<path d="M32.8276 17.091L32.8298 20.8461C32.7942 22.3236 34.326 23.6986 36.8315 24.4509C39.0173 25.1091 41.4247 25.107 43.6084 24.4509C46.114 23.6986 47.6457 22.3236 47.6102 20.865L47.608 20.8441L47.6185 17.091H42.1519C40.8521 16.9154 39.5836 16.9154 38.3862 17.0847L32.8276 17.091ZM40.2189 26.3483C38.9337 26.3483 37.6486 26.1665 36.4261 25.7967C33.2393 24.8396 31.369 22.9818 31.4254 20.8295L31.4213 16.6312C31.4213 16.1088 31.8455 15.6867 32.3658 15.6867H38.2881C39.5189 15.5049 40.9232 15.5049 42.2501 15.693L48.0824 15.6867C48.6027 15.6867 49.0269 16.1088 49.0269 16.6312L49.0165 20.8399C49.0625 22.9881 47.1943 24.8417 44.0138 25.7967C42.7893 26.1665 41.5041 26.3483 40.2189 26.3483" fill="#1A162C"/>
<path d="M45.9459 12.9304C49.1117 14.7568 49.1117 17.7179 45.9459 19.5463C42.7821 21.3727 37.6519 21.3727 34.486 19.5463C31.3222 17.7179 31.3222 14.7568 34.486 12.9304C37.6519 11.1019 42.7821 11.1019 45.9459 12.9304Z" fill="#EF4BA2"/>
<path d="M40.2182 12.2554C38.2685 12.2554 36.3208 12.6817 34.8393 13.5385C33.5332 14.2907 32.8164 15.2499 32.8164 16.2363C32.8164 17.2247 33.5332 18.1839 34.8393 18.9382C37.8024 20.6497 42.6297 20.6497 45.595 18.9382C46.901 18.1839 47.6177 17.2247 47.6177 16.2363C47.6177 15.2499 46.901 14.2907 45.595 13.5385C44.1134 12.6817 42.1658 12.2554 40.2182 12.2554V12.2554ZM40.2182 21.6318C38.0282 21.6318 35.8402 21.1387 34.135 20.1545C32.3776 19.1389 31.41 17.7492 31.41 16.2363C31.41 14.7254 32.3776 13.3358 34.135 12.3202C37.5454 10.3538 42.8866 10.3517 46.2991 12.3202C48.0565 13.3358 49.0241 14.7254 49.0241 16.2363C49.0241 17.7492 48.0565 19.1389 46.2991 20.1545C44.5939 21.1387 42.404 21.6318 40.2182 21.6318Z" fill="#1A162C"/>
<path d="M45.962 16.788C42.7982 14.9595 37.666 14.9595 34.5022 16.788C33.8251 17.1787 33.3006 17.6238 32.914 18.094C33.309 18.6206 33.8711 19.1159 34.6171 19.5463C37.7809 21.3727 42.9111 21.3727 46.077 19.5463C46.7541 19.1556 47.2765 18.7105 47.6631 18.2382C47.2702 17.7116 46.706 17.2184 45.962 16.788" fill="#1A162C"/>
<path d="M33.8639 18.1128C34.1669 18.4116 34.5368 18.6875 34.9694 18.9382C37.9347 20.6497 42.7598 20.6497 45.7271 18.9382C46.1033 18.7209 46.4334 18.4785 46.7176 18.2194C46.4146 17.9206 46.0427 17.6447 45.6101 17.396C42.6448 15.6846 37.8217 15.6846 34.8544 17.396C34.4761 17.6133 34.146 17.8537 33.8639 18.1128V18.1128ZM40.3482 21.6318C38.1582 21.6318 35.9724 21.1387 34.2651 20.1545C33.4627 19.6905 32.8191 19.1409 32.3531 18.5161L32.0229 18.0752L32.3719 17.651C32.8274 17.0931 33.4251 16.5978 34.1523 16.1778C37.5606 14.2114 42.904 14.2093 46.3143 16.1778C47.1168 16.6417 47.7624 17.1933 48.2284 17.8161L48.5586 18.257L48.2097 18.6833C47.7499 19.2433 47.1502 19.7386 46.4292 20.1545C44.724 21.1387 42.5361 21.6318 40.3482 21.6318" fill="#1A162C"/>
<path d="M61.0455 163.836L59.7018 164.611C59.5638 164.691 59.3236 164.68 59.1647 164.588L57.8962 163.857C57.7374 163.765 57.7208 163.627 57.8587 163.547L59.2023 162.77C59.3402 162.691 59.5806 162.701 59.7394 162.793L61.0057 163.525C61.1666 163.616 61.1834 163.756 61.0455 163.836Z" fill="#1A162C"/>
<path d="M64.3579 165.746L63.0142 166.521C62.8763 166.6 62.6339 166.592 62.4751 166.5L61.2088 165.769C61.05 165.677 61.0332 165.537 61.1711 165.457L62.5149 164.682C62.6528 164.603 62.8931 164.613 63.0519 164.705L64.3182 165.436C64.4771 165.528 64.4958 165.666 64.3579 165.746" fill="#1A162C"/>
<path d="M61.0642 167.647L59.7205 168.425C59.5826 168.504 59.3423 168.494 59.1814 168.402L57.9151 167.67C57.7563 167.578 57.7395 167.44 57.8774 167.361L59.2212 166.584C59.3591 166.504 59.5994 166.515 59.7582 166.607L61.0245 167.338C61.1854 167.43 61.2021 167.568 61.0642 167.647" fill="#1A162C"/>
<path d="M67.4854 167.551L66.1417 168.329C66.0038 168.408 65.7635 168.398 65.6047 168.306L64.3383 167.574C64.1795 167.482 64.1607 167.342 64.2986 167.263L65.6423 166.488C65.7803 166.408 66.0226 166.419 66.1814 166.511L67.4478 167.242C67.6066 167.334 67.6233 167.472 67.4854 167.551" fill="#1A162C"/>
<path d="M64.1937 169.455L62.8479 170.23C62.71 170.31 62.4697 170.299 62.3109 170.207L61.0446 169.476C60.8857 169.384 60.8669 169.246 61.0049 169.167L62.3506 168.389C62.4885 168.31 62.7288 168.32 62.8876 168.412L64.154 169.144C64.3128 169.236 64.3316 169.374 64.1937 169.455Z" fill="#1A162C"/>
<path d="M70.6146 169.357L69.2709 170.134C69.133 170.213 68.8927 170.203 68.7339 170.111L67.4654 169.38C67.3066 169.288 67.2899 169.148 67.4278 169.068L68.7714 168.293C68.9094 168.214 69.1497 168.224 69.3086 168.316L70.577 169.047C70.7358 169.139 70.7525 169.277 70.6146 169.357Z" fill="#1A162C"/>
<path d="M67.3169 171.26L65.9731 172.036C65.8352 172.115 65.595 172.105 65.4361 172.013L64.1698 171.281C64.0089 171.189 63.9922 171.051 64.1301 170.972L65.4737 170.195C65.6116 170.115 65.8519 170.126 66.0128 170.218L67.2792 170.949C67.438 171.041 67.4548 171.181 67.3169 171.26" fill="#1A162C"/>
<path d="M55.5558 149.688L54.2121 150.466C54.0742 150.545 53.8339 150.535 53.673 150.443L52.4067 149.711C52.2479 149.62 52.2311 149.482 52.369 149.402L53.7127 148.625C53.8506 148.545 54.0909 148.556 54.2497 148.648L55.5161 149.379C55.677 149.471 55.6937 149.609 55.5558 149.688" fill="#1A162C"/>
<path d="M58.6854 151.496L57.3397 152.271C57.2018 152.351 56.9614 152.34 56.8026 152.248L55.5362 151.517C55.3774 151.425 55.3586 151.287 55.4965 151.208L56.8423 150.43C56.9802 150.351 57.2206 150.361 57.3794 150.453L58.6457 151.185C58.8046 151.277 58.8213 151.417 58.6854 151.496Z" fill="#1A162C"/>
<path d="M55.3904 153.398L54.0447 154.173C53.9089 154.253 53.6664 154.244 53.5076 154.152L52.2412 153.421C52.0824 153.329 52.0657 153.189 52.2037 153.109L53.5473 152.334C53.6852 152.255 53.9256 152.263 54.0844 152.355L55.3508 153.086C55.5096 153.178 55.5284 153.318 55.3904 153.398Z" fill="#1A162C"/>
<path d="M58.5178 155.203L57.1741 155.978C57.0362 156.058 56.7959 156.05 56.6371 155.958L55.3707 155.226C55.2119 155.134 55.1931 154.994 55.331 154.915L56.6746 154.14C56.8126 154.06 57.0529 154.071 57.2138 154.163L58.4802 154.894C58.639 154.986 58.6557 155.124 58.5178 155.203" fill="#1A162C"/>
<path d="M73.9234 171.269L72.5797 172.044C72.4418 172.123 72.2014 172.113 72.0405 172.021L70.7742 171.29C70.6153 171.198 70.5987 171.06 70.7366 170.98L72.0802 170.203C72.2181 170.124 72.4585 170.134 72.6173 170.226L73.8837 170.957C74.0446 171.049 74.0613 171.189 73.9234 171.269" fill="#1A162C"/>
<path d="M70.6296 173.17L69.2859 173.946C69.148 174.025 68.9077 174.017 68.7489 173.925L67.4805 173.193C67.3216 173.101 67.3049 172.961 67.4428 172.882L68.7865 172.107C68.9244 172.027 69.1647 172.038 69.3235 172.13L70.5919 172.861C70.7508 172.953 70.7675 173.091 70.6296 173.17Z" fill="#1A162C"/>
<path d="M77.2209 169.365L75.8772 170.142C75.7393 170.222 75.4968 170.211 75.338 170.119L74.0717 169.388C73.9128 169.296 73.8962 169.156 74.0341 169.077L75.3777 168.301C75.5156 168.222 75.756 168.232 75.9148 168.324L77.1812 169.056C77.34 169.148 77.3588 169.286 77.2209 169.365" fill="#1A162C"/>
<path d="M80.515 167.464L79.1693 168.239C79.0313 168.318 78.791 168.31 78.6322 168.218L77.3658 167.487C77.207 167.395 77.1903 167.255 77.3261 167.175L78.6718 166.4C78.8098 166.32 79.0501 166.329 79.209 166.421L80.4753 167.152C80.6341 167.244 80.6529 167.384 80.515 167.464Z" fill="#1A162C"/>
<path d="M83.8075 165.56L82.4639 166.337C82.326 166.417 82.0856 166.406 81.9268 166.314L80.6604 165.583C80.5016 165.491 80.4828 165.353 80.6207 165.274L81.9665 164.496C82.1023 164.417 82.3448 164.427 82.5036 164.519L83.7699 165.251C83.9288 165.342 83.9454 165.48 83.8075 165.56Z" fill="#1A162C"/>
<path d="M87.102 163.658L85.7583 164.433C85.6204 164.513 85.38 164.504 85.2212 164.412L83.9549 163.681C83.794 163.589 83.7773 163.449 83.9152 163.37L85.2589 162.594C85.3968 162.515 85.6371 162.525 85.798 162.617L87.0644 163.349C87.2232 163.441 87.2399 163.579 87.102 163.658" fill="#1A162C"/>
<path d="M77.0528 173.074L75.7071 173.85C75.5691 173.929 75.3289 173.919 75.1701 173.827L73.9037 173.095C73.7449 173.003 73.7261 172.865 73.864 172.786L75.2097 172.011C75.3477 171.929 75.5879 171.94 75.7468 172.032L77.0131 172.763C77.1719 172.855 77.1886 172.995 77.0528 173.074Z" fill="#1A162C"/>
<path d="M80.3445 171.171L79.0008 171.948C78.8629 172.027 78.6226 172.017 78.4638 171.925L77.1974 171.194C77.0386 171.102 77.0198 170.964 77.1578 170.884L78.5015 170.107C78.6394 170.028 78.8817 170.038 79.0405 170.13L80.3069 170.861C80.4657 170.953 80.4825 171.091 80.3445 171.171" fill="#1A162C"/>
<path d="M83.639 169.269L82.2953 170.044C82.1574 170.124 81.9171 170.115 81.7583 170.023L80.4919 169.292C80.331 169.2 80.3143 169.06 80.4522 168.981L81.7958 168.205C81.9337 168.126 82.1741 168.134 82.335 168.226L83.6014 168.958C83.7602 169.05 83.7769 169.19 83.639 169.269" fill="#1A162C"/>
<path d="M86.9367 167.367L85.593 168.143C85.4551 168.222 85.2148 168.212 85.056 168.12L83.7875 167.388C83.6287 167.296 83.612 167.158 83.7499 167.079L85.0935 166.302C85.2315 166.222 85.4718 166.233 85.6306 166.325L86.8991 167.056C87.0579 167.148 87.0746 167.286 86.9367 167.367Z" fill="#1A162C"/>
<path d="M89.5875 152.869L88.2439 153.644C88.106 153.724 87.8635 153.713 87.7047 153.621L86.4383 152.89C86.2795 152.798 86.2628 152.66 86.4007 152.581L87.7444 151.803C87.8823 151.724 88.1226 151.734 88.2814 151.826L89.5478 152.558C89.7066 152.65 89.7254 152.788 89.5875 152.869" fill="#1A162C"/>
<path d="M92.8816 150.965L91.5358 151.741C91.3979 151.822 91.1576 151.812 90.9988 151.72L89.7324 150.988C89.5736 150.896 89.5569 150.756 89.6927 150.677L91.0385 149.902C91.1764 149.822 91.4167 149.833 91.5755 149.925L92.8419 150.656C93.0007 150.748 93.0195 150.886 92.8816 150.965Z" fill="#1A162C"/>
<path d="M96.1816 149.064L94.8379 149.839C94.7 149.918 94.4597 149.908 94.3009 149.816L93.0345 149.085C92.8757 148.993 92.8569 148.855 92.9949 148.775L94.3406 148C94.4764 147.919 94.7188 147.929 94.8776 148.021L96.144 148.752C96.3028 148.844 96.3196 148.984 96.1816 149.064Z" fill="#1A162C"/>
<path d="M99.476 147.16L98.1323 147.937C97.9944 148.017 97.7541 148.006 97.5953 147.914L96.3289 147.183C96.168 147.091 96.1513 146.953 96.2893 146.872L97.6329 146.096C97.7708 146.017 98.0111 146.027 98.172 146.119L99.4384 146.851C99.5972 146.943 99.614 147.081 99.476 147.16" fill="#1A162C"/>
<path d="M89.4232 156.576L88.0774 157.352C87.9395 157.431 87.6992 157.423 87.5404 157.331L86.274 156.599C86.1152 156.507 86.0964 156.367 86.2344 156.288L87.5801 155.513C87.718 155.433 87.9583 155.444 88.1171 155.534L89.3835 156.267C89.5423 156.357 89.559 156.497 89.4232 156.576Z" fill="#1A162C"/>
<path d="M92.7149 154.675L91.3712 155.45C91.2333 155.529 90.9929 155.519 90.8341 155.427L89.5679 154.695C89.4091 154.603 89.3902 154.466 89.5281 154.386L90.8718 153.609C91.0097 153.529 91.2521 153.54 91.4109 153.632L92.6773 154.363C92.8361 154.455 92.8528 154.595 92.7149 154.675" fill="#1A162C"/>
<path d="M96.0093 152.771L94.6657 153.548C94.5278 153.628 94.2874 153.617 94.1286 153.525L92.8623 152.794C92.7014 152.702 92.6846 152.562 92.8225 152.482L94.1662 151.707C94.3042 151.628 94.5445 151.638 94.7054 151.73L95.9718 152.462C96.1306 152.554 96.1472 152.691 96.0093 152.771" fill="#1A162C"/>
<path d="M99.3032 150.869L97.9596 151.645C97.8217 151.724 97.5813 151.713 97.4225 151.624L96.1541 150.892C95.9953 150.8 95.9785 150.66 96.1165 150.581L97.4602 149.806C97.5981 149.726 97.8384 149.735 97.9972 149.826L99.2657 150.558C99.4245 150.65 99.4412 150.79 99.3032 150.869Z" fill="#1A162C"/>
<path d="M102.85 145.284L101.504 146.061C101.366 146.14 101.126 146.13 100.967 146.038L99.701 145.307C99.5422 145.215 99.5234 145.077 99.6613 144.995L101.007 144.22C101.145 144.14 101.385 144.151 101.544 144.243L102.81 144.974C102.969 145.066 102.986 145.204 102.85 145.284Z" fill="#1A162C"/>
<path d="M102.68 148.993L101.336 149.768C101.198 149.847 100.958 149.837 100.799 149.745L99.5325 149.014C99.3716 148.924 99.3549 148.784 99.4928 148.704L100.837 147.929C100.974 147.85 101.215 147.858 101.376 147.95L102.642 148.681C102.801 148.773 102.818 148.913 102.68 148.993" fill="#1A162C"/>
<path d="M107.808 126.645L106.465 127.423C106.327 127.502 106.086 127.492 105.928 127.4L104.659 126.669C104.5 126.577 104.484 126.439 104.622 126.359L105.965 125.582C106.103 125.502 106.343 125.513 106.502 125.605L107.771 126.336C107.93 126.428 107.946 126.566 107.808 126.645Z" fill="#1A162C"/>
<path d="M111.11 124.744L109.766 125.519C109.628 125.599 109.388 125.59 109.229 125.498L107.961 124.767C107.802 124.675 107.785 124.535 107.923 124.456L109.267 123.68C109.404 123.601 109.645 123.611 109.804 123.701L111.072 124.433C111.231 124.525 111.248 124.665 111.11 124.744Z" fill="#1A162C"/>
<path d="M114.403 122.842L113.06 123.618C112.922 123.697 112.681 123.687 112.521 123.595L111.254 122.863C111.095 122.771 111.079 122.633 111.217 122.554L112.56 121.777C112.698 121.697 112.938 121.708 113.097 121.8L114.364 122.531C114.522 122.623 114.541 122.763 114.403 122.842" fill="#1A162C"/>
<path d="M117.697 120.939L116.351 121.716C116.216 121.795 115.973 121.785 115.814 121.693L114.548 120.962C114.389 120.87 114.372 120.73 114.51 120.65L115.854 119.875C115.992 119.795 116.232 119.806 116.391 119.898L117.657 120.629C117.816 120.721 117.835 120.859 117.697 120.939Z" fill="#1A162C"/>
<path d="M107.643 130.355L106.299 131.13C106.161 131.209 105.921 131.201 105.76 131.109L104.494 130.378C104.335 130.286 104.318 130.146 104.456 130.066L105.8 129.291C105.938 129.212 106.178 129.22 106.337 129.312L107.603 130.043C107.764 130.135 107.781 130.275 107.643 130.355" fill="#1A162C"/>
<path d="M110.937 128.453L109.593 129.228C109.455 129.308 109.213 129.297 109.054 129.205L107.788 128.474C107.629 128.382 107.612 128.244 107.75 128.165L109.094 127.387C109.232 127.308 109.472 127.318 109.631 127.41L110.897 128.142C111.056 128.234 111.075 128.372 110.937 128.453" fill="#1A162C"/>
<path d="M114.238 126.549L112.892 127.325C112.757 127.406 112.514 127.396 112.355 127.304L111.089 126.572C110.93 126.48 110.914 126.34 111.049 126.261L112.395 125.486C112.533 125.406 112.773 125.417 112.932 125.509L114.199 126.24C114.357 126.332 114.376 126.47 114.238 126.549Z" fill="#1A162C"/>
<path d="M117.531 124.648L116.187 125.423C116.049 125.502 115.809 125.492 115.65 125.4L114.384 124.669C114.225 124.577 114.206 124.439 114.344 124.359L115.69 123.584C115.826 123.503 116.068 123.513 116.227 123.605L117.493 124.336C117.652 124.428 117.669 124.568 117.531 124.648Z" fill="#1A162C"/>
<path d="M121.07 119.062L119.726 119.839C119.588 119.919 119.348 119.908 119.187 119.816L117.921 119.085C117.762 118.993 117.745 118.853 117.883 118.774L119.227 117.998C119.365 117.919 119.605 117.929 119.764 118.021L121.03 118.753C121.191 118.845 121.208 118.983 121.07 119.062" fill="#1A162C"/>
<path d="M120.904 122.771L119.559 123.547C119.423 123.626 119.18 123.616 119.022 123.524L117.755 122.792C117.596 122.7 117.58 122.562 117.718 122.483L119.061 121.706C119.199 121.626 119.44 121.637 119.598 121.729L120.865 122.46C121.024 122.552 121.042 122.692 120.904 122.771Z" fill="#1A162C"/>
<path d="M118.601 115.528L85.7765 134.401L65.195 122.648L98.0638 103.672L118.601 115.528Z" fill="white"/>
<path d="M66.6083 122.646L85.7749 133.592L117.193 115.528L98.0644 104.484L66.6083 122.646ZM85.777 135.211L63.785 122.652L98.0644 102.861L120.008 115.53L85.777 135.211" fill="#1A162C"/>
<path d="M102.419 139.679C102.419 139.654 102.423 86.024 102.423 85.3887C102.423 85.3218 102.379 85.2696 102.316 85.2528L75.8503 92.1029C75.8377 92.1008 75.8273 92.0945 75.8148 92.0882L83.3669 77.2326C83.3209 77.2054 83.2645 77.2054 83.2185 77.2326L58.1276 91.6828C58.0941 91.7037 58.0523 91.7079 58.0147 91.6975L54.9659 90.8491C54.8719 90.8219 54.7778 90.8888 54.7799 90.987C54.782 91.7664 54.7841 145.035 54.7924 145.123L54.7966 145.148C54.8489 145.66 55.1163 146.151 55.6241 146.447L71.696 155.768C73.0647 156.564 74.7532 156.566 76.124 155.774L101.568 141.119C102.116 140.803 102.394 140.26 102.415 139.706L102.419 139.679" fill="#EF4BA2"/>
<path d="M55.4831 91.7225C55.4852 93.5593 55.4852 98.6268 55.4852 104.948C55.4873 120.784 55.4915 144.715 55.4956 145.108C55.5165 145.267 55.6064 145.622 55.9784 145.839L72.0502 155.159C73.1975 155.826 74.6247 155.828 75.774 155.164L101.218 140.508C101.519 140.337 101.699 140.034 101.713 139.679H101.716L101.722 86.1325L75.8556 92.83L75.4564 92.6921L74.8943 92.3536L81.7297 78.9022L58.4798 92.293C58.2896 92.4037 58.0472 92.435 57.8278 92.3744L55.4831 91.7225ZM73.9163 157.067C73.0261 157.067 72.1359 156.837 71.3439 156.376L55.2721 147.055C54.6075 146.669 54.1791 146 54.0976 145.221C54.0872 145.125 54.0851 145.097 54.0789 104.948C54.0789 97.1369 54.0767 91.2439 54.0767 90.989C54.0767 90.7194 54.1979 90.4749 54.4111 90.314C54.6201 90.1531 54.8959 90.1009 55.1529 90.1698L57.9803 90.9577L82.8686 76.6223C83.1361 76.4719 83.46 76.4719 83.7212 76.6244L84.2959 76.9588L77.1365 91.0454L102.324 84.5235L102.503 84.5736C102.871 84.676 103.128 85.0104 103.128 85.3886L103.111 139.813C103.084 140.569 102.637 141.313 101.92 141.727L76.4761 156.382C75.6862 156.839 74.8023 157.067 73.9163 157.067" fill="#1A162C"/>
<path d="M102.316 85.2592L75.8496 92.1092C75.837 92.1071 75.8266 92.1008 75.8141 92.0945L73.787 98L73.7828 156.363C74.5895 156.388 75.4003 156.198 76.1233 155.78L101.567 141.125C102.115 140.81 102.393 140.266 102.414 139.712L102.418 139.685C102.418 139.662 102.422 86.0303 102.422 85.395C102.422 85.3281 102.378 85.2759 102.316 85.2592" fill="#1A162C"/>
<path d="M74.4961 98.117L74.4919 155.619C74.9454 155.552 75.3821 155.4 75.7771 155.17L101.221 140.515C101.522 140.343 101.702 140.04 101.716 139.685L101.725 86.1388L76.3539 92.7067L74.4961 98.117ZM73.9235 157.069C73.8713 157.069 73.819 157.067 73.7668 157.067L73.0834 157.046L73.1273 97.7701L75.4365 91.0454L75.9568 91.3568L102.327 84.5298L102.506 84.5799C102.874 84.6823 103.131 85.0167 103.131 85.3949L103.114 139.819C103.087 140.575 102.64 141.319 101.923 141.733L76.4792 156.388C75.7081 156.835 74.8262 157.069 73.9235 157.069" fill="#1A162C"/>
<path d="M57.2499 93.0327C57.2499 93.0327 57.4881 92.387 57.7848 91.5553L54.9659 90.7696C54.8719 90.7424 54.7778 90.8093 54.7799 90.9075C54.782 91.6869 54.7841 144.955 54.7924 145.043L54.7966 145.068C54.8489 145.58 55.1163 146.073 55.6241 146.368L57.2436 147.31L57.2499 96.9488V93.0327" fill="#1A162C"/>
<path d="M55.4831 91.6431C55.4852 93.4799 55.4852 98.5475 55.4852 104.871C55.4873 120.707 55.4915 144.638 55.4956 145.029C55.5165 145.187 55.6064 145.543 55.9784 145.76L56.5426 146.088L56.5468 92.9074L56.5907 92.7883C56.5907 92.7862 56.7035 92.4853 56.8686 92.0297L55.4831 91.6431ZM57.9468 148.531L55.2721 146.976C54.6075 146.59 54.1791 145.921 54.0976 145.143C54.0872 145.047 54.0851 145.02 54.0789 104.871C54.0789 97.0596 54.0767 91.1646 54.0767 90.9096C54.0767 90.64 54.2 90.3956 54.4111 90.2326C54.6222 90.0737 54.9021 90.0194 55.1571 90.0926L58.7013 91.081L58.4483 91.7915C58.2247 92.4142 58.0368 92.9324 57.9532 93.1581L57.9468 148.531Z" fill="#1A162C"/>
<path d="M71.7766 101.534L55.6296 92.1698C54.4949 91.5073 54.497 89.8669 55.6338 89.2087L81.1531 74.5118C82.478 73.7449 84.11 73.747 85.4328 74.516L101.58 83.88C102.715 84.5424 102.713 86.1828 101.576 86.841L76.0563 101.538C74.7315 102.305 73.0994 102.303 71.7766 101.534" fill="white"/>
<path d="M83.2886 74.6435C82.67 74.6435 82.0536 74.8022 81.504 75.1199L55.9847 89.8188C55.6712 89.9985 55.4831 90.3245 55.4831 90.6881C55.481 91.0517 55.6692 91.3777 55.9847 91.5616L72.1296 100.926C73.2309 101.565 74.6017 101.567 75.7051 100.93L101.224 86.2308C101.538 86.0511 101.726 85.7251 101.726 85.3594C101.726 84.9979 101.54 84.6719 101.224 84.488L85.0795 75.1261C84.5278 74.8043 83.9071 74.6435 83.2886 74.6435ZM73.9226 102.813C73.0575 102.813 72.1944 102.589 71.4233 102.142L55.2783 92.7778C54.5239 92.339 54.0746 91.5574 54.0767 90.6881C54.0767 89.8167 54.5281 89.0352 55.2825 88.5984L80.8019 73.9016C82.3378 73.0135 84.2499 73.0156 85.7858 73.9079L101.931 83.2718C102.685 83.7106 103.134 84.4901 103.132 85.3615C103.132 86.2329 102.681 87.0144 101.927 87.4491L76.4073 102.148C75.6404 102.591 74.7815 102.813 73.9226 102.813Z" fill="#1A162C"/>
<path d="M102.425 75.2307C102.427 75.2077 102.425 71.9374 102.425 71.3021C102.425 71.2352 102.381 71.183 102.318 71.1662L75.8523 78.0163C75.8398 78.0142 75.8293 78.01 75.8168 78.0037L83.369 63.146C83.323 63.1188 83.2666 63.1188 83.2206 63.146L58.1296 77.5962C58.0961 77.6171 58.0544 77.6213 58.0168 77.6109L54.9679 76.7624C54.8739 76.7353 54.7798 76.8021 54.7798 76.9003C54.784 77.6798 54.7924 80.5887 54.7986 80.6743L54.8028 80.7015C54.8571 81.2114 55.1246 81.7046 55.6303 81.9992L71.7022 91.3193C73.0709 92.1154 74.7615 92.1175 76.1324 91.3255L101.576 76.6705C102.122 76.355 102.4 75.8116 102.423 75.26L102.425 75.2307" fill="#EF4BA2"/>
<path d="M55.4889 77.636C55.4931 78.7435 55.4973 80.4696 55.5056 80.6368C55.5244 80.8207 55.6144 81.1738 55.9863 81.3912L72.0581 90.7112C73.2074 91.3799 74.6327 91.3799 75.782 90.7175L101.228 76.0624C101.527 75.889 101.707 75.586 101.721 75.2307H101.726V72.0461L75.8592 78.7435L75.4602 78.6056L74.8981 78.2692L81.7335 64.8157L58.4835 78.2065C58.2933 78.3193 58.0509 78.3486 57.8314 78.288L55.4889 77.636ZM73.9263 92.6191C73.034 92.6191 72.1459 92.3893 71.3518 91.9274L55.2821 82.6074C54.6155 82.2208 54.1871 81.5521 54.1076 80.7726C54.0993 80.6932 54.091 80.6159 54.0805 76.9025C54.0805 76.6329 54.2017 76.3884 54.4149 76.2275C54.6238 76.0666 54.8996 76.0123 55.1567 76.0834L57.984 76.8712L82.8723 62.5358C83.1398 62.3854 83.4637 62.3875 83.7249 62.5379L84.2996 62.8723L77.1403 76.9589L102.327 70.4391L102.507 70.4871C102.875 70.5895 103.132 70.9239 103.132 71.3022L103.119 75.3666C103.092 76.121 102.647 76.867 101.93 77.2787L76.4841 91.9358C75.6963 92.3913 74.8102 92.6191 73.9263 92.6191Z" fill="#1A162C"/>
<path d="M102.323 71.1725L75.8565 78.0246C75.844 78.0205 75.8335 78.0163 75.821 78.01L73.7941 83.9134V91.9169C74.6007 91.9399 75.4136 91.7498 76.1366 91.3318L101.581 76.6768C102.126 76.3613 102.404 75.8179 102.427 75.2663L102.429 75.2391C102.431 75.214 102.429 71.9436 102.429 71.3083C102.429 71.2415 102.385 71.1893 102.323 71.1725" fill="#1A162C"/>
<path d="M74.4973 84.0305V91.173C74.9508 91.1041 75.3876 90.9516 75.7825 90.7238L101.229 76.0687C101.528 75.8953 101.707 75.5923 101.722 75.237L101.726 72.0523L76.3551 78.6202L74.4973 84.0305ZM73.931 92.6212C73.8788 92.6212 73.8266 92.6212 73.7722 92.6191L73.0909 92.5982L73.1286 83.6857L75.4377 76.9589L75.958 77.2703L102.328 70.4454L102.508 70.4934C102.875 70.5958 103.132 70.9302 103.132 71.3084L103.12 75.3729C103.093 76.1273 102.648 76.8733 101.931 77.2849L76.4847 91.9421C75.7136 92.3872 74.8338 92.6212 73.931 92.6212" fill="#1A162C"/>
<path d="M57.252 78.9462C57.252 78.9462 57.4902 78.3005 57.7869 77.4688L54.9679 76.6831C54.8739 76.658 54.7798 76.7249 54.7798 76.821C54.784 77.6004 54.7924 80.5093 54.7986 80.595L54.8028 80.6221C54.8571 81.1341 55.1246 81.6252 55.6303 81.9198L57.252 82.8623V78.9462" fill="#1A162C"/>
<path d="M55.4889 77.5565C55.4931 78.6641 55.4973 80.3901 55.5056 80.5573C55.5244 80.7412 55.6143 81.0944 55.9884 81.3138L56.5505 81.6398L56.5944 78.7017C56.5944 78.6996 56.7072 78.3987 56.8723 77.9431L55.4889 77.5565ZM57.9568 84.0847L55.2799 82.5279C54.6154 82.1413 54.1871 81.4726 54.1076 80.6932C54.0993 80.6138 54.091 80.5385 54.0805 76.8231C54.0805 76.5535 54.2038 76.309 54.4149 76.146C54.6259 75.9872 54.9059 75.9329 55.1609 76.006L58.705 76.9944L58.4521 77.7049C58.2285 78.3276 58.0383 78.848 57.9568 79.0716V84.0847Z" fill="#1A162C"/>
<path d="M71.7841 87.4471L55.6371 78.0832C54.5024 77.4229 54.5045 75.7804 55.6413 75.1221L81.1606 60.4253C82.4855 59.6584 84.1175 59.6605 85.4403 60.4316L101.587 69.7934C102.722 70.4558 102.72 72.0963 101.583 72.7545L76.0638 87.4513C74.739 88.2182 73.1069 88.2161 71.7841 87.4471" fill="white"/>
<path d="M83.2924 60.5569C82.6738 60.5569 82.0573 60.7157 81.5078 61.0333L55.9884 75.7323C55.6749 75.912 55.4869 76.238 55.4869 76.6016C55.4848 76.9673 55.6728 77.2912 55.9884 77.475L72.1333 86.839C73.2346 87.4784 74.6055 87.4805 75.7089 86.8432L101.228 72.1463C101.542 71.9645 101.73 71.6385 101.73 71.2749C101.73 70.9113 101.544 70.5854 101.228 70.4015L85.0832 61.0396C84.5315 60.7178 83.9109 60.5569 83.2924 60.5569V60.5569ZM73.9263 88.726C73.0612 88.726 72.1981 88.5024 71.427 88.0552L55.2821 78.6913C54.5277 78.2524 54.0784 77.4709 54.0805 76.6016C54.0805 75.7302 54.5319 74.9486 55.2863 74.514L80.8055 59.815C82.3415 58.9269 84.2515 58.929 85.7895 59.8234L101.935 69.1852C102.689 69.6241 103.138 70.4056 103.136 71.277C103.136 72.1463 102.685 72.9279 101.93 73.3625L76.411 88.0615C75.644 88.5045 74.7852 88.726 73.9263 88.726" fill="#1A162C"/>
<path d="M75.6267 118.287L75.0875 117.351L99.8881 102.999L100.429 103.935L75.6267 118.287" fill="#EF4BA2"/>
<path d="M75.6267 132.208L75.0875 131.272L99.8881 116.922L100.429 117.856L75.6267 132.208" fill="#EF4BA2"/>
<path d="M75.6267 146.13L75.0875 145.194L99.8881 130.844L100.429 131.78L75.6267 146.13" fill="#EF4BA2"/>
<path d="M86.1377 106.555H85.0552V106.031C85.0552 104.856 85.8534 103.473 86.8711 102.886L90.083 101.032C90.6618 100.698 91.2554 100.658 91.7172 100.924C92.1748 101.189 92.4381 101.724 92.4381 102.393V102.917H91.3577V102.393C91.3577 102.129 91.2867 101.927 91.1759 101.862C91.061 101.795 90.8499 101.837 90.6222 101.968L87.4124 103.824C86.7207 104.221 86.1377 105.232 86.1377 106.031V106.555" fill="#EF4BA2"/>
<path d="M86.1377 120.147H85.0552V119.622C85.0552 118.446 85.8534 117.064 86.8711 116.477L90.083 114.623C90.6618 114.289 91.2554 114.249 91.7172 114.515C92.1748 114.78 92.4381 115.315 92.4381 115.984V116.508H91.3577V115.984C91.3577 115.721 91.2867 115.516 91.1759 115.451C91.061 115.386 90.8499 115.428 90.6222 115.56L87.4124 117.415C86.7207 117.812 86.1377 118.824 86.1377 119.622V120.147" fill="#EF4BA2"/>
<path d="M85.9723 134.373H84.8898V133.849C84.8898 132.672 85.6881 131.291 86.7058 130.704L89.9176 128.848C90.4964 128.514 91.0942 128.476 91.5518 128.742C92.0115 129.007 92.2748 129.542 92.2748 130.211V130.735H91.1923V130.211C91.1923 129.947 91.1233 129.742 91.0105 129.678C90.8977 129.613 90.6867 129.657 90.4589 129.786L87.247 131.64C86.5553 132.039 85.9723 133.05 85.9723 133.849V134.373" fill="#EF4BA2"/>
<path d="M56.2838 70.3512L72.2491 79.548L88.1307 70.5873L72.318 61.2673L56.2838 70.3512Z" fill="white"/>
<path d="M57.702 70.3576L72.2525 78.7393L86.7236 70.5728L72.311 62.0782L57.702 70.3576ZM72.2462 80.3568L54.8663 70.3471L72.3256 60.4545L89.5385 70.6L72.2462 80.3568Z" fill="#1A162C"/>
<path d="M73.8016 70.3743L83.1509 75.7595L92.4501 70.5123L83.1906 65.054L73.8016 70.3743" fill="white"/>
<path d="M75.216 70.3804L83.1506 74.9506L91.0413 70.4996L83.1799 65.8667L75.216 70.3804ZM83.1444 76.5681L72.3803 70.37L83.1966 64.243L93.8561 70.5246L83.1444 76.5681Z" fill="#1A162C"/>
<path d="M83.8778 151.703L61.0834 151.739C60.8243 151.739 60.6153 151.947 60.6153 152.207V157.966L60.63 159.241C60.6801 159.936 61.2004 160.657 62.1867 161.226L69.0472 165.188C70.9468 166.283 73.8201 166.402 75.4647 165.453L83.2467 160.96C84.0367 160.505 84.3877 159.884 84.3417 159.241H84.348V152.173C84.348 151.914 84.137 151.703 83.8778 151.703" fill="#EF4BA2"/>
<path d="M61.3148 152.441L61.3294 159.232C61.3628 159.675 61.8017 160.196 62.5331 160.618L69.3936 164.578C71.0674 165.545 73.6858 165.666 75.1088 164.845L82.8889 160.352C83.2504 160.143 83.6725 159.79 83.6348 159.291L83.5805 158.538H83.639V152.407L61.3148 152.441ZM72.666 166.799C71.2868 166.799 69.8407 166.46 68.6914 165.796L61.831 161.836C60.6733 161.167 59.9962 160.265 59.9252 159.293L59.9084 157.972V152.207C59.9084 151.561 60.433 151.036 61.0787 151.036L83.8731 151.001C83.8731 151.001 83.8731 151.001 83.8751 151.001C84.1865 151.001 84.4811 151.122 84.7027 151.344C84.9242 151.563 85.0474 151.86 85.0474 152.173V159.945H84.9639C84.7821 160.586 84.3098 161.157 83.593 161.571L75.811 166.061C74.9543 166.557 73.8341 166.799 72.666 166.799" fill="#1A162C"/>
<path d="M83.8746 151.724L73.3843 151.741V166.074C74.1616 165.999 74.8888 165.804 75.4614 165.474L83.2435 160.981C84.0334 160.526 84.3844 159.905 84.3384 159.262H84.3448V152.194C84.3448 151.935 84.1337 151.724 83.8746 151.724" fill="#1A162C"/>
<path d="M83.2471 153.458L75.465 157.951C73.8204 158.9 70.9471 158.781 69.0475 157.686L62.1871 153.724C60.2875 152.629 60.0807 150.97 61.7252 150.019L69.5073 145.526C71.1519 144.577 74.0252 144.696 75.9248 145.793L82.7852 149.753C84.6848 150.85 84.8916 152.51 83.2471 153.458Z" fill="white"/>
<path d="M72.2815 145.591C71.3621 145.591 70.4886 145.768 69.8554 146.136L62.0733 150.629C61.7265 150.827 61.3128 151.164 61.3128 151.628C61.3128 152.119 61.7704 152.675 62.5331 153.116L69.3936 157.076C71.0674 158.043 73.6858 158.164 75.1088 157.343L82.8889 152.85C83.2358 152.65 83.6494 152.313 83.6494 151.849C83.6494 151.358 83.1939 150.802 82.4291 150.361L75.5686 146.401C74.6429 145.867 73.4246 145.591 72.2815 145.591V145.591ZM72.666 159.297C71.2868 159.297 69.8407 158.958 68.6914 158.294L61.831 154.334C60.6085 153.628 59.9084 152.641 59.9084 151.628C59.9084 150.742 60.4266 149.954 61.3691 149.411L69.1512 144.918C71.0193 143.84 74.1476 143.957 76.2729 145.183L83.1333 149.143C84.3558 149.849 85.0558 150.836 85.0558 151.849C85.0558 152.735 84.5355 153.523 83.593 154.067L75.811 158.559C74.9543 159.055 73.8341 159.297 72.666 159.297" fill="#1A162C"/>
<path d="M82.382 159.821H80.9756V156.156H82.382V159.821Z" fill="#EF4BA2"/>
<path d="M70.8334 165.671H69.425V161.604H70.8334V165.671Z" fill="#1A162C"/>
<path d="M78.9602 156.332L65.2852 148.362L65.9937 147.148L79.6665 155.116L78.9602 156.332" fill="#1A162C"/>
<path d="M84.0565 62.8138C84.3156 62.6925 90.4071 59.8025 90.3131 55.8007C90.2713 54.0496 89.3183 53.3432 88.7562 53.0799C87.7594 52.6118 86.4325 52.7874 85.5297 53.5042C84.7962 54.0872 84.4766 54.9084 84.6563 55.7589L86.0292 55.4685C85.9435 55.0652 86.1838 54.7747 86.4011 54.6033C86.888 54.2188 87.6403 54.1081 88.1586 54.3484C88.7583 54.6305 88.8983 55.3118 88.9109 55.8321C88.9715 58.4024 84.999 60.8264 83.4609 61.5432L84.0565 62.8138" fill="#1A162C"/>
<path d="M82.0987 65.7499C85.8413 60.5926 86.2008 52.4073 86.2238 51.7114C86.2259 51.6821 86.2029 51.6633 86.1736 51.6633H78.3038H70.4341C70.4048 51.6633 70.3818 51.6821 70.3839 51.7114C70.4068 52.4073 70.7663 60.5926 74.509 65.7499C74.6176 66.0028 74.8036 66.2473 75.0669 66.4709C75.0669 66.473 75.0689 66.473 75.0689 66.4751C75.0689 66.4751 75.3595 66.6966 75.5329 66.799C77.0626 67.6808 79.543 67.6808 81.0726 66.799C81.2482 66.6966 81.4008 66.5879 81.5366 66.4751C81.5366 66.4751 81.5408 66.473 81.5408 66.4709C81.8041 66.2473 81.99 66.0028 82.0987 65.7499" fill="#EF4BA2"/>
<path d="M70.9357 52.1897C71.0569 54.1059 71.7173 61.0082 74.9918 65.5408C75.0712 65.7247 75.2112 65.9044 75.3909 66.059C75.395 66.0611 75.6458 66.2554 75.7963 66.3432C77.1546 67.1268 79.4511 67.1268 80.8115 66.3432C80.9578 66.2575 81.0853 66.1677 81.2003 66.0695C81.3946 65.9044 81.5346 65.7268 81.6182 65.5387L81.6725 65.4405C84.9157 60.9706 85.5573 54.1665 85.6764 52.1897H70.9357ZM75.2696 67.2522C75.0753 67.1394 74.7494 66.8928 74.7264 66.8719C74.4067 66.6002 74.1705 66.2931 74.0828 66.059C70.267 60.7993 69.8887 52.6411 69.8574 51.7362L69.8595 51.4792L70.2085 51.1386H86.1737L86.7693 51.1846L86.7505 51.73C86.7171 52.6432 86.3262 60.7805 82.5564 66.0151C82.4081 66.3286 82.1824 66.617 81.8752 66.8782C81.7164 67.0098 81.5409 67.1352 81.3361 67.2543C80.4856 67.7454 79.3968 67.9899 78.3039 67.9899C77.2131 67.9899 76.1202 67.7454 75.2696 67.2522" fill="#1A162C"/>
<path d="M79.811 51.6716C79.811 51.6716 80.7409 61.2277 78.5655 67.4529C79.4787 67.4174 80.3752 67.2085 81.0731 66.8052C81.2487 66.7049 81.4013 66.5962 81.5371 66.4813C81.5371 66.4813 81.5413 66.4792 81.5413 66.4771C81.8046 66.2556 81.9905 66.0111 82.0992 65.7582C86.0111 60.3668 86.2263 51.6716 86.2263 51.6716H79.811" fill="#1A162C"/>
<path d="M83.9044 48.4304C86.9972 50.215 86.9972 53.1114 83.9044 54.8981C80.8096 56.6847 75.7944 56.6847 72.6996 54.8981C69.6068 53.1114 69.6068 50.215 72.6996 48.4304C75.7944 46.6437 80.8096 46.6437 83.9044 48.4304Z" fill="white"/>
<path d="M83.6431 48.8839C80.6987 47.185 75.9091 47.1871 72.9648 48.8839C71.6378 49.6508 70.9085 50.6371 70.9085 51.6631C70.9085 52.6892 71.6378 53.6755 72.9648 54.4424C75.9091 56.1414 80.6987 56.1414 83.6431 54.4424C84.968 53.6755 85.6993 52.6892 85.6993 51.6631C85.6993 50.6371 84.968 49.6508 83.6431 48.8839ZM72.4403 55.3536C70.7748 54.3902 69.8574 53.082 69.8574 51.6631C69.8574 50.2463 70.7748 48.9361 72.4403 47.9749C75.6751 46.1067 80.9349 46.1067 84.1697 47.9749C85.8352 48.9361 86.7526 50.2463 86.7526 51.6631C86.7526 53.082 85.8352 54.3902 84.1697 55.3536C82.5523 56.2877 80.4291 56.7537 78.3039 56.7537C76.1808 56.7537 74.0577 56.2877 72.4403 55.3536Z" fill="#1A162C"/>
<path d="M82.1591 49.4356C84.2927 50.6664 84.2927 52.6621 82.1591 53.8929C80.0276 55.1237 76.5712 55.1237 74.4377 53.8929C72.3062 52.6621 72.3062 50.6664 74.4377 49.4356C76.5712 48.2027 80.0276 48.2027 82.1591 49.4356Z" fill="#EF4BA2"/>
<path d="M81.8981 49.889C79.915 48.746 76.6843 48.746 74.7012 49.889C73.8402 50.3885 73.3658 51.0175 73.3658 51.6632C73.3658 52.3089 73.8402 52.94 74.7012 53.4374C76.6843 54.5825 79.9129 54.5825 81.8981 53.4374C82.759 52.94 83.2334 52.311 83.2334 51.6632C83.2334 51.0175 82.759 50.3885 81.8981 49.889ZM74.1766 54.3485C72.975 53.6547 72.3126 52.7018 72.3126 51.6632C72.3126 50.6267 72.975 49.6717 74.1766 48.98C76.4878 47.6447 80.1114 47.6447 82.4247 48.98C83.6242 49.6738 84.2845 50.6267 84.2845 51.6632C84.2845 52.7018 83.6242 53.6547 82.4247 54.3485C81.267 55.0151 79.7833 55.3494 78.2996 55.3494C76.8159 55.3494 75.3322 55.0151 74.1766 54.3485" fill="#1A162C"/>
<path d="M74.4377 49.4543C72.3062 50.6852 72.3062 52.6808 74.4377 53.9116C75.3049 54.4131 76.3936 54.6995 77.52 54.7914C77.6976 52.4593 77.9735 50.2567 78.2264 48.5348C76.8534 48.5453 75.4867 48.8504 74.4377 49.4543Z" fill="#1A162C"/>
<path d="M76.0489 67.4508L76.985 66.9723C74.6529 62.4146 73.9487 55.2846 73.9424 55.2136L72.8954 55.3139C72.9247 55.6148 73.6269 62.7176 76.0489 67.4508" fill="#1A162C"/>
<path d="M79.5652 54.8541C79.8306 52.7937 80.4408 48.7313 80.4408 48.7313L79.4001 48.5746C79.4001 48.5746 78.79 52.6516 78.5204 54.7183L79.5652 54.8541Z" fill="#1A162C"/>
<path d="M66.3506 72.9314C66.0601 72.9314 65.8323 73.1843 65.8615 73.4727L67.3139 80.7803C67.3139 81.6559 68.1686 82.5315 69.8822 82.9536C70.8246 83.1876 71.8255 83.1876 72.7701 82.9536C74.4815 82.5315 75.3383 81.6559 75.3383 80.7803L76.7907 73.4727C76.82 73.1843 76.5921 72.9314 76.3016 72.9314H66.3506" fill="#EF4BA2"/>
<path d="M66.6048 73.6357L68.0153 80.7783C68.0153 81.2736 68.6422 81.9256 70.0464 82.2724C70.8823 82.4793 71.7642 82.4772 72.6001 82.2724C74.0044 81.9256 74.6312 81.2736 74.6312 80.7783L74.6459 80.6425L76.0397 73.6357H66.6048ZM71.3233 83.8334C70.78 83.8334 70.2387 83.7666 69.71 83.637C67.8042 83.1668 66.6528 82.1303 66.609 80.8556L65.1691 73.6107C65.1252 73.2074 65.236 72.8709 65.4617 72.6222C65.6873 72.3736 66.0113 72.2294 66.3477 72.2294H76.2967C76.6353 72.2294 76.9571 72.3736 77.1828 72.6222C77.4106 72.8709 77.5214 73.2073 77.4879 73.5438L76.0376 80.8556C75.9937 82.1303 74.8403 83.1668 72.9345 83.637C72.4079 83.7666 71.8645 83.8334 71.3233 83.8334" fill="#1A162C"/>
<path d="M75.2233 70.6809C77.3777 71.9243 77.3777 73.9408 75.2233 75.1842C73.0688 76.4297 69.5748 76.4297 67.4182 75.1842C65.2638 73.9408 65.2637 71.9243 67.4203 70.6809C69.5747 69.4354 73.0688 69.4354 75.2233 70.6809Z" fill="#EF4BA2"/>
<path d="M59.6984 31.3698L46.0402 31.1629L47.8164 39.2312C47.8164 39.2312 48.458 40.4537 49.2855 40.9323C51.3292 42.1108 54.6413 42.1108 56.6851 40.9323C57.5126 40.4537 58.1542 39.2312 58.1542 39.2312L59.6984 31.3698" fill="#EF4BA2"/>
<path d="M71.3227 70.4551C70.027 70.4551 68.7335 70.733 67.7722 71.2889C66.9677 71.7528 66.508 72.3526 66.508 72.9335C66.508 73.5123 66.9677 74.1121 67.7722 74.576C69.6968 75.6877 72.9505 75.6877 74.873 74.576C75.6775 74.1121 76.1373 73.5123 76.1373 72.9335C76.1373 72.3526 75.6775 71.7528 74.873 71.2889C73.9117 70.733 72.6162 70.4551 71.3227 70.4551ZM71.3227 76.8266C69.7909 76.8266 68.2612 76.4839 67.068 75.7943C65.7995 75.0608 65.0995 74.0452 65.0995 72.9335C65.0995 71.8197 65.7995 70.8041 67.068 70.0706C69.4523 68.6935 73.1887 68.6935 75.5772 70.0706C76.8457 70.8041 77.5437 71.8197 77.5437 72.9335C77.5437 74.0452 76.8457 75.0608 75.5772 75.7943C74.384 76.4818 72.8523 76.8266 71.3227 76.8266" fill="#1A162C"/>
<path d="M48.4825 38.9826C48.6726 39.3212 49.1491 40.0401 49.6381 40.3222C51.4499 41.3691 54.5175 41.3712 56.3314 40.3222C56.8162 40.0442 57.2968 39.3191 57.4849 38.9889L58.8453 32.0595L46.9194 31.8798L48.4825 38.9826ZM52.9858 42.5247C51.5272 42.5247 50.0686 42.1966 48.9339 41.5404C47.958 40.9762 47.2684 39.7015 47.1931 39.5573L47.1305 39.3818L45.1641 30.4463L60.5505 30.6782L58.7764 39.5594C58.7011 39.7015 58.0115 40.9762 57.0356 41.5404C55.8988 42.1966 54.4423 42.5247 52.9858 42.5247Z" fill="#1A162C"/>
<path d="M61.0839 28.6846L61.0944 24.4676C61.0944 24.3338 60.9856 24.2252 60.854 24.2252H54.9234C53.6508 24.0455 52.3302 24.0455 51.0597 24.2252H45.1374C45.0036 24.2252 44.8971 24.3338 44.8971 24.4676L44.8992 28.6846C44.8554 30.3563 46.3389 32.0386 49.4003 32.9601C51.7304 33.6602 54.2527 33.6602 56.5806 32.9601C59.6441 32.0407 61.1257 30.3563 61.0839 28.6846" fill="white"/>
<path d="M45.6003 24.9273L45.6025 28.6825C45.5669 30.1599 47.0987 31.5349 49.6042 32.2872C51.79 32.9455 54.1974 32.9434 56.3811 32.2872C58.8867 31.5349 60.4184 30.1599 60.3829 28.7013L60.3807 28.6804L60.3912 24.9273H54.9246C53.6248 24.7518 52.3563 24.7518 51.1589 24.921L45.6003 24.9273ZM52.9916 34.1847C51.7064 34.1847 50.4213 34.0029 49.1988 33.633C46.012 32.6759 44.1417 30.8182 44.1982 28.6658L44.194 24.4676C44.194 23.9452 44.6182 23.523 45.1385 23.523H51.0608C52.2916 23.3412 53.6959 23.3412 55.0228 23.5293L60.8551 23.523C61.3754 23.523 61.7996 23.9452 61.7996 24.4676L61.7892 28.6763C61.8352 30.8245 59.967 32.678 56.7865 33.633C55.562 34.0029 54.2768 34.1847 52.9916 34.1847" fill="#1A162C"/>
<path d="M58.7185 20.7667C61.8844 22.5931 61.8844 25.5542 58.7185 27.3827C55.5547 29.2091 50.4245 29.2091 47.2587 27.3827C44.0949 25.5542 44.0949 22.5931 47.2587 20.7667C50.4245 18.9382 55.5547 18.9382 58.7185 20.7667Z" fill="#EF4BA2"/>
<path d="M52.9871 20.0918C51.0374 20.0918 49.0898 20.5181 47.6082 21.3748C46.3021 22.1271 45.5853 23.0863 45.5853 24.0727C45.5853 25.0611 46.3021 26.0203 47.6082 26.7746C50.5714 28.4861 55.3986 28.4861 58.3639 26.7746C59.6699 26.0203 60.3866 25.0611 60.3866 24.0727C60.3866 23.0863 59.6699 22.1271 58.3639 21.3748C56.8823 20.5181 54.9347 20.0918 52.9871 20.0918V20.0918ZM52.9871 29.4682C50.7971 29.4682 48.6091 28.9751 46.9039 27.9909C45.1465 26.9753 44.179 25.5856 44.179 24.0727C44.179 22.5618 45.1465 21.1722 46.9039 20.1566C50.3143 18.1902 55.6556 18.1881 59.068 20.1566C60.8255 21.1722 61.793 22.5618 61.793 24.0727C61.793 25.5856 60.8255 26.9753 59.068 27.9909C57.3628 28.9751 55.1729 29.4682 52.9871 29.4682Z" fill="#1A162C"/>
<path d="M58.7347 24.6243C55.5709 22.7958 50.4387 22.7958 47.2749 24.6243C46.5978 25.0151 46.0733 25.4602 45.6867 25.9303C46.0817 26.457 46.6438 26.9522 47.3898 27.3827C50.5536 29.2091 55.6839 29.2091 58.8497 27.3827C59.5268 26.9919 60.0492 26.5468 60.4358 26.0745C60.0429 25.5479 59.4787 25.0548 58.7347 24.6243" fill="#1A162C"/>
<path d="M46.6328 25.9492C46.9358 26.248 47.3057 26.5239 47.7383 26.7746C50.7036 28.4861 55.5287 28.4861 58.496 26.7746C58.8722 26.5573 59.2023 26.3149 59.4865 26.0558C59.1835 25.757 58.8116 25.4811 58.379 25.2324C55.4137 23.521 50.5907 23.521 47.6233 25.2324C47.2451 25.4497 46.915 25.6901 46.6328 25.9492V25.9492ZM53.1171 29.4682C50.9271 29.4682 48.7413 28.9751 47.034 27.9909C46.2316 27.5269 45.588 26.9773 45.122 26.3525L44.7918 25.9116L45.1408 25.4874C45.5963 24.9295 46.194 24.4342 46.9212 24.0142C50.3295 22.0478 55.6729 22.0457 59.0833 24.0142C59.8857 24.4781 60.5313 25.0297 60.9973 25.6524L61.3275 26.0934L60.9786 26.5197C60.5188 27.0797 59.9191 27.575 59.1981 27.9909C57.493 28.9751 55.305 29.4682 53.1171 29.4682" fill="#1A162C"/>
</svg>
