<svg width="100" height="145" viewBox="0 0 100 145" fill="none" xmlns="http://www.w3.org/2000/svg">
<path d="M47.8231 76.0499L46.7064 76.6943C46.5917 76.7603 46.392 76.7516 46.26 76.6752L45.2075 76.0673C45.0755 75.9909 45.0599 75.8762 45.1745 75.8102L46.2912 75.1659C46.4059 75.0982 46.6074 75.1069 46.7393 75.1833L47.7919 75.7912C47.9238 75.8676 47.9378 75.9839 47.8231 76.0499Z" fill="#1A162C"/>
<path d="M50.5601 74.4678L49.4433 75.1122C49.3286 75.1799 49.1289 75.1712 48.9969 75.0948L47.9444 74.4869C47.8107 74.4105 47.7968 74.2941 47.9115 74.2299L49.0282 73.5838C49.1428 73.5178 49.3425 73.5264 49.4763 73.6029L50.5288 74.2107C50.6608 74.2871 50.6747 74.4018 50.5601 74.4678Z" fill="#1A162C"/>
<path d="M53.5075 69.827L52.389 70.4714C52.2761 70.5374 52.0747 70.5287 51.9427 70.4523L50.8902 69.8444C50.7582 69.7697 50.7442 69.6534 50.8589 69.5874L51.9756 68.9413C52.0903 68.8753 52.29 68.884 52.422 68.9604L53.4745 69.5683C53.6065 69.6447 53.6221 69.761 53.5075 69.827Z" fill="#1A162C"/>
<path d="M53.3641 72.9082L52.2474 73.5525C52.1328 73.6202 51.933 73.6116 51.801 73.5352L50.7486 72.9273C50.6166 72.8509 50.6009 72.7345 50.7155 72.6685L51.8341 72.0242C51.947 71.9582 52.1484 71.9668 52.2804 72.0432L53.3329 72.6511C53.4649 72.7275 53.4788 72.8422 53.3641 72.9082Z" fill="#1A162C"/>
<path d="M5.46547 98.3417L4.34698 98.986C4.23236 99.052 4.03266 99.0451 3.90066 98.9686L2.84816 98.3608C2.71616 98.2843 2.70054 98.168 2.81517 98.102L3.93365 97.4576C4.04828 97.3916 4.24798 97.4003 4.37997 97.4767L5.43248 98.0846C5.56447 98.161 5.58009 98.2757 5.46547 98.3417Z" fill="#1A162C"/>
<path d="M8.06396 99.8422L6.94718 100.488C6.83255 100.554 6.63285 100.546 6.50085 100.469L5.44835 99.8613C5.31462 99.7849 5.30073 99.6685 5.41536 99.6025L6.53215 98.9582C6.64677 98.8922 6.84652 98.9009 6.98025 98.9773L8.03267 99.5852C8.16466 99.6616 8.17859 99.7762 8.06396 99.8422Z" fill="#1A162C"/>
<path d="M5.3251 101.424L4.2084 102.069C4.09377 102.135 3.89398 102.126 3.76199 102.05L2.70948 101.442C2.57749 101.365 2.56187 101.251 2.6765 101.185L3.79328 100.539C3.90791 100.473 4.10939 100.481 4.24139 100.558L5.29389 101.166C5.42589 101.242 5.43973 101.357 5.3251 101.424Z" fill="#1A162C"/>
<path d="M10.8161 101.431L9.69936 102.076C9.58473 102.142 9.38495 102.133 9.25295 102.057L8.19875 101.449C8.06675 101.372 8.05283 101.258 8.16746 101.192L9.28424 100.546C9.39887 100.48 9.59857 100.488 9.73057 100.565L10.7849 101.173C10.9168 101.249 10.9307 101.365 10.8161 101.431Z" fill="#1A162C"/>
<path d="M8.07387 103.012L6.95717 103.656C6.84254 103.722 6.64276 103.715 6.51076 103.639L5.45656 103.031C5.32457 102.955 5.31064 102.838 5.42527 102.772L6.54206 102.128C6.65668 102.062 6.85638 102.069 6.98838 102.145L8.04266 102.753C8.17466 102.83 8.1885 102.946 8.07387 103.012Z" fill="#1A162C"/>
<path d="M13.4157 102.932L12.2972 103.576C12.1843 103.642 11.9829 103.634 11.8509 103.557L10.7984 102.949C10.6664 102.873 10.6524 102.758 10.7671 102.692L11.8839 102.046C11.9985 101.98 12.1982 101.989 12.3302 102.065L13.3827 102.673C13.5147 102.75 13.5303 102.866 13.4157 102.932Z" fill="#1A162C"/>
<path d="M10.6735 104.513L9.5567 105.157C9.44207 105.223 9.24241 105.216 9.10868 105.14L8.05617 104.532C7.92418 104.455 7.91025 104.339 8.02488 104.273L9.14166 103.629C9.25629 103.563 9.45599 103.571 9.58799 103.648L10.6405 104.255C10.7742 104.332 10.7881 104.447 10.6735 104.513Z" fill="#1A162C"/>
<path d="M16.0106 104.433L14.8939 105.077C14.7792 105.143 14.5795 105.134 14.4475 105.058L13.395 104.45C13.263 104.374 13.2474 104.259 13.362 104.193L14.4788 103.549C14.5935 103.483 14.7932 103.49 14.9269 103.566L15.9794 104.174C16.1113 104.25 16.1253 104.367 16.0106 104.433Z" fill="#1A162C"/>
<path d="M13.2761 106.013L12.1575 106.659C12.0429 106.725 11.8432 106.716 11.7112 106.64L10.6587 106.032C10.5267 105.956 10.5111 105.839 10.6257 105.773L11.7442 105.129C11.8571 105.063 12.0586 105.072 12.1906 105.148L13.243 105.756C13.375 105.832 13.389 105.947 13.2761 106.013Z" fill="#1A162C"/>
<path d="M2.86293 96.7612L1.74623 97.4055C1.63161 97.4715 1.43182 97.4629 1.29983 97.3864L0.245625 96.7786C0.113629 96.7021 0.0997046 96.5875 0.214333 96.5215L1.33112 95.8754C1.44575 95.8094 1.64545 95.8181 1.77744 95.8945L2.82995 96.5024C2.96368 96.5788 2.97756 96.6952 2.86293 96.7612Z" fill="#1A162C"/>
<path d="M2.72622 99.8422L1.60943 100.488C1.4948 100.554 1.29341 100.546 1.16141 100.469L0.108907 99.8613C-0.0230893 99.7849 -0.0370142 99.6685 0.0776138 99.6025L1.1944 98.9582C1.30903 98.8922 1.50873 98.9009 1.64072 98.9773L2.69323 99.5852C2.82522 99.6616 2.84084 99.7762 2.72622 99.8422Z" fill="#1A162C"/>
<path d="M34.9254 102.777L33.8087 103.422C33.6941 103.49 33.4943 103.481 33.3623 103.404L32.3081 102.797C32.1761 102.72 32.1622 102.604 32.2768 102.538L33.3936 101.893C33.5082 101.827 33.7079 101.836 33.8399 101.913L34.8942 102.52C35.0262 102.597 35.0401 102.711 34.9254 102.777Z" fill="#1A162C"/>
<path d="M37.525 104.278L36.4083 104.924C36.2936 104.99 36.0939 104.981 35.9602 104.905L34.9077 104.297C34.7757 104.221 34.7618 104.104 34.8764 104.038L35.9932 103.394C36.1079 103.328 36.3076 103.337 36.4396 103.413L37.4921 104.021C37.6241 104.097 37.6397 104.212 37.525 104.278Z" fill="#1A162C"/>
<path d="M34.7829 105.86L33.6661 106.505C33.5514 106.571 33.3517 106.562 33.2197 106.485L32.1655 105.878C32.0336 105.801 32.0196 105.687 32.1343 105.621L33.251 104.974C33.3657 104.908 33.5654 104.917 33.6974 104.994L34.7516 105.601C34.8836 105.678 34.8975 105.794 34.7829 105.86Z" fill="#1A162C"/>
<path d="M37.5348 107.448L36.4181 108.092C36.3035 108.158 36.102 108.151 35.97 108.075L34.9175 107.467C34.7855 107.39 34.7716 107.274 34.8862 107.208L36.003 106.564C36.1176 106.498 36.3173 106.506 36.4493 106.581L37.5018 107.189C37.6338 107.265 37.6494 107.382 37.5348 107.448Z" fill="#1A162C"/>
<path d="M32.3248 101.197L31.2064 101.841C31.0917 101.907 30.892 101.899 30.76 101.822L29.7075 101.214C29.5755 101.138 29.5599 101.023 29.6745 100.957L30.793 100.311C30.9077 100.245 31.1074 100.254 31.2393 100.33L32.2919 100.938C32.4238 101.015 32.4377 101.131 32.3248 101.197Z" fill="#1A162C"/>
<path d="M32.1806 104.278L31.0639 104.924C30.9492 104.99 30.7495 104.981 30.6175 104.905L29.565 104.297C29.433 104.221 29.4173 104.104 29.532 104.038L30.6487 103.394C30.7634 103.328 30.9631 103.337 31.0969 103.413L32.1494 104.021C32.2814 104.097 32.2952 104.212 32.1806 104.278Z" fill="#1A162C"/>
<path d="M18.7653 106.02L17.6486 106.666C17.5339 106.732 17.3342 106.723 17.2022 106.647L16.148 106.039C16.016 105.963 16.002 105.846 16.1167 105.78L17.2335 105.136C17.3481 105.07 17.5478 105.079 17.6798 105.155L18.7341 105.763C18.8661 105.839 18.8799 105.954 18.7653 106.02Z" fill="#1A162C"/>
<path d="M16.0268 107.602L14.9101 108.247C14.7955 108.313 14.5957 108.304 14.4637 108.227L13.4113 107.62C13.2776 107.543 13.2636 107.429 13.3782 107.363L14.495 106.716C14.6096 106.65 14.8094 106.659 14.9431 106.736L15.9956 107.343C16.1276 107.42 16.1414 107.536 16.0268 107.602Z" fill="#1A162C"/>
<path d="M21.5016 104.44L20.3849 105.084C20.2703 105.15 20.0705 105.141 19.9385 105.065L18.8843 104.457C18.7523 104.38 18.7384 104.266 18.853 104.2L19.9698 103.555C20.0844 103.489 20.2841 103.496 20.4161 103.573L21.4704 104.181C21.6024 104.257 21.6162 104.374 21.5016 104.44Z" fill="#1A162C"/>
<path d="M24.2399 102.857L23.1232 103.503C23.0086 103.569 22.8088 103.561 22.6751 103.484L21.6226 102.876C21.4906 102.8 21.4767 102.685 21.5913 102.619L22.7081 101.973C22.8227 101.907 23.0224 101.916 23.1544 101.992L24.2069 102.6C24.3406 102.677 24.3545 102.791 24.2399 102.857Z" fill="#1A162C"/>
<path d="M26.9821 101.277L25.8654 101.921C25.7507 101.987 25.5493 101.98 25.4173 101.904L24.3648 101.296C24.2328 101.219 24.2188 101.103 24.3335 101.037L25.4503 100.393C25.5649 100.327 25.7646 100.335 25.8966 100.41L26.9491 101.018C27.0811 101.094 27.0967 101.211 26.9821 101.277Z" fill="#1A162C"/>
<path d="M29.7194 99.6963L28.6009 100.341C28.4863 100.407 28.2866 100.398 28.1546 100.322L27.1021 99.7137C26.9701 99.6373 26.9544 99.5226 27.0691 99.4566L28.1876 98.8106C28.3022 98.7446 28.5019 98.7532 28.6339 98.8296L29.6864 99.4375C29.8184 99.5139 29.834 99.6303 29.7194 99.6963Z" fill="#1A162C"/>
<path d="M21.3649 107.521L20.2481 108.167C20.1335 108.233 19.9337 108.224 19.8 108.148L18.7476 107.54C18.6156 107.463 18.6017 107.349 18.7163 107.281L19.8331 106.637C19.9477 106.571 20.1474 106.579 20.2794 106.656L21.3319 107.264C21.4639 107.34 21.4795 107.455 21.3649 107.521Z" fill="#1A162C"/>
<path d="M24.1012 105.94L22.9827 106.584C22.8698 106.65 22.6683 106.644 22.5363 106.567L21.4839 105.959C21.3519 105.883 21.338 105.766 21.4526 105.7L22.5694 105.056C22.684 104.99 22.8837 104.997 23.0157 105.073L24.0682 105.681C24.2002 105.758 24.2158 105.874 24.1012 105.94Z" fill="#1A162C"/>
<path d="M26.8405 104.358L25.722 105.004C25.6074 105.07 25.4076 105.061 25.2756 104.985L24.2232 104.377C24.0912 104.301 24.0755 104.186 24.1901 104.12L25.3087 103.474C25.4233 103.408 25.623 103.417 25.755 103.493L26.8075 104.101C26.9395 104.177 26.9534 104.292 26.8405 104.358Z" fill="#1A162C"/>
<path d="M29.5771 102.777L28.4603 103.422C28.3457 103.49 28.1459 103.481 28.0139 103.404L26.9614 102.797C26.8294 102.72 26.8138 102.604 26.9284 102.538L28.0452 101.893C28.1599 101.827 28.3613 101.836 28.4933 101.913L29.5458 102.52C29.6778 102.597 29.6917 102.711 29.5771 102.777Z" fill="#1A162C"/>
<path d="M33.6997 92.4939C33.6997 92.4731 33.6424 73.1409 33.6406 72.6077C33.6406 72.5521 33.6024 72.5087 33.5485 72.4948L18.9978 73.8443C18.9874 73.8426 18.9769 73.8391 18.9683 73.8321L17.6083 65.8082C17.5701 65.7856 17.5233 65.7856 17.485 65.8082L4.1083 73.5386C4.07877 73.556 4.04398 73.5594 4.01272 73.5507L1.44926 72.8456C1.36937 72.8248 1.29297 72.8804 1.29297 72.962C1.29644 73.6168 1.36069 92.645 1.3659 92.718L1.36938 92.7388C1.41627 93.1695 1.64202 93.5811 2.06927 93.8277L15.5954 101.616C16.7468 102.281 18.1659 102.277 19.3156 101.609L32.9894 93.7062C33.4479 93.4387 33.6788 92.982 33.6962 92.5165L33.6997 92.4939Z" fill="#EF4BA2"/>
<path d="M1.87939 73.5716C1.88286 74.3896 1.88808 75.9371 1.89329 77.8146C1.9124 83.2941 1.94537 92.4678 1.94884 92.7006C1.96794 92.8395 2.04438 93.14 2.36048 93.3224L15.8866 101.108C16.8557 101.669 18.0558 101.666 19.0214 101.103L32.6952 93.1991C32.947 93.0532 33.0999 92.7961 33.1121 92.4956L33.6991 92.4939L33.1138 92.4956C33.1138 92.4244 33.0668 76.2723 33.0564 73.127L18.9329 74.4365L18.688 74.3462L18.4397 74.2107L17.1613 66.6696L4.39942 74.0458C4.23443 74.1395 4.04341 74.1656 3.85931 74.1152L1.87939 73.5716ZM17.4497 102.696C16.7081 102.696 15.9647 102.505 15.303 102.121L1.77694 94.3349C1.2177 94.0119 0.858148 93.4544 0.786939 92.8013C0.779992 92.7197 0.778279 92.6936 0.724439 77.8181C0.715755 75.166 0.708791 73.1704 0.707054 72.9655C0.705317 72.7466 0.804283 72.54 0.979699 72.4045C1.15685 72.269 1.38612 72.2239 1.60148 72.2829L3.98261 72.936L17.1926 65.301C17.4063 65.176 17.6807 65.1742 17.9013 65.3027L18.1392 65.44L19.4556 73.2156L33.6018 71.9025L33.706 71.9304C34.0152 72.0172 34.2236 72.2899 34.2236 72.6077C34.2253 73.1391 34.2826 92.4731 34.2826 92.4939L34.2757 92.5825C34.2531 93.2373 33.8797 93.8625 33.2823 94.2099L19.6068 102.114C18.9433 102.501 18.1965 102.696 17.4497 102.696Z" fill="#1A162C"/>
<path d="M33.5461 72.4983L18.9953 73.8512C18.9849 73.8478 18.9745 73.8425 18.9658 73.8391L17.2793 78.8028L17.3488 102.11C18.0262 102.13 18.707 101.966 19.3132 101.614L32.9869 93.7114C33.4454 93.4439 33.6764 92.9872 33.6937 92.5234L33.6972 92.4991C33.6972 92.4783 33.6399 73.1461 33.6382 72.6129C33.6382 72.5573 33.5999 72.5139 33.5461 72.4983Z" fill="#1A162C"/>
<path d="M17.8642 78.8983L17.9318 101.492C18.3174 101.433 18.6856 101.305 19.0208 101.108L32.6945 93.2043C32.9464 93.0584 33.0993 92.8013 33.1114 92.5009C33.1132 92.4297 33.0662 76.2775 33.0558 73.1322L19.3925 74.4001L17.8642 78.8983ZM17.4508 102.698C17.4126 102.698 17.3726 102.696 17.3344 102.696L16.7665 102.68L16.6953 78.7073L18.637 72.9915L19.1129 73.252L33.6012 71.9078L33.7054 71.9373C34.0146 72.0224 34.223 72.2951 34.223 72.6129C34.2247 73.1444 34.282 92.4783 34.282 92.4991C34.2525 93.2425 33.8791 93.8677 33.2816 94.2151L19.6061 102.119C18.9583 102.498 18.215 102.698 17.4508 102.698Z" fill="#1A162C"/>
<path d="M15.6006 81.778L2.01203 73.9537C1.05505 73.4014 1.05327 72.0224 2.00677 71.4666L15.7413 63.5278C16.8528 62.88 18.2249 62.8782 19.3382 63.5208L32.9269 71.3451C33.8838 71.8956 33.8855 73.2746 32.932 73.8304L19.1975 81.771C18.0859 82.4171 16.7139 82.4206 15.6006 81.778Z" fill="white"/>
<path d="M17.5434 63.625C17.0207 63.625 16.4997 63.7622 16.0342 64.0314L2.29796 71.972C2.03223 72.1266 1.87411 72.4027 1.87411 72.7101C1.87585 73.0175 2.03389 73.2937 2.30135 73.4483L15.89 81.2708C16.8192 81.8074 17.9742 81.8057 18.8999 81.2655L32.6361 73.325C32.9018 73.1721 33.0599 72.896 33.0599 72.5868C33.0581 72.2794 32.9001 72.0033 32.6326 71.8504L19.0441 64.0279C18.5803 63.7587 18.0627 63.625 17.5434 63.625ZM17.3906 82.8408C16.6699 82.8408 15.9491 82.6549 15.3065 82.2833L1.71782 74.4608C1.08563 74.0961 0.707037 73.4413 0.707037 72.7119C0.7053 71.9824 1.08041 71.3294 1.71086 70.9612L15.4472 63.0206C16.7359 62.2738 18.3371 62.2703 19.6293 63.0136L33.2162 70.8379C33.8484 71.2026 34.227 71.8556 34.227 72.5851C34.2288 73.3145 33.8536 73.9693 33.2231 74.3357L19.4869 82.2764C18.8408 82.6515 18.1166 82.8408 17.3906 82.8408Z" fill="#1A162C"/>
<path d="M10.7951 78.9296L28.5364 68.7346L23.7984 66.0913L6.40625 76.4026L10.7951 78.9296Z" fill="white"/>
<path d="M7.5688 76.3956L10.8009 78.2539L27.3543 68.7415L23.8129 66.7651L7.5688 76.3956ZM10.8009 79.6034L5.25195 76.4095L23.7939 65.4174L29.725 68.7259L10.8009 79.6034Z" fill="#1A162C"/>
<path d="M7.09375 68.5262L24.0692 78.9904L28.4511 76.4564L11.4184 66.0617L7.09375 68.5262Z" fill="white"/>
<path d="M8.23587 68.5454L24.0736 78.3096L27.3041 76.4425L11.4038 66.7391L8.23587 68.5454ZM24.0545 79.6695L5.94336 68.5072L11.4246 65.3844L29.5914 76.4686L24.0545 79.6695Z" fill="#1A162C"/>
<path d="M11.3171 95.4726L10.1465 95.4691L10.2125 78.9279L11.3813 78.9314L11.3171 95.4726Z" fill="#1A162C"/>
<path d="M6.96547 83.4783L5.79492 83.4748L5.82613 76.3991L6.99498 76.4043L6.96547 83.4783Z" fill="#1A162C"/>
<path d="M28.8544 83.0996H27.6855L27.6925 78.4693L28.8614 78.471L28.8544 83.0996Z" fill="#EF4BA2"/>
<path d="M22.9231 95.0348L22.918 80.6577H24.0868L24.092 95.0348H22.9231Z" fill="#EF4BA2"/>
<path d="M12.8309 89.7966C12.8309 91.325 11.7575 91.9433 10.4341 91.1808C9.11067 90.4167 8.03906 88.5583 8.03906 87.0299C8.03906 85.5016 9.11067 84.8833 10.4341 85.6475C11.7575 86.4116 12.8309 88.2683 12.8309 89.7966Z" fill="white"/>
<path d="M56.088 107.251C56.088 107.231 56.0898 14.2638 56.0898 13.7393C56.0898 13.6837 56.0533 13.642 56.0012 13.6264C53.5193 11.2991 45.8635 10.7555 43.3816 8.42815L34.1176 3.30289C34.0794 3.28205 34.0326 3.28205 33.9961 3.30289L33.4368 3.63638C33.409 3.65202 33.3743 3.6572 33.343 3.64677L30.8265 2.94688C30.7483 2.92431 30.6719 2.97987 30.6719 3.0615C30.6736 3.70411 30.6788 96.3722 30.684 96.4434L30.6875 96.466C30.7309 96.888 30.9515 97.2944 31.3718 97.5375L50.8794 108.936C52.0101 109.593 53.4046 109.594 54.537 108.941L55.3863 108.439C55.8379 108.179 56.0672 107.731 56.0845 107.274L56.088 107.251Z" fill="#EF4BA2"/>
<path d="M31.2509 3.67288C31.2526 6.20686 31.2526 16.2993 31.2544 28.9518C31.2561 55.6688 31.2596 96.0439 31.2648 96.4347C31.2804 96.5632 31.3533 96.855 31.6607 97.0322L51.1701 108.432C52.1149 108.981 53.2924 108.983 54.239 108.436L55.0848 107.937C55.3367 107.792 55.486 107.541 55.4965 107.251H55.4982V107.085C55.4999 97.845 55.5017 18.7795 55.4999 13.9668C54.3224 12.9491 51.8857 12.2578 49.5271 11.5892C46.8855 10.8424 44.3897 10.1354 43.0315 8.9058L34.0593 3.94209L33.7311 4.13833C33.5661 4.23559 33.3663 4.26163 33.1822 4.21126L31.2509 3.67288ZM52.7055 110.013C51.9708 110.013 51.2361 109.822 50.5813 109.442L31.072 98.043C30.5215 97.7234 30.1688 97.1694 30.1011 96.5268C30.0942 96.4451 30.0925 96.4226 30.0855 28.9518C30.0838 14.4323 30.0838 3.28384 30.082 3.06326C30.082 2.83922 30.1845 2.63428 30.3599 2.50055C30.5336 2.36681 30.7663 2.32341 30.9799 2.38419L33.3055 3.03201L33.691 2.80101C33.9186 2.67075 34.1895 2.67249 34.4066 2.79753L43.7748 8.00268C44.9124 9.06907 47.4204 9.7794 49.8449 10.4654C52.4779 11.2105 54.9685 11.9157 56.3284 13.1384C56.5385 13.2634 56.6705 13.4857 56.6705 13.7393C56.6705 14.236 56.6688 97.5827 56.6688 107.085L56.6618 107.34C56.6358 107.988 56.2659 108.604 55.6736 108.947L54.8296 109.445C54.1731 109.824 53.4384 110.013 52.7055 110.013Z" fill="#1A162C"/>
<path d="M56.0004 13.6316C54.4095 13.6941 54.6406 13.6854 53.0497 13.7462L52.605 15.9432L52.6016 109.429C53.2685 109.448 53.9388 109.292 54.5363 108.946L55.3856 108.445C55.8372 108.184 56.0664 107.736 56.0838 107.279L56.0873 107.257C56.0873 107.236 56.089 14.269 56.089 13.7445C56.089 13.6889 56.0525 13.6472 56.0004 13.6316Z" fill="#1A162C"/>
<path d="M53.1882 16.0022L53.1865 108.811C53.5599 108.754 53.9176 108.629 54.2424 108.441L55.0883 107.943C55.3401 107.797 55.4895 107.547 55.4999 107.257L55.5016 107.09C55.5033 97.9873 55.5051 21.1206 55.5051 14.2359L53.5321 14.3124L53.1882 16.0022ZM52.7123 110.015C52.6706 110.015 52.6272 110.015 52.5838 110.013L52.0176 109.995L52.0315 15.8268L52.5682 13.18L56.0695 13.0445L56.1581 13.0688C56.4656 13.1574 56.6739 13.4283 56.6739 13.7444C56.6739 14.2411 56.6722 97.5879 56.6722 107.09V107.257C56.6392 107.993 56.2693 108.61 55.677 108.952L54.833 109.45C54.1904 109.822 53.4608 110.015 52.7123 110.015Z" fill="#1A162C"/>
<path d="M32.7108 4.74963C32.7108 4.74963 32.9089 4.21644 33.1538 3.53041L30.8265 2.88085C30.7483 2.86001 30.6719 2.91557 30.6719 2.99546C30.6736 3.63808 30.6788 96.3079 30.684 96.3791L30.6875 96.3999C30.7309 96.822 30.9515 97.2284 31.3718 97.4733L32.7091 98.2514L32.7108 4.74963Z" fill="#1A162C"/>
<path d="M31.2509 3.60678C31.2526 6.14075 31.2526 16.235 31.2544 28.8875C31.2561 55.6045 31.2596 95.9796 31.2648 96.3704C31.2804 96.4972 31.3533 96.7907 31.6607 96.9678L32.1193 97.2353L32.1228 4.64538L32.1592 4.54641C32.1592 4.54641 32.2513 4.29803 32.3868 3.92463L31.2509 3.60678ZM33.2899 99.2656L31.072 97.9786C30.5232 97.6591 30.1706 97.1068 30.1011 96.4624C30.0942 96.3791 30.0925 96.3565 30.0855 28.8875C30.0838 14.3662 30.0838 3.21947 30.082 2.99716C30.082 2.77312 30.1827 2.56992 30.3582 2.43619C30.5336 2.30245 30.7611 2.25731 30.9765 2.3181L33.9099 3.13612L33.6998 3.72665C33.5157 4.24074 33.3593 4.66798 33.2916 4.85382L33.2899 99.2656Z" fill="#1A162C"/>
<path d="M50.9367 15.4708L31.3683 4.03748C30.4305 3.49213 30.4322 2.13573 31.3718 1.59211L32.2818 1.05543C33.376 0.423242 34.7255 0.424983 35.8179 1.06065L55.3864 12.4939C56.3242 13.0393 56.3225 14.3957 55.3829 14.9393L54.4728 15.476C53.3786 16.1082 52.0291 16.1047 50.9367 15.4708Z" fill="white"/>
<path d="M51.2326 14.9655C52.1409 15.4952 53.2699 15.4952 54.1817 14.969L55.0866 14.4358C55.3506 14.2829 55.5051 14.0155 55.5051 13.7167C55.5051 13.418 55.3523 13.1505 55.0936 12.9994L35.5234 1.5644C34.6151 1.03642 33.4844 1.03642 32.576 1.56266L31.6695 2.09587C31.4055 2.24871 31.2509 2.51446 31.2509 2.81492C31.2509 3.11365 31.4037 3.3811 31.6625 3.5322L51.2326 14.9655ZM52.7089 16.5303C51.9933 16.5303 51.2813 16.3462 50.6439 15.9746L31.0737 4.54128C30.452 4.18003 30.082 3.53395 30.082 2.81319C30.0838 2.09242 30.4554 1.4463 31.0807 1.08505L31.9855 0.551885C33.2621 -0.184513 34.8409 -0.184509 36.1122 0.555362L55.6823 11.9903C56.304 12.3516 56.6757 12.9977 56.674 13.7184C56.674 14.4392 56.3006 15.0853 55.6753 15.4448L54.7705 15.978C54.1331 16.3479 53.421 16.5303 52.7089 16.5303Z" fill="#1A162C"/>
<path d="M53.0367 60.0316C53.0384 60.0125 53.0367 57.3101 53.0367 56.7873C53.0367 56.7317 53.0002 56.6883 52.9481 56.6744L44.8547 54.42C44.846 54.4166 44.8355 54.4131 44.8269 54.4079L31.0646 46.3509C31.0264 46.3283 30.9812 46.3283 30.943 46.3509L23.9837 50.3716C23.9559 50.3889 23.9229 50.3924 23.8916 50.3837L21.3733 49.6821C21.2951 49.6612 21.2188 49.7151 21.2188 49.7967C21.2205 50.4411 21.2274 52.8413 21.2344 52.9125L21.2361 52.9351C21.2812 53.3571 21.5019 53.7635 21.9204 54.0084L41.428 65.4052C42.5586 66.0635 43.955 66.0652 45.0857 65.4104L52.335 61.2213C52.7866 60.9608 53.0159 60.5109 53.035 60.0559L53.0367 60.0316Z" fill="#EF4BA2"/>
<path d="M21.8051 50.4098C21.8069 51.3251 21.8121 52.751 21.8173 52.8847C21.8346 53.0323 21.9076 53.3241 22.215 53.503L41.7227 64.9016C42.6692 65.4504 43.845 65.4521 44.7932 64.9051L52.0426 60.7142C52.2893 60.5717 52.4386 60.3234 52.4507 60.0316L52.4525 60.0108C52.4525 59.844 52.4525 58.4789 52.4525 57.555V57.1433L44.5449 54.9203L31.0014 46.9901L24.2766 50.8787C24.1046 50.9725 23.9153 50.9968 23.7347 50.9465L21.8051 50.4098ZM43.2614 66.482C42.525 66.482 41.7886 66.2927 41.1339 65.9106L21.6245 54.5121C21.0757 54.1925 20.7214 53.6402 20.6554 52.9959C20.6432 52.8656 20.6363 50.9395 20.6328 49.7985C20.6328 49.5744 20.7353 49.3712 20.9107 49.2374C21.0861 49.1037 21.3154 49.0586 21.529 49.1194L23.8598 49.7689L30.6506 45.8455C30.8677 45.717 31.1403 45.717 31.3592 45.8455L45.0694 53.873L53.1055 56.1117C53.4146 56.1968 53.6214 56.4695 53.6214 56.7873V57.555C53.6214 58.5484 53.6214 60.042 53.6214 60.0576L53.6144 60.1219C53.5901 60.768 53.2202 61.3846 52.6262 61.7267L45.3786 65.9158C44.7255 66.2945 43.9926 66.482 43.2614 66.482Z" fill="#1A162C"/>
<path d="M52.9498 56.6796L44.8563 54.4253C44.8476 54.4218 44.8372 54.4183 44.8285 54.4131L43.1543 53.4388V65.8985C43.8212 65.9176 44.4899 65.7613 45.0873 65.4157L52.3366 61.2265C52.7882 60.9643 53.0175 60.5162 53.0366 60.0594L53.0383 60.0368C53.04 60.0177 53.0383 57.3153 53.0383 56.7925C53.0383 56.7369 53.0019 56.6935 52.9498 56.6796Z" fill="#1A162C"/>
<path d="M43.7389 54.4548V65.2802C44.1106 65.2229 44.4701 65.0978 44.7949 64.9103L52.0443 60.7194C52.2909 60.577 52.4402 60.3286 52.4524 60.0369C52.4541 59.9587 52.4541 58.5206 52.4541 57.5602V57.1468L44.5466 54.9255L43.7389 54.4548ZM43.2648 66.4855C43.2214 66.4855 43.1797 66.4838 43.1363 66.4821L42.5684 66.4665V52.4228L45.0693 53.8782L53.1071 56.1169C53.4163 56.202 53.623 56.4747 53.623 56.7925V57.5602C53.623 58.5519 53.623 60.0473 53.623 60.0629C53.5917 60.7732 53.2218 61.3898 52.6278 61.732L45.3802 65.9211C44.7411 66.291 44.0116 66.4855 43.2648 66.4855Z" fill="#1A162C"/>
<path d="M23.2595 51.4866C23.2595 51.4866 23.4557 50.9534 23.7023 50.2656L21.3733 49.6178C21.2951 49.5952 21.2188 49.6508 21.2188 49.7307C21.2205 50.375 21.2274 52.777 21.2344 52.8482L21.2361 52.8691C21.2812 53.2928 21.5019 53.6992 21.9204 53.9424L23.2595 54.7205V51.4866Z" fill="#1A162C"/>
<path d="M37.0545 54.2568L43.663 50.5297L34.0342 44.9702L27.4258 48.6956L37.0545 54.2568Z" fill="white"/>
<path d="M28.6029 48.7026L37.0576 53.5829L42.4833 50.5227L34.0303 45.6423L28.6029 48.7026ZM37.0506 54.9289L26.2461 48.6904L34.0373 44.2963L44.8419 50.5349L37.0506 54.9289Z" fill="#1A162C"/>
<path d="M21.8051 50.3455C21.8069 51.2608 21.8121 52.6867 21.8173 52.8187C21.8346 52.9681 21.9076 53.2581 22.215 53.437L22.6735 53.7045L22.71 51.2817C22.71 51.2817 22.8021 51.0333 22.9375 50.6599L21.8051 50.3455ZM23.8424 55.7365L21.6262 54.4478C21.0756 54.1265 20.7214 53.5742 20.6554 52.9316C20.6432 52.8013 20.6363 50.8735 20.6328 49.7342C20.6328 49.5084 20.7353 49.3052 20.9124 49.1715C21.0896 49.0377 21.3206 48.9961 21.5325 49.0551L24.4624 49.8714L24.2506 50.4619C24.0682 50.976 23.9101 51.405 23.8424 51.5908V55.7365Z" fill="#1A162C"/>
<path d="M41.4911 62.2061L21.9211 50.7728C20.9832 50.2274 20.9849 48.871 21.9245 48.3291L29.2347 44.1035C30.3288 43.4714 31.6783 43.4731 32.7707 44.1088L52.3391 55.542C53.277 56.0874 53.2752 57.4438 52.3356 57.9874L45.0255 62.2113C43.9313 62.8435 42.5836 62.8418 41.4911 62.2061Z" fill="white"/>
<path d="M41.7834 61.7024C42.6917 62.2303 43.8224 62.2321 44.7324 61.7058L52.0426 57.4803C52.3014 57.3309 52.456 57.0634 52.456 56.7647C52.456 56.4642 52.3031 56.1968 52.0443 56.0474L32.4743 44.6124C31.5677 44.0844 30.437 44.0827 29.5269 44.6089L22.2168 48.8345C21.958 48.9839 21.8034 49.2513 21.8017 49.5501C21.8017 49.8488 21.9545 50.118 22.215 50.2674L41.7834 61.7024ZM43.2614 63.2672C42.5459 63.2672 41.8321 63.0831 41.1947 62.7114L21.6245 51.2782C21.0045 50.9152 20.6328 50.2691 20.6328 49.5483C20.6345 48.8276 21.008 48.1832 21.6315 47.822L28.9416 43.5963C30.2146 42.8617 31.7934 42.8652 33.063 43.6033L52.6331 55.0383C53.2549 55.3978 53.6266 56.0457 53.6248 56.7647C53.6248 57.4855 53.2514 58.1315 52.6262 58.4928L45.3161 62.7167C44.6821 63.0831 43.9718 63.2672 43.2614 63.2672Z" fill="#1A162C"/>
<path d="M36.5497 48.7322C36.7651 48.6314 41.8278 46.2295 41.7496 42.9035C41.7149 41.4481 40.9229 40.861 40.4557 40.6422C39.6272 40.2532 38.5244 40.3991 37.7741 40.9948C37.1645 41.4793 36.8988 42.1619 37.0482 42.8688L38.1892 42.6274C38.118 42.2922 38.3177 42.0507 38.4983 41.9083C38.903 41.5888 39.5283 41.4967 39.959 41.6964C40.4574 41.9309 40.5738 42.4971 40.5842 42.9296C40.6346 45.0658 37.333 47.0805 36.0547 47.6762L36.5497 48.7322Z" fill="#1A162C"/>
<path d="M34.9241 51.1724C38.0346 46.886 38.3334 40.083 38.3525 39.5047C38.3543 39.4804 38.3351 39.4647 38.3108 39.4647H31.77H25.2293C25.205 39.4647 25.1859 39.4804 25.1876 39.5047C25.2067 40.083 25.5055 46.886 28.6161 51.1724C28.7064 51.3826 28.8609 51.5858 29.0798 51.7716C29.0798 51.7733 29.0815 51.7734 29.0815 51.7751C29.0815 51.7751 29.3229 51.9592 29.4671 52.0443C30.7384 52.7772 32.7999 52.7772 34.0713 52.0443C34.2172 51.9592 34.344 51.8689 34.4569 51.7751C34.4569 51.7751 34.4603 51.7733 34.4603 51.7716C34.6792 51.5858 34.8337 51.3826 34.9241 51.1724Z" fill="#EF4BA2"/>
<path d="M25.6462 39.9023C25.7469 41.4949 26.2958 47.2316 29.0173 50.9987C29.0833 51.1515 29.1996 51.3009 29.349 51.4294C29.3525 51.4311 29.5609 51.5926 29.6859 51.6656C30.8149 52.3169 32.7236 52.3169 33.8542 51.6656C33.9758 51.5944 34.0818 51.5197 34.1773 51.4381C34.3389 51.3009 34.4552 51.1532 34.5247 50.9969L34.5698 50.9153C37.2653 47.2003 37.7985 41.5453 37.8975 39.9023H25.6462ZM29.2483 52.4211C29.0867 52.3273 28.8159 52.1223 28.7968 52.105C28.531 51.8792 28.3348 51.6239 28.2618 51.4294C25.0904 47.0579 24.7761 40.2775 24.75 39.5254L24.7518 39.3118L25.0418 39.0287H38.3109L38.8059 39.0669L38.7903 39.5202C38.7625 40.2792 38.4376 47.0423 35.3045 51.3929C35.1812 51.6534 34.9936 51.8931 34.7383 52.1102C34.6063 52.2196 34.4604 52.3238 34.2902 52.4228C33.5833 52.831 32.6784 53.0342 31.7701 53.0342C30.8635 53.0342 29.9551 52.831 29.2483 52.4211Z" fill="#1A162C"/>
<path d="M33.0196 39.4716C33.0196 39.4716 33.7924 47.414 31.9844 52.5879C32.7434 52.5583 33.4884 52.3847 34.0685 52.0495C34.2144 51.9661 34.3412 51.8758 34.4541 51.7803C34.4541 51.7803 34.4576 51.7785 34.4576 51.7768C34.6764 51.5927 34.831 51.3895 34.9213 51.1793C38.1726 46.6984 38.3515 39.4716 38.3515 39.4716H33.0196Z" fill="#1A162C"/>
<path d="M36.4221 36.7779C38.9925 38.2611 38.9925 40.6683 36.4221 42.1533C33.8499 43.6382 29.6817 43.6382 27.1095 42.1533C24.539 40.6683 24.539 38.2611 27.1095 36.7779C29.6817 35.2929 33.8499 35.2929 36.4221 36.7779Z" fill="white"/>
<path d="M36.2076 37.1548C33.7605 35.7428 29.7798 35.7445 27.3326 37.1548C26.2298 37.7922 25.6237 38.6119 25.6237 39.4647C25.6237 40.3175 26.2298 41.1372 27.3326 41.7746C29.7798 43.1866 33.7605 43.1866 36.2076 41.7746C37.3088 41.1372 37.9166 40.3175 37.9166 39.4647C37.9166 38.6119 37.3088 37.7922 36.2076 37.1548ZM26.8967 42.5319C25.5125 41.7312 24.75 40.644 24.75 39.4647C24.75 38.2871 25.5125 37.1982 26.8967 36.3993C29.5853 34.8466 33.9568 34.8466 36.6453 36.3993C38.0295 37.1982 38.7919 38.2871 38.7919 39.4647C38.7919 40.644 38.0295 41.7312 36.6453 42.5319C35.301 43.3082 33.5364 43.6955 31.7701 43.6955C30.0055 43.6955 28.241 43.3082 26.8967 42.5319Z" fill="#1A162C"/>
<path d="M34.9727 37.6133C36.7459 38.6362 36.7459 40.2949 34.9727 41.3179C33.2011 42.3408 30.3285 42.3408 28.5552 41.3179C26.7837 40.2949 26.7837 38.6362 28.5552 37.6133C30.3285 36.5886 33.2011 36.5886 34.9727 37.6133Z" fill="#EF4BA2"/>
<path d="M34.7557 37.9901C33.1075 37.0401 30.4225 37.0401 28.7742 37.9901C28.0587 38.4052 27.6644 38.928 27.6644 39.4647C27.6644 40.0013 28.0587 40.5259 28.7742 40.9392C30.4225 41.891 33.1058 41.891 34.7557 40.9392C35.4713 40.5259 35.8656 40.0031 35.8656 39.4647C35.8656 38.928 35.4713 38.4052 34.7557 37.9901ZM28.3383 41.6965C27.3396 41.1198 26.7891 40.3278 26.7891 39.4647C26.7891 38.6032 27.3396 37.8095 28.3383 37.2347C30.2592 36.1248 33.2708 36.1248 35.1934 37.2347C36.1903 37.8113 36.7391 38.6032 36.7391 39.4647C36.7391 40.3278 36.1903 41.1198 35.1934 41.6965C34.2312 42.2505 32.9981 42.5284 31.7649 42.5284C30.5318 42.5284 29.2987 42.2505 28.3383 41.6965Z" fill="#1A162C"/>
<path d="M28.5552 37.6289C26.7837 38.6518 26.7837 40.3104 28.5552 41.3334C29.276 41.7502 30.1808 41.9882 31.117 42.0646C31.2646 40.1264 31.4939 38.2958 31.7041 36.8647C30.563 36.8733 29.4271 37.1269 28.5552 37.6289Z" fill="#1A162C"/>
<path d="M29.8943 52.5861L30.6724 52.1884C28.7341 48.4005 28.1488 42.4746 28.1436 42.4155L27.2734 42.4989C27.2978 42.749 27.8814 48.6523 29.8943 52.5861Z" fill="#1A162C"/>
<path d="M32.8176 42.1167C33.0382 40.4043 33.5453 37.028 33.5453 37.028L32.6804 36.8977C32.6804 36.8977 32.1733 40.2862 31.9492 42.0039L32.8176 42.1167Z" fill="#1A162C"/>
<path d="M53.0367 36.2723C53.0384 36.2515 53.0367 33.5508 53.0367 33.0263C53.0367 32.9707 53.0002 32.929 52.9481 32.9134L44.8547 30.659C44.846 30.6573 44.8355 30.6521 44.8269 30.6486L31.0646 22.5899C31.0264 22.5691 30.9812 22.5691 30.943 22.5899L23.9837 26.6123C23.9559 26.628 23.9229 26.6314 23.8916 26.6245L21.3733 25.9228C21.2951 25.9002 21.2188 25.9558 21.2188 26.0357C21.2205 26.68 21.2274 29.082 21.2344 29.1532L21.2361 29.1741C21.2812 29.5979 21.5019 30.0043 21.9204 30.2474L41.428 41.6459C42.5586 42.3024 43.955 42.3042 45.0857 41.6511L52.335 37.4603C52.7866 37.1998 53.0159 36.7517 53.035 36.2949L53.0367 36.2723Z" fill="#EF4BA2"/>
<path d="M21.8051 26.6488C21.8069 27.5658 21.8121 28.9917 21.8173 29.1255C21.8346 29.2731 21.9076 29.5631 22.215 29.742L41.7227 41.1405C42.6692 41.6894 43.845 41.6911 44.7932 41.144L52.0426 36.9549C52.2893 36.8125 52.4386 36.5624 52.4507 36.2706L52.4525 36.2498C52.4525 36.0848 52.4525 34.7196 52.4525 33.7957V33.3823L44.5258 31.1488L31.0014 23.2308L24.2766 27.1177C24.1081 27.2132 23.9171 27.2358 23.7347 27.1872L21.8051 26.6488ZM43.2614 42.721C42.5268 42.721 41.7904 42.5317 41.1339 42.1514L21.6245 30.7511C21.0757 30.4315 20.7214 29.8792 20.6554 29.2366C20.6432 29.1063 20.6363 27.1785 20.6328 26.0392C20.6328 25.8134 20.7353 25.6102 20.9124 25.4765C21.0896 25.3427 21.3206 25.301 21.5325 25.3601L23.8598 26.0079L30.6506 22.0845C30.8695 21.9577 31.1403 21.9595 31.3592 22.0845L45.0694 30.1137L53.1055 32.3506C53.4129 32.4357 53.6214 32.7067 53.6214 33.0263V33.7957C53.6214 34.7874 53.6214 36.2827 53.6214 36.2984L53.6144 36.3609C53.5901 37.0087 53.2201 37.6235 52.6279 37.9674L45.3786 42.1566C44.7255 42.5335 43.9926 42.721 43.2614 42.721Z" fill="#1A162C"/>
<path d="M52.9498 32.9186L44.8563 30.6642C44.8476 30.6625 44.8372 30.6573 44.8285 30.6521L43.1543 29.6795V42.1392C43.8212 42.1583 44.4899 42.0003 45.0873 41.6546L52.3366 37.4655C52.7882 37.205 53.0175 36.7569 53.0366 36.3001L53.0383 36.2775C53.04 36.2567 53.0383 33.556 53.0383 33.0315C53.0383 32.9777 53.0019 32.9342 52.9498 32.9186Z" fill="#1A162C"/>
<path d="M43.7389 30.6938V41.5191C44.1106 41.4618 44.4701 41.3385 44.7949 41.1492L52.0443 36.9601C52.2909 36.8159 52.4402 36.5676 52.4524 36.2758C52.4541 36.1994 52.4541 34.7613 52.4541 33.8009V33.3875L44.5274 31.154L43.7389 30.6938ZM43.2666 42.7245C43.2231 42.7245 43.1797 42.7245 43.1363 42.721L42.5684 42.7054V28.6634L45.071 30.1171L53.1054 32.3558C53.4146 32.4427 53.623 32.7136 53.623 33.0315V33.8009C53.623 34.7926 53.623 36.2862 53.623 36.3018C53.5917 37.0139 53.2218 37.6305 52.6278 37.9726L45.3802 42.1617C44.7411 42.5299 44.0134 42.7245 43.2666 42.7245Z" fill="#1A162C"/>
<path d="M23.2595 27.7256C23.2595 27.7256 23.4557 27.1924 23.7023 26.5064L21.3733 25.8568C21.2951 25.836 21.2188 25.8898 21.2188 25.9714C21.2205 26.6158 21.2274 29.016 21.2344 29.0873L21.2361 29.1098C21.2812 29.5318 21.5019 29.9382 21.9204 30.1831L23.2595 30.9595V27.7256Z" fill="#1A162C"/>
<path d="M21.8051 26.5845C21.8069 27.4998 21.8121 28.9275 21.8173 29.0595C21.8346 29.2071 21.9076 29.4989 22.215 29.6778L22.6735 29.9452L22.71 27.5224C22.71 27.5224 22.802 27.274 22.9392 26.9006L21.8051 26.5845ZM23.8424 31.9755L21.6262 30.6886C21.0756 30.3673 20.7214 29.8132 20.6554 29.1706C20.6432 29.0404 20.6363 27.1125 20.6328 25.9732C20.6328 25.7491 20.7353 25.5459 20.9107 25.4122C21.0861 25.2802 21.3154 25.2333 21.529 25.2941L24.4642 26.1121L24.2523 26.7026C24.0682 27.2167 23.9101 27.6457 23.8424 27.8298V31.9755Z" fill="#1A162C"/>
<path d="M41.4911 38.4467L21.9211 27.0135C20.9832 26.4681 20.9849 25.1117 21.9245 24.5681L29.2347 20.3425C30.3288 19.7103 31.6783 19.712 32.7707 20.3477L52.3391 31.7809C53.277 32.3263 53.2752 33.6827 52.3356 34.2263L45.0255 38.452C43.9313 39.0842 42.5836 39.0824 41.4911 38.4467Z" fill="white"/>
<path d="M41.7834 37.9414C42.6935 38.4694 43.8224 38.4728 44.7324 37.9449L52.0426 33.7192C52.3014 33.5699 52.456 33.3024 52.456 33.0037C52.456 32.7049 52.3031 32.4358 52.0443 32.2864L32.4743 20.8514C31.5659 20.3251 30.437 20.3216 29.5269 20.8496L22.2168 25.0735C21.958 25.2229 21.8034 25.492 21.8017 25.7908C21.8017 26.0895 21.9545 26.357 22.215 26.5081L41.7834 37.9431V37.9414ZM43.2614 39.508C42.5459 39.508 41.8321 39.3221 41.1947 38.9522V38.9504L21.6245 27.5172C21.0045 27.1559 20.6328 26.5098 20.6328 25.789C20.6345 25.0683 21.008 24.4222 21.6315 24.0609L28.9416 19.8371C30.2129 19.1024 31.7934 19.1041 33.063 19.8423L52.6331 31.2773C53.2549 31.6386 53.6266 32.2864 53.6248 33.0054C53.6248 33.7262 53.2514 34.3723 52.6262 34.7318L45.3161 38.9574C44.6821 39.3238 43.9718 39.508 43.2614 39.508Z" fill="#1A162C"/>
<path d="M35.8127 80.847L28.0058 76.4321C27.6845 76.2462 27.4258 75.7495 27.4258 75.3223V64.0401C27.4258 63.6129 27.6845 63.4166 28.0058 63.6024L35.8127 68.0173C36.134 68.2032 36.3928 68.6999 36.3928 69.1254V80.4076C36.3928 80.8349 36.134 81.0328 35.8127 80.847Z" fill="white"/>
<path d="M28.0157 64.2798L28.0087 75.3223C28.0087 75.5724 28.1841 75.8607 28.297 75.9249L35.8017 80.1696L35.8086 69.1271C35.8086 68.877 35.6332 68.5887 35.5203 68.5245L28.0157 64.2798ZM36.1056 80.3416L35.8121 80.847L36.1091 80.3433C36.1074 80.3416 36.1056 80.3416 36.1056 80.3416ZM36.0448 81.5017C35.8711 81.5017 35.6939 81.4514 35.522 81.3541L27.7169 76.9409C27.215 76.6509 26.8398 75.9562 26.8398 75.3223V64.0401C26.8398 63.6024 27.0204 63.2464 27.3331 63.0658C27.6231 62.8973 27.974 62.9094 28.297 63.0953L36.1004 67.5085C36.6023 67.7985 36.9775 68.4915 36.9775 69.1271V80.4076C36.9775 80.847 36.7968 81.203 36.4842 81.3836C36.3487 81.4618 36.1977 81.5017 36.0448 81.5017Z" fill="#1A162C"/>
<path d="M33.2209 71.2165C33.2209 71.7202 32.8666 71.9252 32.4307 71.6733C31.993 71.4198 31.6387 70.8067 31.6387 70.303C31.6387 69.7976 31.993 69.5927 32.4307 69.8462C32.8666 70.0981 33.2209 70.7111 33.2209 71.2165Z" fill="#1A162C"/>
<path d="M37.3637 46.6983C37.1222 46.6983 36.9329 46.9084 36.9572 47.1481L38.1643 53.2217C38.1643 53.9494 38.8746 54.6771 40.2988 55.0279C41.0821 55.2224 41.914 55.2224 42.699 55.0279C44.1214 54.6771 44.8335 53.9494 44.8335 53.2217L46.0406 47.1481C46.065 46.9084 45.8756 46.6983 45.6342 46.6983H37.3637Z" fill="#EF4BA2"/>
<path d="M45.3285 50.1942C45.0871 50.1942 44.8977 50.4043 44.922 50.644L46.1291 56.7175C46.1291 57.4453 46.8395 58.173 48.2636 58.5238C49.0469 58.7183 49.8788 58.7183 50.6639 58.5238C52.0863 58.173 52.7984 57.4453 52.7984 56.7175L54.0055 50.644C54.0298 50.4043 53.8404 50.1942 53.599 50.1942H45.3285Z" fill="#EF4BA2"/>
<path d="M37.5761 47.2836L38.7484 53.2199C38.7484 53.6316 39.2694 54.1734 40.4365 54.4617C41.1312 54.6337 41.8642 54.6319 42.5589 54.4617C43.726 54.1734 44.247 53.6316 44.247 53.2199L44.2592 53.107L45.4176 47.2836H37.5761ZM41.4977 55.7591C41.0462 55.7591 40.5963 55.7035 40.1569 55.5958C38.5729 55.2051 37.616 54.3436 37.5795 53.2842L36.3829 47.2627C36.3464 46.9275 36.4384 46.6479 36.626 46.4412C36.8136 46.2346 37.0828 46.1147 37.3624 46.1147H45.6313C45.9126 46.1147 46.1801 46.2346 46.3677 46.4412C46.557 46.6479 46.649 46.9275 46.6213 47.2072L45.4159 53.2842C45.3794 54.3436 44.4207 55.2051 42.8368 55.5958C42.3991 55.7035 41.9476 55.7591 41.4977 55.7591Z" fill="#1A162C"/>
<path d="M45.5409 50.7794L46.7132 56.7158C46.7132 57.1274 47.2342 57.6693 48.4013 57.9576C49.0961 58.1295 49.829 58.1278 50.5237 57.9576C51.6909 57.6693 52.2118 57.1274 52.2118 56.7158L52.2241 56.6029L53.3825 50.7794H45.5409ZM49.4626 59.255C49.011 59.255 48.5611 59.1994 48.1217 59.0917C46.5378 58.7009 45.5808 57.8395 45.5444 56.7801L44.3477 50.7586C44.3112 50.4234 44.4033 50.1438 44.5908 49.9371C44.7784 49.7304 45.0477 49.6106 45.3273 49.6106H53.5961C53.8775 49.6106 54.145 49.7304 54.3325 49.9371C54.5218 50.1438 54.6139 50.4234 54.5861 50.703L53.3807 56.7801C53.3442 57.8395 52.3856 58.7009 50.8016 59.0917C50.364 59.1994 49.9124 59.255 49.4626 59.255Z" fill="#1A162C"/>
<path d="M44.7399 44.8278C46.5305 45.8612 46.5305 47.5372 44.7399 48.5705C42.9492 49.6057 40.0453 49.6057 38.2529 48.5705C36.4623 47.5372 36.4623 45.8612 38.2546 44.8278C40.0453 43.7926 42.9492 43.7926 44.7399 44.8278Z" fill="#EF4BA2"/>
<path d="M52.7027 48.3236C54.4934 49.357 54.4934 51.033 52.7027 52.0664C50.9121 53.1015 48.0082 53.1015 46.2158 52.0664C44.4252 51.033 44.4252 49.357 46.2175 48.3236C48.0081 47.2885 50.9121 47.2885 52.7027 48.3236Z" fill="#EF4BA2"/>
<path d="M41.4964 44.6401C40.4196 44.6401 39.3445 44.8711 38.5456 45.3331C37.8769 45.7187 37.4949 46.2172 37.4949 46.7C37.4949 47.1811 37.8769 47.6795 38.5456 48.0651C40.1452 48.9891 42.8493 48.9891 44.4472 48.0651C45.1158 47.6795 45.498 47.1811 45.498 46.7C45.498 46.2172 45.1158 45.7187 44.4472 45.3331C43.6483 44.8711 42.5715 44.6401 41.4964 44.6401ZM41.4964 49.9356C40.2234 49.9356 38.952 49.6508 37.9603 49.0776C36.906 48.468 36.3242 47.624 36.3242 46.7C36.3242 45.7743 36.906 44.9302 37.9603 44.3206C39.9419 43.1761 43.0473 43.1761 45.0325 44.3206C46.0867 44.9302 46.6668 45.7743 46.6668 46.7C46.6668 47.624 46.0867 48.468 45.0325 49.0776C44.0408 49.649 42.7677 49.9356 41.4964 49.9356Z" fill="#1A162C"/>
<path d="M49.4613 48.136C48.3845 48.136 47.3093 48.367 46.5104 48.829C45.8418 49.2146 45.4597 49.713 45.4597 50.1959C45.4597 50.677 45.8418 51.1754 46.5104 51.561C48.11 52.4849 50.8142 52.4849 52.412 51.561C53.0807 51.1754 53.4628 50.677 53.4628 50.1959C53.4628 49.713 53.0807 49.2146 52.412 48.829C51.6131 48.367 50.5363 48.136 49.4613 48.136ZM49.4613 53.4315C48.1882 53.4315 46.9168 53.1467 45.9251 52.5735C44.8709 51.9639 44.2891 51.1198 44.2891 50.1959C44.2891 49.2702 44.8709 48.4261 45.9251 47.8165C47.9068 46.6719 51.0122 46.6719 52.9973 47.8165C54.0516 48.4261 54.6317 49.2702 54.6317 50.1959C54.6317 51.1198 54.0516 51.9639 52.9973 52.5735C52.0056 53.1449 50.7326 53.4315 49.4613 53.4315Z" fill="#1A162C"/>
<path d="M38.3047 19.5592L26.9531 19.3872L28.4294 26.093C28.4294 26.093 28.9626 27.109 29.6504 27.5067C31.349 28.4863 34.1017 28.4863 35.8003 27.5067C36.4881 27.109 37.0213 26.093 37.0213 26.093L38.3047 19.5592Z" fill="#EF4BA2"/>
<path d="M28.9826 25.8864C29.1407 26.1677 29.5367 26.7652 29.9431 26.9997C31.4489 27.8698 33.9985 27.8715 35.506 26.9997C35.9089 26.7687 36.3084 26.166 36.4647 25.8916L37.5954 20.1324L27.6835 19.983L28.9826 25.8864ZM32.7254 28.8302C31.5132 28.8302 30.3009 28.5575 29.3578 28.0122C28.5467 27.5432 27.9735 26.4838 27.911 26.364L27.859 26.2181L26.2246 18.7916L39.0126 18.9844L37.5381 26.3657C37.4755 26.4838 36.9024 27.5432 36.0913 28.0122C35.1465 28.5575 33.936 28.8302 32.7254 28.8302Z" fill="#1A162C"/>
<path d="M39.4532 17.3274L39.4619 13.8226C39.4619 13.7115 39.3715 13.6212 39.2621 13.6212H34.3331C33.2754 13.4718 32.1778 13.4718 31.1218 13.6212H26.1997C26.0886 13.6212 26 13.7115 26 13.8226L26.0018 17.3274C25.9653 18.7169 27.1983 20.115 29.7427 20.881C31.6793 21.4628 33.7756 21.4628 35.7104 20.881C38.2565 20.1168 39.4879 18.7169 39.4532 17.3274Z" fill="white"/>
<path d="M26.5849 14.2047L26.5867 17.3257C26.5571 18.5536 27.8302 19.6964 29.9126 20.3216C31.7293 20.8687 33.7301 20.867 35.545 20.3216C37.6274 19.6964 38.9005 18.5536 38.871 17.3413L38.8692 17.3239L38.8779 14.2047H34.3344C33.2542 14.0588 32.1999 14.0588 31.2047 14.1995L26.5849 14.2047ZM32.7279 21.8987C31.6598 21.8987 30.5917 21.7476 29.5757 21.4402C26.9271 20.6447 25.3726 19.1007 25.4195 17.3118L25.416 13.8226C25.416 13.3884 25.7686 13.0376 26.201 13.0376H31.1232C32.1461 12.8865 33.3132 12.8865 34.4161 13.0428L39.2634 13.0376C39.6959 13.0376 40.0485 13.3884 40.0485 13.8226L40.0398 17.3205C40.078 19.1059 38.5253 20.6464 35.8819 21.4402C34.8642 21.7476 33.796 21.8987 32.7279 21.8987Z" fill="#1A162C"/>
<path d="M37.4869 10.7468C40.1181 12.2647 40.1181 14.7257 37.4869 16.2454C34.8574 17.7634 30.5936 17.7634 27.9624 16.2454C25.3329 14.7257 25.3329 12.2647 27.9624 10.7468C30.5936 9.22707 34.8574 9.22707 37.4869 10.7468Z" fill="#EF4BA2"/>
<path d="M32.7269 10.1858C31.1065 10.1858 29.4877 10.5401 28.2563 11.2522C27.1709 11.8774 26.5751 12.6746 26.5751 13.4944C26.5751 14.3159 27.1709 15.113 28.2563 15.74C30.7191 17.1625 34.7311 17.1625 37.1956 15.74C38.2811 15.113 38.8768 14.3159 38.8768 13.4944C38.8768 12.6746 38.2811 11.8774 37.1956 11.2522C35.9642 10.5401 34.3456 10.1858 32.7269 10.1858ZM32.7269 17.9787C30.9067 17.9787 29.0882 17.5689 27.671 16.7509C26.2104 15.9068 25.4062 14.7518 25.4062 13.4944C25.4062 12.2387 26.2104 11.0837 27.671 10.2396C30.5055 8.60532 34.9447 8.60358 37.7809 10.2396C39.2415 11.0837 40.0456 12.2387 40.0456 13.4944C40.0456 14.7518 39.2415 15.9068 37.7809 16.7509C36.3636 17.5689 34.5436 17.9787 32.7269 17.9787Z" fill="#1A162C"/>
<path d="M37.5027 13.9529C34.8732 12.4332 30.6077 12.4332 27.9782 13.9529C27.4155 14.2776 26.9795 14.6476 26.6582 15.0384C26.9865 15.476 27.4536 15.8876 28.0737 16.2454C30.7032 17.7634 34.967 17.7634 37.5983 16.2454C38.161 15.9206 38.5952 15.5507 38.9165 15.1582C38.59 14.7205 38.121 14.3106 37.5027 13.9529Z" fill="#1A162C"/>
<path d="M27.4442 15.054C27.696 15.3024 28.0034 15.5316 28.363 15.74C30.8275 17.1625 34.8377 17.1625 37.3039 15.74C37.6166 15.5594 37.8909 15.3579 38.1271 15.1426C37.8753 14.8942 37.5662 14.6649 37.2067 14.4583C34.7422 13.0358 30.7336 13.0358 28.2674 14.4583C27.953 14.6389 27.6786 14.8386 27.4442 15.054ZM32.8334 17.9787C31.0132 17.9787 29.1966 17.5689 27.7776 16.7509C27.1107 16.3653 26.5758 15.9085 26.1885 15.3892L25.9141 15.0227L26.2041 14.6702C26.5827 14.2065 27.0794 13.7948 27.6838 13.4457C30.5165 11.8114 34.9575 11.8097 37.792 13.4457C38.4589 13.8313 38.9955 14.2898 39.3828 14.8074L39.6572 15.1738L39.3672 15.5281C38.9851 15.9936 38.4867 16.4052 37.8875 16.7509C36.4703 17.5689 34.6518 17.9787 32.8334 17.9787Z" fill="#1A162C"/>
<path d="M50.0388 136.167L48.922 136.812C48.8073 136.878 48.6076 136.869 48.4756 136.793L47.4214 136.185C47.2894 136.108 47.2755 135.994 47.3902 135.928L48.5069 135.282C48.6215 135.216 48.8213 135.224 48.9533 135.301L50.0057 135.909C50.1394 135.985 50.1534 136.101 50.0388 136.167Z" fill="#1A162C"/>
<path d="M52.7907 137.755L51.6739 138.399C51.5593 138.465 51.3578 138.458 51.2258 138.382L50.1734 137.774C50.0414 137.697 50.0274 137.581 50.1421 137.515L51.2589 136.871C51.3735 136.805 51.5732 136.813 51.7052 136.89L52.7577 137.498C52.8897 137.574 52.9053 137.689 52.7907 137.755Z" fill="#1A162C"/>
<path d="M50.0524 139.335L48.9356 139.981C48.821 140.047 48.6212 140.039 48.4875 139.962L47.4351 139.354C47.3031 139.278 47.2892 139.163 47.4038 139.097L48.5206 138.451C48.6352 138.385 48.8349 138.394 48.9669 138.47L50.0194 139.078C50.1531 139.155 50.167 139.269 50.0524 139.335Z" fill="#1A162C"/>
<path d="M55.3896 139.255L54.2728 139.901C54.1581 139.967 53.9584 139.959 53.8264 139.882L52.7739 139.274C52.6419 139.198 52.6263 139.082 52.7409 139.016L53.8577 138.371C53.9724 138.305 54.1738 138.314 54.3058 138.39L55.3583 138.998C55.4903 139.075 55.5042 139.189 55.3896 139.255Z" fill="#1A162C"/>
<path d="M52.651 140.838L51.5325 141.482C51.4179 141.548 51.2182 141.539 51.0862 141.463L50.0337 140.855C49.9017 140.778 49.8861 140.664 50.0007 140.598L51.1192 139.952C51.2338 139.886 51.4335 139.894 51.5655 139.971L52.618 140.579C52.75 140.655 52.7656 140.77 52.651 140.838Z" fill="#1A162C"/>
<path d="M57.988 140.756L56.8712 141.402C56.7566 141.468 56.5569 141.459 56.4249 141.383L55.3706 140.775C55.2386 140.699 55.2247 140.582 55.3394 140.516L56.4561 139.872C56.5707 139.806 56.7705 139.815 56.9025 139.891L57.9567 140.499C58.0887 140.575 58.1026 140.69 57.988 140.756Z" fill="#1A162C"/>
<path d="M55.2495 142.338L54.1327 142.982C54.0181 143.048 53.8184 143.04 53.6864 142.963L52.6339 142.356C52.5002 142.279 52.4863 142.164 52.6009 142.098L53.7176 141.452C53.8322 141.386 54.032 141.395 54.1657 141.471L55.2182 142.079C55.3502 142.156 55.3641 142.272 55.2495 142.338Z" fill="#1A162C"/>
<path d="M45.4762 124.409L44.3594 125.055C44.2448 125.121 44.0451 125.113 43.9114 125.036L42.8589 124.428C42.7269 124.352 42.713 124.237 42.8276 124.171L43.9444 123.525C44.059 123.459 44.2587 123.468 44.3907 123.544L45.4432 124.152C45.577 124.229 45.5908 124.343 45.4762 124.409Z" fill="#1A162C"/>
<path d="M48.0749 125.912L46.9564 126.556C46.8418 126.622 46.642 126.613 46.51 126.537L45.4575 125.929C45.3255 125.853 45.3099 125.738 45.4245 125.672L46.543 125.026C46.6577 124.96 46.8574 124.969 46.9894 125.045L48.0419 125.653C48.1739 125.729 48.1878 125.846 48.0749 125.912Z" fill="#1A162C"/>
<path d="M45.3356 127.492L44.2171 128.136C44.1043 128.202 43.9027 128.195 43.7707 128.119L42.7182 127.511C42.5862 127.435 42.5724 127.318 42.687 127.252L43.8037 126.608C43.9184 126.542 44.1181 126.549 44.2501 126.625L45.3026 127.233C45.4346 127.31 45.4503 127.426 45.3356 127.492Z" fill="#1A162C"/>
<path d="M47.9345 128.993L46.8177 129.637C46.7031 129.703 46.5034 129.696 46.3714 129.62L45.3189 129.012C45.1869 128.935 45.1712 128.819 45.2859 128.753L46.4026 128.109C46.5172 128.043 46.7169 128.051 46.8507 128.128L47.9032 128.736C48.0352 128.812 48.0491 128.927 47.9345 128.993Z" fill="#1A162C"/>
<path d="M60.738 142.345L59.6212 142.989C59.5066 143.055 59.3068 143.047 59.1731 142.97L58.1206 142.362C57.9886 142.286 57.9747 142.171 58.0894 142.105L59.2061 141.459C59.3207 141.393 59.5205 141.402 59.6525 141.478L60.705 142.086C60.8387 142.163 60.8526 142.279 60.738 142.345Z" fill="#1A162C"/>
<path d="M57.9997 143.926L56.8829 144.57C56.7682 144.636 56.5685 144.629 56.4365 144.553L55.3823 143.945C55.2503 143.868 55.2364 143.752 55.3511 143.686L56.4678 143.042C56.5825 142.976 56.7822 142.984 56.9142 143.061L57.9684 143.669C58.1004 143.745 58.1143 143.86 57.9997 143.926Z" fill="#1A162C"/>
<path d="M63.4782 140.763L62.3614 141.409C62.2468 141.475 62.0453 141.466 61.9133 141.39L60.8608 140.782C60.7288 140.706 60.715 140.589 60.8296 140.523L61.9463 139.879C62.0609 139.813 62.2607 139.822 62.3927 139.898L63.4452 140.506C63.5772 140.582 63.5928 140.697 63.4782 140.763Z" fill="#1A162C"/>
<path d="M66.2187 139.182L65.1003 139.827C64.9856 139.893 64.7859 139.886 64.6539 139.809L63.6014 139.201C63.4694 139.125 63.4555 139.009 63.5684 138.943L64.6868 138.298C64.8015 138.232 65.0013 138.239 65.1333 138.316L66.1858 138.924C66.3178 139 66.3334 139.116 66.2187 139.182Z" fill="#1A162C"/>
<path d="M68.954 137.6L67.8373 138.246C67.7227 138.312 67.5229 138.304 67.3909 138.227L66.3384 137.619C66.2064 137.543 66.1908 137.428 66.3054 137.362L67.4239 136.716C67.5368 136.65 67.7383 136.659 67.8703 136.735L68.9228 137.343C69.0548 137.42 69.0686 137.534 68.954 137.6Z" fill="#1A162C"/>
<path d="M71.6929 136.02L70.5762 136.664C70.4615 136.73 70.2618 136.723 70.1298 136.647L69.0773 136.039C68.9435 135.962 68.9296 135.846 69.0443 135.78L70.1611 135.136C70.2757 135.07 70.4754 135.078 70.6092 135.155L71.6617 135.763C71.7937 135.839 71.8075 135.954 71.6929 136.02Z" fill="#1A162C"/>
<path d="M63.3385 143.846L62.22 144.49C62.1054 144.556 61.9057 144.547 61.7737 144.471L60.7212 143.863C60.5892 143.787 60.5736 143.672 60.6882 143.606L61.8067 142.962C61.9213 142.894 62.121 142.903 62.253 142.979L63.3055 143.587C63.4375 143.663 63.4514 143.78 63.3385 143.846Z" fill="#1A162C"/>
<path d="M66.0771 142.263L64.9603 142.909C64.8456 142.975 64.6459 142.967 64.5139 142.89L63.4614 142.283C63.3294 142.206 63.3138 142.091 63.4284 142.025L64.5452 141.379C64.6599 141.313 64.8613 141.322 64.9933 141.398L66.0458 142.006C66.1778 142.083 66.1917 142.197 66.0771 142.263Z" fill="#1A162C"/>
<path d="M68.8159 140.683L67.6991 141.327C67.5845 141.393 67.3848 141.386 67.2528 141.31L66.2003 140.702C66.0666 140.626 66.0527 140.509 66.1673 140.443L67.284 139.799C67.3986 139.733 67.5984 139.74 67.7321 139.816L68.7846 140.424C68.9166 140.501 68.9305 140.617 68.8159 140.683Z" fill="#1A162C"/>
<path d="M71.5524 139.102L70.4356 139.747C70.321 139.813 70.1213 139.804 69.9893 139.728L68.935 139.12C68.803 139.043 68.7892 138.929 68.9038 138.863L70.0205 138.217C70.1352 138.151 70.3349 138.159 70.4669 138.236L71.5211 138.844C71.6531 138.92 71.6671 139.035 71.5524 139.102Z" fill="#1A162C"/>
<path d="M73.7594 127.053L72.6427 127.697C72.5281 127.763 72.3266 127.754 72.1946 127.678L71.1421 127.07C71.0101 126.994 70.9962 126.879 71.1108 126.813L72.2276 126.167C72.3422 126.101 72.5419 126.11 72.6739 126.186L73.7264 126.794C73.8584 126.87 73.874 126.985 73.7594 127.053Z" fill="#1A162C"/>
<path d="M76.498 125.47L75.3795 126.115C75.2649 126.183 75.0652 126.174 74.9332 126.097L73.8807 125.49C73.7487 125.413 73.7348 125.297 73.8477 125.231L74.9661 124.586C75.0808 124.52 75.2805 124.529 75.4125 124.605L76.465 125.213C76.597 125.29 76.6126 125.404 76.498 125.47Z" fill="#1A162C"/>
<path d="M79.2353 123.89L78.1185 124.534C78.0038 124.6 77.8041 124.592 77.6721 124.515L76.6196 123.907C76.4876 123.831 76.472 123.716 76.5867 123.65L77.7051 123.006C77.818 122.938 78.0195 122.947 78.1515 123.023L79.204 123.631C79.336 123.708 79.3499 123.824 79.2353 123.89Z" fill="#1A162C"/>
<path d="M81.9741 122.308L80.8573 122.954C80.7427 123.02 80.543 123.011 80.411 122.935L79.3585 122.327C79.2248 122.25 79.2109 122.136 79.3255 122.068L80.4422 121.424C80.5568 121.358 80.7566 121.366 80.8903 121.443L81.9428 122.051C82.0748 122.127 82.0887 122.242 81.9741 122.308Z" fill="#1A162C"/>
<path d="M73.6198 130.134L72.5013 130.778C72.3867 130.844 72.187 130.837 72.055 130.761L71.0025 130.153C70.8705 130.076 70.8548 129.96 70.9695 129.894L72.0879 129.25C72.2026 129.184 72.4023 129.192 72.5343 129.267L73.5868 129.877C73.7188 129.951 73.7327 130.068 73.6198 130.134Z" fill="#1A162C"/>
<path d="M76.3583 128.553L75.2416 129.198C75.1269 129.264 74.9272 129.255 74.7952 129.178L73.7427 128.571C73.6107 128.494 73.595 128.38 73.7097 128.314L74.8264 127.667C74.9411 127.601 75.1426 127.61 75.2746 127.687L76.3271 128.294C76.4591 128.371 76.4729 128.487 76.3583 128.553Z" fill="#1A162C"/>
<path d="M79.0952 126.971L77.9785 127.617C77.8638 127.683 77.6641 127.674 77.5321 127.598L76.4796 126.99C76.3459 126.914 76.3319 126.797 76.4466 126.731L77.5634 126.087C77.678 126.021 77.8777 126.03 78.0115 126.106L79.064 126.714C79.196 126.79 79.2098 126.905 79.0952 126.971Z" fill="#1A162C"/>
<path d="M81.8356 125.391L80.7189 126.035C80.6043 126.101 80.4045 126.092 80.2725 126.018L79.2183 125.41C79.0863 125.333 79.0724 125.217 79.187 125.151L80.3038 124.507C80.4184 124.441 80.6181 124.447 80.7501 124.524L81.8044 125.132C81.9364 125.208 81.9502 125.325 81.8356 125.391Z" fill="#1A162C"/>
<path d="M84.7799 120.748L83.6614 121.394C83.5468 121.46 83.3471 121.452 83.2151 121.375L82.1626 120.767C82.0306 120.691 82.015 120.576 82.1296 120.508L83.2481 119.864C83.3627 119.798 83.5624 119.807 83.6944 119.883L84.7469 120.491C84.8789 120.568 84.8928 120.682 84.7799 120.748Z" fill="#1A162C"/>
<path d="M84.6401 123.831L83.5233 124.475C83.4087 124.541 83.209 124.533 83.077 124.456L82.0245 123.848C81.8908 123.774 81.8769 123.657 81.9915 123.591L83.1083 122.947C83.2229 122.881 83.4227 122.888 83.5564 122.964L84.6088 123.572C84.7408 123.649 84.7548 123.765 84.6401 123.831Z" fill="#1A162C"/>
<path d="M88.904 105.258L87.7872 105.904C87.6726 105.97 87.4729 105.961 87.3409 105.885L86.2866 105.277C86.1546 105.2 86.1408 105.086 86.2554 105.02L87.3721 104.374C87.4867 104.308 87.6865 104.316 87.8185 104.393L88.8727 105.001C89.0047 105.077 89.0186 105.192 88.904 105.258Z" fill="#1A162C"/>
<path d="M91.6403 103.677L90.5236 104.322C90.4089 104.388 90.2092 104.381 90.0772 104.304L89.023 103.696C88.891 103.62 88.877 103.504 88.9917 103.438L90.1085 102.793C90.2231 102.727 90.4228 102.736 90.5548 102.811L91.6091 103.418C91.7411 103.495 91.7549 103.611 91.6403 103.677Z" fill="#1A162C"/>
<path d="M94.3805 102.097L93.2638 102.741C93.1492 102.807 92.9494 102.798 92.8157 102.722L91.7632 102.114C91.6312 102.038 91.6173 101.923 91.7319 101.857L92.8487 101.211C92.9633 101.145 93.163 101.154 93.295 101.23L94.3475 101.838C94.4795 101.914 94.4951 102.031 94.3805 102.097Z" fill="#1A162C"/>
<path d="M97.1188 100.515L96.0003 101.161C95.8874 101.227 95.686 101.218 95.554 101.141L94.5015 100.534C94.3695 100.457 94.3556 100.341 94.4702 100.275L95.587 99.6305C95.7016 99.5645 95.9013 99.5732 96.0333 99.6496L97.0858 100.257C97.2178 100.334 97.2334 100.449 97.1188 100.515Z" fill="#1A162C"/>
<path d="M88.7633 108.34L87.6465 108.985C87.5319 109.051 87.3323 109.044 87.1985 108.967L86.146 108.36C86.014 108.283 86.0001 108.167 86.1147 108.101L87.2315 107.456C87.3461 107.39 87.5458 107.397 87.6778 107.474L88.7303 108.082C88.8641 108.158 88.878 108.274 88.7633 108.34Z" fill="#1A162C"/>
<path d="M91.5036 106.76L90.3868 107.404C90.2721 107.47 90.0707 107.462 89.9388 107.385L88.8863 106.777C88.7543 106.701 88.7403 106.586 88.855 106.52L89.9717 105.874C90.0864 105.808 90.2861 105.817 90.4181 105.893L91.4706 106.501C91.6026 106.578 91.6182 106.692 91.5036 106.76Z" fill="#1A162C"/>
<path d="M94.2421 105.178L93.1236 105.822C93.0107 105.89 92.8093 105.881 92.6773 105.805L91.6248 105.197C91.4928 105.121 91.4789 105.004 91.5918 104.938L92.7103 104.294C92.8249 104.228 93.0246 104.236 93.1566 104.313L94.2091 104.921C94.3411 104.997 94.3567 105.112 94.2421 105.178Z" fill="#1A162C"/>
<path d="M96.9774 103.597L95.8607 104.242C95.746 104.308 95.5463 104.299 95.4143 104.223L94.3618 103.615C94.2298 103.538 94.2142 103.424 94.3288 103.358L95.4473 102.713C95.5602 102.646 95.7616 102.654 95.8936 102.731L96.9461 103.339C97.0781 103.415 97.0921 103.531 96.9774 103.597Z" fill="#1A162C"/>
<path d="M99.9215 98.9549L98.8047 99.601C98.6901 99.667 98.4905 99.6583 98.3567 99.5819L97.3042 98.974C97.1722 98.8976 97.1583 98.7812 97.2729 98.7152L98.3897 98.0708C98.5043 98.0048 98.704 98.0135 98.836 98.09L99.8885 98.6978C100.022 98.7743 100.036 98.8889 99.9215 98.9549Z" fill="#1A162C"/>
<path d="M99.7848 102.038L98.6664 102.682C98.5535 102.748 98.352 102.739 98.22 102.663L97.1675 102.055C97.0355 101.979 97.0216 101.864 97.1362 101.798L98.2529 101.152C98.3676 101.086 98.5674 101.095 98.6994 101.171L99.7519 101.779C99.8839 101.855 99.8995 101.972 99.7848 102.038Z" fill="#1A162C"/>
<path d="M97.8696 96.018L70.5881 111.703L53.4824 101.935L80.8004 86.1635L97.8696 96.018Z" fill="white"/>
<path d="M54.657 101.934L70.5868 111.031L96.6994 96.018L80.8008 86.8391L54.657 101.934ZM70.5885 112.377L52.3105 101.939L80.8008 85.4896L99.0389 96.0197L70.5885 112.377Z" fill="#1A162C"/>
<path d="M84.4237 116.09C84.4237 116.069 84.4272 71.4963 84.4272 70.9683C84.4272 70.9127 84.3907 70.8693 84.3386 70.8554L62.3422 76.5486C62.3317 76.5469 62.3231 76.5417 62.3126 76.5365L68.5893 64.1896C68.5511 64.1671 68.5042 64.1671 68.466 64.1896L47.6124 76.1995C47.5847 76.2169 47.5499 76.2204 47.5187 76.2117L44.9847 75.5065C44.9065 75.484 44.8284 75.5396 44.8301 75.6212C44.8318 76.269 44.8336 120.541 44.8405 120.614L44.844 120.635C44.8874 121.061 45.1097 121.469 45.5318 121.716L58.8894 129.462C60.027 130.123 61.4303 130.125 62.5697 129.467L83.7168 117.287C84.1718 117.024 84.4029 116.573 84.4202 116.113L84.4237 116.09Z" fill="#EF4BA2"/>
<path d="M45.4149 76.2325C45.4167 77.7591 45.4167 81.9709 45.4167 87.2246C45.4185 100.386 45.4219 120.276 45.4254 120.602C45.4427 120.734 45.5174 121.029 45.8266 121.21L59.1843 128.956C60.1377 129.51 61.3239 129.512 62.2792 128.96L83.4264 116.78C83.6764 116.637 83.8257 116.385 83.8379 116.09H83.8397L83.8449 71.5866L62.3469 77.153L62.0152 77.0384L61.548 76.757L67.229 65.5773L47.9056 76.7067C47.7475 76.7987 47.546 76.8247 47.3637 76.7744L45.4149 76.2325ZM60.7351 130.542C59.9953 130.542 59.2555 130.351 58.5972 129.967L45.2396 122.221C44.6873 121.9 44.3312 121.344 44.2635 120.696C44.2548 120.616 44.2531 120.594 44.2479 87.2246C44.2479 80.7325 44.2461 75.8348 44.2461 75.6229C44.2461 75.3988 44.3468 75.1956 44.524 75.0619C44.6977 74.9282 44.9269 74.8848 45.1405 74.9421L47.4904 75.5968L68.1756 63.6825C68.3979 63.5574 68.6671 63.5574 68.8842 63.6842L69.3618 63.9621L63.4116 75.6698L84.3451 70.2493L84.4945 70.291C84.8001 70.3761 85.0137 70.6539 85.0137 70.9683L84.9998 116.201C84.9772 116.83 84.6056 117.448 84.0099 117.792L62.8627 129.972C62.2062 130.353 61.4715 130.542 60.7351 130.542Z" fill="#1A162C"/>
<path d="M84.3391 70.8606L62.3427 76.5538C62.3323 76.5521 62.3236 76.5469 62.3132 76.5417L60.6285 81.4498L60.625 129.957C61.2954 129.977 61.9693 129.819 62.5702 129.472L83.7173 117.292C84.1724 117.03 84.4034 116.578 84.4208 116.118L84.4243 116.095C84.4243 116.076 84.4277 71.5015 84.4277 70.9735C84.4277 70.918 84.3912 70.8745 84.3391 70.8606Z" fill="#1A162C"/>
<path d="M61.2132 81.5471L61.2097 129.338C61.5866 129.283 61.9496 129.156 62.2778 128.965L83.425 116.785C83.6751 116.642 83.8244 116.391 83.8365 116.095L83.8435 71.5918L62.7572 77.0506L61.2132 81.5471ZM60.7373 130.544C60.6938 130.544 60.6504 130.542 60.607 130.542L60.0391 130.525L60.0755 81.2588L61.9947 75.6698L62.4271 75.9286L84.3437 70.2545L84.4931 70.2962C84.7988 70.3813 85.0123 70.6592 85.0123 70.9735L84.9984 116.206C84.9759 116.835 84.6042 117.453 84.0085 117.797L62.8613 129.977C62.2205 130.349 61.4875 130.544 60.7373 130.544Z" fill="#1A162C"/>
<path d="M46.883 77.3215C46.883 77.3215 47.081 76.7848 47.3276 76.0936L44.9847 75.4405C44.9065 75.418 44.8284 75.4735 44.8301 75.5552C44.8318 76.203 44.8336 120.475 44.8405 120.548L44.844 120.569C44.8874 120.995 45.1097 121.405 45.5318 121.65L46.8778 122.433L46.883 80.5762V77.3215Z" fill="#1A162C"/>
<path d="M45.4149 76.1665C45.4167 77.6931 45.4167 81.9049 45.4167 87.1604C45.4185 100.322 45.4219 120.211 45.4254 120.536C45.4427 120.668 45.5174 120.964 45.8266 121.144L46.2956 121.417L46.299 77.2173L46.3355 77.1183C46.3355 77.1166 46.4293 76.8665 46.5665 76.4878L45.4149 76.1665ZM47.4626 123.447L45.2396 122.155C44.6873 121.834 44.3312 121.278 44.2635 120.632C44.2548 120.552 44.2531 120.529 44.2479 87.1604C44.2479 80.6683 44.2461 75.7688 44.2461 75.5569C44.2461 75.3329 44.3486 75.1297 44.524 74.9942C44.6994 74.8622 44.9321 74.817 45.144 74.8778L48.0897 75.6993L47.8794 76.2898C47.6936 76.8074 47.5374 77.2381 47.4679 77.4257L47.4626 123.447Z" fill="#1A162C"/>
<path d="M58.9545 84.3867L45.5343 76.6042C44.5913 76.0536 44.593 74.6902 45.5378 74.1431L66.7475 61.9283C67.8486 61.2909 69.2051 61.2926 70.3044 61.9318L83.7246 69.7143C84.6677 70.2649 84.6659 71.6283 83.7211 72.1753L62.5114 84.3902C61.4103 85.0276 60.0539 85.0259 58.9545 84.3867Z" fill="white"/>
<path d="M68.5247 62.0378C68.0106 62.0378 67.4982 62.1697 67.0414 62.4337L45.8319 74.6503C45.5713 74.7997 45.415 75.0706 45.415 75.3728C45.4132 75.675 45.5696 75.9459 45.8319 76.0988L59.2502 83.8813C60.1655 84.4128 61.3048 84.4145 62.2219 83.8848L83.4315 71.6682C83.6921 71.5189 83.8483 71.2479 83.8483 70.944C83.8483 70.6435 83.6938 70.3726 83.4315 70.2197L70.0131 62.4389C69.5546 62.1715 69.0388 62.0378 68.5247 62.0378ZM60.7404 85.4496C60.0214 85.4496 59.3041 85.2638 58.6632 84.8921L45.2448 77.1096C44.6178 76.7449 44.2444 76.0953 44.2461 75.3728C44.2461 74.6486 44.6212 73.999 45.2482 73.636L66.4579 61.4212C67.7344 60.6831 69.3236 60.6848 70.6002 61.4264L84.0185 69.2089C84.6455 69.5736 85.0189 70.2215 85.0172 70.9457C85.0172 71.67 84.6421 72.3195 84.0151 72.6808L62.8055 84.8973C62.1681 85.2655 61.4542 85.4496 60.7404 85.4496Z" fill="#1A162C"/>
<path d="M84.4288 62.5258C84.4306 62.5066 84.4288 59.7886 84.4288 59.2606C84.4288 59.205 84.3924 59.1616 84.3403 59.1477L62.3438 64.8409C62.3334 64.8392 62.3247 64.8357 62.3143 64.8305L68.5911 52.4819C68.5529 52.4594 68.506 52.4594 68.4678 52.4819L47.6141 64.4918C47.5863 64.5092 47.5517 64.5127 47.5204 64.504L44.9864 63.7988C44.9082 63.7763 44.8301 63.8318 44.8301 63.9134C44.8336 64.5613 44.8405 66.9789 44.8457 67.0501L44.8492 67.0727C44.8943 67.4965 45.1166 67.9063 45.5369 68.1512L58.8946 75.8973C60.0322 76.559 61.4373 76.5608 62.5766 75.9025L83.7237 63.7224C84.177 63.4602 84.408 63.0086 84.4271 62.5501L84.4288 62.5258Z" fill="#EF4BA2"/>
<path d="M45.4186 64.5248C45.4221 65.4453 45.4256 66.8799 45.4325 67.0189C45.4481 67.1717 45.5229 67.4652 45.832 67.6458L59.1896 75.3919C60.1448 75.9477 61.3294 75.9477 62.2846 75.3971L83.4335 63.217C83.6818 63.0729 83.8312 62.821 83.8433 62.5258H83.8468V59.8789L62.3488 65.4453L62.0171 65.3307L61.5499 65.0511L67.231 53.8696L47.9074 64.999C47.7494 65.0927 47.5479 65.1171 47.3655 65.0667L45.4186 64.5248ZM60.7423 76.9776C60.0007 76.9776 59.2626 76.7866 58.6026 76.4027L45.2467 68.6566C44.6927 68.3353 44.3366 67.7796 44.2706 67.1317C44.2637 67.0657 44.2567 67.0015 44.248 63.9152C44.248 63.6912 44.3488 63.488 44.5259 63.3542C44.6996 63.2205 44.9289 63.1753 45.1425 63.2344L47.4923 63.8892L68.1775 51.9748C68.3998 51.8497 68.669 51.8515 68.8861 51.9765L69.3637 52.2544L63.4135 63.9621L84.347 58.5433L84.4963 58.5833C84.802 58.6684 85.0157 58.9463 85.0157 59.2606L85.0052 62.6387C84.9827 63.2657 84.6127 63.8857 84.017 64.2278L62.8681 76.4097C62.2134 76.7883 61.4769 76.9776 60.7423 76.9776Z" fill="#1A162C"/>
<path d="M84.3395 59.153L62.3431 64.8479C62.3326 64.8444 62.324 64.8409 62.3135 64.8357L60.6289 69.7421V76.3941C61.2993 76.4132 61.9749 76.2551 62.5758 75.9077L83.7229 63.7277C84.1762 63.4654 84.4073 63.0139 84.4264 62.5553L84.4281 62.5327C84.4298 62.5119 84.4281 59.7938 84.4281 59.2658C84.4281 59.2103 84.3916 59.1669 84.3395 59.153Z" fill="#1A162C"/>
<path d="M61.2157 69.8394V75.7757C61.5926 75.7184 61.9557 75.5917 62.2839 75.4023L83.4328 63.2222C83.6812 63.0781 83.8305 62.8262 83.8427 62.531L83.8461 59.8841L62.7598 65.3428L61.2157 69.8394ZM60.7451 76.9793C60.7016 76.9793 60.6583 76.9793 60.6131 76.9776L60.0469 76.9602L60.0782 69.5529L61.9973 63.9621L62.4298 64.2209L84.3463 58.5485L84.4956 58.5885C84.8013 58.6736 85.015 58.9515 85.015 59.2658L85.0046 62.6439C84.982 63.2709 84.612 63.8909 84.0163 64.2331L62.8675 76.4149C62.2266 76.7848 61.4954 76.9793 60.7451 76.9793Z" fill="#1A162C"/>
<path d="M46.8847 65.6138C46.8847 65.6138 47.0827 65.0772 47.3293 64.3859L44.9864 63.7329C44.9082 63.712 44.8301 63.7676 44.8301 63.8475C44.8336 64.4953 44.8405 66.9129 44.8457 66.9841L44.8492 67.0067C44.8943 67.4322 45.1166 67.8404 45.5369 68.0852L46.8847 68.8685V65.6138Z" fill="#1A162C"/>
<path d="M45.4186 64.4589C45.4221 65.3794 45.4256 66.8139 45.4325 66.9529C45.4481 67.1057 45.5228 67.3992 45.8337 67.5816L46.3009 67.8525L46.3374 65.4106C46.3374 65.4089 46.4312 65.1588 46.5684 64.7801L45.4186 64.4589ZM47.4698 69.8846L45.2449 68.5907C44.6926 68.2694 44.3366 67.7136 44.2706 67.0658C44.2637 66.9998 44.2567 66.9373 44.248 63.8492C44.248 63.6252 44.3505 63.422 44.5259 63.2865C44.7014 63.1545 44.9341 63.1094 45.146 63.1702L48.0915 63.9917L47.8814 64.5822C47.6956 65.0997 47.5375 65.5322 47.4698 65.718V69.8846Z" fill="#1A162C"/>
<path d="M58.9565 72.679L45.5363 64.8965C44.5932 64.3477 44.595 62.9825 45.5398 62.4354L66.7495 50.2206C67.8506 49.5832 69.207 49.585 70.3064 50.2259L83.7266 58.0066C84.6696 58.5572 84.6679 59.9206 83.7231 60.4677L62.5134 72.6825C61.4123 73.3199 60.0559 73.3182 58.9565 72.679Z" fill="white"/>
<path d="M68.5266 50.33C68.0125 50.33 67.5002 50.462 67.0434 50.726L45.8337 62.9426C45.5732 63.092 45.4169 63.3629 45.4169 63.6651C45.4152 63.969 45.5715 64.2382 45.8337 64.3911L59.2521 72.1736C60.1674 72.7051 61.3068 72.7068 62.2238 72.1771L83.4335 59.9623C83.694 59.8112 83.8503 59.5402 83.8503 59.238C83.8503 58.9358 83.6957 58.6649 83.4335 58.5121L70.015 50.7312C69.5565 50.4638 69.0407 50.33 68.5266 50.33ZM60.7423 73.7419C60.0233 73.7419 59.306 73.5561 58.6651 73.1844L45.2467 65.4019C44.6197 65.0372 44.2463 64.3876 44.2481 63.6651C44.2481 62.9409 44.6232 62.2913 45.2502 61.93L66.4598 49.7135C67.7363 48.9753 69.3238 48.9771 70.602 49.7204L84.0205 57.5012C84.6475 57.866 85.0209 58.5155 85.0192 59.2398C85.0192 59.9623 84.644 60.6118 84.017 60.9731L62.8073 73.1897C62.1699 73.5579 61.4561 73.7419 60.7423 73.7419Z" fill="#1A162C"/>
<path d="M62.1532 98.3105L61.7051 97.5325L82.3173 85.6042L82.7671 86.3823L62.1532 98.3105Z" fill="#EF4BA2"/>
<path d="M62.1532 109.881L61.7051 109.103L82.3173 97.1765L82.7671 97.9528L62.1532 109.881Z" fill="#EF4BA2"/>
<path d="M62.1532 121.452L61.7051 120.673L82.3173 108.747L82.7671 109.525L62.1532 121.452Z" fill="#EF4BA2"/>
<path d="M70.888 88.5603H69.9883V88.1243C69.9883 87.1483 70.6517 85.9985 71.4975 85.5105L74.167 83.9699C74.6481 83.692 75.1414 83.659 75.5252 83.8796C75.9056 84.1002 76.1244 84.5448 76.1244 85.1006V85.5365H75.2265V85.1006C75.2265 84.8817 75.1674 84.7133 75.0753 84.6594C74.9798 84.6039 74.8044 84.6386 74.6151 84.748L71.9474 86.2903C71.3725 86.6203 70.888 87.4609 70.888 88.1243V88.5603Z" fill="#EF4BA2"/>
<path d="M70.888 99.8563H69.9883V99.4204C69.9883 98.4425 70.6517 97.2945 71.4975 96.8065L74.167 95.266C74.6481 94.9881 75.1414 94.9551 75.5252 95.1757C75.9056 95.3962 76.1244 95.8409 76.1244 96.3966V96.8325H75.2265V96.3966C75.2265 96.1778 75.1674 96.0076 75.0753 95.9537C74.9798 95.8999 74.8044 95.9346 74.6151 96.0441L71.9474 97.5863C71.3725 97.9163 70.888 98.7569 70.888 99.4204V99.8563Z" fill="#EF4BA2"/>
<path d="M70.7512 111.68H69.8516V111.244C69.8516 110.267 70.5151 109.119 71.3609 108.631L74.0303 107.088C74.5114 106.81 75.0082 106.779 75.3885 107C75.7706 107.22 75.9894 107.665 75.9894 108.221V108.657H75.0897V108.221C75.0897 108.002 75.0324 107.832 74.9386 107.778C74.8448 107.724 74.6695 107.76 74.4802 107.868L71.8107 109.409C71.2358 109.74 70.7512 110.581 70.7512 111.244V111.68Z" fill="#EF4BA2"/>
<path d="M46.0801 58.4704L59.3491 66.114L72.5487 58.6666L59.4064 50.9206L46.0801 58.4704Z" fill="white"/>
<path d="M47.2591 58.4756L59.3524 65.4419L71.3796 58.6545L59.401 51.5945L47.2591 58.4756ZM59.3472 66.7861L44.9023 58.4669L59.4132 50.245L73.7191 58.6771L59.3472 66.7861Z" fill="#1A162C"/>
<path d="M60.6348 58.4895L68.4052 62.9652L76.1339 58.6042L68.4382 54.0676L60.6348 58.4895Z" fill="white"/>
<path d="M61.8138 58.4947L68.4084 62.2931L74.9666 58.5937L68.4328 54.7432L61.8138 58.4947ZM68.4033 63.6373L59.457 58.486L68.4467 53.3938L77.306 58.6145L68.4033 63.6373Z" fill="#1A162C"/>
<path d="M69.0117 126.084L50.0668 126.113C49.8515 126.113 49.6777 126.287 49.6777 126.502V131.289L49.6899 132.348C49.7316 132.927 50.164 133.526 50.9838 133.998L56.6857 137.291C58.2644 138.201 60.6525 138.3 62.0194 137.512L68.4872 133.778C69.1437 133.399 69.4354 132.883 69.3972 132.348H69.4025V126.474C69.4025 126.259 69.2271 126.084 69.0117 126.084Z" fill="#EF4BA2"/>
<path d="M50.2607 126.697L50.2728 132.341C50.3006 132.709 50.6653 133.142 51.2732 133.493L56.9751 136.784C58.3663 137.588 60.5424 137.689 61.7251 137.006L68.1913 133.272C68.4918 133.098 68.8426 132.805 68.8113 132.39L68.7661 131.765H68.8148V126.669L50.2607 126.697ZM59.6949 138.63C58.5486 138.63 57.3467 138.349 56.3915 137.796L50.6897 134.505C49.7275 133.949 49.1648 133.199 49.1057 132.392L49.0918 131.294V126.502C49.0918 125.965 49.5277 125.529 50.0644 125.529L69.0093 125.5C69.0093 125.5 69.0093 125.5 69.011 125.5C69.2698 125.5 69.5147 125.601 69.6988 125.785C69.8829 125.967 69.9853 126.214 69.9853 126.474V132.933H69.9159C69.7648 133.467 69.3722 133.941 68.7765 134.285L62.3088 138.017C61.5967 138.429 60.6657 138.63 59.6949 138.63Z" fill="#1A162C"/>
<path d="M69.0097 126.101L60.291 126.115V138.027C60.9371 137.965 61.5415 137.803 62.0174 137.529L68.4852 133.795C69.1417 133.416 69.4335 132.9 69.3952 132.365H69.4005V126.492C69.4005 126.276 69.2251 126.101 69.0097 126.101Z" fill="#1A162C"/>
<path d="M68.4875 127.542L62.0196 131.277C60.6528 132.065 58.2647 131.966 56.6859 131.056L50.9841 127.763C49.4053 126.853 49.2334 125.474 50.6002 124.684L57.0681 120.95C58.4349 120.161 60.823 120.26 62.4017 121.172L68.1036 124.463C69.6824 125.375 69.8543 126.754 68.4875 127.542Z" fill="white"/>
<path d="M59.3753 121.003C58.6111 121.003 57.8852 121.151 57.3589 121.457L50.8911 125.191C50.6028 125.356 50.259 125.635 50.259 126.021C50.259 126.429 50.6393 126.891 51.2732 127.258L56.9751 130.549C58.3663 131.353 60.5424 131.454 61.7251 130.771L68.1913 127.037C68.4796 126.87 68.8234 126.591 68.8234 126.205C68.8234 125.797 68.4448 125.335 67.8092 124.969L62.1073 121.677C61.3379 121.233 60.3253 121.003 59.3753 121.003ZM59.6949 132.395C58.5486 132.395 57.3467 132.114 56.3915 131.561L50.6897 128.27C49.6737 127.683 49.0918 126.863 49.0918 126.021C49.0918 125.285 49.5225 124.63 50.3058 124.178L56.7736 120.444C58.3263 119.548 60.9263 119.645 62.6926 120.665L68.3945 123.956C69.4105 124.543 69.9923 125.363 69.9923 126.205C69.9923 126.942 69.5598 127.596 68.7765 128.048L62.3088 131.782C61.5967 132.194 60.6657 132.395 59.6949 132.395Z" fill="#1A162C"/>
<path d="M67.7665 132.831H66.5977V129.785H67.7665V132.831Z" fill="#EF4BA2"/>
<path d="M58.1725 137.692H57.002V134.312H58.1725V137.692Z" fill="#1A162C"/>
<path d="M64.928 129.931L53.5625 123.306L54.1513 122.297L65.515 128.92L64.928 129.931Z" fill="#1A162C"/>
<path d="M69.161 52.2058C69.3764 52.105 74.4391 49.7031 74.361 46.3771C74.3262 44.9217 73.5342 44.3346 73.067 44.1158C72.2386 43.7268 71.1357 43.8727 70.3854 44.4684C69.7758 44.9529 69.5101 45.6355 69.6595 46.3424L70.8005 46.101C70.7293 45.7658 70.929 45.5243 71.1096 45.3819C71.5143 45.0624 72.1396 44.9703 72.5703 45.17C73.0688 45.4045 73.1852 45.9707 73.1956 46.4032C73.2459 48.5394 69.9443 50.5541 68.666 51.1498L69.161 52.2058Z" fill="#1A162C"/>
<path d="M67.5334 54.646C70.644 50.3596 70.9428 43.5567 70.9619 42.9783C70.9636 42.954 70.9445 42.9383 70.9202 42.9383H64.3794H57.8387C57.8144 42.9383 57.7952 42.954 57.797 42.9783C57.8161 43.5567 58.1149 50.3596 61.2254 54.646C61.3158 54.8562 61.4703 55.0594 61.6892 55.2452C61.6892 55.247 61.6908 55.247 61.6908 55.2487C61.6908 55.2487 61.9323 55.4328 62.0765 55.5179C63.3478 56.2508 65.4093 56.2508 66.6806 55.5179C66.8265 55.4328 66.9534 55.3425 67.0662 55.2487C67.0662 55.2487 67.0697 55.247 67.0697 55.2452C67.2886 55.0594 67.4431 54.8562 67.5334 54.646Z" fill="#EF4BA2"/>
<path d="M58.2556 43.3759C58.3563 44.9686 58.9052 50.7052 61.6267 54.4723C61.6927 54.6251 61.809 54.7745 61.9584 54.903C61.9619 54.9048 62.1703 55.0663 62.2953 55.1392C63.4242 55.7905 65.333 55.7905 66.4636 55.1392C66.5852 55.068 66.6912 54.9933 66.7867 54.9117C66.9482 54.7745 67.0646 54.6269 67.1341 54.4706L67.1792 54.3889C69.8747 50.674 70.4079 45.0189 70.5069 43.3759H58.2556ZM61.8576 55.8947C61.6961 55.8009 61.4252 55.596 61.4061 55.5786C61.1404 55.3528 60.9441 55.0975 60.8712 54.903C57.6998 50.5315 57.3854 43.7511 57.3594 42.9991L57.3612 42.7854L57.6512 42.5024H70.9202L71.4152 42.5406L71.3996 42.9939C71.3718 43.7528 71.047 50.5159 67.9138 54.8666C67.7905 55.1271 67.603 55.3667 67.3477 55.5838C67.2157 55.6932 67.0698 55.7975 66.8996 55.8965C66.1927 56.3046 65.2878 56.5078 64.3795 56.5078C63.4729 56.5078 62.5645 56.3046 61.8576 55.8947Z" fill="#1A162C"/>
<path d="M65.6309 42.9453C65.6309 42.9453 66.4037 50.8876 64.5957 56.0615C65.3547 56.032 66.0998 55.8583 66.6798 55.5231C66.8257 55.4397 66.9526 55.3494 67.0655 55.2539C67.0655 55.2539 67.0689 55.2522 67.0689 55.2504C67.2878 55.0663 67.4423 54.8631 67.5326 54.653C70.7839 50.1721 70.9628 42.9453 70.9628 42.9453H65.6309Z" fill="#1A162C"/>
<path d="M69.0334 40.2515C71.6038 41.7347 71.6038 44.1419 69.0334 45.6269C66.4612 47.1118 62.293 47.1118 59.7208 45.6269C57.1504 44.1419 57.1504 41.7347 59.7208 40.2515C62.293 38.7665 66.4612 38.7665 69.0334 40.2515Z" fill="white"/>
<path d="M68.817 40.6284C66.3699 39.2164 62.3891 39.2181 59.942 40.6284C58.8391 41.2658 58.233 42.0855 58.233 42.9383C58.233 43.7911 58.8391 44.6108 59.942 45.2482C62.3891 46.6602 66.3699 46.6602 68.817 45.2482C69.9181 44.6108 70.526 43.7911 70.526 42.9383C70.526 42.0855 69.9181 41.2658 68.817 40.6284ZM59.5061 46.0055C58.1219 45.2048 57.3594 44.1176 57.3594 42.9383C57.3594 41.7608 58.1219 40.6718 59.5061 39.8729C62.1947 38.3202 66.5661 38.3202 69.2547 39.8729C70.6389 40.6718 71.4013 41.7608 71.4013 42.9383C71.4013 44.1176 70.6389 45.2048 69.2547 46.0055C67.9104 46.7818 66.1458 47.1691 64.3795 47.1691C62.6149 47.1691 60.8504 46.7818 59.5061 46.0055Z" fill="#1A162C"/>
<path d="M67.584 41.0869C69.3573 42.1099 69.3573 43.7685 67.584 44.7915C65.8125 45.8145 62.9398 45.8145 61.1665 44.7915C59.395 43.7685 59.395 42.1099 61.1665 41.0869C62.9398 40.0622 65.8125 40.0622 67.584 41.0869Z" fill="#EF4BA2"/>
<path d="M67.3671 41.4638C65.7188 40.5137 63.0338 40.5137 61.3856 41.4638C60.67 41.8789 60.2757 42.4016 60.2757 42.9383C60.2757 43.475 60.67 43.9995 61.3856 44.4129C63.0338 45.3646 65.7171 45.3646 67.3671 44.4129C68.0826 43.9995 68.4769 43.4767 68.4769 42.9383C68.4769 42.4016 68.0826 41.8789 67.3671 41.4638ZM60.9496 45.1701C59.9509 44.5935 59.4004 43.8015 59.4004 42.9383C59.4004 42.0768 59.9509 41.2832 60.9496 40.7083C62.8705 39.5985 65.8821 39.5985 67.8047 40.7083C68.8016 41.2849 69.3505 42.0768 69.3505 42.9383C69.3505 43.8015 68.8016 44.5935 67.8047 45.1701C66.8426 45.7241 65.6094 46.002 64.3763 46.002C63.1432 46.002 61.91 45.7241 60.9496 45.1701Z" fill="#1A162C"/>
<path d="M61.1665 41.1025C59.395 42.1255 59.395 43.7841 61.1665 44.807C61.8873 45.2239 62.7922 45.4619 63.7283 45.5383C63.8759 43.6 64.1052 41.7694 64.3154 40.3383C63.1743 40.347 62.0384 40.6006 61.1665 41.1025Z" fill="#1A162C"/>
<path d="M62.5056 56.0597L63.2837 55.662C61.3455 51.8741 60.7602 45.9482 60.7549 45.8891L59.8848 45.9725C59.9091 46.2226 60.4927 52.1259 62.5056 56.0597Z" fill="#1A162C"/>
<path d="M65.4289 45.5904C65.6495 43.8779 66.1566 40.5016 66.1566 40.5016L65.2917 40.3713C65.2917 40.3713 64.7846 43.7598 64.5605 45.4775L65.4289 45.5904Z" fill="#1A162C"/>
<path d="M54.4457 60.6149C54.2043 60.6149 54.0149 60.825 54.0392 61.0647L55.2463 67.1383C55.2463 67.866 55.9567 68.5937 57.3808 68.9445C58.1641 69.139 58.996 69.139 59.781 68.9445C61.2035 68.5937 61.9156 67.866 61.9156 67.1383L63.1227 61.0647C63.147 60.825 62.9576 60.6149 62.7162 60.6149H54.4457Z" fill="#EF4BA2"/>
<path d="M54.6581 61.2002L55.8304 67.1366C55.8304 67.5482 56.3514 68.09 57.5185 68.3783C58.2132 68.5503 58.9462 68.5485 59.6409 68.3783C60.808 68.09 61.329 67.5482 61.329 67.1366L61.3412 67.0236L62.4997 61.2002H54.6581ZM58.5798 69.6757C58.1282 69.6757 57.6783 69.6202 57.2389 69.5125C55.655 69.1217 54.698 68.2602 54.6616 67.2008L53.4649 61.1794C53.4284 60.8442 53.5205 60.5645 53.708 60.3579C53.8956 60.1512 54.1648 60.0313 54.4445 60.0313H62.7133C62.9946 60.0313 63.2622 60.1512 63.4497 60.3579C63.639 60.5645 63.7311 60.8442 63.7033 61.1238L62.4979 67.2008C62.4614 68.2602 61.5028 69.1217 59.9188 69.5125C59.4812 69.6202 59.0296 69.6757 58.5798 69.6757Z" fill="#1A162C"/>
<path d="M61.8219 58.7444C63.6125 59.7777 63.6125 61.4538 61.8219 62.4871C60.0313 63.5223 57.1273 63.5223 55.335 62.4871C53.5443 61.4538 53.5443 59.7777 55.3367 58.7444C57.1273 57.7092 60.0313 57.7092 61.8219 58.7444Z" fill="#EF4BA2"/>
<path d="M48.918 26.0722L37.5664 25.9002L39.0427 32.6059C39.0427 32.6059 39.5759 33.622 40.2637 34.0197C41.9623 34.9993 44.715 34.9993 46.4136 34.0197C47.1014 33.622 47.6346 32.6059 47.6346 32.6059L48.918 26.0722Z" fill="#EF4BA2"/>
<path d="M58.5785 58.5567C57.5016 58.5567 56.4265 58.7877 55.6276 59.2497C54.9589 59.6353 54.5769 60.1338 54.5769 60.6166C54.5769 61.0977 54.9589 61.5961 55.6276 61.9817C57.2272 62.9057 59.9314 62.9057 61.5292 61.9817C62.1979 61.5961 62.58 61.0977 62.58 60.6166C62.58 60.1338 62.1979 59.6353 61.5292 59.2497C60.7303 58.7877 59.6535 58.5567 58.5785 58.5567ZM58.5785 63.8522C57.3054 63.8522 56.034 63.5674 55.0423 62.9942C53.9881 62.3846 53.4062 61.5406 53.4062 60.6166C53.4062 59.6909 53.9881 58.8468 55.0423 58.2372C57.024 57.0927 60.1294 57.0927 62.1145 58.2372C63.1688 58.8468 63.7489 59.6909 63.7489 60.6166C63.7489 61.5406 63.1688 62.3846 62.1145 62.9942C61.1228 63.5656 59.8498 63.8522 58.5785 63.8522Z" fill="#1A162C"/>
<path d="M39.5978 32.3993C39.7559 32.6807 40.1519 33.2782 40.5583 33.5126C42.0641 34.3828 44.6137 34.3845 46.1212 33.5126C46.5242 33.2816 46.9236 32.679 47.0799 32.4045L48.2106 26.6454L38.2987 26.496L39.5978 32.3993ZM43.3407 35.3432C42.1284 35.3432 40.9161 35.0705 39.973 34.5251C39.1619 34.0562 38.5888 32.9968 38.5263 32.8769L38.4742 32.7311L36.8398 25.3046L49.6278 25.4973L48.1533 32.8787C48.0908 32.9968 47.5176 34.0562 46.7065 34.5251C45.7617 35.0705 44.5512 35.3432 43.3407 35.3432Z" fill="#1A162C"/>
<path d="M50.0684 23.8404L50.0771 20.3356C50.0771 20.2244 49.9867 20.1341 49.8773 20.1341H44.9483C43.8906 19.9848 42.793 19.9848 41.7371 20.1341H36.8149C36.7038 20.1341 36.6152 20.2244 36.6152 20.3356L36.617 23.8404C36.5805 25.2299 37.8136 26.628 40.358 27.3939C42.2945 27.9757 44.3909 27.9757 46.3256 27.3939C48.8718 26.6297 50.1031 25.2299 50.0684 23.8404Z" fill="white"/>
<path d="M37.1982 20.7176L37.1999 23.8386C37.1704 25.0666 38.4435 26.2094 40.5259 26.8346C42.3425 27.3817 44.3434 27.38 46.1583 26.8346C48.2407 26.2094 49.5138 25.0666 49.4842 23.8543L49.4825 23.8369L49.4912 20.7176H44.9477C43.8674 20.5718 42.8132 20.5717 41.818 20.7124L37.1982 20.7176ZM43.3412 28.4116C42.2731 28.4116 41.205 28.2605 40.1889 27.9531C37.5403 27.1577 35.9859 25.6137 36.0328 23.8248L36.0293 20.3356C36.0293 19.9014 36.3819 19.5505 36.8143 19.5505H41.7364C42.7594 19.3994 43.9265 19.3994 45.0294 19.5557L49.8767 19.5505C50.3092 19.5505 50.6617 19.9014 50.6617 20.3356L50.6531 23.8335C50.6913 25.6189 49.1386 27.1594 46.4952 27.9531C45.4775 28.2605 44.4093 28.4116 43.3412 28.4116Z" fill="#1A162C"/>
<path d="M48.1021 17.2597C50.7333 18.7777 50.7333 21.2387 48.1021 22.7584C45.4726 24.2763 41.2088 24.2763 38.5776 22.7584C35.9481 21.2387 35.9481 18.7777 38.5776 17.2597C41.2088 15.74 45.4726 15.74 48.1021 17.2597Z" fill="#EF4BA2"/>
<path d="M43.3402 16.6987C41.7197 16.6987 40.101 17.053 38.8696 17.7651C37.7841 18.3903 37.1884 19.1875 37.1884 20.0073C37.1884 20.8288 37.7841 21.626 38.8696 22.253C41.3324 23.6754 45.3444 23.6754 47.8089 22.253C48.8944 21.626 49.4901 20.8288 49.4901 20.0073C49.4901 19.1875 48.8944 18.3903 47.8089 17.7651C46.5775 17.053 44.9588 16.6987 43.3402 16.6987ZM43.3402 24.4917C41.52 24.4917 39.7015 24.0818 38.2843 23.2638C36.8237 22.4197 36.0195 21.2647 36.0195 20.0073C36.0195 18.7516 36.8237 17.5967 38.2843 16.7526C41.1187 15.1183 45.558 15.1165 48.3941 16.7526C49.8548 17.5967 50.6589 18.7516 50.6589 20.0073C50.6589 21.2647 49.8548 22.4197 48.3941 23.2638C46.9769 24.0818 45.1568 24.4917 43.3402 24.4917Z" fill="#1A162C"/>
<path d="M48.116 20.4658C45.4865 18.9461 41.221 18.9461 38.5915 20.4658C38.0287 20.7906 37.5928 21.1605 37.2715 21.5513C37.5997 21.989 38.0669 22.4006 38.6869 22.7584C41.3164 24.2763 45.5803 24.2763 48.2116 22.7584C48.7743 22.4336 49.2084 22.0636 49.5297 21.6711C49.2032 21.2335 48.7343 20.8236 48.116 20.4658Z" fill="#1A162C"/>
<path d="M38.0594 21.5669C38.3113 21.8153 38.6187 22.0446 38.9782 22.253C41.4427 23.6754 45.4529 23.6754 47.9192 22.253C48.2318 22.0723 48.5062 21.8709 48.7424 21.6555C48.4905 21.4072 48.1814 21.1779 47.8219 20.9712C45.3574 19.5488 41.3488 19.5488 38.8826 20.9712C38.5683 21.1518 38.2939 21.3516 38.0594 21.5669ZM43.4486 24.4917C41.6285 24.4917 39.8118 24.0818 38.3929 23.2638C37.7259 22.8782 37.191 22.4214 36.8037 21.9021L36.5293 21.5357L36.8193 21.1831C37.1979 20.7194 37.6947 20.3078 38.2991 19.9587C41.1318 18.3244 45.5728 18.3226 48.4072 19.9587C49.0741 20.3442 49.6108 20.8027 49.9981 21.3203L50.2725 21.6868L49.9824 22.0411C49.6004 22.5065 49.1019 22.9182 48.5027 23.2638C47.0855 24.0818 45.267 24.4917 43.4486 24.4917Z" fill="#1A162C"/>
</svg>
