<svg width="169" height="225" viewBox="0 0 169 225" fill="none" xmlns="http://www.w3.org/2000/svg">
<path d="M163.329 154.359C163.152 154.359 162.977 154.348 162.798 154.325C161.566 154.169 159.341 153.307 158.286 149.293L160.26 148.773C160.816 150.887 161.809 152.138 163.056 152.296C164.156 152.451 165.386 151.675 166.098 150.399C167.155 148.505 166.806 146.155 165.162 144.112C159.234 136.744 159.318 128.543 159.326 128.196L161.366 128.234C161.366 128.311 161.306 136.061 166.75 142.828C168.935 145.544 169.359 148.748 167.882 151.396C166.854 153.241 165.107 154.359 163.329 154.359" fill="#252323"/>
<path d="M20.1077 179.213C20.1077 179.213 29.539 176.88 39.7978 169.116C50.0547 161.354 18.7229 151.743 18.7229 151.743L16.113 163.202C16.113 163.202 15.179 171.52 16.113 171.705C17.0451 171.889 20.1077 179.213 20.1077 179.213" fill="#252323"/>
<path d="M16.4913 170.981C17.0835 171.421 18.1252 172.868 20.2771 178.073C22.7214 177.305 30.2579 174.596 38.2421 168.362C40.0813 166.926 39.8833 165.789 39.8186 165.417C38.9915 160.655 25.4359 155.184 19.0892 153.06L16.7892 163.468C16.4802 166.364 16.2934 169.962 16.4913 170.981ZM19.1021 180.521L18.771 179.704C17.6016 176.821 16.0288 173.434 15.4144 172.734C14.6595 172.522 13.8879 171.658 14.8149 163.13L17.6127 150.435L18.6488 150.764C20.8859 151.471 40.5476 157.891 41.7928 165.057C42.1093 166.877 41.3247 168.536 39.4596 169.993C29.4326 177.821 20.3234 180.207 19.9404 180.306L19.1021 180.521Z" fill="#252323"/>
<path d="M160.143 113.807H3.37935C2.95175 113.807 2.61008 114.156 2.61942 114.58L3.95261 167.738C3.95261 169.651 4.90491 171.563 6.80575 172.656L18.2389 179.226C19.1538 179.751 20.2984 179.093 20.2984 178.042V173.089C20.2984 172.037 21.443 171.379 22.358 171.905L59.4451 193.215C61.064 194.147 62.063 195.868 62.063 197.728V201.398C62.063 203.26 63.0601 204.981 64.6808 205.912L74.2523 211.411C78.4573 213.829 83.6408 213.829 87.8458 211.411L155.292 172.654C157.195 171.561 158.145 169.649 158.145 167.737L160.902 114.601C160.924 114.169 160.578 113.807 160.143 113.807" fill="#EF4BA2"/>
<path d="M21.2863 169.45C21.6952 169.45 22.1023 169.558 22.4759 169.775L59.3956 191.213C61.3122 192.327 62.5056 194.401 62.5056 196.629V200.321C62.5056 201.828 63.3105 203.23 64.608 203.984L74.1367 209.519C77.9977 211.758 82.7974 211.761 86.662 209.519L153.807 170.531C155.27 169.68 156.144 168.158 156.144 166.46L158.875 113.219H3.33294L4.6546 166.434C4.6546 168.158 5.52829 169.68 6.99125 170.531L18.3733 177.139C18.5295 177.231 18.6689 177.178 18.734 177.139C18.8009 177.099 18.9124 177.006 18.9124 176.825V171.843C18.9124 170.979 19.3567 170.205 20.1002 169.773C20.472 169.558 20.8792 169.45 21.2863 169.45V169.45ZM80.3994 213.225C77.8843 213.225 75.3729 212.574 73.1292 211.271L63.5986 205.737C61.6821 204.625 60.4905 202.548 60.4905 200.321V196.629C60.4905 195.124 59.6856 193.72 58.3881 192.966L21.4666 171.529C21.3104 171.44 21.1747 171.489 21.1078 171.529C21.0408 171.567 20.9274 171.661 20.9274 171.843V176.825C20.9274 177.689 20.4832 178.461 19.7396 178.895C18.9961 179.322 18.1094 179.325 17.3658 178.892L5.98374 172.284C3.89061 171.069 2.63957 168.89 2.63957 166.46L1.31229 113.01C1.30114 112.528 1.47963 112.073 1.81423 111.727C2.14883 111.382 2.59679 111.191 3.07639 111.191H159.141C159.622 111.191 160.089 111.395 160.42 111.744C160.749 112.096 160.925 112.574 160.901 113.057L158.159 166.511C158.159 168.89 156.908 171.069 154.815 172.284L87.6695 211.271C85.4277 212.574 82.9126 213.225 80.3994 213.225" fill="#252323"/>
<path d="M88.4595 211.458L150.578 175.39L153.05 114.932L95.4555 113.807L82.4116 122.282V213.225C84.505 213.114 86.5799 212.543 88.4595 211.458" fill="#252323"/>
<path d="M83.1369 121.279V211.045C84.7724 210.828 86.3067 210.311 87.708 209.503L149.818 173.521L152.246 114.333L95.5577 113.226L83.1369 121.279ZM81.1042 213.225V120.18L94.9751 111.191L154.359 112.348L151.802 174.716L151.321 174.996L88.7234 211.258C86.7413 212.4 84.5363 213.041 82.1758 213.168L81.1042 213.225" fill="#252323"/>
<path d="M3.41342 113.807C2.96666 113.807 2.60967 114.156 2.61943 114.579L4.01237 167.666C4.01237 169.577 5.00734 171.486 6.99339 172.577L9.54912 173.981L8.37856 120.342L10.468 113.807H3.41342Z" fill="#252323"/>
<path d="M3.46017 114.508L4.86501 167.206C4.86501 168.913 5.79371 170.42 7.34875 171.262L8.29127 171.771L7.14127 119.884L8.888 114.508H3.46017ZM10.5122 175.289L6.27782 172.999C4.05294 171.795 2.72315 169.638 2.72315 167.231L1.31232 114.299C1.30047 113.821 1.49019 113.373 1.84586 113.03C2.20152 112.688 2.67768 112.499 3.18746 112.499H11.7768L9.28912 120.162L10.5122 175.289" fill="#252323"/>
<path d="M157.974 117.577L88.348 157.824C84.2714 160.181 79.2485 160.181 75.172 157.824L5.54785 117.577C1.64303 115.319 1.64303 109.677 5.54785 107.421L75.1738 67.1739C79.2504 64.8173 84.2733 64.8173 88.3498 67.1739L157.974 107.421C161.879 109.677 161.879 115.319 157.974 117.577" fill="white"/>
<path d="M81.1075 66.1356C79.0133 66.1356 76.9209 66.681 75.0534 67.7699L5.73809 108.272C4.22736 109.154 3.32608 110.733 3.32608 112.499C3.32608 114.261 4.22736 115.845 5.73809 116.727L75.0516 157.227C78.7847 159.406 83.4285 159.408 87.1616 157.227L156.477 116.725C157.988 115.843 158.889 114.261 158.889 112.499C158.889 110.735 157.988 109.154 156.477 108.272L87.1616 67.7699C85.296 66.681 83.1999 66.1356 81.1075 66.1356V66.1356ZM81.1075 160.9C78.664 160.9 76.2223 160.264 74.0444 158.991L4.73091 118.491C2.59024 117.24 1.3118 114.999 1.3118 112.497C1.31366 109.996 2.59024 107.757 4.73091 106.508L74.0463 66.0059C78.402 63.4615 83.8131 63.4634 88.1706 66.0059L157.484 106.508C159.625 107.757 160.903 109.996 160.903 112.499C160.903 115 159.625 117.24 157.484 118.489L88.1706 158.991C85.9909 160.264 83.5492 160.9 81.1075 160.9Z" fill="#252323"/>
<path d="M73.9846 210.608L73.2552 157.007L75.1422 156.975L75.8715 210.579L73.9846 210.608Z" fill="#252323"/>
<path d="M23.4496 162.032L18.4097 159C17.6346 158.532 17.0053 157.28 17.0053 156.204V146.485C17.0053 145.407 17.6346 144.911 18.4097 145.378L23.4496 148.41C24.2247 148.877 24.854 150.129 24.854 151.208V160.926C24.854 162.004 24.2247 162.499 23.4496 162.032Z" fill="white"/>
<path d="M17.776 146.042C17.7665 146.1 17.7608 146.169 17.7608 146.253V156.285C17.7608 157.082 18.2918 158.008 18.7485 158.274L24.0847 161.369C24.0943 161.313 24.1 161.243 24.1 161.159V151.128C24.1 150.331 23.569 149.404 23.1123 149.14L17.776 146.042ZM24.2275 163.516C23.8621 163.516 23.4795 163.409 23.1123 163.197L17.7171 160.067C16.5657 159.401 15.6979 157.775 15.6979 156.285V146.253C15.6979 145.289 16.0747 144.517 16.7331 144.134C17.3307 143.788 18.0653 143.817 18.7485 144.216L24.1438 147.344C25.2951 148.012 26.1629 149.637 26.1629 151.128V161.159C26.1629 162.125 25.7861 162.897 25.1276 163.277C24.8498 163.438 24.5453 163.516 24.2275 163.516Z" fill="#252323"/>
<path d="M22.4499 156.975L18.3171 154.79L19.4167 153.051L23.5496 155.234L22.4499 156.975" fill="#252323"/>
<path d="M118.119 175.289L117.73 174.62L155.278 153.051L155.665 153.722L118.119 175.289Z" fill="#EF4BA2"/>
<path d="M118.119 177.905L117.73 177.236L155.278 155.667L155.665 156.338L118.119 177.905" fill="#EF4BA2"/>
<path d="M118.119 180.521L117.73 179.851L155.278 158.283L155.665 158.953L118.119 180.521Z" fill="#EF4BA2"/>
<path d="M118.119 172.673L117.73 172.004L155.278 150.435L155.665 151.105L118.119 172.673Z" fill="#EF4BA2"/>
<path d="M90.1018 207.992L88.9487 207.969L89.1024 194.911L90.2569 194.935L90.1018 207.992" fill="#EF4BA2"/>
<path d="M90.1871 192.295L88.9487 192.272L89.0185 187.062L90.2569 187.085L90.1871 192.295Z" fill="#EF4BA2"/>
<path d="M147.627 139.97L146.515 139.938L146.711 125.58L147.823 125.611L147.627 139.97Z" fill="#EF4BA2"/>
<path d="M68.0277 188.232C68.0277 189.524 67.1491 190.048 66.0646 189.401C64.9819 188.755 64.1033 187.184 64.1033 185.892C64.1033 184.6 64.9819 184.076 66.0646 184.723C67.1491 185.368 68.0277 186.94 68.0277 188.232Z" fill="#EF4BA2"/>
<path d="M65.0771 185.296C65.0573 185.296 65.0454 185.298 65.0394 185.3C65.0255 185.316 64.9402 185.457 64.9402 185.79C64.9402 186.815 65.7141 188.16 66.5952 188.673C66.8889 188.84 67.0496 188.834 67.0754 188.824C67.0893 188.808 67.1766 188.666 67.1766 188.335C67.1766 187.311 66.4027 185.966 65.5196 185.453C65.2934 185.322 65.1426 185.296 65.0771 185.296V185.296ZM67.0417 190.987C66.5495 190.987 66.0296 190.839 65.5196 190.542C63.9877 189.653 62.7871 187.566 62.7871 185.79C62.7871 184.724 63.2197 183.865 63.9678 183.428C64.7159 182.994 65.6724 183.048 66.5952 183.584C68.1271 184.471 69.3277 186.557 69.3277 188.335C69.3277 189.4 68.8971 190.261 68.147 190.698C67.8116 190.891 67.4366 190.987 67.0417 190.987" fill="#252323"/>
<path d="M68.0277 180.384C68.0277 181.676 67.1491 182.198 66.0646 181.553C64.9819 180.906 64.1033 179.336 64.1033 178.044C64.1033 176.752 64.9819 176.228 66.0646 176.874C67.1491 177.52 68.0277 179.092 68.0277 180.384Z" fill="#EF4BA2"/>
<path d="M65.0771 177.449C65.0573 177.449 65.0454 177.449 65.0394 177.451C65.0255 177.467 64.9402 177.608 64.9402 177.942C64.9402 178.966 65.7141 180.312 66.5952 180.823C66.8889 180.993 67.0496 180.985 67.0754 180.977C67.0893 180.96 67.1766 180.819 67.1766 180.487C67.1766 179.462 66.4027 178.117 65.5196 177.605C65.2934 177.475 65.1426 177.449 65.0771 177.449V177.449ZM67.0417 183.138C66.5495 183.138 66.0296 182.99 65.5196 182.693C63.9877 181.807 62.7871 179.719 62.7871 177.942C62.7871 176.875 63.2197 176.016 63.9678 175.579C64.7159 175.145 65.6724 175.199 66.5952 175.735C68.1271 176.622 69.3277 178.709 69.3277 180.487C69.3277 181.553 68.8971 182.412 68.147 182.848C67.8116 183.042 67.4366 183.138 67.0417 183.138" fill="#252323"/>
<path d="M107.268 109.98L59.7677 137.353L30.0883 120.25L77.5885 92.8771L107.268 109.98Z" fill="white"/>
<path d="M32.8369 120.28L60.4374 136.305L105.829 109.95L78.2282 93.9257L32.8369 120.28ZM60.4374 138.662L28.7809 120.28L78.2282 91.569L109.885 109.95L60.4374 138.662Z" fill="#252323"/>
<path d="M113.805 106.058L66.1848 133.429L36.6254 116.329L84.1255 88.9526L113.805 106.058" fill="white"/>
<path d="M39.3746 116.359L66.8565 132.38L112.363 106.026L84.7667 90.0015L39.3746 116.359ZM66.8547 134.737L35.3224 116.356L84.7667 87.6445L116.426 106.03L66.8547 134.737" fill="#252323"/>
<path d="M119.039 103.499L71.6015 130.813L41.8595 113.804L89.3608 86.3364L119.039 103.499" fill="white"/>
<path d="M44.6262 113.828L72.2746 129.762L117.593 103.468L90.0027 87.3927L44.6262 113.828ZM72.2784 132.121L40.5521 113.838L90.0027 85.0283L121.656 103.472L72.2784 132.121" fill="#252323"/>
<path d="M92.6357 60.4382L82.6305 57.5817C82.5204 57.55 82.4028 57.55 82.2908 57.5798L68.1192 61.4768C68.0613 61.4936 68.0127 61.5122 67.9605 61.5439C66.5997 62.3923 45.8761 75.2747 44.4668 75.9142C43.0108 76.5762 29.5074 81.9984 28.8467 82.5261C28.3333 82.9363 24.6579 82.0319 23.0208 81.6012C22.6214 81.4968 22.235 81.7989 22.235 82.2091V107.97C22.235 108.796 22.7819 109.624 23.8776 110.254L29.9891 113.78C32.341 115.136 36.1901 115.136 38.5439 113.78L74.4452 93.0759C76.7972 91.7185 80.6462 91.7185 83.0001 93.0759L98.4205 101.968C98.8181 102.197 98.8442 102.761 98.469 103.025L91.5475 107.91C91.4915 107.95 91.4299 107.979 91.3664 107.998L78.5687 111.856C78.5089 111.875 78.4473 111.884 78.3857 111.884H75.5932C75.246 111.884 74.9642 112.165 74.9642 112.512L74.994 138.602C75.0855 139.351 75.6044 140.088 76.5975 140.66L82.7108 144.184C85.0627 145.542 88.9118 145.542 91.2656 144.184L150.099 110.254C151.193 109.624 151.74 108.796 151.74 107.97V81.8324C151.74 81.5677 151.573 81.3309 151.321 81.2414L92.6731 60.4494C92.6619 60.4457 92.6488 60.4419 92.6357 60.4382" fill="#EF4BA2"/>
<path d="M76.6898 111.658L76.7214 137.532C76.7697 137.877 77.1595 138.344 77.8111 138.725L83.8912 142.272C85.9203 143.459 89.3605 143.459 91.3933 142.272L149.906 108.12C150.623 107.7 151.035 107.182 151.035 106.7V80.6648L92.9732 59.8324L83.1356 56.9909L69.1432 60.8834C67.0026 62.2515 47.2346 74.6872 45.7698 75.3628C45.2853 75.5843 43.4715 76.3388 41.2418 77.2678C37.4304 78.8518 31.0515 81.5037 30.4017 81.9185C30.0471 82.2075 29.5124 82.6392 24.2474 81.271V106.7C24.2474 107.182 24.6596 107.7 25.378 108.12L31.4543 111.669C33.4891 112.856 36.9254 112.856 38.9583 111.669L74.6644 90.8276C77.3303 89.268 81.5093 89.2699 84.1789 90.8276L99.5174 99.7818C100 100.063 100.304 100.57 100.33 101.135C100.355 101.698 100.098 102.231 99.6399 102.556L92.756 107.473C92.6074 107.578 92.4515 107.653 92.2881 107.704L79.5581 111.587C79.4078 111.634 79.2499 111.658 79.0884 111.658H76.6898ZM87.6432 145.202C85.9296 145.202 84.2198 144.812 82.885 144.033L76.8049 140.486C75.5908 139.776 74.85 138.772 74.7145 137.656L74.6774 111.275C74.6774 110.365 75.4107 109.624 76.3093 109.624H79.0884L91.7052 105.758L97.9969 101.242L83.1709 92.588C81.1417 91.4038 77.7035 91.4019 75.6706 92.588L39.9646 113.43C37.2968 114.988 33.1178 114.988 30.4481 113.43L24.37 109.881C22.9943 109.078 22.235 107.948 22.235 106.7V80.7718C22.235 80.2556 22.467 79.7789 22.8718 79.4655C23.2728 79.1502 23.7889 79.0451 24.279 79.1765C27.4982 80.0323 28.9499 80.1974 29.3676 80.1787C30.1288 79.7282 32.8375 78.5609 40.4751 75.3872C42.6732 74.4714 44.4591 73.73 44.9363 73.5104C45.9555 73.0431 59.3984 64.6407 68.1871 59.1079C68.317 59.0272 68.4451 58.969 68.5974 58.9258L82.703 55.0015C82.9945 54.9208 83.3008 54.9208 83.5867 55.0052L93.6137 57.9049L151.963 78.8405C152.61 79.0695 153.048 79.6945 153.048 80.3945V106.7C153.048 107.948 152.29 109.078 150.913 109.881L92.3995 144.033C91.0666 144.812 89.353 145.202 87.6432 145.202Z" fill="#252323"/>
<path d="M91.2791 142.905L145.203 111.641V77.3337L133.765 73.2552L87.6457 111.523V143.894C88.9746 143.811 90.2661 143.492 91.2791 142.905" fill="#252323"/>
<path d="M88.3373 112.054V142.966C89.1387 142.819 89.8588 142.57 90.4257 142.236L143.196 111.103V77.9262L133.098 74.2621L88.3373 112.054ZM86.3339 145.202V111.093L132.697 71.9471L145.2 76.4828V112.284L91.4246 144.008C90.3389 144.647 88.9467 145.038 87.3975 145.134L86.3339 145.202" fill="#252323"/>
<path d="M35.3224 113.807C36.6459 113.723 37.932 113.407 38.9411 112.828L74.9463 92.1619C76.268 91.4026 78.0614 91.0843 79.7987 91.1774V57.5576L68.6019 60.6211C68.5439 60.6378 68.4952 60.6583 68.4447 60.6899C67.0781 61.5349 46.2945 74.3954 44.8811 75.0338C44.0555 75.406 39.3623 77.3007 35.3224 78.972V113.807Z" fill="#252323"/>
<path d="M36.0084 79.7469V112.898C36.8027 112.754 37.5031 112.509 38.0726 112.177L73.5195 91.4348C74.6733 90.7605 76.1919 90.3626 77.7972 90.301V58.9095L68.0384 61.6312C65.9134 62.9929 46.2888 75.3702 44.8347 76.0408C44.3592 76.2593 42.6009 76.9935 40.4261 77.8994C39.0475 78.4748 37.4994 79.1211 36.0084 79.7469V79.7469ZM34.0106 115.115V78.3963L34.6261 78.1367C36.3033 77.4287 38.0947 76.6834 39.6668 76.0277C41.8084 75.1348 43.5409 74.4119 44.0072 74.1971C45.019 73.732 58.3643 65.3709 67.0892 59.8641C67.2182 59.7837 67.3454 59.7258 67.4965 59.6829L79.795 56.2495V92.3894L78.7427 92.3333C77.1392 92.2381 75.5948 92.5575 74.5184 93.187L39.0715 113.929C37.9952 114.559 36.6129 114.945 35.074 115.046L34.0106 115.115" fill="#252323"/>
<path d="M23.8772 82.7302L30.3022 86.4309C32.4918 87.6911 36.0403 87.6911 38.228 86.4309L74.7586 65.3978C76.9482 64.1376 80.4967 64.1376 82.6844 65.3978L113.128 82.9257C115.317 84.1859 115.317 86.2298 113.128 87.4901L76.5972 108.521C74.4095 109.782 74.4095 111.825 76.5972 113.086L83.0241 116.786C85.2118 118.047 88.7622 118.047 90.95 116.786L150.099 82.7302C152.286 81.47 152.286 79.4279 150.099 78.1677L90.95 44.1135C88.7622 42.8532 85.2137 42.8532 83.0241 44.1135L23.8772 78.1677C21.6876 79.4279 21.6876 81.47 23.8772 82.7302" fill="white"/>
<path d="M79.4208 63.3104C81.0211 63.3104 82.6195 63.6743 83.8652 64.4021L114.145 82.0656C115.52 82.8685 116.28 83.9997 116.28 85.2453C116.278 86.4927 115.52 87.622 114.145 88.4249L77.8111 109.621C77.0945 110.039 76.6824 110.557 76.6824 111.041C76.6824 111.523 77.0945 112.041 77.8111 112.459L84.2031 116.186C86.067 117.274 89.2175 117.274 91.0795 116.186L149.906 81.8686C150.623 81.4503 151.035 80.9326 151.035 80.4486C151.035 79.9665 150.623 79.4487 149.906 79.0304L91.0795 44.7127C89.2193 43.6265 86.067 43.6247 84.205 44.7127L25.378 79.0304C24.6596 79.4506 24.2474 79.9684 24.2474 80.4505C24.2474 80.9326 24.6596 81.4503 25.3762 81.8668L25.378 81.8686L31.7681 85.5979C33.632 86.6841 36.7806 86.6841 38.6446 85.5979L74.9763 64.4021C76.222 63.6743 77.8223 63.3104 79.4208 63.3104V63.3104ZM87.6413 119.04C86.0429 119.04 84.4426 118.676 83.1968 117.946L76.8049 114.219C75.4293 113.418 74.67 112.286 74.67 111.041C74.67 109.793 75.4293 108.662 76.8049 107.861L113.137 86.6653C113.855 86.247 114.265 85.7293 114.265 85.2453C114.265 84.7632 113.855 84.2454 113.137 83.8252L82.859 66.1617C80.9969 65.0756 77.8446 65.0756 75.9825 66.1617L39.6508 87.3557C37.1594 88.8132 33.2552 88.8132 30.7619 87.3557L24.37 83.6282C22.9943 82.8272 22.235 81.6979 22.235 80.4505C22.235 79.203 22.9924 78.0737 24.37 77.2708L83.1968 42.9512C85.6901 41.4955 89.5944 41.4974 92.0858 42.9512L150.913 77.2708C152.29 78.0718 153.048 79.203 153.048 80.4486C153.048 81.6961 152.29 82.8272 150.913 83.6282L92.0858 117.946C90.8419 118.676 89.2416 119.04 87.6413 119.04" fill="#252323"/>
<path d="M152.647 55.4127H144.346L143.551 61.6829L89.4191 30.3016C85.9189 28.2713 80.2442 28.2713 76.7458 30.3016L33.543 55.4295L33.9973 48.6339H19.1979L12.2292 64.719H10.8608L3.85305 80.8995L1.43832 86.4855C1.06037 87.4801 1.52766 88.5607 2.8607 89.3346L39.6571 110.667C41.7275 111.866 45.114 111.866 47.1843 110.667L56.3518 105.352C58.4221 104.152 61.8106 104.152 63.8809 105.352L66.4967 106.869C66.8411 107.069 67.1074 107.295 67.3382 107.529L64.9923 113.029C64.7149 113.98 65.2288 114.863 66.4967 115.597L74.333 120.14C77.8182 122.161 83.5209 122.161 87.0061 120.14L88.1977 119.45L105.827 109.23L159.251 78.1326C160.964 77.1399 161.826 75.8444 161.861 74.5432L162.211 58.2936C162.215 58.0991 162.087 57.929 161.9 57.8785L152.647 55.4127" fill="#EF4BA2"/>
<path d="M60.0365 103.618C61.5781 103.618 63.1197 103.968 64.3212 104.666L66.9465 106.194C67.3296 106.414 67.6659 106.679 68.006 107.023L68.4825 107.512L65.8609 113.677C65.7675 114.019 66.1188 114.495 66.9447 114.975L74.8115 119.548C77.9862 121.391 83.3453 121.393 86.5182 119.548L105.408 108.57L159.025 77.2787C160.363 76.5018 161.112 75.5236 161.142 74.521L161.481 58.6461L152.773 56.321H145.467L144.588 63.2586L88.9399 30.9144C85.767 29.0709 80.4079 29.0709 77.2332 30.9144L32.2281 57.1581L32.7382 49.4981H19.6319L12.6378 65.6834H11.2663L2.07279 86.9722C1.79811 87.704 2.6838 88.321 3.07994 88.5505L40.0089 110.014C41.7804 111.043 44.7776 111.045 46.5509 110.014L55.7518 104.666C56.9533 103.968 58.4949 103.618 60.0365 103.618ZM80.6657 122.964C78.1786 122.964 75.6934 122.413 73.7987 121.312L65.9338 116.739C63.6504 115.415 63.7158 113.822 63.9568 112.99L66.0571 108.035C66.0179 108.009 65.9768 107.985 65.9357 107.96L63.3065 106.431C61.5332 105.4 58.5379 105.402 56.7646 106.431L47.5636 111.779C45.1625 113.176 41.3991 113.176 38.9961 111.779L2.06531 90.315C0.333126 89.3086 -0.382543 87.7322 0.198589 86.2029L9.93771 63.6443H11.3092L18.3034 47.459H34.9039L34.5022 53.4748L76.2167 29.1499C80.0697 26.9113 86.0996 26.9113 89.9527 29.148L142.963 59.9591L143.682 54.2819L153.165 54.3138L162.454 56.7969C163.095 56.97 163.532 57.5569 163.515 58.2228L163.166 74.5718C163.117 76.3156 162.007 77.8995 160.04 79.0432L87.531 121.314C85.6381 122.413 83.151 122.964 80.6657 122.964" fill="#252323"/>
<path d="M52.3601 64.0983C51.9536 64.0983 43.1669 70.8276 43.1669 70.8276V73.3337L53.3009 89.544L43.1688 111.189C44.6288 111.219 46.1041 110.928 47.2167 110.301L56.6141 105.012C57.5492 104.485 58.7382 104.205 59.9577 104.139L70.6376 82.4947L63.7308 64.7755C63.7308 64.7755 52.7666 64.0983 52.3601 64.0983" fill="#252323"/>
<path d="M44.4788 72.8743L54.7126 89.4985L45.1104 110.33C45.8123 110.205 46.4533 109.987 46.9669 109.693L56.3333 104.339C57.2121 103.837 58.3002 103.507 59.508 103.373L69.7038 82.3859L63.2135 65.4755C59.3121 65.2325 54.0449 64.9049 52.8371 64.8427C51.8251 65.4811 47.5756 68.7163 44.4788 71.1211V72.8743ZM43.6476 112.499C43.5734 112.499 43.5011 112.499 43.4269 112.497L41.8595 112.465L52.3825 89.6378L42.4169 73.4486V70.1287L42.8106 69.8217C51.8479 62.7901 52.1846 62.7901 52.6088 62.7901C53.0254 62.7901 62.1749 63.3664 64.0067 63.4812L64.6687 63.5227L71.9464 82.4801L60.8472 105.328L60.2385 105.362C59.1219 105.42 58.1004 105.686 57.3662 106.106L47.9979 111.459C46.8223 112.134 45.2835 112.499 43.6476 112.499" fill="#252323"/>
<path d="M143.277 61.7475L141.181 60.5333L110.565 66.819C110.565 66.819 90.1065 81.3927 89.9744 81.9213C89.8422 82.4518 88.6548 91.3283 88.6548 91.3283L89.4458 99.9339L79.8011 121.643C82.2951 121.742 84.8449 121.262 86.7526 120.156L87.942 119.467L105.566 109.255L155.672 80.1038V57.5577L143.491 60.0589L143.277 61.7475" fill="#252323"/>
<path d="M89.8923 91.4727L90.699 100.276L81.5776 120.9C83.4387 120.782 85.1676 120.314 86.468 119.557L105.3 108.596L154.951 79.5783V58.7437L144.678 60.8642L144.364 63.3565L141.284 61.5648L111.22 67.7627C104.053 72.892 92.752 81.0733 91.1349 82.4819C90.9449 83.6595 90.3022 88.4038 89.8923 91.4727V91.4727ZM80.6703 122.964C80.4393 122.964 80.2083 122.958 79.9754 122.949L78.485 122.891L88.6385 99.9339L87.8597 91.4295L87.8746 91.315C88.1559 89.2095 89.0819 82.2922 89.2179 81.7494C89.3334 81.2874 89.4396 80.8498 110.225 65.9785L110.399 65.8545L141.629 59.4142L142.745 60.0622L142.858 59.1607L156.973 56.2495V80.754L87.4759 121.321C85.6427 122.389 83.2469 122.964 80.6703 122.964" fill="#252323"/>
<path d="M21.2009 52.9406C23.2745 54.1438 23.2745 56.1133 21.2009 57.3165L12.019 62.6443C9.94538 63.8474 9.94538 65.8151 12.019 67.0183L48.8735 88.4027C50.9471 89.6058 54.3391 89.6058 56.4126 88.4027L65.5946 83.0748C67.6682 81.8717 71.062 81.8717 73.1356 83.0748L75.7537 84.5947C77.8273 85.7978 77.8273 87.7655 75.7537 88.9686C73.682 90.1717 73.682 92.1413 75.7537 93.3444L83.6042 97.8983C87.095 99.9241 92.8067 99.9241 96.2974 97.8983L97.4909 97.2068L115.148 86.9615L159.577 61.2463C163.083 59.213 163.083 55.9147 159.577 53.8814L89.6348 13.2996C86.1291 11.2644 80.4472 11.2644 76.9415 13.2996L21.2009 45.5757C17.6971 47.6109 17.6971 50.9073 21.2009 52.9406" fill="white"/>
<path d="M70.6065 81.6089C72.1508 81.6089 73.6933 81.9546 74.8989 82.6424L77.529 84.15C78.8431 84.9047 79.5957 86.0145 79.5957 87.193C79.5957 88.3715 78.8431 89.4813 77.529 90.236C76.8588 90.6189 76.4732 91.0911 76.4732 91.5317C76.4732 91.9722 76.8588 92.4462 77.529 92.831L85.4081 97.3481C88.5867 99.1699 93.9574 99.1717 97.136 97.3481L160.663 60.9919C162.037 60.2037 162.794 59.2148 162.794 58.211C162.794 57.2053 162.037 56.2182 160.661 55.43L90.4475 15.1756C87.2651 13.3521 81.8944 13.3539 78.7196 15.1756L22.7626 47.1933C21.3886 47.9814 20.6305 48.9685 20.6305 49.9723C20.6305 50.978 21.3886 51.965 22.7626 52.7532C24.0767 53.5061 24.8312 54.6158 24.8312 55.7944C24.8312 56.9748 24.0786 58.0827 22.7626 58.8374L13.545 64.1222C12.8767 64.507 12.4911 64.9792 12.4911 65.4197C12.4911 65.8603 12.8767 66.3343 13.545 66.7173L50.5426 87.9291C52.3191 88.9441 55.3199 88.9459 57.0983 87.9273L66.314 82.6443C67.5177 81.9546 69.0621 81.6089 70.6065 81.6089V81.6089ZM91.273 100.726C88.7814 100.726 86.2898 100.179 84.3935 99.0918L76.5144 94.5747C75.1984 93.82 74.4459 92.7121 74.4459 91.5317C74.4459 90.3513 75.2002 89.2434 76.5144 88.4905C77.1827 88.1076 77.5664 87.6336 77.5664 87.193C77.5664 86.7524 77.1827 86.2784 76.5144 85.8955L73.8824 84.3879C72.1097 83.3692 69.1033 83.3692 67.3286 84.3879L58.1111 89.6728C55.7056 91.0521 51.9354 91.0521 49.5281 89.6728L12.5304 68.4609C11.2163 67.708 10.4619 66.5983 10.4638 65.4197C10.4638 64.2393 11.2163 63.1314 12.5323 62.3786L21.748 57.0938C22.4182 56.709 22.8019 56.2349 22.8019 55.7944C22.8019 55.3557 22.4182 54.8817 21.748 54.4987C19.7207 53.335 18.6012 51.7271 18.6012 49.9723C18.6012 48.2175 19.7207 46.6114 21.748 45.4478L77.7068 13.4301C81.5612 11.2199 87.6039 11.2218 91.4621 13.4301L161.676 53.6864C163.705 54.8482 164.823 56.4543 164.823 58.211C164.823 59.9658 163.705 61.5737 161.676 62.7355L98.1506 99.0918C96.2543 100.179 93.7627 100.724 91.273 100.726" fill="#252323"/>
<path d="M66.0375 113.807L64.1033 113L73.9422 91.5689L75.8764 92.3763L66.0375 113.807Z" fill="#252323"/>
<path d="M108.032 108.575L107.266 107.247L139.203 88.9527L139.969 90.2807L108.032 108.575Z" fill="#EF4BA2"/>
<path d="M93.661 117.732L92.8754 116.393L103.865 109.883L104.649 111.221L93.661 117.732Z" fill="#EF4BA2"/>
<path d="M13.5422 74.7436L29.3993 84.105C30.0108 84.466 30.2539 85.2594 29.9555 85.9255L26.0525 94.6826C25.7209 95.4258 24.8534 95.7154 24.1719 95.3081L8.52108 85.9467C7.92429 85.5896 7.68115 84.8154 7.95928 84.1552L11.6579 75.4C11.9784 74.6413 12.8533 74.3382 13.5422 74.7436Z" fill="white"/>
<path d="M14.0406 76.5831C13.9934 76.5831 13.9538 76.5943 13.9273 76.6018C13.8725 76.6204 13.7705 76.6689 13.7157 76.792L9.92416 85.2489C9.85049 85.4131 9.91472 85.6033 10.0715 85.6909L26.1237 94.7353C26.2389 94.8005 26.3504 94.78 26.4033 94.7633C26.4581 94.7465 26.5601 94.6999 26.6167 94.5805L30.6217 86.1198C30.6992 85.9539 30.6368 85.7599 30.4744 85.6704L14.2126 76.6298C14.1502 76.5962 14.0916 76.5831 14.0406 76.5831V76.5831ZM26.2975 96.8015C25.8838 96.8015 25.4738 96.6952 25.1073 96.4901L9.05707 87.4476C7.98403 86.8415 7.5514 85.5436 8.05203 84.4322L11.8455 75.9733C12.1175 75.3635 12.6427 74.8936 13.2831 74.6848C13.9216 74.474 14.6263 74.5393 15.2157 74.8675L31.4794 83.91C32.5657 84.5142 33.004 85.8625 32.475 86.9758L28.4719 95.4365C28.1885 96.0332 27.6595 96.492 27.0229 96.6896C26.7868 96.7642 26.5412 96.8015 26.2975 96.8015" fill="#252323"/>
<path d="M35.4679 87.6839L37.772 88.9068C37.918 88.9843 37.9756 89.156 37.9048 89.2984L36.8711 91.3945C36.7914 91.5558 36.5856 91.6165 36.4218 91.5285L34.1709 90.3056C34.0292 90.2281 33.9717 90.0627 34.0381 89.9224L35.0186 87.8242C35.096 87.6609 35.3041 87.5959 35.4679 87.6839" fill="#252323"/>
<path d="M39.3982 88.992L41.7034 90.2149C41.8472 90.2924 41.907 90.4641 41.8362 90.6065L40.8009 92.7026C40.7212 92.8639 40.5155 92.9246 40.354 92.8366L38.1018 91.6137C37.9602 91.5363 37.9027 91.3708 37.9691 91.2305L38.9514 89.1323C39.0266 88.9689 39.2345 88.904 39.3982 88.992" fill="#252323"/>
<path d="M43.3154 91.6068L45.621 92.8317C45.767 92.9092 45.8245 93.0809 45.7537 93.2233L44.7182 95.3193C44.6386 95.4784 44.4328 95.5412 44.2713 95.4533L42.0188 94.2304C41.8772 94.153 41.8219 93.9876 41.886 93.8473L42.8684 91.7492C42.9437 91.5859 43.1517 91.521 43.3154 91.6068" fill="#252323"/>
<path d="M32.8479 91.6082L35.1528 92.8311C35.2988 92.9086 35.3563 93.0803 35.2856 93.2227L34.2503 95.3188C34.1706 95.4801 33.9649 95.5408 33.8034 95.4529L31.5516 94.2299C31.41 94.1525 31.3525 93.987 31.4188 93.8467L32.401 91.7485C32.4762 91.5852 32.6842 91.5203 32.8479 91.6082" fill="#252323"/>
<path d="M36.7775 92.9165L39.0837 94.1415C39.2298 94.2169 39.2874 94.3886 39.2166 94.531L38.1807 96.6271C38.1033 96.7884 37.8952 96.8491 37.7337 96.7611L35.4827 95.5382C35.341 95.4608 35.2835 95.2953 35.3499 95.155L36.3304 93.0568C36.4078 92.8935 36.6137 92.8285 36.7775 92.9165Z" fill="#252323"/>
<path d="M40.702 95.5313L43.0061 96.7562C43.1521 96.8336 43.2097 97.0053 43.1388 97.1477L42.1052 99.2437C42.0255 99.4028 41.8175 99.4657 41.6559 99.3777L39.405 98.1549C39.2633 98.0774 39.2058 97.912 39.2722 97.7717L40.2526 95.6736C40.3301 95.5103 40.5382 95.4454 40.702 95.5313" fill="#252323"/>
<path d="M32.8479 91.6082L35.1528 92.8311C35.2988 92.9086 35.3563 93.0803 35.2856 93.2227L34.2503 95.3188C34.1706 95.4801 33.9649 95.5408 33.8034 95.4529L31.5516 94.2299C31.41 94.1525 31.3525 93.987 31.4188 93.8467L32.401 91.7485C32.4762 91.5852 32.6842 91.5203 32.8479 91.6082" fill="#252323"/>
<path d="M36.7775 92.9165L39.0837 94.1415C39.2298 94.2169 39.2874 94.3886 39.2166 94.531L38.1807 96.6271C38.1033 96.7884 37.8952 96.8491 37.7337 96.7611L35.4827 95.5382C35.341 95.4608 35.2835 95.2953 35.3499 95.155L36.3304 93.0568C36.4078 92.8935 36.6137 92.8285 36.7775 92.9165Z" fill="#252323"/>
<path d="M40.702 95.5313L43.0061 96.7562C43.1521 96.8336 43.2097 97.0053 43.1388 97.1477L42.1052 99.2437C42.0255 99.4028 41.8175 99.4657 41.6559 99.3777L39.405 98.1549C39.2633 98.0774 39.2058 97.912 39.2722 97.7717L40.2526 95.6736C40.3301 95.5103 40.5382 95.4454 40.702 95.5313" fill="#252323"/>
<path d="M31.5456 95.5326L33.8497 96.7556C33.9958 96.833 34.0533 97.0047 33.9825 97.1471L32.9489 99.2433C32.8692 99.4045 32.6611 99.4652 32.4996 99.3773L30.2486 98.1544C30.107 98.0769 30.0494 97.9115 30.1158 97.7712L31.0964 95.6729C31.1738 95.5096 31.3818 95.4447 31.5456 95.5326" fill="#252323"/>
<path d="M35.4679 98.149L37.772 99.374C37.918 99.4494 37.9756 99.6211 37.9048 99.7635L36.8711 101.86C36.7914 102.021 36.5856 102.082 36.4219 101.994L34.1709 100.771C34.0292 100.693 33.9717 100.528 34.0381 100.387L35.0208 98.2893C35.0961 98.1259 35.3041 98.061 35.4679 98.149" fill="#252323"/>
<path d="M39.3982 99.4556L41.7035 100.681C41.8473 100.758 41.907 100.93 41.8362 101.072L40.8009 103.168C40.7212 103.327 40.5155 103.39 40.354 103.302L38.1019 102.079C37.9603 102.002 37.9027 101.836 37.9691 101.696L38.9513 99.598C39.0266 99.4347 39.2345 99.3698 39.3982 99.4556" fill="#252323"/>
<path d="M18.0706 83.858C17.5476 84.8489 16.3537 85.298 15.4049 84.8613C14.456 84.4245 14.1117 83.2668 14.6347 82.2759C15.1599 81.2851 16.3515 80.8339 17.3004 81.2706C18.2492 81.7074 18.5935 82.8651 18.0706 83.858" fill="#252323"/>
<path d="M21.9972 86.4725C21.4742 87.4634 20.2804 87.9146 19.3315 87.4778C18.3826 87.0411 18.0384 85.8833 18.5614 84.8925C19.0843 83.8995 20.2782 83.4504 21.227 83.8872C22.1759 84.3239 22.5202 85.4816 21.9972 86.4725Z" fill="#EF4BA2"/>
<path d="M132.786 103.427C132.551 103.386 132.338 103.353 132.338 103.353C131.362 103.259 130.12 103.747 128.794 105.185C128.053 105.99 127.49 106.942 127.177 107.964C126.67 109.623 126.874 110.844 127.484 111.525C127.484 111.525 128.712 113.199 131.452 113.799C131.581 113.828 131.724 113.775 131.796 113.668L135.87 107.57L136.046 105.373C136.052 105.292 136.031 105.222 135.974 105.163C135.661 104.847 134.611 103.775 132.786 103.427" fill="#EF4BA2"/>
<path d="M132.718 103.536C132.258 103.536 131.336 103.765 130.127 105.093C129.473 105.808 128.987 106.651 128.722 107.531C128.35 108.765 128.401 109.81 128.864 110.33C128.946 110.437 129.888 111.676 131.958 112.234L135.619 106.693L135.757 104.932C135.368 104.556 134.545 103.865 133.25 103.614L132.832 103.541C132.798 103.538 132.76 103.536 132.718 103.536V103.536ZM132.172 113.807C132.091 113.807 132.007 113.798 131.926 113.78C129.008 113.133 127.663 111.32 127.608 111.244C126.829 110.368 126.669 108.882 127.202 107.117C127.53 106.027 128.128 104.986 128.932 104.103C130.63 102.245 132.091 101.95 133.047 102.051L133.559 102.136C134.889 102.395 136.066 103.037 137.064 104.056C137.277 104.273 137.373 104.547 137.353 104.84L137.167 107.179L133.109 113.321C132.908 113.625 132.546 113.807 132.172 113.807" fill="#EF4BA2"/>
<path d="M137.353 107.182C137.353 109.443 135.889 112.192 134.083 113.323C132.276 114.453 130.813 113.538 130.813 111.277C130.813 109.014 132.276 106.264 134.083 105.135C135.889 104.003 137.353 104.92 137.353 107.182Z" fill="#252323"/>
<path d="M134.856 104.9C134.545 104.9 134.175 105.022 133.786 105.266C132.243 106.223 130.943 108.651 130.943 110.567C130.943 111.329 131.152 111.899 131.521 112.128C131.884 112.355 132.447 112.267 133.065 111.884C134.605 110.929 135.907 108.501 135.907 106.585C135.907 105.821 135.696 105.251 135.33 105.024C135.195 104.941 135.034 104.9 134.856 104.9ZM131.993 113.807C131.564 113.807 131.161 113.695 130.799 113.47C129.963 112.951 129.501 111.919 129.501 110.567C129.501 108.082 131.068 105.162 133.065 103.92C134.152 103.244 135.212 103.157 136.049 103.68C136.886 104.199 137.35 105.233 137.35 106.585C137.35 109.068 135.783 111.988 133.786 113.228C133.167 113.613 132.558 113.807 131.993 113.807Z" fill="#EF4BA2"/>
<path d="M151.211 56.325L123.66 40.2557C121.466 38.9764 119.706 37.0668 118.608 34.7768L114.569 26.3477C113.469 24.0502 111.704 22.1387 109.503 20.8594L76.6145 1.72984C75.6825 1.18717 74.6535 1.20396 73.7849 1.57693L23.5468 30.4708L24.5422 38.7619L41.8996 50.3575L69.947 70.9007L93.107 83.8875L104.16 94.1851L154.359 65.2838V61.8096C154.359 59.5512 153.161 57.4626 151.211 56.325" fill="#EF4BA2"/>
<path d="M25.2721 38.0187L42.3086 49.399L70.5039 70.0461L93.8467 83.16L104.397 92.9865L153.635 64.6414V61.7397C153.635 59.8414 152.617 58.0667 150.978 57.1119L123.318 40.9784C120.93 39.5856 119.037 37.5319 117.843 35.0402L113.787 26.5784C112.768 24.448 111.147 22.6938 109.105 21.5069L76.0897 2.30509C75.2869 1.83894 74.5384 2.04487 74.1604 2.20586L24.4095 30.8243L25.2721 38.0187ZM104.111 95.4932L92.5536 84.7288L69.4091 71.7516L41.1484 51.0614L23.369 39.1868L22.235 29.7347L73.2528 0.393709C74.6021 -0.190378 75.9662 -0.113629 77.1096 0.550957L110.127 19.7528C112.521 21.1456 114.418 23.2031 115.616 25.7023L119.671 34.1641C120.689 36.287 122.304 38.0392 124.338 39.2261L152 55.3578C154.26 56.6776 155.664 59.1207 155.664 61.7397V65.8133L104.111 95.4932" fill="#252323"/>
<path d="M71.1779 66.7145L121.647 38.152L121.656 38.126C120.605 37.0997 119.713 35.9154 119.072 34.5786L115.031 26.1752C114.571 25.2196 113.972 24.3513 113.297 23.5463L62.5448 51.7239L56.2499 54.377L59.4943 62.6373L63.1452 65.3015L71.1779 66.7145" fill="#252323"/>
<path d="M63.5635 64.5829L71.024 65.8996L120.197 37.9685C119.424 37.0632 118.786 36.0943 118.297 35.0712L114.247 26.615C113.959 26.0164 113.602 25.431 113.163 24.8381L63.0477 52.7673L57.5458 55.0979L60.3323 62.2168L63.5635 64.5829ZM71.3903 68.0226L62.7487 66.4982L58.6615 63.5055L54.9425 54L62.1619 50.9474L113.662 22.2381L114.198 22.8816C114.994 23.8318 115.607 24.767 116.073 25.7396L120.123 34.194C120.689 35.3742 121.492 36.4796 122.509 37.4765L122.965 37.9236L122.634 38.8925L122.292 39.1095L71.3903 68.0226" fill="#252323"/>
<path d="M103.666 87.4423C103.666 87.4423 102.167 89.0306 100.729 90.576L104.572 94.1851L154.362 65.2935V61.8205C154.362 60.7709 154.096 59.7643 153.628 58.8657L103.666 87.4423Z" fill="#252323"/>
<path d="M102.265 90.5934L104.84 92.9986L153.655 64.79V61.9022C153.655 61.3955 153.579 60.8868 153.431 60.3913L104.413 88.313C104.12 88.6222 103.237 89.5556 102.265 90.5934ZM104.556 95.4932L99.4169 90.6884L100.109 89.9506C101.552 88.4024 103.061 86.8114 103.061 86.8114L103.293 86.6306L154.331 57.5576L154.813 58.4798C155.371 59.5454 155.666 60.7285 155.666 61.9022V65.9562L104.556 95.4932Z" fill="#252323"/>
<path d="M110.647 90.2607L109.881 88.8743L150.972 65.4063L151.741 66.7928L110.647 90.2607Z" fill="#EF4BA2"/>
<path d="M56.6944 48.4008L107.266 19.6039L80.5445 3.92445L30.4066 32.9747L26.1617 36.9987L30.4661 42.7739L37.6711 47.6312L56.6944 48.4008Z" fill="white"/>
<path d="M38.1167 45.5719L56.691 46.3274L105.798 18.2983L80.9396 3.67883L31.0874 32.63L27.5635 35.9777L31.2465 40.931L38.1167 45.5719ZM57.187 48.4008L37.4654 47.5998L29.7287 42.3038L24.8499 35.741L29.9739 30.9108L80.9471 1.3082L109.878 18.3248L57.187 48.4008" fill="#252323"/>
<path d="M77.1775 70.5405V74.1597L85.8871 79.0565L97.4751 82.412L147.816 53.9191L127.197 41.8601L77.1775 70.5405" fill="white"/>
<path d="M86.0974 78.2995L97.3047 81.5324L146.35 53.8712L127.516 42.8951L77.9032 71.2418V73.7086L86.0974 78.2995ZM97.5615 83.7201L85.2073 80.1276L75.8701 74.898V70.0637L127.526 40.5519L150.433 53.9011L97.5615 83.7201" fill="#252323"/>
<path d="M22.235 46.3374V33.2724C22.235 30.8197 24.8842 29.2898 26.9972 30.5227L59.8451 49.683C62.0419 50.9664 63.8049 52.8811 64.9033 55.1807L68.9376 63.6242C70.0342 65.92 71.7916 67.8328 73.9847 69.1143L101.501 85.2111C103.45 86.3506 104.647 88.4428 104.647 90.705V94.1851L22.235 46.3374" fill="#EF4BA2"/>
<path d="M22.9643 45.4224L103.928 91.9912V90.2709C103.928 88.3791 102.908 86.6141 101.264 85.6617L73.5527 69.6014C71.1585 68.2147 69.2611 66.1702 68.0668 63.6895L64.0039 55.2651C62.9821 53.1441 61.3603 51.3978 59.3129 50.2161L26.2323 31.0973C25.5517 30.7059 24.7361 30.7022 24.0555 31.0936C23.3731 31.485 22.9643 32.1839 22.9643 32.9686V45.4224ZM105.96 95.4932L20.9319 46.5873V32.9686C20.9319 31.4533 21.7213 30.0983 23.0412 29.3416C24.363 28.5868 25.9379 28.5924 27.2541 29.351L60.3347 48.4698C62.7364 49.8564 64.6376 51.9047 65.8356 54.391L69.8985 62.8154C70.9185 64.9308 72.5365 66.6753 74.5745 67.8569L102.287 83.9172C104.552 85.2275 105.96 87.6634 105.96 90.2709V95.4932" fill="#252323"/>
<path d="M108.693 58.083L115.776 58.8167C116.855 58.9272 117.94 58.6852 118.876 58.1269L147.393 41.0824C148.11 40.6555 147.877 39.5387 147.053 39.4473L110.048 35.3538C108.827 35.2185 107.595 35.4853 106.533 36.1142L69.8757 57.7858C68.9675 58.3232 69.2597 59.7353 70.3018 59.8515L96.597 62.7596C97.6428 62.8759 98.6999 62.6586 99.621 62.1384L105.704 58.7081C106.616 58.1936 107.658 57.9763 108.693 58.083" fill="#EF4BA2"/>
<path d="M110.733 36.0245C109.891 36.0245 109.07 36.2417 108.333 36.6632L71.4042 57.7787L97.9245 60.7533C98.7719 60.8498 99.6211 60.679 100.371 60.2668L106.501 56.9246C107.604 56.323 108.845 56.0704 110.103 56.1967L117.24 56.9115C118.108 56.9951 118.984 56.8132 119.749 56.3712L148.084 39.9924L111.258 36.0523C111.081 36.0338 110.907 36.0245 110.733 36.0245V36.0245ZM98.38 62.7902C98.1569 62.7902 97.9319 62.779 97.707 62.753L71.2167 59.9214C70.2924 59.8212 69.5706 59.175 69.3813 58.2744C69.1882 57.3758 69.5837 56.4975 70.388 56.037L107.317 34.9197C108.584 34.1974 110.022 33.8966 111.475 34.0507L148.755 38.041C149.578 38.1264 150.219 38.702 150.393 39.5041C150.566 40.3044 150.217 41.0898 149.501 41.502L120.772 58.1092C119.634 58.7665 118.342 59.045 117.036 58.9132L109.899 58.1983C109.064 58.1185 108.223 58.2837 107.482 58.6867L101.352 62.0307C100.433 62.5321 99.4168 62.7902 98.38 62.7902" fill="#252323"/>
<path d="M74.5627 54.4461L93.9429 56.2363C94.5731 56.2958 95.2052 56.1544 95.7525 55.8325L118.765 42.3208C119.222 42.051 119.078 41.3494 118.553 41.2843L101.815 39.2653C101.161 39.1871 100.499 39.3248 99.93 39.6561L74.5627 54.4461" fill="white"/>
<path d="M78.5257 53.92L95.1124 55.4672C95.5432 55.5094 95.9776 55.4115 96.3576 55.1869L118.666 41.9494L102.934 40.0298C102.495 39.9742 102.029 40.0721 101.639 40.3024L78.5257 53.92ZM95.3099 57.5576C95.182 57.5576 95.0541 57.5518 94.9243 57.5403L71.9478 55.3942L100.62 38.4999C101.389 38.0469 102.298 37.8588 103.176 37.9643L120.261 40.0471C120.939 40.1316 121.486 40.6441 121.623 41.3256C121.762 42.007 121.458 42.7 120.867 43.0493L97.3809 56.9856C96.7451 57.3637 96.0359 57.5576 95.3099 57.5576" fill="#252323"/>
<path d="M32.5957 42.6538L32.9926 42.861C33.363 43.0528 33.6385 43.1213 33.8246 43.0648C34.007 43.0083 34.1001 42.8336 34.1001 42.5424C34.1001 42.2479 34.0222 41.991 33.8683 41.77C33.7145 41.5508 33.4732 41.3538 33.1427 41.1826L32.5957 40.8983V42.6538ZM35.3157 43.1316C35.3157 43.767 35.1239 44.154 34.7421 44.2928C34.3603 44.4315 33.817 44.3167 33.1123 43.9502L32.5957 43.6814V45.7845L31.3914 45.1577V39.2439L33.2054 40.1892C33.8949 40.5472 34.4192 40.9736 34.7763 41.4703C35.1353 41.9653 35.3157 42.5184 35.3157 43.1316" fill="#252323"/>
<path d="M36.3638 45.4589L36.6989 45.6825C37.0275 45.9004 37.2706 45.9914 37.4283 45.9497C37.5844 45.908 37.6632 45.7298 37.6632 45.4172C37.6632 45.1064 37.5844 44.8316 37.4234 44.5928C37.2641 44.3559 37.016 44.1247 36.6793 43.9011L36.3638 43.6908V45.4589ZM36.3638 46.5864V49.0973L35.3224 48.4037V41.8601L36.7532 42.8134C37.4201 43.2587 37.9146 43.7495 38.2349 44.2858C38.5552 44.8221 38.7162 45.4209 38.7162 46.0804C38.7162 46.4651 38.6357 46.7551 38.4764 46.9484C38.317 47.1417 38.0919 47.2269 37.8012 47.2042C38.5404 49.1675 39.0234 50.439 39.2468 51.017L38.0903 50.2476L36.9174 46.9559L36.3638 46.5864" fill="#252323"/>
<path d="M40.5521 51.6981V45.7844L41.8602 46.4097V52.3251L40.5521 51.6981Z" fill="#252323"/>
<path d="M48.3994 56.2496L46.8098 55.3952L44.2438 49.2165L44.2083 49.1963C44.2596 50.0727 44.2852 50.69 44.2852 51.052V54.0375L43.1669 53.4367V47.0927L44.7448 47.9415L47.3068 54.0687L47.3344 54.0834C47.293 53.2383 47.2733 52.6449 47.2733 52.3031V49.3011L48.3994 49.9055V56.2496" fill="#252323"/>
<path d="M52.2216 57.5576L51.1197 56.8875V51.6825L49.7084 50.8238V49.7089L53.6328 52.0944V53.2112L52.2216 52.3526V57.5576" fill="#252323"/>
<path d="M63.8375 31.6867C69.4193 33.0969 69.4193 37.54 63.8375 38.9523C62.2983 39.341 60.6681 39.341 59.1289 38.9523C53.5471 37.54 53.5471 33.0969 59.1289 31.6867C60.6681 31.2979 62.2983 31.2979 63.8375 31.6867Z" fill="#EF4BA2"/>
<path d="M60.8342 32.0538C60.1642 32.0538 59.4925 32.1338 58.841 32.2936C56.4696 32.8731 55.629 33.9322 55.629 34.6643C55.629 35.3963 56.4696 36.4572 58.841 37.0367C60.1459 37.3546 61.5243 37.3546 62.8274 37.0367C65.1987 36.4572 66.0393 35.3963 66.0393 34.6643C66.0393 33.9322 65.1987 32.8731 62.8292 32.2936H62.8274C62.1758 32.1338 61.5059 32.0538 60.8342 32.0538V32.0538ZM60.8342 39.2438C60.0027 39.2438 59.1713 39.1439 58.3637 38.9459C55.451 38.2356 53.6395 36.5953 53.6395 34.6643C53.6395 32.7351 55.451 31.0947 58.3637 30.3826C59.9789 29.9884 61.6876 29.9884 63.3046 30.3826C66.2192 31.0947 68.0289 32.7351 68.0289 34.6643C68.0289 36.5953 66.2192 38.2356 63.3027 38.9459C62.497 39.1439 61.6656 39.2438 60.8342 39.2438Z" fill="#252323"/>
<path d="M60.1743 22.2383C58.0069 22.2383 56.2499 23.9936 56.2499 26.1589V31.7143C56.2499 32.5704 57.0871 33.4265 58.7612 33.8401C59.6847 34.0685 60.664 34.0685 61.5875 33.8401C63.2616 33.4265 64.0987 32.5704 64.0987 31.7143V26.1589C64.0987 23.9936 62.3417 22.2383 60.1743 22.2383" fill="white"/>
<path d="M61.4815 22.9744C59.746 22.9744 58.3334 24.3605 58.3334 26.0635V31.889C58.3334 32.2021 58.8369 32.7905 60.2226 33.1262C61.0452 33.3242 61.9159 33.3242 62.7423 33.1262C64.128 32.7905 64.6316 32.2021 64.6316 31.889V26.0635C64.6316 24.3605 63.217 22.9744 61.4815 22.9744ZM61.4815 35.3195C60.8895 35.3195 60.2995 35.2497 59.7229 35.1101C57.1629 34.4897 56.2499 33.0394 56.2499 31.889V26.0635C56.2499 23.2327 58.5966 20.9301 61.4815 20.9301C64.3663 20.9301 66.715 23.2327 66.715 26.0635V31.889C66.715 33.0394 65.802 34.4897 63.242 35.1101C62.6654 35.2497 62.0734 35.3195 61.4815 35.3195" fill="#252323"/>
<path d="M61.4824 35.3195C60.8904 35.3195 60.3002 35.2508 59.7236 35.1136C57.163 34.5035 56.2499 33.0774 56.2499 31.9462C56.2499 30.815 57.163 29.3889 59.7236 28.7788L60.2233 30.7297C58.8354 31.0598 58.3337 31.6384 58.3337 31.9462C58.3337 32.2541 58.8354 32.8326 60.2233 33.1627C61.0461 33.3575 61.9169 33.3575 62.7435 33.1627C64.1295 32.8326 64.6331 32.2541 64.6331 31.9462C64.6331 31.6384 64.1295 31.0598 62.7416 30.7297L63.2433 28.7788C65.8038 29.3889 66.715 30.815 66.715 31.9462C66.715 33.0774 65.8038 34.5035 63.2433 35.1136C62.6666 35.2508 62.0745 35.3195 61.4824 35.3195Z" fill="#252323"/>
<path d="M65.2613 210.803L63.1762 211.845C62.9609 211.951 62.5886 211.937 62.341 211.815L60.3768 210.832C60.1292 210.709 60.1031 210.522 60.3164 210.415L62.4014 209.373C62.6148 209.265 62.9891 209.279 63.2346 209.403L65.2009 210.384C65.4464 210.508 65.4746 210.694 65.2613 210.803" fill="#252323"/>
<path d="M70.4947 213.419L68.4099 214.461C68.1946 214.568 67.8223 214.553 67.5748 214.431L65.6108 213.448C65.3633 213.324 65.3371 213.138 65.5504 213.032L67.6352 211.988C67.8485 211.882 68.2228 211.895 68.4683 212.019L70.4343 213C70.6818 213.124 70.708 213.311 70.4947 213.419" fill="#252323"/>
<path d="M65.2606 216.035L63.1759 217.077C62.9626 217.183 62.5883 217.171 62.3407 217.047L60.3767 216.064C60.1292 215.94 60.1031 215.754 60.3164 215.648L62.4011 214.606C62.6144 214.498 62.9887 214.512 63.2363 214.636L65.2003 215.619C65.4478 215.742 65.4739 215.928 65.2606 216.035Z" fill="#252323"/>
<path d="M74.4203 216.034L72.3351 217.078C72.1218 217.184 71.7494 217.17 71.5019 217.046L69.5375 216.065C69.2899 215.941 69.2638 215.755 69.4771 215.647L71.5623 214.604C71.7756 214.498 72.15 214.512 72.3955 214.634L74.3619 215.617C74.6075 215.741 74.6356 215.927 74.4203 216.034" fill="#252323"/>
<path d="M70.4953 218.651L68.4103 219.693C68.195 219.799 67.8227 219.787 67.5751 219.664L65.6109 218.681C65.3633 218.557 65.3371 218.37 65.5505 218.264L67.6355 217.222C67.8488 217.114 68.2231 217.128 68.4687 217.251L70.435 218.234C70.6805 218.357 70.7087 218.543 70.4953 218.651" fill="#252323"/>
<path d="M79.651 218.65L77.566 219.692C77.3527 219.801 76.9784 219.786 76.7328 219.662L74.7666 218.68C74.521 218.558 74.4928 218.372 74.7062 218.264L76.7932 217.221C77.0065 217.115 77.3788 217.127 77.6264 217.25L79.5906 218.234C79.8382 218.357 79.8644 218.544 79.651 218.65Z" fill="#252323"/>
<path d="M74.4213 221.268L72.3361 222.31C72.1228 222.417 71.7505 222.402 71.5029 222.28L69.5365 221.297C69.2909 221.173 69.2628 220.987 69.4781 220.881L71.5632 219.837C71.7766 219.731 72.149 219.744 72.3965 219.868L74.3609 220.849C74.6085 220.973 74.6346 221.16 74.4213 221.268" fill="#252323"/>
<path d="M83.5733 221.267L81.4881 222.309C81.2748 222.417 80.9004 222.403 80.6549 222.279L78.6885 221.297C78.443 221.173 78.4148 220.986 78.6301 220.88L80.7153 219.838C80.9286 219.731 81.301 219.744 81.5485 219.867L83.5129 220.85C83.7605 220.974 83.7866 221.16 83.5733 221.267" fill="#252323"/>
<path d="M79.65 223.882L77.5653 224.926C77.352 225.033 76.9797 225.019 76.7322 224.895L74.7662 223.914C74.5207 223.79 74.4925 223.603 74.7078 223.496L76.7926 222.453C77.0059 222.347 77.3782 222.361 77.6257 222.483L79.5917 223.466C79.8372 223.59 79.8653 223.776 79.65 223.882Z" fill="#252323"/>
<path d="M88.8074 218.651L86.7224 219.694C86.509 219.8 86.1347 219.786 85.8891 219.664L83.9229 218.681C83.6773 218.558 83.6492 218.371 83.8625 218.265L85.9475 217.22C86.1629 217.114 86.5352 217.128 86.7828 217.252L88.747 218.233C88.9945 218.357 89.0207 218.543 88.8074 218.651" fill="#252323"/>
<path d="M94.0371 216.035L91.9523 217.076C91.739 217.184 91.3648 217.171 91.1193 217.047L89.1532 216.064C88.9057 215.942 88.8796 215.755 89.0929 215.647L91.1776 214.605C91.3929 214.499 91.7652 214.511 92.0127 214.635L93.9767 215.618C94.2242 215.741 94.2504 215.928 94.0371 216.035" fill="#252323"/>
<path d="M97.9638 213.419L95.8791 214.46C95.6657 214.567 95.2914 214.555 95.0439 214.431L93.0799 213.448C92.8324 213.324 92.8062 213.137 93.0195 213.031L95.1043 211.989C95.3176 211.882 95.6919 211.895 95.9394 212.019L97.9034 213.002C98.1509 213.124 98.1771 213.312 97.9638 213.419Z" fill="#252323"/>
<path d="M103.198 210.801L101.113 211.845C100.9 211.952 100.526 211.937 100.278 211.813L98.314 210.832C98.0665 210.708 98.0403 210.522 98.2536 210.414L100.338 209.372C100.552 209.266 100.926 209.279 101.171 209.401L103.137 210.384C103.385 210.508 103.411 210.695 103.198 210.801" fill="#252323"/>
<path d="M107.121 206.877L105.036 207.919C104.82 208.028 104.448 208.013 104.201 207.889L102.236 206.907C101.989 206.783 101.963 206.597 102.176 206.491L104.261 205.448C104.474 205.342 104.849 205.354 105.094 205.477L107.06 206.461C107.306 206.584 107.334 206.771 107.121 206.877" fill="#252323"/>
<path d="M112.353 204.262L110.268 205.304C110.055 205.41 109.682 205.397 109.435 205.274L107.47 204.292C107.223 204.168 107.197 203.981 107.41 203.875L109.495 202.831C109.708 202.725 110.083 202.739 110.328 202.862L112.295 203.844C112.54 203.967 112.569 204.154 112.353 204.262" fill="#252323"/>
<path d="M117.583 201.645L115.498 202.687C115.284 202.795 114.912 202.781 114.664 202.657L112.7 201.674C112.453 201.552 112.426 201.366 112.64 201.258L114.725 200.216C114.938 200.109 115.311 200.122 115.558 200.245L117.525 201.229C117.77 201.352 117.798 201.538 117.583 201.645" fill="#252323"/>
<path d="M121.515 199.029L119.43 200.071C119.216 200.178 118.844 200.165 118.597 200.041L116.63 199.058C116.385 198.935 116.356 198.748 116.572 198.642L118.657 197.6C118.87 197.492 119.243 197.506 119.49 197.63L121.455 198.613C121.702 198.735 121.728 198.922 121.515 199.029" fill="#252323"/>
<path d="M126.745 196.412L124.659 197.456C124.446 197.562 124.072 197.548 123.826 197.425L121.86 196.443C121.614 196.319 121.586 196.133 121.801 196.025L123.887 194.983C124.1 194.876 124.472 194.89 124.72 195.012L126.684 195.995C126.932 196.119 126.958 196.305 126.745 196.412" fill="#252323"/>
<path d="M131.979 193.796L129.894 194.838C129.68 194.946 129.306 194.932 129.06 194.809L127.094 193.826C126.849 193.702 126.82 193.515 127.034 193.409L129.119 192.367C129.334 192.261 129.706 192.273 129.954 192.396L131.918 193.379C132.166 193.503 132.192 193.69 131.979 193.796" fill="#252323"/>
<path d="M135.901 191.181L133.816 192.223C133.603 192.329 133.229 192.316 132.983 192.194L131.017 191.211C130.77 191.087 130.743 190.9 130.957 190.794L133.041 189.749C133.257 189.643 133.629 189.658 133.877 189.782L135.841 190.763C136.088 190.887 136.114 191.072 135.901 191.181" fill="#252323"/>
<path d="M141.135 188.564L139.05 189.606C138.837 189.713 138.463 189.7 138.215 189.576L136.251 188.593C136.004 188.471 135.978 188.285 136.191 188.176L138.276 187.134C138.489 187.028 138.863 187.04 139.111 187.164L141.075 188.147C141.322 188.271 141.348 188.458 141.135 188.564Z" fill="#252323"/>
<path d="M145.057 185.948L142.973 186.99C142.757 187.096 142.385 187.084 142.138 186.96L140.174 185.977C139.926 185.854 139.9 185.667 140.113 185.56L142.198 184.519C142.411 184.411 142.785 184.424 143.031 184.548L144.997 185.531C145.244 185.653 145.271 185.842 145.057 185.948" fill="#252323"/>
<path d="M150.288 183.33L148.203 184.375C147.987 184.481 147.615 184.467 147.367 184.343L145.403 183.362C145.156 183.238 145.129 183.052 145.343 182.944L147.428 181.901C147.641 181.795 148.016 181.809 148.261 181.931L150.227 182.914C150.473 183.037 150.501 183.224 150.288 183.33" fill="#252323"/>
<path d="M155.52 179.406L153.435 180.449C153.222 180.557 152.849 180.543 152.602 180.419L150.637 179.436C150.39 179.312 150.364 179.126 150.577 179.02L152.662 177.977C152.875 177.871 153.25 177.883 153.495 178.007L155.462 178.99C155.707 179.114 155.735 179.3 155.52 179.406" fill="#252323"/>
<path d="M88.8074 223.884L86.7226 224.925C86.5093 225.032 86.135 225.02 85.8895 224.896L83.9235 223.913C83.676 223.789 83.6499 223.603 83.8632 223.496L85.9479 222.454C86.1612 222.347 86.5355 222.36 86.783 222.484L88.747 223.467C88.9946 223.59 89.0207 223.777 88.8074 223.884" fill="#252323"/>
<path d="M92.7341 221.268L90.6493 222.31C90.436 222.417 90.0617 222.403 89.8142 222.279L87.8502 221.298C87.6027 221.174 87.5765 220.987 87.7898 220.88L89.8746 219.837C90.0879 219.731 90.4622 219.744 90.7097 219.866L92.6737 220.85C92.9212 220.973 92.9474 221.16 92.7341 221.268Z" fill="#252323"/>
<path d="M97.9638 218.65L95.879 219.692C95.6637 219.801 95.2914 219.786 95.0439 219.662L93.0799 218.68C92.8324 218.556 92.8063 218.37 93.0196 218.264L95.1043 217.221C95.3176 217.115 95.6919 217.127 95.9374 217.25L97.9034 218.234C98.1509 218.357 98.1771 218.544 97.9638 218.65" fill="#252323"/>
<path d="M103.198 216.035L101.113 217.078C100.898 217.184 100.526 217.17 100.278 217.048L98.314 216.065C98.0665 215.941 98.0403 215.755 98.2536 215.648L100.339 214.606C100.552 214.498 100.926 214.512 101.172 214.635L103.138 215.619C103.384 215.74 103.412 215.927 103.198 216.035" fill="#252323"/>
<path d="M107.119 213.418L105.034 214.46C104.821 214.568 104.448 214.554 104.201 214.43L102.236 213.447C101.989 213.325 101.963 213.139 102.176 213.031L104.261 211.988C104.474 211.882 104.849 211.895 105.094 212.018L107.061 213.001C107.306 213.125 107.334 213.311 107.119 213.418" fill="#252323"/>
<path d="M112.353 209.494L110.268 210.536C110.055 210.643 109.683 210.63 109.435 210.507L107.469 209.524C107.224 209.4 107.196 209.213 107.411 209.107L109.496 208.065C109.709 207.957 110.081 207.971 110.329 208.095L112.295 209.078C112.54 209.2 112.568 209.387 112.353 209.494Z" fill="#252323"/>
<path d="M117.584 206.879L115.499 207.921C115.285 208.027 114.911 208.013 114.665 207.889L112.699 206.908C112.454 206.784 112.425 206.598 112.641 206.49L114.726 205.448C114.939 205.342 115.312 205.355 115.559 205.477L117.523 206.46C117.771 206.584 117.797 206.771 117.584 206.879" fill="#252323"/>
<path d="M121.515 204.261L119.43 205.303C119.217 205.411 118.842 205.397 118.597 205.273L116.63 204.291C116.385 204.167 116.357 203.98 116.57 203.874L118.655 202.832C118.87 202.726 119.243 202.738 119.49 202.861L121.455 203.844C121.702 203.968 121.728 204.154 121.515 204.261" fill="#252323"/>
<path d="M126.745 201.646L124.66 202.688C124.447 202.794 124.072 202.781 123.827 202.659L121.861 201.676C121.613 201.552 121.587 201.365 121.8 201.259L123.885 200.216C124.1 200.108 124.473 200.122 124.72 200.246L126.684 201.228C126.932 201.352 126.958 201.537 126.745 201.646" fill="#252323"/>
<path d="M130.671 199.029L128.587 200.07C128.373 200.179 127.999 200.165 127.751 200.041L125.787 199.058C125.54 198.936 125.514 198.75 125.727 198.641L127.812 197.599C128.025 197.493 128.399 197.505 128.647 197.629L130.611 198.612C130.858 198.736 130.885 198.923 130.671 199.029Z" fill="#252323"/>
<path d="M135.901 196.413L133.816 197.455C133.603 197.561 133.229 197.549 132.981 197.425L131.017 196.442C130.77 196.318 130.743 196.133 130.957 196.026L133.041 194.984C133.255 194.876 133.629 194.89 133.875 195.014L135.841 195.996C136.088 196.118 136.114 196.307 135.901 196.413" fill="#252323"/>
<path d="M141.136 193.797L139.051 194.84C138.835 194.946 138.463 194.932 138.215 194.808L136.251 193.827C136.004 193.703 135.978 193.517 136.191 193.409L138.276 192.366C138.489 192.26 138.864 192.274 139.109 192.396L141.075 193.379C141.321 193.503 141.349 193.689 141.136 193.797" fill="#252323"/>
<path d="M145.056 191.179L142.971 192.222C142.758 192.33 142.385 192.316 142.138 192.192L140.174 191.209C139.926 191.085 139.9 190.899 140.113 190.793L142.198 189.75C142.412 189.644 142.786 189.657 143.032 189.78L144.998 190.763C145.244 190.887 145.272 191.073 145.056 191.179" fill="#252323"/>
<path d="M150.286 188.564L148.201 189.607C147.987 189.713 147.615 189.7 147.368 189.577L145.403 188.594C145.156 188.47 145.129 188.284 145.343 188.178L147.428 187.135C147.641 187.027 148.014 187.041 148.261 187.165L150.228 188.146C150.473 188.27 150.501 188.457 150.286 188.564" fill="#252323"/>
<path d="M155.521 185.947L153.436 186.989C153.223 187.097 152.85 187.083 152.603 186.96L150.636 185.977C150.391 185.855 150.363 185.668 150.578 185.56L152.663 184.519C152.876 184.412 153.249 184.424 153.496 184.548L155.461 185.531C155.708 185.655 155.734 185.841 155.521 185.947" fill="#252323"/>
<path d="M159.443 182.024L157.358 183.066C157.145 183.172 156.771 183.16 156.525 183.036L154.559 182.053C154.313 181.93 154.285 181.743 154.5 181.636L156.585 180.595C156.799 180.486 157.171 180.5 157.419 180.624L159.383 181.607C159.631 181.729 159.657 181.917 159.443 182.024" fill="#252323"/>
<path d="M159.443 176.791L157.358 177.833C157.145 177.94 156.772 177.927 156.525 177.803L154.559 176.82C154.313 176.696 154.285 176.51 154.5 176.403L156.585 175.361C156.799 175.255 157.171 175.267 157.418 175.391L159.385 176.374C159.63 176.498 159.657 176.684 159.443 176.791Z" fill="#252323"/>
<path d="M5.08733 175.482L3.00217 176.524C2.78883 176.632 2.4165 176.618 2.16894 176.495L0.204557 175.512C-0.0430034 175.39 -0.0691781 175.204 0.144167 175.095L2.22933 174.053C2.44268 173.947 2.81701 173.959 3.06256 174.083L5.02896 175.066C5.27451 175.189 5.30269 175.376 5.08733 175.482" fill="#252323"/>
<path d="M10.3187 178.098L8.2337 179.14C8.01836 179.249 7.64605 179.234 7.39851 179.111L5.43425 178.128C5.18671 178.004 5.16053 177.818 5.37386 177.711L7.45889 176.669C7.67223 176.563 8.04654 176.575 8.29207 176.699L10.2583 177.681C10.5039 177.805 10.5321 177.992 10.3187 178.098" fill="#252323"/>
<path d="M5.08837 180.714L3.00361 181.758C2.78829 181.865 2.41603 181.85 2.16852 181.727L0.204517 180.745C-0.0429951 180.622 -0.0691648 180.436 0.144139 180.327L2.22885 179.285C2.44216 179.179 2.81647 179.193 3.06197 179.315L5.02799 180.297C5.2755 180.421 5.30167 180.608 5.08837 180.714" fill="#252323"/>
<path d="M14.2489 180.716L12.1638 181.758C11.9505 181.864 11.5782 181.852 11.3306 181.728L9.36428 180.745C9.11874 180.622 9.09055 180.435 9.3059 180.328L11.3909 179.287C11.6043 179.178 11.9766 179.192 12.2242 179.316L14.1905 180.299C14.4361 180.421 14.4622 180.609 14.2489 180.716Z" fill="#252323"/>
<path d="M9.014 183.331L6.92889 184.373C6.71554 184.481 6.34317 184.467 6.09561 184.343L4.13122 183.36C3.88366 183.238 3.85749 183.052 4.07083 182.943L6.156 181.902C6.36934 181.795 6.74167 181.809 6.98923 181.931L8.95562 182.914C9.20117 183.038 9.22936 183.225 9.014 183.331" fill="#252323"/>
<path d="M19.4788 183.332L17.3941 184.374C17.1808 184.48 16.8065 184.468 16.561 184.345L14.595 183.362C14.3474 183.238 14.3213 183.051 14.5346 182.945L16.6193 181.903C16.8347 181.794 17.2069 181.809 17.4544 181.932L19.4184 182.915C19.6659 183.037 19.6921 183.224 19.4788 183.332" fill="#252323"/>
<path d="M14.2491 185.947L12.1641 186.989C11.9507 187.097 11.5764 187.083 11.3309 186.96L9.3646 185.977C9.11907 185.855 9.09089 185.667 9.30422 185.56L11.3912 184.518C11.6045 184.412 11.9769 184.424 12.2244 184.548L14.1887 185.53C14.4362 185.654 14.4624 185.841 14.2491 185.947Z" fill="#252323"/>
<path d="M23.4054 185.948L21.3204 186.991C21.1071 187.097 20.7327 187.083 20.4872 186.961L18.5209 185.978C18.2754 185.854 18.2472 185.668 18.4606 185.561L20.5456 184.517C20.7609 184.411 21.1332 184.425 21.3808 184.548L23.345 185.53C23.5926 185.654 23.6188 185.84 23.4054 185.948" fill="#252323"/>
<path d="M19.4788 188.564L17.3936 189.606C17.1803 189.713 16.8059 189.7 16.5604 189.577L14.594 188.594C14.3484 188.47 14.3203 188.283 14.5356 188.177L16.6207 187.134C16.8341 187.028 17.2064 187.04 17.454 187.164L19.4184 188.147C19.666 188.271 19.6921 188.458 19.4788 188.564" fill="#252323"/>
<path d="M28.6351 183.331L26.5504 184.373C26.3371 184.481 25.9628 184.467 25.7173 184.343L23.7513 183.36C23.5038 183.239 23.4776 183.05 23.6909 182.944L25.7756 181.902C25.991 181.796 26.3633 181.808 26.6108 181.932L28.5748 182.915C28.8223 183.039 28.8484 183.225 28.6351 183.331" fill="#252323"/>
<path d="M32.5618 180.715L30.4771 181.758C30.2638 181.864 29.8895 181.852 29.642 181.728L27.678 180.745C27.4305 180.621 27.4043 180.435 27.6176 180.328L29.7024 179.286C29.9157 179.179 30.2899 179.192 30.5374 179.316L32.5014 180.299C32.749 180.421 32.7751 180.607 32.5618 180.715Z" fill="#252323"/>
<path d="M28.6352 188.563L26.5504 189.607C26.3371 189.713 25.9628 189.699 25.7153 189.576L23.7513 188.594C23.5038 188.47 23.4776 188.285 23.6909 188.176L25.7756 187.134C25.9889 187.028 26.3633 187.041 26.6088 187.163L28.5748 188.146C28.8223 188.27 28.8485 188.457 28.6352 188.563" fill="#252323"/>
<path d="M32.5618 185.947L30.4771 186.99C30.2617 187.096 29.8895 187.084 29.642 186.961L27.678 185.977C27.4305 185.853 27.4043 185.667 27.6176 185.56L29.7024 184.518C29.9157 184.412 30.2899 184.424 30.5354 184.547L32.5014 185.531C32.749 185.655 32.7751 185.841 32.5618 185.947" fill="#252323"/>
<path d="M37.7922 183.332L35.7072 184.374C35.4918 184.48 35.1195 184.467 34.8719 184.345L32.9077 183.362C32.6601 183.238 32.634 183.051 32.8473 182.945L34.9323 181.901C35.1457 181.795 35.52 181.809 35.7655 181.933L37.7318 182.914C37.9774 183.038 38.0055 183.224 37.7922 183.332" fill="#252323"/>
<path d="M41.7138 185.946L39.6286 186.991C39.4153 187.097 39.0409 187.083 38.7954 186.96L36.829 185.978C36.5834 185.854 36.5552 185.668 36.7706 185.56L38.8558 184.517C39.0691 184.411 39.4414 184.425 39.689 184.547L41.6534 185.53C41.9009 185.654 41.9271 185.84 41.7138 185.946" fill="#252323"/>
<path d="M37.7905 188.564L35.7054 189.607C35.4921 189.713 35.1198 189.7 34.8722 189.577L32.9059 188.594C32.6603 188.47 32.6342 188.284 32.8475 188.177L34.9325 187.135C35.1459 187.027 35.5182 187.041 35.7658 187.165L37.7321 188.148C37.9777 188.27 38.0058 188.458 37.7905 188.564Z" fill="#252323"/>
<path d="M46.9469 188.563L44.8621 189.606C44.6488 189.714 44.2766 189.7 44.0291 189.576L42.063 188.593C41.8175 188.471 41.7894 188.284 42.0047 188.177L44.0894 187.134C44.3027 187.028 44.675 187.04 44.9225 187.164L46.8885 188.147C47.134 188.271 47.1622 188.457 46.9469 188.563Z" fill="#252323"/>
<path d="M41.7128 191.181L39.6276 192.223C39.4143 192.33 39.0419 192.315 38.7944 192.193L36.83 191.21C36.5824 191.086 36.5562 190.9 36.7696 190.794L38.8547 189.751C39.0681 189.643 39.4424 189.657 39.688 189.781L41.6544 190.762C41.8999 190.886 41.9281 191.073 41.7128 191.181" fill="#252323"/>
<path d="M50.8745 191.18L48.7895 192.221C48.5761 192.33 48.2018 192.316 47.9563 192.192L45.99 191.209C45.7445 191.085 45.7163 190.899 45.9296 190.793L48.0146 189.75C48.23 189.644 48.6023 189.656 48.8499 189.78L50.8141 190.763C51.0617 190.887 51.0878 191.073 50.8745 191.18" fill="#252323"/>
<path d="M46.9479 193.797L44.8628 194.84C44.6494 194.946 44.275 194.932 44.0295 194.808L42.0631 193.827C41.8175 193.703 41.7893 193.517 42.0047 193.408L44.0899 192.366C44.3032 192.26 44.6755 192.274 44.9231 192.397L46.8875 193.379C47.135 193.502 47.1612 193.689 46.9479 193.797" fill="#252323"/>
<path d="M56.1042 193.797L54.0195 194.839C53.8062 194.945 53.4319 194.933 53.1844 194.809L51.2204 193.827C50.9729 193.703 50.9467 193.516 51.16 193.41L53.2448 192.368C53.4581 192.259 53.8323 192.274 54.0778 192.397L56.0439 193.38C56.2914 193.504 56.3175 193.69 56.1042 193.797" fill="#252323"/>
<path d="M50.8745 196.412L48.7898 197.454C48.5765 197.563 48.2022 197.548 47.9547 197.424L45.9907 196.443C45.7432 196.319 45.717 196.133 45.9303 196.025L48.0151 194.983C48.2284 194.876 48.6026 194.89 48.8501 195.012L50.8142 195.995C51.0617 196.119 51.0878 196.306 50.8745 196.412" fill="#252323"/>
<path d="M60.0309 196.413L57.9461 197.455C57.7328 197.561 57.3586 197.549 57.1111 197.425L55.1471 196.443C54.8995 196.319 54.8734 196.132 55.0867 196.026L57.1714 194.984C57.3847 194.876 57.759 194.89 58.0065 195.013L59.9705 195.996C60.218 196.118 60.2442 196.305 60.0309 196.413Z" fill="#252323"/>
<path d="M56.1042 199.028L54.0195 200.071C53.8062 200.179 53.4319 200.165 53.1864 200.041L51.2204 199.058C50.9729 198.936 50.9467 198.748 51.16 198.642L53.2447 197.599C53.46 197.493 53.8323 197.505 54.0799 197.629L56.0439 198.612C56.2914 198.736 56.3175 198.922 56.1042 199.028" fill="#252323"/>
<path d="M60.0316 201.645L57.9466 202.687C57.7312 202.794 57.3589 202.782 57.1113 202.658L55.1471 201.675C54.8995 201.551 54.8734 201.364 55.0867 201.258L57.1717 200.216C57.3851 200.109 57.7594 200.122 58.0049 200.246L59.9712 201.229C60.2167 201.352 60.2449 201.539 60.0316 201.645" fill="#252323"/>
</svg>
