<svg width="155" height="223" viewBox="0 0 155 223" fill="none" xmlns="http://www.w3.org/2000/svg">
<path d="M73.6472 117.118L71.9273 118.11C71.7508 118.212 71.4432 118.199 71.24 118.081L69.6191 117.145C69.4158 117.027 69.3918 116.851 69.5683 116.749L71.288 115.757C71.4646 115.652 71.7748 115.666 71.9781 115.783L73.599 116.72C73.8023 116.837 73.8237 117.017 73.6472 117.118" fill="#1A162C"/>
<path d="M77.8639 114.681L76.144 115.674C75.9675 115.778 75.66 115.765 75.4567 115.647L73.8358 114.711C73.6299 114.593 73.6085 114.414 73.785 114.315L75.5048 113.32C75.6813 113.218 75.9889 113.232 76.1948 113.349L77.8157 114.286C78.019 114.403 78.0404 114.58 77.8639 114.681" fill="#1A162C"/>
<path d="M82.4023 107.535L80.6799 108.527C80.506 108.629 80.1958 108.615 79.9925 108.498L78.3716 107.561C78.1684 107.446 78.1469 107.267 78.3234 107.166L80.0433 106.171C80.2198 106.069 80.5274 106.082 80.7307 106.2L82.3515 107.136C82.5548 107.254 82.5789 107.433 82.4023 107.535Z" fill="#1A162C"/>
<path d="M82.1798 112.28L80.46 113.272C80.2835 113.376 79.9758 113.363 79.7726 113.245L78.1518 112.309C77.9486 112.192 77.9244 112.012 78.1009 111.911L79.8235 110.918C79.9974 110.817 80.3076 110.83 80.5109 110.948L82.1317 111.884C82.335 112.002 82.3563 112.178 82.1798 112.28" fill="#1A162C"/>
<path d="M8.4157 151.448L6.69322 152.44C6.51669 152.542 6.20915 152.531 6.00587 152.413L4.385 151.477C4.18172 151.359 4.15767 151.18 4.3342 151.079L6.05667 150.086C6.2332 149.985 6.54075 149.998 6.74402 150.116L8.36489 151.052C8.56817 151.169 8.59223 151.346 8.4157 151.448" fill="#1A162C"/>
<path d="M12.418 153.759L10.6982 154.754C10.5216 154.855 10.2141 154.842 10.0108 154.724L8.38996 153.788C8.18401 153.67 8.16262 153.491 8.33915 153.389L10.059 152.397C10.2355 152.295 10.5432 152.309 10.7491 152.427L12.3699 153.363C12.5731 153.48 12.5946 153.657 12.418 153.759" fill="#1A162C"/>
<path d="M8.20132 156.195L6.48159 157.188C6.30506 157.289 5.99739 157.276 5.79411 157.158L4.17324 156.222C3.96996 156.104 3.94591 155.928 4.12243 155.826L5.8423 154.831C6.01883 154.73 6.32911 154.743 6.53239 154.861L8.15326 155.797C8.35654 155.914 8.37785 156.091 8.20132 156.195" fill="#1A162C"/>
<path d="M16.6581 156.206L14.9384 157.198C14.7618 157.3 14.4542 157.287 14.2509 157.169L12.6274 156.233C12.4241 156.115 12.4027 155.938 12.5792 155.837L14.2991 154.842C14.4756 154.74 14.7832 154.754 14.9864 154.871L16.61 155.807C16.8133 155.925 16.8346 156.104 16.6581 156.206Z" fill="#1A162C"/>
<path d="M12.4327 158.64L10.713 159.632C10.5364 159.734 10.2288 159.723 10.0255 159.606L8.402 158.669C8.19873 158.552 8.17728 158.372 8.35381 158.271L10.0737 157.279C10.2502 157.177 10.5577 157.188 10.761 157.305L12.3846 158.241C12.5879 158.359 12.6092 158.538 12.4327 158.64Z" fill="#1A162C"/>
<path d="M20.6622 158.517L18.9397 159.509C18.7658 159.611 18.4556 159.597 18.2523 159.48L16.6315 158.544C16.4282 158.426 16.4067 158.249 16.5833 158.148L18.3031 157.153C18.4797 157.051 18.7872 157.065 18.9905 157.182L20.6114 158.118C20.8146 158.236 20.8387 158.415 20.6622 158.517Z" fill="#1A162C"/>
<path d="M16.4367 160.951L14.7169 161.943C14.5403 162.045 14.2329 162.034 14.0269 161.916L12.406 160.98C12.2028 160.863 12.1813 160.683 12.3578 160.582L14.0777 159.59C14.2542 159.488 14.5618 159.501 14.7651 159.619L16.3859 160.555C16.5919 160.673 16.6133 160.849 16.4367 160.951" fill="#1A162C"/>
<path d="M24.6555 160.828L22.9356 161.82C22.7591 161.922 22.4515 161.908 22.2482 161.791L20.6274 160.855C20.4241 160.737 20.4 160.56 20.5766 160.459L22.2964 159.466C22.473 159.365 22.7806 159.375 22.9865 159.493L24.6073 160.429C24.8105 160.547 24.832 160.726 24.6555 160.828" fill="#1A162C"/>
<path d="M20.4424 163.262L18.7198 164.257C18.5433 164.358 18.2357 164.345 18.0325 164.227L16.4116 163.291C16.2083 163.174 16.1842 162.994 16.3608 162.893L18.0833 161.9C18.2571 161.799 18.5675 161.812 18.7707 161.93L20.3915 162.866C20.5947 162.984 20.6163 163.16 20.4424 163.262Z" fill="#1A162C"/>
<path d="M4.41018 149.014L2.69044 150.006C2.51391 150.108 2.20624 150.094 2.00296 149.977L0.379479 149.04C0.176204 148.923 0.154759 148.746 0.331288 148.644L2.05116 147.65C2.22768 147.548 2.53523 147.561 2.7385 147.679L4.35937 148.615C4.56532 148.733 4.58671 148.912 4.41018 149.014Z" fill="#1A162C"/>
<path d="M4.19842 153.759L2.47855 154.754C2.30202 154.855 1.99187 154.842 1.78859 154.724L0.167718 153.788C-0.035558 153.67 -0.0570024 153.491 0.119527 153.389L1.83939 152.397C2.01592 152.295 2.32346 152.309 2.52674 152.427L4.14761 153.363C4.35089 153.48 4.37494 153.657 4.19842 153.759" fill="#1A162C"/>
<path d="M53.7821 158.279L52.0624 159.271C51.8859 159.376 51.5782 159.362 51.3749 159.244L49.7514 158.308C49.5482 158.191 49.5267 158.011 49.7032 157.91L51.4231 156.917C51.5996 156.816 51.9072 156.829 52.1104 156.947L53.7341 157.883C53.9373 158.001 53.9587 158.177 53.7821 158.279" fill="#1A162C"/>
<path d="M57.791 160.59L56.0711 161.585C55.8946 161.686 55.587 161.673 55.381 161.555L53.7603 160.619C53.557 160.502 53.5356 160.322 53.7121 160.221L55.432 159.228C55.6085 159.127 55.916 159.14 56.1193 159.258L57.7402 160.194C57.9434 160.312 57.9675 160.488 57.791 160.59" fill="#1A162C"/>
<path d="M53.5655 163.026L51.8457 164.019C51.6691 164.12 51.3616 164.107 51.1583 163.989L49.5348 163.053C49.3316 162.935 49.3101 162.759 49.4867 162.657L51.2065 161.662C51.383 161.561 51.6906 161.574 51.8939 161.692L53.5174 162.628C53.7206 162.746 53.7421 162.925 53.5655 163.026Z" fill="#1A162C"/>
<path d="M57.8054 165.471L56.0857 166.463C55.9091 166.565 55.5989 166.554 55.3956 166.437L53.7747 165.501C53.5714 165.383 53.55 165.204 53.7265 165.102L55.4464 164.11C55.6229 164.008 55.9305 164.021 56.1337 164.136L57.7546 165.073C57.9579 165.19 57.9819 165.37 57.8054 165.471" fill="#1A162C"/>
<path d="M49.7796 155.845L48.0571 156.837C47.8805 156.939 47.573 156.925 47.3697 156.808L45.7489 155.872C45.5456 155.754 45.5215 155.577 45.6981 155.476L47.4205 154.481C47.5971 154.379 47.9046 154.393 48.1079 154.51L49.7288 155.446C49.932 155.564 49.9534 155.743 49.7796 155.845Z" fill="#1A162C"/>
<path d="M49.5604 160.59L47.8407 161.585C47.6641 161.686 47.3565 161.673 47.1532 161.555L45.5323 160.619C45.329 160.502 45.305 160.322 45.4815 160.221L47.2014 159.228C47.3779 159.127 47.6855 159.14 47.8915 159.258L49.5123 160.194C49.7156 160.312 49.7369 160.488 49.5604 160.59" fill="#1A162C"/>
<path d="M28.8964 163.272L27.1767 164.267C27.0001 164.369 26.6925 164.356 26.4892 164.238L24.8657 163.302C24.6624 163.184 24.641 163.005 24.8175 162.903L26.5374 161.911C26.7139 161.809 27.0215 161.823 27.2247 161.94L28.8484 162.877C29.0516 162.994 29.0729 163.171 28.8964 163.272Z" fill="#1A162C"/>
<path d="M24.6803 165.709L22.9606 166.701C22.7841 166.803 22.4764 166.79 22.2731 166.672L20.6524 165.736C20.4464 165.618 20.4249 165.442 20.6015 165.34L22.3213 164.345C22.4979 164.243 22.8055 164.257 23.0114 164.374L24.6323 165.31C24.8356 165.428 24.8569 165.607 24.6803 165.709" fill="#1A162C"/>
<path d="M33.1122 160.838L31.3925 161.831C31.2159 161.932 30.9083 161.919 30.705 161.801L29.0815 160.865C28.8782 160.747 28.8568 160.571 29.0333 160.469L30.7532 159.477C30.9297 159.375 31.2373 159.386 31.4405 159.504L33.0641 160.44C33.2674 160.558 33.2887 160.737 33.1122 160.838" fill="#1A162C"/>
<path d="M37.328 158.402L35.6083 159.397C35.4317 159.499 35.1241 159.485 34.9182 159.367L33.2973 158.431C33.094 158.314 33.0726 158.137 33.2491 158.035L34.969 157.04C35.1455 156.939 35.453 156.952 35.6563 157.07L37.2772 158.006C37.4831 158.124 37.5045 158.3 37.328 158.402" fill="#1A162C"/>
<path d="M41.5534 155.968L39.8337 156.96C39.6572 157.062 39.3469 157.051 39.1436 156.933L37.5227 155.997C37.3195 155.88 37.298 155.7 37.4745 155.599L39.1944 154.606C39.3709 154.505 39.6785 154.518 39.8818 154.633L41.5026 155.569C41.7059 155.687 41.73 155.866 41.5534 155.968" fill="#1A162C"/>
<path d="M45.7707 153.534L44.0482 154.526C43.8717 154.628 43.5642 154.614 43.3609 154.497L41.74 153.561C41.5367 153.443 41.5127 153.266 41.6892 153.165L43.4117 152.17C43.5882 152.068 43.8958 152.081 44.099 152.199L45.7199 153.135C45.9232 153.253 45.9472 153.432 45.7707 153.534Z" fill="#1A162C"/>
<path d="M32.9005 165.583L31.1806 166.578C31.0041 166.68 30.6965 166.667 30.4905 166.549L28.8698 165.613C28.6665 165.495 28.6451 165.319 28.8216 165.214L30.5415 164.222C30.718 164.12 31.0255 164.134 31.2288 164.251L32.8497 165.188C33.0529 165.305 33.077 165.482 32.9005 165.583" fill="#1A162C"/>
<path d="M37.1163 163.149L35.3938 164.142C35.2199 164.243 34.9096 164.233 34.7063 164.115L33.0856 163.179C32.8823 163.061 32.8608 162.882 33.0374 162.78L34.7572 161.788C34.9338 161.686 35.2413 161.697 35.4446 161.815L37.0655 162.751C37.2687 162.868 37.2928 163.048 37.1163 163.149Z" fill="#1A162C"/>
<path d="M41.3336 160.713L39.6111 161.708C39.4346 161.809 39.1269 161.796 38.9237 161.678L37.3029 160.742C37.0996 160.624 37.0755 160.448 37.252 160.346L38.9746 159.351C39.1511 159.25 39.4587 159.263 39.6619 159.381L41.2828 160.317C41.4861 160.435 41.5075 160.611 41.3336 160.713Z" fill="#1A162C"/>
<path d="M45.5467 158.279L43.827 159.271C43.6505 159.376 43.3428 159.362 43.1395 159.244L41.5186 158.308C41.3154 158.191 41.2913 158.011 41.4678 157.91L43.1877 156.917C43.3642 156.816 43.6745 156.829 43.8778 156.947L45.4987 157.883C45.7019 158.001 45.7233 158.177 45.5467 158.279" fill="#1A162C"/>
<path d="M51.8992 142.442C51.8992 142.41 51.811 112.638 51.8083 111.817C51.8083 111.731 51.7494 111.664 51.6665 111.643L29.2581 113.721C29.242 113.719 29.226 113.713 29.2126 113.703L27.1183 101.346C27.0595 101.311 26.9873 101.311 26.9284 101.346L6.32805 113.251C6.28258 113.277 6.22901 113.283 6.18086 113.269L2.2331 112.183C2.11006 112.151 1.9924 112.237 1.9924 112.363C1.99775 113.371 2.09669 142.675 2.10472 142.787L2.11007 142.819C2.18229 143.483 2.52994 144.116 3.18791 144.496L24.0183 156.489C25.7916 157.514 27.9769 157.509 29.7476 156.479L50.8053 144.309C51.5114 143.897 51.8671 143.194 51.8939 142.477L51.8992 142.442" fill="#EF4BA2"/>
<path d="M2.89309 113.301C2.89844 114.561 2.90649 116.944 2.91451 119.836C2.94393 128.274 2.9947 142.402 3.00005 142.76C3.02947 142.974 3.14719 143.437 3.63398 143.718L24.4644 155.708C25.9568 156.572 27.805 156.567 29.2921 155.7L50.3499 143.528C50.7377 143.303 50.9732 142.907 50.9919 142.445L51.8959 142.442L50.9945 142.445C50.9945 142.335 50.9223 117.46 50.9062 112.617L29.1558 114.633L28.7786 114.494L28.3962 114.286L26.4275 102.672L6.77399 114.031C6.5199 114.176 6.22572 114.216 5.9422 114.138L2.89309 113.301ZM26.8716 158.153C25.7295 158.153 24.5848 157.859 23.5657 157.268L2.73533 145.277C1.87408 144.78 1.32037 143.921 1.21071 142.915C1.20001 142.79 1.19737 142.75 1.11445 119.841C1.10108 115.757 1.09036 112.683 1.08768 112.368C1.08501 112.031 1.23742 111.713 1.50756 111.504C1.78038 111.295 2.13346 111.226 2.46512 111.317L6.13209 112.322L26.4757 100.564C26.8047 100.372 27.2273 100.369 27.567 100.567L27.9335 100.778L29.9608 112.753L51.7461 110.731L51.9066 110.774C52.3827 110.907 52.7037 111.327 52.7037 111.817C52.7063 112.635 52.7946 142.41 52.7946 142.442L52.7839 142.578C52.7491 143.587 52.1741 144.55 51.254 145.085L30.1935 157.257C29.1718 157.853 28.0217 158.153 26.8716 158.153" fill="#1A162C"/>
<path d="M51.6597 111.648L29.2513 113.732C29.2352 113.727 29.2192 113.719 29.2058 113.713L26.6086 121.357L26.7157 157.252C27.7588 157.281 28.8073 157.03 29.7408 156.487L50.7985 144.317C51.5046 143.905 51.8603 143.202 51.8871 142.487L51.8924 142.45C51.8924 142.418 51.8042 112.646 51.8015 111.825C51.8015 111.739 51.7426 111.672 51.6597 111.648" fill="#1A162C"/>
<path d="M27.5087 121.505L27.6129 156.3C28.2067 156.209 28.7737 156.011 29.29 155.708L50.3477 143.536C50.7355 143.311 50.971 142.915 50.9897 142.453C50.9924 142.343 50.9201 117.468 50.9041 112.625L29.8624 114.577L27.5087 121.505ZM26.8722 158.156C26.8133 158.156 26.7517 158.153 26.6928 158.153L25.8182 158.129L25.7086 121.21L28.6989 112.408L29.4318 112.809L51.744 110.739L51.9045 110.784C52.3806 110.916 52.7015 111.335 52.7015 111.825C52.7042 112.643 52.7924 142.418 52.7924 142.45C52.7469 143.595 52.1719 144.558 51.2519 145.093L30.1914 157.265C29.1937 157.848 28.049 158.156 26.8722 158.156Z" fill="#1A162C"/>
<path d="M24.0264 125.939L3.09976 113.89C1.62601 113.039 1.62326 110.916 3.09166 110.06L24.2431 97.8337C25.9549 96.8361 28.0678 96.8334 29.7823 97.823L50.7091 109.872C52.1828 110.72 52.1855 112.844 50.7171 113.7L29.5657 125.929C27.8539 126.924 25.7409 126.929 24.0264 125.939" fill="white"/>
<path d="M27.016 97.9835C26.2109 97.9835 25.4085 98.1948 24.6917 98.6094L3.53771 110.838C3.12848 111.076 2.88497 111.501 2.88497 111.975C2.88764 112.448 3.13103 112.873 3.54293 113.111L24.4697 125.158C25.9007 125.985 27.6793 125.982 29.1049 125.15L50.2589 112.922C50.6682 112.686 50.9116 112.261 50.9116 111.785C50.9089 111.311 50.6655 110.886 50.2536 110.651L29.327 98.604C28.6128 98.1894 27.8157 97.9835 27.016 97.9835ZM26.7807 127.576C25.6707 127.576 24.5607 127.29 23.571 126.718L2.64427 114.671C1.67069 114.109 1.08766 113.101 1.08766 111.977C1.08498 110.854 1.66265 109.848 2.63356 109.281L23.7877 97.0527C25.7723 95.9026 28.2383 95.8972 30.2282 97.042L51.1522 109.091C52.1258 109.653 52.709 110.659 52.709 111.782C52.7117 112.906 52.1339 113.914 51.163 114.478L30.009 126.707C29.014 127.285 27.8987 127.576 26.7807 127.576Z" fill="#1A162C"/>
<path d="M16.6246 121.553L43.9465 105.852L36.6499 101.782L9.86572 117.661L16.6246 121.553" fill="white"/>
<path d="M11.6531 117.65L16.6306 120.512L42.123 105.863L36.6693 102.819L11.6531 117.65ZM16.6306 122.591L8.08508 117.672L36.6399 100.744L45.7739 105.839L16.6306 122.591" fill="#1A162C"/>
<path d="M10.9245 105.531L37.0669 121.646L43.8151 117.744L17.5846 101.736L10.9245 105.531Z" fill="white"/>
<path d="M12.684 105.561L37.0744 120.598L42.0493 117.723L17.5627 102.779L12.684 105.561ZM37.045 122.692L9.15347 105.502L17.5947 100.693L45.5718 117.763L37.045 122.692" fill="#1A162C"/>
<path d="M17.4291 147.029L15.6263 147.024L15.7279 121.55L17.528 121.556L17.4291 147.029Z" fill="#1A162C"/>
<path d="M10.7299 128.558L8.92728 128.552L8.97534 117.656L10.7754 117.664L10.7299 128.558" fill="#1A162C"/>
<path d="M44.4344 127.975H42.6344L42.6451 120.844L44.4451 120.847L44.4344 127.975" fill="#EF4BA2"/>
<path d="M35.3032 146.355L35.2952 124.214H37.0953L37.1032 146.355H35.3032Z" fill="#EF4BA2"/>
<path d="M19.7622 138.288C19.7622 140.642 18.1092 141.594 16.0711 140.42C14.033 139.243 12.3827 136.381 12.3827 134.027C12.3827 131.674 14.033 130.722 16.0711 131.898C18.1092 133.075 19.7622 135.934 19.7622 138.288" fill="white"/>
<path d="M86.3764 165.169C86.3764 165.137 86.3792 21.9663 86.3792 21.1586C86.3792 21.073 86.3229 21.0088 86.2427 20.9847C82.4206 17.4007 70.6305 16.5634 66.8084 12.9794L52.5417 5.08637C52.4829 5.05428 52.4107 5.05428 52.3545 5.08637L51.4932 5.59995C51.4504 5.62403 51.3969 5.632 51.3488 5.61595L47.4733 4.53811C47.3529 4.50334 47.2352 4.58891 47.2352 4.71462C47.2378 5.70425 47.2458 148.415 47.2538 148.524L47.2592 148.559C47.3261 149.209 47.6657 149.835 48.313 150.209L78.3551 167.763C80.0963 168.774 82.244 168.777 83.9879 167.771L85.2958 166.998C85.9912 166.597 86.3443 165.907 86.3711 165.204L86.3764 165.169" fill="#EF4BA2"/>
<path d="M48.1257 5.65624C48.1284 9.5586 48.1284 25.1012 48.131 44.5862C48.1337 85.7309 48.1391 147.909 48.1471 148.511C48.1712 148.709 48.2834 149.158 48.7569 149.431L78.8016 166.988C80.2566 167.833 82.07 167.836 83.5277 166.993L84.8303 166.225C85.2182 166.001 85.4482 165.616 85.4643 165.169H85.4669V164.912C85.4695 150.683 85.4723 28.9206 85.4696 21.5091C83.6562 19.9417 79.9036 18.8772 76.2713 17.8475C72.2032 16.6973 68.3597 15.6087 66.2681 13.715L52.4506 6.07083L51.9452 6.37304C51.6911 6.52282 51.3835 6.56292 51.1 6.48535L48.1257 5.65624ZM81.1661 169.422C80.0347 169.422 78.9032 169.127 77.8948 168.542L47.8502 150.988C47.0024 150.496 46.4593 149.642 46.355 148.653C46.3443 148.527 46.3417 148.492 46.331 44.5862C46.3283 22.2259 46.3283 5.05711 46.3256 4.71742C46.3256 4.37239 46.4835 4.05678 46.7536 3.85083C47.0211 3.64488 47.3794 3.57803 47.7084 3.67165L51.2898 4.6693L51.8836 4.31354C52.2339 4.11294 52.6512 4.11561 52.9856 4.30819L67.4128 12.3242C69.1647 13.9665 73.027 15.0604 76.7608 16.1169C80.8156 17.2643 84.6512 18.3503 86.7454 20.2333C87.0691 20.4258 87.2723 20.7682 87.2723 21.1587C87.2723 21.9236 87.2697 150.279 87.2697 164.912L87.259 165.305C87.2188 166.303 86.6491 167.252 85.7371 167.779L84.4372 168.547C83.4262 169.13 82.2948 169.422 81.1661 169.422" fill="#1A162C"/>
<path d="M86.2439 20.9928C83.7939 21.0891 84.1497 21.0757 81.6997 21.1694L81.015 24.5528L81.0096 168.523C82.0367 168.552 83.0691 168.312 83.9891 167.779L85.2971 167.006C85.9925 166.605 86.3456 165.915 86.3723 165.212L86.3777 165.177C86.3777 165.145 86.3804 21.9744 86.3804 21.1667C86.3804 21.0811 86.3242 21.0169 86.2439 20.9928" fill="#1A162C"/>
<path d="M81.9077 24.6437L81.9051 167.571C82.4801 167.482 83.031 167.29 83.5312 167.001L84.8338 166.233C85.2216 166.009 85.4517 165.623 85.4677 165.177L85.4703 164.92C85.473 150.902 85.4757 32.526 85.4757 21.9235L82.4373 22.0412L81.9077 24.6437ZM81.1748 169.424C81.1106 169.424 81.0438 169.424 80.9769 169.421L80.1049 169.395L80.1263 24.3735L80.9529 20.2973L86.3449 20.0887L86.4814 20.1261C86.9548 20.2625 87.2757 20.6798 87.2757 21.1666C87.2757 21.9315 87.2731 150.287 87.2731 164.92V165.177C87.2223 166.311 86.6526 167.26 85.7405 167.787L84.4407 168.555C83.451 169.127 82.3275 169.424 81.1748 169.424" fill="#1A162C"/>
<path d="M50.3752 7.31449C50.3752 7.31449 50.6802 6.49335 51.0573 5.43686L47.4733 4.43653C47.3529 4.40443 47.2352 4.49 47.2352 4.61303C47.2378 5.60266 47.2458 148.316 47.2538 148.425L47.2592 148.457C47.3261 149.107 47.6657 149.733 48.313 150.11L50.3726 151.309L50.3752 7.31449" fill="#1A162C"/>
<path d="M48.1257 5.55438C48.1284 9.45674 48.1284 25.002 48.131 44.4871C48.1337 85.6317 48.1391 147.81 48.1471 148.412C48.1712 148.607 48.2834 149.059 48.7569 149.332L49.463 149.744L49.4684 7.15384L49.5245 7.00143C49.5245 7.00143 49.6663 6.61893 49.8749 6.04387L48.1257 5.55438ZM51.2658 152.87L47.8502 150.889C47.005 150.396 46.462 149.546 46.355 148.554C46.3443 148.425 46.3417 148.39 46.331 44.4871C46.3283 22.124 46.3283 4.95793 46.3256 4.61557C46.3256 4.27053 46.4807 3.9576 46.7509 3.75165C47.021 3.5457 47.3714 3.47618 47.7031 3.56979L52.2206 4.82955L51.897 5.73898C51.6135 6.53069 51.3727 7.18866 51.2684 7.47485L51.2658 152.87" fill="#1A162C"/>
<path d="M78.4427 23.8252L48.3071 6.21773C46.8628 5.37788 46.8655 3.289 48.3125 2.45182L49.7139 1.62532C51.399 0.651738 53.4772 0.654421 55.1596 1.63335L85.2953 19.2408C86.7396 20.0807 86.737 22.1695 85.29 23.0067L83.8884 23.8332C82.2033 24.8068 80.1251 24.8014 78.4427 23.8252Z" fill="white"/>
<path d="M78.8978 23.047C80.2967 23.8628 82.0354 23.8628 83.4396 23.0523L84.8331 22.2312C85.2396 21.9958 85.4776 21.584 85.4776 21.1239C85.4776 20.6639 85.2423 20.2519 84.8438 20.0192L54.7054 2.40911C53.3066 1.59601 51.5653 1.596 50.1664 2.40643L48.7703 3.22758C48.3638 3.46295 48.1257 3.87221 48.1257 4.33493C48.1257 4.79498 48.3611 5.20685 48.7596 5.43954L78.8978 23.047ZM81.1713 25.4569C80.0693 25.4569 78.9728 25.1734 77.9912 24.601L47.8529 6.99355C46.8953 6.43721 46.3256 5.44225 46.3256 4.33225C46.3283 3.22226 46.9007 2.22723 47.8636 1.67089L49.2571 0.849814C51.223 -0.284251 53.6543 -0.284246 55.6122 0.855169L85.7504 18.4652C86.7079 19.0216 87.2803 20.0165 87.2776 21.1265C87.2776 22.2365 86.7026 23.2315 85.7397 23.7852L84.3462 24.6063C83.3646 25.176 82.2679 25.4569 81.1713 25.4569" fill="#1A162C"/>
<path d="M81.6773 92.4496C81.68 92.4202 81.6773 88.2584 81.6773 87.4533C81.6773 87.3678 81.6212 87.3008 81.541 87.2794L69.0769 83.8077C69.0635 83.8024 69.0474 83.797 69.0341 83.789L47.84 71.3812C47.7811 71.3464 47.7115 71.3464 47.6527 71.3812L36.9353 77.573C36.8925 77.5998 36.8416 77.6051 36.7935 77.5918L32.9152 76.5112C32.7948 76.4791 32.6772 76.562 32.6772 76.6877C32.6799 77.6801 32.6905 81.3764 32.7012 81.4861L32.7039 81.5208C32.7734 82.1708 33.1132 82.7967 33.7578 83.1738L63.7998 100.725C65.541 101.739 67.6914 101.741 69.4327 100.733L80.5967 94.2817C81.2921 93.8805 81.6453 93.1878 81.6747 92.487L81.6773 92.4496" fill="#EF4BA2"/>
<path d="M33.5827 77.6319C33.5854 79.0414 33.5933 81.2374 33.6014 81.4433C33.6281 81.6707 33.7405 82.12 34.2139 82.3955L64.256 99.9495C65.7137 100.795 67.5244 100.797 68.9847 99.9548L80.1489 93.5008C80.5287 93.2815 80.7586 92.899 80.7774 92.4497L80.7801 92.4175C80.7801 92.1608 80.7801 90.0585 80.7801 88.6356V88.0016L68.6023 84.5781L47.7451 72.3654L37.3888 78.3541C37.124 78.4985 36.8324 78.5359 36.5542 78.4584L33.5827 77.6319ZM66.6257 102.383C65.4917 102.383 64.3576 102.092 63.3492 101.503L33.3045 83.9495C32.4593 83.4574 31.9137 82.6068 31.812 81.6145C31.7933 81.4139 31.7826 78.4477 31.7773 76.6905C31.7773 76.3454 31.9351 76.0324 32.2053 75.8265C32.4754 75.6205 32.8285 75.551 33.1575 75.6446L36.7469 76.6449L47.2049 70.6029C47.5392 70.405 47.959 70.405 48.2961 70.6029L69.41 82.9652L81.7857 86.4129C82.2618 86.5439 82.5802 86.9639 82.5802 87.4534V88.6356C82.5802 90.1655 82.5802 92.4657 82.5802 92.4897L82.5695 92.5887C82.532 93.5837 81.9623 94.5332 81.0476 95.0601L69.8861 101.511C68.8805 102.095 67.7518 102.383 66.6257 102.383" fill="#1A162C"/>
<path d="M81.5417 87.2874L69.0776 83.8157C69.0643 83.8104 69.0482 83.805 69.0348 83.797L66.4565 82.2965V101.485C67.4836 101.514 68.5133 101.273 69.4334 100.741L80.5975 94.2897C81.2929 93.8859 81.646 93.1958 81.6754 92.4924L81.678 92.4576C81.6807 92.4282 81.678 88.2663 81.678 87.4613C81.678 87.3757 81.6219 87.3088 81.5417 87.2874" fill="#1A162C"/>
<path d="M67.3592 83.8611V100.532C67.9316 100.444 68.4853 100.252 68.9854 99.9627L80.1496 93.5087C80.5294 93.2894 80.7593 92.907 80.7781 92.4576C80.7807 92.3373 80.7808 90.1226 80.7808 88.6435V88.0069L68.603 84.586L67.3592 83.8611ZM66.629 102.389C66.5622 102.389 66.498 102.386 66.4312 102.383L65.5565 102.359V80.7318L69.4081 82.9732L81.7864 86.4208C82.2625 86.5519 82.5809 86.9718 82.5809 87.4613V88.6435C82.5809 90.1708 82.5809 92.4736 82.5809 92.4977C82.5327 93.5917 81.963 94.5412 81.0483 95.0681L69.8868 101.519C68.9026 102.089 67.7791 102.389 66.629 102.389" fill="#1A162C"/>
<path d="M35.82 79.2901C35.82 79.2901 36.1222 78.469 36.502 77.4098L32.9152 76.4121C32.7948 76.3774 32.6772 76.4629 32.6772 76.586C32.6799 77.5783 32.6905 81.2773 32.7012 81.387L32.7039 81.4191C32.7734 82.0718 33.1132 82.6976 33.7578 83.0721L35.82 84.2703V79.2901" fill="#1A162C"/>
<path d="M57.0633 83.5562L67.2405 77.8164L52.412 69.2547L42.2349 74.9919L57.0633 83.5562" fill="white"/>
<path d="M44.0453 75.0027L57.0657 82.5185L65.4213 77.8058L52.4037 70.2899L44.0453 75.0027ZM57.055 84.5914L40.4158 74.984L52.4144 68.217L69.0536 77.8245L57.055 84.5914Z" fill="#1A162C"/>
<path d="M33.5827 77.5329C33.5854 78.9425 33.5933 81.1384 33.6014 81.3417C33.6281 81.5717 33.7405 82.0184 34.2139 82.2939L34.92 82.7058L34.9762 78.9745C34.9762 78.9745 35.118 78.5921 35.3266 78.0171L33.5827 77.5329ZM36.7201 85.8351L33.3071 83.8505C32.4593 83.3557 31.9137 82.5051 31.812 81.5155C31.7933 81.3149 31.7826 78.346 31.7773 76.5914C31.7773 76.2437 31.9351 75.9308 32.2079 75.7248C32.4807 75.5189 32.8365 75.4547 33.1628 75.5457L37.6749 76.8027L37.3487 77.7121C37.0678 78.5038 36.8244 79.1645 36.7201 79.4506V85.8351" fill="#1A162C"/>
<path d="M63.897 95.7983L33.7588 78.1908C32.3145 77.351 32.3171 75.262 33.7641 74.4275L45.0218 67.9201C46.7069 66.9465 48.7851 66.9492 50.4674 67.9281L80.6031 85.5355C82.0474 86.3753 82.0447 88.4643 80.5977 89.3015L69.34 95.8063C67.655 96.7799 65.5794 96.7772 63.897 95.7983" fill="white"/>
<path d="M64.3495 95.0226C65.7484 95.8357 67.4896 95.8384 68.8911 95.028L80.1489 88.5205C80.5474 88.2905 80.7855 87.8785 80.7855 87.4185C80.7855 86.9558 80.5501 86.5439 80.1515 86.3139L50.0133 68.7038C48.6171 67.8907 46.8758 67.888 45.4743 68.6984L34.2166 75.2059C33.8181 75.436 33.58 75.8478 33.5773 76.3079C33.5773 76.7679 33.8127 77.1825 34.2139 77.4125L64.3495 95.0226ZM66.6257 97.4325C65.5237 97.4325 64.4245 97.149 63.4429 96.5766L33.3045 78.9692C32.3497 78.4102 31.7773 77.4152 31.7773 76.3052C31.78 75.1952 32.355 74.2029 33.3152 73.6466L44.5729 67.1391C46.5335 66.0077 48.9647 66.013 50.9199 67.1498L81.0583 84.7599C82.0158 85.3135 82.5882 86.3112 82.5855 87.4185C82.5855 88.5285 82.0105 89.5235 81.0476 90.0798L69.7899 96.5846C68.8136 97.149 67.7197 97.4325 66.6257 97.4325" fill="#1A162C"/>
<path d="M56.2895 75.0482C56.6212 74.8931 64.4178 71.194 64.2975 66.072C64.244 63.8306 63.0243 62.9266 62.3048 62.5896C61.029 61.9904 59.3306 62.2151 58.1751 63.1325C57.2363 63.8788 56.8271 64.9299 57.0572 66.0185L58.8144 65.6468C58.7047 65.1306 59.0123 64.7587 59.2904 64.5394C59.9136 64.0473 60.8765 63.9055 61.5399 64.2131C62.3075 64.5742 62.4867 65.4462 62.5028 66.1122C62.5803 69.402 57.4958 72.5046 55.5272 73.422L56.2895 75.0482" fill="#1A162C"/>
<path d="M53.7836 78.8063C58.574 72.2052 59.0341 61.7285 59.0635 60.8378C59.0662 60.8003 59.0367 60.7762 58.9992 60.7762H48.9263H38.8536C38.8161 60.7762 38.7866 60.8003 38.7893 60.8378C38.8187 61.7285 39.2789 72.2052 44.0692 78.8063C44.2083 79.1299 44.4463 79.4428 44.7833 79.729C44.7833 79.7317 44.7859 79.7317 44.7859 79.7344C44.7859 79.7344 45.1578 80.0179 45.3798 80.149C47.3376 81.2777 50.5124 81.2777 52.4703 80.149C52.695 80.0179 52.8903 79.8788 53.0641 79.7344C53.0641 79.7344 53.0695 79.7317 53.0695 79.729C53.4065 79.4428 53.6445 79.1299 53.7836 78.8063" fill="#EF4BA2"/>
<path d="M39.4956 61.4502C39.6507 63.9029 40.4959 72.7374 44.6872 78.5388C44.7888 78.7741 44.9679 79.0042 45.1979 79.2021C45.2033 79.2048 45.5242 79.4535 45.7168 79.5658C47.4554 80.5688 50.3948 80.5688 52.136 79.5658C52.3233 79.4561 52.4865 79.3412 52.6336 79.2155C52.8824 79.0042 53.0616 78.7768 53.1686 78.5361L53.238 78.4104C57.3891 72.6893 58.2103 63.9804 58.3628 61.4502H39.4956ZM45.0428 80.7293C44.794 80.5849 44.3769 80.2693 44.3475 80.2425C43.9382 79.8948 43.636 79.5017 43.5236 79.2021C38.6397 72.4699 38.1555 62.028 38.1154 60.8698L38.1181 60.5408L38.5648 60.1049H58.9993L59.7616 60.1637L59.7376 60.8618C59.6948 62.0306 59.1946 72.4459 54.3694 79.1459C54.1795 79.5471 53.8907 79.9162 53.4975 80.2505C53.2943 80.419 53.0696 80.5795 52.8075 80.732C51.7189 81.3605 50.3253 81.6735 48.9264 81.6735C47.5302 81.6735 46.1314 81.3605 45.0428 80.7293" fill="#1A162C"/>
<path d="M50.8507 60.7869C50.8507 60.7869 52.0408 73.0182 49.2564 80.9861C50.4253 80.9406 51.5727 80.6732 52.4661 80.157C52.6907 80.0286 52.886 79.8895 53.0599 79.7424C53.0599 79.7424 53.0652 79.7397 53.0652 79.7371C53.4023 79.4535 53.6403 79.1406 53.7794 78.817C58.7864 71.9163 59.0619 60.7869 59.0619 60.7869H50.8507" fill="#1A162C"/>
<path d="M56.09 56.6384C60.0485 58.9226 60.0485 62.6298 56.09 64.9166C52.1288 67.2035 45.7096 67.2035 41.7484 64.9166C37.7899 62.6298 37.7899 58.9226 41.7484 56.6384C45.7096 54.3516 52.1288 54.3516 56.09 56.6384Z" fill="white"/>
<path d="M55.7603 57.2189C51.9917 55.0443 45.8613 55.047 42.0927 57.2189C40.3942 58.2005 39.4608 59.4629 39.4608 60.7761C39.4608 62.0894 40.3942 63.3519 42.0927 64.3335C45.8613 66.508 51.9917 66.508 55.7603 64.3335C57.4561 63.3519 58.3922 62.0894 58.3922 60.7761C58.3922 59.4629 57.4561 58.2005 55.7603 57.2189ZM41.4214 65.4997C39.2897 64.2666 38.1154 62.5922 38.1154 60.7761C38.1154 58.9627 39.2897 57.2857 41.4214 56.0553C45.5618 53.6642 52.2939 53.6642 56.4343 56.0553C58.5661 57.2857 59.7402 58.9627 59.7402 60.7761C59.7402 62.5922 58.5661 64.2666 56.4343 65.4997C54.3641 66.6952 51.6466 67.2917 48.9264 67.2917C46.209 67.2917 43.4916 66.6952 41.4214 65.4997Z" fill="#1A162C"/>
<path d="M53.8609 57.925C56.5917 59.5004 56.5917 62.0547 53.8609 63.6301C51.1327 65.2055 46.7087 65.2055 43.9779 63.6301C41.2497 62.0547 41.2497 59.5004 43.9779 57.925C46.7087 56.3469 51.1327 56.3469 53.8609 57.925Z" fill="#EF4BA2"/>
<path d="M53.5268 58.5054C50.9885 57.0424 46.8535 57.0424 44.3152 58.5054C43.2132 59.1447 42.606 59.9497 42.606 60.7762C42.606 61.6027 43.2132 62.4105 44.3152 63.0471C46.8535 64.5128 50.9858 64.5128 53.5268 63.0471C54.6288 62.4105 55.2359 61.6054 55.2359 60.7762C55.2359 59.9497 54.6288 59.1447 53.5268 58.5054ZM43.6438 64.2132C42.1058 63.3252 41.258 62.1055 41.258 60.7762C41.258 59.4496 42.1058 58.2273 43.6438 57.342C46.602 55.6328 51.2399 55.6328 54.2008 57.342C55.7361 58.23 56.5813 59.4496 56.5813 60.7762C56.5813 62.1055 55.7361 63.3252 54.2008 64.2132C52.719 65.0664 50.82 65.4944 48.9209 65.4944C47.0219 65.4944 45.1229 65.0664 43.6438 64.2132" fill="#1A162C"/>
<path d="M43.9779 57.949C41.2497 59.5244 41.2497 62.0787 43.9779 63.6541C45.0879 64.296 46.4814 64.6625 47.923 64.7802C48.1504 61.7952 48.5036 58.976 48.8272 56.7721C47.0699 56.7855 45.3206 57.176 43.9779 57.949Z" fill="#1A162C"/>
<path d="M46.0353 80.9834L47.2336 80.3709C44.2486 74.5374 43.3472 65.4115 43.3392 65.3205L41.9991 65.4489C42.0366 65.834 42.9353 74.9252 46.0353 80.9834" fill="#1A162C"/>
<path d="M50.5409 64.8604C50.8805 62.2231 51.6615 57.0236 51.6615 57.0236L50.3296 56.823C50.3296 56.823 49.5486 62.0413 49.2035 64.6866L50.5409 64.8604Z" fill="#1A162C"/>
<path d="M81.6773 55.8599C81.68 55.8278 81.6773 51.6687 81.6773 50.861C81.6773 50.7754 81.6212 50.7111 81.541 50.6871L69.0769 47.2153C69.0635 47.2127 69.0474 47.2047 69.0341 47.1993L47.84 34.7888C47.7811 34.7567 47.7115 34.7567 47.6527 34.7888L36.9353 40.9834C36.8925 41.0075 36.8416 41.0128 36.7935 41.0021L32.9152 39.9215C32.7948 39.8867 32.6772 39.9723 32.6772 40.0954C32.6799 41.0877 32.6905 44.7867 32.7012 44.8964L32.7039 44.9285C32.7734 45.5812 33.1132 46.207 33.7578 46.5815L63.7998 64.1354C65.541 65.1464 67.6914 65.1491 69.4327 64.1434L80.5967 57.6894C81.2921 57.2882 81.6453 56.5982 81.6747 55.8947L81.6773 55.8599" fill="#EF4BA2"/>
<path d="M33.5827 41.0395C33.5854 42.4517 33.5933 44.6477 33.6014 44.8536C33.6281 45.0809 33.7405 45.5276 34.2139 45.8031L64.256 63.357C65.7137 64.2022 67.5244 64.2049 68.9847 63.3624L80.1489 56.911C80.5287 56.6917 80.7586 56.3066 80.7774 55.8572L80.7801 55.8251C80.7801 55.5711 80.7801 53.4687 80.7801 52.0458V51.4092L68.5728 47.9696L47.7451 35.7757L37.3888 41.7617C37.1293 41.9088 36.8351 41.9435 36.5542 41.8686L33.5827 41.0395ZM66.6257 65.791C65.4943 65.791 64.3603 65.4995 63.3492 64.9137L33.3045 47.3571C32.4593 46.8649 31.9137 46.0144 31.812 45.0248C31.7933 44.8242 31.7826 41.8553 31.7773 40.1007C31.7773 39.753 31.9351 39.44 32.2079 39.2341C32.4807 39.0281 32.8365 38.9639 33.1628 39.0548L36.7469 40.0525L47.2049 34.0104C47.5419 33.8152 47.959 33.8179 48.2961 34.0104L69.41 46.3755L81.7857 49.8204C82.2591 49.9515 82.5802 50.3688 82.5802 50.8609V52.0458C82.5802 53.573 82.5802 55.8759 82.5802 55.9L82.5695 55.9963C82.532 56.994 81.9623 57.9408 81.0502 58.4704L69.8861 64.9217C68.8805 65.5022 67.7518 65.791 66.6257 65.791Z" fill="#1A162C"/>
<path d="M81.5417 50.6951L69.0776 47.2234C69.0643 47.2207 69.0482 47.2127 69.0348 47.2046L66.4565 45.7069V64.895C67.4836 64.9244 68.5133 64.681 69.4334 64.1488L80.5975 57.6975C81.2929 57.2963 81.646 56.6062 81.6754 55.9027L81.678 55.868C81.6807 55.8359 81.678 51.6768 81.678 50.869C81.678 50.7861 81.6219 50.7192 81.5417 50.6951" fill="#1A162C"/>
<path d="M67.3592 47.2688V63.9401C67.9316 63.8518 68.4853 63.6619 68.9854 63.3704L80.1496 56.919C80.5294 56.697 80.7593 56.3146 80.7781 55.8652C80.7807 55.7475 80.7808 53.5329 80.7808 52.0538V51.4172L68.5735 47.9776L67.3592 47.2688ZM66.6318 65.7963C66.5649 65.7963 66.498 65.7963 66.4312 65.791L65.5565 65.7669V44.1421L69.4107 46.3808L81.7838 49.8284C82.2599 49.9622 82.5809 50.3795 82.5809 50.8689V52.0538C82.5809 53.581 82.5809 55.8812 82.5809 55.9053C82.5327 57.0019 81.963 57.9515 81.0483 58.4784L69.8868 64.9297C68.9026 65.4967 67.7819 65.7963 66.6318 65.7963" fill="#1A162C"/>
<path d="M35.82 42.6978C35.82 42.6978 36.1222 41.8767 36.502 40.8202L32.9152 39.8198C32.7948 39.7877 32.6772 39.8706 32.6772 39.9963C32.6799 40.9886 32.6905 44.6851 32.7012 44.7948L32.7039 44.8295C32.7734 45.4794 33.1132 46.1053 33.7578 46.4824L35.82 47.678V42.6978Z" fill="#1A162C"/>
<path d="M33.5827 40.9405C33.5854 42.3501 33.5933 44.5487 33.6014 44.752C33.6281 44.9793 33.7405 45.4287 34.2139 45.7042L34.92 46.1161L34.9762 42.3849C34.9762 42.3849 35.1179 42.0024 35.3292 41.4274L33.5827 40.9405ZM36.7201 49.2428L33.3071 47.2609C32.4593 46.766 31.9137 45.9128 31.812 44.9232C31.7933 44.7226 31.7826 41.7536 31.7773 39.9991C31.7773 39.654 31.9351 39.3411 32.2053 39.1351C32.4754 38.9319 32.8285 38.8597 33.1575 38.9533L37.6776 40.213L37.3513 41.1224C37.0678 41.9141 36.8244 42.5748 36.7201 42.8583V49.2428" fill="#1A162C"/>
<path d="M63.897 59.2085L33.7588 41.6011C32.3145 40.7612 32.3171 38.6723 33.7641 37.8352L45.0218 31.3276C46.7069 30.3541 48.7851 30.3567 50.4674 31.3357L80.6031 48.9431C82.0474 49.7829 82.0447 51.8719 80.5977 52.709L69.34 59.2165C67.655 60.1901 65.5794 60.1875 63.897 59.2085" fill="white"/>
<path d="M64.3495 58.4302C65.751 59.2433 67.4896 59.2487 68.8911 58.4356L80.1489 51.9281C80.5474 51.698 80.7855 51.2861 80.7855 50.8261C80.7855 50.366 80.5501 49.9515 80.1515 49.7215L50.0133 32.1113C48.6144 31.3009 46.8758 31.2956 45.4743 32.1087L34.2166 38.6135C33.8181 38.8435 33.58 39.2581 33.5773 39.7181C33.5773 40.1782 33.8127 40.5901 34.2139 40.8228L64.3495 58.4329V58.4302ZM66.6257 60.8428C65.5237 60.8428 64.4245 60.5566 63.4429 59.9869V59.9842L33.3045 42.3768C32.3497 41.8205 31.7773 40.8254 31.7773 39.7154C31.78 38.6054 32.355 37.6105 33.3152 37.0541L44.5729 30.5494C46.5308 29.418 48.9647 29.4206 50.9199 30.5573L81.0583 48.1675C82.0158 48.7238 82.5882 49.7214 82.5855 50.8287C82.5855 51.9387 82.0105 52.9338 81.0476 53.4874L69.7899 59.9949C68.8136 60.5592 67.7197 60.8428 66.6257 60.8428" fill="#1A162C"/>
<path d="M55.151 124.506L43.1282 117.707C42.6334 117.42 42.2349 116.655 42.2349 115.997V98.6227C42.2349 97.9648 42.6334 97.6625 43.1282 97.9487L55.151 104.748C55.6458 105.034 56.0443 105.799 56.0443 106.454V123.829C56.0443 124.487 55.6458 124.792 55.151 124.506" fill="white"/>
<path d="M43.1458 98.9917L43.135 115.997C43.135 116.383 43.4052 116.827 43.5791 116.925L55.1364 123.462L55.1471 106.457C55.1471 106.072 54.8769 105.628 54.703 105.529L43.1458 98.9917ZM55.6044 123.727L55.1524 124.505L55.6098 123.73C55.6071 123.727 55.6044 123.727 55.6044 123.727V123.727ZM55.5108 125.514C55.2433 125.514 54.9705 125.436 54.7057 125.287L42.6857 118.49C41.9127 118.043 41.335 116.974 41.335 115.997V98.6227C41.335 97.9486 41.6131 97.4003 42.0946 97.1221C42.5412 96.8627 43.0816 96.8814 43.5791 97.1676L55.5963 103.964C56.3693 104.411 56.9471 105.478 56.9471 106.457V123.829C56.9471 124.506 56.6689 125.054 56.1874 125.332C55.9788 125.452 55.7462 125.514 55.5108 125.514" fill="#1A162C"/>
<path d="M51.1589 109.675C51.1589 110.45 50.6133 110.766 49.9419 110.378C49.2679 109.988 48.7223 109.043 48.7223 108.268C48.7223 107.489 49.2679 107.174 49.9419 107.564C50.6133 107.952 51.1589 108.896 51.1589 109.675Z" fill="#1A162C"/>
<path d="M57.5424 71.916C57.1706 71.916 56.879 72.2397 56.9165 72.6088L58.7754 81.9621C58.7754 83.0828 59.8694 84.2035 62.0626 84.7438C63.2689 85.0433 64.55 85.0433 65.759 84.7438C67.9495 84.2035 69.0462 83.0828 69.0462 81.9621L70.9051 72.6088C70.9426 72.2397 70.6509 71.916 70.2791 71.916H57.5424" fill="#EF4BA2"/>
<path d="M69.8048 77.2997C69.433 77.2997 69.1414 77.6234 69.1788 77.9925L71.0378 87.3459C71.0378 88.4665 72.1318 89.5872 74.325 90.1275C75.5313 90.4271 76.8124 90.4271 78.0214 90.1275C80.2119 89.5872 81.3085 88.4665 81.3085 87.3459L83.1675 77.9925C83.2049 77.6234 82.9133 77.2997 82.5415 77.2997H69.8048" fill="#EF4BA2"/>
<path d="M57.8677 72.8174L59.6731 81.9595C59.6731 82.5934 60.4755 83.4279 62.2728 83.8719C63.3427 84.1367 64.4715 84.134 65.5414 83.8719C67.3387 83.4279 68.1411 82.5934 68.1411 81.9595L68.1599 81.7856L69.9439 72.8174H57.8677ZM63.9072 85.8699C63.2117 85.8699 62.5189 85.7843 61.8422 85.6185C59.4029 85.0167 57.9292 83.69 57.8731 82.0585L56.0302 72.7854C55.974 72.2691 56.1157 71.8385 56.4046 71.5202C56.6935 71.2019 57.1081 71.0174 57.5387 71.0174H70.2729C70.7061 71.0174 71.1181 71.2019 71.407 71.5202C71.6985 71.8385 71.8403 72.2691 71.7975 72.6997L69.9411 82.0585C69.885 83.69 68.4086 85.0167 65.9693 85.6185C65.2953 85.7843 64.5999 85.8699 63.9072 85.8699" fill="#1A162C"/>
<path d="M70.1301 78.201L71.9355 87.3431C71.9355 87.977 72.7378 88.8115 74.5352 89.2555C75.6051 89.5203 76.7339 89.5176 77.8037 89.2555C79.6011 88.8115 80.4035 87.977 80.4035 87.3431L80.4223 87.1692L82.2063 78.201H70.1301ZM76.1696 91.2535C75.4741 91.2535 74.7813 91.1679 74.1046 91.0021C71.6653 90.4003 70.1916 89.0736 70.1355 87.4421L68.2926 78.169C68.2364 77.6527 68.3781 77.2221 68.667 76.9038C68.9559 76.5856 69.3705 76.401 69.8011 76.401H82.5352C82.9685 76.401 83.3805 76.5856 83.6694 76.9038C83.9609 77.2221 84.1027 77.6527 84.0599 78.0834L82.2035 87.4421C82.1473 89.0736 80.671 90.4003 78.2317 91.0021C77.5577 91.1679 76.8623 91.2535 76.1696 91.2535" fill="#1A162C"/>
<path d="M68.8989 69.0354C71.6565 70.6268 71.6565 73.2079 68.8989 74.7993C66.1413 76.3934 61.6692 76.3934 58.9089 74.7993C56.1513 73.2079 56.1513 70.6268 58.9115 69.0354C61.6691 67.4413 66.1413 67.4413 68.8989 69.0354Z" fill="#EF4BA2"/>
<path d="M81.1612 74.419C83.9188 76.0105 83.9188 78.5916 81.1612 80.183C78.4037 81.7771 73.9316 81.7771 71.1713 80.183C68.4137 78.5916 68.4136 76.0105 71.1739 74.419C73.9315 72.8249 78.4037 72.8249 81.1612 74.419Z" fill="#EF4BA2"/>
<path d="M63.9063 68.7464C62.248 68.7464 60.5924 69.1022 59.362 69.8136C58.3322 70.4074 57.7439 71.1751 57.7439 71.9187C57.7439 72.6595 58.3322 73.4271 59.362 74.0209C61.8254 75.4438 65.9899 75.4438 68.4506 74.0209C69.4803 73.4271 70.0688 72.6595 70.0688 71.9187C70.0688 71.1751 69.4803 70.4074 68.4506 69.8136C67.2202 69.1022 65.562 68.7464 63.9063 68.7464ZM63.9063 76.9016C61.9458 76.9016 59.9878 76.4629 58.4606 75.5803C56.8371 74.6415 55.9411 73.3416 55.9411 71.9187C55.9411 70.493 56.8371 69.1932 58.4606 68.2544C61.5124 66.4917 66.2948 66.4917 69.352 68.2544C70.9755 69.1932 71.8689 70.493 71.8689 71.9187C71.8689 73.3416 70.9755 74.6415 69.352 75.5803C67.8247 76.4602 65.8642 76.9016 63.9063 76.9016" fill="#1A162C"/>
<path d="M76.1687 74.1302C74.5104 74.1302 72.8547 74.4859 71.6244 75.1974C70.5946 75.7912 70.0063 76.5588 70.0063 77.3024C70.0063 78.0433 70.5946 78.8109 71.6244 79.4046C74.0878 80.8276 78.2522 80.8276 80.713 79.4046C81.7427 78.8109 82.3312 78.0433 82.3312 77.3024C82.3312 76.5588 81.7427 75.7912 80.713 75.1974C79.4826 74.4859 77.8244 74.1302 76.1687 74.1302ZM76.1687 82.2853C74.2082 82.2853 72.2502 81.8466 70.723 80.964C69.0995 80.0252 68.2035 78.7253 68.2035 77.3024C68.2035 75.8768 69.0995 74.5769 70.723 73.6381C73.7748 71.8755 78.5572 71.8755 81.6143 73.6381C83.2379 74.5769 84.1313 75.8768 84.1313 77.3024C84.1313 78.7253 83.2379 80.0252 81.6143 80.964C80.0871 81.844 78.1266 82.2853 76.1687 82.2853" fill="#1A162C"/>
<path d="M58.9899 30.1214L41.5082 29.8566L43.7817 40.1835C43.7817 40.1835 44.6029 41.7482 45.6621 42.3607C48.2779 43.8693 52.5172 43.8693 55.1331 42.3607C56.1922 41.7482 57.0134 40.1835 57.0134 40.1835L58.9899 30.1214" fill="#EF4BA2"/>
<path d="M44.6343 39.8654C44.8777 40.2987 45.4876 41.2188 46.1135 41.5799C48.4324 42.9199 52.3588 42.9226 54.6804 41.5799C55.3009 41.2241 55.9161 40.296 56.1568 39.8734L57.8981 31.0042L42.6336 30.7741L44.6343 39.8654ZM50.3983 44.3989C48.5314 44.3989 46.6644 43.979 45.2121 43.1392C43.963 42.417 43.0803 40.7854 42.984 40.6009L42.9038 40.3763L40.3869 28.9393L60.0806 29.2362L57.8098 40.6036C57.7136 40.7854 56.8309 42.417 55.5818 43.1392C54.1268 43.979 52.2626 44.3989 50.3983 44.3989Z" fill="#1A162C"/>
<path d="M60.7585 26.6845L60.7719 21.287C60.7719 21.1158 60.6327 20.9768 60.4642 20.9768H52.8735C51.2446 20.7467 49.5543 20.7467 47.9281 20.9768H40.348C40.1768 20.9768 40.0404 21.1158 40.0404 21.287L40.0431 26.6845C39.987 28.8242 41.8859 30.9774 45.8043 32.1569C48.7866 33.053 52.015 33.053 54.9946 32.1569C58.9157 30.9801 60.812 28.8242 60.7585 26.6845" fill="white"/>
<path d="M40.9405 21.8754L40.9433 26.6818C40.8978 28.5728 42.8583 30.3327 46.0653 31.2956C48.863 32.1381 51.9443 32.1355 54.7393 31.2956C57.9462 30.3327 59.9068 28.5728 59.8613 26.7059L59.8585 26.6791L59.872 21.8754H52.875C51.2113 21.6507 49.5878 21.6507 48.0552 21.8674L40.9405 21.8754ZM50.4009 33.7242C48.756 33.7242 47.1111 33.4916 45.5464 33.0182C41.4675 31.7932 39.0736 29.4154 39.1458 26.6604L39.1405 21.287C39.1405 20.6183 39.6834 20.078 40.3494 20.078H47.9296C49.505 19.8453 51.3023 19.8453 53.0008 20.086L60.4657 20.078C61.1317 20.078 61.6747 20.6183 61.6747 21.287L61.6613 26.6738C61.7202 29.4234 59.329 31.7958 55.2582 33.0182C53.6908 33.4916 52.0458 33.7242 50.4009 33.7242" fill="#1A162C"/>
<path d="M57.731 16.5501C61.7831 18.8878 61.7831 22.6778 57.731 25.0181C53.6815 27.3558 47.1152 27.3558 43.0631 25.0181C39.0136 22.6778 39.0136 18.8878 43.0631 16.5501C47.1152 14.2098 53.6815 14.2098 57.731 16.5501Z" fill="#EF4BA2"/>
<path d="M50.3999 15.6862C47.9044 15.6862 45.4116 16.2318 43.5152 17.3284C41.8436 18.2913 40.9261 19.519 40.9261 20.7815C40.9261 22.0466 41.8436 23.2742 43.5152 24.2398C47.3079 26.4304 53.4865 26.4304 57.2819 24.2398C58.9535 23.2742 59.8709 22.0466 59.8709 20.7815C59.8709 19.519 58.9535 18.2913 57.2819 17.3284C55.3855 16.2318 52.8927 15.6862 50.3999 15.6862V15.6862ZM50.3999 27.6874C47.5969 27.6874 44.7964 27.0563 42.6138 25.7965C40.3644 24.4966 39.126 22.7179 39.126 20.7815C39.126 18.8477 40.3644 17.069 42.6138 15.7691C46.9789 13.2522 53.8154 13.2496 58.1831 15.7691C60.4325 17.069 61.6709 18.8477 61.6709 20.7815C61.6709 22.7179 60.4325 24.4966 58.1831 25.7965C56.0006 27.0563 53.1976 27.6874 50.3999 27.6874Z" fill="#1A162C"/>
<path d="M57.7517 21.4876C53.7023 19.1472 47.1333 19.1472 43.0838 21.4876C42.2172 21.9877 41.5459 22.5574 41.0511 23.1592C41.5566 23.8333 42.276 24.4672 43.2309 25.0181C47.2804 27.3558 53.8468 27.3558 57.8989 25.0181C58.7655 24.518 59.4342 23.9483 59.929 23.3438C59.4261 22.6698 58.7039 22.0386 57.7517 21.4876" fill="#1A162C"/>
<path d="M42.2669 23.1833C42.6547 23.5658 43.1281 23.9188 43.6818 24.2398C47.4772 26.4304 53.653 26.4304 57.451 24.2398C57.9325 23.9616 58.355 23.6514 58.7188 23.3197C58.3309 22.9372 57.8549 22.5841 57.3012 22.2659C53.5059 20.0753 47.3326 20.0753 43.5346 22.2659C43.0505 22.544 42.628 22.8517 42.2669 23.1833V23.1833ZM50.5663 27.6874C47.7633 27.6874 44.9656 27.0563 42.7804 25.7965C41.7533 25.2027 40.9295 24.4992 40.3331 23.6995L39.9105 23.1351L40.3571 22.5922C40.9402 21.8781 41.7052 21.2442 42.6359 20.7066C46.9984 18.1897 53.8376 18.187 58.2026 20.7066C59.2297 21.3003 60.0561 22.0064 60.6526 22.8035L61.0752 23.3679L60.6285 23.9135C60.0401 24.6303 59.2725 25.2642 58.3497 25.7965C56.1672 27.0563 53.3667 27.6874 50.5663 27.6874" fill="#1A162C"/>
<path d="M77.0576 209.7L75.3377 210.692C75.1612 210.794 74.8536 210.78 74.6504 210.663L73.0267 209.727C72.8235 209.609 72.8022 209.432 72.9787 209.331L74.6984 208.336C74.8749 208.234 75.1826 208.248 75.3859 208.365L77.0066 209.301C77.2126 209.419 77.2341 209.598 77.0576 209.7Z" fill="#1A162C"/>
<path d="M81.2974 212.144L79.5775 213.137C79.401 213.238 79.0907 213.228 78.8874 213.11L77.2667 212.174C77.0634 212.056 77.042 211.877 77.2185 211.775L78.9384 210.783C79.1149 210.681 79.4224 210.695 79.6257 210.812L81.2466 211.749C81.4499 211.866 81.4739 212.043 81.2974 212.144" fill="#1A162C"/>
<path d="M77.0816 214.578L75.3617 215.573C75.1852 215.675 74.8776 215.662 74.6716 215.544L73.0509 214.608C72.8476 214.49 72.8262 214.314 73.0027 214.212L74.7226 213.217C74.8991 213.115 75.2066 213.129 75.4099 213.246L77.0308 214.183C77.2367 214.3 77.2581 214.477 77.0816 214.578" fill="#1A162C"/>
<path d="M85.3003 214.455L83.5804 215.45C83.4039 215.552 83.0964 215.539 82.8931 215.421L81.2722 214.485C81.0689 214.367 81.0449 214.188 81.2214 214.086L82.9413 213.094C83.1178 212.992 83.428 213.006 83.6312 213.123L85.2521 214.06C85.4554 214.177 85.4768 214.354 85.3003 214.455" fill="#1A162C"/>
<path d="M81.0871 216.892L79.3646 217.884C79.1881 217.986 78.8806 217.973 78.6773 217.855L77.0564 216.919C76.8531 216.801 76.8291 216.625 77.0056 216.523L78.7281 215.528C78.9046 215.426 79.2122 215.44 79.4154 215.557L81.0363 216.494C81.2396 216.611 81.2636 216.788 81.0871 216.892Z" fill="#1A162C"/>
<path d="M89.3055 216.766L87.5857 217.761C87.4091 217.863 87.1016 217.849 86.8983 217.732L85.2747 216.796C85.0714 216.678 85.0501 216.499 85.2266 216.397L86.9464 215.405C87.1229 215.303 87.4306 215.317 87.6339 215.434L89.2573 216.37C89.4606 216.488 89.4821 216.665 89.3055 216.766Z" fill="#1A162C"/>
<path d="M85.0846 219.203L83.3648 220.195C83.1882 220.297 82.8807 220.283 82.6774 220.166L81.0566 219.23C80.8506 219.112 80.8292 218.935 81.0057 218.834L82.7255 217.839C82.902 217.737 83.2096 217.75 83.4156 217.868L85.0364 218.804C85.2397 218.922 85.2612 219.101 85.0846 219.203" fill="#1A162C"/>
<path d="M70.0312 191.592L68.3113 192.587C68.1348 192.689 67.8273 192.675 67.6214 192.558L66.0005 191.622C65.7972 191.504 65.7758 191.327 65.9523 191.226L67.6722 190.231C67.8487 190.129 68.1563 190.142 68.3595 190.26L69.9804 191.196C70.1864 191.314 70.2077 191.49 70.0312 191.592" fill="#1A162C"/>
<path d="M74.0369 193.906L72.3144 194.898C72.1379 195 71.8302 194.986 71.6269 194.869L70.006 193.933C69.8028 193.815 69.7787 193.638 69.9552 193.537L71.6777 192.542C71.8542 192.44 72.1619 192.454 72.3652 192.571L73.9861 193.507C74.1893 193.625 74.2107 193.804 74.0369 193.906Z" fill="#1A162C"/>
<path d="M69.8195 196.34L68.097 197.332C67.9232 197.434 67.6128 197.423 67.4095 197.305L65.7887 196.369C65.5854 196.252 65.5641 196.072 65.7406 195.971L67.4604 194.978C67.6369 194.877 67.9446 194.887 68.1478 195.005L69.7687 195.941C69.972 196.059 69.996 196.238 69.8195 196.34Z" fill="#1A162C"/>
<path d="M73.8224 198.651L72.1025 199.643C71.926 199.745 71.6184 199.734 71.4151 199.616L69.7943 198.68C69.591 198.562 69.5669 198.383 69.7435 198.282L71.4632 197.289C71.6397 197.188 71.9473 197.201 72.1533 197.319L73.7742 198.255C73.9774 198.372 73.9989 198.549 73.8224 198.651" fill="#1A162C"/>
<path d="M93.5406 219.214L91.8207 220.206C91.6442 220.307 91.3366 220.294 91.1306 220.176L89.5097 219.24C89.3065 219.123 89.2852 218.946 89.4617 218.844L91.1814 217.849C91.358 217.748 91.6656 217.761 91.8689 217.879L93.4898 218.815C93.6957 218.933 93.7171 219.112 93.5406 219.214" fill="#1A162C"/>
<path d="M89.3247 221.648L87.6049 222.64C87.4283 222.741 87.1208 222.731 86.9175 222.613L85.294 221.677C85.0908 221.559 85.0693 221.38 85.2458 221.278L86.9657 220.286C87.1422 220.184 87.4498 220.198 87.6531 220.316L89.2765 221.252C89.4798 221.369 89.5013 221.546 89.3247 221.648Z" fill="#1A162C"/>
<path d="M97.7612 216.777L96.0413 217.772C95.8648 217.874 95.5545 217.86 95.3512 217.742L93.7303 216.806C93.5271 216.689 93.5057 216.509 93.6823 216.408L95.402 215.416C95.5785 215.314 95.8862 215.327 96.0895 215.445L97.7104 216.381C97.9136 216.499 97.9377 216.675 97.7612 216.777" fill="#1A162C"/>
<path d="M101.977 214.343L100.255 215.335C100.078 215.437 99.7708 215.426 99.5675 215.309L97.9466 214.373C97.7433 214.255 97.722 214.076 97.8958 213.974L99.6183 212.982C99.7948 212.88 100.102 212.891 100.306 213.008L101.927 213.945C102.13 214.062 102.154 214.242 101.977 214.343Z" fill="#1A162C"/>
<path d="M106.192 211.906L104.472 212.901C104.295 213.003 103.988 212.99 103.784 212.872L102.164 211.936C101.96 211.818 101.936 211.642 102.113 211.54L103.835 210.545C104.009 210.443 104.319 210.457 104.523 210.574L106.144 211.511C106.347 211.628 106.368 211.805 106.192 211.906Z" fill="#1A162C"/>
<path d="M110.408 209.472L108.689 210.465C108.512 210.566 108.204 210.556 108.001 210.438L106.38 209.502C106.174 209.384 106.153 209.205 106.329 209.103L108.049 208.111C108.226 208.009 108.533 208.023 108.739 208.14L110.36 209.077C110.563 209.194 110.585 209.371 110.408 209.472" fill="#1A162C"/>
<path d="M97.546 221.525L95.8236 222.517C95.647 222.619 95.3395 222.605 95.1362 222.488L93.5153 221.551C93.3121 221.434 93.288 221.257 93.4645 221.156L95.187 220.163C95.3635 220.059 95.6711 220.072 95.8744 220.19L97.4952 221.126C97.6985 221.244 97.7199 221.423 97.546 221.525Z" fill="#1A162C"/>
<path d="M101.759 219.088L100.039 220.083C99.8628 220.185 99.5553 220.171 99.352 220.054L97.7311 219.117C97.5279 219 97.5038 218.823 97.6803 218.722L99.4002 217.727C99.5767 217.625 99.8869 217.638 100.09 217.756L101.711 218.692C101.914 218.81 101.936 218.986 101.759 219.088" fill="#1A162C"/>
<path d="M105.976 216.654L104.256 217.646C104.08 217.748 103.772 217.737 103.569 217.619L101.948 216.683C101.742 216.566 101.72 216.386 101.897 216.285L103.617 215.292C103.793 215.191 104.101 215.202 104.307 215.319L105.928 216.255C106.131 216.373 106.152 216.552 105.976 216.654" fill="#1A162C"/>
<path d="M110.197 214.22L108.477 215.212C108.3 215.314 107.993 215.3 107.79 215.183L106.166 214.247C105.963 214.129 105.941 213.952 106.118 213.851L107.838 212.856C108.014 212.754 108.322 212.768 108.525 212.885L110.149 213.821C110.352 213.939 110.373 214.116 110.197 214.22Z" fill="#1A162C"/>
<path d="M113.59 195.663L111.87 196.655C111.693 196.757 111.383 196.744 111.18 196.626L109.559 195.69C109.356 195.572 109.334 195.396 109.511 195.294L111.231 194.299C111.407 194.197 111.715 194.211 111.918 194.328L113.539 195.264C113.742 195.382 113.766 195.559 113.59 195.663" fill="#1A162C"/>
<path d="M117.806 193.227L116.083 194.219C115.907 194.323 115.599 194.31 115.396 194.192L113.775 193.256C113.572 193.138 113.55 192.959 113.724 192.857L115.447 191.865C115.623 191.764 115.931 191.777 116.134 191.895L117.755 192.831C117.958 192.948 117.982 193.125 117.806 193.227Z" fill="#1A162C"/>
<path d="M122.03 190.792L120.31 191.785C120.133 191.886 119.826 191.873 119.622 191.755L118.002 190.819C117.798 190.701 117.774 190.525 117.951 190.423L119.673 189.431C119.847 189.327 120.157 189.34 120.361 189.458L121.982 190.394C122.185 190.512 122.206 190.691 122.03 190.792Z" fill="#1A162C"/>
<path d="M126.246 188.356L124.526 189.351C124.35 189.452 124.042 189.439 123.839 189.321L122.218 188.385C122.012 188.268 121.991 188.091 122.167 187.987L123.887 186.994C124.064 186.893 124.371 186.906 124.577 187.024L126.198 187.96C126.401 188.078 126.423 188.254 126.246 188.356" fill="#1A162C"/>
<path d="M113.379 200.408L111.657 201.4C111.48 201.502 111.173 201.491 110.97 201.374L109.349 200.438C109.145 200.32 109.121 200.141 109.298 200.039L111.02 199.047C111.197 198.945 111.504 198.958 111.708 199.073L113.329 200.012C113.532 200.127 113.553 200.306 113.379 200.408Z" fill="#1A162C"/>
<path d="M117.592 197.974L115.873 198.966C115.696 199.068 115.389 199.055 115.185 198.937L113.564 198.001C113.361 197.883 113.337 197.706 113.514 197.605L115.233 196.61C115.41 196.508 115.72 196.522 115.924 196.639L117.544 197.575C117.748 197.693 117.769 197.872 117.592 197.974" fill="#1A162C"/>
<path d="M121.809 195.537L120.089 196.532C119.913 196.634 119.605 196.621 119.402 196.503L117.781 195.567C117.575 195.449 117.554 195.27 117.73 195.168L119.45 194.176C119.627 194.074 119.934 194.088 120.14 194.205L121.761 195.142C121.964 195.259 121.986 195.436 121.809 195.537" fill="#1A162C"/>
<path d="M126.025 193.103L124.305 194.096C124.129 194.197 123.821 194.184 123.618 194.069L121.995 193.133C121.791 193.015 121.77 192.836 121.946 192.734L123.666 191.742C123.843 191.64 124.15 191.651 124.354 191.769L125.977 192.705C126.18 192.823 126.202 193.002 126.025 193.103Z" fill="#1A162C"/>
<path d="M130.565 185.954L128.842 186.949C128.666 187.051 128.358 187.037 128.155 186.92L126.534 185.983C126.331 185.866 126.307 185.689 126.483 185.585L128.206 184.593C128.382 184.491 128.69 184.504 128.893 184.622L130.514 185.558C130.717 185.676 130.739 185.852 130.565 185.954Z" fill="#1A162C"/>
<path d="M130.347 190.701L128.627 191.694C128.45 191.795 128.143 191.782 127.939 191.664L126.319 190.728C126.113 190.613 126.091 190.434 126.268 190.332L127.988 189.34C128.164 189.238 128.472 189.249 128.678 189.367L130.298 190.303C130.502 190.421 130.523 190.6 130.347 190.701" fill="#1A162C"/>
<path d="M136.911 162.099L135.191 163.094C135.015 163.195 134.707 163.182 134.504 163.064L132.88 162.128C132.677 162.01 132.656 161.834 132.832 161.732L134.552 160.737C134.729 160.635 135.036 160.649 135.24 160.767L136.863 161.703C137.066 161.82 137.088 161.997 136.911 162.099Z" fill="#1A162C"/>
<path d="M141.137 159.665L139.417 160.657C139.24 160.759 138.933 160.748 138.729 160.63L137.106 159.694C136.903 159.576 136.881 159.397 137.058 159.295L138.778 158.303C138.954 158.202 139.262 158.215 139.465 158.33L141.089 159.266C141.292 159.384 141.313 159.563 141.137 159.665Z" fill="#1A162C"/>
<path d="M145.352 157.231L143.633 158.223C143.456 158.325 143.149 158.311 142.943 158.193L141.322 157.257C141.118 157.14 141.097 156.963 141.274 156.862L142.993 155.867C143.17 155.765 143.477 155.778 143.681 155.896L145.302 156.832C145.505 156.95 145.529 157.129 145.352 157.231" fill="#1A162C"/>
<path d="M149.568 154.794L147.846 155.789C147.672 155.891 147.362 155.877 147.158 155.76L145.538 154.823C145.334 154.706 145.313 154.527 145.489 154.425L147.209 153.433C147.386 153.331 147.693 153.344 147.897 153.462L149.517 154.398C149.721 154.516 149.745 154.692 149.568 154.794Z" fill="#1A162C"/>
<path d="M136.699 166.846L134.98 167.838C134.803 167.94 134.496 167.929 134.29 167.812L132.669 166.876C132.465 166.758 132.444 166.579 132.621 166.477L134.34 165.485C134.517 165.383 134.825 165.394 135.028 165.511L136.649 166.448C136.855 166.565 136.876 166.744 136.699 166.846" fill="#1A162C"/>
<path d="M140.915 164.412L139.195 165.404C139.019 165.506 138.709 165.493 138.505 165.375L136.885 164.439C136.681 164.321 136.66 164.145 136.836 164.043L138.556 163.048C138.733 162.946 139.04 162.96 139.244 163.077L140.864 164.014C141.068 164.131 141.092 164.308 140.915 164.412" fill="#1A162C"/>
<path d="M145.141 161.976L143.419 162.968C143.245 163.072 142.935 163.059 142.731 162.941L141.11 162.005C140.907 161.887 140.886 161.708 141.06 161.606L142.782 160.614C142.959 160.512 143.266 160.526 143.469 160.644L145.09 161.58C145.294 161.697 145.318 161.874 145.141 161.976Z" fill="#1A162C"/>
<path d="M149.355 159.542L147.635 160.534C147.459 160.635 147.151 160.622 146.948 160.504L145.327 159.568C145.124 159.451 145.1 159.274 145.276 159.172L146.999 158.18C147.173 158.076 147.483 158.089 147.686 158.207L149.307 159.143C149.51 159.261 149.532 159.44 149.355 159.542Z" fill="#1A162C"/>
<path d="M153.885 152.392L152.165 153.387C151.989 153.489 151.681 153.475 151.475 153.358L149.854 152.422C149.651 152.304 149.63 152.125 149.806 152.023L151.526 151.031C151.703 150.929 152.01 150.942 152.213 151.06L153.834 151.996C154.04 152.114 154.062 152.29 153.885 152.392" fill="#1A162C"/>
<path d="M153.673 157.14L151.951 158.132C151.777 158.234 151.467 158.22 151.263 158.103L149.643 157.167C149.439 157.049 149.418 156.872 149.594 156.771L151.314 155.776C151.491 155.674 151.798 155.687 152.002 155.805L153.623 156.741C153.826 156.859 153.85 157.038 153.673 157.14Z" fill="#1A162C"/>
<path d="M150.726 147.869L108.712 172.024L82.3687 156.982L124.439 132.693L150.726 147.869Z" fill="white"/>
<path d="M84.1776 156.979L108.71 170.989L148.924 147.869L124.439 133.734L84.1776 156.979ZM108.712 173.062L80.564 156.987L124.439 131.655L152.526 147.872L108.712 173.062" fill="#1A162C"/>
<path d="M130.013 178.781C130.013 178.748 130.018 110.105 130.018 109.292C130.018 109.207 129.962 109.14 129.882 109.118L96.0068 117.886C95.9908 117.883 95.9774 117.875 95.9614 117.867L105.628 98.853C105.569 98.8183 105.497 98.8183 105.438 98.853L73.3228 117.348C73.28 117.375 73.2265 117.381 73.1784 117.367L69.2761 116.281C69.1557 116.246 69.0353 116.332 69.038 116.458C69.0407 117.455 69.0433 185.636 69.054 185.748L69.0594 185.78C69.1263 186.435 69.4686 187.064 70.1186 187.444L90.6896 199.373C92.4415 200.392 94.6026 200.395 96.3572 199.381L128.924 180.623C129.625 180.22 129.981 179.524 130.007 178.815L130.013 178.781" fill="#EF4BA2"/>
<path d="M69.9381 117.399C69.9407 119.75 69.9408 126.236 69.9408 134.327C69.9435 154.596 69.9488 185.226 69.9541 185.729C69.9809 185.933 70.0959 186.387 70.572 186.665L91.143 198.594C92.6114 199.448 94.4382 199.45 95.9092 198.6L128.476 179.842C128.861 179.623 129.091 179.235 129.11 178.78H129.113L129.121 110.244L96.0136 118.817L95.5027 118.64L94.7832 118.207L103.532 100.99L73.7736 118.129C73.5302 118.271 73.2199 118.311 72.9391 118.234L69.9381 117.399ZM93.5314 201.036C92.392 201.036 91.2527 200.742 90.239 200.151L69.668 188.222C68.8174 187.727 68.2691 186.871 68.1648 185.874C68.1514 185.751 68.1488 185.716 68.1407 134.327C68.1407 124.329 68.138 116.787 68.138 116.46C68.138 116.115 68.2932 115.802 68.566 115.596C68.8334 115.39 69.1864 115.324 69.5154 115.412L73.1344 116.42L104.99 98.0719C105.332 97.8793 105.747 97.8793 106.081 98.0746L106.817 98.5025L97.6531 116.533L129.891 108.185L130.121 108.249C130.592 108.38 130.921 108.808 130.921 109.292L130.899 178.952C130.865 179.92 130.292 180.872 129.375 181.402L96.8079 200.159C95.7969 200.745 94.6655 201.036 93.5314 201.036" fill="#1A162C"/>
<path d="M129.881 109.126L96.0059 117.894C95.9898 117.891 95.9765 117.883 95.9604 117.875L93.3659 125.434L93.3606 200.135C94.393 200.167 95.4308 199.924 96.3563 199.389L128.923 180.631C129.624 180.228 129.98 179.532 130.006 178.823L130.012 178.789C130.012 178.759 130.017 110.113 130.017 109.3C130.017 109.215 129.961 109.148 129.881 109.126" fill="#1A162C"/>
<path d="M94.2736 125.584L94.2682 199.183C94.8486 199.097 95.4076 198.902 95.9131 198.608L128.48 179.85C128.865 179.631 129.095 179.243 129.114 178.788L129.125 110.252L96.6514 118.659L94.2736 125.584ZM93.5407 201.039C93.4738 201.039 93.4069 201.036 93.34 201.036L92.4654 201.01L92.5216 125.14L95.4772 116.533L96.1431 116.931L129.895 108.193L130.125 108.257C130.596 108.388 130.925 108.816 130.925 109.3L130.903 178.96C130.868 179.928 130.296 180.88 129.379 181.41L96.8118 200.167C95.8248 200.74 94.6961 201.039 93.5407 201.039" fill="#1A162C"/>
<path d="M72.1994 119.076C72.1994 119.076 72.5043 118.25 72.8841 117.185L69.2761 116.179C69.1557 116.145 69.0353 116.23 69.038 116.356C69.0407 117.354 69.0433 185.534 69.054 185.646L69.0594 185.678C69.1263 186.334 69.4686 186.965 70.1186 187.342L72.1914 188.548L72.1994 124.089V119.076" fill="#1A162C"/>
<path d="M69.9381 117.298C69.9407 119.649 69.9408 126.135 69.9408 134.228C69.9435 154.497 69.9488 185.128 69.9541 185.628C69.9809 185.831 70.0959 186.286 70.572 186.564L71.2942 186.984L71.2996 118.916L71.3557 118.763C71.3557 118.761 71.5002 118.376 71.7115 117.792L69.9381 117.298ZM73.0915 190.11L69.668 188.12C68.8174 187.626 68.2691 186.77 68.1648 185.775C68.1514 185.652 68.1488 185.617 68.1407 134.228C68.1407 124.23 68.138 116.685 68.138 116.359C68.138 116.014 68.2958 115.701 68.566 115.492C68.8361 115.289 69.1945 115.219 69.5208 115.313L74.0572 116.578L73.7334 117.488C73.4472 118.285 73.2066 118.948 73.0996 119.237L73.0915 190.11Z" fill="#1A162C"/>
<path d="M90.7928 129.957L70.1255 117.972C68.6732 117.124 68.6759 115.024 70.1309 114.182L102.794 95.3706C104.49 94.389 106.579 94.3917 108.272 95.376L128.939 107.361C130.391 108.209 130.389 110.309 128.934 111.151L96.2705 129.962C94.5748 130.944 92.4859 130.941 90.7928 129.957" fill="white"/>
<path d="M105.527 95.5391C104.736 95.5391 103.947 95.7423 103.243 96.1488L70.5801 114.963C70.1789 115.193 69.9381 115.61 69.9381 116.075C69.9354 116.541 70.1762 116.958 70.5801 117.193L91.2446 129.179C92.6542 129.997 94.4087 130 95.821 129.184L128.484 110.37C128.885 110.14 129.126 109.723 129.126 109.255C129.126 108.792 128.888 108.375 128.484 108.139L107.82 96.1569C107.114 95.745 106.319 95.5391 105.527 95.5391ZM93.5395 131.594C92.4322 131.594 91.3276 131.308 90.3406 130.735L69.676 118.75C68.7104 118.188 68.1353 117.188 68.138 116.075C68.138 114.96 68.7157 113.96 69.6813 113.401L102.345 94.5895C104.31 93.4528 106.758 93.4555 108.724 94.5976L129.388 106.583C130.354 107.144 130.929 108.142 130.926 109.257C130.926 110.373 130.348 111.373 129.383 111.929L96.7198 130.743C95.7381 131.31 94.6388 131.594 93.5395 131.594Z" fill="#1A162C"/>
<path d="M130.021 96.2907C130.023 96.2613 130.021 92.0754 130.021 91.2623C130.021 91.1767 129.965 91.1098 129.884 91.0884L96.0094 99.856C95.9933 99.8534 95.98 99.848 95.9639 99.84L105.63 80.823C105.571 80.7883 105.499 80.7883 105.44 80.823L73.3254 99.3184C73.2826 99.3452 73.2292 99.3505 73.1811 99.3372L69.2786 98.2512C69.1583 98.2165 69.0379 98.302 69.0379 98.4277C69.0433 99.4254 69.0539 103.149 69.062 103.258L69.0673 103.293C69.1369 103.946 69.4792 104.577 70.1265 104.954L90.6975 116.883C92.4494 117.902 94.6133 117.905 96.3679 116.891L128.935 98.1336C129.633 97.7297 129.989 97.0343 130.018 96.3282L130.021 96.2907" fill="#EF4BA2"/>
<path d="M69.9455 99.3693C69.9508 100.787 69.9562 102.996 69.9669 103.21C69.991 103.446 70.1061 103.898 70.5822 104.176L91.153 116.105C92.6241 116.961 94.4483 116.961 95.9194 116.113L128.489 97.3553C128.871 97.1333 129.101 96.7454 129.12 96.2907H129.126V92.2145L96.0183 100.787L95.5075 100.61L94.788 100.18L103.537 82.9602L73.7783 100.099C73.5349 100.244 73.2246 100.281 72.9438 100.204L69.9455 99.3693ZM93.5442 118.547C92.4021 118.547 91.2654 118.253 90.249 117.661L69.6808 105.732C68.8275 105.238 68.2792 104.382 68.1776 103.384C68.1669 103.282 68.1562 103.183 68.1428 98.4305C68.1428 98.0854 68.298 97.7725 68.5708 97.5666C68.8383 97.3606 69.1913 97.2911 69.5203 97.382L73.139 98.3904L104.995 80.042C105.337 79.8495 105.751 79.8521 106.086 80.0447L106.821 80.4727L97.658 98.5027L129.896 90.1577L130.126 90.2192C130.597 90.3503 130.926 90.7783 130.926 91.2624L130.91 96.4646C130.875 97.4302 130.305 98.385 129.388 98.9119L96.8181 117.672C95.8097 118.255 94.6756 118.547 93.5442 118.547Z" fill="#1A162C"/>
<path d="M129.89 91.0965L96.0148 99.8668C95.9988 99.8614 95.9854 99.8561 95.9694 99.8481L93.375 107.404V117.648C94.4074 117.677 95.4479 117.434 96.3733 116.899L128.94 98.1416C129.638 97.7378 129.994 97.0423 130.023 96.3362L130.026 96.3014C130.029 96.2693 130.026 92.0834 130.026 91.2703C130.026 91.1847 129.97 91.1179 129.89 91.0965" fill="#1A162C"/>
<path d="M94.2751 107.554V116.696C94.8555 116.608 95.4146 116.412 95.9202 116.121L128.49 97.3633C128.872 97.1413 129.102 96.7535 129.121 96.2988L129.126 92.2226L96.653 100.629L94.2751 107.554ZM93.5503 118.549C93.4834 118.549 93.4166 118.549 93.3471 118.547L92.4751 118.52L92.5233 107.113L95.4787 98.5027L96.1448 98.9013L129.897 90.1658L130.127 90.2273C130.597 90.3584 130.926 90.7863 130.926 91.2704L130.91 96.4727C130.876 97.4383 130.306 98.3931 129.388 98.92L96.8188 117.68C95.8319 118.25 94.7058 118.549 93.5503 118.549" fill="#1A162C"/>
<path d="M72.2021 101.046C72.2021 101.046 72.507 100.22 72.8868 99.1554L69.2786 98.1497C69.1583 98.1176 69.0379 98.2031 69.0379 98.3262C69.0433 99.3238 69.0539 103.047 69.062 103.157L69.0673 103.191C69.1369 103.847 69.4792 104.475 70.1265 104.852L72.2021 106.059V101.046" fill="#1A162C"/>
<path d="M69.9455 99.2677C69.9508 100.685 69.9562 102.894 69.9669 103.108C69.991 103.344 70.106 103.796 70.5848 104.077L71.3042 104.494L71.3604 100.733C71.3604 100.731 71.5049 100.346 71.7162 99.7624L69.9455 99.2677ZM73.1043 107.623L69.678 105.631C68.8275 105.136 68.2792 104.28 68.1776 103.282C68.1669 103.181 68.1562 103.084 68.1428 98.3288C68.1428 97.9838 68.3007 97.6709 68.5708 97.4622C68.8409 97.259 69.1993 97.1894 69.5256 97.2831L74.0619 98.5482L73.7382 99.4575C73.452 100.255 73.2086 100.921 73.1043 101.207V107.623Z" fill="#1A162C"/>
<path d="M90.8024 111.927L70.1352 99.9418C68.6828 99.0966 68.6855 96.9942 70.1405 96.1517L102.804 77.3407C104.5 76.3591 106.588 76.3618 108.282 77.3488L128.949 89.3313C130.401 90.1791 130.398 92.2788 128.943 93.1213L96.2802 111.932C94.5844 112.914 92.4955 112.911 90.8024 111.927" fill="white"/>
<path d="M105.532 77.5091C104.741 77.5091 103.951 77.7124 103.248 78.119L70.5848 96.9327C70.1836 97.1627 69.9429 97.5799 69.9429 98.0453C69.9402 98.5134 70.1809 98.928 70.5848 99.1633L91.2493 111.149C92.6589 111.967 94.4136 111.97 95.8258 111.154L128.489 92.3429C128.89 92.1102 129.131 91.693 129.131 91.2276C129.131 90.7622 128.893 90.345 128.489 90.1096L107.824 78.127C107.118 77.7151 106.324 77.5091 105.532 77.5091V77.5091ZM93.5442 113.564C92.4369 113.564 91.3323 113.278 90.3453 112.705L69.6808 100.72C68.7152 100.158 68.1402 99.158 68.1428 98.0453C68.1428 96.93 68.7206 95.9297 69.6861 95.3733L102.349 76.5596C104.315 75.4229 106.76 75.4255 108.728 76.5703L129.393 88.5529C130.359 89.1146 130.934 90.1149 130.931 91.2303C130.931 92.3429 130.353 93.3432 129.388 93.8996L96.7244 112.713C95.7428 113.28 94.6435 113.564 93.5442 113.564" fill="#1A162C"/>
<path d="M95.7206 151.4L95.0305 150.202L126.774 131.832L127.466 133.03L95.7206 151.4" fill="#EF4BA2"/>
<path d="M95.7206 169.219L95.0305 168.02L126.774 149.653L127.466 150.849L95.7206 169.219" fill="#EF4BA2"/>
<path d="M95.7206 187.037L95.0305 185.839L126.774 167.472L127.466 168.67L95.7206 187.037" fill="#EF4BA2"/>
<path d="M109.174 136.384H107.789V135.713C107.789 134.21 108.81 132.439 110.113 131.687L114.224 129.315C114.965 128.887 115.724 128.836 116.316 129.176C116.901 129.516 117.238 130.2 117.238 131.056V131.728H115.855V131.056C115.855 130.719 115.764 130.46 115.623 130.377C115.476 130.291 115.206 130.345 114.914 130.513L110.806 132.888C109.92 133.397 109.174 134.691 109.174 135.713V136.384" fill="#EF4BA2"/>
<path d="M109.174 153.78H107.789V153.109C107.789 151.603 108.81 149.835 110.113 149.083L114.224 146.711C114.965 146.283 115.724 146.232 116.316 146.572C116.901 146.912 117.238 147.596 117.238 148.452V149.124H115.855V148.452C115.855 148.115 115.764 147.853 115.623 147.77C115.476 147.687 115.206 147.741 114.914 147.909L110.806 150.284C109.92 150.793 109.174 152.087 109.174 153.109V153.78" fill="#EF4BA2"/>
<path d="M108.962 171.99H107.577V171.318C107.577 169.812 108.599 168.044 109.901 167.293L114.012 164.918C114.753 164.49 115.518 164.442 116.104 164.781C116.692 165.121 117.029 165.806 117.029 166.662V167.333H115.644V166.662C115.644 166.325 115.555 166.062 115.411 165.98C115.267 165.897 114.997 165.953 114.705 166.119L110.594 168.491C109.709 169.002 108.962 170.296 108.962 171.318V171.99" fill="#EF4BA2"/>
<path d="M70.963 90.0453L91.3975 101.817L111.725 90.3475L91.4858 78.4185L70.963 90.0453Z" fill="white"/>
<path d="M72.7781 90.0534L91.4019 100.782L109.924 90.3289L91.4769 79.4563L72.7781 90.0534ZM91.3939 102.852L69.1486 90.04L91.4955 77.3781L113.527 90.3636L91.3939 102.852Z" fill="#1A162C"/>
<path d="M93.3846 90.0748L105.351 96.9675L117.254 90.2514L105.402 83.2651L93.3846 90.0748" fill="white"/>
<path d="M95.195 90.0827L105.351 95.9322L115.45 90.2352L105.388 84.3054L95.195 90.0827ZM105.343 98.0024L91.5655 90.0693L105.41 82.2272L119.053 90.2672L105.343 98.0024Z" fill="#1A162C"/>
<path d="M106.282 194.171L77.1062 194.216C76.7745 194.216 76.507 194.484 76.507 194.815V202.187L76.5258 203.818C76.59 204.709 77.2559 205.632 78.5184 206.359L87.2994 211.43C89.7307 212.832 93.4083 212.984 95.5133 211.77L105.474 206.019C106.485 205.436 106.934 204.642 106.875 203.818H106.883V194.772C106.883 194.441 106.613 194.171 106.282 194.171" fill="#EF4BA2"/>
<path d="M77.4023 195.115L77.421 203.808C77.4638 204.375 78.0255 205.041 78.9617 205.581L87.7427 210.649C89.8851 211.888 93.2364 212.043 95.0578 210.992L105.016 205.241C105.479 204.974 106.019 204.522 105.971 203.882L105.901 202.92H105.976V195.072L77.4023 195.115ZM91.9311 213.493C90.1659 213.493 88.315 213.059 86.8439 212.209L78.063 207.14C76.5812 206.284 75.7146 205.129 75.6237 203.885L75.6023 202.195V194.815C75.6023 193.989 76.2736 193.317 77.1001 193.317L106.276 193.272C106.276 193.272 106.275 193.272 106.278 193.272C106.677 193.272 107.054 193.427 107.337 193.711C107.621 193.991 107.779 194.371 107.779 194.772V204.72H107.672C107.439 205.541 106.834 206.271 105.917 206.8L95.9566 212.548C94.86 213.182 93.4263 213.493 91.9311 213.493" fill="#1A162C"/>
<path d="M106.277 194.197L92.8504 194.219V212.564C93.8454 212.468 94.7762 212.219 95.5091 211.797L105.47 206.046C106.481 205.463 106.93 204.669 106.871 203.845H106.879V194.799C106.879 194.468 106.609 194.197 106.277 194.197" fill="#1A162C"/>
<path d="M105.474 196.417L95.5137 202.168C93.4087 203.382 89.7311 203.23 87.2998 201.828L78.5188 196.757C76.0875 195.355 75.8227 193.232 77.9277 192.015L87.8883 186.264C89.9932 185.05 93.6709 185.202 96.1022 186.607L104.883 191.675C107.314 193.079 107.579 195.203 105.474 196.417Z" fill="white"/>
<path d="M91.439 186.347C90.2622 186.347 89.1442 186.575 88.3338 187.045L78.3732 192.796C77.9292 193.05 77.3997 193.481 77.3997 194.074C77.3997 194.703 77.9854 195.414 78.9617 195.979L87.7427 201.047C89.8851 202.286 93.2364 202.441 95.0578 201.39L105.016 195.639C105.46 195.382 105.989 194.952 105.989 194.358C105.989 193.729 105.406 193.018 104.427 192.454L95.6463 187.385C94.4614 186.7 92.9021 186.347 91.439 186.347V186.347ZM91.9311 203.89C90.1659 203.89 88.315 203.457 86.8439 202.607L78.063 197.538C76.4983 196.634 75.6023 195.372 75.6023 194.074C75.6023 192.94 76.2655 191.932 77.4718 191.237L87.4324 185.486C89.8235 184.106 93.8276 184.256 96.5477 185.826L105.329 190.894C106.893 191.798 107.789 193.061 107.789 194.358C107.789 195.492 107.123 196.5 105.917 197.196L95.9566 202.946C94.86 203.58 93.4263 203.89 91.9311 203.89" fill="#1A162C"/>
<path d="M104.367 204.562H102.567V199.87H104.367V204.562Z" fill="#EF4BA2"/>
<path d="M89.5855 212.048H87.7828V206.843H89.5855V212.048Z" fill="#1A162C"/>
<path d="M99.9873 200.095L82.4842 189.894L83.391 188.34L100.891 198.538L99.9873 200.095" fill="#1A162C"/>
<path d="M106.51 80.3978C106.842 80.2426 114.639 76.5435 114.518 71.4215C114.465 69.1801 113.245 68.2761 112.526 67.9391C111.25 67.3399 109.551 67.5646 108.396 68.482C107.457 69.2283 107.048 70.2794 107.278 71.368L109.035 70.9963C108.926 70.4801 109.233 70.1083 109.511 69.8889C110.135 69.3968 111.097 69.255 111.761 69.5626C112.528 69.9237 112.708 70.7957 112.724 71.4617C112.801 74.7515 107.717 77.8541 105.748 78.7715L106.51 80.3978" fill="#1A162C"/>
<path d="M104.004 84.1559C108.795 77.5548 109.255 67.0781 109.284 66.1874C109.287 66.15 109.258 66.1258 109.22 66.1258H99.1472H89.0745C89.037 66.1258 89.0075 66.15 89.0102 66.1874C89.0396 67.0781 89.4997 77.5548 94.2901 84.1559C94.4292 84.4795 94.6672 84.7925 95.0042 85.0786C95.0042 85.0813 95.0068 85.0813 95.0068 85.084C95.0068 85.084 95.3787 85.3675 95.6007 85.4986C97.5585 86.6273 100.733 86.6273 102.691 85.4986C102.916 85.3675 103.111 85.2284 103.285 85.084C103.285 85.084 103.29 85.0813 103.29 85.0786C103.627 84.7925 103.865 84.4795 104.004 84.1559" fill="#EF4BA2"/>
<path d="M89.7165 66.7996C89.8716 69.2523 90.7168 78.0868 94.908 83.8882C95.0097 84.1236 95.1888 84.3536 95.4188 84.5515C95.4242 84.5542 95.7451 84.8029 95.9377 84.9152C97.6762 85.9182 100.616 85.9182 102.357 84.9152C102.544 84.8056 102.707 84.6906 102.855 84.5649C103.103 84.3536 103.282 84.1262 103.389 83.8855L103.459 83.7598C107.61 78.0387 108.431 69.3299 108.584 66.7996H89.7165ZM95.2637 86.0787C95.0149 85.9343 94.5978 85.6187 94.5684 85.5919C94.1591 85.2442 93.8569 84.8511 93.7445 84.5515C88.8606 77.8193 88.3764 67.3774 88.3363 66.2192L88.339 65.8903L88.7857 65.4543H109.22L109.983 65.5132L109.958 66.2112C109.916 67.38 109.415 77.7953 104.59 84.4954C104.4 84.8966 104.112 85.2656 103.718 85.6C103.515 85.7685 103.29 85.929 103.028 86.0814C101.94 86.71 100.546 87.0229 99.1473 87.0229C97.7511 87.0229 96.3523 86.71 95.2637 86.0787" fill="#1A162C"/>
<path d="M101.076 66.1364C101.076 66.1364 102.266 78.3678 99.4821 86.3356C100.651 86.2902 101.798 86.0227 102.692 85.5065C102.916 85.3781 103.112 85.239 103.286 85.0919C103.286 85.0919 103.291 85.0893 103.291 85.0866C103.628 84.8031 103.866 84.4901 104.005 84.1665C109.012 77.2658 109.288 66.1364 109.288 66.1364H101.076" fill="#1A162C"/>
<path d="M106.316 61.988C110.274 64.2721 110.274 67.9793 106.316 70.2662C102.354 72.553 95.9353 72.553 91.9741 70.2662C88.0156 67.9793 88.0156 64.2721 91.9741 61.988C95.9353 59.7011 102.354 59.7011 106.316 61.988Z" fill="white"/>
<path d="M105.981 62.5684C102.213 60.3939 96.0822 60.3966 92.3136 62.5684C90.6151 63.55 89.6817 64.8124 89.6817 66.1257C89.6817 67.439 90.6151 68.7014 92.3136 69.683C96.0822 71.8575 102.213 71.8575 105.981 69.683C107.677 68.7014 108.613 67.439 108.613 66.1257C108.613 64.8124 107.677 63.55 105.981 62.5684ZM91.6423 70.8492C89.5106 69.6162 88.3363 67.9418 88.3363 66.1257C88.3363 64.3122 89.5106 62.6352 91.6423 61.4049C95.7827 59.0137 102.515 59.0137 106.655 61.4049C108.787 62.6352 109.961 64.3122 109.961 66.1257C109.961 67.9418 108.787 69.6162 106.655 70.8492C104.585 72.0448 101.867 72.6412 99.1473 72.6412C96.4298 72.6412 93.7125 72.0448 91.6423 70.8492Z" fill="#1A162C"/>
<path d="M104.082 63.2745C106.813 64.8499 106.813 67.4043 104.082 68.9797C101.354 70.555 96.9296 70.555 94.1987 68.9797C91.4706 67.4043 91.4706 64.8499 94.1987 63.2745C96.9296 61.6965 101.354 61.6965 104.082 63.2745Z" fill="#EF4BA2"/>
<path d="M103.748 63.8549C101.209 62.3918 97.0743 62.3918 94.5361 63.8549C93.4341 64.4941 92.8269 65.2992 92.8269 66.1257C92.8269 66.9522 93.4341 67.76 94.5361 68.3966C97.0743 69.8623 101.207 69.8623 103.748 68.3966C104.85 67.76 105.457 66.9548 105.457 66.1257C105.457 65.2992 104.85 64.4941 103.748 63.8549ZM93.8646 69.5627C92.3267 68.6747 91.4789 67.455 91.4789 66.1257C91.4789 64.7991 92.3267 63.5768 93.8646 62.6914C96.8228 60.9823 101.461 60.9823 104.422 62.6914C105.957 63.5794 106.802 64.7991 106.802 66.1257C106.802 67.455 105.957 68.6747 104.422 69.5627C102.94 70.4159 101.041 70.8439 99.1418 70.8439C97.2428 70.8439 95.3437 70.4159 93.8646 69.5627" fill="#1A162C"/>
<path d="M94.1987 63.2985C91.4706 64.8739 91.4706 67.4282 94.1987 69.0036C95.3087 69.6455 96.7023 70.012 98.1439 70.1297C98.3713 67.1447 98.7244 64.3256 99.048 62.1216C97.2908 62.135 95.5414 62.5255 94.1987 63.2985Z" fill="#1A162C"/>
<path d="M96.261 86.3329L97.4593 85.7204C94.4743 79.8869 93.5729 70.761 93.5649 70.67L92.2248 70.7984C92.2623 71.1836 93.1611 80.2748 96.261 86.3329" fill="#1A162C"/>
<path d="M100.762 70.2099C101.101 67.5727 101.882 62.3731 101.882 62.3731L100.55 62.1725C100.55 62.1725 99.7694 67.3908 99.4244 70.0361L100.762 70.2099Z" fill="#1A162C"/>
<path d="M83.8478 93.3478C83.4761 93.3478 83.1844 93.6714 83.2219 94.0405L85.0808 103.394C85.0808 104.515 86.1748 105.635 88.368 106.176C89.5743 106.475 90.8554 106.475 92.0644 106.176C94.2549 105.635 95.3516 104.515 95.3516 103.394L97.2105 94.0405C97.248 93.6714 96.9563 93.3478 96.5846 93.3478H83.8478" fill="#EF4BA2"/>
<path d="M84.1731 94.2492L85.9785 103.391C85.9785 104.025 86.7809 104.86 88.5783 105.304C89.6481 105.568 90.7769 105.566 91.8468 105.304C93.6442 104.86 94.4465 104.025 94.4465 103.391L94.4653 103.217L96.2493 94.2492H84.1731ZM90.2126 107.302C89.5172 107.302 88.8244 107.216 88.1477 107.05C85.7084 106.448 84.2347 105.122 84.1785 103.49L82.3356 94.2171C82.2794 93.7009 82.4212 93.2703 82.71 92.952C82.9989 92.6337 83.4135 92.4492 83.8441 92.4492H96.5783C97.0116 92.4492 97.4235 92.6337 97.7124 92.952C98.0039 93.2703 98.1457 93.7009 98.1029 94.1315L96.2465 103.49C96.1904 105.122 94.7141 106.448 92.2747 107.05C91.6007 107.216 90.9053 107.302 90.2126 107.302" fill="#1A162C"/>
<path d="M95.2043 90.4672C97.9619 92.0587 97.9619 94.6397 95.2043 96.2312C92.4467 97.8253 87.9746 97.8253 85.2143 96.2312C82.4567 94.6397 82.4567 92.0587 85.2169 90.4672C87.9745 88.8731 92.4467 88.8731 95.2043 90.4672Z" fill="#EF4BA2"/>
<path d="M75.3333 40.1514L57.8517 39.8866L60.1251 50.2135C60.1251 50.2135 60.9463 51.7783 62.0055 52.3908C64.6213 53.8993 68.8606 53.8993 71.4765 52.3908C72.5356 51.7783 73.3568 50.2135 73.3568 50.2135L75.3333 40.1514" fill="#EF4BA2"/>
<path d="M90.2117 90.1782C88.5534 90.1782 86.8977 90.5339 85.6674 91.2454C84.6376 91.8392 84.0493 92.6069 84.0493 93.3504C84.0493 94.0913 84.6376 94.8589 85.6674 95.4527C88.1308 96.8756 92.2952 96.8756 94.7559 95.4527C95.7857 94.8589 96.3742 94.0913 96.3742 93.3504C96.3742 92.6069 95.7857 91.8392 94.7559 91.2454C93.5256 90.5339 91.8674 90.1782 90.2117 90.1782ZM90.2117 98.3333C88.2512 98.3333 86.2932 97.8947 84.766 97.012C83.1425 96.0732 82.2465 94.7733 82.2465 93.3504C82.2465 91.9248 83.1425 90.6249 84.766 89.6861C87.8178 87.9235 92.6002 87.9235 95.6573 89.6861C97.2809 90.6249 98.1743 91.9248 98.1743 93.3504C98.1743 94.7733 97.2809 96.0732 95.6573 97.012C94.1301 97.892 92.1696 98.3333 90.2117 98.3333" fill="#1A162C"/>
<path d="M60.9777 49.8954C61.2211 50.3287 61.831 51.2488 62.4569 51.6099C64.7758 52.9499 68.7022 52.9526 71.0238 51.6099C71.6444 51.2542 72.2595 50.326 72.5003 49.9034L74.2415 41.0342L58.9771 40.8041L60.9777 49.8954ZM66.7417 54.429C64.8748 54.429 63.0078 54.009 61.5555 53.1692C60.3064 52.447 59.4237 50.8155 59.3275 50.6309L59.2473 50.4063L56.7303 38.9693L76.424 39.2662L74.1533 50.6336C74.057 50.8155 73.1743 52.447 71.9252 53.1692C70.4702 54.009 68.606 54.429 66.7417 54.429Z" fill="#1A162C"/>
<path d="M77.1067 36.7145L77.1202 31.317C77.1202 31.1458 76.981 31.0068 76.8125 31.0068H69.2218C67.5929 30.7768 65.9025 30.7768 64.2763 31.0068H56.6962C56.525 31.0068 56.3886 31.1458 56.3886 31.317L56.3914 36.7145C56.3352 38.8543 58.2341 41.0074 62.1525 42.187C65.1348 43.083 68.3632 43.083 71.3428 42.187C75.2639 41.0101 77.1602 38.8543 77.1067 36.7145" fill="white"/>
<path d="M57.2888 31.9054L57.2915 36.7118C57.246 38.6028 59.2066 40.3628 62.4135 41.3256C65.2112 42.1682 68.2925 42.1655 71.0875 41.3256C74.2945 40.3628 76.255 38.6028 76.2095 36.7359L76.2068 36.7091L76.2202 31.9054H69.2232C67.5596 31.6807 65.936 31.6807 64.4034 31.8974L57.2888 31.9054ZM66.7491 43.7543C65.1042 43.7543 63.4593 43.5216 61.8946 43.0482C57.8157 41.8232 55.4218 39.4454 55.4941 36.6905L55.4887 31.317C55.4887 30.6483 56.0317 30.108 56.6977 30.108H64.2778C65.8532 29.8753 67.6506 29.8754 69.349 30.1161L76.8139 30.108C77.4799 30.108 78.0229 30.6483 78.0229 31.317L78.0096 36.7038C78.0684 39.4534 75.6773 41.8259 71.6064 43.0482C70.039 43.5216 68.3941 43.7543 66.7491 43.7543" fill="#1A162C"/>
<path d="M74.0792 26.5802C78.1314 28.9178 78.1314 32.7078 74.0792 35.0482C70.0298 37.3858 63.4634 37.3858 59.4113 35.0482C55.3618 32.7078 55.3618 28.9178 59.4113 26.5802C63.4634 24.2398 70.0298 24.2398 74.0792 26.5802Z" fill="#EF4BA2"/>
<path d="M66.7433 25.7163C64.2479 25.7163 61.755 26.2619 59.8586 27.3585C58.187 28.3214 57.2695 29.5491 57.2695 30.8115C57.2695 32.0767 58.187 33.3043 59.8586 34.2699C63.6513 36.4605 69.8299 36.4605 73.6253 34.2699C75.297 33.3043 76.2143 32.0767 76.2143 30.8115C76.2143 29.5491 75.297 28.3214 73.6253 27.3585C71.7289 26.2619 69.2361 25.7163 66.7433 25.7163V25.7163ZM66.7433 37.7175C63.9403 37.7175 61.1398 37.0864 58.9572 35.8266C56.7078 34.5267 55.4695 32.748 55.4695 30.8115C55.4695 28.8778 56.7078 27.0991 58.9572 25.7992C63.3223 23.2823 70.1588 23.2796 74.5266 25.7992C76.776 27.0991 78.0143 28.8778 78.0143 30.8115C78.0143 32.748 76.776 34.5267 74.5266 35.8266C72.344 37.0864 69.5411 37.7175 66.7433 37.7175Z" fill="#1A162C"/>
<path d="M74.1 31.5176C70.0505 29.1773 63.4815 29.1773 59.4321 31.5176C58.5655 32.0178 57.8941 32.5875 57.3993 33.1893C57.9048 33.8633 58.6243 34.4972 59.5791 35.0482C63.6286 37.3858 70.195 37.3858 74.2472 35.0482C75.1138 34.548 75.7824 33.9783 76.2772 33.3738C75.7744 32.6998 75.0522 32.0686 74.1 31.5176" fill="#1A162C"/>
<path d="M58.6103 33.2134C58.9981 33.5959 59.4716 33.9489 60.0252 34.2699C63.8206 36.4605 69.9964 36.4605 73.7945 34.2699C74.2759 33.9917 74.6985 33.6815 75.0622 33.3498C74.6744 32.9673 74.1983 32.6142 73.6447 32.2959C69.8493 30.1054 63.6761 30.1054 59.878 32.2959C59.3939 32.5741 58.9714 32.8817 58.6103 33.2134V33.2134ZM66.9098 37.7175C64.1067 37.7175 61.309 37.0864 59.1238 35.8266C58.0968 35.2328 57.273 34.5293 56.6765 33.7296L56.2539 33.1652L56.7006 32.6223C57.2836 31.9082 58.0486 31.2743 58.9794 30.7367C63.3418 28.2198 70.181 28.2171 74.5461 30.7367C75.5732 31.3304 76.3996 32.0365 76.996 32.8336L77.4186 33.3979L76.972 33.9436C76.3835 34.6604 75.6159 35.2943 74.6931 35.8266C72.5106 37.0864 69.7102 37.7175 66.9098 37.7175" fill="#1A162C"/>
</svg>
