<svg xmlns="http://www.w3.org/2000/svg" fill="none" viewBox="0 0 153 99"><path fill="#1A162C" d="M44.123 78.17l.593.341c.06.035.167.032.237-.01l.559-.322c.07-.04.078-.102.017-.137l-.593-.342c-.06-.035-.167-.031-.237.01l-.56.322c-.07.04-.077.102-.016.137zM42.667 77.33l.594.342c.06.036.166.03.237-.01l.559-.322c.07-.04.078-.102.017-.137l-.593-.343c-.06-.035-.167-.03-.237.01l-.56.323c-.07.04-.077.102-.017.138zM42.742 78.966l.593.342c.06.034.167.03.237-.01l.56-.322c.07-.04.077-.103.016-.138l-.593-.342c-.06-.034-.167-.03-.237.01l-.56.323c-.07.04-.077.102-.016.137zM44.197 79.805l.593.342c.06.035.167.03.237-.01l.56-.322c.07-.041.077-.102.016-.137l-.593-.343c-.06-.035-.167-.03-.237.01l-.56.323c-.07.04-.077.101-.016.137zM41.287 78.127l.593.342c.06.035.167.03.238-.01l.558-.323c.07-.04.078-.101.017-.136l-.593-.343c-.06-.035-.167-.03-.237.01l-.559.323c-.07.04-.078.102-.017.137zM39.833 77.287l.593.343c.061.035.168.03.238-.01l.56-.323c.07-.04.077-.102.016-.137l-.593-.342c-.06-.035-.167-.03-.237.01l-.559.323c-.07.04-.078.101-.018.136zM41.36 79.762l.595.342c.06.036.167.031.237-.01l.559-.322c.07-.04.077-.102.016-.137l-.593-.342c-.06-.035-.167-.03-.237.01l-.559.323c-.07.04-.078.101-.017.136zM42.816 80.602l.593.342c.06.035.167.03.238-.01l.559-.323c.07-.04.077-.101.016-.136l-.593-.343c-.06-.035-.167-.03-.237.01l-.559.323c-.07.04-.078.1-.017.137zM39.907 78.923l.594.342c.061.035.167.03.237-.01l.56-.322c.07-.041.078-.102.017-.137l-.594-.342c-.061-.036-.167-.031-.237.01l-.56.322c-.07.04-.078.102-.017.137zM38.453 78.084l.593.342c.06.036.167.031.237-.01l.559-.322c.07-.04.078-.101.018-.137l-.593-.342c-.061-.035-.168-.03-.239.01l-.558.322c-.07.04-.078.102-.017.137zM39.9 80.605l.593.342c.061.035.167.031.237-.01l.56-.322c.07-.04.078-.102.017-.137l-.594-.343c-.06-.035-.167-.03-.237.01l-.56.323c-.07.04-.077.101-.016.137zM41.355 81.444l.594.342c.06.035.167.031.237-.01l.559-.322c.07-.04.077-.102.017-.137l-.594-.342c-.06-.035-.167-.031-.237.01l-.559.322c-.07.04-.078.102-.017.137zM38.445 79.766l.593.343c.061.035.167.03.237-.01l.56-.323c.07-.04.078-.102.017-.137l-.593-.342c-.061-.035-.168-.03-.238.01l-.56.322c-.07.04-.077.102-.016.137zM36.992 78.927l.593.342c.06.035.167.03.237-.01l.559-.323c.07-.04.078-.1.017-.136l-.593-.342c-.06-.036-.167-.032-.237.01l-.56.322c-.07.04-.077.102-.016.137zM38.519 81.402l.593.342c.06.035.167.03.237-.01l.56-.323c.07-.04.078-.101.017-.136l-.593-.343c-.061-.035-.167-.03-.237.01l-.56.323c-.07.04-.078.102-.017.137zM37.066 80.562l.593.343c.06.035.167.03.237-.01l.56-.323c.07-.04.077-.102.016-.137l-.593-.342c-.06-.035-.167-.03-.237.01l-.56.323c-.07.04-.077.101-.016.136zM39.956 82.23l.594.343c.06.035.167.03.237-.01l.56-.322c.07-.041.077-.103.016-.138l-.593-.341c-.06-.036-.167-.031-.237.01l-.559.322c-.071.04-.078.101-.017.137zM35.595 79.713l.594.342c.06.035.167.032.237-.01l.559-.322c.07-.04.078-.102.017-.137l-.594-.342c-.06-.035-.167-.03-.237.01l-.559.323c-.07.04-.077.101-.017.136zM37.122 82.188l.594.342c.06.035.167.031.237-.01l.559-.322c.07-.04.078-.102.017-.137l-.594-.342c-.06-.035-.166-.031-.236.009l-.56.322c-.07.041-.077.103-.017.138zM35.668 81.35l.593.341c.06.035.167.03.237-.01l.559-.322c.07-.041.078-.102.017-.137l-.593-.343c-.06-.035-.167-.03-.238.01l-.559.323c-.07.04-.077.102-.016.137zM38.55 83.053l.594.342c.06.035.167.032.237-.009l.559-.322c.07-.041.078-.103.017-.138l-.593-.342c-.06-.035-.168-.03-.238.01l-.559.322c-.07.04-.077.102-.016.138zM34.185 80.536l.593.342c.06.035.167.03.237-.01l.56-.322c.07-.041.078-.102.017-.137l-.593-.342c-.061-.036-.167-.031-.238.01l-.56.322c-.07.04-.077.102-.016.137zM35.714 83.011l.593.342c.061.035.167.03.238-.01l.56-.323c.07-.04.077-.101.016-.136l-.593-.343c-.061-.035-.167-.03-.237.01l-.56.323c-.07.04-.078.102-.017.137zM34.26 82.171l.592.343c.061.035.168.03.238-.01l.56-.323c.07-.04.077-.102.016-.137l-.593-.342c-.061-.035-.167-.03-.237.01l-.56.323c-.07.04-.078.101-.017.136zM37.15 83.84l.594.343c.06.034.167.03.237-.01l.559-.323c.07-.04.077-.103.016-.138l-.593-.342c-.06-.035-.167-.03-.237.01l-.559.323c-.07.04-.078.102-.017.136zM32.789 81.323l.593.342c.06.034.167.03.237-.01l.559-.323c.07-.04.078-.102.017-.137l-.593-.342c-.06-.035-.167-.03-.238.01l-.559.323c-.07.04-.077.101-.016.136zM34.318 83.797l.593.342c.06.035.167.032.237-.009l.559-.322c.071-.041.078-.103.017-.138l-.593-.342c-.06-.035-.167-.031-.238.01l-.559.322c-.07.04-.077.102-.016.138zM32.86 82.959l.594.342c.06.034.167.03.237-.01l.56-.323c.07-.04.077-.102.016-.137l-.593-.343c-.06-.035-.167-.03-.237.01l-.56.323c-.07.04-.077.102-.016.138zM61.597 96.042l-.592.342c-.06.035-.167.03-.237-.01l-.558-.322c-.07-.04-.077-.101-.016-.137l.592-.341c.06-.036.167-.03.237.009l.558.322c.07.041.077.102.016.137zM61.603 97.72l-.592.343c-.06.035-.167.03-.237-.01l-.558-.322c-.07-.04-.077-.101-.017-.136l.593-.342c.06-.035.166-.03.237.01l.558.322c.07.04.077.101.016.136zM63.057 96.883l-.593.342c-.06.035-.166.03-.236-.01l-.559-.322c-.07-.04-.077-.101-.016-.136l.592-.342c.06-.035.167-.03.237.01l.558.322c.07.04.077.101.017.136zM62.983 98.517l-.593.342c-.06.035-.166.03-.236-.01l-.56-.322c-.07-.041-.077-.103-.016-.138l.592-.34c.061-.036.167-.032.237.008l.559.323c.07.04.077.101.017.137zM64.435 97.679l-.592.341c-.06.036-.167.031-.237-.01l-.558-.321c-.07-.04-.078-.102-.017-.138l.592-.34c.06-.036.167-.032.237.009l.559.322c.07.04.077.102.016.137zM65.886 96.841l-.592.342c-.06.035-.167.03-.237-.01l-.558-.322c-.07-.04-.077-.102-.016-.137l.592-.341c.06-.035.167-.032.237.009l.558.323c.07.04.077.1.016.136zM67.34 96.003l-.592.342c-.061.035-.167.03-.238-.01l-.558-.322c-.07-.04-.078-.102-.017-.137l.592-.341c.061-.035.167-.032.237.01l.558.322c.071.04.079.1.018.136zM68.79 95.165l-.591.342c-.061.035-.167.03-.237-.01l-.558-.321c-.07-.041-.078-.103-.017-.138l.592-.34c.061-.036.167-.032.237.009l.558.322c.07.04.078.101.017.136zM70.244 94.328l-.592.341c-.06.036-.167.03-.237-.01l-.559-.321c-.07-.04-.077-.102-.016-.138l.592-.34c.06-.035.167-.032.237.009l.558.322c.07.04.078.102.017.137zM71.695 93.49l-.592.342c-.06.035-.167.03-.237-.01l-.558-.322c-.07-.04-.078-.102-.018-.138l.593-.34c.06-.035.166-.032.237.009l.558.322c.07.04.078.102.017.137zM65.812 98.474l-.592.342c-.06.035-.167.03-.237-.01l-.558-.322c-.07-.04-.077-.102-.016-.137l.592-.342c.06-.035.167-.03.237.01l.558.323c.07.04.077.101.016.136zM67.266 97.636l-.592.342c-.061.035-.167.03-.237-.01l-.56-.322c-.07-.04-.077-.102-.016-.137l.592-.342c.061-.035.167-.03.237.01l.558.323c.07.04.079.102.018.136zM68.717 96.798l-.593.343c-.06.034-.166.03-.237-.01l-.558-.323c-.07-.04-.077-.102-.017-.137l.593-.342c.06-.035.167-.03.236.01l.559.323c.07.04.078.101.017.136zM70.17 95.96l-.593.343c-.06.035-.166.03-.236-.01l-.56-.323c-.07-.04-.077-.101-.016-.136l.593-.342c.06-.035.166-.03.236.01l.559.322c.07.04.078.102.017.137zM71.62 95.123l-.591.342c-.061.035-.167.03-.237-.01l-.558-.323c-.07-.04-.079-.101-.018-.136l.593-.342c.06-.035.166-.03.236.01l.56.323c.07.04.077.101.016.136zM73.183 92.644l-.592.343c-.06.035-.167.03-.237-.01l-.558-.323c-.07-.04-.077-.102-.017-.137l.593-.342c.06-.035.166-.03.237.01l.558.322c.07.04.077.103.016.137zM70.277 92.712l-.592.342c-.06.035-.167.03-.237-.01l-.558-.322c-.07-.04-.079-.101-.018-.136l.593-.342c.06-.035.166-.03.237.01l.558.322c.07.04.078.101.017.136zM71.765 91.867l-.592.341c-.06.035-.167.031-.237-.01l-.558-.321c-.07-.04-.078-.103-.017-.137l.592-.342c.06-.034.167-.03.237.01l.559.322c.07.04.077.102.016.136zM73.217 91.029l-.593.342c-.06.035-.167.03-.237-.01l-.558-.322c-.07-.04-.077-.103-.016-.138l.592-.34c.06-.035.167-.032.237.008l.558.323c.07.04.077.102.017.137z"/><path fill="#EF4BA2" d="M105.544 58.12c.134-.062.309-.048.503.064l6.716 3.636c.222.129.435.203.631.234l-.36-20.874 1.585.452v-5.335l1.706.945v24.453c0 1.177.835 2.622 1.856 3.211l9.331 5.367c.364.21.645.549.763.951.135.461.04.775-.168.887l-2.27 1.229a.08.08 0 0 1-.083-.003l-11.347-6.834-10.345-6.077-.805-.952a.081.081 0 0 1 .023-.124l2.264-1.23z"/><path fill="#1A162C" d="M116.016 37.425v24.27c0 1.279.902 2.84 2.011 3.48l9.33 5.368c.303.174.529.454.621.77.098.337.03.499-.018.525l-2.156 1.167-11.236-6.767-10.303-6.052-.588-.697 2.003-1.09c.039-.013.111-.004.211.054l6.725 3.64c.238.138.486.229.73.268l.366.058-.36-20.826 1.578.45v-5.22l1.086.602zm9.781 36.236a.396.396 0 0 0 .186-.047l2.272-1.23c.284-.153.519-.56.319-1.246a1.94 1.94 0 0 0-.906-1.133l-9.331-5.368c-.922-.531-1.7-1.879-1.7-2.943V37.06l-2.327-1.29v5.451l-1.592-.453.359 20.865a1.574 1.574 0 0 1-.157-.082l-6.725-3.64c-.268-.153-.547-.18-.781-.072l-.017.01-2.264 1.229a.389.389 0 0 0-.112.596l.884 1.02 10.346 6.077 11.343 6.831c.059.04.13.059.203.059z"/><path fill="#fff" d="M114.558 65.032l2.402-1.369.005-.003c.327.522.751.976 1.219 1.246l9.331 5.367c.156.09.26.226.38.359l-2.229 1.263-.702.436-8.9-4.747-1.171-.765-.335-1.787z"/><path fill="#1A162C" d="M127.39 70.561l-1.877 1.064-.56.348-8.742-4.662-1.036-.68-.271-1.439 1.964-1.119c.341.48.739.857 1.161 1.102l9.332 5.368c.01.005.02.011.029.018zm-2.413 2.127l.854-.529 2.552-1.448-.313-.35c-.105-.119-.224-.255-.399-.357l-9.332-5.367c-.399-.23-.794-.636-1.111-1.142l-.175-.28-.27.194-2.569 1.462.399 2.135 1.283.838 9.081 4.844z"/><path fill="#fff" d="M105.544 58.112c.134-.062.309-.047.502.064l6.717 3.636c.222.128.435.203.631.234l.124.406-2.318 1.222-.552.421-6.586-3.677-.805-.952a.081.081 0 0 1 .023-.124l2.264-1.23z"/><path fill="#1A162C" d="M113.13 62.305l-2.118 1.123-.39.298-6.359-3.552-.587-.694 2.004-1.09c.038-.012.11-.004.211.054l6.725 3.641c.169.097.341.171.514.22zm-2.455 2.16l.693-.528 2.521-1.331-.254-.835-.192-.03a1.526 1.526 0 0 1-.524-.198l-6.725-3.64c-.267-.154-.547-.18-.78-.073l-.017.01-2.264 1.23a.389.389 0 0 0-.112.596l.89 1.022 6.764 3.777z"/><path fill="#1A162C" d="M112.323 61.996V37.542l1.706.946V62.94c0 1.183.831 2.62 1.856 3.213l9.402 5.408c.416.24.754.824.754 1.304 0 .481-.338.676-.754.435l-11.258-6.48-1.706-.944-8.573-4.706c-.416-.24-.754-.824-.754-1.305 0-.48.338-.675.754-.434l6.717 3.636c1.025.59 1.856.111 1.856-1.071z"/><path fill="#1A162C" d="M113.721 38.67v24.27c0 1.302.883 2.83 2.01 3.48l9.403 5.41c.319.184.598.668.598 1.036 0 .125-.032.2-.065.219-.032.018-.113.01-.222-.053l-11.259-6.48-1.711-.947-8.573-4.707c-.314-.18-.594-.665-.594-1.032 0-.126.033-.201.066-.22.032-.018.113-.01.222.053l6.725 3.64c.589.34 1.164.386 1.615.126.45-.26.698-.782.698-1.47V38.07l1.087.601zm11.907 35.043a.69.69 0 0 0 .349-.091c.239-.137.377-.413.377-.756 0-.589-.4-1.28-.909-1.573l-9.404-5.41c-.921-.531-1.699-1.879-1.699-2.942V38.305l-2.328-1.288v24.979c0 .456-.138.788-.388.932-.251.143-.606.098-1.002-.13l-6.724-3.64c-.29-.168-.597-.186-.836-.049-.24.138-.376.414-.376.757 0 .587.399 1.278.908 1.572l10.284 5.655 11.254 6.476c.166.095.335.144.494.144z"/><path fill="#1A162C" d="M114.195 61.582l2.295-1.43-.328-.527-2.296 1.43.329.527zM114.195 55.387l2.295-1.43-.328-.526-2.296 1.43.329.526z"/><path fill="#EF4BA2" d="M113.658 48.956l.238-.414-1.281-.74-.239.414 1.282.74z"/><path fill="#1A162C" d="M127.703 73.643l.593.342c.061.035.168.031.238-.01l.559-.322c.07-.04.077-.102.016-.137l-.593-.342c-.061-.035-.167-.032-.237.01l-.559.322c-.07.04-.078.102-.017.137zM126.322 74.44l.593.341c.061.035.167.032.237-.009l.559-.323c.07-.04.079-.102.018-.137l-.593-.342c-.061-.035-.168-.03-.238.01l-.559.323c-.07.04-.078.101-.017.136zM127.776 75.278l.594.343c.061.035.167.03.237-.01l.559-.323c.07-.04.079-.101.018-.136l-.594-.343c-.061-.035-.167-.03-.237.01l-.559.323c-.07.04-.078.101-.018.136zM124.861 75.282l.593.343c.061.035.167.03.237-.01l.559-.323c.071-.04.078-.102.017-.136l-.593-.343c-.061-.036-.167-.03-.237.01l-.56.322c-.07.04-.077.102-.016.137zM126.314 76.121l.593.343c.061.035.167.03.237-.01l.559-.322c.07-.041.079-.103.018-.138l-.593-.342c-.061-.034-.168-.03-.238.01l-.559.322c-.07.04-.078.103-.017.138zM123.406 74.443l.593.342c.061.035.167.031.237-.01l.56-.322c.07-.04.077-.102.016-.137l-.593-.342c-.061-.035-.167-.03-.237.01l-.56.323c-.07.04-.077.101-.016.136zM121.951 73.605l.593.341c.061.035.167.03.238-.01l.559-.323c.07-.04.077-.1.016-.136l-.593-.343c-.061-.035-.167-.03-.237.01l-.559.323c-.071.04-.078.102-.017.138zM120.498 72.765l.593.343c.06.035.167.03.238-.01l.558-.323c.071-.04.078-.102.017-.137l-.593-.343c-.061-.035-.167-.03-.237.01l-.559.323c-.07.04-.078.102-.017.137zM119.042 71.926l.594.342c.06.035.167.031.237-.01l.559-.322c.07-.04.078-.102.018-.137l-.594-.342c-.061-.035-.167-.032-.237.009l-.559.323c-.07.04-.079.102-.018.137zM117.59 71.086l.593.343c.061.035.167.03.237-.01l.559-.323c.07-.04.078-.101.017-.136l-.594-.343c-.06-.035-.167-.03-.237.01l-.559.323c-.07.04-.077.101-.016.136zM116.135 70.248l.593.341c.061.035.167.032.237-.009l.559-.322c.07-.04.078-.103.017-.138l-.593-.342c-.061-.035-.167-.03-.238.01l-.559.323c-.07.04-.077.102-.016.136zM114.679 69.409l.593.342c.061.035.167.03.237-.01l.559-.323c.071-.04.079-.102.018-.137l-.593-.343c-.061-.035-.167-.03-.237.01l-.56.323c-.07.04-.078.103-.017.138zM113.224 68.569l.593.343c.061.035.167.03.237-.01l.56-.323c.07-.04.078-.102.017-.137l-.593-.342c-.061-.035-.167-.03-.237.01l-.56.323c-.07.04-.078.1-.017.136zM111.771 67.73l.593.342c.061.035.167.032.237-.009l.56-.322c.07-.041.077-.103.017-.138l-.594-.342c-.06-.035-.166-.031-.237.01l-.559.322c-.071.04-.078.102-.017.137zM110.316 66.89l.593.344c.061.035.168.03.238-.01l.559-.323c.07-.04.077-.101.016-.136l-.593-.343c-.061-.035-.167-.03-.237.01l-.559.322c-.07.041-.078.102-.017.137zM108.863 66.052l.594.342c.06.036.167.031.237-.01l.559-.322c.07-.04.077-.102.017-.137l-.594-.342c-.061-.035-.167-.03-.237.01l-.559.323c-.07.04-.078.101-.017.136zM107.408 65.213l.593.342c.061.035.167.03.237-.01l.559-.322c.07-.041.079-.102.018-.137l-.594-.343c-.06-.035-.167-.03-.237.01l-.559.323c-.07.04-.078.102-.017.137zM105.953 64.373l.593.343c.061.035.167.03.237-.01l.559-.323c.07-.04.078-.1.018-.137l-.593-.342c-.061-.035-.167-.03-.238.01l-.559.323c-.071.04-.078.101-.017.136zM123.48 76.079l.593.342c.061.035.167.03.238-.01l.559-.323c.07-.04.077-.101.016-.136l-.593-.343c-.06-.035-.167-.03-.237.01l-.559.323c-.071.04-.078.1-.017.137zM122.025 75.24l.593.342c.061.036.168.03.238-.01l.559-.323c.07-.04.077-.102.016-.137l-.593-.342c-.06-.035-.167-.03-.237.01l-.559.323c-.07.04-.078.102-.017.136zM120.571 74.4l.594.342c.061.035.167.031.237-.01l.559-.322c.07-.04.079-.102.018-.137l-.594-.342c-.061-.034-.167-.03-.237.01l-.559.322c-.07.041-.079.103-.018.137zM119.117 73.561l.593.343c.061.035.167.03.237-.01l.559-.323c.07-.04.078-.101.018-.136l-.593-.343c-.061-.035-.168-.03-.238.01l-.559.323c-.07.04-.078.101-.017.136zM117.662 72.722l.593.342c.061.035.167.032.237-.009l.559-.323c.071-.04.078-.102.017-.137l-.593-.342c-.061-.035-.167-.031-.238.01l-.559.322c-.07.04-.077.102-.016.137zM116.208 71.884l.594.342c.06.035.166.03.237-.01l.559-.323c.071-.04.078-.101.017-.136l-.593-.343c-.061-.035-.167-.03-.237.01l-.56.322c-.07.041-.077.103-.017.138zM114.753 71.044l.593.343c.061.035.167.03.237-.01l.56-.323c.07-.04.078-.102.017-.137l-.593-.342c-.061-.035-.167-.03-.237.01l-.56.322c-.07.041-.077.102-.017.137zM113.3 70.205l.593.342c.061.035.167.03.238-.01l.559-.323c.07-.04.078-.101.017-.136l-.593-.342c-.061-.035-.167-.032-.237.01l-.559.322c-.071.04-.079.102-.018.137zM111.845 69.366l.593.343c.061.034.168.03.238-.01l.559-.323c.07-.04.078-.102.017-.137l-.593-.343c-.061-.035-.167-.03-.237.01l-.559.323c-.07.04-.079.102-.018.137zM110.39 68.527l.594.342c.061.035.167.031.237-.01l.559-.322c.07-.04.077-.102.017-.137l-.594-.342c-.06-.035-.167-.032-.237.009l-.559.323c-.07.04-.078.102-.017.137zM108.937 67.688l.593.342c.061.035.167.03.237-.01l.559-.323c.071-.04.079-.101.018-.136l-.593-.343c-.061-.035-.168-.03-.238.01l-.559.323c-.07.04-.078.102-.017.137zM107.482 66.849l.593.342c.061.035.167.03.237-.01l.559-.322c.071-.04.078-.103.018-.138l-.594-.342c-.06-.035-.166-.03-.238.01l-.558.323c-.071.04-.078.102-.017.136zM106.027 66.01l.593.342c.061.035.167.03.237-.01l.56-.323c.07-.04.077-.101.016-.137l-.593-.341c-.061-.035-.167-.032-.237.009l-.56.322c-.07.041-.077.103-.016.138zM104.464 63.577l.594.343c.061.035.167.03.237-.01l.559-.323c.07-.04.078-.102.017-.137l-.594-.342c-.061-.035-.167-.03-.237.01l-.559.323c-.07.04-.077.101-.017.136zM103.01 62.739l.593.342c.061.035.167.03.237-.01l.559-.323c.07-.04.078-.101.017-.136l-.593-.342c-.061-.036-.168-.032-.238.009l-.559.322c-.07.04-.077.103-.016.138zM101.556 61.899l.593.343c.061.035.167.03.237-.01l.559-.323c.071-.04.079-.101.018-.136l-.593-.343c-.061-.035-.167-.03-.238.01l-.559.322c-.07.041-.078.102-.017.137zM104.539 65.213l.593.342c.061.035.167.03.237-.01l.559-.322c.071-.041.078-.102.017-.137l-.593-.343c-.061-.035-.167-.03-.238.01l-.559.323c-.07.04-.077.102-.016.137zM103.084 64.373l.593.343c.06.035.167.03.237-.01l.559-.323c.071-.04.078-.1.017-.137l-.593-.342c-.061-.035-.167-.03-.237.01l-.56.323c-.07.04-.077.101-.016.136zM101.63 63.535l.593.342c.061.035.167.031.237-.01l.56-.322c.07-.04.078-.102.017-.137l-.593-.342c-.061-.035-.167-.032-.237.009l-.56.323c-.07.04-.078.102-.017.137z"/><path fill="#EF4BA2" d="M75.272 64.801v-2.035c0-.057.042-.106.098-.115l4.15-.689a.124.124 0 0 0 .04-.014l18.552-10.744c.645-.373 1.621-.413 2.18-.09l12.416 7.137a.128.128 0 0 0 .037.014l4.686.865c.056.01.096.06.096.115v2.045c.006.258-.091.552-.512.794l-22.31 12.913c-.646.372-1.622.413-2.181.09l-16.88-9.713c-.264-.152-.383-.358-.372-.573z"/><path fill="#1A162C" d="M117.215 59.406v1.884c.004.15-.034.34-.356.526L94.547 74.729c-.549.317-1.406.359-1.87.09l-16.88-9.713c-.102-.06-.223-.157-.215-.288v-.007-1.88l4.042-.672.09-.042 18.552-10.745c.549-.316 1.405-.359 1.87-.09l12.46 7.164.087.023 4.532.837zm-23.743 16.21c.481 0 .985-.118 1.386-.35l22.312-12.914c.445-.256.675-.626.666-1.069v-2.038a.427.427 0 0 0-.35-.42l-4.653-.859-12.387-7.122c-.654-.377-1.748-.337-2.49.091L79.432 61.662l-4.114.683a.425.425 0 0 0-.358.421v2.027c-.015.34.177.648.526.85l16.88 9.713c.301.174.695.26 1.105.26z"/><path fill="#1A162C" d="M116.148 58.85l1.303.24c.055.01.096.06.096.116v2.045c.005.257-.092.552-.512.794l-.887.512V58.85zM93.548 75.304c-.383.012-.754-.058-1.026-.215l-16.88-9.713c-.264-.153-.383-.36-.372-.573v-2.035c0-.057.041-.106.098-.115l4.15-.69a.104.104 0 0 0 .04-.013l26.311-5.272-9.75-1.415-2.57 20.04z"/><path fill="#fff" d="M75.641 63.283l16.88 9.713c.56.323 1.535.282 2.18-.09l22.312-12.913c.645-.373.716-.936.157-1.258l-16.881-9.713c-.558-.323-1.534-.282-2.18.09L75.8 62.025c-.647.373-.717.936-.158 1.258z"/><path fill="#1A162C" d="M99.347 49.113c.299 0 .582.058.788.177l16.88 9.714c.083.048.222.147.222.277 0 .11-.099.282-.378.444L94.547 72.638c-.55.316-1.406.357-1.87.09l-16.88-9.714h.001c-.083-.047-.223-.147-.223-.277 0-.109.1-.282.379-.443l22.312-12.913a2.237 2.237 0 0 1 1.08-.268zM93.47 73.524a2.84 2.84 0 0 0 1.386-.349l22.312-12.914c.438-.253.688-.61.688-.98 0-.327-.189-.616-.532-.814l-16.88-9.714c-.655-.377-1.748-.337-2.49.091L75.643 61.757c-.437.253-.688.61-.688.98 0 .328.189.616.532.814v.001l16.88 9.713c.3.174.695.26 1.104.26z"/><path fill="#1A162C" d="M114.26 63.588h.621v-2.063h-.621v2.063zM95.394 74.52h.622v-2.064h-.622v2.064zM111.582 65.05h.621v-2.063h-.621v2.063zM90.46 95.244l.594.342c.06.035.167.03.237-.01l.559-.323c.07-.04.078-.102.017-.136l-.594-.343c-.06-.035-.167-.03-.237.01l-.559.322c-.07.04-.077.103-.017.138zM89.078 96.04l.593.342c.06.035.167.03.237-.01l.56-.323c.07-.04.077-.101.016-.136l-.593-.343c-.06-.035-.167-.03-.237.01l-.56.323c-.07.04-.077.102-.016.137zM90.533 96.879l.593.342c.06.036.167.03.237-.01l.559-.322c.07-.04.078-.102.017-.138l-.593-.341c-.06-.035-.167-.03-.238.01l-.559.322c-.07.04-.077.102-.016.137zM87.617 96.882l.593.342c.06.036.167.032.237-.009l.56-.323c.07-.04.077-.102.016-.137l-.593-.342c-.06-.035-.167-.03-.237.01l-.559.323c-.07.04-.078.101-.017.136zM89.07 97.721l.593.343c.06.035.167.03.237-.01l.56-.323c.07-.04.077-.101.016-.136l-.593-.343c-.06-.035-.167-.03-.237.01l-.56.323c-.07.04-.077.101-.016.136zM86.163 96.044l.594.342c.06.035.167.03.238-.01l.558-.323c.07-.04.078-.102.017-.136l-.593-.343c-.06-.035-.167-.03-.237.01l-.559.322c-.07.04-.078.103-.017.138zM84.708 95.204l.594.343c.06.035.167.03.237-.01l.56-.323c.07-.04.077-.101.016-.137l-.593-.342c-.06-.035-.167-.03-.237.01l-.559.322c-.07.041-.078.102-.018.137zM83.255 94.365l.594.342c.06.035.167.031.237-.009l.559-.323c.07-.04.078-.102.017-.137l-.594-.342c-.06-.035-.167-.031-.237.01l-.559.322c-.07.04-.077.102-.017.137zM81.8 93.526l.594.343c.06.035.167.03.237-.01l.559-.323c.07-.04.078-.102.017-.136l-.593-.343c-.06-.035-.168-.03-.238.01l-.559.322c-.07.04-.077.102-.016.137zM80.345 92.687l.593.342c.061.036.167.032.237-.01l.56-.322c.07-.04.078-.102.017-.137l-.593-.342c-.061-.035-.167-.03-.238.01l-.56.323c-.07.04-.077.101-.016.136zM78.892 91.848l.593.342c.061.035.167.03.237-.01l.56-.323c.07-.04.078-.101.017-.136l-.594-.342c-.06-.036-.166-.031-.236.01l-.56.322c-.07.04-.078.102-.017.137zM77.437 91.008l.593.343c.06.035.167.03.237-.01l.56-.322c.07-.04.077-.102.017-.138l-.593-.342c-.061-.035-.168-.03-.238.01l-.559.323c-.07.04-.078.102-.017.136zM75.982 90.17l.593.342c.06.035.167.031.238-.01l.559-.322c.07-.04.077-.102.016-.137l-.593-.342c-.06-.035-.166-.032-.237.009l-.559.323c-.07.04-.078.102-.017.137zM74.527 89.331l.594.342c.06.035.167.03.237-.01l.559-.323c.07-.04.077-.101.016-.136l-.593-.343c-.06-.035-.167-.03-.237.01l-.559.323c-.07.04-.078.101-.017.137zM73.073 88.492l.594.341c.061.036.167.032.237-.009l.56-.322c.07-.041.078-.103.017-.138l-.594-.342c-.061-.035-.167-.03-.237.01l-.56.323c-.07.04-.077.101-.017.136zM71.617 87.653l.593.342c.061.035.167.03.237-.01l.56-.323c.07-.04.078-.101.017-.136l-.593-.342c-.061-.037-.168-.032-.238.009l-.56.323c-.07.04-.077.102-.016.137zM70.166 86.813l.593.343c.06.035.167.03.237-.01l.559-.323c.07-.04.078-.101.017-.137l-.593-.342c-.06-.035-.167-.03-.238.01l-.559.323c-.07.04-.077.101-.016.136zM68.71 85.974l.593.342c.061.035.167.032.237-.01l.56-.322c.07-.04.078-.102.017-.137l-.593-.342c-.061-.035-.167-.031-.237.01l-.56.322c-.07.04-.078.102-.017.137zM86.236 97.679l.594.343c.06.034.167.03.237-.01l.559-.323c.07-.04.077-.102.017-.138l-.594-.341c-.06-.036-.167-.031-.237.01l-.559.322c-.07.04-.078.102-.017.137zM84.782 96.84l.594.342c.061.035.167.03.237-.01l.56-.323c.07-.04.078-.101.017-.136l-.593-.342c-.061-.035-.168-.031-.238.01l-.56.322c-.07.04-.077.102-.017.137zM83.328 96l.593.343c.06.035.167.03.237-.01l.559-.323c.07-.04.078-.1.018-.136l-.594-.343c-.06-.035-.166-.03-.238.01l-.558.323c-.07.04-.078.101-.017.136zM81.873 95.162l.593.341c.06.035.166.032.237-.008l.56-.323c.07-.04.077-.103.016-.138l-.593-.342c-.06-.034-.167-.03-.237.01l-.56.322c-.07.041-.077.103-.016.138zM80.417 94.323l.593.342c.061.035.167.03.237-.01l.56-.323c.07-.04.078-.101.017-.136l-.593-.343c-.061-.035-.167-.03-.237.01l-.56.322c-.07.041-.078.103-.017.138zM78.966 93.483l.593.343c.061.035.167.03.238-.01l.56-.323c.07-.04.077-.102.016-.137l-.593-.342c-.061-.035-.167-.03-.237.01l-.56.323c-.07.04-.078.101-.017.136zM77.51 92.644l.592.343c.061.035.168.03.238-.01l.56-.323c.07-.04.077-.102.016-.137l-.593-.342c-.061-.035-.167-.031-.237.01l-.56.322c-.07.04-.078.103-.017.137zM76.054 91.805l.594.342c.06.035.167.031.237-.01l.559-.322c.07-.04.078-.102.017-.137l-.593-.342c-.061-.035-.167-.03-.238.01l-.558.322c-.07.04-.079.102-.018.137zM74.601 90.966l.594.342c.06.035.166.031.237-.01l.558-.322c.07-.04.079-.102.018-.137l-.594-.342c-.06-.035-.167-.03-.237.01l-.559.322c-.07.04-.077.102-.017.137zM73.148 90.127l.593.342c.06.035.167.03.237-.01l.559-.323c.071-.04.078-.1.018-.136l-.594-.343c-.06-.035-.166-.03-.237.01l-.56.323c-.07.04-.077.102-.016.138zM71.693 89.288l.593.343c.06.035.167.03.237-.01l.559-.323c.071-.04.078-.102.018-.138l-.594-.342c-.06-.034-.166-.03-.237.01l-.56.323c-.07.04-.077.102-.016.137zM70.238 88.449l.593.342c.06.035.167.03.237-.01l.56-.323c.07-.04.077-.101.016-.136l-.593-.342c-.06-.035-.167-.031-.237.009l-.56.322c-.07.041-.077.103-.016.138zM68.783 87.61l.593.342c.06.035.167.03.238-.01l.559-.322c.07-.041.077-.102.016-.137l-.593-.343c-.06-.035-.167-.03-.237.01l-.559.323c-.07.04-.078.101-.017.136zM67.22 85.178l.593.342c.061.035.167.03.237-.01l.56-.323c.07-.04.078-.102.017-.136l-.593-.343c-.061-.034-.167-.03-.238.01l-.56.322c-.07.041-.077.103-.016.138zM65.767 84.338l.593.343c.061.035.167.03.237-.01l.56-.323c.07-.04.078-.1.017-.136l-.594-.343c-.06-.035-.166-.03-.236.01l-.56.323c-.07.04-.078.101-.017.136zM64.312 83.5l.593.341c.06.036.167.032.237-.009l.56-.322c.07-.04.077-.102.017-.138l-.593-.341c-.061-.036-.168-.031-.238.009l-.56.323c-.07.04-.077.101-.016.137zM67.294 86.813l.594.343c.06.035.166.03.236-.01l.56-.323c.07-.04.078-.101.017-.137l-.593-.342c-.061-.035-.167-.03-.237.01l-.56.323c-.07.04-.078.101-.017.136zM65.84 85.974l.592.342c.061.035.167.032.238-.01l.56-.322c.07-.04.077-.102.016-.137l-.593-.342c-.061-.035-.167-.031-.237.01l-.56.322c-.07.04-.078.102-.017.137zM64.386 85.136l.593.341c.061.036.167.03.238-.01l.56-.322c.07-.04.077-.102.016-.137l-.593-.343c-.061-.035-.167-.03-.237.01l-.56.323c-.07.04-.078.102-.017.138z"/><path fill="#EF4BA2" d="M67.637 79.104c.133-.062.308-.047.502.064l7.253 4.038c.222.128.434.203.63.234l-.359-33.762 1.585.45v-5.334l1.706.945V83.08c0 1.177.835 2.622 1.856 3.211l9.33 5.367c.365.21.646.549.764.952.135.46.04.774-.168.886l-2.27 1.23a.082.082 0 0 1-.084-.004l-11.346-6.834-10.881-6.48-.806-.951a.08.08 0 0 1 .023-.123l2.265-1.231z"/><path fill="#1A162C" d="M78.642 45.921v37.16c0 1.278.903 2.84 2.011 3.48l9.331 5.367c.302.175.529.455.62.77.1.337.031.5-.017.525l-2.156 1.168-11.236-6.767-10.839-6.454-.59-.697 2.004-1.09c.037-.014.11-.005.212.055l7.258 4.038c.242.14.49.233.733.27l.363.059-.36-33.715 1.581.45v-5.22l1.085.601zm9.78 49.125a.39.39 0 0 0 .191-.048l2.269-1.228c.284-.153.519-.56.319-1.246a1.965 1.965 0 0 0-.907-1.133l-9.33-5.368c-.922-.531-1.7-1.88-1.7-2.942V45.556l-2.328-1.288v5.45l-1.589-.453.36 33.756a1.883 1.883 0 0 1-.16-.083l-7.259-4.04c-.27-.156-.55-.183-.783-.076l-.018.01-2.264 1.23a.39.39 0 0 0-.112.596l.883 1.018 10.882 6.48 11.344 6.832c.06.04.13.058.203.058z"/><path fill="#fff" d="M77.187 86.418l2.402-1.37.005-.002c.327.522.751.976 1.219 1.246l9.331 5.367c.156.09.26.226.38.359l-2.229 1.263-.702.435-8.9-4.745-1.171-.766-.335-1.787z"/><path fill="#1A162C" d="M90.018 91.947l-1.877 1.064-.56.348-8.742-4.662-1.036-.679-.27-1.44 1.962-1.12c.342.481.74.86 1.162 1.102l9.332 5.368.03.019zm-2.413 2.127l.854-.53 2.553-1.447-.316-.351c-.104-.119-.223-.255-.396-.355l-9.333-5.368c-.398-.23-.794-.636-1.111-1.142l-.17-.27-.265.177-2.58 1.47.4 2.135 1.283.837 9.08 4.844z"/><path fill="#fff" d="M67.637 79.097c.133-.062.308-.048.501.063l7.254 4.038c.222.128.434.203.63.234l.124.406-2.317 1.222-.552.421-7.122-4.08-.806-.951a.082.082 0 0 1 .023-.124l2.265-1.23z"/><path fill="#1A162C" d="M75.758 83.691l-2.118 1.123-.388.296-6.897-3.95-.587-.696 2.004-1.089c.037-.011.109-.005.211.054l7.258 4.04c.17.099.344.172.517.222zm-2.457 2.161l.695-.53 2.522-1.33-.255-.835-.19-.03a1.54 1.54 0 0 1-.526-.197l-7.258-4.04c-.27-.157-.55-.183-.784-.076l-.017.01-2.264 1.23a.391.391 0 0 0-.112.596l.887 1.02 7.302 4.182z"/><path fill="#1A162C" d="M74.952 83.383V46.04l1.706.944v37.342c0 1.183.831 2.62 1.856 3.212l9.402 5.408c.416.24.754.825.754 1.305s-.338.675-.754.434l-11.258-6.479-1.706-.944-9.11-5.11c-.415-.239-.753-.823-.753-1.303s.338-.676.754-.435l7.253 4.038c1.025.59 1.856.11 1.856-1.07z"/><path fill="#1A162C" d="M76.35 47.168v37.16c0 1.3.883 2.829 2.01 3.479l9.403 5.409c.32.184.598.668.598 1.036 0 .126-.032.2-.065.218-.032.02-.113.01-.222-.052l-11.26-6.48-1.71-.947-9.108-5.107c-.316-.183-.595-.667-.595-1.034 0-.125.033-.201.065-.22.032-.018.114-.01.223.053l7.257 4.04c.593.343 1.168.388 1.62.128.45-.26.697-.782.697-1.47V46.568l1.087.6zm11.907 47.931c.125 0 .244-.03.35-.091.238-.138.375-.413.375-.756 0-.588-.399-1.28-.908-1.573l-9.404-5.41c-.922-.532-1.7-1.88-1.7-2.942V46.803l-2.328-1.289v37.868c0 .457-.137.788-.388.931-.25.146-.606.1-1.001-.129l-7.258-4.04c-.293-.17-.6-.188-.839-.05-.239.137-.376.413-.376.756 0 .588.4 1.28.91 1.573l10.82 6.056 11.253 6.476a.995.995 0 0 0 .493.144z"/><path fill="#1A162C" d="M76.822 82.969l2.295-1.43-.328-.527-2.296 1.43.329.527zM76.822 76.773l2.295-1.43-.328-.526-2.296 1.43.329.526z"/><path fill="#EF4BA2" d="M76.304 50.94l.239-.413-1.282-.74-.238.414 1.281.74zM76.246 68.989l.238-.413-1.282-.74-.239.413 1.283.74zM76.26 60.575l.238-.413-1.282-.739-.238.413 1.281.74z"/><path fill="#EF4BA2" d="M57.217 48.247v-2.035c0-.057.042-.106.099-.115l4.15-.69a.097.097 0 0 0 .038-.014l39.577-22.913c.645-.372 1.621-.413 2.18-.09l25.964 14.975a.14.14 0 0 0 .038.014l4.686.866c.055.01.096.059.096.115v2.044c.005.258-.092.552-.511.795L90.199 66.28c-.646.372-1.622.412-2.18.09l-30.43-17.552c-.264-.152-.382-.358-.372-.572z"/><path fill="#1A162C" d="M133.735 38.52v1.884c.002.151-.035.341-.356.526L90.043 66.013c-.548.317-1.405.358-1.869.09L57.744 48.55c-.103-.059-.224-.158-.217-.288v-1.887l4.044-.672.088-.043 39.577-22.913c.548-.316 1.405-.358 1.869-.09l26.012 15.003.092.023 4.526.836zM88.967 66.9c.483 0 .986-.118 1.386-.35l43.337-25.082c.444-.257.675-.627.665-1.07V38.36a.427.427 0 0 0-.35-.42l-4.653-.86-25.936-14.958c-.654-.378-1.748-.339-2.49.09L61.379 45.107l-4.115.683a.425.425 0 0 0-.357.42v2.027c-.014.339.177.648.527.85l30.43 17.551c.3.174.694.26 1.103.26z"/><path fill="#1A162C" d="M132.669 37.965l1.301.24a.118.118 0 0 1 .096.115v2.045c.007.258-.091.553-.511.795l-.886.512v-3.707zM89.045 66.588c-.383.01-.755-.059-1.027-.215L57.588 48.82c-.263-.152-.381-.358-.37-.572v-2.035c0-.058.04-.106.098-.117l4.15-.688a.135.135 0 0 0 .038-.014l23.74-3.804 3.8-3.688v28.685z"/><path fill="#fff" d="M57.588 46.728l30.43 17.552c.558.322 1.534.282 2.18-.09l43.335-25.082c.645-.373.715-.936.157-1.258L103.26 20.3c-.559-.323-1.535-.282-2.18.09L57.745 45.471c-.645.372-.715.935-.157 1.257z"/><path fill="#1A162C" d="M102.316 20.39c.299 0 .583.058.788.177l30.43 17.551c.083.048.222.148.222.278 0 .109-.099.282-.378.443L90.042 63.921c-.549.317-1.405.358-1.869.09L57.743 46.46c-.082-.048-.221-.148-.221-.278 0-.108.1-.282.378-.443l43.336-25.082c.304-.176.704-.267 1.08-.267zm-13.35 44.417c.482 0 .987-.118 1.387-.35l43.336-25.081c.437-.252.688-.61.688-.98 0-.327-.189-.617-.532-.815l-30.43-17.55c-.654-.378-1.748-.339-2.49.089L57.589 45.203c-.437.251-.688.609-.688.98 0 .327.189.616.532.814l30.43 17.55c.3.175.694.26 1.104.26z"/><path fill="#1A162C" d="M130.778 42.703h.62V40.64h-.62v2.064zM90.891 65.803h.62V63.74h-.62v2.063zM124.414 46.24h.621v-2.063h-.621v2.063z"/><path fill="#EF4BA2" d="M124.484 35.243c.086.855-.757 1.735-2.557 2.084-1.189.23-2.439.042-3.476-.582-.645-.388-.909-.772-.942-1.323l-.009-.093.001-7.922c0-.051.041-.091.091-.091l6.797.057c.051 0 .091.041.091.09l.004 7.78z"/><path fill="#1A162C" d="M124.171 27.68l.005 7.594c.064.635-.625 1.422-2.307 1.748-1.149.223-2.305.03-3.257-.543-.629-.378-.769-.691-.792-1.076l-.009-.102.001-7.673 6.359.052zm-3.233 10.052c.347 0 .698-.033 1.049-.101 2.194-.425 2.883-1.556 2.808-2.402l-.003-7.765c0-.22-.179-.4-.399-.401l-6.796-.057a.475.475 0 0 0-.287.117.395.395 0 0 0-.119.284l.01 8.042c.038.656.365 1.125 1.091 1.562a5.126 5.126 0 0 0 2.646.721z"/><path fill="#1A162C" d="M120.954 37.727a5.41 5.41 0 0 0 1.031-.096c2.208-.428 2.893-1.57 2.807-2.419l-.002-7.748c0-.22-.179-.4-.399-.401l-3.962-.034-.027 8.968.622.002.025-8.345 3.12.026.004 7.564c.065.665-.624 1.452-2.306 1.779a5.023 5.023 0 0 1-.973.083.35.35 0 0 0-.1-.015l-.005.31-.076.298.12.027h.121zM117.539 35.44l-.008-.094v-7.922c0-.05.042-.091.092-.091l1.17.01-.242 1.335-.069 7.941c-.645-.388-.91-.629-.943-1.18z"/><path fill="#1A162C" d="M118.421 27.65l-.18 1.025-.065 7.367c-.242-.196-.312-.357-.328-.622l-.008-7.775.581.005zm.366 9.513l.073-8.456.302-1.67-1.537-.014h-.003c-.22 0-.4.178-.402.398l.009 8.038c.045.74.481 1.057 1.093 1.425l.465.28z"/><path fill="#fff" d="M123.466 25.807c-1.366-.788-3.58-.788-4.946 0-1.366.788-1.366 2.065 0 2.853 1.365.788 3.58.788 4.946 0 1.366-.788 1.366-2.065 0-2.853z"/><path fill="#1A162C" d="M120.994 25.522c.84 0 1.679.184 2.318.553.561.323.87.735.87 1.159 0 .422-.309.834-.87 1.157-1.278.737-3.357.737-4.636 0-.56-.322-.868-.734-.868-1.157 0-.425.308-.836.868-1.16.64-.368 1.479-.552 2.318-.552zm0 4.044c.946 0 1.892-.213 2.629-.638.76-.438 1.18-1.04 1.18-1.695 0-.654-.42-1.256-1.18-1.695-1.475-.85-3.783-.85-5.257 0-.76.44-1.179 1.041-1.179 1.695 0 .655.419 1.257 1.179 1.695.737.425 1.682.638 2.628.638z"/><path fill="#1A162C" d="M121.649 26.855c-.362-.209-.948-.209-1.31 0-.362.209-.362.547 0 .756.362.209.948.209 1.31 0 .361-.209.361-.547 0-.756z"/><path fill="#EF4BA2" d="M93.424 39.516l14.489 8.324 9.083-5.184-14.507-8.37-9.065 5.23z"/><path fill="#1A162C" d="M116.373 42.655l-8.46 4.827-13.867-7.966 8.442-4.872 13.885 8.011zm-8.461 5.542l9.707-5.54-15.131-8.728-9.686 5.588 15.11 8.68z"/><path fill="#fff" d="M93.381 36.663l14.489 8.324 9.083-5.184-14.508-8.37-9.064 5.23z"/><path fill="#1A162C" d="M116.331 39.802l-8.46 4.827-13.867-7.967 8.443-4.87 13.884 8.01zm-8.461 5.542l9.708-5.539-15.131-8.73-9.686 5.588 15.109 8.681z"/><path fill="#fff" d="M113.742 36.096l-5.574 3.209-5.543-3.127 5.519-3.25 5.598 3.168z"/><path fill="#1A162C" d="M113.118 36.099l-4.949 2.849-4.922-2.775 4.903-2.887 4.968 2.813zm-4.946 3.562l6.197-3.567-6.226-3.524-6.138 3.615 6.167 3.476z"/><path fill="#EF4BA2" d="M110.846 38.929l-3.264 1.878-3.247-1.83 3.233-1.905 3.278 1.857z"/><path fill="#1A162C" d="M110.22 38.93l-2.64 1.52-2.624-1.479 2.615-1.54 2.649 1.5zm-2.637 2.234l3.888-2.238-3.907-2.211-3.85 2.267 3.869 2.182z"/><path fill="#EF4BA2" d="M99.652 52.512l-3.264 1.878-3.246-1.83 3.232-1.904 3.278 1.856z"/><path fill="#1A162C" d="M99.028 52.514l-2.64 1.52-2.623-1.48 2.615-1.54 2.648 1.5zm-2.636 2.233l3.887-2.237-3.906-2.212-3.85 2.268 3.869 2.18zM105.538 35.237h1.165c.359 0 .649-.29.649-.648v-2.252a.648.648 0 0 0-.649-.648h-1.165a.648.648 0 0 0-.648.648v2.252c0 .358.29.648.648.648z"/><path fill="#1A162C" d="M106.703 31.998c.187 0 .338.152.338.339v2.251a.338.338 0 0 1-.338.339h-1.165a.34.34 0 0 1-.338-.339v-2.251a.34.34 0 0 1 .338-.339h1.165zm-1.165 3.549h1.165a.96.96 0 0 0 .959-.959v-2.251a.96.96 0 0 0-.959-.959h-1.165a.96.96 0 0 0-.958.959v2.251c0 .529.43.959.958.959z"/><path fill="#EF4BA2" d="M110.614 28.866c.114 0 .203.098.192.212l-.569 5.725c0 .343-.336.687-1.007.852-.37.09-.762.09-1.131 0-.672-.165-1.007-.51-1.007-.852l-.569-5.725a.192.192 0 0 1 .191-.212h3.9z"/><path fill="#1A162C" d="M110.482 29.176l-.556 5.597c-.002.21-.24.45-.772.581a2.084 2.084 0 0 1-.983 0c-.533-.132-.771-.371-.771-.55l-.557-5.628h3.639zm-1.82 6.858c.216 0 .431-.026.641-.078.778-.192 1.242-.623 1.242-1.153l.568-5.694a.505.505 0 0 0-.501-.553h-3.9a.502.502 0 0 0-.5.554l.569 5.724c-.001.5.463.93 1.241 1.122.209.052.424.078.64.078z"/><path fill="#EF4BA2" d="M107.134 27.985c-.844.486-.844 1.276 0 1.764.845.486 2.214.487 3.059 0 .844-.488.844-1.278 0-1.764-.845-.488-2.214-.488-3.059 0z"/><path fill="#1A162C" d="M108.662 27.93c.501 0 1.002.108 1.374.323.305.175.479.399.479.613 0 .215-.174.438-.479.614-.745.43-2.004.43-2.747 0-.305-.176-.479-.399-.479-.614 0-.214.174-.438.479-.613.371-.215.872-.323 1.373-.323zm0 2.496c.606 0 1.213-.136 1.685-.41.508-.292.788-.7.788-1.15 0-.448-.28-.857-.788-1.15-.945-.545-2.425-.545-3.369 0-.508.293-.789.702-.789 1.15 0 .45.281.858.789 1.15.472.274 1.078.41 1.684.41z"/><path fill="#1A162C" d="M108.856 30.215l1.529-4.29-.585-.208-1.529 4.29.585.208z"/><path fill="#fff" d="M99.334 67.46l-3.74-2.126a5.313 5.313 0 0 1-2.345-2.76 7.127 7.127 0 0 0-3.197-3.719l-8.326-4.767 7.671-4.444 8.083 4.527a7.115 7.115 0 0 1 3.339 3.883l.075.209a5.284 5.284 0 0 0 2.485 2.885l3.398 1.895-7.443 4.416z"/><path fill="#1A162C" d="M106.154 63.051L99.33 67.1l-3.584-2.035a5.016 5.016 0 0 1-2.207-2.6 7.447 7.447 0 0 0-3.336-3.88l-7.856-4.5 7.053-4.083 7.928 4.439a6.799 6.799 0 0 1 3.198 3.717l.075.209a5.582 5.582 0 0 0 2.631 3.054l2.922 1.63zm-6.817 4.767l8.061-4.783-3.868-2.158a4.968 4.968 0 0 1-2.345-2.718l-.074-.21a7.417 7.417 0 0 0-3.485-4.052l-8.232-4.61-8.29 4.803 8.793 5.035a6.825 6.825 0 0 1 3.061 3.557 5.63 5.63 0 0 0 2.482 2.921l3.897 2.215z"/><path fill="#EF4BA2" d="M102.407 63.493l-2.571 1.517c-.243.139-.665.121-.945-.04l-1.213-.705c-.28-.162-.31-.405-.068-.545l2.572-1.515c.242-.14.665-.123.944.038l1.213.706c.279.16.31.405.068.544z"/><path fill="#1A162C" d="M87.508 55.01l3.953-2.28-.239-.414-3.952 2.28.238.413zM89.049 55.878l3.953-2.279-.239-.413-3.953 2.28.239.412zM90.59 56.783l3.953-2.28-.238-.413-3.953 2.28.238.413z"/><path fill="#fff" d="M69.55 81.81s.397 2.584 1.055 4.027c.658 1.442-3.909 3.774-3.909 3.774l-1.182-2.477s.252-2.654-.385-5.188 4.421-.136 4.421-.136z"/><path fill="#1A162C" d="M69.27 82.021c.101.602.475 2.675 1.053 3.945.35.766-1.743 2.288-3.484 3.221l-1.008-2.111c.039-.489.186-2.876-.4-5.206-.08-.32-.056-.537.074-.643.508-.417 2.455.196 3.766.794zm-2.715 8.011l.284-.144c.807-.412 4.793-2.55 4.05-4.18-.633-1.386-1.027-3.92-1.03-3.945l-.026-.163-.149-.07c-.585-.278-3.552-1.618-4.573-.782-.228.186-.461.559-.281 1.273.615 2.451.379 5.057.376 5.083l-.008.086 1.357 2.843z"/><path fill="#1A162C" d="M71.125 84.675s.788 1.477.575 3.388c-.137 1.227-1.264 1.928-1.756 1.983-.344.038-1.176 1.147-1.118 1.456.065.346-3.882 4.263-5.578 3.524-1.694-.738.275-4.534.275-4.534l7.602-5.817z"/><path fill="#1A162C" d="M68.513 91.473c-.23.426-2.258 2.459-3.924 3.134-.517.21-.938.255-1.217.135a.75.75 0 0 1-.42-.464c-.337-.954.446-2.851.815-3.582L71 85.16c.205.523.532 1.601.39 2.867-.12 1.084-1.121 1.67-1.48 1.71-.352.038-.75.513-.958.792-.293.396-.44.713-.44.943zm-4.784 3.956c1.021 0 2.297-.827 3.264-1.597.024-.019 2.247-1.808 2.137-2.389.025-.211.645-1.018.864-1.092.63-.069 1.861-.885 2.014-2.254.22-1.984-.576-3.504-.61-3.569l-.172-.322-7.947 6.082-.031.062c-.057.109-1.388 2.702-.88 4.135.137.39.392.666.756.825.188.082.39.119.605.119z"/><path fill="#EF4BA2" d="M70.633 84.185c-.087-.049-.887.597-.984.623-.285.076-.856.323-.978 1.098-.164 1.042-.902 1.042-.902 1.042v-1.183a.413.413 0 0 0-.38-.411l-1.903-.157a.414.414 0 0 0-.44.332l-.32 1.636s-.391 1.955-1.087 3.127c-.695 1.173-1.303 2.345-.434 3.04.87.695 2.39 0 4.39-2.432 1.444-1.757 3.083-3.965 3.496-4.692.239-.42.3-.928.114-1.373a1.297 1.297 0 0 0-.572-.65z"/><path fill="#1A162C" d="M70.6 84.533c.14.106.245.245.32.422.14.336.102.747-.099 1.1-.416.733-2.068 2.949-3.466 4.649-1.724 2.096-3.204 2.99-3.957 2.387-.603-.482-.287-1.3.508-2.64.715-1.205 1.108-3.143 1.124-3.225l.32-1.637c.011-.05.06-.082.11-.082l1.904.156a.102.102 0 0 1 .094.102v1.493h.31c.348 0 1.047-.272 1.21-1.304.087-.558.456-.768.75-.846.089-.023.172-.081.448-.28.114-.082.303-.219.424-.295zm-6.657 9.361c.822 0 2.077-.588 3.891-2.797 1.415-1.72 3.096-3.978 3.527-4.735.295-.52.344-1.135.131-1.646a1.596 1.596 0 0 0-.707-.8c-.226-.128-.43.018-.973.41-.126.09-.235.171-.286.198-.269.068-1.01.364-1.162 1.333-.052.333-.17.524-.285.633v-.725a.729.729 0 0 0-.664-.72l-1.905-.156a.72.72 0 0 0-.768.581l-.32 1.636c-.004.018-.39 1.916-1.05 3.029-.596 1.006-1.5 2.529-.361 3.44.211.168.517.32.932.32z"/><path fill="#fff" d="M44.033 67.692s-1.812 1.487-2.624 2.653-4.697-1.284-4.697-1.284l1.37-2.045s2.162-1.018 3.826-2.668c1.663-1.649 2.125 3.344 2.125 3.344z"/><path fill="#1A162C" d="M43.71 67.559c-.435.367-1.845 1.59-2.554 2.61-.412.59-2.535-.324-4.006-1.204l1.144-1.707c.413-.202 2.311-1.18 3.834-2.69.201-.2.367-.277.496-.23.54.196.948 1.947 1.085 3.22zm-3.062 3.405c.434 0 .797-.125 1.017-.442.779-1.117 2.549-2.576 2.567-2.59l.127-.106-.015-.163c-.054-.58-.379-3.498-1.508-3.908-.258-.093-.664-.104-1.145.373-1.607 1.593-3.719 2.599-3.74 2.608l-.078.037-1.596 2.379.27.17c.528.333 2.692 1.642 4.1 1.642z"/><path fill="#1A162C" d="M41.42 71.749s-.632 1.308-2.489 1.811c-1.192.323-2.696-.326-2.927-.764-.162-.306-1.5-.672-1.766-.505-.298.188-5.393-2.044-5.328-3.89.066-1.848 4.322-1.409 4.322-1.409l8.188 4.757z"/><path fill="#1A162C" d="M40.989 71.857c-.267.372-.91 1.07-2.14 1.404-1.082.293-2.423-.33-2.572-.61-.164-.311-.75-.508-1.084-.598-.478-.127-.827-.15-1.044-.064-.481-.057-3.118-1.196-4.358-2.496-.384-.404-.582-.778-.572-1.082a.75.75 0 0 1 .279-.56c.764-.665 2.821-.63 3.636-.558l7.855 4.564zm-2.754 2.1c.264 0 .528-.03.777-.097 1.971-.535 2.66-1.918 2.687-1.976l.125-.26-8.495-4.933-.066-.008c-.123-.012-3.025-.298-4.173.7-.312.272-.477.61-.49 1.007-.042 1.17 1.495 2.305 2.793 3.051.024.015 2.507 1.428 3.01 1.112.206-.054 1.185.225 1.335.402.247.47 1.383 1.002 2.497 1.002z"/><path fill="#EF4BA2" d="M41.815 70.979c0-.81-.985-.298-1.045-.38-.174-.236-.614-.677-1.38-.505-1.03.23-1.301-.456-1.301-.456l1.101-.435c.2-.079.307-.297.244-.503l-.554-1.828a.413.413 0 0 0-.47-.285l-1.64.302s-1.963.354-3.31.137c-1.347-.215-2.661-.35-2.99.713-.327 1.063.879 2.221 3.876 3.187a29.738 29.738 0 0 0 4.786 1.125c.479.067 1.942.035 2.288-.302.19-.184.395-.431.395-.77z"/><path fill="#1A162C" d="M41.39 70.823c.043 0 .073.006.088.018.005.004.026.042.026.137 0 .18-.09.343-.3.549-.214.206-1.482.293-2.029.216a29.395 29.395 0 0 1-4.734-1.112c-2.585-.832-3.958-1.88-3.674-2.802.227-.737 1.105-.744 2.644-.496 1.384.222 3.331-.124 3.413-.14l1.643-.301c.049-.01.1.02.116.07l.554 1.827a.104.104 0 0 1-.06.126l-1.391.547.114.289c.126.322.635.873 1.658.646.548-.123.882.142 1.063.387.136.184.347.135.517.095.158-.038.276-.056.352-.056zm-1.698 1.563c.651 0 1.597-.078 1.944-.415.21-.205.489-.529.489-.993 0-.344-.142-.53-.262-.624-.297-.235-.71-.14-.96-.08a1.595 1.595 0 0 0-1.581-.484c-.328.074-.548.035-.693-.033l.675-.266a.725.725 0 0 0 .427-.881l-.554-1.827a.724.724 0 0 0-.823-.502l-1.641.303c-.018.004-1.926.34-3.205.136-1.156-.186-2.905-.466-3.334.927-.237.768-.022 2.254 4.077 3.574a29.947 29.947 0 0 0 4.838 1.136c.1.014.324.029.603.029zM88.496 45.04s1.37 2.112-.211 5.633c-3.289 7.319-13.809 2.865-13.809 2.865s-3.203 2.812-7.13 5.218a.608.608 0 0 0-.184.877c.672.93 1.558 3.292 1.558 8.08 0 5.022.62 10.896.92 13.446a1.355 1.355 0 0 1-1.135 1.496l-1.844.296a1.354 1.354 0 0 1-1.532-1.005c-1.082-4.29-4.695-18.688-4.924-20.61-.27-2.261 0-2.585 0-2.585s-2.21 2.855-7.222 4.47c-3.82 1.232-8.077 3.995-9.886 5.24-.493.34-1.166.2-1.486-.305l-.962-1.516a1.05 1.05 0 0 1 .212-1.369c2.925-2.443 14.098-11.791 17.134-14.544 3.503-3.178 3.449-3.77 6.306-4.794 2.856-1.023 9.97-3.474 9.97-3.474l14.225 2.581z"/><path fill="#1A162C" d="M74.419 53.177l-.147.128c-.032.029-3.231 2.823-7.088 5.187a.934.934 0 0 0-.428.61.9.9 0 0 0 .155.713c.352.487 1.5 2.493 1.5 7.899 0 5.094.644 11.125.92 13.481a1.045 1.045 0 0 1-.874 1.154l-1.845.296a1.042 1.042 0 0 1-1.182-.775c-2.258-8.95-4.736-19.054-4.917-20.57-.232-1.955-.05-2.373-.042-2.39l-.14-.065-.364-.292-.007.009c-.022.027-2.221 2.8-7.071 4.365-3.898 1.255-8.269 4.11-9.969 5.279-.167.116-.37.157-.566.116a.745.745 0 0 1-.48-.332l-.962-1.516a.743.743 0 0 1 .149-.965c3.261-2.723 14.137-11.825 17.144-14.552a78.885 78.885 0 0 0 2.184-2.065c1.488-1.452 1.99-1.94 4.017-2.666 2.663-.954 9.112-3.178 9.89-3.447L88.3 45.32c.24.464 1.007 2.322-.297 5.227-3.124 6.956-13.301 2.75-13.404 2.707l-.18-.076zm-7.98 30.102c.09 0 .181-.006.272-.022l1.844-.296a1.664 1.664 0 0 0 1.394-1.839c-.277-2.345-.918-8.347-.918-13.408 0-5.439-1.13-7.59-1.618-8.262a.29.29 0 0 1-.05-.228.314.314 0 0 1 .145-.203c3.438-2.107 6.36-4.552 7.03-5.125 1.431.55 10.9 3.873 14.03-3.096 1.632-3.633.25-5.837.19-5.928l-.073-.113-14.437-2.618-.077.026c-.072.024-7.149 2.462-9.974 3.474-2.155.773-2.723 1.327-4.242 2.807-.55.535-1.232 1.2-2.167 2.049-2.999 2.72-13.866 11.814-17.126 14.537a1.365 1.365 0 0 0-.274 1.772l.961 1.516a1.359 1.359 0 0 0 1.924.395c1.676-1.153 5.987-3.97 9.806-5.2 3.536-1.14 5.692-2.872 6.696-3.846.001.453.042 1.025.122 1.702.232 1.945 3.833 16.296 4.932 20.648.19.753.857 1.258 1.61 1.258z"/><path fill="#fff" d="M81.32 43.47l5.692 2.123c.206.078.187.375-.028.423-1.81.402-6.454 1.382-7.36 1.088-8.255-2.675-12.422-4.32-13.123-4.601-.02-.008-.01-.037.012-.035L81.32 43.47z"/><path fill="#1A162C" d="M86.621 45.779c-3.662.803-6.356 1.206-6.901 1.03-5.577-1.807-9.276-3.14-11.31-3.902l12.844.869 5.367 2.002zm-6.492 1.684c1.52 0 4.866-.687 6.922-1.144a.526.526 0 0 0 .415-.48.529.529 0 0 0-.346-.536L81.34 43.16 66.27 42.14l-.14.532.254.118c.75.302 4.906 1.94 13.144 4.609.137.044.343.064.601.064z"/><path fill="#fff" d="M72.328 27.03s-2.857 3.598-5.442 5.003c-2.584 1.406-1.344-4.41-1.344-4.41l3.53-4.562s1.267-1.33 1.347-1.32c.081.011 2.543.205 2.543.205l.766 2.714-1.4 2.37z"/><path fill="#1A162C" d="M72.072 26.854c-.21.26-2.92 3.595-5.333 4.907-.36.196-.625.233-.791.11-.582-.434-.42-2.642-.116-4.115l3.487-4.505c.451-.472.989-1.016 1.187-1.19.392.033 1.595.128 2.217.177l.672 2.379-1.323 2.237zm-5.896 5.71c.256 0 .544-.086.86-.259 2.61-1.419 5.417-4.933 5.535-5.083l.025-.035 1.468-2.483-.86-3.05-.216-.017a568.79 568.79 0 0 1-2.53-.203c-.176-.022-.234-.03-1.61 1.413l-3.593 4.642-.016.069c-.139.657-.78 3.976.338 4.81.175.13.375.196.599.196z"/><path fill="#EF4BA2" d="M84.844 16.67c1.544.243 3 .871 4.234 1.832 1.309 1.019 3.013 2.482 4.409 4.142 2.667 3.175 3.88 9.314 3.88 9.314s-.52 2.908-5.232 3.07l-1.292-2.1s-1.318 2.343-1.156 5.493c.161 3.15.686 4.047.686 4.047v1.627c0 .684-.536 1.247-1.22 1.273-2.86.114-10.178-.162-15.715-5.251 0 0 .251-2.676 0-6.867-.207-3.426.012-5.627.412-7.032.072-.251-.239-.43-.426-.248l-1.097 1.06s.626-4.282-3.498-5.655c0 0 5.551-6.49 11.346-5.44l4.669.735z"/><path fill="#1A162C" d="M90.061 42.54v1.555c0 .52-.404.944-.92.964-2.83.11-9.952-.163-15.383-5.069.047-.634.205-3.155-.012-6.758-.182-3.026-.046-5.358.402-6.929a.553.553 0 0 0-.252-.635.562.562 0 0 0-.69.079l-.543.526c-.038-1.307-.49-3.866-3.296-5.028 1.223-1.293 5.957-5.875 10.751-5.005l4.677.737a8.931 8.931 0 0 1 4.092 1.77c1.211.943 2.95 2.42 4.36 4.097 2.443 2.906 3.665 8.46 3.801 9.111-.095.378-.814 2.557-4.746 2.755l-1.472-2.394-.258.46c-.055.098-1.361 2.457-1.196 5.66.14 2.711.55 3.81.685 4.104zm-1.832 3.157c.348 0 .662-.007.936-.018a1.58 1.58 0 0 0 1.518-1.584v-1.711l-.043-.073c-.003-.005-.491-.917-.644-3.906-.113-2.19.52-3.996.88-4.83l1.088 1.77.18-.007c4.906-.169 5.504-3.197 5.527-3.326l.01-.057-.01-.057c-.051-.254-1.26-6.255-3.948-9.453-1.445-1.719-3.22-3.226-4.455-4.188a9.564 9.564 0 0 0-4.377-1.893l-4.67-.735c-5.9-1.068-11.397 5.274-11.629 5.544l-.299.35.438.146c3.82 1.273 3.312 5.152 3.288 5.316l-.128.897 1.606-1.553c-.425 1.632-.55 3.964-.37 6.94.247 4.12.002 6.792 0 6.82l-.014.152.112.104c5.089 4.675 11.645 5.352 15.004 5.352z"/><path fill="#1A162C" d="M81.697 25.387a8 8 0 0 0 1.514-.153c3.772-.732 6.43-6.056 6.541-6.283l-.556-.274c-.027.053-2.635 5.276-6.102 5.948-1.57.304-2.899.119-3.845-.535-.737-.508-1.215-1.294-1.383-2.27l-.611.104c.196 1.145.764 2.07 1.64 2.676.757.523 1.709.787 2.802.787zM77.67 20.734c.038-2.508 1.358-4.583 1.371-4.603l-.521-.337c-.06.09-1.43 2.247-1.471 4.93l.62.01zM90.566 33.063l.557-.272c-.005-.012-.605-1.252-.915-2.754l-.609.125c.328 1.582.94 2.848.967 2.901zM89.593 29.366l.62-.04a14.552 14.552 0 0 1-.001-2l-.618-.054c-.004.036-.078.899-.001 2.094zM73.17 26.647c1.751-1.57 2.191-2.969 2.209-3.028l-.594-.181c-.004.014-.419 1.304-2.03 2.747l.415.462z"/><path fill="#1A162C" d="M74.153 26.29c.157-.652.681-1.58.687-1.588l-.54-.307c-.024.041-.572 1.012-.75 1.75l.603.145zM88.183 21.004l.286-.55-1.906-.992-.288.55 1.908.992zM86.224 23.303l.387-.485L84.96 21.5l-.388.485 1.653 1.32zM78.874 24.176l1.39-1.73-.485-.389-1.39 1.731.485.388zM91.721 8.412s.55 2.676-1.737 4.925c-2.288 2.249-4.603-2.206-4.603-2.206l4.344-3.177 1.996.458z"/><path fill="#1A162C" d="M91.447 8.667c.072.63.135 2.665-1.68 4.449-.438.431-.885.605-1.365.528-1.193-.189-2.254-1.815-2.613-2.426l4.007-2.93 1.651.379zm-2.826 5.615c.562 0 1.092-.242 1.582-.724 2.38-2.34 1.847-5.092 1.823-5.208l-.04-.195-2.328-.535-4.673 3.418.123.236c.057.11 1.421 2.701 3.196 2.983.106.017.213.025.317.025zM79.987 3.972s-2.103 1.585-1.993 4.793c.11 3.208 4.354.775 4.354.775L80.49 5.189l-.503-1.217z"/><path fill="#1A162C" d="M81.95 9.4c-.767.391-2.303.999-3.094.56-.35-.195-.531-.59-.553-1.206-.079-2.294 1.013-3.698 1.564-4.258l.336.811 1.748 4.094zm-2.398 1.33c1.323 0 2.867-.875 2.95-.922l.238-.136-2.621-6.19-.32.242c-.092.07-2.23 1.72-2.116 5.052.03.84.323 1.42.872 1.727.294.162.637.227.997.227z"/><path fill="#fff" d="M87.02 14.015s-.592 1.31-.111 4.135c.066.393.004.794-.202 1.134-.782 1.287-2.933 4.35-5.374 3.684-1.708-.467-2.067-1.734-2.048-2.768.013-.685.246-1.34.575-1.941.29-.53.634-1.535.288-3.023-.54-2.317 3.395-3.609 3.395-3.609l3.476 2.388z"/><path fill="#1A162C" d="M86.649 14.137c-.155.516-.424 1.842-.046 4.066.056.329-.001.656-.161.92-.77 1.269-2.804 4.154-5.027 3.545-1.23-.335-1.843-1.164-1.82-2.462.01-.57.186-1.157.538-1.799.343-.625.677-1.695.317-3.241-.415-1.786 2.379-2.944 3.048-3.193l3.151 2.164zm-4.62 9.235c2.29 0 4.185-2.678 4.944-3.927.237-.392.323-.87.241-1.346-.454-2.675.083-3.944.089-3.957l.103-.235-.21-.147-3.604-2.475-.145.048c-.172.056-4.197 1.41-3.601 3.973.315 1.355.034 2.273-.258 2.804-.4.732-.601 1.414-.613 2.085-.028 1.572.78 2.663 2.277 3.072.263.071.523.105.778.105z"/><path fill="#fff" d="M85.458 15.004c.57-.3 1.115-.648 1.63-1.038l.452-.342a.23.23 0 0 1 .236-.02c.228.102.782.176 1.556-.857.783-1.043.38-1.578.139-1.776a.208.208 0 0 1-.056-.255c.276-.56 1.12-2.444.705-3.77-.493-1.573-2.165-3.884-5.412-3.688-3.245.198-4.427.983-5.214 3.095l-.001.003c-.014.05-1.227 4.394-.46 8.5.117.62.607 1.11 1.233 1.206.367.057.833.095 1.391.077a6.34 6.34 0 0 0 1.096-.146c.315-.068.626-.15.932-.246l1.773-.743z"/><path fill="#1A162C" d="M81.387 16.454c.092 0 .186-.002.28-.004.33-.011.718-.063 1.15-.154.322-.069.645-.154.96-.254l-.186-.59a10 10 0 0 1-.903.237c-.397.084-.746.131-1.04.14a7.252 7.252 0 0 1-1.336-.073c-.49-.076-.88-.46-.974-.958-.752-4.027.441-8.314.453-8.357.752-2.013 1.907-2.69 4.936-2.873 3.83-.233 4.977 3.09 5.096 3.47.381 1.218-.428 3.019-.687 3.541a.518.518 0 0 0 .138.633c.443.363.07 1-.19 1.349-.672.894-1.075.808-1.183.76a.542.542 0 0 0-.548.056l-.452.342a11.78 11.78 0 0 1-1.587 1.01l.289.55c.574-.303 1.137-.662 1.671-1.065l.412-.311c.352.14 1.037.172 1.895-.97.903-1.203.407-1.901.146-2.148.375-.779 1.112-2.575.689-3.932-.486-1.55-2.243-4.109-5.727-3.904-3.298.2-4.63 1-5.486 3.296-.022.07-1.256 4.488-.475 8.666.142.757.74 1.342 1.49 1.458.369.056.761.084 1.169.085z"/><path fill="#1A162C" d="M91.454 9.003c.947-1.808.908-4.017-.13-5.775a4.71 4.71 0 0 0-1.215-1.387C88.054.307 85.102.568 85.102.568s-1.18-.925-3.886.71c-2.706 1.637-3.05 4.913-2.115 6.937l1.36-1.486a.176.176 0 0 1 .24-.02c.39.314 1.67 1.23 3.6 1.482a.14.14 0 0 0 .153-.172l-.422-1.569c-.014-.053.05-.094.089-.053.452.477 1.927 1.673 4.425.303 0 0 .772 1.274.162 2.795-.207.515-.247 1.083-.176 1.633.025.19.232.296.398.2.63-.363 1.948-1.221 2.524-2.325z"/><path fill="#1A162C" d="M91.179 8.86c-.53 1.014-1.777 1.831-2.348 2.167-.057-.517-.002-1.005.164-1.417.66-1.645-.149-3.013-.184-3.07l-.154-.255-.261.143c-2.268 1.243-3.588.244-4.051-.244a.36.36 0 0 0-.439-.067.366.366 0 0 0-.174.414l.353 1.315c-1.724-.288-2.869-1.121-3.19-1.38a.487.487 0 0 0-.665.053l-1.024 1.12c-.593-1.788-.317-4.591 2.169-6.095 2.452-1.482 3.528-.736 3.54-.729l.093.068.12-.006c.03-.002 2.861-.23 4.794 1.213.437.326.818.762 1.133 1.296.978 1.653 1.025 3.751.124 5.474zm-2.383 2.815c.1 0 .199-.026.288-.078.729-.421 2.042-1.299 2.644-2.45 1.001-1.911.948-4.24-.138-6.076a5.004 5.004 0 0 0-1.296-1.478C88.367.153 85.744.22 85.18.251c-.378-.21-1.701-.703-4.126.762-2.75 1.664-3.297 5.035-2.236 7.332l.195.424 1.593-1.74c.541.414 1.808 1.229 3.654 1.47a.449.449 0 0 0 .395-.15.442.442 0 0 0 .098-.41l-.218-.81c.753.47 2.054.879 3.87-.007.17.414.408 1.275.014 2.257-.211.527-.278 1.145-.195 1.789a.58.58 0 0 0 .572.507z"/><path fill="#EF4BA2" d="M90.413 10.675c.812-.584 1.295-1.488 1.316-1.527l-.55-.29c-.004.009-.437.817-1.128 1.314l.362.503zM88.051 5.931l.619-.037c-.003-.056-.099-1.376-1.44-2.188l-.322.531c1.067.645 1.142 1.684 1.143 1.694zM85.905 3.546l.163-.598c-.456-.125-1.712-.591-2.038-1.247a.67.67 0 0 1-.019-.588l-.576-.23c-.148.369-.134.748.04 1.095.509 1.021 2.235 1.515 2.43 1.568zM78.722 7.424l.425-.453-.212.227.213-.225c-.006-.007-.683-.672-.85-2.067l-.617.073c.196 1.635 1.007 2.412 1.041 2.445z"/><path fill="#1A162C" d="M81.083 13.222c.324 0 .72-.028 1.075-.13l-.17-.595c-.41.117-.905.114-1.21.095.126-1.16.877-2.24.885-2.251l-.508-.357c-.04.058-.997 1.435-1.017 2.887l-.003.275.273.036c.02.003.302.04.675.04zM83.028 10.357c-.23.505-.141 1.04.2 1.194.34.156.802-.127 1.033-.63.23-.505.14-1.04-.2-1.194-.34-.156-.804.127-1.033.63zM79.397 9.224c-.217.51-.113 1.041.232 1.188.345.145.8-.15 1.016-.66.217-.509.112-1.04-.233-1.187-.345-.146-.8.149-1.015.659zM87.643 13.891l.316-.534-.157.267.163-.264c-.012-.007-.287-.19-.38-.718l-.61.108c.142.81.614 1.11.668 1.141z"/><path fill="#fff" d="M68.83 29.122c-.517 1.117-.976 1.998-1.293 2.392-1.334 1.656-4.203.201-3.597-2.707.487-2.334 3.968-8.746 5.323-11.186a4.19 4.19 0 0 1 1.459-1.53l1.437-.887a2.223 2.223 0 0 1 1.024-.329l1.63.202 3.585-.518a3.646 3.646 0 0 1 3.172 1.52l1.948 2.735c.511 1.632-1.446.922-1.446.922s-.1-.098-.271-.254c0 0-.714.318-1.041-.127a86.568 86.568 0 0 1-1.055-1.496c-.613-.375-2.358.244-2.79.244-.987 0-1.55-.239-2.509-.342-.503-.053-.726.188-.985.624l-.612 1.035c-.038.064-.07.13-.096.2-.182.48-2.009 4.877-2.952 7.208l-.93 2.294z"/><path fill="#1A162C" d="M66.118 32.522c.633 0 1.23-.281 1.66-.814.31-.387.747-1.19 1.333-2.456l-.563-.26c-.693 1.498-1.065 2.092-1.254 2.327-.564.7-1.35.672-1.9.413-.734-.347-1.477-1.305-1.151-2.862.487-2.338 4.172-9.086 5.29-11.099a3.877 3.877 0 0 1 1.35-1.415l1.437-.889c.258-.158.553-.255.855-.28l1.64.204 3.626-.525a3.326 3.326 0 0 1 2.875 1.394l1.918 2.693c.078.268.077.465-.004.542-.154.147-.654.08-.993-.03a15.485 15.485 0 0 0-.228-.212l-.15-.136-.186.082c-.003.002-.496.202-.665-.028a78.339 78.339 0 0 1-1.026-1.456l-.117-.12c-.493-.302-1.347-.143-2.331.08-.258.058-.524.118-.62.118-.563 0-.988-.083-1.439-.171a11.09 11.09 0 0 0-1.037-.169c-.717-.074-1.028.34-1.285.775l-.613 1.035a1.47 1.47 0 0 0-.119.247c-.088.234-.59 1.453-1.172 2.864-.6 1.46-1.302 3.162-1.777 4.338l.575.232a757.053 757.053 0 0 1 1.776-4.333c.607-1.475 1.087-2.64 1.18-2.882a.865.865 0 0 1 .071-.15l.614-1.036c.247-.418.373-.507.684-.473.369.04.681.1.984.16.48.094.934.184 1.558.184.166 0 .414-.056.757-.135.517-.116 1.46-.33 1.822-.18a82.49 82.49 0 0 0 1.015 1.44c.313.425.848.407 1.22.299.08.074.125.119.126.12l.048.047.063.023c.194.07 1.19.398 1.694-.084.274-.262.326-.673.154-1.222l-.043-.088-1.948-2.734a3.946 3.946 0 0 0-3.442-1.65l-3.572.515-1.617-.2-.028.002a2.539 2.539 0 0 0-1.169.373l-1.437.888a4.507 4.507 0 0 0-1.567 1.643c-1.446 2.604-4.864 8.915-5.355 11.273-.373 1.787.482 3.07 1.495 3.548.326.155.661.23.988.23z"/><path fill="#1A162C" d="M74.67 17.76s-.342-.748-.1-1.616c.244-.869.85-1.59.85-1.59s.431-1.127-.936-.93c-1.368.198-2.217-.035-1.974.93.242.964.34 1.045 1.22.964 0 0-1.002.673 0 2.518 0 0 .596.835.94-.276z"/><path fill="#1A162C" d="M74.666 15.123l-.964.086c-.689.064-.692.065-.892-.73-.044-.176-.036-.272-.016-.3.07-.096.484-.129.85-.157.26-.02.557-.043.884-.091.3-.044.524-.014.598.078.074.091.047.285.016.394-.082.105-.28.366-.476.72zm-.326 2.645c-.084.224-.154.26-.154.26-.04-.003-.153-.1-.203-.172-.821-1.517-.106-2.06-.075-2.084l.673-.49a4.265 4.265 0 0 0-.31.778 2.897 2.897 0 0 0 .07 1.708zm-.149.879a.56.56 0 0 0 .096-.007c.303-.05.533-.315.68-.788l.035-.113-.05-.108a2.286 2.286 0 0 1-.083-1.404c.222-.794.783-1.468.788-1.474l.053-.089c.024-.063.228-.633-.099-1.041-.226-.282-.62-.386-1.172-.305-.31.044-.595.066-.844.085-.619.048-1.066.083-1.304.414-.143.198-.17.465-.083.812.21.834.393 1.144.907 1.207-.2.46-.271 1.218.343 2.347.051.078.34.464.733.464z"/><path fill="#EF4BA2" d="M73.438 15.388c.66 0 1.186-.149 1.216-.158l-.17-.595c-.01.002-.936.259-1.781.05l-.15.601c.3.075.605.102.885.102z"/><path fill="#fff" d="M81.118 43.187l5.692 2.123c.206.078.188.375-.027.423-1.809.402-6.455 1.385-7.361 1.088-1.131-.37-7.094-4.361-7.094-4.361l8.79.727z"/><path fill="#1A162C" d="M86.42 45.496c-3.72.817-6.352 1.21-6.902 1.031-.748-.245-4.004-2.336-6.013-3.658l7.545.623 5.37 2.004zm-6.478 1.687c1.42 0 4.43-.596 6.91-1.147a.525.525 0 0 0 .412-.48.529.529 0 0 0-.346-.536l-5.774-2.142-9.982-.826.994.666c.244.164 6.012 4.02 7.17 4.398.14.046.35.067.616.067z"/><path fill="#fff" d="M78.07 41.033c1.647-1.023 2.302-1.227 2.302-1.227l-.072-.19a1.797 1.797 0 0 0-1.445.068l-.668.332c-.195.097-.367-.306-.375-.524a1.334 1.334 0 0 1 .764-1.26l.582-.275c.362-.17.77-.215 1.162-.128l3.709.834s5.605.539 9 2.046l.613.089s-.677-2.674-1.507-5.77c3.054-.5 4.382-1.764 4.914-2.505l.083.056s.856 3.068 1.771 7.484c.637 3.07.389 5.305.178 6.385-.096.494-.509.87-1.012.885-.783.022-2.148-.196-4.232-1.345-2.881-1.591-5.89-2.736-6.986-3.133a3.405 3.405 0 0 0-2.543.098l-1.351.606a5.325 5.325 0 0 1-1.017.338l-.943.209a5.29 5.29 0 0 1-2.841-.154l-1.04-.353a.801.801 0 0 1-.456-1.135c.231-.432.651-.96 1.41-1.431z"/><path fill="#1A162C" d="M96.958 33.123c.27 1.015.942 3.625 1.642 7.003.628 3.022.381 5.22.178 6.263a.762.762 0 0 1-.717.634c-.748.022-2.049-.19-4.073-1.307-2.88-1.589-5.876-2.734-7.03-3.152a3.723 3.723 0 0 0-2.776.106l-1.352.606a5.004 5.004 0 0 1-.957.317l-.943.21a4.97 4.97 0 0 1-2.673-.145l-1.04-.352a.495.495 0 0 1-.282-.695c.27-.505.707-.947 1.3-1.314 1.574-.98 2.224-1.194 2.23-1.196l.311-.1-.235-.624-.13-.05a2.11 2.11 0 0 0-1.692.08l-.543.268a.593.593 0 0 1-.053-.196c-.017-.411.214-.79.587-.967l.582-.275c.297-.14.64-.177.96-.106l3.71.835c.093.011 5.632.557 8.942 2.026l.082.024 1.072.156-.114-.45a487.85 487.85 0 0 0-1.42-5.448c2.437-.462 3.754-1.42 4.434-2.151zm1.01 14.521h.11a1.38 1.38 0 0 0 1.309-1.136c.212-1.088.47-3.38-.18-6.507-.907-4.377-1.767-7.473-1.775-7.505l-.031-.108-.426-.292-.177.246c-.49.681-1.75 1.895-4.713 2.38l-.337.055.088.331a500.587 500.587 0 0 1 1.392 5.317l-.111-.016c-3.406-1.498-8.828-2.032-9.058-2.054l-3.67-.828a2.118 2.118 0 0 0-1.363.15l-.581.275a1.64 1.64 0 0 0-.942 1.552c.01.23.136.62.392.771a.442.442 0 0 0 .432.019l.668-.332a1.48 1.48 0 0 1 .604-.153c-.382.189-.936.49-1.692.96-.686.426-1.197.948-1.52 1.55a1.102 1.102 0 0 0-.052.927c.121.305.37.54.681.647l1.041.353a5.59 5.59 0 0 0 3.007.162l.944-.21a5.626 5.626 0 0 0 1.077-.356l1.351-.606a3.096 3.096 0 0 1 2.31-.089c1.14.413 4.1 1.544 6.943 3.112 2.053 1.133 3.446 1.385 4.28 1.385z"/><path fill="#1A162C" d="M94.597 41.736l.528-.327c-.017-.028-.433-.69-1.414-.913l-.138.604c.715.163 1.012.617 1.024.636z"/><path fill="#fff" d="M80.136 46.566L75.864 35.54a1.993 1.993 0 0 0-1.195-1.158l-13.054-4.605a.285.285 0 0 0-.362.371l4.428 11.404c.216.556.67.987 1.237 1.172l12.864 4.216a.286.286 0 0 0 .355-.374z"/><path fill="#1A162C" d="M61.543 30.037l13.023 4.637c.464.163.831.52 1.01.979l4.26 10.993-12.82-4.216a1.68 1.68 0 0 1-1.045-.99l-4.428-11.403zm18.331 17.227a.59.59 0 0 0 .43-.186.59.59 0 0 0 .124-.625L76.155 35.43a2.302 2.302 0 0 0-1.382-1.34l-13.054-4.605a.587.587 0 0 0-.627.148.59.59 0 0 0-.128.63l4.428 11.402c.251.645.773 1.14 1.43 1.355l12.864 4.215c.062.02.126.03.188.03z"/><path fill="#EF4BA2" d="M69.546 39.154c.493.643 1.177.946 1.53.676.35-.27.237-1.008-.256-1.652-.493-.642-1.178-.945-1.53-.676-.352.27-.237 1.01.256 1.652z"/><path fill="#1A162C" d="M69.605 37.714c.224 0 .627.207.969.653.204.267.344.567.383.825.03.186.002.337-.07.392-.073.056-.227.043-.398-.033-.238-.106-.493-.32-.697-.586-.423-.552-.469-1.097-.313-1.217a.21.21 0 0 1 .126-.034zm1.157 2.526c.189 0 .36-.055.502-.164.264-.202.373-.55.307-.979-.056-.362-.235-.755-.505-1.107-.616-.803-1.46-1.12-1.964-.734-.504.386-.42 1.283.197 2.086.27.352.603.627.939.776.184.082.36.122.524.122z"/><path fill="#EF4BA2" d="M59.63 59.109l.613-.097c0-.01-.139-.928.118-2.017l-.604-.142c-.287 1.213-.133 2.214-.126 2.256zM61.003 55.475c.65-.991 2.542-3.25 6.062-2.824 2.525.304 6.523.96 6.563.967l.1-.612c-.04-.007-4.05-.665-6.588-.972-3.862-.465-5.943 2.013-6.656 3.1l.519.34zM87.866 50.338c.059 0 .092-.002.095-.002l-.047-.618c-.1.006-2.465.14-3.098-2.905l-.608.126c.671 3.227 3.141 3.4 3.658 3.4zM75.196 47.248l.202-.587-6.21-2.14-.203.585 6.211 2.142zM43.764 67.886l.515-.344-1.766-2.64-.516.344 1.767 2.64zM65.906 81.032l3.221-.43-.082-.615-3.221.43.082.615zM44.215 64.109l6.781-5.494-.391-.481-6.781 5.493.39.482zM65.211 78.957l.607-.128-.834-3.957-.607.127.834 3.959zM66.69 47.525l.492-.38c-.053-.07-1.329-1.68-3.711-1.218l.119.608c1.994-.387 3.057.933 3.1.99z"/><path fill="#1A162C" d="M64.56 90.987c1.146 0 2.074-.756 2.665-2.2l-.575-.235c-.42 1.028-1.242 2.16-2.768 1.711l-.175.596c.296.086.58.128.854.128zM35.854 69.717c.51 0 .887-.077.921-.083l-.126-.609c-.016.005-1.588.318-2.481-.414-.422-.347-.632-.89-.626-1.616l-.62-.006c-.008.924.28 1.631.854 2.102.622.509 1.449.626 2.078.626z"/><path fill="#fff" d="M77.525 28.3l.222-.578-.879-.337-.222.578.879.338zm-1.412.01l.057-.294a.19.19 0 0 1 .166-.15l-.06-.617a.805.805 0 0 0-.714.64c-.02.095-.04.199-.06.311l.61.11zm2.73.497l.223-.58-.879-.336-.222.578.878.338zm-2.87.859a8.67 8.67 0 0 1 .07-.905l-.615-.08c-.043.33-.069.657-.076.97l.62.015zm3.675.07c.038-.197.07-.401.092-.614a.798.798 0 0 0-.138-.536l-.51.353c.02.03.031.066.031.1-.022.212-.05.401-.085.582l.61.115zm-4.186 1.385l.61-.116a6.008 6.008 0 0 1-.097-.888l-.62.023c.013.344.048.674.107.981zm3.773.025c.122-.305.225-.618.305-.93l-.6-.157c-.075.289-.17.576-.281.857l.576.23zm-2.787 1.233l.199-.588-.308-.103a.193.193 0 0 1-.122-.114c-.015-.046-.03-.092-.042-.14l-.597.173c.016.053.032.107.05.16a.81.81 0 0 0 .513.508l.307.104zm2.102.085a6.9 6.9 0 0 0 .489-.87l-.56-.265a6.7 6.7 0 0 1-.44.783l.51.352zm-.667.354l.009-.62a.226.226 0 0 1-.072-.01l-.728-.247-.198.588.728.246a.81.81 0 0 0 .26.043z"/><path fill="#1A162C" d="M92.732 33.227c3.064-.807 4.312-3.225 4.364-3.327l-.555-.28c-.01.023-1.183 2.273-3.968 3.008l.159.6z"/><path fill="#EF4BA2" d="M65.008 60.78A4.977 4.977 0 0 0 66.95 60l-.362-.504a4.426 4.426 0 0 1-1.678.673l.097.612zM59.552 49.7l1.194-.967-.391-.481-1.194.967.39.481z"/><path fill="#1A162C" d="M104.408 24.94h-.77a.04.04 0 0 1-.01-.002l-.855-.48a1.005 1.005 0 0 0-.906.01l-.795.47a.018.018 0 0 1-.01.002h-.804c-.011 0-.021.01-.021.02l.002.607c-.007.098.053.196.184.27l1.468.825c.251.14.659.136.906-.01l1.45-.858c.112-.066.169-.15.177-.235l.004-.599a.02.02 0 0 0-.02-.02z"/><path fill="#1A162C" d="M104.248 25.12l-.003.439c-.002.006-.026.044-.09.08l-1.449.86c-.193.113-.534.117-.727.007l-1.469-.826c-.058-.032-.095-.072-.093-.102v-.459h.693l.052-.026.796-.472a.835.835 0 0 1 .727-.008l.896.504.057.002h.61zm-1.915 1.824c.2 0 .4-.046.555-.137l1.451-.86c.155-.091.248-.223.263-.37l.005-.796-.199-.02h-.729l-.819-.46c-.306-.17-.782-.166-1.084.012l-.757.449h-.94l-.021.199.001.606c-.011.162.09.322.276.426l1.468.826c.15.083.34.125.53.125z"/><path fill="#EF4BA2" d="M102.763 23.832l1.478.832c.247.138.249.366.006.51l-1.459.865a.983.983 0 0 1-.887.01l-1.478-.831c-.247-.139-.249-.367-.006-.512l1.459-.864a.983.983 0 0 1 .887-.01z"/><path fill="#1A162C" d="M102.332 23.91a.73.73 0 0 1 .344.078l1.479.831c.065.037.094.077.094.1 0 .023-.028.064-.093.101l-1.459.865a.807.807 0 0 1-.707.007l-1.479-.83c-.065-.037-.095-.077-.095-.1 0-.023.028-.063.093-.102l1.46-.864a.729.729 0 0 1 .363-.085zm.002 2.418c.196 0 .394-.045.546-.136l1.46-.864c.171-.102.269-.252.267-.414-.001-.16-.102-.308-.277-.407l-1.479-.831a1.161 1.161 0 0 0-1.065.013l-1.459.864c-.174.101-.271.253-.269.414.002.16.104.309.278.406l1.478.832c.147.082.333.123.52.123z"/><path fill="#EF4BA2" d="M102.154 26.765h.358V26.2h-.358v.566z"/><path fill="#1A162C" d="M148.992 85.375l.593.342c.061.036.167.031.238-.01l.559-.322c.07-.04.077-.102.016-.137l-.593-.342c-.061-.035-.167-.03-.237.01l-.559.323c-.07.04-.078.101-.017.136zM147.531 86.219l.594.341c.06.036.166.03.237-.01l.559-.322c.07-.04.077-.102.017-.137l-.594-.343c-.061-.035-.167-.03-.237.01l-.559.323c-.07.04-.078.102-.017.138zM148.986 87.057l.593.342c.061.035.168.031.238-.01l.559-.322c.07-.04.077-.102.016-.137l-.593-.342c-.061-.035-.167-.031-.237.01l-.559.322c-.07.04-.078.102-.017.137zM146.152 87.015l.593.342c.061.035.167.03.237-.01l.559-.323c.071-.04.078-.101.017-.136l-.593-.343c-.06-.035-.167-.03-.238.01l-.559.322c-.07.041-.077.103-.016.138zM147.607 87.853l.593.343c.061.035.167.03.237-.01l.559-.322c.07-.04.079-.103.018-.138l-.593-.342c-.061-.035-.168-.03-.238.01l-.559.323c-.07.04-.078.102-.017.136zM144.771 87.811l.593.342c.061.035.167.03.238-.01l.559-.323c.07-.04.077-.101.017-.136l-.594-.342c-.06-.036-.167-.031-.237.01l-.559.322c-.071.04-.078.102-.017.137zM146.224 88.65l.593.342c.061.036.167.031.237-.01l.56-.322c.07-.04.078-.102.017-.137l-.593-.342c-.061-.035-.167-.03-.237.01l-.56.323c-.07.04-.078.101-.017.136zM143.31 88.653l.593.343c.061.035.168.03.238-.01l.559-.323c.07-.04.077-.102.017-.137l-.593-.342c-.061-.035-.167-.03-.238.01l-.558.323c-.071.04-.079.102-.018.136zM144.765 89.493l.593.342c.061.035.167.03.238-.01l.559-.322c.07-.041.078-.102.017-.137l-.593-.343c-.061-.035-.167-.03-.237.01l-.559.323c-.071.04-.079.102-.018.137zM141.854 87.815l.594.342c.061.035.167.03.237-.01l.559-.323c.07-.04.079-.101.018-.136l-.594-.342c-.061-.036-.167-.032-.237.009l-.559.322c-.07.041-.078.103-.018.138zM140.402 86.975l.593.343c.061.035.167.03.237-.01l.559-.323c.07-.04.079-.101.018-.137l-.593-.342c-.061-.035-.168-.03-.238.01l-.559.323c-.07.04-.078.1-.017.136zM138.947 86.136l.593.342c.061.035.167.032.237-.009l.559-.322c.071-.041.078-.103.017-.138l-.593-.342c-.061-.035-.167-.03-.238.01l-.559.322c-.07.04-.077.103-.016.137zM137.492 85.298l.593.342c.061.035.167.03.237-.01l.56-.323c.07-.04.077-.102.016-.136l-.593-.343c-.061-.035-.167-.03-.237.01l-.56.323c-.07.04-.077.1-.016.137zM141.93 89.45l.593.343c.06.035.167.03.237-.01l.559-.323c.07-.04.078-.102.017-.137l-.593-.342c-.061-.035-.168-.03-.238.01l-.559.323c-.07.04-.077.101-.016.136zM140.476 88.61l.593.343c.061.035.167.03.237-.01l.559-.322c.071-.04.079-.102.018-.137l-.593-.342c-.061-.035-.167-.032-.238.01l-.559.322c-.07.04-.078.102-.017.137zM139.021 87.771l.593.344c.061.034.167.03.237-.01l.56-.324c.07-.04.077-.1.017-.136l-.594-.343c-.06-.035-.166-.03-.237.01l-.559.323c-.071.04-.078.102-.017.136zM137.566 86.933l.593.341c.061.036.167.032.237-.008l.56-.323c.07-.04.077-.102.016-.138l-.593-.341c-.061-.036-.167-.03-.237.01l-.559.322c-.071.04-.078.102-.017.137zM137.892 77.222l.593.342c.061.035.167.031.237-.01l.559-.322c.071-.04.079-.102.018-.138l-.593-.341c-.061-.036-.167-.032-.238.009l-.559.322c-.07.041-.078.103-.017.138zM136.437 76.383l.593.342c.061.035.167.03.237-.01l.56-.322c.07-.041.077-.102.017-.137l-.594-.343c-.06-.035-.166-.03-.237.01l-.559.323c-.071.04-.078.101-.017.137zM134.982 75.544l.593.342c.061.035.167.03.237-.01l.56-.322c.07-.041.077-.103.016-.138l-.593-.341c-.06-.036-.167-.031-.237.01l-.559.322c-.071.04-.078.101-.017.137zM136.511 78.018l.593.342c.061.035.167.031.237-.009l.56-.322c.07-.041.078-.103.017-.138l-.593-.342c-.061-.035-.167-.03-.237.01l-.559.322c-.071.04-.079.102-.018.137zM135.056 77.18l.593.342c.061.035.167.03.238-.01l.559-.323c.07-.04.078-.101.017-.137l-.593-.343c-.061-.035-.167-.03-.237.01l-.559.323c-.07.04-.079.102-.018.138zM151.552 78.72l.593.343c.061.034.167.03.237-.01l.56-.323c.07-.04.078-.102.017-.137l-.593-.342c-.061-.036-.167-.031-.237.01l-.56.322c-.07.04-.078.102-.017.138zM150.091 79.563l.593.342c.061.035.167.031.238-.01l.559-.322c.07-.04.078-.102.017-.137l-.593-.342c-.061-.035-.167-.031-.237.009l-.559.322c-.071.041-.079.103-.018.138zM151.544 80.402l.593.343c.061.035.167.03.237-.01l.56-.323c.07-.04.078-.101.017-.137l-.593-.342c-.061-.035-.167-.03-.237.01l-.56.323c-.07.04-.078.1-.017.136zM150.165 81.198l.594.343c.06.035.167.03.238-.01l.558-.323c.071-.04.078-.101.017-.136l-.593-.343c-.061-.035-.167-.03-.237.01l-.559.322c-.07.041-.078.102-.018.137zM133.521 76.417l.593.343c.061.035.167.03.238-.01l.559-.323c.07-.04.077-.101.017-.136l-.594-.343c-.06-.035-.167-.03-.237.01l-.559.323c-.07.04-.078.101-.017.136zM132.142 77.215l.593.341c.061.035.167.03.238-.01l.558-.322c.071-.04.079-.102.018-.137l-.594-.343c-.06-.035-.167-.03-.237.01l-.559.323c-.07.04-.077.101-.017.138zM133.595 78.053l.594.342c.06.035.167.031.237-.009l.559-.322c.07-.041.077-.103.018-.138l-.595-.342c-.06-.035-.166-.031-.237.01l-.558.322c-.071.04-.079.102-.018.137zM130.759 78.01l.593.343c.061.035.167.03.237-.01l.56-.323c.07-.04.078-.101.017-.136l-.593-.343c-.061-.035-.167-.03-.237.01l-.56.322c-.07.041-.078.103-.017.138zM132.214 78.85l.593.342c.061.035.167.03.237-.01l.559-.322c.071-.04.079-.103.018-.138l-.593-.342c-.061-.034-.167-.03-.238.01l-.559.323c-.07.04-.077.102-.017.137zM129.3 78.853l.593.342c.061.035.167.032.237-.009l.56-.323c.07-.04.078-.102.017-.137l-.593-.342c-.061-.035-.167-.03-.237.01l-.559.323c-.071.04-.079.101-.018.136zM130.753 79.692l.593.343c.061.035.167.03.237-.01l.56-.323c.07-.04.078-.101.017-.136l-.593-.343c-.061-.035-.167-.03-.237.01l-.56.322c-.07.041-.078.102-.017.137zM129.281 80.534l.593.341c.061.036.167.032.237-.009l.56-.322c.07-.041.077-.103.016-.138l-.593-.342c-.061-.035-.167-.03-.237.01l-.56.322c-.07.04-.077.102-.016.138zM116.135 81.64l.593.341c.061.036.167.031.237-.01l.559-.322c.07-.04.078-.102.017-.137l-.593-.341c-.061-.036-.167-.032-.238.008l-.559.323c-.07.04-.077.103-.016.138zM114.679 80.8l.593.343c.061.035.167.03.237-.01l.559-.323c.071-.04.079-.101.018-.136l-.593-.344c-.061-.034-.167-.03-.237.011l-.56.323c-.07.04-.078.1-.017.136zM114.753 82.436l.593.342c.061.035.167.031.237-.01l.56-.322c.07-.04.078-.102.017-.137l-.593-.342a.263.263 0 0 0-.237.009l-.56.323c-.07.04-.077.102-.017.137zM126.991 86.687l.594.342c.061.035.167.03.237-.01l.559-.323c.07-.04.078-.102.018-.136l-.594-.343c-.06-.034-.167-.03-.237.01l-.559.322c-.07.04-.078.103-.018.138zM125.613 87.483l.593.342a.263.263 0 0 0 .237-.01l.56-.322c.07-.04.077-.102.016-.137l-.593-.342a.263.263 0 0 0-.237.01l-.56.322c-.07.04-.077.102-.016.137zM127.066 88.322l.593.343c.061.035.167.03.237-.01l.559-.323c.071-.04.078-.101.018-.137l-.594-.342c-.06-.035-.167-.03-.238.01l-.558.323c-.071.04-.078.1-.017.136zM124.152 88.326l.593.342c.061.035.167.03.237-.01l.56-.322c.07-.041.077-.102.016-.138l-.593-.342c-.061-.034-.167-.03-.237.01l-.559.323c-.071.04-.078.102-.017.137zM125.607 89.165l.593.342c.061.035.167.03.237-.01l.56-.323c.07-.04.077-.1.016-.136l-.593-.342c-.06-.036-.167-.031-.237.01l-.56.322c-.07.04-.077.102-.016.137zM122.771 89.122l.594.343c.061.035.167.03.237-.01l.559-.323c.07-.04.077-.101.017-.136l-.594-.343c-.061-.035-.167-.03-.237.01l-.559.323c-.07.04-.078.1-.017.136zM124.224 89.962l.593.341c.061.035.168.03.238-.01l.559-.323c.07-.04.078-.1.017-.135l-.593-.342c-.061-.035-.167-.032-.237.008l-.559.323c-.071.04-.079.103-.018.138zM121.392 89.918l.593.343c.061.035.167.03.237-.01l.559-.323c.071-.04.079-.101.018-.136l-.593-.343c-.061-.035-.167-.03-.238.01l-.559.323c-.07.04-.078.101-.017.136zM122.846 90.758l.593.342c.06.035.167.03.237-.01l.559-.322c.07-.04.078-.102.017-.138l-.593-.341c-.061-.035-.168-.032-.238.009l-.559.322c-.07.041-.077.103-.016.138zM119.929 90.762l.593.342c.061.035.167.031.237-.01l.56-.322c.07-.041.078-.103.017-.138l-.593-.342c-.061-.035-.167-.03-.237.01l-.56.322c-.07.04-.078.103-.017.138zM121.384 91.6l.593.343c.061.035.167.03.237-.01l.559-.323c.071-.04.079-.101.018-.137l-.593-.342c-.061-.035-.167-.03-.238.01l-.559.323c-.07.04-.078.101-.017.136zM118.474 89.923l.593.342c.061.034.167.03.237-.01l.56-.323c.07-.04.078-.102.017-.136l-.593-.343c-.061-.035-.167-.03-.237.01l-.559.323c-.071.04-.079.101-.018.137zM117.021 89.083l.593.342c.061.036.167.031.238-.01l.559-.322c.07-.04.077-.102.017-.137l-.594-.342c-.06-.035-.167-.03-.237.01l-.559.323c-.07.04-.078.101-.017.136zM118.55 91.558l.593.342c.061.035.168.031.238-.01l.559-.322c.07-.04.078-.102.017-.138l-.593-.341c-.061-.036-.167-.031-.237.009l-.559.322c-.07.04-.079.102-.018.138zM117.095 90.719l.594.342c.061.035.167.03.237-.01l.559-.323c.07-.04.077-.101.018-.136l-.594-.343c-.061-.035-.167-.03-.238.01l-.558.323c-.071.04-.079.102-.018.137z"/><path fill="#EF4BA2" d="M129.043 69.13c-.001-.01.029-10.269.03-10.552a.064.064 0 0 1 .049-.06l7.727.716a.076.076 0 0 0 .016-.006l.722-4.26a.065.065 0 0 1 .066 0l7.104 4.104a.07.07 0 0 0 .051.007l1.361-.375a.064.064 0 0 1 .083.062c-.002.348-.035 10.445-.039 10.483l-.002.012a.748.748 0 0 1-.371.578l-7.184 4.132a1.967 1.967 0 0 1-1.975-.004l-7.262-4.193a.755.755 0 0 1-.376-.63v-.014z"/><path fill="#1A162C" d="M145.94 59.089l-.01 2.874c-.009 2.85-.025 7.156-.028 7.277a.44.44 0 0 1-.218.33l-7.183 4.133a1.665 1.665 0 0 1-1.665-.003l-7.261-4.195a.445.445 0 0 1-.222-.374h-.311l.31-.002.031-10.276 7.497.696.144-.056.123-.073.677-3.994 6.778 3.914c.087.051.191.063.288.037l1.05-.288zm-8.269 15.456c.394 0 .789-.102 1.14-.305l7.183-4.133c.296-.171.488-.467.526-.813.004-.043.006-.054.031-7.328l.011-3.198a.373.373 0 0 0-.475-.363l-1.263.347-7.017-4.052a.372.372 0 0 0-.379.002l-.123.073-.699 4.125-7.513-.697-.055.016a.37.37 0 0 0-.275.359c0 .103-.032 10.542-.031 10.566l.003.033c.012.349.211.68.529.865l7.261 4.195c.353.205.749.308 1.146.308z"/><path fill="#1A162C" d="M129.122 58.52l7.727.717a.063.063 0 0 0 .016-.006l.897 2.635-.037 12.369a1.971 1.971 0 0 1-1.044-.264l-7.262-4.195a.752.752 0 0 1-.375-.63l-.001-.013c-.001-.01.029-10.27.03-10.552a.065.065 0 0 1 .049-.061z"/><path fill="#1A162C" d="M137.452 61.916l-.036 11.99a1.647 1.647 0 0 1-.579-.203l-7.261-4.195a.447.447 0 0 1-.222-.374c-.001-.094.025-8.615.03-10.279l7.256.674.812 2.387zm.218 12.63l.064-.001.3-.009.038-12.72-1.036-3.049-.254.152-7.688-.713-.055.015a.371.371 0 0 0-.275.36c0 .103-.032 10.542-.031 10.566.015.382.213.713.531.898l7.262 4.194c.344.2.74.306 1.144.306z"/><path fill="#fff" d="M138.656 63.444l7.216-4.153a.763.763 0 0 0 .003-1.32l-7.294-4.212a1.906 1.906 0 0 0-1.91-.004l-7.217 4.152a.763.763 0 0 0-.003 1.32l7.294 4.213a1.908 1.908 0 0 0 1.911.004z"/><path fill="#1A162C" d="M137.624 53.811c.278 0 .554.072.802.216l7.296 4.214c.14.08.224.227.224.392a.45.45 0 0 1-.227.39l-7.217 4.152a1.599 1.599 0 0 1-1.598-.002l-7.295-4.214a.448.448 0 0 1-.224-.393c0-.163.085-.309.226-.39l7.216-4.152c.247-.142.522-.213.797-.213zm.081 10.197a2.21 2.21 0 0 0 1.107-.296l7.217-4.151c.335-.194.536-.54.537-.928a1.061 1.061 0 0 0-.534-.929l-7.295-4.214a2.221 2.221 0 0 0-2.22-.003l-7.216 4.151a1.06 1.06 0 0 0-.537.927 1.06 1.06 0 0 0 .533.93l7.295 4.213c.343.2.728.3 1.113.3z"/><path fill="#fff" d="M141.206 61.932l-9.421-5.41 2.516-1.402 9.236 5.471-2.331 1.341z"/><path fill="#1A162C" d="M142.921 60.587l-1.716.987-8.792-5.049 1.882-1.048 8.626 5.11zm-1.716 1.703l2.945-1.694-9.846-5.835-3.151 1.757 10.052 5.772z"/><path fill="#fff" d="M143.174 56.412l-9.015 5.552-2.327-1.344 9.045-5.517 2.297 1.31z"/><path fill="#1A162C" d="M142.565 56.422l-8.412 5.181-1.715-.99 8.443-5.15 1.684.96zm-8.402 5.904l9.618-5.925-2.911-1.657-9.648 5.883 2.941 1.699zM140.93 70.712l.621-.003-.035-8.778-.621.003.035 8.778zM143.241 64.347l.62-.003-.016-3.754-.621.003.017 3.754z"/><path fill="#EF4BA2" d="M131.616 64.146l.62-.001-.003-2.456h-.621l.004 2.457zM134.765 70.48l.003-7.63h-.621l-.003 7.63h.621z"/><path fill="#fff" d="M140.678 67.012l-.002-.126c-.007-.463.364-1.067.824-1.342l1.595-.952c.46-.275.842-.12.848.344l.002.125c.008.464-.363 1.068-.823 1.343l-1.595.952c-.46.275-.842.12-.849-.344z"/><path fill="#EF4BA2" d="M131.863 67.665c.699-.501 1.883-.212 3.085 1.171.794.914 1.255 2.09 1.233 3.3-.013.751-.214 1.173-.676 1.476l-.076.054-14.2 8.176a.09.09 0 0 1-.125-.034l-3.349-5.91a.09.09 0 0 1 .034-.124l14.074-8.109z"/><path fill="#1A162C" d="M132.606 67.75c.554 0 1.306.368 2.107 1.29.767.882 1.178 1.979 1.158 3.09-.013.733-.215 1.011-.537 1.223l-.085.06-13.984 8.05-3.133-5.529 13.912-8.017a.948.948 0 0 1 .562-.166zm-11.422 14.415a.402.402 0 0 0 .199-.054l14.302-8.247c.547-.358.791-.876.806-1.723.023-1.264-.442-2.51-1.309-3.507-1.465-1.687-2.791-1.718-3.487-1.23l-14.061 8.1a.404.404 0 0 0-.15.547l3.349 5.91a.4.4 0 0 0 .351.204z"/><path fill="#fff" d="M129.139 73.547l-9.586 5.526-1.798-3.175a.09.09 0 0 1 .034-.124l14.074-8.11c.698-.5 1.883-.211 3.084 1.172.24.277.445.578.62.896.004.019.006.038.013.05l-6.441 3.765z"/><path fill="#1A162C" d="M119.436 79.497l9.857-5.68-.31-.539-9.315 5.369-1.538-2.713 13.887-8c.546-.39 1.571-.187 2.695 1.106.206.237.394.506.559.801a.37.37 0 0 0 .036.092l.544-.3-.272.15.296-.085-.037-.115a5.41 5.41 0 0 0-.658-.95c-1.474-1.697-2.807-1.717-3.499-1.22l-14.049 8.092a.404.404 0 0 0-.149.546l1.953 3.446z"/><path fill="#fff" d="M134.465 70.477l-3.398 1.959 3.398-1.959z"/><path fill="#1A162C" d="M131.221 72.705l3.398-1.959-.311-.538-3.397 1.958.31.539zM135.505 73.579l-.076.053-14.2 8.176a.09.09 0 0 1-.125-.034l-.576-1.017 1.277-.458 14.252-8.126c-.014.751-.091 1.101-.552 1.406z"/><path fill="#1A162C" d="M135.708 72.729c-.048.304-.152.446-.373.59l-.084.06-13.985 8.05-.287-.504.98-.356 13.749-7.84zm-14.523 9.402a.405.405 0 0 0 .199-.054l14.294-8.241c.619-.407.676-.944.689-1.657l.01-.545-14.702 8.382-1.598.575.757 1.336a.4.4 0 0 0 .351.204z"/><path fill="#EF4BA2" d="M116.858 77.48c0 1.575 1.108 3.492 2.473 4.28 1.366.787 2.474.149 2.474-1.427s-1.108-3.492-2.474-4.28c-1.365-.789-2.473-.15-2.473 1.426z"/><path fill="#1A162C" d="M118.228 76.024c.284 0 .606.1.948.297 1.278.738 2.318 2.537 2.318 4.013 0 .646-.202 1.118-.57 1.33-.365.213-.877.15-1.437-.173-1.279-.737-2.318-2.537-2.318-4.012 0-.646.201-1.119.568-1.33a.972.972 0 0 1 .491-.125zm2.209 6.384c.288 0 .558-.068.798-.206.568-.328.88-.991.88-1.868 0-1.701-1.155-3.7-2.628-4.55-.761-.439-1.493-.5-2.06-.173s-.88.99-.88 1.868c0 1.702 1.155 3.7 2.629 4.548.439.254.867.381 1.261.381z"/><path fill="#1A162C" d="M118.676 78.528c0 .418.293.925.655 1.134.362.209.655.04.655-.378s-.293-.925-.655-1.134c-.362-.208-.655-.04-.655.378z"/><path fill="#EF4BA2" d="M124.773 78.632c.698-.501 1.882-.212 3.085 1.172.793.913 1.255 2.09 1.233 3.298-.013.752-.214 1.174-.676 1.477l-.076.054-6.866 3.96a.09.09 0 0 1-.124-.033L118 82.65a.091.091 0 0 1 .033-.125l6.74-3.893z"/><path fill="#1A162C" d="M125.515 78.718c.554 0 1.306.367 2.107 1.29.767.881 1.178 1.978 1.158 3.089-.013.734-.215 1.012-.537 1.223l-.084.059-6.651 3.836-3.133-5.53 6.578-3.801a.948.948 0 0 1 .562-.166zm-4.088 10.198c.07 0 .138-.018.2-.053l6.964-4.03c.55-.36.794-.878.809-1.725.023-1.264-.442-2.51-1.309-3.507-1.467-1.687-2.79-1.718-3.487-1.23l-6.728 3.886a.4.4 0 0 0-.148.545l3.349 5.91a.394.394 0 0 0 .35.204z"/><path fill="#fff" d="M127.312 81.518l-7.514 4.305-1.799-3.174a.09.09 0 0 1 .034-.124l6.74-3.893c.697-.501 1.882-.212 3.084 1.171.24.277.445.578.62.896.003.019.006.038.013.05l-1.178.769z"/><path fill="#1A162C" d="M119.683 86.247l7.784-4.46-.308-.538-7.244 4.15-1.538-2.713 6.552-3.786c.544-.39 1.572-.186 2.695 1.107.207.238.394.506.559.8a.348.348 0 0 0 .039.097l.538-.308-.269.154.296-.084-.037-.116a5.496 5.496 0 0 0-.657-.95c-1.476-1.697-2.807-1.717-3.501-1.22l-6.714 3.877a.399.399 0 0 0-.148.545l1.953 3.445zM128.415 84.545l-.075.054-6.866 3.96a.092.092 0 0 1-.126-.034l-.575-1.016 1.276-.46 6.918-3.91c-.014.752-.091 1.103-.552 1.406z"/><path fill="#1A162C" d="M128.621 83.693c-.049.307-.154.448-.374.593l-.085.06-6.65 3.835-.286-.505.978-.356 6.417-3.627zm-7.19 5.19c.07 0 .138-.02.2-.054l6.959-4.026c.619-.409.676-.945.689-1.657l.01-.543-7.367 4.165-1.599.573.758 1.338a.398.398 0 0 0 .35.203z"/><path fill="#EF4BA2" d="M117.102 84.23c0 1.576 1.107 3.493 2.473 4.28 1.366.789 2.474.15 2.474-1.426 0-1.576-1.108-3.492-2.474-4.28-1.366-.788-2.473-.15-2.473 1.427z"/><path fill="#1A162C" d="M118.473 82.775c.284 0 .606.1.948.297 1.278.737 2.318 2.537 2.318 4.012 0 .647-.202 1.12-.569 1.332-.368.21-.879.15-1.438-.174-1.279-.737-2.319-2.537-2.319-4.011 0-.647.202-1.12.57-1.332a.964.964 0 0 1 .49-.124zm2.209 6.385c.288 0 .558-.069.798-.207.568-.328.879-.99.879-1.869 0-1.7-1.154-3.699-2.627-4.549-.761-.44-1.491-.501-2.06-.173-.567.327-.88.991-.88 1.869 0 1.7 1.155 3.698 2.629 4.549.439.252.867.38 1.261.38z"/><path fill="#1A162C" d="M118.922 85.28c0 .417.293.925.655 1.133.362.21.655.04.655-.378 0-.417-.293-.924-.655-1.134-.362-.208-.655-.04-.655.378z"/><path fill="#EF4BA2" d="M140.364 70.996l10.476.016c.119 0 .215.096.215.215v5.13l-.007.586c-.023.32-.262.65-.716.912l-3.152 1.819c-.873.503-2.194.558-2.949.122l-3.577-2.063c-.363-.21-.525-.495-.503-.79h-.003v-5.731c0-.12.097-.216.216-.216z"/><path fill="#1A162C" d="M150.744 71.321l-.007 5.618c-.016.208-.22.452-.56.647l-3.152 1.82c-.773.445-1.982.5-2.639.122l-3.576-2.064c-.169-.098-.367-.263-.35-.498l.024-.333h-.026v-5.326l10.286.014zm-5.23 9.08c.632 0 1.293-.155 1.821-.46l3.153-1.818c.528-.305.837-.716.869-1.157l.008-.605v-5.134a.527.527 0 0 0-.525-.525l-10.477-.017a.527.527 0 0 0-.526.527v6.041h.036c.08.295.297.558.626.748l3.576 2.063c.392.226.905.338 1.439.338z"/><path fill="#1A162C" d="M140.362 71.006l4.822.007v9.068c-.357-.035-.691-.123-.954-.276l-3.577-2.062c-.363-.21-.525-.495-.504-.79h-.002V71.22c0-.119.096-.216.215-.215z"/><path fill="#fff" d="M140.654 71.802l3.577 2.063c.755.436 2.076.382 2.948-.121l3.153-1.82c.873-.503.969-1.265.212-1.701l-3.576-2.064c-.756-.436-2.077-.38-2.949.123l-3.153 1.818c-.874.504-.968 1.266-.212 1.703z"/><path fill="#1A162C" d="M145.691 68.176c.425 0 .828.082 1.121.251l3.576 2.064c.163.094.356.251.356.47 0 .23-.212.49-.567.695l-3.152 1.819c-.773.445-1.982.502-2.639.122l-3.576-2.064c-.163-.093-.356-.25-.356-.47 0-.23.212-.49.567-.694l3.153-1.82c.428-.245.989-.373 1.517-.373zm-.176 6.295c.632 0 1.293-.155 1.82-.46l3.153-1.819c.557-.321.877-.77.877-1.23 0-.403-.236-.76-.666-1.008l-3.576-2.063c-.855-.493-2.287-.439-3.26.122l-3.153 1.819c-.557.321-.877.77-.876 1.231 0 .402.236.76.665 1.007l3.576 2.063c.392.227.906.338 1.44.338z"/><path fill="#EF4BA2" d="M141.063 77.21h.621v-4.17h-.621v4.17z"/><path fill="#1A162C" d="M146.368 79.896h.62v-4.353h-.62v4.353zM142.542 73.069l6.284-3.66-.312-.536-6.285 3.66.313.536z"/><path fill="#EF4BA2" d="M138.717 79.789l10.475.016c.119 0 .216.096.216.215v2.644l-.007.587c-.023.319-.261.65-.715.911l-3.153 1.819c-.873.504-2.193.558-2.949.122l-3.576-2.063c-.364-.21-.525-.494-.504-.79h-.003v-3.246c0-.12.096-.215.216-.215z"/><path fill="#1A162C" d="M149.099 80.114l-.006 3.132c-.016.208-.221.452-.56.648l-3.154 1.818c-.772.446-1.98.502-2.639.123l-3.576-2.064c-.168-.097-.366-.262-.348-.498l.024-.333h-.027v-2.842l10.286.016zm-5.23 6.595c.632 0 1.294-.155 1.821-.46l3.153-1.819c.528-.304.837-.716.869-1.157l.009-.605V80.02a.529.529 0 0 0-.525-.526l-10.477-.016a.527.527 0 0 0-.527.526v3.556h.036c.08.295.296.559.626.748l3.576 2.063c.392.226.905.338 1.439.338z"/><path fill="#1A162C" d="M138.718 79.798l4.821.007v6.583c-.358-.035-.691-.123-.955-.276l-3.576-2.062c-.363-.21-.524-.495-.503-.79h-.003v-3.246c0-.12.096-.216.216-.216z"/><path fill="#fff" d="M139.008 80.595l3.576 2.063c.756.436 2.076.382 2.95-.122l3.152-1.819c.873-.504.968-1.266.212-1.701l-3.576-2.064c-.757-.436-2.077-.382-2.95.123l-3.153 1.818c-.872.504-.967 1.266-.211 1.702z"/><path fill="#1A162C" d="M144.046 76.969c.426 0 .829.082 1.123.25l3.576 2.065c.162.093.355.25.355.47 0 .23-.211.49-.566.694l-3.154 1.82c-.772.445-1.98.501-2.639.12l-3.576-2.062c-.162-.094-.355-.25-.355-.47 0-.23.212-.49.567-.695l3.153-1.818c.427-.247.989-.374 1.516-.374zm-.176 6.294c.632 0 1.294-.154 1.821-.459l3.153-1.819c.558-.321.878-.77.877-1.231 0-.402-.236-.76-.665-1.007l-3.577-2.064c-.854-.493-2.286-.44-3.26.122l-3.152 1.82c-.558.321-.878.77-.878 1.231 0 .402.237.76.665 1.007l3.577 2.063c.392.226.905.337 1.439.337z"/><path fill="#EF4BA2" d="M139.415 83.517h.622v-1.683h-.622v1.683z"/><path fill="#1A162C" d="M144.723 86.203h.621v-1.867h-.621v1.867zM140.97 81.903l6.284-3.66-.312-.536-6.285 3.66.313.536zM7.247 88.56l-.598.346c-.061.035-.168.03-.24-.01l-.564-.326c-.07-.04-.078-.102-.016-.138l.598-.345c.061-.035.168-.03.239.01l.563.326c.072.04.08.102.018.137zM8.64 89.363l-.6.346c-.06.035-.168.03-.238-.01l-.564-.326c-.07-.04-.078-.102-.018-.137l.6-.346c.06-.035.168-.03.238.01l.564.326c.07.04.078.102.018.137zM7.173 90.21l-.598.345c-.062.035-.17.03-.24-.01l-.564-.326c-.07-.04-.078-.102-.017-.137l.598-.345c.062-.035.169-.032.24.01l.563.324c.07.041.08.104.018.139zM10.112 90.213l-.598.345c-.062.036-.169.031-.24-.009l-.563-.326c-.07-.04-.079-.102-.017-.138l.598-.345c.06-.035.169-.031.24.01l.563.325c.07.041.078.103.017.138zM8.646 91.06l-.599.345c-.061.035-.168.03-.239-.01l-.564-.326c-.07-.04-.079-.103-.017-.138l.599-.345c.06-.035.168-.03.239.01l.563.326c.071.04.078.102.018.137zM11.505 91.017l-.598.344c-.062.036-.168.032-.24-.009l-.564-.325c-.07-.041-.078-.103-.017-.139l.598-.345c.062-.035.169-.031.24.01l.564.325c.07.041.078.103.017.139zM10.038 91.862l-.598.346c-.061.035-.168.03-.24-.01l-.563-.326c-.071-.04-.079-.102-.017-.138l.598-.345c.061-.035.168-.03.239.01l.564.326c.07.04.078.102.017.137zM12.896 91.82l-.599.344c-.061.036-.169.032-.24-.009l-.563-.325c-.07-.041-.078-.103-.017-.139l.598-.344c.062-.036.168-.031.24.009l.563.325c.07.041.079.103.018.139zM11.43 92.665l-.597.346c-.062.035-.169.03-.24-.01l-.564-.326c-.07-.04-.078-.102-.017-.137l.598-.346c.062-.035.169-.03.24.01l.563.326c.07.04.079.102.018.137zM1.46 81.441l-.599.345c-.06.036-.168.031-.239-.01l-.563-.325c-.07-.04-.08-.103-.018-.138l.6-.345c.06-.035.167-.03.238.01l.564.326c.07.04.078.102.017.137zM2.932 82.292l-.598.344c-.06.036-.168.031-.239-.01l-.563-.325c-.072-.04-.08-.102-.018-.138l.598-.345c.062-.036.169-.031.24.01l.564.325c.07.041.078.102.016.139zM1.467 83.137l-.598.345c-.061.035-.168.031-.239-.01l-.563-.325c-.071-.04-.08-.103-.018-.138l.599-.345c.06-.035.168-.032.239.01l.564.325c.07.04.078.103.016.138zM4.325 83.095l-.598.344c-.061.036-.168.031-.239-.01l-.564-.325c-.071-.041-.079-.102-.017-.138l.598-.345c.061-.036.168-.031.239.01l.563.325c.072.041.08.103.018.139zM2.858 83.94l-.598.345c-.061.035-.168.032-.239-.01l-.564-.325c-.07-.04-.078-.103-.017-.138l.598-.345c.061-.035.168-.03.239.01l.565.325c.07.04.078.103.016.138zM4.25 84.743l-.597.345c-.062.036-.17.032-.24-.01l-.564-.325c-.07-.04-.078-.103-.016-.138l.598-.345c.061-.035.168-.03.239.01l.563.326c.07.04.08.102.018.137zM14.369 92.669l-.6.346c-.06.035-.168.03-.238-.01l-.564-.326c-.07-.04-.079-.102-.018-.137l.6-.346c.06-.035.168-.03.238.01l.564.325c.07.041.078.103.018.138zM12.903 93.516l-.599.344c-.06.036-.168.031-.239-.009l-.563-.326c-.07-.04-.078-.102-.018-.138l.6-.344c.06-.036.167-.032.238.009l.564.325c.07.041.079.103.017.139zM15.836 91.823l-.598.345c-.06.035-.168.031-.239-.01l-.563-.325c-.07-.04-.08-.103-.018-.138l.598-.345c.062-.035.17-.03.24.01l.564.326c.07.04.078.102.016.137zM17.302 90.978l-.598.344c-.062.036-.169.03-.24-.01l-.563-.325c-.072-.041-.08-.102-.018-.138l.598-.345c.062-.036.169-.031.24.01l.564.325c.07.04.078.103.017.139zM15.76 93.473l-.597.345c-.062.035-.169.03-.24-.01l-.564-.326c-.07-.04-.078-.102-.017-.137l.598-.346c.062-.035.169-.03.24.01l.564.326c.07.04.078.102.017.138zM17.227 92.626l-.598.345c-.061.036-.168.031-.239-.01l-.564-.325c-.07-.04-.078-.103-.017-.138l.598-.345c.062-.035.169-.03.24.01l.564.326c.07.04.078.102.017.137zM18.051 83.33l-.598.344c-.061.036-.168.031-.239-.01l-.563-.325c-.071-.04-.08-.102-.018-.138l.598-.345c.061-.036.168-.031.24.01l.564.325c.07.041.078.103.016.139zM19.518 82.483l-.598.346c-.061.035-.168.03-.239-.01l-.563-.326c-.072-.04-.08-.103-.018-.138l.598-.345c.061-.035.168-.03.24.01l.564.326c.07.04.078.102.016.137zM19.444 84.133l-.598.345c-.061.035-.168.03-.239-.01l-.564-.326c-.071-.04-.078-.102-.017-.138l.598-.345c.061-.036.168-.031.239.01l.564.325c.071.041.079.103.017.139z"/><path fill="#fff" d="M10.788 85.38l7.782-4.49-9.338-5.39-7.783 4.492 9.339 5.387z"/><path fill="#1A162C" d="M2.075 79.99l8.714 5.029 7.157-4.13-8.713-5.027-7.158 4.129zm8.714 5.75L.824 79.99l8.409-4.85 9.964 5.75-8.408 4.85z"/><path fill="#fff" d="M10.788 83.828l7.782-4.49-9.338-5.388-7.783 4.49 9.339 5.388z"/><path fill="#1A162C" d="M2.075 78.44l8.714 5.027 7.157-4.129-8.713-5.027-7.158 4.13zm8.714 5.75L.824 78.44l8.409-4.85 9.964 5.748-8.408 4.851z"/><path fill="#fff" d="M10.788 83.828l7.782-4.49-9.338-5.388-7.783 4.49 9.339 5.388z"/><path fill="#1A162C" d="M2.075 78.44l8.714 5.027 7.157-4.129-8.713-5.027-7.158 4.13zm8.714 5.75L.824 78.44l8.409-4.85 9.964 5.748-8.408 4.851z"/><path fill="#fff" d="M10.788 82.277l7.782-4.49-9.338-5.389-7.783 4.491 9.339 5.388z"/><path fill="#1A162C" d="M2.075 76.89l8.714 5.026 7.157-4.129-8.713-5.027-7.158 4.13zm8.714 5.747L.824 76.89l8.409-4.851 9.964 5.749-8.408 4.85z"/><path fill="#fff" d="M10.788 80.726l7.782-4.49-9.338-5.389-7.783 4.491 9.339 5.388z"/><path fill="#1A162C" d="M2.075 75.338l8.714 5.027 7.157-4.13-8.713-5.026-7.158 4.129zm8.714 5.748L.824 75.338l8.409-4.851 9.964 5.749-8.408 4.85z"/><path fill="#fff" d="M10.788 79.174l7.782-4.49-9.338-5.388-7.783 4.49 9.339 5.388z"/><path fill="#1A162C" d="M2.075 73.787l8.714 5.026 7.157-4.128-8.713-5.027-7.158 4.129zm8.714 5.748L.824 73.787l8.409-4.852 9.964 5.75-8.408 4.85z"/><path fill="#EF4BA2" d="M10.788 77.623l7.782-4.49-9.338-5.388-7.783 4.49 9.339 5.388z"/><path fill="#1A162C" d="M2.075 72.235l8.714 5.028 7.157-4.13-8.713-5.026-7.158 4.128zm8.714 5.75l-9.965-5.75 8.409-4.85 9.964 5.749-8.408 4.851z"/><path fill="#fff" d="M11.965 74.534l3.042-1.714-4.433-2.557-3.04 1.714 4.43 2.557z"/><path fill="#1A162C" d="M8.163 71.98l3.802 2.194 2.41-1.358-3.804-2.193-2.408 1.357zm3.799 2.914L6.9 71.974l3.675-2.071 5.061 2.92-3.674 2.07z"/><path fill="#fff" d="M14.573 65.709c.11 0 .198.095.187.206l-.556 5.59c0 .334-.327.67-.982.83-.361.09-.744.09-1.106 0-.654-.16-.982-.496-.982-.83l-.555-5.59a.188.188 0 0 1 .187-.206h3.807z"/><path fill="#1A162C" d="M10.904 66.021l.542 5.452c.002.202.231.432.746.56.312.076.641.076.955 0 .514-.128.744-.358.744-.529l.544-5.483h-3.531zm1.765 6.694c-.211 0-.421-.026-.627-.076-.764-.188-1.221-.612-1.221-1.135l-.553-5.557a.497.497 0 0 1 .498-.55h3.807a.5.5 0 0 1 .498.549l-.556 5.589c.002.492-.454.916-1.218 1.104-.206.05-.417.076-.628.076z"/><path fill="#EF4BA2" d="M11.18 64.848c-.826.475-.826 1.246 0 1.722.823.475 2.16.475 2.984 0 .825-.475.825-1.247 0-1.722-.824-.476-2.16-.476-2.985 0z"/><path fill="#1A162C" d="M12.67 64.805c-.487 0-.974.105-1.336.314-.294.169-.462.384-.462.59 0 .206.168.42.462.59.724.418 1.949.418 2.672 0 .294-.17.463-.384.463-.59 0-.206-.169-.421-.463-.59-.361-.21-.849-.314-1.336-.314zm0 2.436c-.594 0-1.186-.133-1.65-.4-.499-.288-.774-.69-.774-1.132 0-.442.275-.844.775-1.132.925-.534 2.373-.534 3.299 0 .5.288.774.69.774 1.132 0 .441-.275.844-.774 1.132-.463.267-1.057.4-1.65.4z"/><path fill="#EF4BA2" d="M9.54 80.372c-.703-.505-1.897-.213-3.11 1.182-.8.922-1.266 2.107-1.244 3.326.014.758.217 1.183.682 1.49l.077.054 6.923 3.993c.044.026.101.01.126-.034l3.377-5.96a.093.093 0 0 0-.034-.125L9.54 80.372z"/><path fill="#1A162C" d="M8.79 80.459c-.558 0-1.316.37-2.123 1.3-.774.89-1.189 1.996-1.168 3.115.014.74.218 1.02.541 1.235l.085.058 6.706 3.868 3.16-5.575-6.633-3.833a.95.95 0 0 0-.568-.168zm4.123 10.284a.413.413 0 0 1-.202-.054L5.69 86.625c-.555-.364-.8-.885-.815-1.74-.023-1.273.445-2.53 1.32-3.536 1.477-1.7 2.813-1.732 3.516-1.24l6.783 3.919c.192.11.26.357.15.549l-3.377 5.96a.402.402 0 0 1-.353.206z"/><path fill="#fff" d="M6.98 83.282l7.578 4.342 1.813-3.2a.092.092 0 0 0-.034-.126L9.54 80.373c-.704-.506-1.898-.214-3.11 1.18a5.26 5.26 0 0 0-.626.904c-.003.019-.005.038-.012.051l1.188.774z"/><path fill="#1A162C" d="M14.674 88.052l-7.85-4.498.31-.543 7.305 4.186 1.55-2.737-6.606-3.816c-.55-.393-1.585-.189-2.717 1.115a4.885 4.885 0 0 0-.564.806.37.37 0 0 1-.036.094l-.274-.15-.3-.083.037-.12c.196-.353.419-.674.663-.957 1.488-1.71 2.83-1.732 3.53-1.23l6.77 3.909c.191.11.26.356.15.549l-1.968 3.475zM5.866 86.335l.077.054 6.922 3.994c.045.026.102.01.127-.035l.581-1.025-1.288-.462-6.974-3.943c.013.758.09 1.11.555 1.417z"/><path fill="#1A162C" d="M5.66 85.475c.05.31.155.452.378.6l.086.058 6.705 3.868.289-.509-.987-.358-6.47-3.659zm7.251 5.233a.397.397 0 0 1-.2-.054l-7.019-4.06c-.624-.411-.681-.952-.694-1.67l-.01-.548 7.428 4.2 1.612.579-.764 1.347a.398.398 0 0 1-.353.206z"/><path fill="#EF4BA2" d="M17.274 86.017c0 1.59-1.116 3.523-2.493 4.317-1.378.795-2.494.15-2.494-1.44 0-1.588 1.116-3.52 2.494-4.315 1.377-.795 2.493-.15 2.493 1.438z"/><path fill="#1A162C" d="M15.894 84.55c-.286 0-.611.101-.956.3-1.288.744-2.337 2.558-2.337 4.046 0 .651.203 1.128.574 1.342.37.214.886.151 1.45-.175 1.29-.743 2.337-2.558 2.337-4.045 0-.653-.203-1.129-.573-1.342a.976.976 0 0 0-.495-.126zm-2.227 6.439c-.29 0-.563-.07-.805-.21-.572-.33-.887-.998-.887-1.883 0-1.715 1.164-3.73 2.65-4.588.768-.442 1.505-.504 2.076-.174.572.33.887.999.887 1.884 0 1.714-1.164 3.73-2.65 4.587-.442.255-.875.384-1.27.384z"/><path fill="#1A162C" d="M15.442 87.075c0 .421-.296.933-.66 1.143-.365.211-.66.04-.66-.38s.295-.933.66-1.144c.364-.21.66-.039.66.381z"/></svg>