<svg xmlns="http://www.w3.org/2000/svg" fill="none" viewBox="0 0 100 145"><path fill="#1A162C" d="M47.823 76.05l-1.117.644c-.114.066-.314.058-.446-.019l-1.052-.608c-.133-.076-.148-.19-.033-.257l1.116-.644c.115-.068.316-.06.448.017l1.053.608c.132.077.146.193.031.259zM50.56 74.468l-1.117.644c-.114.068-.314.06-.446-.017l-1.053-.608c-.133-.076-.147-.193-.033-.257l1.117-.646c.115-.066.315-.058.448.019l1.053.608c.132.076.146.19.031.257zM53.508 69.827l-1.119.644c-.113.066-.314.058-.446-.019l-1.053-.608c-.132-.074-.146-.19-.031-.257l1.117-.646c.114-.066.314-.057.446.02l1.053.607c.131.077.147.193.032.259zM53.364 72.908l-1.117.644c-.114.068-.314.06-.446-.017l-1.052-.608c-.132-.076-.148-.193-.034-.259l1.12-.644c.112-.066.313-.057.445.02l1.053.607c.132.077.146.191.031.257zM5.465 98.342l-1.118.644c-.115.066-.314.06-.446-.017l-1.053-.608c-.132-.077-.147-.193-.033-.259l1.119-.644c.114-.066.314-.058.446.019l1.052.608c.132.076.148.19.033.257zM8.064 99.842l-1.117.646c-.114.066-.314.058-.446-.019l-1.053-.608c-.133-.076-.147-.193-.033-.258l1.117-.645c.115-.066.315-.057.448.02l1.053.607c.132.077.146.191.031.257zM5.325 101.424l-1.117.645c-.114.066-.314.057-.446-.019l-1.053-.608c-.132-.077-.147-.191-.033-.257l1.117-.646c.115-.066.316-.058.448.019l1.053.608c.132.076.146.191.031.258zM10.816 101.431l-1.117.645c-.114.066-.314.057-.446-.019l-1.054-.608c-.132-.077-.146-.191-.032-.257l1.117-.646c.115-.066.315-.058.447.019l1.054.608c.132.076.146.192.031.258zM8.074 103.012l-1.117.644c-.114.066-.314.059-.446-.017l-1.054-.608c-.132-.076-.146-.193-.032-.259l1.117-.644c.115-.066.314-.059.446.017l1.055.608c.132.077.146.193.03.259zM13.416 102.932l-1.119.644c-.113.066-.314.058-.446-.019l-1.053-.608c-.132-.076-.146-.191-.03-.257l1.116-.646c.114-.066.314-.057.446.019l1.053.608c.132.077.147.193.033.259zM10.674 104.513l-1.117.644c-.115.066-.315.059-.448-.017l-1.053-.608c-.132-.077-.146-.193-.031-.259l1.117-.644c.114-.066.314-.058.446.019l1.053.607c.133.077.147.192.033.258zM16.01 104.433l-1.116.644c-.115.066-.315.057-.447-.019l-1.052-.608c-.132-.076-.148-.191-.033-.257l1.117-.644c.115-.066.314-.059.448.017l1.052.608c.132.076.146.193.032.259zM13.276 106.013l-1.118.646c-.115.066-.315.057-.447-.019l-1.052-.608c-.132-.076-.148-.193-.033-.259l1.118-.644c.113-.066.315-.057.447.019l1.052.608c.132.076.146.191.033.257zM2.863 96.761l-1.117.645c-.114.066-.314.057-.446-.02L.246 96.78c-.132-.077-.146-.191-.032-.257l1.117-.647c.115-.066.314-.057.446.02l1.053.607c.134.077.148.193.033.26zM2.726 99.842l-1.117.646c-.114.066-.316.058-.448-.019L.11 99.861c-.132-.076-.146-.193-.031-.258l1.116-.645c.115-.066.315-.057.447.02l1.052.607c.132.077.148.191.033.257zM34.925 102.777l-1.116.645c-.115.068-.315.059-.447-.018l-1.054-.607c-.132-.077-.146-.193-.031-.259l1.117-.645c.114-.066.314-.057.446.02l1.054.607c.132.077.146.191.031.257zM37.525 104.278l-1.117.646c-.114.066-.314.057-.448-.019l-1.052-.608c-.132-.076-.146-.193-.032-.259l1.117-.644c.115-.066.315-.057.447.019l1.052.608c.132.076.148.191.033.257zM34.783 105.86l-1.117.645c-.115.066-.314.057-.446-.02l-1.054-.607c-.132-.077-.146-.191-.032-.257l1.117-.647c.115-.066.314-.057.446.02l1.055.607c.132.077.145.193.03.259zM37.535 107.448l-1.117.644c-.114.066-.316.059-.448-.017l-1.053-.608c-.132-.077-.145-.193-.03-.259l1.116-.644c.115-.066.314-.058.446.017l1.053.608c.132.076.147.193.033.259zM32.325 101.197l-1.119.644c-.114.066-.314.058-.446-.019l-1.053-.608c-.131-.076-.147-.191-.033-.257l1.119-.646c.115-.066.314-.057.446.019l1.053.608c.132.077.146.193.033.259zM32.18 104.278l-1.116.646c-.115.066-.314.057-.447-.019l-1.052-.608c-.132-.076-.148-.193-.033-.259l1.117-.644c.114-.066.314-.057.448.019l1.052.608c.132.076.146.191.032.257zM18.765 106.02l-1.116.646c-.115.066-.315.057-.447-.019l-1.054-.608c-.132-.076-.146-.193-.031-.259l1.116-.644c.115-.066.315-.057.447.019l1.054.608c.132.076.146.191.031.257zM16.027 107.602l-1.117.645c-.114.066-.314.057-.446-.02l-1.053-.607c-.133-.077-.147-.191-.033-.257l1.117-.647c.115-.066.314-.057.448.02l1.053.607c.132.077.145.193.03.259zM21.502 104.44l-1.117.644c-.115.066-.315.057-.447-.019l-1.054-.608c-.132-.077-.146-.191-.031-.257l1.117-.645c.114-.066.314-.059.446.018l1.054.608c.132.076.146.193.032.259zM24.24 102.857l-1.117.646c-.114.066-.314.058-.448-.019l-1.052-.608c-.132-.076-.146-.191-.032-.257l1.117-.646c.115-.066.314-.057.446.019l1.053.608c.134.077.148.191.033.257zM26.982 101.277l-1.117.644c-.114.066-.316.059-.448-.017l-1.052-.608c-.132-.077-.146-.193-.031-.259l1.116-.644c.115-.066.315-.058.447.017l1.052.608c.132.076.148.193.033.259zM29.72 99.696l-1.12.645c-.114.066-.313.057-.445-.019l-1.053-.608c-.132-.077-.148-.191-.033-.257l1.119-.646c.114-.066.314-.058.446.019l1.052.608c.132.076.148.192.033.258zM21.365 107.521l-1.117.646c-.114.066-.314.057-.448-.019l-1.052-.608c-.132-.077-.146-.191-.032-.259l1.117-.644c.115-.066.314-.058.446.019l1.053.608c.132.076.148.191.033.257zM24.101 105.94l-1.118.644c-.113.066-.315.06-.447-.017l-1.052-.608c-.132-.076-.146-.193-.031-.259l1.116-.644c.115-.066.315-.059.447.017l1.052.608c.132.077.148.193.033.259zM26.84 104.358l-1.118.646c-.115.066-.314.057-.446-.019l-1.053-.608c-.132-.076-.147-.191-.033-.257l1.119-.646c.114-.066.314-.057.446.019l1.053.608c.131.076.145.191.032.257zM29.577 102.777l-1.117.645c-.114.068-.314.059-.446-.018l-1.053-.607c-.132-.077-.147-.193-.033-.259l1.117-.645c.115-.066.316-.057.448.02l1.053.607c.132.077.146.191.031.257z"/><path fill="#EF4BA2" d="M33.7 92.494l-.06-19.886a.117.117 0 0 0-.092-.113l-14.55 1.35a.062.062 0 0 1-.03-.013l-1.36-8.024a.12.12 0 0 0-.123 0l-13.377 7.73a.123.123 0 0 1-.095.013l-2.564-.705a.122.122 0 0 0-.156.116c.003.655.068 19.683.073 19.756l.003.02c.047.431.273.843.7 1.09l13.526 7.788a3.71 3.71 0 0 0 3.72-.007l13.674-7.903c.459-.267.69-.724.707-1.19l.004-.022z"/><path fill="#1A162C" d="M1.88 73.572l.013 4.243c.02 5.48.052 14.653.056 14.886a.84.84 0 0 0 .411.621l13.527 7.786c.969.561 2.169.558 3.134-.005l13.674-7.904a.836.836 0 0 0 .417-.703l.587-.002-.585.002c0-.072-.047-16.224-.058-19.369l-14.123 1.31-.245-.09-.248-.136-1.279-7.541L4.4 74.046a.707.707 0 0 1-.54.07l-1.98-.544zm15.57 29.124a4.277 4.277 0 0 1-2.147-.575L1.777 94.335a1.996 1.996 0 0 1-.99-1.534C.78 92.72.778 92.694.724 77.818.716 75.166.71 73.17.707 72.966a.7.7 0 0 1 .273-.561.712.712 0 0 1 .621-.122l2.382.653 13.21-7.635a.708.708 0 0 1 .708.002l.238.137 1.317 7.776 14.146-1.313.104.027a.7.7 0 0 1 .518.678l.059 19.886-.007.088a1.984 1.984 0 0 1-.994 1.628l-13.675 7.904a4.283 4.283 0 0 1-2.157.582z"/><path fill="#1A162C" d="M33.546 72.498l-14.55 1.353c-.011-.003-.021-.008-.03-.012l-1.687 4.964.07 23.307a3.69 3.69 0 0 0 1.964-.496l13.674-7.903c.458-.267.69-.724.707-1.188l.003-.024-.059-19.886c0-.056-.038-.1-.092-.115z"/><path fill="#1A162C" d="M17.864 78.898l.068 22.594a3.053 3.053 0 0 0 1.089-.384l13.673-7.904a.835.835 0 0 0 .417-.703c.002-.071-.045-16.224-.055-19.369L19.393 74.4l-1.529 4.498zm-.413 23.8l-.117-.002-.567-.016-.072-23.973 1.942-5.715.476.26L33.6 71.908l.104.03c.31.084.518.357.518.675l.059 19.886c-.03.744-.403 1.369-1 1.716l-13.676 7.904a4.264 4.264 0 0 1-2.155.579z"/><path fill="#fff" d="M15.6 81.778L2.013 73.954a1.437 1.437 0 0 1-.005-2.487l13.734-7.94a3.584 3.584 0 0 1 3.597-.006l13.589 7.824c.957.55.959 1.93.005 2.485l-13.735 7.941a3.588 3.588 0 0 1-3.596.007z"/><path fill="#1A162C" d="M17.543 63.625c-.522 0-1.043.137-1.509.406L2.298 71.972a.845.845 0 0 0-.424.738c.002.308.16.584.427.738l13.589 7.823c.93.536 2.084.535 3.01-.005l13.736-7.941a.841.841 0 0 0 .424-.738.844.844 0 0 0-.427-.737l-13.589-7.822a2.984 2.984 0 0 0-1.5-.403zm-.152 19.216c-.721 0-1.442-.186-2.084-.558l-13.59-7.822a2 2 0 0 1-1.01-1.75 2 2 0 0 1 1.004-1.75l13.736-7.94a4.192 4.192 0 0 1 4.182-.007l13.587 7.824a1.998 1.998 0 0 1 1.011 1.747 1.999 1.999 0 0 1-1.004 1.75l-13.736 7.941a4.174 4.174 0 0 1-2.096.565z"/><path fill="#fff" d="M10.795 78.93l17.741-10.195-4.738-2.644L6.406 76.403l4.39 2.527z"/><path fill="#1A162C" d="M7.569 76.396l3.232 1.858 16.553-9.513-3.541-1.976-16.244 9.63zm3.232 3.207L5.25 76.41l18.543-10.992 5.931 3.309-18.924 10.877z"/><path fill="#fff" d="M7.094 68.526L24.069 78.99l4.382-2.534-17.033-10.394-4.324 2.464z"/><path fill="#1A162C" d="M8.236 68.545l15.838 9.765 3.23-1.868-15.9-9.703-3.168 1.806zM24.055 79.67L5.943 68.507l5.482-3.123L29.59 76.47l-5.537 3.2zM11.317 95.473l-1.17-.004.066-16.541 1.168.003-.064 16.542zM6.965 83.478l-1.17-.003.031-7.076 1.169.005-.03 7.074z"/><path fill="#EF4BA2" d="M28.854 83.1h-1.168l.006-4.63 1.17.001-.008 4.629zM22.923 95.035l-.005-14.377h1.169l.005 14.377h-1.169z"/><path fill="#fff" d="M12.83 89.797c0 1.528-1.072 2.146-2.396 1.384-1.323-.764-2.395-2.623-2.395-4.151 0-1.528 1.072-2.147 2.395-1.383 1.324.765 2.397 2.621 2.397 4.15z"/><path fill="#EF4BA2" d="M56.088 107.251l.002-93.512c0-.055-.037-.097-.089-.113-2.482-2.327-10.137-2.87-12.62-5.198l-9.263-5.125a.126.126 0 0 0-.122 0l-.56.333a.118.118 0 0 1-.093.01l-2.517-.7a.12.12 0 0 0-.154.115c.002.643.007 93.311.012 93.382l.003.023c.044.422.264.828.685 1.072l19.507 11.398a3.65 3.65 0 0 0 3.658.005l.85-.502c.45-.26.68-.708.697-1.165l.004-.023z"/><path fill="#1A162C" d="M31.25 3.673c.003 2.534.003 12.626.004 25.279.002 26.717.006 67.092.01 67.483a.8.8 0 0 0 .397.597l19.51 11.4a3.07 3.07 0 0 0 3.068.004l.846-.499a.81.81 0 0 0 .411-.686h.002v-.166c.002-9.24.004-88.305.002-93.118-1.178-1.018-3.614-1.71-5.973-2.378-2.642-.747-5.137-1.454-6.495-2.683l-8.973-4.964-.328.196a.714.714 0 0 1-.549.073l-1.931-.538zm21.456 106.34c-.735 0-1.47-.191-2.125-.571L31.072 98.043a1.97 1.97 0 0 1-.97-1.516c-.008-.082-.01-.104-.017-67.575-.001-14.52-.001-25.668-.003-25.889a.703.703 0 0 1 .898-.679l2.326.648.385-.231a.717.717 0 0 1 .716-.003l9.368 5.205c1.137 1.066 3.645 1.776 6.07 2.462 2.633.745 5.123 1.45 6.483 2.673.21.125.342.348.342.601l-.001 93.346-.007.255a1.967 1.967 0 0 1-.988 1.607l-.844.498a4.248 4.248 0 0 1-2.124.568z"/><path fill="#1A162C" d="M56 13.632l-2.95.114-.445 2.197-.003 93.486a3.643 3.643 0 0 0 1.934-.483l.85-.501c.451-.261.68-.709.698-1.166l.003-.022.002-93.513c0-.055-.036-.097-.089-.112z"/><path fill="#1A162C" d="M53.188 16.002l-.002 92.809a3.013 3.013 0 0 0 1.056-.37l.846-.498a.812.812 0 0 0 .412-.686l.002-.167.003-92.854-1.973.076-.344 1.69zm-.476 94.013c-.041 0-.085 0-.128-.002l-.566-.018.014-94.168.536-2.647 3.502-.136.088.025c.308.088.516.36.516.675l-.002 93.346v.167c-.033.736-.403 1.353-.995 1.695l-.844.498a4.224 4.224 0 0 1-2.12.565zM32.71 4.75s.199-.534.444-1.22l-2.328-.65a.12.12 0 0 0-.154.115c.002.643.007 93.313.012 93.384l.003.02c.044.423.264.83.685 1.074l1.337.778.002-93.501z"/><path fill="#1A162C" d="M31.25 3.607c.003 2.534.003 12.628.004 25.28.002 26.718.006 67.093.01 67.483.016.127.09.42.397.598l.458.267.004-92.59.036-.099.228-.621-1.136-.318zm2.04 95.659l-2.218-1.287a1.975 1.975 0 0 1-.97-1.517c-.008-.083-.01-.106-.017-67.575-.001-14.52-.001-25.668-.003-25.89a.702.702 0 0 1 .895-.68l2.933.82-.21.59c-.184.514-.34.941-.408 1.127l-.002 94.412z"/><path fill="#fff" d="M50.937 15.47L31.368 4.038a1.414 1.414 0 0 1 .004-2.445l.91-.537a3.525 3.525 0 0 1 3.536.006l19.568 11.433a1.414 1.414 0 0 1-.003 2.445l-.91.537a3.53 3.53 0 0 1-3.536-.005z"/><path fill="#1A162C" d="M51.233 14.966c.908.53 2.037.53 2.949.003l.905-.533a.822.822 0 0 0 .418-.72.821.821 0 0 0-.411-.717L35.524 1.564a2.944 2.944 0 0 0-2.948-.001l-.907.533a.82.82 0 0 0-.418.719c0 .299.153.566.412.717l19.57 11.434zm1.476 1.564a4.091 4.091 0 0 1-2.065-.555L31.074 4.54a1.977 1.977 0 0 1-.992-1.728 1.98 1.98 0 0 1 .999-1.728l.904-.533a4.122 4.122 0 0 1 4.127.003l19.57 11.435c.622.362.994 1.008.992 1.728 0 .721-.373 1.367-.999 1.727l-.904.533c-.638.37-1.35.552-2.062.552z"/><path fill="#EF4BA2" d="M53.037 60.032v-3.245a.115.115 0 0 0-.089-.113l-8.093-2.254c-.009-.003-.02-.007-.028-.012L31.065 46.35a.118.118 0 0 0-.122 0l-6.96 4.02a.115.115 0 0 1-.091.013l-2.519-.702a.12.12 0 0 0-.154.115c.002.644.008 3.044.015 3.116l.002.022c.045.422.266.828.684 1.073l19.508 11.397c1.13.659 2.527.66 3.658.005l7.249-4.189c.452-.26.68-.71.7-1.165l.002-.024z"/><path fill="#1A162C" d="M21.805 50.41c.002.915.007 2.341.012 2.475.018.147.09.44.398.618l19.508 11.399c.946.548 2.122.55 3.07.003l7.25-4.19a.81.81 0 0 0 .408-.683l.002-.021v-2.868l-7.908-2.223L31 46.99l-6.724 3.889a.717.717 0 0 1-.542.068l-1.93-.537zm21.456 16.072c-.736 0-1.472-.19-2.127-.571l-19.51-11.399a1.965 1.965 0 0 1-.969-1.516c-.012-.13-.019-2.056-.022-3.198a.703.703 0 0 1 .896-.68l2.33.65 6.792-3.922a.7.7 0 0 1 .708 0l13.71 8.027 8.036 2.239c.31.085.516.357.516.675v3.271l-.007.064a1.957 1.957 0 0 1-.988 1.605l-7.247 4.189a4.22 4.22 0 0 1-2.118.566z"/><path fill="#1A162C" d="M52.95 56.68l-8.094-2.255c-.008-.003-.019-.007-.028-.012l-1.674-.974v12.46a3.639 3.639 0 0 0 1.933-.483l7.25-4.19c.451-.262.68-.71.7-1.167l.001-.022c.002-.02 0-2.722 0-3.245a.115.115 0 0 0-.088-.112z"/><path fill="#1A162C" d="M43.739 54.455V65.28a3.042 3.042 0 0 0 1.056-.37l7.25-4.19a.81.81 0 0 0 .407-.683c.002-.078.002-1.516.002-2.477v-.413l-7.907-2.221-.808-.471zm-.474 12.03c-.044 0-.085-.001-.129-.003l-.568-.016V52.423l2.501 1.455 8.038 2.239c.31.085.516.358.516.675v3.271a2 2 0 0 1-.995 1.669l-7.248 4.19a4.22 4.22 0 0 1-2.115.564zM23.26 51.487s.196-.534.442-1.221l-2.329-.648a.119.119 0 0 0-.154.113c.002.644.008 3.046.015 3.117l.002.021c.045.424.266.83.684 1.073l1.34.779v-3.234z"/><path fill="#fff" d="M37.054 54.257l6.609-3.727-9.629-5.56-6.608 3.726 9.628 5.56z"/><path fill="#1A162C" d="M28.603 48.703l8.455 4.88 5.425-3.06-8.453-4.88-5.427 3.06zm8.448 6.226L26.246 48.69l7.791-4.394 10.805 6.239-7.791 4.394zM21.805 50.346c.002.915.007 2.34.012 2.473.018.15.09.44.398.618l.459.268.036-2.423s.092-.249.227-.622l-1.132-.314zm2.037 5.39l-2.216-1.288a1.967 1.967 0 0 1-.97-1.516c-.013-.13-.02-2.059-.023-3.198 0-.226.102-.429.28-.563a.714.714 0 0 1 .62-.116l2.93.816-.212.59c-.183.515-.34.944-.409 1.13v4.145z"/><path fill="#fff" d="M41.491 62.206l-19.57-11.433a1.412 1.412 0 0 1 .003-2.444l7.31-4.226a3.525 3.525 0 0 1 3.537.006l19.568 11.433a1.414 1.414 0 0 1-.003 2.445l-7.31 4.224a3.522 3.522 0 0 1-3.535-.005z"/><path fill="#1A162C" d="M41.783 61.702c.909.528 2.04.53 2.95.004l7.31-4.226a.818.818 0 0 0 .413-.715c0-.3-.153-.568-.412-.718l-19.57-11.435a2.945 2.945 0 0 0-2.947-.003l-7.31 4.225a.823.823 0 0 0-.415.716c0 .299.152.568.413.717l19.568 11.435zm1.478 1.565c-.715 0-1.429-.184-2.066-.556l-19.57-11.433a1.986 1.986 0 0 1-.992-1.73 1.98 1.98 0 0 1 .998-1.726l7.31-4.226a4.12 4.12 0 0 1 4.122.007l19.57 11.435a1.97 1.97 0 0 1 .992 1.727c0 .72-.374 1.367-.999 1.728l-7.31 4.224a4.106 4.106 0 0 1-2.055.55z"/><path fill="#1A162C" d="M36.55 48.732c.215-.1 5.278-2.502 5.2-5.828-.035-1.456-.827-2.043-1.294-2.262-.829-.389-1.932-.243-2.682.353-.61.484-.875 1.167-.726 1.874l1.141-.242c-.071-.335.129-.576.31-.719.404-.32 1.03-.411 1.46-.212.498.235.615.801.625 1.234.05 2.136-3.251 4.15-4.53 4.746l.496 1.056z"/><path fill="#EF4BA2" d="M34.924 51.172c3.11-4.286 3.41-11.089 3.428-11.667.002-.025-.017-.04-.041-.04H25.23c-.025 0-.044.015-.042.04.019.578.318 7.381 3.428 11.667.09.21.245.414.464.6 0 .001.002.001.002.003 0 0 .24.184.385.27 1.271.732 3.333.732 4.604 0 .146-.086.273-.176.386-.27l.003-.003c.22-.186.374-.39.464-.6z"/><path fill="#1A162C" d="M25.646 39.902c.1 1.593.65 7.33 3.371 11.097.066.152.183.302.332.43.003.002.212.164.337.237 1.129.65 3.038.65 4.168 0 .122-.072.228-.146.323-.228a1.26 1.26 0 0 0 .348-.441l.045-.082c2.695-3.715 3.228-9.37 3.328-11.013H25.645zm3.602 12.52a5.063 5.063 0 0 1-.451-.317c-.266-.226-.462-.481-.535-.676-3.172-4.371-3.486-11.151-3.512-11.904l.002-.213.29-.283H38.31l.495.038-.016.453c-.027.76-.352 7.522-3.486 11.873-.123.26-.31.5-.566.717-.132.11-.278.214-.448.313-.707.408-1.612.611-2.52.611-.907 0-1.815-.203-2.522-.613z"/><path fill="#1A162C" d="M33.02 39.472s.772 7.942-1.036 13.116c.76-.03 1.504-.203 2.084-.538.146-.084.273-.174.386-.27l.004-.003a1.64 1.64 0 0 0 .463-.598c3.252-4.48 3.43-11.707 3.43-11.707H33.02z"/><path fill="#fff" d="M36.422 36.778c2.57 1.483 2.57 3.89 0 5.375-2.572 1.485-6.74 1.485-9.312 0-2.571-1.485-2.571-3.892 0-5.375 2.572-1.485 6.74-1.485 9.312 0z"/><path fill="#1A162C" d="M36.208 37.155c-2.447-1.412-6.428-1.41-8.875 0-1.103.637-1.71 1.457-1.71 2.31 0 .852.607 1.672 1.71 2.31 2.447 1.412 6.428 1.412 8.875 0 1.1-.638 1.709-1.457 1.709-2.31s-.608-1.673-1.71-2.31zm-9.311 5.377c-1.384-.8-2.147-1.888-2.147-3.067 0-1.178.762-2.267 2.147-3.066 2.688-1.552 7.06-1.552 9.748 0 1.384.8 2.147 1.888 2.147 3.066 0 1.179-.763 2.266-2.147 3.067-1.344.776-3.109 1.164-4.875 1.164-1.764 0-3.529-.388-4.873-1.164z"/><path fill="#EF4BA2" d="M34.973 37.613c1.773 1.023 1.773 2.682 0 3.705-1.772 1.023-4.645 1.023-6.418 0-1.771-1.023-1.771-2.682 0-3.705 1.773-1.024 4.646-1.024 6.418 0z"/><path fill="#1A162C" d="M34.756 37.99c-1.648-.95-4.334-.95-5.982 0-.715.415-1.11.938-1.11 1.475 0 .536.395 1.06 1.11 1.474 1.648.952 4.332.952 5.982 0 .715-.413 1.11-.936 1.11-1.474 0-.537-.395-1.06-1.11-1.475zm-6.418 3.706c-.998-.576-1.549-1.368-1.549-2.231 0-.862.55-1.656 1.55-2.23 1.92-1.11 4.932-1.11 6.854 0 .997.576 1.546 1.368 1.546 2.23 0 .863-.549 1.655-1.546 2.231-.962.555-2.195.832-3.428.832s-2.466-.277-3.427-.831z"/><path fill="#1A162C" d="M28.555 37.629c-1.771 1.023-1.771 2.681 0 3.704.721.417 1.626.655 2.562.732.148-1.939.377-3.77.587-5.2-1.141.008-2.277.262-3.149.764zM29.894 52.586l.778-.398c-1.938-3.788-2.523-9.713-2.528-9.773l-.87.084c.024.25.607 6.153 2.62 10.087zM32.818 42.117c.22-1.713.727-5.089.727-5.089l-.865-.13s-.507 3.388-.73 5.106l.868.113z"/><path fill="#EF4BA2" d="M53.037 36.272v-3.246c0-.055-.037-.097-.089-.113l-8.093-2.254c-.009-.002-.02-.007-.028-.01l-13.762-8.06a.126.126 0 0 0-.122 0l-6.96 4.023a.13.13 0 0 1-.091.013l-2.519-.702a.119.119 0 0 0-.154.113c.002.644.008 3.046.015 3.117l.002.021c.045.424.266.83.684 1.073l19.508 11.399a3.65 3.65 0 0 0 3.658.005l7.249-4.19c.452-.261.68-.71.7-1.166l.002-.023z"/><path fill="#1A162C" d="M21.805 26.649c.002.917.007 2.343.012 2.476.018.148.09.438.398.617l19.508 11.399c.946.548 2.122.55 3.07.003l7.25-4.19a.813.813 0 0 0 .408-.683l.002-.021V33.382l-7.927-2.233L31 23.23l-6.724 3.887a.715.715 0 0 1-.542.07l-1.93-.54zM43.261 42.72c-.734 0-1.47-.19-2.127-.57l-19.51-11.4a1.964 1.964 0 0 1-.969-1.514c-.012-.13-.019-2.058-.022-3.198 0-.226.102-.429.28-.563a.714.714 0 0 1 .62-.116l2.327.648 6.79-3.924a.712.712 0 0 1 .71 0l13.71 8.03 8.035 2.237a.696.696 0 0 1 .516.675v3.272l-.007.063a1.963 1.963 0 0 1-.986 1.606l-7.25 4.19a4.236 4.236 0 0 1-2.117.564z"/><path fill="#1A162C" d="M52.95 32.919l-8.094-2.255a.096.096 0 0 1-.028-.012l-1.674-.973v12.46a3.64 3.64 0 0 0 1.933-.484l7.25-4.19c.451-.26.68-.708.7-1.165l.001-.022c.002-.021 0-2.722 0-3.246a.118.118 0 0 0-.088-.113z"/><path fill="#1A162C" d="M43.739 30.694v10.825c.372-.057.731-.18 1.056-.37l7.25-4.189a.816.816 0 0 0 .407-.684c.002-.077.002-1.515.002-2.475v-.413l-7.927-2.234-.788-.46zm-.472 12.03c-.044 0-.087 0-.13-.003l-.569-.016V28.663l2.503 1.454 8.034 2.239c.31.087.518.358.518.675v3.27a2 2 0 0 1-.995 1.672l-7.248 4.189a4.23 4.23 0 0 1-2.113.563zM23.26 27.726s.196-.534.442-1.22l-2.329-.65c-.078-.02-.154.034-.154.115.002.645.008 3.045.015 3.116l.002.023c.045.422.266.828.684 1.073l1.34.776v-3.233z"/><path fill="#1A162C" d="M21.805 26.584c.002.916.007 2.343.012 2.476.018.147.09.439.398.618l.459.267.036-2.423.23-.621-1.135-.317zm2.037 5.392l-2.216-1.287a1.97 1.97 0 0 1-.97-1.518c-.013-.13-.02-2.058-.023-3.198a.7.7 0 0 1 .278-.56.709.709 0 0 1 .618-.119l2.935.818-.212.59c-.184.515-.342.944-.41 1.128v4.146z"/><path fill="#fff" d="M41.491 38.447l-19.57-11.434a1.414 1.414 0 0 1 .003-2.445l7.31-4.226a3.525 3.525 0 0 1 3.537.006L52.339 31.78a1.414 1.414 0 0 1-.003 2.445l-7.31 4.226a3.522 3.522 0 0 1-3.535-.005z"/><path fill="#1A162C" d="M41.783 37.941c.91.528 2.04.532 2.95.004l7.31-4.226a.818.818 0 0 0 .413-.715.819.819 0 0 0-.412-.718l-19.57-11.435a2.944 2.944 0 0 0-2.947-.001l-7.31 4.223a.826.826 0 0 0-.415.718.82.82 0 0 0 .413.717l19.568 11.435v-.002zm1.478 1.567c-.715 0-1.429-.186-2.066-.556v-.002l-19.57-11.433a1.98 1.98 0 0 1-.992-1.728c.002-.72.375-1.367.998-1.728l7.31-4.224a4.12 4.12 0 0 1 4.122.005l19.57 11.435c.622.362.994 1.01.992 1.728 0 .721-.374 1.367-.999 1.727l-7.31 4.225a4.106 4.106 0 0 1-2.055.551z"/><path fill="#fff" d="M35.813 80.847l-7.807-4.415c-.322-.186-.58-.683-.58-1.11V64.04c0-.427.259-.623.58-.438l7.807 4.415c.321.186.58.683.58 1.108v11.283c0 .427-.259.625-.58.439z"/><path fill="#1A162C" d="M28.016 64.28l-.007 11.042c0 .25.175.539.288.603l7.505 4.245.007-11.043c0-.25-.176-.538-.289-.602l-7.504-4.245zm8.09 16.062l-.294.505.297-.504-.003-.001zm-.061 1.16c-.174 0-.351-.05-.523-.148l-7.805-4.413c-.502-.29-.877-.985-.877-1.619V64.04c0-.438.18-.794.493-.974.29-.169.641-.157.964.03l7.803 4.413c.502.29.877.983.877 1.618v11.28c0 .44-.18.796-.493.977a.877.877 0 0 1-.44.118z"/><path fill="#1A162C" d="M33.22 71.216c0 .504-.353.71-.79.457-.437-.253-.791-.866-.791-1.37 0-.505.354-.71.792-.457.436.252.79.865.79 1.37z"/><path fill="#EF4BA2" d="M37.364 46.698a.41.41 0 0 0-.407.45l1.207 6.074c0 .727.71 1.455 2.135 1.806a5.01 5.01 0 0 0 2.4 0c1.422-.35 2.135-1.079 2.135-1.806l1.207-6.074a.41.41 0 0 0-.407-.45h-8.27z"/><path fill="#EF4BA2" d="M45.328 50.194a.41.41 0 0 0-.406.45l1.207 6.074c0 .727.71 1.455 2.135 1.806a5.01 5.01 0 0 0 2.4 0c1.422-.351 2.134-1.079 2.134-1.806l1.207-6.074a.41.41 0 0 0-.406-.45h-8.27z"/><path fill="#1A162C" d="M37.576 47.284l1.172 5.936c0 .412.521.953 1.689 1.242.694.172 1.427.17 2.122 0 1.167-.289 1.688-.83 1.688-1.242l.012-.113 1.159-5.823h-7.842zm3.922 8.475c-.452 0-.902-.056-1.341-.163-1.584-.39-2.541-1.252-2.577-2.312l-1.197-6.021c-.037-.335.055-.615.243-.822a.999.999 0 0 1 .736-.326h8.27a.996.996 0 0 1 .99 1.092l-1.206 6.077c-.037 1.06-.995 1.921-2.58 2.312-.437.108-.888.163-1.338.163z"/><path fill="#1A162C" d="M45.54 50.78l1.173 5.936c0 .411.521.953 1.688 1.242.695.172 1.428.17 2.123 0 1.167-.289 1.688-.83 1.688-1.242l.012-.113 1.159-5.824H45.54zm3.923 8.475c-.452 0-.902-.056-1.341-.163-1.584-.391-2.541-1.252-2.578-2.312l-1.196-6.021c-.037-.336.055-.615.243-.822a.999.999 0 0 1 .736-.326h8.27a.995.995 0 0 1 .99 1.092L53.38 56.78c-.037 1.06-.995 1.92-2.58 2.312-.437.107-.889.163-1.338.163z"/><path fill="#EF4BA2" d="M44.74 44.828c1.79 1.033 1.79 2.71 0 3.742-1.79 1.036-4.695 1.036-6.487 0-1.79-1.033-1.79-2.709.002-3.742 1.79-1.035 4.694-1.035 6.485 0zM52.703 48.324c1.79 1.033 1.79 2.709 0 3.742-1.79 1.035-4.695 1.035-6.487 0-1.79-1.033-1.79-2.709.002-3.742 1.79-1.035 4.694-1.035 6.485 0z"/><path fill="#1A162C" d="M41.496 44.64c-1.076 0-2.152.231-2.95.693-.67.386-1.051.884-1.051 1.367 0 .481.382.98 1.05 1.365 1.6.924 4.304.924 5.902 0 .669-.386 1.051-.884 1.051-1.365 0-.483-.382-.981-1.05-1.367-.8-.462-1.877-.693-2.952-.693zm0 5.296c-1.273 0-2.544-.285-3.536-.858-1.054-.61-1.636-1.454-1.636-2.378 0-.926.582-1.77 1.636-2.38 1.982-1.144 5.087-1.144 7.072 0 1.055.61 1.635 1.454 1.635 2.38 0 .924-.58 1.768-1.635 2.378-.991.571-2.264.858-3.536.858z"/><path fill="#1A162C" d="M49.461 48.136c-1.076 0-2.152.231-2.95.693-.67.386-1.051.884-1.051 1.367 0 .481.382.98 1.05 1.365 1.6.924 4.304.924 5.902 0 .669-.386 1.05-.884 1.05-1.365 0-.483-.381-.981-1.05-1.367-.799-.462-1.876-.693-2.95-.693zm0 5.295c-1.273 0-2.544-.284-3.536-.857-1.054-.61-1.636-1.454-1.636-2.378 0-.926.582-1.77 1.636-2.38 1.982-1.144 5.087-1.144 7.072 0 1.055.61 1.635 1.454 1.635 2.38 0 .924-.58 1.768-1.635 2.378-.991.57-2.264.858-3.536.858z"/><path fill="#EF4BA2" d="M38.305 19.56l-11.352-.173 1.476 6.706s.534 1.016 1.221 1.414c1.699.98 4.452.98 6.15 0 .688-.398 1.221-1.414 1.221-1.414l1.284-6.534z"/><path fill="#1A162C" d="M28.983 25.886c.158.282.554.88.96 1.114 1.506.87 4.055.872 5.563 0 .403-.231.802-.834.959-1.108l1.13-5.76-9.912-.149 1.3 5.903zm3.742 2.944c-1.212 0-2.424-.272-3.367-.818-.811-.469-1.384-1.528-1.447-1.648l-.052-.146-1.634-7.426 12.788.192-1.475 7.382c-.063.118-.636 1.177-1.447 1.646-.944.546-2.155.818-3.366.818z"/><path fill="#fff" d="M39.453 17.327l.009-3.504a.201.201 0 0 0-.2-.202h-4.929a11.56 11.56 0 0 0-3.211 0H26.2a.2.2 0 0 0-.2.202l.002 3.504c-.037 1.39 1.196 2.788 3.74 3.554a10.42 10.42 0 0 0 5.968 0c2.547-.764 3.778-2.164 3.743-3.554z"/><path fill="#1A162C" d="M26.585 14.205l.002 3.12c-.03 1.229 1.243 2.371 3.326 2.997a9.884 9.884 0 0 0 5.632 0c2.082-.626 3.355-1.768 3.326-2.98l-.002-.018.009-3.12h-4.544a11.447 11.447 0 0 0-3.13-.005l-4.62.006zm6.143 7.694a10.91 10.91 0 0 1-3.152-.459c-2.649-.795-4.203-2.34-4.157-4.128l-.003-3.49c0-.434.353-.784.785-.784h4.922a11.817 11.817 0 0 1 3.293.005l4.847-.005c.433 0 .785.35.785.785l-.008 3.497c.038 1.786-1.515 3.326-4.158 4.12a10.93 10.93 0 0 1-3.154.459z"/><path fill="#EF4BA2" d="M37.487 10.747c2.631 1.518 2.631 3.979 0 5.498-2.63 1.518-6.893 1.518-9.525 0-2.63-1.52-2.63-3.98 0-5.498 2.632-1.52 6.895-1.52 9.525 0z"/><path fill="#1A162C" d="M32.727 10.186c-1.62 0-3.24.354-4.47 1.066-1.086.625-1.682 1.423-1.682 2.242 0 .822.596 1.619 1.681 2.246 2.463 1.423 6.475 1.423 8.94 0 1.085-.627 1.68-1.424 1.68-2.246 0-.82-.595-1.617-1.68-2.242-1.232-.712-2.85-1.066-4.47-1.066zm0 7.793c-1.82 0-3.639-.41-5.056-1.228-1.46-.844-2.265-2-2.265-3.257 0-1.255.804-2.41 2.265-3.254 2.835-1.635 7.274-1.636 10.11 0 1.46.844 2.265 1.999 2.265 3.254 0 1.258-.804 2.413-2.265 3.257-1.417.818-3.237 1.228-5.054 1.228z"/><path fill="#1A162C" d="M37.503 13.953c-2.63-1.52-6.895-1.52-9.525 0-.563.325-.998.695-1.32 1.085.328.438.796.85 1.416 1.207 2.63 1.518 6.893 1.518 9.524 0 .563-.324.997-.694 1.319-1.087-.327-.438-.796-.847-1.414-1.205z"/><path fill="#1A162C" d="M27.444 15.054c.252.248.56.478.919.686 2.465 1.423 6.475 1.423 8.94 0 .314-.18.588-.382.824-.597a4.494 4.494 0 0 0-.92-.685c-2.465-1.422-6.473-1.422-8.94 0-.314.18-.588.38-.823.596zm5.39 2.925c-1.82 0-3.637-.41-5.056-1.228-.667-.386-1.202-.843-1.59-1.362l-.274-.366.29-.353c.379-.463.875-.875 1.48-1.224 2.832-1.635 7.274-1.636 10.108 0 .667.385 1.203.844 1.59 1.361l.275.367-.29.354c-.382.466-.88.877-1.48 1.223-1.417.818-3.235 1.228-5.054 1.228zM50.039 136.167l-1.117.645c-.115.066-.314.057-.446-.019l-1.055-.608c-.132-.077-.145-.191-.03-.257l1.116-.646c.114-.066.314-.058.446.019l1.053.608c.133.076.147.192.033.258zM52.79 137.755l-1.116.644c-.115.066-.316.059-.448-.017l-1.053-.608c-.132-.077-.146-.193-.03-.259l1.116-.644c.114-.066.314-.058.446.019l1.053.608c.132.076.147.191.033.257zM50.052 139.335l-1.116.646c-.115.066-.315.058-.449-.019l-1.052-.608c-.132-.076-.146-.191-.031-.257l1.117-.646c.114-.066.314-.057.446.019l1.052.608c.134.077.148.191.033.257zM55.39 139.255l-1.117.646c-.115.066-.315.058-.447-.019l-1.052-.608c-.132-.076-.148-.192-.033-.258l1.117-.645c.114-.066.316-.057.448.019l1.052.608c.132.077.146.191.032.257zM52.651 140.838l-1.119.644c-.114.066-.314.057-.446-.019l-1.052-.608c-.132-.077-.148-.191-.033-.257l1.118-.646c.115-.066.315-.058.447.019l1.052.608c.132.076.148.191.033.259zM57.988 140.756l-1.117.646c-.114.066-.314.057-.446-.019l-1.054-.608c-.132-.076-.146-.193-.032-.259l1.117-.644c.115-.066.314-.057.447.019l1.054.608c.132.076.146.191.031.257zM55.25 142.338l-1.117.644c-.115.066-.315.058-.447-.019l-1.052-.607c-.134-.077-.148-.192-.033-.258l1.117-.646c.114-.066.314-.057.448.019l1.052.608c.132.077.146.193.031.259zM45.476 124.409l-1.117.646c-.114.066-.314.058-.448-.019l-1.052-.608c-.132-.076-.146-.191-.031-.257l1.116-.646c.115-.066.315-.057.447.019l1.052.608c.134.077.148.191.033.257zM48.075 125.912l-1.119.644c-.114.066-.314.057-.446-.019l-1.052-.608c-.133-.076-.148-.191-.033-.257l1.118-.646c.115-.066.314-.057.446.019l1.053.608c.132.076.146.193.033.259zM45.336 127.492l-1.119.644c-.113.066-.314.059-.446-.017l-1.053-.608c-.132-.076-.146-.193-.031-.259l1.117-.644c.114-.066.314-.059.446.017l1.053.608c.132.077.147.193.033.259zM47.934 128.993l-1.116.644c-.115.066-.315.059-.447-.017l-1.052-.608c-.132-.077-.148-.193-.033-.259l1.117-.644c.114-.066.314-.058.448.019l1.052.608c.132.076.146.191.032.257zM60.738 142.345l-1.117.644c-.114.066-.314.058-.448-.019l-1.052-.608c-.132-.076-.146-.191-.032-.257l1.117-.646c.115-.066.314-.057.447.019l1.052.608c.134.077.148.193.033.259zM58 143.926l-1.117.644c-.115.066-.315.059-.447-.017l-1.054-.608c-.132-.077-.146-.193-.03-.259l1.116-.644c.114-.066.314-.058.446.019l1.054.608c.132.076.146.191.032.257zM63.478 140.763l-1.117.646c-.114.066-.316.057-.448-.019l-1.052-.608c-.132-.076-.146-.193-.031-.259l1.116-.644c.115-.066.315-.057.447.019l1.052.608c.132.076.148.191.033.257zM66.219 139.182l-1.119.645c-.114.066-.314.059-.446-.018l-1.053-.608c-.132-.076-.145-.192-.033-.258l1.119-.645c.115-.066.314-.059.446.018l1.053.608c.132.076.147.192.033.258zM68.954 137.6l-1.117.646c-.114.066-.314.058-.446-.019l-1.053-.608c-.132-.076-.147-.191-.033-.257l1.119-.646c.113-.066.314-.057.446.019l1.053.608c.132.077.146.191.031.257zM71.693 136.02l-1.117.644c-.114.066-.314.059-.446-.017l-1.053-.608c-.133-.077-.147-.193-.033-.259l1.117-.644c.115-.066.314-.058.448.019l1.053.608c.132.076.145.191.03.257zM63.339 143.846l-1.119.644c-.115.066-.314.057-.446-.019l-1.053-.608c-.132-.076-.147-.191-.033-.257l1.119-.644c.114-.068.314-.059.446.017l1.053.608c.132.076.145.193.033.259zM66.077 142.263l-1.117.646c-.114.066-.314.058-.446-.019l-1.053-.607c-.132-.077-.147-.192-.033-.258l1.117-.646c.115-.066.316-.057.448.019l1.053.608c.132.077.146.191.031.257zM68.816 140.683l-1.117.644c-.114.066-.314.059-.446-.017l-1.053-.608c-.133-.076-.147-.193-.033-.259l1.117-.644c.115-.066.314-.059.448.017l1.053.608c.132.077.145.193.03.259zM71.552 139.102l-1.116.645c-.115.066-.315.057-.447-.019l-1.054-.608c-.132-.077-.146-.191-.031-.257l1.117-.646c.114-.066.314-.058.446.019l1.054.608c.132.076.146.191.031.258zM73.76 127.053l-1.117.644c-.115.066-.316.057-.448-.019l-1.053-.608c-.132-.076-.146-.191-.031-.257l1.117-.646c.114-.066.314-.057.446.019l1.052.608c.132.076.148.191.033.259zM76.498 125.47l-1.119.645c-.114.068-.314.059-.446-.018l-1.052-.607c-.132-.077-.146-.193-.033-.259l1.118-.645c.115-.066.315-.057.447.019l1.052.608c.132.077.148.191.033.257zM79.235 123.89l-1.117.644c-.114.066-.314.058-.446-.019l-1.052-.608c-.132-.076-.148-.191-.033-.257l1.118-.644c.113-.068.314-.059.447.017l1.052.608c.132.077.146.193.031.259zM81.974 122.308l-1.117.646c-.114.066-.314.057-.446-.019l-1.052-.608c-.134-.077-.148-.191-.033-.259l1.116-.644c.115-.066.315-.058.448.019l1.053.608c.132.076.146.191.031.257zM73.62 130.134l-1.119.644c-.114.066-.314.059-.446-.017l-1.053-.608c-.131-.077-.147-.193-.032-.259l1.118-.644c.115-.066.314-.058.446.017l1.053.61c.132.074.146.191.033.257zM76.358 128.553l-1.116.645c-.115.066-.315.057-.447-.02l-1.052-.607c-.132-.077-.148-.191-.033-.257l1.116-.647c.115-.066.317-.057.449.02l1.052.607c.132.077.146.193.031.259zM79.095 126.971l-1.117.646c-.114.066-.314.057-.446-.019l-1.052-.608c-.134-.076-.148-.193-.033-.259l1.116-.644c.115-.066.315-.057.448.019l1.053.608c.132.076.146.191.031.257zM81.836 125.391l-1.117.644c-.115.066-.314.057-.447-.017l-1.054-.608c-.132-.077-.146-.193-.031-.259l1.117-.644a.494.494 0 0 1 .446.017l1.054.608c.132.076.146.193.032.259zM84.78 120.748l-1.119.646c-.114.066-.314.058-.446-.019l-1.052-.608c-.132-.076-.148-.191-.033-.259l1.118-.644c.115-.066.314-.057.446.019l1.053.608c.132.077.146.191.033.257zM84.64 123.831l-1.117.644c-.114.066-.314.058-.446-.019l-1.052-.608c-.134-.074-.148-.191-.034-.257l1.117-.644c.115-.066.315-.059.448.017l1.053.608c.132.077.146.193.031.259zM88.904 105.258l-1.117.646c-.114.066-.314.057-.446-.019l-1.054-.608c-.132-.077-.146-.191-.032-.257l1.117-.646c.115-.066.314-.058.447.019l1.054.608c.132.076.146.191.031.257zM91.64 103.677l-1.116.645c-.115.066-.315.059-.447-.018l-1.054-.608c-.132-.076-.146-.192-.031-.258l1.117-.645c.114-.066.314-.057.446.018l1.054.607c.132.077.146.193.031.259zM94.38 102.097l-1.116.644c-.115.066-.315.057-.448-.019l-1.053-.608c-.132-.076-.146-.191-.031-.257l1.117-.646c.114-.066.314-.057.446.019l1.052.608c.133.076.148.193.034.259zM97.119 100.515l-1.119.646c-.113.066-.314.057-.446-.02l-1.053-.607c-.132-.077-.145-.193-.03-.259l1.116-.645c.115-.066.314-.057.446.02l1.053.607c.132.077.147.192.033.258zM88.763 108.34l-1.117.645c-.114.066-.314.059-.448-.018l-1.052-.607c-.132-.077-.146-.193-.031-.259l1.117-.645c.114-.066.314-.059.446.018l1.052.608c.134.076.148.192.033.258zM91.504 106.76l-1.117.644c-.115.066-.316.058-.448-.019l-1.053-.608c-.132-.076-.146-.191-.031-.257l1.117-.646c.114-.066.314-.057.446.019l1.053.608c.132.077.147.191.033.259zM94.242 105.178l-1.118.644c-.113.068-.315.059-.447-.017l-1.052-.608c-.132-.076-.146-.193-.033-.259l1.118-.644c.115-.066.315-.058.447.019l1.052.608c.132.076.148.191.033.257zM96.977 103.597l-1.116.645c-.115.066-.315.057-.447-.019l-1.052-.608c-.132-.077-.148-.191-.033-.257l1.118-.645c.113-.067.315-.059.447.018l1.052.608c.132.076.146.192.031.258zM99.921 98.955l-1.116.646c-.115.066-.315.057-.448-.02l-1.053-.607c-.132-.076-.146-.193-.031-.259l1.117-.644c.114-.066.314-.058.446.019l1.052.608c.134.076.148.19.033.257zM99.785 102.038l-1.119.644c-.112.066-.314.057-.446-.019l-1.052-.608c-.133-.076-.146-.191-.032-.257l1.117-.646c.115-.066.314-.057.446.019l1.053.608c.132.076.148.193.033.259z"/><path fill="#fff" d="M97.87 96.018l-27.282 15.685-17.106-9.768L80.8 86.163l17.07 9.855z"/><path fill="#1A162C" d="M54.657 101.934l15.93 9.097 26.112-15.013-15.898-9.179-26.144 15.095zm15.931 10.443l-18.277-10.438 28.49-16.45 18.238 10.53-28.45 16.358z"/><path fill="#EF4BA2" d="M84.424 116.09l.003-45.122a.115.115 0 0 0-.088-.113L62.342 76.55c-.01-.002-.019-.007-.03-.013L68.59 64.19a.121.121 0 0 0-.123 0L47.612 76.2a.118.118 0 0 1-.093.012l-2.534-.706a.119.119 0 0 0-.155.115c.002.648.004 44.92.01 44.993l.004.021c.043.426.266.834.688 1.081l13.357 7.746a3.67 3.67 0 0 0 3.68.005l21.148-12.18c.455-.263.686-.714.703-1.174l.004-.023z"/><path fill="#1A162C" d="M45.415 76.233c.002 1.526.002 5.738.002 10.992.002 13.161.005 33.051.008 33.377a.825.825 0 0 0 .402.608l13.357 7.746c.954.554 2.14.556 3.095.004l21.147-12.18c.25-.143.4-.395.412-.69h.002l.005-44.503-21.498 5.566-.332-.115-.467-.281 5.681-11.18-19.323 11.13a.716.716 0 0 1-.542.067l-1.95-.541zm15.32 54.309c-.74 0-1.48-.191-2.138-.575l-13.357-7.746a1.98 1.98 0 0 1-.977-1.525c-.008-.08-.01-.102-.015-33.471 0-6.492-.002-11.39-.002-11.602 0-.224.1-.427.278-.561a.71.71 0 0 1 .617-.12l2.35.655 20.685-11.914a.712.712 0 0 1 .708.001l.478.278-5.95 11.708 20.933-5.42.15.041c.305.085.519.363.519.677L85 116.201c-.023.629-.394 1.247-.99 1.591l-21.147 12.18a4.233 4.233 0 0 1-2.128.57z"/><path fill="#1A162C" d="M84.34 70.86l-21.997 5.694c-.01-.002-.02-.007-.03-.012L60.63 81.45l-.004 48.507c.67.02 1.344-.138 1.945-.485l21.147-12.18c.455-.262.686-.714.704-1.174l.003-.023.004-45.121a.115.115 0 0 0-.089-.113z"/><path fill="#1A162C" d="M61.213 81.547l-.003 47.791a2.98 2.98 0 0 0 1.068-.373l21.147-12.18c.25-.143.4-.394.412-.69l.007-44.503-21.087 5.459-1.544 4.496zm-.476 48.997l-.13-.002-.568-.017.036-49.266 1.92-5.59.432.26 21.917-5.675.15.042c.305.085.518.363.518.677l-.014 45.233c-.022.629-.394 1.247-.99 1.591l-21.147 12.18a4.229 4.229 0 0 1-2.124.567zM46.883 77.322s.198-.537.445-1.228l-2.343-.653a.119.119 0 0 0-.155.114c.002.648.004 44.92.01 44.993l.004.021c.043.426.266.836.688 1.081l1.346.783.005-41.857v-3.254z"/><path fill="#1A162C" d="M45.415 76.166c.002 1.527.002 5.739.002 10.994.002 13.162.005 33.051.008 33.376a.824.824 0 0 0 .402.608l.469.273.003-44.2.037-.099c0-.001.093-.251.23-.63l-1.151-.322zm2.048 47.281l-2.223-1.292a1.98 1.98 0 0 1-.977-1.523c-.008-.08-.01-.103-.015-33.472 0-6.492-.002-11.391-.002-11.603a.705.705 0 0 1 .898-.68l2.946.822-.21.59c-.186.518-.343.95-.412 1.137l-.005 46.021z"/><path fill="#fff" d="M58.955 84.387l-13.42-7.783a1.423 1.423 0 0 1 .003-2.46l21.21-12.216a3.543 3.543 0 0 1 3.556.004l13.42 7.782c.944.55.942 1.914-.003 2.461L62.511 84.39a3.543 3.543 0 0 1-3.556-.003z"/><path fill="#1A162C" d="M68.525 62.038c-.514 0-1.027.132-1.484.396L45.831 74.65a.824.824 0 0 0-.416.723.827.827 0 0 0 .417.726L59.25 83.88a2.973 2.973 0 0 0 2.972.004l21.21-12.217c.26-.15.416-.42.416-.724a.83.83 0 0 0-.416-.724l-13.419-7.781a2.956 2.956 0 0 0-1.488-.401zM60.74 85.45a4.137 4.137 0 0 1-2.077-.558L45.245 77.11a1.985 1.985 0 0 1-.999-1.737c0-.724.375-1.374 1.002-1.737l21.21-12.215a4.143 4.143 0 0 1 4.142.005L84.02 69.21c.626.365 1 1.013.998 1.737 0 .724-.375 1.374-1.002 1.735l-21.21 12.216a4.127 4.127 0 0 1-2.065.553z"/><path fill="#EF4BA2" d="M84.429 62.526c.002-.02 0-2.737 0-3.265a.115.115 0 0 0-.089-.113L62.344 64.84a.1.1 0 0 1-.03-.01l6.277-12.35a.121.121 0 0 0-.123 0l-20.854 12.01a.118.118 0 0 1-.094.013l-2.534-.705a.12.12 0 0 0-.156.114c.004.648.01 3.066.016 3.137l.003.023c.045.424.268.833.688 1.078l13.358 7.746a3.671 3.671 0 0 0 3.682.005l21.147-12.18c.453-.262.684-.713.703-1.172l.002-.024z"/><path fill="#1A162C" d="M45.419 64.525c.003.92.007 2.355.014 2.494.015.153.09.446.399.627l13.358 7.746c.955.556 2.14.556 3.095.005l21.148-12.18a.82.82 0 0 0 .41-.691h.004v-2.647l-21.498 5.566-.332-.114-.467-.28L67.23 53.87 47.907 64.999a.708.708 0 0 1-.541.068l-1.947-.542zm15.323 12.453c-.741 0-1.48-.191-2.14-.575l-13.355-7.746a1.971 1.971 0 0 1-.976-1.525c-.007-.066-.014-.13-.023-3.217 0-.224.1-.427.278-.56a.705.705 0 0 1 .616-.12l2.35.654 20.685-11.914a.716.716 0 0 1 .71.002l.477.277-5.95 11.708 20.933-5.419.15.04c.305.085.519.363.519.678l-.01 3.378c-.023.627-.393 1.247-.989 1.589L62.868 76.41a4.249 4.249 0 0 1-2.126.568z"/><path fill="#1A162C" d="M84.34 59.153l-21.997 5.695a.218.218 0 0 1-.03-.012l-1.684 4.906v6.652c.67.02 1.346-.139 1.947-.486l21.147-12.18c.453-.263.684-.714.703-1.173l.002-.022c.002-.021 0-2.74 0-3.267a.115.115 0 0 0-.088-.113z"/><path fill="#1A162C" d="M61.216 69.84v5.936c.377-.058.74-.184 1.068-.374l21.149-12.18a.82.82 0 0 0 .41-.691l.003-2.647-21.086 5.459-1.544 4.496zm-.47 7.14c-.044 0-.088 0-.133-.002l-.566-.018.031-7.407 1.92-5.59.432.258 21.916-5.673.15.04c.305.086.519.364.519.678l-.01 3.378c-.023.627-.393 1.247-.989 1.59l-21.149 12.18c-.64.37-1.372.565-2.122.565zM46.885 65.614s.198-.537.444-1.228l-2.343-.653c-.078-.021-.156.035-.156.114.004.648.01 3.066.016 3.137l.003.023c.045.425.268.833.688 1.078l1.348.784v-3.255z"/><path fill="#1A162C" d="M45.419 64.459c.003.92.007 2.355.014 2.494.015.153.09.446.4.629l.468.27.036-2.441c0-.002.094-.252.231-.63l-1.15-.322zm2.05 5.426l-2.224-1.294a1.974 1.974 0 0 1-.974-1.525c-.007-.066-.014-.129-.023-3.217a.705.705 0 0 1 .898-.679l2.946.822-.21.59c-.186.518-.344.95-.412 1.136v4.167z"/><path fill="#fff" d="M58.956 72.679l-13.42-7.782a1.423 1.423 0 0 1 .004-2.462l21.21-12.214a3.539 3.539 0 0 1 3.556.005l13.42 7.78c.944.551.942 1.915-.003 2.462l-21.21 12.215a3.543 3.543 0 0 1-3.556-.004z"/><path fill="#1A162C" d="M68.527 50.33c-.514 0-1.027.132-1.484.396l-21.21 12.217a.825.825 0 0 0-.416.722.825.825 0 0 0 .417.726l13.418 7.783a2.973 2.973 0 0 0 2.972.003l21.21-12.215a.83.83 0 0 0 .416-.724.83.83 0 0 0-.416-.726l-13.419-7.78a2.956 2.956 0 0 0-1.488-.402zm-7.785 23.412a4.137 4.137 0 0 1-2.077-.558l-13.418-7.782a1.985 1.985 0 0 1-.999-1.737c0-.724.375-1.374 1.002-1.735l21.21-12.216a4.138 4.138 0 0 1 4.142.006l13.418 7.781c.627.365 1 1.015 1 1.739 0 .722-.376 1.372-1.003 1.733L62.807 73.19a4.127 4.127 0 0 1-2.065.552z"/><path fill="#EF4BA2" d="M62.153 98.31l-.448-.778 20.612-11.928.45.778L62.153 98.31zM62.153 109.881l-.448-.778 20.612-11.926.45.776-20.614 11.928zM62.153 121.452l-.448-.779 20.612-11.926.45.778-20.614 11.927zM70.888 88.56h-.9v-.436c0-.976.664-2.125 1.51-2.614l2.669-1.54c.481-.278.974-.311 1.358-.09.38.22.6.665.6 1.22v.437h-.898V85.1c0-.22-.06-.388-.152-.442-.095-.055-.27-.02-.46.089l-2.668 1.542c-.575.33-1.059 1.17-1.059 1.834v.436zM70.888 99.856h-.9v-.436c0-.978.664-2.126 1.51-2.614l2.669-1.54c.481-.278.974-.31 1.358-.09.38.22.6.665.6 1.22v.436h-.898v-.435c0-.22-.06-.39-.152-.443-.095-.054-.27-.02-.46.09l-2.668 1.542c-.575.33-1.059 1.17-1.059 1.834v.436zM70.751 111.68h-.9v-.436c0-.977.664-2.125 1.51-2.613l2.67-1.543c.48-.278.977-.309 1.357-.088.383.22.601.665.601 1.221v.436h-.9v-.436c0-.219-.057-.389-.15-.443-.094-.054-.27-.018-.459.09l-2.67 1.541c-.574.331-1.059 1.172-1.059 1.835v.436z"/><path fill="#fff" d="M46.08 58.47l13.27 7.644 13.199-7.447-13.143-7.746-13.326 7.55z"/><path fill="#1A162C" d="M47.26 58.476l12.092 6.966 12.028-6.787-11.979-7.06-12.142 6.88zm12.087 8.31l-14.445-8.32 14.511-8.221 14.306 8.432-14.372 8.11z"/><path fill="#fff" d="M60.635 58.49l7.77 4.475 7.729-4.36-7.696-4.537-7.803 4.422z"/><path fill="#1A162C" d="M61.814 58.495l6.594 3.798 6.559-3.7-6.534-3.85-6.62 3.752zm6.59 5.142l-8.947-5.151 8.99-5.092 8.859 5.22-8.903 5.023z"/><path fill="#EF4BA2" d="M69.012 126.084l-18.945.029a.389.389 0 0 0-.39.389v4.787l.013 1.059c.042.579.474 1.178 1.294 1.65l5.702 3.293c1.578.91 3.967 1.009 5.333.221l6.468-3.734c.657-.379.948-.895.91-1.43h.005v-5.874a.39.39 0 0 0-.39-.39z"/><path fill="#1A162C" d="M50.26 126.697l.013 5.644c.028.368.392.801 1 1.152l5.702 3.291c1.391.804 3.567.905 4.75.222l6.466-3.734c.3-.174.652-.467.62-.882l-.045-.625h.049v-5.096l-18.554.028zm9.435 11.933c-1.146 0-2.348-.281-3.303-.834l-5.702-3.291c-.962-.556-1.525-1.306-1.584-2.113l-.014-1.098v-4.792c0-.537.436-.973.972-.973l18.945-.029h.002c.259 0 .504.101.688.285a.966.966 0 0 1 .286.689v6.459h-.07c-.15.534-.543 1.008-1.139 1.352l-6.467 3.732c-.712.412-1.643.613-2.614.613z"/><path fill="#1A162C" d="M69.01 126.101l-8.719.014v11.912c.646-.062 1.25-.224 1.726-.498l6.468-3.734c.657-.379.948-.895.91-1.43h.005v-5.873a.391.391 0 0 0-.39-.391z"/><path fill="#fff" d="M68.487 127.542l-6.467 3.735c-1.367.788-3.755.689-5.334-.221l-5.702-3.293c-1.579-.91-1.75-2.289-.384-3.079l6.468-3.734c1.367-.789 3.755-.69 5.334.222l5.702 3.291c1.578.912 1.75 2.291.383 3.079z"/><path fill="#1A162C" d="M59.375 121.003c-.764 0-1.49.148-2.016.454l-6.468 3.734c-.288.165-.632.444-.632.83 0 .408.38.87 1.014 1.237l5.702 3.291c1.391.804 3.567.905 4.75.222l6.466-3.734c.289-.167.632-.446.632-.832 0-.408-.378-.87-1.014-1.236l-5.702-3.292c-.77-.444-1.782-.674-2.732-.674zm.32 11.392c-1.146 0-2.348-.281-3.303-.834l-5.702-3.291c-1.016-.587-1.598-1.407-1.598-2.249 0-.736.43-1.391 1.214-1.843l6.468-3.734c1.552-.896 4.152-.799 5.919.221l5.701 3.291c1.016.587 1.598 1.407 1.598 2.249 0 .737-.432 1.391-1.216 1.843l-6.467 3.734c-.712.412-1.643.613-2.614.613z"/><path fill="#EF4BA2" d="M67.766 132.831h-1.168v-3.046h1.168v3.046z"/><path fill="#1A162C" d="M58.172 137.692h-1.17v-3.38h1.17v3.38zM64.928 129.931l-11.365-6.625.588-1.009 11.364 6.623-.587 1.011zM69.161 52.206c.215-.101 5.278-2.503 5.2-5.829-.035-1.455-.827-2.042-1.294-2.261-.828-.39-1.931-.243-2.682.352-.61.485-.875 1.167-.726 1.874l1.141-.241c-.07-.335.129-.577.31-.72.404-.319 1.03-.41 1.46-.211.499.234.615.8.626 1.233.05 2.136-3.252 4.151-4.53 4.747l.495 1.056z"/><path fill="#EF4BA2" d="M67.533 54.646c3.111-4.286 3.41-11.09 3.429-11.668.002-.024-.017-.04-.042-.04H57.84c-.025 0-.044.016-.042.04.02.579.318 7.382 3.428 11.668.09.21.245.413.464.6 0 .001.002.001.002.003 0 0 .241.184.386.269 1.27.733 3.332.733 4.604 0 .145-.085.272-.175.385-.27 0 0 .004-.001.004-.003.219-.186.373-.389.463-.599z"/><path fill="#1A162C" d="M58.256 43.376c.1 1.593.65 7.33 3.37 11.096.067.153.183.303.332.431.004.002.212.163.337.236 1.13.651 3.038.651 4.169 0 .121-.071.227-.146.323-.227.161-.137.278-.285.347-.441l.045-.082c2.696-3.715 3.229-9.37 3.328-11.013H58.256zm3.602 12.519a5.057 5.057 0 0 1-.452-.316c-.266-.226-.462-.482-.535-.676-3.171-4.371-3.486-11.152-3.512-11.904l.002-.214.29-.283h13.27l.494.039-.015.453c-.028.759-.353 7.522-3.486 11.873-.124.26-.311.5-.566.717-.132.11-.278.213-.448.313-.707.408-1.612.61-2.52.61-.907 0-1.815-.202-2.522-.612z"/><path fill="#1A162C" d="M65.63 42.945s.774 7.943-1.034 13.117c.759-.03 1.504-.204 2.084-.539.146-.083.273-.174.385-.27 0 0 .004 0 .004-.003.219-.184.373-.387.464-.597 3.25-4.48 3.43-11.708 3.43-11.708H65.63z"/><path fill="#fff" d="M69.033 40.252c2.57 1.483 2.57 3.89 0 5.375-2.572 1.485-6.74 1.485-9.312 0-2.57-1.485-2.57-3.892 0-5.376 2.572-1.484 6.74-1.484 9.312 0z"/><path fill="#1A162C" d="M68.817 40.628c-2.447-1.412-6.428-1.41-8.875 0-1.103.638-1.709 1.458-1.709 2.31 0 .853.606 1.673 1.709 2.31 2.447 1.412 6.428 1.412 8.875 0 1.101-.637 1.709-1.457 1.709-2.31 0-.852-.608-1.672-1.709-2.31zm-9.31 5.377c-1.385-.8-2.148-1.887-2.148-3.067 0-1.177.763-2.266 2.147-3.065 2.689-1.553 7.06-1.553 9.749 0 1.384.799 2.146 1.888 2.146 3.065 0 1.18-.762 2.267-2.146 3.067-1.345.777-3.11 1.164-4.876 1.164-1.764 0-3.529-.387-4.873-1.163z"/><path fill="#EF4BA2" d="M67.584 41.087c1.773 1.023 1.773 2.681 0 3.704-1.772 1.024-4.644 1.024-6.418 0-1.771-1.022-1.771-2.681 0-3.704 1.774-1.025 4.647-1.025 6.418 0z"/><path fill="#1A162C" d="M67.367 41.464c-1.648-.95-4.333-.95-5.981 0-.716.415-1.11.938-1.11 1.474 0 .537.394 1.061 1.11 1.475 1.648.952 4.331.952 5.981 0 .716-.413 1.11-.936 1.11-1.475 0-.536-.394-1.06-1.11-1.474zM60.95 45.17c-1-.577-1.55-1.369-1.55-2.232 0-.861.55-1.655 1.55-2.23 1.92-1.11 4.932-1.11 6.855 0 .997.577 1.545 1.369 1.545 2.23 0 .863-.548 1.655-1.545 2.232-.962.554-2.196.832-3.429.832-1.233 0-2.466-.278-3.426-.832z"/><path fill="#1A162C" d="M61.166 41.102c-1.771 1.024-1.771 2.682 0 3.705.721.417 1.626.655 2.562.731.148-1.938.377-3.769.587-5.2-1.14.009-2.277.263-3.148.764zM62.506 56.06l.778-.398c-1.938-3.788-2.524-9.714-2.53-9.773l-.87.083c.025.25.609 6.154 2.622 10.088zM65.429 45.59c.22-1.712.728-5.088.728-5.088l-.865-.13s-.507 3.388-.731 5.105l.868.113z"/><path fill="#EF4BA2" d="M54.446 60.615a.41.41 0 0 0-.407.45l1.207 6.073c0 .728.71 1.456 2.135 1.806a5.01 5.01 0 0 0 2.4 0c1.422-.35 2.135-1.078 2.135-1.806l1.207-6.073a.41.41 0 0 0-.407-.45h-8.27z"/><path fill="#1A162C" d="M54.658 61.2l1.172 5.937c0 .411.521.953 1.689 1.241.694.172 1.427.17 2.122 0 1.167-.288 1.688-.83 1.688-1.241l.012-.113L62.5 61.2h-7.842zm3.922 8.476c-.452 0-.902-.056-1.341-.163-1.584-.391-2.541-1.253-2.577-2.312l-1.197-6.022c-.037-.335.055-.614.243-.821a.999.999 0 0 1 .736-.327h8.27a.996.996 0 0 1 .99 1.093L62.497 67.2c-.037 1.06-.995 1.92-2.58 2.312-.437.107-.888.163-1.338.163z"/><path fill="#EF4BA2" d="M61.822 58.744c1.79 1.034 1.79 2.71 0 3.743-1.79 1.035-4.695 1.035-6.487 0-1.79-1.033-1.79-2.71.002-3.743 1.79-1.035 4.694-1.035 6.485 0zM48.918 26.072L37.566 25.9l1.477 6.706s.533 1.016 1.22 1.414c1.7.98 4.452.98 6.15 0 .688-.398 1.222-1.414 1.222-1.414l1.283-6.534z"/><path fill="#1A162C" d="M58.578 58.557c-1.076 0-2.152.23-2.95.693-.67.385-1.051.884-1.051 1.367 0 .48.382.98 1.05 1.365 1.6.924 4.304.924 5.902 0 .669-.386 1.051-.884 1.051-1.365 0-.483-.382-.982-1.05-1.367-.8-.462-1.877-.693-2.952-.693zm0 5.295c-1.273 0-2.544-.285-3.536-.858-1.054-.61-1.636-1.453-1.636-2.377 0-.926.582-1.77 1.636-2.38 1.982-1.144 5.087-1.144 7.072 0 1.055.61 1.635 1.454 1.635 2.38 0 .924-.58 1.768-1.635 2.377-.991.572-2.264.858-3.535.858zM39.598 32.4c.158.28.554.878.96 1.113 1.506.87 4.056.872 5.563 0 .403-.231.803-.834.959-1.108l1.13-5.76-9.911-.149 1.299 5.903zm3.743 2.943c-1.213 0-2.425-.273-3.368-.818-.811-.469-1.384-1.528-1.447-1.648l-.052-.146-1.634-7.426 12.788.192-1.475 7.382c-.062.118-.635 1.177-1.447 1.646-.944.546-2.155.818-3.365.818z"/><path fill="#fff" d="M50.068 23.84l.01-3.504a.201.201 0 0 0-.2-.202h-4.93a11.567 11.567 0 0 0-3.21 0h-4.923a.2.2 0 0 0-.2.202l.002 3.504c-.036 1.39 1.197 2.788 3.741 3.554a10.42 10.42 0 0 0 5.968 0c2.546-.764 3.777-2.164 3.742-3.554z"/><path fill="#1A162C" d="M37.198 20.718l.002 3.12c-.03 1.229 1.243 2.371 3.326 2.997a9.884 9.884 0 0 0 5.632 0c2.083-.626 3.356-1.768 3.326-2.98l-.002-.018.01-3.12h-4.544a11.45 11.45 0 0 0-3.13-.005l-4.62.006zm6.143 7.694a10.91 10.91 0 0 1-3.152-.459c-2.649-.795-4.203-2.34-4.156-4.128l-.004-3.49c0-.434.353-.785.785-.785h4.922a11.817 11.817 0 0 1 3.293.006l4.848-.006c.432 0 .785.351.785.786l-.009 3.498c.038 1.785-1.514 3.325-4.158 4.12a10.93 10.93 0 0 1-3.154.458z"/><path fill="#EF4BA2" d="M48.102 17.26c2.631 1.518 2.631 3.979 0 5.498-2.63 1.518-6.893 1.518-9.524 0-2.63-1.52-2.63-3.98 0-5.498 2.63-1.52 6.895-1.52 9.524 0z"/><path fill="#1A162C" d="M43.34 16.699c-1.62 0-3.239.354-4.47 1.066-1.086.625-1.682 1.422-1.682 2.242 0 .822.596 1.619 1.682 2.246 2.462 1.422 6.474 1.422 8.939 0 1.085-.627 1.681-1.424 1.681-2.246 0-.82-.596-1.617-1.681-2.242-1.231-.712-2.85-1.066-4.469-1.066zm0 7.793c-1.82 0-3.639-.41-5.056-1.228-1.46-.844-2.264-2-2.264-3.257 0-1.255.804-2.41 2.264-3.254 2.835-1.635 7.274-1.636 10.11 0 1.46.844 2.265 1.999 2.265 3.254 0 1.258-.804 2.413-2.265 3.257-1.417.818-3.237 1.228-5.054 1.228z"/><path fill="#1A162C" d="M48.116 20.466c-2.63-1.52-6.895-1.52-9.524 0-.563.325-1 .694-1.32 1.085.328.438.795.85 1.415 1.207 2.63 1.518 6.893 1.518 9.525 0 .562-.324.996-.694 1.318-1.087-.327-.438-.796-.847-1.414-1.205z"/><path fill="#1A162C" d="M38.06 21.567c.251.248.559.478.918.686 2.465 1.422 6.475 1.422 8.941 0 .313-.18.587-.382.823-.598a4.505 4.505 0 0 0-.92-.684c-2.465-1.422-6.473-1.422-8.94 0-.314.18-.588.38-.823.596zm5.389 2.925c-1.82 0-3.637-.41-5.056-1.228-.667-.386-1.202-.843-1.59-1.362l-.274-.366.29-.353c.379-.464.876-.875 1.48-1.224 2.833-1.635 7.274-1.636 10.108 0 .667.385 1.204.844 1.591 1.361l.275.367-.29.354a5.36 5.36 0 0 1-1.48 1.223c-1.417.818-3.236 1.228-5.054 1.228z"/></svg>