<svg width="112" height="149" viewBox="0 0 112 149" fill="none" xmlns="http://www.w3.org/2000/svg">
<path d="M108.258 102.062C108.142 102.062 108.027 102.055 107.91 102.04C107.101 101.938 105.641 101.373 104.949 98.7455L106.245 98.4046C106.609 99.789 107.261 100.608 108.079 100.712C108.801 100.813 109.608 100.305 110.075 99.4691C110.769 98.2293 110.54 96.6906 109.461 95.3532C105.571 90.5284 105.627 85.159 105.632 84.9318L106.97 84.9565C106.97 85.0071 106.931 90.0814 110.503 94.5122C111.937 96.2905 112.215 98.3886 111.246 100.122C110.571 101.33 109.425 102.062 108.258 102.062Z" fill="#252323"/>
<path d="M13.0862 118.423C13.0862 118.423 19.2145 116.894 25.8806 111.809C32.5454 106.724 12.1863 100.429 12.1863 100.429L10.4904 107.935C10.4904 107.935 9.88353 113.383 10.4904 113.504C11.0961 113.625 13.0862 118.423 13.0862 118.423Z" fill="#252323"/>
<path d="M10.9464 112.985C11.3419 113.273 12.0378 114.217 13.4754 117.615C15.1082 117.114 20.1426 115.345 25.4762 111.276C26.7049 110.339 26.5726 109.597 26.5293 109.354C25.9768 106.245 16.9215 102.674 12.6818 101.288L11.1454 108.081C10.939 109.972 10.8141 112.321 10.9464 112.985ZM12.6905 119.213L12.4692 118.679C11.688 116.797 10.6374 114.587 10.227 114.13C9.7227 113.992 9.20727 113.427 9.82653 107.861L11.6955 99.5741L12.3876 99.789C13.882 100.251 27.0163 104.441 27.8482 109.119C28.0596 110.307 27.5355 111.39 26.2895 112.34C19.5913 117.45 13.5063 119.008 13.2504 119.072L12.6905 119.213Z" fill="#252323"/>
<path d="M106.239 74.9034H2.46607C2.18301 74.9034 1.95683 75.1356 1.96301 75.4172L2.84554 110.74C2.84554 112.011 3.47594 113.282 4.73424 114.008L12.3026 118.373C12.9083 118.723 13.666 118.286 13.666 117.587V114.296C13.666 113.597 14.4237 113.159 15.0293 113.509L39.5798 127.669C40.6515 128.288 41.3128 129.432 41.3128 130.668V133.107C41.3128 134.344 41.9728 135.488 43.0457 136.106L49.3817 139.76C52.1653 141.367 55.5966 141.367 58.3802 139.76L103.028 114.007C104.287 113.28 104.916 112.01 104.916 110.739L106.741 75.4307C106.756 75.1442 106.527 74.9034 106.239 74.9034Z" fill="#EF4BA2"/>
<path d="M14.5728 112.715C14.8447 112.715 15.1154 112.786 15.3638 112.93L39.9131 127.09C41.1875 127.827 41.981 129.196 41.981 130.668V133.107C41.981 134.102 42.5162 135.028 43.379 135.526L49.715 139.182C52.2823 140.661 55.4738 140.663 58.0436 139.182L102.691 113.429C103.664 112.867 104.245 111.862 104.245 110.74L106.061 75.5727H2.63495L3.51377 110.723C3.51377 111.862 4.09472 112.867 5.0675 113.429L12.6359 117.794C12.7397 117.855 12.8324 117.82 12.8757 117.794C12.9202 117.768 12.9943 117.706 12.9943 117.587V114.296C12.9943 113.725 13.2897 113.214 13.7842 112.929C14.0314 112.786 14.3021 112.715 14.5728 112.715ZM53.8793 141.63C52.2069 141.63 50.537 141.2 49.0451 140.34L42.7078 136.684C41.4335 135.949 40.6411 134.577 40.6411 133.107V130.668C40.6411 129.674 40.1059 128.747 39.2432 128.249L14.6927 114.088C14.5888 114.03 14.4986 114.062 14.4541 114.088C14.4096 114.114 14.3342 114.176 14.3342 114.296V117.587C14.3342 118.157 14.0388 118.667 13.5444 118.954C13.0499 119.236 12.4603 119.238 11.9659 118.952L4.39756 114.587C3.00577 113.784 2.1739 112.345 2.1739 110.74L1.29134 75.4343C1.28393 75.1157 1.40261 74.8157 1.6251 74.5872C1.84759 74.3587 2.14546 74.2328 2.46436 74.2328H106.237C106.557 74.2328 106.868 74.3674 107.088 74.5983C107.307 74.8305 107.424 75.1466 107.408 75.4652L105.585 110.774C105.585 112.345 104.753 113.784 103.361 114.587L58.7135 140.34C57.2228 141.2 55.5504 141.63 53.8793 141.63Z" fill="#252323"/>
<path d="M58.4623 139.76L99.7614 115.805L101.405 75.6506L63.1136 74.9034L54.4414 80.5321V140.933C55.8332 140.86 57.2126 140.48 58.4623 139.76Z" fill="#252323"/>
<path d="M55.1146 80.8954V140.2C56.1936 140.057 57.206 139.715 58.1305 139.182L99.1094 115.41L100.711 76.3064L63.3096 75.5754L55.1146 80.8954ZM53.7734 141.64V80.1692L62.9252 74.2306L102.106 74.995L100.418 116.199L100.101 116.384L58.8005 140.341C57.4927 141.096 56.0379 141.519 54.4805 141.603L53.7734 141.64Z" fill="#252323"/>
<path d="M2.46607 74.9032C2.18301 74.9032 1.95683 75.1354 1.96301 75.417L2.84554 110.74C2.84554 112.011 3.47593 113.282 4.73424 114.008L6.35348 114.941L5.61184 79.2513L6.93565 74.9032H2.46607Z" fill="#252323"/>
<path d="M2.63495 75.5724L3.51377 110.723C3.51377 111.861 4.09472 112.867 5.0675 113.429L5.6571 113.768L4.93771 79.1586L6.03039 75.5724H2.63495ZM7.04643 116.115L4.39757 114.587C3.00577 113.784 2.1739 112.345 2.1739 110.74L1.29134 75.4329C1.28393 75.1143 1.40261 74.8154 1.6251 74.5869C1.84759 74.3585 2.14546 74.2325 2.46436 74.2325H7.83752L6.28132 79.3438L7.04643 116.115Z" fill="#252323"/>
<path d="M104.825 78.2583L58.718 104.853C56.0185 106.41 52.6922 106.41 49.9927 104.853L3.88663 78.2583C1.30081 76.7666 1.30081 73.0384 3.88663 71.5479L49.9939 44.953C52.6935 43.3958 56.0197 43.3958 58.7193 44.953L104.825 71.5479C107.411 73.0384 107.411 76.7666 104.825 78.2583Z" fill="white"/>
<path d="M54.354 44.4579C52.961 44.4579 51.5692 44.816 50.327 45.531L4.21968 72.1272C3.21477 72.7063 2.61525 73.7436 2.61525 74.9032C2.61525 76.0603 3.21477 77.1001 4.21968 77.6793L50.3257 104.274C52.809 105.705 55.8979 105.707 58.3811 104.274L104.488 77.6781C105.493 77.0989 106.093 76.0603 106.093 74.9032C106.093 73.7449 105.493 72.7063 104.488 72.1272L58.3811 45.531C57.1401 44.816 55.7458 44.4579 54.354 44.4579ZM54.354 106.686C52.7286 106.686 51.1044 106.269 49.6558 105.433L3.54972 78.8376C2.12578 78.0164 1.27539 76.5444 1.27539 74.902C1.27663 73.2596 2.12578 71.7888 3.54972 70.9688L49.657 44.3727C52.5543 42.7018 56.1537 42.7031 59.0523 44.3727L105.158 70.9688C106.582 71.7888 107.433 73.2596 107.433 74.9032C107.433 76.5456 106.582 78.0164 105.158 78.8364L59.0523 105.433C57.6024 106.269 55.9782 106.686 54.354 106.686Z" fill="#252323"/>
<path d="M48.6624 139.835L48.1445 104.377L49.4844 104.356L50.0023 139.815L48.6624 139.835Z" fill="#252323"/>
<path d="M15.7502 107.558L12.246 105.536C11.7071 105.225 11.2695 104.39 11.2695 103.673V97.1945C11.2695 96.4758 11.7071 96.1448 12.246 96.456L15.7502 98.4775C16.2892 98.7887 16.7268 99.6235 16.7268 100.342V106.82C16.7268 107.539 16.2892 107.869 15.7502 107.558Z" fill="white"/>
<path d="M11.9474 97.0576C11.9412 97.0947 11.9375 97.1391 11.9375 97.1935V103.673C11.9375 104.188 12.2824 104.786 12.5791 104.957L16.0449 106.957C16.0511 106.921 16.0548 106.875 16.0548 106.821V100.342C16.0548 99.8275 15.71 99.2286 15.4133 99.0582L11.9474 97.0576ZM16.1377 108.343C15.9003 108.343 15.6519 108.274 15.4133 108.137L11.9091 106.116C11.1613 105.686 10.5977 104.635 10.5977 103.673V97.1935C10.5977 96.5711 10.8424 96.0722 11.2701 95.8252C11.6582 95.6017 12.1353 95.6202 12.5791 95.8783L16.0833 97.8986C16.8311 98.3296 17.3947 99.3792 17.3947 100.342V106.821C17.3947 107.445 17.15 107.943 16.7223 108.189C16.5418 108.293 16.3441 108.343 16.1377 108.343Z" fill="#252323"/>
<path d="M14.8147 104.403L12.2969 102.949L12.9668 101.792L15.4847 103.244L14.8147 104.403Z" fill="#252323"/>
<path d="M78.3091 116.39L78.0508 115.944L102.978 101.566L103.235 102.013L78.3091 116.39Z" fill="#EF4BA2"/>
<path d="M78.3091 118.133L78.0508 117.687L102.978 103.309L103.235 103.756L78.3091 118.133Z" fill="#EF4BA2"/>
<path d="M78.3091 119.876L78.0508 119.429L102.978 105.051L103.235 105.498L78.3091 119.876Z" fill="#EF4BA2"/>
<path d="M78.3091 114.648L78.0508 114.202L102.978 99.8226L103.235 100.27L78.3091 114.648Z" fill="#EF4BA2"/>
<path d="M59.6195 137.927L58.5898 137.911L58.7271 129.194L59.7579 129.21L59.6195 137.927Z" fill="#EF4BA2"/>
<path d="M59.7789 127.595L58.748 127.579L58.8061 123.908L59.837 123.924L59.7789 127.595Z" fill="#EF4BA2"/>
<path d="M98.4625 92.9921L97.4316 92.9724L97.6133 83.8921L98.6442 83.9118L98.4625 92.9921Z" fill="#EF4BA2"/>
<path d="M45.3716 124.705C45.3716 125.575 44.7598 125.928 44.0045 125.492C43.2505 125.057 42.6387 123.998 42.6387 123.128C42.6387 122.257 43.2505 121.904 44.0045 122.34C44.7598 122.775 45.3716 123.834 45.3716 124.705Z" fill="#EF4BA2"/>
<path d="M43.3932 122.821C43.3809 122.821 43.3734 122.822 43.3697 122.824C43.3611 122.834 43.3079 122.921 43.3079 123.128C43.3079 123.762 43.79 124.596 44.3388 124.913C44.5217 125.017 44.6218 125.013 44.6379 125.007C44.6466 124.997 44.7009 124.909 44.7009 124.704C44.7009 124.07 44.2189 123.236 43.6689 122.919C43.5279 122.837 43.434 122.821 43.3932 122.821ZM44.6169 126.347C44.3104 126.347 43.9865 126.255 43.6689 126.072C42.7146 125.521 41.9668 124.228 41.9668 123.128C41.9668 122.467 42.2363 121.935 42.7022 121.664C43.1682 121.395 43.764 121.428 44.3388 121.76C45.293 122.31 46.0408 123.603 46.0408 124.704C46.0408 125.364 45.7726 125.897 45.3054 126.168C45.0965 126.288 44.8629 126.347 44.6169 126.347Z" fill="#252323"/>
<path d="M45.3716 119.434C45.3716 120.305 44.7598 120.656 44.0045 120.222C43.2505 119.786 42.6387 118.728 42.6387 117.857C42.6387 116.986 43.2505 116.633 44.0045 117.069C44.7598 117.504 45.3716 118.563 45.3716 119.434Z" fill="#EF4BA2"/>
<path d="M43.3932 117.551C43.3809 117.551 43.3734 117.551 43.3697 117.553C43.3611 117.563 43.3079 117.65 43.3079 117.857C43.3079 118.492 43.79 119.325 44.3388 119.642C44.5217 119.747 44.6218 119.742 44.6379 119.738C44.6466 119.727 44.7009 119.64 44.7009 119.434C44.7009 118.799 44.2189 117.965 43.6689 117.648C43.5279 117.568 43.434 117.551 43.3932 117.551ZM44.6169 121.076C44.3104 121.076 43.9865 120.985 43.6689 120.801C42.7146 120.251 41.9668 118.958 41.9668 117.857C41.9668 117.196 42.2363 116.664 42.7022 116.393C43.1682 116.124 43.764 116.157 44.3388 116.49C45.293 117.039 46.0408 118.332 46.0408 119.434C46.0408 120.094 45.7726 120.627 45.3054 120.897C45.0965 121.017 44.8629 121.076 44.6169 121.076Z" fill="#252323"/>
<path d="M71.2513 73.1546L39.9359 91.2175L20.3691 79.9318L51.6846 61.8689L71.2513 73.1546Z" fill="white"/>
<path d="M21.7059 79.9317L39.9327 90.4445L69.9083 73.1546L51.6814 62.6418L21.7059 79.9317ZM39.9327 91.9906L19.0273 79.9317L51.6814 61.0957L72.5868 73.1546L39.9327 91.9906Z" fill="#252323"/>
<path d="M75.4662 70.774L44.0716 88.8332L24.584 77.5511L55.8994 59.4883L75.4662 70.774Z" fill="white"/>
<path d="M25.9182 77.5509L44.0672 88.0599L74.1194 70.7725L55.895 60.261L25.9182 77.5509ZM44.066 89.606L23.2422 77.5484L55.895 58.7149L76.8029 70.775L44.066 89.606Z" fill="#252323"/>
<path d="M78.6896 68.945L47.4161 86.908L27.8086 75.7222L59.1241 57.658L78.6896 68.945Z" fill="white"/>
<path d="M29.1518 75.7185L47.4133 86.1373L77.3456 68.9438L59.1224 58.4324L29.1518 75.7185ZM47.4158 87.6797L26.4609 75.7247L59.1224 56.8863L80.0291 68.9463L47.4158 87.6797Z" fill="#252323"/>
<path d="M61.6041 39.9357L54.9789 38.0438C54.9059 38.0228 54.8281 38.0228 54.7539 38.0426L45.3698 40.6235C45.3315 40.6346 45.2993 40.647 45.2647 40.668C44.3636 41.2299 30.641 49.7618 29.7077 50.1854C28.7436 50.6238 19.802 54.2149 19.3644 54.5644C19.0245 54.836 16.5907 54.2371 15.5067 53.9518C15.2422 53.8827 14.9863 54.0827 14.9863 54.3544V71.4158C14.9863 71.9629 15.3485 72.5112 16.0741 72.9286L20.1209 75.2638C21.6783 76.1616 24.2271 76.1616 25.7857 75.2638L49.5588 61.5514C51.1162 60.6524 53.6649 60.6524 55.2236 61.5514L65.4347 67.4407C65.6979 67.5926 65.7152 67.9655 65.4668 68.1409L60.8835 71.3763C60.8464 71.4023 60.8056 71.422 60.7636 71.4344L52.2892 73.9894C52.2496 74.0017 52.2089 74.0079 52.1681 74.0079H50.3189C50.089 74.0079 49.9024 74.1944 49.9024 74.4241L49.9222 91.7028C49.9827 92.1993 50.3263 92.6871 50.9839 93.0662L55.032 95.4001C56.5894 96.2992 59.1382 96.2992 60.6968 95.4001L99.6548 72.9286C100.379 72.5112 100.741 71.9629 100.741 71.4158V54.105C100.741 53.9296 100.631 53.7728 100.464 53.7135L61.6288 39.9431C61.6214 39.9406 61.6127 39.9381 61.6041 39.9357Z" fill="#EF4BA2"/>
<path d="M50.5723 74.6775L50.5934 91.7018C50.6255 91.929 50.8851 92.2365 51.3189 92.4872L55.367 94.8212C56.718 95.6016 59.0084 95.6016 60.3619 94.8212L99.3199 72.3497C99.797 72.073 100.071 71.7322 100.071 71.4148V54.2843L61.4138 40.5769L54.864 38.7072L45.5478 41.2684C44.1226 42.1687 30.9611 50.3511 29.9859 50.7957C29.6633 50.9414 28.4556 51.4378 26.9711 52.0491C24.4335 53.0914 20.1864 54.8363 19.7538 55.1092C19.5177 55.2994 19.1617 55.5834 15.6563 54.6832V71.4148C15.6563 71.7322 15.9307 72.073 16.409 72.3497L20.4546 74.6849C21.8094 75.4653 24.0973 75.4653 25.4508 74.6849L49.2238 60.9713C50.9988 59.9451 53.7812 59.9463 55.5586 60.9713L65.7709 66.863C66.0923 67.0482 66.295 67.3817 66.3123 67.7534C66.3283 68.1238 66.1578 68.4745 65.8525 68.6882L61.2692 71.9236C61.1703 71.9928 61.0664 72.0422 60.9577 72.0755L52.4821 74.6305C52.382 74.6614 52.2769 74.6775 52.1693 74.6775H50.5723ZM57.8651 96.7489C56.7242 96.7489 55.5858 96.492 54.6971 95.9795L50.649 93.6456C49.8406 93.1788 49.3474 92.5181 49.2572 91.7833L49.2325 74.4255C49.2325 73.8266 49.7207 73.3388 50.319 73.3388H52.1693L60.5696 70.7949L64.7585 67.8238L54.8874 62.1296C53.5364 61.3504 51.2472 61.3491 49.8937 62.1296L26.1207 75.8432C24.3445 76.8682 21.5622 76.8682 19.7847 75.8432L15.7379 73.508C14.822 72.9795 14.3164 72.2361 14.3164 71.4148V54.3547C14.3164 54.0151 14.4709 53.7014 14.7404 53.4952C15.0074 53.2877 15.351 53.2186 15.6773 53.305C17.8206 53.8681 18.7872 53.9768 19.0653 53.9644C19.5721 53.6681 21.3755 52.9 26.4606 50.8117C27.9241 50.2091 29.1132 49.7213 29.4309 49.5768C30.1095 49.2693 39.0598 43.7407 44.9112 40.1002C44.9978 40.0471 45.083 40.0088 45.1844 39.9804L54.5759 37.3982C54.77 37.3451 54.974 37.3451 55.1643 37.4007L61.8402 39.3086L100.689 53.0839C101.12 53.2346 101.411 53.6458 101.411 54.1064V71.4148C101.411 72.2361 100.907 72.9795 99.9898 73.508L61.0319 95.9795C60.1444 96.492 59.0035 96.7489 57.8651 96.7489Z" fill="#252323"/>
<path d="M60.6998 95.21L96.3612 74.6403V52.0675L88.7965 49.384L58.2969 74.5625V95.8608C59.1757 95.8065 60.0298 95.5966 60.6998 95.21Z" fill="#252323"/>
<path d="M58.9642 74.8764V95.109C59.5006 95.0127 59.9827 94.8497 60.3622 94.6311L95.6874 74.254V52.5395L88.9274 50.1413L58.9642 74.8764ZM57.623 96.5724V74.2478L88.6591 48.626L97.0285 51.5948V75.027L61.0309 95.7907C60.3041 96.2093 59.3721 96.4649 58.335 96.5279L57.623 96.5724Z" fill="#252323"/>
<path d="M23.4004 75.7801C24.2743 75.7245 25.1235 75.5146 25.7897 75.1305L49.5627 61.4182C50.4354 60.9144 51.6195 60.7032 52.7666 60.7649V38.4577L45.3737 40.4903C45.3354 40.5014 45.3033 40.515 45.2699 40.536C44.3676 41.0966 30.6449 49.6298 29.7117 50.0534C29.1666 50.3004 26.0678 51.5575 23.4004 52.6664V75.7801Z" fill="#252323"/>
<path d="M24.0684 53.1123V75.0281C24.6011 74.933 25.0708 74.7712 25.4528 74.5514L49.2258 60.839C49.9996 60.3932 51.0181 60.1302 52.0947 60.0895V39.3369L45.5498 41.1362C44.1246 42.0364 30.9631 50.2189 29.9879 50.6622C29.669 50.8067 28.4897 51.292 27.0312 51.891C26.1066 52.2713 25.0683 52.6986 24.0684 53.1123ZM22.7285 76.4939V52.2194L23.1413 52.0478C24.2661 51.5798 25.4676 51.087 26.522 50.6536C27.9583 50.0633 29.1202 49.5854 29.4329 49.4434C30.1115 49.1359 39.0617 43.6085 44.9132 39.968C44.9997 39.9149 45.085 39.8766 45.1864 39.8482L53.4346 37.5784V61.4701L52.7288 61.433C51.6534 61.3701 50.6176 61.5812 49.8957 61.9974L26.1227 75.7097C25.4009 76.1259 24.4738 76.3815 23.4417 76.4482L22.7285 76.4939Z" fill="#252323"/>
<path d="M16.0737 55.3252L20.3282 57.7802C21.7781 58.6162 24.1279 58.6162 25.5765 57.7802L49.7661 43.827C51.216 42.9909 53.5657 42.9909 55.0144 43.827L75.1732 55.4549C76.6231 56.2909 76.6231 57.6468 75.1732 58.4829L50.9836 72.4348C49.535 73.2709 49.535 74.6268 50.9836 75.4628L55.2393 77.9178C56.688 78.7538 59.039 78.7538 60.4877 77.9178L99.6545 55.3252C101.103 54.4892 101.103 53.1345 99.6545 52.2984L60.4877 29.7071C59.039 28.871 56.6892 28.871 55.2393 29.7071L16.0737 52.2984C14.6239 53.1345 14.6239 54.4892 16.0737 55.3252Z" fill="white"/>
<path d="M52.3906 42.5292C53.4561 42.5292 54.5203 42.7688 55.3497 43.2479L75.5097 54.8757C76.4257 55.4043 76.9312 56.1489 76.9312 56.9689C76.93 57.7901 76.4257 58.5335 75.5097 59.0621L51.3189 73.0152C50.8418 73.2906 50.5674 73.6315 50.5674 73.9501C50.5674 74.2674 50.8418 74.6083 51.3189 74.8836L55.5747 77.3374C56.8157 78.0536 58.9132 78.0536 60.153 77.3374L99.3199 54.7461C99.797 54.4707 100.071 54.1299 100.071 53.8113C100.071 53.4939 99.797 53.1531 99.3199 52.8777L60.153 30.2864C58.9145 29.5713 56.8157 29.5701 55.5759 30.2864L16.409 52.8777C15.9307 53.1543 15.6563 53.4951 15.6563 53.8125C15.6563 54.1299 15.9307 54.4707 16.4078 54.7449L16.409 54.7461L20.6635 57.2011C21.9045 57.9161 24.0009 57.9161 25.2419 57.2011L49.4315 43.2479C50.2609 42.7688 51.3264 42.5292 52.3906 42.5292ZM57.8639 79.2157C56.7996 79.2157 55.7341 78.9761 54.9047 78.4957L50.649 76.042C49.7331 75.5147 49.2275 74.77 49.2275 73.9501C49.2275 73.1289 49.7331 72.3842 50.649 71.8569L74.8386 57.9037C75.3169 57.6283 75.5901 57.2875 75.5901 56.9689C75.5901 56.6515 75.3169 56.3107 74.8386 56.0341L54.6798 44.4062C53.44 43.6912 51.3412 43.6912 50.1014 44.4062L25.9118 58.3582C24.2531 59.3177 21.6536 59.3177 19.9936 58.3582L15.7379 55.9044C14.822 55.3771 14.3164 54.6337 14.3164 53.8125C14.3164 52.9913 14.8207 52.2479 15.7379 51.7193L54.9047 29.1268C56.5647 28.1685 59.1642 28.1697 60.823 29.1268L99.9898 51.7193C100.907 52.2466 101.411 52.9913 101.411 53.8113C101.411 54.6325 100.907 55.3771 99.9898 55.9044L60.823 78.4957C59.9948 78.9761 58.9293 79.2157 57.8639 79.2157Z" fill="#252323"/>
<path d="M101.48 37.0856H95.9689L95.4411 41.2275L59.5028 20.4984C57.179 19.1573 53.4115 19.1573 51.089 20.4984L22.4063 37.0968L22.7079 32.6079H12.8825L8.25598 43.233H7.34747L2.69497 53.9211L1.09181 57.611C0.84089 58.2679 1.15113 58.9817 2.03614 59.4929L26.4655 73.5844C27.84 74.376 30.0884 74.376 31.4629 73.5844L37.5492 70.0736C38.9237 69.2808 41.1734 69.2808 42.5478 70.0736L44.2845 71.0751C44.5132 71.2072 44.6899 71.3567 44.8432 71.511L43.2858 75.1441C43.1016 75.7727 43.4428 76.3555 44.2845 76.8408L49.4871 79.8417C51.801 81.1766 55.587 81.1766 57.9009 79.8417L58.692 79.386L70.3962 72.6348L105.865 52.0934C107.002 51.4377 107.574 50.5819 107.598 49.7224L107.83 38.9886C107.833 38.8602 107.747 38.7478 107.624 38.7145L101.48 37.0856Z" fill="#EF4BA2"/>
<path d="M40.0495 68.8055C41.0692 68.8055 42.089 69.0351 42.8837 69.4933L44.6204 70.496C44.8738 70.6405 45.0963 70.8147 45.3212 71.0406L45.6364 71.3617L43.9022 75.4085C43.8404 75.6332 44.0728 75.9457 44.6192 76.2606L49.823 79.2626C51.923 80.4728 55.468 80.4741 57.5668 79.2626L70.0621 72.0557L105.529 51.5143C106.414 51.0043 106.91 50.3622 106.93 49.704L107.154 39.2826L101.394 37.7563H96.5607L95.9797 42.3106L59.1688 21.0776C57.0699 19.8674 53.5249 19.8674 51.4249 21.0776L21.6545 38.3058L21.9919 33.2773H13.3223L8.69573 43.9024H7.78845L1.70707 57.8778C1.52537 58.3582 2.11125 58.7632 2.37329 58.9139L26.8015 73.0041C27.9732 73.6796 29.9559 73.6809 31.1289 73.0041L37.2152 69.4933C38.01 69.0351 39.0297 68.8055 40.0495 68.8055ZM53.6955 81.5052C52.0503 81.5052 50.4064 81.1434 49.153 80.421L43.9505 77.4189C42.44 76.5496 42.4833 75.5036 42.6427 74.9578L44.032 71.705C44.0061 71.6877 43.9789 71.6717 43.9517 71.6556L42.2126 70.6516C41.0396 69.9749 39.0582 69.9761 37.8851 70.6516L31.7988 74.1625C30.2105 75.08 27.7211 75.08 26.1315 74.1625L1.70212 60.0722C0.556297 59.4115 0.0828893 58.3767 0.467302 57.3727L6.90963 42.5637H7.81688L12.4434 31.9386H23.4245L23.1588 35.8878L50.7525 19.9193C53.3012 18.4498 57.29 18.4498 59.8387 19.9181L94.9044 40.1446L95.3802 36.4176L101.653 36.4386L107.798 38.0687C108.222 38.1823 108.511 38.5676 108.5 39.0048L108.269 49.7373C108.236 50.8821 107.502 51.9218 106.201 52.6727L58.2368 80.4222C56.9847 81.1434 55.3395 81.5052 53.6955 81.5052Z" fill="#252323"/>
<path d="M34.7959 42.9168C34.5326 42.9168 28.8418 47.3834 28.8418 47.3834V49.0468L35.4052 59.8066L28.843 74.1734C29.7886 74.1932 30.7441 74.0005 31.4647 73.5844L37.551 70.0736C38.1567 69.7241 38.9268 69.5376 39.7166 69.4944L46.6336 55.1275L42.1603 43.3663C42.1603 43.3663 35.0591 42.9168 34.7959 42.9168Z" fill="#252323"/>
<path d="M29.5106 48.8593L36.1606 59.7611L29.921 73.4216C30.3771 73.3401 30.7937 73.1969 31.1274 73.0042L37.2137 69.4934C37.7848 69.1637 38.4918 68.9475 39.2767 68.8599L45.902 55.0968L41.6845 44.0073C39.1494 43.848 35.7268 43.6332 34.9419 43.5924C34.2843 44.011 31.5229 46.1326 29.5106 47.7096V48.8593ZM28.9705 74.8442C28.9223 74.8442 28.8753 74.8442 28.8271 74.843L27.8086 74.822L34.6465 59.8524L28.1707 49.2359V47.0588L28.4266 46.8575C34.2991 42.2464 34.5179 42.2464 34.7935 42.2464C35.0642 42.2464 41.0097 42.6242 42.2 42.6996L42.6301 42.7267L47.3593 55.1586L40.1469 70.1417L39.7514 70.1639C39.0258 70.2022 38.362 70.3763 37.8849 70.6517L31.7973 74.1626C31.0335 74.6047 30.0335 74.8442 28.9705 74.8442Z" fill="#252323"/>
<path d="M95.4408 41.2275L94.049 40.4249L73.7159 44.5803C73.7159 44.5803 60.1292 54.215 60.0414 54.5645C59.9537 54.9152 59.1651 60.7835 59.1651 60.7835L59.6904 66.4727L53.2852 80.8247C54.9415 80.8901 56.6348 80.5728 57.9018 79.8417L58.6917 79.386L70.3959 72.6348L103.673 53.3629V38.4576L95.5829 40.1112L95.4408 41.2275Z" fill="#252323"/>
<path d="M59.8379 60.797L60.3731 66.585L54.3214 80.1454C55.5562 80.0676 56.7032 79.7602 57.566 79.2625L70.06 72.0556L103.002 52.9763V39.2775L96.1865 40.6717L95.9776 42.3104L93.9344 41.1323L73.9882 45.2075C69.2331 48.58 61.7352 53.9593 60.6623 54.8855C60.5362 55.6597 60.1098 58.7791 59.8379 60.797ZM53.7194 81.5026C53.5661 81.5026 53.4129 81.4989 53.2584 81.4927L52.2695 81.4544L59.006 66.3602L58.4893 60.7686L58.4992 60.6932C58.6859 59.3089 59.3002 54.7607 59.3904 54.4038C59.4671 54.1001 59.5375 53.8123 73.3282 44.0344L73.4431 43.9528L94.1631 39.7184L94.9035 40.1444L94.9789 39.5516L104.343 37.6375V53.7493L58.2347 80.4221C57.0185 81.1247 55.4289 81.5026 53.7194 81.5026Z" fill="#252323"/>
<path d="M14.3809 35.8495C15.7554 36.6423 15.7554 37.9402 14.3809 38.733L8.29454 42.2438C6.92005 43.0366 6.92005 44.3333 8.29454 45.1261L32.7239 59.2176C34.0984 60.0104 36.3468 60.0104 37.7213 59.2176L43.8076 55.7067C45.1821 54.9139 47.4317 54.9139 48.8062 55.7067L50.5416 56.7082C51.9161 57.5011 51.9161 58.7977 50.5416 59.5905C49.1684 60.3833 49.1684 61.6812 50.5416 62.474L55.7454 65.4748C58.0593 66.8097 61.8454 66.8097 64.1592 65.4748L64.9503 65.0191L76.6545 58.2679L106.105 41.3226C108.429 39.9827 108.429 37.8093 106.105 36.4694L59.7428 9.7276C57.419 8.3865 53.6528 8.3865 51.329 9.7276L14.3809 30.9963C12.0583 32.3374 12.0583 34.5096 14.3809 35.8495Z" fill="white"/>
<path d="M46.2999 54.4398C47.3196 54.4398 48.3381 54.6695 49.1341 55.1264L50.8708 56.1279C51.7385 56.6293 52.2354 57.3665 52.2354 58.1494C52.2354 58.9324 51.7385 59.6696 50.8708 60.171C50.4283 60.4254 50.1736 60.739 50.1736 61.0317C50.1736 61.3244 50.4283 61.6393 50.8708 61.8949L56.0733 64.8957C58.1721 66.1059 61.7184 66.1071 63.8172 64.8957L105.764 40.7435C106.671 40.2199 107.171 39.5629 107.171 38.8961C107.171 38.228 106.671 37.5722 105.763 37.0486L59.4008 10.3068C57.2995 9.09538 53.7533 9.09661 51.6569 10.3068L14.7088 31.5768C13.8015 32.1004 13.3009 32.7561 13.3009 33.423C13.3009 34.091 13.8015 34.7468 14.7088 35.2704C15.5765 35.7705 16.0746 36.5078 16.0746 37.2907C16.0746 38.0749 15.5777 38.8109 14.7088 39.3122L8.62243 42.823C8.18116 43.0787 7.92652 43.3923 7.92652 43.685C7.92652 43.9777 8.18116 44.2926 8.62243 44.547L33.0518 58.6385C34.2248 59.3127 36.2062 59.3139 37.3805 58.6372L43.4656 55.1276C44.2603 54.6695 45.2801 54.4398 46.2999 54.4398ZM59.9459 67.1395C58.3007 67.1395 56.6555 66.7765 55.4034 66.054L50.2008 63.0532C49.3319 62.5519 48.835 61.8159 48.835 61.0317C48.835 60.2475 49.3331 59.5115 50.2008 59.0114C50.6421 58.757 50.8955 58.4421 50.8955 58.1494C50.8955 57.8568 50.6421 57.5419 50.2008 57.2875L48.463 56.286C47.2924 55.6092 45.3073 55.6092 44.1355 56.286L38.0492 59.7968C36.4609 60.7131 33.9714 60.7131 32.3819 59.7968L7.9525 45.7053C7.08479 45.2052 6.58666 44.4679 6.58789 43.685C6.58789 42.9008 7.08479 42.1648 7.95374 41.6647L14.0388 38.1539C14.4813 37.8983 14.7347 37.5834 14.7347 37.2907C14.7347 36.9992 14.4813 36.6843 14.0388 36.4299C12.7002 35.6569 11.961 34.5887 11.961 33.423C11.961 32.2572 12.7002 31.1903 14.0388 30.4172L50.9882 9.14724C53.5332 7.67894 57.5232 7.68018 60.0707 9.14724L106.433 35.8903C107.773 36.6621 108.51 37.7291 108.51 38.8961C108.51 40.0618 107.773 41.13 106.433 41.9018L64.4872 66.054C63.235 66.7765 61.5898 67.1383 59.9459 67.1395Z" fill="#252323"/>
<path d="M43.8973 75.4134L42.6699 74.8762L48.9132 60.6179L50.1406 61.1551L43.8973 75.4134Z" fill="#252323"/>
<path d="M71.6926 72.3915L71.1797 71.4987L92.5684 59.1991L93.0813 60.092L71.6926 72.3915Z" fill="#EF4BA2"/>
<path d="M62.028 78.0559L61.5039 77.1693L68.835 72.857L69.3578 73.7436L62.028 78.0559Z" fill="#EF4BA2"/>
<path d="M9.45823 50.4054L20.0994 56.3934C20.5098 56.6244 20.673 57.1319 20.4727 57.558L17.8535 63.1595C17.631 63.6349 17.0488 63.8202 16.5915 63.5596L6.08874 57.5715C5.68826 57.3431 5.5251 56.8479 5.71174 56.4255L8.19375 50.8252C8.40882 50.3399 8.99595 50.146 9.45823 50.4054Z" fill="white"/>
<path d="M9.01887 50.9585C8.98797 50.9585 8.96203 50.9659 8.94472 50.9708C8.90888 50.9832 8.84211 51.0153 8.80627 51.0968L6.3255 56.6971C6.27729 56.8058 6.31932 56.9317 6.42191 56.9898L16.9247 62.9791C17.0001 63.0223 17.073 63.0087 17.1076 62.9976C17.1435 62.9865 17.2102 62.9556 17.2473 62.8766L19.8677 57.2738C19.9184 57.1639 19.8776 57.0355 19.7713 56.9762L9.13137 50.9894C9.09058 50.9671 9.05224 50.9585 9.01887 50.9585ZM17.0384 64.3474C16.7677 64.3474 16.4995 64.277 16.2597 64.1411L5.75817 58.1531C5.05609 57.7517 4.77302 56.8922 5.10058 56.1562L7.58259 50.5547C7.76058 50.1509 8.10418 49.8397 8.52321 49.7014C8.94099 49.5618 9.40204 49.605 9.78769 49.8224L20.4289 55.8104C21.1396 56.2106 21.4264 57.1034 21.0803 57.8406L18.4611 63.4434C18.2757 63.8386 17.9296 64.1424 17.513 64.2733C17.3585 64.3227 17.1979 64.3474 17.0384 64.3474Z" fill="#252323"/>
<path d="M22.9994 58.3791L24.2861 59.1003C24.3677 59.146 24.3998 59.2472 24.3603 59.3312L23.783 60.5674C23.7385 60.6625 23.6236 60.6983 23.5321 60.6464L22.2751 59.9252C22.1959 59.8795 22.1638 59.782 22.2009 59.6992L22.7485 58.4618C22.7917 58.3655 22.9079 58.3272 22.9994 58.3791Z" fill="#252323"/>
<path d="M25.6166 59.8412L26.9046 60.5624C26.9849 60.6081 27.0183 60.7093 26.9787 60.7933L26.4003 62.0295C26.3558 62.1246 26.2408 62.1604 26.1506 62.1085L24.8922 61.3873C24.8131 61.3416 24.781 61.2441 24.8181 61.1613L25.3669 59.9239C25.4089 59.8276 25.5251 59.7893 25.6166 59.8412Z" fill="#252323"/>
<path d="M28.2332 61.3863L29.5212 62.1087C29.6028 62.1544 29.6349 62.2556 29.5954 62.3396L29.0169 63.5758C28.9724 63.6696 28.8574 63.7067 28.7672 63.6548L27.5089 62.9336C27.4298 62.8879 27.3989 62.7904 27.4347 62.7076L27.9835 61.4702C28.0256 61.3739 28.1418 61.3356 28.2332 61.3863Z" fill="#252323"/>
<path d="M21.7377 61.0404L23.0256 61.7615C23.1072 61.8072 23.1394 61.9085 23.0998 61.9925L22.5213 63.2286C22.4768 63.3236 22.3619 63.3595 22.2716 63.3076L21.0134 62.5864C20.9343 62.5407 20.9021 62.4432 20.9392 62.3605L21.488 61.1231C21.53 61.0268 21.6462 60.9885 21.7377 61.0404Z" fill="#252323"/>
<path d="M24.3556 62.5023L25.6435 63.2247C25.7251 63.2692 25.7572 63.3705 25.7177 63.4544L25.1392 64.6906C25.096 64.7857 24.9798 64.8215 24.8895 64.7696L23.6325 64.0484C23.5534 64.0028 23.5212 63.9052 23.5583 63.8225L24.1059 62.585C24.1491 62.4887 24.2641 62.4504 24.3556 62.5023Z" fill="#252323"/>
<path d="M26.9701 64.0474L28.2569 64.7698C28.3384 64.8155 28.3706 64.9168 28.331 65.0007L27.7538 66.2369C27.7093 66.3307 27.5931 66.3678 27.5028 66.3159L26.2458 65.5947C26.1667 65.549 26.1345 65.4515 26.1716 65.3688L26.7192 64.1314C26.7624 64.0351 26.8786 63.9968 26.9701 64.0474Z" fill="#252323"/>
<path d="M21.7377 61.0404L23.0256 61.7615C23.1072 61.8072 23.1394 61.9085 23.0998 61.9925L22.5213 63.2286C22.4768 63.3236 22.3619 63.3595 22.2716 63.3076L21.0134 62.5864C20.9343 62.5407 20.9021 62.4432 20.9392 62.3605L21.488 61.1231C21.53 61.0268 21.6462 60.9885 21.7377 61.0404Z" fill="#252323"/>
<path d="M24.3556 62.5023L25.6435 63.2247C25.7251 63.2692 25.7572 63.3705 25.7177 63.4544L25.1392 64.6906C25.096 64.7857 24.9798 64.8215 24.8895 64.7696L23.6325 64.0484C23.5534 64.0028 23.5212 63.9052 23.5583 63.8225L24.1059 62.585C24.1491 62.4887 24.2641 62.4504 24.3556 62.5023Z" fill="#252323"/>
<path d="M26.9701 64.0474L28.2569 64.7698C28.3384 64.8155 28.3706 64.9168 28.331 65.0007L27.7538 66.2369C27.7093 66.3307 27.5931 66.3678 27.5028 66.3159L26.2458 65.5947C26.1667 65.549 26.1345 65.4515 26.1716 65.3688L26.7192 64.1314C26.7624 64.0351 26.8786 63.9968 26.9701 64.0474Z" fill="#252323"/>
<path d="M20.472 63.7016L21.7588 64.4228C21.8403 64.4685 21.8725 64.5697 21.8329 64.6537L21.2557 65.8898C21.2112 65.9849 21.095 66.0207 21.0048 65.9688L19.7477 65.2476C19.6686 65.202 19.6365 65.1044 19.6736 65.0217L20.2211 63.7843C20.2644 63.688 20.3806 63.6498 20.472 63.7016Z" fill="#252323"/>
<path d="M23.0892 65.1636L24.3759 65.886C24.4575 65.9304 24.4897 66.0317 24.4501 66.1157L23.8729 67.3518C23.8284 67.4469 23.7134 67.4827 23.622 67.4308L22.3649 66.7097C22.2858 66.664 22.2537 66.5664 22.2908 66.4837L22.8395 65.2463C22.8816 65.15 22.9978 65.1117 23.0892 65.1636Z" fill="#252323"/>
<path d="M25.7084 66.7085L26.9964 67.431C27.0767 67.4766 27.1101 67.5779 27.0705 67.6619L26.4921 68.898C26.4476 68.9919 26.3326 69.0289 26.2424 68.9771L24.9841 68.2559C24.905 68.2102 24.8728 68.1126 24.9099 68.0299L25.4587 66.7925C25.5007 66.6962 25.6169 66.6579 25.7084 66.7085Z" fill="#252323"/>
<path d="M11.3914 55.9378C11.0985 56.5318 10.4298 56.801 9.89829 56.5392C9.36679 56.2774 9.17397 55.5833 9.46691 54.9893C9.76109 54.3953 10.4285 54.1248 10.96 54.3867C11.4915 54.6485 11.6844 55.3425 11.3914 55.9378Z" fill="#252323"/>
<path d="M13.9696 57.4577C13.6767 58.0517 13.0079 58.3221 12.4764 58.0603C11.9449 57.7985 11.7521 57.1045 12.045 56.5105C12.338 55.9153 13.0067 55.6461 13.5382 55.9079C14.0697 56.1697 14.2626 56.8637 13.9696 57.4577Z" fill="#EF4BA2"/>
<path d="M88.1793 68.4732C88.031 68.4461 87.8963 68.4238 87.8963 68.4238C87.2795 68.3609 86.4946 68.6881 85.6565 69.6526C85.1881 70.1922 84.8321 70.8307 84.6343 71.516C84.3142 72.6287 84.4427 73.4474 84.8284 73.9043C84.8284 73.9043 85.6046 75.0269 87.3364 75.4294C87.4179 75.4492 87.5082 75.4134 87.5539 75.3418L90.1286 71.2518L90.2399 69.7785C90.2436 69.7242 90.2299 69.6773 90.1941 69.6377C89.9963 69.4253 89.3326 68.7066 88.1793 68.4732Z" fill="#EF4BA2"/>
<path d="M87.7313 68.9264C87.431 68.9264 86.8303 69.0833 86.0429 69.9909C85.6165 70.4799 85.3 71.0566 85.127 71.658C84.8847 72.5015 84.9181 73.2165 85.2197 73.5721C85.2728 73.645 85.8872 74.4921 87.2357 74.8737L89.6213 71.085L89.7115 69.881C89.4581 69.6241 88.9217 69.1512 88.0774 68.9795L87.8055 68.9301C87.7832 68.9277 87.7585 68.9264 87.7313 68.9264ZM87.3754 75.9493C87.3222 75.9493 87.2678 75.9431 87.2147 75.9308C85.3136 75.4887 84.4373 74.2489 84.4014 74.197C83.8934 73.5981 83.7896 72.5817 84.1369 71.3752C84.3507 70.6294 84.7401 69.9181 85.2642 69.3142C86.3705 68.0435 87.3222 67.8422 87.9452 67.9113L88.2789 67.9694C89.1454 68.146 89.913 68.5856 90.5631 69.2821C90.7016 69.4303 90.7646 69.618 90.751 69.818L90.6299 71.4172L87.986 75.6171C87.855 75.8246 87.6189 75.9493 87.3754 75.9493Z" fill="#EF4BA2"/>
<path d="M90.967 71.1999C90.967 72.6583 89.9423 74.4316 88.6778 75.1614C87.4133 75.89 86.3887 75.2997 86.3887 73.8413C86.3887 72.3817 87.4133 70.6083 88.6778 69.8798C89.9423 69.1499 90.967 69.7415 90.967 71.1999Z" fill="#252323"/>
<path d="M89.6933 70.0822C89.4708 70.0822 89.2063 70.1637 88.9282 70.3255C87.8256 70.9602 86.8961 72.5705 86.8961 73.8412C86.8961 74.3463 87.0457 74.7242 87.309 74.876C87.5685 75.0267 87.9715 74.9687 88.4127 74.7143C89.5141 74.0808 90.4448 72.4705 90.4448 71.1998C90.4448 70.6934 90.294 70.3156 90.0319 70.1649C89.9355 70.1093 89.8206 70.0822 89.6933 70.0822ZM87.6464 75.9899C87.3399 75.9899 87.0518 75.9158 86.7935 75.7664C86.1953 75.4219 85.8652 74.7377 85.8652 73.8412C85.8652 72.1926 86.9851 70.2563 88.4127 69.4326C89.1902 68.9843 89.9479 68.9263 90.5462 69.2733C91.1444 69.6179 91.4757 70.3032 91.4757 71.1998C91.4757 72.8471 90.3558 74.7834 88.9282 75.6059C88.4857 75.8615 88.0506 75.9899 87.6464 75.9899Z" fill="#EF4BA2"/>
<path d="M100.3 37.5559L82.0298 26.9148C80.575 26.0676 79.4082 24.8031 78.6801 23.2866L76.0016 17.7049C75.2723 16.1835 74.1018 14.9177 72.642 14.0706L50.833 1.40291C50.215 1.04355 49.5327 1.05467 48.9567 1.30165L15.6426 20.4353L16.3026 25.9256L27.8128 33.6042L46.4117 47.208L61.7696 55.8078L69.0995 62.627L102.388 43.4884V41.1878C102.388 39.6923 101.593 38.3092 100.3 37.5559Z" fill="#EF4BA2"/>
<path d="M16.9241 25.5406L28.1771 33.0475L46.8008 46.6673L62.2193 55.3178L69.1882 61.7998L101.711 43.1021V41.188C101.711 39.9358 101.039 38.7651 99.956 38.1353L81.6859 27.4929C80.1087 26.5742 78.8578 25.2195 78.0692 23.5758L75.3907 17.9941C74.717 16.5888 73.6466 15.4316 72.2981 14.6487L50.4904 1.98231C49.9601 1.67482 49.4657 1.81066 49.216 1.91686L16.3543 20.7948L16.9241 25.5406ZM68.9991 63.4533L61.3652 56.3526L46.0777 47.7923L27.4108 34.1441L15.667 26.3111L14.918 20.0761L48.6165 0.721481C49.5077 0.336193 50.4088 0.386818 51.164 0.825211L72.973 13.4916C74.5539 14.4104 75.8072 15.7675 76.5983 17.4161L79.2769 22.9979C79.9493 24.3983 81.016 25.5541 82.3596 26.3371L100.631 36.9782C102.124 37.8489 103.051 39.4604 103.051 41.188V43.8752L68.9991 63.4533Z" fill="#252323"/>
<path d="M46.9291 44.6421L80.3853 25.6703L80.3915 25.653C79.6943 24.9713 79.1035 24.1847 78.6783 23.2968L75.9998 17.715C75.6945 17.0803 75.2977 16.5036 74.8502 15.9689L41.2061 34.6851L37.0332 36.4473L39.1839 41.934L41.6041 43.7036L46.9291 44.6421Z" fill="#252323"/>
<path d="M41.8718 43.0712L46.8061 43.9406L79.3292 25.4998C78.8175 24.9021 78.396 24.2624 78.0722 23.5869L75.3936 18.0039C75.2033 17.6087 74.9672 17.2222 74.6767 16.8308L41.5307 35.2703L37.8917 36.809L39.7347 41.5091L41.8718 43.0712ZM47.0484 45.3422L41.3329 44.3357L38.6297 42.3599L36.1699 36.0841L40.9448 34.0688L75.0068 15.1142L75.3615 15.5391C75.888 16.1664 76.2935 16.7838 76.6013 17.426L79.2798 23.0077C79.6543 23.787 80.1858 24.5168 80.8582 25.175L81.1598 25.4701L80.9411 26.1098L80.7148 26.2531L47.0484 45.3422Z" fill="#252323"/>
<path d="M68.4875 58.1603C68.4875 58.1603 67.4851 59.2125 66.5234 60.2362L69.0932 62.627L102.381 43.4885V41.1879C102.381 40.4926 102.203 39.8258 101.891 39.2306L68.4875 58.1603Z" fill="#252323"/>
<path d="M67.4755 60.2055L69.1911 61.7998L101.714 43.1021V41.1879C101.714 40.852 101.664 40.5149 101.565 40.1864L68.9068 58.694C68.7115 58.899 68.1232 59.5177 67.4755 60.2055ZM69.002 63.4533L65.5781 60.2685L66.0392 59.7795C67.0008 58.7533 68.0057 57.6987 68.0057 57.6987L68.1602 57.5789L102.164 38.3081L102.486 38.9194C102.858 39.6258 103.054 40.41 103.054 41.1879V43.8751L69.002 63.4533Z" fill="#252323"/>
<path d="M73.4144 60.2659L72.9102 59.3694L99.9464 44.1937L100.452 45.0902L73.4144 60.2659Z" fill="#EF4BA2"/>
<path d="M37.4242 32.1523L71.0424 13.2051L53.2791 2.88869L19.9488 22.0026L17.127 24.6502L19.9884 28.45L24.7781 31.6459L37.4242 32.1523Z" fill="white"/>
<path d="M24.9968 30.9841L37.2646 31.4768L69.6987 13.1965L53.2802 3.66182L20.3541 22.5435L18.0267 24.7269L20.4592 27.9574L24.9968 30.9841ZM37.5922 32.8291L24.5666 32.3067L19.4567 28.8527L16.2344 24.5725L19.6187 21.4222L53.2851 2.11572L72.3932 13.2138L37.5922 32.8291Z" fill="#252323"/>
<path d="M51.0547 47.4034V49.8103L56.8703 53.0667L64.608 55.2982L98.2225 36.3498L84.4541 28.3303L51.0547 47.4034Z" fill="white"/>
<path d="M57.1292 52.4455L64.522 54.5769L96.8745 36.3398L84.4509 29.1033L51.7239 47.7923V49.4187L57.1292 52.4455ZM64.6914 56.0193L56.5421 53.6507L50.3828 50.2029V47.0156L84.4571 27.5584L99.5679 36.3596L64.6914 56.0193Z" fill="#252323"/>
<path d="M14.3789 30.9962V22.3593C14.3789 20.7379 16.1378 19.7265 17.5407 20.5416L39.3497 33.2079C40.8082 34.0563 41.9788 35.3221 42.708 36.8422L45.3866 42.424C46.1146 43.9417 47.2815 45.2062 48.7375 46.0534L67.0064 56.6945C68.3006 57.4478 69.0954 58.8309 69.0954 60.3263V62.627L14.3789 30.9962Z" fill="#EF4BA2"/>
<path d="M15.0508 30.6112L68.4274 61.4664V60.3266C68.4274 59.0731 67.755 57.9037 66.671 57.2727L48.4021 46.6315C46.8236 45.7128 45.5727 44.3581 44.7854 42.7144L42.1069 37.1327C41.4332 35.7274 40.364 34.5703 39.0142 33.7874L17.2053 21.1197C16.7566 20.8604 16.2189 20.8579 15.7702 21.1173C15.3203 21.3766 15.0508 21.8397 15.0508 22.3596V30.6112ZM69.7673 63.7867L13.7109 31.383V22.3596C13.7109 21.3556 14.2313 20.4579 15.1015 19.9565C15.9729 19.4563 17.0112 19.46 17.8789 19.9627L39.6879 32.6303C41.2713 33.549 42.5246 34.9062 43.3145 36.5535L45.993 42.1353C46.6654 43.5369 47.7321 44.6927 49.0757 45.4757L67.3459 56.1168C68.839 56.9849 69.7673 58.5989 69.7673 60.3266V63.7867Z" fill="#252323"/>
<path d="M72.5008 38.5787L77.2052 39.0542C77.9221 39.1258 78.6427 38.969 79.2645 38.6071L98.2058 27.5621C98.6816 27.2855 98.5271 26.5618 97.9796 26.5026L73.4006 23.85C72.5898 23.7623 71.7715 23.9352 71.0657 24.3427L46.7179 38.3861C46.1147 38.7343 46.3088 39.6494 47.001 39.7247L64.4664 41.6092C65.1611 41.6845 65.8632 41.5437 66.475 41.2066L70.5157 38.9838C71.1213 38.6504 71.8135 38.5096 72.5008 38.5787Z" fill="#EF4BA2"/>
<path d="M72.981 24.4971C72.4261 24.4971 71.8847 24.6415 71.3989 24.9219L47.0511 38.9651L64.5363 40.9434C65.095 41.0077 65.6549 40.8941 66.1494 40.6199L70.1913 38.3971C70.9181 37.997 71.7364 37.829 72.5657 37.913L77.2714 38.3884C77.8437 38.444 78.4209 38.323 78.9252 38.0291L97.607 27.136L73.3271 24.5156C73.211 24.5032 73.096 24.4971 72.981 24.4971ZM64.8367 42.2981C64.6896 42.2981 64.5413 42.2907 64.3929 42.2734L46.9275 40.3902C46.3181 40.3235 45.8423 39.8938 45.7174 39.2949C45.5901 38.6972 45.8509 38.1131 46.3812 37.8068L70.729 23.7623C71.5645 23.2819 72.5126 23.0819 73.4705 23.1844L98.0495 25.8382C98.5921 25.895 99.0148 26.2778 99.1298 26.8113C99.2435 27.3435 99.0136 27.8659 98.5414 28.14L79.6001 39.185C78.8498 39.6221 77.9982 39.8073 77.1367 39.7197L72.431 39.2442C71.881 39.1911 71.326 39.301 70.8377 39.569L66.7959 41.7931C66.1902 42.1265 65.5202 42.2981 64.8367 42.2981Z" fill="#252323"/>
<path d="M49.7109 36.6573L62.7106 37.8453C63.1333 37.8848 63.5572 37.7909 63.9243 37.5773L79.3602 28.6107C79.6668 28.4316 79.5703 27.9661 79.218 27.9229L67.991 26.583C67.5522 26.5311 67.1084 26.6225 66.7265 26.8423L49.7109 36.6573Z" fill="white"/>
<path d="M51.8752 36.1829L62.7748 37.1783C63.0578 37.2054 63.3433 37.1424 63.593 36.998L78.2526 28.482L67.9142 27.2471C67.6262 27.2113 67.3197 27.2743 67.0639 27.4225L51.8752 36.1829ZM62.9045 38.5231C62.8205 38.5231 62.7364 38.5194 62.6511 38.5119L47.5527 37.1313L66.3939 26.2629C66.8995 25.9715 67.4965 25.8504 68.0737 25.9184L79.3008 27.2582C79.7458 27.3126 80.1055 27.6423 80.1957 28.0807C80.2872 28.5191 80.0869 28.9649 79.6988 29.1896L64.2654 38.1551C63.8476 38.3983 63.3816 38.5231 62.9045 38.5231Z" fill="#252323"/>
<path d="M21.2446 28.7687L21.5029 28.9181C21.7439 29.0564 21.9232 29.1058 22.0443 29.0651C22.163 29.0243 22.2235 28.8984 22.2235 28.6884C22.2235 28.476 22.1729 28.2908 22.0728 28.1315C21.9726 27.9734 21.8156 27.8314 21.6006 27.7079L21.2446 27.5029V28.7687ZM23.0146 29.1132C23.0146 29.5714 22.8898 29.8505 22.6413 29.9505C22.3929 30.0505 22.0394 29.9678 21.5808 29.7035L21.2446 29.5097V31.0261L20.4609 30.5742V26.31L21.6414 26.9917C22.0901 27.2498 22.4312 27.5573 22.6636 27.9154C22.8972 28.2723 23.0146 28.6712 23.0146 29.1132Z" fill="#252323"/>
<path d="M24.4907 30.5309L24.7428 30.6766C24.99 30.8186 25.173 30.8779 25.2917 30.8507C25.4091 30.8235 25.4684 30.7075 25.4684 30.5037C25.4684 30.3012 25.4091 30.1221 25.2879 29.9665C25.168 29.8121 24.9814 29.6615 24.728 29.5158L24.4907 29.3787V30.5309ZM24.4907 31.2656V32.9019L23.707 32.4499V28.1858L24.7836 28.8069C25.2855 29.0971 25.6575 29.417 25.8985 29.7665C26.1396 30.1159 26.2607 30.5062 26.2607 30.9359C26.2607 31.1866 26.2001 31.3756 26.0802 31.5015C25.9603 31.6275 25.791 31.6831 25.5722 31.6682C26.1284 32.9476 26.4918 33.7762 26.6599 34.1529L25.7898 33.6515L24.9072 31.5065L24.4907 31.2656Z" fill="#252323"/>
<path d="M27.1309 34.4209V30.158L27.9145 30.6087V34.8728L27.1309 34.4209Z" fill="#252323"/>
<path d="M32.121 37.3006L31.1248 36.7264L29.5167 32.5733L29.4944 32.5597C29.5266 33.1488 29.5426 33.5637 29.5426 33.807V35.8138L28.8418 35.4099V31.1457L29.8306 31.7163L31.4363 35.8348L31.4536 35.8446C31.4276 35.2766 31.4153 34.8777 31.4153 34.648V32.6301L32.121 33.0364V37.3006Z" fill="#252323"/>
<path d="M34.4787 38.6602L33.6951 38.2082V34.6974L32.6914 34.1182V33.3662L35.4824 34.9752V35.7285L34.4787 35.1493V38.6602Z" fill="#252323"/>
<path d="M41.7979 21.2852C45.3614 22.1632 45.3614 24.9294 41.7979 25.8087C40.8152 26.0507 39.7745 26.0507 38.7918 25.8087C35.2283 24.9294 35.2283 22.1632 38.7918 21.2852C39.7745 21.0431 40.8152 21.0431 41.7979 21.2852Z" fill="#EF4BA2"/>
<path d="M40.2926 21.7717C39.8414 21.7717 39.3891 21.8261 38.9503 21.9347C37.3533 22.3287 36.7872 23.0486 36.7872 23.5463C36.7872 24.0439 37.3533 24.7651 38.9503 25.159C39.8291 25.3751 40.7574 25.3751 41.635 25.159C43.232 24.7651 43.7981 24.0439 43.7981 23.5463C43.7981 23.0486 43.232 22.3287 41.6362 21.9347H41.635C41.1962 21.8261 40.745 21.7717 40.2926 21.7717ZM40.2926 26.6594C39.7327 26.6594 39.1727 26.5915 38.6289 26.4569C36.6673 25.9741 35.4473 24.859 35.4473 23.5463C35.4473 22.2348 36.6673 21.1197 38.6289 20.6356C39.7166 20.3677 40.8674 20.3677 41.9563 20.6356C43.9192 21.1197 45.1379 22.2348 45.1379 23.5463C45.1379 24.859 43.9192 25.9741 41.9551 26.4569C41.4125 26.5915 40.8525 26.6594 40.2926 26.6594Z" fill="#252323"/>
<path d="M40.2942 15.1289C38.806 15.1289 37.5996 16.3342 37.5996 17.821V21.6356C37.5996 22.2234 38.1744 22.8112 39.3239 23.0952C39.958 23.2521 40.6304 23.2521 41.2645 23.0952C42.4141 22.8112 42.9888 22.2234 42.9888 21.6356V17.821C42.9888 16.3342 41.7824 15.1289 40.2942 15.1289Z" fill="white"/>
<path d="M40.2903 15.7984C39.1742 15.7984 38.2657 16.7061 38.2657 17.8212V21.6359C38.2657 21.8408 38.5895 22.2261 39.4807 22.4459C40.0097 22.5756 40.5697 22.5756 41.1012 22.4459C41.9924 22.2261 42.3162 21.8408 42.3162 21.6359V17.8212C42.3162 16.7061 41.4065 15.7984 40.2903 15.7984ZM40.2903 23.8821C39.9096 23.8821 39.5302 23.8365 39.1593 23.7451C37.5129 23.3388 36.9258 22.3891 36.9258 21.6359V17.8212C36.9258 15.9676 38.435 14.4598 40.2903 14.4598C42.1456 14.4598 43.6561 15.9676 43.6561 17.8212V21.6359C43.6561 22.3891 43.0689 23.3388 41.4225 23.7451C41.0517 23.8365 40.671 23.8821 40.2903 23.8821Z" fill="#252323"/>
<path d="M40.2903 23.8821C39.9096 23.8821 39.5302 23.8365 39.1593 23.7451C37.5129 23.3388 36.9258 22.3891 36.9258 21.6359C36.9258 20.8826 37.5129 19.9329 39.1593 19.5266L39.4807 20.8257C38.5883 21.0456 38.2657 21.4309 38.2657 21.6359C38.2657 21.8408 38.5883 22.2261 39.4807 22.4459C40.0097 22.5756 40.5697 22.5756 41.1012 22.4459C41.9924 22.2261 42.3162 21.8408 42.3162 21.6359C42.3162 21.4309 41.9924 21.0456 41.0999 20.8257L41.4225 19.5266C43.0689 19.9329 43.6548 20.8826 43.6548 21.6359C43.6548 22.3891 43.0689 23.3388 41.4225 23.7451C41.0517 23.8365 40.671 23.8821 40.2903 23.8821Z" fill="#252323"/>
<path d="M43.1763 139.325L41.8957 140.063C41.7635 140.138 41.5348 140.128 41.3828 140.042L40.1764 139.345C40.0244 139.258 40.0083 139.126 40.1393 139.05L41.4199 138.312C41.5509 138.235 41.7808 138.245 41.9316 138.333L43.1392 139.028C43.29 139.116 43.3073 139.248 43.1763 139.325Z" fill="#252323"/>
<path d="M46.3287 141.144L45.0481 141.882C44.9158 141.957 44.6872 141.947 44.5351 141.861L43.3287 141.164C43.1767 141.077 43.1606 140.945 43.2917 140.869L44.5722 140.13C44.7033 140.055 44.9331 140.064 45.0839 140.152L46.2916 140.847C46.4436 140.935 46.4597 141.067 46.3287 141.144Z" fill="#252323"/>
<path d="M43.1919 142.954L41.9114 143.693C41.7804 143.768 41.5504 143.759 41.3984 143.671L40.192 142.975C40.04 142.887 40.0239 142.755 40.155 142.68L41.4355 141.941C41.5665 141.865 41.7964 141.874 41.9485 141.962L43.1549 142.659C43.3069 142.746 43.3229 142.878 43.1919 142.954Z" fill="#252323"/>
<path d="M49.3137 142.861L48.0332 143.601C47.9022 143.676 47.6735 143.666 47.5214 143.579L46.3151 142.883C46.163 142.796 46.147 142.664 46.278 142.587L47.5585 141.848C47.6896 141.773 47.9195 141.783 48.0703 141.869L49.2779 142.566C49.4287 142.654 49.446 142.786 49.3137 142.861Z" fill="#252323"/>
<path d="M46.1744 144.673L44.8938 145.411C44.7615 145.487 44.5329 145.478 44.3808 145.391L43.1745 144.694C43.0224 144.606 43.0063 144.474 43.1374 144.399L44.4179 143.66C44.5489 143.584 44.7788 143.594 44.9296 143.681L46.1373 144.378C46.2881 144.465 46.3054 144.596 46.1744 144.673Z" fill="#252323"/>
<path d="M52.2911 144.58L51.0106 145.319C50.8795 145.395 50.6496 145.385 50.4988 145.298L49.2912 144.601C49.1404 144.515 49.1231 144.383 49.2541 144.306L50.5359 143.568C50.667 143.492 50.8956 143.501 51.0476 143.588L52.254 144.285C52.4061 144.373 52.4221 144.505 52.2911 144.58Z" fill="#252323"/>
<path d="M49.1542 146.392L47.8736 147.131C47.7426 147.206 47.514 147.196 47.3619 147.109L46.1543 146.413C46.0035 146.325 45.9862 146.193 46.1185 146.118L47.399 145.378C47.53 145.303 47.7587 145.313 47.9107 145.4L49.1171 146.096C49.2691 146.183 49.2852 146.315 49.1542 146.392Z" fill="#252323"/>
<path d="M55.4452 146.399L54.1646 147.138C54.0336 147.214 53.8037 147.204 53.6529 147.116L52.4453 146.42C52.2945 146.333 52.2772 146.2 52.4095 146.125L53.69 145.387C53.821 145.311 54.0497 145.32 54.2017 145.407L55.4081 146.104C55.5602 146.192 55.5762 146.324 55.4452 146.399Z" fill="#252323"/>
<path d="M52.3065 148.21L51.026 148.949C50.895 149.025 50.6663 149.015 50.5143 148.927L49.3066 148.232C49.1558 148.144 49.1385 148.012 49.2708 147.936L50.5513 147.197C50.6824 147.122 50.9111 147.132 51.0631 147.218L52.2707 147.914C52.4215 148.002 52.4388 148.134 52.3065 148.21Z" fill="#252323"/>
<path d="M58.5821 144.589L57.3016 145.327C57.1706 145.403 56.9406 145.393 56.7898 145.306L55.5822 144.61C55.4314 144.522 55.4141 144.39 55.5452 144.315L56.8257 143.575C56.9579 143.5 57.1866 143.51 57.3387 143.597L58.545 144.293C58.697 144.38 58.7131 144.512 58.5821 144.589Z" fill="#252323"/>
<path d="M61.7212 142.778L60.4407 143.516C60.3096 143.592 60.0798 143.583 59.929 143.495L58.7213 142.798C58.5693 142.712 58.5532 142.58 58.6842 142.503L59.9648 141.765C60.0971 141.689 60.3257 141.698 60.4778 141.786L61.6841 142.482C61.8362 142.57 61.8523 142.702 61.7212 142.778Z" fill="#252323"/>
<path d="M64.8638 140.967L63.5833 141.705C63.4523 141.781 63.2223 141.772 63.0703 141.684L61.8639 140.988C61.7119 140.9 61.6958 140.768 61.8268 140.693L63.1074 139.954C63.2384 139.878 63.4683 139.887 63.6203 139.975L64.8267 140.672C64.9788 140.758 64.9948 140.891 64.8638 140.967Z" fill="#252323"/>
<path d="M68.0044 139.155L66.7239 139.895C66.5928 139.97 66.3629 139.96 66.2109 139.873L65.0045 139.177C64.8525 139.09 64.8364 138.957 64.9674 138.881L66.248 138.143C66.379 138.067 66.6089 138.077 66.7597 138.163L67.9673 138.86C68.1194 138.948 68.1354 139.08 68.0044 139.155Z" fill="#252323"/>
<path d="M71.1411 137.345L69.8606 138.084C69.7283 138.16 69.4997 138.15 69.3476 138.062L68.1412 137.366C67.9892 137.278 67.9731 137.146 68.1042 137.071L69.3847 136.332C69.5157 136.257 69.7456 136.266 69.8964 136.353L71.1041 137.05C71.2549 137.138 71.2722 137.27 71.1411 137.345Z" fill="#252323"/>
<path d="M74.2786 135.534L72.998 136.273C72.867 136.348 72.6383 136.338 72.4863 136.252L71.2799 135.556C71.1279 135.468 71.1118 135.336 71.2428 135.26L72.5234 134.52C72.6544 134.445 72.8843 134.455 73.0351 134.543L74.2427 135.238C74.3935 135.326 74.4108 135.458 74.2786 135.534Z" fill="#252323"/>
<path d="M77.4192 133.723L76.1386 134.461C76.0076 134.538 75.779 134.528 75.6269 134.44L74.4205 133.744C74.2685 133.657 74.2524 133.525 74.3835 133.449L75.664 132.71C75.795 132.635 76.0237 132.643 76.1757 132.731L77.3833 133.428C77.5341 133.516 77.5515 133.647 77.4192 133.723Z" fill="#252323"/>
<path d="M80.5605 131.913L79.2799 132.651C79.1489 132.727 78.9202 132.718 78.7682 132.63L77.5606 131.933C77.4098 131.846 77.3924 131.714 77.5247 131.638L78.8053 130.9C78.9363 130.824 79.165 130.833 79.317 130.921L80.5234 131.618C80.6754 131.704 80.6915 131.837 80.5605 131.913Z" fill="#252323"/>
<path d="M83.6972 130.101L82.4166 130.841C82.2856 130.916 82.0557 130.906 81.9049 130.819L80.6973 130.123C80.5465 130.035 80.5292 129.904 80.6614 129.827L81.9419 129.088C82.073 129.013 82.3017 129.023 82.4537 129.109L83.6601 129.806C83.8121 129.893 83.8282 130.026 83.6972 130.101Z" fill="#252323"/>
<path d="M86.838 128.29L85.5574 129.029C85.4264 129.106 85.1965 129.096 85.0457 129.008L83.8381 128.312C83.6873 128.224 83.67 128.092 83.801 128.016L85.0816 127.278C85.2138 127.203 85.4425 127.211 85.5945 127.299L86.8009 127.995C86.9529 128.083 86.969 128.215 86.838 128.29Z" fill="#252323"/>
<path d="M89.9771 126.48L88.6965 127.219C88.5655 127.294 88.3356 127.284 88.1848 127.198L86.9772 126.501C86.8251 126.414 86.8091 126.281 86.9401 126.206L88.2207 125.466C88.3529 125.391 88.5816 125.401 88.7336 125.489L89.94 126.184C90.0921 126.272 90.1081 126.404 89.9771 126.48Z" fill="#252323"/>
<path d="M93.1177 124.669L91.8372 125.407C91.7061 125.484 91.4762 125.474 91.3242 125.386L90.1178 124.69C89.9658 124.603 89.9497 124.471 90.0807 124.394L91.3613 123.656C91.4923 123.581 91.7222 123.589 91.8742 123.677L93.0806 124.373C93.2327 124.461 93.2487 124.594 93.1177 124.669Z" fill="#252323"/>
<path d="M96.2603 122.858L94.9797 123.597C94.8475 123.672 94.6188 123.663 94.4668 123.576L93.2604 122.879C93.1084 122.792 93.0923 122.66 93.2233 122.584L94.5039 121.846C94.6349 121.769 94.8648 121.779 95.0156 121.867L96.2232 122.563C96.3752 122.65 96.3913 122.783 96.2603 122.858Z" fill="#252323"/>
<path d="M99.3951 121.047L98.1145 121.787C97.9822 121.862 97.7536 121.852 97.6015 121.765L96.3952 121.069C96.2431 120.982 96.227 120.849 96.3581 120.773L97.6386 120.034C97.7696 119.959 97.9995 119.969 98.1503 120.055L99.358 120.751C99.5088 120.839 99.5261 120.971 99.3951 121.047Z" fill="#252323"/>
<path d="M102.536 119.236L101.256 119.975C101.125 120.051 100.896 120.041 100.744 119.954L99.5377 119.257C99.3857 119.17 99.3696 119.038 99.5006 118.962L100.781 118.224C100.912 118.148 101.142 118.157 101.293 118.245L102.501 118.941C102.651 119.029 102.669 119.161 102.536 119.236Z" fill="#252323"/>
<path d="M58.4283 148.119L57.1477 148.857C57.0167 148.932 56.7868 148.924 56.636 148.836L55.4284 148.139C55.2763 148.052 55.2602 147.919 55.3913 147.844L56.6718 147.106C56.8028 147.029 57.0328 147.039 57.1848 147.127L58.3912 147.823C58.5432 147.911 58.5593 148.043 58.4283 148.119Z" fill="#252323"/>
<path d="M61.5611 146.308L60.2805 147.046C60.1495 147.122 59.9196 147.111 59.7676 147.024L58.5612 146.329C58.4091 146.241 58.3931 146.109 58.5241 146.032L59.8047 145.294C59.9357 145.219 60.1656 145.228 60.3176 145.315L61.524 146.011C61.676 146.099 61.6921 146.231 61.5611 146.308Z" fill="#252323"/>
<path d="M64.7037 144.496L63.4231 145.235C63.2909 145.311 63.0622 145.301 62.9101 145.213L61.7037 144.517C61.5517 144.43 61.5357 144.297 61.6667 144.222L62.9472 143.484C63.0782 143.408 63.3082 143.417 63.459 143.504L64.6666 144.201C64.8186 144.289 64.8347 144.421 64.7037 144.496Z" fill="#252323"/>
<path d="M67.8404 142.686L66.5598 143.424C66.4275 143.499 66.1989 143.49 66.0469 143.403L64.8405 142.707C64.6884 142.619 64.6724 142.487 64.8034 142.412L66.0839 141.673C66.2149 141.597 66.4449 141.607 66.5957 141.694L67.8033 142.391C67.9541 142.477 67.9714 142.609 67.8404 142.686Z" fill="#252323"/>
<path d="M70.9797 140.875L69.6992 141.613C69.5682 141.689 69.3395 141.68 69.1875 141.592L67.9811 140.895C67.8291 140.809 67.813 140.677 67.944 140.6L69.2246 139.861C69.3556 139.786 69.5855 139.795 69.7363 139.883L70.9439 140.579C71.0947 140.667 71.112 140.799 70.9797 140.875Z" fill="#252323"/>
<path d="M74.119 139.064L72.8385 139.802C72.7075 139.878 72.4788 139.869 72.3268 139.781L71.1191 139.085C70.9683 138.997 70.951 138.865 71.0833 138.79L72.3638 138.051C72.4949 137.975 72.7236 137.984 72.8756 138.072L74.0832 138.769C74.234 138.855 74.2513 138.988 74.119 139.064Z" fill="#252323"/>
<path d="M77.2597 137.254L75.9791 137.992C75.8481 138.068 75.6182 138.057 75.4674 137.97L74.2598 137.274C74.109 137.187 74.0917 137.055 74.2239 136.978L75.5045 136.24C75.6355 136.165 75.8642 136.174 76.0162 136.26L77.2226 136.957C77.3746 137.045 77.3907 137.177 77.2597 137.254Z" fill="#252323"/>
<path d="M80.4005 135.442L79.12 136.181C78.9889 136.257 78.759 136.247 78.6082 136.159L77.4006 135.463C77.2498 135.375 77.2325 135.243 77.3635 135.168L78.6441 134.429C78.7763 134.354 79.005 134.363 79.157 134.45L80.3634 135.147C80.5154 135.235 80.5315 135.367 80.4005 135.442Z" fill="#252323"/>
<path d="M83.5396 133.632L82.259 134.37C82.128 134.445 81.8981 134.436 81.7473 134.349L80.5397 133.653C80.3877 133.565 80.3716 133.433 80.5026 133.358L81.7832 132.619C81.9154 132.542 82.1441 132.553 82.2961 132.64L83.5025 133.335C83.6545 133.423 83.6706 133.555 83.5396 133.632Z" fill="#252323"/>
<path d="M86.6783 131.82L85.3977 132.559C85.2667 132.635 85.0368 132.626 84.8848 132.538L83.6784 131.841C83.5263 131.755 83.5102 131.623 83.6413 131.546L84.9218 130.807C85.0529 130.732 85.2828 130.741 85.4348 130.829L86.6412 131.525C86.7932 131.613 86.8093 131.745 86.6783 131.82Z" fill="#252323"/>
<path d="M89.8169 130.01L88.5364 130.748C88.4053 130.824 88.1754 130.815 88.0234 130.727L86.817 130.031C86.665 129.943 86.6489 129.811 86.7799 129.735L88.0605 128.997C88.1915 128.921 88.4214 128.93 88.5722 129.018L89.7798 129.715C89.9319 129.801 89.9479 129.935 89.8169 130.01Z" fill="#252323"/>
<path d="M92.9595 128.199L91.6789 128.938C91.5467 129.013 91.318 129.003 91.166 128.916L89.9596 128.22C89.8076 128.132 89.7915 128.001 89.9225 127.924L91.2031 127.185C91.3341 127.11 91.564 127.12 91.7148 127.206L92.9224 127.903C93.0732 127.991 93.0905 128.123 92.9595 128.199Z" fill="#252323"/>
<path d="M96.095 126.387L94.8144 127.126C94.6834 127.203 94.4547 127.193 94.3027 127.105L93.0963 126.409C92.9443 126.321 92.9282 126.189 93.0593 126.113L94.3398 125.375C94.4708 125.3 94.7007 125.308 94.8515 125.396L96.0591 126.092C96.2099 126.18 96.2272 126.312 96.095 126.387Z" fill="#252323"/>
<path d="M99.2356 124.577L97.955 125.316C97.824 125.391 97.5954 125.381 97.4433 125.295L96.237 124.598C96.0849 124.511 96.0688 124.379 96.1999 124.303L97.4804 123.565C97.6114 123.488 97.8401 123.498 97.9921 123.586L99.1998 124.281C99.3506 124.369 99.3679 124.501 99.2356 124.577Z" fill="#252323"/>
<path d="M102.379 122.766L101.098 123.504C100.967 123.581 100.739 123.571 100.587 123.483L99.3789 122.786C99.2281 122.7 99.2108 122.568 99.3431 122.491L100.624 121.753C100.755 121.677 100.983 121.686 101.135 121.774L102.342 122.47C102.494 122.558 102.51 122.691 102.379 122.766Z" fill="#252323"/>
<path d="M105.516 120.955L104.235 121.694C104.104 121.769 103.874 121.761 103.723 121.673L102.516 120.976C102.365 120.889 102.348 120.757 102.48 120.681L103.76 119.943C103.891 119.866 104.12 119.876 104.272 119.964L105.478 120.66C105.63 120.747 105.647 120.88 105.516 120.955Z" fill="#252323"/>
<path d="M105.664 117.433L104.383 118.172C104.252 118.248 104.024 118.239 103.872 118.151L102.664 117.454C102.513 117.366 102.496 117.235 102.628 117.159L103.909 116.42C104.04 116.345 104.268 116.354 104.42 116.442L105.628 117.138C105.779 117.226 105.795 117.358 105.664 117.433Z" fill="#252323"/>
<path d="M3.12428 116.059L1.84372 116.797C1.7127 116.874 1.48404 116.864 1.33201 116.776L0.125624 116.08C-0.0264096 115.994 -0.0424843 115.861 0.0885367 115.785L1.3691 115.046C1.50012 114.971 1.73001 114.98 1.88081 115.067L3.08843 115.764C3.23922 115.851 3.25653 115.983 3.12428 116.059Z" fill="#252323"/>
<path d="M6.27787 117.878L4.9973 118.617C4.86505 118.693 4.63639 118.683 4.48436 118.596L3.27797 117.899C3.12593 117.812 3.10986 117.679 3.24088 117.604L4.52144 116.866C4.65246 116.79 4.88236 116.799 5.03316 116.887L6.24078 117.583C6.39158 117.671 6.40889 117.803 6.27787 117.878Z" fill="#252323"/>
<path d="M3.13921 119.688L1.85864 120.428C1.72638 120.504 1.49772 120.493 1.34569 120.406L0.139297 119.711C-0.0127379 119.623 -0.0288127 119.491 0.102209 119.414L1.38275 118.676C1.51377 118.601 1.74369 118.61 1.89449 118.697L3.10212 119.393C3.25415 119.481 3.27023 119.613 3.13921 119.688Z" fill="#252323"/>
<path d="M9.25967 119.597L7.97911 120.336C7.84809 120.411 7.61943 120.402 7.4674 120.314L6.25977 119.618C6.10897 119.531 6.09166 119.398 6.22392 119.323L7.50445 118.585C7.63548 118.508 7.86416 118.518 8.0162 118.605L9.22382 119.302C9.37462 119.388 9.39069 119.522 9.25967 119.597Z" fill="#252323"/>
<path d="M6.11651 121.408L4.83596 122.146C4.70494 122.222 4.47625 122.212 4.32421 122.125L3.11781 121.428C2.96578 121.342 2.9497 121.21 3.08073 121.133L4.3613 120.395C4.49232 120.319 4.72098 120.329 4.87302 120.416L6.08066 121.112C6.23146 121.2 6.24876 121.332 6.11651 121.408Z" fill="#252323"/>
<path d="M12.2388 121.316L10.9583 122.054C10.8273 122.13 10.5973 122.121 10.4465 122.034L9.23891 121.337C9.08687 121.249 9.0708 121.117 9.20182 121.042L10.4824 120.303C10.6146 120.227 10.8433 120.237 10.9953 120.324L12.2017 121.021C12.3538 121.107 12.3698 121.24 12.2388 121.316Z" fill="#252323"/>
<path d="M9.09776 123.126L7.8172 123.865C7.68618 123.942 7.45629 123.931 7.30549 123.844L6.09787 123.148C5.94707 123.061 5.92976 122.928 6.06078 122.852L7.34255 122.114C7.47357 122.038 7.70225 122.047 7.85429 122.135L9.06068 122.831C9.21271 122.919 9.22879 123.051 9.09776 123.126Z" fill="#252323"/>
<path d="M15.3907 123.135L14.1102 123.873C13.9791 123.948 13.7493 123.939 13.5985 123.853L12.3908 123.156C12.24 123.068 12.2227 122.936 12.3537 122.861L13.6343 122.121C13.7666 122.046 13.9952 122.056 14.1473 122.143L15.3536 122.839C15.5057 122.926 15.5218 123.058 15.3907 123.135Z" fill="#252323"/>
<path d="M12.2499 124.945L10.9694 125.684C10.8383 125.759 10.6084 125.75 10.4576 125.663L9.25001 124.966C9.09921 124.879 9.0819 124.746 9.21416 124.671L10.4947 123.933C10.6257 123.857 10.8544 123.866 11.0064 123.953L12.2128 124.65C12.3649 124.738 12.381 124.87 12.2499 124.945Z" fill="#252323"/>
<path d="M18.5337 121.324L17.2532 122.062C17.1222 122.138 16.8922 122.129 16.7414 122.041L15.5338 121.344C15.3818 121.258 15.3657 121.124 15.4967 121.049L16.7773 120.311C16.9095 120.235 17.1382 120.244 17.2903 120.332L18.4967 121.028C18.6487 121.116 18.6647 121.248 18.5337 121.324Z" fill="#252323"/>
<path d="M21.6705 119.513L20.3899 120.252C20.2589 120.327 20.029 120.318 19.8769 120.23L18.6705 119.534C18.5185 119.446 18.5024 119.314 18.6335 119.238L19.914 118.5C20.045 118.424 20.2749 118.433 20.427 118.521L21.6334 119.218C21.7854 119.304 21.8015 119.436 21.6705 119.513Z" fill="#252323"/>
<path d="M18.3658 124.853L17.0852 125.593C16.9542 125.668 16.7243 125.658 16.5723 125.57L15.3659 124.875C15.2138 124.787 15.1977 124.655 15.3288 124.579L16.6093 123.84C16.7403 123.765 16.9703 123.774 17.1211 123.861L18.3287 124.557C18.4807 124.645 18.4968 124.777 18.3658 124.853Z" fill="#252323"/>
<path d="M21.5123 123.042L20.2317 123.781C20.0994 123.856 19.8708 123.847 19.7187 123.76L18.5123 123.063C18.3603 122.976 18.3442 122.843 18.4753 122.768L19.7558 122.03C19.8868 121.954 20.1167 121.963 20.2675 122.05L21.4752 122.747C21.6272 122.835 21.6433 122.967 21.5123 123.042Z" fill="#252323"/>
<path d="M24.649 121.232L23.3684 121.97C23.2362 122.046 23.0075 122.036 22.8555 121.95L21.649 121.253C21.497 121.165 21.481 121.033 21.612 120.958L22.8925 120.218C23.0236 120.143 23.2535 120.153 23.4043 120.241L24.6119 120.936C24.7627 121.023 24.78 121.155 24.649 121.232Z" fill="#252323"/>
<path d="M27.6288 122.95L26.3482 123.69C26.2172 123.765 25.9873 123.755 25.8365 123.667L24.6289 122.972C24.4781 122.884 24.4608 122.752 24.5931 122.676L25.8736 121.937C26.0046 121.862 26.2333 121.871 26.3853 121.958L27.5917 122.654C27.7437 122.742 27.7598 122.874 27.6288 122.95Z" fill="#252323"/>
<path d="M24.4935 124.761L23.213 125.5C23.082 125.575 22.8533 125.567 22.7013 125.479L21.4936 124.782C21.3428 124.694 21.3268 124.563 21.4578 124.487L22.7383 123.748C22.8693 123.672 23.098 123.682 23.2501 123.77L24.4577 124.466C24.6085 124.553 24.6258 124.686 24.4935 124.761Z" fill="#252323"/>
<path d="M30.7792 124.769L29.4986 125.507C29.3676 125.584 29.139 125.574 28.9869 125.486L27.7793 124.79C27.6285 124.703 27.6112 124.571 27.7435 124.495L29.024 123.756C29.155 123.681 29.3837 123.689 29.5357 123.777L30.7434 124.473C30.8942 124.561 30.9115 124.693 30.7792 124.769Z" fill="#252323"/>
<path d="M27.6458 126.581L26.3652 127.319C26.2342 127.394 26.0055 127.384 25.8535 127.298L24.6471 126.601C24.4951 126.514 24.479 126.381 24.61 126.306L25.8905 125.567C26.0216 125.491 26.2515 125.501 26.4023 125.589L27.6099 126.284C27.7607 126.372 27.778 126.504 27.6458 126.581Z" fill="#252323"/>
<path d="M33.7618 126.488L32.4813 127.226C32.3502 127.303 32.1204 127.293 31.9696 127.205L30.7619 126.509C30.6111 126.421 30.5938 126.289 30.7248 126.213L32.0054 125.475C32.1376 125.399 32.3663 125.408 32.5184 125.496L33.7247 126.193C33.8768 126.28 33.8928 126.412 33.7618 126.488Z" fill="#252323"/>
<path d="M30.6249 128.299L29.3444 129.038C29.2133 129.113 28.9834 129.103 28.8326 129.016L27.625 128.32C27.4742 128.233 27.4569 128.101 27.5892 128.024L28.8697 127.285C29.0007 127.21 29.2294 127.22 29.3814 127.307L30.5878 128.003C30.7398 128.09 30.7559 128.223 30.6249 128.299Z" fill="#252323"/>
<path d="M36.7427 128.207L35.4622 128.945C35.3312 129.02 35.1012 129.012 34.9492 128.924L33.7428 128.228C33.5908 128.14 33.5747 128.008 33.7057 127.933L34.9863 127.194C35.1173 127.117 35.3472 127.127 35.498 127.215L36.7056 127.911C36.8577 127.999 36.8737 128.131 36.7427 128.207Z" fill="#252323"/>
<path d="M33.6021 130.017L32.3215 130.756C32.1905 130.832 31.9606 130.822 31.8086 130.734L30.6022 130.039C30.4502 129.951 30.4341 129.819 30.5651 129.743L31.8457 129.004C31.9767 128.929 32.2066 128.939 32.3586 129.025L33.565 129.722C33.717 129.81 33.7331 129.942 33.6021 130.017Z" fill="#252323"/>
<path d="M39.897 130.026L38.6165 130.764C38.4854 130.84 38.2555 130.831 38.1035 130.743L36.8971 130.047C36.7451 129.959 36.729 129.827 36.86 129.752L38.1406 129.013C38.2716 128.937 38.5015 128.947 38.6535 129.034L39.8599 129.73C40.012 129.817 40.028 129.949 39.897 130.026Z" fill="#252323"/>
<path d="M36.7583 131.836L35.4778 132.575C35.3468 132.651 35.1169 132.641 34.9661 132.553L33.7584 131.857C33.6064 131.771 33.5903 131.637 33.7213 131.562L35.0019 130.824C35.1341 130.748 35.3628 130.757 35.5149 130.844L36.7213 131.541C36.8733 131.629 36.8894 131.761 36.7583 131.836Z" fill="#252323"/>
<path d="M39.7349 133.555L38.4544 134.293C38.3221 134.369 38.0934 134.36 37.9414 134.273L36.735 133.576C36.583 133.488 36.5669 133.356 36.6979 133.281L37.9785 132.542C38.1095 132.467 38.3394 132.476 38.4902 132.563L39.6978 133.26C39.8486 133.347 39.8659 133.48 39.7349 133.555Z" fill="#252323"/>
</svg>
