<svg width="130" height="174" viewBox="0 0 130 174" fill="none" xmlns="http://www.w3.org/2000/svg">
<path d="M125.823 118.913C125.687 118.913 125.552 118.904 125.414 118.887C124.465 118.766 122.751 118.102 121.938 115.01L123.459 114.609C123.887 116.238 124.652 117.202 125.613 117.324C126.46 117.443 127.408 116.845 127.956 115.862C128.77 114.403 128.502 112.593 127.235 111.019C122.668 105.343 122.733 99.0254 122.739 98.7581L124.311 98.7871C124.311 98.8467 124.264 104.817 128.458 110.03C130.142 112.122 130.468 114.59 129.331 116.63C128.538 118.051 127.193 118.913 125.823 118.913" fill="#252323"/>
<path d="M15.4903 138.06C15.4903 138.06 22.7558 136.262 30.6588 130.281C38.5604 124.302 14.4234 116.897 14.4234 116.897L12.4129 125.725C12.4129 125.725 11.6933 132.133 12.4129 132.275C13.1309 132.418 15.4903 138.06 15.4903 138.06" fill="#252323"/>
<path d="M12.7043 131.718C13.1605 132.057 13.963 133.172 15.6208 137.181C17.5038 136.59 23.3096 134.503 29.4603 129.7C30.8772 128.594 30.7247 127.718 30.6748 127.431C30.0376 123.763 19.5949 119.548 14.7057 117.912L12.9338 125.93C12.6958 128.161 12.5518 130.933 12.7043 131.718ZM14.7156 139.068L14.4605 138.438C13.5596 136.216 12.348 133.608 11.8747 133.069C11.2932 132.905 10.6987 132.239 11.4129 125.669L13.5682 115.89L14.3664 116.143C16.0897 116.688 31.2364 121.633 32.1957 127.154C32.4395 128.556 31.8351 129.834 30.3983 130.957C22.6738 136.987 15.6564 138.826 15.3613 138.901L14.7156 139.068Z" fill="#252323"/>
<path d="M123.369 87.6731H2.60333C2.27393 87.6731 2.01071 87.9422 2.01791 88.2686L3.04495 129.22C3.04495 130.693 3.77856 132.166 5.24291 133.008L14.0506 138.069C14.7554 138.474 15.6372 137.967 15.6372 137.157V133.342C15.6372 132.532 16.519 132.024 17.2238 132.43L45.7944 148.846C47.0416 149.564 47.8111 150.89 47.8111 152.323V155.15C47.8111 156.585 48.5793 157.911 49.8279 158.628L57.2014 162.864C60.4408 164.727 64.434 164.727 67.6734 162.864L119.632 133.007C121.098 132.165 121.83 130.692 121.83 129.219L123.953 88.2844C123.97 87.9522 123.704 87.6731 123.369 87.6731" fill="#EF4BA2"/>
<path d="M16.3982 130.538C16.7132 130.538 17.0268 130.621 17.3147 130.789L45.7563 147.304C47.2328 148.162 48.1521 149.76 48.1521 151.476V154.321C48.1521 155.481 48.7722 156.561 49.7717 157.142L57.1124 161.406C60.0867 163.131 63.7842 163.134 66.7614 161.406L118.488 131.371C119.615 130.715 120.288 129.543 120.288 128.235L122.392 87.2203H2.56758L3.58574 128.215C3.58574 129.543 4.2588 130.715 5.38581 131.371L14.1542 136.462C14.2745 136.532 14.3819 136.492 14.432 136.462C14.4836 136.431 14.5695 136.359 14.5695 136.22V132.382C14.5695 131.716 14.9117 131.12 15.4845 130.787C15.7709 130.621 16.0846 130.538 16.3982 130.538V130.538ZM61.9369 164.261C59.9994 164.261 58.0647 163.76 56.3362 162.756L48.9942 158.493C47.5177 157.636 46.5998 156.036 46.5998 154.321V151.476C46.5998 150.317 45.9797 149.235 44.9802 148.655L16.5371 132.14C16.4168 132.072 16.3122 132.109 16.2607 132.14C16.2091 132.17 16.1218 132.242 16.1218 132.382V136.22C16.1218 136.885 15.7795 137.48 15.2067 137.814C14.6339 138.144 13.9508 138.146 13.378 137.812L4.60966 132.721C2.99719 131.785 2.03343 130.107 2.03343 128.235L1.01094 87.059C1.00235 86.6874 1.13985 86.3374 1.39762 86.071C1.65538 85.8045 2.00047 85.6576 2.36994 85.6576H122.596C122.967 85.6576 123.327 85.8146 123.582 86.0839C123.835 86.3547 123.971 86.7234 123.953 87.095L121.84 128.274C121.84 130.107 120.877 131.785 119.264 132.721L67.5376 162.756C65.8106 163.76 63.873 164.261 61.9369 164.261" fill="#252323"/>
<path d="M68.1461 162.9L116 135.114L117.905 88.5397L73.5356 87.6731L63.4871 94.2018V164.261C65.0998 164.175 66.6981 163.736 68.1461 162.9" fill="#252323"/>
<path d="M64.0458 93.4291V162.582C65.3057 162.415 66.4877 162.016 67.5672 161.394L115.415 133.675L117.285 88.0782L73.6144 87.2257L64.0458 93.4291ZM62.4799 164.261V92.5824L73.1655 85.6576L118.913 86.5489L116.943 134.595L116.572 134.811L68.3495 162.746C66.8225 163.626 65.1239 164.12 63.3054 164.218L62.4799 164.261" fill="#252323"/>
<path d="M2.62958 87.6731C2.28541 87.6731 2.0104 87.9419 2.01791 88.2679L3.09098 129.164C3.09098 130.636 3.85748 132.107 5.38746 132.948L7.3563 134.029L6.45455 92.7073L8.06418 87.6731H2.62958Z" fill="#252323"/>
<path d="M2.66559 88.2128L3.74783 128.81C3.74783 130.124 4.46327 131.285 5.66122 131.935L6.3873 132.327L5.50139 92.3546L6.847 88.2128H2.66559ZM8.09823 135.037L4.83621 133.272C3.12224 132.345 2.09782 130.683 2.09782 128.829L1.01096 88.0516C1.00183 87.6837 1.14799 87.3385 1.42198 87.0746C1.69597 86.8108 2.06279 86.6653 2.45551 86.6653H9.07244L7.15601 92.5685L8.09823 135.037" fill="#252323"/>
<path d="M121.698 90.577L68.0602 121.582C64.9198 123.398 61.0503 123.398 57.9099 121.582L4.27386 90.577C1.26573 88.8379 1.26573 84.4914 4.27386 82.7537L57.9113 51.7485C61.0518 49.933 64.9212 49.933 68.0616 51.7485L121.698 82.7537C124.706 84.4914 124.706 88.8379 121.698 90.577" fill="white"/>
<path d="M62.4824 50.9486C60.8691 50.9486 59.2572 51.3688 57.8186 52.2076L4.42042 83.4089C3.25661 84.0883 2.56229 85.3052 2.56229 86.6656C2.56229 88.0231 3.25661 89.2429 4.42042 89.9223L57.8171 121.122C60.693 122.801 64.2704 122.803 67.1463 121.122L120.544 89.9209C121.708 89.2414 122.403 88.0231 122.403 86.6656C122.403 85.3067 121.708 84.0883 120.544 83.4089L67.1463 52.2076C65.7091 51.3688 64.0943 50.9486 62.4824 50.9486V50.9486ZM62.4824 123.952C60.6 123.952 58.719 123.462 57.0413 122.481L3.64452 91.2812C1.99542 90.3178 1.01056 88.591 1.01056 86.6641C1.01199 84.7373 1.99542 83.0119 3.64452 82.0499L57.0427 50.8487C60.3982 48.8885 64.5667 48.89 67.9236 50.8487L121.32 82.0499C122.969 83.0119 123.954 84.7373 123.954 86.6656C123.954 88.5924 122.969 90.3178 121.32 91.2798L67.9236 122.481C66.2444 123.462 64.3634 123.952 62.4824 123.952Z" fill="#252323"/>
<path d="M56.9951 162.245L56.4333 120.953L57.8869 120.928L58.4488 162.222L56.9951 162.245Z" fill="#252323"/>
<path d="M18.0648 124.824L14.1822 122.488C13.5851 122.128 13.1003 121.163 13.1003 120.334V112.847C13.1003 112.017 13.5851 111.634 14.1822 111.994L18.0648 114.33C18.6619 114.69 19.1467 115.655 19.1467 116.485V123.972C19.1467 124.803 18.6619 125.183 18.0648 124.824Z" fill="white"/>
<path d="M13.694 112.506C13.6867 112.55 13.6823 112.603 13.6823 112.668V120.397C13.6823 121.011 14.0913 121.724 14.4432 121.928L18.554 124.313C18.5614 124.27 18.5658 124.216 18.5658 124.151V116.424C18.5658 115.81 18.1567 115.095 17.8049 114.892L13.694 112.506ZM18.664 125.967C18.3825 125.967 18.0878 125.885 17.8049 125.721L13.6486 123.31C12.7616 122.797 12.0931 121.544 12.0931 120.397V112.668C12.0931 111.926 12.3834 111.331 12.8906 111.036C13.351 110.769 13.9169 110.791 14.4432 111.099L18.5995 113.509C19.4865 114.023 20.155 115.275 20.155 116.424V124.151C20.155 124.895 19.8647 125.49 19.3574 125.783C19.1434 125.907 18.9088 125.967 18.664 125.967Z" fill="#252323"/>
<path d="M17.2947 120.928L14.1108 119.245L14.958 117.905L18.1418 119.587L17.2947 120.928" fill="#252323"/>
<path d="M90.9946 135.037L90.6948 134.522L119.621 117.905L119.919 118.422L90.9946 135.037Z" fill="#EF4BA2"/>
<path d="M90.9946 137.052L90.6948 136.537L119.621 119.921L119.919 120.438L90.9946 137.052" fill="#EF4BA2"/>
<path d="M90.9946 139.068L90.6948 138.551L119.621 121.936L119.919 122.452L90.9946 139.068Z" fill="#EF4BA2"/>
<path d="M90.9946 133.021L90.6948 132.506L119.621 115.89L119.919 116.406L90.9946 133.021Z" fill="#EF4BA2"/>
<path d="M69.4113 160.23L68.523 160.212L68.6414 150.153L69.5307 150.171L69.4113 160.23" fill="#EF4BA2"/>
<path d="M69.477 148.137L68.523 148.12L68.5768 144.106L69.5307 144.124L69.477 148.137Z" fill="#EF4BA2"/>
<path d="M113.727 107.828L112.87 107.804L113.021 96.7427L113.878 96.7667L113.727 107.828Z" fill="#EF4BA2"/>
<path d="M52.4061 145.008C52.4061 146.003 51.7293 146.407 50.8939 145.908C50.0598 145.41 49.3829 144.2 49.3829 143.205C49.3829 142.21 50.0598 141.806 50.8939 142.305C51.7293 142.801 52.4061 144.012 52.4061 145.008Z" fill="#EF4BA2"/>
<path d="M50.1332 142.746C50.1179 142.746 50.1087 142.747 50.1041 142.749C50.0934 142.761 50.0277 142.87 50.0277 143.127C50.0277 143.916 50.6239 144.952 51.3026 145.347C51.5289 145.476 51.6527 145.471 51.6726 145.463C51.6833 145.451 51.7505 145.342 51.7505 145.087C51.7505 144.298 51.1544 143.261 50.4741 142.867C50.2998 142.765 50.1836 142.746 50.1332 142.746V142.746ZM51.6466 147.129C51.2675 147.129 50.867 147.015 50.4741 146.787C49.2939 146.102 48.369 144.495 48.369 143.127C48.369 142.305 48.7023 141.643 49.2786 141.307C49.8549 140.972 50.5918 141.013 51.3026 141.427C52.4828 142.11 53.4077 143.717 53.4077 145.087C53.4077 145.907 53.076 146.57 52.4981 146.907C52.2398 147.056 51.9508 147.129 51.6466 147.129" fill="#252323"/>
<path d="M52.4061 138.962C52.4061 139.957 51.7293 140.359 50.8939 139.862C50.0598 139.364 49.3829 138.154 49.3829 137.159C49.3829 136.163 50.0598 135.76 50.8939 136.258C51.7293 136.755 52.4061 137.966 52.4061 138.962Z" fill="#EF4BA2"/>
<path d="M50.1332 136.7C50.1179 136.7 50.1087 136.7 50.1041 136.702C50.0934 136.714 50.0277 136.823 50.0277 137.08C50.0277 137.869 50.6239 138.906 51.3026 139.3C51.5289 139.431 51.6527 139.425 51.6726 139.419C51.6833 139.405 51.7505 139.297 51.7505 139.041C51.7505 138.251 51.1544 137.215 50.4741 136.82C50.2998 136.721 50.1836 136.7 50.1332 136.7V136.7ZM51.6466 141.083C51.2675 141.083 50.867 140.969 50.4741 140.741C49.2939 140.057 48.369 138.449 48.369 137.08C48.369 136.258 48.7023 135.597 49.2786 135.26C49.8549 134.926 50.5918 134.967 51.3026 135.38C52.4828 136.063 53.4077 137.671 53.4077 139.041C53.4077 139.862 53.076 140.524 52.4981 140.86C52.2398 141.009 51.9508 141.083 51.6466 141.083" fill="#252323"/>
<path d="M82.6354 84.7248L46.043 105.812L23.179 92.6368L59.7715 71.5493L82.6354 84.7248Z" fill="white"/>
<path d="M25.2965 92.6599L46.5589 105.005L81.5268 84.7018L60.2643 72.3571L25.2965 92.6599ZM46.5589 106.82L22.1718 92.6599L60.2643 70.5416L84.6514 84.7018L46.5589 106.82Z" fill="#252323"/>
<path d="M87.6714 81.7032L50.9865 102.789L28.215 89.6162L64.8074 68.5261L87.6714 81.7032" fill="white"/>
<path d="M30.3328 89.6392L51.5039 101.981L86.5604 81.6787L65.3013 69.334L30.3328 89.6392ZM51.5025 103.797L27.2111 89.6363L65.3013 67.5183L89.6907 81.6816L51.5025 103.797" fill="#252323"/>
<path d="M91.7035 79.732L55.1593 100.774L32.2471 87.6707L68.8405 66.5106L91.7035 79.732" fill="white"/>
<path d="M34.3785 87.6895L55.6779 99.9642L90.5897 79.7081L69.3349 67.3243L34.3785 87.6895ZM55.6808 101.781L31.2399 87.6968L69.3349 65.5028L93.7195 79.711L55.6808 101.781" fill="#252323"/>
<path d="M71.3634 46.5595L63.6557 44.3589C63.5709 44.3345 63.4803 44.3345 63.394 44.3575L52.4767 47.3596C52.4321 47.3725 52.3947 47.3869 52.3544 47.4113C51.3061 48.0649 35.3414 57.989 34.2557 58.4817C33.1341 58.9916 22.7315 63.1687 22.2225 63.5752C21.827 63.8912 18.9956 63.1946 17.7345 62.8627C17.4268 62.7823 17.1291 63.015 17.1291 63.331V83.1765C17.1291 83.8128 17.5504 84.4506 18.3945 84.9361L23.1026 87.6523C24.9144 88.6966 27.8796 88.6966 29.6929 87.6523L57.35 71.7024C59.1619 70.6567 62.1271 70.6567 63.9404 71.7024L75.8198 78.5527C76.1261 78.7293 76.1462 79.1631 75.8571 79.3671L70.525 83.1305C70.4819 83.1607 70.4345 83.1837 70.3856 83.198L60.5266 86.1699C60.4806 86.1843 60.4331 86.1915 60.3857 86.1915H58.2344C57.967 86.1915 57.7498 86.4084 57.7498 86.6756L57.7728 106.774C57.8433 107.351 58.243 107.919 59.0081 108.36L63.7175 111.074C65.5294 112.12 68.4946 112.12 70.3079 111.074L115.631 84.9361C116.474 84.4506 116.895 83.8128 116.895 83.1765V63.0409C116.895 62.8369 116.767 62.6545 116.573 62.5855L71.3922 46.5681C71.3835 46.5652 71.3734 46.5624 71.3634 46.5595" fill="#EF4BA2"/>
<path d="M59.0792 86.0176L59.1035 105.95C59.1407 106.216 59.441 106.576 59.943 106.869L64.6269 109.602C66.1901 110.516 68.8402 110.516 70.4063 109.602L115.483 83.2922C116.035 82.9684 116.352 82.5693 116.352 82.1977V62.1414L71.6234 46.0928L64.0448 43.9038L53.2655 46.9024C51.6165 47.9564 36.3879 57.5364 35.2595 58.0569C34.8862 58.2275 33.4889 58.8087 31.7713 59.5244C28.8351 60.7447 23.921 62.7876 23.4205 63.1071C23.1473 63.3298 22.7354 63.6624 18.6794 62.6083V82.1977C18.6794 82.5693 18.9969 82.9684 19.5504 83.2922L24.2314 86.0263C25.7988 86.94 28.4461 86.94 30.0122 86.0263L57.5189 69.9705C59.5726 68.769 62.792 68.7704 64.8486 69.9705L76.6648 76.8685C77.0366 77.0853 77.2711 77.4757 77.2912 77.9109C77.3098 78.3446 77.1124 78.7553 76.7591 79.0054L71.456 82.7934C71.3416 82.8744 71.2215 82.9322 71.0956 82.9712L61.2889 85.9627C61.173 85.9988 61.0514 86.0176 60.927 86.0176H59.0792ZM67.5173 111.859C66.1972 111.859 64.88 111.558 63.8517 110.958L59.1679 108.225C58.2326 107.679 57.6619 106.905 57.5575 106.045L57.5289 85.7226C57.5289 85.0214 58.0938 84.4503 58.786 84.4503H60.927L70.6465 81.4719L75.4934 77.9933L64.072 71.3266C62.5088 70.4143 59.8601 70.4129 58.294 71.3266L30.7873 87.3824C28.7322 88.5825 25.5128 88.5825 23.4562 87.3824L18.7738 84.6484C17.714 84.0296 17.1291 83.1592 17.1291 82.1977V62.2238C17.1291 61.8262 17.3079 61.4589 17.6196 61.2175C17.9286 60.9746 18.3262 60.8936 18.7037 60.9948C21.1837 61.6541 22.3021 61.7813 22.6238 61.7669C23.2102 61.4199 25.2969 60.5206 31.1806 58.0757C32.874 57.3702 34.2498 56.7991 34.6174 56.6299C35.4025 56.2699 45.7585 49.797 52.529 45.5347C52.6291 45.4725 52.7278 45.4277 52.8451 45.3944L63.7116 42.3712C63.9361 42.3091 64.1721 42.3091 64.3924 42.3741L72.1168 44.6079L117.067 60.736C117.565 60.9124 117.903 61.3939 117.903 61.9331V82.1977C117.903 83.1592 117.319 84.0296 116.258 84.6484L71.1814 110.958C70.1546 111.558 68.8345 111.859 67.5173 111.859Z" fill="#252323"/>
<path d="M70.3183 110.089L111.86 86.0048V59.5752L103.048 56.4333L67.5192 85.9137V110.851C68.543 110.787 69.5379 110.542 70.3183 110.089" fill="#252323"/>
<path d="M68.052 86.3224V110.136C68.6693 110.023 69.2241 109.831 69.6608 109.574L110.313 85.5898V60.0316L102.534 57.2089L68.052 86.3224ZM66.5086 111.859V85.5825L102.225 55.4255L111.857 58.9197V86.4997L70.4303 110.939C69.5939 111.431 68.5214 111.732 67.3279 111.806L66.5086 111.859" fill="#252323"/>
<path d="M27.2111 87.673C28.2307 87.6085 29.2215 87.3648 29.9988 86.9189L57.736 70.9984C58.7542 70.4134 60.1358 70.1682 61.4741 70.2399V44.3404L52.8485 46.7004C52.8038 46.7133 52.7663 46.729 52.7274 46.7534C51.6746 47.4043 35.6637 57.3117 34.5748 57.8034C33.9388 58.0902 30.3233 59.5498 27.2111 60.8373V87.673Z" fill="#252323"/>
<path d="M27.7396 61.4342V86.9727C28.3515 86.8619 28.8911 86.6733 29.3298 86.4172L56.6369 70.4382C57.5257 69.9187 58.6956 69.6122 59.9322 69.5647V45.3819L52.4144 47.4785C50.7773 48.5276 35.6593 58.0626 34.5391 58.5792C34.1728 58.7475 32.8182 59.3131 31.1429 60.011C30.0809 60.4542 28.8882 60.9522 27.7396 61.4342V61.4342ZM26.2006 88.6808V60.3938L26.6748 60.1938C27.9668 59.6484 29.3468 59.0742 30.5579 58.5691C32.2077 57.8813 33.5424 57.3244 33.9016 57.1589C34.681 56.8005 44.9618 50.3595 51.6832 46.1172C51.7826 46.0553 51.8805 46.0107 51.997 45.9776L61.4713 43.3327V71.1736L60.6606 71.1304C59.4254 71.057 58.2356 71.3031 57.4064 71.788L30.0993 87.767C29.2702 88.252 28.2053 88.5498 27.0198 88.6275L26.2006 88.6808" fill="#252323"/>
<path d="M18.3942 63.7325L23.3438 66.5834C25.0306 67.5542 27.7642 67.5542 29.4496 66.5834L57.5914 50.3802C59.2782 49.4094 62.0119 49.4094 63.6972 50.3802L87.1497 63.8831C88.8365 64.8539 88.8365 66.4285 87.1497 67.3993L59.0079 83.601C57.3225 84.5719 57.3225 86.1465 59.0079 87.1173L63.9589 89.9682C65.6443 90.939 68.3794 90.939 70.0647 89.9682L115.631 63.7325C117.316 62.7617 117.316 61.1885 115.631 60.2177L70.0647 33.9835C68.3794 33.0126 65.6457 33.0126 63.9589 33.9835L18.3942 60.2177C16.7074 61.1885 16.7074 62.7617 18.3942 63.7325" fill="white"/>
<path d="M61.183 48.7721C62.4158 48.7721 63.6472 49.0525 64.6069 49.6132L87.9332 63.2205C88.9929 63.839 89.5779 64.7104 89.5779 65.67C89.5764 66.631 88.9929 67.501 87.9332 68.1195L59.943 84.448C59.391 84.7702 59.0735 85.1691 59.0735 85.5419C59.0735 85.9133 59.391 86.3122 59.943 86.6345L64.8672 89.5059C66.3031 90.3441 68.7301 90.3441 70.1646 89.5059L115.483 63.0688C116.035 62.7465 116.352 62.3476 116.352 61.9748C116.352 61.6034 116.035 61.2045 115.483 60.8823L70.1646 34.4451C68.7315 33.6084 66.3031 33.6069 64.8686 34.4451L19.5504 60.8823C18.9969 61.206 18.6794 61.6048 18.6794 61.9762C18.6794 62.3476 18.9969 62.7465 19.5489 63.0673L19.5504 63.0688L24.4731 65.9417C25.909 66.7784 28.3346 66.7784 29.7705 65.9417L57.7591 49.6132C58.7188 49.0525 59.9516 48.7721 61.183 48.7721V48.7721ZM67.5159 91.704C66.2845 91.704 65.0517 91.4236 64.092 90.8615L59.1679 87.99C58.1081 87.3729 57.5232 86.5015 57.5232 85.5419C57.5232 84.5809 58.1081 83.7095 59.1679 83.0924L87.1566 66.7639C87.7101 66.4417 88.0261 66.0428 88.0261 65.67C88.0261 65.2986 87.7101 64.8997 87.1566 64.576L63.8317 50.9687C62.3973 50.132 59.9688 50.132 58.5343 50.9687L30.5456 67.2958C28.6263 68.4186 25.6186 68.4186 23.6979 67.2958L18.7738 64.4243C17.714 63.8072 17.1291 62.9372 17.1291 61.9762C17.1291 61.0152 17.7126 60.1453 18.7738 59.5267L64.092 33.0881C66.0127 31.9667 69.0204 31.9681 70.9397 33.0881L116.258 59.5267C117.319 60.1438 117.903 61.0152 117.903 61.9748C117.903 62.9358 117.319 63.8072 116.258 64.4243L70.9397 90.8615C69.9815 91.4236 68.7487 91.704 67.5159 91.704" fill="#252323"/>
<path d="M117.594 42.688H111.199L110.586 47.5184L68.8853 23.3433C66.1889 21.7792 61.8173 21.7792 59.1223 23.3433L25.8404 42.7009L26.1903 37.4658H14.7894L9.42098 49.8573H8.36679L2.96825 62.3222L1.10802 66.6255C0.81687 67.3916 1.17685 68.2241 2.20378 68.8203L30.5505 85.2544C32.1454 86.1775 34.7543 86.1775 36.3492 85.2544L43.4115 81.1599C45.0064 80.2353 47.6167 80.2353 49.2116 81.1599L51.2267 82.3279C51.4921 82.482 51.6972 82.6563 51.875 82.8363L50.0679 87.0733C49.8541 87.8064 50.25 88.4862 51.2267 89.0522L57.2635 92.5518C59.9485 94.1087 64.3416 94.1087 67.0265 92.5518L67.9445 92.0204L81.5255 84.1469L122.681 60.1907C124.001 59.4259 124.665 58.4279 124.692 57.4255L124.962 44.9073C124.965 44.7576 124.866 44.6265 124.722 44.5876L117.594 42.688" fill="#EF4BA2"/>
<path d="M46.25 79.824C47.4376 79.824 48.6252 80.0935 49.5508 80.6312L51.5733 81.8079C51.8684 81.9774 52.1275 82.1818 52.3895 82.447L52.7566 82.8238L50.7369 87.5727C50.665 87.8364 50.9356 88.2031 51.5719 88.5726L57.6322 92.0955C60.0779 93.5157 64.2063 93.5171 66.6506 92.0955L81.2025 83.6382L122.507 59.5328C123.538 58.9343 124.115 58.1808 124.138 57.4084L124.399 45.1789L117.691 43.3877H112.062L111.386 48.7322L68.5162 23.8154C66.0719 22.3952 61.9435 22.3952 59.4978 23.8154L24.8274 44.0326L25.2204 38.1316H15.1238L9.73574 50.6002H8.67913L1.59681 67.0004C1.3852 67.5641 2.06751 68.0394 2.37268 68.2162L30.8215 84.7511C32.1862 85.5438 34.4951 85.5453 35.8612 84.7511L42.9493 80.6312C43.8749 80.0935 45.0625 79.824 46.25 79.824ZM62.1421 94.7272C60.2261 94.7272 58.3116 94.3026 56.8519 93.4548L50.7931 89.9319C49.034 88.9117 49.0844 87.6842 49.2701 87.0437L50.8881 83.2266C50.8579 83.2063 50.8262 83.1875 50.7946 83.1687L48.7692 81.9905C47.4031 81.1963 45.0956 81.1978 43.7295 81.9905L36.6414 86.1105C34.7916 87.1872 31.8925 87.1872 30.0413 86.1105L1.59104 69.5755C0.256629 68.8002 -0.294698 67.5858 0.152986 66.4077L7.65567 49.0293H8.71224L14.1003 36.5607H26.8888L26.5793 41.1951L58.7147 22.456C61.6829 20.7315 66.3282 20.7315 69.2964 22.4546L110.134 46.1904L110.688 41.8168L117.993 41.8415L125.149 43.7544C125.643 43.8877 125.98 44.3398 125.967 44.8528L125.697 57.4475C125.66 58.7909 124.805 60.0111 123.289 60.8922L67.4308 93.4563C65.9726 94.3026 64.0566 94.7272 62.1421 94.7272" fill="#252323"/>
<path d="M40.3364 49.3791C40.0233 49.3791 33.2543 54.5632 33.2543 54.5632V56.4937L41.0612 68.9816L33.2558 85.656C34.3805 85.6789 35.517 85.4553 36.3742 84.9723L43.6136 80.8976C44.334 80.492 45.2499 80.2756 46.1894 80.2254L54.4168 63.551L49.096 49.9008C49.096 49.9008 40.6496 49.3791 40.3364 49.3791" fill="#252323"/>
<path d="M34.265 56.1398L42.1487 68.9465L34.7515 84.9941C35.2922 84.8983 35.786 84.7301 36.1817 84.5037L43.3972 80.3794C44.0742 79.9921 44.9124 79.7382 45.8429 79.6352L53.6974 63.4672L48.6975 50.44C45.692 50.2529 41.6344 50.0004 40.7038 49.9526C39.9243 50.4444 36.6506 52.9367 34.265 54.7892V56.1398ZM33.6246 86.6653C33.5675 86.6653 33.5118 86.6653 33.4546 86.6638L32.2471 86.6392L40.3536 69.0539L32.6765 56.5823V54.0247L32.9798 53.7882C39.9418 48.3713 40.2012 48.3713 40.528 48.3713C40.8489 48.3713 47.8974 48.8152 49.3086 48.9037L49.8185 48.9356L55.4251 63.5398L46.8746 81.141L46.4057 81.1672C45.5455 81.2121 44.7586 81.4167 44.1929 81.7402L36.9759 85.8645C36.0703 86.3838 34.8848 86.6653 33.6246 86.6653" fill="#252323"/>
<path d="M110.376 47.5681L108.761 46.6328L85.1753 51.475C85.1753 51.475 69.415 62.7021 69.3132 63.1094C69.2114 63.518 68.2966 70.3562 68.2966 70.3562L68.906 76.9856L61.4761 93.7097C63.3974 93.786 65.3616 93.4162 66.8313 92.5643L67.7475 92.0333L81.3241 84.1663L119.925 61.7092V44.3404L110.541 46.2673L110.376 47.5681" fill="#252323"/>
<path d="M69.2499 70.4674L69.8713 77.2489L62.8445 93.1371C64.2783 93.0459 65.6102 92.6856 66.612 92.1026L81.1191 83.6586L119.369 61.3043V45.2541L111.455 46.8876L111.213 48.8076L108.84 47.4273L85.6803 52.202C80.159 56.1534 71.453 62.456 70.2072 63.5412C70.0608 64.4484 69.5657 68.1032 69.2499 70.4674V70.4674ZM62.1456 94.7272C61.9676 94.7272 61.7897 94.7228 61.6103 94.7156L60.4621 94.6708L68.284 76.9856L67.6841 70.4341L67.6956 70.3459C67.9123 68.7239 68.6256 63.3951 68.7304 62.9769C68.8193 62.621 68.9011 62.2839 84.9138 50.8275L85.0473 50.732L109.106 45.7706L109.966 46.2698L110.053 45.5753L120.926 43.3327V62.2101L67.3884 93.4612C65.9762 94.2844 64.1305 94.7272 62.1456 94.7272" fill="#252323"/>
<path d="M16.3325 40.7837C17.9299 41.7105 17.9299 43.2278 16.3325 44.1546L9.25904 48.259C7.66162 49.1859 7.66162 50.7017 9.25904 51.6286L37.6505 68.1024C39.2479 69.0292 41.861 69.0292 43.4584 68.1024L50.5319 63.998C52.1293 63.0712 54.7438 63.0712 56.3412 63.998L58.3581 65.1688C59.9555 66.0957 59.9555 67.6115 58.3581 68.5384C56.7621 69.4652 56.7621 70.9825 58.3581 71.9093L64.4058 75.4175C67.095 76.9781 71.4951 76.9781 74.1843 75.4175L75.1036 74.8848L88.7061 66.9922L122.933 47.182C125.633 45.6156 125.633 43.0748 122.933 41.5084L69.0516 10.2455C66.3509 8.67771 61.9738 8.67771 59.2731 10.2455L16.3325 35.11C13.6333 36.6778 13.6333 39.2173 16.3325 40.7837" fill="white"/>
<path d="M54.3928 62.8687C55.5826 62.8687 56.7708 63.135 57.6996 63.6649L59.7257 64.8262C60.7381 65.4076 61.3178 66.2626 61.3178 67.1705C61.3178 68.0784 60.7381 68.9333 59.7257 69.5147C59.2094 69.8097 58.9124 70.1734 58.9124 70.5128C58.9124 70.8522 59.2094 71.2174 59.7257 71.5138L65.7955 74.9936C68.2442 76.397 72.3816 76.3985 74.8303 74.9936L123.769 46.986C124.828 46.3788 125.411 45.617 125.411 44.8437C125.411 44.069 124.828 43.3086 123.768 42.7014L69.6777 11.6908C67.2261 10.286 63.0887 10.2874 60.6429 11.6908L17.5356 36.3561C16.4771 36.9632 15.893 37.7236 15.893 38.4969C15.893 39.2717 16.4771 40.0321 17.5356 40.6392C18.5479 41.2192 19.1291 42.0742 19.1291 42.9821C19.1291 43.8914 18.5494 44.7449 17.5356 45.3263L10.4347 49.3975C9.91984 49.694 9.62275 50.0577 9.62275 50.3971C9.62275 50.7365 9.91984 51.1017 10.4347 51.3967L38.9364 67.7376C40.3049 68.5194 42.6166 68.5209 43.9866 67.7361L51.0861 63.6663C52.0133 63.135 53.2031 62.8687 54.3928 62.8687V62.8687ZM70.3136 77.5956C68.3942 77.5956 66.4747 77.1746 65.0139 76.3369L58.9441 72.8571C57.9303 72.2757 57.3506 71.4222 57.3506 70.5128C57.3506 69.6035 57.9317 68.75 58.9441 68.17C59.4589 67.875 59.7546 67.5099 59.7546 67.1705C59.7546 66.8311 59.4589 66.4659 58.9441 66.1709L56.9165 65.0095C55.5508 64.2248 53.2348 64.2248 51.8677 65.0095L44.7668 69.0808C42.9137 70.1434 40.0093 70.1434 38.1547 69.0808L9.65306 52.7399C8.64071 52.1599 8.05953 51.305 8.06098 50.3971C8.06098 49.4878 8.64071 48.6343 9.65451 48.0543L16.754 43.983C17.2702 43.6866 17.5659 43.3215 17.5659 42.9821C17.5659 42.6441 17.2702 42.2789 16.754 41.9839C15.1922 41.0875 14.3298 39.8488 14.3298 38.4969C14.3298 37.1451 15.1922 35.9078 16.754 35.0114L59.8627 10.3461C62.832 8.64342 67.4871 8.64485 70.4593 10.3461L124.55 41.3581C126.113 42.2531 126.974 43.4904 126.974 44.8437C126.974 46.1955 126.113 47.4342 124.55 48.3293L75.6119 76.3369C74.151 77.1746 72.2316 77.5942 70.3136 77.5956" fill="#252323"/>
<path d="M50.873 87.673L49.3829 87.051L56.9625 70.5415L58.4526 71.1635L50.873 87.673Z" fill="#252323"/>
<path d="M83.2239 83.6422L82.6339 82.6191L107.237 68.5261L107.827 69.5491L83.2239 83.6422Z" fill="#EF4BA2"/>
<path d="M72.1532 90.6963L71.548 89.6651L80.0138 84.6499L80.6176 85.6811L72.1532 90.6963Z" fill="#EF4BA2"/>
<path d="M10.4324 57.5799L22.6481 64.7916C23.1192 65.0697 23.3065 65.6809 23.0767 66.194L20.0699 72.9402C19.8145 73.5128 19.1461 73.7359 18.6211 73.4221L6.56431 66.2104C6.10456 65.9353 5.91726 65.3389 6.13152 64.8302L8.98078 58.0856C9.22768 57.5011 9.90168 57.2676 10.4324 57.5799Z" fill="white"/>
<path d="M10.8164 58.997C10.78 58.997 10.7495 59.0056 10.7291 59.0113C10.6869 59.0257 10.6083 59.0631 10.5661 59.1579L7.64519 65.6728C7.58844 65.7992 7.63792 65.9458 7.75872 66.0133L20.1247 72.9808C20.2135 73.031 20.2994 73.0152 20.3401 73.0023C20.3824 72.9894 20.4609 72.9535 20.5046 72.8615L23.5899 66.3437C23.6496 66.2158 23.6015 66.0664 23.4764 65.9975L10.9488 59.0329C10.9008 59.007 10.8557 58.997 10.8164 58.997V58.997ZM20.2586 74.5725C19.9399 74.5725 19.6241 74.4906 19.3418 74.3326L6.97722 67.3666C6.15058 66.8997 5.8173 65.8998 6.20297 65.0436L9.1253 58.5272C9.33487 58.0574 9.73943 57.6954 10.2328 57.5345C10.7247 57.3722 11.2675 57.4225 11.7216 57.6753L24.2506 64.6413C25.0874 65.1068 25.4251 66.1455 25.0176 67.0031L21.9337 73.5209C21.7154 73.9806 21.3079 74.334 20.8175 74.4863C20.6355 74.5438 20.4464 74.5725 20.2586 74.5725" fill="#252323"/>
<path d="M27.3232 67.5486L29.0982 68.4907C29.2107 68.5504 29.2551 68.6827 29.2005 68.7924L28.4042 70.4072C28.3428 70.5314 28.1842 70.5782 28.0581 70.5104L26.324 69.5683C26.2149 69.5086 26.1706 69.3812 26.2218 69.2731L26.9771 67.6567C27.0368 67.5309 27.197 67.4809 27.3232 67.5486" fill="#252323"/>
<path d="M30.351 68.5564L32.1269 69.4985C32.2376 69.5581 32.2837 69.6904 32.2291 69.8001L31.4315 71.4149C31.3702 71.5391 31.2117 71.5859 31.0873 71.5182L29.3523 70.5761C29.2432 70.5164 29.1989 70.3889 29.2501 70.2808L30.0068 68.6644C30.0647 68.5386 30.2249 68.4886 30.351 68.5564" fill="#252323"/>
<path d="M33.3687 70.5707L35.1448 71.5144C35.2573 71.5741 35.3016 71.7063 35.2471 71.816L34.4494 73.4307C34.388 73.5533 34.2295 73.6017 34.105 73.5339L32.3699 72.5919C32.2608 72.5322 32.2181 72.4048 32.2676 72.2967L33.0244 70.6804C33.0823 70.5546 33.2425 70.5046 33.3687 70.5707" fill="#252323"/>
<path d="M25.3048 70.5718L27.0805 71.5139C27.193 71.5736 27.2373 71.7059 27.1828 71.8156L26.3852 73.4304C26.3239 73.5546 26.1654 73.6014 26.041 73.5336L24.3062 72.5915C24.1972 72.5318 24.1528 72.4044 24.204 72.2963L24.9606 70.6799C25.0186 70.5541 25.1787 70.5041 25.3048 70.5718" fill="#252323"/>
<path d="M28.3321 71.5796L30.1087 72.5233C30.2213 72.5814 30.2656 72.7137 30.2111 72.8234L29.4131 74.4382C29.3534 74.5624 29.1931 74.6092 29.0687 74.5414L27.3346 73.5993C27.2255 73.5396 27.1812 73.4122 27.2323 73.3041L27.9876 71.6877C28.0473 71.5619 28.2059 71.5119 28.3321 71.5796Z" fill="#252323"/>
<path d="M31.3554 73.594L33.1304 74.5376C33.2429 74.5973 33.2872 74.7296 33.2327 74.8393L32.4364 76.4539C32.375 76.5765 32.2147 76.6249 32.0903 76.5572L30.3562 75.6152C30.2471 75.5555 30.2028 75.4281 30.2539 75.32L31.0092 73.7037C31.0689 73.5779 31.2292 73.5279 31.3554 73.594" fill="#252323"/>
<path d="M25.3048 70.5718L27.0805 71.5139C27.193 71.5736 27.2373 71.7059 27.1828 71.8156L26.3852 73.4304C26.3239 73.5546 26.1654 73.6014 26.041 73.5336L24.3062 72.5915C24.1972 72.5318 24.1528 72.4044 24.204 72.2963L24.9606 70.6799C25.0186 70.5541 25.1787 70.5041 25.3048 70.5718" fill="#252323"/>
<path d="M28.3321 71.5796L30.1087 72.5233C30.2213 72.5814 30.2656 72.7137 30.2111 72.8234L29.4131 74.4382C29.3534 74.5624 29.1931 74.6092 29.0687 74.5414L27.3346 73.5993C27.2255 73.5396 27.1812 73.4122 27.2323 73.3041L27.9876 71.6877C28.0473 71.5619 28.2059 71.5119 28.3321 71.5796Z" fill="#252323"/>
<path d="M31.3554 73.594L33.1304 74.5376C33.2429 74.5973 33.2872 74.7296 33.2327 74.8393L32.4364 76.4539C32.375 76.5765 32.2147 76.6249 32.0903 76.5572L30.3562 75.6152C30.2471 75.5555 30.2028 75.4281 30.2539 75.32L31.0092 73.7037C31.0689 73.5779 31.2292 73.5279 31.3554 73.594" fill="#252323"/>
<path d="M24.3017 73.5951L26.0767 74.5372C26.1892 74.5968 26.2335 74.7291 26.179 74.8388L25.3827 76.4536C25.3213 76.5778 25.161 76.6246 25.0366 76.5569L23.3025 75.6147C23.1934 75.5551 23.149 75.4276 23.2002 75.3195L23.9556 73.7031C24.0153 73.5773 24.1755 73.5273 24.3017 73.5951" fill="#252323"/>
<path d="M27.3232 75.6106L29.0982 76.5543C29.2107 76.6123 29.2551 76.7446 29.2005 76.8543L28.4042 78.4691C28.3428 78.5933 28.1843 78.6401 28.0581 78.5724L26.324 77.6303C26.2149 77.5706 26.1706 77.4431 26.2218 77.335L26.9788 75.7187C27.0368 75.5928 27.197 75.5428 27.3232 75.6106" fill="#252323"/>
<path d="M30.351 76.6172L32.1269 77.5608C32.2377 77.6205 32.2837 77.7528 32.2291 77.8625L31.4315 79.4771C31.3702 79.5997 31.2117 79.6481 31.0873 79.5804L29.3523 78.6384C29.2433 78.5787 29.1989 78.4512 29.2501 78.3432L30.0067 76.7269C30.0647 76.6011 30.2249 76.5511 30.351 76.6172" fill="#252323"/>
<path d="M13.9209 64.6013C13.518 65.3647 12.5983 65.7106 11.8673 65.3742C11.1364 65.0377 10.8712 64.1459 11.2741 63.3825C11.6787 62.6192 12.5966 62.2716 13.3276 62.6081C14.0586 62.9445 14.3238 63.8364 13.9209 64.6013" fill="#252323"/>
<path d="M16.9459 66.6154C16.543 67.3788 15.6233 67.7263 14.8923 67.3899C14.1613 67.0534 13.8961 66.1615 14.299 65.3982C14.7019 64.6333 15.6216 64.2873 16.3526 64.6238C17.0836 64.9602 17.3487 65.8521 16.9459 66.6154Z" fill="#EF4BA2"/>
<path d="M102.294 79.6765C102.113 79.6453 101.949 79.6198 101.949 79.6198C101.197 79.5474 100.24 79.9233 99.2187 81.0312C98.6477 81.651 98.2138 82.3844 97.9727 83.1716C97.5825 84.4497 97.7392 85.3902 98.2093 85.915C98.2093 85.915 99.1555 87.2044 101.266 87.6668C101.366 87.6895 101.476 87.6484 101.531 87.5661L104.67 82.8681L104.805 81.1758C104.81 81.1134 104.793 81.0595 104.75 81.0141C104.508 80.7702 103.699 79.9446 102.294 79.6765" fill="#EF4BA2"/>
<path d="M102.242 79.7605C101.887 79.7605 101.176 79.9372 100.246 80.9599C99.7414 81.5108 99.3673 82.1606 99.1627 82.8382C98.8763 83.7884 98.9158 84.594 99.2723 84.9947C99.3352 85.0768 100.061 86.0313 101.656 86.4612L104.476 82.1926L104.583 80.836C104.283 80.5466 103.649 80.0138 102.651 79.8204L102.329 79.7647C102.303 79.7619 102.274 79.7605 102.242 79.7605V79.7605ZM101.821 87.673C101.758 87.673 101.694 87.6661 101.631 87.6522C99.3834 87.1541 98.3474 85.7572 98.305 85.6987C97.7044 85.0239 97.5816 83.8789 97.9922 82.5196C98.245 81.6792 98.7054 80.8778 99.325 80.1974C100.633 78.7657 101.758 78.539 102.495 78.6169L102.889 78.6823C103.913 78.8812 104.821 79.3765 105.59 80.1612C105.753 80.3282 105.828 80.5397 105.812 80.7651L105.668 82.5669L102.543 87.2988C102.388 87.5325 102.109 87.673 101.821 87.673" fill="#EF4BA2"/>
<path d="M105.812 82.5689C105.812 84.3107 104.684 86.4286 103.293 87.3003C101.901 88.1704 100.773 87.4655 100.773 85.7237C100.773 83.9804 101.901 81.8625 103.293 80.9923C104.684 80.1207 105.812 80.8271 105.812 82.5689Z" fill="#252323"/>
<path d="M103.889 80.811C103.649 80.811 103.364 80.9057 103.064 81.0936C101.876 81.8309 100.874 83.7013 100.874 85.1772C100.874 85.7639 101.035 86.2028 101.319 86.3792C101.599 86.5542 102.033 86.4868 102.508 86.1913C103.695 85.4555 104.698 83.5851 104.698 82.1091C104.698 81.521 104.536 81.0821 104.253 80.9071C104.15 80.8426 104.026 80.811 103.889 80.811ZM101.683 87.673C101.352 87.673 101.042 87.587 100.763 87.4134C100.119 87.0132 99.763 86.2186 99.763 85.1772C99.763 83.2623 100.97 81.0132 102.508 80.0565C103.346 79.5358 104.163 79.4684 104.808 79.8715C105.452 80.2717 105.809 81.0678 105.809 82.1091C105.809 84.0226 104.603 86.2716 103.064 87.2269C102.587 87.5238 102.118 87.673 101.683 87.673Z" fill="#EF4BA2"/>
<path d="M116.488 43.3908L95.2631 31.0116C93.573 30.0261 92.2174 28.555 91.3717 26.7908L88.26 20.2973C87.4128 18.5274 86.0529 17.0549 84.357 16.0694L59.0211 1.3326C58.3032 0.914545 57.5105 0.927482 56.8414 1.2148L18.1396 23.4737L18.9065 29.8608L32.278 38.7937L53.8847 54.6194L71.7264 64.624L80.2416 72.5569L118.913 50.2923V47.6159C118.913 45.8762 117.99 44.2672 116.488 43.3908" fill="#EF4BA2"/>
<path d="M19.4688 29.2883L32.5931 38.0553L54.3138 53.9611L72.2963 64.0636L80.424 71.6336L118.355 49.7975V47.5622C118.355 46.0998 117.571 44.7326 116.308 43.9971L95.0001 31.5684C93.1606 30.4954 91.7017 28.9133 90.7819 26.9938L87.658 20.4751C86.8723 18.8339 85.6239 17.4826 84.0511 16.5682L58.6169 1.77578C57.9985 1.41667 57.4218 1.57531 57.1306 1.69934L18.8042 23.746L19.4688 29.2883ZM80.2035 73.5647L71.3001 65.2722L53.4704 55.2749L31.6994 39.3359L18.0027 30.1882L17.1291 22.9066L56.4315 0.303315C57.4709 -0.146646 58.5218 -0.0875214 59.4026 0.424453L84.8382 15.2169C86.682 16.2899 88.1438 17.8748 89.0664 19.8002L92.1904 26.3188C92.9746 27.9543 94.2187 29.3041 95.7857 30.2185L117.095 42.6458C118.837 43.6625 119.918 45.5445 119.918 47.5622V50.7003L80.2035 73.5647" fill="#252323"/>
<path d="M54.833 51.3945L93.7126 29.391L93.7198 29.3709C92.9096 28.5803 92.223 27.668 91.7289 26.6382L88.6162 20.1644C88.2614 19.4283 87.8003 18.7594 87.2803 18.1393L48.1824 39.8463L43.333 41.8902L45.8324 48.2536L48.6449 50.306L54.833 51.3945" fill="#252323"/>
<path d="M48.9671 49.7524L54.7144 50.7668L92.5959 29.2496C91.9998 28.5522 91.5089 27.8058 91.1317 27.0176L88.0118 20.5033C87.7901 20.0422 87.5152 19.5912 87.1768 19.1344L48.5698 40.6501L44.3313 42.4455L46.4779 47.9296L48.9671 49.7524ZM54.9966 52.4023L48.3394 51.2279L45.1908 48.9224L42.3258 41.5997L47.8874 39.2481L87.5612 17.1315L87.9744 17.6272C88.5877 18.3592 89.0599 19.0796 89.4184 19.8289L92.5383 26.3418C92.9745 27.2511 93.5935 28.1026 94.3767 28.8706L94.7281 29.215L94.4732 29.9614L94.2098 30.1286L54.9966 52.4023" fill="#252323"/>
<path d="M79.861 67.3625C79.861 67.3625 78.706 68.5861 77.5979 69.7766L80.5589 72.5569L118.915 50.2998V47.6243C118.915 46.8158 118.71 46.0403 118.35 45.3481L79.861 67.3625Z" fill="#252323"/>
<path d="M78.7812 69.79L80.765 71.6429L118.371 49.912V47.6873C118.371 47.297 118.312 46.9051 118.198 46.5234L80.4362 68.0333C80.2104 68.2715 79.5301 68.9906 78.7812 69.79ZM80.5463 73.5647L76.5873 69.8632L77.1204 69.2949C78.2324 68.1022 79.3943 66.8765 79.3943 66.8765L79.573 66.7373L118.891 44.3404L119.263 45.0508C119.693 45.8718 119.92 46.7831 119.92 47.6873V50.8104L80.5463 73.5647Z" fill="#252323"/>
<path d="M85.2387 69.5338L84.6483 68.4657L116.304 50.3868L116.896 51.4548L85.2387 69.5338Z" fill="#EF4BA2"/>
<path d="M43.6753 37.2863L82.6336 15.1021L62.0487 3.02325L23.4241 25.4026L20.154 28.5025L23.47 32.9515L29.0205 36.6934L43.6753 37.2863Z" fill="white"/>
<path d="M29.3638 35.107L43.6728 35.689L81.5034 14.0964L62.3531 2.83403L23.9487 25.137L21.234 27.716L24.0713 31.5318L29.3638 35.107ZM44.0549 37.2863L28.8621 36.6692L22.902 32.5893L19.1435 27.5336L23.0909 23.8126L62.3589 1.00777L84.6463 14.1168L44.0549 37.2863" fill="#252323"/>
<path d="M59.4549 54.342V57.1301L66.1644 60.9024L75.0914 63.4873L113.873 41.5374L97.9879 32.2475L59.4549 54.342" fill="white"/>
<path d="M66.3265 60.3192L74.9602 62.8097L112.743 41.5005L98.2342 33.0449L60.0139 54.8822V56.7826L66.3265 60.3192ZM75.158 64.4951L65.6408 61.7275L58.4477 57.6988V53.9746L98.2415 31.2398L115.889 41.5236L75.158 64.4951" fill="#252323"/>
<path d="M17.1291 35.6967V25.6319C17.1291 23.7424 19.1699 22.5638 20.7977 23.5136L46.1026 38.2741C47.795 39.2627 49.1531 40.7378 49.9993 42.5093L53.1072 49.0138C53.9519 50.7824 55.3058 52.2561 56.9953 53.2433L78.1927 65.6437C79.6943 66.5215 80.6164 68.1333 80.6164 69.876V72.5569L17.1291 35.6967" fill="#EF4BA2"/>
<path d="M17.6909 34.9919L80.0624 70.8668V69.5416C80.0624 68.0842 79.2767 66.7245 78.01 65.9908L56.6625 53.6185C54.818 52.5503 53.3563 50.9752 52.4363 49.0642L49.3064 42.5744C48.5192 40.9404 47.2698 39.5951 45.6926 38.6848L20.2084 23.9563C19.6841 23.6548 19.0559 23.6519 18.5316 23.9534C18.0058 24.255 17.6909 24.7934 17.6909 25.3979V34.9919ZM81.6281 73.5647L16.1252 35.8893V25.3979C16.1252 24.2306 16.7333 23.1867 17.7501 22.6038C18.7684 22.0223 19.9817 22.0266 20.9956 22.611L46.4798 37.3394C48.33 38.4077 49.7945 39.9856 50.7175 41.901L53.8474 48.3908C54.6331 50.0204 55.8796 51.3643 57.4496 52.2746L78.7986 64.6469C80.5434 65.6563 81.6281 67.5329 81.6281 69.5416V73.5647" fill="#252323"/>
<path d="M83.7334 44.7452L89.1897 45.3104C90.0212 45.3955 90.857 45.2091 91.5781 44.7789L113.547 31.6484C114.099 31.3196 113.919 30.4593 113.284 30.3888L84.7771 27.2354C83.8366 27.1311 82.8876 27.3367 82.069 27.8211L53.8298 44.5161C53.1302 44.9301 53.3553 46.018 54.1581 46.1075L74.415 48.3478C75.2206 48.4374 76.0349 48.27 76.7446 47.8692L81.431 45.2267C82.1335 44.8303 82.9363 44.6629 83.7334 44.7452" fill="#EF4BA2"/>
<path d="M85.3047 27.752C84.6562 27.752 84.0237 27.9194 83.4561 28.2441L55.0073 44.5107L75.4376 46.8022C76.0904 46.8766 76.7446 46.745 77.3223 46.4274L82.045 43.8527C82.8943 43.3893 83.8503 43.1947 84.8194 43.292L90.3177 43.8427C90.9864 43.9071 91.6608 43.7669 92.2501 43.4264L114.078 30.8088L85.7091 27.7735C85.5733 27.7592 85.439 27.752 85.3047 27.752V27.752ZM75.7885 48.3714C75.6167 48.3714 75.4434 48.3628 75.27 48.3428L54.8628 46.1614C54.1508 46.0841 53.5948 45.5864 53.4489 44.8926C53.3002 44.2003 53.6049 43.5237 54.2245 43.169L82.6733 26.9009C83.6496 26.3445 84.7573 26.1128 85.8766 26.2315L114.595 29.3054C115.23 29.3712 115.723 29.8147 115.858 30.4326C115.991 31.0491 115.722 31.6542 115.17 31.9717L93.0386 44.7653C92.162 45.2717 91.1669 45.4862 90.1603 45.3847L84.662 44.834C84.0193 44.7725 83.3709 44.8998 82.8004 45.2102L78.0777 47.7863C77.37 48.1725 76.5872 48.3714 75.7885 48.3714" fill="#252323"/>
<path d="M57.4405 41.9434L72.3703 43.3225C72.8558 43.3683 73.3427 43.2594 73.7644 43.0114L91.4922 32.6025C91.8443 32.3946 91.7335 31.8542 91.3289 31.804L78.4348 30.2486C77.9309 30.1884 77.4212 30.2945 76.9826 30.5496L57.4405 41.9434" fill="white"/>
<path d="M60.4934 41.5381L73.2713 42.73C73.6031 42.7625 73.9378 42.6871 74.2305 42.5141L91.4164 32.3163L79.2965 30.8376C78.9588 30.7947 78.5995 30.8701 78.2995 31.0476L60.4934 41.5381ZM73.4234 44.3404C73.3249 44.3404 73.2264 44.3359 73.1264 44.327L55.4261 42.6738L77.5141 29.659C78.1068 29.31 78.8067 29.1651 79.4834 29.2464L92.6452 30.8509C93.1669 30.9159 93.5886 31.3108 93.6943 31.8357C93.8016 32.3607 93.5668 32.8945 93.1118 33.1637L75.0188 43.8997C74.529 44.191 73.9827 44.3404 73.4234 44.3404" fill="#252323"/>
<path d="M25.1106 32.8589L25.4164 33.0186C25.7017 33.1664 25.9139 33.2191 26.0573 33.1756C26.1978 33.132 26.2695 32.9975 26.2695 32.7732C26.2695 32.5463 26.2095 32.3483 26.091 32.1781C25.9724 32.0093 25.7866 31.8575 25.532 31.7256L25.1106 31.5066V32.8589ZM27.206 33.227C27.206 33.7165 27.0582 34.0147 26.7641 34.1216C26.47 34.2285 26.0515 34.1401 25.5086 33.8577L25.1106 33.6506V35.2708L24.1828 34.7879V30.2321L25.5803 30.9604C26.1115 31.2361 26.5153 31.5646 26.7904 31.9473C27.067 32.3286 27.206 32.7547 27.206 33.227" fill="#252323"/>
<path d="M28.0134 35.0199L28.2716 35.1922C28.5247 35.3601 28.712 35.4302 28.8335 35.398C28.9537 35.3659 29.0144 35.2287 29.0144 34.9878C29.0144 34.7484 28.9537 34.5367 28.8297 34.3528C28.7069 34.1703 28.5158 33.9922 28.2564 33.8199L28.0134 33.6579V35.0199ZM28.0134 35.8886V37.8229L27.2111 37.2886V32.2476L28.3133 32.9819C28.8271 33.325 29.208 33.7031 29.4548 34.1163C29.7016 34.5294 29.8256 34.9907 29.8256 35.4988C29.8256 35.7951 29.7636 36.0185 29.6408 36.1674C29.5181 36.3163 29.3447 36.382 29.1207 36.3645C29.6902 37.8769 30.0622 38.8565 30.2343 39.3018L29.3434 38.709L28.4399 36.1732L28.0134 35.8886" fill="#252323"/>
<path d="M31.2399 39.8264V35.2707L32.2477 35.7524V40.3094L31.2399 39.8264Z" fill="#252323"/>
<path d="M37.2853 43.3327L36.0606 42.6746L34.0839 37.9147L34.0566 37.8991C34.0961 38.5743 34.1158 39.0498 34.1158 39.3286V41.6286L33.2543 41.1658V36.2786L34.4698 36.9324L36.4435 41.6527L36.4648 41.664C36.4329 41.0129 36.4177 40.5558 36.4177 40.2925V37.9798L37.2853 38.4455V43.3327" fill="#252323"/>
<path d="M40.2297 44.3404L39.3808 43.8241V39.8144L38.2936 39.1529V38.2939L41.3168 40.1317V40.9921L40.2297 40.3306V44.3404" fill="#252323"/>
<path d="M49.1781 24.4103C53.4782 25.4967 53.4782 28.9195 49.1781 30.0075C47.9924 30.307 46.7366 30.307 45.5508 30.0075C41.2508 28.9195 41.2508 25.4967 45.5508 24.4103C46.7366 24.1108 47.9924 24.1108 49.1781 24.4103Z" fill="#EF4BA2"/>
<path d="M46.8646 24.6932C46.3485 24.6932 45.831 24.7547 45.3291 24.8779C43.5023 25.3243 42.8547 26.1402 42.8547 26.7041C42.8547 27.2681 43.5023 28.0854 45.3291 28.5318C46.3344 28.7767 47.3962 28.7767 48.4001 28.5318C50.2269 28.0854 50.8744 27.2681 50.8744 26.7041C50.8744 26.1402 50.2269 25.3243 48.4015 24.8779H48.4001C47.8982 24.7547 47.3821 24.6932 46.8646 24.6932V24.6932ZM46.8646 30.2321C46.2241 30.2321 45.5836 30.1551 44.9614 30.0026C42.7176 29.4554 41.322 28.1917 41.322 26.7041C41.322 25.2179 42.7176 23.9543 44.9614 23.4057C46.2057 23.102 47.522 23.102 48.7677 23.4057C51.013 23.9543 52.4071 25.2179 52.4071 26.7041C52.4071 28.1917 51.013 29.4554 48.7663 30.0026C48.1456 30.1551 47.5051 30.2321 46.8646 30.2321Z" fill="#252323"/>
<path d="M46.3562 17.1316C44.6865 17.1316 43.333 18.4838 43.333 20.1519V24.4317C43.333 25.0911 43.9779 25.7506 45.2676 26.0693C45.979 26.2452 46.7334 26.2452 47.4449 26.0693C48.7346 25.7506 49.3794 25.0911 49.3794 24.4317V20.1519C49.3794 18.4838 48.0259 17.1316 46.3562 17.1316" fill="white"/>
<path d="M47.3632 17.6987C46.0262 17.6987 44.938 18.7665 44.938 20.0784V24.5662C44.938 24.8074 45.3259 25.2606 46.3934 25.5192C47.0271 25.6718 47.6978 25.6718 48.3345 25.5192C49.402 25.2606 49.7899 24.8074 49.7899 24.5662V20.0784C49.7899 18.7665 48.7002 17.6987 47.3632 17.6987ZM47.3632 27.2089C46.9072 27.2089 46.4527 27.1551 46.0085 27.0476C44.0363 26.5696 43.333 25.4524 43.333 24.5662V20.0784C43.333 17.8977 45.1408 16.1238 47.3632 16.1238C49.5856 16.1238 51.3949 17.8977 51.3949 20.0784V24.5662C51.3949 25.4524 50.6916 26.5696 48.7194 27.0476C48.2752 27.1551 47.8192 27.2089 47.3632 27.2089" fill="#252323"/>
<path d="M47.364 27.2089C46.9078 27.2089 46.4532 27.156 46.009 27.0503C44.0364 26.5803 43.333 25.4817 43.333 24.6103C43.333 23.7388 44.0364 22.6402 46.009 22.1702L46.394 23.6731C45.3248 23.9274 44.9383 24.3731 44.9383 24.6103C44.9383 24.8474 45.3248 25.2931 46.394 25.5474C47.0278 25.6974 47.6986 25.6974 48.3354 25.5474C49.4031 25.2931 49.7911 24.8474 49.7911 24.6103C49.7911 24.3731 49.4031 23.9274 48.3339 23.6731L48.7204 22.1702C50.6929 22.6402 51.3949 23.7388 51.3949 24.6103C51.3949 25.4817 50.6929 26.5803 48.7204 27.0503C48.2762 27.156 47.8201 27.2089 47.364 27.2089Z" fill="#252323"/>
<path d="M50.275 162.395L48.6688 163.198C48.5029 163.28 48.2161 163.269 48.0254 163.175L46.5122 162.418C46.3215 162.323 46.3013 162.179 46.4657 162.097L48.0719 161.294C48.2362 161.211 48.5246 161.221 48.7138 161.317L50.2285 162.072C50.4177 162.168 50.4394 162.312 50.275 162.395" fill="#252323"/>
<path d="M54.3067 164.411L52.7007 165.214C52.5348 165.295 52.248 165.284 52.0573 165.191L50.5443 164.433C50.3537 164.338 50.3335 164.194 50.4978 164.112L52.1038 163.308C52.2682 163.226 52.5565 163.237 52.7456 163.332L54.2602 164.088C54.4508 164.184 54.471 164.327 54.3067 164.411" fill="#252323"/>
<path d="M50.2745 166.426L48.6685 167.229C48.5042 167.311 48.2158 167.301 48.0251 167.206L46.5121 166.448C46.3215 166.353 46.3013 166.209 46.4657 166.128L48.0717 165.325C48.236 165.242 48.5243 165.252 48.715 165.348L50.228 166.105C50.4187 166.2 50.4388 166.344 50.2745 166.426Z" fill="#252323"/>
<path d="M57.3308 166.425L55.7245 167.229C55.5601 167.311 55.2733 167.301 55.0825 167.205L53.5692 166.449C53.3785 166.354 53.3584 166.21 53.5228 166.127L55.1291 165.324C55.2934 165.242 55.5818 165.253 55.771 165.347L57.2858 166.104C57.475 166.2 57.4967 166.343 57.3308 166.425" fill="#252323"/>
<path d="M54.3072 168.441L52.701 169.244C52.5351 169.326 52.2483 169.316 52.0576 169.222L50.5444 168.464C50.3537 168.369 50.3335 168.225 50.4978 168.143L52.1041 167.34C52.2684 167.257 52.5568 167.268 52.7459 167.363L54.2607 168.12C54.4498 168.215 54.4715 168.358 54.3072 168.441" fill="#252323"/>
<path d="M61.3604 168.44L59.7541 169.243C59.5898 169.327 59.3014 169.316 59.1123 169.22L57.5975 168.464C57.4084 168.369 57.3867 168.226 57.551 168.143L59.1588 167.34C59.3232 167.258 59.61 167.267 59.8007 167.362L61.3139 168.12C61.5046 168.215 61.5247 168.359 61.3604 168.44Z" fill="#252323"/>
<path d="M57.3316 170.457L55.7252 171.26C55.5609 171.342 55.274 171.331 55.0833 171.237L53.5685 170.48C53.3793 170.384 53.3576 170.241 53.5235 170.159L55.1298 169.355C55.2942 169.273 55.581 169.283 55.7717 169.379L57.285 170.135C57.4758 170.23 57.4959 170.374 57.3316 170.457" fill="#252323"/>
<path d="M64.382 170.456L62.7756 171.259C62.6113 171.342 62.3229 171.331 62.1337 171.236L60.6189 170.479C60.4297 170.384 60.408 170.24 60.5739 170.158L62.1803 169.355C62.3446 169.273 62.6315 169.283 62.8222 169.378L64.3355 170.135C64.5262 170.231 64.5463 170.374 64.382 170.456" fill="#252323"/>
<path d="M61.3596 172.471L59.7536 173.275C59.5893 173.358 59.3025 173.347 59.1118 173.251L57.5973 172.495C57.4081 172.4 57.3864 172.256 57.5523 172.173L59.1583 171.37C59.3226 171.288 59.6094 171.299 59.8001 171.393L61.3147 172.15C61.5038 172.246 61.5255 172.389 61.3596 172.471Z" fill="#252323"/>
<path d="M68.4142 168.442L66.8079 169.244C66.6436 169.326 66.3552 169.316 66.1661 169.221L64.6513 168.465C64.4621 168.369 64.4405 168.225 64.6048 168.144L66.211 167.339C66.3769 167.257 66.6638 167.268 66.8545 167.363L68.3676 168.119C68.5583 168.214 68.5785 168.358 68.4142 168.442" fill="#252323"/>
<path d="M72.4429 166.426L70.8369 167.228C70.6726 167.311 70.3842 167.301 70.1951 167.205L68.6806 166.448C68.4899 166.354 68.4697 166.211 68.634 166.127L70.2401 165.324C70.406 165.242 70.6927 165.252 70.8834 165.347L72.3964 166.105C72.5871 166.2 72.6072 166.343 72.4429 166.426" fill="#252323"/>
<path d="M75.4679 164.41L73.8619 165.213C73.6976 165.295 73.4092 165.286 73.2185 165.19L71.7055 164.433C71.5149 164.337 71.4947 164.194 71.659 164.112L73.265 163.309C73.4294 163.226 73.7177 163.237 73.9084 163.332L75.4214 164.089C75.612 164.183 75.6322 164.328 75.4679 164.41Z" fill="#252323"/>
<path d="M79.5 162.394L77.894 163.198C77.7297 163.28 77.4414 163.269 77.2507 163.174L75.7377 162.418C75.547 162.322 75.5269 162.179 75.6912 162.096L77.2972 161.293C77.4615 161.211 77.7499 161.222 77.939 161.315L79.4535 162.073C79.6442 162.168 79.6643 162.312 79.5 162.394" fill="#252323"/>
<path d="M82.5222 159.371L80.9159 160.174C80.75 160.257 80.4632 160.246 80.2725 160.151L78.7593 159.394C78.5686 159.299 78.5485 159.155 78.7128 159.073L80.319 158.27C80.4834 158.188 80.7717 158.198 80.9609 158.293L82.4756 159.05C82.6648 159.146 82.6865 159.289 82.5222 159.371" fill="#252323"/>
<path d="M86.553 157.356L84.9466 158.159C84.7823 158.241 84.4954 158.231 84.3047 158.136L82.7914 157.379C82.6007 157.284 82.5806 157.14 82.7449 157.059L84.3512 156.254C84.5156 156.172 84.804 156.183 84.9932 156.278L86.508 157.034C86.6971 157.129 86.7189 157.273 86.553 157.356" fill="#252323"/>
<path d="M90.5818 155.34L88.9754 156.143C88.8111 156.226 88.5242 156.216 88.3335 156.12L86.8202 155.363C86.6295 155.269 86.6094 155.125 86.7737 155.042L88.3801 154.239C88.5444 154.157 88.8312 154.167 89.0219 154.262L90.5368 155.019C90.726 155.115 90.7477 155.258 90.5818 155.34" fill="#252323"/>
<path d="M93.6109 153.325L92.0046 154.128C91.8403 154.21 91.5534 154.2 91.3627 154.105L89.8478 153.348C89.6587 153.252 89.637 153.109 89.8029 153.027L91.4092 152.224C91.5736 152.141 91.8604 152.152 92.0511 152.247L93.5644 153.004C93.7551 153.098 93.7753 153.243 93.6109 153.325" fill="#252323"/>
<path d="M97.6397 151.309L96.0333 152.113C95.869 152.195 95.5806 152.184 95.3914 152.089L93.8766 151.333C93.6874 151.237 93.6657 151.094 93.8316 151.011L95.4379 150.208C95.6023 150.126 95.8891 150.137 96.0799 150.23L97.5931 150.988C97.7839 151.083 97.804 151.227 97.6397 151.309" fill="#252323"/>
<path d="M101.672 149.294L100.066 150.097C99.9012 150.18 99.6128 150.169 99.4237 150.074L97.9089 149.317C97.7198 149.221 97.6981 149.078 97.8624 148.996L99.4687 148.193C99.6346 148.111 99.9214 148.12 100.112 148.215L101.625 148.973C101.816 149.068 101.836 149.212 101.672 149.294" fill="#252323"/>
<path d="M104.693 147.279L103.087 148.082C102.923 148.164 102.635 148.153 102.446 148.059L100.931 147.302C100.74 147.207 100.72 147.063 100.885 146.981L102.491 146.176C102.656 146.095 102.943 146.106 103.134 146.201L104.647 146.957C104.838 147.052 104.858 147.196 104.693 147.279" fill="#252323"/>
<path d="M108.726 145.263L107.12 146.066C106.955 146.149 106.667 146.138 106.476 146.043L104.963 145.286C104.773 145.192 104.752 145.048 104.917 144.965L106.523 144.162C106.687 144.08 106.975 144.089 107.166 144.185L108.679 144.942C108.87 145.037 108.89 145.181 108.726 145.263Z" fill="#252323"/>
<path d="M111.747 143.248L110.141 144.051C109.975 144.133 109.689 144.123 109.498 144.028L107.985 143.27C107.794 143.175 107.774 143.032 107.938 142.949L109.544 142.147C109.709 142.064 109.997 142.074 110.186 142.17L111.701 142.927C111.891 143.021 111.911 143.166 111.747 143.248" fill="#252323"/>
<path d="M115.776 141.231L114.17 142.036C114.004 142.118 113.717 142.107 113.527 142.012L112.014 141.255C111.823 141.161 111.803 141.017 111.967 140.933L113.573 140.13C113.738 140.049 114.026 140.059 114.215 140.154L115.73 140.91C115.919 141.006 115.941 141.15 115.776 141.231" fill="#252323"/>
<path d="M119.807 138.208L118.201 139.011C118.037 139.095 117.75 139.084 117.559 138.989L116.046 138.232C115.855 138.136 115.835 137.992 115.999 137.91L117.606 137.108C117.77 137.026 118.058 137.035 118.247 137.131L119.762 137.887C119.951 137.983 119.973 138.127 119.807 138.208" fill="#252323"/>
<path d="M68.4141 172.472L66.8081 173.275C66.6438 173.357 66.3555 173.348 66.1663 173.252L64.6518 172.495C64.4611 172.399 64.441 172.256 64.6053 172.174L66.2113 171.371C66.3756 171.288 66.664 171.299 66.8547 171.394L68.3677 172.151C68.5583 172.246 68.5785 172.39 68.4141 172.472" fill="#252323"/>
<path d="M71.4391 170.458L69.8331 171.26C69.6688 171.342 69.3805 171.331 69.1898 171.236L67.6768 170.48C67.4861 170.385 67.4659 170.241 67.6303 170.158L69.2363 169.355C69.4006 169.273 69.6889 169.284 69.8796 169.378L71.3926 170.135C71.5833 170.23 71.6035 170.374 71.4391 170.458Z" fill="#252323"/>
<path d="M75.4679 168.441L73.8619 169.243C73.696 169.327 73.4092 169.316 73.2185 169.22L71.7055 168.464C71.5148 168.368 71.4947 168.224 71.659 168.143L73.265 167.34C73.4294 167.258 73.7177 167.267 73.9068 167.362L75.4214 168.12C75.612 168.215 75.6322 168.359 75.4679 168.441" fill="#252323"/>
<path d="M79.5005 166.426L77.8943 167.229C77.7284 167.311 77.4416 167.3 77.2509 167.206L75.7377 166.449C75.547 166.354 75.5269 166.21 75.6912 166.128L77.2974 165.325C77.4617 165.242 77.7501 165.253 77.9393 165.348L79.454 166.105C79.6432 166.199 79.6649 166.343 79.5005 166.426" fill="#252323"/>
<path d="M82.5209 164.41L80.9146 165.212C80.7502 165.296 80.4633 165.285 80.2726 165.19L78.7593 164.432C78.5686 164.339 78.5485 164.195 78.7128 164.111L80.3191 163.309C80.4835 163.227 80.7719 163.236 80.961 163.332L82.4759 164.089C82.665 164.184 82.6868 164.327 82.5209 164.41" fill="#252323"/>
<path d="M86.553 161.387L84.947 162.19C84.7826 162.272 84.4958 162.262 84.3052 162.167L82.7906 161.41C82.6015 161.314 82.5798 161.171 82.7457 161.089L84.3517 160.286C84.516 160.203 84.8028 160.213 84.9935 160.309L86.508 161.066C86.6972 161.16 86.7188 161.305 86.553 161.387Z" fill="#252323"/>
<path d="M90.5825 159.372L88.9762 160.175C88.8118 160.257 88.5235 160.246 88.3343 160.151L86.8195 159.395C86.6303 159.299 86.6086 159.156 86.7745 159.073L88.3808 158.27C88.5452 158.188 88.832 158.198 89.0227 158.292L90.536 159.05C90.7267 159.145 90.7469 159.289 90.5825 159.372" fill="#252323"/>
<path d="M93.6109 157.355L92.0047 158.158C91.8404 158.242 91.552 158.231 91.3628 158.135L89.8481 157.378C89.6589 157.283 89.6372 157.139 89.8016 157.058L91.4078 156.255C91.5737 156.173 91.8605 156.182 92.0512 156.277L93.5644 157.034C93.7551 157.13 93.7753 157.274 93.6109 157.355" fill="#252323"/>
<path d="M97.6397 155.341L96.0337 156.144C95.8693 156.226 95.581 156.215 95.3919 156.121L93.8773 155.364C93.6867 155.268 93.6665 155.125 93.8308 155.043L95.4369 154.24C95.6027 154.156 95.8895 154.167 96.0802 154.262L97.5932 155.019C97.7839 155.114 97.804 155.257 97.6397 155.341" fill="#252323"/>
<path d="M100.665 153.325L99.0586 154.127C98.8943 154.211 98.6059 154.2 98.4152 154.105L96.9022 153.347C96.7116 153.254 96.6914 153.11 96.8557 153.027L98.4618 152.224C98.6261 152.142 98.9144 152.151 99.1051 152.247L100.618 153.004C100.809 153.099 100.829 153.243 100.665 153.325Z" fill="#252323"/>
<path d="M104.693 151.31L103.087 152.113C102.923 152.194 102.635 152.185 102.444 152.09L100.931 151.332C100.74 151.237 100.72 151.094 100.885 151.011L102.491 150.209C102.655 150.126 102.943 150.136 103.132 150.232L104.647 150.989C104.838 151.083 104.858 151.228 104.693 151.31" fill="#252323"/>
<path d="M108.726 149.295L107.12 150.098C106.954 150.18 106.667 150.169 106.476 150.074L104.963 149.317C104.773 149.222 104.752 149.079 104.917 148.995L106.523 148.192C106.687 148.111 106.976 148.121 107.165 148.215L108.68 148.972C108.869 149.068 108.89 149.211 108.726 149.295" fill="#252323"/>
<path d="M111.746 147.278L110.14 148.081C109.976 148.164 109.689 148.153 109.498 148.058L107.985 147.301C107.794 147.206 107.774 147.062 107.938 146.98L109.545 146.177C109.709 146.095 109.997 146.105 110.187 146.2L111.701 146.957C111.891 147.052 111.912 147.196 111.746 147.278" fill="#252323"/>
<path d="M115.775 145.263L114.169 146.066C114.004 146.148 113.718 146.138 113.527 146.044L112.014 145.287C111.823 145.191 111.803 145.047 111.967 144.965L113.573 144.162C113.738 144.079 114.025 144.09 114.215 144.186L115.73 144.941C115.919 145.037 115.941 145.181 115.775 145.263" fill="#252323"/>
<path d="M119.808 143.247L118.202 144.05C118.037 144.133 117.751 144.123 117.56 144.027L116.045 143.27C115.856 143.176 115.834 143.032 116 142.949L117.606 142.147C117.771 142.064 118.058 142.074 118.248 142.169L119.762 142.926C119.952 143.022 119.972 143.166 119.808 143.247" fill="#252323"/>
<path d="M122.83 140.225L121.223 141.027C121.059 141.109 120.771 141.1 120.581 141.004L119.067 140.247C118.877 140.152 118.856 140.009 119.022 139.926L120.628 139.124C120.792 139.04 121.079 139.051 121.27 139.146L122.783 139.904C122.974 139.998 122.994 140.143 122.83 140.225" fill="#252323"/>
<path d="M122.83 136.193L121.223 136.996C121.059 137.079 120.772 137.069 120.581 136.973L119.067 136.216C118.877 136.12 118.856 135.977 119.022 135.895L120.628 135.092C120.792 135.01 121.079 135.02 121.27 135.115L122.785 135.872C122.974 135.968 122.994 136.111 122.83 136.193Z" fill="#252323"/>
<path d="M3.91911 135.185L2.31277 135.988C2.14841 136.072 1.86159 136.061 1.67088 135.966L0.157584 135.208C-0.0331284 135.114 -0.0532925 134.971 0.111061 134.887L1.7174 134.084C1.88175 134.003 2.17013 134.012 2.35929 134.107L3.87414 134.865C4.0633 134.96 4.08501 135.103 3.91911 135.185" fill="#252323"/>
<path d="M7.94922 137.201L6.34298 138.004C6.17709 138.087 5.89028 138.076 5.69958 137.981L4.18638 137.224C3.99568 137.128 3.97552 136.985 4.13986 136.903L5.7461 136.1C5.91044 136.018 6.1988 136.028 6.38795 136.123L7.9027 136.88C8.09185 136.975 8.11356 137.119 7.94922 137.201" fill="#252323"/>
<path d="M3.9199 139.216L2.31387 140.02C2.148 140.102 1.86123 140.091 1.67055 139.996L0.157553 139.24C-0.033122 139.145 -0.0532822 139.001 0.111039 138.918L1.71703 138.115C1.88135 138.033 2.16971 138.044 2.35884 138.138L3.87339 138.895C4.06406 138.99 4.08422 139.134 3.9199 139.216" fill="#252323"/>
<path d="M10.9768 139.217L9.37053 140.02C9.20618 140.102 8.91936 140.092 8.72866 139.997L7.21387 139.24C7.02471 139.145 7.003 139.001 7.1689 138.919L8.77514 138.116C8.93949 138.033 9.22634 138.043 9.41705 138.139L10.9318 138.896C11.121 138.99 11.1412 139.135 10.9768 139.217Z" fill="#252323"/>
<path d="M6.94407 141.232L5.33777 142.035C5.17342 142.118 4.88655 142.107 4.69584 142.012L3.18255 141.254C2.99184 141.16 2.97167 141.017 3.13602 140.933L4.74236 140.131C4.90672 140.048 5.19354 140.059 5.38425 140.153L6.8991 140.911C7.08826 141.006 7.10997 141.15 6.94407 141.232" fill="#252323"/>
<path d="M15.0058 141.232L13.3998 142.035C13.2355 142.117 12.9471 142.108 12.758 142.013L11.2434 141.255C11.0528 141.16 11.0326 141.016 11.1969 140.934L12.8029 140.132C12.9688 140.048 13.2556 140.059 13.4463 140.154L14.9593 140.911C15.1499 141.006 15.1701 141.149 15.0058 141.232" fill="#252323"/>
<path d="M10.977 143.247L9.37072 144.05C9.20638 144.133 8.91802 144.122 8.72887 144.027L7.21412 143.27C7.02497 143.176 7.00326 143.031 7.1676 142.949L8.77535 142.146C8.93969 142.064 9.22654 142.074 9.41724 142.169L10.9304 142.926C11.1211 143.022 11.1413 143.165 10.977 143.247Z" fill="#252323"/>
<path d="M18.0307 143.248L16.4245 144.051C16.2601 144.133 15.9718 144.122 15.7826 144.028L14.2679 143.271C14.0787 143.176 14.057 143.032 14.2214 142.95L15.8276 142.146C15.9935 142.064 16.2803 142.075 16.471 142.17L17.9842 142.926C18.1749 143.022 18.1951 143.165 18.0307 143.248" fill="#252323"/>
<path d="M15.0058 145.263L13.3994 146.066C13.2351 146.148 12.9467 146.139 12.7575 146.043L11.2427 145.286C11.0535 145.191 11.0318 145.047 11.1977 144.965L12.804 144.162C12.9684 144.08 13.2552 144.089 13.4459 144.184L14.9592 144.942C15.1499 145.037 15.1701 145.181 15.0058 145.263" fill="#252323"/>
<path d="M22.0595 141.232L20.4535 142.035C20.2892 142.118 20.0009 142.107 19.8117 142.012L18.2972 141.254C18.1065 141.161 18.0864 141.015 18.2507 140.934L19.8567 140.131C20.0226 140.049 20.3094 140.058 20.5 140.154L22.0131 140.911C22.2037 141.007 22.2239 141.15 22.0595 141.232" fill="#252323"/>
<path d="M25.0845 139.217L23.4785 140.02C23.3142 140.102 23.0258 140.092 22.8352 139.997L21.3222 139.239C21.1315 139.144 21.1113 139.001 21.2757 138.919L22.8817 138.116C23.046 138.033 23.3343 138.043 23.525 138.139L25.038 138.896C25.2287 138.99 25.2488 139.134 25.0845 139.217Z" fill="#252323"/>
<path d="M22.0596 145.262L20.4535 146.067C20.2892 146.149 20.0009 146.138 19.8102 146.043L18.2972 145.286C18.1065 145.191 18.0864 145.048 18.2507 144.964L19.8567 144.161C20.021 144.08 20.3094 144.09 20.4985 144.184L22.013 144.941C22.2037 145.037 22.2239 145.181 22.0596 145.262" fill="#252323"/>
<path d="M25.0845 143.247L23.4785 144.051C23.3126 144.132 23.0258 144.123 22.8352 144.028L21.3222 143.271C21.1315 143.175 21.1113 143.031 21.2757 142.949L22.8817 142.146C23.046 142.064 23.3343 142.074 23.5234 142.169L25.038 142.926C25.2287 143.022 25.2488 143.166 25.0845 143.247" fill="#252323"/>
<path d="M29.1138 141.233L27.5076 142.036C27.3417 142.117 27.0548 142.107 26.8641 142.013L25.3509 141.256C25.1602 141.16 25.1401 141.017 25.3044 140.935L26.9106 140.13C27.075 140.048 27.3634 140.059 27.5525 140.155L29.0673 140.911C29.2564 141.006 29.2781 141.149 29.1138 141.233" fill="#252323"/>
<path d="M32.1348 143.247L30.5285 144.051C30.3642 144.133 30.0758 144.122 29.8866 144.027L28.3718 143.271C28.1826 143.175 28.1609 143.032 28.3268 142.949L29.9331 142.146C30.0975 142.064 30.3843 142.075 30.575 142.168L32.0883 142.926C32.279 143.021 32.2992 143.165 32.1348 143.247" fill="#252323"/>
<path d="M29.1125 145.263L27.5062 146.066C27.3418 146.148 27.055 146.139 26.8643 146.043L25.3495 145.286C25.1604 145.19 25.1402 145.047 25.3046 144.965L26.9108 144.162C27.0752 144.079 27.362 144.09 27.5527 144.185L29.0675 144.942C29.2567 145.036 29.2784 145.182 29.1125 145.263Z" fill="#252323"/>
<path d="M36.1663 145.263L34.5602 146.066C34.3959 146.149 34.1091 146.138 33.9185 146.043L32.4039 145.286C32.2148 145.191 32.1931 145.048 32.3589 144.965L33.965 144.162C34.1293 144.08 34.4161 144.089 34.6067 144.184L36.1213 144.942C36.3104 145.037 36.3321 145.181 36.1663 145.263Z" fill="#252323"/>
<path d="M32.1341 147.279L30.5277 148.082C30.3634 148.164 30.0766 148.153 29.8858 148.059L28.3725 147.302C28.1818 147.206 28.1617 147.063 28.326 146.981L29.9323 146.178C30.0967 146.095 30.3851 146.105 30.5743 146.201L32.0891 146.957C32.2783 147.052 32.3 147.196 32.1341 147.279" fill="#252323"/>
<path d="M39.192 147.279L37.5857 148.081C37.4214 148.164 37.133 148.154 36.9439 148.058L35.4291 147.301C35.24 147.206 35.2183 147.062 35.3826 146.98L36.9888 146.177C37.1547 146.095 37.4416 146.105 37.6323 146.2L39.1455 146.958C39.3362 147.052 39.3563 147.196 39.192 147.279" fill="#252323"/>
<path d="M36.167 149.295L34.5607 150.098C34.3964 150.179 34.1079 150.169 33.9188 150.074L32.4039 149.318C32.2148 149.222 32.1931 149.079 32.359 148.995L33.9653 148.192C34.1297 148.11 34.4165 148.121 34.6072 148.216L36.1205 148.973C36.3112 149.068 36.3314 149.211 36.167 149.295" fill="#252323"/>
<path d="M43.2207 149.294L41.6148 150.097C41.4504 150.179 41.1621 150.17 40.9714 150.074L39.4584 149.317C39.2677 149.222 39.2476 149.078 39.4119 148.996L41.0179 148.193C41.1822 148.11 41.4706 148.121 41.6597 148.216L43.1742 148.973C43.3649 149.069 43.3851 149.212 43.2207 149.294" fill="#252323"/>
<path d="M39.192 151.309L37.586 152.112C37.4216 152.195 37.1333 152.184 36.9426 152.089L35.4296 151.333C35.239 151.238 35.2188 151.094 35.3831 151.011L36.9892 150.208C37.1535 150.126 37.4418 150.137 37.6325 150.23L39.1455 150.988C39.3362 151.083 39.3563 151.227 39.192 151.309" fill="#252323"/>
<path d="M46.2457 151.31L44.6397 152.113C44.4754 152.194 44.187 152.185 43.9964 152.09L42.4834 151.333C42.2927 151.237 42.2725 151.094 42.4368 151.012L44.0429 150.209C44.2072 150.125 44.4955 150.136 44.6862 150.231L46.1992 150.989C46.3899 151.083 46.41 151.226 46.2457 151.31Z" fill="#252323"/>
<path d="M43.2207 153.325L41.6147 154.127C41.4504 154.211 41.1621 154.2 40.9729 154.104L39.4584 153.347C39.2677 153.253 39.2476 153.109 39.4119 153.027L41.0179 152.224C41.1837 152.142 41.4706 152.151 41.6612 152.246L43.1742 153.004C43.3649 153.099 43.3851 153.243 43.2207 153.325" fill="#252323"/>
<path d="M46.2462 155.34L44.64 156.143C44.4741 156.225 44.1873 156.216 43.9966 156.121L42.4834 155.363C42.2927 155.268 42.2725 155.124 42.4369 155.042L44.0431 154.239C44.2074 154.157 44.4958 154.167 44.6849 154.262L46.1997 155.02C46.3888 155.115 46.4106 155.258 46.2462 155.34" fill="#252323"/>
</svg>
