<svg xmlns="http://www.w3.org/2000/svg" fill="none" viewBox="0 0 37 37"><circle cx="18.5" cy="18.5" r="18.5" fill="#fff"/><path fill="#252323" d="M18.428 3a15.5 15.5 0 1 0 .144 31 15.5 15.5 0 0 0-.144-31zm6.409 9.331c.13-.002.415.03.6.18a.653.653 0 0 1 .221.42c.021.12.047.396.026.61-.232 2.452-1.242 8.399-1.756 11.143-.217 1.163-.645 1.552-1.06 1.59-.899.083-1.582-.595-2.454-1.166-1.364-.895-2.135-1.452-3.459-2.325-1.53-1.007-.538-1.563.333-2.467.229-.238 4.195-3.845 4.272-4.172.009-.041.018-.194-.072-.274-.09-.08-.225-.053-.322-.03-.137.03-2.316 1.472-6.537 4.32-.62.426-1.18.633-1.682.62-.553-.01-1.617-.312-2.409-.569-.971-.316-1.742-.483-1.675-1.019.035-.279.42-.564 1.153-.856 4.519-1.968 7.53-3.267 9.04-3.893 4.303-1.79 5.198-2.102 5.78-2.112z"/></svg>