<svg xmlns="http://www.w3.org/2000/svg" fill="none" viewBox="0 0 31 31"><circle cx="15.072" cy="15.072" r="15.072" fill="#fff"/><path fill="#36B7FF" d="M15.014 2.444a12.628 12.628 0 1 0 .118 25.257 12.628 12.628 0 0 0-.118-25.257zm5.221 7.602c.106-.002.338.025.49.148.1.087.165.21.18.342.017.098.038.322.02.497-.189 1.997-1.012 6.842-1.43 9.078-.177.947-.526 1.264-.863 1.295-.733.068-1.29-.484-2-.95-1.111-.729-1.74-1.182-2.818-1.894-1.247-.82-.439-1.273.271-2.01.187-.194 3.418-3.133 3.48-3.399.008-.034.015-.158-.058-.223-.074-.065-.183-.043-.262-.025-.112.025-1.887 1.2-5.326 3.52-.505.347-.961.515-1.37.505-.45-.008-1.318-.254-1.963-.463-.791-.258-1.42-.394-1.365-.83.028-.228.342-.46.94-.698 3.68-1.604 6.135-2.662 7.364-3.172 3.507-1.458 4.236-1.712 4.71-1.72z"/></svg>