<svg width="31" height="31" viewBox="0 0 31 31" fill="none" xmlns="http://www.w3.org/2000/svg">
<circle cx="15.5881" cy="15.0725" r="15.0725" fill="white"/>
<path d="M15.5303 2.44423C12.1913 2.45981 8.99436 3.79716 6.63883 6.16374C4.28329 8.53033 2.9609 11.7335 2.96094 15.0725C2.96094 18.4218 4.29142 21.6338 6.65969 24.0021C9.02795 26.3704 12.24 27.7009 15.5893 27.7009C18.9385 27.7009 22.1506 26.3704 24.5188 24.0021C26.8871 21.6338 28.2176 18.4218 28.2176 15.0725C28.2176 11.7233 26.8871 8.51124 24.5188 6.14297C22.1506 3.7747 18.9385 2.44423 15.5893 2.44423C15.5696 2.44418 15.55 2.44418 15.5303 2.44423ZM20.7521 10.0465C20.8574 10.0444 21.0899 10.0707 21.2415 10.1938C21.3422 10.2812 21.4064 10.4033 21.4214 10.5358C21.4383 10.6337 21.4593 10.8578 21.4425 11.0325C21.2531 13.0299 20.4301 17.875 20.0113 20.1112C19.8345 21.0584 19.4861 21.3751 19.1483 21.4056C18.4159 21.474 17.8592 20.9216 17.1489 20.4564C16.0376 19.7271 15.4093 19.2736 14.3306 18.5622C13.0836 17.7413 13.8918 17.2888 14.6021 16.5522C14.7884 16.3585 18.0192 13.4193 18.0823 13.153C18.0897 13.1194 18.097 12.9952 18.0234 12.9299C17.9497 12.8647 17.8403 12.8868 17.7613 12.9047C17.6498 12.9299 15.8744 14.1044 12.4353 16.4248C11.9302 16.7721 11.4745 16.9405 11.0652 16.93C10.6147 16.9215 9.7476 16.6763 9.10251 16.4669C8.31113 16.2091 7.68288 16.0733 7.7376 15.6366C7.76601 15.4093 8.07961 15.1767 8.67735 14.9389C12.3585 13.3351 14.8126 12.2775 16.0418 11.7671C19.5482 10.3085 20.2775 10.0549 20.7521 10.0465Z" fill="#252323"/>
</svg>