<svg xmlns="http://www.w3.org/2000/svg" fill="none" viewBox="0 0 38 38"><path fill="#fff" d="M18.05 0C15 .044 8.444.545 4.782 3.906c-2.72 2.723-3.68 6.702-3.78 11.638-.1 4.933-.23 14.185 8.688 16.693h.005l-.006 3.825s-.059 1.547.965 1.864c1.23.383 1.954-.792 3.135-2.062a99.35 99.35 0 0 0 2.212-2.502c6.096.517 10.786-.658 11.321-.83 1.229-.4 8.195-1.293 9.33-10.541 1.17-9.532-.57-15.564-3.706-18.281-.944-.871-4.76-3.642-13.26-3.678 0 0-.626-.04-1.642-.027L18.05 0zm.092 2.68c.863-.006 1.393.027 1.393.027 7.192.032 10.636 2.198 11.435 2.923 2.652 2.272 4.006 7.708 3.018 15.67v.004c-.956 7.723-6.609 8.208-7.65 8.542-.444.142-4.564 1.167-9.743.83 0 0-3.857 4.655-5.062 5.864-.19.19-.412.265-.557.228-.206-.052-.263-.297-.261-.655l.031-6.362c-7.54-2.09-7.101-9.963-7.014-14.084.086-4.123.86-7.502 3.16-9.774C9.996 3.086 15.56 2.698 18.15 2.68l-.008.002zm.602 4.12a.481.481 0 0 0-.007.962c2.572.015 4.665.85 6.378 2.52 1.699 1.656 2.565 3.908 2.586 6.862a.48.48 0 1 0 .961-.006c-.023-3.141-.979-5.694-2.876-7.543-1.884-1.837-4.262-2.776-7.04-2.795h-.002zm-6.27 1.1a1.553 1.553 0 0 0-.976.186l-.015.003c-.681.391-1.293.89-1.815 1.476-.003.006-.01.006-.013.013-.422.511-.665 1.01-.728 1.5a.944.944 0 0 0-.011.222c0 .216.035.428.103.634l.02.015c.214.76.75 2.02 1.908 4.123a24.576 24.576 0 0 0 2.29 3.462c.427.544.886 1.065 1.377 1.558l.21.209c.49.487 1.013.95 1.557 1.377a24.587 24.587 0 0 0 3.462 2.291c2.102 1.16 3.366 1.694 4.122 1.91l.016.022c.276.09.567.12.855.087.491-.057.993-.3 1.501-.728.007 0 .005-.004.013-.008a7.373 7.373 0 0 0 1.473-1.818l.004-.016c.356-.684.238-1.333-.285-1.773-.006 0-1.105-.918-1.642-1.314a21.126 21.126 0 0 0-1.762-1.125c-.807-.45-1.634-.167-1.976.276l-.708.893c-.364.448-1.04.39-1.04.39-4.94-1.26-6.262-6.263-6.262-6.263s-.059-.674.393-1.038l.891-.71c.439-.34.722-1.166.27-1.976a20.171 20.171 0 0 0-1.125-1.765 44.846 44.846 0 0 0-1.314-1.639 1.301 1.301 0 0 0-.795-.47l.002-.003zm7.109 1.394a.48.48 0 0 0-.029.96c1.837.134 3.194.738 4.188 1.82.998 1.09 1.473 2.414 1.435 4.07a.485.485 0 0 0 .966.02c.04-1.86-.53-3.472-1.69-4.74-1.171-1.283-2.813-1.984-4.829-2.131h-.038l-.003.001zm.733 2.581a.483.483 0 0 0-.475.454c-.013.265.19.491.456.507.828.044 1.385.277 1.762.668.38.388.614.982.659 1.843a.482.482 0 0 0 .958-.047c-.048-1.02-.34-1.865-.919-2.466-.58-.598-1.414-.908-2.406-.96h-.029l-.006.001z"/></svg>