<svg xmlns="http://www.w3.org/2000/svg" fill="none" viewBox="0 0 30 32"><rect width="25.8" height="23.22" x="1.815" y="1.935" fill="#fff" rx="7.095"/><path fill="#fff" d="M8.913 30.066c-.372.495-1.16.231-1.16-.388V24.51h5.35l-4.19 5.556z"/><path fill="#C548FF" d="M13.907 0c-2.486.036-7.826.444-10.81 3.182C.881 5.402.1 8.642.017 12.664c-.08 4.02-.186 11.557 7.079 13.6H7.1l-.005 3.117s-.048 1.26.787 1.518c1.002.312 1.591-.645 2.554-1.68a80.638 80.638 0 0 0 1.802-2.038c4.966.42 8.787-.536 9.223-.677 1.001-.325 6.677-1.053 7.601-8.587.955-7.766-.464-12.68-3.019-14.895C25.275 2.313 22.166.055 15.24.026c0 0-.51-.032-1.338-.022L13.907 0zm.075 2.184c.703-.005 1.135.022 1.135.022 5.86.026 8.665 1.79 9.316 2.381 2.161 1.851 3.264 6.28 2.46 12.767v.003c-.78 6.292-5.385 6.687-6.234 6.96-.361.115-3.718.95-7.937.675 0 0-3.143 3.793-4.124 4.778-.155.155-.336.216-.454.186-.168-.042-.215-.242-.213-.534l.025-5.183c-6.142-1.703-5.785-8.117-5.714-11.475.07-3.359.7-6.112 2.575-7.963 2.528-2.287 7.061-2.603 9.171-2.618l-.006.001zm.49 3.356a.392.392 0 0 0-.005.784c2.095.012 3.8.692 5.196 2.053 1.384 1.35 2.09 3.184 2.107 5.591a.393.393 0 1 0 .783-.005c-.018-2.56-.797-4.639-2.343-6.146-1.535-1.496-3.473-2.261-5.737-2.277zm-5.108.897a1.265 1.265 0 0 0-.795.151l-.013.003a5.957 5.957 0 0 0-1.478 1.202c-.003.005-.008.005-.01.01-.345.417-.542.823-.594 1.223a.77.77 0 0 0-.009.18c0 .176.029.349.084.517l.017.013c.174.619.61 1.646 1.554 3.359.542.99 1.165 1.935 1.866 2.82.348.443.722.868 1.122 1.269l.17.17c.4.398.826.774 1.27 1.123.885.7 1.829 1.325 2.82 1.866 1.713.946 2.742 1.38 3.359 1.556l.012.018c.225.073.462.098.697.07.4-.046.809-.244 1.223-.592.005 0 .004-.003.01-.007a6.006 6.006 0 0 0 1.2-1.48l.004-.014c.29-.557.193-1.086-.232-1.445-.005 0-.9-.748-1.338-1.07a17.243 17.243 0 0 0-1.436-.916c-.658-.368-1.331-.137-1.61.224l-.576.728c-.297.365-.848.317-.848.317-4.025-1.027-5.102-5.102-5.102-5.102s-.047-.55.32-.846l.726-.578c.358-.277.589-.95.22-1.61-.28-.495-.586-.975-.916-1.438a36.5 36.5 0 0 0-1.07-1.335 1.06 1.06 0 0 0-.648-.383v-.003zm5.792 1.135a.391.391 0 1 0-.023.782c1.496.11 2.602.601 3.412 1.483.812.888 1.2 1.966 1.168 3.316a.395.395 0 0 0 .787.016c.033-1.515-.43-2.828-1.376-3.862-.955-1.045-2.292-1.616-3.935-1.736h-.03l-.003.001zm.597 2.103a.394.394 0 0 0-.387.37c-.01.216.155.4.372.413.674.036 1.128.226 1.435.544.31.316.501.8.537 1.502a.392.392 0 0 0 .78-.039c-.038-.83-.277-1.52-.748-2.008-.473-.488-1.152-.74-1.96-.783h-.029z"/></svg>