<svg width="32" height="32" viewBox="0 0 32 32" fill="none" xmlns="http://www.w3.org/2000/svg">
<rect x="3.27344" y="1.93498" width="25.7998" height="23.2198" rx="7.09494" fill="#252323"/>
<path d="M10.3708 30.0663C9.99813 30.5606 9.21081 30.297 9.21081 29.678V24.5098H14.5605L10.3708 30.0663Z" fill="#252323"/>
<g clip-path="url(#clip0)">
<path d="M15.3662 0C12.8804 0.0361197 7.53981 0.443756 4.55606 3.1824C2.33986 5.40119 1.55813 8.64293 1.47686 12.6638C1.39559 16.6834 1.28981 24.2208 8.55503 26.2642H8.5589L8.55374 29.3808C8.55374 29.3808 8.50601 30.6411 9.34063 30.8991C10.343 31.2113 10.9325 30.2541 11.8948 29.2195C12.4198 28.6519 13.1487 27.8212 13.6969 27.1814C18.6634 27.6019 22.4843 26.6447 22.9204 26.5041C23.9214 26.179 29.5973 25.4515 30.521 17.9167C31.4756 10.1509 30.0566 5.23607 27.5024 3.02244C26.7336 2.31295 23.6247 0.0554695 16.6987 0.0257998C16.6987 0.0257998 16.1892 -0.00644995 15.361 0.00386997L15.3662 0ZM15.441 2.18395C16.144 2.17879 16.5762 2.20588 16.5762 2.20588C22.4353 2.23168 25.241 3.99639 25.8925 4.5872C28.0532 6.43834 29.1562 10.8669 28.3512 17.3542V17.3568C27.5721 23.6494 22.9668 24.0441 22.118 24.3163C21.7568 24.4324 18.4002 25.267 14.1807 24.9923C14.1807 24.9923 11.0383 28.7848 10.0566 29.7704C9.90178 29.9252 9.72118 29.9858 9.6025 29.9561C9.4348 29.9136 9.38836 29.7136 9.38965 29.4221L9.41545 24.2389C3.27252 22.5361 3.62985 16.1223 3.7008 12.7644C3.77046 9.40531 4.40126 6.65247 6.27562 4.80134C8.804 2.51419 13.337 2.19814 15.4474 2.18266L15.441 2.18395ZM15.9312 5.5405C15.8312 5.54555 15.7369 5.58866 15.6676 5.66101C15.5984 5.73335 15.5595 5.82944 15.5588 5.92958C15.5581 6.02972 15.5958 6.12631 15.6641 6.19956C15.7324 6.27281 15.8261 6.31717 15.926 6.32353C18.021 6.33643 19.7263 7.01625 21.1221 8.37719C22.5063 9.72652 23.2119 11.5609 23.2287 13.968C23.2312 14.1834 23.4093 14.355 23.6247 14.355C23.7278 14.3536 23.8262 14.3117 23.8987 14.2383C23.9711 14.1649 24.0117 14.066 24.0117 13.9628C23.9936 11.4035 23.2145 9.32404 21.6691 7.81733C20.134 6.32095 18.1964 5.55598 15.9325 5.5405H15.9312ZM10.8228 6.43705C10.5486 6.39907 10.2694 6.45209 10.0282 6.58798L10.0153 6.59056C9.4606 6.90918 8.96267 7.31553 8.53697 7.79282C8.53439 7.79798 8.52923 7.79798 8.52665 7.80314C8.18222 8.21981 7.98485 8.62616 7.93325 9.02606C7.92315 9.08569 7.92012 9.14631 7.92422 9.20665C7.92422 9.38209 7.9526 9.55495 8.00807 9.72265L8.02484 9.73555C8.19899 10.3547 8.63501 11.3816 9.57928 13.0947C10.1211 14.0854 10.7441 15.0297 11.4446 15.9146C11.7929 16.3584 12.167 16.7828 12.5669 17.1839L12.7372 17.3542C13.1371 17.7515 13.5628 18.1282 14.0065 18.4765C14.8922 19.1771 15.8355 19.8015 16.8264 20.3431C18.5395 21.2887 19.569 21.7234 20.1856 21.8989L20.1985 21.9169C20.4229 21.9903 20.6605 22.0145 20.8951 21.9879C21.295 21.9414 21.7039 21.7428 22.118 21.3945C22.1231 21.3945 22.1218 21.3919 22.1283 21.388C22.6056 20.9623 23.0094 20.4592 23.328 19.9071L23.3319 19.8942C23.6221 19.3369 23.5254 18.808 23.0997 18.4494C23.0945 18.4494 22.1992 17.7012 21.7619 17.3787C21.2975 17.0498 20.8202 16.7441 20.3262 16.4628C19.6683 16.0952 18.9949 16.3261 18.7163 16.6873L18.1396 17.4149C17.843 17.7799 17.2921 17.7322 17.2921 17.7322C13.2674 16.7054 12.1902 12.6303 12.1902 12.6303C12.1902 12.6303 12.1425 12.0807 12.5101 11.7841L13.2364 11.2061C13.5937 10.9288 13.8246 10.2554 13.4557 9.59623C13.1755 9.10125 12.8698 8.62115 12.5398 8.15789C12.1934 7.70455 11.8364 7.25939 11.4691 6.82275C11.3073 6.62018 11.077 6.48388 10.8215 6.43963L10.8228 6.43705ZM16.6149 7.57224C16.5112 7.56916 16.4106 7.60739 16.3351 7.67851C16.2596 7.74963 16.2155 7.84783 16.2124 7.95149C16.2093 8.05516 16.2476 8.1558 16.3187 8.23128C16.3898 8.30676 16.488 8.35089 16.5917 8.35397C18.0881 8.46362 19.1936 8.9551 20.0037 9.83746C20.8164 10.725 21.2034 11.8034 21.1724 13.1527C21.178 13.2519 21.2209 13.3454 21.2924 13.4144C21.3639 13.4834 21.4588 13.5229 21.5581 13.525C21.6574 13.5271 21.7539 13.4917 21.8283 13.4258C21.9027 13.3599 21.9495 13.2684 21.9593 13.1695C21.9916 11.6538 21.5285 10.3406 20.5829 9.30727C19.6283 8.26238 18.2906 7.69092 16.6484 7.57095H16.6175L16.6149 7.57224ZM17.2121 9.67492C17.1128 9.67638 17.0177 9.71535 16.9459 9.78402C16.8742 9.8527 16.831 9.94598 16.8252 10.0451C16.8148 10.2606 16.9799 10.445 17.1967 10.4579C17.8713 10.4941 18.3254 10.6837 18.6324 11.0023C18.942 11.3184 19.1329 11.8021 19.1691 12.5039C19.1823 12.6011 19.2316 12.6899 19.3072 12.7526C19.3827 12.8153 19.479 12.8473 19.577 12.8425C19.6751 12.8376 19.7677 12.7962 19.8367 12.7263C19.9057 12.6564 19.9459 12.5633 19.9495 12.4652C19.9108 11.6344 19.6722 10.9456 19.2013 10.4567C18.7279 9.96904 18.0493 9.7162 17.2405 9.67363H17.2173L17.2121 9.67492Z" fill="white"/>
</g>
<defs>
<clipPath id="clip0">
<rect width="30.9597" height="30.9597" fill="white" transform="translate(0.660156)"/>
</clipPath>
</defs>
</svg>