<svg xmlns="http://www.w3.org/2000/svg" fill="none" viewBox="0 0 190 94"><rect width="188" height="91.643" x="1" y="1.179" fill="#fff" stroke="#000" stroke-width="2" rx="11"/><path fill="#2B2B2A" d="M54.866 57.326V49.63l-6.926-7.667h2.394l5.5 6.071 5.473-6.07h2.423l-6.955 7.695v7.667h-1.91zM68.399 51.398h6.755l-3.392-6.813-3.363 6.813zm-4.96 5.928l7.525-15.363h1.596l7.61 15.363h-2.08l-2.08-4.133h-8.495l-2.023 4.133h-2.053zM86.165 48.034h7.354c.798 0 1.425-.2 1.853-.541.428-.37.627-.912.627-1.596 0-.713-.2-1.255-.627-1.625-.399-.37-1.026-.542-1.853-.542h-7.354v4.304zm0 7.525h8.038c.884 0 1.568-.256 2.053-.77.513-.513.77-1.225.77-2.109 0-.883-.257-1.596-.77-2.109-.485-.513-1.169-.77-2.053-.77h-8.038v5.758zm-1.91 1.767V41.963h9.093c1.511 0 2.651.314 3.42.97.77.626 1.17 1.595 1.17 2.85 0 .627-.115 1.168-.371 1.653-.228.484-.57.855-1.026 1.168.826.456 1.453 1.055 1.853 1.739.427.684.627 1.482.627 2.366 0 1.425-.457 2.537-1.397 3.363-.94.827-2.195 1.254-3.791 1.254h-9.577zM104.615 57.326V41.963h1.91V55.56h10.033v1.767h-11.943zM126.856 55.93c1.711 0 3.164-.57 4.276-1.767 1.14-1.17 1.71-2.68 1.71-4.475 0-1.825-.57-3.307-1.682-4.504-1.14-1.169-2.565-1.767-4.304-1.767-1.738 0-3.163.598-4.275 1.767-1.14 1.197-1.71 2.68-1.71 4.504 0 1.795.57 3.306 1.71 4.475 1.112 1.197 2.537 1.767 4.275 1.767zm0 1.796c-2.308 0-4.189-.742-5.7-2.28-1.511-1.511-2.252-3.421-2.252-5.758 0-2.338.741-4.276 2.252-5.787 1.511-1.51 3.392-2.28 5.7-2.28 2.309 0 4.219.77 5.73 2.28 1.51 1.54 2.251 3.45 2.251 5.786 0 2.338-.741 4.248-2.251 5.758-1.511 1.54-3.421 2.28-5.73 2.28zM139.953 57.326V41.935h1.91v7.667l8.807-7.667h2.509l-6.214 5.472 7.154 9.92h-2.309l-6.213-8.609-3.734 3.136v5.472h-1.91zM158.434 57.326V41.878h1.938v15.448h-1.938z"/><path stroke="#2B2B2A" stroke-miterlimit="22.926" stroke-width=".076" d="M54.866 57.326V49.63l-6.926-7.667h2.394l5.5 6.071 5.473-6.07h2.423l-6.955 7.695v7.667h-1.91zM68.399 51.398h6.755l-3.392-6.813-3.363 6.813v0zm-4.96 5.928l7.525-15.363h1.596l7.61 15.363h-2.08l-2.08-4.133h-8.495l-2.023 4.133h-2.053zM86.165 48.034h7.354c.798 0 1.425-.2 1.853-.541.428-.37.627-.912.627-1.596 0-.713-.2-1.255-.627-1.625-.399-.37-1.026-.542-1.853-.542h-7.354v4.304zm0 7.525h8.038c.884 0 1.568-.256 2.053-.77.513-.513.77-1.225.77-2.109 0-.883-.257-1.596-.77-2.109-.485-.513-1.169-.77-2.053-.77h-8.038v5.758zm-1.91 1.767V41.963h9.093c1.511 0 2.651.314 3.42.97.77.626 1.17 1.595 1.17 2.85 0 .627-.115 1.168-.371 1.653-.228.484-.57.855-1.026 1.168.826.456 1.453 1.055 1.853 1.739.427.684.627 1.482.627 2.366 0 1.425-.457 2.537-1.397 3.363-.94.827-2.195 1.254-3.791 1.254h-9.577v0zM104.615 57.326V41.963h1.91V55.56h10.033v1.767h-11.943zM126.856 55.93c1.711 0 3.164-.57 4.276-1.767 1.14-1.17 1.71-2.68 1.71-4.475 0-1.825-.57-3.307-1.682-4.504-1.14-1.169-2.565-1.767-4.304-1.767-1.738 0-3.163.598-4.275 1.767-1.14 1.197-1.71 2.68-1.71 4.504 0 1.795.57 3.306 1.71 4.475 1.112 1.197 2.537 1.767 4.275 1.767zm0 1.796c-2.308 0-4.189-.742-5.7-2.28-1.511-1.511-2.252-3.421-2.252-5.758 0-2.338.741-4.276 2.252-5.787 1.511-1.51 3.392-2.28 5.7-2.28 2.309 0 4.219.77 5.73 2.28 1.51 1.54 2.251 3.45 2.251 5.786 0 2.338-.741 4.248-2.251 5.758-1.511 1.54-3.421 2.28-5.73 2.28zM139.953 57.326V41.935h1.91v7.667l8.807-7.667h2.509l-6.214 5.472 7.154 9.92h-2.309l-6.213-8.609-3.734 3.136v5.472h-1.91zM158.434 57.326V41.878h1.938v15.448h-1.938z"/><path fill="#2B2B2A" d="M160.374 38.802h-2.052v1.442h2.052v-1.442z"/><path fill="#fff" fill-rule="evenodd" stroke="#2B2B2A" stroke-miterlimit="22.926" stroke-width=".3" d="M30.717 37.191h7.003c.654 0 1.282.118 1.864.334l-8.867 9.822V37.191zm-.01 10.158h.008-.008zm11.402-7.897a5.366 5.366 0 0 1 1.014 3.143V56.76c0 2.972-2.431 5.403-5.403 5.403h-5.364v-11.92l9.753-10.792v0z" clip-rule="evenodd"/><path fill="#2B2B2A" fill-rule="evenodd" stroke="#2B2B2A" stroke-miterlimit="22.926" stroke-width=".076" d="M30.723 37.191h-6.997c-.655 0-1.283.118-1.865.334l8.715 9.823.147-10.157zm-11.386 2.261a5.366 5.366 0 0 0-1.015 3.143V56.76c0 2.972 2.432 5.403 5.404 5.403h5.364v-11.92l-9.753-10.792v0z" clip-rule="evenodd"/><path fill="#2B2B2A" d="M167.877 39.389a3.14 3.14 0 0 0-2.226.921 3.138 3.138 0 0 0-.921 2.225c0 .87.352 1.656.921 2.226a3.14 3.14 0 0 0 2.226.921c.869 0 1.656-.352 2.225-.921.569-.57.921-1.356.921-2.226 0-.868-.352-1.655-.921-2.225a3.137 3.137 0 0 0-2.225-.921zm-2.688.46a3.79 3.79 0 0 1 2.688-1.114c1.049 0 1.999.425 2.687 1.113a3.787 3.787 0 0 1 1.113 2.688c0 1.049-.425 2-1.113 2.687a3.79 3.79 0 0 1-2.687 1.113c-1.05 0-2-.425-2.688-1.113a3.792 3.792 0 0 1-1.113-2.688c0-1.049.426-2 1.113-2.687z"/><path fill="#2B2B2A" d="M168.124 42.286c.256 0 .46-.052.609-.154.15-.103.225-.29.225-.557 0-.289-.105-.485-.314-.59a1.037 1.037 0 0 0-.449-.082h-1.339v1.383h1.268zm-1.815-1.854h1.873c.308 0 .562.045.762.136.38.171.57.49.57.954 0 .243-.05.441-.15.595a1.103 1.103 0 0 1-.42.373.824.824 0 0 1 .356.252c.08.105.125.275.135.51l.054 1.225-.568.004-.03-1.132c-.012-.264-.111-.442-.294-.532-.104-.05-.269-.075-.492-.075h-1.249v1.735h-.547v-4.045z"/><path fill="#fff" fill-rule="evenodd" stroke="#2B2B2A" stroke-miterlimit="22.926" stroke-width=".3" d="M38.304 26.722c-.016-.043-.04-.07-.075-.075-.215-.03-.685.102-1.146.252-.91.295-1.828.578-2.666 1.05-.656.37-1.309.85-1.844 1.437-1.201 1.317-1.754 3.351-2.18 5.05-.068.267-.092.487.008.616a.161.161 0 0 0 .09.054l7.813-8.384v0z" clip-rule="evenodd"/><path fill="#2B2B2A" fill-rule="evenodd" stroke="#2B2B2A" stroke-miterlimit="22.926" stroke-width=".076" d="M38.305 26.722c.043.012.07.033.075.065.038.206-.071.674-.198 1.135-.251.91-.489 1.826-.913 2.684a7.876 7.876 0 0 1-1.32 1.927c-1.227 1.29-3.176 2.025-4.804 2.604-.256.09-.468.135-.597.05a.144.144 0 0 1-.056-.08l7.813-8.385v0z" clip-rule="evenodd"/></svg>