<svg width="175" height="41" viewBox="0 0 175 41" fill="none" xmlns="http://www.w3.org/2000/svg">
<path d="M41.6947 35.0137V26.2318L33.791 17.4824H36.523L42.8005 24.4102L49.0456 17.4824H51.8101L43.8739 26.2644V35.0137H41.6947Z" fill="#2B2B2A"/>
<path d="M57.138 28.2484H64.8465L60.976 20.4747L57.138 28.2484ZM51.4785 35.0137L60.0653 17.4824H61.8866L70.571 35.0137H68.1967L65.8224 30.2975H56.1298L53.8205 35.0137H51.4785Z" fill="#2B2B2A"/>
<path d="M77.4175 24.4102H85.8092C86.7198 24.4102 87.4353 24.1827 87.9234 23.7923C88.4112 23.3694 88.6389 22.7515 88.6389 21.971C88.6389 21.1576 88.4112 20.5397 87.9234 20.1168C87.4679 19.694 86.7524 19.4989 85.8092 19.4989H77.4175V24.4102ZM77.4175 32.997H86.5897C87.5981 32.997 88.3786 32.7044 88.9316 32.119C89.517 31.5334 89.8097 30.7203 89.8097 29.7121C89.8097 28.7036 89.517 27.8905 88.9316 27.3052C88.3786 26.7196 87.5981 26.4269 86.5897 26.4269H77.4175V32.997V32.997ZM75.2383 35.0137V17.4824H85.614C87.3378 17.4824 88.6389 17.8401 89.517 18.5882C90.3953 19.3037 90.8507 20.4097 90.8507 21.8408C90.8507 22.5563 90.7205 23.1743 90.4279 23.7273C90.1675 24.2803 89.7773 24.7031 89.2569 25.0608C90.2001 25.5812 90.9157 26.2644 91.3711 27.0449C91.8589 27.8256 92.0866 28.7362 92.0866 29.7445C92.0866 31.3709 91.5662 32.6394 90.4928 33.5826C89.4194 34.5259 87.9884 35.0137 86.1668 35.0137H75.2383V35.0137Z" fill="#2B2B2A"/>
<path d="M98.4766 35.0137V17.4824H100.656V32.997H112.105V35.0137H98.4766Z" fill="#2B2B2A"/>
<path d="M123.85 33.42C125.801 33.42 127.46 32.7694 128.729 31.4035C130.03 30.0698 130.68 28.3461 130.68 26.2968C130.68 24.2152 130.03 22.5238 128.761 21.1577C127.46 19.8242 125.834 19.1413 123.85 19.1413C121.866 19.1413 120.24 19.8242 118.971 21.1577C117.67 22.5238 117.02 24.2152 117.02 26.2968C117.02 28.3461 117.67 30.0698 118.971 31.4035C120.24 32.7694 121.866 33.42 123.85 33.42ZM123.85 35.4692C121.216 35.4692 119.069 34.6235 117.345 32.8672C115.621 31.1432 114.775 28.964 114.775 26.2968C114.775 23.6298 115.621 21.418 117.345 19.6941C119.069 17.9703 121.216 17.092 123.85 17.092C126.484 17.092 128.664 17.9703 130.388 19.6941C132.111 21.4506 132.957 23.6298 132.957 26.2968C132.957 28.964 132.111 31.1432 130.388 32.8672C128.664 34.6235 126.484 35.4692 123.85 35.4692Z" fill="#2B2B2A"/>
<path d="M138.791 35.0137V17.4498H140.97V26.1992L151.021 17.4498H153.883L146.792 23.6947L154.956 35.0137H152.322L145.231 25.191L140.97 28.7688V35.0137H138.791Z" fill="#2B2B2A"/>
<path d="M159.889 35.0135V17.3846H162.1V35.0135H159.889Z" fill="#2B2B2A"/>
<path d="M41.6947 35.0137V26.2318L33.791 17.4824H36.523L42.8005 24.4102L49.0456 17.4824H51.8101L43.8739 26.2644V35.0137H41.6947Z" stroke="#2B2B2A" stroke-width="0.0762" stroke-miterlimit="22.9256"/>
<path d="M57.138 28.2484H64.8465L60.976 20.4747L57.138 28.2484ZM51.4785 35.0137L60.0653 17.4824H61.8866L70.571 35.0137H68.1967L65.8224 30.2975H56.1298L53.8205 35.0137H51.4785Z" stroke="#2B2B2A" stroke-width="0.0762" stroke-miterlimit="22.9256"/>
<path d="M77.4175 24.4102H85.8092C86.7198 24.4102 87.4353 24.1827 87.9234 23.7923C88.4112 23.3694 88.6389 22.7515 88.6389 21.971C88.6389 21.1576 88.4112 20.5397 87.9234 20.1168C87.4679 19.694 86.7524 19.4989 85.8092 19.4989H77.4175V24.4102ZM77.4175 32.997H86.5897C87.5981 32.997 88.3786 32.7044 88.9316 32.119C89.517 31.5334 89.8097 30.7203 89.8097 29.7121C89.8097 28.7036 89.517 27.8905 88.9316 27.3052C88.3786 26.7196 87.5981 26.4269 86.5897 26.4269H77.4175V32.997V32.997ZM75.2383 35.0137V17.4824H85.614C87.3378 17.4824 88.6389 17.8401 89.517 18.5882C90.3953 19.3037 90.8507 20.4097 90.8507 21.8408C90.8507 22.5563 90.7205 23.1743 90.4279 23.7273C90.1675 24.2803 89.7773 24.7031 89.2569 25.0608C90.2001 25.5812 90.9157 26.2644 91.3711 27.0449C91.8589 27.8256 92.0866 28.7362 92.0866 29.7445C92.0866 31.3709 91.5662 32.6394 90.4928 33.5826C89.4194 34.5259 87.9884 35.0137 86.1668 35.0137H75.2383V35.0137Z" stroke="#2B2B2A" stroke-width="0.0762" stroke-miterlimit="22.9256"/>
<path d="M98.4766 35.0137V17.4824H100.656V32.997H112.105V35.0137H98.4766Z" stroke="#2B2B2A" stroke-width="0.0762" stroke-miterlimit="22.9256"/>
<path d="M123.85 33.42C125.801 33.42 127.46 32.7694 128.729 31.4035C130.03 30.0698 130.68 28.3461 130.68 26.2968C130.68 24.2152 130.03 22.5238 128.761 21.1577C127.46 19.8242 125.834 19.1413 123.85 19.1413C121.866 19.1413 120.24 19.8242 118.971 21.1577C117.67 22.5238 117.02 24.2152 117.02 26.2968C117.02 28.3461 117.67 30.0698 118.971 31.4035C120.24 32.7694 121.866 33.42 123.85 33.42ZM123.85 35.4692C121.216 35.4692 119.069 34.6235 117.345 32.8672C115.621 31.1432 114.775 28.964 114.775 26.2968C114.775 23.6298 115.621 21.418 117.345 19.6941C119.069 17.9703 121.216 17.092 123.85 17.092C126.484 17.092 128.664 17.9703 130.388 19.6941C132.111 21.4506 132.957 23.6298 132.957 26.2968C132.957 28.964 132.111 31.1432 130.388 32.8672C128.664 34.6235 126.484 35.4692 123.85 35.4692Z" stroke="#2B2B2A" stroke-width="0.0762" stroke-miterlimit="22.9256"/>
<path d="M138.791 35.0137V17.4498H140.97V26.1992L151.021 17.4498H153.883L146.792 23.6947L154.956 35.0137H152.322L145.231 25.191L140.97 28.7688V35.0137H138.791Z" stroke="#2B2B2A" stroke-width="0.0762" stroke-miterlimit="22.9256"/>
<path d="M159.889 35.0135V17.3846H162.1V35.0135H159.889Z" stroke="#2B2B2A" stroke-width="0.0762" stroke-miterlimit="22.9256"/>
<path d="M162.093 13.8754H159.752V15.521H162.093V13.8754Z" fill="#2B2B2A"/>
<path fill-rule="evenodd" clip-rule="evenodd" d="M14.1508 12.0371H22.1348C22.8816 12.0371 23.5982 12.1719 24.2623 12.418L14.1508 23.6265V12.0371V12.0371ZM14.1506 23.6267L14.1504 23.6269V23.6265L14.1506 23.6267V23.6267ZM27.1428 14.6173C27.8708 15.6292 28.3009 16.8684 28.3009 18.2032V34.3684C28.3009 37.7597 25.5263 40.5343 22.1348 40.5343H16.0135V26.9325L27.1428 14.6173V14.6173Z" fill="white"/>
<path fill-rule="evenodd" clip-rule="evenodd" d="M14.1505 12.0371H6.1659C5.41931 12.0371 4.70247 12.1719 4.03856 12.418L14.1505 23.6269V12.0371ZM1.15806 14.6173C0.430063 15.6294 0 16.8684 0 18.2032V34.3684C0 37.7597 2.77462 40.5343 6.1659 40.5343H12.2874V26.9325L1.15806 14.6173V14.6173Z" fill="#2B2B2A"/>
<path d="M170.663 14.5449C169.671 14.5449 168.774 14.9467 168.124 15.5964C167.474 16.2461 167.072 17.1441 167.072 18.1357C167.072 19.1275 167.474 20.0252 168.124 20.6749C168.774 21.3248 169.671 21.7267 170.663 21.7267C171.655 21.7267 172.553 21.3246 173.202 20.6749C173.852 20.0252 174.254 19.1275 174.254 18.1357C174.254 17.1441 173.852 16.2461 173.202 15.5964C172.553 14.9469 171.655 14.5449 170.663 14.5449ZM167.596 15.0692C168.381 14.2846 169.465 13.799 170.663 13.799C171.861 13.799 172.945 14.2844 173.73 15.0692C174.514 15.8539 175 16.9382 175 18.1357C175 19.3331 174.514 20.4175 173.73 21.2023C172.945 21.987 171.861 22.4726 170.663 22.4726C169.465 22.4726 168.381 21.987 167.596 21.2023C166.812 20.4175 166.326 19.3331 166.326 18.1357C166.326 16.9382 166.812 15.8539 167.596 15.0692V15.0692Z" fill="#2B2B2A"/>
<path d="M170.94 17.8504C171.233 17.8504 171.466 17.7914 171.636 17.6746C171.807 17.5575 171.892 17.3451 171.892 17.0395C171.892 16.7103 171.772 16.4861 171.534 16.3671C171.407 16.305 171.235 16.2728 171.022 16.2728H169.494V17.8504H170.94V17.8504ZM168.869 15.7354H171.007C171.359 15.7354 171.648 15.787 171.876 15.8898C172.31 16.086 172.527 16.4498 172.527 16.9794C172.527 17.2561 172.469 17.4825 172.356 17.6584C172.241 17.8343 172.081 17.9758 171.876 18.0832C172.057 18.156 172.192 18.2525 172.283 18.3715C172.374 18.4916 172.426 18.6848 172.436 18.9529L172.499 20.3514L171.85 20.3551L171.816 19.0634C171.802 18.762 171.69 18.5592 171.481 18.4562C171.362 18.4004 171.174 18.3715 170.919 18.3715H169.494V20.3514H168.869V15.7354V15.7354Z" fill="#2B2B2A"/>
<path fill-rule="evenodd" clip-rule="evenodd" d="M22.7959 0.0905687C22.7776 0.0411312 22.75 0.0107242 22.7108 0.00503672C22.465 -0.0297445 21.9286 0.120974 21.4029 0.291818C20.3641 0.629349 19.3169 0.952006 18.3603 1.49057C17.6122 1.91188 16.8669 2.45985 16.256 3.13032C14.8857 4.63313 14.2544 6.95473 13.7675 8.89307C13.6909 9.19713 13.664 9.44891 13.7782 9.59548C13.8025 9.62654 13.8377 9.64622 13.8808 9.65738L22.7959 0.0905687V0.0905687Z" fill="white"/>
<path fill-rule="evenodd" clip-rule="evenodd" d="M22.796 0.0908203C22.8448 0.103727 22.8752 0.127571 22.8822 0.164977C22.9255 0.399477 22.8006 0.933884 22.6558 1.45932C22.3695 2.49838 22.0982 3.54401 21.6141 4.52291C21.2355 5.28854 20.7341 6.06357 20.1087 6.72091C18.7071 8.19441 16.4835 9.03201 14.6255 9.69285C14.3339 9.79654 14.0913 9.84729 13.9447 9.75082C13.9139 9.73048 13.8933 9.69832 13.8809 9.65763L22.796 0.0908203V0.0908203Z" fill="#2B2B2A"/>
</svg>
