<svg xmlns="http://www.w3.org/2000/svg" fill="none" viewBox="0 0 190 94"><rect width="188" height="92" x="1" y="1" fill="#fff" stroke="#000" stroke-width="2" rx="11"/><path fill="#2B2B2A" fill-rule="evenodd" d="M144.177 25.589v1.385c1.428 0 1.89 1.183 1.89 2.77v16.878c0 .767-.299 2.77-1.512 2.77h-.378c0 1.23-.17 1.764.378 1.764h8.313v-1.763h-.378c-.758 0-1.259-1.592-1.259-2.771 0-.452 1.032-1.089 1.543-1.605l3.145-3.152c.345-.34.545-.422.887-.75.307-.296.515-.521.816-.822 1.073-1.073 2.016-2.154 3.199-3.098 1.048-.836 2.241-2.488 3.256-3.168 0 3.22.139 9.897.002 12.85-.054 1.172-.391 2.516-1.765 2.516v1.763h8.69v-1.763c-.9 0-1.084-.267-1.392-.876-.244-.484-.497-1.156-.497-1.895V29.619c0-1.476.527-2.519 1.889-2.519v-1.89h-8.69v1.764c1.296 0 1.763 1.22 1.763 2.393 0 .401-1.172 1.361-1.48 1.669l-8.06 7.808c-.758.758-2.442 2.539-3.306 3.118l-.001-11.966c-.005-.791.17-2.896 1.134-2.896h.504v-1.89h-8.313c-.29 0-.378.088-.378.379zM112.821 62.491c.184-.226.162-.108 1.028.232 3.812 1.498 3.503 5.332 6.15 9.09.618.877 1.78 2.315 2.646 2.895-.174.243.08.214-.811-.449-.888-.66-1.431-1.123-2.064-2.092l-3.001-5.311c-.859-1.707-2.248-3.465-3.948-4.365zm-7.053-12.343c.198-.24.025-.152.368.01.627.297.891.165.891.62v23.93h-.629V51.03c0-.398-.616-.855-.63-.882zm3.652 10.076c0-1.606-.197-7.494.299-8.769.096-.246.379-.828.542-.97.882-.767 1.048.806 1.048-1.722 0-.29-.087-.378-.377-.378h-8.817v1.89h.756c.846 0 1.26 2.04 1.26 3.022v18.64c0 1.64-.509 3.023-2.016 3.023v1.89h9.194v-1.89c-.902 0-1.341.077-1.779-1.999-.211-.997-.11-8.108-.11-9.462 1.227.102 2.674.889 3.508 1.656 1.257 1.155 2.284 3.756 3.209 5.607.969 1.937 1.14 2.621 2.45 4.603 1.336 2.02 2.292 1.484 5.569 1.484v.378h3.275v-1.763c-2.536 0-4.603-2.231-5.789-4.288-.401-.697-.775-1.534-1.139-2.261-.855-1.711-2.42-5.145-3.885-6.317-.521-.417-1.372-1.175-2.16-1.24.133-.496.879-.986 1.512-2.266.449-.907.841-1.65 1.161-2.744.411-1.408 1.173-4.84 2.491-5.192 1.318.883.766 1.89 3.275 1.89 3.275 0 2.998-5.542-.756-5.542-2.246 0-3.354.412-4.826 2.227-2.64 3.254-2.736 9.357-5.356 10.136-.711.21-1.839.52-2.539.357zM82.95 73.596c0-.042.071-.109.08-.089.02.045.09-.103.116-.136l.533-.727c1.439-2.147 1.604-5.084.25-7.331-.479-.795-1.305-1.776-2.09-2.192l.403.1c1.288.945 2.208 1.419 2.908 3.39.567 1.593.317 3.67-.417 4.947-.212.367-.507.766-.77 1.118-.31.414-.618.655-.865 1.025l-.147-.105zm-6.905.734h-2.897V62.491c3.878 0 7.137.17 8.818 3.399 2.51 4.821-.468 8.44-5.921 8.44zm5.017-15.092l.67-.756c.682-.929 1.024-1.769 1.142-3.024.172-1.839-.506-2.735-1.54-3.924.13-.182.056-.19.87.642l.18.197c1.334 1.504 1.248 3.814.19 5.438-.4.613-.975.949-1.366 1.532l-.146-.105zm-5.27.734h-2.644v-9.445c3.549 0 7.808.344 7.808 5.163 0 2.832-2.735 4.282-5.163 4.282zm5.29-8.69l.038.038c-.002-.003-.05-.025-.038-.038zm-10.957-1.637c.355.17 1.134.283 1.134.756v24.433h-.756V50.401c0-.632.08.15-.258-.498l-.12-.258zm-3.4-1.134c0 1.502-.108 1.26 1.259 1.26.297.444.63.764.63 1.511v22.67c0 .349-.181.675-.343.917-.363.548-.518.469-1.294.469v1.511c3.81 0 10.035.314 13.376-.477 1.949-.46 3.895-1.324 5.16-2.901 1.993-2.487 1.879-6.764.431-9.166-.88-1.46-3.181-3.332-4.61-3.45.344-.47.595-.279 1.357-1.037 5.663-5.64.904-11.684-7.276-11.684h-8.313c-.29 0-.377.087-.377.377zM22.134 26.22c0 2.005-.273 2.518.882 2.518 1.42 0 .732-1.258 2.736-3.183 2.915-2.798 9.48-2.992 9.48 2.931 0 1.782-1.323 3.489-2.446 4.23-1.48.976-4.2 1.186-6.37 1.186v2.267c3.565 0 6.955-.84 9.293 1.54.503.511.833 1.032 1.112 1.783 1.154 3.099.031 7.124-3.433 8.812-2.786 1.358-6.798.06-7.607-1.55-.573-1.139-.792-3.784-3.143-3.784-1.747 0-2.683 1.15-2.77 2.474v.421c.058.89.486 1.81 1.294 2.485 2.34 1.955 5.961 2.68 9.285 2.68 3.273 0 5.791-1.089 7.784-2.417.67-.447.821-.582 1.378-1.14 2.415-2.422 3.273-5.601 2.013-8.75-.39-.977-.66-1.294-1.241-2.035-1.171-1.492-2.543-1.954-4.015-2.66.273-.373 1.727-1.078 2.469-2.066.848-1.13 1.184-2.058 1.184-3.727 0-4.457-4.49-6.802-8.943-6.802-2.413 0-4.427.109-6.624.933-2.11.791-2.318.926-2.318 3.853zM125.654 26.722c.513 0 1.134.1 1.134 1.008v11.083c0 1.212-.481 1.386-1.134 1.386v1.51h6.046c0-.697.113-.837.126-1.385-.632-.302-.866.307-1.26-1.385l7.557-7.43v4.785c0 2.342.369 4.03-1.134 4.03v1.638h5.92v-1.638c-.63 0-.648.103-.916-.343-.105-.177-.344-.8-.344-1.042V28.485c0-1.792.582-1.763 1.26-1.763v-1.511h-5.92v1.511c.849.02.97.556 1.134 1.26-.749.501-4.506 4.607-5.579 5.504l-1.978 1.8v-4.534c0-2.814-.448-4.03 1.134-4.03v-1.511h-6.046v1.511zM102.614 44.103c.014-.04.485-.206.147-.012-.001 0-.276.367-.147.012zm-22.293-10.58c0-3.53 1.137-6.958 3.076-9.645.28-.389.602-.723.828-1.06l-.232.523c-2.968 4.363-3.462 11.093-1.832 16.025.391 1.185 1.688 4.184 2.442 4.737l-.105.147c-.031-.01-1.423-1.863-1.584-2.11-.991-1.522-1.799-3.418-2.163-5.268-.19-.959-.43-2.306-.43-3.349zm22.523 10.223l1.324-2.119c.36-.748.705-1.68.95-2.45.468-1.471.978-4.615.862-5.996-.288-3.448-.541-5.41-1.978-8.35-.234-.479-.993-1.874-1.388-2.14.186-.26.023-.186.472.284 2.042 2.141 3.684 6.36 3.684 9.415 0 2.89-.045 4.614-1.223 7.342a15.334 15.334 0 0 1-1.78 3.13c-.252.343-.568.678-.776.989l-.147-.105zM92.79 19.166c3.072 0 5.576.828 7.588 2.864 1.849 1.87 2.73 3.356 3.606 6.092 2.57 8.028-.513 19.381-10.313 19.381-2.884 0-4.856-.92-6.82-2.5-2.154-1.732-3.743-5.54-4.193-8.401-.887-5.653.406-12.524 5.326-15.945 1.122-.78 2.934-1.491 4.806-1.491zm-8.313 3.274l.038.037c-.003-.002-.05-.024-.038-.037zm-5.29 10.076c0 4.203.42 6.303 2.512 9.83l1.74 2.291c.223.253.445.454.69.696.848.841 2.21 1.607 3.442 2.1 2.8 1.12 5.864 1.535 9.323.775 1.456-.32 2.721-.907 3.872-1.545 2.029-1.125 4.379-3.471 5.416-5.54.646-1.29 1.11-2.37 1.381-4.035.489-2.99.324-7.24-.646-9.631-1.955-4.815-5.189-7.862-10.253-8.891-2.052-.417-3.784-.316-5.837.022-2.525.415-5.66 1.96-7.327 3.63-2.47 2.477-4.313 6.802-4.313 10.298zM51.35 40.2c-3.54 0-5.29-3.041-5.29-6.55 0-2.095.2-4.14 1.105-5.57 1.213-1.915 2.66-2.239 4.814-2.239 1.736 0 3.002 1.242 3.68 2.365 1.227 2.031 1.469 5.297.858 7.715-.214.848-.594 1.464-1.034 2.115-.909 1.346-2.628 2.163-4.134 2.163zm-9.573-7.683c0 2.37.398 4.063 1.78 5.903.777 1.037.744 1.003 1.65 1.751l2.128 1.272c3.54 1.44 8.16.827 10.786-1.776 1.959-1.941 3.052-3.535 3.052-6.647 0-6.707-7.214-10.796-13.657-8.367-.77.29-.895.306-1.534.733-.428.286-.916.654-1.278.99-.693.641-1.565 1.644-2.005 2.528-.413.83-.922 2.436-.922 3.613zM93.169 54.809h.63V74.96h-.63V54.81zm-3.778-.378h.503c.446 0 1.008 1.312 1.008 1.763v17.003c0 .601-.483 1.89-1.008 1.89h-.503v1.762h8.186v-1.763c-.788 0-1.101.01-1.407-.86-.157-.445-.356-1.024-.356-1.659V56.194c0-.195.23-1.763 1.26-1.763h.503v-1.763h-8.186v1.763zM65.093 25.967c2.692 0 2.141.349 2.141 5.92 0 2.232-.47 5.024-1.67 6.641-.616.828-.703.817-1.604 1.293-.392-1.681-4.03-1.914-4.03.756 0 2.575 8.942 4.008 8.942-10.076 0-.935-.065-2.117 0-3.022.12-1.674 1.582-1.512 2.645-1.512 1.19 0 1.637.827 1.637 2.015 0 1.868.242 11.113-.245 12.224-.41.936-1.157.749-2.022.749v.881h7.557v-.881c-.527 0-1.764.136-1.764-.63V26.597c0-.302.209-.426.471-.537.196-.083.028-.041.3-.078 1.078-.146 1.119.44 1.119-1.148H65.093v1.133zM109.039 29.871c0 .526.437.378 1.511.378 0-3.314 1.61-2.771 4.409-2.771v11.21c0 1.111-.461 1.51-1.26 1.51v1.512h6.045v-1.511c-.996 0-1.259-.534-1.259-2.016V27.73c2.85 0 4.534-.535 4.534 2.519h1.511V25.21h-15.491v4.66z" clip-rule="evenodd"/><path fill="#2B2B2A" fill-rule="evenodd" d="M96.184 35.16c2.382 0 4.408.435 4.408 3.275 0 2.26-1.885 3.904-4.156 3.904-1.653 0-3.408-.434-4.786-.755.294-.402 1.268-.633 2.227-2.56 1.534-3.082 1.62-4.188 2.738-7.085l1.332-3.58c2.991 0 5.035 3.192 1.712 5.616-1.222.89-1.682.618-2.732.67-.66.031-.515.084-.743.515zM86.99 24.96c0 2.004 2.141 1.652 2.141.378 0-.642-.63-.115-.63-.756 0-1.49 3.963-2.427 5.44-.78 1.002 1.117-.121 3.276-1.77 3.946-1.169.476-2.187.377-3.177.475-.612.06-.493.152-.493.767 1.193.278 1.215.05 2.158.02.394-.012.614.144.991.232-.495.675-1.257.206-1.008 1.385.717 0 .516.037.919-.34.386-.364.4-.307.845-.542.372.556.422.284.64 1.127.662 2.556-2.324 6.556-5.552 6.556-1.398 0-3.4-.369-3.4-2.015 0-1.678.066-2.222 1.256-3.781 2.818-3.693 6.229-.003 3.311 2.934-1.284 1.292-1.717.646-1.797 1.603.62.518 2.875-.717 3.512-2.407.452-1.198.622-2.53-.416-3.46-2.55-2.283-8.002 1.347-6.614 5.859.627 2.038 4.989 2.647 8.46-.214 1.39-1.145 2.363-2.544 2.363-4.564 0-.914-1.004-1.697-1.385-2.267 1.476-.344 2.113-.63 4.03-.63-1.839 2.745-1.518 2.616-2.535 5.904-.526 1.704-1.357 4.995-2.3 6.265-1.287 1.734-2.487-.285-3.73 2.063.85-.07.884-.504 2.393-.504 3.078 0 6.364 1.288 9.517-.81 3.037-2.022 2.43-6.16-1.582-6.495.027-.017.073-.064.088-.037.02.035.116-.048.184-.068.942-.28 1.272-.239 2.358-1.043 1.772-1.31 2.048-4.043-.063-5.07-.815-.397-1.78-.583-2.945-.583.477-.711 1.057-1.036 2.015-1.26v-.251c-1.065.089-2.489 1.334-2.625 1.405l-3.704.452c-2.49.497-.829.265-2.11.158v-.252c.6-.05 1.583-.707 1.98-1.043 3.425-2.887.648-5.002-1.097-5.002h-1.26c-1.72 0-4.408 1.096-4.408 2.645zM150.721 19.418c0 2.724 4.147 3.904 6.549 3.904h1.889c2.191 0 5.652-1.024 6.056-3.399.105-.615.073-.957-.114-1.535-.343-1.062-1.29-1.615-2.541-1.615-3.067 0-3.232 7.557-6.321 2.416-.687-1.142-1.494-2.3-2.65-2.416h-.384c-.359.035-.75.167-1.178.424-.654.392-1.306 1.266-1.306 2.22zM104.258 45.362h35.769V44.23h-34.006c-.561 0-1.619.593-1.763 1.133zM46.809 44.607c0 1.02.263.758 1.763.755h34.005c-.108-.407-.362-.464-.701-.683-.312-.202-.62-.45-1.062-.45H47.186c-.29 0-.377.087-.377.378z" clip-rule="evenodd"/></svg>