<svg width="175" height="70" viewBox="0 0 175 70" fill="none" xmlns="http://www.w3.org/2000/svg">
<path fill-rule="evenodd" clip-rule="evenodd" d="M143.937 10.2078V11.812C145.59 11.812 146.125 13.181 146.125 15.0202V34.5619C146.125 35.4504 145.779 37.7704 144.375 37.7704H143.937C143.937 39.1939 143.74 39.8119 144.375 39.8119H154V37.7704H153.562C152.684 37.7704 152.104 35.9279 152.104 34.5619C152.104 34.0391 153.3 33.3017 153.891 32.7032L157.533 29.0539C157.932 28.6597 158.164 28.5659 158.56 28.1847C158.915 27.8429 159.156 27.5824 159.505 27.2339C160.747 25.9912 161.839 24.7392 163.209 23.6462C164.422 22.6782 165.803 20.766 166.979 19.9787C166.979 23.7062 167.14 31.4387 166.981 34.8564C166.919 36.2144 166.529 37.7704 164.937 37.7704V39.8119H175V37.7704C173.957 37.7704 173.744 37.4621 173.388 36.7566C173.106 36.1964 172.812 35.4181 172.812 34.5619V14.8745C172.812 13.1655 173.423 11.958 175 11.958V9.77026H164.937V11.812C166.438 11.812 166.979 13.224 166.979 14.583C166.979 15.0472 165.621 16.159 165.265 16.5152L155.932 25.5567C155.055 26.4334 153.105 28.4957 152.104 29.1662L152.103 15.311C152.098 14.395 152.3 11.958 153.417 11.958H154V9.77026H144.375C144.039 9.77026 143.937 9.87176 143.937 10.2078V10.2078Z" fill="#2B2B2A"/>
<path fill-rule="evenodd" clip-rule="evenodd" d="M107.63 52.9374C107.844 52.6754 107.818 52.8117 108.821 53.2057C113.235 54.9397 112.877 59.3791 115.942 63.7301C116.657 64.7464 118.003 66.4116 119.005 67.0833C118.805 67.3638 119.099 67.3306 118.067 66.5631C117.039 65.7981 116.409 65.2626 115.677 64.1404L112.202 57.9911C111.207 56.0144 109.599 53.9792 107.63 52.9374V52.9374ZM99.4636 38.6457C99.6929 38.368 99.4931 38.469 99.8901 38.657C100.616 39.0007 100.922 38.848 100.922 39.375V67.0833H100.193V39.6667C100.193 39.2055 99.4801 38.677 99.4636 38.6457V38.6457ZM103.693 50.3124C103.693 48.4529 103.464 41.6342 104.039 40.1585C104.149 39.874 104.478 39.1997 104.666 39.036C105.687 38.1472 105.88 39.968 105.88 37.0417C105.88 36.7057 105.779 36.6042 105.443 36.6042H95.2344V38.7917H96.1096C97.0896 38.7917 97.5679 41.1552 97.5679 42.2917V63.8749C97.5679 65.7726 96.9786 67.3749 95.2344 67.3749V69.5623H105.88V67.3749C104.835 67.3749 104.327 67.4641 103.82 65.0606C103.576 63.9054 103.693 55.6714 103.693 54.1042C105.114 54.2224 106.789 55.1332 107.755 56.0214C109.21 57.3591 110.399 60.3704 111.471 62.5139C112.592 64.7566 112.79 65.5491 114.307 67.8436C115.854 70.1821 116.961 69.5623 120.755 69.5623V69.9998H124.547V67.9581C121.611 67.9581 119.218 65.3751 117.845 62.9936C117.38 62.1869 116.947 61.2169 116.526 60.3749C115.536 58.3939 113.723 54.4184 112.027 53.0612C111.424 52.5782 110.439 51.7009 109.526 51.6249C109.68 51.0504 110.544 50.4832 111.277 49.0012C111.797 47.9514 112.251 47.0907 112.621 45.824C113.097 44.1937 113.979 40.22 115.505 39.8125C117.032 40.8347 116.392 42 119.297 42C123.09 42 122.769 35.5833 118.422 35.5833C115.822 35.5833 114.539 36.061 112.834 38.162C109.777 41.93 109.666 48.9969 106.633 49.8982C105.809 50.1429 104.504 50.5014 103.693 50.3124V50.3124Z" fill="#2B2B2A"/>
<path fill-rule="evenodd" clip-rule="evenodd" d="M73.0483 65.7951C73.048 65.7463 73.13 65.6694 73.1398 65.6924C73.1623 65.7449 73.2435 65.5729 73.2745 65.5354L73.8913 64.6936C75.5575 62.2069 75.749 58.8066 74.181 56.2041C73.6265 55.2839 72.6693 54.1477 71.76 53.6667L72.228 53.7819C73.7195 54.8769 74.784 55.4252 75.5952 57.7064C76.2515 59.5521 75.962 61.9579 75.112 63.4351C74.867 63.8611 74.5248 64.3226 74.22 64.7306C73.862 65.2099 73.505 65.4884 73.2183 65.9166L73.0483 65.7951ZM65.0518 66.6456H61.6976V52.9374C66.1883 52.9374 69.962 53.1329 71.9085 56.8721C74.8153 62.4551 71.3663 66.6456 65.0518 66.6456V66.6456ZM70.8608 49.1702L71.638 48.2944C72.4268 47.2194 72.823 46.2469 72.959 44.7937C73.1583 42.6645 72.373 41.6265 71.1768 40.25C71.327 40.0395 71.2408 40.0305 72.184 40.9927C72.1845 40.9932 72.3883 41.217 72.3925 41.2217C73.9363 42.9632 73.8375 45.6372 72.6113 47.5177C72.1483 48.2277 71.483 48.6164 71.0308 49.2917L70.8608 49.1702V49.1702ZM64.7601 50.0207H61.6976V39.0835C65.8065 39.0835 70.739 39.4817 70.739 45.0625C70.739 48.3409 67.5713 50.0207 64.7601 50.0207V50.0207ZM70.885 39.9582L70.9285 40.0017C70.9255 39.999 70.8705 39.9727 70.885 39.9582ZM58.1976 38.0625C58.6086 38.2597 59.5101 38.3905 59.5101 38.9375V67.2291H58.6351V38.9375C58.6351 38.2062 58.7286 39.1127 58.3366 38.361L58.1976 38.0625ZM54.2601 36.75C54.2601 38.4887 54.1359 38.2082 55.7183 38.2082C56.0623 38.722 56.4476 39.0937 56.4476 39.9582V66.2081C56.4476 66.6116 56.2376 66.9888 56.0511 67.2698C55.6298 67.9038 55.4508 67.8123 54.5519 67.8123V69.5623C58.9648 69.5623 66.1715 69.9251 70.0408 69.0098C72.2965 68.4763 74.55 67.4771 76.0145 65.6501C78.3222 62.7706 78.1905 57.8191 76.5142 55.0374C75.495 53.3459 72.8305 51.1792 71.1768 51.0417C71.575 50.4979 71.8653 50.7199 72.7473 49.8414C79.3052 43.311 73.7943 36.3125 64.3226 36.3125H54.6976C54.3616 36.3125 54.2601 36.414 54.2601 36.75V36.75Z" fill="#2B2B2A"/>
<path fill-rule="evenodd" clip-rule="evenodd" d="M2.62499 10.938C2.62499 13.2609 2.30849 13.8547 3.64573 13.8547C5.28948 13.8547 4.49373 12.3977 6.81447 10.1692C10.189 6.92898 17.7917 6.70448 17.7917 13.5629C17.7917 15.6267 16.2589 17.6022 14.9589 18.4597C13.2447 19.5904 10.096 19.8337 7.58322 19.8337V22.4587C11.7107 22.4587 15.6357 21.4854 18.3427 24.2409C18.9257 24.8341 19.3074 25.4374 19.6309 26.3069C20.9666 29.8946 19.6667 34.5553 15.6554 36.5101C12.4302 38.0818 7.78446 36.5796 6.84697 34.7158C6.18347 33.3968 5.93047 30.3336 3.20824 30.3336C1.1855 30.3336 0.102 31.6649 0 33.1989V33.6861C0.0682497 34.7156 0.564 35.7821 1.49925 36.5636C4.20898 38.8271 8.40171 39.6671 12.2499 39.6671C16.0402 39.6671 18.9557 38.4058 21.2629 36.8676C22.0384 36.3506 22.2144 36.1938 22.8594 35.5473C25.6554 32.7439 26.6484 29.0619 25.1894 25.4151C24.7374 24.2851 24.4251 23.9171 23.7526 23.0601C22.3969 21.3322 20.8082 20.7972 19.1042 19.9797C19.4202 19.5479 21.1041 18.7319 21.9624 17.5879C22.9449 16.2784 23.3331 15.2044 23.3331 13.2714C23.3331 8.11122 18.1339 5.39648 12.9789 5.39648C10.1842 5.39648 7.85221 5.52223 5.30898 6.47623C2.86599 7.39272 2.62499 7.54847 2.62499 10.938V10.938Z" fill="#2B2B2A"/>
<path fill-rule="evenodd" clip-rule="evenodd" d="M122.49 11.5203C123.084 11.5203 123.803 11.635 123.803 12.687V25.5204C123.803 26.9234 123.246 27.1244 122.49 27.1244V28.8744H129.49C129.49 28.0659 129.622 27.9047 129.636 27.2702C128.905 26.9197 128.634 27.6254 128.178 25.6662L136.928 17.062C136.928 18.9092 136.928 20.7565 136.928 22.6037C136.928 25.3149 137.354 27.2702 135.615 27.2702V29.1662H142.469V27.2702C141.74 27.2702 141.719 27.3887 141.409 26.8722C141.287 26.6679 141.011 25.9457 141.011 25.6662V13.562C141.011 11.4868 141.684 11.5203 142.469 11.5203V9.77026H135.615V11.5203C136.598 11.5423 136.738 12.1638 136.928 12.9787C136.061 13.5592 131.711 18.3135 130.468 19.3522L128.178 21.437C128.178 19.687 128.178 17.937 128.178 16.187C128.178 12.9275 127.659 11.5203 129.49 11.5203V9.77026H122.49V11.5203V11.5203Z" fill="#2B2B2A"/>
<path fill-rule="evenodd" clip-rule="evenodd" d="M95.8124 31.6451C95.8291 31.5993 96.3741 31.4066 95.9829 31.6313C95.9816 31.6321 95.6631 32.0563 95.8124 31.6451ZM70 19.3951C70 15.3067 71.3162 11.3387 73.5612 8.22743C73.8865 7.77669 74.259 7.39044 74.5207 6.99944L74.2517 7.60544C70.8152 12.6574 70.243 20.4499 72.1302 26.1609C72.5837 27.5331 74.0852 31.0056 74.9582 31.6451L74.8367 31.8153C74.8005 31.8031 73.1885 29.6586 73.002 29.3723C71.855 27.6098 70.9195 25.4154 70.4972 23.2731C70.2782 22.1624 70 20.6031 70 19.3951V19.3951ZM96.0796 31.2321L97.6129 28.7791C98.0289 27.9126 98.4281 26.8331 98.7121 25.9409C99.2543 24.2384 99.8443 20.5974 99.7106 18.9984C99.3768 15.0067 99.0836 12.7357 97.4196 9.32943C97.1494 8.77593 96.2701 7.16019 95.8124 6.85369C96.0286 6.55069 95.8399 6.63744 96.3591 7.18169C98.7238 9.66093 100.625 14.5449 100.625 18.0826C100.625 21.4286 100.573 23.4254 99.2091 26.5839C98.6208 27.9461 97.9924 29.0601 97.1476 30.2096C96.8564 30.6061 96.4906 30.9938 96.2499 31.3536L96.0796 31.2321V31.2321ZM84.4374 2.77046C87.9944 2.77046 90.8941 3.73021 93.2244 6.08744C95.3654 8.25293 96.3851 9.97318 97.3996 13.1414C100.376 22.4371 96.8054 35.5826 85.4582 35.5826C82.1187 35.5826 79.8352 34.5161 77.5612 32.6881C75.067 30.6826 73.2267 26.2734 72.7065 22.9596C71.6785 16.4149 73.1755 8.45843 78.8734 4.49795C80.1722 3.59521 82.2699 2.77046 84.4374 2.77046V2.77046ZM74.8125 6.56194L74.856 6.60544C74.853 6.60269 74.798 6.57644 74.8125 6.56194ZM68.6875 18.2286C68.6875 23.0956 69.1732 25.5266 71.5957 29.6118L73.6105 32.2638C73.8687 32.5571 74.1255 32.7896 74.4085 33.0701C75.3915 34.0436 76.968 34.9306 78.3942 35.5008C81.6364 36.7973 85.1847 37.2788 89.1901 36.3981C90.8761 36.0273 92.3406 35.3483 93.6726 34.6096C96.0221 33.3068 98.7436 30.5903 99.9443 28.1938C100.693 26.7009 101.229 25.4499 101.544 23.5226C102.109 20.0614 101.919 15.1389 100.795 12.3712C98.5311 6.79544 94.7869 3.26821 88.9231 2.07621C86.5479 1.59346 84.5422 1.71046 82.1644 2.10146C79.2407 2.58221 75.6105 4.3707 73.6807 6.30519C70.8202 9.17243 68.6875 14.1812 68.6875 18.2286V18.2286Z" fill="#2B2B2A"/>
<path fill-rule="evenodd" clip-rule="evenodd" d="M36.4523 27.1255C32.3544 27.1255 30.3274 23.6047 30.3274 19.5423C30.3274 17.1163 30.5599 14.7485 31.6079 13.0935C33.0124 10.8758 34.6873 10.5006 37.1816 10.5006C39.1923 10.5006 40.6578 11.9388 41.4431 13.239C42.8628 15.5905 43.1433 19.372 42.4361 22.1717C42.1881 23.1532 41.7478 23.867 41.2391 24.6205C40.1868 26.1792 38.1961 27.1255 36.4523 27.1255V27.1255ZM25.3691 18.2298C25.3691 20.9745 25.8301 22.935 27.4289 25.0657C28.3294 26.2662 28.2909 26.2265 29.3394 27.0927L31.8041 28.5655C35.9023 30.232 41.2523 29.523 44.2938 26.5087C46.5615 24.2612 47.8273 22.4155 47.8273 18.813C47.8273 11.0471 39.4741 6.31233 32.0134 9.12406C31.1231 9.45956 30.9779 9.47906 30.2376 9.97331C29.7419 10.3046 29.1766 10.7308 28.7579 11.1186C27.9556 11.8618 26.9461 13.023 26.4364 14.047C25.9584 15.0075 25.3691 16.868 25.3691 18.2298V18.2298Z" fill="#2B2B2A"/>
<path fill-rule="evenodd" clip-rule="evenodd" d="M84.875 44.0419H85.6042V67.375H84.875V44.0419ZM80.5 43.6044H81.0832C81.5995 43.6044 82.25 45.1236 82.25 45.6461V65.3333C82.25 66.0297 81.6905 67.5207 81.0832 67.5207H80.5V69.5625H89.9789V67.5207C89.0664 67.5207 88.7039 67.5332 88.3492 66.5257C88.1675 66.0092 87.9375 65.3388 87.9375 64.6043V45.6461C87.9375 45.4203 88.2029 43.6044 89.3957 43.6044H89.9789V41.5626H80.5V43.6044Z" fill="#2B2B2A"/>
<path fill-rule="evenodd" clip-rule="evenodd" d="M52.3657 10.6464C55.4824 10.6464 54.8449 11.0499 54.8449 17.5003C54.8449 20.0846 54.3007 23.3175 52.9099 25.1903C52.1972 26.1495 52.0969 26.1358 51.0532 26.6878C50.5997 24.7405 46.3867 24.4713 46.3867 27.5628C46.3867 30.5443 56.7409 32.2038 56.7409 15.8961C56.7409 14.8131 56.6659 13.4441 56.7409 12.3963C56.8799 10.4579 58.5732 10.6464 59.8034 10.6464C61.1822 10.6464 61.6991 11.6034 61.6991 12.9796C61.6991 15.1423 61.9791 25.8463 61.4156 27.1338C60.9417 28.2173 60.0754 28.0003 59.0742 28.0003V29.021H67.8241V28.0003C67.2141 28.0003 65.7824 28.1578 65.7824 27.271V11.3754C65.7824 11.0259 66.0234 10.8819 66.3274 10.7536C66.5544 10.6579 66.3599 10.7059 66.6746 10.6634C67.9231 10.4944 67.9699 11.1729 67.9699 9.33386H52.3657V10.6464V10.6464Z" fill="#2B2B2A"/>
<path fill-rule="evenodd" clip-rule="evenodd" d="M103.252 15.1662C103.252 15.7752 103.758 15.6037 105.002 15.6037C105.002 11.7665 106.866 12.3953 110.106 12.3953V25.3744C110.106 26.6624 109.573 27.1244 108.648 27.1244V28.8744H115.648V27.1244C114.494 27.1244 114.189 26.5067 114.189 24.7912V12.687C117.489 12.687 119.439 12.0675 119.439 15.6037H121.189V9.77026H103.252V15.1662Z" fill="#2B2B2A"/>
<path fill-rule="evenodd" clip-rule="evenodd" d="M88.3675 21.2909C91.126 21.2909 93.4717 21.7942 93.4717 25.0824C93.4717 27.6984 91.2884 29.6034 88.659 29.6034C86.7457 29.6034 84.713 29.1002 83.1175 28.7284C83.4577 28.2639 84.5855 27.9957 85.6957 25.7649C87.472 22.1957 87.572 20.9149 88.8665 17.5607L90.4092 13.416C93.8717 13.416 96.2389 17.1112 92.3907 19.9184C90.9764 20.9499 90.4429 20.6344 89.2282 20.6934C88.463 20.7304 88.632 20.7909 88.3675 21.2909ZM77.7218 9.4785C77.7218 11.7992 80.2007 11.3917 80.2007 9.916C80.2007 9.17325 79.4718 9.7835 79.4718 9.041C79.4718 7.31651 84.0605 6.23052 85.7707 8.13776C86.9305 9.431 85.6295 11.931 83.7215 12.7075C82.3675 13.2585 81.1882 13.1432 80.042 13.257C79.3335 13.3275 79.4718 13.4332 79.4718 14.145C80.8525 14.4667 80.878 14.2022 81.9697 14.169C82.4262 14.155 82.6807 14.335 83.1175 14.4367C82.5445 15.2187 81.6615 14.6757 81.9507 16.041C82.7802 16.041 82.5477 16.0837 83.0142 15.646C83.4615 15.226 83.4785 15.292 83.9925 15.02C84.4235 15.6637 84.4812 15.348 84.734 16.3242C85.5002 19.284 82.0435 23.9159 78.305 23.9159C76.686 23.9159 74.3675 23.4884 74.3675 21.5827C74.3675 19.6389 74.4443 19.0095 75.8223 17.204C79.0855 12.9285 83.0352 17.2005 79.6568 20.6012C78.1703 22.0974 77.668 21.3492 77.5758 22.4574C78.294 23.0574 80.9045 21.6274 81.6427 19.6702C82.1657 18.2832 82.3625 16.741 81.1605 15.6647C78.208 13.0212 71.8948 17.2237 73.502 22.4479C74.2283 24.8079 79.279 25.5134 83.2982 22.2007C84.9065 20.8749 86.0342 19.2555 86.0342 16.916C86.0342 15.8572 84.872 14.951 84.43 14.291C86.1392 13.8927 86.8772 13.5617 89.0967 13.5617C86.968 16.7405 87.339 16.5905 86.162 20.3979C85.552 22.3709 84.5905 26.1819 83.4992 27.6517C82.0082 29.6596 80.6185 27.3222 79.18 30.0409C80.1645 29.9589 80.2032 29.4576 81.9507 29.4576C85.5147 29.4576 89.3187 30.9479 92.9699 28.5184C96.4867 26.1784 95.7842 21.3859 91.1382 20.9992C91.1694 20.9794 91.2232 20.9242 91.2402 20.9554C91.2624 20.9964 91.3744 20.8999 91.4532 20.8767C92.5444 20.5527 92.9264 20.6004 94.1839 19.67C96.2354 18.152 96.5544 14.988 94.1099 13.7985C93.1672 13.3397 92.0494 13.1242 90.7007 13.1242C91.2524 12.3002 91.9247 11.9245 93.0342 11.666V11.3742C91.8007 11.477 90.152 12.9187 89.9947 13.0017L85.705 13.5242C82.822 14.0995 84.7455 13.831 83.2632 13.7075V13.416C83.958 13.3582 85.0952 12.5967 85.5557 12.2085C89.5207 8.8655 86.3055 6.41602 84.2842 6.41602H82.8257C80.8332 6.41602 77.7218 7.68526 77.7218 9.4785V9.4785Z" fill="#2B2B2A"/>
<path fill-rule="evenodd" clip-rule="evenodd" d="M151.512 3.06248C151.512 6.21697 156.314 7.58321 159.095 7.58321H161.283C163.819 7.58321 167.826 6.39797 168.295 3.64798C168.416 2.93599 168.379 2.53949 168.163 1.87049C167.765 0.640497 166.668 0 165.22 0C161.67 0 161.478 8.75021 157.901 2.79824C157.106 1.47599 156.172 0.134499 154.833 0H154.388C153.972 0.0402498 153.52 0.19375 153.024 0.491498C152.267 0.945496 151.512 1.95749 151.512 3.06248V3.06248Z" fill="#2B2B2A"/>
<path fill-rule="evenodd" clip-rule="evenodd" d="M97.7148 33.1039H139.131V31.7914H99.7566C99.1071 31.7914 97.8818 32.4786 97.7148 33.1039Z" fill="#2B2B2A"/>
<path fill-rule="evenodd" clip-rule="evenodd" d="M31.1973 32.2289C31.1973 33.4111 31.502 33.1066 33.239 33.1039H72.6138C72.4881 32.6326 72.1936 32.5661 71.8013 32.3121C71.4408 32.0786 71.0836 31.7914 70.5721 31.7914H31.6348C31.2988 31.7914 31.1973 31.8929 31.1973 32.2289V32.2289Z" fill="#2B2B2A"/>
</svg>
