<svg width="190" height="94" viewBox="0 0 190 94" fill="none" xmlns="http://www.w3.org/2000/svg">
<rect x="1" y="1" width="188" height="92" rx="11" fill="white" stroke="black" stroke-width="2"/>
<path fill-rule="evenodd" clip-rule="evenodd" d="M144.177 25.5887V26.9741C145.605 26.9741 146.067 28.1565 146.067 29.7449V46.6218C146.067 47.3891 145.768 49.3927 144.555 49.3927H144.177C144.177 50.6221 144.007 51.1558 144.555 51.1558H152.868V49.3927H152.49C151.732 49.3927 151.231 47.8015 151.231 46.6218C151.231 46.1703 152.263 45.5334 152.774 45.0165L155.919 41.8649C156.264 41.5244 156.464 41.4434 156.806 41.1142C157.113 40.819 157.321 40.594 157.622 40.2931C158.695 39.2198 159.638 38.1385 160.821 37.1946C161.869 36.3586 163.062 34.7071 164.077 34.0272C164.077 37.2464 164.216 43.9244 164.079 46.8761C164.025 48.0489 163.688 49.3927 162.314 49.3927V51.1558H171.004V49.3927C170.104 49.3927 169.92 49.1265 169.612 48.5172C169.368 48.0334 169.115 47.3613 169.115 46.6218V29.619C169.115 28.1431 169.642 27.1002 171.004 27.1002V25.2108H162.314V26.9741C163.61 26.9741 164.077 28.1936 164.077 29.3673C164.077 29.7682 162.905 30.7283 162.597 31.036L154.537 38.8445C153.779 39.6017 152.095 41.3828 151.231 41.9618L151.23 29.996C151.225 29.2049 151.4 27.1002 152.364 27.1002H152.868V25.2108H144.555C144.265 25.2108 144.177 25.2985 144.177 25.5887V25.5887Z" fill="#2B2B2A"/>
<path fill-rule="evenodd" clip-rule="evenodd" d="M112.821 62.4914C113.005 62.2651 112.983 62.3828 113.849 62.723C117.661 64.2206 117.352 68.0547 119.999 71.8123C120.617 72.69 121.779 74.1281 122.645 74.7083C122.471 74.9505 122.725 74.9218 121.834 74.259C120.946 73.5983 120.403 73.1358 119.77 72.1666L116.769 66.8559C115.91 65.1487 114.521 63.391 112.821 62.4914V62.4914ZM105.768 50.1485C105.966 49.9087 105.793 49.9959 106.136 50.1582C106.763 50.4551 107.027 50.3232 107.027 50.7783V74.7083H106.398V51.0303C106.398 50.632 105.782 50.1755 105.768 50.1485V50.1485ZM109.42 60.2243C109.42 58.6184 109.223 52.7295 109.719 51.455C109.815 51.2093 110.098 50.627 110.261 50.4856C111.143 49.718 111.309 51.2905 111.309 48.7633C111.309 48.4731 111.222 48.3854 110.932 48.3854H102.115V50.2746H102.871C103.717 50.2746 104.131 52.3158 104.131 53.2973V71.9373C104.131 73.5763 103.622 74.96 102.115 74.96V76.8492H111.309V74.96C110.407 74.96 109.968 75.0371 109.53 72.9614C109.319 71.9637 109.42 64.8525 109.42 63.499C110.647 63.6011 112.094 64.3877 112.928 65.1548C114.185 66.3101 115.212 68.9107 116.137 70.7619C117.106 72.6988 117.277 73.3833 118.587 75.3649C119.923 77.3845 120.879 76.8492 124.156 76.8492V77.2271H127.431V75.4638C124.895 75.4638 122.828 73.233 121.642 71.1763C121.241 70.4795 120.867 69.6418 120.503 68.9146C119.648 67.2038 118.083 63.7704 116.618 62.5982C116.097 62.1811 115.246 61.4235 114.458 61.3578C114.591 60.8617 115.337 60.3718 115.97 59.0919C116.419 58.1853 116.811 57.4419 117.131 56.3479C117.542 54.94 118.304 51.5081 119.622 51.1562C120.94 52.039 120.388 53.0454 122.897 53.0454C126.172 53.0454 125.895 47.5037 122.141 47.5037C119.895 47.5037 118.787 47.9163 117.315 49.7308C114.675 52.9849 114.579 59.0882 111.959 59.8666C111.248 60.0779 110.12 60.3875 109.42 60.2243V60.2243Z" fill="#2B2B2A"/>
<path fill-rule="evenodd" clip-rule="evenodd" d="M82.9508 73.5958C82.9506 73.5537 83.0214 73.4872 83.0298 73.5071C83.0492 73.5524 83.1194 73.4038 83.1462 73.3715L83.6788 72.6445C85.1178 70.4969 85.2832 67.5603 83.9291 65.3127C83.4502 64.5179 82.6235 63.5366 81.8382 63.1212L82.2424 63.2208C83.5305 64.1664 84.4498 64.6399 85.1504 66.6101C85.7172 68.2041 85.4672 70.2818 84.7331 71.5576C84.5215 71.9255 84.2259 72.3241 83.9627 72.6765C83.6536 73.0904 83.3452 73.3309 83.0976 73.7007L82.9508 73.5958ZM76.0447 74.3303H73.1479V62.4914C77.0263 62.4914 80.2854 62.6603 81.9664 65.8896C84.4768 70.7113 81.4981 74.3303 76.0447 74.3303V74.3303ZM81.0616 59.2379L81.7328 58.4816C82.414 57.5532 82.7562 56.7133 82.8737 55.4582C83.0458 53.6193 82.3676 52.7229 81.3345 51.5341C81.4642 51.3523 81.3898 51.3445 82.2044 52.1756C82.2048 52.176 82.3808 52.3692 82.3844 52.3733C83.7177 53.8773 83.6324 56.1867 82.5734 57.8108C82.1735 58.4239 81.599 58.7597 81.2084 59.3428L81.0616 59.2379V59.2379ZM75.7928 59.9724H73.1479V50.5267C76.6966 50.5267 80.9564 50.8706 80.9564 55.6903C80.9564 58.5217 78.2207 59.9724 75.7928 59.9724V59.9724ZM81.0825 51.2821L81.1201 51.3197C81.1175 51.3173 81.07 51.2947 81.0825 51.2821ZM70.1252 49.6449C70.4801 49.8153 71.2587 49.9282 71.2587 50.4006V74.8342H70.503V50.4006C70.503 49.769 70.5838 50.5519 70.2452 49.9027L70.1252 49.6449ZM66.7246 48.5114C66.7246 50.013 66.6173 49.7708 67.984 49.7708C68.2811 50.2145 68.6138 50.5355 68.6138 51.2821V73.9525C68.6138 74.3009 68.4325 74.6267 68.2714 74.8694C67.9076 75.417 67.753 75.338 66.9766 75.338V76.8493C70.7878 76.8493 77.0118 77.1626 80.3534 76.3722C82.3015 75.9114 84.2477 75.0484 85.5125 73.4706C87.5056 70.9837 87.3918 66.7075 85.9441 64.3051C85.0639 62.8442 82.7627 60.9729 81.3345 60.8542C81.6784 60.3846 81.9291 60.5763 82.6908 59.8176C88.3545 54.1777 83.595 48.1335 75.4149 48.1335H67.1025C66.8123 48.1335 66.7246 48.2212 66.7246 48.5114V48.5114Z" fill="#2B2B2A"/>
<path fill-rule="evenodd" clip-rule="evenodd" d="M22.1342 26.2192C22.1342 28.2254 21.8609 28.7382 23.0158 28.7382C24.4354 28.7382 23.7481 27.4799 25.7524 25.5552C28.6667 22.7569 35.2327 22.563 35.2327 28.4862C35.2327 30.2685 33.909 31.9746 32.7863 32.7152C31.3058 33.6917 28.5864 33.9018 26.4163 33.9018V36.1689C29.981 36.1689 33.3707 35.3283 35.7086 37.7081C36.2121 38.2204 36.5418 38.7414 36.8212 39.4923C37.9748 42.5908 36.852 46.616 33.3878 48.3042C30.6024 49.6616 26.5901 48.3642 25.7805 46.7546C25.2075 45.6155 24.989 42.97 22.6379 42.97C20.891 42.97 19.9553 44.1197 19.8672 45.4445V45.8653C19.9261 46.7544 20.3543 47.6755 21.162 48.3504C23.5022 50.3052 27.1232 51.0307 30.4467 51.0307C33.7201 51.0307 36.238 49.9414 38.2306 48.6129C38.9003 48.1664 39.0524 48.0311 39.6094 47.4727C42.0241 45.0515 42.8817 41.8716 41.6217 38.7222C41.2313 37.7463 40.9616 37.4285 40.3808 36.6883C39.21 35.196 37.8379 34.7339 36.3662 34.0279C36.6391 33.655 38.0935 32.9503 38.8347 31.9623C39.6832 30.8314 40.0185 29.9039 40.0185 28.2345C40.0185 23.7779 35.5283 21.4333 31.0763 21.4333C28.6626 21.4333 26.6486 21.542 24.4522 22.3659C22.3424 23.1574 22.1342 23.2919 22.1342 26.2192V26.2192Z" fill="#2B2B2A"/>
<path fill-rule="evenodd" clip-rule="evenodd" d="M125.654 26.7222C126.167 26.7222 126.788 26.8213 126.788 27.7298V38.8132C126.788 40.0249 126.307 40.1985 125.654 40.1985V41.7099H131.7C131.7 41.0116 131.813 40.8724 131.826 40.3244C131.194 40.0217 130.96 40.6312 130.566 38.9391L138.123 31.5082C138.123 33.1035 138.123 34.6989 138.123 36.2942C138.123 38.6358 138.492 40.3244 136.989 40.3244V41.9618H142.909V40.3244C142.279 40.3244 142.261 40.4267 141.993 39.9807C141.888 39.8043 141.649 39.1805 141.649 38.9391V28.4855C141.649 26.6932 142.231 26.7222 142.909 26.7222V25.2108H136.989V26.7222C137.838 26.7412 137.959 27.2779 138.123 27.9818C137.374 28.4831 133.617 32.589 132.544 33.4861L130.566 35.2866C130.566 33.7752 130.566 32.2639 130.566 30.7525C130.566 27.9375 130.118 26.7222 131.7 26.7222V25.2108H125.654V26.7222V26.7222Z" fill="#2B2B2A"/>
<path fill-rule="evenodd" clip-rule="evenodd" d="M102.614 44.1027C102.628 44.0632 103.099 43.8967 102.761 44.0908C102.76 44.0914 102.485 44.4578 102.614 44.1027ZM80.321 33.5232C80.321 29.9922 81.4578 26.5653 83.3966 23.8783C83.6775 23.4891 83.9992 23.1555 84.2253 22.8178L83.993 23.3412C81.0251 27.7042 80.5309 34.4341 82.1608 39.3663C82.5524 40.5514 83.8492 43.5504 84.6031 44.1027L84.4982 44.2497C84.4669 44.2391 83.0747 42.3871 82.9136 42.1398C81.923 40.6177 81.1151 38.7225 80.7505 36.8723C80.5613 35.9131 80.321 34.5664 80.321 33.5232V33.5232ZM102.844 43.746L104.168 41.6275C104.528 40.8792 104.873 39.9469 105.118 39.1763C105.586 37.706 106.096 34.5615 105.98 33.1805C105.692 29.7331 105.439 27.7718 104.002 24.8301C103.768 24.352 103.009 22.9566 102.614 22.6919C102.8 22.4302 102.637 22.5052 103.086 22.9752C105.128 25.1164 106.77 29.3343 106.77 32.3897C106.77 35.2794 106.725 37.0038 105.547 39.7316C105.039 40.9081 104.496 41.8702 103.767 42.8629C103.515 43.2054 103.199 43.5402 102.991 43.8509L102.844 43.746V43.746ZM92.7897 19.1655C95.8616 19.1655 98.366 19.9944 100.378 22.0302C102.227 23.9004 103.108 25.386 103.984 28.1222C106.554 36.1503 103.471 47.5032 93.6713 47.5032C90.7872 47.5032 88.815 46.5822 86.8511 45.0034C84.697 43.2714 83.1077 39.4635 82.6584 36.6016C81.7706 30.9493 83.0635 24.0778 87.9845 20.6574C89.1061 19.8778 90.9178 19.1655 92.7897 19.1655V19.1655ZM84.4772 22.44L84.5148 22.4775C84.5122 22.4752 84.4647 22.4525 84.4772 22.44ZM79.1875 32.5157C79.1875 36.719 79.607 38.8185 81.6991 42.3467L83.4392 44.637C83.6622 44.8903 83.8839 45.0911 84.1283 45.3333C84.9773 46.1741 86.3388 46.9401 87.5706 47.4326C90.3707 48.5523 93.4351 48.9682 96.8943 48.2075C98.3504 47.8873 99.6152 47.3009 100.766 46.6629C102.795 45.5378 105.145 43.1918 106.182 41.1221C106.828 39.8327 107.292 38.7523 107.563 37.0878C108.052 34.0986 107.887 29.8473 106.917 27.457C104.962 22.6416 101.728 19.5954 96.6637 18.5659C94.6124 18.149 92.8802 18.25 90.8267 18.5877C88.3016 19.0029 85.1664 20.5475 83.4998 22.2182C81.0294 24.6945 79.1875 29.0202 79.1875 32.5157V32.5157Z" fill="#2B2B2A"/>
<path fill-rule="evenodd" clip-rule="evenodd" d="M51.3492 40.1993C47.81 40.1993 46.0594 37.1586 46.0594 33.6501C46.0594 31.5549 46.2602 29.5101 47.1653 28.0808C48.3783 26.1654 49.8249 25.8414 51.979 25.8414C53.7155 25.8414 54.9812 27.0835 55.6594 28.2064C56.8855 30.2373 57.1278 33.5031 56.517 35.921C56.3028 36.7687 55.9226 37.3851 55.4832 38.0359C54.5744 39.382 52.8552 40.1993 51.3492 40.1993V40.1993ZM41.7773 32.5166C41.7773 34.8871 42.1755 36.5802 43.5562 38.4204C44.3339 39.4572 44.3007 39.4228 45.2062 40.171L47.3348 41.4429C50.8742 42.8821 55.4946 42.2698 58.1214 39.6666C60.0799 37.7256 61.173 36.1315 61.173 33.0203C61.173 26.3133 53.9589 22.2243 47.5155 24.6526C46.7467 24.9423 46.6212 24.9592 45.9819 25.386C45.5538 25.6721 45.0656 26.0402 44.704 26.3751C44.0111 27.017 43.1393 28.0199 42.6991 28.9042C42.2862 29.7338 41.7773 31.3405 41.7773 32.5166V32.5166Z" fill="#2B2B2A"/>
<path fill-rule="evenodd" clip-rule="evenodd" d="M93.169 54.8089H93.7988V74.9602H93.169V54.8089ZM89.3906 54.431H89.8943C90.3402 54.431 90.902 55.7431 90.902 56.1944V73.1969C90.902 73.7984 90.4188 75.0861 89.8943 75.0861H89.3906V76.8494H97.577V75.0861C96.7889 75.0861 96.4759 75.0969 96.1695 74.2268C96.0125 73.7807 95.8139 73.2017 95.8139 72.5673V56.1944C95.8139 55.9994 96.0432 54.431 97.0733 54.431H97.577V52.6677H89.3906V54.431Z" fill="#2B2B2A"/>
<path fill-rule="evenodd" clip-rule="evenodd" d="M65.0933 25.9674C67.7851 25.9674 67.2345 26.3159 67.2345 31.8867C67.2345 34.1186 66.7645 36.9107 65.5634 38.528C64.9478 39.3565 64.8612 39.3446 63.9598 39.8213C63.5682 38.1396 59.9297 37.9071 59.9297 40.577C59.9297 43.1519 68.872 44.5851 68.872 30.5012C68.872 29.5659 68.8072 28.3836 68.872 27.4787C68.992 25.8046 70.4543 25.9674 71.5168 25.9674C72.7076 25.9674 73.1541 26.7939 73.1541 27.9824C73.1541 29.8503 73.3959 39.0946 72.9092 40.2065C72.4999 41.1423 71.7517 40.9549 70.887 40.9549V41.8364H78.4438V40.9549C77.917 40.9549 76.6805 41.0909 76.6805 40.3251V26.597C76.6805 26.2951 76.8886 26.1708 77.1512 26.06C77.3472 25.9773 77.1792 26.0188 77.4511 25.9821C78.5293 25.8361 78.5697 26.4221 78.5697 24.8339H65.0933V25.9674V25.9674Z" fill="#2B2B2A"/>
<path fill-rule="evenodd" clip-rule="evenodd" d="M109.039 29.871C109.039 30.3969 109.476 30.2488 110.55 30.2488C110.55 26.9348 112.16 27.4779 114.959 27.4779V38.6872C114.959 39.7995 114.498 40.1985 113.699 40.1985V41.7099H119.744V40.1985C118.748 40.1985 118.485 39.665 118.485 38.1834V27.7298C121.335 27.7298 123.019 27.1948 123.019 30.2488H124.53V25.2108H109.039V29.871Z" fill="#2B2B2A"/>
<path fill-rule="evenodd" clip-rule="evenodd" d="M96.1841 35.1604C98.5664 35.1604 100.592 35.595 100.592 38.4348C100.592 40.6941 98.7068 42.3393 96.4358 42.3393C94.7835 42.3393 93.028 41.9047 91.65 41.5836C91.9439 41.1825 92.9178 40.9508 93.8767 39.0243C95.4107 35.9417 95.4971 34.8356 96.6151 31.9388L97.9474 28.3593C100.938 28.3593 102.982 31.5506 99.6587 33.975C98.4373 34.8659 97.9766 34.5934 96.9275 34.6443C96.2666 34.6763 96.4125 34.7286 96.1841 35.1604ZM86.9901 24.9587C86.9901 26.963 89.131 26.6111 89.131 25.3366C89.131 24.6951 88.5014 25.2221 88.5014 24.5809C88.5014 23.0915 92.4644 22.1536 93.9415 23.8008C94.9431 24.9177 93.8195 27.0768 92.1717 27.7474C91.0023 28.2232 89.9839 28.1237 88.9939 28.2219C88.382 28.2828 88.5014 28.3742 88.5014 28.9889C89.6939 29.2667 89.7159 29.0383 90.6588 29.0096C91.053 28.9975 91.2728 29.1529 91.65 29.2408C91.1552 29.9162 90.3926 29.4472 90.6424 30.6263C91.3588 30.6263 91.158 30.6632 91.5609 30.2852C91.9471 29.9224 91.9618 29.9794 92.4057 29.7445C92.7779 30.3005 92.8278 30.0278 93.0461 30.8709C93.7078 33.4271 90.7225 37.4274 87.4938 37.4274C86.0956 37.4274 84.0932 37.0582 84.0932 35.4123C84.0932 33.7336 84.1595 33.19 85.3496 31.6307C88.1679 27.9382 91.579 31.6277 88.6612 34.5647C87.3774 35.8569 86.9437 35.2107 86.864 36.1678C87.4843 36.686 89.7388 35.451 90.3764 33.7606C90.8281 32.5628 90.998 31.2308 89.9599 30.3014C87.41 28.0183 81.9577 31.6478 83.3458 36.1596C83.973 38.1978 88.335 38.8071 91.8061 35.9461C93.1951 34.8011 94.169 33.4024 94.169 31.382C94.169 30.4676 93.1653 29.6849 92.7835 29.1149C94.2597 28.771 94.8971 28.4851 96.8139 28.4851C94.9754 31.2304 95.2958 31.1009 94.2794 34.3891C93.7525 36.0931 92.9222 39.3844 91.9797 40.6537C90.692 42.3879 89.4918 40.3692 88.2495 42.7171C89.0997 42.6463 89.1332 42.2134 90.6424 42.2134C93.7204 42.2134 97.0056 43.5005 100.159 41.4023C103.196 39.3814 102.589 35.2424 98.577 34.9084C98.604 34.8913 98.6504 34.8436 98.6651 34.8706C98.6843 34.906 98.781 34.8227 98.849 34.8026C99.7915 34.5228 100.121 34.564 101.207 33.7604C102.979 32.4494 103.255 29.7169 101.144 28.6896C100.329 28.2934 99.364 28.1073 98.1992 28.1073C98.6757 27.3957 99.2563 27.0712 100.214 26.8479V26.5959C99.1492 26.6847 97.7252 27.9298 97.5894 28.0015L93.8847 28.4528C91.3948 28.9496 93.056 28.7177 91.7759 28.611V28.3593C92.3759 28.3094 93.3581 27.6517 93.7558 27.3164C97.1801 24.4293 94.4033 22.3138 92.6577 22.3138H91.3981C89.6773 22.3138 86.9901 23.41 86.9901 24.9587V24.9587Z" fill="#2B2B2A"/>
<path fill-rule="evenodd" clip-rule="evenodd" d="M150.721 19.4176C150.721 22.1419 154.868 23.3218 157.27 23.3218H159.159C161.35 23.3218 164.811 22.2982 165.215 19.9232C165.32 19.3083 165.288 18.9659 165.101 18.3881C164.758 17.3259 163.811 16.7727 162.56 16.7727C159.493 16.7727 159.328 24.3297 156.239 19.1894C155.552 18.0474 154.745 16.8889 153.589 16.7727H153.205C152.846 16.8075 152.455 16.94 152.027 17.1972C151.373 17.5893 150.721 18.4633 150.721 19.4176V19.4176Z" fill="#2B2B2A"/>
<path fill-rule="evenodd" clip-rule="evenodd" d="M104.258 45.3624H140.027V44.2289H106.021C105.46 44.2289 104.402 44.8224 104.258 45.3624Z" fill="#2B2B2A"/>
<path fill-rule="evenodd" clip-rule="evenodd" d="M46.8086 44.6067C46.8086 45.6277 47.0718 45.3648 48.5719 45.3624H82.5774C82.4688 44.9554 82.2145 44.898 81.8757 44.6786C81.5644 44.477 81.2558 44.2289 80.8141 44.2289H47.1864C46.8963 44.2289 46.8086 44.3165 46.8086 44.6067V44.6067Z" fill="#2B2B2A"/>
</svg>
